<?xml version="1.0" encoding="UTF-8" standalone="no"?>
<!DOCTYPE svg PUBLIC "-//W3C//DTD SVG 1.1//EN"
 "http://www.w3.org/Graphics/SVG/1.1/DTD/svg11.dtd">
<!-- Generated by graphviz version 2.36.0 (20140111.2315)
 -->
<!-- Title: CVarArgType &#45; Type Hierarchy &#45; SwiftDoc.org Pages: 1 -->
<svg width="1520pt" height="253pt"
 viewBox="0.00 0.00 1520.40 253.20" xmlns="http://www.w3.org/2000/svg" xmlns:xlink="http://www.w3.org/1999/xlink">
<g id="graph0" class="graph" transform="scale(1 1) rotate(0) translate(7.2 195.6)">
<g transform="translate(0 -195.6)">
<g>
    <path fill="#666666" d="M13.846,10.832c-0.336-0.464-0.792-0.844-1.368-1.14s-1.224-0.444-1.944-0.444
        c-0.384,0-0.772,0.052-1.164,0.156C8.977,9.509,8.622,9.677,8.301,9.908c-0.32,0.232-0.58,0.52-0.78,0.864
        c-0.2,0.344-0.3,0.756-0.3,1.236c0,0.464,0.092,0.852,0.276,1.164c0.184,0.312,0.432,0.576,0.744,0.792s0.68,0.4,1.104,0.552
        c0.423,0.152,0.876,0.309,1.356,0.468c0.576,0.177,1.16,0.376,1.752,0.601c0.592,0.224,1.128,0.52,1.608,0.888
        s0.872,0.828,1.176,1.38s0.456,1.252,0.456,2.101c0,0.88-0.164,1.644-0.492,2.292c-0.328,0.647-0.765,1.184-1.308,1.607
        c-0.544,0.424-1.172,0.74-1.884,0.948s-1.444,0.312-2.196,0.312c-1.072,0-2.108-0.208-3.108-0.624
        c-1-0.415-1.828-1.031-2.484-1.848l1.848-1.56c0.4,0.592,0.936,1.071,1.608,1.439c0.672,0.368,1.399,0.552,2.184,0.552
        c0.4,0,0.8-0.056,1.2-0.168c0.4-0.111,0.764-0.288,1.092-0.527c0.328-0.24,0.596-0.54,0.804-0.9
        c0.208-0.36,0.312-0.796,0.312-1.308s-0.108-0.94-0.324-1.284c-0.216-0.344-0.508-0.636-0.876-0.876s-0.796-0.444-1.284-0.612
        c-0.488-0.168-1.004-0.34-1.548-0.516c-0.544-0.16-1.08-0.356-1.608-0.588c-0.528-0.232-1-0.528-1.416-0.889
        c-0.416-0.359-0.752-0.804-1.008-1.332c-0.256-0.527-0.384-1.184-0.384-1.968c0-0.848,0.172-1.576,0.516-2.184
        c0.344-0.608,0.792-1.112,1.344-1.512c0.552-0.4,1.176-0.692,1.872-0.876c0.696-0.184,1.396-0.276,2.1-0.276
        c0.992,0,1.92,0.176,2.784,0.528c0.864,0.352,1.56,0.824,2.088,1.416L13.846,10.832z"/>
    <path fill="#666666" d="M18.813,13.304l2.568,8.688h0.048l2.712-8.688h2.376l2.76,8.688h0.048l2.568-8.688h2.376L30.501,24.68
        h-2.352l-2.808-8.544h-0.048l-2.784,8.544h-2.352l-3.792-11.376H18.813z"/>
    <path fill="#666666" d="M38.685,9.2c0,0.416-0.147,0.76-0.44,1.032c-0.294,0.272-0.647,0.408-1.06,0.408s-0.762-0.14-1.047-0.42
        c-0.286-0.28-0.429-0.62-0.429-1.02c0-0.416,0.143-0.764,0.429-1.044c0.286-0.28,0.635-0.42,1.047-0.42s0.766,0.14,1.06,0.42
        C38.538,8.437,38.685,8.784,38.685,9.2z M38.325,24.68h-2.256V13.304h2.256V24.68z"/>
    <path fill="#666666" d="M47.613,15.152h-2.64v9.528h-2.256v-9.528h-2.256v-1.848h2.256v-2.376c0-0.672,0.076-1.292,0.228-1.86
        c0.152-0.568,0.4-1.06,0.744-1.476c0.344-0.416,0.784-0.744,1.32-0.984c0.536-0.24,1.188-0.36,1.956-0.36
        c0.544,0,1.016,0.056,1.416,0.168l-0.264,1.944c-0.176-0.048-0.352-0.088-0.528-0.12c-0.176-0.032-0.376-0.048-0.6-0.048
        c-0.432,0-0.78,0.076-1.044,0.228c-0.264,0.152-0.468,0.356-0.612,0.612s-0.24,0.548-0.288,0.876
        c-0.048,0.328-0.072,0.668-0.072,1.02v2.376h2.64V15.152z"/>
    <path fill="#666666" d="M54.909,15.152h-3.024v5.91c0,0.687,0.128,1.177,0.384,1.472c0.256,0.295,0.664,0.442,1.224,0.442
        c0.208,0,0.432-0.021,0.672-0.065c0.24-0.044,0.456-0.11,0.648-0.198l0.072,1.848c-0.272,0.096-0.572,0.172-0.9,0.229
        c-0.328,0.056-0.668,0.084-1.02,0.084c-1.072,0-1.892-0.296-2.46-0.889c-0.568-0.592-0.852-1.479-0.852-2.664v-6.168h-2.184
        v-1.848h2.184V10.04h2.232v3.264h3.024V15.152z"/>
    <path fill="#666666" d="M57.356,7.688h5.832c1.088,0,2.176,0.16,3.264,0.48c1.088,0.32,2.072,0.824,2.952,1.512
        s1.592,1.568,2.136,2.64c0.544,1.072,0.816,2.36,0.816,3.864c0,1.456-0.272,2.716-0.816,3.78s-1.256,1.943-2.136,2.64
        s-1.864,1.216-2.952,1.561c-1.088,0.344-2.176,0.516-3.264,0.516h-5.832V7.688z M59.732,22.593h2.976
        c1.024,0,1.972-0.145,2.844-0.432c0.872-0.288,1.624-0.704,2.256-1.248c0.632-0.544,1.124-1.216,1.476-2.017
        c0.352-0.8,0.528-1.704,0.528-2.712c0-1.056-0.176-1.983-0.528-2.784c-0.353-0.8-0.844-1.468-1.476-2.004
        c-0.632-0.536-1.384-0.944-2.256-1.224s-1.82-0.42-2.844-0.42h-2.976V22.593z"/>
    <path fill="#666666" d="M86.06,18.969c0,0.88-0.156,1.688-0.468,2.424c-0.312,0.736-0.744,1.372-1.296,1.908
        c-0.552,0.536-1.204,0.952-1.956,1.248c-0.752,0.296-1.56,0.443-2.424,0.443c-0.864,0-1.672-0.147-2.424-0.443
        c-0.752-0.296-1.4-0.712-1.944-1.248c-0.544-0.536-0.972-1.172-1.284-1.908c-0.312-0.735-0.468-1.544-0.468-2.424
        s0.156-1.684,0.468-2.412c0.312-0.728,0.74-1.356,1.284-1.884c0.543-0.528,1.191-0.939,1.944-1.236
        c0.752-0.296,1.56-0.444,2.424-0.444c0.864,0,1.672,0.148,2.424,0.444c0.752,0.297,1.404,0.708,1.956,1.236
        c0.552,0.527,0.984,1.156,1.296,1.884C85.904,17.285,86.06,18.089,86.06,18.969z M83.708,18.98c0-0.542-0.084-1.061-0.252-1.556
        c-0.169-0.494-0.414-0.929-0.734-1.304s-0.718-0.674-1.192-0.897s-1.015-0.335-1.625-0.335c-0.61,0-1.152,0.111-1.625,0.335
        c-0.474,0.224-0.871,0.522-1.191,0.897c-0.321,0.375-0.566,0.81-0.734,1.304C76.184,17.92,76.1,18.438,76.1,18.98
        c0,0.543,0.084,1.062,0.253,1.556c0.168,0.495,0.413,0.934,0.734,1.316c0.321,0.383,0.718,0.686,1.191,0.909
        c0.473,0.224,1.015,0.335,1.625,0.335c0.61,0,1.151-0.111,1.625-0.335s0.871-0.526,1.192-0.909s0.565-0.821,0.734-1.316
        C83.624,20.042,83.708,19.523,83.708,18.98z"/>
    <path fill="#666666" d="M96.428,16.184c-0.24-0.368-0.6-0.676-1.08-0.924s-0.992-0.372-1.536-0.372
        c-0.592,0-1.116,0.112-1.572,0.336c-0.456,0.225-0.844,0.524-1.164,0.9c-0.32,0.376-0.564,0.812-0.732,1.308
        s-0.252,1.017-0.252,1.56c0,0.545,0.084,1.064,0.252,1.561s0.412,0.933,0.732,1.308c0.32,0.376,0.712,0.677,1.176,0.9
        c0.464,0.225,0.992,0.336,1.584,0.336c0.576,0,1.1-0.111,1.572-0.336c0.472-0.224,0.86-0.528,1.164-0.912l1.512,1.368
        c-0.48,0.561-1.08,0.996-1.8,1.308c-0.72,0.312-1.536,0.468-2.448,0.468c-0.88,0-1.692-0.144-2.436-0.432
        c-0.744-0.288-1.388-0.691-1.932-1.212c-0.544-0.52-0.972-1.147-1.284-1.884s-0.468-1.561-0.468-2.473
        c0-0.896,0.152-1.711,0.456-2.447c0.304-0.736,0.728-1.368,1.272-1.896c0.543-0.527,1.188-0.936,1.932-1.224
        c0.744-0.288,1.548-0.433,2.412-0.433c0.8,0,1.596,0.16,2.388,0.48s1.419,0.784,1.884,1.392L96.428,16.184z"/>
    <path fill="#666666" d="M103.1,23.24c0,0.417-0.152,0.784-0.456,1.104c-0.304,0.32-0.688,0.479-1.152,0.479
        c-0.448,0-0.828-0.155-1.14-0.468c-0.312-0.312-0.468-0.676-0.468-1.092c0-0.432,0.152-0.804,0.456-1.116
        c0.304-0.312,0.688-0.468,1.152-0.468c0.464,0,0.848,0.152,1.152,0.456C102.947,22.44,103.1,22.808,103.1,23.24z"/>
    <path fill="#666666" d="M116.635,18.969c0,0.88-0.156,1.688-0.468,2.424c-0.312,0.736-0.744,1.372-1.296,1.908
        c-0.552,0.536-1.204,0.952-1.956,1.248c-0.752,0.296-1.56,0.443-2.424,0.443c-0.864,0-1.672-0.147-2.424-0.443
        c-0.752-0.296-1.4-0.712-1.944-1.248c-0.544-0.536-0.972-1.172-1.284-1.908c-0.312-0.735-0.468-1.544-0.468-2.424
        s0.156-1.684,0.468-2.412c0.312-0.728,0.74-1.356,1.284-1.884c0.543-0.528,1.191-0.939,1.944-1.236
        c0.752-0.296,1.56-0.444,2.424-0.444c0.864,0,1.672,0.148,2.424,0.444c0.752,0.297,1.404,0.708,1.956,1.236
        c0.552,0.527,0.984,1.156,1.296,1.884C116.479,17.285,116.635,18.089,116.635,18.969z M114.283,18.98
        c0-0.542-0.084-1.061-0.252-1.556c-0.169-0.494-0.414-0.929-0.734-1.304s-0.718-0.674-1.192-0.897s-1.015-0.335-1.625-0.335
        c-0.61,0-1.152,0.111-1.625,0.335c-0.474,0.224-0.871,0.522-1.191,0.897c-0.321,0.375-0.566,0.81-0.734,1.304
        c-0.169,0.495-0.253,1.014-0.253,1.556c0,0.543,0.084,1.062,0.253,1.556c0.168,0.495,0.413,0.934,0.734,1.316
        c0.321,0.383,0.718,0.686,1.191,0.909c0.473,0.224,1.015,0.335,1.625,0.335c0.61,0,1.151-0.111,1.625-0.335
        s0.871-0.526,1.192-0.909s0.565-0.821,0.734-1.316C114.199,20.042,114.283,19.523,114.283,18.98z"/>
    <path fill="#666666" d="M119.251,14.577c-0.016-0.48-0.04-0.904-0.072-1.272h2.136c0.032,0.288,0.056,0.62,0.072,0.996
        c0.016,0.376,0.024,0.684,0.024,0.924h0.072c0.32-0.672,0.788-1.212,1.404-1.62c0.616-0.408,1.308-0.612,2.076-0.612
        c0.352,0,0.648,0.033,0.888,0.097l-0.096,2.088c-0.32-0.08-0.664-0.12-1.032-0.12c-0.544,0-1.016,0.101-1.416,0.3
        c-0.4,0.2-0.732,0.468-0.996,0.805c-0.264,0.336-0.46,0.724-0.588,1.163c-0.128,0.44-0.192,0.9-0.192,1.381v5.976h-2.256v-8.928
        C119.275,15.449,119.267,15.056,119.251,14.577z"/>
    <path fill="#666666" d="M128.419,26.625c0.496,0.56,1.116,1.008,1.86,1.344c0.744,0.336,1.508,0.504,2.292,0.504
        c0.752,0,1.384-0.108,1.896-0.324s0.924-0.512,1.236-0.888s0.536-0.82,0.672-1.332c0.136-0.513,0.204-1.064,0.204-1.656v-1.464
        h-0.048c-0.416,0.641-0.984,1.128-1.704,1.464c-0.72,0.336-1.488,0.504-2.304,0.504c-0.864,0-1.652-0.151-2.364-0.456
        c-0.712-0.304-1.316-0.72-1.812-1.248c-0.496-0.527-0.88-1.147-1.152-1.859s-0.408-1.477-0.408-2.292
        c0-0.816,0.136-1.584,0.408-2.305c0.272-0.72,0.656-1.348,1.152-1.884c0.496-0.535,1.096-0.96,1.8-1.271
        c0.704-0.312,1.488-0.469,2.352-0.469c0.816,0,1.596,0.177,2.34,0.528c0.744,0.353,1.332,0.888,1.764,1.608h0.048v-1.824h2.184
        v10.8c0,0.832-0.104,1.628-0.312,2.388c-0.208,0.76-0.56,1.433-1.056,2.017s-1.144,1.052-1.944,1.404
        c-0.8,0.352-1.792,0.527-2.976,0.527c-0.992,0-1.988-0.18-2.988-0.54c-1-0.359-1.86-0.868-2.58-1.523L128.419,26.625z
         M129.091,18.873c0,0.527,0.084,1.031,0.253,1.512c0.168,0.479,0.417,0.904,0.746,1.271c0.329,0.369,0.726,0.664,1.192,0.889
        c0.465,0.224,0.995,0.336,1.589,0.336c0.577,0,1.107-0.104,1.589-0.312c0.481-0.207,0.891-0.491,1.228-0.852
        s0.598-0.784,0.782-1.272c0.185-0.487,0.277-1.012,0.277-1.571c0-0.544-0.093-1.057-0.277-1.536
        c-0.185-0.48-0.449-0.904-0.794-1.272c-0.345-0.367-0.755-0.66-1.228-0.876c-0.474-0.216-1-0.324-1.577-0.324
        c-0.594,0-1.124,0.108-1.589,0.324c-0.466,0.216-0.863,0.504-1.192,0.864s-0.578,0.784-0.746,1.271
        C129.175,17.812,129.091,18.329,129.091,18.873z"/>
</g>
<g><a xlink:href="/" pointer-events="all" target="_top"><polygon fill="none" points="0,0 145,0 145,35 0,35 0,0"/></a></g>

</g>


<!-- AutoreleasingUnsafeMutablePointer -->
<g id="node1" class="node">
<g id="a_node1"><a xlink:href="/v2.1/type/AutoreleasingUnsafeMutablePointer/" target="_top">
<polygon fill="#999999" stroke="#999999" points="202.088,-22 -0.0879076,-22 -0.0879076,-0 202.088,-0 202.088,-22"/>
<text text-anchor="middle" x="101" y="-7.4" font-family="Helvetica,sans-Serif" font-size="12.00" fill="white">AutoreleasingUnsafeMutablePointer</text>
</a>
</g>
</g>
<!-- Bit -->
<g id="node2" class="node">
<g id="a_node2"><a xlink:href="/v2.1/type/Bit/" target="_top">
<polygon fill="#999999" stroke="#999999" points="464,-22 410,-22 410,-0 464,-0 464,-22"/>
<text text-anchor="middle" x="437" y="-7.4" font-family="Helvetica,sans-Serif" font-size="12.00" fill="white">Bit</text>
</a>
</g>
</g>
<!-- COpaquePointer -->
<g id="node3" class="node">
<g id="a_node3"><a xlink:href="/v2.1/type/COpaquePointer/" target="_top">
<polygon fill="#999999" stroke="#999999" points="319.542,-22 220.458,-22 220.458,-0 319.542,-0 319.542,-22"/>
<text text-anchor="middle" x="270" y="-7.4" font-family="Helvetica,sans-Serif" font-size="12.00" fill="white">COpaquePointer</text>
</a>
</g>
</g>
<!-- CVarArgType -->
<g id="node4" class="node">
<g id="a_node4"><a xlink:href="/v2.1/protocol/CVarArgType/" target="_top">
<path fill="#ee543d" stroke="#ee543d" d="M794.029,-138C794.029,-138 727.971,-138 727.971,-138 724.304,-138 720.638,-134.333 720.638,-130.667 720.638,-130.667 720.638,-123.333 720.638,-123.333 720.638,-119.667 724.304,-116 727.971,-116 727.971,-116 794.029,-116 794.029,-116 797.696,-116 801.362,-119.667 801.362,-123.333 801.362,-123.333 801.362,-130.667 801.362,-130.667 801.362,-134.333 797.696,-138 794.029,-138"/>
<text text-anchor="middle" x="761" y="-123.4" font-family="Helvetica,sans-Serif" font-size="12.00" fill="white">CVarArgType</text>
</a>
</g>
</g>
<!-- CVarArgType&#45;&gt;AutoreleasingUnsafeMutablePointer -->
<g id="edge1" class="edge">
<path fill="none" stroke="#cccccc" d="M720.472,-121.022C659.01,-113.297 538.625,-97.4821 437,-80 337.554,-62.8927 222.453,-38.6186 156.053,-24.1745"/>
<polygon fill="#cccccc" stroke="#cccccc" points="156.737,-20.7415 146.221,-22.0301 155.245,-27.5807 156.737,-20.7415"/>
</g>
<!-- CVarArgType&#45;&gt;COpaquePointer -->
<g id="edge2" class="edge">
<path fill="none" stroke="#cccccc" d="M720.315,-118.939C673.14,-110.552 593.133,-95.7054 525,-80 450.704,-62.8742 365.251,-39.2806 314.538,-24.8639"/>
<polygon fill="#cccccc" stroke="#cccccc" points="315.449,-21.4841 304.872,-22.1075 313.529,-28.2157 315.449,-21.4841"/>
</g>
<!-- Int -->
<g id="node7" class="node">
<g id="a_node7"><a xlink:href="/v2.1/type/Int/" target="_top">
<polygon fill="#999999" stroke="#999999" points="392,-22 338,-22 338,-0 392,-0 392,-22"/>
<text text-anchor="middle" x="365" y="-7.4" font-family="Helvetica,sans-Serif" font-size="12.00" fill="white">Int</text>
</a>
</g>
</g>
<!-- CVarArgType&#45;&gt;Int -->
<g id="edge3" class="edge">
<path fill="none" stroke="#cccccc" d="M725.814,-115.984C693.191,-106.688 643.304,-92.4514 600,-80 529.985,-59.8682 448.294,-36.1863 402.005,-22.7496"/>
<polygon fill="#cccccc" stroke="#cccccc" points="402.71,-19.3098 392.131,-19.8828 400.758,-26.0322 402.71,-19.3098"/>
</g>
<!-- Int16 -->
<g id="node8" class="node">
<g id="a_node8"><a xlink:href="/v2.1/type/Int16/" target="_top">
<polygon fill="#999999" stroke="#999999" points="536,-22 482,-22 482,-0 536,-0 536,-22"/>
<text text-anchor="middle" x="509" y="-7.4" font-family="Helvetica,sans-Serif" font-size="12.00" fill="white">Int16</text>
</a>
</g>
</g>
<!-- CVarArgType&#45;&gt;Int16 -->
<g id="edge4" class="edge">
<path fill="none" stroke="#cccccc" d="M735.944,-115.943C713.547,-106.854 679.901,-92.9529 651,-80 611.559,-62.3231 566.665,-40.5398 538.102,-26.4671"/>
<polygon fill="#cccccc" stroke="#cccccc" points="539.589,-23.2979 529.073,-22.0073 536.489,-29.574 539.589,-23.2979"/>
</g>
<!-- Int32 -->
<g id="node9" class="node">
<g id="a_node9"><a xlink:href="/v2.1/type/Int32/" target="_top">
<polygon fill="#999999" stroke="#999999" points="608,-22 554,-22 554,-0 608,-0 608,-22"/>
<text text-anchor="middle" x="581" y="-7.4" font-family="Helvetica,sans-Serif" font-size="12.00" fill="white">Int32</text>
</a>
</g>
</g>
<!-- CVarArgType&#45;&gt;Int32 -->
<g id="edge5" class="edge">
<path fill="none" stroke="#cccccc" d="M745.026,-115.883C713.537,-95.9399 643.255,-51.4281 605.729,-27.6618"/>
<polygon fill="#cccccc" stroke="#cccccc" points="607.259,-24.4878 596.938,-22.0941 603.514,-30.4015 607.259,-24.4878"/>
</g>
<!-- Int8 -->
<g id="node11" class="node">
<g id="a_node11"><a xlink:href="/v2.1/type/Int8/" target="_top">
<polygon fill="#999999" stroke="#999999" points="680,-22 626,-22 626,-0 680,-0 680,-22"/>
<text text-anchor="middle" x="653" y="-7.4" font-family="Helvetica,sans-Serif" font-size="12.00" fill="white">Int8</text>
</a>
</g>
</g>
<!-- CVarArgType&#45;&gt;Int8 -->
<g id="edge6" class="edge">
<path fill="none" stroke="#cccccc" d="M751.416,-115.883C733.049,-96.4959 692.686,-53.8909 669.765,-29.6969"/>
<polygon fill="#cccccc" stroke="#cccccc" points="672.136,-27.1104 662.718,-22.2579 667.055,-31.9246 672.136,-27.1104"/>
</g>
<!-- UInt -->
<g id="node12" class="node">
<g id="a_node12"><a xlink:href="/v2.1/type/UInt/" target="_top">
<polygon fill="#999999" stroke="#999999" points="752,-22 698,-22 698,-0 752,-0 752,-22"/>
<text text-anchor="middle" x="725" y="-7.4" font-family="Helvetica,sans-Serif" font-size="12.00" fill="white">UInt</text>
</a>
</g>
</g>
<!-- CVarArgType&#45;&gt;UInt -->
<g id="edge7" class="edge">
<path fill="none" stroke="#cccccc" d="M757.805,-115.883C751.869,-97.086 739.041,-56.4627 731.302,-31.9559"/>
<polygon fill="#cccccc" stroke="#cccccc" points="734.588,-30.7398 728.239,-22.2579 727.913,-32.8478 734.588,-30.7398"/>
</g>
<!-- UInt16 -->
<g id="node13" class="node">
<g id="a_node13"><a xlink:href="/v2.1/type/UInt16/" target="_top">
<polygon fill="#999999" stroke="#999999" points="824,-22 770,-22 770,-0 824,-0 824,-22"/>
<text text-anchor="middle" x="797" y="-7.4" font-family="Helvetica,sans-Serif" font-size="12.00" fill="white">UInt16</text>
</a>
</g>
</g>
<!-- CVarArgType&#45;&gt;UInt16 -->
<g id="edge8" class="edge">
<path fill="none" stroke="#cccccc" d="M764.195,-115.883C770.131,-97.086 782.959,-56.4627 790.698,-31.9559"/>
<polygon fill="#cccccc" stroke="#cccccc" points="794.087,-32.8478 793.761,-22.2579 787.412,-30.7398 794.087,-32.8478"/>
</g>
<!-- UInt32 -->
<g id="node14" class="node">
<g id="a_node14"><a xlink:href="/v2.1/type/UInt32/" target="_top">
<polygon fill="#999999" stroke="#999999" points="896,-22 842,-22 842,-0 896,-0 896,-22"/>
<text text-anchor="middle" x="869" y="-7.4" font-family="Helvetica,sans-Serif" font-size="12.00" fill="white">UInt32</text>
</a>
</g>
</g>
<!-- CVarArgType&#45;&gt;UInt32 -->
<g id="edge9" class="edge">
<path fill="none" stroke="#cccccc" d="M770.584,-115.883C788.951,-96.4959 829.314,-53.8909 852.235,-29.6969"/>
<polygon fill="#cccccc" stroke="#cccccc" points="854.945,-31.9246 859.282,-22.2579 849.864,-27.1104 854.945,-31.9246"/>
</g>
<!-- UInt8 -->
<g id="node16" class="node">
<g id="a_node16"><a xlink:href="/v2.1/type/UInt8/" target="_top">
<polygon fill="#999999" stroke="#999999" points="968,-22 914,-22 914,-0 968,-0 968,-22"/>
<text text-anchor="middle" x="941" y="-7.4" font-family="Helvetica,sans-Serif" font-size="12.00" fill="white">UInt8</text>
</a>
</g>
</g>
<!-- CVarArgType&#45;&gt;UInt8 -->
<g id="edge10" class="edge">
<path fill="none" stroke="#cccccc" d="M776.974,-115.883C808.463,-95.9399 878.745,-51.4281 916.271,-27.6618"/>
<polygon fill="#cccccc" stroke="#cccccc" points="918.486,-30.4015 925.062,-22.0941 914.741,-24.4878 918.486,-30.4015"/>
</g>
<!-- UnsafeMutablePointer -->
<g id="node17" class="node">
<g id="a_node17"><a xlink:href="/v2.1/type/UnsafeMutablePointer/" target="_top">
<polygon fill="#999999" stroke="#999999" points="1114.05,-22 985.949,-22 985.949,-0 1114.05,-0 1114.05,-22"/>
<text text-anchor="middle" x="1050" y="-7.4" font-family="Helvetica,sans-Serif" font-size="12.00" fill="white">UnsafeMutablePointer</text>
</a>
</g>
</g>
<!-- CVarArgType&#45;&gt;UnsafeMutablePointer -->
<g id="edge11" class="edge">
<path fill="none" stroke="#cccccc" d="M786.394,-115.983C838.085,-95.5929 955.626,-49.2273 1014.71,-25.9205"/>
<polygon fill="#cccccc" stroke="#cccccc" points="1016.34,-29.0419 1024.35,-22.1165 1013.77,-22.5302 1016.34,-29.0419"/>
</g>
<!-- UnsafePointer -->
<g id="node18" class="node">
<g id="a_node18"><a xlink:href="/v2.1/type/UnsafePointer/" target="_top">
<polygon fill="#999999" stroke="#999999" points="1218.03,-22 1131.97,-22 1131.97,-0 1218.03,-0 1218.03,-22"/>
<text text-anchor="middle" x="1175" y="-7.4" font-family="Helvetica,sans-Serif" font-size="12.00" fill="white">UnsafePointer</text>
</a>
</g>
</g>
<!-- CVarArgType&#45;&gt;UnsafePointer -->
<g id="edge12" class="edge">
<path fill="none" stroke="#cccccc" d="M797.377,-115.983C872.745,-95.2297 1045.83,-47.5675 1128.89,-24.6975"/>
<polygon fill="#cccccc" stroke="#cccccc" points="1129.85,-28.0641 1138.56,-22.0348 1127.99,-21.3153 1129.85,-28.0641"/>
</g>
<!-- _CVarArgAlignedType -->
<g id="node19" class="node">
<g id="a_node19"><a xlink:href="/v2.1/protocol/_CVarArgAlignedType/" target="_top">
<path fill="#999999" stroke="#999999" d="M1463.06,-80C1463.06,-80 1350.94,-80 1350.94,-80 1347.27,-80 1343.61,-76.3333 1343.61,-72.6667 1343.61,-72.6667 1343.61,-65.3333 1343.61,-65.3333 1343.61,-61.6667 1347.27,-58 1350.94,-58 1350.94,-58 1463.06,-58 1463.06,-58 1466.73,-58 1470.39,-61.6667 1470.39,-65.3333 1470.39,-65.3333 1470.39,-72.6667 1470.39,-72.6667 1470.39,-76.3333 1466.73,-80 1463.06,-80"/>
<text text-anchor="middle" x="1407" y="-65.4" font-family="Helvetica,sans-Serif" font-size="12.00" fill="white">_CVarArgAlignedType</text>
</a>
</g>
</g>
<!-- CVarArgType&#45;&gt;_CVarArgAlignedType -->
<g id="edge13" class="edge">
<path fill="none" stroke="#cccccc" d="M801.292,-123.512C894.829,-117.571 1133.9,-101.442 1333,-80 1333.1,-79.9887 1333.21,-79.9774 1333.31,-79.9661"/>
<polygon fill="#cccccc" stroke="#cccccc" points="1333.71,-83.4438 1343.25,-78.8375 1332.92,-76.4886 1333.71,-83.4438"/>
</g>
<!-- _CVarArgPassedAsDouble -->
<g id="node20" class="node">
<g id="a_node20"><a xlink:href="/v2.1/protocol/_CVarArgPassedAsDouble/" target="_top">
<path fill="#999999" stroke="#999999" d="M1317.06,-80C1317.06,-80 1178.94,-80 1178.94,-80 1175.27,-80 1171.6,-76.3333 1171.6,-72.6667 1171.6,-72.6667 1171.6,-65.3333 1171.6,-65.3333 1171.6,-61.6667 1175.27,-58 1178.94,-58 1178.94,-58 1317.06,-58 1317.06,-58 1320.73,-58 1324.4,-61.6667 1324.4,-65.3333 1324.4,-65.3333 1324.4,-72.6667 1324.4,-72.6667 1324.4,-76.3333 1320.73,-80 1317.06,-80"/>
<text text-anchor="middle" x="1248" y="-65.4" font-family="Helvetica,sans-Serif" font-size="12.00" fill="white">_CVarArgPassedAsDouble</text>
</a>
</g>
</g>
<!-- CVarArgType&#45;&gt;_CVarArgPassedAsDouble -->
<g id="edge14" class="edge">
<path fill="none" stroke="#cccccc" d="M801.684,-121.322C880.413,-112.269 1055.16,-92.1744 1161.14,-79.9884"/>
<polygon fill="#cccccc" stroke="#cccccc" points="1161.64,-83.4539 1171.17,-78.8344 1160.84,-76.4998 1161.64,-83.4539"/>
</g>
<!-- Double -->
<g id="node5" class="node">
<g id="a_node5"><a xlink:href="/v2.1/type/Double/" target="_top">
<polygon fill="#999999" stroke="#999999" points="1362,-22 1308,-22 1308,-0 1362,-0 1362,-22"/>
<text text-anchor="middle" x="1335" y="-7.4" font-family="Helvetica,sans-Serif" font-size="12.00" fill="white">Double</text>
</a>
</g>
</g>
<!-- Float -->
<g id="node6" class="node">
<g id="a_node6"><a xlink:href="/v2.1/type/Float/" target="_top">
<polygon fill="#999999" stroke="#999999" points="1290,-22 1236,-22 1236,-0 1290,-0 1290,-22"/>
<text text-anchor="middle" x="1263" y="-7.4" font-family="Helvetica,sans-Serif" font-size="12.00" fill="white">Float</text>
</a>
</g>
</g>
<!-- Int&#45;&gt;Bit -->
<g id="edge15" class="edge">
<path fill="none" stroke="#cccccc" d="M392.281,-11C394.738,-11 397.194,-11 399.651,-11"/>
<polygon fill="#cccccc" stroke="#cccccc" points="399.75,-14.5001 409.75,-11 399.749,-7.5001 399.75,-14.5001"/>
</g>
<!-- Int64 -->
<g id="node10" class="node">
<g id="a_node10"><a xlink:href="/v2.1/type/Int64/" target="_top">
<polygon fill="#999999" stroke="#999999" points="1506,-22 1452,-22 1452,-0 1506,-0 1506,-22"/>
<text text-anchor="middle" x="1479" y="-7.4" font-family="Helvetica,sans-Serif" font-size="12.00" fill="white">Int64</text>
</a>
</g>
</g>
<!-- UInt64 -->
<g id="node15" class="node">
<g id="a_node15"><a xlink:href="/v2.1/type/UInt64/" target="_top">
<polygon fill="#999999" stroke="#999999" points="1434,-22 1380,-22 1380,-0 1434,-0 1434,-22"/>
<text text-anchor="middle" x="1407" y="-7.4" font-family="Helvetica,sans-Serif" font-size="12.00" fill="white">UInt64</text>
</a>
</g>
</g>
<!-- _CVarArgAlignedType&#45;&gt;Double -->
<g id="edge16" class="edge">
<path fill="none" stroke="#cccccc" d="M1394.13,-57.9883C1383.61,-49.8087 1368.53,-38.0773 1356.23,-28.5108"/>
<polygon fill="#cccccc" stroke="#cccccc" points="1358.29,-25.6806 1348.25,-22.3039 1353.99,-31.2061 1358.29,-25.6806"/>
</g>
<!-- _CVarArgAlignedType&#45;&gt;Float -->
<g id="edge17" class="edge">
<path fill="none" stroke="#cccccc" d="M1381.26,-57.9883C1358.16,-49.0057 1324.05,-35.7398 1298.39,-25.7614"/>
<polygon fill="#cccccc" stroke="#cccccc" points="1299.6,-22.4763 1289.01,-22.1138 1297.06,-29.0004 1299.6,-22.4763"/>
</g>
<!-- _CVarArgAlignedType&#45;&gt;Int64 -->
<g id="edge18" class="edge">
<path fill="none" stroke="#cccccc" d="M1419.87,-57.9883C1430.39,-49.8087 1445.47,-38.0773 1457.77,-28.5108"/>
<polygon fill="#cccccc" stroke="#cccccc" points="1460.01,-31.2061 1465.75,-22.3039 1455.71,-25.6806 1460.01,-31.2061"/>
</g>
<!-- _CVarArgAlignedType&#45;&gt;UInt64 -->
<g id="edge19" class="edge">
<path fill="none" stroke="#cccccc" d="M1407,-57.9883C1407,-50.9098 1407,-41.1714 1407,-32.4779"/>
<polygon fill="#cccccc" stroke="#cccccc" points="1410.5,-32.3038 1407,-22.3039 1403.5,-32.3039 1410.5,-32.3038"/>
</g>
<!-- _CVarArgPassedAsDouble&#45;&gt;Double -->
<g id="edge20" class="edge">
<path fill="none" stroke="#cccccc" d="M1263.55,-57.9883C1276.59,-49.5993 1295.42,-37.4743 1310.48,-27.7804"/>
<polygon fill="#cccccc" stroke="#cccccc" points="1312.77,-30.4693 1319.29,-22.1138 1308.98,-24.5833 1312.77,-30.4693"/>
</g>
<!-- _CVarArgPassedAsDouble&#45;&gt;Float -->
<g id="edge21" class="edge">
<path fill="none" stroke="#cccccc" d="M1250.68,-57.9883C1252.6,-50.8311 1255.24,-40.9547 1257.59,-32.1885"/>
<polygon fill="#cccccc" stroke="#cccccc" points="1261.03,-32.869 1260.24,-22.3039 1254.27,-31.0578 1261.03,-32.869"/>
</g>
</g>
</svg>
