<?xml version="1.0" encoding="UTF-8" standalone="no"?>
<!DOCTYPE svg PUBLIC "-//W3C//DTD SVG 1.1//EN"
 "http://www.w3.org/Graphics/SVG/1.1/DTD/svg11.dtd">
<!-- Generated by graphviz version 2.36.0 (20140111.2315)
 -->
<!-- Title: ContiguousArray&lt;Element&gt; &#45; Type Hierarchy &#45; SwiftDoc.org Pages: 1 -->
<svg width="1273pt" height="427pt"
 viewBox="0.00 0.00 1273.40 427.20" xmlns="http://www.w3.org/2000/svg" xmlns:xlink="http://www.w3.org/1999/xlink">
<g id="graph0" class="graph" transform="scale(1 1) rotate(0) translate(7.2 369.6)">
<g transform="translate(0 -369.6)">
<g>
    <path fill="#666666" d="M13.846,10.832c-0.336-0.464-0.792-0.844-1.368-1.14s-1.224-0.444-1.944-0.444
        c-0.384,0-0.772,0.052-1.164,0.156C8.977,9.509,8.622,9.677,8.301,9.908c-0.32,0.232-0.58,0.52-0.78,0.864
        c-0.2,0.344-0.3,0.756-0.3,1.236c0,0.464,0.092,0.852,0.276,1.164c0.184,0.312,0.432,0.576,0.744,0.792s0.68,0.4,1.104,0.552
        c0.423,0.152,0.876,0.309,1.356,0.468c0.576,0.177,1.16,0.376,1.752,0.601c0.592,0.224,1.128,0.52,1.608,0.888
        s0.872,0.828,1.176,1.38s0.456,1.252,0.456,2.101c0,0.88-0.164,1.644-0.492,2.292c-0.328,0.647-0.765,1.184-1.308,1.607
        c-0.544,0.424-1.172,0.74-1.884,0.948s-1.444,0.312-2.196,0.312c-1.072,0-2.108-0.208-3.108-0.624
        c-1-0.415-1.828-1.031-2.484-1.848l1.848-1.56c0.4,0.592,0.936,1.071,1.608,1.439c0.672,0.368,1.399,0.552,2.184,0.552
        c0.4,0,0.8-0.056,1.2-0.168c0.4-0.111,0.764-0.288,1.092-0.527c0.328-0.24,0.596-0.54,0.804-0.9
        c0.208-0.36,0.312-0.796,0.312-1.308s-0.108-0.94-0.324-1.284c-0.216-0.344-0.508-0.636-0.876-0.876s-0.796-0.444-1.284-0.612
        c-0.488-0.168-1.004-0.34-1.548-0.516c-0.544-0.16-1.08-0.356-1.608-0.588c-0.528-0.232-1-0.528-1.416-0.889
        c-0.416-0.359-0.752-0.804-1.008-1.332c-0.256-0.527-0.384-1.184-0.384-1.968c0-0.848,0.172-1.576,0.516-2.184
        c0.344-0.608,0.792-1.112,1.344-1.512c0.552-0.4,1.176-0.692,1.872-0.876c0.696-0.184,1.396-0.276,2.1-0.276
        c0.992,0,1.92,0.176,2.784,0.528c0.864,0.352,1.56,0.824,2.088,1.416L13.846,10.832z"/>
    <path fill="#666666" d="M18.813,13.304l2.568,8.688h0.048l2.712-8.688h2.376l2.76,8.688h0.048l2.568-8.688h2.376L30.501,24.68
        h-2.352l-2.808-8.544h-0.048l-2.784,8.544h-2.352l-3.792-11.376H18.813z"/>
    <path fill="#666666" d="M38.685,9.2c0,0.416-0.147,0.76-0.44,1.032c-0.294,0.272-0.647,0.408-1.06,0.408s-0.762-0.14-1.047-0.42
        c-0.286-0.28-0.429-0.62-0.429-1.02c0-0.416,0.143-0.764,0.429-1.044c0.286-0.28,0.635-0.42,1.047-0.42s0.766,0.14,1.06,0.42
        C38.538,8.437,38.685,8.784,38.685,9.2z M38.325,24.68h-2.256V13.304h2.256V24.68z"/>
    <path fill="#666666" d="M47.613,15.152h-2.64v9.528h-2.256v-9.528h-2.256v-1.848h2.256v-2.376c0-0.672,0.076-1.292,0.228-1.86
        c0.152-0.568,0.4-1.06,0.744-1.476c0.344-0.416,0.784-0.744,1.32-0.984c0.536-0.24,1.188-0.36,1.956-0.36
        c0.544,0,1.016,0.056,1.416,0.168l-0.264,1.944c-0.176-0.048-0.352-0.088-0.528-0.12c-0.176-0.032-0.376-0.048-0.6-0.048
        c-0.432,0-0.78,0.076-1.044,0.228c-0.264,0.152-0.468,0.356-0.612,0.612s-0.24,0.548-0.288,0.876
        c-0.048,0.328-0.072,0.668-0.072,1.02v2.376h2.64V15.152z"/>
    <path fill="#666666" d="M54.909,15.152h-3.024v5.91c0,0.687,0.128,1.177,0.384,1.472c0.256,0.295,0.664,0.442,1.224,0.442
        c0.208,0,0.432-0.021,0.672-0.065c0.24-0.044,0.456-0.11,0.648-0.198l0.072,1.848c-0.272,0.096-0.572,0.172-0.9,0.229
        c-0.328,0.056-0.668,0.084-1.02,0.084c-1.072,0-1.892-0.296-2.46-0.889c-0.568-0.592-0.852-1.479-0.852-2.664v-6.168h-2.184
        v-1.848h2.184V10.04h2.232v3.264h3.024V15.152z"/>
    <path fill="#666666" d="M57.356,7.688h5.832c1.088,0,2.176,0.16,3.264,0.48c1.088,0.32,2.072,0.824,2.952,1.512
        s1.592,1.568,2.136,2.64c0.544,1.072,0.816,2.36,0.816,3.864c0,1.456-0.272,2.716-0.816,3.78s-1.256,1.943-2.136,2.64
        s-1.864,1.216-2.952,1.561c-1.088,0.344-2.176,0.516-3.264,0.516h-5.832V7.688z M59.732,22.593h2.976
        c1.024,0,1.972-0.145,2.844-0.432c0.872-0.288,1.624-0.704,2.256-1.248c0.632-0.544,1.124-1.216,1.476-2.017
        c0.352-0.8,0.528-1.704,0.528-2.712c0-1.056-0.176-1.983-0.528-2.784c-0.353-0.8-0.844-1.468-1.476-2.004
        c-0.632-0.536-1.384-0.944-2.256-1.224s-1.82-0.42-2.844-0.42h-2.976V22.593z"/>
    <path fill="#666666" d="M86.06,18.969c0,0.88-0.156,1.688-0.468,2.424c-0.312,0.736-0.744,1.372-1.296,1.908
        c-0.552,0.536-1.204,0.952-1.956,1.248c-0.752,0.296-1.56,0.443-2.424,0.443c-0.864,0-1.672-0.147-2.424-0.443
        c-0.752-0.296-1.4-0.712-1.944-1.248c-0.544-0.536-0.972-1.172-1.284-1.908c-0.312-0.735-0.468-1.544-0.468-2.424
        s0.156-1.684,0.468-2.412c0.312-0.728,0.74-1.356,1.284-1.884c0.543-0.528,1.191-0.939,1.944-1.236
        c0.752-0.296,1.56-0.444,2.424-0.444c0.864,0,1.672,0.148,2.424,0.444c0.752,0.297,1.404,0.708,1.956,1.236
        c0.552,0.527,0.984,1.156,1.296,1.884C85.904,17.285,86.06,18.089,86.06,18.969z M83.708,18.98c0-0.542-0.084-1.061-0.252-1.556
        c-0.169-0.494-0.414-0.929-0.734-1.304s-0.718-0.674-1.192-0.897s-1.015-0.335-1.625-0.335c-0.61,0-1.152,0.111-1.625,0.335
        c-0.474,0.224-0.871,0.522-1.191,0.897c-0.321,0.375-0.566,0.81-0.734,1.304C76.184,17.92,76.1,18.438,76.1,18.98
        c0,0.543,0.084,1.062,0.253,1.556c0.168,0.495,0.413,0.934,0.734,1.316c0.321,0.383,0.718,0.686,1.191,0.909
        c0.473,0.224,1.015,0.335,1.625,0.335c0.61,0,1.151-0.111,1.625-0.335s0.871-0.526,1.192-0.909s0.565-0.821,0.734-1.316
        C83.624,20.042,83.708,19.523,83.708,18.98z"/>
    <path fill="#666666" d="M96.428,16.184c-0.24-0.368-0.6-0.676-1.08-0.924s-0.992-0.372-1.536-0.372
        c-0.592,0-1.116,0.112-1.572,0.336c-0.456,0.225-0.844,0.524-1.164,0.9c-0.32,0.376-0.564,0.812-0.732,1.308
        s-0.252,1.017-0.252,1.56c0,0.545,0.084,1.064,0.252,1.561s0.412,0.933,0.732,1.308c0.32,0.376,0.712,0.677,1.176,0.9
        c0.464,0.225,0.992,0.336,1.584,0.336c0.576,0,1.1-0.111,1.572-0.336c0.472-0.224,0.86-0.528,1.164-0.912l1.512,1.368
        c-0.48,0.561-1.08,0.996-1.8,1.308c-0.72,0.312-1.536,0.468-2.448,0.468c-0.88,0-1.692-0.144-2.436-0.432
        c-0.744-0.288-1.388-0.691-1.932-1.212c-0.544-0.52-0.972-1.147-1.284-1.884s-0.468-1.561-0.468-2.473
        c0-0.896,0.152-1.711,0.456-2.447c0.304-0.736,0.728-1.368,1.272-1.896c0.543-0.527,1.188-0.936,1.932-1.224
        c0.744-0.288,1.548-0.433,2.412-0.433c0.8,0,1.596,0.16,2.388,0.48s1.419,0.784,1.884,1.392L96.428,16.184z"/>
    <path fill="#666666" d="M103.1,23.24c0,0.417-0.152,0.784-0.456,1.104c-0.304,0.32-0.688,0.479-1.152,0.479
        c-0.448,0-0.828-0.155-1.14-0.468c-0.312-0.312-0.468-0.676-0.468-1.092c0-0.432,0.152-0.804,0.456-1.116
        c0.304-0.312,0.688-0.468,1.152-0.468c0.464,0,0.848,0.152,1.152,0.456C102.947,22.44,103.1,22.808,103.1,23.24z"/>
    <path fill="#666666" d="M116.635,18.969c0,0.88-0.156,1.688-0.468,2.424c-0.312,0.736-0.744,1.372-1.296,1.908
        c-0.552,0.536-1.204,0.952-1.956,1.248c-0.752,0.296-1.56,0.443-2.424,0.443c-0.864,0-1.672-0.147-2.424-0.443
        c-0.752-0.296-1.4-0.712-1.944-1.248c-0.544-0.536-0.972-1.172-1.284-1.908c-0.312-0.735-0.468-1.544-0.468-2.424
        s0.156-1.684,0.468-2.412c0.312-0.728,0.74-1.356,1.284-1.884c0.543-0.528,1.191-0.939,1.944-1.236
        c0.752-0.296,1.56-0.444,2.424-0.444c0.864,0,1.672,0.148,2.424,0.444c0.752,0.297,1.404,0.708,1.956,1.236
        c0.552,0.527,0.984,1.156,1.296,1.884C116.479,17.285,116.635,18.089,116.635,18.969z M114.283,18.98
        c0-0.542-0.084-1.061-0.252-1.556c-0.169-0.494-0.414-0.929-0.734-1.304s-0.718-0.674-1.192-0.897s-1.015-0.335-1.625-0.335
        c-0.61,0-1.152,0.111-1.625,0.335c-0.474,0.224-0.871,0.522-1.191,0.897c-0.321,0.375-0.566,0.81-0.734,1.304
        c-0.169,0.495-0.253,1.014-0.253,1.556c0,0.543,0.084,1.062,0.253,1.556c0.168,0.495,0.413,0.934,0.734,1.316
        c0.321,0.383,0.718,0.686,1.191,0.909c0.473,0.224,1.015,0.335,1.625,0.335c0.61,0,1.151-0.111,1.625-0.335
        s0.871-0.526,1.192-0.909s0.565-0.821,0.734-1.316C114.199,20.042,114.283,19.523,114.283,18.98z"/>
    <path fill="#666666" d="M119.251,14.577c-0.016-0.48-0.04-0.904-0.072-1.272h2.136c0.032,0.288,0.056,0.62,0.072,0.996
        c0.016,0.376,0.024,0.684,0.024,0.924h0.072c0.32-0.672,0.788-1.212,1.404-1.62c0.616-0.408,1.308-0.612,2.076-0.612
        c0.352,0,0.648,0.033,0.888,0.097l-0.096,2.088c-0.32-0.08-0.664-0.12-1.032-0.12c-0.544,0-1.016,0.101-1.416,0.3
        c-0.4,0.2-0.732,0.468-0.996,0.805c-0.264,0.336-0.46,0.724-0.588,1.163c-0.128,0.44-0.192,0.9-0.192,1.381v5.976h-2.256v-8.928
        C119.275,15.449,119.267,15.056,119.251,14.577z"/>
    <path fill="#666666" d="M128.419,26.625c0.496,0.56,1.116,1.008,1.86,1.344c0.744,0.336,1.508,0.504,2.292,0.504
        c0.752,0,1.384-0.108,1.896-0.324s0.924-0.512,1.236-0.888s0.536-0.82,0.672-1.332c0.136-0.513,0.204-1.064,0.204-1.656v-1.464
        h-0.048c-0.416,0.641-0.984,1.128-1.704,1.464c-0.72,0.336-1.488,0.504-2.304,0.504c-0.864,0-1.652-0.151-2.364-0.456
        c-0.712-0.304-1.316-0.72-1.812-1.248c-0.496-0.527-0.88-1.147-1.152-1.859s-0.408-1.477-0.408-2.292
        c0-0.816,0.136-1.584,0.408-2.305c0.272-0.72,0.656-1.348,1.152-1.884c0.496-0.535,1.096-0.96,1.8-1.271
        c0.704-0.312,1.488-0.469,2.352-0.469c0.816,0,1.596,0.177,2.34,0.528c0.744,0.353,1.332,0.888,1.764,1.608h0.048v-1.824h2.184
        v10.8c0,0.832-0.104,1.628-0.312,2.388c-0.208,0.76-0.56,1.433-1.056,2.017s-1.144,1.052-1.944,1.404
        c-0.8,0.352-1.792,0.527-2.976,0.527c-0.992,0-1.988-0.18-2.988-0.54c-1-0.359-1.86-0.868-2.58-1.523L128.419,26.625z
         M129.091,18.873c0,0.527,0.084,1.031,0.253,1.512c0.168,0.479,0.417,0.904,0.746,1.271c0.329,0.369,0.726,0.664,1.192,0.889
        c0.465,0.224,0.995,0.336,1.589,0.336c0.577,0,1.107-0.104,1.589-0.312c0.481-0.207,0.891-0.491,1.228-0.852
        s0.598-0.784,0.782-1.272c0.185-0.487,0.277-1.012,0.277-1.571c0-0.544-0.093-1.057-0.277-1.536
        c-0.185-0.48-0.449-0.904-0.794-1.272c-0.345-0.367-0.755-0.66-1.228-0.876c-0.474-0.216-1-0.324-1.577-0.324
        c-0.594,0-1.124,0.108-1.589,0.324c-0.466,0.216-0.863,0.504-1.192,0.864s-0.578,0.784-0.746,1.271
        C129.175,17.812,129.091,18.329,129.091,18.873z"/>
</g>
<g><a xlink:href="/" pointer-events="all" target="_top"><polygon fill="none" points="0,0 145,0 145,35 0,35 0,0"/></a></g>

</g>


<!-- ArrayLiteralConvertible -->
<g id="node1" class="node">
<g id="a_node1"><a xlink:href="/v2.0/protocol/ArrayLiteralConvertible/" target="_top">
<path fill="#999999" stroke="#999999" d="M228.705,-138C228.705,-138 111.295,-138 111.295,-138 107.629,-138 103.962,-134.333 103.962,-130.667 103.962,-130.667 103.962,-123.333 103.962,-123.333 103.962,-119.667 107.629,-116 111.295,-116 111.295,-116 228.705,-116 228.705,-116 232.371,-116 236.038,-119.667 236.038,-123.333 236.038,-123.333 236.038,-130.667 236.038,-130.667 236.038,-134.333 232.371,-138 228.705,-138"/>
<text text-anchor="middle" x="170" y="-123.4" font-family="Helvetica,sans-Serif" font-size="12.00" fill="white">ArrayLiteralConvertible</text>
</a>
</g>
</g>
<!-- ContiguousArray&lt;Element&gt; -->
<g id="node3" class="node">
<g id="a_node3"><a xlink:href="/v2.0/type/ContiguousArray/" target="_top">
<polygon fill="#ee543d" stroke="#ee543d" points="547.562,-22 390.438,-22 390.438,-0 547.562,-0 547.562,-22"/>
<text text-anchor="middle" x="469" y="-7.4" font-family="Helvetica,sans-Serif" font-size="12.00" fill="white">ContiguousArray&lt;Element&gt;</text>
</a>
</g>
</g>
<!-- ArrayLiteralConvertible&#45;&gt;ContiguousArray&lt;Element&gt; -->
<g id="edge7" class="edge">
<path fill="none" stroke="#cccccc" d="M182.448,-115.887C201.33,-101.042 238.851,-73.4438 275,-58 312.097,-42.1511 355.624,-31.1991 392.038,-23.97"/>
<polygon fill="#cccccc" stroke="#cccccc" points="392.952,-27.3583 402.108,-22.0288 391.627,-20.4849 392.952,-27.3583"/>
</g>
<!-- _ArrayType -->
<g id="node12" class="node">
<g id="a_node12"><a xlink:href="/v2.0/protocol/_ArrayType/" target="_top">
<path fill="#999999" stroke="#999999" d="M348.19,-80C348.19,-80 291.81,-80 291.81,-80 288.144,-80 284.477,-76.3333 284.477,-72.6667 284.477,-72.6667 284.477,-65.3333 284.477,-65.3333 284.477,-61.6667 288.144,-58 291.81,-58 291.81,-58 348.19,-58 348.19,-58 351.856,-58 355.523,-61.6667 355.523,-65.3333 355.523,-65.3333 355.523,-72.6667 355.523,-72.6667 355.523,-76.3333 351.856,-80 348.19,-80"/>
<text text-anchor="middle" x="320" y="-65.4" font-family="Helvetica,sans-Serif" font-size="12.00" fill="white">_ArrayType</text>
</a>
</g>
</g>
<!-- ArrayLiteralConvertible&#45;&gt;_ArrayType -->
<g id="edge20" class="edge">
<path fill="none" stroke="#cccccc" d="M196.817,-115.988C221.059,-106.938 256.947,-93.5399 283.741,-83.5367"/>
<polygon fill="#cccccc" stroke="#cccccc" points="285.018,-86.7958 293.163,-80.0192 282.57,-80.2379 285.018,-86.7958"/>
</g>
<!-- CollectionType -->
<g id="node2" class="node">
<g id="a_node2"><a xlink:href="/v2.0/protocol/CollectionType/" target="_top">
<path fill="#999999" stroke="#999999" d="M426.704,-254C426.704,-254 353.296,-254 353.296,-254 349.63,-254 345.963,-250.333 345.963,-246.667 345.963,-246.667 345.963,-239.333 345.963,-239.333 345.963,-235.667 349.63,-232 353.296,-232 353.296,-232 426.704,-232 426.704,-232 430.37,-232 434.037,-235.667 434.037,-239.333 434.037,-239.333 434.037,-246.667 434.037,-246.667 434.037,-250.333 430.37,-254 426.704,-254"/>
<text text-anchor="middle" x="390" y="-239.4" font-family="Helvetica,sans-Serif" font-size="12.00" fill="white">CollectionType</text>
</a>
</g>
</g>
<!-- CollectionType&#45;&gt;ContiguousArray&lt;Element&gt; -->
<g id="edge1" class="edge">
<path fill="none" stroke="#cccccc" d="M430.638,-231.917C474.602,-218.594 542.491,-190.431 573,-138 598.687,-93.8562 536.786,-49.4748 497.803,-27.0296"/>
<polygon fill="#cccccc" stroke="#cccccc" points="499.363,-23.8917 488.926,-22.0658 495.946,-30.0013 499.363,-23.8917"/>
</g>
<!-- MutableCollectionType -->
<g id="node7" class="node">
<g id="a_node7"><a xlink:href="/v2.0/protocol/MutableCollectionType/" target="_top">
<path fill="#999999" stroke="#999999" d="M311.221,-196C311.221,-196 194.779,-196 194.779,-196 191.112,-196 187.446,-192.333 187.446,-188.667 187.446,-188.667 187.446,-181.333 187.446,-181.333 187.446,-177.667 191.112,-174 194.779,-174 194.779,-174 311.221,-174 311.221,-174 314.888,-174 318.554,-177.667 318.554,-181.333 318.554,-181.333 318.554,-188.667 318.554,-188.667 318.554,-192.333 314.888,-196 311.221,-196"/>
<text text-anchor="middle" x="253" y="-181.4" font-family="Helvetica,sans-Serif" font-size="12.00" fill="white">MutableCollectionType</text>
</a>
</g>
</g>
<!-- CollectionType&#45;&gt;MutableCollectionType -->
<g id="edge17" class="edge">
<path fill="none" stroke="#cccccc" d="M365.507,-231.988C343.725,-223.085 311.649,-209.973 287.313,-200.026"/>
<polygon fill="#cccccc" stroke="#cccccc" points="288.324,-196.658 277.743,-196.114 285.675,-203.137 288.324,-196.658"/>
</g>
<!-- MutableSliceable -->
<g id="node9" class="node">
<g id="a_node9"><a xlink:href="/v2.0/protocol/MutableSliceable/" target="_top">
<path fill="#999999" stroke="#999999" d="M348.208,-138C348.208,-138 261.792,-138 261.792,-138 258.126,-138 254.459,-134.333 254.459,-130.667 254.459,-130.667 254.459,-123.333 254.459,-123.333 254.459,-119.667 258.126,-116 261.792,-116 261.792,-116 348.208,-116 348.208,-116 351.874,-116 355.541,-119.667 355.541,-123.333 355.541,-123.333 355.541,-130.667 355.541,-130.667 355.541,-134.333 351.874,-138 348.208,-138"/>
<text text-anchor="middle" x="305" y="-123.4" font-family="Helvetica,sans-Serif" font-size="12.00" fill="white">MutableSliceable</text>
</a>
</g>
</g>
<!-- CollectionType&#45;&gt;MutableSliceable -->
<g id="edge22" class="edge">
<path fill="none" stroke="#cccccc" d="M382.457,-231.883C368.127,-212.664 336.786,-170.63 318.669,-146.332"/>
<polygon fill="#cccccc" stroke="#cccccc" points="321.432,-144.183 312.648,-138.258 315.82,-148.367 321.432,-144.183"/>
</g>
<!-- RangeReplaceableCollectionType -->
<g id="node10" class="node">
<g id="a_node10"><a xlink:href="/v2.0/protocol/RangeReplaceableCollectionType/" target="_top">
<path fill="#999999" stroke="#999999" d="M556.76,-138C556.76,-138 381.24,-138 381.24,-138 377.573,-138 373.906,-134.333 373.906,-130.667 373.906,-130.667 373.906,-123.333 373.906,-123.333 373.906,-119.667 377.573,-116 381.24,-116 381.24,-116 556.76,-116 556.76,-116 560.427,-116 564.094,-119.667 564.094,-123.333 564.094,-123.333 564.094,-130.667 564.094,-130.667 564.094,-134.333 560.427,-138 556.76,-138"/>
<text text-anchor="middle" x="469" y="-123.4" font-family="Helvetica,sans-Serif" font-size="12.00" fill="white">RangeReplaceableCollectionType</text>
</a>
</g>
</g>
<!-- CollectionType&#45;&gt;RangeReplaceableCollectionType -->
<g id="edge21" class="edge">
<path fill="none" stroke="#cccccc" d="M397.011,-231.883C410.271,-212.749 439.203,-170.998 456.074,-146.653"/>
<polygon fill="#cccccc" stroke="#cccccc" points="459.072,-148.471 461.891,-138.258 453.319,-144.484 459.072,-148.471"/>
</g>
<!-- CustomDebugStringConvertible -->
<g id="node4" class="node">
<g id="a_node4"><a xlink:href="/v2.0/protocol/CustomDebugStringConvertible/" target="_top">
<path fill="#999999" stroke="#999999" d="M828.73,-80C828.73,-80 665.27,-80 665.27,-80 661.604,-80 657.937,-76.3333 657.937,-72.6667 657.937,-72.6667 657.937,-65.3333 657.937,-65.3333 657.937,-61.6667 661.604,-58 665.27,-58 665.27,-58 828.73,-58 828.73,-58 832.396,-58 836.063,-61.6667 836.063,-65.3333 836.063,-65.3333 836.063,-72.6667 836.063,-72.6667 836.063,-76.3333 832.396,-80 828.73,-80"/>
<text text-anchor="middle" x="747" y="-65.4" font-family="Helvetica,sans-Serif" font-size="12.00" fill="white">CustomDebugStringConvertible</text>
</a>
</g>
</g>
<!-- CustomDebugStringConvertible&#45;&gt;ContiguousArray&lt;Element&gt; -->
<g id="edge13" class="edge">
<path fill="none" stroke="#cccccc" d="M697.299,-57.9883C650.105,-48.4816 579.095,-34.1773 528.819,-24.05"/>
<polygon fill="#cccccc" stroke="#cccccc" points="529.233,-20.563 518.738,-22.0192 527.85,-27.4251 529.233,-20.563"/>
</g>
<!-- CustomStringConvertible -->
<g id="node5" class="node">
<g id="a_node5"><a xlink:href="/v2.0/protocol/CustomStringConvertible/" target="_top">
<path fill="#999999" stroke="#999999" d="M990.208,-80C990.208,-80 861.792,-80 861.792,-80 858.126,-80 854.459,-76.3333 854.459,-72.6667 854.459,-72.6667 854.459,-65.3333 854.459,-65.3333 854.459,-61.6667 858.126,-58 861.792,-58 861.792,-58 990.208,-58 990.208,-58 993.874,-58 997.541,-61.6667 997.541,-65.3333 997.541,-65.3333 997.541,-72.6667 997.541,-72.6667 997.541,-76.3333 993.874,-80 990.208,-80"/>
<text text-anchor="middle" x="926" y="-65.4" font-family="Helvetica,sans-Serif" font-size="12.00" fill="white">CustomStringConvertible</text>
</a>
</g>
</g>
<!-- CustomStringConvertible&#45;&gt;ContiguousArray&lt;Element&gt; -->
<g id="edge12" class="edge">
<path fill="none" stroke="#cccccc" d="M854.447,-59.162C851.254,-58.769 848.094,-58.3802 845,-58 746.612,-45.9082 633.732,-32.1082 557.536,-22.8037"/>
<polygon fill="#cccccc" stroke="#cccccc" points="557.85,-19.3161 547.499,-21.5781 557.001,-26.2645 557.85,-19.3161"/>
</g>
<!-- Indexable -->
<g id="node6" class="node">
<g id="a_node6"><a xlink:href="/v2.0/protocol/Indexable/" target="_top">
<path fill="#999999" stroke="#999999" d="M291.699,-312C291.699,-312 244.301,-312 244.301,-312 240.634,-312 236.968,-308.333 236.968,-304.667 236.968,-304.667 236.968,-297.333 236.968,-297.333 236.968,-293.667 240.634,-290 244.301,-290 244.301,-290 291.699,-290 291.699,-290 295.366,-290 299.032,-293.667 299.032,-297.333 299.032,-297.333 299.032,-304.667 299.032,-304.667 299.032,-308.333 295.366,-312 291.699,-312"/>
<text text-anchor="middle" x="268" y="-297.4" font-family="Helvetica,sans-Serif" font-size="12.00" fill="white">Indexable</text>
</a>
</g>
</g>
<!-- Indexable&#45;&gt;CollectionType -->
<g id="edge14" class="edge">
<path fill="none" stroke="#cccccc" d="M289.811,-289.988C309.036,-281.164 337.265,-268.206 358.864,-258.292"/>
<polygon fill="#cccccc" stroke="#cccccc" points="360.338,-261.466 367.966,-254.114 357.418,-255.105 360.338,-261.466"/>
</g>
<!-- Indexable&#45;&gt;ContiguousArray&lt;Element&gt; -->
<g id="edge2" class="edge">
<path fill="none" stroke="#cccccc" d="M236.732,-300.552C166.037,-300.008 0,-287.883 0,-186 0,-186 0,-186 0,-126 0,-48.5431 244.592,-23.506 380.506,-15.5727"/>
<polygon fill="#cccccc" stroke="#cccccc" points="380.713,-19.0667 390.5,-15.0087 380.319,-12.0778 380.713,-19.0667"/>
</g>
<!-- MutableCollectionType&#45;&gt;ContiguousArray&lt;Element&gt; -->
<g id="edge4" class="edge">
<path fill="none" stroke="#cccccc" d="M187.469,-178.721C133.363,-171.538 69.31,-154.773 95,-116 126.534,-68.4056 280.152,-38.2556 380.44,-23.3071"/>
<polygon fill="#cccccc" stroke="#cccccc" points="381.19,-26.7345 390.577,-21.8206 380.175,-19.8086 381.19,-26.7345"/>
</g>
<!-- MutableCollectionType&#45;&gt;MutableSliceable -->
<g id="edge23" class="edge">
<path fill="none" stroke="#cccccc" d="M262.297,-173.988C269.527,-166.202 279.746,-155.197 288.374,-145.905"/>
<polygon fill="#cccccc" stroke="#cccccc" points="291.192,-148.013 295.432,-138.304 286.063,-143.25 291.192,-148.013"/>
</g>
<!-- MutableIndexable -->
<g id="node8" class="node">
<g id="a_node8"><a xlink:href="/v2.0/protocol/MutableIndexable/" target="_top">
<path fill="#999999" stroke="#999999" d="M264.718,-254C264.718,-254 175.282,-254 175.282,-254 171.615,-254 167.948,-250.333 167.948,-246.667 167.948,-246.667 167.948,-239.333 167.948,-239.333 167.948,-235.667 171.615,-232 175.282,-232 175.282,-232 264.718,-232 264.718,-232 268.385,-232 272.052,-235.667 272.052,-239.333 272.052,-239.333 272.052,-246.667 272.052,-246.667 272.052,-250.333 268.385,-254 264.718,-254"/>
<text text-anchor="middle" x="220" y="-239.4" font-family="Helvetica,sans-Serif" font-size="12.00" fill="white">MutableIndexable</text>
</a>
</g>
</g>
<!-- MutableIndexable&#45;&gt;ContiguousArray&lt;Element&gt; -->
<g id="edge5" class="edge">
<path fill="none" stroke="#cccccc" d="M192.287,-231.983C146.348,-213.608 61.7573,-171.271 86,-116 101.287,-81.1462 114.622,-74.3291 149,-58 188.807,-39.0925 300.186,-26.0725 380.352,-18.8315"/>
<polygon fill="#cccccc" stroke="#cccccc" points="380.807,-22.305 390.459,-17.9342 380.188,-15.3324 380.807,-22.305"/>
</g>
<!-- MutableIndexable&#45;&gt;MutableCollectionType -->
<g id="edge16" class="edge">
<path fill="none" stroke="#cccccc" d="M225.9,-231.988C230.303,-224.517 236.452,-214.081 241.78,-205.039"/>
<polygon fill="#cccccc" stroke="#cccccc" points="244.866,-206.696 246.928,-196.304 238.836,-203.142 244.866,-206.696"/>
</g>
<!-- MutableSliceable&#45;&gt;ContiguousArray&lt;Element&gt; -->
<g id="edge9" class="edge">
<path fill="none" stroke="#cccccc" d="M319.554,-115.883C348.051,-96.0744 411.417,-52.0275 445.773,-28.1456"/>
<polygon fill="#cccccc" stroke="#cccccc" points="448.03,-30.8396 454.243,-22.2579 444.034,-25.0918 448.03,-30.8396"/>
</g>
<!-- MutableSliceable&#45;&gt;_ArrayType -->
<g id="edge19" class="edge">
<path fill="none" stroke="#cccccc" d="M307.682,-115.988C309.599,-108.831 312.244,-98.9547 314.592,-90.1885"/>
<polygon fill="#cccccc" stroke="#cccccc" points="318.033,-90.869 317.24,-80.3039 311.272,-89.0578 318.033,-90.869"/>
</g>
<!-- RangeReplaceableCollectionType&#45;&gt;ContiguousArray&lt;Element&gt; -->
<g id="edge10" class="edge">
<path fill="none" stroke="#cccccc" d="M469,-115.883C469,-97.1703 469,-56.8266 469,-32.2866"/>
<polygon fill="#cccccc" stroke="#cccccc" points="472.5,-32.2579 469,-22.2579 465.5,-32.258 472.5,-32.2579"/>
</g>
<!-- RangeReplaceableCollectionType&#45;&gt;_ArrayType -->
<g id="edge18" class="edge">
<path fill="none" stroke="#cccccc" d="M442.362,-115.988C418.387,-106.978 382.946,-93.6574 356.368,-83.6685"/>
<polygon fill="#cccccc" stroke="#cccccc" points="357.25,-80.2612 346.658,-80.0192 354.788,-86.8137 357.25,-80.2612"/>
</g>
<!-- SequenceType -->
<g id="node11" class="node">
<g id="a_node11"><a xlink:href="/v2.0/protocol/SequenceType/" target="_top">
<path fill="#999999" stroke="#999999" d="M547.718,-312C547.718,-312 472.282,-312 472.282,-312 468.615,-312 464.949,-308.333 464.949,-304.667 464.949,-304.667 464.949,-297.333 464.949,-297.333 464.949,-293.667 468.615,-290 472.282,-290 472.282,-290 547.718,-290 547.718,-290 551.385,-290 555.051,-293.667 555.051,-297.333 555.051,-297.333 555.051,-304.667 555.051,-304.667 555.051,-308.333 551.385,-312 547.718,-312"/>
<text text-anchor="middle" x="510" y="-297.4" font-family="Helvetica,sans-Serif" font-size="12.00" fill="white">SequenceType</text>
</a>
</g>
</g>
<!-- SequenceType&#45;&gt;CollectionType -->
<g id="edge15" class="edge">
<path fill="none" stroke="#cccccc" d="M488.546,-289.988C469.722,-281.204 442.119,-268.322 420.912,-258.425"/>
<polygon fill="#cccccc" stroke="#cccccc" points="422.214,-255.171 411.672,-254.114 419.254,-261.514 422.214,-255.171"/>
</g>
<!-- SequenceType&#45;&gt;ContiguousArray&lt;Element&gt; -->
<g id="edge3" class="edge">
<path fill="none" stroke="#cccccc" d="M534.573,-289.906C569.681,-273.659 630,-238.155 630,-186 630,-186 630,-186 630,-126 630,-71.4833 567.754,-40.6875 520.67,-25.1912"/>
<polygon fill="#cccccc" stroke="#cccccc" points="521.47,-21.7739 510.881,-22.1136 519.371,-28.4517 521.47,-21.7739"/>
</g>
<!-- _ArrayType&#45;&gt;ContiguousArray&lt;Element&gt; -->
<g id="edge8" class="edge">
<path fill="none" stroke="#cccccc" d="M346.638,-57.9883C370.613,-48.9778 406.054,-35.6574 432.632,-25.6685"/>
<polygon fill="#cccccc" stroke="#cccccc" points="434.212,-28.8137 442.342,-22.0192 431.75,-22.2612 434.212,-28.8137"/>
</g>
<!-- _DestructorSafeContainer -->
<g id="node13" class="node">
<g id="a_node13"><a xlink:href="/v2.0/protocol/_DestructorSafeContainer/" target="_top">
<path fill="#999999" stroke="#999999" d="M1156.72,-80C1156.72,-80 1023.28,-80 1023.28,-80 1019.61,-80 1015.95,-76.3333 1015.95,-72.6667 1015.95,-72.6667 1015.95,-65.3333 1015.95,-65.3333 1015.95,-61.6667 1019.61,-58 1023.28,-58 1023.28,-58 1156.72,-58 1156.72,-58 1160.39,-58 1164.05,-61.6667 1164.05,-65.3333 1164.05,-65.3333 1164.05,-72.6667 1164.05,-72.6667 1164.05,-76.3333 1160.39,-80 1156.72,-80"/>
<text text-anchor="middle" x="1090" y="-65.4" font-family="Helvetica,sans-Serif" font-size="12.00" fill="white">_DestructorSafeContainer</text>
</a>
</g>
</g>
<!-- _DestructorSafeContainer&#45;&gt;ContiguousArray&lt;Element&gt; -->
<g id="edge6" class="edge">
<path fill="none" stroke="#cccccc" d="M1015.81,-59.0333C1012.5,-58.6751 1009.21,-58.3289 1006,-58 848.418,-41.8753 664.42,-26.9609 557.854,-18.7074"/>
<polygon fill="#cccccc" stroke="#cccccc" points="558.026,-15.2104 547.786,-17.9297 557.487,-22.1896 558.026,-15.2104"/>
</g>
<!-- _Reflectable -->
<g id="node14" class="node">
<g id="a_node14"><a xlink:href="/v2.0/protocol/_Reflectable/" target="_top">
<path fill="#999999" stroke="#999999" d="M1251.7,-80C1251.7,-80 1190.3,-80 1190.3,-80 1186.63,-80 1182.97,-76.3333 1182.97,-72.6667 1182.97,-72.6667 1182.97,-65.3333 1182.97,-65.3333 1182.97,-61.6667 1186.63,-58 1190.3,-58 1190.3,-58 1251.7,-58 1251.7,-58 1255.37,-58 1259.03,-61.6667 1259.03,-65.3333 1259.03,-65.3333 1259.03,-72.6667 1259.03,-72.6667 1259.03,-76.3333 1255.37,-80 1251.7,-80"/>
<text text-anchor="middle" x="1221" y="-65.4" font-family="Helvetica,sans-Serif" font-size="12.00" fill="white">_Reflectable</text>
</a>
</g>
</g>
<!-- _Reflectable&#45;&gt;ContiguousArray&lt;Element&gt; -->
<g id="edge11" class="edge">
<path fill="none" stroke="#cccccc" d="M1182.83,-59.5449C1179.52,-58.9636 1176.21,-58.4364 1173,-58 952.996,-28.0456 691.564,-17.4479 557.691,-13.8133"/>
<polygon fill="#cccccc" stroke="#cccccc" points="557.58,-10.3092 547.491,-13.5432 557.395,-17.3068 557.58,-10.3092"/>
</g>
</g>
</svg>
