<?xml version="1.0" encoding="UTF-8" standalone="no"?>
<!DOCTYPE svg PUBLIC "-//W3C//DTD SVG 1.1//EN"
 "http://www.w3.org/Graphics/SVG/1.1/DTD/svg11.dtd">
<!-- Generated by graphviz version 2.36.0 (20140111.2315)
 -->
<!-- Title: _Incrementable &#45; Type Hierarchy &#45; SwiftDoc.org Pages: 1 -->
<svg width="3113pt" height="543pt"
 viewBox="0.00 0.00 3113.40 543.20" xmlns="http://www.w3.org/2000/svg" xmlns:xlink="http://www.w3.org/1999/xlink">
<g id="graph0" class="graph" transform="scale(1 1) rotate(0) translate(7.2 485.6)">
<g transform="translate(0 -485.6)">
<g>
    <path fill="#666666" d="M13.846,10.832c-0.336-0.464-0.792-0.844-1.368-1.14s-1.224-0.444-1.944-0.444
        c-0.384,0-0.772,0.052-1.164,0.156C8.977,9.509,8.622,9.677,8.301,9.908c-0.32,0.232-0.58,0.52-0.78,0.864
        c-0.2,0.344-0.3,0.756-0.3,1.236c0,0.464,0.092,0.852,0.276,1.164c0.184,0.312,0.432,0.576,0.744,0.792s0.68,0.4,1.104,0.552
        c0.423,0.152,0.876,0.309,1.356,0.468c0.576,0.177,1.16,0.376,1.752,0.601c0.592,0.224,1.128,0.52,1.608,0.888
        s0.872,0.828,1.176,1.38s0.456,1.252,0.456,2.101c0,0.88-0.164,1.644-0.492,2.292c-0.328,0.647-0.765,1.184-1.308,1.607
        c-0.544,0.424-1.172,0.74-1.884,0.948s-1.444,0.312-2.196,0.312c-1.072,0-2.108-0.208-3.108-0.624
        c-1-0.415-1.828-1.031-2.484-1.848l1.848-1.56c0.4,0.592,0.936,1.071,1.608,1.439c0.672,0.368,1.399,0.552,2.184,0.552
        c0.4,0,0.8-0.056,1.2-0.168c0.4-0.111,0.764-0.288,1.092-0.527c0.328-0.24,0.596-0.54,0.804-0.9
        c0.208-0.36,0.312-0.796,0.312-1.308s-0.108-0.94-0.324-1.284c-0.216-0.344-0.508-0.636-0.876-0.876s-0.796-0.444-1.284-0.612
        c-0.488-0.168-1.004-0.34-1.548-0.516c-0.544-0.16-1.08-0.356-1.608-0.588c-0.528-0.232-1-0.528-1.416-0.889
        c-0.416-0.359-0.752-0.804-1.008-1.332c-0.256-0.527-0.384-1.184-0.384-1.968c0-0.848,0.172-1.576,0.516-2.184
        c0.344-0.608,0.792-1.112,1.344-1.512c0.552-0.4,1.176-0.692,1.872-0.876c0.696-0.184,1.396-0.276,2.1-0.276
        c0.992,0,1.92,0.176,2.784,0.528c0.864,0.352,1.56,0.824,2.088,1.416L13.846,10.832z"/>
    <path fill="#666666" d="M18.813,13.304l2.568,8.688h0.048l2.712-8.688h2.376l2.76,8.688h0.048l2.568-8.688h2.376L30.501,24.68
        h-2.352l-2.808-8.544h-0.048l-2.784,8.544h-2.352l-3.792-11.376H18.813z"/>
    <path fill="#666666" d="M38.685,9.2c0,0.416-0.147,0.76-0.44,1.032c-0.294,0.272-0.647,0.408-1.06,0.408s-0.762-0.14-1.047-0.42
        c-0.286-0.28-0.429-0.62-0.429-1.02c0-0.416,0.143-0.764,0.429-1.044c0.286-0.28,0.635-0.42,1.047-0.42s0.766,0.14,1.06,0.42
        C38.538,8.437,38.685,8.784,38.685,9.2z M38.325,24.68h-2.256V13.304h2.256V24.68z"/>
    <path fill="#666666" d="M47.613,15.152h-2.64v9.528h-2.256v-9.528h-2.256v-1.848h2.256v-2.376c0-0.672,0.076-1.292,0.228-1.86
        c0.152-0.568,0.4-1.06,0.744-1.476c0.344-0.416,0.784-0.744,1.32-0.984c0.536-0.24,1.188-0.36,1.956-0.36
        c0.544,0,1.016,0.056,1.416,0.168l-0.264,1.944c-0.176-0.048-0.352-0.088-0.528-0.12c-0.176-0.032-0.376-0.048-0.6-0.048
        c-0.432,0-0.78,0.076-1.044,0.228c-0.264,0.152-0.468,0.356-0.612,0.612s-0.24,0.548-0.288,0.876
        c-0.048,0.328-0.072,0.668-0.072,1.02v2.376h2.64V15.152z"/>
    <path fill="#666666" d="M54.909,15.152h-3.024v5.91c0,0.687,0.128,1.177,0.384,1.472c0.256,0.295,0.664,0.442,1.224,0.442
        c0.208,0,0.432-0.021,0.672-0.065c0.24-0.044,0.456-0.11,0.648-0.198l0.072,1.848c-0.272,0.096-0.572,0.172-0.9,0.229
        c-0.328,0.056-0.668,0.084-1.02,0.084c-1.072,0-1.892-0.296-2.46-0.889c-0.568-0.592-0.852-1.479-0.852-2.664v-6.168h-2.184
        v-1.848h2.184V10.04h2.232v3.264h3.024V15.152z"/>
    <path fill="#666666" d="M57.356,7.688h5.832c1.088,0,2.176,0.16,3.264,0.48c1.088,0.32,2.072,0.824,2.952,1.512
        s1.592,1.568,2.136,2.64c0.544,1.072,0.816,2.36,0.816,3.864c0,1.456-0.272,2.716-0.816,3.78s-1.256,1.943-2.136,2.64
        s-1.864,1.216-2.952,1.561c-1.088,0.344-2.176,0.516-3.264,0.516h-5.832V7.688z M59.732,22.593h2.976
        c1.024,0,1.972-0.145,2.844-0.432c0.872-0.288,1.624-0.704,2.256-1.248c0.632-0.544,1.124-1.216,1.476-2.017
        c0.352-0.8,0.528-1.704,0.528-2.712c0-1.056-0.176-1.983-0.528-2.784c-0.353-0.8-0.844-1.468-1.476-2.004
        c-0.632-0.536-1.384-0.944-2.256-1.224s-1.82-0.42-2.844-0.42h-2.976V22.593z"/>
    <path fill="#666666" d="M86.06,18.969c0,0.88-0.156,1.688-0.468,2.424c-0.312,0.736-0.744,1.372-1.296,1.908
        c-0.552,0.536-1.204,0.952-1.956,1.248c-0.752,0.296-1.56,0.443-2.424,0.443c-0.864,0-1.672-0.147-2.424-0.443
        c-0.752-0.296-1.4-0.712-1.944-1.248c-0.544-0.536-0.972-1.172-1.284-1.908c-0.312-0.735-0.468-1.544-0.468-2.424
        s0.156-1.684,0.468-2.412c0.312-0.728,0.74-1.356,1.284-1.884c0.543-0.528,1.191-0.939,1.944-1.236
        c0.752-0.296,1.56-0.444,2.424-0.444c0.864,0,1.672,0.148,2.424,0.444c0.752,0.297,1.404,0.708,1.956,1.236
        c0.552,0.527,0.984,1.156,1.296,1.884C85.904,17.285,86.06,18.089,86.06,18.969z M83.708,18.98c0-0.542-0.084-1.061-0.252-1.556
        c-0.169-0.494-0.414-0.929-0.734-1.304s-0.718-0.674-1.192-0.897s-1.015-0.335-1.625-0.335c-0.61,0-1.152,0.111-1.625,0.335
        c-0.474,0.224-0.871,0.522-1.191,0.897c-0.321,0.375-0.566,0.81-0.734,1.304C76.184,17.92,76.1,18.438,76.1,18.98
        c0,0.543,0.084,1.062,0.253,1.556c0.168,0.495,0.413,0.934,0.734,1.316c0.321,0.383,0.718,0.686,1.191,0.909
        c0.473,0.224,1.015,0.335,1.625,0.335c0.61,0,1.151-0.111,1.625-0.335s0.871-0.526,1.192-0.909s0.565-0.821,0.734-1.316
        C83.624,20.042,83.708,19.523,83.708,18.98z"/>
    <path fill="#666666" d="M96.428,16.184c-0.24-0.368-0.6-0.676-1.08-0.924s-0.992-0.372-1.536-0.372
        c-0.592,0-1.116,0.112-1.572,0.336c-0.456,0.225-0.844,0.524-1.164,0.9c-0.32,0.376-0.564,0.812-0.732,1.308
        s-0.252,1.017-0.252,1.56c0,0.545,0.084,1.064,0.252,1.561s0.412,0.933,0.732,1.308c0.32,0.376,0.712,0.677,1.176,0.9
        c0.464,0.225,0.992,0.336,1.584,0.336c0.576,0,1.1-0.111,1.572-0.336c0.472-0.224,0.86-0.528,1.164-0.912l1.512,1.368
        c-0.48,0.561-1.08,0.996-1.8,1.308c-0.72,0.312-1.536,0.468-2.448,0.468c-0.88,0-1.692-0.144-2.436-0.432
        c-0.744-0.288-1.388-0.691-1.932-1.212c-0.544-0.52-0.972-1.147-1.284-1.884s-0.468-1.561-0.468-2.473
        c0-0.896,0.152-1.711,0.456-2.447c0.304-0.736,0.728-1.368,1.272-1.896c0.543-0.527,1.188-0.936,1.932-1.224
        c0.744-0.288,1.548-0.433,2.412-0.433c0.8,0,1.596,0.16,2.388,0.48s1.419,0.784,1.884,1.392L96.428,16.184z"/>
    <path fill="#666666" d="M103.1,23.24c0,0.417-0.152,0.784-0.456,1.104c-0.304,0.32-0.688,0.479-1.152,0.479
        c-0.448,0-0.828-0.155-1.14-0.468c-0.312-0.312-0.468-0.676-0.468-1.092c0-0.432,0.152-0.804,0.456-1.116
        c0.304-0.312,0.688-0.468,1.152-0.468c0.464,0,0.848,0.152,1.152,0.456C102.947,22.44,103.1,22.808,103.1,23.24z"/>
    <path fill="#666666" d="M116.635,18.969c0,0.88-0.156,1.688-0.468,2.424c-0.312,0.736-0.744,1.372-1.296,1.908
        c-0.552,0.536-1.204,0.952-1.956,1.248c-0.752,0.296-1.56,0.443-2.424,0.443c-0.864,0-1.672-0.147-2.424-0.443
        c-0.752-0.296-1.4-0.712-1.944-1.248c-0.544-0.536-0.972-1.172-1.284-1.908c-0.312-0.735-0.468-1.544-0.468-2.424
        s0.156-1.684,0.468-2.412c0.312-0.728,0.74-1.356,1.284-1.884c0.543-0.528,1.191-0.939,1.944-1.236
        c0.752-0.296,1.56-0.444,2.424-0.444c0.864,0,1.672,0.148,2.424,0.444c0.752,0.297,1.404,0.708,1.956,1.236
        c0.552,0.527,0.984,1.156,1.296,1.884C116.479,17.285,116.635,18.089,116.635,18.969z M114.283,18.98
        c0-0.542-0.084-1.061-0.252-1.556c-0.169-0.494-0.414-0.929-0.734-1.304s-0.718-0.674-1.192-0.897s-1.015-0.335-1.625-0.335
        c-0.61,0-1.152,0.111-1.625,0.335c-0.474,0.224-0.871,0.522-1.191,0.897c-0.321,0.375-0.566,0.81-0.734,1.304
        c-0.169,0.495-0.253,1.014-0.253,1.556c0,0.543,0.084,1.062,0.253,1.556c0.168,0.495,0.413,0.934,0.734,1.316
        c0.321,0.383,0.718,0.686,1.191,0.909c0.473,0.224,1.015,0.335,1.625,0.335c0.61,0,1.151-0.111,1.625-0.335
        s0.871-0.526,1.192-0.909s0.565-0.821,0.734-1.316C114.199,20.042,114.283,19.523,114.283,18.98z"/>
    <path fill="#666666" d="M119.251,14.577c-0.016-0.48-0.04-0.904-0.072-1.272h2.136c0.032,0.288,0.056,0.62,0.072,0.996
        c0.016,0.376,0.024,0.684,0.024,0.924h0.072c0.32-0.672,0.788-1.212,1.404-1.62c0.616-0.408,1.308-0.612,2.076-0.612
        c0.352,0,0.648,0.033,0.888,0.097l-0.096,2.088c-0.32-0.08-0.664-0.12-1.032-0.12c-0.544,0-1.016,0.101-1.416,0.3
        c-0.4,0.2-0.732,0.468-0.996,0.805c-0.264,0.336-0.46,0.724-0.588,1.163c-0.128,0.44-0.192,0.9-0.192,1.381v5.976h-2.256v-8.928
        C119.275,15.449,119.267,15.056,119.251,14.577z"/>
    <path fill="#666666" d="M128.419,26.625c0.496,0.56,1.116,1.008,1.86,1.344c0.744,0.336,1.508,0.504,2.292,0.504
        c0.752,0,1.384-0.108,1.896-0.324s0.924-0.512,1.236-0.888s0.536-0.82,0.672-1.332c0.136-0.513,0.204-1.064,0.204-1.656v-1.464
        h-0.048c-0.416,0.641-0.984,1.128-1.704,1.464c-0.72,0.336-1.488,0.504-2.304,0.504c-0.864,0-1.652-0.151-2.364-0.456
        c-0.712-0.304-1.316-0.72-1.812-1.248c-0.496-0.527-0.88-1.147-1.152-1.859s-0.408-1.477-0.408-2.292
        c0-0.816,0.136-1.584,0.408-2.305c0.272-0.72,0.656-1.348,1.152-1.884c0.496-0.535,1.096-0.96,1.8-1.271
        c0.704-0.312,1.488-0.469,2.352-0.469c0.816,0,1.596,0.177,2.34,0.528c0.744,0.353,1.332,0.888,1.764,1.608h0.048v-1.824h2.184
        v10.8c0,0.832-0.104,1.628-0.312,2.388c-0.208,0.76-0.56,1.433-1.056,2.017s-1.144,1.052-1.944,1.404
        c-0.8,0.352-1.792,0.527-2.976,0.527c-0.992,0-1.988-0.18-2.988-0.54c-1-0.359-1.86-0.868-2.58-1.523L128.419,26.625z
         M129.091,18.873c0,0.527,0.084,1.031,0.253,1.512c0.168,0.479,0.417,0.904,0.746,1.271c0.329,0.369,0.726,0.664,1.192,0.889
        c0.465,0.224,0.995,0.336,1.589,0.336c0.577,0,1.107-0.104,1.589-0.312c0.481-0.207,0.891-0.491,1.228-0.852
        s0.598-0.784,0.782-1.272c0.185-0.487,0.277-1.012,0.277-1.571c0-0.544-0.093-1.057-0.277-1.536
        c-0.185-0.48-0.449-0.904-0.794-1.272c-0.345-0.367-0.755-0.66-1.228-0.876c-0.474-0.216-1-0.324-1.577-0.324
        c-0.594,0-1.124,0.108-1.589,0.324c-0.466,0.216-0.863,0.504-1.192,0.864s-0.578,0.784-0.746,1.271
        C129.175,17.812,129.091,18.329,129.091,18.873z"/>
</g>
<g><a xlink:href="/" pointer-events="all" target="_top"><polygon fill="none" points="0,0 145,0 145,35 0,35 0,0"/></a></g>

</g>


<!-- AnyBidirectionalIndex -->
<g id="node1" class="node">
<g id="a_node1"><a xlink:href="/v2.1/type/AnyBidirectionalIndex/" target="_top">
<polygon fill="#999999" stroke="#999999" points="1545.55,-22 1420.45,-22 1420.45,-0 1545.55,-0 1545.55,-22"/>
<text text-anchor="middle" x="1483" y="-7.4" font-family="Helvetica,sans-Serif" font-size="12.00" fill="white">AnyBidirectionalIndex</text>
</a>
</g>
</g>
<!-- AnyForwardIndex -->
<g id="node2" class="node">
<g id="a_node2"><a xlink:href="/v2.1/type/AnyForwardIndex/" target="_top">
<polygon fill="#999999" stroke="#999999" points="585.032,-22 480.968,-22 480.968,-0 585.032,-0 585.032,-22"/>
<text text-anchor="middle" x="533" y="-7.4" font-family="Helvetica,sans-Serif" font-size="12.00" fill="white">AnyForwardIndex</text>
</a>
</g>
</g>
<!-- AnyRandomAccessIndex -->
<g id="node3" class="node">
<g id="a_node3"><a xlink:href="/v2.1/type/AnyRandomAccessIndex/" target="_top">
<polygon fill="#999999" stroke="#999999" points="1920.05,-22 1775.95,-22 1775.95,-0 1920.05,-0 1920.05,-22"/>
<text text-anchor="middle" x="1848" y="-7.4" font-family="Helvetica,sans-Serif" font-size="12.00" fill="white">AnyRandomAccessIndex</text>
</a>
</g>
</g>
<!-- BidirectionalIndexType -->
<g id="node4" class="node">
<g id="a_node4"><a xlink:href="/v2.1/protocol/BidirectionalIndexType/" target="_top">
<path fill="#999999" stroke="#999999" d="M1147.73,-254C1147.73,-254 1032.27,-254 1032.27,-254 1028.61,-254 1024.94,-250.333 1024.94,-246.667 1024.94,-246.667 1024.94,-239.333 1024.94,-239.333 1024.94,-235.667 1028.61,-232 1032.27,-232 1032.27,-232 1147.73,-232 1147.73,-232 1151.39,-232 1155.06,-235.667 1155.06,-239.333 1155.06,-239.333 1155.06,-246.667 1155.06,-246.667 1155.06,-250.333 1151.39,-254 1147.73,-254"/>
<text text-anchor="middle" x="1090" y="-239.4" font-family="Helvetica,sans-Serif" font-size="12.00" fill="white">BidirectionalIndexType</text>
</a>
</g>
</g>
<!-- BidirectionalIndexType&#45;&gt;AnyBidirectionalIndex -->
<g id="edge10" class="edge">
<path fill="none" stroke="#cccccc" d="M1107.14,-231.969C1169.19,-195.652 1382.4,-70.878 1456.98,-27.226"/>
<polygon fill="#cccccc" stroke="#cccccc" points="1458.91,-30.1553 1465.77,-22.0835 1455.37,-24.1138 1458.91,-30.1553"/>
</g>
<!-- FlattenBidirectionalCollectionIndex -->
<g id="node8" class="node">
<g id="a_node8"><a xlink:href="/v2.1/type/FlattenBidirectionalCollectionIndex/" target="_top">
<polygon fill="#999999" stroke="#999999" points="1758.08,-22 1563.92,-22 1563.92,-0 1758.08,-0 1758.08,-22"/>
<text text-anchor="middle" x="1661" y="-7.4" font-family="Helvetica,sans-Serif" font-size="12.00" fill="white">FlattenBidirectionalCollectionIndex</text>
</a>
</g>
</g>
<!-- BidirectionalIndexType&#45;&gt;FlattenBidirectionalCollectionIndex -->
<g id="edge11" class="edge">
<path fill="none" stroke="#cccccc" d="M1114.9,-231.969C1205.98,-195.283 1521.16,-68.3276 1626.45,-25.9179"/>
<polygon fill="#cccccc" stroke="#cccccc" points="1628,-29.0664 1635.97,-22.0835 1625.38,-22.5734 1628,-29.0664"/>
</g>
<!-- RandomAccessIndexType -->
<g id="node18" class="node">
<g id="a_node18"><a xlink:href="/v2.1/protocol/RandomAccessIndexType/" target="_top">
<path fill="#999999" stroke="#999999" d="M2400.23,-196C2400.23,-196 2265.77,-196 2265.77,-196 2262.11,-196 2258.44,-192.333 2258.44,-188.667 2258.44,-188.667 2258.44,-181.333 2258.44,-181.333 2258.44,-177.667 2262.11,-174 2265.77,-174 2265.77,-174 2400.23,-174 2400.23,-174 2403.89,-174 2407.56,-177.667 2407.56,-181.333 2407.56,-181.333 2407.56,-188.667 2407.56,-188.667 2407.56,-192.333 2403.89,-196 2400.23,-196"/>
<text text-anchor="middle" x="2333" y="-181.4" font-family="Helvetica,sans-Serif" font-size="12.00" fill="white">RandomAccessIndexType</text>
</a>
</g>
</g>
<!-- BidirectionalIndexType&#45;&gt;RandomAccessIndexType -->
<g id="edge12" class="edge">
<path fill="none" stroke="#cccccc" d="M1155.08,-239.068C1363.53,-229.677 2014.66,-200.342 2248.4,-189.811"/>
<polygon fill="#cccccc" stroke="#cccccc" points="2248.72,-193.301 2258.55,-189.354 2248.4,-186.308 2248.72,-193.301"/>
</g>
<!-- ReverseIndex -->
<g id="node19" class="node">
<g id="a_node19"><a xlink:href="/v2.1/type/ReverseIndex/" target="_top">
<polygon fill="#999999" stroke="#999999" points="1018.03,-22 933.971,-22 933.971,-0 1018.03,-0 1018.03,-22"/>
<text text-anchor="middle" x="976" y="-7.4" font-family="Helvetica,sans-Serif" font-size="12.00" fill="white">ReverseIndex</text>
</a>
</g>
</g>
<!-- BidirectionalIndexType&#45;&gt;ReverseIndex -->
<g id="edge13" class="edge">
<path fill="none" stroke="#cccccc" d="M1084.95,-231.82C1067.37,-196.345 1008.61,-77.7884 985.474,-31.114"/>
<polygon fill="#cccccc" stroke="#cccccc" points="988.564,-29.4675 980.987,-22.062 982.292,-32.5762 988.564,-29.4675"/>
</g>
<!-- ReverseIndexType -->
<g id="node20" class="node">
<g id="a_node20"><a xlink:href="/v2.1/protocol/ReverseIndexType/" target="_top">
<path fill="#999999" stroke="#999999" d="M1137.71,-80C1137.71,-80 1042.29,-80 1042.29,-80 1038.62,-80 1034.95,-76.3333 1034.95,-72.6667 1034.95,-72.6667 1034.95,-65.3333 1034.95,-65.3333 1034.95,-61.6667 1038.62,-58 1042.29,-58 1042.29,-58 1137.71,-58 1137.71,-58 1141.38,-58 1145.05,-61.6667 1145.05,-65.3333 1145.05,-65.3333 1145.05,-72.6667 1145.05,-72.6667 1145.05,-76.3333 1141.38,-80 1137.71,-80"/>
<text text-anchor="middle" x="1090" y="-65.4" font-family="Helvetica,sans-Serif" font-size="12.00" fill="white">ReverseIndexType</text>
</a>
</g>
</g>
<!-- BidirectionalIndexType&#45;&gt;ReverseIndexType -->
<g id="edge14" class="edge">
<path fill="none" stroke="#cccccc" d="M1090,-231.756C1090,-204.097 1090,-127.509 1090,-90.5186"/>
<polygon fill="#cccccc" stroke="#cccccc" points="1093.5,-90.408 1090,-80.4081 1086.5,-90.4081 1093.5,-90.408"/>
</g>
<!-- String.CharacterView.Index -->
<g id="node24" class="node">
<g id="a_node24"><a xlink:href="/v2.1/type/String.CharacterView.Index/" target="_top">
<polygon fill="#999999" stroke="#999999" points="758.401,-22 603.599,-22 603.599,-0 758.401,-0 758.401,-22"/>
<text text-anchor="middle" x="681" y="-7.4" font-family="Helvetica,sans-Serif" font-size="12.00" fill="white">String.CharacterView.Index</text>
</a>
</g>
</g>
<!-- BidirectionalIndexType&#45;&gt;String.CharacterView.Index -->
<g id="edge15" class="edge">
<path fill="none" stroke="#cccccc" d="M1072.16,-231.969C1007.58,-195.652 785.7,-70.878 708.076,-27.226"/>
<polygon fill="#cccccc" stroke="#cccccc" points="709.363,-23.9344 698.931,-22.0835 705.932,-30.0359 709.363,-23.9344"/>
</g>
<!-- String.UTF16View.Index -->
<g id="node25" class="node">
<g id="a_node25"><a xlink:href="/v2.1/type/String.UTF16View.Index/" target="_top">
<polygon fill="#999999" stroke="#999999" points="915.39,-22 776.61,-22 776.61,-0 915.39,-0 915.39,-22"/>
<text text-anchor="middle" x="846" y="-7.4" font-family="Helvetica,sans-Serif" font-size="12.00" fill="white">String.UTF16View.Index</text>
</a>
</g>
</g>
<!-- BidirectionalIndexType&#45;&gt;String.UTF16View.Index -->
<g id="edge17" class="edge">
<path fill="none" stroke="#cccccc" d="M1079.2,-231.82C1041.01,-195.824 912.082,-74.2909 864.147,-29.1061"/>
<polygon fill="#cccccc" stroke="#cccccc" points="866.352,-26.3744 856.674,-22.062 861.551,-31.4682 866.352,-26.3744"/>
</g>
<!-- String.UnicodeScalarView.Index -->
<g id="node27" class="node">
<g id="a_node27"><a xlink:href="/v2.1/type/String.UnicodeScalarView.Index/" target="_top">
<polygon fill="#999999" stroke="#999999" points="1401.92,-22 1222.08,-22 1222.08,-0 1401.92,-0 1401.92,-22"/>
<text text-anchor="middle" x="1312" y="-7.4" font-family="Helvetica,sans-Serif" font-size="12.00" fill="white">String.UnicodeScalarView.Index</text>
</a>
</g>
</g>
<!-- BidirectionalIndexType&#45;&gt;String.UnicodeScalarView.Index -->
<g id="edge16" class="edge">
<path fill="none" stroke="#cccccc" d="M1099.83,-231.82C1134.5,-195.899 1251.39,-74.7927 1295.22,-29.3871"/>
<polygon fill="#cccccc" stroke="#cccccc" points="1297.86,-31.6878 1302.29,-22.062 1292.82,-26.8264 1297.86,-31.6878"/>
</g>
<!-- Bit -->
<g id="node5" class="node">
<g id="a_node5"><a xlink:href="/v2.1/type/Bit/" target="_top">
<polygon fill="#999999" stroke="#999999" points="2064,-22 2010,-22 2010,-0 2064,-0 2064,-22"/>
<text text-anchor="middle" x="2037" y="-7.4" font-family="Helvetica,sans-Serif" font-size="12.00" fill="white">Bit</text>
</a>
</g>
</g>
<!-- DictionaryIndex -->
<g id="node6" class="node">
<g id="a_node6"><a xlink:href="/v2.1/type/DictionaryIndex/" target="_top">
<polygon fill="#999999" stroke="#999999" points="3099.03,-22 3006.97,-22 3006.97,-0 3099.03,-0 3099.03,-22"/>
<text text-anchor="middle" x="3053" y="-7.4" font-family="Helvetica,sans-Serif" font-size="12.00" fill="white">DictionaryIndex</text>
</a>
</g>
</g>
<!-- Equatable -->
<g id="node7" class="node">
<g id="a_node7"><a xlink:href="/v2.1/protocol/Equatable/" target="_top">
<path fill="#999999" stroke="#999999" d="M1822.7,-428C1822.7,-428 1773.3,-428 1773.3,-428 1769.63,-428 1765.96,-424.333 1765.96,-420.667 1765.96,-420.667 1765.96,-413.333 1765.96,-413.333 1765.96,-409.667 1769.63,-406 1773.3,-406 1773.3,-406 1822.7,-406 1822.7,-406 1826.37,-406 1830.04,-409.667 1830.04,-413.333 1830.04,-413.333 1830.04,-420.667 1830.04,-420.667 1830.04,-424.333 1826.37,-428 1822.7,-428"/>
<text text-anchor="middle" x="1798" y="-413.4" font-family="Helvetica,sans-Serif" font-size="12.00" fill="white">Equatable</text>
</a>
</g>
</g>
<!-- _Incrementable -->
<g id="node37" class="node">
<g id="a_node37"><a xlink:href="/v2.1/protocol/_Incrementable/" target="_top">
<path fill="#ee543d" stroke="#ee543d" d="M1836.71,-370C1836.71,-370 1759.29,-370 1759.29,-370 1755.63,-370 1751.96,-366.333 1751.96,-362.667 1751.96,-362.667 1751.96,-355.333 1751.96,-355.333 1751.96,-351.667 1755.63,-348 1759.29,-348 1759.29,-348 1836.71,-348 1836.71,-348 1840.37,-348 1844.04,-351.667 1844.04,-355.333 1844.04,-355.333 1844.04,-362.667 1844.04,-362.667 1844.04,-366.333 1840.37,-370 1836.71,-370"/>
<text text-anchor="middle" x="1798" y="-355.4" font-family="Helvetica,sans-Serif" font-size="12.00" fill="white">_Incrementable</text>
</a>
</g>
</g>
<!-- Equatable&#45;&gt;_Incrementable -->
<g id="edge54" class="edge">
<path fill="none" stroke="#cccccc" d="M1798,-405.988C1798,-398.91 1798,-389.171 1798,-380.478"/>
<polygon fill="#cccccc" stroke="#cccccc" points="1801.5,-380.304 1798,-370.304 1794.5,-380.304 1801.5,-380.304"/>
</g>
<!-- FlattenCollectionIndex -->
<g id="node9" class="node">
<g id="a_node9"><a xlink:href="/v2.1/type/FlattenCollectionIndex/" target="_top">
<polygon fill="#999999" stroke="#999999" points="128.051,-22 -0.0514328,-22 -0.0514328,-0 128.051,-0 128.051,-22"/>
<text text-anchor="middle" x="64" y="-7.4" font-family="Helvetica,sans-Serif" font-size="12.00" fill="white">FlattenCollectionIndex</text>
</a>
</g>
</g>
<!-- ForwardIndexType -->
<g id="node10" class="node">
<g id="a_node10"><a xlink:href="/v2.1/protocol/ForwardIndexType/" target="_top">
<path fill="#999999" stroke="#999999" d="M512.206,-312C512.206,-312 417.794,-312 417.794,-312 414.127,-312 410.461,-308.333 410.461,-304.667 410.461,-304.667 410.461,-297.333 410.461,-297.333 410.461,-293.667 414.127,-290 417.794,-290 417.794,-290 512.206,-290 512.206,-290 515.873,-290 519.539,-293.667 519.539,-297.333 519.539,-297.333 519.539,-304.667 519.539,-304.667 519.539,-308.333 515.873,-312 512.206,-312"/>
<text text-anchor="middle" x="465" y="-297.4" font-family="Helvetica,sans-Serif" font-size="12.00" fill="white">ForwardIndexType</text>
</a>
</g>
</g>
<!-- ForwardIndexType&#45;&gt;AnyForwardIndex -->
<g id="edge3" class="edge">
<path fill="none" stroke="#cccccc" d="M476.229,-289.906C495.543,-271.373 533,-229.786 533,-186 533,-186 533,-186 533,-126 533,-93.1536 533,-54.9837 533,-32.197"/>
<polygon fill="#cccccc" stroke="#cccccc" points="536.5,-32.0648 533,-22.0648 529.5,-32.0648 536.5,-32.0648"/>
</g>
<!-- ForwardIndexType&#45;&gt;BidirectionalIndexType -->
<g id="edge4" class="edge">
<path fill="none" stroke="#cccccc" d="M519.371,-295.128C631.131,-285.115 886.859,-262.201 1014.56,-250.76"/>
<polygon fill="#cccccc" stroke="#cccccc" points="1015,-254.235 1024.64,-249.856 1014.37,-247.262 1015,-254.235"/>
</g>
<!-- ForwardIndexType&#45;&gt;DictionaryIndex -->
<g id="edge5" class="edge">
<path fill="none" stroke="#cccccc" d="M519.352,-299.071C891.854,-292.531 3053,-251.757 3053,-186 3053,-186 3053,-186 3053,-126 3053,-93.1536 3053,-54.9837 3053,-32.197"/>
<polygon fill="#cccccc" stroke="#cccccc" points="3056.5,-32.0648 3053,-22.0648 3049.5,-32.0648 3056.5,-32.0648"/>
</g>
<!-- ForwardIndexType&#45;&gt;FlattenCollectionIndex -->
<g id="edge6" class="edge">
<path fill="none" stroke="#cccccc" d="M410.502,-295.949C300.861,-286.295 64,-257.201 64,-186 64,-186 64,-186 64,-126 64,-93.1536 64,-54.9837 64,-32.197"/>
<polygon fill="#cccccc" stroke="#cccccc" points="67.5001,-32.0648 64,-22.0648 60.5001,-32.0648 67.5001,-32.0648"/>
</g>
<!-- LazyFilterIndex -->
<g id="node17" class="node">
<g id="a_node17"><a xlink:href="/v2.1/type/LazyFilterIndex/" target="_top">
<polygon fill="#999999" stroke="#999999" points="237.526,-22 146.474,-22 146.474,-0 237.526,-0 237.526,-22"/>
<text text-anchor="middle" x="192" y="-7.4" font-family="Helvetica,sans-Serif" font-size="12.00" fill="white">LazyFilterIndex</text>
</a>
</g>
</g>
<!-- ForwardIndexType&#45;&gt;LazyFilterIndex -->
<g id="edge7" class="edge">
<path fill="none" stroke="#cccccc" d="M410.411,-300.385C330.742,-297.761 192,-279.736 192,-186 192,-186 192,-186 192,-126 192,-93.1536 192,-54.9837 192,-32.197"/>
<polygon fill="#cccccc" stroke="#cccccc" points="195.5,-32.0648 192,-22.0648 188.5,-32.0648 195.5,-32.0648"/>
</g>
<!-- SetIndex -->
<g id="node22" class="node">
<g id="a_node22"><a xlink:href="/v2.1/type/SetIndex/" target="_top">
<polygon fill="#999999" stroke="#999999" points="312.524,-22 255.476,-22 255.476,-0 312.524,-0 312.524,-22"/>
<text text-anchor="middle" x="284" y="-7.4" font-family="Helvetica,sans-Serif" font-size="12.00" fill="white">SetIndex</text>
</a>
</g>
</g>
<!-- ForwardIndexType&#45;&gt;SetIndex -->
<g id="edge8" class="edge">
<path fill="none" stroke="#cccccc" d="M411.184,-289.887C357.83,-276.38 284,-246.719 284,-186 284,-186 284,-186 284,-126 284,-93.1536 284,-54.9837 284,-32.197"/>
<polygon fill="#cccccc" stroke="#cccccc" points="287.5,-32.0648 284,-22.0648 280.5,-32.0648 287.5,-32.0648"/>
</g>
<!-- String.UTF8View.Index -->
<g id="node26" class="node">
<g id="a_node26"><a xlink:href="/v2.1/type/String.UTF8View.Index/" target="_top">
<polygon fill="#999999" stroke="#999999" points="462.887,-22 331.113,-22 331.113,-0 462.887,-0 462.887,-22"/>
<text text-anchor="middle" x="397" y="-7.4" font-family="Helvetica,sans-Serif" font-size="12.00" fill="white">String.UTF8View.Index</text>
</a>
</g>
</g>
<!-- ForwardIndexType&#45;&gt;String.UTF8View.Index -->
<g id="edge9" class="edge">
<path fill="none" stroke="#cccccc" d="M453.771,-289.906C434.457,-271.373 397,-229.786 397,-186 397,-186 397,-186 397,-126 397,-93.1536 397,-54.9837 397,-32.197"/>
<polygon fill="#cccccc" stroke="#cccccc" points="400.5,-32.0648 397,-22.0648 393.5,-32.0648 400.5,-32.0648"/>
</g>
<!-- Int -->
<g id="node11" class="node">
<g id="a_node11"><a xlink:href="/v2.1/type/Int/" target="_top">
<polygon fill="#999999" stroke="#999999" points="1992,-22 1938,-22 1938,-0 1992,-0 1992,-22"/>
<text text-anchor="middle" x="1965" y="-7.4" font-family="Helvetica,sans-Serif" font-size="12.00" fill="white">Int</text>
</a>
</g>
</g>
<!-- Int&#45;&gt;Bit -->
<g id="edge34" class="edge">
<path fill="none" stroke="#cccccc" d="M1992.28,-11C1994.74,-11 1997.19,-11 1999.65,-11"/>
<polygon fill="#cccccc" stroke="#cccccc" points="1999.75,-14.5001 2009.75,-11 1999.75,-7.5001 1999.75,-14.5001"/>
</g>
<!-- Int16 -->
<g id="node12" class="node">
<g id="a_node12"><a xlink:href="/v2.1/type/Int16/" target="_top">
<polygon fill="#999999" stroke="#999999" points="2386,-22 2332,-22 2332,-0 2386,-0 2386,-22"/>
<text text-anchor="middle" x="2359" y="-7.4" font-family="Helvetica,sans-Serif" font-size="12.00" fill="white">Int16</text>
</a>
</g>
</g>
<!-- Int32 -->
<g id="node13" class="node">
<g id="a_node13"><a xlink:href="/v2.1/type/Int32/" target="_top">
<polygon fill="#999999" stroke="#999999" points="2458,-22 2404,-22 2404,-0 2458,-0 2458,-22"/>
<text text-anchor="middle" x="2431" y="-7.4" font-family="Helvetica,sans-Serif" font-size="12.00" fill="white">Int32</text>
</a>
</g>
</g>
<!-- Int64 -->
<g id="node14" class="node">
<g id="a_node14"><a xlink:href="/v2.1/type/Int64/" target="_top">
<polygon fill="#999999" stroke="#999999" points="2530,-22 2476,-22 2476,-0 2530,-0 2530,-22"/>
<text text-anchor="middle" x="2503" y="-7.4" font-family="Helvetica,sans-Serif" font-size="12.00" fill="white">Int64</text>
</a>
</g>
</g>
<!-- Int8 -->
<g id="node15" class="node">
<g id="a_node15"><a xlink:href="/v2.1/type/Int8/" target="_top">
<polygon fill="#999999" stroke="#999999" points="2602,-22 2548,-22 2548,-0 2602,-0 2602,-22"/>
<text text-anchor="middle" x="2575" y="-7.4" font-family="Helvetica,sans-Serif" font-size="12.00" fill="white">Int8</text>
</a>
</g>
</g>
<!-- IntegerType -->
<g id="node16" class="node">
<g id="a_node16"><a xlink:href="/v2.1/protocol/IntegerType/" target="_top">
<path fill="#999999" stroke="#999999" d="M2753.2,-138C2753.2,-138 2694.8,-138 2694.8,-138 2691.13,-138 2687.47,-134.333 2687.47,-130.667 2687.47,-130.667 2687.47,-123.333 2687.47,-123.333 2687.47,-119.667 2691.13,-116 2694.8,-116 2694.8,-116 2753.2,-116 2753.2,-116 2756.87,-116 2760.53,-119.667 2760.53,-123.333 2760.53,-123.333 2760.53,-130.667 2760.53,-130.667 2760.53,-134.333 2756.87,-138 2753.2,-138"/>
<text text-anchor="middle" x="2724" y="-123.4" font-family="Helvetica,sans-Serif" font-size="12.00" fill="white">IntegerType</text>
</a>
</g>
</g>
<!-- SignedIntegerType -->
<g id="node23" class="node">
<g id="a_node23"><a xlink:href="/v2.1/protocol/SignedIntegerType/" target="_top">
<path fill="#999999" stroke="#999999" d="M2463.73,-80C2463.73,-80 2368.27,-80 2368.27,-80 2364.61,-80 2360.94,-76.3333 2360.94,-72.6667 2360.94,-72.6667 2360.94,-65.3333 2360.94,-65.3333 2360.94,-61.6667 2364.61,-58 2368.27,-58 2368.27,-58 2463.73,-58 2463.73,-58 2467.39,-58 2471.06,-61.6667 2471.06,-65.3333 2471.06,-65.3333 2471.06,-72.6667 2471.06,-72.6667 2471.06,-76.3333 2467.39,-80 2463.73,-80"/>
<text text-anchor="middle" x="2416" y="-65.4" font-family="Helvetica,sans-Serif" font-size="12.00" fill="white">SignedIntegerType</text>
</a>
</g>
</g>
<!-- IntegerType&#45;&gt;SignedIntegerType -->
<g id="edge35" class="edge">
<path fill="none" stroke="#cccccc" d="M2687.46,-119.356C2636.74,-110.135 2544.18,-93.305 2481.39,-81.8898"/>
<polygon fill="#cccccc" stroke="#cccccc" points="2481.66,-78.3813 2471.2,-80.0359 2480.41,-85.2684 2481.66,-78.3813"/>
</g>
<!-- UnsignedIntegerType -->
<g id="node35" class="node">
<g id="a_node35"><a xlink:href="/v2.1/protocol/UnsignedIntegerType/" target="_top">
<path fill="#999999" stroke="#999999" d="M2845.73,-80C2845.73,-80 2736.27,-80 2736.27,-80 2732.61,-80 2728.94,-76.3333 2728.94,-72.6667 2728.94,-72.6667 2728.94,-65.3333 2728.94,-65.3333 2728.94,-61.6667 2732.61,-58 2736.27,-58 2736.27,-58 2845.73,-58 2845.73,-58 2849.39,-58 2853.06,-61.6667 2853.06,-65.3333 2853.06,-65.3333 2853.06,-72.6667 2853.06,-72.6667 2853.06,-76.3333 2849.39,-80 2845.73,-80"/>
<text text-anchor="middle" x="2791" y="-65.4" font-family="Helvetica,sans-Serif" font-size="12.00" fill="white">UnsignedIntegerType</text>
</a>
</g>
</g>
<!-- IntegerType&#45;&gt;UnsignedIntegerType -->
<g id="edge36" class="edge">
<path fill="none" stroke="#cccccc" d="M2735.98,-115.988C2745.67,-107.887 2759.53,-96.3026 2770.92,-86.7873"/>
<polygon fill="#cccccc" stroke="#cccccc" points="2773.24,-89.4025 2778.67,-80.3039 2768.75,-84.0315 2773.24,-89.4025"/>
</g>
<!-- RandomAccessIndexType&#45;&gt;AnyRandomAccessIndex -->
<g id="edge18" class="edge">
<path fill="none" stroke="#cccccc" d="M2291.19,-173.927C2256.96,-165.353 2207.44,-152.197 2165,-138 2059.03,-102.555 1937.08,-50.9168 1880.26,-26.2066"/>
<polygon fill="#cccccc" stroke="#cccccc" points="1881.31,-22.8473 1870.75,-22.0563 1878.51,-29.2633 1881.31,-22.8473"/>
</g>
<!-- RandomAccessIndexType&#45;&gt;Bit -->
<g id="edge19" class="edge">
<path fill="none" stroke="#cccccc" d="M2315.37,-173.756C2265.4,-144.717 2122.61,-61.7444 2063.31,-27.2883"/>
<polygon fill="#cccccc" stroke="#cccccc" points="2064.94,-24.1886 2054.54,-22.1906 2061.43,-30.241 2064.94,-24.1886"/>
</g>
<!-- RandomAccessIndexType&#45;&gt;Int -->
<g id="edge20" class="edge">
<path fill="none" stroke="#cccccc" d="M2304.05,-173.86C2279.53,-165.045 2243.58,-151.588 2213,-138 2131,-101.573 2037.41,-51.6569 1992.23,-27.0155"/>
<polygon fill="#cccccc" stroke="#cccccc" points="1993.8,-23.8846 1983.35,-22.1549 1990.44,-30.0255 1993.8,-23.8846"/>
</g>
<!-- RandomAccessIndexType&#45;&gt;Int16 -->
<g id="edge21" class="edge">
<path fill="none" stroke="#cccccc" d="M2328.82,-173.813C2320.46,-151.87 2303.74,-98.8181 2319,-58 2323.06,-47.1456 2330.96,-37.1608 2338.68,-29.2876"/>
<polygon fill="#cccccc" stroke="#cccccc" points="2341.34,-31.5866 2346.19,-22.1642 2336.53,-26.509 2341.34,-31.5866"/>
</g>
<!-- RandomAccessIndexType&#45;&gt;Int32 -->
<g id="edge22" class="edge">
<path fill="none" stroke="#cccccc" d="M2331.76,-173.804C2329.53,-150.918 2327.14,-94.6017 2352,-58 2362.19,-42.9956 2379.03,-32.2205 2394.54,-24.8887"/>
<polygon fill="#cccccc" stroke="#cccccc" points="2396.21,-27.9805 2403.96,-20.7616 2393.4,-21.5688 2396.21,-27.9805"/>
</g>
<!-- RandomAccessIndexType&#45;&gt;Int64 -->
<g id="edge23" class="edge">
<path fill="none" stroke="#cccccc" d="M2339.94,-173.972C2350.41,-159.484 2371.53,-132.617 2395,-116 2428.48,-92.2936 2452.09,-110.07 2480,-80 2492.16,-66.898 2497.91,-47.1303 2500.62,-32.2798"/>
<polygon fill="#cccccc" stroke="#cccccc" points="2504.13,-32.4829 2502.16,-22.0738 2497.21,-31.4426 2504.13,-32.4829"/>
</g>
<!-- RandomAccessIndexType&#45;&gt;Int8 -->
<g id="edge24" class="edge">
<path fill="none" stroke="#cccccc" d="M2346.44,-173.977C2368.55,-157.561 2411.76,-125.79 2428,-116 2458.64,-97.5307 2470.47,-100.203 2500,-80 2521.79,-65.0938 2543.82,-44.2733 2558.32,-29.6084"/>
<polygon fill="#cccccc" stroke="#cccccc" points="2561.09,-31.7818 2565.55,-22.1712 2556.07,-26.9033 2561.09,-31.7818"/>
</g>
<!-- RandomAccessIndexType&#45;&gt;IntegerType -->
<g id="edge25" class="edge">
<path fill="none" stroke="#cccccc" d="M2407.47,-175.21C2476.49,-166.761 2581.91,-153.078 2673,-138 2674.47,-137.756 2675.97,-137.502 2677.48,-137.239"/>
<polygon fill="#cccccc" stroke="#cccccc" points="2678.33,-140.642 2687.55,-135.418 2677.09,-133.754 2678.33,-140.642"/>
</g>
<!-- ReverseRandomAccessIndex -->
<g id="node21" class="node">
<g id="a_node21"><a xlink:href="/v2.1/type/ReverseRandomAccessIndex/" target="_top">
<polygon fill="#999999" stroke="#999999" points="1204.06,-22 1035.94,-22 1035.94,-0 1204.06,-0 1204.06,-22"/>
<text text-anchor="middle" x="1120" y="-7.4" font-family="Helvetica,sans-Serif" font-size="12.00" fill="white">ReverseRandomAccessIndex</text>
</a>
</g>
</g>
<!-- RandomAccessIndexType&#45;&gt;ReverseRandomAccessIndex -->
<g id="edge26" class="edge">
<path fill="none" stroke="#cccccc" d="M2262.1,-173.946C2050.49,-143.941 1424.34,-55.1552 1200.61,-23.4296"/>
<polygon fill="#cccccc" stroke="#cccccc" points="1200.97,-19.9463 1190.58,-22.0076 1199.99,-26.877 1200.97,-19.9463"/>
</g>
<!-- UInt -->
<g id="node28" class="node">
<g id="a_node28"><a xlink:href="/v2.1/type/UInt/" target="_top">
<polygon fill="#999999" stroke="#999999" points="2746,-22 2692,-22 2692,-0 2746,-0 2746,-22"/>
<text text-anchor="middle" x="2719" y="-7.4" font-family="Helvetica,sans-Serif" font-size="12.00" fill="white">UInt</text>
</a>
</g>
</g>
<!-- RandomAccessIndexType&#45;&gt;UInt -->
<g id="edge27" class="edge">
<path fill="none" stroke="#cccccc" d="M2407.6,-176.574C2471.2,-169.141 2556.83,-156.19 2586,-138 2623.49,-114.623 2612.55,-87.9768 2645,-58 2658.22,-45.7913 2675.13,-34.9971 2689.45,-26.9386"/>
<polygon fill="#cccccc" stroke="#cccccc" points="2691.31,-29.9091 2698.42,-22.0507 2687.96,-23.7624 2691.31,-29.9091"/>
</g>
<!-- UInt16 -->
<g id="node29" class="node">
<g id="a_node29"><a xlink:href="/v2.1/type/UInt16/" target="_top">
<polygon fill="#999999" stroke="#999999" points="2818,-22 2764,-22 2764,-0 2818,-0 2818,-22"/>
<text text-anchor="middle" x="2791" y="-7.4" font-family="Helvetica,sans-Serif" font-size="12.00" fill="white">UInt16</text>
</a>
</g>
</g>
<!-- RandomAccessIndexType&#45;&gt;UInt16 -->
<g id="edge28" class="edge">
<path fill="none" stroke="#cccccc" d="M2407.6,-181.082C2465.12,-176.631 2545.63,-165.529 2611,-138 2666.38,-114.679 2670.54,-92.1295 2720,-58 2735.17,-47.5305 2752.53,-36.2701 2766.29,-27.5108"/>
<polygon fill="#cccccc" stroke="#cccccc" points="2768.18,-30.4585 2774.75,-22.1492 2764.43,-24.5457 2768.18,-30.4585"/>
</g>
<!-- UInt32 -->
<g id="node30" class="node">
<g id="a_node30"><a xlink:href="/v2.1/type/UInt32/" target="_top">
<polygon fill="#999999" stroke="#999999" points="2905,-22 2851,-22 2851,-0 2905,-0 2905,-22"/>
<text text-anchor="middle" x="2878" y="-7.4" font-family="Helvetica,sans-Serif" font-size="12.00" fill="white">UInt32</text>
</a>
</g>
</g>
<!-- RandomAccessIndexType&#45;&gt;UInt32 -->
<g id="edge29" class="edge">
<path fill="none" stroke="#cccccc" d="M2407.59,-181.196C2569.36,-174.752 2939.51,-157.902 2958,-138 2990.22,-103.323 2935.72,-53.9771 2901.86,-28.5544"/>
<polygon fill="#cccccc" stroke="#cccccc" points="2903.49,-25.4126 2893.35,-22.3397 2899.36,-31.0649 2903.49,-25.4126"/>
</g>
<!-- UInt64 -->
<g id="node31" class="node">
<g id="a_node31"><a xlink:href="/v2.1/type/UInt64/" target="_top">
<polygon fill="#999999" stroke="#999999" points="2985,-22 2931,-22 2931,-0 2985,-0 2985,-22"/>
<text text-anchor="middle" x="2958" y="-7.4" font-family="Helvetica,sans-Serif" font-size="12.00" fill="white">UInt64</text>
</a>
</g>
</g>
<!-- RandomAccessIndexType&#45;&gt;UInt64 -->
<g id="edge30" class="edge">
<path fill="none" stroke="#cccccc" d="M2407.56,-181.358C2572.81,-175.139 2956.88,-158.542 2976,-138 3003.09,-108.904 2983.21,-58.4753 2969.01,-31.0671"/>
<polygon fill="#cccccc" stroke="#cccccc" points="2971.98,-29.2055 2964.12,-22.093 2965.83,-32.55 2971.98,-29.2055"/>
</g>
<!-- UInt8 -->
<g id="node32" class="node">
<g id="a_node32"><a xlink:href="/v2.1/type/UInt8/" target="_top">
<polygon fill="#999999" stroke="#999999" points="2674,-22 2620,-22 2620,-0 2674,-0 2674,-22"/>
<text text-anchor="middle" x="2647" y="-7.4" font-family="Helvetica,sans-Serif" font-size="12.00" fill="white">UInt8</text>
</a>
</g>
</g>
<!-- RandomAccessIndexType&#45;&gt;UInt8 -->
<g id="edge31" class="edge">
<path fill="none" stroke="#cccccc" d="M2407.42,-175.973C2464.88,-168.536 2538.58,-155.909 2563,-138 2595.72,-114.006 2583.78,-91.2765 2607,-58 2613.9,-48.1062 2622.59,-37.9021 2630.1,-29.6261"/>
<polygon fill="#cccccc" stroke="#cccccc" points="2632.88,-31.7849 2637.12,-22.0756 2627.75,-27.0213 2632.88,-31.7849"/>
</g>
<!-- UnsafeMutablePointer -->
<g id="node33" class="node">
<g id="a_node33"><a xlink:href="/v2.1/type/UnsafeMutablePointer/" target="_top">
<polygon fill="#999999" stroke="#999999" points="2210.05,-22 2081.95,-22 2081.95,-0 2210.05,-0 2210.05,-22"/>
<text text-anchor="middle" x="2146" y="-7.4" font-family="Helvetica,sans-Serif" font-size="12.00" fill="white">UnsafeMutablePointer</text>
</a>
</g>
</g>
<!-- RandomAccessIndexType&#45;&gt;UnsafeMutablePointer -->
<g id="edge32" class="edge">
<path fill="none" stroke="#cccccc" d="M2321.86,-173.756C2290.88,-145.263 2203.45,-64.8429 2164.79,-29.2809"/>
<polygon fill="#cccccc" stroke="#cccccc" points="2167.05,-26.6018 2157.32,-22.4081 2162.31,-31.7539 2167.05,-26.6018"/>
</g>
<!-- UnsafePointer -->
<g id="node34" class="node">
<g id="a_node34"><a xlink:href="/v2.1/type/UnsafePointer/" target="_top">
<polygon fill="#999999" stroke="#999999" points="2314.03,-22 2227.97,-22 2227.97,-0 2314.03,-0 2314.03,-22"/>
<text text-anchor="middle" x="2271" y="-7.4" font-family="Helvetica,sans-Serif" font-size="12.00" fill="white">UnsafePointer</text>
</a>
</g>
</g>
<!-- RandomAccessIndexType&#45;&gt;UnsafePointer -->
<g id="edge33" class="edge">
<path fill="none" stroke="#cccccc" d="M2327.4,-173.988C2322.41,-164.814 2315.12,-150.76 2310,-138 2295.35,-101.535 2282.82,-57.3399 2276.15,-32.1634"/>
<polygon fill="#cccccc" stroke="#cccccc" points="2279.49,-31.1162 2273.58,-22.3225 2272.72,-32.882 2279.49,-31.1162"/>
</g>
<!-- ReverseIndexType&#45;&gt;ReverseIndex -->
<g id="edge47" class="edge">
<path fill="none" stroke="#cccccc" d="M1069.62,-57.9883C1051.82,-49.2431 1025.75,-36.4381 1005.64,-26.5594"/>
<polygon fill="#cccccc" stroke="#cccccc" points="1007.11,-23.3815 996.589,-22.1138 1004.02,-29.6644 1007.11,-23.3815"/>
</g>
<!-- ReverseIndexType&#45;&gt;ReverseRandomAccessIndex -->
<g id="edge48" class="edge">
<path fill="none" stroke="#cccccc" d="M1095.36,-57.9883C1099.32,-50.5952 1104.84,-40.3005 1109.65,-31.3253"/>
<polygon fill="#cccccc" stroke="#cccccc" points="1112.84,-32.7715 1114.48,-22.3039 1106.67,-29.4659 1112.84,-32.7715"/>
</g>
<!-- SignedIntegerType&#45;&gt;Int -->
<g id="edge37" class="edge">
<path fill="none" stroke="#cccccc" d="M2360.86,-64.7155C2282.91,-59.45 2135.98,-47.2408 2002.05,-21.9307"/>
<polygon fill="#cccccc" stroke="#cccccc" points="2002.5,-18.4535 1992.02,-20.0058 2001.18,-25.328 2002.5,-18.4535"/>
</g>
<!-- SignedIntegerType&#45;&gt;Int16 -->
<g id="edge38" class="edge">
<path fill="none" stroke="#cccccc" d="M2405.81,-57.9883C2397.72,-50.0446 2386.23,-38.7512 2376.65,-29.3439"/>
<polygon fill="#cccccc" stroke="#cccccc" points="2379.07,-26.8154 2369.49,-22.3039 2374.17,-31.8088 2379.07,-26.8154"/>
</g>
<!-- SignedIntegerType&#45;&gt;Int32 -->
<g id="edge39" class="edge">
<path fill="none" stroke="#cccccc" d="M2418.68,-57.9883C2420.6,-50.8311 2423.24,-40.9547 2425.59,-32.1885"/>
<polygon fill="#cccccc" stroke="#cccccc" points="2429.03,-32.869 2428.24,-22.3039 2422.27,-31.0578 2429.03,-32.869"/>
</g>
<!-- SignedIntegerType&#45;&gt;Int64 -->
<g id="edge40" class="edge">
<path fill="none" stroke="#cccccc" d="M2431.55,-57.9883C2444.59,-49.5993 2463.42,-37.4743 2478.48,-27.7804"/>
<polygon fill="#cccccc" stroke="#cccccc" points="2480.77,-30.4693 2487.29,-22.1138 2476.98,-24.5833 2480.77,-30.4693"/>
</g>
<!-- SignedIntegerType&#45;&gt;Int8 -->
<g id="edge41" class="edge">
<path fill="none" stroke="#cccccc" d="M2444.43,-57.9883C2470.63,-48.7577 2509.68,-35.0041 2538.25,-24.9426"/>
<polygon fill="#cccccc" stroke="#cccccc" points="2539.61,-28.1745 2547.88,-21.5512 2537.29,-21.572 2539.61,-28.1745"/>
</g>
<!-- UnsignedIntegerType&#45;&gt;UInt -->
<g id="edge42" class="edge">
<path fill="none" stroke="#cccccc" d="M2778.13,-57.9883C2767.61,-49.8087 2752.53,-38.0773 2740.23,-28.5108"/>
<polygon fill="#cccccc" stroke="#cccccc" points="2742.29,-25.6806 2732.25,-22.3039 2737.99,-31.2061 2742.29,-25.6806"/>
</g>
<!-- UnsignedIntegerType&#45;&gt;UInt16 -->
<g id="edge43" class="edge">
<path fill="none" stroke="#cccccc" d="M2791,-57.9883C2791,-50.9098 2791,-41.1714 2791,-32.4779"/>
<polygon fill="#cccccc" stroke="#cccccc" points="2794.5,-32.3038 2791,-22.3039 2787.5,-32.3039 2794.5,-32.3038"/>
</g>
<!-- UnsignedIntegerType&#45;&gt;UInt32 -->
<g id="edge44" class="edge">
<path fill="none" stroke="#cccccc" d="M2806.55,-57.9883C2819.59,-49.5993 2838.42,-37.4743 2853.48,-27.7804"/>
<polygon fill="#cccccc" stroke="#cccccc" points="2855.77,-30.4693 2862.29,-22.1138 2851.98,-24.5833 2855.77,-30.4693"/>
</g>
<!-- UnsignedIntegerType&#45;&gt;UInt64 -->
<g id="edge45" class="edge">
<path fill="none" stroke="#cccccc" d="M2820.86,-57.9883C2848.92,-48.5761 2891.02,-34.461 2921.16,-24.353"/>
<polygon fill="#cccccc" stroke="#cccccc" points="2922.52,-27.589 2930.89,-21.0913 2920.29,-20.9522 2922.52,-27.589"/>
</g>
<!-- UnsignedIntegerType&#45;&gt;UInt8 -->
<g id="edge46" class="edge">
<path fill="none" stroke="#cccccc" d="M2765.26,-57.9883C2742.16,-49.0057 2708.05,-35.7398 2682.39,-25.7614"/>
<polygon fill="#cccccc" stroke="#cccccc" points="2683.6,-22.4763 2673.01,-22.1138 2681.06,-29.0004 2683.6,-22.4763"/>
</g>
<!-- _DisallowMixedSignArithmetic -->
<g id="node36" class="node">
<g id="a_node36"><a xlink:href="/v2.1/protocol/_DisallowMixedSignArithmetic/" target="_top">
<path fill="#999999" stroke="#999999" d="M2941.71,-138C2941.71,-138 2786.29,-138 2786.29,-138 2782.62,-138 2778.96,-134.333 2778.96,-130.667 2778.96,-130.667 2778.96,-123.333 2778.96,-123.333 2778.96,-119.667 2782.62,-116 2786.29,-116 2786.29,-116 2941.71,-116 2941.71,-116 2945.38,-116 2949.04,-119.667 2949.04,-123.333 2949.04,-123.333 2949.04,-130.667 2949.04,-130.667 2949.04,-134.333 2945.38,-138 2941.71,-138"/>
<text text-anchor="middle" x="2864" y="-123.4" font-family="Helvetica,sans-Serif" font-size="12.00" fill="white">_DisallowMixedSignArithmetic</text>
</a>
</g>
</g>
<!-- _DisallowMixedSignArithmetic&#45;&gt;UnsignedIntegerType -->
<g id="edge52" class="edge">
<path fill="none" stroke="#cccccc" d="M2850.95,-115.988C2840.29,-107.809 2824.99,-96.0773 2812.52,-86.5108"/>
<polygon fill="#cccccc" stroke="#cccccc" points="2814.5,-83.6135 2804.43,-80.3039 2810.24,-89.1675 2814.5,-83.6135"/>
</g>
<!-- _Incrementable&#45;&gt;ForwardIndexType -->
<g id="edge1" class="edge">
<path fill="none" stroke="#cccccc" d="M1751.73,-356.056C1551.9,-347.661 762.596,-314.502 529.895,-304.726"/>
<polygon fill="#cccccc" stroke="#cccccc" points="529.703,-301.215 519.564,-304.292 529.409,-308.209 529.703,-301.215"/>
</g>
<!-- _IntegerType -->
<g id="node38" class="node">
<g id="a_node38"><a xlink:href="/v2.1/protocol/_IntegerType/" target="_top">
<path fill="#999999" stroke="#999999" d="M2826.71,-196C2826.71,-196 2761.29,-196 2761.29,-196 2757.63,-196 2753.96,-192.333 2753.96,-188.667 2753.96,-188.667 2753.96,-181.333 2753.96,-181.333 2753.96,-177.667 2757.63,-174 2761.29,-174 2761.29,-174 2826.71,-174 2826.71,-174 2830.37,-174 2834.04,-177.667 2834.04,-181.333 2834.04,-181.333 2834.04,-188.667 2834.04,-188.667 2834.04,-192.333 2830.37,-196 2826.71,-196"/>
<text text-anchor="middle" x="2794" y="-181.4" font-family="Helvetica,sans-Serif" font-size="12.00" fill="white">_IntegerType</text>
</a>
</g>
</g>
<!-- _Incrementable&#45;&gt;_IntegerType -->
<g id="edge2" class="edge">
<path fill="none" stroke="#cccccc" d="M1844.04,-350.049C2009.29,-321.512 2571.79,-224.374 2743.69,-194.688"/>
<polygon fill="#cccccc" stroke="#cccccc" points="2744.47,-198.105 2753.73,-192.955 2743.28,-191.208 2744.47,-198.105"/>
</g>
<!-- _IntegerType&#45;&gt;IntegerType -->
<g id="edge49" class="edge">
<path fill="none" stroke="#cccccc" d="M2781.49,-173.988C2771.36,-165.887 2756.88,-154.303 2744.98,-144.787"/>
<polygon fill="#cccccc" stroke="#cccccc" points="2746.87,-141.818 2736.88,-138.304 2742.5,-147.284 2746.87,-141.818"/>
</g>
<!-- _IntegerType&#45;&gt;_DisallowMixedSignArithmetic -->
<g id="edge50" class="edge">
<path fill="none" stroke="#cccccc" d="M2806.51,-173.988C2816.64,-165.887 2831.12,-154.303 2843.02,-144.787"/>
<polygon fill="#cccccc" stroke="#cccccc" points="2845.5,-147.284 2851.12,-138.304 2841.13,-141.818 2845.5,-147.284"/>
</g>
<!-- _SignedIntegerType -->
<g id="node39" class="node">
<g id="a_node39"><a xlink:href="/v2.1/protocol/_SignedIntegerType/" target="_top">
<path fill="#999999" stroke="#999999" d="M2547.23,-138C2547.23,-138 2444.77,-138 2444.77,-138 2441.1,-138 2437.44,-134.333 2437.44,-130.667 2437.44,-130.667 2437.44,-123.333 2437.44,-123.333 2437.44,-119.667 2441.1,-116 2444.77,-116 2444.77,-116 2547.23,-116 2547.23,-116 2550.9,-116 2554.56,-119.667 2554.56,-123.333 2554.56,-123.333 2554.56,-130.667 2554.56,-130.667 2554.56,-134.333 2550.9,-138 2547.23,-138"/>
<text text-anchor="middle" x="2496" y="-123.4" font-family="Helvetica,sans-Serif" font-size="12.00" fill="white">_SignedIntegerType</text>
</a>
</g>
</g>
<!-- _IntegerType&#45;&gt;_SignedIntegerType -->
<g id="edge51" class="edge">
<path fill="none" stroke="#cccccc" d="M2753.81,-176.448C2703.88,-167.064 2618.09,-150.943 2559.29,-139.893"/>
<polygon fill="#cccccc" stroke="#cccccc" points="2559.84,-136.436 2549.37,-138.029 2558.55,-143.315 2559.84,-136.436"/>
</g>
<!-- _SignedIntegerType&#45;&gt;SignedIntegerType -->
<g id="edge53" class="edge">
<path fill="none" stroke="#cccccc" d="M2481.7,-115.988C2469.83,-107.678 2452.72,-95.7028 2438.94,-86.0554"/>
<polygon fill="#cccccc" stroke="#cccccc" points="2440.65,-82.9812 2430.45,-80.1138 2436.63,-88.7158 2440.65,-82.9812"/>
</g>
</g>
</svg>
