<?xml version="1.0" encoding="UTF-8" standalone="no"?>
<!DOCTYPE svg PUBLIC "-//W3C//DTD SVG 1.1//EN"
 "http://www.w3.org/Graphics/SVG/1.1/DTD/svg11.dtd">
<!-- Generated by graphviz version 2.36.0 (20140111.2315)
 -->
<!-- Title: _Incrementable &#45; Type Hierarchy &#45; SwiftDoc.org Pages: 1 -->
<svg width="3088pt" height="543pt"
 viewBox="0.00 0.00 3088.40 543.20" xmlns="http://www.w3.org/2000/svg" xmlns:xlink="http://www.w3.org/1999/xlink">
<g id="graph0" class="graph" transform="scale(1 1) rotate(0) translate(7.2 485.6)">
<g transform="translate(0 -485.6)">
<g>
    <path fill="#666666" d="M13.846,10.832c-0.336-0.464-0.792-0.844-1.368-1.14s-1.224-0.444-1.944-0.444
        c-0.384,0-0.772,0.052-1.164,0.156C8.977,9.509,8.622,9.677,8.301,9.908c-0.32,0.232-0.58,0.52-0.78,0.864
        c-0.2,0.344-0.3,0.756-0.3,1.236c0,0.464,0.092,0.852,0.276,1.164c0.184,0.312,0.432,0.576,0.744,0.792s0.68,0.4,1.104,0.552
        c0.423,0.152,0.876,0.309,1.356,0.468c0.576,0.177,1.16,0.376,1.752,0.601c0.592,0.224,1.128,0.52,1.608,0.888
        s0.872,0.828,1.176,1.38s0.456,1.252,0.456,2.101c0,0.88-0.164,1.644-0.492,2.292c-0.328,0.647-0.765,1.184-1.308,1.607
        c-0.544,0.424-1.172,0.74-1.884,0.948s-1.444,0.312-2.196,0.312c-1.072,0-2.108-0.208-3.108-0.624
        c-1-0.415-1.828-1.031-2.484-1.848l1.848-1.56c0.4,0.592,0.936,1.071,1.608,1.439c0.672,0.368,1.399,0.552,2.184,0.552
        c0.4,0,0.8-0.056,1.2-0.168c0.4-0.111,0.764-0.288,1.092-0.527c0.328-0.24,0.596-0.54,0.804-0.9
        c0.208-0.36,0.312-0.796,0.312-1.308s-0.108-0.94-0.324-1.284c-0.216-0.344-0.508-0.636-0.876-0.876s-0.796-0.444-1.284-0.612
        c-0.488-0.168-1.004-0.34-1.548-0.516c-0.544-0.16-1.08-0.356-1.608-0.588c-0.528-0.232-1-0.528-1.416-0.889
        c-0.416-0.359-0.752-0.804-1.008-1.332c-0.256-0.527-0.384-1.184-0.384-1.968c0-0.848,0.172-1.576,0.516-2.184
        c0.344-0.608,0.792-1.112,1.344-1.512c0.552-0.4,1.176-0.692,1.872-0.876c0.696-0.184,1.396-0.276,2.1-0.276
        c0.992,0,1.92,0.176,2.784,0.528c0.864,0.352,1.56,0.824,2.088,1.416L13.846,10.832z"/>
    <path fill="#666666" d="M18.813,13.304l2.568,8.688h0.048l2.712-8.688h2.376l2.76,8.688h0.048l2.568-8.688h2.376L30.501,24.68
        h-2.352l-2.808-8.544h-0.048l-2.784,8.544h-2.352l-3.792-11.376H18.813z"/>
    <path fill="#666666" d="M38.685,9.2c0,0.416-0.147,0.76-0.44,1.032c-0.294,0.272-0.647,0.408-1.06,0.408s-0.762-0.14-1.047-0.42
        c-0.286-0.28-0.429-0.62-0.429-1.02c0-0.416,0.143-0.764,0.429-1.044c0.286-0.28,0.635-0.42,1.047-0.42s0.766,0.14,1.06,0.42
        C38.538,8.437,38.685,8.784,38.685,9.2z M38.325,24.68h-2.256V13.304h2.256V24.68z"/>
    <path fill="#666666" d="M47.613,15.152h-2.64v9.528h-2.256v-9.528h-2.256v-1.848h2.256v-2.376c0-0.672,0.076-1.292,0.228-1.86
        c0.152-0.568,0.4-1.06,0.744-1.476c0.344-0.416,0.784-0.744,1.32-0.984c0.536-0.24,1.188-0.36,1.956-0.36
        c0.544,0,1.016,0.056,1.416,0.168l-0.264,1.944c-0.176-0.048-0.352-0.088-0.528-0.12c-0.176-0.032-0.376-0.048-0.6-0.048
        c-0.432,0-0.78,0.076-1.044,0.228c-0.264,0.152-0.468,0.356-0.612,0.612s-0.24,0.548-0.288,0.876
        c-0.048,0.328-0.072,0.668-0.072,1.02v2.376h2.64V15.152z"/>
    <path fill="#666666" d="M54.909,15.152h-3.024v5.91c0,0.687,0.128,1.177,0.384,1.472c0.256,0.295,0.664,0.442,1.224,0.442
        c0.208,0,0.432-0.021,0.672-0.065c0.24-0.044,0.456-0.11,0.648-0.198l0.072,1.848c-0.272,0.096-0.572,0.172-0.9,0.229
        c-0.328,0.056-0.668,0.084-1.02,0.084c-1.072,0-1.892-0.296-2.46-0.889c-0.568-0.592-0.852-1.479-0.852-2.664v-6.168h-2.184
        v-1.848h2.184V10.04h2.232v3.264h3.024V15.152z"/>
    <path fill="#666666" d="M57.356,7.688h5.832c1.088,0,2.176,0.16,3.264,0.48c1.088,0.32,2.072,0.824,2.952,1.512
        s1.592,1.568,2.136,2.64c0.544,1.072,0.816,2.36,0.816,3.864c0,1.456-0.272,2.716-0.816,3.78s-1.256,1.943-2.136,2.64
        s-1.864,1.216-2.952,1.561c-1.088,0.344-2.176,0.516-3.264,0.516h-5.832V7.688z M59.732,22.593h2.976
        c1.024,0,1.972-0.145,2.844-0.432c0.872-0.288,1.624-0.704,2.256-1.248c0.632-0.544,1.124-1.216,1.476-2.017
        c0.352-0.8,0.528-1.704,0.528-2.712c0-1.056-0.176-1.983-0.528-2.784c-0.353-0.8-0.844-1.468-1.476-2.004
        c-0.632-0.536-1.384-0.944-2.256-1.224s-1.82-0.42-2.844-0.42h-2.976V22.593z"/>
    <path fill="#666666" d="M86.06,18.969c0,0.88-0.156,1.688-0.468,2.424c-0.312,0.736-0.744,1.372-1.296,1.908
        c-0.552,0.536-1.204,0.952-1.956,1.248c-0.752,0.296-1.56,0.443-2.424,0.443c-0.864,0-1.672-0.147-2.424-0.443
        c-0.752-0.296-1.4-0.712-1.944-1.248c-0.544-0.536-0.972-1.172-1.284-1.908c-0.312-0.735-0.468-1.544-0.468-2.424
        s0.156-1.684,0.468-2.412c0.312-0.728,0.74-1.356,1.284-1.884c0.543-0.528,1.191-0.939,1.944-1.236
        c0.752-0.296,1.56-0.444,2.424-0.444c0.864,0,1.672,0.148,2.424,0.444c0.752,0.297,1.404,0.708,1.956,1.236
        c0.552,0.527,0.984,1.156,1.296,1.884C85.904,17.285,86.06,18.089,86.06,18.969z M83.708,18.98c0-0.542-0.084-1.061-0.252-1.556
        c-0.169-0.494-0.414-0.929-0.734-1.304s-0.718-0.674-1.192-0.897s-1.015-0.335-1.625-0.335c-0.61,0-1.152,0.111-1.625,0.335
        c-0.474,0.224-0.871,0.522-1.191,0.897c-0.321,0.375-0.566,0.81-0.734,1.304C76.184,17.92,76.1,18.438,76.1,18.98
        c0,0.543,0.084,1.062,0.253,1.556c0.168,0.495,0.413,0.934,0.734,1.316c0.321,0.383,0.718,0.686,1.191,0.909
        c0.473,0.224,1.015,0.335,1.625,0.335c0.61,0,1.151-0.111,1.625-0.335s0.871-0.526,1.192-0.909s0.565-0.821,0.734-1.316
        C83.624,20.042,83.708,19.523,83.708,18.98z"/>
    <path fill="#666666" d="M96.428,16.184c-0.24-0.368-0.6-0.676-1.08-0.924s-0.992-0.372-1.536-0.372
        c-0.592,0-1.116,0.112-1.572,0.336c-0.456,0.225-0.844,0.524-1.164,0.9c-0.32,0.376-0.564,0.812-0.732,1.308
        s-0.252,1.017-0.252,1.56c0,0.545,0.084,1.064,0.252,1.561s0.412,0.933,0.732,1.308c0.32,0.376,0.712,0.677,1.176,0.9
        c0.464,0.225,0.992,0.336,1.584,0.336c0.576,0,1.1-0.111,1.572-0.336c0.472-0.224,0.86-0.528,1.164-0.912l1.512,1.368
        c-0.48,0.561-1.08,0.996-1.8,1.308c-0.72,0.312-1.536,0.468-2.448,0.468c-0.88,0-1.692-0.144-2.436-0.432
        c-0.744-0.288-1.388-0.691-1.932-1.212c-0.544-0.52-0.972-1.147-1.284-1.884s-0.468-1.561-0.468-2.473
        c0-0.896,0.152-1.711,0.456-2.447c0.304-0.736,0.728-1.368,1.272-1.896c0.543-0.527,1.188-0.936,1.932-1.224
        c0.744-0.288,1.548-0.433,2.412-0.433c0.8,0,1.596,0.16,2.388,0.48s1.419,0.784,1.884,1.392L96.428,16.184z"/>
    <path fill="#666666" d="M103.1,23.24c0,0.417-0.152,0.784-0.456,1.104c-0.304,0.32-0.688,0.479-1.152,0.479
        c-0.448,0-0.828-0.155-1.14-0.468c-0.312-0.312-0.468-0.676-0.468-1.092c0-0.432,0.152-0.804,0.456-1.116
        c0.304-0.312,0.688-0.468,1.152-0.468c0.464,0,0.848,0.152,1.152,0.456C102.947,22.44,103.1,22.808,103.1,23.24z"/>
    <path fill="#666666" d="M116.635,18.969c0,0.88-0.156,1.688-0.468,2.424c-0.312,0.736-0.744,1.372-1.296,1.908
        c-0.552,0.536-1.204,0.952-1.956,1.248c-0.752,0.296-1.56,0.443-2.424,0.443c-0.864,0-1.672-0.147-2.424-0.443
        c-0.752-0.296-1.4-0.712-1.944-1.248c-0.544-0.536-0.972-1.172-1.284-1.908c-0.312-0.735-0.468-1.544-0.468-2.424
        s0.156-1.684,0.468-2.412c0.312-0.728,0.74-1.356,1.284-1.884c0.543-0.528,1.191-0.939,1.944-1.236
        c0.752-0.296,1.56-0.444,2.424-0.444c0.864,0,1.672,0.148,2.424,0.444c0.752,0.297,1.404,0.708,1.956,1.236
        c0.552,0.527,0.984,1.156,1.296,1.884C116.479,17.285,116.635,18.089,116.635,18.969z M114.283,18.98
        c0-0.542-0.084-1.061-0.252-1.556c-0.169-0.494-0.414-0.929-0.734-1.304s-0.718-0.674-1.192-0.897s-1.015-0.335-1.625-0.335
        c-0.61,0-1.152,0.111-1.625,0.335c-0.474,0.224-0.871,0.522-1.191,0.897c-0.321,0.375-0.566,0.81-0.734,1.304
        c-0.169,0.495-0.253,1.014-0.253,1.556c0,0.543,0.084,1.062,0.253,1.556c0.168,0.495,0.413,0.934,0.734,1.316
        c0.321,0.383,0.718,0.686,1.191,0.909c0.473,0.224,1.015,0.335,1.625,0.335c0.61,0,1.151-0.111,1.625-0.335
        s0.871-0.526,1.192-0.909s0.565-0.821,0.734-1.316C114.199,20.042,114.283,19.523,114.283,18.98z"/>
    <path fill="#666666" d="M119.251,14.577c-0.016-0.48-0.04-0.904-0.072-1.272h2.136c0.032,0.288,0.056,0.62,0.072,0.996
        c0.016,0.376,0.024,0.684,0.024,0.924h0.072c0.32-0.672,0.788-1.212,1.404-1.62c0.616-0.408,1.308-0.612,2.076-0.612
        c0.352,0,0.648,0.033,0.888,0.097l-0.096,2.088c-0.32-0.08-0.664-0.12-1.032-0.12c-0.544,0-1.016,0.101-1.416,0.3
        c-0.4,0.2-0.732,0.468-0.996,0.805c-0.264,0.336-0.46,0.724-0.588,1.163c-0.128,0.44-0.192,0.9-0.192,1.381v5.976h-2.256v-8.928
        C119.275,15.449,119.267,15.056,119.251,14.577z"/>
    <path fill="#666666" d="M128.419,26.625c0.496,0.56,1.116,1.008,1.86,1.344c0.744,0.336,1.508,0.504,2.292,0.504
        c0.752,0,1.384-0.108,1.896-0.324s0.924-0.512,1.236-0.888s0.536-0.82,0.672-1.332c0.136-0.513,0.204-1.064,0.204-1.656v-1.464
        h-0.048c-0.416,0.641-0.984,1.128-1.704,1.464c-0.72,0.336-1.488,0.504-2.304,0.504c-0.864,0-1.652-0.151-2.364-0.456
        c-0.712-0.304-1.316-0.72-1.812-1.248c-0.496-0.527-0.88-1.147-1.152-1.859s-0.408-1.477-0.408-2.292
        c0-0.816,0.136-1.584,0.408-2.305c0.272-0.72,0.656-1.348,1.152-1.884c0.496-0.535,1.096-0.96,1.8-1.271
        c0.704-0.312,1.488-0.469,2.352-0.469c0.816,0,1.596,0.177,2.34,0.528c0.744,0.353,1.332,0.888,1.764,1.608h0.048v-1.824h2.184
        v10.8c0,0.832-0.104,1.628-0.312,2.388c-0.208,0.76-0.56,1.433-1.056,2.017s-1.144,1.052-1.944,1.404
        c-0.8,0.352-1.792,0.527-2.976,0.527c-0.992,0-1.988-0.18-2.988-0.54c-1-0.359-1.86-0.868-2.58-1.523L128.419,26.625z
         M129.091,18.873c0,0.527,0.084,1.031,0.253,1.512c0.168,0.479,0.417,0.904,0.746,1.271c0.329,0.369,0.726,0.664,1.192,0.889
        c0.465,0.224,0.995,0.336,1.589,0.336c0.577,0,1.107-0.104,1.589-0.312c0.481-0.207,0.891-0.491,1.228-0.852
        s0.598-0.784,0.782-1.272c0.185-0.487,0.277-1.012,0.277-1.571c0-0.544-0.093-1.057-0.277-1.536
        c-0.185-0.48-0.449-0.904-0.794-1.272c-0.345-0.367-0.755-0.66-1.228-0.876c-0.474-0.216-1-0.324-1.577-0.324
        c-0.594,0-1.124,0.108-1.589,0.324c-0.466,0.216-0.863,0.504-1.192,0.864s-0.578,0.784-0.746,1.271
        C129.175,17.812,129.091,18.329,129.091,18.873z"/>
</g>
<g><a xlink:href="/" pointer-events="all" target="_top"><polygon fill="none" points="0,0 145,0 145,35 0,35 0,0"/></a></g>

</g>


<!-- AnyBidirectionalIndex -->
<g id="node1" class="node">
<g id="a_node1"><a xlink:href="/v2.1/type/AnyBidirectionalIndex/hierarchy/" target="_top">
<polygon fill="#999999" stroke="#999999" points="1920.55,-22 1795.45,-22 1795.45,-0 1920.55,-0 1920.55,-22"/>
<text text-anchor="middle" x="1858" y="-7.4" font-family="Helvetica,sans-Serif" font-size="12.00" fill="white">AnyBidirectionalIndex</text>
</a>
</g>
</g>
<!-- AnyForwardIndex -->
<g id="node2" class="node">
<g id="a_node2"><a xlink:href="/v2.1/type/AnyForwardIndex/hierarchy/" target="_top">
<polygon fill="#999999" stroke="#999999" points="3074.03,-22 2969.97,-22 2969.97,-0 3074.03,-0 3074.03,-22"/>
<text text-anchor="middle" x="3022" y="-7.4" font-family="Helvetica,sans-Serif" font-size="12.00" fill="white">AnyForwardIndex</text>
</a>
</g>
</g>
<!-- AnyRandomAccessIndex -->
<g id="node3" class="node">
<g id="a_node3"><a xlink:href="/v2.1/type/AnyRandomAccessIndex/hierarchy/" target="_top">
<polygon fill="#999999" stroke="#999999" points="2083.05,-22 1938.95,-22 1938.95,-0 2083.05,-0 2083.05,-22"/>
<text text-anchor="middle" x="2011" y="-7.4" font-family="Helvetica,sans-Serif" font-size="12.00" fill="white">AnyRandomAccessIndex</text>
</a>
</g>
</g>
<!-- BidirectionalIndexType -->
<g id="node4" class="node">
<g id="a_node4"><a xlink:href="/v2.1/protocol/BidirectionalIndexType/hierarchy/" target="_top">
<path fill="#999999" stroke="#999999" d="M2030.73,-254C2030.73,-254 1915.27,-254 1915.27,-254 1911.61,-254 1907.94,-250.333 1907.94,-246.667 1907.94,-246.667 1907.94,-239.333 1907.94,-239.333 1907.94,-235.667 1911.61,-232 1915.27,-232 1915.27,-232 2030.73,-232 2030.73,-232 2034.39,-232 2038.06,-235.667 2038.06,-239.333 2038.06,-239.333 2038.06,-246.667 2038.06,-246.667 2038.06,-250.333 2034.39,-254 2030.73,-254"/>
<text text-anchor="middle" x="1973" y="-239.4" font-family="Helvetica,sans-Serif" font-size="12.00" fill="white">BidirectionalIndexType</text>
</a>
</g>
</g>
<!-- BidirectionalIndexType&#45;&gt;AnyBidirectionalIndex -->
<g id="edge10" class="edge">
<path fill="none" stroke="#cccccc" d="M1967.91,-231.82C1950.17,-196.345 1890.89,-77.7884 1867.56,-31.114"/>
<polygon fill="#cccccc" stroke="#cccccc" points="1870.63,-29.441 1863.03,-22.062 1864.37,-32.5716 1870.63,-29.441"/>
</g>
<!-- FlattenBidirectionalCollectionIndex -->
<g id="node8" class="node">
<g id="a_node8"><a xlink:href="/v2.1/type/FlattenBidirectionalCollectionIndex/hierarchy/" target="_top">
<polygon fill="#999999" stroke="#999999" points="1777.08,-22 1582.92,-22 1582.92,-0 1777.08,-0 1777.08,-22"/>
<text text-anchor="middle" x="1680" y="-7.4" font-family="Helvetica,sans-Serif" font-size="12.00" fill="white">FlattenBidirectionalCollectionIndex</text>
</a>
</g>
</g>
<!-- BidirectionalIndexType&#45;&gt;FlattenBidirectionalCollectionIndex -->
<g id="edge11" class="edge">
<path fill="none" stroke="#cccccc" d="M1960.03,-231.82C1913.89,-195.601 1757.43,-72.781 1700.73,-28.2747"/>
<polygon fill="#cccccc" stroke="#cccccc" points="1702.85,-25.4836 1692.82,-22.062 1698.52,-30.9898 1702.85,-25.4836"/>
</g>
<!-- RandomAccessIndexType -->
<g id="node18" class="node">
<g id="a_node18"><a xlink:href="/v2.1/protocol/RandomAccessIndexType/hierarchy/" target="_top">
<path fill="#999999" stroke="#999999" d="M2155.23,-196C2155.23,-196 2020.77,-196 2020.77,-196 2017.11,-196 2013.44,-192.333 2013.44,-188.667 2013.44,-188.667 2013.44,-181.333 2013.44,-181.333 2013.44,-177.667 2017.11,-174 2020.77,-174 2020.77,-174 2155.23,-174 2155.23,-174 2158.89,-174 2162.56,-177.667 2162.56,-181.333 2162.56,-181.333 2162.56,-188.667 2162.56,-188.667 2162.56,-192.333 2158.89,-196 2155.23,-196"/>
<text text-anchor="middle" x="2088" y="-181.4" font-family="Helvetica,sans-Serif" font-size="12.00" fill="white">RandomAccessIndexType</text>
</a>
</g>
</g>
<!-- BidirectionalIndexType&#45;&gt;RandomAccessIndexType -->
<g id="edge12" class="edge">
<path fill="none" stroke="#cccccc" d="M1993.56,-231.988C2011.52,-223.243 2037.81,-210.438 2058.1,-200.559"/>
<polygon fill="#cccccc" stroke="#cccccc" points="2059.77,-203.639 2067.23,-196.114 2056.71,-197.345 2059.77,-203.639"/>
</g>
<!-- ReverseIndexType -->
<g id="node20" class="node">
<g id="a_node20"><a xlink:href="/v2.1/protocol/ReverseIndexType/hierarchy/" target="_top">
<path fill="#999999" stroke="#999999" d="M2482.71,-80C2482.71,-80 2387.29,-80 2387.29,-80 2383.62,-80 2379.95,-76.3333 2379.95,-72.6667 2379.95,-72.6667 2379.95,-65.3333 2379.95,-65.3333 2379.95,-61.6667 2383.62,-58 2387.29,-58 2387.29,-58 2482.71,-58 2482.71,-58 2486.38,-58 2490.05,-61.6667 2490.05,-65.3333 2490.05,-65.3333 2490.05,-72.6667 2490.05,-72.6667 2490.05,-76.3333 2486.38,-80 2482.71,-80"/>
<text text-anchor="middle" x="2435" y="-65.4" font-family="Helvetica,sans-Serif" font-size="12.00" fill="white">ReverseIndexType</text>
</a>
</g>
</g>
<!-- BidirectionalIndexType&#45;&gt;ReverseIndexType -->
<g id="edge13" class="edge">
<path fill="none" stroke="#cccccc" d="M2031.12,-231.948C2071.09,-224.203 2125.04,-212.094 2171,-196 2261.36,-164.363 2361.8,-110.996 2408.47,-85.0568"/>
<polygon fill="#cccccc" stroke="#cccccc" points="2410.31,-88.0378 2417.33,-80.1024 2406.9,-81.9281 2410.31,-88.0378"/>
</g>
<!-- String.CharacterView.Index -->
<g id="node24" class="node">
<g id="a_node24"><a xlink:href="/v2.1/type/String.CharacterView.Index/hierarchy/" target="_top">
<polygon fill="#999999" stroke="#999999" points="2794.4,-22 2639.6,-22 2639.6,-0 2794.4,-0 2794.4,-22"/>
<text text-anchor="middle" x="2717" y="-7.4" font-family="Helvetica,sans-Serif" font-size="12.00" fill="white">String.CharacterView.Index</text>
</a>
</g>
</g>
<!-- BidirectionalIndexType&#45;&gt;String.CharacterView.Index -->
<g id="edge14" class="edge">
<path fill="none" stroke="#cccccc" d="M2038.29,-232.236C2086.48,-224.342 2153.4,-211.931 2211,-196 2393.51,-145.518 2604.04,-59.7067 2683.94,-26.0954"/>
<polygon fill="#cccccc" stroke="#cccccc" points="2685.62,-29.189 2693.47,-22.076 2682.89,-22.7398 2685.62,-29.189"/>
</g>
<!-- String.UTF16View.Index -->
<g id="node25" class="node">
<g id="a_node25"><a xlink:href="/v2.1/type/String.UTF16View.Index/hierarchy/" target="_top">
<polygon fill="#999999" stroke="#999999" points="2951.39,-22 2812.61,-22 2812.61,-0 2951.39,-0 2951.39,-22"/>
<text text-anchor="middle" x="2882" y="-7.4" font-family="Helvetica,sans-Serif" font-size="12.00" fill="white">String.UTF16View.Index</text>
</a>
</g>
</g>
<!-- BidirectionalIndexType&#45;&gt;String.UTF16View.Index -->
<g id="edge16" class="edge">
<path fill="none" stroke="#cccccc" d="M2038.14,-233.993C2096.61,-226.23 2184.59,-213.123 2260,-196 2484.06,-145.126 2746.06,-58.4684 2843.21,-25.3806"/>
<polygon fill="#cccccc" stroke="#cccccc" points="2844.56,-28.6171 2852.89,-22.0729 2842.3,-21.9927 2844.56,-28.6171"/>
</g>
<!-- String.UnicodeScalarView.Index -->
<g id="node27" class="node">
<g id="a_node27"><a xlink:href="/v2.1/type/String.UnicodeScalarView.Index/hierarchy/" target="_top">
<polygon fill="#999999" stroke="#999999" points="1564.92,-22 1385.08,-22 1385.08,-0 1564.92,-0 1564.92,-22"/>
<text text-anchor="middle" x="1475" y="-7.4" font-family="Helvetica,sans-Serif" font-size="12.00" fill="white">String.UnicodeScalarView.Index</text>
</a>
</g>
</g>
<!-- BidirectionalIndexType&#45;&gt;String.UnicodeScalarView.Index -->
<g id="edge15" class="edge">
<path fill="none" stroke="#cccccc" d="M1951.28,-231.969C1872.09,-195.393 1598.62,-69.0946 1505.97,-26.305"/>
<polygon fill="#cccccc" stroke="#cccccc" points="1507.38,-23.099 1496.83,-22.0835 1504.44,-29.454 1507.38,-23.099"/>
</g>
<!-- Bit -->
<g id="node5" class="node">
<g id="a_node5"><a xlink:href="/v2.1/type/Bit/hierarchy/" target="_top">
<polygon fill="#999999" stroke="#999999" points="1031,-22 977,-22 977,-0 1031,-0 1031,-22"/>
<text text-anchor="middle" x="1004" y="-7.4" font-family="Helvetica,sans-Serif" font-size="12.00" fill="white">Bit</text>
</a>
</g>
</g>
<!-- DictionaryIndex -->
<g id="node6" class="node">
<g id="a_node6"><a xlink:href="/v2.1/type/DictionaryIndex/hierarchy/" target="_top">
<polygon fill="#999999" stroke="#999999" points="92.0298,-22 -0.0298352,-22 -0.0298352,-0 92.0298,-0 92.0298,-22"/>
<text text-anchor="middle" x="46" y="-7.4" font-family="Helvetica,sans-Serif" font-size="12.00" fill="white">DictionaryIndex</text>
</a>
</g>
</g>
<!-- Equatable -->
<g id="node7" class="node">
<g id="a_node7"><a xlink:href="/v2.1/protocol/Equatable/hierarchy/" target="_top">
<path fill="#999999" stroke="#999999" d="M769.702,-428C769.702,-428 720.298,-428 720.298,-428 716.632,-428 712.965,-424.333 712.965,-420.667 712.965,-420.667 712.965,-413.333 712.965,-413.333 712.965,-409.667 716.632,-406 720.298,-406 720.298,-406 769.702,-406 769.702,-406 773.368,-406 777.035,-409.667 777.035,-413.333 777.035,-413.333 777.035,-420.667 777.035,-420.667 777.035,-424.333 773.368,-428 769.702,-428"/>
<text text-anchor="middle" x="745" y="-413.4" font-family="Helvetica,sans-Serif" font-size="12.00" fill="white">Equatable</text>
</a>
</g>
</g>
<!-- _Incrementable -->
<g id="node37" class="node">
<g id="a_node37"><a xlink:href="/v2.1/protocol/_Incrementable/" target="_top">
<path fill="#ee543d" stroke="#ee543d" d="M783.705,-370C783.705,-370 706.295,-370 706.295,-370 702.628,-370 698.961,-366.333 698.961,-362.667 698.961,-362.667 698.961,-355.333 698.961,-355.333 698.961,-351.667 702.628,-348 706.295,-348 706.295,-348 783.705,-348 783.705,-348 787.372,-348 791.039,-351.667 791.039,-355.333 791.039,-355.333 791.039,-362.667 791.039,-362.667 791.039,-366.333 787.372,-370 783.705,-370"/>
<text text-anchor="middle" x="745" y="-355.4" font-family="Helvetica,sans-Serif" font-size="12.00" fill="white">_Incrementable</text>
</a>
</g>
</g>
<!-- Equatable&#45;&gt;_Incrementable -->
<g id="edge42" class="edge">
<path fill="none" stroke="#cccccc" d="M745,-405.988C745,-398.91 745,-389.171 745,-380.478"/>
<polygon fill="#cccccc" stroke="#cccccc" points="748.5,-380.304 745,-370.304 741.5,-380.304 748.5,-380.304"/>
</g>
<!-- FlattenCollectionIndex -->
<g id="node9" class="node">
<g id="a_node9"><a xlink:href="/v2.1/type/FlattenCollectionIndex/hierarchy/" target="_top">
<polygon fill="#999999" stroke="#999999" points="239.051,-22 110.949,-22 110.949,-0 239.051,-0 239.051,-22"/>
<text text-anchor="middle" x="175" y="-7.4" font-family="Helvetica,sans-Serif" font-size="12.00" fill="white">FlattenCollectionIndex</text>
</a>
</g>
</g>
<!-- ForwardIndexType -->
<g id="node10" class="node">
<g id="a_node10"><a xlink:href="/v2.1/protocol/ForwardIndexType/hierarchy/" target="_top">
<path fill="#999999" stroke="#999999" d="M1188.21,-312C1188.21,-312 1093.79,-312 1093.79,-312 1090.13,-312 1086.46,-308.333 1086.46,-304.667 1086.46,-304.667 1086.46,-297.333 1086.46,-297.333 1086.46,-293.667 1090.13,-290 1093.79,-290 1093.79,-290 1188.21,-290 1188.21,-290 1191.87,-290 1195.54,-293.667 1195.54,-297.333 1195.54,-297.333 1195.54,-304.667 1195.54,-304.667 1195.54,-308.333 1191.87,-312 1188.21,-312"/>
<text text-anchor="middle" x="1141" y="-297.4" font-family="Helvetica,sans-Serif" font-size="12.00" fill="white">ForwardIndexType</text>
</a>
</g>
</g>
<!-- ForwardIndexType&#45;&gt;AnyForwardIndex -->
<g id="edge3" class="edge">
<path fill="none" stroke="#cccccc" d="M1195.52,-299.62C1504.5,-297.116 3022,-280.033 3022,-186 3022,-186 3022,-186 3022,-126 3022,-93.1536 3022,-54.9837 3022,-32.197"/>
<polygon fill="#cccccc" stroke="#cccccc" points="3025.5,-32.0648 3022,-22.0648 3018.5,-32.0648 3025.5,-32.0648"/>
</g>
<!-- ForwardIndexType&#45;&gt;BidirectionalIndexType -->
<g id="edge4" class="edge">
<path fill="none" stroke="#cccccc" d="M1195.59,-296.326C1339.98,-286.607 1732.15,-260.211 1897.67,-249.07"/>
<polygon fill="#cccccc" stroke="#cccccc" points="1898.03,-252.554 1907.77,-248.391 1897.56,-245.57 1898.03,-252.554"/>
</g>
<!-- ForwardIndexType&#45;&gt;DictionaryIndex -->
<g id="edge5" class="edge">
<path fill="none" stroke="#cccccc" d="M1086.32,-300.113C864.825,-299.862 46,-291.779 46,-186 46,-186 46,-186 46,-126 46,-93.1536 46,-54.9837 46,-32.197"/>
<polygon fill="#cccccc" stroke="#cccccc" points="49.5001,-32.0648 46,-22.0648 42.5001,-32.0648 49.5001,-32.0648"/>
</g>
<!-- ForwardIndexType&#45;&gt;FlattenCollectionIndex -->
<g id="edge6" class="edge">
<path fill="none" stroke="#cccccc" d="M1086.37,-297.423C914.169,-288.578 394,-256.063 394,-186 394,-186 394,-186 394,-126 394,-86.9405 283.006,-45.7173 219.054,-25.2074"/>
<polygon fill="#cccccc" stroke="#cccccc" points="219.809,-21.7751 209.219,-22.097 217.698,-28.4494 219.809,-21.7751"/>
</g>
<!-- LazyFilterIndex -->
<g id="node17" class="node">
<g id="a_node17"><a xlink:href="/v2.1/type/LazyFilterIndex/hierarchy/" target="_top">
<polygon fill="#999999" stroke="#999999" points="1140.53,-22 1049.47,-22 1049.47,-0 1140.53,-0 1140.53,-22"/>
<text text-anchor="middle" x="1095" y="-7.4" font-family="Helvetica,sans-Serif" font-size="12.00" fill="white">LazyFilterIndex</text>
</a>
</g>
</g>
<!-- ForwardIndexType&#45;&gt;LazyFilterIndex -->
<g id="edge7" class="edge">
<path fill="none" stroke="#cccccc" d="M1133.81,-289.871C1120.88,-270.613 1095,-226.977 1095,-186 1095,-186 1095,-186 1095,-126 1095,-93.1536 1095,-54.9837 1095,-32.197"/>
<polygon fill="#cccccc" stroke="#cccccc" points="1098.5,-32.0648 1095,-22.0648 1091.5,-32.0648 1098.5,-32.0648"/>
</g>
<!-- SetIndex -->
<g id="node22" class="node">
<g id="a_node22"><a xlink:href="/v2.1/type/SetIndex/hierarchy/" target="_top">
<polygon fill="#999999" stroke="#999999" points="1215.52,-22 1158.48,-22 1158.48,-0 1215.52,-0 1215.52,-22"/>
<text text-anchor="middle" x="1187" y="-7.4" font-family="Helvetica,sans-Serif" font-size="12.00" fill="white">SetIndex</text>
</a>
</g>
</g>
<!-- ForwardIndexType&#45;&gt;SetIndex -->
<g id="edge8" class="edge">
<path fill="none" stroke="#cccccc" d="M1148.19,-289.871C1161.12,-270.613 1187,-226.977 1187,-186 1187,-186 1187,-186 1187,-126 1187,-93.1536 1187,-54.9837 1187,-32.197"/>
<polygon fill="#cccccc" stroke="#cccccc" points="1190.5,-32.0648 1187,-22.0648 1183.5,-32.0648 1190.5,-32.0648"/>
</g>
<!-- String.UTF8View.Index -->
<g id="node26" class="node">
<g id="a_node26"><a xlink:href="/v2.1/type/String.UTF8View.Index/hierarchy/" target="_top">
<polygon fill="#999999" stroke="#999999" points="1365.89,-22 1234.11,-22 1234.11,-0 1365.89,-0 1365.89,-22"/>
<text text-anchor="middle" x="1300" y="-7.4" font-family="Helvetica,sans-Serif" font-size="12.00" fill="white">String.UTF8View.Index</text>
</a>
</g>
</g>
<!-- ForwardIndexType&#45;&gt;String.UTF8View.Index -->
<g id="edge9" class="edge">
<path fill="none" stroke="#cccccc" d="M1181.53,-289.978C1228.64,-275.618 1300,-244.252 1300,-186 1300,-186 1300,-186 1300,-126 1300,-93.1536 1300,-54.9837 1300,-32.197"/>
<polygon fill="#cccccc" stroke="#cccccc" points="1303.5,-32.0648 1300,-22.0648 1296.5,-32.0648 1303.5,-32.0648"/>
</g>
<!-- Int -->
<g id="node11" class="node">
<g id="a_node11"><a xlink:href="/v2.1/type/Int/hierarchy/" target="_top">
<polygon fill="#999999" stroke="#999999" points="815,-22 761,-22 761,-0 815,-0 815,-22"/>
<text text-anchor="middle" x="788" y="-7.4" font-family="Helvetica,sans-Serif" font-size="12.00" fill="white">Int</text>
</a>
</g>
</g>
<!-- Int&#45;&gt;Bit -->
<g id="edge29" class="edge">
<path fill="none" stroke="#cccccc" d="M800.779,-22.0854C809.283,-28.7029 821.052,-36.4837 833,-40 886.722,-55.8109 905.278,-55.8109 959,-40 967.401,-37.5276 975.713,-32.9469 982.865,-28.1447"/>
<polygon fill="#cccccc" stroke="#cccccc" points="985.18,-30.7891 991.221,-22.0854 981.071,-25.122 985.18,-30.7891"/>
</g>
<!-- Int16 -->
<g id="node12" class="node">
<g id="a_node12"><a xlink:href="/v2.1/type/Int16/hierarchy/" target="_top">
<polygon fill="#999999" stroke="#999999" points="887,-22 833,-22 833,-0 887,-0 887,-22"/>
<text text-anchor="middle" x="860" y="-7.4" font-family="Helvetica,sans-Serif" font-size="12.00" fill="white">Int16</text>
</a>
</g>
</g>
<!-- Int32 -->
<g id="node13" class="node">
<g id="a_node13"><a xlink:href="/v2.1/type/Int32/hierarchy/" target="_top">
<polygon fill="#999999" stroke="#999999" points="959,-22 905,-22 905,-0 959,-0 959,-22"/>
<text text-anchor="middle" x="932" y="-7.4" font-family="Helvetica,sans-Serif" font-size="12.00" fill="white">Int32</text>
</a>
</g>
</g>
<!-- Int64 -->
<g id="node14" class="node">
<g id="a_node14"><a xlink:href="/v2.1/type/Int64/hierarchy/" target="_top">
<polygon fill="#999999" stroke="#999999" points="671,-22 617,-22 617,-0 671,-0 671,-22"/>
<text text-anchor="middle" x="644" y="-7.4" font-family="Helvetica,sans-Serif" font-size="12.00" fill="white">Int64</text>
</a>
</g>
</g>
<!-- Int8 -->
<g id="node15" class="node">
<g id="a_node15"><a xlink:href="/v2.1/type/Int8/hierarchy/" target="_top">
<polygon fill="#999999" stroke="#999999" points="743,-22 689,-22 689,-0 743,-0 743,-22"/>
<text text-anchor="middle" x="716" y="-7.4" font-family="Helvetica,sans-Serif" font-size="12.00" fill="white">Int8</text>
</a>
</g>
</g>
<!-- IntegerType -->
<g id="node16" class="node">
<g id="a_node16"><a xlink:href="/v2.1/protocol/IntegerType/hierarchy/" target="_top">
<path fill="#999999" stroke="#999999" d="M811.202,-138C811.202,-138 752.798,-138 752.798,-138 749.132,-138 745.465,-134.333 745.465,-130.667 745.465,-130.667 745.465,-123.333 745.465,-123.333 745.465,-119.667 749.132,-116 752.798,-116 752.798,-116 811.202,-116 811.202,-116 814.868,-116 818.535,-119.667 818.535,-123.333 818.535,-123.333 818.535,-130.667 818.535,-130.667 818.535,-134.333 814.868,-138 811.202,-138"/>
<text text-anchor="middle" x="782" y="-123.4" font-family="Helvetica,sans-Serif" font-size="12.00" fill="white">IntegerType</text>
</a>
</g>
</g>
<!-- SignedIntegerType -->
<g id="node23" class="node">
<g id="a_node23"><a xlink:href="/v2.1/protocol/SignedIntegerType/hierarchy/" target="_top">
<path fill="#999999" stroke="#999999" d="M829.727,-80C829.727,-80 734.273,-80 734.273,-80 730.606,-80 726.94,-76.3333 726.94,-72.6667 726.94,-72.6667 726.94,-65.3333 726.94,-65.3333 726.94,-61.6667 730.606,-58 734.273,-58 734.273,-58 829.727,-58 829.727,-58 833.394,-58 837.06,-61.6667 837.06,-65.3333 837.06,-65.3333 837.06,-72.6667 837.06,-72.6667 837.06,-76.3333 833.394,-80 829.727,-80"/>
<text text-anchor="middle" x="782" y="-65.4" font-family="Helvetica,sans-Serif" font-size="12.00" fill="white">SignedIntegerType</text>
</a>
</g>
</g>
<!-- IntegerType&#45;&gt;SignedIntegerType -->
<g id="edge22" class="edge">
<path fill="none" stroke="#cccccc" d="M782,-115.988C782,-108.91 782,-99.1714 782,-90.4779"/>
<polygon fill="#cccccc" stroke="#cccccc" points="785.5,-90.3038 782,-80.3039 778.5,-90.3039 785.5,-90.3038"/>
</g>
<!-- UnsignedIntegerType -->
<g id="node35" class="node">
<g id="a_node35"><a xlink:href="/v2.1/protocol/UnsignedIntegerType/hierarchy/" target="_top">
<path fill="#999999" stroke="#999999" d="M554.728,-80C554.728,-80 445.272,-80 445.272,-80 441.605,-80 437.938,-76.3333 437.938,-72.6667 437.938,-72.6667 437.938,-65.3333 437.938,-65.3333 437.938,-61.6667 441.605,-58 445.272,-58 445.272,-58 554.728,-58 554.728,-58 558.395,-58 562.062,-61.6667 562.062,-65.3333 562.062,-65.3333 562.062,-72.6667 562.062,-72.6667 562.062,-76.3333 558.395,-80 554.728,-80"/>
<text text-anchor="middle" x="500" y="-65.4" font-family="Helvetica,sans-Serif" font-size="12.00" fill="white">UnsignedIntegerType</text>
</a>
</g>
</g>
<!-- IntegerType&#45;&gt;UnsignedIntegerType -->
<g id="edge23" class="edge">
<path fill="none" stroke="#cccccc" d="M745.357,-117.96C742.194,-117.288 739.042,-116.627 736,-116 677.602,-103.962 610.899,-91.0369 563.34,-81.962"/>
<polygon fill="#cccccc" stroke="#cccccc" points="563.97,-78.5192 553.491,-80.0857 562.66,-85.3955 563.97,-78.5192"/>
</g>
<!-- RandomAccessIndexType&#45;&gt;AnyRandomAccessIndex -->
<g id="edge17" class="edge">
<path fill="none" stroke="#cccccc" d="M2083.41,-173.756C2070.93,-145.859 2036.15,-68.185 2019.76,-31.5708"/>
<polygon fill="#cccccc" stroke="#cccccc" points="2022.94,-30.1051 2015.66,-22.4081 2016.55,-32.9653 2022.94,-30.1051"/>
</g>
<!-- RandomAccessIndexType&#45;&gt;IntegerType -->
<g id="edge18" class="edge">
<path fill="none" stroke="#cccccc" d="M2013.57,-180.808C1773.41,-170.511 1023.36,-138.349 828.59,-129.998"/>
<polygon fill="#cccccc" stroke="#cccccc" points="828.551,-126.493 818.41,-129.561 828.251,-133.486 828.551,-126.493"/>
</g>
<!-- ReverseRandomAccessIndex -->
<g id="node21" class="node">
<g id="a_node21"><a xlink:href="/v2.1/type/ReverseRandomAccessIndex/hierarchy/" target="_top">
<polygon fill="#999999" stroke="#999999" points="2519.06,-22 2350.94,-22 2350.94,-0 2519.06,-0 2519.06,-22"/>
<text text-anchor="middle" x="2435" y="-7.4" font-family="Helvetica,sans-Serif" font-size="12.00" fill="white">ReverseRandomAccessIndex</text>
</a>
</g>
</g>
<!-- RandomAccessIndexType&#45;&gt;ReverseRandomAccessIndex -->
<g id="edge19" class="edge">
<path fill="none" stroke="#cccccc" d="M2108.41,-173.883C2167.1,-144.791 2336.51,-60.8189 2405.37,-26.6872"/>
<polygon fill="#cccccc" stroke="#cccccc" points="2406.99,-29.7898 2414.4,-22.2127 2403.88,-23.518 2406.99,-29.7898"/>
</g>
<!-- UnsafeMutablePointer -->
<g id="node33" class="node">
<g id="a_node33"><a xlink:href="/v2.1/type/UnsafeMutablePointer/hierarchy/" target="_top">
<polygon fill="#999999" stroke="#999999" points="2229.05,-22 2100.95,-22 2100.95,-0 2229.05,-0 2229.05,-22"/>
<text text-anchor="middle" x="2165" y="-7.4" font-family="Helvetica,sans-Serif" font-size="12.00" fill="white">UnsafeMutablePointer</text>
</a>
</g>
</g>
<!-- RandomAccessIndexType&#45;&gt;UnsafeMutablePointer -->
<g id="edge20" class="edge">
<path fill="none" stroke="#cccccc" d="M2092.59,-173.756C2105.07,-145.859 2139.85,-68.185 2156.24,-31.5708"/>
<polygon fill="#cccccc" stroke="#cccccc" points="2159.45,-32.9653 2160.34,-22.4081 2153.06,-30.1051 2159.45,-32.9653"/>
</g>
<!-- UnsafePointer -->
<g id="node34" class="node">
<g id="a_node34"><a xlink:href="/v2.1/type/UnsafePointer/hierarchy/" target="_top">
<polygon fill="#999999" stroke="#999999" points="2333.03,-22 2246.97,-22 2246.97,-0 2333.03,-0 2333.03,-22"/>
<text text-anchor="middle" x="2290" y="-7.4" font-family="Helvetica,sans-Serif" font-size="12.00" fill="white">UnsafePointer</text>
</a>
</g>
</g>
<!-- RandomAccessIndexType&#45;&gt;UnsafePointer -->
<g id="edge21" class="edge">
<path fill="none" stroke="#cccccc" d="M2100.03,-173.756C2133.64,-145.136 2228.79,-64.1234 2270.26,-28.8071"/>
<polygon fill="#cccccc" stroke="#cccccc" points="2272.69,-31.3385 2278.03,-22.1906 2268.15,-26.0088 2272.69,-31.3385"/>
</g>
<!-- ReverseIndex -->
<g id="node19" class="node">
<g id="a_node19"><a xlink:href="/v2.1/type/ReverseIndex/hierarchy/" target="_top">
<polygon fill="#999999" stroke="#999999" points="2621.03,-22 2536.97,-22 2536.97,-0 2621.03,-0 2621.03,-22"/>
<text text-anchor="middle" x="2579" y="-7.4" font-family="Helvetica,sans-Serif" font-size="12.00" fill="white">ReverseIndex</text>
</a>
</g>
</g>
<!-- ReverseIndexType&#45;&gt;ReverseIndex -->
<g id="edge35" class="edge">
<path fill="none" stroke="#cccccc" d="M2460.74,-57.9883C2483.84,-49.0057 2517.95,-35.7398 2543.61,-25.7614"/>
<polygon fill="#cccccc" stroke="#cccccc" points="2544.94,-29.0004 2552.99,-22.1138 2542.4,-22.4763 2544.94,-29.0004"/>
</g>
<!-- ReverseIndexType&#45;&gt;ReverseRandomAccessIndex -->
<g id="edge36" class="edge">
<path fill="none" stroke="#cccccc" d="M2435,-57.9883C2435,-50.9098 2435,-41.1714 2435,-32.4779"/>
<polygon fill="#cccccc" stroke="#cccccc" points="2438.5,-32.3038 2435,-22.3039 2431.5,-32.3039 2438.5,-32.3038"/>
</g>
<!-- SignedIntegerType&#45;&gt;Int -->
<g id="edge24" class="edge">
<path fill="none" stroke="#cccccc" d="M783.073,-57.9883C783.831,-50.9098 784.874,-41.1714 785.806,-32.4779"/>
<polygon fill="#cccccc" stroke="#cccccc" points="789.311,-32.6199 786.896,-22.3039 782.351,-31.8741 789.311,-32.6199"/>
</g>
<!-- SignedIntegerType&#45;&gt;Int16 -->
<g id="edge25" class="edge">
<path fill="none" stroke="#cccccc" d="M795.945,-57.9883C807.519,-49.6784 824.2,-37.7028 837.637,-28.0554"/>
<polygon fill="#cccccc" stroke="#cccccc" points="839.831,-30.7891 845.913,-22.1138 835.748,-25.1028 839.831,-30.7891"/>
</g>
<!-- SignedIntegerType&#45;&gt;Int32 -->
<g id="edge26" class="edge">
<path fill="none" stroke="#cccccc" d="M808.817,-57.9883C833.059,-48.9381 868.947,-35.5399 895.741,-25.5367"/>
<polygon fill="#cccccc" stroke="#cccccc" points="897.018,-28.7958 905.163,-22.0192 894.57,-22.2379 897.018,-28.7958"/>
</g>
<!-- SignedIntegerType&#45;&gt;Int64 -->
<g id="edge27" class="edge">
<path fill="none" stroke="#cccccc" d="M757.328,-57.9883C735.29,-49.0453 702.79,-35.8566 678.237,-25.8935"/>
<polygon fill="#cccccc" stroke="#cccccc" points="679.506,-22.6309 668.923,-22.1138 676.873,-29.1172 679.506,-22.6309"/>
</g>
<!-- SignedIntegerType&#45;&gt;Int8 -->
<g id="edge28" class="edge">
<path fill="none" stroke="#cccccc" d="M770.201,-57.9883C760.653,-49.8873 746.999,-38.3026 735.785,-28.7873"/>
<polygon fill="#cccccc" stroke="#cccccc" points="738.033,-26.1049 728.144,-22.3039 733.505,-31.4425 738.033,-26.1049"/>
</g>
<!-- UInt -->
<g id="node28" class="node">
<g id="a_node28"><a xlink:href="/v2.1/type/UInt/hierarchy/" target="_top">
<polygon fill="#999999" stroke="#999999" points="455,-22 401,-22 401,-0 455,-0 455,-22"/>
<text text-anchor="middle" x="428" y="-7.4" font-family="Helvetica,sans-Serif" font-size="12.00" fill="white">UInt</text>
</a>
</g>
</g>
<!-- UInt16 -->
<g id="node29" class="node">
<g id="a_node29"><a xlink:href="/v2.1/type/UInt16/hierarchy/" target="_top">
<polygon fill="#999999" stroke="#999999" points="527,-22 473,-22 473,-0 527,-0 527,-22"/>
<text text-anchor="middle" x="500" y="-7.4" font-family="Helvetica,sans-Serif" font-size="12.00" fill="white">UInt16</text>
</a>
</g>
</g>
<!-- UInt32 -->
<g id="node30" class="node">
<g id="a_node30"><a xlink:href="/v2.1/type/UInt32/hierarchy/" target="_top">
<polygon fill="#999999" stroke="#999999" points="599,-22 545,-22 545,-0 599,-0 599,-22"/>
<text text-anchor="middle" x="572" y="-7.4" font-family="Helvetica,sans-Serif" font-size="12.00" fill="white">UInt32</text>
</a>
</g>
</g>
<!-- UInt64 -->
<g id="node31" class="node">
<g id="a_node31"><a xlink:href="/v2.1/type/UInt64/hierarchy/" target="_top">
<polygon fill="#999999" stroke="#999999" points="311,-22 257,-22 257,-0 311,-0 311,-22"/>
<text text-anchor="middle" x="284" y="-7.4" font-family="Helvetica,sans-Serif" font-size="12.00" fill="white">UInt64</text>
</a>
</g>
</g>
<!-- UInt8 -->
<g id="node32" class="node">
<g id="a_node32"><a xlink:href="/v2.1/type/UInt8/hierarchy/" target="_top">
<polygon fill="#999999" stroke="#999999" points="383,-22 329,-22 329,-0 383,-0 383,-22"/>
<text text-anchor="middle" x="356" y="-7.4" font-family="Helvetica,sans-Serif" font-size="12.00" fill="white">UInt8</text>
</a>
</g>
</g>
<!-- UnsignedIntegerType&#45;&gt;UInt -->
<g id="edge30" class="edge">
<path fill="none" stroke="#cccccc" d="M487.128,-57.9883C476.611,-49.8087 461.528,-38.0773 449.228,-28.5108"/>
<polygon fill="#cccccc" stroke="#cccccc" points="451.29,-25.6806 441.248,-22.3039 446.993,-31.2061 451.29,-25.6806"/>
</g>
<!-- UnsignedIntegerType&#45;&gt;UInt16 -->
<g id="edge31" class="edge">
<path fill="none" stroke="#cccccc" d="M500,-57.9883C500,-50.9098 500,-41.1714 500,-32.4779"/>
<polygon fill="#cccccc" stroke="#cccccc" points="503.5,-32.3038 500,-22.3039 496.5,-32.3039 503.5,-32.3038"/>
</g>
<!-- UnsignedIntegerType&#45;&gt;UInt32 -->
<g id="edge32" class="edge">
<path fill="none" stroke="#cccccc" d="M512.872,-57.9883C523.389,-49.8087 538.472,-38.0773 550.772,-28.5108"/>
<polygon fill="#cccccc" stroke="#cccccc" points="553.007,-31.2061 558.752,-22.3039 548.71,-25.6806 553.007,-31.2061"/>
</g>
<!-- UnsignedIntegerType&#45;&gt;UInt64 -->
<g id="edge33" class="edge">
<path fill="none" stroke="#cccccc" d="M459.546,-57.9168C425.164,-49.2898 374.242,-36.3793 321.063,-22.2477"/>
<polygon fill="#cccccc" stroke="#cccccc" points="321.674,-18.7885 311.11,-19.5955 319.872,-25.5525 321.674,-18.7885"/>
</g>
<!-- UnsignedIntegerType&#45;&gt;UInt8 -->
<g id="edge34" class="edge">
<path fill="none" stroke="#cccccc" d="M474.256,-57.9883C451.158,-49.0057 417.045,-35.7398 391.386,-25.7614"/>
<polygon fill="#cccccc" stroke="#cccccc" points="392.596,-22.4763 382.007,-22.1138 390.058,-29.0004 392.596,-22.4763"/>
</g>
<!-- _DisallowMixedSignArithmetic -->
<g id="node36" class="node">
<g id="a_node36"><a xlink:href="/v2.1/protocol/_DisallowMixedSignArithmetic/hierarchy/" target="_top">
<path fill="#999999" stroke="#999999" d="M584.709,-138C584.709,-138 429.291,-138 429.291,-138 425.624,-138 421.957,-134.333 421.957,-130.667 421.957,-130.667 421.957,-123.333 421.957,-123.333 421.957,-119.667 425.624,-116 429.291,-116 429.291,-116 584.709,-116 584.709,-116 588.376,-116 592.043,-119.667 592.043,-123.333 592.043,-123.333 592.043,-130.667 592.043,-130.667 592.043,-134.333 588.376,-138 584.709,-138"/>
<text text-anchor="middle" x="507" y="-123.4" font-family="Helvetica,sans-Serif" font-size="12.00" fill="white">_DisallowMixedSignArithmetic</text>
</a>
</g>
</g>
<!-- _DisallowMixedSignArithmetic&#45;&gt;UnsignedIntegerType -->
<g id="edge40" class="edge">
<path fill="none" stroke="#cccccc" d="M505.749,-115.988C504.864,-108.91 503.646,-99.1714 502.56,-90.4779"/>
<polygon fill="#cccccc" stroke="#cccccc" points="506.001,-89.7925 501.288,-80.3039 499.055,-90.6608 506.001,-89.7925"/>
</g>
<!-- _Incrementable&#45;&gt;ForwardIndexType -->
<g id="edge1" class="edge">
<path fill="none" stroke="#cccccc" d="M791.201,-351.466C861.735,-341.492 996.499,-322.434 1076.6,-311.108"/>
<polygon fill="#cccccc" stroke="#cccccc" points="1077.15,-314.564 1086.56,-309.698 1076.17,-307.633 1077.15,-314.564"/>
</g>
<!-- _IntegerType -->
<g id="node38" class="node">
<g id="a_node38"><a xlink:href="/v2.1/protocol/_IntegerType/hierarchy/" target="_top">
<path fill="#999999" stroke="#999999" d="M620.708,-196C620.708,-196 555.292,-196 555.292,-196 551.626,-196 547.959,-192.333 547.959,-188.667 547.959,-188.667 547.959,-181.333 547.959,-181.333 547.959,-177.667 551.626,-174 555.292,-174 555.292,-174 620.708,-174 620.708,-174 624.374,-174 628.041,-177.667 628.041,-181.333 628.041,-181.333 628.041,-188.667 628.041,-188.667 628.041,-192.333 624.374,-196 620.708,-196"/>
<text text-anchor="middle" x="588" y="-181.4" font-family="Helvetica,sans-Serif" font-size="12.00" fill="white">_IntegerType</text>
</a>
</g>
</g>
<!-- _Incrementable&#45;&gt;_IntegerType -->
<g id="edge2" class="edge">
<path fill="none" stroke="#cccccc" d="M735.649,-347.756C709.859,-319.501 637.46,-240.185 604.597,-204.183"/>
<polygon fill="#cccccc" stroke="#cccccc" points="606.827,-201.434 597.5,-196.408 601.657,-206.153 606.827,-201.434"/>
</g>
<!-- _IntegerType&#45;&gt;IntegerType -->
<g id="edge37" class="edge">
<path fill="none" stroke="#cccccc" d="M622.683,-173.988C654.723,-164.74 702.494,-150.95 737.368,-140.884"/>
<polygon fill="#cccccc" stroke="#cccccc" points="738.653,-144.155 747.29,-138.019 736.712,-137.43 738.653,-144.155"/>
</g>
<!-- _IntegerType&#45;&gt;_DisallowMixedSignArithmetic -->
<g id="edge38" class="edge">
<path fill="none" stroke="#cccccc" d="M573.519,-173.988C561.499,-165.678 544.177,-153.703 530.223,-144.055"/>
<polygon fill="#cccccc" stroke="#cccccc" points="531.845,-140.922 521.629,-138.114 527.864,-146.68 531.845,-140.922"/>
</g>
<!-- _SignedIntegerType -->
<g id="node39" class="node">
<g id="a_node39"><a xlink:href="/v2.1/protocol/_SignedIntegerType/hierarchy/" target="_top">
<path fill="#999999" stroke="#999999" d="M720.231,-138C720.231,-138 617.769,-138 617.769,-138 614.102,-138 610.436,-134.333 610.436,-130.667 610.436,-130.667 610.436,-123.333 610.436,-123.333 610.436,-119.667 614.102,-116 617.769,-116 617.769,-116 720.231,-116 720.231,-116 723.898,-116 727.564,-119.667 727.564,-123.333 727.564,-123.333 727.564,-130.667 727.564,-130.667 727.564,-134.333 723.898,-138 720.231,-138"/>
<text text-anchor="middle" x="669" y="-123.4" font-family="Helvetica,sans-Serif" font-size="12.00" fill="white">_SignedIntegerType</text>
</a>
</g>
</g>
<!-- _IntegerType&#45;&gt;_SignedIntegerType -->
<g id="edge39" class="edge">
<path fill="none" stroke="#cccccc" d="M602.481,-173.988C614.501,-165.678 631.823,-153.703 645.777,-144.055"/>
<polygon fill="#cccccc" stroke="#cccccc" points="648.136,-146.68 654.371,-138.114 644.155,-140.922 648.136,-146.68"/>
</g>
<!-- _SignedIntegerType&#45;&gt;SignedIntegerType -->
<g id="edge41" class="edge">
<path fill="none" stroke="#cccccc" d="M689.202,-115.988C706.849,-107.243 732.687,-94.4381 752.621,-84.5594"/>
<polygon fill="#cccccc" stroke="#cccccc" points="754.186,-87.6903 761.592,-80.1138 751.078,-81.4182 754.186,-87.6903"/>
</g>
</g>
</svg>
