<?xml version="1.0" encoding="UTF-8" standalone="no"?>
<!DOCTYPE svg PUBLIC "-//W3C//DTD SVG 1.1//EN"
 "http://www.w3.org/Graphics/SVG/1.1/DTD/svg11.dtd">
<!-- Generated by graphviz version 2.36.0 (20140111.2315)
 -->
<!-- Title: Float80 &#45; Type Hierarchy &#45; SwiftDoc.org Pages: 1 -->
<svg width="751pt" height="369pt"
 viewBox="0.00 0.00 751.40 369.20" xmlns="http://www.w3.org/2000/svg" xmlns:xlink="http://www.w3.org/1999/xlink">
<g id="graph0" class="graph" transform="scale(1 1) rotate(0) translate(7.2 311.6)">
<g transform="translate(0 -311.6)">
<g>
    <path fill="#666666" d="M13.846,10.832c-0.336-0.464-0.792-0.844-1.368-1.14s-1.224-0.444-1.944-0.444
        c-0.384,0-0.772,0.052-1.164,0.156C8.977,9.509,8.622,9.677,8.301,9.908c-0.32,0.232-0.58,0.52-0.78,0.864
        c-0.2,0.344-0.3,0.756-0.3,1.236c0,0.464,0.092,0.852,0.276,1.164c0.184,0.312,0.432,0.576,0.744,0.792s0.68,0.4,1.104,0.552
        c0.423,0.152,0.876,0.309,1.356,0.468c0.576,0.177,1.16,0.376,1.752,0.601c0.592,0.224,1.128,0.52,1.608,0.888
        s0.872,0.828,1.176,1.38s0.456,1.252,0.456,2.101c0,0.88-0.164,1.644-0.492,2.292c-0.328,0.647-0.765,1.184-1.308,1.607
        c-0.544,0.424-1.172,0.74-1.884,0.948s-1.444,0.312-2.196,0.312c-1.072,0-2.108-0.208-3.108-0.624
        c-1-0.415-1.828-1.031-2.484-1.848l1.848-1.56c0.4,0.592,0.936,1.071,1.608,1.439c0.672,0.368,1.399,0.552,2.184,0.552
        c0.4,0,0.8-0.056,1.2-0.168c0.4-0.111,0.764-0.288,1.092-0.527c0.328-0.24,0.596-0.54,0.804-0.9
        c0.208-0.36,0.312-0.796,0.312-1.308s-0.108-0.94-0.324-1.284c-0.216-0.344-0.508-0.636-0.876-0.876s-0.796-0.444-1.284-0.612
        c-0.488-0.168-1.004-0.34-1.548-0.516c-0.544-0.16-1.08-0.356-1.608-0.588c-0.528-0.232-1-0.528-1.416-0.889
        c-0.416-0.359-0.752-0.804-1.008-1.332c-0.256-0.527-0.384-1.184-0.384-1.968c0-0.848,0.172-1.576,0.516-2.184
        c0.344-0.608,0.792-1.112,1.344-1.512c0.552-0.4,1.176-0.692,1.872-0.876c0.696-0.184,1.396-0.276,2.1-0.276
        c0.992,0,1.92,0.176,2.784,0.528c0.864,0.352,1.56,0.824,2.088,1.416L13.846,10.832z"/>
    <path fill="#666666" d="M18.813,13.304l2.568,8.688h0.048l2.712-8.688h2.376l2.76,8.688h0.048l2.568-8.688h2.376L30.501,24.68
        h-2.352l-2.808-8.544h-0.048l-2.784,8.544h-2.352l-3.792-11.376H18.813z"/>
    <path fill="#666666" d="M38.685,9.2c0,0.416-0.147,0.76-0.44,1.032c-0.294,0.272-0.647,0.408-1.06,0.408s-0.762-0.14-1.047-0.42
        c-0.286-0.28-0.429-0.62-0.429-1.02c0-0.416,0.143-0.764,0.429-1.044c0.286-0.28,0.635-0.42,1.047-0.42s0.766,0.14,1.06,0.42
        C38.538,8.437,38.685,8.784,38.685,9.2z M38.325,24.68h-2.256V13.304h2.256V24.68z"/>
    <path fill="#666666" d="M47.613,15.152h-2.64v9.528h-2.256v-9.528h-2.256v-1.848h2.256v-2.376c0-0.672,0.076-1.292,0.228-1.86
        c0.152-0.568,0.4-1.06,0.744-1.476c0.344-0.416,0.784-0.744,1.32-0.984c0.536-0.24,1.188-0.36,1.956-0.36
        c0.544,0,1.016,0.056,1.416,0.168l-0.264,1.944c-0.176-0.048-0.352-0.088-0.528-0.12c-0.176-0.032-0.376-0.048-0.6-0.048
        c-0.432,0-0.78,0.076-1.044,0.228c-0.264,0.152-0.468,0.356-0.612,0.612s-0.24,0.548-0.288,0.876
        c-0.048,0.328-0.072,0.668-0.072,1.02v2.376h2.64V15.152z"/>
    <path fill="#666666" d="M54.909,15.152h-3.024v5.91c0,0.687,0.128,1.177,0.384,1.472c0.256,0.295,0.664,0.442,1.224,0.442
        c0.208,0,0.432-0.021,0.672-0.065c0.24-0.044,0.456-0.11,0.648-0.198l0.072,1.848c-0.272,0.096-0.572,0.172-0.9,0.229
        c-0.328,0.056-0.668,0.084-1.02,0.084c-1.072,0-1.892-0.296-2.46-0.889c-0.568-0.592-0.852-1.479-0.852-2.664v-6.168h-2.184
        v-1.848h2.184V10.04h2.232v3.264h3.024V15.152z"/>
    <path fill="#666666" d="M57.356,7.688h5.832c1.088,0,2.176,0.16,3.264,0.48c1.088,0.32,2.072,0.824,2.952,1.512
        s1.592,1.568,2.136,2.64c0.544,1.072,0.816,2.36,0.816,3.864c0,1.456-0.272,2.716-0.816,3.78s-1.256,1.943-2.136,2.64
        s-1.864,1.216-2.952,1.561c-1.088,0.344-2.176,0.516-3.264,0.516h-5.832V7.688z M59.732,22.593h2.976
        c1.024,0,1.972-0.145,2.844-0.432c0.872-0.288,1.624-0.704,2.256-1.248c0.632-0.544,1.124-1.216,1.476-2.017
        c0.352-0.8,0.528-1.704,0.528-2.712c0-1.056-0.176-1.983-0.528-2.784c-0.353-0.8-0.844-1.468-1.476-2.004
        c-0.632-0.536-1.384-0.944-2.256-1.224s-1.82-0.42-2.844-0.42h-2.976V22.593z"/>
    <path fill="#666666" d="M86.06,18.969c0,0.88-0.156,1.688-0.468,2.424c-0.312,0.736-0.744,1.372-1.296,1.908
        c-0.552,0.536-1.204,0.952-1.956,1.248c-0.752,0.296-1.56,0.443-2.424,0.443c-0.864,0-1.672-0.147-2.424-0.443
        c-0.752-0.296-1.4-0.712-1.944-1.248c-0.544-0.536-0.972-1.172-1.284-1.908c-0.312-0.735-0.468-1.544-0.468-2.424
        s0.156-1.684,0.468-2.412c0.312-0.728,0.74-1.356,1.284-1.884c0.543-0.528,1.191-0.939,1.944-1.236
        c0.752-0.296,1.56-0.444,2.424-0.444c0.864,0,1.672,0.148,2.424,0.444c0.752,0.297,1.404,0.708,1.956,1.236
        c0.552,0.527,0.984,1.156,1.296,1.884C85.904,17.285,86.06,18.089,86.06,18.969z M83.708,18.98c0-0.542-0.084-1.061-0.252-1.556
        c-0.169-0.494-0.414-0.929-0.734-1.304s-0.718-0.674-1.192-0.897s-1.015-0.335-1.625-0.335c-0.61,0-1.152,0.111-1.625,0.335
        c-0.474,0.224-0.871,0.522-1.191,0.897c-0.321,0.375-0.566,0.81-0.734,1.304C76.184,17.92,76.1,18.438,76.1,18.98
        c0,0.543,0.084,1.062,0.253,1.556c0.168,0.495,0.413,0.934,0.734,1.316c0.321,0.383,0.718,0.686,1.191,0.909
        c0.473,0.224,1.015,0.335,1.625,0.335c0.61,0,1.151-0.111,1.625-0.335s0.871-0.526,1.192-0.909s0.565-0.821,0.734-1.316
        C83.624,20.042,83.708,19.523,83.708,18.98z"/>
    <path fill="#666666" d="M96.428,16.184c-0.24-0.368-0.6-0.676-1.08-0.924s-0.992-0.372-1.536-0.372
        c-0.592,0-1.116,0.112-1.572,0.336c-0.456,0.225-0.844,0.524-1.164,0.9c-0.32,0.376-0.564,0.812-0.732,1.308
        s-0.252,1.017-0.252,1.56c0,0.545,0.084,1.064,0.252,1.561s0.412,0.933,0.732,1.308c0.32,0.376,0.712,0.677,1.176,0.9
        c0.464,0.225,0.992,0.336,1.584,0.336c0.576,0,1.1-0.111,1.572-0.336c0.472-0.224,0.86-0.528,1.164-0.912l1.512,1.368
        c-0.48,0.561-1.08,0.996-1.8,1.308c-0.72,0.312-1.536,0.468-2.448,0.468c-0.88,0-1.692-0.144-2.436-0.432
        c-0.744-0.288-1.388-0.691-1.932-1.212c-0.544-0.52-0.972-1.147-1.284-1.884s-0.468-1.561-0.468-2.473
        c0-0.896,0.152-1.711,0.456-2.447c0.304-0.736,0.728-1.368,1.272-1.896c0.543-0.527,1.188-0.936,1.932-1.224
        c0.744-0.288,1.548-0.433,2.412-0.433c0.8,0,1.596,0.16,2.388,0.48s1.419,0.784,1.884,1.392L96.428,16.184z"/>
    <path fill="#666666" d="M103.1,23.24c0,0.417-0.152,0.784-0.456,1.104c-0.304,0.32-0.688,0.479-1.152,0.479
        c-0.448,0-0.828-0.155-1.14-0.468c-0.312-0.312-0.468-0.676-0.468-1.092c0-0.432,0.152-0.804,0.456-1.116
        c0.304-0.312,0.688-0.468,1.152-0.468c0.464,0,0.848,0.152,1.152,0.456C102.947,22.44,103.1,22.808,103.1,23.24z"/>
    <path fill="#666666" d="M116.635,18.969c0,0.88-0.156,1.688-0.468,2.424c-0.312,0.736-0.744,1.372-1.296,1.908
        c-0.552,0.536-1.204,0.952-1.956,1.248c-0.752,0.296-1.56,0.443-2.424,0.443c-0.864,0-1.672-0.147-2.424-0.443
        c-0.752-0.296-1.4-0.712-1.944-1.248c-0.544-0.536-0.972-1.172-1.284-1.908c-0.312-0.735-0.468-1.544-0.468-2.424
        s0.156-1.684,0.468-2.412c0.312-0.728,0.74-1.356,1.284-1.884c0.543-0.528,1.191-0.939,1.944-1.236
        c0.752-0.296,1.56-0.444,2.424-0.444c0.864,0,1.672,0.148,2.424,0.444c0.752,0.297,1.404,0.708,1.956,1.236
        c0.552,0.527,0.984,1.156,1.296,1.884C116.479,17.285,116.635,18.089,116.635,18.969z M114.283,18.98
        c0-0.542-0.084-1.061-0.252-1.556c-0.169-0.494-0.414-0.929-0.734-1.304s-0.718-0.674-1.192-0.897s-1.015-0.335-1.625-0.335
        c-0.61,0-1.152,0.111-1.625,0.335c-0.474,0.224-0.871,0.522-1.191,0.897c-0.321,0.375-0.566,0.81-0.734,1.304
        c-0.169,0.495-0.253,1.014-0.253,1.556c0,0.543,0.084,1.062,0.253,1.556c0.168,0.495,0.413,0.934,0.734,1.316
        c0.321,0.383,0.718,0.686,1.191,0.909c0.473,0.224,1.015,0.335,1.625,0.335c0.61,0,1.151-0.111,1.625-0.335
        s0.871-0.526,1.192-0.909s0.565-0.821,0.734-1.316C114.199,20.042,114.283,19.523,114.283,18.98z"/>
    <path fill="#666666" d="M119.251,14.577c-0.016-0.48-0.04-0.904-0.072-1.272h2.136c0.032,0.288,0.056,0.62,0.072,0.996
        c0.016,0.376,0.024,0.684,0.024,0.924h0.072c0.32-0.672,0.788-1.212,1.404-1.62c0.616-0.408,1.308-0.612,2.076-0.612
        c0.352,0,0.648,0.033,0.888,0.097l-0.096,2.088c-0.32-0.08-0.664-0.12-1.032-0.12c-0.544,0-1.016,0.101-1.416,0.3
        c-0.4,0.2-0.732,0.468-0.996,0.805c-0.264,0.336-0.46,0.724-0.588,1.163c-0.128,0.44-0.192,0.9-0.192,1.381v5.976h-2.256v-8.928
        C119.275,15.449,119.267,15.056,119.251,14.577z"/>
    <path fill="#666666" d="M128.419,26.625c0.496,0.56,1.116,1.008,1.86,1.344c0.744,0.336,1.508,0.504,2.292,0.504
        c0.752,0,1.384-0.108,1.896-0.324s0.924-0.512,1.236-0.888s0.536-0.82,0.672-1.332c0.136-0.513,0.204-1.064,0.204-1.656v-1.464
        h-0.048c-0.416,0.641-0.984,1.128-1.704,1.464c-0.72,0.336-1.488,0.504-2.304,0.504c-0.864,0-1.652-0.151-2.364-0.456
        c-0.712-0.304-1.316-0.72-1.812-1.248c-0.496-0.527-0.88-1.147-1.152-1.859s-0.408-1.477-0.408-2.292
        c0-0.816,0.136-1.584,0.408-2.305c0.272-0.72,0.656-1.348,1.152-1.884c0.496-0.535,1.096-0.96,1.8-1.271
        c0.704-0.312,1.488-0.469,2.352-0.469c0.816,0,1.596,0.177,2.34,0.528c0.744,0.353,1.332,0.888,1.764,1.608h0.048v-1.824h2.184
        v10.8c0,0.832-0.104,1.628-0.312,2.388c-0.208,0.76-0.56,1.433-1.056,2.017s-1.144,1.052-1.944,1.404
        c-0.8,0.352-1.792,0.527-2.976,0.527c-0.992,0-1.988-0.18-2.988-0.54c-1-0.359-1.86-0.868-2.58-1.523L128.419,26.625z
         M129.091,18.873c0,0.527,0.084,1.031,0.253,1.512c0.168,0.479,0.417,0.904,0.746,1.271c0.329,0.369,0.726,0.664,1.192,0.889
        c0.465,0.224,0.995,0.336,1.589,0.336c0.577,0,1.107-0.104,1.589-0.312c0.481-0.207,0.891-0.491,1.228-0.852
        s0.598-0.784,0.782-1.272c0.185-0.487,0.277-1.012,0.277-1.571c0-0.544-0.093-1.057-0.277-1.536
        c-0.185-0.48-0.449-0.904-0.794-1.272c-0.345-0.367-0.755-0.66-1.228-0.876c-0.474-0.216-1-0.324-1.577-0.324
        c-0.594,0-1.124,0.108-1.589,0.324c-0.466,0.216-0.863,0.504-1.192,0.864s-0.578,0.784-0.746,1.271
        C129.175,17.812,129.091,18.329,129.091,18.873z"/>
</g>
<g><a xlink:href="/" pointer-events="all" target="_top"><polygon fill="none" points="0,0 145,0 145,35 0,35 0,0"/></a></g>

</g>


<!-- AbsoluteValuable -->
<g id="node1" class="node">
<g id="a_node1"><a xlink:href="/v2.1/protocol/AbsoluteValuable/" target="_top">
<path fill="#999999" stroke="#999999" d="M180.558,-80C180.558,-80 93.442,-80 93.442,-80 89.7753,-80 86.1086,-76.3333 86.1086,-72.6667 86.1086,-72.6667 86.1086,-65.3333 86.1086,-65.3333 86.1086,-61.6667 89.7753,-58 93.442,-58 93.442,-58 180.558,-58 180.558,-58 184.225,-58 187.891,-61.6667 187.891,-65.3333 187.891,-65.3333 187.891,-72.6667 187.891,-72.6667 187.891,-76.3333 184.225,-80 180.558,-80"/>
<text text-anchor="middle" x="137" y="-65.4" font-family="Helvetica,sans-Serif" font-size="12.00" fill="white">AbsoluteValuable</text>
</a>
</g>
</g>
<!-- Float80 -->
<g id="node5" class="node">
<g id="a_node5"><a xlink:href="/v2.1/type/Float80/" target="_top">
<polygon fill="#ee543d" stroke="#ee543d" points="340,-22 286,-22 286,-0 340,-0 340,-22"/>
<text text-anchor="middle" x="313" y="-7.4" font-family="Helvetica,sans-Serif" font-size="12.00" fill="white">Float80</text>
</a>
</g>
</g>
<!-- AbsoluteValuable&#45;&gt;Float80 -->
<g id="edge7" class="edge">
<path fill="none" stroke="#cccccc" d="M168.465,-57.9883C198.621,-48.3932 244.137,-33.9108 276.013,-23.7685"/>
<polygon fill="#cccccc" stroke="#cccccc" points="277.379,-27.0071 285.847,-20.6397 275.256,-20.3366 277.379,-27.0071"/>
</g>
<!-- Comparable -->
<g id="node2" class="node">
<g id="a_node2"><a xlink:href="/v2.1/protocol/Comparable/" target="_top">
<path fill="#999999" stroke="#999999" d="M242.191,-196C242.191,-196 181.809,-196 181.809,-196 178.142,-196 174.475,-192.333 174.475,-188.667 174.475,-188.667 174.475,-181.333 174.475,-181.333 174.475,-177.667 178.142,-174 181.809,-174 181.809,-174 242.191,-174 242.191,-174 245.858,-174 249.525,-177.667 249.525,-181.333 249.525,-181.333 249.525,-188.667 249.525,-188.667 249.525,-192.333 245.858,-196 242.191,-196"/>
<text text-anchor="middle" x="212" y="-181.4" font-family="Helvetica,sans-Serif" font-size="12.00" fill="white">Comparable</text>
</a>
</g>
</g>
<!-- Comparable&#45;&gt;Float80 -->
<g id="edge4" class="edge">
<path fill="none" stroke="#cccccc" d="M214.935,-173.963C219.107,-160.375 227.433,-135.575 238,-116 255.409,-83.7494 281.446,-49.9666 297.813,-29.961"/>
<polygon fill="#cccccc" stroke="#cccccc" points="300.696,-31.9666 304.384,-22.0343 295.307,-27.499 300.696,-31.9666"/>
</g>
<!-- SignedNumberType -->
<g id="node9" class="node">
<g id="a_node9"><a xlink:href="/v2.1/protocol/SignedNumberType/" target="_top">
<path fill="#999999" stroke="#999999" d="M183.716,-138C183.716,-138 82.2835,-138 82.2835,-138 78.6169,-138 74.9502,-134.333 74.9502,-130.667 74.9502,-130.667 74.9502,-123.333 74.9502,-123.333 74.9502,-119.667 78.6169,-116 82.2835,-116 82.2835,-116 183.716,-116 183.716,-116 187.383,-116 191.05,-119.667 191.05,-123.333 191.05,-123.333 191.05,-130.667 191.05,-130.667 191.05,-134.333 187.383,-138 183.716,-138"/>
<text text-anchor="middle" x="133" y="-123.4" font-family="Helvetica,sans-Serif" font-size="12.00" fill="white">SignedNumberType</text>
</a>
</g>
</g>
<!-- Comparable&#45;&gt;SignedNumberType -->
<g id="edge12" class="edge">
<path fill="none" stroke="#cccccc" d="M197.876,-173.988C186.153,-165.678 169.259,-153.703 155.65,-144.055"/>
<polygon fill="#cccccc" stroke="#cccccc" points="157.45,-141.042 147.268,-138.114 153.402,-146.752 157.45,-141.042"/>
</g>
<!-- Strideable -->
<g id="node10" class="node">
<g id="a_node10"><a xlink:href="/v2.1/protocol/Strideable/" target="_top">
<path fill="#999999" stroke="#999999" d="M303.693,-138C303.693,-138 254.307,-138 254.307,-138 250.64,-138 246.974,-134.333 246.974,-130.667 246.974,-130.667 246.974,-123.333 246.974,-123.333 246.974,-119.667 250.64,-116 254.307,-116 254.307,-116 303.693,-116 303.693,-116 307.36,-116 311.026,-119.667 311.026,-123.333 311.026,-123.333 311.026,-130.667 311.026,-130.667 311.026,-134.333 307.36,-138 303.693,-138"/>
<text text-anchor="middle" x="279" y="-123.4" font-family="Helvetica,sans-Serif" font-size="12.00" fill="white">Strideable</text>
</a>
</g>
</g>
<!-- Comparable&#45;&gt;Strideable -->
<g id="edge14" class="edge">
<path fill="none" stroke="#cccccc" d="M223.978,-173.988C233.671,-165.887 247.531,-154.303 258.915,-144.787"/>
<polygon fill="#cccccc" stroke="#cccccc" points="261.244,-147.403 266.672,-138.304 256.755,-142.032 261.244,-147.403"/>
</g>
<!-- CustomStringConvertible -->
<g id="node3" class="node">
<g id="a_node3"><a xlink:href="/v2.1/protocol/CustomStringConvertible/" target="_top">
<path fill="#999999" stroke="#999999" d="M581.208,-80C581.208,-80 452.792,-80 452.792,-80 449.126,-80 445.459,-76.3333 445.459,-72.6667 445.459,-72.6667 445.459,-65.3333 445.459,-65.3333 445.459,-61.6667 449.126,-58 452.792,-58 452.792,-58 581.208,-58 581.208,-58 584.874,-58 588.541,-61.6667 588.541,-65.3333 588.541,-65.3333 588.541,-72.6667 588.541,-72.6667 588.541,-76.3333 584.874,-80 581.208,-80"/>
<text text-anchor="middle" x="517" y="-65.4" font-family="Helvetica,sans-Serif" font-size="12.00" fill="white">CustomStringConvertible</text>
</a>
</g>
</g>
<!-- CustomStringConvertible&#45;&gt;Float80 -->
<g id="edge1" class="edge">
<path fill="none" stroke="#cccccc" d="M480.529,-57.9883C443.655,-47.866 386.967,-32.3046 349.929,-22.1375"/>
<polygon fill="#cccccc" stroke="#cccccc" points="350.607,-18.694 340.037,-19.4219 348.754,-25.4443 350.607,-18.694"/>
</g>
<!-- Equatable -->
<g id="node4" class="node">
<g id="a_node4"><a xlink:href="/v2.1/protocol/Equatable/" target="_top">
<path fill="#999999" stroke="#999999" d="M390.702,-254C390.702,-254 341.298,-254 341.298,-254 337.632,-254 333.965,-250.333 333.965,-246.667 333.965,-246.667 333.965,-239.333 333.965,-239.333 333.965,-235.667 337.632,-232 341.298,-232 341.298,-232 390.702,-232 390.702,-232 394.368,-232 398.035,-235.667 398.035,-239.333 398.035,-239.333 398.035,-246.667 398.035,-246.667 398.035,-250.333 394.368,-254 390.702,-254"/>
<text text-anchor="middle" x="366" y="-239.4" font-family="Helvetica,sans-Serif" font-size="12.00" fill="white">Equatable</text>
</a>
</g>
</g>
<!-- Equatable&#45;&gt;Comparable -->
<g id="edge9" class="edge">
<path fill="none" stroke="#cccccc" d="M338.468,-231.988C313.58,-222.938 276.735,-209.54 249.226,-199.537"/>
<polygon fill="#cccccc" stroke="#cccccc" points="250.147,-196.147 239.553,-196.019 247.755,-202.726 250.147,-196.147"/>
</g>
<!-- Equatable&#45;&gt;Float80 -->
<g id="edge5" class="edge">
<path fill="none" stroke="#cccccc" d="M372.696,-231.68C385.935,-209.918 412.936,-157.878 398,-116 385.206,-80.1289 354.141,-47.6985 333.325,-28.9185"/>
<polygon fill="#cccccc" stroke="#cccccc" points="335.471,-26.1452 325.644,-22.1852 330.856,-31.4091 335.471,-26.1452"/>
</g>
<!-- Hashable -->
<g id="node7" class="node">
<g id="a_node7"><a xlink:href="/v2.1/protocol/Hashable/" target="_top">
<path fill="#999999" stroke="#999999" d="M381.694,-138C381.694,-138 336.306,-138 336.306,-138 332.639,-138 328.973,-134.333 328.973,-130.667 328.973,-130.667 328.973,-123.333 328.973,-123.333 328.973,-119.667 332.639,-116 336.306,-116 336.306,-116 381.694,-116 381.694,-116 385.361,-116 389.027,-119.667 389.027,-123.333 389.027,-123.333 389.027,-130.667 389.027,-130.667 389.027,-134.333 385.361,-138 381.694,-138"/>
<text text-anchor="middle" x="359" y="-123.4" font-family="Helvetica,sans-Serif" font-size="12.00" fill="white">Hashable</text>
</a>
</g>
</g>
<!-- Equatable&#45;&gt;Hashable -->
<g id="edge10" class="edge">
<path fill="none" stroke="#cccccc" d="M365.379,-231.883C364.23,-213.17 361.753,-172.827 360.246,-148.287"/>
<polygon fill="#cccccc" stroke="#cccccc" points="363.736,-148.025 359.63,-138.258 356.749,-148.454 363.736,-148.025"/>
</g>
<!-- FloatLiteralConvertible -->
<g id="node6" class="node">
<g id="a_node6"><a xlink:href="/v2.1/protocol/FloatLiteralConvertible/" target="_top">
<path fill="#999999" stroke="#999999" d="M729.711,-80C729.711,-80 614.289,-80 614.289,-80 610.623,-80 606.956,-76.3333 606.956,-72.6667 606.956,-72.6667 606.956,-65.3333 606.956,-65.3333 606.956,-61.6667 610.623,-58 614.289,-58 614.289,-58 729.711,-58 729.711,-58 733.377,-58 737.044,-61.6667 737.044,-65.3333 737.044,-65.3333 737.044,-72.6667 737.044,-72.6667 737.044,-76.3333 733.377,-80 729.711,-80"/>
<text text-anchor="middle" x="672" y="-65.4" font-family="Helvetica,sans-Serif" font-size="12.00" fill="white">FloatLiteralConvertible</text>
</a>
</g>
</g>
<!-- FloatLiteralConvertible&#45;&gt;Float80 -->
<g id="edge3" class="edge">
<path fill="none" stroke="#cccccc" d="M607.818,-57.9883C532.701,-46.2709 410.86,-27.265 350.023,-17.7752"/>
<polygon fill="#cccccc" stroke="#cccccc" points="350.518,-14.3102 340.098,-16.227 349.439,-21.2265 350.518,-14.3102"/>
</g>
<!-- Hashable&#45;&gt;Float80 -->
<g id="edge6" class="edge">
<path fill="none" stroke="#cccccc" d="M354.918,-115.883C347.299,-97.0017 330.794,-56.098 320.92,-31.6272"/>
<polygon fill="#cccccc" stroke="#cccccc" points="324.127,-30.2218 317.139,-22.2579 317.635,-32.8412 324.127,-30.2218"/>
</g>
<!-- IntegerLiteralConvertible -->
<g id="node8" class="node">
<g id="a_node8"><a xlink:href="/v2.1/protocol/IntegerLiteralConvertible/" target="_top">
<path fill="#999999" stroke="#999999" d="M132.722,-196C132.722,-196 7.27758,-196 7.27758,-196 3.61091,-196 -0.055756,-192.333 -0.055756,-188.667 -0.055756,-188.667 -0.055756,-181.333 -0.055756,-181.333 -0.055756,-177.667 3.61091,-174 7.27758,-174 7.27758,-174 132.722,-174 132.722,-174 136.389,-174 140.056,-177.667 140.056,-181.333 140.056,-181.333 140.056,-188.667 140.056,-188.667 140.056,-192.333 136.389,-196 132.722,-196"/>
<text text-anchor="middle" x="70" y="-181.4" font-family="Helvetica,sans-Serif" font-size="12.00" fill="white">IntegerLiteralConvertible</text>
</a>
</g>
</g>
<!-- IntegerLiteralConvertible&#45;&gt;Float80 -->
<g id="edge2" class="edge">
<path fill="none" stroke="#cccccc" d="M66.6364,-173.734C59.4733,-149.685 45.786,-89.3727 77,-58 104.358,-30.5031 216.366,-18.6869 275.704,-14.2754"/>
<polygon fill="#cccccc" stroke="#cccccc" points="276.066,-17.7586 285.793,-13.5591 275.57,-10.7762 276.066,-17.7586"/>
</g>
<!-- IntegerLiteralConvertible&#45;&gt;SignedNumberType -->
<g id="edge13" class="edge">
<path fill="none" stroke="#cccccc" d="M81.2631,-173.988C90.2883,-165.966 103.157,-154.527 113.802,-145.065"/>
<polygon fill="#cccccc" stroke="#cccccc" points="116.259,-147.563 121.408,-138.304 111.609,-142.332 116.259,-147.563"/>
</g>
<!-- SignedNumberType&#45;&gt;AbsoluteValuable -->
<g id="edge11" class="edge">
<path fill="none" stroke="#cccccc" d="M133.715,-115.988C134.221,-108.91 134.916,-99.1714 135.537,-90.4779"/>
<polygon fill="#cccccc" stroke="#cccccc" points="139.043,-90.5279 136.264,-80.3039 132.06,-90.0291 139.043,-90.5279"/>
</g>
<!-- Strideable&#45;&gt;Float80 -->
<g id="edge8" class="edge">
<path fill="none" stroke="#cccccc" d="M282.017,-115.883C287.623,-97.086 299.739,-56.4627 307.048,-31.9559"/>
<polygon fill="#cccccc" stroke="#cccccc" points="310.437,-32.8412 309.941,-22.2579 303.728,-30.8405 310.437,-32.8412"/>
</g>
<!-- _Strideable -->
<g id="node11" class="node">
<g id="a_node11"><a xlink:href="/v2.1/protocol/_Strideable/" target="_top">
<path fill="#999999" stroke="#999999" d="M330.7,-196C330.7,-196 275.3,-196 275.3,-196 271.634,-196 267.967,-192.333 267.967,-188.667 267.967,-188.667 267.967,-181.333 267.967,-181.333 267.967,-177.667 271.634,-174 275.3,-174 275.3,-174 330.7,-174 330.7,-174 334.366,-174 338.033,-177.667 338.033,-181.333 338.033,-181.333 338.033,-188.667 338.033,-188.667 338.033,-192.333 334.366,-196 330.7,-196"/>
<text text-anchor="middle" x="303" y="-181.4" font-family="Helvetica,sans-Serif" font-size="12.00" fill="white">_Strideable</text>
</a>
</g>
</g>
<!-- _Strideable&#45;&gt;Strideable -->
<g id="edge15" class="edge">
<path fill="none" stroke="#cccccc" d="M298.709,-173.988C295.575,-166.674 291.223,-156.519 287.405,-147.612"/>
<polygon fill="#cccccc" stroke="#cccccc" points="290.572,-146.117 283.416,-138.304 284.138,-148.874 290.572,-146.117"/>
</g>
</g>
</svg>
