<?xml version="1.0" encoding="UTF-8" standalone="no"?>
<!DOCTYPE svg PUBLIC "-//W3C//DTD SVG 1.1//EN"
 "http://www.w3.org/Graphics/SVG/1.1/DTD/svg11.dtd">
<!-- Generated by graphviz version 2.36.0 (20140111.2315)
 -->
<!-- Title: _ForwardIndexType &#45; Type Hierarchy &#45; SwiftDoc.org Pages: 1 -->
<svg width="2338pt" height="601pt"
 viewBox="0.00 0.00 2338.40 601.20" xmlns="http://www.w3.org/2000/svg" xmlns:xlink="http://www.w3.org/1999/xlink">
<g id="graph0" class="graph" transform="scale(1 1) rotate(0) translate(7.2 543.6)">
<g transform="translate(0 -543.6)">
<g>
    <path fill="#666666" d="M13.846,10.832c-0.336-0.464-0.792-0.844-1.368-1.14s-1.224-0.444-1.944-0.444
        c-0.384,0-0.772,0.052-1.164,0.156C8.977,9.509,8.622,9.677,8.301,9.908c-0.32,0.232-0.58,0.52-0.78,0.864
        c-0.2,0.344-0.3,0.756-0.3,1.236c0,0.464,0.092,0.852,0.276,1.164c0.184,0.312,0.432,0.576,0.744,0.792s0.68,0.4,1.104,0.552
        c0.423,0.152,0.876,0.309,1.356,0.468c0.576,0.177,1.16,0.376,1.752,0.601c0.592,0.224,1.128,0.52,1.608,0.888
        s0.872,0.828,1.176,1.38s0.456,1.252,0.456,2.101c0,0.88-0.164,1.644-0.492,2.292c-0.328,0.647-0.765,1.184-1.308,1.607
        c-0.544,0.424-1.172,0.74-1.884,0.948s-1.444,0.312-2.196,0.312c-1.072,0-2.108-0.208-3.108-0.624
        c-1-0.415-1.828-1.031-2.484-1.848l1.848-1.56c0.4,0.592,0.936,1.071,1.608,1.439c0.672,0.368,1.399,0.552,2.184,0.552
        c0.4,0,0.8-0.056,1.2-0.168c0.4-0.111,0.764-0.288,1.092-0.527c0.328-0.24,0.596-0.54,0.804-0.9
        c0.208-0.36,0.312-0.796,0.312-1.308s-0.108-0.94-0.324-1.284c-0.216-0.344-0.508-0.636-0.876-0.876s-0.796-0.444-1.284-0.612
        c-0.488-0.168-1.004-0.34-1.548-0.516c-0.544-0.16-1.08-0.356-1.608-0.588c-0.528-0.232-1-0.528-1.416-0.889
        c-0.416-0.359-0.752-0.804-1.008-1.332c-0.256-0.527-0.384-1.184-0.384-1.968c0-0.848,0.172-1.576,0.516-2.184
        c0.344-0.608,0.792-1.112,1.344-1.512c0.552-0.4,1.176-0.692,1.872-0.876c0.696-0.184,1.396-0.276,2.1-0.276
        c0.992,0,1.92,0.176,2.784,0.528c0.864,0.352,1.56,0.824,2.088,1.416L13.846,10.832z"/>
    <path fill="#666666" d="M18.813,13.304l2.568,8.688h0.048l2.712-8.688h2.376l2.76,8.688h0.048l2.568-8.688h2.376L30.501,24.68
        h-2.352l-2.808-8.544h-0.048l-2.784,8.544h-2.352l-3.792-11.376H18.813z"/>
    <path fill="#666666" d="M38.685,9.2c0,0.416-0.147,0.76-0.44,1.032c-0.294,0.272-0.647,0.408-1.06,0.408s-0.762-0.14-1.047-0.42
        c-0.286-0.28-0.429-0.62-0.429-1.02c0-0.416,0.143-0.764,0.429-1.044c0.286-0.28,0.635-0.42,1.047-0.42s0.766,0.14,1.06,0.42
        C38.538,8.437,38.685,8.784,38.685,9.2z M38.325,24.68h-2.256V13.304h2.256V24.68z"/>
    <path fill="#666666" d="M47.613,15.152h-2.64v9.528h-2.256v-9.528h-2.256v-1.848h2.256v-2.376c0-0.672,0.076-1.292,0.228-1.86
        c0.152-0.568,0.4-1.06,0.744-1.476c0.344-0.416,0.784-0.744,1.32-0.984c0.536-0.24,1.188-0.36,1.956-0.36
        c0.544,0,1.016,0.056,1.416,0.168l-0.264,1.944c-0.176-0.048-0.352-0.088-0.528-0.12c-0.176-0.032-0.376-0.048-0.6-0.048
        c-0.432,0-0.78,0.076-1.044,0.228c-0.264,0.152-0.468,0.356-0.612,0.612s-0.24,0.548-0.288,0.876
        c-0.048,0.328-0.072,0.668-0.072,1.02v2.376h2.64V15.152z"/>
    <path fill="#666666" d="M54.909,15.152h-3.024v5.91c0,0.687,0.128,1.177,0.384,1.472c0.256,0.295,0.664,0.442,1.224,0.442
        c0.208,0,0.432-0.021,0.672-0.065c0.24-0.044,0.456-0.11,0.648-0.198l0.072,1.848c-0.272,0.096-0.572,0.172-0.9,0.229
        c-0.328,0.056-0.668,0.084-1.02,0.084c-1.072,0-1.892-0.296-2.46-0.889c-0.568-0.592-0.852-1.479-0.852-2.664v-6.168h-2.184
        v-1.848h2.184V10.04h2.232v3.264h3.024V15.152z"/>
    <path fill="#666666" d="M57.356,7.688h5.832c1.088,0,2.176,0.16,3.264,0.48c1.088,0.32,2.072,0.824,2.952,1.512
        s1.592,1.568,2.136,2.64c0.544,1.072,0.816,2.36,0.816,3.864c0,1.456-0.272,2.716-0.816,3.78s-1.256,1.943-2.136,2.64
        s-1.864,1.216-2.952,1.561c-1.088,0.344-2.176,0.516-3.264,0.516h-5.832V7.688z M59.732,22.593h2.976
        c1.024,0,1.972-0.145,2.844-0.432c0.872-0.288,1.624-0.704,2.256-1.248c0.632-0.544,1.124-1.216,1.476-2.017
        c0.352-0.8,0.528-1.704,0.528-2.712c0-1.056-0.176-1.983-0.528-2.784c-0.353-0.8-0.844-1.468-1.476-2.004
        c-0.632-0.536-1.384-0.944-2.256-1.224s-1.82-0.42-2.844-0.42h-2.976V22.593z"/>
    <path fill="#666666" d="M86.06,18.969c0,0.88-0.156,1.688-0.468,2.424c-0.312,0.736-0.744,1.372-1.296,1.908
        c-0.552,0.536-1.204,0.952-1.956,1.248c-0.752,0.296-1.56,0.443-2.424,0.443c-0.864,0-1.672-0.147-2.424-0.443
        c-0.752-0.296-1.4-0.712-1.944-1.248c-0.544-0.536-0.972-1.172-1.284-1.908c-0.312-0.735-0.468-1.544-0.468-2.424
        s0.156-1.684,0.468-2.412c0.312-0.728,0.74-1.356,1.284-1.884c0.543-0.528,1.191-0.939,1.944-1.236
        c0.752-0.296,1.56-0.444,2.424-0.444c0.864,0,1.672,0.148,2.424,0.444c0.752,0.297,1.404,0.708,1.956,1.236
        c0.552,0.527,0.984,1.156,1.296,1.884C85.904,17.285,86.06,18.089,86.06,18.969z M83.708,18.98c0-0.542-0.084-1.061-0.252-1.556
        c-0.169-0.494-0.414-0.929-0.734-1.304s-0.718-0.674-1.192-0.897s-1.015-0.335-1.625-0.335c-0.61,0-1.152,0.111-1.625,0.335
        c-0.474,0.224-0.871,0.522-1.191,0.897c-0.321,0.375-0.566,0.81-0.734,1.304C76.184,17.92,76.1,18.438,76.1,18.98
        c0,0.543,0.084,1.062,0.253,1.556c0.168,0.495,0.413,0.934,0.734,1.316c0.321,0.383,0.718,0.686,1.191,0.909
        c0.473,0.224,1.015,0.335,1.625,0.335c0.61,0,1.151-0.111,1.625-0.335s0.871-0.526,1.192-0.909s0.565-0.821,0.734-1.316
        C83.624,20.042,83.708,19.523,83.708,18.98z"/>
    <path fill="#666666" d="M96.428,16.184c-0.24-0.368-0.6-0.676-1.08-0.924s-0.992-0.372-1.536-0.372
        c-0.592,0-1.116,0.112-1.572,0.336c-0.456,0.225-0.844,0.524-1.164,0.9c-0.32,0.376-0.564,0.812-0.732,1.308
        s-0.252,1.017-0.252,1.56c0,0.545,0.084,1.064,0.252,1.561s0.412,0.933,0.732,1.308c0.32,0.376,0.712,0.677,1.176,0.9
        c0.464,0.225,0.992,0.336,1.584,0.336c0.576,0,1.1-0.111,1.572-0.336c0.472-0.224,0.86-0.528,1.164-0.912l1.512,1.368
        c-0.48,0.561-1.08,0.996-1.8,1.308c-0.72,0.312-1.536,0.468-2.448,0.468c-0.88,0-1.692-0.144-2.436-0.432
        c-0.744-0.288-1.388-0.691-1.932-1.212c-0.544-0.52-0.972-1.147-1.284-1.884s-0.468-1.561-0.468-2.473
        c0-0.896,0.152-1.711,0.456-2.447c0.304-0.736,0.728-1.368,1.272-1.896c0.543-0.527,1.188-0.936,1.932-1.224
        c0.744-0.288,1.548-0.433,2.412-0.433c0.8,0,1.596,0.16,2.388,0.48s1.419,0.784,1.884,1.392L96.428,16.184z"/>
    <path fill="#666666" d="M103.1,23.24c0,0.417-0.152,0.784-0.456,1.104c-0.304,0.32-0.688,0.479-1.152,0.479
        c-0.448,0-0.828-0.155-1.14-0.468c-0.312-0.312-0.468-0.676-0.468-1.092c0-0.432,0.152-0.804,0.456-1.116
        c0.304-0.312,0.688-0.468,1.152-0.468c0.464,0,0.848,0.152,1.152,0.456C102.947,22.44,103.1,22.808,103.1,23.24z"/>
    <path fill="#666666" d="M116.635,18.969c0,0.88-0.156,1.688-0.468,2.424c-0.312,0.736-0.744,1.372-1.296,1.908
        c-0.552,0.536-1.204,0.952-1.956,1.248c-0.752,0.296-1.56,0.443-2.424,0.443c-0.864,0-1.672-0.147-2.424-0.443
        c-0.752-0.296-1.4-0.712-1.944-1.248c-0.544-0.536-0.972-1.172-1.284-1.908c-0.312-0.735-0.468-1.544-0.468-2.424
        s0.156-1.684,0.468-2.412c0.312-0.728,0.74-1.356,1.284-1.884c0.543-0.528,1.191-0.939,1.944-1.236
        c0.752-0.296,1.56-0.444,2.424-0.444c0.864,0,1.672,0.148,2.424,0.444c0.752,0.297,1.404,0.708,1.956,1.236
        c0.552,0.527,0.984,1.156,1.296,1.884C116.479,17.285,116.635,18.089,116.635,18.969z M114.283,18.98
        c0-0.542-0.084-1.061-0.252-1.556c-0.169-0.494-0.414-0.929-0.734-1.304s-0.718-0.674-1.192-0.897s-1.015-0.335-1.625-0.335
        c-0.61,0-1.152,0.111-1.625,0.335c-0.474,0.224-0.871,0.522-1.191,0.897c-0.321,0.375-0.566,0.81-0.734,1.304
        c-0.169,0.495-0.253,1.014-0.253,1.556c0,0.543,0.084,1.062,0.253,1.556c0.168,0.495,0.413,0.934,0.734,1.316
        c0.321,0.383,0.718,0.686,1.191,0.909c0.473,0.224,1.015,0.335,1.625,0.335c0.61,0,1.151-0.111,1.625-0.335
        s0.871-0.526,1.192-0.909s0.565-0.821,0.734-1.316C114.199,20.042,114.283,19.523,114.283,18.98z"/>
    <path fill="#666666" d="M119.251,14.577c-0.016-0.48-0.04-0.904-0.072-1.272h2.136c0.032,0.288,0.056,0.62,0.072,0.996
        c0.016,0.376,0.024,0.684,0.024,0.924h0.072c0.32-0.672,0.788-1.212,1.404-1.62c0.616-0.408,1.308-0.612,2.076-0.612
        c0.352,0,0.648,0.033,0.888,0.097l-0.096,2.088c-0.32-0.08-0.664-0.12-1.032-0.12c-0.544,0-1.016,0.101-1.416,0.3
        c-0.4,0.2-0.732,0.468-0.996,0.805c-0.264,0.336-0.46,0.724-0.588,1.163c-0.128,0.44-0.192,0.9-0.192,1.381v5.976h-2.256v-8.928
        C119.275,15.449,119.267,15.056,119.251,14.577z"/>
    <path fill="#666666" d="M128.419,26.625c0.496,0.56,1.116,1.008,1.86,1.344c0.744,0.336,1.508,0.504,2.292,0.504
        c0.752,0,1.384-0.108,1.896-0.324s0.924-0.512,1.236-0.888s0.536-0.82,0.672-1.332c0.136-0.513,0.204-1.064,0.204-1.656v-1.464
        h-0.048c-0.416,0.641-0.984,1.128-1.704,1.464c-0.72,0.336-1.488,0.504-2.304,0.504c-0.864,0-1.652-0.151-2.364-0.456
        c-0.712-0.304-1.316-0.72-1.812-1.248c-0.496-0.527-0.88-1.147-1.152-1.859s-0.408-1.477-0.408-2.292
        c0-0.816,0.136-1.584,0.408-2.305c0.272-0.72,0.656-1.348,1.152-1.884c0.496-0.535,1.096-0.96,1.8-1.271
        c0.704-0.312,1.488-0.469,2.352-0.469c0.816,0,1.596,0.177,2.34,0.528c0.744,0.353,1.332,0.888,1.764,1.608h0.048v-1.824h2.184
        v10.8c0,0.832-0.104,1.628-0.312,2.388c-0.208,0.76-0.56,1.433-1.056,2.017s-1.144,1.052-1.944,1.404
        c-0.8,0.352-1.792,0.527-2.976,0.527c-0.992,0-1.988-0.18-2.988-0.54c-1-0.359-1.86-0.868-2.58-1.523L128.419,26.625z
         M129.091,18.873c0,0.527,0.084,1.031,0.253,1.512c0.168,0.479,0.417,0.904,0.746,1.271c0.329,0.369,0.726,0.664,1.192,0.889
        c0.465,0.224,0.995,0.336,1.589,0.336c0.577,0,1.107-0.104,1.589-0.312c0.481-0.207,0.891-0.491,1.228-0.852
        s0.598-0.784,0.782-1.272c0.185-0.487,0.277-1.012,0.277-1.571c0-0.544-0.093-1.057-0.277-1.536
        c-0.185-0.48-0.449-0.904-0.794-1.272c-0.345-0.367-0.755-0.66-1.228-0.876c-0.474-0.216-1-0.324-1.577-0.324
        c-0.594,0-1.124,0.108-1.589,0.324c-0.466,0.216-0.863,0.504-1.192,0.864s-0.578,0.784-0.746,1.271
        C129.175,17.812,129.091,18.329,129.091,18.873z"/>
</g>
<g><a xlink:href="/" pointer-events="all" target="_top"><polygon fill="none" points="0,0 145,0 145,35 0,35 0,0"/></a></g>

</g>


<!-- BidirectionalIndexType -->
<g id="node1" class="node">
<g id="a_node1"><a xlink:href="/v1.2/protocol/BidirectionalIndexType/hierarchy/" target="_top">
<path fill="#999999" stroke="#999999" d="M738.725,-254C738.725,-254 623.275,-254 623.275,-254 619.608,-254 615.941,-250.333 615.941,-246.667 615.941,-246.667 615.941,-239.333 615.941,-239.333 615.941,-235.667 619.608,-232 623.275,-232 623.275,-232 738.725,-232 738.725,-232 742.392,-232 746.059,-235.667 746.059,-239.333 746.059,-239.333 746.059,-246.667 746.059,-246.667 746.059,-250.333 742.392,-254 738.725,-254"/>
<text text-anchor="middle" x="681" y="-239.4" font-family="Helvetica,sans-Serif" font-size="12.00" fill="white">BidirectionalIndexType</text>
</a>
</g>
</g>
<!-- RandomAccessIndexType -->
<g id="node13" class="node">
<g id="a_node13"><a xlink:href="/v1.2/protocol/RandomAccessIndexType/hierarchy/" target="_top">
<path fill="#999999" stroke="#999999" d="M1245.23,-196C1245.23,-196 1110.77,-196 1110.77,-196 1107.11,-196 1103.44,-192.333 1103.44,-188.667 1103.44,-188.667 1103.44,-181.333 1103.44,-181.333 1103.44,-177.667 1107.11,-174 1110.77,-174 1110.77,-174 1245.23,-174 1245.23,-174 1248.89,-174 1252.56,-177.667 1252.56,-181.333 1252.56,-181.333 1252.56,-188.667 1252.56,-188.667 1252.56,-192.333 1248.89,-196 1245.23,-196"/>
<text text-anchor="middle" x="1178" y="-181.4" font-family="Helvetica,sans-Serif" font-size="12.00" fill="white">RandomAccessIndexType</text>
</a>
</g>
</g>
<!-- BidirectionalIndexType&#45;&gt;RandomAccessIndexType -->
<g id="edge8" class="edge">
<path fill="none" stroke="#cccccc" d="M746.229,-234.65C835.253,-224.619 994.934,-206.627 1093.17,-195.559"/>
<polygon fill="#cccccc" stroke="#cccccc" points="1093.81,-199.008 1103.36,-194.41 1093.03,-192.052 1093.81,-199.008"/>
</g>
<!-- ReverseBidirectionalIndex -->
<g id="node14" class="node">
<g id="a_node14"><a xlink:href="/v1.2/type/ReverseBidirectionalIndex/hierarchy/" target="_top">
<polygon fill="#999999" stroke="#999999" points="938.554,-22 789.446,-22 789.446,-0 938.554,-0 938.554,-22"/>
<text text-anchor="middle" x="864" y="-7.4" font-family="Helvetica,sans-Serif" font-size="12.00" fill="white">ReverseBidirectionalIndex</text>
</a>
</g>
</g>
<!-- BidirectionalIndexType&#45;&gt;ReverseBidirectionalIndex -->
<g id="edge9" class="edge">
<path fill="none" stroke="#cccccc" d="M689.099,-231.82C717.562,-196.047 813.242,-75.7942 849.714,-29.9551"/>
<polygon fill="#cccccc" stroke="#cccccc" points="852.507,-32.0665 855.994,-22.062 847.029,-27.7081 852.507,-32.0665"/>
</g>
<!-- String.Index -->
<g id="node18" class="node">
<g id="a_node18"><a xlink:href="/v1.2/type/String.Index/hierarchy/" target="_top">
<polygon fill="#999999" stroke="#999999" points="573.028,-22 498.972,-22 498.972,-0 573.028,-0 573.028,-22"/>
<text text-anchor="middle" x="536" y="-7.4" font-family="Helvetica,sans-Serif" font-size="12.00" fill="white">String.Index</text>
</a>
</g>
</g>
<!-- BidirectionalIndexType&#45;&gt;String.Index -->
<g id="edge10" class="edge">
<path fill="none" stroke="#cccccc" d="M674.582,-231.82C652.124,-196.196 576.848,-76.7927 547.682,-30.5307"/>
<polygon fill="#cccccc" stroke="#cccccc" points="550.637,-28.6547 542.343,-22.062 544.716,-32.3879 550.637,-28.6547"/>
</g>
<!-- String.UnicodeScalarView.Index -->
<g id="node21" class="node">
<g id="a_node21"><a xlink:href="/v1.2/type/String.UnicodeScalarView.Index/hierarchy/" target="_top">
<polygon fill="#999999" stroke="#999999" points="770.917,-22 591.083,-22 591.083,-0 770.917,-0 770.917,-22"/>
<text text-anchor="middle" x="681" y="-7.4" font-family="Helvetica,sans-Serif" font-size="12.00" fill="white">String.UnicodeScalarView.Index</text>
</a>
</g>
</g>
<!-- BidirectionalIndexType&#45;&gt;String.UnicodeScalarView.Index -->
<g id="edge11" class="edge">
<path fill="none" stroke="#cccccc" d="M681,-231.82C681,-196.642 681,-79.7709 681,-32.3033"/>
<polygon fill="#cccccc" stroke="#cccccc" points="684.5,-32.062 681,-22.062 677.5,-32.0621 684.5,-32.062"/>
</g>
<!-- Bit -->
<g id="node2" class="node">
<g id="a_node2"><a xlink:href="/v1.2/type/Bit/hierarchy/" target="_top">
<polygon fill="#999999" stroke="#999999" points="2138,-22 2084,-22 2084,-0 2138,-0 2138,-22"/>
<text text-anchor="middle" x="2111" y="-7.4" font-family="Helvetica,sans-Serif" font-size="12.00" fill="white">Bit</text>
</a>
</g>
</g>
<!-- DictionaryIndex -->
<g id="node3" class="node">
<g id="a_node3"><a xlink:href="/v1.2/type/DictionaryIndex/hierarchy/" target="_top">
<polygon fill="#999999" stroke="#999999" points="481.03,-22 388.97,-22 388.97,-0 481.03,-0 481.03,-22"/>
<text text-anchor="middle" x="435" y="-7.4" font-family="Helvetica,sans-Serif" font-size="12.00" fill="white">DictionaryIndex</text>
</a>
</g>
</g>
<!-- Equatable -->
<g id="node4" class="node">
<g id="a_node4"><a xlink:href="/v1.2/protocol/Equatable/hierarchy/" target="_top">
<path fill="#999999" stroke="#999999" d="M581.702,-486C581.702,-486 532.298,-486 532.298,-486 528.632,-486 524.965,-482.333 524.965,-478.667 524.965,-478.667 524.965,-471.333 524.965,-471.333 524.965,-467.667 528.632,-464 532.298,-464 532.298,-464 581.702,-464 581.702,-464 585.368,-464 589.035,-467.667 589.035,-471.333 589.035,-471.333 589.035,-478.667 589.035,-478.667 589.035,-482.333 585.368,-486 581.702,-486"/>
<text text-anchor="middle" x="557" y="-471.4" font-family="Helvetica,sans-Serif" font-size="12.00" fill="white">Equatable</text>
</a>
</g>
</g>
<!-- _Incrementable -->
<g id="node32" class="node">
<g id="a_node32"><a xlink:href="/v1.2/protocol/_Incrementable/hierarchy/" target="_top">
<path fill="#999999" stroke="#999999" d="M595.705,-428C595.705,-428 518.295,-428 518.295,-428 514.628,-428 510.961,-424.333 510.961,-420.667 510.961,-420.667 510.961,-413.333 510.961,-413.333 510.961,-409.667 514.628,-406 518.295,-406 518.295,-406 595.705,-406 595.705,-406 599.372,-406 603.039,-409.667 603.039,-413.333 603.039,-413.333 603.039,-420.667 603.039,-420.667 603.039,-424.333 599.372,-428 595.705,-428"/>
<text text-anchor="middle" x="557" y="-413.4" font-family="Helvetica,sans-Serif" font-size="12.00" fill="white">_Incrementable</text>
</a>
</g>
</g>
<!-- Equatable&#45;&gt;_Incrementable -->
<g id="edge34" class="edge">
<path fill="none" stroke="#cccccc" d="M557,-463.988C557,-456.91 557,-447.171 557,-438.478"/>
<polygon fill="#cccccc" stroke="#cccccc" points="560.5,-438.304 557,-428.304 553.5,-438.304 560.5,-438.304"/>
</g>
<!-- FilterCollectionViewIndex -->
<g id="node5" class="node">
<g id="a_node5"><a xlink:href="/v1.2/type/FilterCollectionViewIndex/hierarchy/" target="_top">
<polygon fill="#999999" stroke="#999999" points="143.887,-22 0.1135,-22 0.1135,-0 143.887,-0 143.887,-22"/>
<text text-anchor="middle" x="72" y="-7.4" font-family="Helvetica,sans-Serif" font-size="12.00" fill="white">FilterCollectionViewIndex</text>
</a>
</g>
</g>
<!-- ForwardIndexType -->
<g id="node6" class="node">
<g id="a_node6"><a xlink:href="/v1.2/protocol/ForwardIndexType/hierarchy/" target="_top">
<path fill="#999999" stroke="#999999" d="M416.206,-312C416.206,-312 321.794,-312 321.794,-312 318.127,-312 314.461,-308.333 314.461,-304.667 314.461,-304.667 314.461,-297.333 314.461,-297.333 314.461,-293.667 318.127,-290 321.794,-290 321.794,-290 416.206,-290 416.206,-290 419.873,-290 423.539,-293.667 423.539,-297.333 423.539,-297.333 423.539,-304.667 423.539,-304.667 423.539,-308.333 419.873,-312 416.206,-312"/>
<text text-anchor="middle" x="369" y="-297.4" font-family="Helvetica,sans-Serif" font-size="12.00" fill="white">ForwardIndexType</text>
</a>
</g>
</g>
<!-- ForwardIndexType&#45;&gt;BidirectionalIndexType -->
<g id="edge3" class="edge">
<path fill="none" stroke="#cccccc" d="M423.703,-290.181C477.038,-280.609 558.203,-266.04 615.074,-255.833"/>
<polygon fill="#cccccc" stroke="#cccccc" points="615.819,-259.255 625.044,-254.043 614.583,-252.365 615.819,-259.255"/>
</g>
<!-- ForwardIndexType&#45;&gt;DictionaryIndex -->
<g id="edge4" class="edge">
<path fill="none" stroke="#cccccc" d="M379.899,-289.84C398.644,-271.201 435,-229.452 435,-186 435,-186 435,-186 435,-126 435,-93.1536 435,-54.9837 435,-32.197"/>
<polygon fill="#cccccc" stroke="#cccccc" points="438.5,-32.0648 435,-22.0648 431.5,-32.0648 438.5,-32.0648"/>
</g>
<!-- ForwardIndexType&#45;&gt;FilterCollectionViewIndex -->
<g id="edge5" class="edge">
<path fill="none" stroke="#cccccc" d="M314.526,-290.612C228.784,-274.27 72,-237.364 72,-186 72,-186 72,-186 72,-126 72,-93.1536 72,-54.9837 72,-32.197"/>
<polygon fill="#cccccc" stroke="#cccccc" points="75.5001,-32.0648 72,-22.0648 68.5001,-32.0648 75.5001,-32.0648"/>
</g>
<!-- SetIndex -->
<g id="node16" class="node">
<g id="a_node16"><a xlink:href="/v1.2/type/SetIndex/hierarchy/" target="_top">
<polygon fill="#999999" stroke="#999999" points="219.524,-22 162.476,-22 162.476,-0 219.524,-0 219.524,-22"/>
<text text-anchor="middle" x="191" y="-7.4" font-family="Helvetica,sans-Serif" font-size="12.00" fill="white">SetIndex</text>
</a>
</g>
</g>
<!-- ForwardIndexType&#45;&gt;SetIndex -->
<g id="edge6" class="edge">
<path fill="none" stroke="#cccccc" d="M317.515,-289.98C264.945,-276.406 191,-246.551 191,-186 191,-186 191,-186 191,-126 191,-93.1536 191,-54.9837 191,-32.197"/>
<polygon fill="#cccccc" stroke="#cccccc" points="194.5,-32.0648 191,-22.0648 187.5,-32.0648 194.5,-32.0648"/>
</g>
<!-- String.UTF8View.Index -->
<g id="node20" class="node">
<g id="a_node20"><a xlink:href="/v1.2/type/String.UTF8View.Index/hierarchy/" target="_top">
<polygon fill="#999999" stroke="#999999" points="369.887,-22 238.113,-22 238.113,-0 369.887,-0 369.887,-22"/>
<text text-anchor="middle" x="304" y="-7.4" font-family="Helvetica,sans-Serif" font-size="12.00" fill="white">String.UTF8View.Index</text>
</a>
</g>
</g>
<!-- ForwardIndexType&#45;&gt;String.UTF8View.Index -->
<g id="edge7" class="edge">
<path fill="none" stroke="#cccccc" d="M358.267,-289.807C339.805,-271.116 304,-229.287 304,-186 304,-186 304,-186 304,-126 304,-93.1536 304,-54.9837 304,-32.197"/>
<polygon fill="#cccccc" stroke="#cccccc" points="307.5,-32.0648 304,-22.0648 300.5,-32.0648 307.5,-32.0648"/>
</g>
<!-- Int -->
<g id="node7" class="node">
<g id="a_node7"><a xlink:href="/v1.2/type/Int/hierarchy/" target="_top">
<polygon fill="#999999" stroke="#999999" points="2066,-22 2012,-22 2012,-0 2066,-0 2066,-22"/>
<text text-anchor="middle" x="2039" y="-7.4" font-family="Helvetica,sans-Serif" font-size="12.00" fill="white">Int</text>
</a>
</g>
</g>
<!-- Int&#45;&gt;Bit -->
<g id="edge24" class="edge">
<path fill="none" stroke="#cccccc" d="M2066.28,-11C2068.74,-11 2071.19,-11 2073.65,-11"/>
<polygon fill="#cccccc" stroke="#cccccc" points="2073.75,-14.5001 2083.75,-11 2073.75,-7.5001 2073.75,-14.5001"/>
</g>
<!-- Int16 -->
<g id="node8" class="node">
<g id="a_node8"><a xlink:href="/v1.2/type/Int16/hierarchy/" target="_top">
<polygon fill="#999999" stroke="#999999" points="1778,-22 1724,-22 1724,-0 1778,-0 1778,-22"/>
<text text-anchor="middle" x="1751" y="-7.4" font-family="Helvetica,sans-Serif" font-size="12.00" fill="white">Int16</text>
</a>
</g>
</g>
<!-- Int32 -->
<g id="node9" class="node">
<g id="a_node9"><a xlink:href="/v1.2/type/Int32/hierarchy/" target="_top">
<polygon fill="#999999" stroke="#999999" points="1850,-22 1796,-22 1796,-0 1850,-0 1850,-22"/>
<text text-anchor="middle" x="1823" y="-7.4" font-family="Helvetica,sans-Serif" font-size="12.00" fill="white">Int32</text>
</a>
</g>
</g>
<!-- Int64 -->
<g id="node10" class="node">
<g id="a_node10"><a xlink:href="/v1.2/type/Int64/hierarchy/" target="_top">
<polygon fill="#999999" stroke="#999999" points="1922,-22 1868,-22 1868,-0 1922,-0 1922,-22"/>
<text text-anchor="middle" x="1895" y="-7.4" font-family="Helvetica,sans-Serif" font-size="12.00" fill="white">Int64</text>
</a>
</g>
</g>
<!-- Int8 -->
<g id="node11" class="node">
<g id="a_node11"><a xlink:href="/v1.2/type/Int8/hierarchy/" target="_top">
<polygon fill="#999999" stroke="#999999" points="1994,-22 1940,-22 1940,-0 1994,-0 1994,-22"/>
<text text-anchor="middle" x="1967" y="-7.4" font-family="Helvetica,sans-Serif" font-size="12.00" fill="white">Int8</text>
</a>
</g>
</g>
<!-- IntegerType -->
<g id="node12" class="node">
<g id="a_node12"><a xlink:href="/v1.2/protocol/IntegerType/hierarchy/" target="_top">
<path fill="#999999" stroke="#999999" d="M1564.2,-138C1564.2,-138 1505.8,-138 1505.8,-138 1502.13,-138 1498.47,-134.333 1498.47,-130.667 1498.47,-130.667 1498.47,-123.333 1498.47,-123.333 1498.47,-119.667 1502.13,-116 1505.8,-116 1505.8,-116 1564.2,-116 1564.2,-116 1567.87,-116 1571.53,-119.667 1571.53,-123.333 1571.53,-123.333 1571.53,-130.667 1571.53,-130.667 1571.53,-134.333 1567.87,-138 1564.2,-138"/>
<text text-anchor="middle" x="1535" y="-123.4" font-family="Helvetica,sans-Serif" font-size="12.00" fill="white">IntegerType</text>
</a>
</g>
</g>
<!-- SignedIntegerType -->
<g id="node17" class="node">
<g id="a_node17"><a xlink:href="/v1.2/protocol/SignedIntegerType/hierarchy/" target="_top">
<path fill="#999999" stroke="#999999" d="M1906.73,-80C1906.73,-80 1811.27,-80 1811.27,-80 1807.61,-80 1803.94,-76.3333 1803.94,-72.6667 1803.94,-72.6667 1803.94,-65.3333 1803.94,-65.3333 1803.94,-61.6667 1807.61,-58 1811.27,-58 1811.27,-58 1906.73,-58 1906.73,-58 1910.39,-58 1914.06,-61.6667 1914.06,-65.3333 1914.06,-65.3333 1914.06,-72.6667 1914.06,-72.6667 1914.06,-76.3333 1910.39,-80 1906.73,-80"/>
<text text-anchor="middle" x="1859" y="-65.4" font-family="Helvetica,sans-Serif" font-size="12.00" fill="white">SignedIntegerType</text>
</a>
</g>
</g>
<!-- IntegerType&#45;&gt;SignedIntegerType -->
<g id="edge17" class="edge">
<path fill="none" stroke="#cccccc" d="M1571.54,-119.685C1625.37,-110.38 1726.84,-92.8424 1793.68,-81.2896"/>
<polygon fill="#cccccc" stroke="#cccccc" points="1794.43,-84.7117 1803.69,-79.5596 1793.24,-77.814 1794.43,-84.7117"/>
</g>
<!-- UnsignedIntegerType -->
<g id="node29" class="node">
<g id="a_node29"><a xlink:href="/v1.2/protocol/UnsignedIntegerType/hierarchy/" target="_top">
<path fill="#999999" stroke="#999999" d="M1589.73,-80C1589.73,-80 1480.27,-80 1480.27,-80 1476.61,-80 1472.94,-76.3333 1472.94,-72.6667 1472.94,-72.6667 1472.94,-65.3333 1472.94,-65.3333 1472.94,-61.6667 1476.61,-58 1480.27,-58 1480.27,-58 1589.73,-58 1589.73,-58 1593.39,-58 1597.06,-61.6667 1597.06,-65.3333 1597.06,-65.3333 1597.06,-72.6667 1597.06,-72.6667 1597.06,-76.3333 1593.39,-80 1589.73,-80"/>
<text text-anchor="middle" x="1535" y="-65.4" font-family="Helvetica,sans-Serif" font-size="12.00" fill="white">UnsignedIntegerType</text>
</a>
</g>
</g>
<!-- IntegerType&#45;&gt;UnsignedIntegerType -->
<g id="edge18" class="edge">
<path fill="none" stroke="#cccccc" d="M1535,-115.988C1535,-108.91 1535,-99.1714 1535,-90.4779"/>
<polygon fill="#cccccc" stroke="#cccccc" points="1538.5,-90.3038 1535,-80.3039 1531.5,-90.3039 1538.5,-90.3038"/>
</g>
<!-- RandomAccessIndexType&#45;&gt;IntegerType -->
<g id="edge12" class="edge">
<path fill="none" stroke="#cccccc" d="M1241.82,-173.988C1312.69,-162.873 1425.37,-145.197 1488.4,-135.31"/>
<polygon fill="#cccccc" stroke="#cccccc" points="1489.11,-138.741 1498.45,-133.733 1488.03,-131.826 1489.11,-138.741"/>
</g>
<!-- ReverseRandomAccessIndex -->
<g id="node15" class="node">
<g id="a_node15"><a xlink:href="/v1.2/type/ReverseRandomAccessIndex/hierarchy/" target="_top">
<polygon fill="#999999" stroke="#999999" points="2324.06,-22 2155.94,-22 2155.94,-0 2324.06,-0 2324.06,-22"/>
<text text-anchor="middle" x="2240" y="-7.4" font-family="Helvetica,sans-Serif" font-size="12.00" fill="white">ReverseRandomAccessIndex</text>
</a>
</g>
</g>
<!-- RandomAccessIndexType&#45;&gt;ReverseRandomAccessIndex -->
<g id="edge13" class="edge">
<path fill="none" stroke="#cccccc" d="M1252.61,-176.67C1333.44,-168.449 1466.11,-154.134 1580,-138 1733.08,-116.315 1771.16,-109.11 1923,-80 2015.82,-62.2063 2123.24,-38.502 2186.19,-24.2946"/>
<polygon fill="#cccccc" stroke="#cccccc" points="2187.3,-27.6326 2196.28,-22.0127 2185.75,-20.805 2187.3,-27.6326"/>
</g>
<!-- String.UTF16View.Index -->
<g id="node19" class="node">
<g id="a_node19"><a xlink:href="/v1.2/type/String.UTF16View.Index/hierarchy/" target="_top">
<polygon fill="#999999" stroke="#999999" points="1095.39,-22 956.61,-22 956.61,-0 1095.39,-0 1095.39,-22"/>
<text text-anchor="middle" x="1026" y="-7.4" font-family="Helvetica,sans-Serif" font-size="12.00" fill="white">String.UTF16View.Index</text>
</a>
</g>
</g>
<!-- RandomAccessIndexType&#45;&gt;String.UTF16View.Index -->
<g id="edge16" class="edge">
<path fill="none" stroke="#cccccc" d="M1168.95,-173.756C1143.98,-145.501 1073.88,-66.1852 1042.07,-30.183"/>
<polygon fill="#cccccc" stroke="#cccccc" points="1044.44,-27.5837 1035.2,-22.4081 1039.2,-32.2191 1044.44,-27.5837"/>
</g>
<!-- UnsafeMutablePointer -->
<g id="node27" class="node">
<g id="a_node27"><a xlink:href="/v1.2/type/UnsafeMutablePointer/hierarchy/" target="_top">
<polygon fill="#999999" stroke="#999999" points="1242.05,-22 1113.95,-22 1113.95,-0 1242.05,-0 1242.05,-22"/>
<text text-anchor="middle" x="1178" y="-7.4" font-family="Helvetica,sans-Serif" font-size="12.00" fill="white">UnsafeMutablePointer</text>
</a>
</g>
</g>
<!-- RandomAccessIndexType&#45;&gt;UnsafeMutablePointer -->
<g id="edge14" class="edge">
<path fill="none" stroke="#cccccc" d="M1178,-173.756C1178,-146.097 1178,-69.5091 1178,-32.5186"/>
<polygon fill="#cccccc" stroke="#cccccc" points="1181.5,-32.408 1178,-22.4081 1174.5,-32.4081 1181.5,-32.408"/>
</g>
<!-- UnsafePointer -->
<g id="node28" class="node">
<g id="a_node28"><a xlink:href="/v1.2/type/UnsafePointer/hierarchy/" target="_top">
<polygon fill="#999999" stroke="#999999" points="1346.03,-22 1259.97,-22 1259.97,-0 1346.03,-0 1346.03,-22"/>
<text text-anchor="middle" x="1303" y="-7.4" font-family="Helvetica,sans-Serif" font-size="12.00" fill="white">UnsafePointer</text>
</a>
</g>
</g>
<!-- RandomAccessIndexType&#45;&gt;UnsafePointer -->
<g id="edge15" class="edge">
<path fill="none" stroke="#cccccc" d="M1185.44,-173.756C1205.89,-145.621 1263.14,-66.8536 1289.45,-30.6411"/>
<polygon fill="#cccccc" stroke="#cccccc" points="1292.39,-32.5551 1295.44,-22.4081 1286.73,-28.4399 1292.39,-32.5551"/>
</g>
<!-- SignedIntegerType&#45;&gt;Int -->
<g id="edge19" class="edge">
<path fill="none" stroke="#cccccc" d="M1891.18,-57.9883C1922.34,-48.2947 1969.53,-33.6128 2002.17,-23.4573"/>
<polygon fill="#cccccc" stroke="#cccccc" points="2003.29,-26.7742 2011.8,-20.4615 2001.21,-20.0902 2003.29,-26.7742"/>
</g>
<!-- SignedIntegerType&#45;&gt;Int16 -->
<g id="edge20" class="edge">
<path fill="none" stroke="#cccccc" d="M1839.69,-57.9883C1822.98,-49.3223 1798.58,-36.6696 1779.6,-26.8283"/>
<polygon fill="#cccccc" stroke="#cccccc" points="1780.99,-23.6099 1770.51,-22.1138 1777.77,-29.8242 1780.99,-23.6099"/>
</g>
<!-- SignedIntegerType&#45;&gt;Int32 -->
<g id="edge21" class="edge">
<path fill="none" stroke="#cccccc" d="M1852.56,-57.9883C1847.71,-50.4379 1840.91,-39.8611 1835.06,-30.7543"/>
<polygon fill="#cccccc" stroke="#cccccc" points="1837.98,-28.823 1829.62,-22.3039 1832.09,-32.6083 1837.98,-28.823"/>
</g>
<!-- SignedIntegerType&#45;&gt;Int64 -->
<g id="edge22" class="edge">
<path fill="none" stroke="#cccccc" d="M1865.44,-57.9883C1870.29,-50.4379 1877.09,-39.8611 1882.94,-30.7543"/>
<polygon fill="#cccccc" stroke="#cccccc" points="1885.91,-32.6083 1888.38,-22.3039 1880.02,-28.823 1885.91,-32.6083"/>
</g>
<!-- SignedIntegerType&#45;&gt;Int8 -->
<g id="edge23" class="edge">
<path fill="none" stroke="#cccccc" d="M1878.31,-57.9883C1895.02,-49.3223 1919.42,-36.6696 1938.4,-26.8283"/>
<polygon fill="#cccccc" stroke="#cccccc" points="1940.23,-29.8242 1947.49,-22.1138 1937.01,-23.6099 1940.23,-29.8242"/>
</g>
<!-- UInt -->
<g id="node22" class="node">
<g id="a_node22"><a xlink:href="/v1.2/type/UInt/hierarchy/" target="_top">
<polygon fill="#999999" stroke="#999999" points="1706,-22 1652,-22 1652,-0 1706,-0 1706,-22"/>
<text text-anchor="middle" x="1679" y="-7.4" font-family="Helvetica,sans-Serif" font-size="12.00" fill="white">UInt</text>
</a>
</g>
</g>
<!-- UInt16 -->
<g id="node23" class="node">
<g id="a_node23"><a xlink:href="/v1.2/type/UInt16/hierarchy/" target="_top">
<polygon fill="#999999" stroke="#999999" points="1418,-22 1364,-22 1364,-0 1418,-0 1418,-22"/>
<text text-anchor="middle" x="1391" y="-7.4" font-family="Helvetica,sans-Serif" font-size="12.00" fill="white">UInt16</text>
</a>
</g>
</g>
<!-- UInt32 -->
<g id="node24" class="node">
<g id="a_node24"><a xlink:href="/v1.2/type/UInt32/hierarchy/" target="_top">
<polygon fill="#999999" stroke="#999999" points="1490,-22 1436,-22 1436,-0 1490,-0 1490,-22"/>
<text text-anchor="middle" x="1463" y="-7.4" font-family="Helvetica,sans-Serif" font-size="12.00" fill="white">UInt32</text>
</a>
</g>
</g>
<!-- UInt64 -->
<g id="node25" class="node">
<g id="a_node25"><a xlink:href="/v1.2/type/UInt64/hierarchy/" target="_top">
<polygon fill="#999999" stroke="#999999" points="1562,-22 1508,-22 1508,-0 1562,-0 1562,-22"/>
<text text-anchor="middle" x="1535" y="-7.4" font-family="Helvetica,sans-Serif" font-size="12.00" fill="white">UInt64</text>
</a>
</g>
</g>
<!-- UInt8 -->
<g id="node26" class="node">
<g id="a_node26"><a xlink:href="/v1.2/type/UInt8/hierarchy/" target="_top">
<polygon fill="#999999" stroke="#999999" points="1634,-22 1580,-22 1580,-0 1634,-0 1634,-22"/>
<text text-anchor="middle" x="1607" y="-7.4" font-family="Helvetica,sans-Serif" font-size="12.00" fill="white">UInt8</text>
</a>
</g>
</g>
<!-- UnsignedIntegerType&#45;&gt;UInt -->
<g id="edge25" class="edge">
<path fill="none" stroke="#cccccc" d="M1560.74,-57.9883C1583.84,-49.0057 1617.95,-35.7398 1643.61,-25.7614"/>
<polygon fill="#cccccc" stroke="#cccccc" points="1644.94,-29.0004 1652.99,-22.1138 1642.4,-22.4763 1644.94,-29.0004"/>
</g>
<!-- UnsignedIntegerType&#45;&gt;UInt16 -->
<g id="edge26" class="edge">
<path fill="none" stroke="#cccccc" d="M1509.26,-57.9883C1486.16,-49.0057 1452.05,-35.7398 1426.39,-25.7614"/>
<polygon fill="#cccccc" stroke="#cccccc" points="1427.6,-22.4763 1417.01,-22.1138 1425.06,-29.0004 1427.6,-22.4763"/>
</g>
<!-- UnsignedIntegerType&#45;&gt;UInt32 -->
<g id="edge27" class="edge">
<path fill="none" stroke="#cccccc" d="M1522.13,-57.9883C1511.61,-49.8087 1496.53,-38.0773 1484.23,-28.5108"/>
<polygon fill="#cccccc" stroke="#cccccc" points="1486.29,-25.6806 1476.25,-22.3039 1481.99,-31.2061 1486.29,-25.6806"/>
</g>
<!-- UnsignedIntegerType&#45;&gt;UInt64 -->
<g id="edge28" class="edge">
<path fill="none" stroke="#cccccc" d="M1535,-57.9883C1535,-50.9098 1535,-41.1714 1535,-32.4779"/>
<polygon fill="#cccccc" stroke="#cccccc" points="1538.5,-32.3038 1535,-22.3039 1531.5,-32.3039 1538.5,-32.3038"/>
</g>
<!-- UnsignedIntegerType&#45;&gt;UInt8 -->
<g id="edge29" class="edge">
<path fill="none" stroke="#cccccc" d="M1547.87,-57.9883C1558.39,-49.8087 1573.47,-38.0773 1585.77,-28.5108"/>
<polygon fill="#cccccc" stroke="#cccccc" points="1588.01,-31.2061 1593.75,-22.3039 1583.71,-25.6806 1588.01,-31.2061"/>
</g>
<!-- _BidirectionalIndexType -->
<g id="node30" class="node">
<g id="a_node30"><a xlink:href="/v1.2/protocol/_BidirectionalIndexType/hierarchy/" target="_top">
<path fill="#999999" stroke="#999999" d="M742.23,-312C742.23,-312 619.77,-312 619.77,-312 616.104,-312 612.437,-308.333 612.437,-304.667 612.437,-304.667 612.437,-297.333 612.437,-297.333 612.437,-293.667 616.104,-290 619.77,-290 619.77,-290 742.23,-290 742.23,-290 745.896,-290 749.563,-293.667 749.563,-297.333 749.563,-297.333 749.563,-304.667 749.563,-304.667 749.563,-308.333 745.896,-312 742.23,-312"/>
<text text-anchor="middle" x="681" y="-297.4" font-family="Helvetica,sans-Serif" font-size="12.00" fill="white">_BidirectionalIndexType</text>
</a>
</g>
</g>
<!-- _BidirectionalIndexType&#45;&gt;BidirectionalIndexType -->
<g id="edge30" class="edge">
<path fill="none" stroke="#cccccc" d="M681,-289.988C681,-282.91 681,-273.171 681,-264.478"/>
<polygon fill="#cccccc" stroke="#cccccc" points="684.5,-264.304 681,-254.304 677.5,-264.304 684.5,-264.304"/>
</g>
<!-- _RandomAccessIndexType -->
<g id="node33" class="node">
<g id="a_node33"><a xlink:href="/v1.2/protocol/_RandomAccessIndexType/hierarchy/" target="_top">
<path fill="#999999" stroke="#999999" d="M1080.73,-254C1080.73,-254 939.269,-254 939.269,-254 935.602,-254 931.936,-250.333 931.936,-246.667 931.936,-246.667 931.936,-239.333 931.936,-239.333 931.936,-235.667 935.602,-232 939.269,-232 939.269,-232 1080.73,-232 1080.73,-232 1084.4,-232 1088.06,-235.667 1088.06,-239.333 1088.06,-239.333 1088.06,-246.667 1088.06,-246.667 1088.06,-250.333 1084.4,-254 1080.73,-254"/>
<text text-anchor="middle" x="1010" y="-239.4" font-family="Helvetica,sans-Serif" font-size="12.00" fill="white">_RandomAccessIndexType</text>
</a>
</g>
</g>
<!-- _BidirectionalIndexType&#45;&gt;_RandomAccessIndexType -->
<g id="edge31" class="edge">
<path fill="none" stroke="#cccccc" d="M739.819,-289.988C796.253,-280.382 881.466,-265.878 941.062,-255.734"/>
<polygon fill="#cccccc" stroke="#cccccc" points="941.866,-259.148 951.137,-254.019 940.691,-252.247 941.866,-259.148"/>
</g>
<!-- _ForwardIndexType -->
<g id="node31" class="node">
<g id="a_node31"><a xlink:href="/v1.2/protocol/_ForwardIndexType/" target="_top">
<path fill="#ee543d" stroke="#ee543d" d="M607.712,-370C607.712,-370 506.288,-370 506.288,-370 502.621,-370 498.955,-366.333 498.955,-362.667 498.955,-362.667 498.955,-355.333 498.955,-355.333 498.955,-351.667 502.621,-348 506.288,-348 506.288,-348 607.712,-348 607.712,-348 611.379,-348 615.045,-351.667 615.045,-355.333 615.045,-355.333 615.045,-362.667 615.045,-362.667 615.045,-366.333 611.379,-370 607.712,-370"/>
<text text-anchor="middle" x="557" y="-355.4" font-family="Helvetica,sans-Serif" font-size="12.00" fill="white">_ForwardIndexType</text>
</a>
</g>
</g>
<!-- _ForwardIndexType&#45;&gt;ForwardIndexType -->
<g id="edge1" class="edge">
<path fill="none" stroke="#cccccc" d="M523.389,-347.988C492.34,-338.74 446.047,-324.95 412.252,-314.884"/>
<polygon fill="#cccccc" stroke="#cccccc" points="413.219,-311.52 402.636,-312.019 411.221,-318.228 413.219,-311.52"/>
</g>
<!-- _ForwardIndexType&#45;&gt;_BidirectionalIndexType -->
<g id="edge2" class="edge">
<path fill="none" stroke="#cccccc" d="M579.169,-347.988C598.708,-339.164 627.401,-326.206 649.354,-316.292"/>
<polygon fill="#cccccc" stroke="#cccccc" points="650.932,-319.42 658.605,-312.114 648.051,-313.04 650.932,-319.42"/>
</g>
<!-- _Incrementable&#45;&gt;_ForwardIndexType -->
<g id="edge33" class="edge">
<path fill="none" stroke="#cccccc" d="M557,-405.988C557,-398.91 557,-389.171 557,-380.478"/>
<polygon fill="#cccccc" stroke="#cccccc" points="560.5,-380.304 557,-370.304 553.5,-380.304 560.5,-380.304"/>
</g>
<!-- _RandomAccessIndexType&#45;&gt;RandomAccessIndexType -->
<g id="edge32" class="edge">
<path fill="none" stroke="#cccccc" d="M1040.04,-231.988C1067.42,-222.859 1108.09,-209.305 1138.18,-199.274"/>
<polygon fill="#cccccc" stroke="#cccccc" points="1139.56,-202.502 1147.94,-196.019 1137.35,-195.861 1139.56,-202.502"/>
</g>
</g>
</svg>
