<?xml version="1.0" encoding="UTF-8" standalone="no"?>
<!DOCTYPE svg PUBLIC "-//W3C//DTD SVG 1.1//EN"
 "http://www.w3.org/Graphics/SVG/1.1/DTD/svg11.dtd">
<!-- Generated by graphviz version 2.36.0 (20140111.2315)
 -->
<!-- Title: CollectionType &#45; Type Hierarchy &#45; SwiftDoc.org Pages: 1 -->
<svg width="3618pt" height="427pt"
 viewBox="0.00 0.00 3618.40 427.20" xmlns="http://www.w3.org/2000/svg" xmlns:xlink="http://www.w3.org/1999/xlink">
<g id="graph0" class="graph" transform="scale(1 1) rotate(0) translate(7.2 369.6)">
<g transform="translate(0 -369.6)">
<g>
    <path fill="#666666" d="M13.846,10.832c-0.336-0.464-0.792-0.844-1.368-1.14s-1.224-0.444-1.944-0.444
        c-0.384,0-0.772,0.052-1.164,0.156C8.977,9.509,8.622,9.677,8.301,9.908c-0.32,0.232-0.58,0.52-0.78,0.864
        c-0.2,0.344-0.3,0.756-0.3,1.236c0,0.464,0.092,0.852,0.276,1.164c0.184,0.312,0.432,0.576,0.744,0.792s0.68,0.4,1.104,0.552
        c0.423,0.152,0.876,0.309,1.356,0.468c0.576,0.177,1.16,0.376,1.752,0.601c0.592,0.224,1.128,0.52,1.608,0.888
        s0.872,0.828,1.176,1.38s0.456,1.252,0.456,2.101c0,0.88-0.164,1.644-0.492,2.292c-0.328,0.647-0.765,1.184-1.308,1.607
        c-0.544,0.424-1.172,0.74-1.884,0.948s-1.444,0.312-2.196,0.312c-1.072,0-2.108-0.208-3.108-0.624
        c-1-0.415-1.828-1.031-2.484-1.848l1.848-1.56c0.4,0.592,0.936,1.071,1.608,1.439c0.672,0.368,1.399,0.552,2.184,0.552
        c0.4,0,0.8-0.056,1.2-0.168c0.4-0.111,0.764-0.288,1.092-0.527c0.328-0.24,0.596-0.54,0.804-0.9
        c0.208-0.36,0.312-0.796,0.312-1.308s-0.108-0.94-0.324-1.284c-0.216-0.344-0.508-0.636-0.876-0.876s-0.796-0.444-1.284-0.612
        c-0.488-0.168-1.004-0.34-1.548-0.516c-0.544-0.16-1.08-0.356-1.608-0.588c-0.528-0.232-1-0.528-1.416-0.889
        c-0.416-0.359-0.752-0.804-1.008-1.332c-0.256-0.527-0.384-1.184-0.384-1.968c0-0.848,0.172-1.576,0.516-2.184
        c0.344-0.608,0.792-1.112,1.344-1.512c0.552-0.4,1.176-0.692,1.872-0.876c0.696-0.184,1.396-0.276,2.1-0.276
        c0.992,0,1.92,0.176,2.784,0.528c0.864,0.352,1.56,0.824,2.088,1.416L13.846,10.832z"/>
    <path fill="#666666" d="M18.813,13.304l2.568,8.688h0.048l2.712-8.688h2.376l2.76,8.688h0.048l2.568-8.688h2.376L30.501,24.68
        h-2.352l-2.808-8.544h-0.048l-2.784,8.544h-2.352l-3.792-11.376H18.813z"/>
    <path fill="#666666" d="M38.685,9.2c0,0.416-0.147,0.76-0.44,1.032c-0.294,0.272-0.647,0.408-1.06,0.408s-0.762-0.14-1.047-0.42
        c-0.286-0.28-0.429-0.62-0.429-1.02c0-0.416,0.143-0.764,0.429-1.044c0.286-0.28,0.635-0.42,1.047-0.42s0.766,0.14,1.06,0.42
        C38.538,8.437,38.685,8.784,38.685,9.2z M38.325,24.68h-2.256V13.304h2.256V24.68z"/>
    <path fill="#666666" d="M47.613,15.152h-2.64v9.528h-2.256v-9.528h-2.256v-1.848h2.256v-2.376c0-0.672,0.076-1.292,0.228-1.86
        c0.152-0.568,0.4-1.06,0.744-1.476c0.344-0.416,0.784-0.744,1.32-0.984c0.536-0.24,1.188-0.36,1.956-0.36
        c0.544,0,1.016,0.056,1.416,0.168l-0.264,1.944c-0.176-0.048-0.352-0.088-0.528-0.12c-0.176-0.032-0.376-0.048-0.6-0.048
        c-0.432,0-0.78,0.076-1.044,0.228c-0.264,0.152-0.468,0.356-0.612,0.612s-0.24,0.548-0.288,0.876
        c-0.048,0.328-0.072,0.668-0.072,1.02v2.376h2.64V15.152z"/>
    <path fill="#666666" d="M54.909,15.152h-3.024v5.91c0,0.687,0.128,1.177,0.384,1.472c0.256,0.295,0.664,0.442,1.224,0.442
        c0.208,0,0.432-0.021,0.672-0.065c0.24-0.044,0.456-0.11,0.648-0.198l0.072,1.848c-0.272,0.096-0.572,0.172-0.9,0.229
        c-0.328,0.056-0.668,0.084-1.02,0.084c-1.072,0-1.892-0.296-2.46-0.889c-0.568-0.592-0.852-1.479-0.852-2.664v-6.168h-2.184
        v-1.848h2.184V10.04h2.232v3.264h3.024V15.152z"/>
    <path fill="#666666" d="M57.356,7.688h5.832c1.088,0,2.176,0.16,3.264,0.48c1.088,0.32,2.072,0.824,2.952,1.512
        s1.592,1.568,2.136,2.64c0.544,1.072,0.816,2.36,0.816,3.864c0,1.456-0.272,2.716-0.816,3.78s-1.256,1.943-2.136,2.64
        s-1.864,1.216-2.952,1.561c-1.088,0.344-2.176,0.516-3.264,0.516h-5.832V7.688z M59.732,22.593h2.976
        c1.024,0,1.972-0.145,2.844-0.432c0.872-0.288,1.624-0.704,2.256-1.248c0.632-0.544,1.124-1.216,1.476-2.017
        c0.352-0.8,0.528-1.704,0.528-2.712c0-1.056-0.176-1.983-0.528-2.784c-0.353-0.8-0.844-1.468-1.476-2.004
        c-0.632-0.536-1.384-0.944-2.256-1.224s-1.82-0.42-2.844-0.42h-2.976V22.593z"/>
    <path fill="#666666" d="M86.06,18.969c0,0.88-0.156,1.688-0.468,2.424c-0.312,0.736-0.744,1.372-1.296,1.908
        c-0.552,0.536-1.204,0.952-1.956,1.248c-0.752,0.296-1.56,0.443-2.424,0.443c-0.864,0-1.672-0.147-2.424-0.443
        c-0.752-0.296-1.4-0.712-1.944-1.248c-0.544-0.536-0.972-1.172-1.284-1.908c-0.312-0.735-0.468-1.544-0.468-2.424
        s0.156-1.684,0.468-2.412c0.312-0.728,0.74-1.356,1.284-1.884c0.543-0.528,1.191-0.939,1.944-1.236
        c0.752-0.296,1.56-0.444,2.424-0.444c0.864,0,1.672,0.148,2.424,0.444c0.752,0.297,1.404,0.708,1.956,1.236
        c0.552,0.527,0.984,1.156,1.296,1.884C85.904,17.285,86.06,18.089,86.06,18.969z M83.708,18.98c0-0.542-0.084-1.061-0.252-1.556
        c-0.169-0.494-0.414-0.929-0.734-1.304s-0.718-0.674-1.192-0.897s-1.015-0.335-1.625-0.335c-0.61,0-1.152,0.111-1.625,0.335
        c-0.474,0.224-0.871,0.522-1.191,0.897c-0.321,0.375-0.566,0.81-0.734,1.304C76.184,17.92,76.1,18.438,76.1,18.98
        c0,0.543,0.084,1.062,0.253,1.556c0.168,0.495,0.413,0.934,0.734,1.316c0.321,0.383,0.718,0.686,1.191,0.909
        c0.473,0.224,1.015,0.335,1.625,0.335c0.61,0,1.151-0.111,1.625-0.335s0.871-0.526,1.192-0.909s0.565-0.821,0.734-1.316
        C83.624,20.042,83.708,19.523,83.708,18.98z"/>
    <path fill="#666666" d="M96.428,16.184c-0.24-0.368-0.6-0.676-1.08-0.924s-0.992-0.372-1.536-0.372
        c-0.592,0-1.116,0.112-1.572,0.336c-0.456,0.225-0.844,0.524-1.164,0.9c-0.32,0.376-0.564,0.812-0.732,1.308
        s-0.252,1.017-0.252,1.56c0,0.545,0.084,1.064,0.252,1.561s0.412,0.933,0.732,1.308c0.32,0.376,0.712,0.677,1.176,0.9
        c0.464,0.225,0.992,0.336,1.584,0.336c0.576,0,1.1-0.111,1.572-0.336c0.472-0.224,0.86-0.528,1.164-0.912l1.512,1.368
        c-0.48,0.561-1.08,0.996-1.8,1.308c-0.72,0.312-1.536,0.468-2.448,0.468c-0.88,0-1.692-0.144-2.436-0.432
        c-0.744-0.288-1.388-0.691-1.932-1.212c-0.544-0.52-0.972-1.147-1.284-1.884s-0.468-1.561-0.468-2.473
        c0-0.896,0.152-1.711,0.456-2.447c0.304-0.736,0.728-1.368,1.272-1.896c0.543-0.527,1.188-0.936,1.932-1.224
        c0.744-0.288,1.548-0.433,2.412-0.433c0.8,0,1.596,0.16,2.388,0.48s1.419,0.784,1.884,1.392L96.428,16.184z"/>
    <path fill="#666666" d="M103.1,23.24c0,0.417-0.152,0.784-0.456,1.104c-0.304,0.32-0.688,0.479-1.152,0.479
        c-0.448,0-0.828-0.155-1.14-0.468c-0.312-0.312-0.468-0.676-0.468-1.092c0-0.432,0.152-0.804,0.456-1.116
        c0.304-0.312,0.688-0.468,1.152-0.468c0.464,0,0.848,0.152,1.152,0.456C102.947,22.44,103.1,22.808,103.1,23.24z"/>
    <path fill="#666666" d="M116.635,18.969c0,0.88-0.156,1.688-0.468,2.424c-0.312,0.736-0.744,1.372-1.296,1.908
        c-0.552,0.536-1.204,0.952-1.956,1.248c-0.752,0.296-1.56,0.443-2.424,0.443c-0.864,0-1.672-0.147-2.424-0.443
        c-0.752-0.296-1.4-0.712-1.944-1.248c-0.544-0.536-0.972-1.172-1.284-1.908c-0.312-0.735-0.468-1.544-0.468-2.424
        s0.156-1.684,0.468-2.412c0.312-0.728,0.74-1.356,1.284-1.884c0.543-0.528,1.191-0.939,1.944-1.236
        c0.752-0.296,1.56-0.444,2.424-0.444c0.864,0,1.672,0.148,2.424,0.444c0.752,0.297,1.404,0.708,1.956,1.236
        c0.552,0.527,0.984,1.156,1.296,1.884C116.479,17.285,116.635,18.089,116.635,18.969z M114.283,18.98
        c0-0.542-0.084-1.061-0.252-1.556c-0.169-0.494-0.414-0.929-0.734-1.304s-0.718-0.674-1.192-0.897s-1.015-0.335-1.625-0.335
        c-0.61,0-1.152,0.111-1.625,0.335c-0.474,0.224-0.871,0.522-1.191,0.897c-0.321,0.375-0.566,0.81-0.734,1.304
        c-0.169,0.495-0.253,1.014-0.253,1.556c0,0.543,0.084,1.062,0.253,1.556c0.168,0.495,0.413,0.934,0.734,1.316
        c0.321,0.383,0.718,0.686,1.191,0.909c0.473,0.224,1.015,0.335,1.625,0.335c0.61,0,1.151-0.111,1.625-0.335
        s0.871-0.526,1.192-0.909s0.565-0.821,0.734-1.316C114.199,20.042,114.283,19.523,114.283,18.98z"/>
    <path fill="#666666" d="M119.251,14.577c-0.016-0.48-0.04-0.904-0.072-1.272h2.136c0.032,0.288,0.056,0.62,0.072,0.996
        c0.016,0.376,0.024,0.684,0.024,0.924h0.072c0.32-0.672,0.788-1.212,1.404-1.62c0.616-0.408,1.308-0.612,2.076-0.612
        c0.352,0,0.648,0.033,0.888,0.097l-0.096,2.088c-0.32-0.08-0.664-0.12-1.032-0.12c-0.544,0-1.016,0.101-1.416,0.3
        c-0.4,0.2-0.732,0.468-0.996,0.805c-0.264,0.336-0.46,0.724-0.588,1.163c-0.128,0.44-0.192,0.9-0.192,1.381v5.976h-2.256v-8.928
        C119.275,15.449,119.267,15.056,119.251,14.577z"/>
    <path fill="#666666" d="M128.419,26.625c0.496,0.56,1.116,1.008,1.86,1.344c0.744,0.336,1.508,0.504,2.292,0.504
        c0.752,0,1.384-0.108,1.896-0.324s0.924-0.512,1.236-0.888s0.536-0.82,0.672-1.332c0.136-0.513,0.204-1.064,0.204-1.656v-1.464
        h-0.048c-0.416,0.641-0.984,1.128-1.704,1.464c-0.72,0.336-1.488,0.504-2.304,0.504c-0.864,0-1.652-0.151-2.364-0.456
        c-0.712-0.304-1.316-0.72-1.812-1.248c-0.496-0.527-0.88-1.147-1.152-1.859s-0.408-1.477-0.408-2.292
        c0-0.816,0.136-1.584,0.408-2.305c0.272-0.72,0.656-1.348,1.152-1.884c0.496-0.535,1.096-0.96,1.8-1.271
        c0.704-0.312,1.488-0.469,2.352-0.469c0.816,0,1.596,0.177,2.34,0.528c0.744,0.353,1.332,0.888,1.764,1.608h0.048v-1.824h2.184
        v10.8c0,0.832-0.104,1.628-0.312,2.388c-0.208,0.76-0.56,1.433-1.056,2.017s-1.144,1.052-1.944,1.404
        c-0.8,0.352-1.792,0.527-2.976,0.527c-0.992,0-1.988-0.18-2.988-0.54c-1-0.359-1.86-0.868-2.58-1.523L128.419,26.625z
         M129.091,18.873c0,0.527,0.084,1.031,0.253,1.512c0.168,0.479,0.417,0.904,0.746,1.271c0.329,0.369,0.726,0.664,1.192,0.889
        c0.465,0.224,0.995,0.336,1.589,0.336c0.577,0,1.107-0.104,1.589-0.312c0.481-0.207,0.891-0.491,1.228-0.852
        s0.598-0.784,0.782-1.272c0.185-0.487,0.277-1.012,0.277-1.571c0-0.544-0.093-1.057-0.277-1.536
        c-0.185-0.48-0.449-0.904-0.794-1.272c-0.345-0.367-0.755-0.66-1.228-0.876c-0.474-0.216-1-0.324-1.577-0.324
        c-0.594,0-1.124,0.108-1.589,0.324c-0.466,0.216-0.863,0.504-1.192,0.864s-0.578,0.784-0.746,1.271
        C129.175,17.812,129.091,18.329,129.091,18.873z"/>
</g>
<g><a xlink:href="/" pointer-events="all" target="_top"><polygon fill="none" points="0,0 145,0 145,35 0,35 0,0"/></a></g>

</g>


<!-- AnyBidirectionalCollection -->
<g id="node1" class="node">
<g id="a_node1"><a xlink:href="/v2.0/type/AnyBidirectionalCollection/" target="_top">
<polygon fill="#999999" stroke="#999999" points="148.054,-22 -0.054265,-22 -0.054265,-0 148.054,-0 148.054,-22"/>
<text text-anchor="middle" x="74" y="-7.4" font-family="Helvetica,sans-Serif" font-size="12.00" fill="white">AnyBidirectionalCollection</text>
</a>
</g>
</g>
<!-- AnyCollectionType -->
<g id="node2" class="node">
<g id="a_node2"><a xlink:href="/v2.0/protocol/AnyCollectionType/" target="_top">
<path fill="#999999" stroke="#999999" d="M280.211,-80C280.211,-80 185.789,-80 185.789,-80 182.123,-80 178.456,-76.3333 178.456,-72.6667 178.456,-72.6667 178.456,-65.3333 178.456,-65.3333 178.456,-61.6667 182.123,-58 185.789,-58 185.789,-58 280.211,-58 280.211,-58 283.877,-58 287.544,-61.6667 287.544,-65.3333 287.544,-65.3333 287.544,-72.6667 287.544,-72.6667 287.544,-76.3333 283.877,-80 280.211,-80"/>
<text text-anchor="middle" x="233" y="-65.4" font-family="Helvetica,sans-Serif" font-size="12.00" fill="white">AnyCollectionType</text>
</a>
</g>
</g>
<!-- AnyCollectionType&#45;&gt;AnyBidirectionalCollection -->
<g id="edge36" class="edge">
<path fill="none" stroke="#cccccc" d="M204.574,-57.9883C178.765,-48.8984 140.503,-35.4223 112.061,-25.4053"/>
<polygon fill="#cccccc" stroke="#cccccc" points="113.042,-22.0401 102.448,-22.0192 110.717,-28.6425 113.042,-22.0401"/>
</g>
<!-- AnyForwardCollection -->
<g id="node3" class="node">
<g id="a_node3"><a xlink:href="/v2.0/type/AnyForwardCollection/" target="_top">
<polygon fill="#999999" stroke="#999999" points="293.535,-22 166.465,-22 166.465,-0 293.535,-0 293.535,-22"/>
<text text-anchor="middle" x="230" y="-7.4" font-family="Helvetica,sans-Serif" font-size="12.00" fill="white">AnyForwardCollection</text>
</a>
</g>
</g>
<!-- AnyCollectionType&#45;&gt;AnyForwardCollection -->
<g id="edge37" class="edge">
<path fill="none" stroke="#cccccc" d="M232.464,-57.9883C232.084,-50.9098 231.563,-41.1714 231.097,-32.4779"/>
<polygon fill="#cccccc" stroke="#cccccc" points="234.582,-32.1023 230.552,-22.3039 227.592,-32.4768 234.582,-32.1023"/>
</g>
<!-- AnyRandomAccessCollection -->
<g id="node4" class="node">
<g id="a_node4"><a xlink:href="/v2.0/type/AnyRandomAccessCollection/" target="_top">
<polygon fill="#999999" stroke="#999999" points="478.554,-22 311.446,-22 311.446,-0 478.554,-0 478.554,-22"/>
<text text-anchor="middle" x="395" y="-7.4" font-family="Helvetica,sans-Serif" font-size="12.00" fill="white">AnyRandomAccessCollection</text>
</a>
</g>
</g>
<!-- AnyCollectionType&#45;&gt;AnyRandomAccessCollection -->
<g id="edge38" class="edge">
<path fill="none" stroke="#cccccc" d="M261.962,-57.9883C288.258,-48.8984 327.243,-35.4223 356.22,-25.4053"/>
<polygon fill="#cccccc" stroke="#cccccc" points="357.708,-28.5944 366.016,-22.0192 355.421,-21.9785 357.708,-28.5944"/>
</g>
<!-- Array -->
<g id="node5" class="node">
<g id="a_node5"><a xlink:href="/v2.0/type/Array/" target="_top">
<polygon fill="#999999" stroke="#999999" points="551,-22 497,-22 497,-0 551,-0 551,-22"/>
<text text-anchor="middle" x="524" y="-7.4" font-family="Helvetica,sans-Serif" font-size="12.00" fill="white">Array</text>
</a>
</g>
</g>
<!-- ArraySlice -->
<g id="node6" class="node">
<g id="a_node6"><a xlink:href="/v2.0/type/ArraySlice/" target="_top">
<polygon fill="#999999" stroke="#999999" points="633.011,-22 568.989,-22 568.989,-0 633.011,-0 633.011,-22"/>
<text text-anchor="middle" x="601" y="-7.4" font-family="Helvetica,sans-Serif" font-size="12.00" fill="white">ArraySlice</text>
</a>
</g>
</g>
<!-- CollectionOfOne -->
<g id="node7" class="node">
<g id="a_node7"><a xlink:href="/v2.0/type/CollectionOfOne/" target="_top">
<polygon fill="#999999" stroke="#999999" points="1450.03,-22 1351.97,-22 1351.97,-0 1450.03,-0 1450.03,-22"/>
<text text-anchor="middle" x="1401" y="-7.4" font-family="Helvetica,sans-Serif" font-size="12.00" fill="white">CollectionOfOne</text>
</a>
</g>
</g>
<!-- CollectionType -->
<g id="node8" class="node">
<g id="a_node8"><a xlink:href="/v2.0/protocol/CollectionType/" target="_top">
<path fill="#ee543d" stroke="#ee543d" d="M1748.7,-254C1748.7,-254 1675.3,-254 1675.3,-254 1671.63,-254 1667.96,-250.333 1667.96,-246.667 1667.96,-246.667 1667.96,-239.333 1667.96,-239.333 1667.96,-235.667 1671.63,-232 1675.3,-232 1675.3,-232 1748.7,-232 1748.7,-232 1752.37,-232 1756.04,-235.667 1756.04,-239.333 1756.04,-239.333 1756.04,-246.667 1756.04,-246.667 1756.04,-250.333 1752.37,-254 1748.7,-254"/>
<text text-anchor="middle" x="1712" y="-239.4" font-family="Helvetica,sans-Serif" font-size="12.00" fill="white">CollectionType</text>
</a>
</g>
</g>
<!-- CollectionType&#45;&gt;AnyBidirectionalCollection -->
<g id="edge1" class="edge">
<path fill="none" stroke="#cccccc" d="M1667.81,-241.437C1433.45,-238.343 343.955,-222.572 278,-196 190.354,-160.69 116.187,-69.8322 87.1291,-30.5507"/>
<polygon fill="#cccccc" stroke="#cccccc" points="89.7365,-28.185 81.0264,-22.1529 84.0738,-32.3001 89.7365,-28.185"/>
</g>
<!-- CollectionType&#45;&gt;AnyCollectionType -->
<g id="edge2" class="edge">
<path fill="none" stroke="#cccccc" d="M1667.78,-241.747C1435.71,-240.271 366.825,-231.556 307,-196 267.552,-172.554 246.905,-119.332 238.185,-90.1196"/>
<polygon fill="#cccccc" stroke="#cccccc" points="241.478,-88.8984 235.413,-80.2114 234.737,-90.7846 241.478,-88.8984"/>
</g>
<!-- CollectionType&#45;&gt;AnyForwardCollection -->
<g id="edge3" class="edge">
<path fill="none" stroke="#cccccc" d="M1667.7,-241.56C1466.95,-239.389 647.678,-228.59 538,-196 476.381,-177.69 313.904,-69.2934 253.263,-27.9805"/>
<polygon fill="#cccccc" stroke="#cccccc" points="254.988,-24.9202 244.756,-22.1697 251.039,-30.7004 254.988,-24.9202"/>
</g>
<!-- CollectionType&#45;&gt;AnyRandomAccessCollection -->
<g id="edge4" class="edge">
<path fill="none" stroke="#cccccc" d="M1667.72,-242.098C1470.81,-242.278 679.919,-240.221 579,-196 497.369,-160.23 432.28,-70.3188 406.716,-30.9547"/>
<polygon fill="#cccccc" stroke="#cccccc" points="409.403,-28.658 401.083,-22.0996 403.497,-32.4156 409.403,-28.658"/>
</g>
<!-- CollectionType&#45;&gt;Array -->
<g id="edge5" class="edge">
<path fill="none" stroke="#cccccc" d="M1667.7,-241.663C1476.9,-240.004 730.494,-231.293 632,-196 564.245,-171.722 538.735,-149.216 519,-80 514.544,-64.3704 516.306,-45.9465 518.898,-32.2211"/>
<polygon fill="#cccccc" stroke="#cccccc" points="522.336,-32.8807 521.051,-22.3641 515.497,-31.3864 522.336,-32.8807"/>
</g>
<!-- CollectionType&#45;&gt;ArraySlice -->
<g id="edge6" class="edge">
<path fill="none" stroke="#cccccc" d="M1667.76,-241.176C1485.54,-237.619 798.317,-222.55 705,-196 654.096,-181.517 627.802,-183.636 601,-138 581.613,-104.991 588.732,-58.2314 595.177,-31.9463"/>
<polygon fill="#cccccc" stroke="#cccccc" points="598.626,-32.5986 597.819,-22.0345 591.862,-30.7957 598.626,-32.5986"/>
</g>
<!-- CollectionType&#45;&gt;CollectionOfOne -->
<g id="edge7" class="edge">
<path fill="none" stroke="#cccccc" d="M1697.46,-231.877C1684.24,-222.628 1664.22,-208.526 1647,-196 1563.26,-135.065 1465.01,-60.702 1422.45,-28.344"/>
<polygon fill="#cccccc" stroke="#cccccc" points="1424.32,-25.3661 1414.24,-22.0966 1420.08,-30.937 1424.32,-25.3661"/>
</g>
<!-- ContiguousArray -->
<g id="node9" class="node">
<g id="a_node9"><a xlink:href="/v2.0/type/ContiguousArray/" target="_top">
<polygon fill="#999999" stroke="#999999" points="750.534,-22 651.466,-22 651.466,-0 750.534,-0 750.534,-22"/>
<text text-anchor="middle" x="701" y="-7.4" font-family="Helvetica,sans-Serif" font-size="12.00" fill="white">ContiguousArray</text>
</a>
</g>
</g>
<!-- CollectionType&#45;&gt;ContiguousArray -->
<g id="edge8" class="edge">
<path fill="none" stroke="#cccccc" d="M1667.87,-239.09C1600.68,-234.021 1469.06,-221.574 1360,-196 1253.4,-171.003 1231.71,-147.994 1127,-116 1031.94,-86.9545 1007.58,-81.5299 911,-58 860.14,-45.6085 801.975,-32.9873 759.776,-24.1076"/>
<polygon fill="#cccccc" stroke="#cccccc" points="760.452,-20.6733 749.946,-22.0462 759.015,-27.5243 760.452,-20.6733"/>
</g>
<!-- Dictionary -->
<g id="node10" class="node">
<g id="a_node10"><a xlink:href="/v2.0/type/Dictionary/" target="_top">
<polygon fill="#999999" stroke="#999999" points="1531.51,-22 1468.49,-22 1468.49,-0 1531.51,-0 1531.51,-22"/>
<text text-anchor="middle" x="1500" y="-7.4" font-family="Helvetica,sans-Serif" font-size="12.00" fill="white">Dictionary</text>
</a>
</g>
</g>
<!-- CollectionType&#45;&gt;Dictionary -->
<g id="edge9" class="edge">
<path fill="none" stroke="#cccccc" d="M1702.62,-231.82C1669.58,-195.973 1558.34,-75.2938 1516.29,-29.6701"/>
<polygon fill="#cccccc" stroke="#cccccc" points="1518.63,-27.0429 1509.27,-22.062 1513.48,-31.7871 1518.63,-27.0429"/>
</g>
<!-- DictionaryLiteral -->
<g id="node11" class="node">
<g id="a_node11"><a xlink:href="/v2.0/type/DictionaryLiteral/" target="_top">
<polygon fill="#999999" stroke="#999999" points="1646.02,-22 1549.98,-22 1549.98,-0 1646.02,-0 1646.02,-22"/>
<text text-anchor="middle" x="1598" y="-7.4" font-family="Helvetica,sans-Serif" font-size="12.00" fill="white">DictionaryLiteral</text>
</a>
</g>
</g>
<!-- CollectionType&#45;&gt;DictionaryLiteral -->
<g id="edge10" class="edge">
<path fill="none" stroke="#cccccc" d="M1706.95,-231.82C1689.37,-196.345 1630.61,-77.7884 1607.47,-31.114"/>
<polygon fill="#cccccc" stroke="#cccccc" points="1610.56,-29.4675 1602.99,-22.062 1604.29,-32.5762 1610.56,-29.4675"/>
</g>
<!-- EmptyCollection -->
<g id="node12" class="node">
<g id="a_node12"><a xlink:href="/v2.0/type/EmptyCollection/" target="_top">
<polygon fill="#999999" stroke="#999999" points="1760.03,-22 1663.97,-22 1663.97,-0 1760.03,-0 1760.03,-22"/>
<text text-anchor="middle" x="1712" y="-7.4" font-family="Helvetica,sans-Serif" font-size="12.00" fill="white">EmptyCollection</text>
</a>
</g>
</g>
<!-- CollectionType&#45;&gt;EmptyCollection -->
<g id="edge11" class="edge">
<path fill="none" stroke="#cccccc" d="M1712,-231.82C1712,-196.642 1712,-79.7709 1712,-32.3033"/>
<polygon fill="#cccccc" stroke="#cccccc" points="1715.5,-32.062 1712,-22.062 1708.5,-32.0621 1715.5,-32.062"/>
</g>
<!-- FlattenBidirectionalCollection -->
<g id="node13" class="node">
<g id="a_node13"><a xlink:href="/v2.0/type/FlattenBidirectionalCollection/" target="_top">
<polygon fill="#999999" stroke="#999999" points="1943.06,-22 1778.94,-22 1778.94,-0 1943.06,-0 1943.06,-22"/>
<text text-anchor="middle" x="1861" y="-7.4" font-family="Helvetica,sans-Serif" font-size="12.00" fill="white">FlattenBidirectionalCollection</text>
</a>
</g>
</g>
<!-- CollectionType&#45;&gt;FlattenBidirectionalCollection -->
<g id="edge12" class="edge">
<path fill="none" stroke="#cccccc" d="M1718.59,-231.82C1741.67,-196.196 1819.03,-76.7927 1849,-30.5307"/>
<polygon fill="#cccccc" stroke="#cccccc" points="1851.98,-32.3578 1854.48,-22.062 1846.11,-28.5518 1851.98,-32.3578"/>
</g>
<!-- FlattenCollection -->
<g id="node14" class="node">
<g id="a_node14"><a xlink:href="/v2.0/type/FlattenCollection/" target="_top">
<polygon fill="#999999" stroke="#999999" points="2060.53,-22 1961.47,-22 1961.47,-0 2060.53,-0 2060.53,-22"/>
<text text-anchor="middle" x="2011" y="-7.4" font-family="Helvetica,sans-Serif" font-size="12.00" fill="white">FlattenCollection</text>
</a>
</g>
</g>
<!-- CollectionType&#45;&gt;FlattenCollection -->
<g id="edge13" class="edge">
<path fill="none" stroke="#cccccc" d="M1725.23,-231.82C1772.32,-195.601 1931.98,-72.781 1989.84,-28.2747"/>
<polygon fill="#cccccc" stroke="#cccccc" points="1992.13,-30.9334 1997.92,-22.062 1987.86,-25.385 1992.13,-30.9334"/>
</g>
<!-- LazyCollection -->
<g id="node16" class="node">
<g id="a_node16"><a xlink:href="/v2.0/type/LazyCollection/" target="_top">
<polygon fill="#999999" stroke="#999999" points="2167.03,-22 2078.97,-22 2078.97,-0 2167.03,-0 2167.03,-22"/>
<text text-anchor="middle" x="2123" y="-7.4" font-family="Helvetica,sans-Serif" font-size="12.00" fill="white">LazyCollection</text>
</a>
</g>
</g>
<!-- CollectionType&#45;&gt;LazyCollection -->
<g id="edge14" class="edge">
<path fill="none" stroke="#cccccc" d="M1731.68,-231.97C1749.59,-222.784 1776.7,-208.722 1800,-196 1911.38,-135.192 2042.21,-59.2469 2096.91,-27.2894"/>
<polygon fill="#cccccc" stroke="#cccccc" points="2098.75,-30.2654 2105.62,-22.1961 2095.22,-24.2227 2098.75,-30.2654"/>
</g>
<!-- LazyCollectionType -->
<g id="node17" class="node">
<g id="a_node17"><a xlink:href="/v2.0/protocol/LazyCollectionType/" target="_top">
<path fill="#999999" stroke="#999999" d="M2197.71,-80C2197.71,-80 2098.29,-80 2098.29,-80 2094.62,-80 2090.95,-76.3333 2090.95,-72.6667 2090.95,-72.6667 2090.95,-65.3333 2090.95,-65.3333 2090.95,-61.6667 2094.62,-58 2098.29,-58 2098.29,-58 2197.71,-58 2197.71,-58 2201.38,-58 2205.05,-61.6667 2205.05,-65.3333 2205.05,-65.3333 2205.05,-72.6667 2205.05,-72.6667 2205.05,-76.3333 2201.38,-80 2197.71,-80"/>
<text text-anchor="middle" x="2148" y="-65.4" font-family="Helvetica,sans-Serif" font-size="12.00" fill="white">LazyCollectionType</text>
</a>
</g>
</g>
<!-- CollectionType&#45;&gt;LazyCollectionType -->
<g id="edge15" class="edge">
<path fill="none" stroke="#cccccc" d="M1756.06,-241.175C1840.8,-238.829 2022.64,-229.879 2074,-196 2112.12,-170.857 2133.22,-118.777 2142.39,-90.0718"/>
<polygon fill="#cccccc" stroke="#cccccc" points="2145.79,-90.9042 2145.33,-80.3196 2139.09,-88.8837 2145.79,-90.9042"/>
</g>
<!-- LazyFilterCollection -->
<g id="node18" class="node">
<g id="a_node18"><a xlink:href="/v2.0/type/LazyFilterCollection/" target="_top">
<polygon fill="#999999" stroke="#999999" points="2299.03,-22 2184.97,-22 2184.97,-0 2299.03,-0 2299.03,-22"/>
<text text-anchor="middle" x="2242" y="-7.4" font-family="Helvetica,sans-Serif" font-size="12.00" fill="white">LazyFilterCollection</text>
</a>
</g>
</g>
<!-- CollectionType&#45;&gt;LazyFilterCollection -->
<g id="edge16" class="edge">
<path fill="none" stroke="#cccccc" d="M1756.11,-240.429C1844.59,-236.688 2040.32,-225.276 2100,-196 2164.9,-164.165 2174.17,-140.318 2214,-80 2223.87,-65.0583 2231.33,-46.0786 2236.06,-31.9701"/>
<polygon fill="#cccccc" stroke="#cccccc" points="2239.44,-32.8685 2239.13,-22.2782 2232.77,-30.7496 2239.44,-32.8685"/>
</g>
<!-- LazyMapCollection -->
<g id="node19" class="node">
<g id="a_node19"><a xlink:href="/v2.0/type/LazyMapCollection/" target="_top">
<polygon fill="#999999" stroke="#999999" points="2428.54,-22 2317.46,-22 2317.46,-0 2428.54,-0 2428.54,-22"/>
<text text-anchor="middle" x="2373" y="-7.4" font-family="Helvetica,sans-Serif" font-size="12.00" fill="white">LazyMapCollection</text>
</a>
</g>
</g>
<!-- CollectionType&#45;&gt;LazyMapCollection -->
<g id="edge17" class="edge">
<path fill="none" stroke="#cccccc" d="M1756.28,-240.176C1850,-235.828 2065.36,-223.132 2133,-196 2229.5,-157.295 2320.31,-68.3732 2356.49,-30.0817"/>
<polygon fill="#cccccc" stroke="#cccccc" points="2359.49,-32.0066 2363.75,-22.3062 2354.37,-27.2324 2359.49,-32.0066"/>
</g>
<!-- MutableCollectionType -->
<g id="node20" class="node">
<g id="a_node20"><a xlink:href="/v2.0/protocol/MutableCollectionType/" target="_top">
<path fill="#999999" stroke="#999999" d="M876.221,-196C876.221,-196 759.779,-196 759.779,-196 756.112,-196 752.446,-192.333 752.446,-188.667 752.446,-188.667 752.446,-181.333 752.446,-181.333 752.446,-177.667 756.112,-174 759.779,-174 759.779,-174 876.221,-174 876.221,-174 879.888,-174 883.554,-177.667 883.554,-181.333 883.554,-181.333 883.554,-188.667 883.554,-188.667 883.554,-192.333 879.888,-196 876.221,-196"/>
<text text-anchor="middle" x="818" y="-181.4" font-family="Helvetica,sans-Serif" font-size="12.00" fill="white">MutableCollectionType</text>
</a>
</g>
</g>
<!-- CollectionType&#45;&gt;MutableCollectionType -->
<g id="edge18" class="edge">
<path fill="none" stroke="#cccccc" d="M1667.67,-239.223C1524.58,-230.26 1073.91,-202.03 893.627,-190.737"/>
<polygon fill="#cccccc" stroke="#cccccc" points="893.637,-187.231 883.438,-190.099 893.2,-194.217 893.637,-187.231"/>
</g>
<!-- MutableSlice -->
<g id="node21" class="node">
<g id="a_node21"><a xlink:href="/v2.0/type/MutableSlice/" target="_top">
<polygon fill="#999999" stroke="#999999" points="1155.03,-22 1076.97,-22 1076.97,-0 1155.03,-0 1155.03,-22"/>
<text text-anchor="middle" x="1116" y="-7.4" font-family="Helvetica,sans-Serif" font-size="12.00" fill="white">MutableSlice</text>
</a>
</g>
</g>
<!-- CollectionType&#45;&gt;MutableSlice -->
<g id="edge19" class="edge">
<path fill="none" stroke="#cccccc" d="M1677.76,-231.982C1648.21,-223.138 1604.5,-209.573 1567,-196 1407.57,-138.295 1221.23,-58.1137 1147.92,-26.0589"/>
<polygon fill="#cccccc" stroke="#cccccc" points="1149.31,-22.8453 1138.75,-22.0388 1146.5,-29.2571 1149.31,-22.8453"/>
</g>
<!-- MutableSliceable -->
<g id="node22" class="node">
<g id="a_node22"><a xlink:href="/v2.0/protocol/MutableSliceable/" target="_top">
<path fill="#999999" stroke="#999999" d="M704.208,-138C704.208,-138 617.792,-138 617.792,-138 614.126,-138 610.459,-134.333 610.459,-130.667 610.459,-130.667 610.459,-123.333 610.459,-123.333 610.459,-119.667 614.126,-116 617.792,-116 617.792,-116 704.208,-116 704.208,-116 707.874,-116 711.541,-119.667 711.541,-123.333 711.541,-123.333 711.541,-130.667 711.541,-130.667 711.541,-134.333 707.874,-138 704.208,-138"/>
<text text-anchor="middle" x="661" y="-123.4" font-family="Helvetica,sans-Serif" font-size="12.00" fill="white">MutableSliceable</text>
</a>
</g>
</g>
<!-- CollectionType&#45;&gt;MutableSliceable -->
<g id="edge20" class="edge">
<path fill="none" stroke="#cccccc" d="M1667.78,-241.545C1489.62,-239.491 829.807,-229.658 743,-196 715.982,-185.524 691.318,-162.398 676.249,-146.031"/>
<polygon fill="#cccccc" stroke="#cccccc" points="678.54,-143.341 669.281,-138.192 673.308,-147.991 678.54,-143.341"/>
</g>
<!-- Range -->
<g id="node23" class="node">
<g id="a_node23"><a xlink:href="/v2.0/type/Range/" target="_top">
<polygon fill="#999999" stroke="#999999" points="2501,-22 2447,-22 2447,-0 2501,-0 2501,-22"/>
<text text-anchor="middle" x="2474" y="-7.4" font-family="Helvetica,sans-Serif" font-size="12.00" fill="white">Range</text>
</a>
</g>
</g>
<!-- CollectionType&#45;&gt;Range -->
<g id="edge21" class="edge">
<path fill="none" stroke="#cccccc" d="M1756.16,-240.046C1855.52,-235.25 2093.91,-221.399 2170,-196 2287.62,-156.737 2407.94,-65.7068 2454.21,-28.3981"/>
<polygon fill="#cccccc" stroke="#cccccc" points="2456.43,-31.1081 2461.98,-22.0815 2452.01,-25.6786 2456.43,-31.1081"/>
</g>
<!-- RangeReplaceableCollectionType -->
<g id="node24" class="node">
<g id="a_node24"><a xlink:href="/v2.0/protocol/RangeReplaceableCollectionType/" target="_top">
<path fill="#999999" stroke="#999999" d="M1110.76,-138C1110.76,-138 935.24,-138 935.24,-138 931.573,-138 927.906,-134.333 927.906,-130.667 927.906,-130.667 927.906,-123.333 927.906,-123.333 927.906,-119.667 931.573,-116 935.24,-116 935.24,-116 1110.76,-116 1110.76,-116 1114.43,-116 1118.09,-119.667 1118.09,-123.333 1118.09,-123.333 1118.09,-130.667 1118.09,-130.667 1118.09,-134.333 1114.43,-138 1110.76,-138"/>
<text text-anchor="middle" x="1023" y="-123.4" font-family="Helvetica,sans-Serif" font-size="12.00" fill="white">RangeReplaceableCollectionType</text>
</a>
</g>
</g>
<!-- CollectionType&#45;&gt;RangeReplaceableCollectionType -->
<g id="edge22" class="edge">
<path fill="none" stroke="#cccccc" d="M1667.59,-240.219C1555.55,-235.41 1263.68,-220.818 1170,-196 1125.31,-184.161 1077.39,-159.481 1048.82,-143.337"/>
<polygon fill="#cccccc" stroke="#cccccc" points="1050.32,-140.163 1039.91,-138.22 1046.84,-146.234 1050.32,-140.163"/>
</g>
<!-- Repeat -->
<g id="node25" class="node">
<g id="a_node25"><a xlink:href="/v2.0/type/Repeat/" target="_top">
<polygon fill="#999999" stroke="#999999" points="2573,-22 2519,-22 2519,-0 2573,-0 2573,-22"/>
<text text-anchor="middle" x="2546" y="-7.4" font-family="Helvetica,sans-Serif" font-size="12.00" fill="white">Repeat</text>
</a>
</g>
</g>
<!-- CollectionType&#45;&gt;Repeat -->
<g id="edge23" class="edge">
<path fill="none" stroke="#cccccc" d="M1756.09,-240.058C1861.73,-235.065 2126.85,-220.434 2212,-196 2267.02,-180.212 2276.62,-165.173 2327,-138 2397.92,-99.7521 2479.82,-51.5197 2520.43,-27.3241"/>
<polygon fill="#cccccc" stroke="#cccccc" points="2522.35,-30.2542 2529.14,-22.1236 2518.76,-24.2434 2522.35,-30.2542"/>
</g>
<!-- ReverseCollection -->
<g id="node26" class="node">
<g id="a_node26"><a xlink:href="/v2.0/type/ReverseCollection/" target="_top">
<polygon fill="#999999" stroke="#999999" points="2698.53,-22 2591.47,-22 2591.47,-0 2698.53,-0 2698.53,-22"/>
<text text-anchor="middle" x="2645" y="-7.4" font-family="Helvetica,sans-Serif" font-size="12.00" fill="white">ReverseCollection</text>
</a>
</g>
</g>
<!-- CollectionType&#45;&gt;ReverseCollection -->
<g id="edge24" class="edge">
<path fill="none" stroke="#cccccc" d="M1756.42,-240.256C1868.48,-235.532 2160.4,-221.126 2254,-196 2400.84,-156.582 2560.23,-64.2635 2620.27,-27.5027"/>
<polygon fill="#cccccc" stroke="#cccccc" points="2622.37,-30.3244 2629.04,-22.0964 2618.69,-24.3662 2622.37,-30.3244"/>
</g>
<!-- ReverseRandomAccessCollection -->
<g id="node27" class="node">
<g id="a_node27"><a xlink:href="/v2.0/type/ReverseRandomAccessCollection/" target="_top">
<polygon fill="#999999" stroke="#999999" points="2907.56,-22 2716.44,-22 2716.44,-0 2907.56,-0 2907.56,-22"/>
<text text-anchor="middle" x="2812" y="-7.4" font-family="Helvetica,sans-Serif" font-size="12.00" fill="white">ReverseRandomAccessCollection</text>
</a>
</g>
</g>
<!-- CollectionType&#45;&gt;ReverseRandomAccessCollection -->
<g id="edge25" class="edge">
<path fill="none" stroke="#cccccc" d="M1756.08,-241.408C1925.52,-238.906 2529.46,-227.818 2609,-196 2696.5,-160.998 2770.15,-69.9718 2798.98,-30.5981"/>
<polygon fill="#cccccc" stroke="#cccccc" points="2802.04,-32.3419 2805.03,-22.1799 2796.35,-28.2548 2802.04,-32.3419"/>
</g>
<!-- Set -->
<g id="node29" class="node">
<g id="a_node29"><a xlink:href="/v2.0/type/Set/" target="_top">
<polygon fill="#999999" stroke="#999999" points="2980,-22 2926,-22 2926,-0 2980,-0 2980,-22"/>
<text text-anchor="middle" x="2953" y="-7.4" font-family="Helvetica,sans-Serif" font-size="12.00" fill="white">Set</text>
</a>
</g>
</g>
<!-- CollectionType&#45;&gt;Set -->
<g id="edge26" class="edge">
<path fill="none" stroke="#cccccc" d="M1756.16,-241.074C1929.56,-237.268 2558.56,-221.796 2644,-196 2764.42,-159.646 2886.67,-66.5587 2933.3,-28.5454"/>
<polygon fill="#cccccc" stroke="#cccccc" points="2935.61,-31.1736 2941.11,-22.1146 2931.16,-25.7702 2935.61,-31.1736"/>
</g>
<!-- Slice -->
<g id="node30" class="node">
<g id="a_node30"><a xlink:href="/v2.0/type/Slice/" target="_top">
<polygon fill="#999999" stroke="#999999" points="3052,-22 2998,-22 2998,-0 3052,-0 3052,-22"/>
<text text-anchor="middle" x="3025" y="-7.4" font-family="Helvetica,sans-Serif" font-size="12.00" fill="white">Slice</text>
</a>
</g>
</g>
<!-- CollectionType&#45;&gt;Slice -->
<g id="edge27" class="edge">
<path fill="none" stroke="#cccccc" d="M1756.17,-242.201C1921.87,-242.602 2506.22,-240.74 2686,-196 2817.76,-163.208 2953.48,-66.9267 3004.22,-28.3044"/>
<polygon fill="#cccccc" stroke="#cccccc" points="3006.36,-31.0733 3012.15,-22.2037 3002.09,-25.5237 3006.36,-31.0733"/>
</g>
<!-- String.CharacterView -->
<g id="node31" class="node">
<g id="a_node31"><a xlink:href="/v2.0/type/String.CharacterView/" target="_top">
<polygon fill="#999999" stroke="#999999" points="1058.38,-22 935.624,-22 935.624,-0 1058.38,-0 1058.38,-22"/>
<text text-anchor="middle" x="997" y="-7.4" font-family="Helvetica,sans-Serif" font-size="12.00" fill="white">String.CharacterView</text>
</a>
</g>
</g>
<!-- CollectionType&#45;&gt;String.CharacterView -->
<g id="edge32" class="edge">
<path fill="none" stroke="#cccccc" d="M1667.69,-234.117C1626.01,-226.206 1562.09,-212.799 1508,-196 1382.49,-157.018 1352.78,-140.292 1236,-80 1218.66,-71.0472 1216.16,-65.1458 1198,-58 1156.57,-41.6955 1107.94,-30.3754 1068.9,-23.0453"/>
<polygon fill="#cccccc" stroke="#cccccc" points="1069.14,-19.5314 1058.67,-21.175 1067.88,-26.4172 1069.14,-19.5314"/>
</g>
<!-- String.UTF16View -->
<g id="node32" class="node">
<g id="a_node32"><a xlink:href="/v2.0/type/String.UTF16View/" target="_top">
<polygon fill="#999999" stroke="#999999" points="3177.37,-22 3070.63,-22 3070.63,-0 3177.37,-0 3177.37,-22"/>
<text text-anchor="middle" x="3124" y="-7.4" font-family="Helvetica,sans-Serif" font-size="12.00" fill="white">String.UTF16View</text>
</a>
</g>
</g>
<!-- CollectionType&#45;&gt;String.UTF16View -->
<g id="edge34" class="edge">
<path fill="none" stroke="#cccccc" d="M1756.24,-242.149C1927.11,-242.393 2543.91,-240.129 2734,-196 2882.48,-161.531 3041.48,-65.4985 3100.34,-27.6348"/>
<polygon fill="#cccccc" stroke="#cccccc" points="3102.42,-30.4541 3108.91,-22.0756 3098.61,-24.5814 3102.42,-30.4541"/>
</g>
<!-- String.UTF8View -->
<g id="node33" class="node">
<g id="a_node33"><a xlink:href="/v2.0/type/String.UTF8View/" target="_top">
<polygon fill="#999999" stroke="#999999" points="3296.36,-22 3195.64,-22 3195.64,-0 3296.36,-0 3296.36,-22"/>
<text text-anchor="middle" x="3246" y="-7.4" font-family="Helvetica,sans-Serif" font-size="12.00" fill="white">String.UTF8View</text>
</a>
</g>
</g>
<!-- CollectionType&#45;&gt;String.UTF8View -->
<g id="edge35" class="edge">
<path fill="none" stroke="#cccccc" d="M1756.31,-242.032C1932.63,-241.86 2584.52,-238.314 2786,-196 2855.55,-181.394 2868.96,-164.231 2935,-138 3036.08,-97.8519 3155.14,-49.2478 3212.19,-25.875"/>
<polygon fill="#cccccc" stroke="#cccccc" points="3213.53,-29.1094 3221.45,-22.0784 3210.87,-22.6323 3213.53,-29.1094"/>
</g>
<!-- String.UnicodeScalarView -->
<g id="node34" class="node">
<g id="a_node34"><a xlink:href="/v2.0/type/String.UnicodeScalarView/" target="_top">
<polygon fill="#999999" stroke="#999999" points="916.892,-22 769.108,-22 769.108,-0 916.892,-0 916.892,-22"/>
<text text-anchor="middle" x="843" y="-7.4" font-family="Helvetica,sans-Serif" font-size="12.00" fill="white">String.UnicodeScalarView</text>
</a>
</g>
</g>
<!-- CollectionType&#45;&gt;String.UnicodeScalarView -->
<g id="edge33" class="edge">
<path fill="none" stroke="#cccccc" d="M1667.6,-236.652C1613.22,-229.614 1518.53,-215.775 1439,-196 1329.48,-168.766 1305.73,-149.648 1198,-116 1087.51,-81.4876 956.619,-44.0176 888.832,-24.8641"/>
<polygon fill="#cccccc" stroke="#cccccc" points="889.478,-21.4097 878.903,-22.0621 887.576,-28.1465 889.478,-21.4097"/>
</g>
<!-- UnicodeScalar.UTF16View -->
<g id="node35" class="node">
<g id="a_node35"><a xlink:href="/v2.0/type/UnicodeScalar.UTF16View/" target="_top">
<polygon fill="#999999" stroke="#999999" points="3467.39,-22 3314.61,-22 3314.61,-0 3467.39,-0 3467.39,-22"/>
<text text-anchor="middle" x="3391" y="-7.4" font-family="Helvetica,sans-Serif" font-size="12.00" fill="white">UnicodeScalar.UTF16View</text>
</a>
</g>
</g>
<!-- CollectionType&#45;&gt;UnicodeScalar.UTF16View -->
<g id="edge28" class="edge">
<path fill="none" stroke="#cccccc" d="M1756.11,-241.83C1936.98,-240.88 2622.4,-234.746 2835,-196 3040.91,-158.475 3275.17,-62.3274 3359.05,-26.097"/>
<polygon fill="#cccccc" stroke="#cccccc" points="3360.52,-29.276 3368.3,-22.0827 3357.73,-22.8551 3360.52,-29.276"/>
</g>
<!-- UnsafeBufferPointer -->
<g id="node36" class="node">
<g id="a_node36"><a xlink:href="/v2.0/type/UnsafeBufferPointer/" target="_top">
<polygon fill="#999999" stroke="#999999" points="3603.39,-22 3486.61,-22 3486.61,-0 3603.39,-0 3603.39,-22"/>
<text text-anchor="middle" x="3545" y="-7.4" font-family="Helvetica,sans-Serif" font-size="12.00" fill="white">UnsafeBufferPointer</text>
</a>
</g>
</g>
<!-- CollectionType&#45;&gt;UnsafeBufferPointer -->
<g id="edge29" class="edge">
<path fill="none" stroke="#cccccc" d="M1756.25,-241.619C1943.41,-239.799 2670.71,-230.602 2897,-196 2994.41,-181.105 3016.12,-164.627 3111,-138 3254.14,-97.827 3423.16,-48.0908 3501.33,-24.9597"/>
<polygon fill="#cccccc" stroke="#cccccc" points="3502.7,-28.2034 3511.29,-22.0082 3500.71,-21.4915 3502.7,-28.2034"/>
</g>
<!-- UnsafeMutableBufferPointer -->
<g id="node37" class="node">
<g id="a_node37"><a xlink:href="/v2.0/type/UnsafeMutableBufferPointer/" target="_top">
<polygon fill="#999999" stroke="#999999" points="1333.91,-22 1174.09,-22 1174.09,-0 1333.91,-0 1333.91,-22"/>
<text text-anchor="middle" x="1254" y="-7.4" font-family="Helvetica,sans-Serif" font-size="12.00" fill="white">UnsafeMutableBufferPointer</text>
</a>
</g>
</g>
<!-- CollectionType&#45;&gt;UnsafeMutableBufferPointer -->
<g id="edge30" class="edge">
<path fill="none" stroke="#cccccc" d="M1690.1,-231.978C1670.18,-222.797 1639.99,-208.738 1614,-196 1489.26,-134.867 1342.23,-58.2852 1281.93,-26.6788"/>
<polygon fill="#cccccc" stroke="#cccccc" points="1283.49,-23.5473 1273.01,-22.0016 1280.24,-29.7463 1283.49,-23.5473"/>
</g>
<!-- _ReverseCollectionType -->
<g id="node40" class="node">
<g id="a_node40"><a xlink:href="/v2.0/protocol/_ReverseCollectionType/" target="_top">
<path fill="#999999" stroke="#999999" d="M2727.72,-80C2727.72,-80 2602.28,-80 2602.28,-80 2598.61,-80 2594.95,-76.3333 2594.95,-72.6667 2594.95,-72.6667 2594.95,-65.3333 2594.95,-65.3333 2594.95,-61.6667 2598.61,-58 2602.28,-58 2602.28,-58 2727.72,-58 2727.72,-58 2731.39,-58 2735.05,-61.6667 2735.05,-65.3333 2735.05,-65.3333 2735.05,-72.6667 2735.05,-72.6667 2735.05,-76.3333 2731.39,-80 2727.72,-80"/>
<text text-anchor="middle" x="2665" y="-65.4" font-family="Helvetica,sans-Serif" font-size="12.00" fill="white">_ReverseCollectionType</text>
</a>
</g>
</g>
<!-- CollectionType&#45;&gt;_ReverseCollectionType -->
<g id="edge31" class="edge">
<path fill="none" stroke="#cccccc" d="M1756.13,-241.963C1922.93,-241.51 2509.05,-236.991 2581,-196 2622.5,-172.355 2647.41,-118.807 2658.37,-89.7107"/>
<polygon fill="#cccccc" stroke="#cccccc" points="2661.7,-90.7926 2661.78,-80.1981 2655.11,-88.4291 2661.7,-90.7926"/>
</g>
<!-- Indexable -->
<g id="node15" class="node">
<g id="a_node15"><a xlink:href="/v2.0/protocol/Indexable/" target="_top">
<path fill="#999999" stroke="#999999" d="M1688.7,-312C1688.7,-312 1641.3,-312 1641.3,-312 1637.63,-312 1633.97,-308.333 1633.97,-304.667 1633.97,-304.667 1633.97,-297.333 1633.97,-297.333 1633.97,-293.667 1637.63,-290 1641.3,-290 1641.3,-290 1688.7,-290 1688.7,-290 1692.37,-290 1696.03,-293.667 1696.03,-297.333 1696.03,-297.333 1696.03,-304.667 1696.03,-304.667 1696.03,-308.333 1692.37,-312 1688.7,-312"/>
<text text-anchor="middle" x="1665" y="-297.4" font-family="Helvetica,sans-Serif" font-size="12.00" fill="white">Indexable</text>
</a>
</g>
</g>
<!-- Indexable&#45;&gt;CollectionType -->
<g id="edge64" class="edge">
<path fill="none" stroke="#cccccc" d="M1673.4,-289.988C1679.87,-282.281 1688.99,-271.419 1696.74,-262.187"/>
<polygon fill="#cccccc" stroke="#cccccc" points="1699.6,-264.214 1703.35,-254.304 1694.24,-259.714 1699.6,-264.214"/>
</g>
<!-- LazyCollectionType&#45;&gt;LazyCollection -->
<g id="edge39" class="edge">
<path fill="none" stroke="#cccccc" d="M2143.53,-57.9883C2140.27,-50.6738 2135.73,-40.5192 2131.76,-31.6122"/>
<polygon fill="#cccccc" stroke="#cccccc" points="2134.87,-30.0085 2127.6,-22.3039 2128.48,-32.8621 2134.87,-30.0085"/>
</g>
<!-- LazyCollectionType&#45;&gt;LazyFilterCollection -->
<g id="edge40" class="edge">
<path fill="none" stroke="#cccccc" d="M2164.81,-57.9883C2179.15,-49.441 2200.01,-37.0155 2216.43,-27.2343"/>
<polygon fill="#cccccc" stroke="#cccccc" points="2218.22,-30.2388 2225.02,-22.1138 2214.64,-24.2251 2218.22,-30.2388"/>
</g>
<!-- LazyCollectionType&#45;&gt;LazyMapCollection -->
<g id="edge41" class="edge">
<path fill="none" stroke="#cccccc" d="M2188.23,-57.9883C2225.86,-48.6206 2282.22,-34.5944 2322.79,-24.4966"/>
<polygon fill="#cccccc" stroke="#cccccc" points="2323.89,-27.8309 2332.74,-22.0192 2322.19,-21.0381 2323.89,-27.8309"/>
</g>
<!-- MutableCollectionType&#45;&gt;Array -->
<g id="edge42" class="edge">
<path fill="none" stroke="#cccccc" d="M752.302,-178.162C707.881,-172.306 648.829,-160.722 601,-138 563.884,-120.367 548.086,-116.39 529,-80 521.364,-65.4416 520.542,-46.6671 521.387,-32.5352"/>
<polygon fill="#cccccc" stroke="#cccccc" points="524.892,-32.6452 522.325,-22.3661 517.921,-32.0026 524.892,-32.6452"/>
</g>
<!-- MutableCollectionType&#45;&gt;ArraySlice -->
<g id="edge43" class="edge">
<path fill="none" stroke="#cccccc" d="M811.211,-173.857C795.195,-150.587 752.789,-92.704 705,-58 686.055,-44.2421 662.343,-33.3591 642.348,-25.64"/>
<polygon fill="#cccccc" stroke="#cccccc" points="643.46,-22.3194 632.867,-22.106 641.015,-28.8785 643.46,-22.3194"/>
</g>
<!-- MutableCollectionType&#45;&gt;ContiguousArray -->
<g id="edge44" class="edge">
<path fill="none" stroke="#cccccc" d="M812.782,-173.989C808.158,-164.815 801.466,-150.761 797,-138 784.895,-103.407 798.762,-87.4895 777,-58 766.933,-44.3589 751.5,-33.9513 737.164,-26.5154"/>
<polygon fill="#cccccc" stroke="#cccccc" points="738.494,-23.2705 727.969,-22.0539 735.438,-29.5683 738.494,-23.2705"/>
</g>
<!-- MutableCollectionType&#45;&gt;MutableSlice -->
<g id="edge45" class="edge">
<path fill="none" stroke="#cccccc" d="M883.667,-183.857C964.889,-182.121 1096.23,-173.686 1127,-138 1152.56,-108.359 1137.19,-58.9172 1125.5,-31.613"/>
<polygon fill="#cccccc" stroke="#cccccc" points="1128.61,-29.9857 1121.3,-22.3198 1122.23,-32.8732 1128.61,-29.9857"/>
</g>
<!-- MutableCollectionType&#45;&gt;MutableSliceable -->
<g id="edge46" class="edge">
<path fill="none" stroke="#cccccc" d="M789.932,-173.988C764.447,-164.898 726.666,-151.422 698.583,-141.405"/>
<polygon fill="#cccccc" stroke="#cccccc" points="699.684,-138.082 689.09,-138.019 697.333,-144.675 699.684,-138.082"/>
</g>
<!-- MutableCollectionType&#45;&gt;UnsafeMutableBufferPointer -->
<g id="edge47" class="edge">
<path fill="none" stroke="#cccccc" d="M883.397,-180.355C966.062,-174.814 1102.91,-162.25 1147,-138 1192.66,-112.886 1227.38,-60.0026 1243.71,-31.3819"/>
<polygon fill="#cccccc" stroke="#cccccc" points="1246.92,-32.7998 1248.7,-22.3555 1240.8,-29.4103 1246.92,-32.7998"/>
</g>
<!-- _ArrayBufferType -->
<g id="node38" class="node">
<g id="a_node38"><a xlink:href="/v2.0/protocol/_ArrayBufferType/" target="_top">
<path fill="#999999" stroke="#999999" d="M902.044,-138C902.044,-138 813.956,-138 813.956,-138 810.29,-138 806.623,-134.333 806.623,-130.667 806.623,-130.667 806.623,-123.333 806.623,-123.333 806.623,-119.667 810.29,-116 813.956,-116 813.956,-116 902.044,-116 902.044,-116 905.71,-116 909.377,-119.667 909.377,-123.333 909.377,-123.333 909.377,-130.667 909.377,-130.667 909.377,-134.333 905.71,-138 902.044,-138"/>
<text text-anchor="middle" x="858" y="-123.4" font-family="Helvetica,sans-Serif" font-size="12.00" fill="white">_ArrayBufferType</text>
</a>
</g>
</g>
<!-- MutableCollectionType&#45;&gt;_ArrayBufferType -->
<g id="edge48" class="edge">
<path fill="none" stroke="#cccccc" d="M825.151,-173.988C830.601,-166.359 838.257,-155.64 844.807,-146.47"/>
<polygon fill="#cccccc" stroke="#cccccc" points="847.676,-148.476 850.64,-138.304 841.98,-144.407 847.676,-148.476"/>
</g>
<!-- MutableSliceable&#45;&gt;Array -->
<g id="edge49" class="edge">
<path fill="none" stroke="#cccccc" d="M610.471,-116.415C587.7,-109.72 562.137,-98.5291 545,-80 532.966,-66.9891 527.825,-47.2104 525.63,-32.3326"/>
<polygon fill="#cccccc" stroke="#cccccc" points="529.074,-31.6417 524.461,-22.104 522.119,-32.4369 529.074,-31.6417"/>
</g>
<!-- MutableSliceable&#45;&gt;ArraySlice -->
<g id="edge50" class="edge">
<path fill="none" stroke="#cccccc" d="M647.513,-115.766C637.305,-107.292 623.759,-94.3474 616,-80 608.013,-65.2322 604.278,-46.4755 602.531,-32.4036"/>
<polygon fill="#cccccc" stroke="#cccccc" points="605.997,-31.8879 601.514,-22.2884 599.032,-32.5885 605.997,-31.8879"/>
</g>
<!-- MutableSliceable&#45;&gt;ContiguousArray -->
<g id="edge51" class="edge">
<path fill="none" stroke="#cccccc" d="M675.494,-115.771C685.893,-107.478 699.074,-94.7692 705,-80 711.116,-64.758 709.419,-46.0416 706.586,-32.1058"/>
<polygon fill="#cccccc" stroke="#cccccc" points="709.927,-31.0251 704.199,-22.1123 703.118,-32.6519 709.927,-31.0251"/>
</g>
<!-- _ArrayType -->
<g id="node39" class="node">
<g id="a_node39"><a xlink:href="/v2.0/protocol/_ArrayType/" target="_top">
<path fill="#999999" stroke="#999999" d="M689.19,-80C689.19,-80 632.81,-80 632.81,-80 629.144,-80 625.477,-76.3333 625.477,-72.6667 625.477,-72.6667 625.477,-65.3333 625.477,-65.3333 625.477,-61.6667 629.144,-58 632.81,-58 632.81,-58 689.19,-58 689.19,-58 692.856,-58 696.523,-61.6667 696.523,-65.3333 696.523,-65.3333 696.523,-72.6667 696.523,-72.6667 696.523,-76.3333 692.856,-80 689.19,-80"/>
<text text-anchor="middle" x="661" y="-65.4" font-family="Helvetica,sans-Serif" font-size="12.00" fill="white">_ArrayType</text>
</a>
</g>
</g>
<!-- MutableSliceable&#45;&gt;_ArrayType -->
<g id="edge52" class="edge">
<path fill="none" stroke="#cccccc" d="M661,-115.988C661,-108.91 661,-99.1714 661,-90.4779"/>
<polygon fill="#cccccc" stroke="#cccccc" points="664.5,-90.3038 661,-80.3039 657.5,-90.3039 664.5,-90.3038"/>
</g>
<!-- RangeReplaceableCollectionType&#45;&gt;Array -->
<g id="edge56" class="edge">
<path fill="none" stroke="#cccccc" d="M927.658,-116.48C811.934,-104.738 630.343,-85.6378 616,-80 586.93,-68.5731 558.857,-45.5233 541.526,-29.4434"/>
<polygon fill="#cccccc" stroke="#cccccc" points="543.576,-26.5614 533.924,-22.191 538.744,-31.6262 543.576,-26.5614"/>
</g>
<!-- RangeReplaceableCollectionType&#45;&gt;ArraySlice -->
<g id="edge57" class="edge">
<path fill="none" stroke="#cccccc" d="M987.192,-115.932C939.343,-102.518 851.883,-78.1344 777,-58 731.337,-45.7222 678.886,-32.0716 643.205,-22.8535"/>
<polygon fill="#cccccc" stroke="#cccccc" points="643.709,-19.3689 633.152,-20.2588 641.96,-26.1468 643.709,-19.3689"/>
</g>
<!-- RangeReplaceableCollectionType&#45;&gt;ContiguousArray -->
<g id="edge58" class="edge">
<path fill="none" stroke="#cccccc" d="M1003.25,-115.961C974.636,-101.699 919.743,-75.3772 871,-58 833.155,-44.508 789.37,-32.7468 755.715,-24.4945"/>
<polygon fill="#cccccc" stroke="#cccccc" points="756.156,-21.0002 745.613,-22.0481 754.508,-27.8036 756.156,-21.0002"/>
</g>
<!-- RangeReplaceableCollectionType&#45;&gt;String.CharacterView -->
<g id="edge60" class="edge">
<path fill="none" stroke="#cccccc" d="M1028.65,-115.585C1035.24,-101.999 1044.35,-77.6438 1037,-58 1032.94,-47.1456 1025.04,-37.1608 1017.32,-29.2876"/>
<polygon fill="#cccccc" stroke="#cccccc" points="1019.47,-26.509 1009.81,-22.1642 1014.66,-31.5866 1019.47,-26.509"/>
</g>
<!-- RangeReplaceableCollectionType&#45;&gt;String.UnicodeScalarView -->
<g id="edge61" class="edge">
<path fill="none" stroke="#cccccc" d="M1013.02,-115.742C998.729,-101.452 971.136,-75.3564 944,-58 924.005,-45.2108 899.866,-34.0784 880.201,-25.9698"/>
<polygon fill="#cccccc" stroke="#cccccc" points="881.243,-22.6159 870.659,-22.1254 878.627,-29.1088 881.243,-22.6159"/>
</g>
<!-- RangeReplaceableCollectionType&#45;&gt;_ArrayType -->
<g id="edge59" class="edge">
<path fill="none" stroke="#cccccc" d="M958.282,-115.988C885.848,-104.783 770.329,-86.9127 706.721,-77.0729"/>
<polygon fill="#cccccc" stroke="#cccccc" points="707.014,-73.5767 696.597,-75.5067 705.944,-80.4944 707.014,-73.5767"/>
</g>
<!-- SequenceType -->
<g id="node28" class="node">
<g id="a_node28"><a xlink:href="/v2.0/protocol/SequenceType/" target="_top">
<path fill="#999999" stroke="#999999" d="M1796.72,-312C1796.72,-312 1721.28,-312 1721.28,-312 1717.62,-312 1713.95,-308.333 1713.95,-304.667 1713.95,-304.667 1713.95,-297.333 1713.95,-297.333 1713.95,-293.667 1717.62,-290 1721.28,-290 1721.28,-290 1796.72,-290 1796.72,-290 1800.38,-290 1804.05,-293.667 1804.05,-297.333 1804.05,-297.333 1804.05,-304.667 1804.05,-304.667 1804.05,-308.333 1800.38,-312 1796.72,-312"/>
<text text-anchor="middle" x="1759" y="-297.4" font-family="Helvetica,sans-Serif" font-size="12.00" fill="white">SequenceType</text>
</a>
</g>
</g>
<!-- SequenceType&#45;&gt;CollectionType -->
<g id="edge65" class="edge">
<path fill="none" stroke="#cccccc" d="M1750.6,-289.988C1744.13,-282.281 1735.01,-271.419 1727.26,-262.187"/>
<polygon fill="#cccccc" stroke="#cccccc" points="1729.76,-259.714 1720.65,-254.304 1724.4,-264.214 1729.76,-259.714"/>
</g>
<!-- _ArrayType&#45;&gt;Array -->
<g id="edge53" class="edge">
<path fill="none" stroke="#cccccc" d="M636.507,-57.9883C614.725,-49.0849 582.649,-35.9733 558.313,-26.0259"/>
<polygon fill="#cccccc" stroke="#cccccc" points="559.324,-22.6578 548.743,-22.1138 556.675,-29.1374 559.324,-22.6578"/>
</g>
<!-- _ArrayType&#45;&gt;ArraySlice -->
<g id="edge54" class="edge">
<path fill="none" stroke="#cccccc" d="M650.273,-57.9883C641.762,-50.0446 629.662,-38.7512 619.583,-29.3439"/>
<polygon fill="#cccccc" stroke="#cccccc" points="621.739,-26.5684 612.04,-22.3039 616.962,-31.6858 621.739,-26.5684"/>
</g>
<!-- _ArrayType&#45;&gt;ContiguousArray -->
<g id="edge55" class="edge">
<path fill="none" stroke="#cccccc" d="M668.151,-57.9883C673.601,-50.3592 681.257,-39.6405 687.807,-30.4702"/>
<polygon fill="#cccccc" stroke="#cccccc" points="690.676,-32.4756 693.64,-22.3039 684.98,-28.4069 690.676,-32.4756"/>
</g>
<!-- _ReverseCollectionType&#45;&gt;ReverseCollection -->
<g id="edge62" class="edge">
<path fill="none" stroke="#cccccc" d="M2661.42,-57.9883C2658.84,-50.7525 2655.26,-40.7373 2652.11,-31.9"/>
<polygon fill="#cccccc" stroke="#cccccc" points="2655.34,-30.5441 2648.68,-22.3039 2648.75,-32.8985 2655.34,-30.5441"/>
</g>
<!-- _ReverseCollectionType&#45;&gt;ReverseRandomAccessCollection -->
<g id="edge63" class="edge">
<path fill="none" stroke="#cccccc" d="M2691.28,-57.9883C2714.86,-49.0057 2749.68,-35.7398 2775.88,-25.7614"/>
<polygon fill="#cccccc" stroke="#cccccc" points="2777.35,-28.9445 2785.45,-22.1138 2774.86,-22.4031 2777.35,-28.9445"/>
</g>
</g>
</svg>
