<?xml version="1.0" encoding="UTF-8" standalone="no"?>
<!DOCTYPE svg PUBLIC "-//W3C//DTD SVG 1.1//EN"
 "http://www.w3.org/Graphics/SVG/1.1/DTD/svg11.dtd">
<!-- Generated by graphviz version 2.36.0 (20140111.2315)
 -->
<!-- Title: Indexable &#45; Type Hierarchy &#45; SwiftDoc.org Pages: 1 -->
<svg width="3688pt" height="427pt"
 viewBox="0.00 0.00 3688.40 427.20" xmlns="http://www.w3.org/2000/svg" xmlns:xlink="http://www.w3.org/1999/xlink">
<g id="graph0" class="graph" transform="scale(1 1) rotate(0) translate(7.2 369.6)">
<g transform="translate(0 -369.6)">
<g>
    <path fill="#666666" d="M13.846,10.832c-0.336-0.464-0.792-0.844-1.368-1.14s-1.224-0.444-1.944-0.444
        c-0.384,0-0.772,0.052-1.164,0.156C8.977,9.509,8.622,9.677,8.301,9.908c-0.32,0.232-0.58,0.52-0.78,0.864
        c-0.2,0.344-0.3,0.756-0.3,1.236c0,0.464,0.092,0.852,0.276,1.164c0.184,0.312,0.432,0.576,0.744,0.792s0.68,0.4,1.104,0.552
        c0.423,0.152,0.876,0.309,1.356,0.468c0.576,0.177,1.16,0.376,1.752,0.601c0.592,0.224,1.128,0.52,1.608,0.888
        s0.872,0.828,1.176,1.38s0.456,1.252,0.456,2.101c0,0.88-0.164,1.644-0.492,2.292c-0.328,0.647-0.765,1.184-1.308,1.607
        c-0.544,0.424-1.172,0.74-1.884,0.948s-1.444,0.312-2.196,0.312c-1.072,0-2.108-0.208-3.108-0.624
        c-1-0.415-1.828-1.031-2.484-1.848l1.848-1.56c0.4,0.592,0.936,1.071,1.608,1.439c0.672,0.368,1.399,0.552,2.184,0.552
        c0.4,0,0.8-0.056,1.2-0.168c0.4-0.111,0.764-0.288,1.092-0.527c0.328-0.24,0.596-0.54,0.804-0.9
        c0.208-0.36,0.312-0.796,0.312-1.308s-0.108-0.94-0.324-1.284c-0.216-0.344-0.508-0.636-0.876-0.876s-0.796-0.444-1.284-0.612
        c-0.488-0.168-1.004-0.34-1.548-0.516c-0.544-0.16-1.08-0.356-1.608-0.588c-0.528-0.232-1-0.528-1.416-0.889
        c-0.416-0.359-0.752-0.804-1.008-1.332c-0.256-0.527-0.384-1.184-0.384-1.968c0-0.848,0.172-1.576,0.516-2.184
        c0.344-0.608,0.792-1.112,1.344-1.512c0.552-0.4,1.176-0.692,1.872-0.876c0.696-0.184,1.396-0.276,2.1-0.276
        c0.992,0,1.92,0.176,2.784,0.528c0.864,0.352,1.56,0.824,2.088,1.416L13.846,10.832z"/>
    <path fill="#666666" d="M18.813,13.304l2.568,8.688h0.048l2.712-8.688h2.376l2.76,8.688h0.048l2.568-8.688h2.376L30.501,24.68
        h-2.352l-2.808-8.544h-0.048l-2.784,8.544h-2.352l-3.792-11.376H18.813z"/>
    <path fill="#666666" d="M38.685,9.2c0,0.416-0.147,0.76-0.44,1.032c-0.294,0.272-0.647,0.408-1.06,0.408s-0.762-0.14-1.047-0.42
        c-0.286-0.28-0.429-0.62-0.429-1.02c0-0.416,0.143-0.764,0.429-1.044c0.286-0.28,0.635-0.42,1.047-0.42s0.766,0.14,1.06,0.42
        C38.538,8.437,38.685,8.784,38.685,9.2z M38.325,24.68h-2.256V13.304h2.256V24.68z"/>
    <path fill="#666666" d="M47.613,15.152h-2.64v9.528h-2.256v-9.528h-2.256v-1.848h2.256v-2.376c0-0.672,0.076-1.292,0.228-1.86
        c0.152-0.568,0.4-1.06,0.744-1.476c0.344-0.416,0.784-0.744,1.32-0.984c0.536-0.24,1.188-0.36,1.956-0.36
        c0.544,0,1.016,0.056,1.416,0.168l-0.264,1.944c-0.176-0.048-0.352-0.088-0.528-0.12c-0.176-0.032-0.376-0.048-0.6-0.048
        c-0.432,0-0.78,0.076-1.044,0.228c-0.264,0.152-0.468,0.356-0.612,0.612s-0.24,0.548-0.288,0.876
        c-0.048,0.328-0.072,0.668-0.072,1.02v2.376h2.64V15.152z"/>
    <path fill="#666666" d="M54.909,15.152h-3.024v5.91c0,0.687,0.128,1.177,0.384,1.472c0.256,0.295,0.664,0.442,1.224,0.442
        c0.208,0,0.432-0.021,0.672-0.065c0.24-0.044,0.456-0.11,0.648-0.198l0.072,1.848c-0.272,0.096-0.572,0.172-0.9,0.229
        c-0.328,0.056-0.668,0.084-1.02,0.084c-1.072,0-1.892-0.296-2.46-0.889c-0.568-0.592-0.852-1.479-0.852-2.664v-6.168h-2.184
        v-1.848h2.184V10.04h2.232v3.264h3.024V15.152z"/>
    <path fill="#666666" d="M57.356,7.688h5.832c1.088,0,2.176,0.16,3.264,0.48c1.088,0.32,2.072,0.824,2.952,1.512
        s1.592,1.568,2.136,2.64c0.544,1.072,0.816,2.36,0.816,3.864c0,1.456-0.272,2.716-0.816,3.78s-1.256,1.943-2.136,2.64
        s-1.864,1.216-2.952,1.561c-1.088,0.344-2.176,0.516-3.264,0.516h-5.832V7.688z M59.732,22.593h2.976
        c1.024,0,1.972-0.145,2.844-0.432c0.872-0.288,1.624-0.704,2.256-1.248c0.632-0.544,1.124-1.216,1.476-2.017
        c0.352-0.8,0.528-1.704,0.528-2.712c0-1.056-0.176-1.983-0.528-2.784c-0.353-0.8-0.844-1.468-1.476-2.004
        c-0.632-0.536-1.384-0.944-2.256-1.224s-1.82-0.42-2.844-0.42h-2.976V22.593z"/>
    <path fill="#666666" d="M86.06,18.969c0,0.88-0.156,1.688-0.468,2.424c-0.312,0.736-0.744,1.372-1.296,1.908
        c-0.552,0.536-1.204,0.952-1.956,1.248c-0.752,0.296-1.56,0.443-2.424,0.443c-0.864,0-1.672-0.147-2.424-0.443
        c-0.752-0.296-1.4-0.712-1.944-1.248c-0.544-0.536-0.972-1.172-1.284-1.908c-0.312-0.735-0.468-1.544-0.468-2.424
        s0.156-1.684,0.468-2.412c0.312-0.728,0.74-1.356,1.284-1.884c0.543-0.528,1.191-0.939,1.944-1.236
        c0.752-0.296,1.56-0.444,2.424-0.444c0.864,0,1.672,0.148,2.424,0.444c0.752,0.297,1.404,0.708,1.956,1.236
        c0.552,0.527,0.984,1.156,1.296,1.884C85.904,17.285,86.06,18.089,86.06,18.969z M83.708,18.98c0-0.542-0.084-1.061-0.252-1.556
        c-0.169-0.494-0.414-0.929-0.734-1.304s-0.718-0.674-1.192-0.897s-1.015-0.335-1.625-0.335c-0.61,0-1.152,0.111-1.625,0.335
        c-0.474,0.224-0.871,0.522-1.191,0.897c-0.321,0.375-0.566,0.81-0.734,1.304C76.184,17.92,76.1,18.438,76.1,18.98
        c0,0.543,0.084,1.062,0.253,1.556c0.168,0.495,0.413,0.934,0.734,1.316c0.321,0.383,0.718,0.686,1.191,0.909
        c0.473,0.224,1.015,0.335,1.625,0.335c0.61,0,1.151-0.111,1.625-0.335s0.871-0.526,1.192-0.909s0.565-0.821,0.734-1.316
        C83.624,20.042,83.708,19.523,83.708,18.98z"/>
    <path fill="#666666" d="M96.428,16.184c-0.24-0.368-0.6-0.676-1.08-0.924s-0.992-0.372-1.536-0.372
        c-0.592,0-1.116,0.112-1.572,0.336c-0.456,0.225-0.844,0.524-1.164,0.9c-0.32,0.376-0.564,0.812-0.732,1.308
        s-0.252,1.017-0.252,1.56c0,0.545,0.084,1.064,0.252,1.561s0.412,0.933,0.732,1.308c0.32,0.376,0.712,0.677,1.176,0.9
        c0.464,0.225,0.992,0.336,1.584,0.336c0.576,0,1.1-0.111,1.572-0.336c0.472-0.224,0.86-0.528,1.164-0.912l1.512,1.368
        c-0.48,0.561-1.08,0.996-1.8,1.308c-0.72,0.312-1.536,0.468-2.448,0.468c-0.88,0-1.692-0.144-2.436-0.432
        c-0.744-0.288-1.388-0.691-1.932-1.212c-0.544-0.52-0.972-1.147-1.284-1.884s-0.468-1.561-0.468-2.473
        c0-0.896,0.152-1.711,0.456-2.447c0.304-0.736,0.728-1.368,1.272-1.896c0.543-0.527,1.188-0.936,1.932-1.224
        c0.744-0.288,1.548-0.433,2.412-0.433c0.8,0,1.596,0.16,2.388,0.48s1.419,0.784,1.884,1.392L96.428,16.184z"/>
    <path fill="#666666" d="M103.1,23.24c0,0.417-0.152,0.784-0.456,1.104c-0.304,0.32-0.688,0.479-1.152,0.479
        c-0.448,0-0.828-0.155-1.14-0.468c-0.312-0.312-0.468-0.676-0.468-1.092c0-0.432,0.152-0.804,0.456-1.116
        c0.304-0.312,0.688-0.468,1.152-0.468c0.464,0,0.848,0.152,1.152,0.456C102.947,22.44,103.1,22.808,103.1,23.24z"/>
    <path fill="#666666" d="M116.635,18.969c0,0.88-0.156,1.688-0.468,2.424c-0.312,0.736-0.744,1.372-1.296,1.908
        c-0.552,0.536-1.204,0.952-1.956,1.248c-0.752,0.296-1.56,0.443-2.424,0.443c-0.864,0-1.672-0.147-2.424-0.443
        c-0.752-0.296-1.4-0.712-1.944-1.248c-0.544-0.536-0.972-1.172-1.284-1.908c-0.312-0.735-0.468-1.544-0.468-2.424
        s0.156-1.684,0.468-2.412c0.312-0.728,0.74-1.356,1.284-1.884c0.543-0.528,1.191-0.939,1.944-1.236
        c0.752-0.296,1.56-0.444,2.424-0.444c0.864,0,1.672,0.148,2.424,0.444c0.752,0.297,1.404,0.708,1.956,1.236
        c0.552,0.527,0.984,1.156,1.296,1.884C116.479,17.285,116.635,18.089,116.635,18.969z M114.283,18.98
        c0-0.542-0.084-1.061-0.252-1.556c-0.169-0.494-0.414-0.929-0.734-1.304s-0.718-0.674-1.192-0.897s-1.015-0.335-1.625-0.335
        c-0.61,0-1.152,0.111-1.625,0.335c-0.474,0.224-0.871,0.522-1.191,0.897c-0.321,0.375-0.566,0.81-0.734,1.304
        c-0.169,0.495-0.253,1.014-0.253,1.556c0,0.543,0.084,1.062,0.253,1.556c0.168,0.495,0.413,0.934,0.734,1.316
        c0.321,0.383,0.718,0.686,1.191,0.909c0.473,0.224,1.015,0.335,1.625,0.335c0.61,0,1.151-0.111,1.625-0.335
        s0.871-0.526,1.192-0.909s0.565-0.821,0.734-1.316C114.199,20.042,114.283,19.523,114.283,18.98z"/>
    <path fill="#666666" d="M119.251,14.577c-0.016-0.48-0.04-0.904-0.072-1.272h2.136c0.032,0.288,0.056,0.62,0.072,0.996
        c0.016,0.376,0.024,0.684,0.024,0.924h0.072c0.32-0.672,0.788-1.212,1.404-1.62c0.616-0.408,1.308-0.612,2.076-0.612
        c0.352,0,0.648,0.033,0.888,0.097l-0.096,2.088c-0.32-0.08-0.664-0.12-1.032-0.12c-0.544,0-1.016,0.101-1.416,0.3
        c-0.4,0.2-0.732,0.468-0.996,0.805c-0.264,0.336-0.46,0.724-0.588,1.163c-0.128,0.44-0.192,0.9-0.192,1.381v5.976h-2.256v-8.928
        C119.275,15.449,119.267,15.056,119.251,14.577z"/>
    <path fill="#666666" d="M128.419,26.625c0.496,0.56,1.116,1.008,1.86,1.344c0.744,0.336,1.508,0.504,2.292,0.504
        c0.752,0,1.384-0.108,1.896-0.324s0.924-0.512,1.236-0.888s0.536-0.82,0.672-1.332c0.136-0.513,0.204-1.064,0.204-1.656v-1.464
        h-0.048c-0.416,0.641-0.984,1.128-1.704,1.464c-0.72,0.336-1.488,0.504-2.304,0.504c-0.864,0-1.652-0.151-2.364-0.456
        c-0.712-0.304-1.316-0.72-1.812-1.248c-0.496-0.527-0.88-1.147-1.152-1.859s-0.408-1.477-0.408-2.292
        c0-0.816,0.136-1.584,0.408-2.305c0.272-0.72,0.656-1.348,1.152-1.884c0.496-0.535,1.096-0.96,1.8-1.271
        c0.704-0.312,1.488-0.469,2.352-0.469c0.816,0,1.596,0.177,2.34,0.528c0.744,0.353,1.332,0.888,1.764,1.608h0.048v-1.824h2.184
        v10.8c0,0.832-0.104,1.628-0.312,2.388c-0.208,0.76-0.56,1.433-1.056,2.017s-1.144,1.052-1.944,1.404
        c-0.8,0.352-1.792,0.527-2.976,0.527c-0.992,0-1.988-0.18-2.988-0.54c-1-0.359-1.86-0.868-2.58-1.523L128.419,26.625z
         M129.091,18.873c0,0.527,0.084,1.031,0.253,1.512c0.168,0.479,0.417,0.904,0.746,1.271c0.329,0.369,0.726,0.664,1.192,0.889
        c0.465,0.224,0.995,0.336,1.589,0.336c0.577,0,1.107-0.104,1.589-0.312c0.481-0.207,0.891-0.491,1.228-0.852
        s0.598-0.784,0.782-1.272c0.185-0.487,0.277-1.012,0.277-1.571c0-0.544-0.093-1.057-0.277-1.536
        c-0.185-0.48-0.449-0.904-0.794-1.272c-0.345-0.367-0.755-0.66-1.228-0.876c-0.474-0.216-1-0.324-1.577-0.324
        c-0.594,0-1.124,0.108-1.589,0.324c-0.466,0.216-0.863,0.504-1.192,0.864s-0.578,0.784-0.746,1.271
        C129.175,17.812,129.091,18.329,129.091,18.873z"/>
</g>
<g><a xlink:href="/" pointer-events="all" target="_top"><polygon fill="none" points="0,0 145,0 145,35 0,35 0,0"/></a></g>

</g>


<!-- AnyBidirectionalCollection -->
<g id="node1" class="node">
<g id="a_node1"><a xlink:href="/swift-2/type/AnyBidirectionalCollection/" target="_top">
<polygon fill="#999999" stroke="#999999" points="1405.05,-22 1256.95,-22 1256.95,-0 1405.05,-0 1405.05,-22"/>
<text text-anchor="middle" x="1331" y="-7.4" font-family="Helvetica,sans-Serif" font-size="12.00" fill="white">AnyBidirectionalCollection</text>
</a>
</g>
</g>
<!-- AnyCollectionType -->
<g id="node2" class="node">
<g id="a_node2"><a xlink:href="/swift-2/protocol/AnyCollectionType/" target="_top">
<path fill="#999999" stroke="#999999" d="M1723.21,-80C1723.21,-80 1628.79,-80 1628.79,-80 1625.12,-80 1621.46,-76.3333 1621.46,-72.6667 1621.46,-72.6667 1621.46,-65.3333 1621.46,-65.3333 1621.46,-61.6667 1625.12,-58 1628.79,-58 1628.79,-58 1723.21,-58 1723.21,-58 1726.88,-58 1730.54,-61.6667 1730.54,-65.3333 1730.54,-65.3333 1730.54,-72.6667 1730.54,-72.6667 1730.54,-76.3333 1726.88,-80 1723.21,-80"/>
<text text-anchor="middle" x="1676" y="-65.4" font-family="Helvetica,sans-Serif" font-size="12.00" fill="white">AnyCollectionType</text>
</a>
</g>
</g>
<!-- AnyCollectionType&#45;&gt;AnyBidirectionalCollection -->
<g id="edge63" class="edge">
<path fill="none" stroke="#cccccc" d="M1621.33,-59.1266C1562.27,-49.5392 1467.9,-34.2208 1402.87,-23.6652"/>
<polygon fill="#cccccc" stroke="#cccccc" points="1403.12,-20.1611 1392.69,-22.0136 1402,-27.0707 1403.12,-20.1611"/>
</g>
<!-- AnyForwardCollection -->
<g id="node3" class="node">
<g id="a_node3"><a xlink:href="/swift-2/type/AnyForwardCollection/" target="_top">
<polygon fill="#999999" stroke="#999999" points="1550.54,-22 1423.46,-22 1423.46,-0 1550.54,-0 1550.54,-22"/>
<text text-anchor="middle" x="1487" y="-7.4" font-family="Helvetica,sans-Serif" font-size="12.00" fill="white">AnyForwardCollection</text>
</a>
</g>
</g>
<!-- AnyCollectionType&#45;&gt;AnyForwardCollection -->
<g id="edge64" class="edge">
<path fill="none" stroke="#cccccc" d="M1642.21,-57.9883C1611,-48.7397 1564.46,-34.9502 1530.48,-24.8836"/>
<polygon fill="#cccccc" stroke="#cccccc" points="1531.4,-21.5044 1520.81,-22.0192 1529.41,-28.216 1531.4,-21.5044"/>
</g>
<!-- AnyRandomAccessCollection -->
<g id="node4" class="node">
<g id="a_node4"><a xlink:href="/swift-2/type/AnyRandomAccessCollection/" target="_top">
<polygon fill="#999999" stroke="#999999" points="1735.55,-22 1568.45,-22 1568.45,-0 1735.55,-0 1735.55,-22"/>
<text text-anchor="middle" x="1652" y="-7.4" font-family="Helvetica,sans-Serif" font-size="12.00" fill="white">AnyRandomAccessCollection</text>
</a>
</g>
</g>
<!-- AnyCollectionType&#45;&gt;AnyRandomAccessCollection -->
<g id="edge65" class="edge">
<path fill="none" stroke="#cccccc" d="M1671.71,-57.9883C1668.57,-50.6738 1664.22,-40.5192 1660.41,-31.6122"/>
<polygon fill="#cccccc" stroke="#cccccc" points="1663.57,-30.1166 1656.42,-22.3039 1657.14,-32.8741 1663.57,-30.1166"/>
</g>
<!-- Array -->
<g id="node5" class="node">
<g id="a_node5"><a xlink:href="/swift-2/type/Array/" target="_top">
<polygon fill="#999999" stroke="#999999" points="937,-22 883,-22 883,-0 937,-0 937,-22"/>
<text text-anchor="middle" x="910" y="-7.4" font-family="Helvetica,sans-Serif" font-size="12.00" fill="white">Array</text>
</a>
</g>
</g>
<!-- ArraySlice -->
<g id="node6" class="node">
<g id="a_node6"><a xlink:href="/swift-2/type/ArraySlice/" target="_top">
<polygon fill="#999999" stroke="#999999" points="670.011,-22 605.989,-22 605.989,-0 670.011,-0 670.011,-22"/>
<text text-anchor="middle" x="638" y="-7.4" font-family="Helvetica,sans-Serif" font-size="12.00" fill="white">ArraySlice</text>
</a>
</g>
</g>
<!-- CollectionOfOne -->
<g id="node7" class="node">
<g id="a_node7"><a xlink:href="/swift-2/type/CollectionOfOne/" target="_top">
<polygon fill="#999999" stroke="#999999" points="1239.03,-22 1140.97,-22 1140.97,-0 1239.03,-0 1239.03,-22"/>
<text text-anchor="middle" x="1190" y="-7.4" font-family="Helvetica,sans-Serif" font-size="12.00" fill="white">CollectionOfOne</text>
</a>
</g>
</g>
<!-- CollectionType -->
<g id="node8" class="node">
<g id="a_node8"><a xlink:href="/swift-2/protocol/CollectionType/" target="_top">
<path fill="#999999" stroke="#999999" d="M1814.7,-254C1814.7,-254 1741.3,-254 1741.3,-254 1737.63,-254 1733.96,-250.333 1733.96,-246.667 1733.96,-246.667 1733.96,-239.333 1733.96,-239.333 1733.96,-235.667 1737.63,-232 1741.3,-232 1741.3,-232 1814.7,-232 1814.7,-232 1818.37,-232 1822.04,-235.667 1822.04,-239.333 1822.04,-239.333 1822.04,-246.667 1822.04,-246.667 1822.04,-250.333 1818.37,-254 1814.7,-254"/>
<text text-anchor="middle" x="1778" y="-239.4" font-family="Helvetica,sans-Serif" font-size="12.00" fill="white">CollectionType</text>
</a>
</g>
</g>
<!-- CollectionType&#45;&gt;AnyBidirectionalCollection -->
<g id="edge30" class="edge">
<path fill="none" stroke="#cccccc" d="M1758.64,-231.861C1742.31,-223.046 1718.55,-209.589 1699,-196 1659.33,-168.423 1574.36,-79.3132 1531,-58 1495.2,-40.4009 1452.45,-29.3969 1415.69,-22.5855"/>
<polygon fill="#cccccc" stroke="#cccccc" points="1415.94,-19.0766 1405.49,-20.7736 1414.72,-25.9687 1415.94,-19.0766"/>
</g>
<!-- CollectionType&#45;&gt;AnyCollectionType -->
<g id="edge31" class="edge">
<path fill="none" stroke="#cccccc" d="M1770.03,-231.653C1763.1,-222.49 1752.96,-208.644 1745,-196 1721.88,-159.266 1698.31,-114.249 1685.58,-89.1857"/>
<polygon fill="#cccccc" stroke="#cccccc" points="1688.6,-87.3895 1680.97,-80.0362 1682.35,-90.5411 1688.6,-87.3895"/>
</g>
<!-- CollectionType&#45;&gt;AnyForwardCollection -->
<g id="edge32" class="edge">
<path fill="none" stroke="#cccccc" d="M1766.7,-231.798C1726.31,-195.39 1590.45,-73.1994 1569,-58 1552.41,-46.244 1532.55,-35.0383 1516.54,-26.6304"/>
<polygon fill="#cccccc" stroke="#cccccc" points="1518.09,-23.4954 1507.6,-22.0202 1514.88,-29.7161 1518.09,-23.4954"/>
</g>
<!-- CollectionType&#45;&gt;AnyRandomAccessCollection -->
<g id="edge33" class="edge">
<path fill="none" stroke="#cccccc" d="M1779.14,-231.988C1782.8,-197.787 1792.98,-86.1425 1773,-58 1762.02,-42.5378 1745.14,-32.2709 1727.43,-25.4545"/>
<polygon fill="#cccccc" stroke="#cccccc" points="1728.14,-21.9942 1717.54,-22.0115 1725.84,-28.605 1728.14,-21.9942"/>
</g>
<!-- CollectionType&#45;&gt;Array -->
<g id="edge34" class="edge">
<path fill="none" stroke="#cccccc" d="M1733.59,-236.221C1682.16,-229.023 1595.14,-215.28 1522,-196 1432.5,-172.406 1218.31,-82.329 1129,-58 1052.15,-37.0634 1028.5,-40.7652 947.268,-22.1437"/>
<polygon fill="#cccccc" stroke="#cccccc" points="947.604,-18.6278 937.069,-19.7589 946.01,-25.444 947.604,-18.6278"/>
</g>
<!-- CollectionType&#45;&gt;ArraySlice -->
<g id="edge35" class="edge">
<path fill="none" stroke="#cccccc" d="M1733.77,-242.046C1520.67,-241.784 607.072,-234.985 532,-138 500.034,-96.7035 567.67,-50.1823 609.032,-26.9228"/>
<polygon fill="#cccccc" stroke="#cccccc" points="610.824,-29.932 617.911,-22.0569 607.46,-23.7933 610.824,-29.932"/>
</g>
<!-- CollectionType&#45;&gt;CollectionOfOne -->
<g id="edge36" class="edge">
<path fill="none" stroke="#cccccc" d="M1748.3,-231.907C1725.79,-223.686 1694.49,-211.007 1669,-196 1626.17,-170.783 1538.67,-77.6025 1493,-58 1394.83,-15.8633 1358.8,-37.9589 1249.17,-22.0859"/>
<polygon fill="#cccccc" stroke="#cccccc" points="1249.45,-18.5885 1239.03,-20.5421 1248.39,-25.5086 1249.45,-18.5885"/>
</g>
<!-- ContiguousArray -->
<g id="node9" class="node">
<g id="a_node9"><a xlink:href="/swift-2/type/ContiguousArray/" target="_top">
<polygon fill="#999999" stroke="#999999" points="864.534,-22 765.466,-22 765.466,-0 864.534,-0 864.534,-22"/>
<text text-anchor="middle" x="815" y="-7.4" font-family="Helvetica,sans-Serif" font-size="12.00" fill="white">ContiguousArray</text>
</a>
</g>
</g>
<!-- CollectionType&#45;&gt;ContiguousArray -->
<g id="edge37" class="edge">
<path fill="none" stroke="#cccccc" d="M1733.89,-237.772C1670.9,-231.283 1551.77,-217.337 1452,-196 1221.56,-146.716 952.318,-58.5883 853.7,-25.2591"/>
<polygon fill="#cccccc" stroke="#cccccc" points="854.746,-21.918 844.152,-22.0228 852.499,-28.5476 854.746,-21.918"/>
</g>
<!-- Dictionary -->
<g id="node10" class="node">
<g id="a_node10"><a xlink:href="/swift-2/type/Dictionary/" target="_top">
<polygon fill="#999999" stroke="#999999" points="62.5113,-22 -0.511305,-22 -0.511305,-0 62.5113,-0 62.5113,-22"/>
<text text-anchor="middle" x="31" y="-7.4" font-family="Helvetica,sans-Serif" font-size="12.00" fill="white">Dictionary</text>
</a>
</g>
</g>
<!-- CollectionType&#45;&gt;Dictionary -->
<g id="edge38" class="edge">
<path fill="none" stroke="#cccccc" d="M1733.77,-241.509C1516.15,-238.956 564.519,-226.14 436,-196 282.952,-160.108 117.24,-64.9651 55.7617,-27.486"/>
<polygon fill="#cccccc" stroke="#cccccc" points="57.4864,-24.4379 47.1337,-22.1858 53.8223,-30.4024 57.4864,-24.4379"/>
</g>
<!-- DictionaryLiteral -->
<g id="node11" class="node">
<g id="a_node11"><a xlink:href="/swift-2/type/DictionaryLiteral/" target="_top">
<polygon fill="#999999" stroke="#999999" points="1051.02,-22 954.975,-22 954.975,-0 1051.02,-0 1051.02,-22"/>
<text text-anchor="middle" x="1003" y="-7.4" font-family="Helvetica,sans-Serif" font-size="12.00" fill="white">DictionaryLiteral</text>
</a>
</g>
</g>
<!-- CollectionType&#45;&gt;DictionaryLiteral -->
<g id="edge39" class="edge">
<path fill="none" stroke="#cccccc" d="M1733.8,-233.912C1693.68,-226.033 1633.14,-212.798 1582,-196 1496.12,-167.789 1479.91,-147.019 1395,-116 1312.07,-85.7033 1290.32,-80.7058 1205,-58 1156.94,-45.2095 1101.86,-32.8152 1061.37,-24.1211"/>
<polygon fill="#cccccc" stroke="#cccccc" points="1061.91,-20.6583 1051.4,-21.9925 1060.45,-27.504 1061.91,-20.6583"/>
</g>
<!-- EmptyCollection -->
<g id="node12" class="node">
<g id="a_node12"><a xlink:href="/swift-2/type/EmptyCollection/" target="_top">
<polygon fill="#999999" stroke="#999999" points="3549.03,-22 3452.97,-22 3452.97,-0 3549.03,-0 3549.03,-22"/>
<text text-anchor="middle" x="3501" y="-7.4" font-family="Helvetica,sans-Serif" font-size="12.00" fill="white">EmptyCollection</text>
</a>
</g>
</g>
<!-- CollectionType&#45;&gt;EmptyCollection -->
<g id="edge40" class="edge">
<path fill="none" stroke="#cccccc" d="M1822.16,-241.639C1943.7,-240.178 2293.25,-232.832 2581,-196 2916.74,-153.025 3313.6,-58.5822 3451.14,-24.5418"/>
<polygon fill="#cccccc" stroke="#cccccc" points="3452.12,-27.9071 3460.98,-22.1015 3450.43,-21.1131 3452.12,-27.9071"/>
</g>
<!-- FilterCollection -->
<g id="node13" class="node">
<g id="a_node13"><a xlink:href="/swift-2/type/FilterCollection/" target="_top">
<polygon fill="#999999" stroke="#999999" points="1842.52,-22 1753.48,-22 1753.48,-0 1842.52,-0 1842.52,-22"/>
<text text-anchor="middle" x="1798" y="-7.4" font-family="Helvetica,sans-Serif" font-size="12.00" fill="white">FilterCollection</text>
</a>
</g>
</g>
<!-- CollectionType&#45;&gt;FilterCollection -->
<g id="edge41" class="edge">
<path fill="none" stroke="#cccccc" d="M1782.35,-231.919C1789.98,-213.627 1805.49,-173.567 1811,-138 1816.44,-102.863 1815.88,-93.2189 1811,-58 1809.78,-49.1978 1807.31,-39.7112 1804.84,-31.6528"/>
<polygon fill="#cccccc" stroke="#cccccc" points="1808.14,-30.4807 1801.71,-22.0595 1801.49,-32.6519 1808.14,-30.4807"/>
</g>
<!-- LazyBidirectionalCollection -->
<g id="node15" class="node">
<g id="a_node15"><a xlink:href="/swift-2/type/LazyBidirectionalCollection/" target="_top">
<polygon fill="#999999" stroke="#999999" points="2132.56,-22 1979.44,-22 1979.44,-0 2132.56,-0 2132.56,-22"/>
<text text-anchor="middle" x="2056" y="-7.4" font-family="Helvetica,sans-Serif" font-size="12.00" fill="white">LazyBidirectionalCollection</text>
</a>
</g>
</g>
<!-- CollectionType&#45;&gt;LazyBidirectionalCollection -->
<g id="edge42" class="edge">
<path fill="none" stroke="#cccccc" d="M1822.25,-239.763C1885.79,-235.592 1998.28,-224.326 2026,-196 2069.49,-151.553 2064.6,-70.1853 2059.45,-32.3478"/>
<polygon fill="#cccccc" stroke="#cccccc" points="2062.86,-31.4552 2057.9,-22.0917 2055.94,-32.5029 2062.86,-31.4552"/>
</g>
<!-- LazyForwardCollection -->
<g id="node16" class="node">
<g id="a_node16"><a xlink:href="/swift-2/type/LazyForwardCollection/" target="_top">
<polygon fill="#999999" stroke="#999999" points="2454.04,-22 2321.96,-22 2321.96,-0 2454.04,-0 2454.04,-22"/>
<text text-anchor="middle" x="2388" y="-7.4" font-family="Helvetica,sans-Serif" font-size="12.00" fill="white">LazyForwardCollection</text>
</a>
</g>
</g>
<!-- CollectionType&#45;&gt;LazyForwardCollection -->
<g id="edge43" class="edge">
<path fill="none" stroke="#cccccc" d="M1822.05,-240.588C1882.04,-237.491 1992.03,-227.598 2080,-196 2197.55,-153.78 2319.92,-64.811 2367.43,-28.2314"/>
<polygon fill="#cccccc" stroke="#cccccc" points="2369.67,-30.9307 2375.42,-22.0339 2365.37,-25.4011 2369.67,-30.9307"/>
</g>
<!-- LazyRandomAccessCollection -->
<g id="node17" class="node">
<g id="a_node17"><a xlink:href="/swift-2/type/LazyRandomAccessCollection/" target="_top">
<polygon fill="#999999" stroke="#999999" points="3187.06,-22 3014.94,-22 3014.94,-0 3187.06,-0 3187.06,-22"/>
<text text-anchor="middle" x="3101" y="-7.4" font-family="Helvetica,sans-Serif" font-size="12.00" fill="white">LazyRandomAccessCollection</text>
</a>
</g>
</g>
<!-- CollectionType&#45;&gt;LazyRandomAccessCollection -->
<g id="edge44" class="edge">
<path fill="none" stroke="#cccccc" d="M1822.05,-241.762C1916.11,-240.506 2143.16,-233.474 2329,-196 2523.26,-156.828 2559.73,-101.835 2753,-58 2799.45,-47.4645 2918.92,-32.645 3004.92,-22.7009"/>
<polygon fill="#cccccc" stroke="#cccccc" points="3005.44,-26.1646 3014.97,-21.5432 3004.63,-19.2105 3005.44,-26.1646"/>
</g>
<!-- MapCollection -->
<g id="node18" class="node">
<g id="a_node18"><a xlink:href="/swift-2/type/MapCollection/" target="_top">
<polygon fill="#999999" stroke="#999999" points="3435.03,-22 3348.97,-22 3348.97,-0 3435.03,-0 3435.03,-22"/>
<text text-anchor="middle" x="3392" y="-7.4" font-family="Helvetica,sans-Serif" font-size="12.00" fill="white">MapCollection</text>
</a>
</g>
</g>
<!-- CollectionType&#45;&gt;MapCollection -->
<g id="edge45" class="edge">
<path fill="none" stroke="#cccccc" d="M1822.18,-241.865C1936.12,-240.942 2248.98,-234.772 2506,-196 2765.02,-156.927 2821.6,-106.623 3079,-58 3190.92,-36.8587 3222.74,-40.8209 3338.9,-22.1037"/>
<polygon fill="#cccccc" stroke="#cccccc" points="3339.6,-25.5365 3348.9,-20.4703 3338.47,-18.6281 3339.6,-25.5365"/>
</g>
<!-- MutableCollectionType -->
<g id="node19" class="node">
<g id="a_node19"><a xlink:href="/swift-2/protocol/MutableCollectionType/" target="_top">
<path fill="#999999" stroke="#999999" d="M990.221,-196C990.221,-196 873.779,-196 873.779,-196 870.112,-196 866.446,-192.333 866.446,-188.667 866.446,-188.667 866.446,-181.333 866.446,-181.333 866.446,-177.667 870.112,-174 873.779,-174 873.779,-174 990.221,-174 990.221,-174 993.888,-174 997.554,-177.667 997.554,-181.333 997.554,-181.333 997.554,-188.667 997.554,-188.667 997.554,-192.333 993.888,-196 990.221,-196"/>
<text text-anchor="middle" x="932" y="-181.4" font-family="Helvetica,sans-Serif" font-size="12.00" fill="white">MutableCollectionType</text>
</a>
</g>
</g>
<!-- CollectionType&#45;&gt;MutableCollectionType -->
<g id="edge46" class="edge">
<path fill="none" stroke="#cccccc" d="M1733.71,-239.068C1596.87,-230.01 1179.75,-202.4 1007.57,-191.002"/>
<polygon fill="#cccccc" stroke="#cccccc" points="1007.78,-187.509 997.575,-190.341 1007.32,-194.494 1007.78,-187.509"/>
</g>
<!-- MutableSliceable -->
<g id="node20" class="node">
<g id="a_node20"><a xlink:href="/swift-2/protocol/MutableSliceable/" target="_top">
<path fill="#999999" stroke="#999999" d="M881.208,-138C881.208,-138 794.792,-138 794.792,-138 791.126,-138 787.459,-134.333 787.459,-130.667 787.459,-130.667 787.459,-123.333 787.459,-123.333 787.459,-119.667 791.126,-116 794.792,-116 794.792,-116 881.208,-116 881.208,-116 884.874,-116 888.541,-119.667 888.541,-123.333 888.541,-123.333 888.541,-130.667 888.541,-130.667 888.541,-134.333 884.874,-138 881.208,-138"/>
<text text-anchor="middle" x="838" y="-123.4" font-family="Helvetica,sans-Serif" font-size="12.00" fill="white">MutableSliceable</text>
</a>
</g>
</g>
<!-- CollectionType&#45;&gt;MutableSliceable -->
<g id="edge47" class="edge">
<path fill="none" stroke="#cccccc" d="M1733.91,-241.221C1555.07,-237.879 891.611,-223.653 857,-196 842.898,-184.733 838.733,-163.928 837.739,-148.286"/>
<polygon fill="#cccccc" stroke="#cccccc" points="841.231,-147.927 837.479,-138.019 834.233,-148.104 841.231,-147.927"/>
</g>
<!-- Range -->
<g id="node21" class="node">
<g id="a_node21"><a xlink:href="/swift-2/type/Range/" target="_top">
<polygon fill="#999999" stroke="#999999" points="1123,-22 1069,-22 1069,-0 1123,-0 1123,-22"/>
<text text-anchor="middle" x="1096" y="-7.4" font-family="Helvetica,sans-Serif" font-size="12.00" fill="white">Range</text>
</a>
</g>
</g>
<!-- CollectionType&#45;&gt;Range -->
<g id="edge48" class="edge">
<path fill="none" stroke="#cccccc" d="M1744.07,-231.914C1715.32,-223.132 1673.11,-209.693 1637,-196 1492.94,-141.381 1466.2,-103.502 1319,-58 1241.14,-33.9308 1216.24,-40.7691 1132.96,-22.052"/>
<polygon fill="#cccccc" stroke="#cccccc" points="1133.6,-18.6068 1123.07,-19.7708 1132.02,-25.4279 1133.6,-18.6068"/>
</g>
<!-- RangeReplaceableCollectionType -->
<g id="node22" class="node">
<g id="a_node22"><a xlink:href="/swift-2/protocol/RangeReplaceableCollectionType/" target="_top">
<path fill="#999999" stroke="#999999" d="M723.76,-138C723.76,-138 548.24,-138 548.24,-138 544.573,-138 540.906,-134.333 540.906,-130.667 540.906,-130.667 540.906,-123.333 540.906,-123.333 540.906,-119.667 544.573,-116 548.24,-116 548.24,-116 723.76,-116 723.76,-116 727.427,-116 731.094,-119.667 731.094,-123.333 731.094,-123.333 731.094,-130.667 731.094,-130.667 731.094,-134.333 727.427,-138 723.76,-138"/>
<text text-anchor="middle" x="636" y="-123.4" font-family="Helvetica,sans-Serif" font-size="12.00" fill="white">RangeReplaceableCollectionType</text>
</a>
</g>
</g>
<!-- CollectionType&#45;&gt;RangeReplaceableCollectionType -->
<g id="edge49" class="edge">
<path fill="none" stroke="#cccccc" d="M1733.91,-241.44C1572.47,-239.141 1013.93,-228.934 839,-196 777.043,-184.335 708.067,-158.274 668.575,-142.016"/>
<polygon fill="#cccccc" stroke="#cccccc" points="669.769,-138.722 659.192,-138.108 667.078,-145.184 669.769,-138.722"/>
</g>
<!-- Repeat -->
<g id="node23" class="node">
<g id="a_node23"><a xlink:href="/swift-2/type/Repeat/" target="_top">
<polygon fill="#999999" stroke="#999999" points="2662,-22 2608,-22 2608,-0 2662,-0 2662,-22"/>
<text text-anchor="middle" x="2635" y="-7.4" font-family="Helvetica,sans-Serif" font-size="12.00" fill="white">Repeat</text>
</a>
</g>
</g>
<!-- CollectionType&#45;&gt;Repeat -->
<g id="edge50" class="edge">
<path fill="none" stroke="#cccccc" d="M1822.11,-240.385C1894.92,-236.922 2044.4,-226.435 2167,-196 2236.37,-178.778 2250.44,-164.054 2317,-138 2420.24,-97.5871 2542.03,-49.1044 2600.4,-25.8168"/>
<polygon fill="#cccccc" stroke="#cccccc" points="2601.89,-28.9916 2609.88,-22.0346 2599.3,-22.4902 2601.89,-28.9916"/>
</g>
<!-- ReverseCollection -->
<g id="node24" class="node">
<g id="a_node24"><a xlink:href="/swift-2/type/ReverseCollection/" target="_top">
<polygon fill="#999999" stroke="#999999" points="2787.53,-22 2680.47,-22 2680.47,-0 2787.53,-0 2787.53,-22"/>
<text text-anchor="middle" x="2734" y="-7.4" font-family="Helvetica,sans-Serif" font-size="12.00" fill="white">ReverseCollection</text>
</a>
</g>
</g>
<!-- CollectionType&#45;&gt;ReverseCollection -->
<g id="edge51" class="edge">
<path fill="none" stroke="#cccccc" d="M1822.3,-240.816C1901.87,-237.923 2073.87,-228.171 2215,-196 2392.63,-155.51 2429.13,-118.443 2601,-58 2632.58,-46.8954 2668.45,-34.5023 2694.97,-25.3801"/>
<polygon fill="#cccccc" stroke="#cccccc" points="2696.33,-28.6136 2704.65,-22.0535 2694.06,-21.9936 2696.33,-28.6136"/>
</g>
<!-- ReverseRandomAccessCollection -->
<g id="node25" class="node">
<g id="a_node25"><a xlink:href="/swift-2/type/ReverseRandomAccessCollection/" target="_top">
<polygon fill="#999999" stroke="#999999" points="2996.56,-22 2805.44,-22 2805.44,-0 2996.56,-0 2996.56,-22"/>
<text text-anchor="middle" x="2901" y="-7.4" font-family="Helvetica,sans-Serif" font-size="12.00" fill="white">ReverseRandomAccessCollection</text>
</a>
</g>
</g>
<!-- CollectionType&#45;&gt;ReverseRandomAccessCollection -->
<g id="edge52" class="edge">
<path fill="none" stroke="#cccccc" d="M1822.04,-241.305C1908.86,-239.187 2107.87,-230.623 2271,-196 2457.43,-156.432 2493.12,-108.096 2677,-58 2728.28,-44.0294 2787.18,-32.0908 2831.72,-23.8795"/>
<polygon fill="#cccccc" stroke="#cccccc" points="2832.36,-27.3207 2841.56,-22.0811 2831.1,-20.4346 2832.36,-27.3207"/>
</g>
<!-- Set -->
<g id="node26" class="node">
<g id="a_node26"><a xlink:href="/swift-2/type/Set/" target="_top">
<polygon fill="#999999" stroke="#999999" points="3259,-22 3205,-22 3205,-0 3259,-0 3259,-22"/>
<text text-anchor="middle" x="3232" y="-7.4" font-family="Helvetica,sans-Serif" font-size="12.00" fill="white">Set</text>
</a>
</g>
</g>
<!-- CollectionType&#45;&gt;Set -->
<g id="edge53" class="edge">
<path fill="none" stroke="#cccccc" d="M1822.32,-242.064C1923.29,-241.47 2177.79,-235.774 2386,-196 2588.56,-157.307 2626.89,-98.946 2829,-58 2986.34,-26.1256 3032.98,-50.9795 3194.68,-21.9391"/>
<polygon fill="#cccccc" stroke="#cccccc" points="3195.79,-25.2941 3204.99,-20.0432 3194.52,-18.4096 3195.79,-25.2941"/>
</g>
<!-- Slice -->
<g id="node27" class="node">
<g id="a_node27"><a xlink:href="/swift-2/type/Slice/" target="_top">
<polygon fill="#999999" stroke="#999999" points="3331,-22 3277,-22 3277,-0 3331,-0 3331,-22"/>
<text text-anchor="middle" x="3304" y="-7.4" font-family="Helvetica,sans-Serif" font-size="12.00" fill="white">Slice</text>
</a>
</g>
</g>
<!-- CollectionType&#45;&gt;Slice -->
<g id="edge54" class="edge">
<path fill="none" stroke="#cccccc" d="M1822.12,-242.33C1929.6,-242.407 2213.18,-238.221 2445,-196 2654.99,-157.754 2695.61,-99.3909 2905,-58 3060.79,-27.206 3106.76,-50.7945 3266.79,-21.9234"/>
<polygon fill="#cccccc" stroke="#cccccc" points="3267.79,-25.2971 3276.99,-20.04 3266.52,-18.4134 3267.79,-25.2971"/>
</g>
<!-- String.CharacterView -->
<g id="node28" class="node">
<g id="a_node28"><a xlink:href="/swift-2/type/String.CharacterView/" target="_top">
<polygon fill="#999999" stroke="#999999" points="382.376,-22 259.624,-22 259.624,-0 382.376,-0 382.376,-22"/>
<text text-anchor="middle" x="321" y="-7.4" font-family="Helvetica,sans-Serif" font-size="12.00" fill="white">String.CharacterView</text>
</a>
</g>
</g>
<!-- CollectionType&#45;&gt;String.CharacterView -->
<g id="edge59" class="edge">
<path fill="none" stroke="#cccccc" d="M1733.82,-241.953C1527.87,-241.518 667.253,-237.227 555,-196 458.484,-160.553 370.654,-69.0701 336.303,-30.0581"/>
<polygon fill="#cccccc" stroke="#cccccc" points="338.642,-27.4142 329.446,-22.154 333.355,-32.0013 338.642,-27.4142"/>
</g>
<!-- String.UTF16View -->
<g id="node29" class="node">
<g id="a_node29"><a xlink:href="/swift-2/type/String.UTF16View/" target="_top">
<polygon fill="#999999" stroke="#999999" points="3674.37,-22 3567.63,-22 3567.63,-0 3674.37,-0 3674.37,-22"/>
<text text-anchor="middle" x="3621" y="-7.4" font-family="Helvetica,sans-Serif" font-size="12.00" fill="white">String.UTF16View</text>
</a>
</g>
</g>
<!-- CollectionType&#45;&gt;String.UTF16View -->
<g id="edge61" class="edge">
<path fill="none" stroke="#cccccc" d="M1822.5,-241.499C1952.64,-239.646 2343.75,-231.317 2666,-196 2820.56,-179.061 2858.17,-166.62 3011,-138 3215.91,-99.6268 3458.13,-47.5947 3565.26,-24.2363"/>
<polygon fill="#cccccc" stroke="#cccccc" points="3566.18,-27.6187 3575.2,-22.0667 3564.69,-20.7797 3566.18,-27.6187"/>
</g>
<!-- String.UTF8View -->
<g id="node30" class="node">
<g id="a_node30"><a xlink:href="/swift-2/type/String.UTF8View/" target="_top">
<polygon fill="#999999" stroke="#999999" points="1961.36,-22 1860.64,-22 1860.64,-0 1961.36,-0 1961.36,-22"/>
<text text-anchor="middle" x="1911" y="-7.4" font-family="Helvetica,sans-Serif" font-size="12.00" fill="white">String.UTF8View</text>
</a>
</g>
</g>
<!-- CollectionType&#45;&gt;String.UTF8View -->
<g id="edge62" class="edge">
<path fill="none" stroke="#cccccc" d="M1786.85,-231.799C1794.5,-222.73 1805.62,-208.939 1814,-196 1851,-138.861 1886.1,-66.1072 1902.04,-31.7134"/>
<polygon fill="#cccccc" stroke="#cccccc" points="1905.36,-32.8786 1906.35,-22.3307 1899,-29.9551 1905.36,-32.8786"/>
</g>
<!-- String.UnicodeScalarView -->
<g id="node31" class="node">
<g id="a_node31"><a xlink:href="/swift-2/type/String.UnicodeScalarView/" target="_top">
<polygon fill="#999999" stroke="#999999" points="548.892,-22 401.108,-22 401.108,-0 548.892,-0 548.892,-22"/>
<text text-anchor="middle" x="475" y="-7.4" font-family="Helvetica,sans-Serif" font-size="12.00" fill="white">String.UnicodeScalarView</text>
</a>
</g>
</g>
<!-- CollectionType&#45;&gt;String.UnicodeScalarView -->
<g id="edge60" class="edge">
<path fill="none" stroke="#cccccc" d="M1733.77,-241.567C1534.31,-239.436 723.429,-228.809 615,-196 567.651,-181.673 551.215,-176.377 520,-138 494.35,-106.465 482.74,-59.1644 477.961,-32.3891"/>
<polygon fill="#cccccc" stroke="#cccccc" points="481.375,-31.5817 476.31,-22.2764 474.467,-32.7097 481.375,-31.5817"/>
</g>
<!-- UnicodeScalar.UTF16View -->
<g id="node32" class="node">
<g id="a_node32"><a xlink:href="/swift-2/type/UnicodeScalar.UTF16View/" target="_top">
<polygon fill="#999999" stroke="#999999" points="2303.39,-22 2150.61,-22 2150.61,-0 2303.39,-0 2303.39,-22"/>
<text text-anchor="middle" x="2227" y="-7.4" font-family="Helvetica,sans-Serif" font-size="12.00" fill="white">UnicodeScalar.UTF16View</text>
</a>
</g>
</g>
<!-- CollectionType&#45;&gt;UnicodeScalar.UTF16View -->
<g id="edge55" class="edge">
<path fill="none" stroke="#cccccc" d="M1822.44,-242.761C1878.45,-241.924 1976.18,-234.382 2049,-196 2126.21,-155.308 2189.7,-68.7866 2215.09,-30.6812"/>
<polygon fill="#cccccc" stroke="#cccccc" points="2218.16,-32.3779 2220.71,-22.0938 2212.3,-28.5446 2218.16,-32.3779"/>
</g>
<!-- UnsafeBufferPointer -->
<g id="node33" class="node">
<g id="a_node33"><a xlink:href="/swift-2/type/UnsafeBufferPointer/" target="_top">
<polygon fill="#999999" stroke="#999999" points="2589.39,-22 2472.61,-22 2472.61,-0 2589.39,-0 2589.39,-22"/>
<text text-anchor="middle" x="2531" y="-7.4" font-family="Helvetica,sans-Serif" font-size="12.00" fill="white">UnsafeBufferPointer</text>
</a>
</g>
</g>
<!-- CollectionType&#45;&gt;UnsafeBufferPointer -->
<g id="edge56" class="edge">
<path fill="none" stroke="#cccccc" d="M1822.28,-240.098C1888.28,-236.36 2015.85,-225.646 2120,-196 2271.98,-152.739 2440.18,-63.0884 2504.25,-27.27"/>
<polygon fill="#cccccc" stroke="#cccccc" points="2506.27,-30.1459 2513.27,-22.193 2502.84,-24.0447 2506.27,-30.1459"/>
</g>
<!-- UnsafeMutableBufferPointer -->
<g id="node34" class="node">
<g id="a_node34"><a xlink:href="/swift-2/type/UnsafeMutableBufferPointer/" target="_top">
<polygon fill="#999999" stroke="#999999" points="240.905,-22 81.0947,-22 81.0947,-0 240.905,-0 240.905,-22"/>
<text text-anchor="middle" x="161" y="-7.4" font-family="Helvetica,sans-Serif" font-size="12.00" fill="white">UnsafeMutableBufferPointer</text>
</a>
</g>
</g>
<!-- CollectionType&#45;&gt;UnsafeMutableBufferPointer -->
<g id="edge57" class="edge">
<path fill="none" stroke="#cccccc" d="M1733.66,-241.503C1522.93,-238.992 627.731,-226.596 507,-196 373.273,-162.11 234.317,-66.4699 182.312,-28.1619"/>
<polygon fill="#cccccc" stroke="#cccccc" points="184.29,-25.2713 174.177,-22.1121 180.113,-30.8882 184.29,-25.2713"/>
</g>
<!-- _prext_LazyCollectionType -->
<g id="node37" class="node">
<g id="a_node37"><a xlink:href="/swift-2/protocol/_prext_LazyCollectionType/" target="_top">
<path fill="#999999" stroke="#999999" d="M2009.73,-196C2009.73,-196 1870.27,-196 1870.27,-196 1866.6,-196 1862.93,-192.333 1862.93,-188.667 1862.93,-188.667 1862.93,-181.333 1862.93,-181.333 1862.93,-177.667 1866.6,-174 1870.27,-174 1870.27,-174 2009.73,-174 2009.73,-174 2013.4,-174 2017.07,-177.667 2017.07,-181.333 2017.07,-181.333 2017.07,-188.667 2017.07,-188.667 2017.07,-192.333 2013.4,-196 2009.73,-196"/>
<text text-anchor="middle" x="1940" y="-181.4" font-family="Helvetica,sans-Serif" font-size="12.00" fill="white">_prext_LazyCollectionType</text>
</a>
</g>
</g>
<!-- CollectionType&#45;&gt;_prext_LazyCollectionType -->
<g id="edge58" class="edge">
<path fill="none" stroke="#cccccc" d="M1806.96,-231.988C1833.26,-222.898 1872.24,-209.422 1901.22,-199.405"/>
<polygon fill="#cccccc" stroke="#cccccc" points="1902.71,-202.594 1911.02,-196.019 1900.42,-195.978 1902.71,-202.594"/>
</g>
<!-- Indexable -->
<g id="node14" class="node">
<g id="a_node14"><a xlink:href="/swift-2/protocol/Indexable/" target="_top">
<path fill="#ee543d" stroke="#ee543d" d="M2106.7,-312C2106.7,-312 2059.3,-312 2059.3,-312 2055.63,-312 2051.97,-308.333 2051.97,-304.667 2051.97,-304.667 2051.97,-297.333 2051.97,-297.333 2051.97,-293.667 2055.63,-290 2059.3,-290 2059.3,-290 2106.7,-290 2106.7,-290 2110.37,-290 2114.03,-293.667 2114.03,-297.333 2114.03,-297.333 2114.03,-304.667 2114.03,-304.667 2114.03,-308.333 2110.37,-312 2106.7,-312"/>
<text text-anchor="middle" x="2083" y="-297.4" font-family="Helvetica,sans-Serif" font-size="12.00" fill="white">Indexable</text>
</a>
</g>
</g>
<!-- Indexable&#45;&gt;AnyBidirectionalCollection -->
<g id="edge1" class="edge">
<path fill="none" stroke="#cccccc" d="M2051.68,-298.537C1910.83,-291.552 1343,-258.874 1343,-186 1343,-186 1343,-186 1343,-126 1343,-92.9721 1337.96,-54.856 1334.41,-32.1297"/>
<polygon fill="#cccccc" stroke="#cccccc" points="1337.83,-31.3381 1332.77,-22.0275 1330.92,-32.4589 1337.83,-31.3381"/>
</g>
<!-- Indexable&#45;&gt;AnyForwardCollection -->
<g id="edge2" class="edge">
<path fill="none" stroke="#cccccc" d="M2051.74,-299.407C1986.57,-297.471 1831.98,-289.214 1708,-254 1648.7,-237.157 1626.57,-238.595 1582,-196 1532.3,-148.501 1503.85,-69.3012 1492.62,-32.2595"/>
<polygon fill="#cccccc" stroke="#cccccc" points="1495.85,-30.8195 1489.69,-22.199 1489.13,-32.779 1495.85,-30.8195"/>
</g>
<!-- Indexable&#45;&gt;AnyRandomAccessCollection -->
<g id="edge3" class="edge">
<path fill="none" stroke="#cccccc" d="M2051.93,-298.318C1968.87,-293.505 1746.5,-278.436 1725,-254 1667.32,-188.429 1784.07,-132.807 1739,-58 1730.17,-43.3354 1714.92,-33.1032 1699.63,-26.0803"/>
<polygon fill="#cccccc" stroke="#cccccc" points="1700.74,-22.7502 1690.16,-22.1113 1698.03,-29.2058 1700.74,-22.7502"/>
</g>
<!-- Indexable&#45;&gt;Array -->
<g id="edge4" class="edge">
<path fill="none" stroke="#cccccc" d="M2051.91,-299.794C1904.9,-298.627 1283.34,-291.5 1206,-254 1101.71,-203.436 1129.47,-123.715 1034,-58 1019.49,-48.0142 977.849,-33.4791 946.798,-23.4321"/>
<polygon fill="#cccccc" stroke="#cccccc" points="947.728,-20.0548 937.137,-20.3393 945.593,-26.7215 947.728,-20.0548"/>
</g>
<!-- Indexable&#45;&gt;ArraySlice -->
<g id="edge5" class="edge">
<path fill="none" stroke="#cccccc" d="M2051.99,-299.741C1846.31,-297.781 683.412,-282.893 555,-196 503.724,-161.303 495.731,-105.026 536,-58 551.38,-40.0395 575.194,-28.759 595.945,-21.8666"/>
<polygon fill="#cccccc" stroke="#cccccc" points="597.003,-25.2032 605.528,-18.913 594.941,-18.5138 597.003,-25.2032"/>
</g>
<!-- Indexable&#45;&gt;CollectionOfOne -->
<g id="edge6" class="edge">
<path fill="none" stroke="#cccccc" d="M2051.74,-299.127C1938.65,-295.76 1551.24,-282.376 1431,-254 1354.2,-235.877 1267,-264.906 1267,-186 1267,-186 1267,-186 1267,-126 1267,-93.9507 1261.03,-84.4941 1243,-58 1235.18,-46.5118 1223.81,-36.1289 1213.6,-28.147"/>
<polygon fill="#cccccc" stroke="#cccccc" points="1215.51,-25.2071 1205.4,-22.0354 1211.33,-30.8189 1215.51,-25.2071"/>
</g>
<!-- Indexable&#45;&gt;CollectionType -->
<g id="edge7" class="edge">
<path fill="none" stroke="#cccccc" d="M2051.79,-294.27C2000.06,-284.771 1895.9,-265.648 1832.03,-253.919"/>
<polygon fill="#cccccc" stroke="#cccccc" points="1832.6,-250.467 1822.13,-252.103 1831.34,-257.352 1832.6,-250.467"/>
</g>
<!-- Indexable&#45;&gt;ContiguousArray -->
<g id="edge8" class="edge">
<path fill="none" stroke="#cccccc" d="M2051.74,-299.369C1840.65,-294.777 628.79,-263.043 532,-138 526.015,-130.268 526.404,-124.018 532,-116 582.364,-43.8351 688.629,-21.6012 755.653,-14.8403"/>
<polygon fill="#cccccc" stroke="#cccccc" points="756.016,-18.3218 765.652,-13.9168 755.372,-11.3514 756.016,-18.3218"/>
</g>
<!-- Indexable&#45;&gt;Dictionary -->
<g id="edge9" class="edge">
<path fill="none" stroke="#cccccc" d="M2051.66,-300.211C1843.16,-301.46 654.161,-306.172 296,-254 181.206,-237.278 44,-302.006 44,-186 44,-186 44,-186 44,-126 44,-92.9407 38.5364,-54.8339 34.6932,-32.118"/>
<polygon fill="#cccccc" stroke="#cccccc" points="38.0968,-31.264 32.9182,-22.021 31.2026,-32.476 38.0968,-31.264"/>
</g>
<!-- Indexable&#45;&gt;DictionaryLiteral -->
<g id="edge10" class="edge">
<path fill="none" stroke="#cccccc" d="M2051.84,-299.792C1908.65,-298.636 1317.72,-291.605 1245,-254 1210.72,-236.273 1191,-224.593 1191,-186 1191,-186 1191,-186 1191,-126 1191,-85.1015 1162.97,-80.7809 1129,-58 1106.83,-43.1317 1079.25,-32.3559 1055.56,-24.9885"/>
<polygon fill="#cccccc" stroke="#cccccc" points="1056.25,-21.5424 1045.66,-22.0377 1054.25,-28.2503 1056.25,-21.5424"/>
</g>
<!-- Indexable&#45;&gt;EmptyCollection -->
<g id="edge11" class="edge">
<path fill="none" stroke="#cccccc" d="M2114.17,-299.087C2317.94,-292.917 3452,-255.462 3452,-186 3452,-186 3452,-186 3452,-126 3452,-89.8086 3473.1,-52.0227 3487.61,-30.3214"/>
<polygon fill="#cccccc" stroke="#cccccc" points="3490.52,-32.2687 3493.34,-22.0572 3484.77,-28.2786 3490.52,-32.2687"/>
</g>
<!-- Indexable&#45;&gt;FilterCollection -->
<g id="edge12" class="edge">
<path fill="none" stroke="#cccccc" d="M2080.39,-289.871C2074.15,-267.121 2056.53,-211.067 2026,-174 1969.11,-104.918 1875.96,-51.3398 1828.25,-26.7473"/>
<polygon fill="#cccccc" stroke="#cccccc" points="1829.56,-23.4888 1819.06,-22.0816 1826.39,-29.7302 1829.56,-23.4888"/>
</g>
<!-- Indexable&#45;&gt;LazyBidirectionalCollection -->
<g id="edge13" class="edge">
<path fill="none" stroke="#cccccc" d="M2114.24,-292.995C2134.83,-286.578 2160.27,-274.805 2173,-254 2205.01,-201.685 2198.13,-171.951 2173,-116 2154.92,-75.7321 2112.68,-44.6968 2084.22,-27.3881"/>
<polygon fill="#cccccc" stroke="#cccccc" points="2085.91,-24.318 2075.51,-22.2565 2082.35,-30.3488 2085.91,-24.318"/>
</g>
<!-- Indexable&#45;&gt;LazyForwardCollection -->
<g id="edge14" class="edge">
<path fill="none" stroke="#cccccc" d="M2114.1,-295.156C2191.58,-282.216 2387,-243.846 2387,-186 2387,-186 2387,-186 2387,-126 2387,-93.1523 2387.42,-54.9828 2387.72,-32.1966"/>
<polygon fill="#cccccc" stroke="#cccccc" points="2391.22,-32.1108 2387.85,-22.0645 2384.22,-32.0164 2391.22,-32.1108"/>
</g>
<!-- Indexable&#45;&gt;LazyRandomAccessCollection -->
<g id="edge15" class="edge">
<path fill="none" stroke="#cccccc" d="M2114.17,-298.949C2215.3,-295.298 2533.39,-281.833 2632,-254 2696.66,-235.751 2767,-253.182 2767,-186 2767,-186 2767,-186 2767,-126 2767,-85.1015 2793.1,-77.5908 2829,-58 2845.41,-49.0441 2943.01,-33.8985 3016.64,-23.4467"/>
<polygon fill="#cccccc" stroke="#cccccc" points="3017.45,-26.8676 3026.86,-22.0042 3016.47,-19.9363 3017.45,-26.8676"/>
</g>
<!-- Indexable&#45;&gt;MapCollection -->
<g id="edge16" class="edge">
<path fill="none" stroke="#cccccc" d="M2114.06,-299.837C2283.93,-298.543 3093,-287.079 3093,-186 3093,-186 3093,-186 3093,-126 3093,-63.5354 3158,-81.1888 3216,-58 3255.9,-42.047 3303.11,-30.0571 3338.58,-22.3243"/>
<polygon fill="#cccccc" stroke="#cccccc" points="3339.68,-25.6696 3348.73,-20.1591 3338.22,-18.8238 3339.68,-25.6696"/>
</g>
<!-- Indexable&#45;&gt;Range -->
<g id="edge17" class="edge">
<path fill="none" stroke="#cccccc" d="M2051.91,-299.689C1913.04,-298.1 1353.23,-289.523 1284,-254 1249.42,-236.254 1229,-224.87 1229,-186 1229,-186 1229,-186 1229,-126 1229,-93.9507 1226.97,-81.3324 1205,-58 1194.65,-47.0129 1160.27,-33.482 1132.85,-23.9482"/>
<polygon fill="#cccccc" stroke="#cccccc" points="1133.72,-20.5457 1123.12,-20.6287 1131.46,-27.1706 1133.72,-20.5457"/>
</g>
<!-- Indexable&#45;&gt;Repeat -->
<g id="edge18" class="edge">
<path fill="none" stroke="#cccccc" d="M2114.34,-298.915C2217.37,-294.507 2539,-273.723 2539,-186 2539,-186 2539,-186 2539,-126 2539,-82.5734 2580.26,-47.0887 2608.68,-27.7981"/>
<polygon fill="#cccccc" stroke="#cccccc" points="2610.93,-30.5112 2617.39,-22.1144 2607.1,-24.6493 2610.93,-30.5112"/>
</g>
<!-- Indexable&#45;&gt;ReverseCollection -->
<g id="edge19" class="edge">
<path fill="none" stroke="#cccccc" d="M2114.29,-300.019C2228.33,-299.258 2615,-289.077 2615,-186 2615,-186 2615,-186 2615,-126 2615,-78.2011 2665.68,-44.2373 2700.9,-26.4085"/>
<polygon fill="#cccccc" stroke="#cccccc" points="2702.46,-29.5406 2709.92,-22.0171 2699.4,-23.2466 2702.46,-29.5406"/>
</g>
<!-- Indexable&#45;&gt;ReverseRandomAccessCollection -->
<g id="edge20" class="edge">
<path fill="none" stroke="#cccccc" d="M2114.13,-298.812C2207.95,-294.959 2486.8,-281.441 2573,-254 2630.68,-235.639 2691,-246.529 2691,-186 2691,-186 2691,-186 2691,-126 2691,-66.5888 2756.72,-37.9727 2814.63,-24.2898"/>
<polygon fill="#cccccc" stroke="#cccccc" points="2815.6,-27.6609 2824.59,-22.0619 2814.07,-20.8298 2815.6,-27.6609"/>
</g>
<!-- Indexable&#45;&gt;Set -->
<g id="edge21" class="edge">
<path fill="none" stroke="#cccccc" d="M2114.18,-299.205C2223.43,-296.183 2588.33,-284.026 2701,-254 2768.61,-235.981 2843,-255.974 2843,-186 2843,-186 2843,-186 2843,-126 2843,-85.1015 2868.67,-76.7882 2905,-58 3017.93,0.405118 3065.84,-45.1634 3195.12,-21.8506"/>
<polygon fill="#cccccc" stroke="#cccccc" points="3195.81,-25.2815 3204.98,-19.9683 3194.5,-18.4056 3195.81,-25.2815"/>
</g>
<!-- Indexable&#45;&gt;Slice -->
<g id="edge22" class="edge">
<path fill="none" stroke="#cccccc" d="M2114.14,-299.456C2231.46,-297.171 2646.52,-286.889 2774,-254 2842.92,-236.218 2919,-257.179 2919,-186 2919,-186 2919,-186 2919,-126 2919,32.6905 3102.99,-55.2322 3267.15,-21.9149"/>
<polygon fill="#cccccc" stroke="#cccccc" points="3267.91,-25.3309 3276.93,-19.7766 3266.42,-18.4923 3267.91,-25.3309"/>
</g>
<!-- Indexable&#45;&gt;String.CharacterView -->
<g id="edge26" class="edge">
<path fill="none" stroke="#cccccc" d="M2051.76,-299.611C1842.17,-296.932 646.702,-280.524 575,-254 459.383,-211.231 438.522,-174.195 359,-80 346.645,-65.3649 336.33,-46.111 329.579,-31.8278"/>
<polygon fill="#cccccc" stroke="#cccccc" points="332.638,-30.0998 325.315,-22.4432 326.265,-32.9953 332.638,-30.0998"/>
</g>
<!-- Indexable&#45;&gt;String.UTF16View -->
<g id="edge28" class="edge">
<path fill="none" stroke="#cccccc" d="M2114.14,-299.301C2328.25,-294.3 3574,-261.936 3574,-186 3574,-186 3574,-186 3574,-126 3574,-90.1956 3594.06,-52.5163 3607.97,-30.6943"/>
<polygon fill="#cccccc" stroke="#cccccc" points="3611.05,-32.3761 3613.66,-22.1057 3605.22,-28.5119 3611.05,-32.3761"/>
</g>
<!-- Indexable&#45;&gt;String.UTF8View -->
<g id="edge29" class="edge">
<path fill="none" stroke="#cccccc" d="M2087.49,-289.933C2099.81,-260.671 2131.04,-174.031 2097,-116 2068.2,-66.8992 2006.83,-39.2519 1962.44,-25.0067"/>
<polygon fill="#cccccc" stroke="#cccccc" points="1963.27,-21.6 1952.69,-22.0011 1961.21,-28.2898 1963.27,-21.6"/>
</g>
<!-- Indexable&#45;&gt;String.UnicodeScalarView -->
<g id="edge27" class="edge">
<path fill="none" stroke="#cccccc" d="M2051.75,-299.577C1857.8,-296.868 822.218,-281.215 684,-254 611.423,-239.71 580.08,-248.529 528,-196 483.032,-150.645 475.709,-69.732 474.854,-32.1781"/>
<polygon fill="#cccccc" stroke="#cccccc" points="478.352,-31.9707 474.761,-22.0029 471.352,-32.0342 478.352,-31.9707"/>
</g>
<!-- Indexable&#45;&gt;UnicodeScalar.UTF16View -->
<g id="edge23" class="edge">
<path fill="none" stroke="#cccccc" d="M2114.5,-294.71C2139.31,-288.912 2172.94,-277.155 2193,-254 2248.7,-189.704 2238.01,-77.6694 2230.75,-32.1199"/>
<polygon fill="#cccccc" stroke="#cccccc" points="2234.16,-31.3064 2229.02,-22.0416 2227.26,-32.4892 2234.16,-31.3064"/>
</g>
<!-- Indexable&#45;&gt;UnsafeBufferPointer -->
<g id="edge24" class="edge">
<path fill="none" stroke="#cccccc" d="M2114.1,-297.407C2204.85,-288.991 2463,-258.665 2463,-186 2463,-186 2463,-186 2463,-126 2463,-87.1742 2492.45,-50.0772 2512.59,-29.2494"/>
<polygon fill="#cccccc" stroke="#cccccc" points="2515.16,-31.6315 2519.77,-22.0938 2510.22,-26.6728 2515.16,-31.6315"/>
</g>
<!-- Indexable&#45;&gt;UnsafeMutableBufferPointer -->
<g id="edge25" class="edge">
<path fill="none" stroke="#cccccc" d="M2051.98,-299.868C1802.53,-298.606 133,-286.411 133,-186 133,-186 133,-186 133,-126 133,-92.0444 144.86,-53.9991 153.143,-31.5706"/>
<polygon fill="#cccccc" stroke="#cccccc" points="156.436,-32.7581 156.747,-22.1678 149.9,-30.2524 156.436,-32.7581"/>
</g>
<!-- MutableCollectionType&#45;&gt;Array -->
<g id="edge66" class="edge">
<path fill="none" stroke="#cccccc" d="M995.276,-173.915C1033.33,-164.532 1071.77,-147.138 1057,-116 1035.45,-70.5602 982.93,-41.1602 946.878,-25.5852"/>
<polygon fill="#cccccc" stroke="#cccccc" points="947.763,-22.1629 937.186,-21.557 945.077,-28.6269 947.763,-22.1629"/>
</g>
<!-- MutableCollectionType&#45;&gt;ArraySlice -->
<g id="edge67" class="edge">
<path fill="none" stroke="#cccccc" d="M877.637,-173.945C847.043,-166.804 808.901,-155.347 778,-138 725.802,-108.697 676.667,-56.8721 652.906,-29.7199"/>
<polygon fill="#cccccc" stroke="#cccccc" points="655.551,-27.4276 646.371,-22.1377 650.249,-31.9976 655.551,-27.4276"/>
</g>
<!-- MutableCollectionType&#45;&gt;ContiguousArray -->
<g id="edge68" class="edge">
<path fill="none" stroke="#cccccc" d="M929.295,-173.95C922.848,-151.361 904.848,-95.6149 875,-58 865.573,-46.1195 852.432,-35.5925 840.851,-27.6175"/>
<polygon fill="#cccccc" stroke="#cccccc" points="842.661,-24.6188 832.386,-22.0362 838.808,-30.4628 842.661,-24.6188"/>
</g>
<!-- MutableCollectionType&#45;&gt;MutableSliceable -->
<g id="edge69" class="edge">
<path fill="none" stroke="#cccccc" d="M915.195,-173.988C900.847,-165.441 879.99,-153.015 863.572,-143.234"/>
<polygon fill="#cccccc" stroke="#cccccc" points="865.359,-140.225 854.977,-138.114 861.776,-146.239 865.359,-140.225"/>
</g>
<!-- MutableCollectionType&#45;&gt;UnsafeMutableBufferPointer -->
<g id="edge70" class="edge">
<path fill="none" stroke="#cccccc" d="M866.511,-180.753C786.699,-175.817 648.115,-164.081 532,-138 404.112,-109.274 258.554,-52.406 194.382,-26.0357"/>
<polygon fill="#cccccc" stroke="#cccccc" points="195.375,-22.6592 184.797,-22.0743 192.702,-29.1285 195.375,-22.6592"/>
</g>
<!-- _ArrayBufferType -->
<g id="node35" class="node">
<g id="a_node35"><a xlink:href="/swift-2/protocol/_ArrayBufferType/" target="_top">
<path fill="#999999" stroke="#999999" d="M1041.04,-138C1041.04,-138 952.956,-138 952.956,-138 949.29,-138 945.623,-134.333 945.623,-130.667 945.623,-130.667 945.623,-123.333 945.623,-123.333 945.623,-119.667 949.29,-116 952.956,-116 952.956,-116 1041.04,-116 1041.04,-116 1044.71,-116 1048.38,-119.667 1048.38,-123.333 1048.38,-123.333 1048.38,-130.667 1048.38,-130.667 1048.38,-134.333 1044.71,-138 1041.04,-138"/>
<text text-anchor="middle" x="997" y="-123.4" font-family="Helvetica,sans-Serif" font-size="12.00" fill="white">_ArrayBufferType</text>
</a>
</g>
</g>
<!-- MutableCollectionType&#45;&gt;_ArrayBufferType -->
<g id="edge71" class="edge">
<path fill="none" stroke="#cccccc" d="M943.621,-173.988C952.932,-165.966 966.209,-154.527 977.192,-145.065"/>
<polygon fill="#cccccc" stroke="#cccccc" points="979.749,-147.483 985.04,-138.304 975.18,-142.179 979.749,-147.483"/>
</g>
<!-- MutableSliceable&#45;&gt;Array -->
<g id="edge72" class="edge">
<path fill="none" stroke="#cccccc" d="M888.467,-122.178C917.125,-117.117 950.811,-105.664 969,-80 982.602,-60.8082 959.819,-40.6799 938.732,-27.3492"/>
<polygon fill="#cccccc" stroke="#cccccc" points="940.288,-24.2019 929.909,-22.0748 936.696,-30.2102 940.288,-24.2019"/>
</g>
<!-- MutableSliceable&#45;&gt;ArraySlice -->
<g id="edge73" class="edge">
<path fill="none" stroke="#cccccc" d="M820.251,-115.883C784.967,-95.7709 705.845,-50.6719 664.425,-27.0621"/>
<polygon fill="#cccccc" stroke="#cccccc" points="666.13,-24.0054 655.709,-22.0941 662.663,-30.0869 666.13,-24.0054"/>
</g>
<!-- MutableSliceable&#45;&gt;ContiguousArray -->
<g id="edge74" class="edge">
<path fill="none" stroke="#cccccc" d="M845.548,-115.681C854.427,-102.196 867.006,-77.9526 859,-58 854.463,-46.6923 845.673,-36.5926 837.135,-28.7576"/>
<polygon fill="#cccccc" stroke="#cccccc" points="839.37,-26.064 829.494,-22.2292 834.823,-31.3861 839.37,-26.064"/>
</g>
<!-- _ArrayType -->
<g id="node36" class="node">
<g id="a_node36"><a xlink:href="/swift-2/protocol/_ArrayType/" target="_top">
<path fill="#999999" stroke="#999999" d="M843.19,-80C843.19,-80 786.81,-80 786.81,-80 783.144,-80 779.477,-76.3333 779.477,-72.6667 779.477,-72.6667 779.477,-65.3333 779.477,-65.3333 779.477,-61.6667 783.144,-58 786.81,-58 786.81,-58 843.19,-58 843.19,-58 846.856,-58 850.523,-61.6667 850.523,-65.3333 850.523,-65.3333 850.523,-72.6667 850.523,-72.6667 850.523,-76.3333 846.856,-80 843.19,-80"/>
<text text-anchor="middle" x="815" y="-65.4" font-family="Helvetica,sans-Serif" font-size="12.00" fill="white">_ArrayType</text>
</a>
</g>
</g>
<!-- MutableSliceable&#45;&gt;_ArrayType -->
<g id="edge75" class="edge">
<path fill="none" stroke="#cccccc" d="M833.888,-115.988C830.884,-108.674 826.713,-98.5192 823.055,-89.6122"/>
<polygon fill="#cccccc" stroke="#cccccc" points="826.269,-88.2243 819.232,-80.3039 819.794,-90.8838 826.269,-88.2243"/>
</g>
<!-- RangeReplaceableCollectionType&#45;&gt;Array -->
<g id="edge79" class="edge">
<path fill="none" stroke="#cccccc" d="M731.149,-121.451C772.988,-115.801 821.115,-104.036 859,-80 877.603,-68.1972 891.854,-47.0334 900.501,-31.4413"/>
<polygon fill="#cccccc" stroke="#cccccc" points="903.826,-32.6367 905.364,-22.1541 897.625,-29.3896 903.826,-32.6367"/>
</g>
<!-- RangeReplaceableCollectionType&#45;&gt;ArraySlice -->
<g id="edge80" class="edge">
<path fill="none" stroke="#cccccc" d="M636.177,-115.883C636.506,-97.1703 637.214,-56.8266 637.644,-32.2866"/>
<polygon fill="#cccccc" stroke="#cccccc" points="641.144,-32.3178 637.82,-22.2579 634.145,-32.195 641.144,-32.3178"/>
</g>
<!-- RangeReplaceableCollectionType&#45;&gt;ContiguousArray -->
<g id="edge81" class="edge">
<path fill="none" stroke="#cccccc" d="M651.885,-115.883C683.2,-95.9399 753.091,-51.4281 790.408,-27.6618"/>
<polygon fill="#cccccc" stroke="#cccccc" points="792.596,-30.4181 799.151,-22.0941 788.836,-24.5138 792.596,-30.4181"/>
</g>
<!-- RangeReplaceableCollectionType&#45;&gt;String.CharacterView -->
<g id="edge83" class="edge">
<path fill="none" stroke="#cccccc" d="M608.322,-115.983C551.748,-95.5086 422.805,-48.8436 358.669,-25.6328"/>
<polygon fill="#cccccc" stroke="#cccccc" points="359.548,-22.2285 348.954,-22.1165 357.166,-28.8108 359.548,-22.2285"/>
</g>
<!-- RangeReplaceableCollectionType&#45;&gt;String.UnicodeScalarView -->
<g id="edge84" class="edge">
<path fill="none" stroke="#cccccc" d="M621.712,-115.883C593.737,-96.0744 531.53,-52.0275 497.802,-28.1456"/>
<polygon fill="#cccccc" stroke="#cccccc" points="499.671,-25.1803 489.487,-22.2579 495.626,-30.8932 499.671,-25.1803"/>
</g>
<!-- RangeReplaceableCollectionType&#45;&gt;_ArrayType -->
<g id="edge82" class="edge">
<path fill="none" stroke="#cccccc" d="M668.002,-115.988C697.437,-106.779 741.263,-93.0685 773.404,-83.0134"/>
<polygon fill="#cccccc" stroke="#cccccc" points="774.475,-86.3455 782.974,-80.0192 772.385,-79.6648 774.475,-86.3455"/>
</g>
<!-- _ArrayType&#45;&gt;Array -->
<g id="edge76" class="edge">
<path fill="none" stroke="#cccccc" d="M831.984,-57.9883C846.484,-49.441 867.563,-37.0155 884.156,-27.2343"/>
<polygon fill="#cccccc" stroke="#cccccc" points="886.005,-30.2071 892.843,-22.1138 882.451,-24.1768 886.005,-30.2071"/>
</g>
<!-- _ArrayType&#45;&gt;ArraySlice -->
<g id="edge77" class="edge">
<path fill="none" stroke="#cccccc" d="M783.356,-57.9883C754.374,-48.819 711.286,-35.1866 679.543,-25.1436"/>
<polygon fill="#cccccc" stroke="#cccccc" points="680.258,-21.6988 669.668,-22.0192 678.146,-28.3728 680.258,-21.6988"/>
</g>
<!-- _ArrayType&#45;&gt;ContiguousArray -->
<g id="edge78" class="edge">
<path fill="none" stroke="#cccccc" d="M815,-57.9883C815,-50.9098 815,-41.1714 815,-32.4779"/>
<polygon fill="#cccccc" stroke="#cccccc" points="818.5,-32.3038 815,-22.3039 811.5,-32.3039 818.5,-32.3038"/>
</g>
</g>
</svg>
