<?xml version="1.0" encoding="UTF-8" standalone="no"?>
<!DOCTYPE svg PUBLIC "-//W3C//DTD SVG 1.1//EN"
 "http://www.w3.org/Graphics/SVG/1.1/DTD/svg11.dtd">
<!-- Generated by graphviz version 2.36.0 (20140111.2315)
 -->
<!-- Title: Indexable &#45; Type Hierarchy &#45; SwiftDoc.org Pages: 1 -->
<svg width="3575pt" height="427pt"
 viewBox="0.00 0.00 3575.40 427.20" xmlns="http://www.w3.org/2000/svg" xmlns:xlink="http://www.w3.org/1999/xlink">
<g id="graph0" class="graph" transform="scale(1 1) rotate(0) translate(7.2 369.6)">
<g transform="translate(0 -369.6)">
<g>
    <path fill="#666666" d="M13.846,10.832c-0.336-0.464-0.792-0.844-1.368-1.14s-1.224-0.444-1.944-0.444
        c-0.384,0-0.772,0.052-1.164,0.156C8.977,9.509,8.622,9.677,8.301,9.908c-0.32,0.232-0.58,0.52-0.78,0.864
        c-0.2,0.344-0.3,0.756-0.3,1.236c0,0.464,0.092,0.852,0.276,1.164c0.184,0.312,0.432,0.576,0.744,0.792s0.68,0.4,1.104,0.552
        c0.423,0.152,0.876,0.309,1.356,0.468c0.576,0.177,1.16,0.376,1.752,0.601c0.592,0.224,1.128,0.52,1.608,0.888
        s0.872,0.828,1.176,1.38s0.456,1.252,0.456,2.101c0,0.88-0.164,1.644-0.492,2.292c-0.328,0.647-0.765,1.184-1.308,1.607
        c-0.544,0.424-1.172,0.74-1.884,0.948s-1.444,0.312-2.196,0.312c-1.072,0-2.108-0.208-3.108-0.624
        c-1-0.415-1.828-1.031-2.484-1.848l1.848-1.56c0.4,0.592,0.936,1.071,1.608,1.439c0.672,0.368,1.399,0.552,2.184,0.552
        c0.4,0,0.8-0.056,1.2-0.168c0.4-0.111,0.764-0.288,1.092-0.527c0.328-0.24,0.596-0.54,0.804-0.9
        c0.208-0.36,0.312-0.796,0.312-1.308s-0.108-0.94-0.324-1.284c-0.216-0.344-0.508-0.636-0.876-0.876s-0.796-0.444-1.284-0.612
        c-0.488-0.168-1.004-0.34-1.548-0.516c-0.544-0.16-1.08-0.356-1.608-0.588c-0.528-0.232-1-0.528-1.416-0.889
        c-0.416-0.359-0.752-0.804-1.008-1.332c-0.256-0.527-0.384-1.184-0.384-1.968c0-0.848,0.172-1.576,0.516-2.184
        c0.344-0.608,0.792-1.112,1.344-1.512c0.552-0.4,1.176-0.692,1.872-0.876c0.696-0.184,1.396-0.276,2.1-0.276
        c0.992,0,1.92,0.176,2.784,0.528c0.864,0.352,1.56,0.824,2.088,1.416L13.846,10.832z"/>
    <path fill="#666666" d="M18.813,13.304l2.568,8.688h0.048l2.712-8.688h2.376l2.76,8.688h0.048l2.568-8.688h2.376L30.501,24.68
        h-2.352l-2.808-8.544h-0.048l-2.784,8.544h-2.352l-3.792-11.376H18.813z"/>
    <path fill="#666666" d="M38.685,9.2c0,0.416-0.147,0.76-0.44,1.032c-0.294,0.272-0.647,0.408-1.06,0.408s-0.762-0.14-1.047-0.42
        c-0.286-0.28-0.429-0.62-0.429-1.02c0-0.416,0.143-0.764,0.429-1.044c0.286-0.28,0.635-0.42,1.047-0.42s0.766,0.14,1.06,0.42
        C38.538,8.437,38.685,8.784,38.685,9.2z M38.325,24.68h-2.256V13.304h2.256V24.68z"/>
    <path fill="#666666" d="M47.613,15.152h-2.64v9.528h-2.256v-9.528h-2.256v-1.848h2.256v-2.376c0-0.672,0.076-1.292,0.228-1.86
        c0.152-0.568,0.4-1.06,0.744-1.476c0.344-0.416,0.784-0.744,1.32-0.984c0.536-0.24,1.188-0.36,1.956-0.36
        c0.544,0,1.016,0.056,1.416,0.168l-0.264,1.944c-0.176-0.048-0.352-0.088-0.528-0.12c-0.176-0.032-0.376-0.048-0.6-0.048
        c-0.432,0-0.78,0.076-1.044,0.228c-0.264,0.152-0.468,0.356-0.612,0.612s-0.24,0.548-0.288,0.876
        c-0.048,0.328-0.072,0.668-0.072,1.02v2.376h2.64V15.152z"/>
    <path fill="#666666" d="M54.909,15.152h-3.024v5.91c0,0.687,0.128,1.177,0.384,1.472c0.256,0.295,0.664,0.442,1.224,0.442
        c0.208,0,0.432-0.021,0.672-0.065c0.24-0.044,0.456-0.11,0.648-0.198l0.072,1.848c-0.272,0.096-0.572,0.172-0.9,0.229
        c-0.328,0.056-0.668,0.084-1.02,0.084c-1.072,0-1.892-0.296-2.46-0.889c-0.568-0.592-0.852-1.479-0.852-2.664v-6.168h-2.184
        v-1.848h2.184V10.04h2.232v3.264h3.024V15.152z"/>
    <path fill="#666666" d="M57.356,7.688h5.832c1.088,0,2.176,0.16,3.264,0.48c1.088,0.32,2.072,0.824,2.952,1.512
        s1.592,1.568,2.136,2.64c0.544,1.072,0.816,2.36,0.816,3.864c0,1.456-0.272,2.716-0.816,3.78s-1.256,1.943-2.136,2.64
        s-1.864,1.216-2.952,1.561c-1.088,0.344-2.176,0.516-3.264,0.516h-5.832V7.688z M59.732,22.593h2.976
        c1.024,0,1.972-0.145,2.844-0.432c0.872-0.288,1.624-0.704,2.256-1.248c0.632-0.544,1.124-1.216,1.476-2.017
        c0.352-0.8,0.528-1.704,0.528-2.712c0-1.056-0.176-1.983-0.528-2.784c-0.353-0.8-0.844-1.468-1.476-2.004
        c-0.632-0.536-1.384-0.944-2.256-1.224s-1.82-0.42-2.844-0.42h-2.976V22.593z"/>
    <path fill="#666666" d="M86.06,18.969c0,0.88-0.156,1.688-0.468,2.424c-0.312,0.736-0.744,1.372-1.296,1.908
        c-0.552,0.536-1.204,0.952-1.956,1.248c-0.752,0.296-1.56,0.443-2.424,0.443c-0.864,0-1.672-0.147-2.424-0.443
        c-0.752-0.296-1.4-0.712-1.944-1.248c-0.544-0.536-0.972-1.172-1.284-1.908c-0.312-0.735-0.468-1.544-0.468-2.424
        s0.156-1.684,0.468-2.412c0.312-0.728,0.74-1.356,1.284-1.884c0.543-0.528,1.191-0.939,1.944-1.236
        c0.752-0.296,1.56-0.444,2.424-0.444c0.864,0,1.672,0.148,2.424,0.444c0.752,0.297,1.404,0.708,1.956,1.236
        c0.552,0.527,0.984,1.156,1.296,1.884C85.904,17.285,86.06,18.089,86.06,18.969z M83.708,18.98c0-0.542-0.084-1.061-0.252-1.556
        c-0.169-0.494-0.414-0.929-0.734-1.304s-0.718-0.674-1.192-0.897s-1.015-0.335-1.625-0.335c-0.61,0-1.152,0.111-1.625,0.335
        c-0.474,0.224-0.871,0.522-1.191,0.897c-0.321,0.375-0.566,0.81-0.734,1.304C76.184,17.92,76.1,18.438,76.1,18.98
        c0,0.543,0.084,1.062,0.253,1.556c0.168,0.495,0.413,0.934,0.734,1.316c0.321,0.383,0.718,0.686,1.191,0.909
        c0.473,0.224,1.015,0.335,1.625,0.335c0.61,0,1.151-0.111,1.625-0.335s0.871-0.526,1.192-0.909s0.565-0.821,0.734-1.316
        C83.624,20.042,83.708,19.523,83.708,18.98z"/>
    <path fill="#666666" d="M96.428,16.184c-0.24-0.368-0.6-0.676-1.08-0.924s-0.992-0.372-1.536-0.372
        c-0.592,0-1.116,0.112-1.572,0.336c-0.456,0.225-0.844,0.524-1.164,0.9c-0.32,0.376-0.564,0.812-0.732,1.308
        s-0.252,1.017-0.252,1.56c0,0.545,0.084,1.064,0.252,1.561s0.412,0.933,0.732,1.308c0.32,0.376,0.712,0.677,1.176,0.9
        c0.464,0.225,0.992,0.336,1.584,0.336c0.576,0,1.1-0.111,1.572-0.336c0.472-0.224,0.86-0.528,1.164-0.912l1.512,1.368
        c-0.48,0.561-1.08,0.996-1.8,1.308c-0.72,0.312-1.536,0.468-2.448,0.468c-0.88,0-1.692-0.144-2.436-0.432
        c-0.744-0.288-1.388-0.691-1.932-1.212c-0.544-0.52-0.972-1.147-1.284-1.884s-0.468-1.561-0.468-2.473
        c0-0.896,0.152-1.711,0.456-2.447c0.304-0.736,0.728-1.368,1.272-1.896c0.543-0.527,1.188-0.936,1.932-1.224
        c0.744-0.288,1.548-0.433,2.412-0.433c0.8,0,1.596,0.16,2.388,0.48s1.419,0.784,1.884,1.392L96.428,16.184z"/>
    <path fill="#666666" d="M103.1,23.24c0,0.417-0.152,0.784-0.456,1.104c-0.304,0.32-0.688,0.479-1.152,0.479
        c-0.448,0-0.828-0.155-1.14-0.468c-0.312-0.312-0.468-0.676-0.468-1.092c0-0.432,0.152-0.804,0.456-1.116
        c0.304-0.312,0.688-0.468,1.152-0.468c0.464,0,0.848,0.152,1.152,0.456C102.947,22.44,103.1,22.808,103.1,23.24z"/>
    <path fill="#666666" d="M116.635,18.969c0,0.88-0.156,1.688-0.468,2.424c-0.312,0.736-0.744,1.372-1.296,1.908
        c-0.552,0.536-1.204,0.952-1.956,1.248c-0.752,0.296-1.56,0.443-2.424,0.443c-0.864,0-1.672-0.147-2.424-0.443
        c-0.752-0.296-1.4-0.712-1.944-1.248c-0.544-0.536-0.972-1.172-1.284-1.908c-0.312-0.735-0.468-1.544-0.468-2.424
        s0.156-1.684,0.468-2.412c0.312-0.728,0.74-1.356,1.284-1.884c0.543-0.528,1.191-0.939,1.944-1.236
        c0.752-0.296,1.56-0.444,2.424-0.444c0.864,0,1.672,0.148,2.424,0.444c0.752,0.297,1.404,0.708,1.956,1.236
        c0.552,0.527,0.984,1.156,1.296,1.884C116.479,17.285,116.635,18.089,116.635,18.969z M114.283,18.98
        c0-0.542-0.084-1.061-0.252-1.556c-0.169-0.494-0.414-0.929-0.734-1.304s-0.718-0.674-1.192-0.897s-1.015-0.335-1.625-0.335
        c-0.61,0-1.152,0.111-1.625,0.335c-0.474,0.224-0.871,0.522-1.191,0.897c-0.321,0.375-0.566,0.81-0.734,1.304
        c-0.169,0.495-0.253,1.014-0.253,1.556c0,0.543,0.084,1.062,0.253,1.556c0.168,0.495,0.413,0.934,0.734,1.316
        c0.321,0.383,0.718,0.686,1.191,0.909c0.473,0.224,1.015,0.335,1.625,0.335c0.61,0,1.151-0.111,1.625-0.335
        s0.871-0.526,1.192-0.909s0.565-0.821,0.734-1.316C114.199,20.042,114.283,19.523,114.283,18.98z"/>
    <path fill="#666666" d="M119.251,14.577c-0.016-0.48-0.04-0.904-0.072-1.272h2.136c0.032,0.288,0.056,0.62,0.072,0.996
        c0.016,0.376,0.024,0.684,0.024,0.924h0.072c0.32-0.672,0.788-1.212,1.404-1.62c0.616-0.408,1.308-0.612,2.076-0.612
        c0.352,0,0.648,0.033,0.888,0.097l-0.096,2.088c-0.32-0.08-0.664-0.12-1.032-0.12c-0.544,0-1.016,0.101-1.416,0.3
        c-0.4,0.2-0.732,0.468-0.996,0.805c-0.264,0.336-0.46,0.724-0.588,1.163c-0.128,0.44-0.192,0.9-0.192,1.381v5.976h-2.256v-8.928
        C119.275,15.449,119.267,15.056,119.251,14.577z"/>
    <path fill="#666666" d="M128.419,26.625c0.496,0.56,1.116,1.008,1.86,1.344c0.744,0.336,1.508,0.504,2.292,0.504
        c0.752,0,1.384-0.108,1.896-0.324s0.924-0.512,1.236-0.888s0.536-0.82,0.672-1.332c0.136-0.513,0.204-1.064,0.204-1.656v-1.464
        h-0.048c-0.416,0.641-0.984,1.128-1.704,1.464c-0.72,0.336-1.488,0.504-2.304,0.504c-0.864,0-1.652-0.151-2.364-0.456
        c-0.712-0.304-1.316-0.72-1.812-1.248c-0.496-0.527-0.88-1.147-1.152-1.859s-0.408-1.477-0.408-2.292
        c0-0.816,0.136-1.584,0.408-2.305c0.272-0.72,0.656-1.348,1.152-1.884c0.496-0.535,1.096-0.96,1.8-1.271
        c0.704-0.312,1.488-0.469,2.352-0.469c0.816,0,1.596,0.177,2.34,0.528c0.744,0.353,1.332,0.888,1.764,1.608h0.048v-1.824h2.184
        v10.8c0,0.832-0.104,1.628-0.312,2.388c-0.208,0.76-0.56,1.433-1.056,2.017s-1.144,1.052-1.944,1.404
        c-0.8,0.352-1.792,0.527-2.976,0.527c-0.992,0-1.988-0.18-2.988-0.54c-1-0.359-1.86-0.868-2.58-1.523L128.419,26.625z
         M129.091,18.873c0,0.527,0.084,1.031,0.253,1.512c0.168,0.479,0.417,0.904,0.746,1.271c0.329,0.369,0.726,0.664,1.192,0.889
        c0.465,0.224,0.995,0.336,1.589,0.336c0.577,0,1.107-0.104,1.589-0.312c0.481-0.207,0.891-0.491,1.228-0.852
        s0.598-0.784,0.782-1.272c0.185-0.487,0.277-1.012,0.277-1.571c0-0.544-0.093-1.057-0.277-1.536
        c-0.185-0.48-0.449-0.904-0.794-1.272c-0.345-0.367-0.755-0.66-1.228-0.876c-0.474-0.216-1-0.324-1.577-0.324
        c-0.594,0-1.124,0.108-1.589,0.324c-0.466,0.216-0.863,0.504-1.192,0.864s-0.578,0.784-0.746,1.271
        C129.175,17.812,129.091,18.329,129.091,18.873z"/>
</g>
<g><a xlink:href="/" pointer-events="all" target="_top"><polygon fill="none" points="0,0 145,0 145,35 0,35 0,0"/></a></g>

</g>


<!-- AnyBidirectionalCollection -->
<g id="node1" class="node">
<g id="a_node1"><a xlink:href="/swift-2/type/AnyBidirectionalCollection/" target="_top">
<polygon fill="#999999" stroke="#999999" points="1178.05,-22 1029.95,-22 1029.95,-0 1178.05,-0 1178.05,-22"/>
<text text-anchor="middle" x="1104" y="-7.4" font-family="Helvetica,sans-Serif" font-size="12.00" fill="white">AnyBidirectionalCollection</text>
</a>
</g>
</g>
<!-- AnyCollectionType -->
<g id="node2" class="node">
<g id="a_node2"><a xlink:href="/swift-2/protocol/AnyCollectionType/" target="_top">
<path fill="#999999" stroke="#999999" d="M1518.21,-80C1518.21,-80 1423.79,-80 1423.79,-80 1420.12,-80 1416.46,-76.3333 1416.46,-72.6667 1416.46,-72.6667 1416.46,-65.3333 1416.46,-65.3333 1416.46,-61.6667 1420.12,-58 1423.79,-58 1423.79,-58 1518.21,-58 1518.21,-58 1521.88,-58 1525.54,-61.6667 1525.54,-65.3333 1525.54,-65.3333 1525.54,-72.6667 1525.54,-72.6667 1525.54,-76.3333 1521.88,-80 1518.21,-80"/>
<text text-anchor="middle" x="1471" y="-65.4" font-family="Helvetica,sans-Serif" font-size="12.00" fill="white">AnyCollectionType</text>
</a>
</g>
</g>
<!-- AnyCollectionType&#45;&gt;AnyBidirectionalCollection -->
<g id="edge62" class="edge">
<path fill="none" stroke="#cccccc" d="M1416.45,-59.6767C1353.74,-50.1079 1250.41,-34.3398 1179.88,-23.5777"/>
<polygon fill="#cccccc" stroke="#cccccc" points="1180.13,-20.0761 1169.72,-22.0275 1179.07,-26.996 1180.13,-20.0761"/>
</g>
<!-- AnyForwardCollection -->
<g id="node3" class="node">
<g id="a_node3"><a xlink:href="/swift-2/type/AnyForwardCollection/" target="_top">
<polygon fill="#999999" stroke="#999999" points="1323.54,-22 1196.46,-22 1196.46,-0 1323.54,-0 1323.54,-22"/>
<text text-anchor="middle" x="1260" y="-7.4" font-family="Helvetica,sans-Serif" font-size="12.00" fill="white">AnyForwardCollection</text>
</a>
</g>
</g>
<!-- AnyCollectionType&#45;&gt;AnyForwardCollection -->
<g id="edge63" class="edge">
<path fill="none" stroke="#cccccc" d="M1433.28,-57.9883C1398.13,-48.6603 1345.58,-34.7132 1307.57,-24.6252"/>
<polygon fill="#cccccc" stroke="#cccccc" points="1308.31,-21.2017 1297.75,-22.0192 1306.52,-27.9674 1308.31,-21.2017"/>
</g>
<!-- AnyRandomAccessCollection -->
<g id="node4" class="node">
<g id="a_node4"><a xlink:href="/swift-2/type/AnyRandomAccessCollection/" target="_top">
<polygon fill="#999999" stroke="#999999" points="1508.55,-22 1341.45,-22 1341.45,-0 1508.55,-0 1508.55,-22"/>
<text text-anchor="middle" x="1425" y="-7.4" font-family="Helvetica,sans-Serif" font-size="12.00" fill="white">AnyRandomAccessCollection</text>
</a>
</g>
</g>
<!-- AnyCollectionType&#45;&gt;AnyRandomAccessCollection -->
<g id="edge64" class="edge">
<path fill="none" stroke="#cccccc" d="M1462.78,-57.9883C1456.44,-50.2806 1447.52,-39.4191 1439.94,-30.187"/>
<polygon fill="#cccccc" stroke="#cccccc" points="1442.52,-27.8096 1433.46,-22.3039 1437.11,-32.2528 1442.52,-27.8096"/>
</g>
<!-- Array -->
<g id="node5" class="node">
<g id="a_node5"><a xlink:href="/swift-2/type/Array/" target="_top">
<polygon fill="#999999" stroke="#999999" points="586,-22 532,-22 532,-0 586,-0 586,-22"/>
<text text-anchor="middle" x="559" y="-7.4" font-family="Helvetica,sans-Serif" font-size="12.00" fill="white">Array</text>
</a>
</g>
</g>
<!-- ArraySlice -->
<g id="node6" class="node">
<g id="a_node6"><a xlink:href="/swift-2/type/ArraySlice/" target="_top">
<polygon fill="#999999" stroke="#999999" points="514.011,-22 449.989,-22 449.989,-0 514.011,-0 514.011,-22"/>
<text text-anchor="middle" x="482" y="-7.4" font-family="Helvetica,sans-Serif" font-size="12.00" fill="white">ArraySlice</text>
</a>
</g>
</g>
<!-- CollectionOfOne -->
<g id="node7" class="node">
<g id="a_node7"><a xlink:href="/swift-2/type/CollectionOfOne/" target="_top">
<polygon fill="#999999" stroke="#999999" points="170.032,-22 71.9678,-22 71.9678,-0 170.032,-0 170.032,-22"/>
<text text-anchor="middle" x="121" y="-7.4" font-family="Helvetica,sans-Serif" font-size="12.00" fill="white">CollectionOfOne</text>
</a>
</g>
</g>
<!-- CollectionType -->
<g id="node8" class="node">
<g id="a_node8"><a xlink:href="/swift-2/protocol/CollectionType/" target="_top">
<path fill="#999999" stroke="#999999" d="M1704.7,-254C1704.7,-254 1631.3,-254 1631.3,-254 1627.63,-254 1623.96,-250.333 1623.96,-246.667 1623.96,-246.667 1623.96,-239.333 1623.96,-239.333 1623.96,-235.667 1627.63,-232 1631.3,-232 1631.3,-232 1704.7,-232 1704.7,-232 1708.37,-232 1712.04,-235.667 1712.04,-239.333 1712.04,-239.333 1712.04,-246.667 1712.04,-246.667 1712.04,-250.333 1708.37,-254 1704.7,-254"/>
<text text-anchor="middle" x="1668" y="-239.4" font-family="Helvetica,sans-Serif" font-size="12.00" fill="white">CollectionType</text>
</a>
</g>
</g>
<!-- CollectionType&#45;&gt;AnyBidirectionalCollection -->
<g id="edge30" class="edge">
<path fill="none" stroke="#cccccc" d="M1636.78,-231.902C1613.09,-223.677 1580.09,-210.997 1553,-196 1462,-145.626 1459.68,-98.7801 1364,-58 1332.98,-44.7782 1251.73,-31.56 1188.24,-22.7086"/>
<polygon fill="#cccccc" stroke="#cccccc" points="1188.6,-19.2248 1178.22,-21.3262 1187.64,-26.1592 1188.6,-19.2248"/>
</g>
<!-- CollectionType&#45;&gt;AnyCollectionType -->
<g id="edge31" class="edge">
<path fill="none" stroke="#cccccc" d="M1640.96,-231.88C1622.06,-223.963 1596.92,-211.675 1578,-196 1543.36,-167.297 1545.56,-149.912 1516,-116 1507.46,-106.199 1497.38,-95.8025 1488.93,-87.3778"/>
<polygon fill="#cccccc" stroke="#cccccc" points="1491.3,-84.7964 1481.72,-80.2687 1486.39,-89.7815 1491.3,-84.7964"/>
</g>
<!-- CollectionType&#45;&gt;AnyForwardCollection -->
<g id="edge32" class="edge">
<path fill="none" stroke="#cccccc" d="M1663.99,-231.917C1650.81,-200.251 1605.59,-102.272 1534,-58 1525.46,-52.7192 1412.09,-34.8447 1333.89,-22.9949"/>
<polygon fill="#cccccc" stroke="#cccccc" points="1333.99,-19.4707 1323.58,-21.4369 1332.95,-26.3921 1333.99,-19.4707"/>
</g>
<!-- CollectionType&#45;&gt;AnyRandomAccessCollection -->
<g id="edge33" class="edge">
<path fill="none" stroke="#cccccc" d="M1667.78,-231.866C1666.54,-200.882 1658.42,-106.573 1606,-58 1590.42,-43.5659 1543.39,-31.859 1501.18,-23.8677"/>
<polygon fill="#cccccc" stroke="#cccccc" points="1501.61,-20.3876 1491.14,-22.0179 1500.34,-27.2718 1501.61,-20.3876"/>
</g>
<!-- CollectionType&#45;&gt;Array -->
<g id="edge34" class="edge">
<path fill="none" stroke="#cccccc" d="M1623.73,-241.772C1422.6,-240.534 602.9,-233.212 564,-196 519.443,-153.377 539.213,-70.4757 551.653,-32.2276"/>
<polygon fill="#cccccc" stroke="#cccccc" points="555.128,-32.8825 555.054,-22.2879 548.505,-30.6164 555.128,-32.8825"/>
</g>
<!-- CollectionType&#45;&gt;ArraySlice -->
<g id="edge35" class="edge">
<path fill="none" stroke="#cccccc" d="M1623.91,-241.758C1428.75,-240.477 647.667,-233.058 545,-196 465.067,-167.148 430.686,-156.167 393,-80 380.372,-54.4767 411.316,-35.9021 440.114,-24.6786"/>
<polygon fill="#cccccc" stroke="#cccccc" points="441.546,-27.8814 449.732,-21.1547 439.138,-21.3086 441.546,-27.8814"/>
</g>
<!-- CollectionType&#45;&gt;CollectionOfOne -->
<g id="edge36" class="edge">
<path fill="none" stroke="#cccccc" d="M1623.67,-241.866C1411.95,-241.029 509.022,-235.172 390,-196 282.398,-160.587 178.573,-68.0266 138.429,-29.3634"/>
<polygon fill="#cccccc" stroke="#cccccc" points="140.662,-26.6517 131.058,-22.1762 135.775,-31.6635 140.662,-26.6517"/>
</g>
<!-- ContiguousArray -->
<g id="node9" class="node">
<g id="a_node9"><a xlink:href="/swift-2/type/ContiguousArray/" target="_top">
<polygon fill="#999999" stroke="#999999" points="703.534,-22 604.466,-22 604.466,-0 703.534,-0 703.534,-22"/>
<text text-anchor="middle" x="654" y="-7.4" font-family="Helvetica,sans-Serif" font-size="12.00" fill="white">ContiguousArray</text>
</a>
</g>
</g>
<!-- CollectionType&#45;&gt;ContiguousArray -->
<g id="edge37" class="edge">
<path fill="none" stroke="#cccccc" d="M1623.87,-236.172C1570.8,-228.75 1479.22,-214.621 1402,-196 1351.88,-183.915 1009.27,-69.4197 959,-58 853.988,-34.1467 823.343,-39.1007 713.512,-22.1901"/>
<polygon fill="#cccccc" stroke="#cccccc" points="713.768,-18.6876 703.347,-20.5978 712.684,-25.6033 713.768,-18.6876"/>
</g>
<!-- Dictionary -->
<g id="node10" class="node">
<g id="a_node10"><a xlink:href="/swift-2/type/Dictionary/" target="_top">
<polygon fill="#999999" stroke="#999999" points="251.511,-22 188.489,-22 188.489,-0 251.511,-0 251.511,-22"/>
<text text-anchor="middle" x="220" y="-7.4" font-family="Helvetica,sans-Serif" font-size="12.00" fill="white">Dictionary</text>
</a>
</g>
</g>
<!-- CollectionType&#45;&gt;Dictionary -->
<g id="edge38" class="edge">
<path fill="none" stroke="#cccccc" d="M1623.68,-241.856C1417.05,-240.983 553.559,-235.01 440,-196 346.311,-163.815 265.369,-70.5239 233.948,-30.5441"/>
<polygon fill="#cccccc" stroke="#cccccc" points="236.568,-28.2106 227.684,-22.4374 231.029,-32.4905 236.568,-28.2106"/>
</g>
<!-- DictionaryLiteral -->
<g id="node11" class="node">
<g id="a_node11"><a xlink:href="/swift-2/type/DictionaryLiteral/" target="_top">
<polygon fill="#999999" stroke="#999999" points="2844.02,-22 2747.98,-22 2747.98,-0 2844.02,-0 2844.02,-22"/>
<text text-anchor="middle" x="2796" y="-7.4" font-family="Helvetica,sans-Serif" font-size="12.00" fill="white">DictionaryLiteral</text>
</a>
</g>
</g>
<!-- CollectionType&#45;&gt;DictionaryLiteral -->
<g id="edge39" class="edge">
<path fill="none" stroke="#cccccc" d="M1712.29,-238.352C1777.43,-232.457 1902.62,-219.1 2007,-196 2209.18,-151.258 2249.61,-101.765 2452,-58 2577.22,-30.9223 2611.29,-40.8886 2738,-22 2738.1,-21.9849 2738.2,-21.9698 2738.3,-21.9547"/>
<polygon fill="#cccccc" stroke="#cccccc" points="2738.58,-25.4545 2747.92,-20.463 2737.5,-18.5372 2738.58,-25.4545"/>
</g>
<!-- EmptyCollection -->
<g id="node12" class="node">
<g id="a_node12"><a xlink:href="/swift-2/type/EmptyCollection/" target="_top">
<polygon fill="#999999" stroke="#999999" points="1965.03,-22 1868.97,-22 1868.97,-0 1965.03,-0 1965.03,-22"/>
<text text-anchor="middle" x="1917" y="-7.4" font-family="Helvetica,sans-Serif" font-size="12.00" fill="white">EmptyCollection</text>
</a>
</g>
</g>
<!-- CollectionType&#45;&gt;EmptyCollection -->
<g id="edge40" class="edge">
<path fill="none" stroke="#cccccc" d="M1679.02,-231.82C1717.99,-195.824 1849.56,-74.2909 1898.48,-29.1061"/>
<polygon fill="#cccccc" stroke="#cccccc" points="1901.14,-31.4183 1906.11,-22.062 1896.39,-26.2763 1901.14,-31.4183"/>
</g>
<!-- FilterCollection -->
<g id="node13" class="node">
<g id="a_node13"><a xlink:href="/swift-2/type/FilterCollection/" target="_top">
<polygon fill="#999999" stroke="#999999" points="3076.52,-22 2987.48,-22 2987.48,-0 3076.52,-0 3076.52,-22"/>
<text text-anchor="middle" x="3032" y="-7.4" font-family="Helvetica,sans-Serif" font-size="12.00" fill="white">FilterCollection</text>
</a>
</g>
</g>
<!-- CollectionType&#45;&gt;FilterCollection -->
<g id="edge41" class="edge">
<path fill="none" stroke="#cccccc" d="M1712.1,-240.117C1793.54,-236.068 1972.72,-224.478 2121,-196 2340.25,-153.891 2384.64,-99.5347 2604,-58 2764.87,-27.5398 2810.85,-44.5299 2977.45,-21.9456"/>
<polygon fill="#cccccc" stroke="#cccccc" points="2978.13,-25.3855 2987.55,-20.5482 2977.17,-18.4516 2978.13,-25.3855"/>
</g>
<!-- LazyBidirectionalCollection -->
<g id="node15" class="node">
<g id="a_node15"><a xlink:href="/swift-2/type/LazyBidirectionalCollection/" target="_top">
<polygon fill="#999999" stroke="#999999" points="1679.56,-22 1526.44,-22 1526.44,-0 1679.56,-0 1679.56,-22"/>
<text text-anchor="middle" x="1603" y="-7.4" font-family="Helvetica,sans-Serif" font-size="12.00" fill="white">LazyBidirectionalCollection</text>
</a>
</g>
</g>
<!-- CollectionType&#45;&gt;LazyBidirectionalCollection -->
<g id="edge42" class="edge">
<path fill="none" stroke="#cccccc" d="M1668.7,-231.863C1670.28,-203.123 1672,-119.232 1644,-58 1639.13,-47.3466 1630.92,-37.3908 1623.13,-29.485"/>
<polygon fill="#cccccc" stroke="#cccccc" points="1625.26,-26.6812 1615.61,-22.3126 1620.43,-31.7469 1625.26,-26.6812"/>
</g>
<!-- LazyForwardCollection -->
<g id="node16" class="node">
<g id="a_node16"><a xlink:href="/swift-2/type/LazyForwardCollection/" target="_top">
<polygon fill="#999999" stroke="#999999" points="2115.04,-22 1982.96,-22 1982.96,-0 2115.04,-0 2115.04,-22"/>
<text text-anchor="middle" x="2049" y="-7.4" font-family="Helvetica,sans-Serif" font-size="12.00" fill="white">LazyForwardCollection</text>
</a>
</g>
</g>
<!-- CollectionType&#45;&gt;LazyForwardCollection -->
<g id="edge43" class="edge">
<path fill="none" stroke="#cccccc" d="M1684.86,-231.82C1745.23,-195.378 1950.83,-71.2645 2023.39,-27.4612"/>
<polygon fill="#cccccc" stroke="#cccccc" points="2025.58,-30.2265 2032.33,-22.062 2021.96,-24.2338 2025.58,-30.2265"/>
</g>
<!-- LazyRandomAccessCollection -->
<g id="node17" class="node">
<g id="a_node17"><a xlink:href="/swift-2/type/LazyRandomAccessCollection/" target="_top">
<polygon fill="#999999" stroke="#999999" points="3267.06,-22 3094.94,-22 3094.94,-0 3267.06,-0 3267.06,-22"/>
<text text-anchor="middle" x="3181" y="-7.4" font-family="Helvetica,sans-Serif" font-size="12.00" fill="white">LazyRandomAccessCollection</text>
</a>
</g>
</g>
<!-- CollectionType&#45;&gt;LazyRandomAccessCollection -->
<g id="edge44" class="edge">
<path fill="none" stroke="#cccccc" d="M1712.2,-240.773C1801.85,-237.691 2011.24,-227.462 2184,-196 2409.12,-155.004 2454.88,-98.9672 2680,-58 2854.58,-26.2305 2903.37,-38.8813 3084.77,-21.9936"/>
<polygon fill="#cccccc" stroke="#cccccc" points="3085.29,-25.4597 3094.91,-21.031 3084.63,-18.491 3085.29,-25.4597"/>
</g>
<!-- MapCollection -->
<g id="node18" class="node">
<g id="a_node18"><a xlink:href="/swift-2/type/MapCollection/" target="_top">
<polygon fill="#999999" stroke="#999999" points="3371.03,-22 3284.97,-22 3284.97,-0 3371.03,-0 3371.03,-22"/>
<text text-anchor="middle" x="3328" y="-7.4" font-family="Helvetica,sans-Serif" font-size="12.00" fill="white">MapCollection</text>
</a>
</g>
</g>
<!-- CollectionType&#45;&gt;MapCollection -->
<g id="edge45" class="edge">
<path fill="none" stroke="#cccccc" d="M1712.24,-240.469C1809.55,-236.669 2049.34,-224.937 2248,-196 2538.95,-153.619 2604.37,-102.571 2895,-58 3059.92,-32.7076 3105.89,-45.574 3274.94,-22.0265"/>
<polygon fill="#cccccc" stroke="#cccccc" points="3275.51,-25.48 3284.92,-20.6134 3274.53,-18.5491 3275.51,-25.48"/>
</g>
<!-- MutableCollectionType -->
<g id="node19" class="node">
<g id="a_node19"><a xlink:href="/swift-2/protocol/MutableCollectionType/" target="_top">
<path fill="#999999" stroke="#999999" d="M697.221,-196C697.221,-196 580.779,-196 580.779,-196 577.112,-196 573.446,-192.333 573.446,-188.667 573.446,-188.667 573.446,-181.333 573.446,-181.333 573.446,-177.667 577.112,-174 580.779,-174 580.779,-174 697.221,-174 697.221,-174 700.888,-174 704.554,-177.667 704.554,-181.333 704.554,-181.333 704.554,-188.667 704.554,-188.667 704.554,-192.333 700.888,-196 697.221,-196"/>
<text text-anchor="middle" x="639" y="-181.4" font-family="Helvetica,sans-Serif" font-size="12.00" fill="white">MutableCollectionType</text>
</a>
</g>
</g>
<!-- CollectionType&#45;&gt;MutableCollectionType -->
<g id="edge46" class="edge">
<path fill="none" stroke="#cccccc" d="M1623.79,-239.594C1464.22,-230.91 916.865,-201.122 714.766,-190.123"/>
<polygon fill="#cccccc" stroke="#cccccc" points="714.717,-186.616 704.541,-189.567 714.336,-193.605 714.717,-186.616"/>
</g>
<!-- MutableSliceable -->
<g id="node20" class="node">
<g id="a_node20"><a xlink:href="/swift-2/protocol/MutableSliceable/" target="_top">
<path fill="#999999" stroke="#999999" d="M802.208,-138C802.208,-138 715.792,-138 715.792,-138 712.126,-138 708.459,-134.333 708.459,-130.667 708.459,-130.667 708.459,-123.333 708.459,-123.333 708.459,-119.667 712.126,-116 715.792,-116 715.792,-116 802.208,-116 802.208,-116 805.874,-116 809.541,-119.667 809.541,-123.333 809.541,-123.333 809.541,-130.667 809.541,-130.667 809.541,-134.333 805.874,-138 802.208,-138"/>
<text text-anchor="middle" x="759" y="-123.4" font-family="Helvetica,sans-Serif" font-size="12.00" fill="white">MutableSliceable</text>
</a>
</g>
</g>
<!-- CollectionType&#45;&gt;MutableSliceable -->
<g id="edge47" class="edge">
<path fill="none" stroke="#cccccc" d="M1623.7,-237.596C1546.92,-229.864 1384.17,-213.047 1247,-196 1092.77,-176.833 911.651,-150.62 819.499,-137.018"/>
<polygon fill="#cccccc" stroke="#cccccc" points="819.921,-133.542 809.516,-135.542 818.897,-140.467 819.921,-133.542"/>
</g>
<!-- Range -->
<g id="node21" class="node">
<g id="a_node21"><a xlink:href="/swift-2/type/Range/" target="_top">
<polygon fill="#999999" stroke="#999999" points="54,-22 0,-22 0,-0 54,-0 54,-22"/>
<text text-anchor="middle" x="27" y="-7.4" font-family="Helvetica,sans-Serif" font-size="12.00" fill="white">Range</text>
</a>
</g>
</g>
<!-- CollectionType&#45;&gt;Range -->
<g id="edge48" class="edge">
<path fill="none" stroke="#cccccc" d="M1623.7,-241.773C1406.83,-240.488 462.571,-232.803 337,-196 216.004,-160.537 93.4619,-66.9385 46.7401,-28.6668"/>
<polygon fill="#cccccc" stroke="#cccccc" points="48.8512,-25.8708 38.9159,-22.191 44.388,-31.2634 48.8512,-25.8708"/>
</g>
<!-- RangeReplaceableCollectionType -->
<g id="node22" class="node">
<g id="a_node22"><a xlink:href="/swift-2/protocol/RangeReplaceableCollectionType/" target="_top">
<path fill="#999999" stroke="#999999" d="M1086.76,-138C1086.76,-138 911.24,-138 911.24,-138 907.573,-138 903.906,-134.333 903.906,-130.667 903.906,-130.667 903.906,-123.333 903.906,-123.333 903.906,-119.667 907.573,-116 911.24,-116 911.24,-116 1086.76,-116 1086.76,-116 1090.43,-116 1094.09,-119.667 1094.09,-123.333 1094.09,-123.333 1094.09,-130.667 1094.09,-130.667 1094.09,-134.333 1090.43,-138 1086.76,-138"/>
<text text-anchor="middle" x="999" y="-123.4" font-family="Helvetica,sans-Serif" font-size="12.00" fill="white">RangeReplaceableCollectionType</text>
</a>
</g>
</g>
<!-- CollectionType&#45;&gt;RangeReplaceableCollectionType -->
<g id="edge49" class="edge">
<path fill="none" stroke="#cccccc" d="M1623.62,-235.397C1566.01,-226.749 1462.38,-210.926 1374,-196 1264.18,-177.454 1136.64,-153.896 1062.17,-139.937"/>
<polygon fill="#cccccc" stroke="#cccccc" points="1062.5,-136.437 1052.03,-138.032 1061.21,-143.317 1062.5,-136.437"/>
</g>
<!-- Repeat -->
<g id="node23" class="node">
<g id="a_node23"><a xlink:href="/swift-2/type/Repeat/" target="_top">
<polygon fill="#999999" stroke="#999999" points="2594,-22 2540,-22 2540,-0 2594,-0 2594,-22"/>
<text text-anchor="middle" x="2567" y="-7.4" font-family="Helvetica,sans-Serif" font-size="12.00" fill="white">Repeat</text>
</a>
</g>
</g>
<!-- CollectionType&#45;&gt;Repeat -->
<g id="edge50" class="edge">
<path fill="none" stroke="#cccccc" d="M1712.36,-235.296C1760.12,-227.629 1838.11,-213.804 1904,-196 2083.93,-147.381 2119.18,-103.201 2300,-58 2397.75,-33.5636 2427.64,-43.3007 2530.14,-21.9663"/>
<polygon fill="#cccccc" stroke="#cccccc" points="2530.91,-25.3819 2539.96,-19.8754 2529.45,-18.5355 2530.91,-25.3819"/>
</g>
<!-- ReverseCollection -->
<g id="node24" class="node">
<g id="a_node24"><a xlink:href="/swift-2/type/ReverseCollection/" target="_top">
<polygon fill="#999999" stroke="#999999" points="2969.53,-22 2862.47,-22 2862.47,-0 2969.53,-0 2969.53,-22"/>
<text text-anchor="middle" x="2916" y="-7.4" font-family="Helvetica,sans-Serif" font-size="12.00" fill="white">ReverseCollection</text>
</a>
</g>
</g>
<!-- CollectionType&#45;&gt;ReverseCollection -->
<g id="edge51" class="edge">
<path fill="none" stroke="#cccccc" d="M1712.23,-239.348C1785.69,-234.387 1937.2,-221.791 2063,-196 2274.18,-152.704 2316.7,-100.703 2528,-58 2667.25,-29.8589 2707.19,-40.87 2852.24,-22.0293"/>
<polygon fill="#cccccc" stroke="#cccccc" points="2852.96,-25.4654 2862.41,-20.6824 2852.04,-18.526 2852.96,-25.4654"/>
</g>
<!-- ReverseRandomAccessCollection -->
<g id="node25" class="node">
<g id="a_node25"><a xlink:href="/swift-2/type/ReverseRandomAccessCollection/" target="_top">
<polygon fill="#999999" stroke="#999999" points="2449.56,-22 2258.44,-22 2258.44,-0 2449.56,-0 2449.56,-22"/>
<text text-anchor="middle" x="2354" y="-7.4" font-family="Helvetica,sans-Serif" font-size="12.00" fill="white">ReverseRandomAccessCollection</text>
</a>
</g>
</g>
<!-- CollectionType&#45;&gt;ReverseRandomAccessCollection -->
<g id="edge52" class="edge">
<path fill="none" stroke="#cccccc" d="M1703.04,-231.996C1733.01,-223.212 1777.17,-209.727 1815,-196 1965.6,-141.356 1995.25,-106.305 2148,-58 2193.42,-43.638 2245.82,-32.0013 2286.41,-24.0251"/>
<polygon fill="#cccccc" stroke="#cccccc" points="2287.31,-27.4156 2296.46,-22.0767 2285.98,-20.5434 2287.31,-27.4156"/>
</g>
<!-- Set -->
<g id="node26" class="node">
<g id="a_node26"><a xlink:href="/swift-2/type/Set/" target="_top">
<polygon fill="#999999" stroke="#999999" points="2522,-22 2468,-22 2468,-0 2522,-0 2522,-22"/>
<text text-anchor="middle" x="2495" y="-7.4" font-family="Helvetica,sans-Serif" font-size="12.00" fill="white">Set</text>
</a>
</g>
</g>
<!-- CollectionType&#45;&gt;Set -->
<g id="edge53" class="edge">
<path fill="none" stroke="#cccccc" d="M1712.33,-232.801C1750.89,-224.422 1808.11,-211.081 1857,-196 2023.52,-144.635 2055.42,-102.152 2224,-58 2322.71,-32.1471 2353.21,-43.0444 2457.61,-21.8499"/>
<polygon fill="#cccccc" stroke="#cccccc" points="2458.53,-25.2334 2467.6,-19.769 2457.1,-18.3803 2458.53,-25.2334"/>
</g>
<!-- Slice -->
<g id="node27" class="node">
<g id="a_node27"><a xlink:href="/swift-2/type/Slice/" target="_top">
<polygon fill="#999999" stroke="#999999" points="3561,-22 3507,-22 3507,-0 3561,-0 3561,-22"/>
<text text-anchor="middle" x="3534" y="-7.4" font-family="Helvetica,sans-Serif" font-size="12.00" fill="white">Slice</text>
</a>
</g>
</g>
<!-- CollectionType&#45;&gt;Slice -->
<g id="edge54" class="edge">
<path fill="none" stroke="#cccccc" d="M1712.11,-240.61C1828.85,-236.652 2155.5,-223.77 2426,-196 2604.7,-177.654 2648.59,-166.17 2826,-138 3121.97,-91.0055 3200.53,-88.4719 3496.77,-22.1133"/>
<polygon fill="#cccccc" stroke="#cccccc" points="3497.96,-25.4336 3506.95,-19.8273 3496.42,-18.6037 3497.96,-25.4336"/>
</g>
<!-- String.CharacterView -->
<g id="node28" class="node">
<g id="a_node28"><a xlink:href="/swift-2/type/String.CharacterView/" target="_top">
<polygon fill="#999999" stroke="#999999" points="844.376,-22 721.624,-22 721.624,-0 844.376,-0 844.376,-22"/>
<text text-anchor="middle" x="783" y="-7.4" font-family="Helvetica,sans-Serif" font-size="12.00" fill="white">String.CharacterView</text>
</a>
</g>
</g>
<!-- CollectionType&#45;&gt;String.CharacterView -->
<g id="edge58" class="edge">
<path fill="none" stroke="#cccccc" d="M1623.63,-234.336C1581.89,-226.58 1517.94,-213.278 1464,-196 1313.38,-147.751 1288.73,-99.0575 1136,-58 1017.08,-26.0318 981.048,-38.15 854.634,-22.039"/>
<polygon fill="#cccccc" stroke="#cccccc" points="854.937,-18.5489 844.567,-20.7211 854.028,-25.4896 854.937,-18.5489"/>
</g>
<!-- String.UTF16View -->
<g id="node29" class="node">
<g id="a_node29"><a xlink:href="/swift-2/type/String.UTF16View/" target="_top">
<polygon fill="#999999" stroke="#999999" points="2240.37,-22 2133.63,-22 2133.63,-0 2240.37,-0 2240.37,-22"/>
<text text-anchor="middle" x="2187" y="-7.4" font-family="Helvetica,sans-Serif" font-size="12.00" fill="white">String.UTF16View</text>
</a>
</g>
</g>
<!-- CollectionType&#45;&gt;String.UTF16View -->
<g id="edge60" class="edge">
<path fill="none" stroke="#cccccc" d="M1692.12,-231.999C1714.08,-222.832 1747.34,-208.782 1776,-196 1908.57,-136.886 1938.79,-115.643 2072,-58 2098.3,-46.6188 2128.39,-34.6202 2151.19,-25.7319"/>
<polygon fill="#cccccc" stroke="#cccccc" points="2152.74,-28.8839 2160.8,-22.0023 2150.21,-22.3583 2152.74,-28.8839"/>
</g>
<!-- String.UTF8View -->
<g id="node30" class="node">
<g id="a_node30"><a xlink:href="/swift-2/type/String.UTF8View/" target="_top">
<polygon fill="#999999" stroke="#999999" points="3489.36,-22 3388.64,-22 3388.64,-0 3489.36,-0 3489.36,-22"/>
<text text-anchor="middle" x="3439" y="-7.4" font-family="Helvetica,sans-Serif" font-size="12.00" fill="white">String.UTF8View</text>
</a>
</g>
</g>
<!-- CollectionType&#45;&gt;String.UTF8View -->
<g id="edge61" class="edge">
<path fill="none" stroke="#cccccc" d="M1712.09,-240.356C1818.25,-236.087 2096.34,-223.047 2327,-196 2731.05,-148.622 3212.21,-56.8464 3378.77,-24.0297"/>
<polygon fill="#cccccc" stroke="#cccccc" points="3379.68,-27.4174 3388.81,-22.0469 3378.32,-20.5499 3379.68,-27.4174"/>
</g>
<!-- String.UnicodeScalarView -->
<g id="node31" class="node">
<g id="a_node31"><a xlink:href="/swift-2/type/String.UnicodeScalarView/" target="_top">
<polygon fill="#999999" stroke="#999999" points="1010.89,-22 863.108,-22 863.108,-0 1010.89,-0 1010.89,-22"/>
<text text-anchor="middle" x="937" y="-7.4" font-family="Helvetica,sans-Serif" font-size="12.00" fill="white">String.UnicodeScalarView</text>
</a>
</g>
</g>
<!-- CollectionType&#45;&gt;String.UnicodeScalarView -->
<g id="edge59" class="edge">
<path fill="none" stroke="#cccccc" d="M1627.02,-231.927C1595.79,-223.715 1552,-211.04 1515,-196 1391.98,-145.996 1376.34,-98.8903 1250,-58 1228.57,-51.0655 1106.14,-34.1363 1020.91,-22.8647"/>
<polygon fill="#cccccc" stroke="#cccccc" points="1021.34,-19.3914 1010.97,-21.5535 1020.42,-26.3313 1021.34,-19.3914"/>
</g>
<!-- UnicodeScalar.UTF16View -->
<g id="node32" class="node">
<g id="a_node32"><a xlink:href="/swift-2/type/UnicodeScalar.UTF16View/" target="_top">
<polygon fill="#999999" stroke="#999999" points="1850.39,-22 1697.61,-22 1697.61,-0 1850.39,-0 1850.39,-22"/>
<text text-anchor="middle" x="1774" y="-7.4" font-family="Helvetica,sans-Serif" font-size="12.00" fill="white">UnicodeScalar.UTF16View</text>
</a>
</g>
</g>
<!-- CollectionType&#45;&gt;UnicodeScalar.UTF16View -->
<g id="edge55" class="edge">
<path fill="none" stroke="#cccccc" d="M1672.69,-231.82C1689.01,-196.419 1743.45,-78.2851 1765.06,-31.4085"/>
<polygon fill="#cccccc" stroke="#cccccc" points="1768.36,-32.6089 1769.36,-22.062 1762,-29.679 1768.36,-32.6089"/>
</g>
<!-- UnsafeBufferPointer -->
<g id="node33" class="node">
<g id="a_node33"><a xlink:href="/swift-2/type/UnsafeBufferPointer/" target="_top">
<polygon fill="#999999" stroke="#999999" points="2729.39,-22 2612.61,-22 2612.61,-0 2729.39,-0 2729.39,-22"/>
<text text-anchor="middle" x="2671" y="-7.4" font-family="Helvetica,sans-Serif" font-size="12.00" fill="white">UnsafeBufferPointer</text>
</a>
</g>
</g>
<!-- CollectionType&#45;&gt;UnsafeBufferPointer -->
<g id="edge56" class="edge">
<path fill="none" stroke="#cccccc" d="M1712.36,-237.008C1768.78,-230.166 1868.97,-216.357 1953,-196 2145.19,-149.438 2183.68,-104.049 2376,-58 2397.57,-52.8346 2522.19,-34.0097 2602.41,-22.1022"/>
<polygon fill="#cccccc" stroke="#cccccc" points="2603.07,-25.5429 2612.45,-20.6139 2602.04,-18.6186 2603.07,-25.5429"/>
</g>
<!-- UnsafeMutableBufferPointer -->
<g id="node34" class="node">
<g id="a_node34"><a xlink:href="/swift-2/type/UnsafeMutableBufferPointer/" target="_top">
<polygon fill="#999999" stroke="#999999" points="429.905,-22 270.095,-22 270.095,-0 429.905,-0 429.905,-22"/>
<text text-anchor="middle" x="350" y="-7.4" font-family="Helvetica,sans-Serif" font-size="12.00" fill="white">UnsafeMutableBufferPointer</text>
</a>
</g>
</g>
<!-- CollectionType&#45;&gt;UnsafeMutableBufferPointer -->
<g id="edge57" class="edge">
<path fill="none" stroke="#cccccc" d="M1623.89,-241.906C1422.11,-241.261 592.312,-236.165 484,-196 445.147,-181.592 436.899,-170.348 411,-138 384.299,-104.651 365.506,-57.693 356.35,-31.5388"/>
<polygon fill="#cccccc" stroke="#cccccc" points="359.643,-30.3508 353.119,-22.003 353.013,-32.5974 359.643,-30.3508"/>
</g>
<!-- Indexable -->
<g id="node14" class="node">
<g id="a_node14"><a xlink:href="/swift-2/protocol/Indexable/" target="_top">
<path fill="#ee543d" stroke="#ee543d" d="M1881.7,-312C1881.7,-312 1834.3,-312 1834.3,-312 1830.63,-312 1826.97,-308.333 1826.97,-304.667 1826.97,-304.667 1826.97,-297.333 1826.97,-297.333 1826.97,-293.667 1830.63,-290 1834.3,-290 1834.3,-290 1881.7,-290 1881.7,-290 1885.37,-290 1889.03,-293.667 1889.03,-297.333 1889.03,-297.333 1889.03,-304.667 1889.03,-304.667 1889.03,-308.333 1885.37,-312 1881.7,-312"/>
<text text-anchor="middle" x="1858" y="-297.4" font-family="Helvetica,sans-Serif" font-size="12.00" fill="white">Indexable</text>
</a>
</g>
</g>
<!-- Indexable&#45;&gt;AnyBidirectionalCollection -->
<g id="edge1" class="edge">
<path fill="none" stroke="#cccccc" d="M1826.85,-299.847C1729.56,-298.958 1432.66,-293.036 1346,-254 1305.87,-235.923 1274,-230.016 1274,-186 1274,-186 1274,-186 1274,-126 1274,-93.9507 1273.05,-80.273 1250,-58 1233.1,-41.6705 1210.46,-31.1336 1188.06,-24.3358"/>
<polygon fill="#cccccc" stroke="#cccccc" points="1188.73,-20.8869 1178.15,-21.5569 1186.84,-27.627 1188.73,-20.8869"/>
</g>
<!-- Indexable&#45;&gt;AnyForwardCollection -->
<g id="edge2" class="edge">
<path fill="none" stroke="#cccccc" d="M1826.68,-300.189C1710.67,-300.061 1312,-291.914 1312,-186 1312,-186 1312,-186 1312,-126 1312,-89.6446 1289.84,-52.1715 1274.45,-30.5344"/>
<polygon fill="#cccccc" stroke="#cccccc" points="1277.11,-28.2452 1268.35,-22.2803 1271.48,-32.4037 1277.11,-28.2452"/>
</g>
<!-- Indexable&#45;&gt;AnyRandomAccessCollection -->
<g id="edge3" class="edge">
<path fill="none" stroke="#cccccc" d="M1826.93,-297.765C1768.93,-293.016 1647.14,-280.15 1615,-254 1541.89,-194.513 1600.4,-124.898 1534,-58 1518.96,-42.8479 1498.17,-32.4168 1478.77,-25.3708"/>
<polygon fill="#cccccc" stroke="#cccccc" points="1479.68,-21.9858 1469.09,-22.083 1477.43,-28.6138 1479.68,-21.9858"/>
</g>
<!-- Indexable&#45;&gt;Array -->
<g id="edge4" class="edge">
<path fill="none" stroke="#cccccc" d="M1826.68,-299.231C1615.44,-293.842 407,-259.792 407,-186 407,-186 407,-186 407,-126 407,-95.6529 485.523,-50.0376 529.692,-26.7792"/>
<polygon fill="#cccccc" stroke="#cccccc" points="531.558,-29.754 538.816,-22.0354 528.329,-23.5434 531.558,-29.754"/>
</g>
<!-- Indexable&#45;&gt;ArraySlice -->
<g id="edge5" class="edge">
<path fill="none" stroke="#cccccc" d="M1826.83,-299.697C1656.26,-297.913 834.369,-287.68 583,-254 451.788,-236.419 293,-318.385 293,-186 293,-186 293,-186 293,-126 293,-90.8452 390.09,-47.5212 445.095,-25.7974"/>
<polygon fill="#cccccc" stroke="#cccccc" points="446.472,-29.0175 454.518,-22.1245 443.929,-22.4954 446.472,-29.0175"/>
</g>
<!-- Indexable&#45;&gt;CollectionOfOne -->
<g id="edge6" class="edge">
<path fill="none" stroke="#cccccc" d="M1826.72,-299.984C1608.68,-299.766 322.585,-296.668 253,-254 169.919,-203.057 135.489,-80.0331 124.881,-31.8378"/>
<polygon fill="#cccccc" stroke="#cccccc" points="128.298,-31.078 122.824,-22.0069 121.446,-32.5118 128.298,-31.078"/>
</g>
<!-- Indexable&#45;&gt;CollectionType -->
<g id="edge7" class="edge">
<path fill="none" stroke="#cccccc" d="M1826.63,-290.753C1795.35,-281.535 1747.05,-267.3 1711.96,-256.958"/>
<polygon fill="#cccccc" stroke="#cccccc" points="1712.57,-253.488 1701.99,-254.018 1710.59,-260.202 1712.57,-253.488"/>
</g>
<!-- Indexable&#45;&gt;ContiguousArray -->
<g id="edge8" class="edge">
<path fill="none" stroke="#cccccc" d="M1826.72,-298.923C1714.5,-294.877 1332.39,-279.509 1213,-254 1065.88,-222.567 1020.53,-220.913 895,-138 854.333,-111.14 861.702,-83.2239 820,-58 801.561,-46.8471 751.274,-33.673 710.841,-24.288"/>
<polygon fill="#cccccc" stroke="#cccccc" points="711.593,-20.8697 701.063,-22.0471 710.029,-27.6928 711.593,-20.8697"/>
</g>
<!-- Indexable&#45;&gt;Dictionary -->
<g id="edge9" class="edge">
<path fill="none" stroke="#cccccc" d="M1826.72,-300.148C1610.09,-301.04 339.819,-304.118 277,-254 208.591,-199.423 212.787,-79.5043 217.493,-31.9745"/>
<polygon fill="#cccccc" stroke="#cccccc" points="220.974,-32.3347 218.597,-22.0099 214.017,-31.5634 220.974,-32.3347"/>
</g>
<!-- Indexable&#45;&gt;DictionaryLiteral -->
<g id="edge10" class="edge">
<path fill="none" stroke="#cccccc" d="M1889.13,-298.812C1982.95,-294.959 2261.8,-281.441 2348,-254 2405.68,-235.639 2466,-246.529 2466,-186 2466,-186 2466,-186 2466,-126 2466,-85.1015 2492.12,-77.6311 2528,-58 2611.07,-12.547 2644.67,-38.0447 2738,-22 2738.1,-21.9827 2738.2,-21.9654 2738.3,-21.948"/>
<polygon fill="#cccccc" stroke="#cccccc" points="2738.63,-25.4428 2747.89,-20.2978 2737.45,-18.5442 2738.63,-25.4428"/>
</g>
<!-- Indexable&#45;&gt;EmptyCollection -->
<g id="edge11" class="edge">
<path fill="none" stroke="#cccccc" d="M1861.44,-289.859C1864.5,-280.598 1868.95,-266.488 1872,-254 1891.88,-172.623 1907.7,-73.9766 1914.02,-32.223"/>
<polygon fill="#cccccc" stroke="#cccccc" points="1917.5,-32.6382 1915.52,-22.2305 1910.58,-31.6026 1917.5,-32.6382"/>
</g>
<!-- Indexable&#45;&gt;FilterCollection -->
<g id="edge12" class="edge">
<path fill="none" stroke="#cccccc" d="M1889.18,-299.205C1998.43,-296.183 2363.33,-284.026 2476,-254 2543.61,-235.981 2618,-255.974 2618,-186 2618,-186 2618,-186 2618,-126 2618,-85.1015 2643.65,-76.7362 2680,-58 2795.69,1.62356 2843.76,-40.0089 2977.35,-21.9339"/>
<polygon fill="#cccccc" stroke="#cccccc" points="2978.14,-25.3555 2987.54,-20.4622 2977.14,-18.4273 2978.14,-25.3555"/>
</g>
<!-- Indexable&#45;&gt;LazyBidirectionalCollection -->
<g id="edge13" class="edge">
<path fill="none" stroke="#cccccc" d="M1850.98,-289.602C1827.13,-254.647 1746.01,-139.031 1663,-58 1651.77,-47.0409 1637.95,-36.2872 1626.4,-27.9363"/>
<polygon fill="#cccccc" stroke="#cccccc" points="1628.28,-24.9773 1618.1,-22.0551 1624.23,-30.6902 1628.28,-24.9773"/>
</g>
<!-- Indexable&#45;&gt;LazyForwardCollection -->
<g id="edge14" class="edge">
<path fill="none" stroke="#cccccc" d="M1889.13,-291.866C1933.6,-278.149 2010,-245.87 2010,-186 2010,-186 2010,-186 2010,-126 2010,-91.1719 2026.5,-53.4246 2038.03,-31.2879"/>
<polygon fill="#cccccc" stroke="#cccccc" points="2041.22,-32.7427 2042.91,-22.2821 2035.07,-29.411 2041.22,-32.7427"/>
</g>
<!-- Indexable&#45;&gt;LazyRandomAccessCollection -->
<g id="edge15" class="edge">
<path fill="none" stroke="#cccccc" d="M1889.14,-299.456C2006.46,-297.171 2421.52,-286.889 2549,-254 2617.92,-236.218 2694,-257.179 2694,-186 2694,-186 2694,-186 2694,-126 2694,-85.3636 2954.39,-43.2023 3094.36,-23.4733"/>
<polygon fill="#cccccc" stroke="#cccccc" points="3095.22,-26.8873 3104.64,-22.0346 3094.25,-19.9549 3095.22,-26.8873"/>
</g>
<!-- Indexable&#45;&gt;MapCollection -->
<g id="edge16" class="edge">
<path fill="none" stroke="#cccccc" d="M1889.17,-299.974C2063.41,-299.43 2909,-291.361 2909,-186 2909,-186 2909,-186 2909,-126 2909,40.3054 3101.83,-49.7293 3274.82,-22.0686"/>
<polygon fill="#cccccc" stroke="#cccccc" points="3275.62,-25.4825 3284.88,-20.3219 3274.42,-18.5859 3275.62,-25.4825"/>
</g>
<!-- Indexable&#45;&gt;Range -->
<g id="edge17" class="edge">
<path fill="none" stroke="#cccccc" d="M1826.79,-299.695C1614.52,-297.545 386.231,-283.878 223,-254 132.302,-237.399 27,-278.205 27,-186 27,-186 27,-186 27,-126 27,-93.1536 27,-54.9837 27,-32.197"/>
<polygon fill="#cccccc" stroke="#cccccc" points="30.5001,-32.0648 27,-22.0648 23.5001,-32.0648 30.5001,-32.0648"/>
</g>
<!-- Indexable&#45;&gt;Repeat -->
<g id="edge18" class="edge">
<path fill="none" stroke="#cccccc" d="M1889.34,-298.915C1992.37,-294.507 2314,-273.723 2314,-186 2314,-186 2314,-186 2314,-126 2314,-85.1015 2340.71,-78.6708 2376,-58 2434.28,-23.8613 2460.11,-38.0286 2529.78,-22.1131"/>
<polygon fill="#cccccc" stroke="#cccccc" points="2531.01,-25.4155 2539.91,-19.6596 2529.36,-18.6122 2531.01,-25.4155"/>
</g>
<!-- Indexable&#45;&gt;ReverseCollection -->
<g id="edge19" class="edge">
<path fill="none" stroke="#cccccc" d="M1889.17,-298.949C1990.3,-295.298 2308.39,-281.833 2407,-254 2471.66,-235.751 2542,-253.182 2542,-186 2542,-186 2542,-186 2542,-126 2542,-85.1015 2567.87,-77.1595 2604,-58 2699.99,-7.10111 2740.15,-36.9562 2852.39,-21.9871"/>
<polygon fill="#cccccc" stroke="#cccccc" points="2852.99,-25.4378 2862.39,-20.5609 2852,-18.5079 2852.99,-25.4378"/>
</g>
<!-- Indexable&#45;&gt;ReverseRandomAccessCollection -->
<g id="edge20" class="edge">
<path fill="none" stroke="#cccccc" d="M1889.06,-297.747C1932.29,-293.66 2012.25,-282.609 2074,-254 2118.85,-233.222 2162,-235.427 2162,-186 2162,-186 2162,-186 2162,-126 2162,-67.7908 2228.05,-38.6463 2282.67,-24.497"/>
<polygon fill="#cccccc" stroke="#cccccc" points="2283.85,-27.813 2292.72,-22.0259 2282.18,-21.0155 2283.85,-27.813"/>
</g>
<!-- Indexable&#45;&gt;Set -->
<g id="edge21" class="edge">
<path fill="none" stroke="#cccccc" d="M1889.1,-297.407C1979.85,-288.991 2238,-258.665 2238,-186 2238,-186 2238,-186 2238,-126 2238,-85.1015 2264.67,-78.5969 2300,-58 2362.22,-21.7291 2388.11,-39.3991 2458,-22 2458.1,-21.9749 2458.2,-21.9497 2458.3,-21.9245"/>
<polygon fill="#cccccc" stroke="#cccccc" points="2459.14,-25.323 2467.95,-19.4433 2457.4,-18.5434 2459.14,-25.323"/>
</g>
<!-- Indexable&#45;&gt;Slice -->
<g id="edge22" class="edge">
<path fill="none" stroke="#cccccc" d="M1889.12,-299.508C2114.61,-295.744 3489,-269.381 3489,-186 3489,-186 3489,-186 3489,-126 3489,-90.4129 3508.21,-52.667 3521.52,-30.7727"/>
<polygon fill="#cccccc" stroke="#cccccc" points="3524.59,-32.4764 3526.97,-22.1525 3518.67,-28.7386 3524.59,-32.4764"/>
</g>
<!-- Indexable&#45;&gt;String.CharacterView -->
<g id="edge26" class="edge">
<path fill="none" stroke="#cccccc" d="M1826.76,-300.28C1718.23,-300.846 1358.49,-299.193 1254,-254 1170.56,-217.908 1177.56,-168.018 1103,-116 1057.03,-83.9267 1043.7,-77.1026 991,-58 946.833,-41.9907 895.285,-30.5433 854.555,-23.0721"/>
<polygon fill="#cccccc" stroke="#cccccc" points="855.173,-19.6271 844.712,-21.3049 853.936,-26.5169 855.173,-19.6271"/>
</g>
<!-- Indexable&#45;&gt;String.UTF16View -->
<g id="edge28" class="edge">
<path fill="none" stroke="#cccccc" d="M1889.22,-298.481C1951.67,-293.59 2086,-272.962 2086,-186 2086,-186 2086,-186 2086,-126 2086,-81.6684 2129.32,-46.508 2159.22,-27.5202"/>
<polygon fill="#cccccc" stroke="#cccccc" points="2161.29,-30.3538 2168,-22.1544 2157.64,-24.38 2161.29,-30.3538"/>
</g>
<!-- Indexable&#45;&gt;String.UTF8View -->
<g id="edge29" class="edge">
<path fill="none" stroke="#cccccc" d="M1889.21,-299.332C2105.19,-294.507 3369,-262.99 3369,-186 3369,-186 3369,-186 3369,-126 3369,-86.8713 3399.32,-49.8701 3420.05,-29.1432"/>
<polygon fill="#cccccc" stroke="#cccccc" points="3422.66,-31.4828 3427.44,-22.0257 3417.81,-26.4401 3422.66,-31.4828"/>
</g>
<!-- Indexable&#45;&gt;String.UnicodeScalarView -->
<g id="edge27" class="edge">
<path fill="none" stroke="#cccccc" d="M1826.97,-300.464C1723.31,-301.555 1390.19,-301.222 1296,-254 1259.97,-235.936 1236,-226.305 1236,-186 1236,-186 1236,-186 1236,-126 1236,-76.9869 1093.95,-41.3805 1005.67,-23.9844"/>
<polygon fill="#cccccc" stroke="#cccccc" points="1006.2,-20.5215 995.716,-22.0545 1004.87,-27.3936 1006.2,-20.5215"/>
</g>
<!-- Indexable&#45;&gt;UnicodeScalar.UTF16View -->
<g id="edge23" class="edge">
<path fill="none" stroke="#cccccc" d="M1855.01,-289.75C1842.76,-247.758 1796.29,-88.4375 1779.83,-31.9816"/>
<polygon fill="#cccccc" stroke="#cccccc" points="1783.11,-30.7472 1776.95,-22.1273 1776.39,-32.7073 1783.11,-30.7472"/>
</g>
<!-- Indexable&#45;&gt;UnsafeBufferPointer -->
<g id="edge24" class="edge">
<path fill="none" stroke="#cccccc" d="M1889.29,-300.019C2003.33,-299.258 2390,-289.077 2390,-186 2390,-186 2390,-186 2390,-126 2390,-85.1015 2416.49,-78.296 2452,-58 2465.25,-50.4251 2544.77,-34.8145 2604.2,-23.8892"/>
<polygon fill="#cccccc" stroke="#cccccc" points="2605.08,-27.2849 2614.29,-22.0426 2603.82,-20.3991 2605.08,-27.2849"/>
</g>
<!-- Indexable&#45;&gt;UnsafeMutableBufferPointer -->
<g id="edge25" class="edge">
<path fill="none" stroke="#cccccc" d="M1826.81,-300.177C1612.23,-301.259 361.17,-305.347 301,-254 253.756,-213.683 260.675,-175.343 279,-116 289.554,-81.8209 315.622,-48.847 333.061,-29.5007"/>
<polygon fill="#cccccc" stroke="#cccccc" points="335.707,-31.7943 339.935,-22.0799 330.572,-27.037 335.707,-31.7943"/>
</g>
<!-- MutableCollectionType&#45;&gt;Array -->
<g id="edge65" class="edge">
<path fill="none" stroke="#cccccc" d="M618.334,-173.884C604.607,-166.04 587.434,-153.84 578,-138 558.377,-105.053 556.617,-58.9519 557.526,-32.6181"/>
<polygon fill="#cccccc" stroke="#cccccc" points="561.037,-32.4995 558.056,-22.3327 554.046,-32.1394 561.037,-32.4995"/>
</g>
<!-- MutableCollectionType&#45;&gt;ArraySlice -->
<g id="edge66" class="edge">
<path fill="none" stroke="#cccccc" d="M617.532,-173.847C601.77,-165.678 580.496,-153.093 565,-138 531.722,-105.587 504.719,-57.6145 491.267,-31.1953"/>
<polygon fill="#cccccc" stroke="#cccccc" points="494.38,-29.5947 486.79,-22.2026 488.113,-32.7144 494.38,-29.5947"/>
</g>
<!-- MutableCollectionType&#45;&gt;ContiguousArray -->
<g id="edge67" class="edge">
<path fill="none" stroke="#cccccc" d="M704.622,-175.621C749.736,-168.358 803.941,-156.129 818,-138 833.889,-117.511 812.456,-72.1289 798,-58 785.188,-45.4778 745.087,-33.2291 710.447,-24.5235"/>
<polygon fill="#cccccc" stroke="#cccccc" points="710.926,-21.0373 700.38,-22.0522 709.257,-27.8354 710.926,-21.0373"/>
</g>
<!-- MutableCollectionType&#45;&gt;MutableSliceable -->
<g id="edge68" class="edge">
<path fill="none" stroke="#cccccc" d="M660.454,-173.988C679.278,-165.204 706.881,-152.322 728.088,-142.425"/>
<polygon fill="#cccccc" stroke="#cccccc" points="729.746,-145.514 737.328,-138.114 726.786,-139.171 729.746,-145.514"/>
</g>
<!-- MutableCollectionType&#45;&gt;UnsafeMutableBufferPointer -->
<g id="edge69" class="edge">
<path fill="none" stroke="#cccccc" d="M615.418,-173.913C595.488,-165.131 566.375,-151.692 542,-138 478.499,-102.331 407.859,-53.4089 372.602,-28.3103"/>
<polygon fill="#cccccc" stroke="#cccccc" points="374.199,-25.1491 364.029,-22.179 370.127,-30.8429 374.199,-25.1491"/>
</g>
<!-- _ArrayBufferType -->
<g id="node35" class="node">
<g id="a_node35"><a xlink:href="/swift-2/protocol/_ArrayBufferType/" target="_top">
<path fill="#999999" stroke="#999999" d="M683.044,-138C683.044,-138 594.956,-138 594.956,-138 591.29,-138 587.623,-134.333 587.623,-130.667 587.623,-130.667 587.623,-123.333 587.623,-123.333 587.623,-119.667 591.29,-116 594.956,-116 594.956,-116 683.044,-116 683.044,-116 686.71,-116 690.377,-119.667 690.377,-123.333 690.377,-123.333 690.377,-130.667 690.377,-130.667 690.377,-134.333 686.71,-138 683.044,-138"/>
<text text-anchor="middle" x="639" y="-123.4" font-family="Helvetica,sans-Serif" font-size="12.00" fill="white">_ArrayBufferType</text>
</a>
</g>
</g>
<!-- MutableCollectionType&#45;&gt;_ArrayBufferType -->
<g id="edge70" class="edge">
<path fill="none" stroke="#cccccc" d="M639,-173.988C639,-166.91 639,-157.171 639,-148.478"/>
<polygon fill="#cccccc" stroke="#cccccc" points="642.5,-148.304 639,-138.304 635.5,-148.304 642.5,-148.304"/>
</g>
<!-- MutableSliceable&#45;&gt;Array -->
<g id="edge71" class="edge">
<path fill="none" stroke="#cccccc" d="M741.251,-115.883C705.967,-95.7709 626.845,-50.6719 585.425,-27.0621"/>
<polygon fill="#cccccc" stroke="#cccccc" points="587.13,-24.0054 576.709,-22.0941 583.663,-30.0869 587.13,-24.0054"/>
</g>
<!-- MutableSliceable&#45;&gt;ArraySlice -->
<g id="edge72" class="edge">
<path fill="none" stroke="#cccccc" d="M724.796,-115.991C696.587,-107.405 655.71,-94.2013 621,-80 581.41,-63.8018 537.295,-41.4472 509.6,-26.8608"/>
<polygon fill="#cccccc" stroke="#cccccc" points="510.997,-23.6403 500.522,-22.0483 507.718,-29.8248 510.997,-23.6403"/>
</g>
<!-- MutableSliceable&#45;&gt;ContiguousArray -->
<g id="edge73" class="edge">
<path fill="none" stroke="#cccccc" d="M767.415,-115.945C778.092,-101.894 793.682,-76.0822 781,-58 772.009,-45.1802 737.837,-33.2175 707.203,-24.7063"/>
<polygon fill="#cccccc" stroke="#cccccc" points="707.984,-21.292 697.418,-22.0675 706.162,-28.0506 707.984,-21.292"/>
</g>
<!-- _ArrayType -->
<g id="node36" class="node">
<g id="a_node36"><a xlink:href="/swift-2/protocol/_ArrayType/" target="_top">
<path fill="#999999" stroke="#999999" d="M765.19,-80C765.19,-80 708.81,-80 708.81,-80 705.144,-80 701.477,-76.3333 701.477,-72.6667 701.477,-72.6667 701.477,-65.3333 701.477,-65.3333 701.477,-61.6667 705.144,-58 708.81,-58 708.81,-58 765.19,-58 765.19,-58 768.856,-58 772.523,-61.6667 772.523,-65.3333 772.523,-65.3333 772.523,-72.6667 772.523,-72.6667 772.523,-76.3333 768.856,-80 765.19,-80"/>
<text text-anchor="middle" x="737" y="-65.4" font-family="Helvetica,sans-Serif" font-size="12.00" fill="white">_ArrayType</text>
</a>
</g>
</g>
<!-- MutableSliceable&#45;&gt;_ArrayType -->
<g id="edge74" class="edge">
<path fill="none" stroke="#cccccc" d="M755.067,-115.988C752.193,-108.674 748.204,-98.5192 744.705,-89.6122"/>
<polygon fill="#cccccc" stroke="#cccccc" points="747.962,-88.3316 741.048,-80.3039 741.447,-90.8912 747.962,-88.3316"/>
</g>
<!-- RangeReplaceableCollectionType&#45;&gt;Array -->
<g id="edge78" class="edge">
<path fill="none" stroke="#cccccc" d="M970.374,-115.95C928.979,-101.674 849.816,-75.3353 781,-58 702.38,-38.195 678.706,-41.031 595.91,-22.0609"/>
<polygon fill="#cccccc" stroke="#cccccc" points="596.6,-18.6281 586.067,-19.7679 595.012,-25.4456 596.6,-18.6281"/>
</g>
<!-- RangeReplaceableCollectionType&#45;&gt;ArraySlice -->
<g id="edge79" class="edge">
<path fill="none" stroke="#cccccc" d="M904.866,-115.963C843.722,-108.447 762.562,-96.5919 692,-80 629.622,-65.3325 559.137,-40.8145 517.749,-25.5719"/>
<polygon fill="#cccccc" stroke="#cccccc" points="518.719,-22.1986 508.126,-22.0015 516.284,-28.7615 518.719,-22.1986"/>
</g>
<!-- RangeReplaceableCollectionType&#45;&gt;ContiguousArray -->
<g id="edge80" class="edge">
<path fill="none" stroke="#cccccc" d="M991.922,-115.975C980.554,-100.719 956.676,-71.9771 929,-58 844.547,-15.3495 810.598,-36.8053 713.293,-22.1225"/>
<polygon fill="#cccccc" stroke="#cccccc" points="713.785,-18.6568 703.357,-20.5318 712.678,-25.5687 713.785,-18.6568"/>
</g>
<!-- RangeReplaceableCollectionType&#45;&gt;String.CharacterView -->
<g id="edge82" class="edge">
<path fill="none" stroke="#cccccc" d="M997.339,-115.53C994.389,-100.49 986.781,-72.9427 969,-58 951.48,-43.2768 899.062,-31.0918 854.32,-22.9699"/>
<polygon fill="#cccccc" stroke="#cccccc" points="854.776,-19.4962 844.318,-21.1975 853.554,-26.3888 854.776,-19.4962"/>
</g>
<!-- RangeReplaceableCollectionType&#45;&gt;String.UnicodeScalarView -->
<g id="edge83" class="edge">
<path fill="none" stroke="#cccccc" d="M1004.28,-115.625C1010.58,-101.652 1019.09,-76.4189 1009,-58 1001.41,-44.1531 987.691,-33.8687 974.244,-26.578"/>
<polygon fill="#cccccc" stroke="#cccccc" points="975.569,-23.328 965.057,-22.0019 972.448,-29.5936 975.569,-23.328"/>
</g>
<!-- RangeReplaceableCollectionType&#45;&gt;_ArrayType -->
<g id="edge81" class="edge">
<path fill="none" stroke="#cccccc" d="M952.16,-115.988C904.165,-105.73 830.035,-89.8853 782.525,-79.7305"/>
<polygon fill="#cccccc" stroke="#cccccc" points="783.028,-76.2591 772.518,-77.5915 781.565,-83.1045 783.028,-76.2591"/>
</g>
<!-- _ArrayType&#45;&gt;Array -->
<g id="edge75" class="edge">
<path fill="none" stroke="#cccccc" d="M705.177,-57.9883C674.588,-48.3648 628.373,-33.8251 596.121,-23.6786"/>
<polygon fill="#cccccc" stroke="#cccccc" points="596.768,-20.2129 586.178,-20.5504 594.667,-26.8902 596.768,-20.2129"/>
</g>
<!-- _ArrayType&#45;&gt;ArraySlice -->
<g id="edge76" class="edge">
<path fill="none" stroke="#cccccc" d="M701.341,-60.6478C660.802,-52.2209 592.393,-37.7923 524.257,-22.2458"/>
<polygon fill="#cccccc" stroke="#cccccc" points="524.738,-18.7655 514.209,-19.9445 523.175,-25.5888 524.738,-18.7655"/>
</g>
<!-- _ArrayType&#45;&gt;ContiguousArray -->
<g id="edge77" class="edge">
<path fill="none" stroke="#cccccc" d="M722.161,-57.9883C709.728,-49.5993 691.757,-37.4743 677.389,-27.7804"/>
<polygon fill="#cccccc" stroke="#cccccc" points="679.237,-24.8055 668.99,-22.1138 675.322,-30.6083 679.237,-24.8055"/>
</g>
</g>
</svg>
