<?xml version="1.0" encoding="UTF-8" standalone="no"?>
<!DOCTYPE svg PUBLIC "-//W3C//DTD SVG 1.1//EN"
 "http://www.w3.org/Graphics/SVG/1.1/DTD/svg11.dtd">
<!-- Generated by graphviz version 2.36.0 (20140111.2315)
 -->
<!-- Title: UInt8 &#45; Type Hierarchy &#45; SwiftDoc.org Pages: 1 -->
<svg width="1287pt" height="543pt"
 viewBox="0.00 0.00 1286.71 543.20" xmlns="http://www.w3.org/2000/svg" xmlns:xlink="http://www.w3.org/1999/xlink">
<g id="graph0" class="graph" transform="scale(1 1) rotate(0) translate(7.2 485.6)">
<g transform="translate(0 -485.6)">
<g>
    <path fill="#666666" d="M13.846,10.832c-0.336-0.464-0.792-0.844-1.368-1.14s-1.224-0.444-1.944-0.444
        c-0.384,0-0.772,0.052-1.164,0.156C8.977,9.509,8.622,9.677,8.301,9.908c-0.32,0.232-0.58,0.52-0.78,0.864
        c-0.2,0.344-0.3,0.756-0.3,1.236c0,0.464,0.092,0.852,0.276,1.164c0.184,0.312,0.432,0.576,0.744,0.792s0.68,0.4,1.104,0.552
        c0.423,0.152,0.876,0.309,1.356,0.468c0.576,0.177,1.16,0.376,1.752,0.601c0.592,0.224,1.128,0.52,1.608,0.888
        s0.872,0.828,1.176,1.38s0.456,1.252,0.456,2.101c0,0.88-0.164,1.644-0.492,2.292c-0.328,0.647-0.765,1.184-1.308,1.607
        c-0.544,0.424-1.172,0.74-1.884,0.948s-1.444,0.312-2.196,0.312c-1.072,0-2.108-0.208-3.108-0.624
        c-1-0.415-1.828-1.031-2.484-1.848l1.848-1.56c0.4,0.592,0.936,1.071,1.608,1.439c0.672,0.368,1.399,0.552,2.184,0.552
        c0.4,0,0.8-0.056,1.2-0.168c0.4-0.111,0.764-0.288,1.092-0.527c0.328-0.24,0.596-0.54,0.804-0.9
        c0.208-0.36,0.312-0.796,0.312-1.308s-0.108-0.94-0.324-1.284c-0.216-0.344-0.508-0.636-0.876-0.876s-0.796-0.444-1.284-0.612
        c-0.488-0.168-1.004-0.34-1.548-0.516c-0.544-0.16-1.08-0.356-1.608-0.588c-0.528-0.232-1-0.528-1.416-0.889
        c-0.416-0.359-0.752-0.804-1.008-1.332c-0.256-0.527-0.384-1.184-0.384-1.968c0-0.848,0.172-1.576,0.516-2.184
        c0.344-0.608,0.792-1.112,1.344-1.512c0.552-0.4,1.176-0.692,1.872-0.876c0.696-0.184,1.396-0.276,2.1-0.276
        c0.992,0,1.92,0.176,2.784,0.528c0.864,0.352,1.56,0.824,2.088,1.416L13.846,10.832z"/>
    <path fill="#666666" d="M18.813,13.304l2.568,8.688h0.048l2.712-8.688h2.376l2.76,8.688h0.048l2.568-8.688h2.376L30.501,24.68
        h-2.352l-2.808-8.544h-0.048l-2.784,8.544h-2.352l-3.792-11.376H18.813z"/>
    <path fill="#666666" d="M38.685,9.2c0,0.416-0.147,0.76-0.44,1.032c-0.294,0.272-0.647,0.408-1.06,0.408s-0.762-0.14-1.047-0.42
        c-0.286-0.28-0.429-0.62-0.429-1.02c0-0.416,0.143-0.764,0.429-1.044c0.286-0.28,0.635-0.42,1.047-0.42s0.766,0.14,1.06,0.42
        C38.538,8.437,38.685,8.784,38.685,9.2z M38.325,24.68h-2.256V13.304h2.256V24.68z"/>
    <path fill="#666666" d="M47.613,15.152h-2.64v9.528h-2.256v-9.528h-2.256v-1.848h2.256v-2.376c0-0.672,0.076-1.292,0.228-1.86
        c0.152-0.568,0.4-1.06,0.744-1.476c0.344-0.416,0.784-0.744,1.32-0.984c0.536-0.24,1.188-0.36,1.956-0.36
        c0.544,0,1.016,0.056,1.416,0.168l-0.264,1.944c-0.176-0.048-0.352-0.088-0.528-0.12c-0.176-0.032-0.376-0.048-0.6-0.048
        c-0.432,0-0.78,0.076-1.044,0.228c-0.264,0.152-0.468,0.356-0.612,0.612s-0.24,0.548-0.288,0.876
        c-0.048,0.328-0.072,0.668-0.072,1.02v2.376h2.64V15.152z"/>
    <path fill="#666666" d="M54.909,15.152h-3.024v5.91c0,0.687,0.128,1.177,0.384,1.472c0.256,0.295,0.664,0.442,1.224,0.442
        c0.208,0,0.432-0.021,0.672-0.065c0.24-0.044,0.456-0.11,0.648-0.198l0.072,1.848c-0.272,0.096-0.572,0.172-0.9,0.229
        c-0.328,0.056-0.668,0.084-1.02,0.084c-1.072,0-1.892-0.296-2.46-0.889c-0.568-0.592-0.852-1.479-0.852-2.664v-6.168h-2.184
        v-1.848h2.184V10.04h2.232v3.264h3.024V15.152z"/>
    <path fill="#666666" d="M57.356,7.688h5.832c1.088,0,2.176,0.16,3.264,0.48c1.088,0.32,2.072,0.824,2.952,1.512
        s1.592,1.568,2.136,2.64c0.544,1.072,0.816,2.36,0.816,3.864c0,1.456-0.272,2.716-0.816,3.78s-1.256,1.943-2.136,2.64
        s-1.864,1.216-2.952,1.561c-1.088,0.344-2.176,0.516-3.264,0.516h-5.832V7.688z M59.732,22.593h2.976
        c1.024,0,1.972-0.145,2.844-0.432c0.872-0.288,1.624-0.704,2.256-1.248c0.632-0.544,1.124-1.216,1.476-2.017
        c0.352-0.8,0.528-1.704,0.528-2.712c0-1.056-0.176-1.983-0.528-2.784c-0.353-0.8-0.844-1.468-1.476-2.004
        c-0.632-0.536-1.384-0.944-2.256-1.224s-1.82-0.42-2.844-0.42h-2.976V22.593z"/>
    <path fill="#666666" d="M86.06,18.969c0,0.88-0.156,1.688-0.468,2.424c-0.312,0.736-0.744,1.372-1.296,1.908
        c-0.552,0.536-1.204,0.952-1.956,1.248c-0.752,0.296-1.56,0.443-2.424,0.443c-0.864,0-1.672-0.147-2.424-0.443
        c-0.752-0.296-1.4-0.712-1.944-1.248c-0.544-0.536-0.972-1.172-1.284-1.908c-0.312-0.735-0.468-1.544-0.468-2.424
        s0.156-1.684,0.468-2.412c0.312-0.728,0.74-1.356,1.284-1.884c0.543-0.528,1.191-0.939,1.944-1.236
        c0.752-0.296,1.56-0.444,2.424-0.444c0.864,0,1.672,0.148,2.424,0.444c0.752,0.297,1.404,0.708,1.956,1.236
        c0.552,0.527,0.984,1.156,1.296,1.884C85.904,17.285,86.06,18.089,86.06,18.969z M83.708,18.98c0-0.542-0.084-1.061-0.252-1.556
        c-0.169-0.494-0.414-0.929-0.734-1.304s-0.718-0.674-1.192-0.897s-1.015-0.335-1.625-0.335c-0.61,0-1.152,0.111-1.625,0.335
        c-0.474,0.224-0.871,0.522-1.191,0.897c-0.321,0.375-0.566,0.81-0.734,1.304C76.184,17.92,76.1,18.438,76.1,18.98
        c0,0.543,0.084,1.062,0.253,1.556c0.168,0.495,0.413,0.934,0.734,1.316c0.321,0.383,0.718,0.686,1.191,0.909
        c0.473,0.224,1.015,0.335,1.625,0.335c0.61,0,1.151-0.111,1.625-0.335s0.871-0.526,1.192-0.909s0.565-0.821,0.734-1.316
        C83.624,20.042,83.708,19.523,83.708,18.98z"/>
    <path fill="#666666" d="M96.428,16.184c-0.24-0.368-0.6-0.676-1.08-0.924s-0.992-0.372-1.536-0.372
        c-0.592,0-1.116,0.112-1.572,0.336c-0.456,0.225-0.844,0.524-1.164,0.9c-0.32,0.376-0.564,0.812-0.732,1.308
        s-0.252,1.017-0.252,1.56c0,0.545,0.084,1.064,0.252,1.561s0.412,0.933,0.732,1.308c0.32,0.376,0.712,0.677,1.176,0.9
        c0.464,0.225,0.992,0.336,1.584,0.336c0.576,0,1.1-0.111,1.572-0.336c0.472-0.224,0.86-0.528,1.164-0.912l1.512,1.368
        c-0.48,0.561-1.08,0.996-1.8,1.308c-0.72,0.312-1.536,0.468-2.448,0.468c-0.88,0-1.692-0.144-2.436-0.432
        c-0.744-0.288-1.388-0.691-1.932-1.212c-0.544-0.52-0.972-1.147-1.284-1.884s-0.468-1.561-0.468-2.473
        c0-0.896,0.152-1.711,0.456-2.447c0.304-0.736,0.728-1.368,1.272-1.896c0.543-0.527,1.188-0.936,1.932-1.224
        c0.744-0.288,1.548-0.433,2.412-0.433c0.8,0,1.596,0.16,2.388,0.48s1.419,0.784,1.884,1.392L96.428,16.184z"/>
    <path fill="#666666" d="M103.1,23.24c0,0.417-0.152,0.784-0.456,1.104c-0.304,0.32-0.688,0.479-1.152,0.479
        c-0.448,0-0.828-0.155-1.14-0.468c-0.312-0.312-0.468-0.676-0.468-1.092c0-0.432,0.152-0.804,0.456-1.116
        c0.304-0.312,0.688-0.468,1.152-0.468c0.464,0,0.848,0.152,1.152,0.456C102.947,22.44,103.1,22.808,103.1,23.24z"/>
    <path fill="#666666" d="M116.635,18.969c0,0.88-0.156,1.688-0.468,2.424c-0.312,0.736-0.744,1.372-1.296,1.908
        c-0.552,0.536-1.204,0.952-1.956,1.248c-0.752,0.296-1.56,0.443-2.424,0.443c-0.864,0-1.672-0.147-2.424-0.443
        c-0.752-0.296-1.4-0.712-1.944-1.248c-0.544-0.536-0.972-1.172-1.284-1.908c-0.312-0.735-0.468-1.544-0.468-2.424
        s0.156-1.684,0.468-2.412c0.312-0.728,0.74-1.356,1.284-1.884c0.543-0.528,1.191-0.939,1.944-1.236
        c0.752-0.296,1.56-0.444,2.424-0.444c0.864,0,1.672,0.148,2.424,0.444c0.752,0.297,1.404,0.708,1.956,1.236
        c0.552,0.527,0.984,1.156,1.296,1.884C116.479,17.285,116.635,18.089,116.635,18.969z M114.283,18.98
        c0-0.542-0.084-1.061-0.252-1.556c-0.169-0.494-0.414-0.929-0.734-1.304s-0.718-0.674-1.192-0.897s-1.015-0.335-1.625-0.335
        c-0.61,0-1.152,0.111-1.625,0.335c-0.474,0.224-0.871,0.522-1.191,0.897c-0.321,0.375-0.566,0.81-0.734,1.304
        c-0.169,0.495-0.253,1.014-0.253,1.556c0,0.543,0.084,1.062,0.253,1.556c0.168,0.495,0.413,0.934,0.734,1.316
        c0.321,0.383,0.718,0.686,1.191,0.909c0.473,0.224,1.015,0.335,1.625,0.335c0.61,0,1.151-0.111,1.625-0.335
        s0.871-0.526,1.192-0.909s0.565-0.821,0.734-1.316C114.199,20.042,114.283,19.523,114.283,18.98z"/>
    <path fill="#666666" d="M119.251,14.577c-0.016-0.48-0.04-0.904-0.072-1.272h2.136c0.032,0.288,0.056,0.62,0.072,0.996
        c0.016,0.376,0.024,0.684,0.024,0.924h0.072c0.32-0.672,0.788-1.212,1.404-1.62c0.616-0.408,1.308-0.612,2.076-0.612
        c0.352,0,0.648,0.033,0.888,0.097l-0.096,2.088c-0.32-0.08-0.664-0.12-1.032-0.12c-0.544,0-1.016,0.101-1.416,0.3
        c-0.4,0.2-0.732,0.468-0.996,0.805c-0.264,0.336-0.46,0.724-0.588,1.163c-0.128,0.44-0.192,0.9-0.192,1.381v5.976h-2.256v-8.928
        C119.275,15.449,119.267,15.056,119.251,14.577z"/>
    <path fill="#666666" d="M128.419,26.625c0.496,0.56,1.116,1.008,1.86,1.344c0.744,0.336,1.508,0.504,2.292,0.504
        c0.752,0,1.384-0.108,1.896-0.324s0.924-0.512,1.236-0.888s0.536-0.82,0.672-1.332c0.136-0.513,0.204-1.064,0.204-1.656v-1.464
        h-0.048c-0.416,0.641-0.984,1.128-1.704,1.464c-0.72,0.336-1.488,0.504-2.304,0.504c-0.864,0-1.652-0.151-2.364-0.456
        c-0.712-0.304-1.316-0.72-1.812-1.248c-0.496-0.527-0.88-1.147-1.152-1.859s-0.408-1.477-0.408-2.292
        c0-0.816,0.136-1.584,0.408-2.305c0.272-0.72,0.656-1.348,1.152-1.884c0.496-0.535,1.096-0.96,1.8-1.271
        c0.704-0.312,1.488-0.469,2.352-0.469c0.816,0,1.596,0.177,2.34,0.528c0.744,0.353,1.332,0.888,1.764,1.608h0.048v-1.824h2.184
        v10.8c0,0.832-0.104,1.628-0.312,2.388c-0.208,0.76-0.56,1.433-1.056,2.017s-1.144,1.052-1.944,1.404
        c-0.8,0.352-1.792,0.527-2.976,0.527c-0.992,0-1.988-0.18-2.988-0.54c-1-0.359-1.86-0.868-2.58-1.523L128.419,26.625z
         M129.091,18.873c0,0.527,0.084,1.031,0.253,1.512c0.168,0.479,0.417,0.904,0.746,1.271c0.329,0.369,0.726,0.664,1.192,0.889
        c0.465,0.224,0.995,0.336,1.589,0.336c0.577,0,1.107-0.104,1.589-0.312c0.481-0.207,0.891-0.491,1.228-0.852
        s0.598-0.784,0.782-1.272c0.185-0.487,0.277-1.012,0.277-1.571c0-0.544-0.093-1.057-0.277-1.536
        c-0.185-0.48-0.449-0.904-0.794-1.272c-0.345-0.367-0.755-0.66-1.228-0.876c-0.474-0.216-1-0.324-1.577-0.324
        c-0.594,0-1.124,0.108-1.589,0.324c-0.466,0.216-0.863,0.504-1.192,0.864s-0.578,0.784-0.746,1.271
        C129.175,17.812,129.091,18.329,129.091,18.873z"/>
</g>
<g><a xlink:href="/" pointer-events="all" target="_top"><polygon fill="none" points="0,0 145,0 145,35 0,35 0,0"/></a></g>

</g>


<!-- BidirectionalIndexType -->
<g id="node1" class="node">
<g id="a_node1"><a xlink:href="/v2.1/protocol/BidirectionalIndexType/" target="_top">
<path fill="#999999" stroke="#999999" d="M965.034,-254C965.034,-254 849.583,-254 849.583,-254 845.917,-254 842.25,-250.333 842.25,-246.667 842.25,-246.667 842.25,-239.333 842.25,-239.333 842.25,-235.667 845.917,-232 849.583,-232 849.583,-232 965.034,-232 965.034,-232 968.701,-232 972.368,-235.667 972.368,-239.333 972.368,-239.333 972.368,-246.667 972.368,-246.667 972.368,-250.333 968.701,-254 965.034,-254"/>
<text text-anchor="middle" x="907.309" y="-239.4" font-family="Helvetica,sans-Serif" font-size="12.00" fill="white">BidirectionalIndexType</text>
</a>
</g>
</g>
<!-- RandomAccessIndexType -->
<g id="node12" class="node">
<g id="a_node12"><a xlink:href="/v2.1/protocol/RandomAccessIndexType/" target="_top">
<path fill="#999999" stroke="#999999" d="M943.534,-196C943.534,-196 809.084,-196 809.084,-196 805.417,-196 801.75,-192.333 801.75,-188.667 801.75,-188.667 801.75,-181.333 801.75,-181.333 801.75,-177.667 805.417,-174 809.084,-174 809.084,-174 943.534,-174 943.534,-174 947.201,-174 950.868,-177.667 950.868,-181.333 950.868,-181.333 950.868,-188.667 950.868,-188.667 950.868,-192.333 947.201,-196 943.534,-196"/>
<text text-anchor="middle" x="876.309" y="-181.4" font-family="Helvetica,sans-Serif" font-size="12.00" fill="white">RandomAccessIndexType</text>
</a>
</g>
</g>
<!-- BidirectionalIndexType&#45;&gt;RandomAccessIndexType -->
<g id="edge27" class="edge">
<path fill="none" stroke="#cccccc" d="M901.767,-231.988C897.674,-224.595 891.975,-214.301 887.007,-205.325"/>
<polygon fill="#cccccc" stroke="#cccccc" points="889.918,-203.358 882.013,-196.304 883.794,-206.748 889.918,-203.358"/>
</g>
<!-- BitwiseOperationsType -->
<g id="node2" class="node">
<g id="a_node2"><a xlink:href="/v2.1/protocol/BitwiseOperationsType/" target="_top">
<path fill="#999999" stroke="#999999" d="M154.024,-254C154.024,-254 36.5937,-254 36.5937,-254 32.927,-254 29.2604,-250.333 29.2604,-246.667 29.2604,-246.667 29.2604,-239.333 29.2604,-239.333 29.2604,-235.667 32.927,-232 36.5937,-232 36.5937,-232 154.024,-232 154.024,-232 157.691,-232 161.357,-235.667 161.357,-239.333 161.357,-239.333 161.357,-246.667 161.357,-246.667 161.357,-250.333 157.691,-254 154.024,-254"/>
<text text-anchor="middle" x="95.3089" y="-239.4" font-family="Helvetica,sans-Serif" font-size="12.00" fill="white">BitwiseOperationsType</text>
</a>
</g>
</g>
<!-- UInt8 -->
<g id="node14" class="node">
<g id="a_node14"><a xlink:href="/v2.1/type/UInt8/" target="_top">
<polygon fill="#ee543d" stroke="#ee543d" points="835.309,-22 781.309,-22 781.309,-0 835.309,-0 835.309,-22"/>
<text text-anchor="middle" x="808.309" y="-7.4" font-family="Helvetica,sans-Serif" font-size="12.00" fill="white">UInt8</text>
</a>
</g>
</g>
<!-- BitwiseOperationsType&#45;&gt;UInt8 -->
<g id="edge7" class="edge">
<path fill="none" stroke="#cccccc" d="M115.235,-231.932C176.999,-201.138 371.366,-107.316 542.309,-58 622.14,-34.9693 718.972,-21.7761 770.972,-15.8403"/>
<polygon fill="#cccccc" stroke="#cccccc" points="771.51,-19.3021 781.06,-14.716 770.734,-12.3452 771.51,-19.3021"/>
</g>
<!-- _IntegerType -->
<g id="node19" class="node">
<g id="a_node19"><a xlink:href="/v2.1/protocol/_IntegerType/" target="_top">
<path fill="#999999" stroke="#999999" d="M589.017,-196C589.017,-196 523.601,-196 523.601,-196 519.934,-196 516.268,-192.333 516.268,-188.667 516.268,-188.667 516.268,-181.333 516.268,-181.333 516.268,-177.667 519.934,-174 523.601,-174 523.601,-174 589.017,-174 589.017,-174 592.683,-174 596.35,-177.667 596.35,-181.333 596.35,-181.333 596.35,-188.667 596.35,-188.667 596.35,-192.333 592.683,-196 589.017,-196"/>
<text text-anchor="middle" x="556.309" y="-181.4" font-family="Helvetica,sans-Serif" font-size="12.00" fill="white">_IntegerType</text>
</a>
</g>
</g>
<!-- BitwiseOperationsType&#45;&gt;_IntegerType -->
<g id="edge18" class="edge">
<path fill="none" stroke="#cccccc" d="M161.556,-233.116C164.513,-232.736 167.442,-232.362 170.309,-232 290.606,-216.813 432.172,-200.286 505.902,-191.78"/>
<polygon fill="#cccccc" stroke="#cccccc" points="506.744,-195.206 516.277,-190.584 505.942,-188.252 506.744,-195.206"/>
</g>
<!-- CVarArgType -->
<g id="node3" class="node">
<g id="a_node3"><a xlink:href="/v2.1/protocol/CVarArgType/" target="_top">
<path fill="#999999" stroke="#999999" d="M1033.34,-80C1033.34,-80 967.28,-80 967.28,-80 963.613,-80 959.946,-76.3333 959.946,-72.6667 959.946,-72.6667 959.946,-65.3333 959.946,-65.3333 959.946,-61.6667 963.613,-58 967.28,-58 967.28,-58 1033.34,-58 1033.34,-58 1037,-58 1040.67,-61.6667 1040.67,-65.3333 1040.67,-65.3333 1040.67,-72.6667 1040.67,-72.6667 1040.67,-76.3333 1037,-80 1033.34,-80"/>
<text text-anchor="middle" x="1000.31" y="-65.4" font-family="Helvetica,sans-Serif" font-size="12.00" fill="white">CVarArgType</text>
</a>
</g>
</g>
<!-- CVarArgType&#45;&gt;UInt8 -->
<g id="edge10" class="edge">
<path fill="none" stroke="#cccccc" d="M965.983,-57.9883C932.015,-48.0811 880.183,-32.9634 845.313,-22.7927"/>
<polygon fill="#cccccc" stroke="#cccccc" points="846.095,-19.3753 835.515,-19.9352 844.135,-26.0953 846.095,-19.3753"/>
</g>
<!-- Comparable -->
<g id="node4" class="node">
<g id="a_node4"><a xlink:href="/v2.1/protocol/Comparable/" target="_top">
<path fill="#999999" stroke="#999999" d="M570.5,-312C570.5,-312 510.118,-312 510.118,-312 506.451,-312 502.784,-308.333 502.784,-304.667 502.784,-304.667 502.784,-297.333 502.784,-297.333 502.784,-293.667 506.451,-290 510.118,-290 510.118,-290 570.5,-290 570.5,-290 574.167,-290 577.833,-293.667 577.833,-297.333 577.833,-297.333 577.833,-304.667 577.833,-304.667 577.833,-308.333 574.167,-312 570.5,-312"/>
<text text-anchor="middle" x="540.309" y="-297.4" font-family="Helvetica,sans-Serif" font-size="12.00" fill="white">Comparable</text>
</a>
</g>
</g>
<!-- IntegerArithmeticType -->
<g id="node9" class="node">
<g id="a_node9"><a xlink:href="/v2.1/protocol/IntegerArithmeticType/" target="_top">
<path fill="#999999" stroke="#999999" d="M460.02,-254C460.02,-254 348.598,-254 348.598,-254 344.931,-254 341.265,-250.333 341.265,-246.667 341.265,-246.667 341.265,-239.333 341.265,-239.333 341.265,-235.667 344.931,-232 348.598,-232 348.598,-232 460.02,-232 460.02,-232 463.686,-232 467.353,-235.667 467.353,-239.333 467.353,-239.333 467.353,-246.667 467.353,-246.667 467.353,-250.333 463.686,-254 460.02,-254"/>
<text text-anchor="middle" x="404.309" y="-239.4" font-family="Helvetica,sans-Serif" font-size="12.00" fill="white">IntegerArithmeticType</text>
</a>
</g>
</g>
<!-- Comparable&#45;&gt;IntegerArithmeticType -->
<g id="edge22" class="edge">
<path fill="none" stroke="#cccccc" d="M515.995,-289.988C494.372,-281.085 462.53,-267.973 438.372,-258.026"/>
<polygon fill="#cccccc" stroke="#cccccc" points="439.45,-254.685 428.871,-254.114 436.785,-261.158 439.45,-254.685"/>
</g>
<!-- Strideable -->
<g id="node13" class="node">
<g id="a_node13"><a xlink:href="/v2.1/protocol/Strideable/" target="_top">
<path fill="#999999" stroke="#999999" d="M817.002,-254C817.002,-254 767.616,-254 767.616,-254 763.949,-254 760.282,-250.333 760.282,-246.667 760.282,-246.667 760.282,-239.333 760.282,-239.333 760.282,-235.667 763.949,-232 767.616,-232 767.616,-232 817.002,-232 817.002,-232 820.669,-232 824.335,-235.667 824.335,-239.333 824.335,-239.333 824.335,-246.667 824.335,-246.667 824.335,-250.333 820.669,-254 817.002,-254"/>
<text text-anchor="middle" x="792.309" y="-239.4" font-family="Helvetica,sans-Serif" font-size="12.00" fill="white">Strideable</text>
</a>
</g>
</g>
<!-- Comparable&#45;&gt;Strideable -->
<g id="edge32" class="edge">
<path fill="none" stroke="#cccccc" d="M577.723,-292.134C617.971,-283.607 684.1,-269.413 750.329,-254.189"/>
<polygon fill="#cccccc" stroke="#cccccc" points="751.14,-257.594 760.098,-251.936 749.567,-250.773 751.14,-257.594"/>
</g>
<!-- Comparable&#45;&gt;UInt8 -->
<g id="edge2" class="edge">
<path fill="none" stroke="#cccccc" d="M502.959,-293.366C495.161,-292.125 486.98,-290.928 479.309,-290 428.522,-283.857 59.8184,-286.496 20.3089,-254 -3.92656,-234.067 1.30885,-217.38 1.30885,-186 1.30885,-186 1.30885,-186 1.30885,-126 1.30885,-47.2457 611.658,-19.2509 770.757,-13.2914"/>
<polygon fill="#cccccc" stroke="#cccccc" points="771.131,-16.7801 780.996,-12.9151 770.874,-9.78478 771.131,-16.7801"/>
</g>
<!-- CustomStringConvertible -->
<g id="node5" class="node">
<g id="a_node5"><a xlink:href="/v2.1/protocol/CustomStringConvertible/" target="_top">
<path fill="#999999" stroke="#999999" d="M315.517,-254C315.517,-254 187.101,-254 187.101,-254 183.434,-254 179.768,-250.333 179.768,-246.667 179.768,-246.667 179.768,-239.333 179.768,-239.333 179.768,-235.667 183.434,-232 187.101,-232 187.101,-232 315.517,-232 315.517,-232 319.183,-232 322.85,-235.667 322.85,-239.333 322.85,-239.333 322.85,-246.667 322.85,-246.667 322.85,-250.333 319.183,-254 315.517,-254"/>
<text text-anchor="middle" x="251.309" y="-239.4" font-family="Helvetica,sans-Serif" font-size="12.00" fill="white">CustomStringConvertible</text>
</a>
</g>
</g>
<!-- CustomStringConvertible&#45;&gt;UInt8 -->
<g id="edge5" class="edge">
<path fill="none" stroke="#cccccc" d="M266.171,-231.918C299.968,-209.265 385.607,-153.396 462.309,-116 526.556,-84.6758 544.019,-79.1051 612.309,-58 666.721,-41.1839 731.27,-27.139 771.009,-19.1501"/>
<polygon fill="#cccccc" stroke="#cccccc" points="771.917,-22.5381 781.043,-17.1558 770.553,-15.6724 771.917,-22.5381"/>
</g>
<!-- CustomStringConvertible&#45;&gt;_IntegerType -->
<g id="edge15" class="edge">
<path fill="none" stroke="#cccccc" d="M305.837,-231.988C362.616,-221.563 450.819,-205.369 505.985,-195.24"/>
<polygon fill="#cccccc" stroke="#cccccc" points="506.682,-198.67 515.886,-193.422 505.418,-191.785 506.682,-198.67"/>
</g>
<!-- Equatable -->
<g id="node6" class="node">
<g id="a_node6"><a xlink:href="/v2.1/protocol/Equatable/" target="_top">
<path fill="#999999" stroke="#999999" d="M716.011,-428C716.011,-428 666.607,-428 666.607,-428 662.94,-428 659.274,-424.333 659.274,-420.667 659.274,-420.667 659.274,-413.333 659.274,-413.333 659.274,-409.667 662.94,-406 666.607,-406 666.607,-406 716.011,-406 716.011,-406 719.677,-406 723.344,-409.667 723.344,-413.333 723.344,-413.333 723.344,-420.667 723.344,-420.667 723.344,-424.333 719.677,-428 716.011,-428"/>
<text text-anchor="middle" x="691.309" y="-413.4" font-family="Helvetica,sans-Serif" font-size="12.00" fill="white">Equatable</text>
</a>
</g>
</g>
<!-- Equatable&#45;&gt;Comparable -->
<g id="edge23" class="edge">
<path fill="none" stroke="#cccccc" d="M664.336,-405.836C645.09,-397.823 619.202,-385.436 599.309,-370 581.107,-355.876 564.305,-335.472 553.325,-320.703"/>
<polygon fill="#cccccc" stroke="#cccccc" points="555.976,-318.395 547.281,-312.341 550.303,-322.496 555.976,-318.395"/>
</g>
<!-- Hashable -->
<g id="node8" class="node">
<g id="a_node8"><a xlink:href="/v2.1/protocol/Hashable/" target="_top">
<path fill="#999999" stroke="#999999" d="M735.003,-254C735.003,-254 689.615,-254 689.615,-254 685.948,-254 682.281,-250.333 682.281,-246.667 682.281,-246.667 682.281,-239.333 682.281,-239.333 682.281,-235.667 685.948,-232 689.615,-232 689.615,-232 735.003,-232 735.003,-232 738.67,-232 742.336,-235.667 742.336,-239.333 742.336,-239.333 742.336,-246.667 742.336,-246.667 742.336,-250.333 738.67,-254 735.003,-254"/>
<text text-anchor="middle" x="712.309" y="-239.4" font-family="Helvetica,sans-Serif" font-size="12.00" fill="white">Hashable</text>
</a>
</g>
</g>
<!-- Equatable&#45;&gt;Hashable -->
<g id="edge20" class="edge">
<path fill="none" stroke="#cccccc" d="M696.535,-405.72C700.876,-396.6 706.74,-382.779 709.309,-370 716.677,-333.352 715.547,-289.506 713.98,-264.388"/>
<polygon fill="#cccccc" stroke="#cccccc" points="717.46,-263.985 713.258,-254.259 710.478,-264.482 717.46,-263.985"/>
</g>
<!-- Equatable&#45;&gt;UInt8 -->
<g id="edge3" class="edge">
<path fill="none" stroke="#cccccc" d="M723.406,-416.23C810.3,-414.895 1050.42,-397.802 1152.31,-254 1157.96,-246.022 1157,-240.577 1152.31,-232 1117.29,-168.045 916.446,-64.8256 838.874,-26.7341"/>
<polygon fill="#cccccc" stroke="#cccccc" points="840.141,-23.4579 829.62,-22.2122 837.068,-29.7472 840.141,-23.4579"/>
</g>
<!-- _Incrementable -->
<g id="node17" class="node">
<g id="a_node17"><a xlink:href="/v2.1/protocol/_Incrementable/" target="_top">
<path fill="#999999" stroke="#999999" d="M693.014,-370C693.014,-370 615.604,-370 615.604,-370 611.937,-370 608.27,-366.333 608.27,-362.667 608.27,-362.667 608.27,-355.333 608.27,-355.333 608.27,-351.667 611.937,-348 615.604,-348 615.604,-348 693.014,-348 693.014,-348 696.681,-348 700.347,-351.667 700.347,-355.333 700.347,-355.333 700.347,-362.667 700.347,-362.667 700.347,-366.333 696.681,-370 693.014,-370"/>
<text text-anchor="middle" x="654.309" y="-355.4" font-family="Helvetica,sans-Serif" font-size="12.00" fill="white">_Incrementable</text>
</a>
</g>
</g>
<!-- Equatable&#45;&gt;_Incrementable -->
<g id="edge24" class="edge">
<path fill="none" stroke="#cccccc" d="M684.694,-405.988C679.705,-398.438 672.717,-387.861 666.7,-378.754"/>
<polygon fill="#cccccc" stroke="#cccccc" points="669.55,-376.718 661.117,-370.304 663.709,-380.577 669.55,-376.718"/>
</g>
<!-- ForwardIndexType -->
<g id="node7" class="node">
<g id="a_node7"><a xlink:href="/v2.1/protocol/ForwardIndexType/" target="_top">
<path fill="#999999" stroke="#999999" d="M951.515,-312C951.515,-312 857.103,-312 857.103,-312 853.436,-312 849.769,-308.333 849.769,-304.667 849.769,-304.667 849.769,-297.333 849.769,-297.333 849.769,-293.667 853.436,-290 857.103,-290 857.103,-290 951.515,-290 951.515,-290 955.182,-290 958.848,-293.667 958.848,-297.333 958.848,-297.333 958.848,-304.667 958.848,-304.667 958.848,-308.333 955.182,-312 951.515,-312"/>
<text text-anchor="middle" x="904.309" y="-297.4" font-family="Helvetica,sans-Serif" font-size="12.00" fill="white">ForwardIndexType</text>
</a>
</g>
</g>
<!-- ForwardIndexType&#45;&gt;BidirectionalIndexType -->
<g id="edge30" class="edge">
<path fill="none" stroke="#cccccc" d="M904.845,-289.988C905.224,-282.91 905.746,-273.171 906.212,-264.478"/>
<polygon fill="#cccccc" stroke="#cccccc" points="909.717,-264.477 906.757,-254.304 902.727,-264.102 909.717,-264.477"/>
</g>
<!-- Hashable&#45;&gt;UInt8 -->
<g id="edge4" class="edge">
<path fill="none" stroke="#cccccc" d="M716.558,-231.82C731.334,-196.419 780.642,-78.2851 800.208,-31.4085"/>
<polygon fill="#cccccc" stroke="#cccccc" points="803.487,-32.6386 804.109,-22.062 797.027,-29.9423 803.487,-32.6386"/>
</g>
<!-- Hashable&#45;&gt;_IntegerType -->
<g id="edge16" class="edge">
<path fill="none" stroke="#cccccc" d="M684.419,-231.988C659.097,-222.898 621.557,-209.422 593.652,-199.405"/>
<polygon fill="#cccccc" stroke="#cccccc" points="594.814,-196.104 584.22,-196.019 592.449,-202.692 594.814,-196.104"/>
</g>
<!-- IntegerArithmeticType&#45;&gt;_IntegerType -->
<g id="edge17" class="edge">
<path fill="none" stroke="#cccccc" d="M431.483,-231.988C456.048,-222.938 492.415,-209.54 519.566,-199.537"/>
<polygon fill="#cccccc" stroke="#cccccc" points="520.94,-202.761 529.114,-196.019 518.52,-196.192 520.94,-202.761"/>
</g>
<!-- IntegerLiteralConvertible -->
<g id="node10" class="node">
<g id="a_node10"><a xlink:href="/v2.1/protocol/IntegerLiteralConvertible/" target="_top">
<path fill="#999999" stroke="#999999" d="M619.031,-254C619.031,-254 493.586,-254 493.586,-254 489.92,-254 486.253,-250.333 486.253,-246.667 486.253,-246.667 486.253,-239.333 486.253,-239.333 486.253,-235.667 489.92,-232 493.586,-232 493.586,-232 619.031,-232 619.031,-232 622.698,-232 626.365,-235.667 626.365,-239.333 626.365,-239.333 626.365,-246.667 626.365,-246.667 626.365,-250.333 622.698,-254 619.031,-254"/>
<text text-anchor="middle" x="556.309" y="-239.4" font-family="Helvetica,sans-Serif" font-size="12.00" fill="white">IntegerLiteralConvertible</text>
</a>
</g>
</g>
<!-- IntegerLiteralConvertible&#45;&gt;_IntegerType -->
<g id="edge14" class="edge">
<path fill="none" stroke="#cccccc" d="M556.309,-231.988C556.309,-224.91 556.309,-215.171 556.309,-206.478"/>
<polygon fill="#cccccc" stroke="#cccccc" points="559.809,-206.304 556.309,-196.304 552.809,-206.304 559.809,-206.304"/>
</g>
<!-- IntegerType -->
<g id="node11" class="node">
<g id="a_node11"><a xlink:href="/v2.1/protocol/IntegerType/" target="_top">
<path fill="#999999" stroke="#999999" d="M725.51,-138C725.51,-138 667.107,-138 667.107,-138 663.441,-138 659.774,-134.333 659.774,-130.667 659.774,-130.667 659.774,-123.333 659.774,-123.333 659.774,-119.667 663.441,-116 667.107,-116 667.107,-116 725.51,-116 725.51,-116 729.177,-116 732.844,-119.667 732.844,-123.333 732.844,-123.333 732.844,-130.667 732.844,-130.667 732.844,-134.333 729.177,-138 725.51,-138"/>
<text text-anchor="middle" x="696.309" y="-123.4" font-family="Helvetica,sans-Serif" font-size="12.00" fill="white">IntegerType</text>
</a>
</g>
</g>
<!-- UnsignedIntegerType -->
<g id="node15" class="node">
<g id="a_node15"><a xlink:href="/v2.1/protocol/UnsignedIntegerType/" target="_top">
<path fill="#999999" stroke="#999999" d="M738.037,-80C738.037,-80 628.581,-80 628.581,-80 624.914,-80 621.247,-76.3333 621.247,-72.6667 621.247,-72.6667 621.247,-65.3333 621.247,-65.3333 621.247,-61.6667 624.914,-58 628.581,-58 628.581,-58 738.037,-58 738.037,-58 741.704,-58 745.37,-61.6667 745.37,-65.3333 745.37,-65.3333 745.37,-72.6667 745.37,-72.6667 745.37,-76.3333 741.704,-80 738.037,-80"/>
<text text-anchor="middle" x="683.309" y="-65.4" font-family="Helvetica,sans-Serif" font-size="12.00" fill="white">UnsignedIntegerType</text>
</a>
</g>
</g>
<!-- IntegerType&#45;&gt;UnsignedIntegerType -->
<g id="edge12" class="edge">
<path fill="none" stroke="#cccccc" d="M693.985,-115.988C692.323,-108.831 690.03,-98.9547 687.995,-90.1885"/>
<polygon fill="#cccccc" stroke="#cccccc" points="691.372,-89.2534 685.701,-80.3039 684.553,-90.8363 691.372,-89.2534"/>
</g>
<!-- RandomAccessIndexType&#45;&gt;IntegerType -->
<g id="edge26" class="edge">
<path fill="none" stroke="#cccccc" d="M844.128,-173.988C814.528,-164.779 770.458,-151.068 738.138,-141.013"/>
<polygon fill="#cccccc" stroke="#cccccc" points="739.102,-137.648 728.514,-138.019 737.022,-144.332 739.102,-137.648"/>
</g>
<!-- RandomAccessIndexType&#45;&gt;UInt8 -->
<g id="edge6" class="edge">
<path fill="none" stroke="#cccccc" d="M872.259,-173.756C861.277,-145.978 830.784,-68.848 816.233,-32.0425"/>
<polygon fill="#cccccc" stroke="#cccccc" points="819.355,-30.4209 812.424,-22.4081 812.845,-32.9945 819.355,-30.4209"/>
</g>
<!-- Strideable&#45;&gt;RandomAccessIndexType -->
<g id="edge28" class="edge">
<path fill="none" stroke="#cccccc" d="M807.326,-231.988C819.91,-223.599 838.097,-211.474 852.638,-201.78"/>
<polygon fill="#cccccc" stroke="#cccccc" points="854.759,-204.573 861.138,-196.114 850.876,-198.749 854.759,-204.573"/>
</g>
<!-- UnsignedIntegerType&#45;&gt;UInt8 -->
<g id="edge1" class="edge">
<path fill="none" stroke="#cccccc" d="M705.656,-57.9883C725.353,-49.164 754.278,-36.206 776.407,-26.2919"/>
<polygon fill="#cccccc" stroke="#cccccc" points="778.038,-29.3964 785.733,-22.1138 775.176,-23.0082 778.038,-29.3964"/>
</g>
<!-- _DisallowMixedSignArithmetic -->
<g id="node16" class="node">
<g id="a_node16"><a xlink:href="/v2.1/protocol/_DisallowMixedSignArithmetic/" target="_top">
<path fill="#999999" stroke="#999999" d="M634.018,-138C634.018,-138 478.6,-138 478.6,-138 474.933,-138 471.266,-134.333 471.266,-130.667 471.266,-130.667 471.266,-123.333 471.266,-123.333 471.266,-119.667 474.933,-116 478.6,-116 478.6,-116 634.018,-116 634.018,-116 637.685,-116 641.351,-119.667 641.351,-123.333 641.351,-123.333 641.351,-130.667 641.351,-130.667 641.351,-134.333 637.685,-138 634.018,-138"/>
<text text-anchor="middle" x="556.309" y="-123.4" font-family="Helvetica,sans-Serif" font-size="12.00" fill="white">_DisallowMixedSignArithmetic</text>
</a>
</g>
</g>
<!-- _DisallowMixedSignArithmetic&#45;&gt;UnsignedIntegerType -->
<g id="edge11" class="edge">
<path fill="none" stroke="#cccccc" d="M579.014,-115.988C599.116,-107.124 628.677,-94.0897 651.199,-84.1587"/>
<polygon fill="#cccccc" stroke="#cccccc" points="652.634,-87.351 660.372,-80.1138 649.81,-80.946 652.634,-87.351"/>
</g>
<!-- _Incrementable&#45;&gt;ForwardIndexType -->
<g id="edge31" class="edge">
<path fill="none" stroke="#cccccc" d="M699.004,-347.988C741.179,-338.541 804.504,-324.356 849.663,-314.241"/>
<polygon fill="#cccccc" stroke="#cccccc" points="850.587,-317.621 859.58,-312.019 849.057,-310.79 850.587,-317.621"/>
</g>
<!-- _Incrementable&#45;&gt;_IntegerType -->
<g id="edge19" class="edge">
<path fill="none" stroke="#cccccc" d="M655.548,-347.804C657.781,-324.918 660.166,-268.602 635.309,-232 625.8,-217.999 610.505,-207.68 595.894,-200.406"/>
<polygon fill="#cccccc" stroke="#cccccc" points="597.006,-197.064 586.459,-196.057 594.075,-203.421 597.006,-197.064"/>
</g>
<!-- _IntegerArithmeticType -->
<g id="node18" class="node">
<g id="a_node18"><a xlink:href="/v2.1/protocol/_IntegerArithmeticType/" target="_top">
<path fill="#999999" stroke="#999999" d="M463.524,-312C463.524,-312 345.094,-312 345.094,-312 341.427,-312 337.76,-308.333 337.76,-304.667 337.76,-304.667 337.76,-297.333 337.76,-297.333 337.76,-293.667 341.427,-290 345.094,-290 345.094,-290 463.524,-290 463.524,-290 467.191,-290 470.857,-293.667 470.857,-297.333 470.857,-297.333 470.857,-304.667 470.857,-304.667 470.857,-308.333 467.191,-312 463.524,-312"/>
<text text-anchor="middle" x="404.309" y="-297.4" font-family="Helvetica,sans-Serif" font-size="12.00" fill="white">_IntegerArithmeticType</text>
</a>
</g>
</g>
<!-- _IntegerArithmeticType&#45;&gt;IntegerArithmeticType -->
<g id="edge21" class="edge">
<path fill="none" stroke="#cccccc" d="M404.309,-289.988C404.309,-282.91 404.309,-273.171 404.309,-264.478"/>
<polygon fill="#cccccc" stroke="#cccccc" points="407.809,-264.304 404.309,-254.304 400.809,-264.304 407.809,-264.304"/>
</g>
<!-- _IntegerType&#45;&gt;IntegerType -->
<g id="edge25" class="edge">
<path fill="none" stroke="#cccccc" d="M581.338,-173.988C603.696,-165.045 636.667,-151.857 661.575,-141.893"/>
<polygon fill="#cccccc" stroke="#cccccc" points="663.039,-145.077 671.024,-138.114 660.44,-138.578 663.039,-145.077"/>
</g>
<!-- _IntegerType&#45;&gt;_DisallowMixedSignArithmetic -->
<g id="edge13" class="edge">
<path fill="none" stroke="#cccccc" d="M556.309,-173.988C556.309,-166.91 556.309,-157.171 556.309,-148.478"/>
<polygon fill="#cccccc" stroke="#cccccc" points="559.809,-148.304 556.309,-138.304 552.809,-148.304 559.809,-148.304"/>
</g>
<!-- _RandomAccessAmbiguity -->
<g id="node20" class="node">
<g id="a_node20"><a xlink:href="/v2.1/protocol/_RandomAccessAmbiguity/" target="_top">
<path fill="#999999" stroke="#999999" d="M1136.52,-254C1136.52,-254 998.095,-254 998.095,-254 994.429,-254 990.762,-250.333 990.762,-246.667 990.762,-246.667 990.762,-239.333 990.762,-239.333 990.762,-235.667 994.429,-232 998.095,-232 998.095,-232 1136.52,-232 1136.52,-232 1140.19,-232 1143.86,-235.667 1143.86,-239.333 1143.86,-239.333 1143.86,-246.667 1143.86,-246.667 1143.86,-250.333 1140.19,-254 1136.52,-254"/>
<text text-anchor="middle" x="1067.31" y="-239.4" font-family="Helvetica,sans-Serif" font-size="12.00" fill="white">_RandomAccessAmbiguity</text>
</a>
</g>
</g>
<!-- _RandomAccessAmbiguity&#45;&gt;RandomAccessIndexType -->
<g id="edge29" class="edge">
<path fill="none" stroke="#cccccc" d="M1033.16,-231.988C1001.62,-222.74 954.585,-208.95 920.251,-198.884"/>
<polygon fill="#cccccc" stroke="#cccccc" points="921.062,-195.474 910.482,-196.019 919.093,-202.191 921.062,-195.474"/>
</g>
<!-- _Reflectable -->
<g id="node21" class="node">
<g id="a_node21"><a xlink:href="/v2.1/protocol/_Reflectable/" target="_top">
<path fill="#999999" stroke="#999999" d="M1128.01,-80C1128.01,-80 1066.61,-80 1066.61,-80 1062.94,-80 1059.28,-76.3333 1059.28,-72.6667 1059.28,-72.6667 1059.28,-65.3333 1059.28,-65.3333 1059.28,-61.6667 1062.94,-58 1066.61,-58 1066.61,-58 1128.01,-58 1128.01,-58 1131.68,-58 1135.34,-61.6667 1135.34,-65.3333 1135.34,-65.3333 1135.34,-72.6667 1135.34,-72.6667 1135.34,-76.3333 1131.68,-80 1128.01,-80"/>
<text text-anchor="middle" x="1097.31" y="-65.4" font-family="Helvetica,sans-Serif" font-size="12.00" fill="white">_Reflectable</text>
</a>
</g>
</g>
<!-- _Reflectable&#45;&gt;UInt8 -->
<g id="edge8" class="edge">
<path fill="none" stroke="#cccccc" d="M1059.07,-59.9729C1055.77,-59.2986 1052.48,-58.6331 1049.31,-58 977.271,-43.622 892.921,-27.7402 845.539,-18.9056"/>
<polygon fill="#cccccc" stroke="#cccccc" points="845.916,-15.4157 835.445,-17.0258 844.635,-22.2974 845.916,-15.4157"/>
</g>
<!-- _Strideable -->
<g id="node22" class="node">
<g id="a_node22"><a xlink:href="/v2.1/protocol/_Strideable/" target="_top">
<path fill="#999999" stroke="#999999" d="M820.009,-312C820.009,-312 764.609,-312 764.609,-312 760.942,-312 757.276,-308.333 757.276,-304.667 757.276,-304.667 757.276,-297.333 757.276,-297.333 757.276,-293.667 760.942,-290 764.609,-290 764.609,-290 820.009,-290 820.009,-290 823.675,-290 827.342,-293.667 827.342,-297.333 827.342,-297.333 827.342,-304.667 827.342,-304.667 827.342,-308.333 823.675,-312 820.009,-312"/>
<text text-anchor="middle" x="792.309" y="-297.4" font-family="Helvetica,sans-Serif" font-size="12.00" fill="white">_Strideable</text>
</a>
</g>
</g>
<!-- _Strideable&#45;&gt;Strideable -->
<g id="edge33" class="edge">
<path fill="none" stroke="#cccccc" d="M792.309,-289.988C792.309,-282.91 792.309,-273.171 792.309,-264.478"/>
<polygon fill="#cccccc" stroke="#cccccc" points="795.809,-264.304 792.309,-254.304 788.809,-264.304 795.809,-264.304"/>
</g>
<!-- _StringElementType -->
<g id="node23" class="node">
<g id="a_node23"><a xlink:href="/v2.1/protocol/_StringElementType/" target="_top">
<path fill="#999999" stroke="#999999" d="M1264.02,-80C1264.02,-80 1160.59,-80 1160.59,-80 1156.93,-80 1153.26,-76.3333 1153.26,-72.6667 1153.26,-72.6667 1153.26,-65.3333 1153.26,-65.3333 1153.26,-61.6667 1156.93,-58 1160.59,-58 1160.59,-58 1264.02,-58 1264.02,-58 1267.69,-58 1271.36,-61.6667 1271.36,-65.3333 1271.36,-65.3333 1271.36,-72.6667 1271.36,-72.6667 1271.36,-76.3333 1267.69,-80 1264.02,-80"/>
<text text-anchor="middle" x="1212.31" y="-65.4" font-family="Helvetica,sans-Serif" font-size="12.00" fill="white">_StringElementType</text>
</a>
</g>
</g>
<!-- _StringElementType&#45;&gt;UInt8 -->
<g id="edge9" class="edge">
<path fill="none" stroke="#cccccc" d="M1152.98,-59.239C1150.05,-58.8175 1147.14,-58.4026 1144.31,-58 1035.75,-42.5873 907.33,-25.2562 845.39,-16.9538"/>
<polygon fill="#cccccc" stroke="#cccccc" points="845.7,-13.4643 835.324,-15.6057 844.771,-20.4023 845.7,-13.4643"/>
</g>
</g>
</svg>
