<?xml version="1.0" encoding="UTF-8" standalone="no"?>
<!DOCTYPE svg PUBLIC "-//W3C//DTD SVG 1.1//EN"
 "http://www.w3.org/Graphics/SVG/1.1/DTD/svg11.dtd">
<!-- Generated by graphviz version 2.36.0 (20140111.2315)
 -->
<!-- Title: _RandomAccessAmbiguity &#45; Type Hierarchy &#45; SwiftDoc.org Pages: 1 -->
<svg width="1977pt" height="369pt"
 viewBox="0.00 0.00 1977.40 369.20" xmlns="http://www.w3.org/2000/svg" xmlns:xlink="http://www.w3.org/1999/xlink">
<g id="graph0" class="graph" transform="scale(1 1) rotate(0) translate(7.2 311.6)">
<g transform="translate(0 -311.6)">
<g>
    <path fill="#666666" d="M13.846,10.832c-0.336-0.464-0.792-0.844-1.368-1.14s-1.224-0.444-1.944-0.444
        c-0.384,0-0.772,0.052-1.164,0.156C8.977,9.509,8.622,9.677,8.301,9.908c-0.32,0.232-0.58,0.52-0.78,0.864
        c-0.2,0.344-0.3,0.756-0.3,1.236c0,0.464,0.092,0.852,0.276,1.164c0.184,0.312,0.432,0.576,0.744,0.792s0.68,0.4,1.104,0.552
        c0.423,0.152,0.876,0.309,1.356,0.468c0.576,0.177,1.16,0.376,1.752,0.601c0.592,0.224,1.128,0.52,1.608,0.888
        s0.872,0.828,1.176,1.38s0.456,1.252,0.456,2.101c0,0.88-0.164,1.644-0.492,2.292c-0.328,0.647-0.765,1.184-1.308,1.607
        c-0.544,0.424-1.172,0.74-1.884,0.948s-1.444,0.312-2.196,0.312c-1.072,0-2.108-0.208-3.108-0.624
        c-1-0.415-1.828-1.031-2.484-1.848l1.848-1.56c0.4,0.592,0.936,1.071,1.608,1.439c0.672,0.368,1.399,0.552,2.184,0.552
        c0.4,0,0.8-0.056,1.2-0.168c0.4-0.111,0.764-0.288,1.092-0.527c0.328-0.24,0.596-0.54,0.804-0.9
        c0.208-0.36,0.312-0.796,0.312-1.308s-0.108-0.94-0.324-1.284c-0.216-0.344-0.508-0.636-0.876-0.876s-0.796-0.444-1.284-0.612
        c-0.488-0.168-1.004-0.34-1.548-0.516c-0.544-0.16-1.08-0.356-1.608-0.588c-0.528-0.232-1-0.528-1.416-0.889
        c-0.416-0.359-0.752-0.804-1.008-1.332c-0.256-0.527-0.384-1.184-0.384-1.968c0-0.848,0.172-1.576,0.516-2.184
        c0.344-0.608,0.792-1.112,1.344-1.512c0.552-0.4,1.176-0.692,1.872-0.876c0.696-0.184,1.396-0.276,2.1-0.276
        c0.992,0,1.92,0.176,2.784,0.528c0.864,0.352,1.56,0.824,2.088,1.416L13.846,10.832z"/>
    <path fill="#666666" d="M18.813,13.304l2.568,8.688h0.048l2.712-8.688h2.376l2.76,8.688h0.048l2.568-8.688h2.376L30.501,24.68
        h-2.352l-2.808-8.544h-0.048l-2.784,8.544h-2.352l-3.792-11.376H18.813z"/>
    <path fill="#666666" d="M38.685,9.2c0,0.416-0.147,0.76-0.44,1.032c-0.294,0.272-0.647,0.408-1.06,0.408s-0.762-0.14-1.047-0.42
        c-0.286-0.28-0.429-0.62-0.429-1.02c0-0.416,0.143-0.764,0.429-1.044c0.286-0.28,0.635-0.42,1.047-0.42s0.766,0.14,1.06,0.42
        C38.538,8.437,38.685,8.784,38.685,9.2z M38.325,24.68h-2.256V13.304h2.256V24.68z"/>
    <path fill="#666666" d="M47.613,15.152h-2.64v9.528h-2.256v-9.528h-2.256v-1.848h2.256v-2.376c0-0.672,0.076-1.292,0.228-1.86
        c0.152-0.568,0.4-1.06,0.744-1.476c0.344-0.416,0.784-0.744,1.32-0.984c0.536-0.24,1.188-0.36,1.956-0.36
        c0.544,0,1.016,0.056,1.416,0.168l-0.264,1.944c-0.176-0.048-0.352-0.088-0.528-0.12c-0.176-0.032-0.376-0.048-0.6-0.048
        c-0.432,0-0.78,0.076-1.044,0.228c-0.264,0.152-0.468,0.356-0.612,0.612s-0.24,0.548-0.288,0.876
        c-0.048,0.328-0.072,0.668-0.072,1.02v2.376h2.64V15.152z"/>
    <path fill="#666666" d="M54.909,15.152h-3.024v5.91c0,0.687,0.128,1.177,0.384,1.472c0.256,0.295,0.664,0.442,1.224,0.442
        c0.208,0,0.432-0.021,0.672-0.065c0.24-0.044,0.456-0.11,0.648-0.198l0.072,1.848c-0.272,0.096-0.572,0.172-0.9,0.229
        c-0.328,0.056-0.668,0.084-1.02,0.084c-1.072,0-1.892-0.296-2.46-0.889c-0.568-0.592-0.852-1.479-0.852-2.664v-6.168h-2.184
        v-1.848h2.184V10.04h2.232v3.264h3.024V15.152z"/>
    <path fill="#666666" d="M57.356,7.688h5.832c1.088,0,2.176,0.16,3.264,0.48c1.088,0.32,2.072,0.824,2.952,1.512
        s1.592,1.568,2.136,2.64c0.544,1.072,0.816,2.36,0.816,3.864c0,1.456-0.272,2.716-0.816,3.78s-1.256,1.943-2.136,2.64
        s-1.864,1.216-2.952,1.561c-1.088,0.344-2.176,0.516-3.264,0.516h-5.832V7.688z M59.732,22.593h2.976
        c1.024,0,1.972-0.145,2.844-0.432c0.872-0.288,1.624-0.704,2.256-1.248c0.632-0.544,1.124-1.216,1.476-2.017
        c0.352-0.8,0.528-1.704,0.528-2.712c0-1.056-0.176-1.983-0.528-2.784c-0.353-0.8-0.844-1.468-1.476-2.004
        c-0.632-0.536-1.384-0.944-2.256-1.224s-1.82-0.42-2.844-0.42h-2.976V22.593z"/>
    <path fill="#666666" d="M86.06,18.969c0,0.88-0.156,1.688-0.468,2.424c-0.312,0.736-0.744,1.372-1.296,1.908
        c-0.552,0.536-1.204,0.952-1.956,1.248c-0.752,0.296-1.56,0.443-2.424,0.443c-0.864,0-1.672-0.147-2.424-0.443
        c-0.752-0.296-1.4-0.712-1.944-1.248c-0.544-0.536-0.972-1.172-1.284-1.908c-0.312-0.735-0.468-1.544-0.468-2.424
        s0.156-1.684,0.468-2.412c0.312-0.728,0.74-1.356,1.284-1.884c0.543-0.528,1.191-0.939,1.944-1.236
        c0.752-0.296,1.56-0.444,2.424-0.444c0.864,0,1.672,0.148,2.424,0.444c0.752,0.297,1.404,0.708,1.956,1.236
        c0.552,0.527,0.984,1.156,1.296,1.884C85.904,17.285,86.06,18.089,86.06,18.969z M83.708,18.98c0-0.542-0.084-1.061-0.252-1.556
        c-0.169-0.494-0.414-0.929-0.734-1.304s-0.718-0.674-1.192-0.897s-1.015-0.335-1.625-0.335c-0.61,0-1.152,0.111-1.625,0.335
        c-0.474,0.224-0.871,0.522-1.191,0.897c-0.321,0.375-0.566,0.81-0.734,1.304C76.184,17.92,76.1,18.438,76.1,18.98
        c0,0.543,0.084,1.062,0.253,1.556c0.168,0.495,0.413,0.934,0.734,1.316c0.321,0.383,0.718,0.686,1.191,0.909
        c0.473,0.224,1.015,0.335,1.625,0.335c0.61,0,1.151-0.111,1.625-0.335s0.871-0.526,1.192-0.909s0.565-0.821,0.734-1.316
        C83.624,20.042,83.708,19.523,83.708,18.98z"/>
    <path fill="#666666" d="M96.428,16.184c-0.24-0.368-0.6-0.676-1.08-0.924s-0.992-0.372-1.536-0.372
        c-0.592,0-1.116,0.112-1.572,0.336c-0.456,0.225-0.844,0.524-1.164,0.9c-0.32,0.376-0.564,0.812-0.732,1.308
        s-0.252,1.017-0.252,1.56c0,0.545,0.084,1.064,0.252,1.561s0.412,0.933,0.732,1.308c0.32,0.376,0.712,0.677,1.176,0.9
        c0.464,0.225,0.992,0.336,1.584,0.336c0.576,0,1.1-0.111,1.572-0.336c0.472-0.224,0.86-0.528,1.164-0.912l1.512,1.368
        c-0.48,0.561-1.08,0.996-1.8,1.308c-0.72,0.312-1.536,0.468-2.448,0.468c-0.88,0-1.692-0.144-2.436-0.432
        c-0.744-0.288-1.388-0.691-1.932-1.212c-0.544-0.52-0.972-1.147-1.284-1.884s-0.468-1.561-0.468-2.473
        c0-0.896,0.152-1.711,0.456-2.447c0.304-0.736,0.728-1.368,1.272-1.896c0.543-0.527,1.188-0.936,1.932-1.224
        c0.744-0.288,1.548-0.433,2.412-0.433c0.8,0,1.596,0.16,2.388,0.48s1.419,0.784,1.884,1.392L96.428,16.184z"/>
    <path fill="#666666" d="M103.1,23.24c0,0.417-0.152,0.784-0.456,1.104c-0.304,0.32-0.688,0.479-1.152,0.479
        c-0.448,0-0.828-0.155-1.14-0.468c-0.312-0.312-0.468-0.676-0.468-1.092c0-0.432,0.152-0.804,0.456-1.116
        c0.304-0.312,0.688-0.468,1.152-0.468c0.464,0,0.848,0.152,1.152,0.456C102.947,22.44,103.1,22.808,103.1,23.24z"/>
    <path fill="#666666" d="M116.635,18.969c0,0.88-0.156,1.688-0.468,2.424c-0.312,0.736-0.744,1.372-1.296,1.908
        c-0.552,0.536-1.204,0.952-1.956,1.248c-0.752,0.296-1.56,0.443-2.424,0.443c-0.864,0-1.672-0.147-2.424-0.443
        c-0.752-0.296-1.4-0.712-1.944-1.248c-0.544-0.536-0.972-1.172-1.284-1.908c-0.312-0.735-0.468-1.544-0.468-2.424
        s0.156-1.684,0.468-2.412c0.312-0.728,0.74-1.356,1.284-1.884c0.543-0.528,1.191-0.939,1.944-1.236
        c0.752-0.296,1.56-0.444,2.424-0.444c0.864,0,1.672,0.148,2.424,0.444c0.752,0.297,1.404,0.708,1.956,1.236
        c0.552,0.527,0.984,1.156,1.296,1.884C116.479,17.285,116.635,18.089,116.635,18.969z M114.283,18.98
        c0-0.542-0.084-1.061-0.252-1.556c-0.169-0.494-0.414-0.929-0.734-1.304s-0.718-0.674-1.192-0.897s-1.015-0.335-1.625-0.335
        c-0.61,0-1.152,0.111-1.625,0.335c-0.474,0.224-0.871,0.522-1.191,0.897c-0.321,0.375-0.566,0.81-0.734,1.304
        c-0.169,0.495-0.253,1.014-0.253,1.556c0,0.543,0.084,1.062,0.253,1.556c0.168,0.495,0.413,0.934,0.734,1.316
        c0.321,0.383,0.718,0.686,1.191,0.909c0.473,0.224,1.015,0.335,1.625,0.335c0.61,0,1.151-0.111,1.625-0.335
        s0.871-0.526,1.192-0.909s0.565-0.821,0.734-1.316C114.199,20.042,114.283,19.523,114.283,18.98z"/>
    <path fill="#666666" d="M119.251,14.577c-0.016-0.48-0.04-0.904-0.072-1.272h2.136c0.032,0.288,0.056,0.62,0.072,0.996
        c0.016,0.376,0.024,0.684,0.024,0.924h0.072c0.32-0.672,0.788-1.212,1.404-1.62c0.616-0.408,1.308-0.612,2.076-0.612
        c0.352,0,0.648,0.033,0.888,0.097l-0.096,2.088c-0.32-0.08-0.664-0.12-1.032-0.12c-0.544,0-1.016,0.101-1.416,0.3
        c-0.4,0.2-0.732,0.468-0.996,0.805c-0.264,0.336-0.46,0.724-0.588,1.163c-0.128,0.44-0.192,0.9-0.192,1.381v5.976h-2.256v-8.928
        C119.275,15.449,119.267,15.056,119.251,14.577z"/>
    <path fill="#666666" d="M128.419,26.625c0.496,0.56,1.116,1.008,1.86,1.344c0.744,0.336,1.508,0.504,2.292,0.504
        c0.752,0,1.384-0.108,1.896-0.324s0.924-0.512,1.236-0.888s0.536-0.82,0.672-1.332c0.136-0.513,0.204-1.064,0.204-1.656v-1.464
        h-0.048c-0.416,0.641-0.984,1.128-1.704,1.464c-0.72,0.336-1.488,0.504-2.304,0.504c-0.864,0-1.652-0.151-2.364-0.456
        c-0.712-0.304-1.316-0.72-1.812-1.248c-0.496-0.527-0.88-1.147-1.152-1.859s-0.408-1.477-0.408-2.292
        c0-0.816,0.136-1.584,0.408-2.305c0.272-0.72,0.656-1.348,1.152-1.884c0.496-0.535,1.096-0.96,1.8-1.271
        c0.704-0.312,1.488-0.469,2.352-0.469c0.816,0,1.596,0.177,2.34,0.528c0.744,0.353,1.332,0.888,1.764,1.608h0.048v-1.824h2.184
        v10.8c0,0.832-0.104,1.628-0.312,2.388c-0.208,0.76-0.56,1.433-1.056,2.017s-1.144,1.052-1.944,1.404
        c-0.8,0.352-1.792,0.527-2.976,0.527c-0.992,0-1.988-0.18-2.988-0.54c-1-0.359-1.86-0.868-2.58-1.523L128.419,26.625z
         M129.091,18.873c0,0.527,0.084,1.031,0.253,1.512c0.168,0.479,0.417,0.904,0.746,1.271c0.329,0.369,0.726,0.664,1.192,0.889
        c0.465,0.224,0.995,0.336,1.589,0.336c0.577,0,1.107-0.104,1.589-0.312c0.481-0.207,0.891-0.491,1.228-0.852
        s0.598-0.784,0.782-1.272c0.185-0.487,0.277-1.012,0.277-1.571c0-0.544-0.093-1.057-0.277-1.536
        c-0.185-0.48-0.449-0.904-0.794-1.272c-0.345-0.367-0.755-0.66-1.228-0.876c-0.474-0.216-1-0.324-1.577-0.324
        c-0.594,0-1.124,0.108-1.589,0.324c-0.466,0.216-0.863,0.504-1.192,0.864s-0.578,0.784-0.746,1.271
        C129.175,17.812,129.091,18.329,129.091,18.873z"/>
</g>
<g><a xlink:href="/" pointer-events="all" target="_top"><polygon fill="none" points="0,0 145,0 145,35 0,35 0,0"/></a></g>

</g>


<!-- AnyRandomAccessIndex -->
<g id="node1" class="node">
<g id="a_node1"><a xlink:href="/v2.0/type/AnyRandomAccessIndex/" target="_top">
<polygon fill="#999999" stroke="#999999" points="144.051,-22 -0.0512776,-22 -0.0512776,-0 144.051,-0 144.051,-22"/>
<text text-anchor="middle" x="72" y="-7.4" font-family="Helvetica,sans-Serif" font-size="12.00" fill="white">AnyRandomAccessIndex</text>
</a>
</g>
</g>
<!-- Bit -->
<g id="node2" class="node">
<g id="a_node2"><a xlink:href="/v2.0/type/Bit/" target="_top">
<polygon fill="#999999" stroke="#999999" points="288,-22 234,-22 234,-0 288,-0 288,-22"/>
<text text-anchor="middle" x="261" y="-7.4" font-family="Helvetica,sans-Serif" font-size="12.00" fill="white">Bit</text>
</a>
</g>
</g>
<!-- Int -->
<g id="node3" class="node">
<g id="a_node3"><a xlink:href="/v2.0/type/Int/" target="_top">
<polygon fill="#999999" stroke="#999999" points="216,-22 162,-22 162,-0 216,-0 216,-22"/>
<text text-anchor="middle" x="189" y="-7.4" font-family="Helvetica,sans-Serif" font-size="12.00" fill="white">Int</text>
</a>
</g>
</g>
<!-- Int&#45;&gt;Bit -->
<g id="edge17" class="edge">
<path fill="none" stroke="#cccccc" d="M216.281,-11C218.738,-11 221.194,-11 223.651,-11"/>
<polygon fill="#cccccc" stroke="#cccccc" points="223.75,-14.5001 233.75,-11 223.749,-7.5001 223.75,-14.5001"/>
</g>
<!-- Int16 -->
<g id="node4" class="node">
<g id="a_node4"><a xlink:href="/v2.0/type/Int16/" target="_top">
<polygon fill="#999999" stroke="#999999" points="516,-22 462,-22 462,-0 516,-0 516,-22"/>
<text text-anchor="middle" x="489" y="-7.4" font-family="Helvetica,sans-Serif" font-size="12.00" fill="white">Int16</text>
</a>
</g>
</g>
<!-- Int32 -->
<g id="node5" class="node">
<g id="a_node5"><a xlink:href="/v2.0/type/Int32/" target="_top">
<polygon fill="#999999" stroke="#999999" points="404,-22 350,-22 350,-0 404,-0 404,-22"/>
<text text-anchor="middle" x="377" y="-7.4" font-family="Helvetica,sans-Serif" font-size="12.00" fill="white">Int32</text>
</a>
</g>
</g>
<!-- Int64 -->
<g id="node6" class="node">
<g id="a_node6"><a xlink:href="/v2.0/type/Int64/" target="_top">
<polygon fill="#999999" stroke="#999999" points="731,-22 677,-22 677,-0 731,-0 731,-22"/>
<text text-anchor="middle" x="704" y="-7.4" font-family="Helvetica,sans-Serif" font-size="12.00" fill="white">Int64</text>
</a>
</g>
</g>
<!-- Int8 -->
<g id="node7" class="node">
<g id="a_node7"><a xlink:href="/v2.0/type/Int8/" target="_top">
<polygon fill="#999999" stroke="#999999" points="815,-22 761,-22 761,-0 815,-0 815,-22"/>
<text text-anchor="middle" x="788" y="-7.4" font-family="Helvetica,sans-Serif" font-size="12.00" fill="white">Int8</text>
</a>
</g>
</g>
<!-- IntegerType -->
<g id="node8" class="node">
<g id="a_node8"><a xlink:href="/v2.0/protocol/IntegerType/" target="_top">
<path fill="#999999" stroke="#999999" d="M923.202,-138C923.202,-138 864.798,-138 864.798,-138 861.132,-138 857.465,-134.333 857.465,-130.667 857.465,-130.667 857.465,-123.333 857.465,-123.333 857.465,-119.667 861.132,-116 864.798,-116 864.798,-116 923.202,-116 923.202,-116 926.868,-116 930.535,-119.667 930.535,-123.333 930.535,-123.333 930.535,-130.667 930.535,-130.667 930.535,-134.333 926.868,-138 923.202,-138"/>
<text text-anchor="middle" x="894" y="-123.4" font-family="Helvetica,sans-Serif" font-size="12.00" fill="white">IntegerType</text>
</a>
</g>
</g>
<!-- IntegerType&#45;&gt;Int -->
<g id="edge34" class="edge">
<path fill="none" stroke="#cccccc" d="M857.587,-123.873C782.443,-119.108 604.918,-105.907 458,-80 373.945,-65.178 277.379,-38.298 225.888,-23.1521"/>
<polygon fill="#cccccc" stroke="#cccccc" points="226.79,-19.7691 216.208,-20.2864 224.803,-26.4811 226.79,-19.7691"/>
</g>
<!-- IntegerType&#45;&gt;Int16 -->
<g id="edge35" class="edge">
<path fill="none" stroke="#cccccc" d="M857.536,-124.502C779.497,-120.767 599.081,-109.157 546,-80 525.539,-68.7608 509.328,-46.9984 499.505,-31.1105"/>
<polygon fill="#cccccc" stroke="#cccccc" points="502.312,-28.9787 494.234,-22.1238 496.274,-32.5204 502.312,-28.9787"/>
</g>
<!-- IntegerType&#45;&gt;Int32 -->
<g id="edge36" class="edge">
<path fill="none" stroke="#cccccc" d="M857.595,-125.52C789.382,-123.76 638.27,-115.764 517,-80 474.573,-67.4878 429.161,-43.1725 401.929,-27.2653"/>
<polygon fill="#cccccc" stroke="#cccccc" points="403.476,-24.1136 393.09,-22.0225 399.905,-30.1343 403.476,-24.1136"/>
</g>
<!-- IntegerType&#45;&gt;Int64 -->
<g id="edge37" class="edge">
<path fill="none" stroke="#cccccc" d="M877.139,-115.883C843.759,-95.8554 769.084,-51.0505 729.601,-27.3608"/>
<polygon fill="#cccccc" stroke="#cccccc" points="731.199,-24.2378 720.823,-22.0941 727.598,-30.2403 731.199,-24.2378"/>
</g>
<!-- IntegerType&#45;&gt;Int8 -->
<g id="edge38" class="edge">
<path fill="none" stroke="#cccccc" d="M890.649,-115.789C885.586,-101.553 874.86,-75.5226 859,-58 847.629,-45.4364 832.086,-34.8539 818.441,-27.0187"/>
<polygon fill="#cccccc" stroke="#cccccc" points="819.824,-23.7849 809.373,-22.0426 816.456,-29.9217 819.824,-23.7849"/>
</g>
<!-- SignedIntegerType -->
<g id="node11" class="node">
<g id="a_node11"><a xlink:href="/v2.0/protocol/SignedIntegerType/" target="_top">
<path fill="#999999" stroke="#999999" d="M657.727,-80C657.727,-80 562.273,-80 562.273,-80 558.606,-80 554.94,-76.3333 554.94,-72.6667 554.94,-72.6667 554.94,-65.3333 554.94,-65.3333 554.94,-61.6667 558.606,-58 562.273,-58 562.273,-58 657.727,-58 657.727,-58 661.394,-58 665.06,-61.6667 665.06,-65.3333 665.06,-65.3333 665.06,-72.6667 665.06,-72.6667 665.06,-76.3333 661.394,-80 657.727,-80"/>
<text text-anchor="middle" x="610" y="-65.4" font-family="Helvetica,sans-Serif" font-size="12.00" fill="white">SignedIntegerType</text>
</a>
</g>
</g>
<!-- IntegerType&#45;&gt;SignedIntegerType -->
<g id="edge39" class="edge">
<path fill="none" stroke="#cccccc" d="M857.453,-118.794C810.25,-109.486 727.431,-93.1554 670.708,-81.9706"/>
<polygon fill="#cccccc" stroke="#cccccc" points="671.275,-78.515 660.786,-80.0142 669.92,-85.3827 671.275,-78.515"/>
</g>
<!-- UInt -->
<g id="node12" class="node">
<g id="a_node12"><a xlink:href="/v2.0/type/UInt/" target="_top">
<polygon fill="#999999" stroke="#999999" points="1514,-22 1460,-22 1460,-0 1514,-0 1514,-22"/>
<text text-anchor="middle" x="1487" y="-7.4" font-family="Helvetica,sans-Serif" font-size="12.00" fill="white">UInt</text>
</a>
</g>
</g>
<!-- IntegerType&#45;&gt;UInt -->
<g id="edge40" class="edge">
<path fill="none" stroke="#cccccc" d="M930.383,-126.311C1007.54,-126.095 1192.66,-120.928 1341,-80 1385.32,-67.7725 1432.93,-43.2027 1461.33,-27.1877"/>
<polygon fill="#cccccc" stroke="#cccccc" points="1463.25,-30.1207 1470.19,-22.1146 1459.77,-24.0458 1463.25,-30.1207"/>
</g>
<!-- UInt16 -->
<g id="node13" class="node">
<g id="a_node13"><a xlink:href="/v2.0/type/UInt16/" target="_top">
<polygon fill="#999999" stroke="#999999" points="1313,-22 1259,-22 1259,-0 1313,-0 1313,-22"/>
<text text-anchor="middle" x="1286" y="-7.4" font-family="Helvetica,sans-Serif" font-size="12.00" fill="white">UInt16</text>
</a>
</g>
</g>
<!-- IntegerType&#45;&gt;UInt16 -->
<g id="edge41" class="edge">
<path fill="none" stroke="#cccccc" d="M928.444,-115.983C1001.87,-94.6298 1173.25,-44.7894 1248.94,-22.7775"/>
<polygon fill="#cccccc" stroke="#cccccc" points="1250.34,-26.0154 1258.97,-19.8621 1248.39,-19.2939 1250.34,-26.0154"/>
</g>
<!-- UInt32 -->
<g id="node14" class="node">
<g id="a_node14"><a xlink:href="/v2.0/type/UInt32/" target="_top">
<polygon fill="#999999" stroke="#999999" points="1413,-22 1359,-22 1359,-0 1413,-0 1413,-22"/>
<text text-anchor="middle" x="1386" y="-7.4" font-family="Helvetica,sans-Serif" font-size="12.00" fill="white">UInt32</text>
</a>
</g>
</g>
<!-- IntegerType&#45;&gt;UInt32 -->
<g id="edge42" class="edge">
<path fill="none" stroke="#cccccc" d="M930.468,-124.806C1018.89,-121.461 1242.41,-110.185 1310,-80 1335.19,-68.7493 1357.88,-45.998 1371.77,-29.9169"/>
<polygon fill="#cccccc" stroke="#cccccc" points="1374.48,-32.1317 1378.2,-22.2117 1369.11,-27.6461 1374.48,-32.1317"/>
</g>
<!-- UInt64 -->
<g id="node15" class="node">
<g id="a_node15"><a xlink:href="/v2.0/type/UInt64/" target="_top">
<polygon fill="#999999" stroke="#999999" points="1016,-22 962,-22 962,-0 1016,-0 1016,-22"/>
<text text-anchor="middle" x="989" y="-7.4" font-family="Helvetica,sans-Serif" font-size="12.00" fill="white">UInt64</text>
</a>
</g>
</g>
<!-- IntegerType&#45;&gt;UInt64 -->
<g id="edge43" class="edge">
<path fill="none" stroke="#cccccc" d="M901.234,-115.567C910.8,-101.96 928.393,-77.5836 945,-58 953.318,-48.1912 963.166,-37.7943 971.434,-29.3711"/>
<polygon fill="#cccccc" stroke="#cccccc" points="973.93,-31.8252 978.494,-22.2638 968.964,-26.892 973.93,-31.8252"/>
</g>
<!-- UInt8 -->
<g id="node16" class="node">
<g id="a_node16"><a xlink:href="/v2.0/type/UInt8/" target="_top">
<polygon fill="#999999" stroke="#999999" points="1119,-22 1065,-22 1065,-0 1119,-0 1119,-22"/>
<text text-anchor="middle" x="1092" y="-7.4" font-family="Helvetica,sans-Serif" font-size="12.00" fill="white">UInt8</text>
</a>
</g>
</g>
<!-- IntegerType&#45;&gt;UInt8 -->
<g id="edge44" class="edge">
<path fill="none" stroke="#cccccc" d="M911.571,-115.883C946.43,-95.8132 1024.5,-50.8613 1065.58,-27.2112"/>
<polygon fill="#cccccc" stroke="#cccccc" points="1067.55,-30.1169 1074.47,-22.0941 1064.06,-24.0506 1067.55,-30.1169"/>
</g>
<!-- UnsignedIntegerType -->
<g id="node19" class="node">
<g id="a_node19"><a xlink:href="/v2.0/protocol/UnsignedIntegerType/" target="_top">
<path fill="#999999" stroke="#999999" d="M1293.73,-80C1293.73,-80 1184.27,-80 1184.27,-80 1180.61,-80 1176.94,-76.3333 1176.94,-72.6667 1176.94,-72.6667 1176.94,-65.3333 1176.94,-65.3333 1176.94,-61.6667 1180.61,-58 1184.27,-58 1184.27,-58 1293.73,-58 1293.73,-58 1297.39,-58 1301.06,-61.6667 1301.06,-65.3333 1301.06,-65.3333 1301.06,-72.6667 1301.06,-72.6667 1301.06,-76.3333 1297.39,-80 1293.73,-80"/>
<text text-anchor="middle" x="1239" y="-65.4" font-family="Helvetica,sans-Serif" font-size="12.00" fill="white">UnsignedIntegerType</text>
</a>
</g>
</g>
<!-- IntegerType&#45;&gt;UnsignedIntegerType -->
<g id="edge45" class="edge">
<path fill="none" stroke="#cccccc" d="M930.594,-120.06C986.742,-110.946 1095.21,-93.3406 1167.37,-81.6275"/>
<polygon fill="#cccccc" stroke="#cccccc" points="1167.99,-85.0724 1177.3,-80.0153 1166.87,-78.1629 1167.99,-85.0724"/>
</g>
<!-- RandomAccessIndexType -->
<g id="node9" class="node">
<g id="a_node9"><a xlink:href="/v2.0/protocol/RandomAccessIndexType/" target="_top">
<path fill="#999999" stroke="#999999" d="M1026.23,-196C1026.23,-196 891.775,-196 891.775,-196 888.108,-196 884.441,-192.333 884.441,-188.667 884.441,-188.667 884.441,-181.333 884.441,-181.333 884.441,-177.667 888.108,-174 891.775,-174 891.775,-174 1026.23,-174 1026.23,-174 1029.89,-174 1033.56,-177.667 1033.56,-181.333 1033.56,-181.333 1033.56,-188.667 1033.56,-188.667 1033.56,-192.333 1029.89,-196 1026.23,-196"/>
<text text-anchor="middle" x="959" y="-181.4" font-family="Helvetica,sans-Serif" font-size="12.00" fill="white">RandomAccessIndexType</text>
</a>
</g>
</g>
<!-- RandomAccessIndexType&#45;&gt;AnyRandomAccessIndex -->
<g id="edge18" class="edge">
<path fill="none" stroke="#cccccc" d="M884.494,-184.238C777.672,-183.13 575.412,-175.618 408,-138 290.781,-111.661 159.498,-53.5047 101.857,-26.4131"/>
<polygon fill="#cccccc" stroke="#cccccc" points="103.145,-23.1507 92.6092,-22.0353 100.15,-29.4776 103.145,-23.1507"/>
</g>
<!-- RandomAccessIndexType&#45;&gt;Bit -->
<g id="edge19" class="edge">
<path fill="none" stroke="#cccccc" d="M884.64,-182.74C800.213,-179.724 659.015,-169.843 542,-138 443.579,-111.217 335.79,-54.3753 287.257,-27.1517"/>
<polygon fill="#cccccc" stroke="#cccccc" points="288.788,-23.9966 278.361,-22.1195 285.342,-30.0894 288.788,-23.9966"/>
</g>
<!-- RandomAccessIndexType&#45;&gt;Int -->
<g id="edge20" class="edge">
<path fill="none" stroke="#cccccc" d="M884.499,-184.197C788.524,-182.804 617.241,-174.715 476,-138 375.066,-111.762 264.409,-54.1933 215.154,-26.9087"/>
<polygon fill="#cccccc" stroke="#cccccc" points="216.852,-23.8483 206.415,-22.0272 213.439,-29.9595 216.852,-23.8483"/>
</g>
<!-- RandomAccessIndexType&#45;&gt;Int16 -->
<g id="edge21" class="edge">
<path fill="none" stroke="#cccccc" d="M884.614,-174.802C773.624,-159.732 571.831,-126.715 517,-80 502.924,-68.0072 495.812,-47.8169 492.291,-32.5444"/>
<polygon fill="#cccccc" stroke="#cccccc" points="495.676,-31.6177 490.313,-22.4805 488.807,-32.9678 495.676,-31.6177"/>
</g>
<!-- RandomAccessIndexType&#45;&gt;Int32 -->
<g id="edge22" class="edge">
<path fill="none" stroke="#cccccc" d="M884.441,-183.086C809.691,-180.212 692.199,-170.314 596,-138 517.855,-111.75 436.42,-56.1364 398.64,-28.4186"/>
<polygon fill="#cccccc" stroke="#cccccc" points="400.536,-25.4672 390.42,-22.3196 396.365,-31.089 400.536,-25.4672"/>
</g>
<!-- RandomAccessIndexType&#45;&gt;Int64 -->
<g id="edge23" class="edge">
<path fill="none" stroke="#cccccc" d="M914.202,-173.926C887.504,-166.615 853.725,-154.994 827,-138 780.184,-108.231 737.929,-57.3455 717.297,-30.2448"/>
<polygon fill="#cccccc" stroke="#cccccc" points="719.946,-27.9426 711.154,-22.0309 714.341,-32.1351 719.946,-27.9426"/>
</g>
<!-- RandomAccessIndexType&#45;&gt;Int8 -->
<g id="edge24" class="edge">
<path fill="none" stroke="#cccccc" d="M915.314,-173.961C892.956,-166.979 866.604,-155.669 848,-138 816.964,-108.524 800.19,-59.7274 792.774,-32.3122"/>
<polygon fill="#cccccc" stroke="#cccccc" points="796.086,-31.1334 790.229,-22.3047 789.302,-32.8589 796.086,-31.1334"/>
</g>
<!-- RandomAccessIndexType&#45;&gt;IntegerType -->
<g id="edge25" class="edge">
<path fill="none" stroke="#cccccc" d="M947.379,-173.988C938.068,-165.966 924.791,-154.527 913.808,-145.065"/>
<polygon fill="#cccccc" stroke="#cccccc" points="915.82,-142.179 905.96,-138.304 911.251,-147.483 915.82,-142.179"/>
</g>
<!-- ReverseRandomAccessIndex -->
<g id="node10" class="node">
<g id="a_node10"><a xlink:href="/v2.0/type/ReverseRandomAccessIndex/" target="_top">
<polygon fill="#999999" stroke="#999999" points="1817.06,-22 1648.94,-22 1648.94,-0 1817.06,-0 1817.06,-22"/>
<text text-anchor="middle" x="1733" y="-7.4" font-family="Helvetica,sans-Serif" font-size="12.00" fill="white">ReverseRandomAccessIndex</text>
</a>
</g>
</g>
<!-- RandomAccessIndexType&#45;&gt;ReverseRandomAccessIndex -->
<g id="edge26" class="edge">
<path fill="none" stroke="#cccccc" d="M1033.7,-180.259C1115.2,-175.072 1249.14,-163.301 1362,-138 1489.9,-109.328 1635.45,-52.4327 1699.62,-26.0456"/>
<polygon fill="#cccccc" stroke="#cccccc" points="1701.3,-29.1378 1709.2,-22.0816 1698.63,-22.6692 1701.3,-29.1378"/>
</g>
<!-- RandomAccessIndexType&#45;&gt;UInt -->
<g id="edge27" class="edge">
<path fill="none" stroke="#cccccc" d="M1033.57,-180.763C1099.35,-176.155 1197.05,-164.999 1278,-138 1328.94,-121.008 1338,-107.706 1384,-80 1412.14,-63.0514 1443.52,-42.0146 1464.16,-27.8649"/>
<polygon fill="#cccccc" stroke="#cccccc" points="1466.32,-30.6252 1472.58,-22.0713 1462.35,-24.8597 1466.32,-30.6252"/>
</g>
<!-- RandomAccessIndexType&#45;&gt;UInt16 -->
<g id="edge28" class="edge">
<path fill="none" stroke="#cccccc" d="M1024.77,-173.998C1116.59,-158.538 1275.82,-125.77 1310,-80 1321.04,-65.2131 1311.41,-44.9094 1301.25,-30.3448"/>
<polygon fill="#cccccc" stroke="#cccccc" points="1303.86,-27.9892 1295.04,-22.1185 1298.27,-32.2078 1303.86,-27.9892"/>
</g>
<!-- RandomAccessIndexType&#45;&gt;UInt32 -->
<g id="edge29" class="edge">
<path fill="none" stroke="#cccccc" d="M1033.59,-178.528C1090.34,-172.727 1169.7,-161.054 1236,-138 1286.36,-120.492 1301.83,-116.162 1341,-80 1356.04,-66.1128 1368.45,-46.2137 1376.4,-31.5277"/>
<polygon fill="#cccccc" stroke="#cccccc" points="1379.67,-32.8199 1381.17,-22.3312 1373.46,-29.5978 1379.67,-32.8199"/>
</g>
<!-- RandomAccessIndexType&#45;&gt;UInt64 -->
<g id="edge30" class="edge">
<path fill="none" stroke="#cccccc" d="M960.787,-173.756C965.611,-146.097 978.969,-69.5091 985.421,-32.5186"/>
<polygon fill="#cccccc" stroke="#cccccc" points="988.914,-32.8608 987.185,-22.4081 982.018,-31.6579 988.914,-32.8608"/>
</g>
<!-- RandomAccessIndexType&#45;&gt;UInt8 -->
<g id="edge31" class="edge">
<path fill="none" stroke="#cccccc" d="M966.921,-173.756C988.677,-145.621 1049.58,-66.8536 1077.59,-30.6411"/>
<polygon fill="#cccccc" stroke="#cccccc" points="1080.6,-32.4599 1083.95,-22.4081 1075.07,-28.1779 1080.6,-32.4599"/>
</g>
<!-- UnsafeMutablePointer -->
<g id="node17" class="node">
<g id="a_node17"><a xlink:href="/v2.0/type/UnsafeMutablePointer/" target="_top">
<polygon fill="#999999" stroke="#999999" points="1963.05,-22 1834.95,-22 1834.95,-0 1963.05,-0 1963.05,-22"/>
<text text-anchor="middle" x="1899" y="-7.4" font-family="Helvetica,sans-Serif" font-size="12.00" fill="white">UnsafeMutablePointer</text>
</a>
</g>
</g>
<!-- RandomAccessIndexType&#45;&gt;UnsafeMutablePointer -->
<g id="edge32" class="edge">
<path fill="none" stroke="#cccccc" d="M1033.66,-180.078C1124.73,-174.474 1283.09,-162.076 1417,-138 1582.69,-108.21 1775.05,-50.8863 1857.75,-25.1148"/>
<polygon fill="#cccccc" stroke="#cccccc" points="1859.02,-28.3855 1867.51,-22.059 1856.93,-21.7049 1859.02,-28.3855"/>
</g>
<!-- UnsafePointer -->
<g id="node18" class="node">
<g id="a_node18"><a xlink:href="/v2.0/type/UnsafePointer/" target="_top">
<polygon fill="#999999" stroke="#999999" points="1631.03,-22 1544.97,-22 1544.97,-0 1631.03,-0 1631.03,-22"/>
<text text-anchor="middle" x="1588" y="-7.4" font-family="Helvetica,sans-Serif" font-size="12.00" fill="white">UnsafePointer</text>
</a>
</g>
</g>
<!-- RandomAccessIndexType&#45;&gt;UnsafePointer -->
<g id="edge33" class="edge">
<path fill="none" stroke="#cccccc" d="M1033.37,-181.093C1106.73,-176.685 1221.44,-165.635 1317,-138 1411.89,-110.559 1515.53,-54.2461 1562.42,-27.1815"/>
<polygon fill="#cccccc" stroke="#cccccc" points="1564.4,-30.0787 1571.28,-22.0232 1560.88,-24.0288 1564.4,-30.0787"/>
</g>
<!-- SignedIntegerType&#45;&gt;Int -->
<g id="edge46" class="edge">
<path fill="none" stroke="#cccccc" d="M554.758,-64.0543C481.599,-58.2425 348.485,-45.6364 225.952,-21.9311"/>
<polygon fill="#cccccc" stroke="#cccccc" points="226.508,-18.4736 216.021,-19.9806 225.159,-25.3424 226.508,-18.4736"/>
</g>
<!-- SignedIntegerType&#45;&gt;Int16 -->
<g id="edge47" class="edge">
<path fill="none" stroke="#cccccc" d="M588.368,-57.9883C569.386,-49.2036 541.553,-36.3222 520.169,-26.4255"/>
<polygon fill="#cccccc" stroke="#cccccc" points="521.398,-23.1376 510.853,-22.1138 518.458,-29.4903 521.398,-23.1376"/>
</g>
<!-- SignedIntegerType&#45;&gt;Int32 -->
<g id="edge48" class="edge">
<path fill="none" stroke="#cccccc" d="M568.344,-57.9883C524.448,-47.4382 455.968,-30.9794 413.939,-20.878"/>
<polygon fill="#cccccc" stroke="#cccccc" points="414.652,-17.4498 404.111,-18.5159 413.016,-24.256 414.652,-17.4498"/>
</g>
<!-- SignedIntegerType&#45;&gt;Int64 -->
<g id="edge49" class="edge">
<path fill="none" stroke="#cccccc" d="M626.805,-57.9883C641.153,-49.441 662.01,-37.0155 678.428,-27.2343"/>
<polygon fill="#cccccc" stroke="#cccccc" points="680.224,-30.2388 687.023,-22.1138 676.641,-24.2251 680.224,-30.2388"/>
</g>
<!-- SignedIntegerType&#45;&gt;Int8 -->
<g id="edge50" class="edge">
<path fill="none" stroke="#cccccc" d="M641.823,-57.9883C672.412,-48.3648 718.627,-33.8251 750.879,-23.6786"/>
<polygon fill="#cccccc" stroke="#cccccc" points="752.333,-26.8902 760.822,-20.5504 750.232,-20.2129 752.333,-26.8902"/>
</g>
<!-- UnsignedIntegerType&#45;&gt;UInt -->
<g id="edge51" class="edge">
<path fill="none" stroke="#cccccc" d="M1283.34,-57.9883C1330.9,-47.2476 1405.59,-30.3829 1450.08,-20.337"/>
<polygon fill="#cccccc" stroke="#cccccc" points="1450.92,-23.7364 1459.9,-18.1197 1449.37,-16.9083 1450.92,-23.7364"/>
</g>
<!-- UnsignedIntegerType&#45;&gt;UInt16 -->
<g id="edge52" class="edge">
<path fill="none" stroke="#cccccc" d="M1247.4,-57.9883C1253.87,-50.2806 1262.99,-39.4191 1270.74,-30.187"/>
<polygon fill="#cccccc" stroke="#cccccc" points="1273.6,-32.2137 1277.35,-22.3039 1268.24,-27.7136 1273.6,-32.2137"/>
</g>
<!-- UnsignedIntegerType&#45;&gt;UInt32 -->
<g id="edge53" class="edge">
<path fill="none" stroke="#cccccc" d="M1265.28,-57.9883C1288.86,-49.0057 1323.68,-35.7398 1349.88,-25.7614"/>
<polygon fill="#cccccc" stroke="#cccccc" points="1351.35,-28.9445 1359.45,-22.1138 1348.86,-22.4031 1351.35,-28.9445"/>
</g>
<!-- UnsignedIntegerType&#45;&gt;UInt64 -->
<g id="edge54" class="edge">
<path fill="none" stroke="#cccccc" d="M1194.31,-57.9883C1146.36,-47.2476 1071.07,-30.3829 1026.22,-20.337"/>
<polygon fill="#cccccc" stroke="#cccccc" points="1026.84,-16.8902 1016.32,-18.1197 1025.31,-23.7209 1026.84,-16.8902"/>
</g>
<!-- UnsignedIntegerType&#45;&gt;UInt8 -->
<g id="edge55" class="edge">
<path fill="none" stroke="#cccccc" d="M1212.72,-57.9883C1189.14,-49.0057 1154.32,-35.7398 1128.12,-25.7614"/>
<polygon fill="#cccccc" stroke="#cccccc" points="1129.14,-22.4031 1118.55,-22.1138 1126.65,-28.9445 1129.14,-22.4031"/>
</g>
<!-- _RandomAccessAmbiguity -->
<g id="node20" class="node">
<g id="a_node20"><a xlink:href="/v2.0/protocol/_RandomAccessAmbiguity/" target="_top">
<path fill="#ee543d" stroke="#ee543d" d="M1085.21,-254C1085.21,-254 946.786,-254 946.786,-254 943.12,-254 939.453,-250.333 939.453,-246.667 939.453,-246.667 939.453,-239.333 939.453,-239.333 939.453,-235.667 943.12,-232 946.786,-232 946.786,-232 1085.21,-232 1085.21,-232 1088.88,-232 1092.55,-235.667 1092.55,-239.333 1092.55,-239.333 1092.55,-246.667 1092.55,-246.667 1092.55,-250.333 1088.88,-254 1085.21,-254"/>
<text text-anchor="middle" x="1016" y="-239.4" font-family="Helvetica,sans-Serif" font-size="12.00" fill="white">_RandomAccessAmbiguity</text>
</a>
</g>
</g>
<!-- _RandomAccessAmbiguity&#45;&gt;AnyRandomAccessIndex -->
<g id="edge1" class="edge">
<path fill="none" stroke="#cccccc" d="M939.449,-238.838C810.725,-232.973 556.505,-218.878 470,-196 320.549,-156.475 157.758,-63.8726 96.8358,-27.2731"/>
<polygon fill="#cccccc" stroke="#cccccc" points="98.6423,-24.2754 88.2744,-22.0941 95.0191,-30.2648 98.6423,-24.2754"/>
</g>
<!-- _RandomAccessAmbiguity&#45;&gt;Bit -->
<g id="edge2" class="edge">
<path fill="none" stroke="#cccccc" d="M939.36,-240.038C856.97,-236.377 722.767,-225.909 611,-196 486.016,-162.554 454.428,-147.419 344,-80 319.765,-65.2039 294.964,-43.9194 278.863,-29.1191"/>
<polygon fill="#cccccc" stroke="#cccccc" points="280.982,-26.3089 271.286,-22.0392 276.203,-31.4237 280.982,-26.3089"/>
</g>
<!-- _RandomAccessAmbiguity&#45;&gt;Int -->
<g id="edge3" class="edge">
<path fill="none" stroke="#cccccc" d="M939.392,-242.236C843.017,-240.829 673.165,-232.669 533,-196 471.4,-179.884 460.11,-164.029 402,-138 345,-112.468 327.243,-112.65 274,-80 249.581,-65.0251 224.279,-43.9438 207.701,-29.2372"/>
<polygon fill="#cccccc" stroke="#cccccc" points="209.651,-26.2838 199.878,-22.1939 204.968,-31.486 209.651,-26.2838"/>
</g>
<!-- _RandomAccessAmbiguity&#45;&gt;Int16 -->
<g id="edge4" class="edge">
<path fill="none" stroke="#cccccc" d="M960.721,-231.972C918.495,-223.784 859.065,-211.119 808,-196 666.945,-154.236 589.601,-195.109 498,-80 487.482,-66.7828 485.857,-47.3362 486.498,-32.621"/>
<polygon fill="#cccccc" stroke="#cccccc" points="490.002,-32.7223 487.321,-22.4721 483.025,-32.1564 490.002,-32.7223"/>
</g>
<!-- _RandomAccessAmbiguity&#45;&gt;Int32 -->
<g id="edge5" class="edge">
<path fill="none" stroke="#cccccc" d="M939.462,-235.503C873.483,-228.861 776.024,-216.549 693,-196 618.765,-177.626 599.674,-171.651 531,-138 487.932,-116.896 476.821,-110.732 440,-80 421.822,-64.8283 403.73,-44.6355 391.629,-30.2041"/>
<polygon fill="#cccccc" stroke="#cccccc" points="394.302,-27.9446 385.241,-22.4543 388.901,-32.397 394.302,-27.9446"/>
</g>
<!-- _RandomAccessAmbiguity&#45;&gt;Int64 -->
<g id="edge6" class="edge">
<path fill="none" stroke="#cccccc" d="M942.045,-231.933C909.925,-225.209 872.895,-214.13 843,-196 783.284,-159.786 776.209,-137.794 737,-80 726.668,-64.7701 717.752,-45.818 711.802,-31.7933"/>
<polygon fill="#cccccc" stroke="#cccccc" points="714.888,-30.0959 707.855,-22.1723 708.412,-32.7524 714.888,-30.0959"/>
</g>
<!-- _RandomAccessAmbiguity&#45;&gt;Int8 -->
<g id="edge7" class="edge">
<path fill="none" stroke="#cccccc" d="M962.235,-231.994C934.486,-225.038 901.079,-213.743 875,-196 823.838,-161.192 816.572,-139.027 798,-80 793.132,-64.527 790.614,-46.3128 789.323,-32.6314"/>
<polygon fill="#cccccc" stroke="#cccccc" points="792.788,-32.0542 788.503,-22.3648 785.81,-32.6118 792.788,-32.0542"/>
</g>
<!-- _RandomAccessAmbiguity&#45;&gt;RandomAccessIndexType -->
<g id="edge8" class="edge">
<path fill="none" stroke="#cccccc" d="M1005.81,-231.988C997.724,-224.045 986.229,-212.751 976.654,-203.344"/>
<polygon fill="#cccccc" stroke="#cccccc" points="979.074,-200.815 969.488,-196.304 974.168,-205.809 979.074,-200.815"/>
</g>
<!-- _RandomAccessAmbiguity&#45;&gt;ReverseRandomAccessIndex -->
<g id="edge9" class="edge">
<path fill="none" stroke="#cccccc" d="M1092.44,-236.594C1155.97,-230.698 1248.22,-218.867 1326,-196 1476.37,-151.789 1643.01,-62.6887 1706.49,-27.1438"/>
<polygon fill="#cccccc" stroke="#cccccc" points="1708.44,-30.0634 1715.43,-22.1065 1705,-23.9641 1708.44,-30.0634"/>
</g>
<!-- _RandomAccessAmbiguity&#45;&gt;UInt -->
<g id="edge10" class="edge">
<path fill="none" stroke="#cccccc" d="M1092.39,-236.265C1140.23,-230.502 1202.21,-218.984 1253,-196 1345.8,-154.003 1434.41,-67.6081 1470.27,-30.0725"/>
<polygon fill="#cccccc" stroke="#cccccc" points="1473.16,-32.1087 1477.48,-22.4348 1468.07,-27.303 1473.16,-32.1087"/>
</g>
<!-- _RandomAccessAmbiguity&#45;&gt;UInt16 -->
<g id="edge11" class="edge">
<path fill="none" stroke="#cccccc" d="M1068.75,-231.993C1141.67,-215.015 1270.64,-172.91 1327,-80 1337.59,-62.5361 1322.19,-42.5079 1307.33,-28.7344"/>
<polygon fill="#cccccc" stroke="#cccccc" points="1309.6,-26.0661 1299.75,-22.1485 1305.01,-31.3498 1309.6,-26.0661"/>
</g>
<!-- _RandomAccessAmbiguity&#45;&gt;UInt32 -->
<g id="edge12" class="edge">
<path fill="none" stroke="#cccccc" d="M1087.35,-231.958C1126.41,-224.902 1175.06,-213.524 1216,-196 1259.06,-177.569 1270.73,-170.969 1304,-138 1336.88,-105.422 1363.56,-57.5135 1376.85,-31.1487"/>
<polygon fill="#cccccc" stroke="#cccccc" points="1379.99,-32.693 1381.27,-22.176 1373.71,-29.5982 1379.99,-32.693"/>
</g>
<!-- _RandomAccessAmbiguity&#45;&gt;UInt64 -->
<g id="edge13" class="edge">
<path fill="none" stroke="#cccccc" d="M1023.88,-231.716C1030.17,-222.813 1038.5,-209.308 1042,-196 1044.49,-186.544 1043.54,-183.656 1042,-174 1033.54,-120.934 1010.41,-61.6399 997.686,-31.6537"/>
<polygon fill="#cccccc" stroke="#cccccc" points="1000.84,-30.1205 993.658,-22.3278 994.41,-32.8959 1000.84,-30.1205"/>
</g>
<!-- _RandomAccessAmbiguity&#45;&gt;UInt8 -->
<g id="edge14" class="edge">
<path fill="none" stroke="#cccccc" d="M1028,-231.929C1037.39,-223.357 1050,-210.201 1057,-196 1084,-141.234 1090.22,-67.815 1091.62,-32.5714"/>
<polygon fill="#cccccc" stroke="#cccccc" points="1095.13,-32.2654 1091.93,-22.1648 1088.13,-32.0551 1095.13,-32.2654"/>
</g>
<!-- _RandomAccessAmbiguity&#45;&gt;UnsafeMutablePointer -->
<g id="edge15" class="edge">
<path fill="none" stroke="#cccccc" d="M1092.39,-236.789C1165.24,-230.734 1277.68,-218.553 1373,-196 1565.25,-150.515 1785.47,-60.5224 1866.72,-25.9653"/>
<polygon fill="#cccccc" stroke="#cccccc" points="1868.11,-29.179 1875.93,-22.0326 1865.36,-22.7415 1868.11,-29.179"/>
</g>
<!-- _RandomAccessAmbiguity&#45;&gt;UnsafePointer -->
<g id="edge16" class="edge">
<path fill="none" stroke="#cccccc" d="M1092.49,-236.811C1147.91,-231.202 1223.88,-219.645 1287,-196 1401.5,-153.109 1520.47,-65.2187 1567.3,-28.5946"/>
<polygon fill="#cccccc" stroke="#cccccc" points="1569.75,-31.1186 1575.44,-22.178 1565.42,-25.6221 1569.75,-31.1186"/>
</g>
</g>
</svg>
