<?xml version="1.0" encoding="UTF-8" standalone="no"?>
<!DOCTYPE svg PUBLIC "-//W3C//DTD SVG 1.1//EN"
 "http://www.w3.org/Graphics/SVG/1.1/DTD/svg11.dtd">
<!-- Generated by graphviz version 2.36.0 (20140111.2315)
 -->
<!-- Title: ForwardIndexType &#45; Type Hierarchy &#45; SwiftDoc.org Pages: 1 -->
<svg width="3088pt" height="543pt"
 viewBox="0.00 0.00 3088.40 543.20" xmlns="http://www.w3.org/2000/svg" xmlns:xlink="http://www.w3.org/1999/xlink">
<g id="graph0" class="graph" transform="scale(1 1) rotate(0) translate(7.2 485.6)">
<g transform="translate(0 -485.6)">
<g>
    <path fill="#666666" d="M13.846,10.832c-0.336-0.464-0.792-0.844-1.368-1.14s-1.224-0.444-1.944-0.444
        c-0.384,0-0.772,0.052-1.164,0.156C8.977,9.509,8.622,9.677,8.301,9.908c-0.32,0.232-0.58,0.52-0.78,0.864
        c-0.2,0.344-0.3,0.756-0.3,1.236c0,0.464,0.092,0.852,0.276,1.164c0.184,0.312,0.432,0.576,0.744,0.792s0.68,0.4,1.104,0.552
        c0.423,0.152,0.876,0.309,1.356,0.468c0.576,0.177,1.16,0.376,1.752,0.601c0.592,0.224,1.128,0.52,1.608,0.888
        s0.872,0.828,1.176,1.38s0.456,1.252,0.456,2.101c0,0.88-0.164,1.644-0.492,2.292c-0.328,0.647-0.765,1.184-1.308,1.607
        c-0.544,0.424-1.172,0.74-1.884,0.948s-1.444,0.312-2.196,0.312c-1.072,0-2.108-0.208-3.108-0.624
        c-1-0.415-1.828-1.031-2.484-1.848l1.848-1.56c0.4,0.592,0.936,1.071,1.608,1.439c0.672,0.368,1.399,0.552,2.184,0.552
        c0.4,0,0.8-0.056,1.2-0.168c0.4-0.111,0.764-0.288,1.092-0.527c0.328-0.24,0.596-0.54,0.804-0.9
        c0.208-0.36,0.312-0.796,0.312-1.308s-0.108-0.94-0.324-1.284c-0.216-0.344-0.508-0.636-0.876-0.876s-0.796-0.444-1.284-0.612
        c-0.488-0.168-1.004-0.34-1.548-0.516c-0.544-0.16-1.08-0.356-1.608-0.588c-0.528-0.232-1-0.528-1.416-0.889
        c-0.416-0.359-0.752-0.804-1.008-1.332c-0.256-0.527-0.384-1.184-0.384-1.968c0-0.848,0.172-1.576,0.516-2.184
        c0.344-0.608,0.792-1.112,1.344-1.512c0.552-0.4,1.176-0.692,1.872-0.876c0.696-0.184,1.396-0.276,2.1-0.276
        c0.992,0,1.92,0.176,2.784,0.528c0.864,0.352,1.56,0.824,2.088,1.416L13.846,10.832z"/>
    <path fill="#666666" d="M18.813,13.304l2.568,8.688h0.048l2.712-8.688h2.376l2.76,8.688h0.048l2.568-8.688h2.376L30.501,24.68
        h-2.352l-2.808-8.544h-0.048l-2.784,8.544h-2.352l-3.792-11.376H18.813z"/>
    <path fill="#666666" d="M38.685,9.2c0,0.416-0.147,0.76-0.44,1.032c-0.294,0.272-0.647,0.408-1.06,0.408s-0.762-0.14-1.047-0.42
        c-0.286-0.28-0.429-0.62-0.429-1.02c0-0.416,0.143-0.764,0.429-1.044c0.286-0.28,0.635-0.42,1.047-0.42s0.766,0.14,1.06,0.42
        C38.538,8.437,38.685,8.784,38.685,9.2z M38.325,24.68h-2.256V13.304h2.256V24.68z"/>
    <path fill="#666666" d="M47.613,15.152h-2.64v9.528h-2.256v-9.528h-2.256v-1.848h2.256v-2.376c0-0.672,0.076-1.292,0.228-1.86
        c0.152-0.568,0.4-1.06,0.744-1.476c0.344-0.416,0.784-0.744,1.32-0.984c0.536-0.24,1.188-0.36,1.956-0.36
        c0.544,0,1.016,0.056,1.416,0.168l-0.264,1.944c-0.176-0.048-0.352-0.088-0.528-0.12c-0.176-0.032-0.376-0.048-0.6-0.048
        c-0.432,0-0.78,0.076-1.044,0.228c-0.264,0.152-0.468,0.356-0.612,0.612s-0.24,0.548-0.288,0.876
        c-0.048,0.328-0.072,0.668-0.072,1.02v2.376h2.64V15.152z"/>
    <path fill="#666666" d="M54.909,15.152h-3.024v5.91c0,0.687,0.128,1.177,0.384,1.472c0.256,0.295,0.664,0.442,1.224,0.442
        c0.208,0,0.432-0.021,0.672-0.065c0.24-0.044,0.456-0.11,0.648-0.198l0.072,1.848c-0.272,0.096-0.572,0.172-0.9,0.229
        c-0.328,0.056-0.668,0.084-1.02,0.084c-1.072,0-1.892-0.296-2.46-0.889c-0.568-0.592-0.852-1.479-0.852-2.664v-6.168h-2.184
        v-1.848h2.184V10.04h2.232v3.264h3.024V15.152z"/>
    <path fill="#666666" d="M57.356,7.688h5.832c1.088,0,2.176,0.16,3.264,0.48c1.088,0.32,2.072,0.824,2.952,1.512
        s1.592,1.568,2.136,2.64c0.544,1.072,0.816,2.36,0.816,3.864c0,1.456-0.272,2.716-0.816,3.78s-1.256,1.943-2.136,2.64
        s-1.864,1.216-2.952,1.561c-1.088,0.344-2.176,0.516-3.264,0.516h-5.832V7.688z M59.732,22.593h2.976
        c1.024,0,1.972-0.145,2.844-0.432c0.872-0.288,1.624-0.704,2.256-1.248c0.632-0.544,1.124-1.216,1.476-2.017
        c0.352-0.8,0.528-1.704,0.528-2.712c0-1.056-0.176-1.983-0.528-2.784c-0.353-0.8-0.844-1.468-1.476-2.004
        c-0.632-0.536-1.384-0.944-2.256-1.224s-1.82-0.42-2.844-0.42h-2.976V22.593z"/>
    <path fill="#666666" d="M86.06,18.969c0,0.88-0.156,1.688-0.468,2.424c-0.312,0.736-0.744,1.372-1.296,1.908
        c-0.552,0.536-1.204,0.952-1.956,1.248c-0.752,0.296-1.56,0.443-2.424,0.443c-0.864,0-1.672-0.147-2.424-0.443
        c-0.752-0.296-1.4-0.712-1.944-1.248c-0.544-0.536-0.972-1.172-1.284-1.908c-0.312-0.735-0.468-1.544-0.468-2.424
        s0.156-1.684,0.468-2.412c0.312-0.728,0.74-1.356,1.284-1.884c0.543-0.528,1.191-0.939,1.944-1.236
        c0.752-0.296,1.56-0.444,2.424-0.444c0.864,0,1.672,0.148,2.424,0.444c0.752,0.297,1.404,0.708,1.956,1.236
        c0.552,0.527,0.984,1.156,1.296,1.884C85.904,17.285,86.06,18.089,86.06,18.969z M83.708,18.98c0-0.542-0.084-1.061-0.252-1.556
        c-0.169-0.494-0.414-0.929-0.734-1.304s-0.718-0.674-1.192-0.897s-1.015-0.335-1.625-0.335c-0.61,0-1.152,0.111-1.625,0.335
        c-0.474,0.224-0.871,0.522-1.191,0.897c-0.321,0.375-0.566,0.81-0.734,1.304C76.184,17.92,76.1,18.438,76.1,18.98
        c0,0.543,0.084,1.062,0.253,1.556c0.168,0.495,0.413,0.934,0.734,1.316c0.321,0.383,0.718,0.686,1.191,0.909
        c0.473,0.224,1.015,0.335,1.625,0.335c0.61,0,1.151-0.111,1.625-0.335s0.871-0.526,1.192-0.909s0.565-0.821,0.734-1.316
        C83.624,20.042,83.708,19.523,83.708,18.98z"/>
    <path fill="#666666" d="M96.428,16.184c-0.24-0.368-0.6-0.676-1.08-0.924s-0.992-0.372-1.536-0.372
        c-0.592,0-1.116,0.112-1.572,0.336c-0.456,0.225-0.844,0.524-1.164,0.9c-0.32,0.376-0.564,0.812-0.732,1.308
        s-0.252,1.017-0.252,1.56c0,0.545,0.084,1.064,0.252,1.561s0.412,0.933,0.732,1.308c0.32,0.376,0.712,0.677,1.176,0.9
        c0.464,0.225,0.992,0.336,1.584,0.336c0.576,0,1.1-0.111,1.572-0.336c0.472-0.224,0.86-0.528,1.164-0.912l1.512,1.368
        c-0.48,0.561-1.08,0.996-1.8,1.308c-0.72,0.312-1.536,0.468-2.448,0.468c-0.88,0-1.692-0.144-2.436-0.432
        c-0.744-0.288-1.388-0.691-1.932-1.212c-0.544-0.52-0.972-1.147-1.284-1.884s-0.468-1.561-0.468-2.473
        c0-0.896,0.152-1.711,0.456-2.447c0.304-0.736,0.728-1.368,1.272-1.896c0.543-0.527,1.188-0.936,1.932-1.224
        c0.744-0.288,1.548-0.433,2.412-0.433c0.8,0,1.596,0.16,2.388,0.48s1.419,0.784,1.884,1.392L96.428,16.184z"/>
    <path fill="#666666" d="M103.1,23.24c0,0.417-0.152,0.784-0.456,1.104c-0.304,0.32-0.688,0.479-1.152,0.479
        c-0.448,0-0.828-0.155-1.14-0.468c-0.312-0.312-0.468-0.676-0.468-1.092c0-0.432,0.152-0.804,0.456-1.116
        c0.304-0.312,0.688-0.468,1.152-0.468c0.464,0,0.848,0.152,1.152,0.456C102.947,22.44,103.1,22.808,103.1,23.24z"/>
    <path fill="#666666" d="M116.635,18.969c0,0.88-0.156,1.688-0.468,2.424c-0.312,0.736-0.744,1.372-1.296,1.908
        c-0.552,0.536-1.204,0.952-1.956,1.248c-0.752,0.296-1.56,0.443-2.424,0.443c-0.864,0-1.672-0.147-2.424-0.443
        c-0.752-0.296-1.4-0.712-1.944-1.248c-0.544-0.536-0.972-1.172-1.284-1.908c-0.312-0.735-0.468-1.544-0.468-2.424
        s0.156-1.684,0.468-2.412c0.312-0.728,0.74-1.356,1.284-1.884c0.543-0.528,1.191-0.939,1.944-1.236
        c0.752-0.296,1.56-0.444,2.424-0.444c0.864,0,1.672,0.148,2.424,0.444c0.752,0.297,1.404,0.708,1.956,1.236
        c0.552,0.527,0.984,1.156,1.296,1.884C116.479,17.285,116.635,18.089,116.635,18.969z M114.283,18.98
        c0-0.542-0.084-1.061-0.252-1.556c-0.169-0.494-0.414-0.929-0.734-1.304s-0.718-0.674-1.192-0.897s-1.015-0.335-1.625-0.335
        c-0.61,0-1.152,0.111-1.625,0.335c-0.474,0.224-0.871,0.522-1.191,0.897c-0.321,0.375-0.566,0.81-0.734,1.304
        c-0.169,0.495-0.253,1.014-0.253,1.556c0,0.543,0.084,1.062,0.253,1.556c0.168,0.495,0.413,0.934,0.734,1.316
        c0.321,0.383,0.718,0.686,1.191,0.909c0.473,0.224,1.015,0.335,1.625,0.335c0.61,0,1.151-0.111,1.625-0.335
        s0.871-0.526,1.192-0.909s0.565-0.821,0.734-1.316C114.199,20.042,114.283,19.523,114.283,18.98z"/>
    <path fill="#666666" d="M119.251,14.577c-0.016-0.48-0.04-0.904-0.072-1.272h2.136c0.032,0.288,0.056,0.62,0.072,0.996
        c0.016,0.376,0.024,0.684,0.024,0.924h0.072c0.32-0.672,0.788-1.212,1.404-1.62c0.616-0.408,1.308-0.612,2.076-0.612
        c0.352,0,0.648,0.033,0.888,0.097l-0.096,2.088c-0.32-0.08-0.664-0.12-1.032-0.12c-0.544,0-1.016,0.101-1.416,0.3
        c-0.4,0.2-0.732,0.468-0.996,0.805c-0.264,0.336-0.46,0.724-0.588,1.163c-0.128,0.44-0.192,0.9-0.192,1.381v5.976h-2.256v-8.928
        C119.275,15.449,119.267,15.056,119.251,14.577z"/>
    <path fill="#666666" d="M128.419,26.625c0.496,0.56,1.116,1.008,1.86,1.344c0.744,0.336,1.508,0.504,2.292,0.504
        c0.752,0,1.384-0.108,1.896-0.324s0.924-0.512,1.236-0.888s0.536-0.82,0.672-1.332c0.136-0.513,0.204-1.064,0.204-1.656v-1.464
        h-0.048c-0.416,0.641-0.984,1.128-1.704,1.464c-0.72,0.336-1.488,0.504-2.304,0.504c-0.864,0-1.652-0.151-2.364-0.456
        c-0.712-0.304-1.316-0.72-1.812-1.248c-0.496-0.527-0.88-1.147-1.152-1.859s-0.408-1.477-0.408-2.292
        c0-0.816,0.136-1.584,0.408-2.305c0.272-0.72,0.656-1.348,1.152-1.884c0.496-0.535,1.096-0.96,1.8-1.271
        c0.704-0.312,1.488-0.469,2.352-0.469c0.816,0,1.596,0.177,2.34,0.528c0.744,0.353,1.332,0.888,1.764,1.608h0.048v-1.824h2.184
        v10.8c0,0.832-0.104,1.628-0.312,2.388c-0.208,0.76-0.56,1.433-1.056,2.017s-1.144,1.052-1.944,1.404
        c-0.8,0.352-1.792,0.527-2.976,0.527c-0.992,0-1.988-0.18-2.988-0.54c-1-0.359-1.86-0.868-2.58-1.523L128.419,26.625z
         M129.091,18.873c0,0.527,0.084,1.031,0.253,1.512c0.168,0.479,0.417,0.904,0.746,1.271c0.329,0.369,0.726,0.664,1.192,0.889
        c0.465,0.224,0.995,0.336,1.589,0.336c0.577,0,1.107-0.104,1.589-0.312c0.481-0.207,0.891-0.491,1.228-0.852
        s0.598-0.784,0.782-1.272c0.185-0.487,0.277-1.012,0.277-1.571c0-0.544-0.093-1.057-0.277-1.536
        c-0.185-0.48-0.449-0.904-0.794-1.272c-0.345-0.367-0.755-0.66-1.228-0.876c-0.474-0.216-1-0.324-1.577-0.324
        c-0.594,0-1.124,0.108-1.589,0.324c-0.466,0.216-0.863,0.504-1.192,0.864s-0.578,0.784-0.746,1.271
        C129.175,17.812,129.091,18.329,129.091,18.873z"/>
</g>
<g><a xlink:href="/" pointer-events="all" target="_top"><polygon fill="none" points="0,0 145,0 145,35 0,35 0,0"/></a></g>

</g>


<!-- AnyBidirectionalIndex -->
<g id="node1" class="node">
<g id="a_node1"><a xlink:href="/v2.1/type/AnyBidirectionalIndex/hierarchy/" target="_top">
<polygon fill="#999999" stroke="#999999" points="445.55,-22 320.45,-22 320.45,-0 445.55,-0 445.55,-22"/>
<text text-anchor="middle" x="383" y="-7.4" font-family="Helvetica,sans-Serif" font-size="12.00" fill="white">AnyBidirectionalIndex</text>
</a>
</g>
</g>
<!-- AnyForwardIndex -->
<g id="node2" class="node">
<g id="a_node2"><a xlink:href="/v2.1/type/AnyForwardIndex/hierarchy/" target="_top">
<polygon fill="#999999" stroke="#999999" points="104.032,-22 -0.032231,-22 -0.032231,-0 104.032,-0 104.032,-22"/>
<text text-anchor="middle" x="52" y="-7.4" font-family="Helvetica,sans-Serif" font-size="12.00" fill="white">AnyForwardIndex</text>
</a>
</g>
</g>
<!-- AnyRandomAccessIndex -->
<g id="node3" class="node">
<g id="a_node3"><a xlink:href="/v2.1/type/AnyRandomAccessIndex/hierarchy/" target="_top">
<polygon fill="#999999" stroke="#999999" points="1070.05,-22 925.949,-22 925.949,-0 1070.05,-0 1070.05,-22"/>
<text text-anchor="middle" x="998" y="-7.4" font-family="Helvetica,sans-Serif" font-size="12.00" fill="white">AnyRandomAccessIndex</text>
</a>
</g>
</g>
<!-- BidirectionalIndexType -->
<g id="node4" class="node">
<g id="a_node4"><a xlink:href="/v2.1/protocol/BidirectionalIndexType/hierarchy/" target="_top">
<path fill="#999999" stroke="#999999" d="M1561.73,-254C1561.73,-254 1446.27,-254 1446.27,-254 1442.61,-254 1438.94,-250.333 1438.94,-246.667 1438.94,-246.667 1438.94,-239.333 1438.94,-239.333 1438.94,-235.667 1442.61,-232 1446.27,-232 1446.27,-232 1561.73,-232 1561.73,-232 1565.39,-232 1569.06,-235.667 1569.06,-239.333 1569.06,-239.333 1569.06,-246.667 1569.06,-246.667 1569.06,-250.333 1565.39,-254 1561.73,-254"/>
<text text-anchor="middle" x="1504" y="-239.4" font-family="Helvetica,sans-Serif" font-size="12.00" fill="white">BidirectionalIndexType</text>
</a>
</g>
</g>
<!-- BidirectionalIndexType&#45;&gt;AnyBidirectionalIndex -->
<g id="edge8" class="edge">
<path fill="none" stroke="#cccccc" d="M1438.76,-241.041C1336.89,-238.512 1134.28,-229.326 966,-196 751.998,-153.62 505.806,-60.6767 417.074,-25.6863"/>
<polygon fill="#cccccc" stroke="#cccccc" points="418.355,-22.4292 407.769,-22.0012 415.778,-28.9374 418.355,-22.4292"/>
</g>
<!-- FlattenBidirectionalCollectionIndex -->
<g id="node8" class="node">
<g id="a_node8"><a xlink:href="/v2.1/type/FlattenBidirectionalCollectionIndex/hierarchy/" target="_top">
<polygon fill="#999999" stroke="#999999" points="658.076,-22 463.924,-22 463.924,-0 658.076,-0 658.076,-22"/>
<text text-anchor="middle" x="561" y="-7.4" font-family="Helvetica,sans-Serif" font-size="12.00" fill="white">FlattenBidirectionalCollectionIndex</text>
</a>
</g>
</g>
<!-- BidirectionalIndexType&#45;&gt;FlattenBidirectionalCollectionIndex -->
<g id="edge9" class="edge">
<path fill="none" stroke="#cccccc" d="M1438.88,-240.845C1349.1,-238.044 1182.77,-228.49 1045,-196 866.643,-153.94 665.444,-62.1958 590.87,-26.561"/>
<polygon fill="#cccccc" stroke="#cccccc" points="592.134,-23.2854 581.605,-22.1101 589.103,-29.5951 592.134,-23.2854"/>
</g>
<!-- RandomAccessIndexType -->
<g id="node18" class="node">
<g id="a_node18"><a xlink:href="/v2.1/protocol/RandomAccessIndexType/hierarchy/" target="_top">
<path fill="#999999" stroke="#999999" d="M1196.23,-196C1196.23,-196 1061.77,-196 1061.77,-196 1058.11,-196 1054.44,-192.333 1054.44,-188.667 1054.44,-188.667 1054.44,-181.333 1054.44,-181.333 1054.44,-177.667 1058.11,-174 1061.77,-174 1061.77,-174 1196.23,-174 1196.23,-174 1199.89,-174 1203.56,-177.667 1203.56,-181.333 1203.56,-181.333 1203.56,-188.667 1203.56,-188.667 1203.56,-192.333 1199.89,-196 1196.23,-196"/>
<text text-anchor="middle" x="1129" y="-181.4" font-family="Helvetica,sans-Serif" font-size="12.00" fill="white">RandomAccessIndexType</text>
</a>
</g>
</g>
<!-- BidirectionalIndexType&#45;&gt;RandomAccessIndexType -->
<g id="edge10" class="edge">
<path fill="none" stroke="#cccccc" d="M1438.68,-232.246C1373.88,-222.568 1274.59,-207.741 1205.99,-197.497"/>
<polygon fill="#cccccc" stroke="#cccccc" points="1206.5,-194.035 1196.1,-196.02 1205.47,-200.958 1206.5,-194.035"/>
</g>
<!-- ReverseIndexType -->
<g id="node20" class="node">
<g id="a_node20"><a xlink:href="/v2.1/protocol/ReverseIndexType/hierarchy/" target="_top">
<path fill="#999999" stroke="#999999" d="M2011.71,-80C2011.71,-80 1916.29,-80 1916.29,-80 1912.62,-80 1908.95,-76.3333 1908.95,-72.6667 1908.95,-72.6667 1908.95,-65.3333 1908.95,-65.3333 1908.95,-61.6667 1912.62,-58 1916.29,-58 1916.29,-58 2011.71,-58 2011.71,-58 2015.38,-58 2019.05,-61.6667 2019.05,-65.3333 2019.05,-65.3333 2019.05,-72.6667 2019.05,-72.6667 2019.05,-76.3333 2015.38,-80 2011.71,-80"/>
<text text-anchor="middle" x="1964" y="-65.4" font-family="Helvetica,sans-Serif" font-size="12.00" fill="white">ReverseIndexType</text>
</a>
</g>
</g>
<!-- BidirectionalIndexType&#45;&gt;ReverseIndexType -->
<g id="edge11" class="edge">
<path fill="none" stroke="#cccccc" d="M1535.35,-231.914C1590.21,-214.089 1707.04,-175.361 1804,-138 1849.05,-120.642 1900.27,-98.428 1932.36,-84.203"/>
<polygon fill="#cccccc" stroke="#cccccc" points="1933.96,-87.3209 1941.67,-80.059 1931.12,-80.925 1933.96,-87.3209"/>
</g>
<!-- String.CharacterView.Index -->
<g id="node24" class="node">
<g id="a_node24"><a xlink:href="/v2.1/type/String.CharacterView.Index/hierarchy/" target="_top">
<polygon fill="#999999" stroke="#999999" points="2323.4,-22 2168.6,-22 2168.6,-0 2323.4,-0 2323.4,-22"/>
<text text-anchor="middle" x="2246" y="-7.4" font-family="Helvetica,sans-Serif" font-size="12.00" fill="white">String.CharacterView.Index</text>
</a>
</g>
</g>
<!-- BidirectionalIndexType&#45;&gt;String.CharacterView.Index -->
<g id="edge12" class="edge">
<path fill="none" stroke="#cccccc" d="M1548.6,-231.989C1586.44,-223.253 1642.06,-209.838 1690,-196 1887.3,-139.049 2119.35,-57.4349 2208.52,-25.5198"/>
<polygon fill="#cccccc" stroke="#cccccc" points="2209.95,-28.7251 2218.18,-22.0555 2207.58,-22.1358 2209.95,-28.7251"/>
</g>
<!-- String.UTF16View.Index -->
<g id="node25" class="node">
<g id="a_node25"><a xlink:href="/v2.1/type/String.UTF16View.Index/hierarchy/" target="_top">
<polygon fill="#999999" stroke="#999999" points="2480.39,-22 2341.61,-22 2341.61,-0 2480.39,-0 2480.39,-22"/>
<text text-anchor="middle" x="2411" y="-7.4" font-family="Helvetica,sans-Serif" font-size="12.00" fill="white">String.UTF16View.Index</text>
</a>
</g>
</g>
<!-- BidirectionalIndexType&#45;&gt;String.UTF16View.Index -->
<g id="edge14" class="edge">
<path fill="none" stroke="#cccccc" d="M1560.99,-231.996C1608.53,-223.364 1677.94,-210.094 1738,-196 1977.9,-139.703 2261.52,-56.6837 2367.88,-24.9655"/>
<polygon fill="#cccccc" stroke="#cccccc" points="2369.03,-28.2744 2377.61,-22.0588 2367.02,-21.5673 2369.03,-28.2744"/>
</g>
<!-- String.UnicodeScalarView.Index -->
<g id="node27" class="node">
<g id="a_node27"><a xlink:href="/v2.1/type/String.UnicodeScalarView.Index/hierarchy/" target="_top">
<polygon fill="#999999" stroke="#999999" points="301.917,-22 122.083,-22 122.083,-0 301.917,-0 301.917,-22"/>
<text text-anchor="middle" x="212" y="-7.4" font-family="Helvetica,sans-Serif" font-size="12.00" fill="white">String.UnicodeScalarView.Index</text>
</a>
</g>
</g>
<!-- BidirectionalIndexType&#45;&gt;String.UnicodeScalarView.Index -->
<g id="edge13" class="edge">
<path fill="none" stroke="#cccccc" d="M1438.88,-241.521C1323.7,-239.729 1076.85,-231.642 872,-196 630.386,-153.96 349.871,-60.2938 249.821,-25.4221"/>
<polygon fill="#cccccc" stroke="#cccccc" points="250.755,-22.0409 240.161,-22.0418 248.444,-28.6481 250.755,-22.0409"/>
</g>
<!-- Bit -->
<g id="node5" class="node">
<g id="a_node5"><a xlink:href="/v2.1/type/Bit/hierarchy/" target="_top">
<polygon fill="#999999" stroke="#999999" points="1502,-22 1448,-22 1448,-0 1502,-0 1502,-22"/>
<text text-anchor="middle" x="1475" y="-7.4" font-family="Helvetica,sans-Serif" font-size="12.00" fill="white">Bit</text>
</a>
</g>
</g>
<!-- DictionaryIndex -->
<g id="node6" class="node">
<g id="a_node6"><a xlink:href="/v2.1/type/DictionaryIndex/hierarchy/" target="_top">
<polygon fill="#999999" stroke="#999999" points="2591.03,-22 2498.97,-22 2498.97,-0 2591.03,-0 2591.03,-22"/>
<text text-anchor="middle" x="2545" y="-7.4" font-family="Helvetica,sans-Serif" font-size="12.00" fill="white">DictionaryIndex</text>
</a>
</g>
</g>
<!-- Equatable -->
<g id="node7" class="node">
<g id="a_node7"><a xlink:href="/v2.1/protocol/Equatable/hierarchy/" target="_top">
<path fill="#999999" stroke="#999999" d="M2698.7,-428C2698.7,-428 2649.3,-428 2649.3,-428 2645.63,-428 2641.96,-424.333 2641.96,-420.667 2641.96,-420.667 2641.96,-413.333 2641.96,-413.333 2641.96,-409.667 2645.63,-406 2649.3,-406 2649.3,-406 2698.7,-406 2698.7,-406 2702.37,-406 2706.04,-409.667 2706.04,-413.333 2706.04,-413.333 2706.04,-420.667 2706.04,-420.667 2706.04,-424.333 2702.37,-428 2698.7,-428"/>
<text text-anchor="middle" x="2674" y="-413.4" font-family="Helvetica,sans-Serif" font-size="12.00" fill="white">Equatable</text>
</a>
</g>
</g>
<!-- _Incrementable -->
<g id="node36" class="node">
<g id="a_node36"><a xlink:href="/v2.1/protocol/_Incrementable/hierarchy/" target="_top">
<path fill="#999999" stroke="#999999" d="M2712.71,-370C2712.71,-370 2635.29,-370 2635.29,-370 2631.63,-370 2627.96,-366.333 2627.96,-362.667 2627.96,-362.667 2627.96,-355.333 2627.96,-355.333 2627.96,-351.667 2631.63,-348 2635.29,-348 2635.29,-348 2712.71,-348 2712.71,-348 2716.37,-348 2720.04,-351.667 2720.04,-355.333 2720.04,-355.333 2720.04,-362.667 2720.04,-362.667 2720.04,-366.333 2716.37,-370 2712.71,-370"/>
<text text-anchor="middle" x="2674" y="-355.4" font-family="Helvetica,sans-Serif" font-size="12.00" fill="white">_Incrementable</text>
</a>
</g>
</g>
<!-- Equatable&#45;&gt;_Incrementable -->
<g id="edge36" class="edge">
<path fill="none" stroke="#cccccc" d="M2674,-405.988C2674,-398.91 2674,-389.171 2674,-380.478"/>
<polygon fill="#cccccc" stroke="#cccccc" points="2677.5,-380.304 2674,-370.304 2670.5,-380.304 2677.5,-380.304"/>
</g>
<!-- FlattenCollectionIndex -->
<g id="node9" class="node">
<g id="a_node9"><a xlink:href="/v2.1/type/FlattenCollectionIndex/hierarchy/" target="_top">
<polygon fill="#999999" stroke="#999999" points="2738.05,-22 2609.95,-22 2609.95,-0 2738.05,-0 2738.05,-22"/>
<text text-anchor="middle" x="2674" y="-7.4" font-family="Helvetica,sans-Serif" font-size="12.00" fill="white">FlattenCollectionIndex</text>
</a>
</g>
</g>
<!-- ForwardIndexType -->
<g id="node10" class="node">
<g id="a_node10"><a xlink:href="/v2.1/protocol/ForwardIndexType/" target="_top">
<path fill="#ee543d" stroke="#ee543d" d="M2721.21,-312C2721.21,-312 2626.79,-312 2626.79,-312 2623.13,-312 2619.46,-308.333 2619.46,-304.667 2619.46,-304.667 2619.46,-297.333 2619.46,-297.333 2619.46,-293.667 2623.13,-290 2626.79,-290 2626.79,-290 2721.21,-290 2721.21,-290 2724.87,-290 2728.54,-293.667 2728.54,-297.333 2728.54,-297.333 2728.54,-304.667 2728.54,-304.667 2728.54,-308.333 2724.87,-312 2721.21,-312"/>
<text text-anchor="middle" x="2674" y="-297.4" font-family="Helvetica,sans-Serif" font-size="12.00" fill="white">ForwardIndexType</text>
</a>
</g>
</g>
<!-- ForwardIndexType&#45;&gt;AnyForwardIndex -->
<g id="edge1" class="edge">
<path fill="none" stroke="#cccccc" d="M2619.54,-299.1C2243.88,-292.723 52,-252.655 52,-186 52,-186 52,-186 52,-126 52,-93.1536 52,-54.9837 52,-32.197"/>
<polygon fill="#cccccc" stroke="#cccccc" points="55.5001,-32.0648 52,-22.0648 48.5001,-32.0648 55.5001,-32.0648"/>
</g>
<!-- ForwardIndexType&#45;&gt;BidirectionalIndexType -->
<g id="edge2" class="edge">
<path fill="none" stroke="#cccccc" d="M2619.53,-297.393C2429.9,-288.317 1798.4,-258.091 1579.49,-247.613"/>
<polygon fill="#cccccc" stroke="#cccccc" points="1579.54,-244.112 1569.38,-247.129 1579.2,-251.104 1579.54,-244.112"/>
</g>
<!-- ForwardIndexType&#45;&gt;DictionaryIndex -->
<g id="edge3" class="edge">
<path fill="none" stroke="#cccccc" d="M2646.33,-289.916C2608.42,-274.111 2545,-239.649 2545,-186 2545,-186 2545,-186 2545,-126 2545,-93.1536 2545,-54.9837 2545,-32.197"/>
<polygon fill="#cccccc" stroke="#cccccc" points="2548.5,-32.0648 2545,-22.0648 2541.5,-32.0648 2548.5,-32.0648"/>
</g>
<!-- ForwardIndexType&#45;&gt;FlattenCollectionIndex -->
<g id="edge4" class="edge">
<path fill="none" stroke="#cccccc" d="M2674,-289.935C2674,-270.066 2674,-224.396 2674,-186 2674,-186 2674,-186 2674,-126 2674,-93.1536 2674,-54.9837 2674,-32.197"/>
<polygon fill="#cccccc" stroke="#cccccc" points="2677.5,-32.0648 2674,-22.0648 2670.5,-32.0648 2677.5,-32.0648"/>
</g>
<!-- LazyFilterIndex -->
<g id="node17" class="node">
<g id="a_node17"><a xlink:href="/v2.1/type/LazyFilterIndex/hierarchy/" target="_top">
<polygon fill="#999999" stroke="#999999" points="2847.53,-22 2756.47,-22 2756.47,-0 2847.53,-0 2847.53,-22"/>
<text text-anchor="middle" x="2802" y="-7.4" font-family="Helvetica,sans-Serif" font-size="12.00" fill="white">LazyFilterIndex</text>
</a>
</g>
</g>
<!-- ForwardIndexType&#45;&gt;LazyFilterIndex -->
<g id="edge5" class="edge">
<path fill="none" stroke="#cccccc" d="M2701.15,-289.986C2738.72,-274.164 2802,-239.564 2802,-186 2802,-186 2802,-186 2802,-126 2802,-93.1536 2802,-54.9837 2802,-32.197"/>
<polygon fill="#cccccc" stroke="#cccccc" points="2805.5,-32.0648 2802,-22.0648 2798.5,-32.0648 2805.5,-32.0648"/>
</g>
<!-- SetIndex -->
<g id="node22" class="node">
<g id="a_node22"><a xlink:href="/v2.1/type/SetIndex/hierarchy/" target="_top">
<polygon fill="#999999" stroke="#999999" points="2922.52,-22 2865.48,-22 2865.48,-0 2922.52,-0 2922.52,-22"/>
<text text-anchor="middle" x="2894" y="-7.4" font-family="Helvetica,sans-Serif" font-size="12.00" fill="white">SetIndex</text>
</a>
</g>
</g>
<!-- ForwardIndexType&#45;&gt;SetIndex -->
<g id="edge6" class="edge">
<path fill="none" stroke="#cccccc" d="M2728.38,-295.289C2793.53,-286.319 2894,-260.421 2894,-186 2894,-186 2894,-186 2894,-126 2894,-93.1536 2894,-54.9837 2894,-32.197"/>
<polygon fill="#cccccc" stroke="#cccccc" points="2897.5,-32.0648 2894,-22.0648 2890.5,-32.0648 2897.5,-32.0648"/>
</g>
<!-- String.UTF8View.Index -->
<g id="node26" class="node">
<g id="a_node26"><a xlink:href="/v2.1/type/String.UTF8View.Index/hierarchy/" target="_top">
<polygon fill="#999999" stroke="#999999" points="3072.89,-22 2941.11,-22 2941.11,-0 3072.89,-0 3072.89,-22"/>
<text text-anchor="middle" x="3007" y="-7.4" font-family="Helvetica,sans-Serif" font-size="12.00" fill="white">String.UTF8View.Index</text>
</a>
</g>
</g>
<!-- ForwardIndexType&#45;&gt;String.UTF8View.Index -->
<g id="edge7" class="edge">
<path fill="none" stroke="#cccccc" d="M2728.62,-292.806C2823.09,-278.82 3007,-244.127 3007,-186 3007,-186 3007,-186 3007,-126 3007,-93.1536 3007,-54.9837 3007,-32.197"/>
<polygon fill="#cccccc" stroke="#cccccc" points="3010.5,-32.0648 3007,-22.0648 3003.5,-32.0648 3010.5,-32.0648"/>
</g>
<!-- Int -->
<g id="node11" class="node">
<g id="a_node11"><a xlink:href="/v2.1/type/Int/hierarchy/" target="_top">
<polygon fill="#999999" stroke="#999999" points="1430,-22 1376,-22 1376,-0 1430,-0 1430,-22"/>
<text text-anchor="middle" x="1403" y="-7.4" font-family="Helvetica,sans-Serif" font-size="12.00" fill="white">Int</text>
</a>
</g>
</g>
<!-- Int&#45;&gt;Bit -->
<g id="edge27" class="edge">
<path fill="none" stroke="#cccccc" d="M1430.28,-11C1432.74,-11 1435.19,-11 1437.65,-11"/>
<polygon fill="#cccccc" stroke="#cccccc" points="1437.75,-14.5001 1447.75,-11 1437.75,-7.5001 1437.75,-14.5001"/>
</g>
<!-- Int16 -->
<g id="node12" class="node">
<g id="a_node12"><a xlink:href="/v2.1/type/Int16/hierarchy/" target="_top">
<polygon fill="#999999" stroke="#999999" points="1142,-22 1088,-22 1088,-0 1142,-0 1142,-22"/>
<text text-anchor="middle" x="1115" y="-7.4" font-family="Helvetica,sans-Serif" font-size="12.00" fill="white">Int16</text>
</a>
</g>
</g>
<!-- Int32 -->
<g id="node13" class="node">
<g id="a_node13"><a xlink:href="/v2.1/type/Int32/hierarchy/" target="_top">
<polygon fill="#999999" stroke="#999999" points="1214,-22 1160,-22 1160,-0 1214,-0 1214,-22"/>
<text text-anchor="middle" x="1187" y="-7.4" font-family="Helvetica,sans-Serif" font-size="12.00" fill="white">Int32</text>
</a>
</g>
</g>
<!-- Int64 -->
<g id="node14" class="node">
<g id="a_node14"><a xlink:href="/v2.1/type/Int64/hierarchy/" target="_top">
<polygon fill="#999999" stroke="#999999" points="1286,-22 1232,-22 1232,-0 1286,-0 1286,-22"/>
<text text-anchor="middle" x="1259" y="-7.4" font-family="Helvetica,sans-Serif" font-size="12.00" fill="white">Int64</text>
</a>
</g>
</g>
<!-- Int8 -->
<g id="node15" class="node">
<g id="a_node15"><a xlink:href="/v2.1/type/Int8/hierarchy/" target="_top">
<polygon fill="#999999" stroke="#999999" points="1358,-22 1304,-22 1304,-0 1358,-0 1358,-22"/>
<text text-anchor="middle" x="1331" y="-7.4" font-family="Helvetica,sans-Serif" font-size="12.00" fill="white">Int8</text>
</a>
</g>
</g>
<!-- IntegerType -->
<g id="node16" class="node">
<g id="a_node16"><a xlink:href="/v2.1/protocol/IntegerType/hierarchy/" target="_top">
<path fill="#999999" stroke="#999999" d="M1288.2,-138C1288.2,-138 1229.8,-138 1229.8,-138 1226.13,-138 1222.47,-134.333 1222.47,-130.667 1222.47,-130.667 1222.47,-123.333 1222.47,-123.333 1222.47,-119.667 1226.13,-116 1229.8,-116 1229.8,-116 1288.2,-116 1288.2,-116 1291.87,-116 1295.53,-119.667 1295.53,-123.333 1295.53,-123.333 1295.53,-130.667 1295.53,-130.667 1295.53,-134.333 1291.87,-138 1288.2,-138"/>
<text text-anchor="middle" x="1259" y="-123.4" font-family="Helvetica,sans-Serif" font-size="12.00" fill="white">IntegerType</text>
</a>
</g>
</g>
<!-- SignedIntegerType -->
<g id="node23" class="node">
<g id="a_node23"><a xlink:href="/v2.1/protocol/SignedIntegerType/hierarchy/" target="_top">
<path fill="#999999" stroke="#999999" d="M1306.73,-80C1306.73,-80 1211.27,-80 1211.27,-80 1207.61,-80 1203.94,-76.3333 1203.94,-72.6667 1203.94,-72.6667 1203.94,-65.3333 1203.94,-65.3333 1203.94,-61.6667 1207.61,-58 1211.27,-58 1211.27,-58 1306.73,-58 1306.73,-58 1310.39,-58 1314.06,-61.6667 1314.06,-65.3333 1314.06,-65.3333 1314.06,-72.6667 1314.06,-72.6667 1314.06,-76.3333 1310.39,-80 1306.73,-80"/>
<text text-anchor="middle" x="1259" y="-65.4" font-family="Helvetica,sans-Serif" font-size="12.00" fill="white">SignedIntegerType</text>
</a>
</g>
</g>
<!-- IntegerType&#45;&gt;SignedIntegerType -->
<g id="edge20" class="edge">
<path fill="none" stroke="#cccccc" d="M1259,-115.988C1259,-108.91 1259,-99.1714 1259,-90.4779"/>
<polygon fill="#cccccc" stroke="#cccccc" points="1262.5,-90.3038 1259,-80.3039 1255.5,-90.3039 1262.5,-90.3038"/>
</g>
<!-- UnsignedIntegerType -->
<g id="node35" class="node">
<g id="a_node35"><a xlink:href="/v2.1/protocol/UnsignedIntegerType/hierarchy/" target="_top">
<path fill="#999999" stroke="#999999" d="M1700.73,-80C1700.73,-80 1591.27,-80 1591.27,-80 1587.61,-80 1583.94,-76.3333 1583.94,-72.6667 1583.94,-72.6667 1583.94,-65.3333 1583.94,-65.3333 1583.94,-61.6667 1587.61,-58 1591.27,-58 1591.27,-58 1700.73,-58 1700.73,-58 1704.39,-58 1708.06,-61.6667 1708.06,-65.3333 1708.06,-65.3333 1708.06,-72.6667 1708.06,-72.6667 1708.06,-76.3333 1704.39,-80 1700.73,-80"/>
<text text-anchor="middle" x="1646" y="-65.4" font-family="Helvetica,sans-Serif" font-size="12.00" fill="white">UnsignedIntegerType</text>
</a>
</g>
</g>
<!-- IntegerType&#45;&gt;UnsignedIntegerType -->
<g id="edge21" class="edge">
<path fill="none" stroke="#cccccc" d="M1295.41,-120.732C1358.9,-111.544 1490.98,-92.4324 1573.66,-80.4675"/>
<polygon fill="#cccccc" stroke="#cccccc" points="1574.35,-83.905 1583.74,-79.0089 1573.34,-76.9772 1574.35,-83.905"/>
</g>
<!-- RandomAccessIndexType&#45;&gt;AnyRandomAccessIndex -->
<g id="edge15" class="edge">
<path fill="none" stroke="#cccccc" d="M1121.2,-173.756C1099.77,-145.621 1039.78,-66.8536 1012.2,-30.6411"/>
<polygon fill="#cccccc" stroke="#cccccc" points="1014.77,-28.2428 1005.93,-22.4081 1009.2,-32.4842 1014.77,-28.2428"/>
</g>
<!-- RandomAccessIndexType&#45;&gt;IntegerType -->
<g id="edge16" class="edge">
<path fill="none" stroke="#cccccc" d="M1152.24,-173.988C1172.82,-165.124 1203.08,-152.09 1226.13,-142.159"/>
<polygon fill="#cccccc" stroke="#cccccc" points="1227.72,-145.285 1235.52,-138.114 1224.95,-138.856 1227.72,-145.285"/>
</g>
<!-- ReverseRandomAccessIndex -->
<g id="node21" class="node">
<g id="a_node21"><a xlink:href="/v2.1/type/ReverseRandomAccessIndex/hierarchy/" target="_top">
<polygon fill="#999999" stroke="#999999" points="2048.06,-22 1879.94,-22 1879.94,-0 2048.06,-0 2048.06,-22"/>
<text text-anchor="middle" x="1964" y="-7.4" font-family="Helvetica,sans-Serif" font-size="12.00" fill="white">ReverseRandomAccessIndex</text>
</a>
</g>
</g>
<!-- RandomAccessIndexType&#45;&gt;ReverseRandomAccessIndex -->
<g id="edge17" class="edge">
<path fill="none" stroke="#cccccc" d="M1197.77,-173.975C1307.97,-157.432 1530.67,-122.029 1717,-80 1789.66,-63.6108 1872.95,-39.5655 1921.88,-24.8937"/>
<polygon fill="#cccccc" stroke="#cccccc" points="1922.92,-28.2354 1931.48,-22.0004 1920.9,-21.5327 1922.92,-28.2354"/>
</g>
<!-- UnsafeMutablePointer -->
<g id="node33" class="node">
<g id="a_node33"><a xlink:href="/v2.1/type/UnsafeMutablePointer/hierarchy/" target="_top">
<polygon fill="#999999" stroke="#999999" points="804.051,-22 675.949,-22 675.949,-0 804.051,-0 804.051,-22"/>
<text text-anchor="middle" x="740" y="-7.4" font-family="Helvetica,sans-Serif" font-size="12.00" fill="white">UnsafeMutablePointer</text>
</a>
</g>
</g>
<!-- RandomAccessIndexType&#45;&gt;UnsafeMutablePointer -->
<g id="edge18" class="edge">
<path fill="none" stroke="#cccccc" d="M1105.16,-173.865C1083.45,-164.608 1050.52,-150.501 1022,-138 930.876,-98.0576 823.707,-49.8262 771.618,-26.3027"/>
<polygon fill="#cccccc" stroke="#cccccc" points="772.806,-22.999 762.252,-22.0713 769.924,-29.3782 772.806,-22.999"/>
</g>
<!-- UnsafePointer -->
<g id="node34" class="node">
<g id="a_node34"><a xlink:href="/v2.1/type/UnsafePointer/hierarchy/" target="_top">
<polygon fill="#999999" stroke="#999999" points="908.032,-22 821.968,-22 821.968,-0 908.032,-0 908.032,-22"/>
<text text-anchor="middle" x="865" y="-7.4" font-family="Helvetica,sans-Serif" font-size="12.00" fill="white">UnsafePointer</text>
</a>
</g>
</g>
<!-- RandomAccessIndexType&#45;&gt;UnsafePointer -->
<g id="edge19" class="edge">
<path fill="none" stroke="#cccccc" d="M1113.28,-173.756C1068.89,-144.837 942.399,-62.4264 889.123,-27.7162"/>
<polygon fill="#cccccc" stroke="#cccccc" points="890.931,-24.7169 880.641,-22.1906 887.109,-30.582 890.931,-24.7169"/>
</g>
<!-- ReverseIndex -->
<g id="node19" class="node">
<g id="a_node19"><a xlink:href="/v2.1/type/ReverseIndex/hierarchy/" target="_top">
<polygon fill="#999999" stroke="#999999" points="2150.03,-22 2065.97,-22 2065.97,-0 2150.03,-0 2150.03,-22"/>
<text text-anchor="middle" x="2108" y="-7.4" font-family="Helvetica,sans-Serif" font-size="12.00" fill="white">ReverseIndex</text>
</a>
</g>
</g>
<!-- ReverseIndexType&#45;&gt;ReverseIndex -->
<g id="edge33" class="edge">
<path fill="none" stroke="#cccccc" d="M1989.74,-57.9883C2012.84,-49.0057 2046.95,-35.7398 2072.61,-25.7614"/>
<polygon fill="#cccccc" stroke="#cccccc" points="2073.94,-29.0004 2081.99,-22.1138 2071.4,-22.4763 2073.94,-29.0004"/>
</g>
<!-- ReverseIndexType&#45;&gt;ReverseRandomAccessIndex -->
<g id="edge34" class="edge">
<path fill="none" stroke="#cccccc" d="M1964,-57.9883C1964,-50.9098 1964,-41.1714 1964,-32.4779"/>
<polygon fill="#cccccc" stroke="#cccccc" points="1967.5,-32.3038 1964,-22.3039 1960.5,-32.3039 1967.5,-32.3038"/>
</g>
<!-- SignedIntegerType&#45;&gt;Int -->
<g id="edge22" class="edge">
<path fill="none" stroke="#cccccc" d="M1284.74,-57.9883C1307.84,-49.0057 1341.95,-35.7398 1367.61,-25.7614"/>
<polygon fill="#cccccc" stroke="#cccccc" points="1368.94,-29.0004 1376.99,-22.1138 1366.4,-22.4763 1368.94,-29.0004"/>
</g>
<!-- SignedIntegerType&#45;&gt;Int16 -->
<g id="edge23" class="edge">
<path fill="none" stroke="#cccccc" d="M1233.26,-57.9883C1210.16,-49.0057 1176.05,-35.7398 1150.39,-25.7614"/>
<polygon fill="#cccccc" stroke="#cccccc" points="1151.6,-22.4763 1141.01,-22.1138 1149.06,-29.0004 1151.6,-22.4763"/>
</g>
<!-- SignedIntegerType&#45;&gt;Int32 -->
<g id="edge24" class="edge">
<path fill="none" stroke="#cccccc" d="M1246.13,-57.9883C1235.61,-49.8087 1220.53,-38.0773 1208.23,-28.5108"/>
<polygon fill="#cccccc" stroke="#cccccc" points="1210.29,-25.6806 1200.25,-22.3039 1205.99,-31.2061 1210.29,-25.6806"/>
</g>
<!-- SignedIntegerType&#45;&gt;Int64 -->
<g id="edge25" class="edge">
<path fill="none" stroke="#cccccc" d="M1259,-57.9883C1259,-50.9098 1259,-41.1714 1259,-32.4779"/>
<polygon fill="#cccccc" stroke="#cccccc" points="1262.5,-32.3038 1259,-22.3039 1255.5,-32.3039 1262.5,-32.3038"/>
</g>
<!-- SignedIntegerType&#45;&gt;Int8 -->
<g id="edge26" class="edge">
<path fill="none" stroke="#cccccc" d="M1271.87,-57.9883C1282.39,-49.8087 1297.47,-38.0773 1309.77,-28.5108"/>
<polygon fill="#cccccc" stroke="#cccccc" points="1312.01,-31.2061 1317.75,-22.3039 1307.71,-25.6806 1312.01,-31.2061"/>
</g>
<!-- UInt -->
<g id="node28" class="node">
<g id="a_node28"><a xlink:href="/v2.1/type/UInt/hierarchy/" target="_top">
<polygon fill="#999999" stroke="#999999" points="1790,-22 1736,-22 1736,-0 1790,-0 1790,-22"/>
<text text-anchor="middle" x="1763" y="-7.4" font-family="Helvetica,sans-Serif" font-size="12.00" fill="white">UInt</text>
</a>
</g>
</g>
<!-- UInt16 -->
<g id="node29" class="node">
<g id="a_node29"><a xlink:href="/v2.1/type/UInt16/hierarchy/" target="_top">
<polygon fill="#999999" stroke="#999999" points="1862,-22 1808,-22 1808,-0 1862,-0 1862,-22"/>
<text text-anchor="middle" x="1835" y="-7.4" font-family="Helvetica,sans-Serif" font-size="12.00" fill="white">UInt16</text>
</a>
</g>
</g>
<!-- UInt32 -->
<g id="node30" class="node">
<g id="a_node30"><a xlink:href="/v2.1/type/UInt32/hierarchy/" target="_top">
<polygon fill="#999999" stroke="#999999" points="1574,-22 1520,-22 1520,-0 1574,-0 1574,-22"/>
<text text-anchor="middle" x="1547" y="-7.4" font-family="Helvetica,sans-Serif" font-size="12.00" fill="white">UInt32</text>
</a>
</g>
</g>
<!-- UInt64 -->
<g id="node31" class="node">
<g id="a_node31"><a xlink:href="/v2.1/type/UInt64/hierarchy/" target="_top">
<polygon fill="#999999" stroke="#999999" points="1646,-22 1592,-22 1592,-0 1646,-0 1646,-22"/>
<text text-anchor="middle" x="1619" y="-7.4" font-family="Helvetica,sans-Serif" font-size="12.00" fill="white">UInt64</text>
</a>
</g>
</g>
<!-- UInt8 -->
<g id="node32" class="node">
<g id="a_node32"><a xlink:href="/v2.1/type/UInt8/hierarchy/" target="_top">
<polygon fill="#999999" stroke="#999999" points="1718,-22 1664,-22 1664,-0 1718,-0 1718,-22"/>
<text text-anchor="middle" x="1691" y="-7.4" font-family="Helvetica,sans-Serif" font-size="12.00" fill="white">UInt8</text>
</a>
</g>
</g>
<!-- UnsignedIntegerType&#45;&gt;UInt -->
<g id="edge28" class="edge">
<path fill="none" stroke="#cccccc" d="M1666.92,-57.9883C1685.19,-49.2431 1711.94,-36.4381 1732.58,-26.5594"/>
<polygon fill="#cccccc" stroke="#cccccc" points="1734.36,-29.5882 1741.87,-22.1138 1731.34,-23.2741 1734.36,-29.5882"/>
</g>
<!-- UnsignedIntegerType&#45;&gt;UInt16 -->
<g id="edge29" class="edge">
<path fill="none" stroke="#cccccc" d="M1679.79,-57.9883C1713.13,-48.1097 1763.95,-33.0507 1798.28,-22.881"/>
<polygon fill="#cccccc" stroke="#cccccc" points="1799.33,-26.2188 1807.93,-20.022 1797.34,-19.5072 1799.33,-26.2188"/>
</g>
<!-- UnsignedIntegerType&#45;&gt;UInt32 -->
<g id="edge30" class="edge">
<path fill="none" stroke="#cccccc" d="M1628.3,-57.9883C1613.19,-49.441 1591.22,-37.0155 1573.93,-27.2343"/>
<polygon fill="#cccccc" stroke="#cccccc" points="1575.31,-23.9909 1564.88,-22.1138 1571.86,-30.0837 1575.31,-23.9909"/>
</g>
<!-- UnsignedIntegerType&#45;&gt;UInt64 -->
<g id="edge31" class="edge">
<path fill="none" stroke="#cccccc" d="M1641.17,-57.9883C1637.61,-50.5952 1632.64,-40.3005 1628.32,-31.3253"/>
<polygon fill="#cccccc" stroke="#cccccc" points="1631.46,-29.7915 1623.97,-22.3039 1625.16,-32.8316 1631.46,-29.7915"/>
</g>
<!-- UnsignedIntegerType&#45;&gt;UInt8 -->
<g id="edge32" class="edge">
<path fill="none" stroke="#cccccc" d="M1654.05,-57.9883C1660.24,-50.2806 1668.97,-39.4191 1676.39,-30.187"/>
<polygon fill="#cccccc" stroke="#cccccc" points="1679.18,-32.2914 1682.72,-22.3039 1673.73,-27.9066 1679.18,-32.2914"/>
</g>
<!-- _Incrementable&#45;&gt;ForwardIndexType -->
<g id="edge35" class="edge">
<path fill="none" stroke="#cccccc" d="M2674,-347.988C2674,-340.91 2674,-331.171 2674,-322.478"/>
<polygon fill="#cccccc" stroke="#cccccc" points="2677.5,-322.304 2674,-312.304 2670.5,-322.304 2677.5,-322.304"/>
</g>
</g>
</svg>
