<?xml version="1.0" encoding="UTF-8" standalone="no"?>
<!DOCTYPE svg PUBLIC "-//W3C//DTD SVG 1.1//EN"
 "http://www.w3.org/Graphics/SVG/1.1/DTD/svg11.dtd">
<!-- Generated by graphviz version 2.36.0 (20140111.2315)
 -->
<!-- Title: ForwardIndexType &#45; Type Hierarchy &#45; SwiftDoc.org Pages: 1 -->
<svg width="3089pt" height="543pt"
 viewBox="0.00 0.00 3089.40 543.20" xmlns="http://www.w3.org/2000/svg" xmlns:xlink="http://www.w3.org/1999/xlink">
<g id="graph0" class="graph" transform="scale(1 1) rotate(0) translate(7.2 485.6)">
<g transform="translate(0 -485.6)">
<g>
    <path fill="#666666" d="M13.846,10.832c-0.336-0.464-0.792-0.844-1.368-1.14s-1.224-0.444-1.944-0.444
        c-0.384,0-0.772,0.052-1.164,0.156C8.977,9.509,8.622,9.677,8.301,9.908c-0.32,0.232-0.58,0.52-0.78,0.864
        c-0.2,0.344-0.3,0.756-0.3,1.236c0,0.464,0.092,0.852,0.276,1.164c0.184,0.312,0.432,0.576,0.744,0.792s0.68,0.4,1.104,0.552
        c0.423,0.152,0.876,0.309,1.356,0.468c0.576,0.177,1.16,0.376,1.752,0.601c0.592,0.224,1.128,0.52,1.608,0.888
        s0.872,0.828,1.176,1.38s0.456,1.252,0.456,2.101c0,0.88-0.164,1.644-0.492,2.292c-0.328,0.647-0.765,1.184-1.308,1.607
        c-0.544,0.424-1.172,0.74-1.884,0.948s-1.444,0.312-2.196,0.312c-1.072,0-2.108-0.208-3.108-0.624
        c-1-0.415-1.828-1.031-2.484-1.848l1.848-1.56c0.4,0.592,0.936,1.071,1.608,1.439c0.672,0.368,1.399,0.552,2.184,0.552
        c0.4,0,0.8-0.056,1.2-0.168c0.4-0.111,0.764-0.288,1.092-0.527c0.328-0.24,0.596-0.54,0.804-0.9
        c0.208-0.36,0.312-0.796,0.312-1.308s-0.108-0.94-0.324-1.284c-0.216-0.344-0.508-0.636-0.876-0.876s-0.796-0.444-1.284-0.612
        c-0.488-0.168-1.004-0.34-1.548-0.516c-0.544-0.16-1.08-0.356-1.608-0.588c-0.528-0.232-1-0.528-1.416-0.889
        c-0.416-0.359-0.752-0.804-1.008-1.332c-0.256-0.527-0.384-1.184-0.384-1.968c0-0.848,0.172-1.576,0.516-2.184
        c0.344-0.608,0.792-1.112,1.344-1.512c0.552-0.4,1.176-0.692,1.872-0.876c0.696-0.184,1.396-0.276,2.1-0.276
        c0.992,0,1.92,0.176,2.784,0.528c0.864,0.352,1.56,0.824,2.088,1.416L13.846,10.832z"/>
    <path fill="#666666" d="M18.813,13.304l2.568,8.688h0.048l2.712-8.688h2.376l2.76,8.688h0.048l2.568-8.688h2.376L30.501,24.68
        h-2.352l-2.808-8.544h-0.048l-2.784,8.544h-2.352l-3.792-11.376H18.813z"/>
    <path fill="#666666" d="M38.685,9.2c0,0.416-0.147,0.76-0.44,1.032c-0.294,0.272-0.647,0.408-1.06,0.408s-0.762-0.14-1.047-0.42
        c-0.286-0.28-0.429-0.62-0.429-1.02c0-0.416,0.143-0.764,0.429-1.044c0.286-0.28,0.635-0.42,1.047-0.42s0.766,0.14,1.06,0.42
        C38.538,8.437,38.685,8.784,38.685,9.2z M38.325,24.68h-2.256V13.304h2.256V24.68z"/>
    <path fill="#666666" d="M47.613,15.152h-2.64v9.528h-2.256v-9.528h-2.256v-1.848h2.256v-2.376c0-0.672,0.076-1.292,0.228-1.86
        c0.152-0.568,0.4-1.06,0.744-1.476c0.344-0.416,0.784-0.744,1.32-0.984c0.536-0.24,1.188-0.36,1.956-0.36
        c0.544,0,1.016,0.056,1.416,0.168l-0.264,1.944c-0.176-0.048-0.352-0.088-0.528-0.12c-0.176-0.032-0.376-0.048-0.6-0.048
        c-0.432,0-0.78,0.076-1.044,0.228c-0.264,0.152-0.468,0.356-0.612,0.612s-0.24,0.548-0.288,0.876
        c-0.048,0.328-0.072,0.668-0.072,1.02v2.376h2.64V15.152z"/>
    <path fill="#666666" d="M54.909,15.152h-3.024v5.91c0,0.687,0.128,1.177,0.384,1.472c0.256,0.295,0.664,0.442,1.224,0.442
        c0.208,0,0.432-0.021,0.672-0.065c0.24-0.044,0.456-0.11,0.648-0.198l0.072,1.848c-0.272,0.096-0.572,0.172-0.9,0.229
        c-0.328,0.056-0.668,0.084-1.02,0.084c-1.072,0-1.892-0.296-2.46-0.889c-0.568-0.592-0.852-1.479-0.852-2.664v-6.168h-2.184
        v-1.848h2.184V10.04h2.232v3.264h3.024V15.152z"/>
    <path fill="#666666" d="M57.356,7.688h5.832c1.088,0,2.176,0.16,3.264,0.48c1.088,0.32,2.072,0.824,2.952,1.512
        s1.592,1.568,2.136,2.64c0.544,1.072,0.816,2.36,0.816,3.864c0,1.456-0.272,2.716-0.816,3.78s-1.256,1.943-2.136,2.64
        s-1.864,1.216-2.952,1.561c-1.088,0.344-2.176,0.516-3.264,0.516h-5.832V7.688z M59.732,22.593h2.976
        c1.024,0,1.972-0.145,2.844-0.432c0.872-0.288,1.624-0.704,2.256-1.248c0.632-0.544,1.124-1.216,1.476-2.017
        c0.352-0.8,0.528-1.704,0.528-2.712c0-1.056-0.176-1.983-0.528-2.784c-0.353-0.8-0.844-1.468-1.476-2.004
        c-0.632-0.536-1.384-0.944-2.256-1.224s-1.82-0.42-2.844-0.42h-2.976V22.593z"/>
    <path fill="#666666" d="M86.06,18.969c0,0.88-0.156,1.688-0.468,2.424c-0.312,0.736-0.744,1.372-1.296,1.908
        c-0.552,0.536-1.204,0.952-1.956,1.248c-0.752,0.296-1.56,0.443-2.424,0.443c-0.864,0-1.672-0.147-2.424-0.443
        c-0.752-0.296-1.4-0.712-1.944-1.248c-0.544-0.536-0.972-1.172-1.284-1.908c-0.312-0.735-0.468-1.544-0.468-2.424
        s0.156-1.684,0.468-2.412c0.312-0.728,0.74-1.356,1.284-1.884c0.543-0.528,1.191-0.939,1.944-1.236
        c0.752-0.296,1.56-0.444,2.424-0.444c0.864,0,1.672,0.148,2.424,0.444c0.752,0.297,1.404,0.708,1.956,1.236
        c0.552,0.527,0.984,1.156,1.296,1.884C85.904,17.285,86.06,18.089,86.06,18.969z M83.708,18.98c0-0.542-0.084-1.061-0.252-1.556
        c-0.169-0.494-0.414-0.929-0.734-1.304s-0.718-0.674-1.192-0.897s-1.015-0.335-1.625-0.335c-0.61,0-1.152,0.111-1.625,0.335
        c-0.474,0.224-0.871,0.522-1.191,0.897c-0.321,0.375-0.566,0.81-0.734,1.304C76.184,17.92,76.1,18.438,76.1,18.98
        c0,0.543,0.084,1.062,0.253,1.556c0.168,0.495,0.413,0.934,0.734,1.316c0.321,0.383,0.718,0.686,1.191,0.909
        c0.473,0.224,1.015,0.335,1.625,0.335c0.61,0,1.151-0.111,1.625-0.335s0.871-0.526,1.192-0.909s0.565-0.821,0.734-1.316
        C83.624,20.042,83.708,19.523,83.708,18.98z"/>
    <path fill="#666666" d="M96.428,16.184c-0.24-0.368-0.6-0.676-1.08-0.924s-0.992-0.372-1.536-0.372
        c-0.592,0-1.116,0.112-1.572,0.336c-0.456,0.225-0.844,0.524-1.164,0.9c-0.32,0.376-0.564,0.812-0.732,1.308
        s-0.252,1.017-0.252,1.56c0,0.545,0.084,1.064,0.252,1.561s0.412,0.933,0.732,1.308c0.32,0.376,0.712,0.677,1.176,0.9
        c0.464,0.225,0.992,0.336,1.584,0.336c0.576,0,1.1-0.111,1.572-0.336c0.472-0.224,0.86-0.528,1.164-0.912l1.512,1.368
        c-0.48,0.561-1.08,0.996-1.8,1.308c-0.72,0.312-1.536,0.468-2.448,0.468c-0.88,0-1.692-0.144-2.436-0.432
        c-0.744-0.288-1.388-0.691-1.932-1.212c-0.544-0.52-0.972-1.147-1.284-1.884s-0.468-1.561-0.468-2.473
        c0-0.896,0.152-1.711,0.456-2.447c0.304-0.736,0.728-1.368,1.272-1.896c0.543-0.527,1.188-0.936,1.932-1.224
        c0.744-0.288,1.548-0.433,2.412-0.433c0.8,0,1.596,0.16,2.388,0.48s1.419,0.784,1.884,1.392L96.428,16.184z"/>
    <path fill="#666666" d="M103.1,23.24c0,0.417-0.152,0.784-0.456,1.104c-0.304,0.32-0.688,0.479-1.152,0.479
        c-0.448,0-0.828-0.155-1.14-0.468c-0.312-0.312-0.468-0.676-0.468-1.092c0-0.432,0.152-0.804,0.456-1.116
        c0.304-0.312,0.688-0.468,1.152-0.468c0.464,0,0.848,0.152,1.152,0.456C102.947,22.44,103.1,22.808,103.1,23.24z"/>
    <path fill="#666666" d="M116.635,18.969c0,0.88-0.156,1.688-0.468,2.424c-0.312,0.736-0.744,1.372-1.296,1.908
        c-0.552,0.536-1.204,0.952-1.956,1.248c-0.752,0.296-1.56,0.443-2.424,0.443c-0.864,0-1.672-0.147-2.424-0.443
        c-0.752-0.296-1.4-0.712-1.944-1.248c-0.544-0.536-0.972-1.172-1.284-1.908c-0.312-0.735-0.468-1.544-0.468-2.424
        s0.156-1.684,0.468-2.412c0.312-0.728,0.74-1.356,1.284-1.884c0.543-0.528,1.191-0.939,1.944-1.236
        c0.752-0.296,1.56-0.444,2.424-0.444c0.864,0,1.672,0.148,2.424,0.444c0.752,0.297,1.404,0.708,1.956,1.236
        c0.552,0.527,0.984,1.156,1.296,1.884C116.479,17.285,116.635,18.089,116.635,18.969z M114.283,18.98
        c0-0.542-0.084-1.061-0.252-1.556c-0.169-0.494-0.414-0.929-0.734-1.304s-0.718-0.674-1.192-0.897s-1.015-0.335-1.625-0.335
        c-0.61,0-1.152,0.111-1.625,0.335c-0.474,0.224-0.871,0.522-1.191,0.897c-0.321,0.375-0.566,0.81-0.734,1.304
        c-0.169,0.495-0.253,1.014-0.253,1.556c0,0.543,0.084,1.062,0.253,1.556c0.168,0.495,0.413,0.934,0.734,1.316
        c0.321,0.383,0.718,0.686,1.191,0.909c0.473,0.224,1.015,0.335,1.625,0.335c0.61,0,1.151-0.111,1.625-0.335
        s0.871-0.526,1.192-0.909s0.565-0.821,0.734-1.316C114.199,20.042,114.283,19.523,114.283,18.98z"/>
    <path fill="#666666" d="M119.251,14.577c-0.016-0.48-0.04-0.904-0.072-1.272h2.136c0.032,0.288,0.056,0.62,0.072,0.996
        c0.016,0.376,0.024,0.684,0.024,0.924h0.072c0.32-0.672,0.788-1.212,1.404-1.62c0.616-0.408,1.308-0.612,2.076-0.612
        c0.352,0,0.648,0.033,0.888,0.097l-0.096,2.088c-0.32-0.08-0.664-0.12-1.032-0.12c-0.544,0-1.016,0.101-1.416,0.3
        c-0.4,0.2-0.732,0.468-0.996,0.805c-0.264,0.336-0.46,0.724-0.588,1.163c-0.128,0.44-0.192,0.9-0.192,1.381v5.976h-2.256v-8.928
        C119.275,15.449,119.267,15.056,119.251,14.577z"/>
    <path fill="#666666" d="M128.419,26.625c0.496,0.56,1.116,1.008,1.86,1.344c0.744,0.336,1.508,0.504,2.292,0.504
        c0.752,0,1.384-0.108,1.896-0.324s0.924-0.512,1.236-0.888s0.536-0.82,0.672-1.332c0.136-0.513,0.204-1.064,0.204-1.656v-1.464
        h-0.048c-0.416,0.641-0.984,1.128-1.704,1.464c-0.72,0.336-1.488,0.504-2.304,0.504c-0.864,0-1.652-0.151-2.364-0.456
        c-0.712-0.304-1.316-0.72-1.812-1.248c-0.496-0.527-0.88-1.147-1.152-1.859s-0.408-1.477-0.408-2.292
        c0-0.816,0.136-1.584,0.408-2.305c0.272-0.72,0.656-1.348,1.152-1.884c0.496-0.535,1.096-0.96,1.8-1.271
        c0.704-0.312,1.488-0.469,2.352-0.469c0.816,0,1.596,0.177,2.34,0.528c0.744,0.353,1.332,0.888,1.764,1.608h0.048v-1.824h2.184
        v10.8c0,0.832-0.104,1.628-0.312,2.388c-0.208,0.76-0.56,1.433-1.056,2.017s-1.144,1.052-1.944,1.404
        c-0.8,0.352-1.792,0.527-2.976,0.527c-0.992,0-1.988-0.18-2.988-0.54c-1-0.359-1.86-0.868-2.58-1.523L128.419,26.625z
         M129.091,18.873c0,0.527,0.084,1.031,0.253,1.512c0.168,0.479,0.417,0.904,0.746,1.271c0.329,0.369,0.726,0.664,1.192,0.889
        c0.465,0.224,0.995,0.336,1.589,0.336c0.577,0,1.107-0.104,1.589-0.312c0.481-0.207,0.891-0.491,1.228-0.852
        s0.598-0.784,0.782-1.272c0.185-0.487,0.277-1.012,0.277-1.571c0-0.544-0.093-1.057-0.277-1.536
        c-0.185-0.48-0.449-0.904-0.794-1.272c-0.345-0.367-0.755-0.66-1.228-0.876c-0.474-0.216-1-0.324-1.577-0.324
        c-0.594,0-1.124,0.108-1.589,0.324c-0.466,0.216-0.863,0.504-1.192,0.864s-0.578,0.784-0.746,1.271
        C129.175,17.812,129.091,18.329,129.091,18.873z"/>
</g>
<g><a xlink:href="/" pointer-events="all" target="_top"><polygon fill="none" points="0,0 145,0 145,35 0,35 0,0"/></a></g>

</g>


<!-- AnyBidirectionalIndex -->
<g id="node1" class="node">
<g id="a_node1"><a xlink:href="/v2.1/type/AnyBidirectionalIndex/" target="_top">
<polygon fill="#999999" stroke="#999999" points="603.55,-22 478.45,-22 478.45,-0 603.55,-0 603.55,-22"/>
<text text-anchor="middle" x="541" y="-7.4" font-family="Helvetica,sans-Serif" font-size="12.00" fill="white">AnyBidirectionalIndex</text>
</a>
</g>
</g>
<!-- AnyForwardIndex -->
<g id="node2" class="node">
<g id="a_node2"><a xlink:href="/v2.1/type/AnyForwardIndex/" target="_top">
<polygon fill="#999999" stroke="#999999" points="104.032,-22 -0.032231,-22 -0.032231,-0 104.032,-0 104.032,-22"/>
<text text-anchor="middle" x="52" y="-7.4" font-family="Helvetica,sans-Serif" font-size="12.00" fill="white">AnyForwardIndex</text>
</a>
</g>
</g>
<!-- AnyRandomAccessIndex -->
<g id="node3" class="node">
<g id="a_node3"><a xlink:href="/v2.1/type/AnyRandomAccessIndex/" target="_top">
<polygon fill="#999999" stroke="#999999" points="1228.05,-22 1083.95,-22 1083.95,-0 1228.05,-0 1228.05,-22"/>
<text text-anchor="middle" x="1156" y="-7.4" font-family="Helvetica,sans-Serif" font-size="12.00" fill="white">AnyRandomAccessIndex</text>
</a>
</g>
</g>
<!-- BidirectionalIndexType -->
<g id="node4" class="node">
<g id="a_node4"><a xlink:href="/v2.1/protocol/BidirectionalIndexType/" target="_top">
<path fill="#999999" stroke="#999999" d="M1592.73,-254C1592.73,-254 1477.27,-254 1477.27,-254 1473.61,-254 1469.94,-250.333 1469.94,-246.667 1469.94,-246.667 1469.94,-239.333 1469.94,-239.333 1469.94,-235.667 1473.61,-232 1477.27,-232 1477.27,-232 1592.73,-232 1592.73,-232 1596.39,-232 1600.06,-235.667 1600.06,-239.333 1600.06,-239.333 1600.06,-246.667 1600.06,-246.667 1600.06,-250.333 1596.39,-254 1592.73,-254"/>
<text text-anchor="middle" x="1535" y="-239.4" font-family="Helvetica,sans-Serif" font-size="12.00" fill="white">BidirectionalIndexType</text>
</a>
</g>
</g>
<!-- BidirectionalIndexType&#45;&gt;AnyBidirectionalIndex -->
<g id="edge8" class="edge">
<path fill="none" stroke="#cccccc" d="M1475.92,-231.979C1425.76,-223.237 1351.95,-209.82 1288,-196 1021.93,-138.504 706.043,-55.9327 588.306,-24.6552"/>
<polygon fill="#cccccc" stroke="#cccccc" points="589.086,-21.241 578.522,-22.053 587.287,-28.0058 589.086,-21.241"/>
</g>
<!-- FlattenBidirectionalCollectionIndex -->
<g id="node8" class="node">
<g id="a_node8"><a xlink:href="/v2.1/type/FlattenBidirectionalCollectionIndex/" target="_top">
<polygon fill="#999999" stroke="#999999" points="816.076,-22 621.924,-22 621.924,-0 816.076,-0 816.076,-22"/>
<text text-anchor="middle" x="719" y="-7.4" font-family="Helvetica,sans-Serif" font-size="12.00" fill="white">FlattenBidirectionalCollectionIndex</text>
</a>
</g>
</g>
<!-- BidirectionalIndexType&#45;&gt;FlattenBidirectionalCollectionIndex -->
<g id="edge9" class="edge">
<path fill="none" stroke="#cccccc" d="M1498.41,-231.997C1431.15,-213.585 1283.36,-173.004 1159,-138 1014.13,-97.224 842.783,-47.8155 763.431,-24.8673"/>
<polygon fill="#cccccc" stroke="#cccccc" points="764.342,-21.4874 753.764,-22.0707 762.397,-28.2118 764.342,-21.4874"/>
</g>
<!-- RandomAccessIndexType -->
<g id="node18" class="node">
<g id="a_node18"><a xlink:href="/v2.1/protocol/RandomAccessIndexType/" target="_top">
<path fill="#999999" stroke="#999999" d="M1602.23,-196C1602.23,-196 1467.77,-196 1467.77,-196 1464.11,-196 1460.44,-192.333 1460.44,-188.667 1460.44,-188.667 1460.44,-181.333 1460.44,-181.333 1460.44,-177.667 1464.11,-174 1467.77,-174 1467.77,-174 1602.23,-174 1602.23,-174 1605.89,-174 1609.56,-177.667 1609.56,-181.333 1609.56,-181.333 1609.56,-188.667 1609.56,-188.667 1609.56,-192.333 1605.89,-196 1602.23,-196"/>
<text text-anchor="middle" x="1535" y="-181.4" font-family="Helvetica,sans-Serif" font-size="12.00" fill="white">RandomAccessIndexType</text>
</a>
</g>
</g>
<!-- BidirectionalIndexType&#45;&gt;RandomAccessIndexType -->
<g id="edge10" class="edge">
<path fill="none" stroke="#cccccc" d="M1535,-231.988C1535,-224.91 1535,-215.171 1535,-206.478"/>
<polygon fill="#cccccc" stroke="#cccccc" points="1538.5,-206.304 1535,-196.304 1531.5,-206.304 1538.5,-206.304"/>
</g>
<!-- ReverseIndex -->
<g id="node19" class="node">
<g id="a_node19"><a xlink:href="/v2.1/type/ReverseIndex/" target="_top">
<polygon fill="#999999" stroke="#999999" points="2308.03,-22 2223.97,-22 2223.97,-0 2308.03,-0 2308.03,-22"/>
<text text-anchor="middle" x="2266" y="-7.4" font-family="Helvetica,sans-Serif" font-size="12.00" fill="white">ReverseIndex</text>
</a>
</g>
</g>
<!-- BidirectionalIndexType&#45;&gt;ReverseIndex -->
<g id="edge11" class="edge">
<path fill="none" stroke="#cccccc" d="M1600.06,-238.855C1676.07,-234.088 1805.17,-222.586 1913,-196 1983.61,-178.592 1999.2,-166.74 2066,-138 2120.41,-114.59 2136.37,-112.332 2186,-80 2209.15,-64.9191 2232.93,-43.8573 2248.48,-29.1843"/>
<polygon fill="#cccccc" stroke="#cccccc" points="2251.02,-31.6041 2255.82,-22.1592 2246.17,-26.5491 2251.02,-31.6041"/>
</g>
<!-- ReverseIndexType -->
<g id="node20" class="node">
<g id="a_node20"><a xlink:href="/v2.1/protocol/ReverseIndexType/" target="_top">
<path fill="#999999" stroke="#999999" d="M2169.71,-80C2169.71,-80 2074.29,-80 2074.29,-80 2070.62,-80 2066.95,-76.3333 2066.95,-72.6667 2066.95,-72.6667 2066.95,-65.3333 2066.95,-65.3333 2066.95,-61.6667 2070.62,-58 2074.29,-58 2074.29,-58 2169.71,-58 2169.71,-58 2173.38,-58 2177.05,-61.6667 2177.05,-65.3333 2177.05,-65.3333 2177.05,-72.6667 2177.05,-72.6667 2177.05,-76.3333 2173.38,-80 2169.71,-80"/>
<text text-anchor="middle" x="2122" y="-65.4" font-family="Helvetica,sans-Serif" font-size="12.00" fill="white">ReverseIndexType</text>
</a>
</g>
</g>
<!-- BidirectionalIndexType&#45;&gt;ReverseIndexType -->
<g id="edge12" class="edge">
<path fill="none" stroke="#cccccc" d="M1600.12,-237.777C1698.27,-229.39 1888.12,-205.201 2034,-138 2061.43,-125.365 2088.19,-102.786 2104.86,-87.1308"/>
<polygon fill="#cccccc" stroke="#cccccc" points="2107.41,-89.5312 2112.19,-80.0753 2102.56,-84.4872 2107.41,-89.5312"/>
</g>
<!-- String.CharacterView.Index -->
<g id="node24" class="node">
<g id="a_node24"><a xlink:href="/v2.1/type/String.CharacterView.Index/" target="_top">
<polygon fill="#999999" stroke="#999999" points="2481.4,-22 2326.6,-22 2326.6,-0 2481.4,-0 2481.4,-22"/>
<text text-anchor="middle" x="2404" y="-7.4" font-family="Helvetica,sans-Serif" font-size="12.00" fill="white">String.CharacterView.Index</text>
</a>
</g>
</g>
<!-- BidirectionalIndexType&#45;&gt;String.CharacterView.Index -->
<g id="edge13" class="edge">
<path fill="none" stroke="#cccccc" d="M1600.14,-240.559C1684.9,-237.427 1837.03,-227.494 1963,-196 2029.94,-179.266 2043.24,-164.363 2107,-138 2203.24,-98.2086 2316.35,-49.7538 2371.06,-26.2089"/>
<polygon fill="#cccccc" stroke="#cccccc" points="2372.78,-29.2798 2380.58,-22.1102 2370.01,-22.8505 2372.78,-29.2798"/>
</g>
<!-- String.UTF16View.Index -->
<g id="node25" class="node">
<g id="a_node25"><a xlink:href="/v2.1/type/String.UTF16View.Index/" target="_top">
<polygon fill="#999999" stroke="#999999" points="261.39,-22 122.61,-22 122.61,-0 261.39,-0 261.39,-22"/>
<text text-anchor="middle" x="192" y="-7.4" font-family="Helvetica,sans-Serif" font-size="12.00" fill="white">String.UTF16View.Index</text>
</a>
</g>
</g>
<!-- BidirectionalIndexType&#45;&gt;String.UTF16View.Index -->
<g id="edge15" class="edge">
<path fill="none" stroke="#cccccc" d="M1469.65,-237.579C1380.7,-231.071 1216.71,-217.325 1078,-196 757.549,-146.735 377.972,-57.3232 242.85,-24.5089"/>
<polygon fill="#cccccc" stroke="#cccccc" points="243.336,-21.0252 232.792,-22.0612 241.681,-27.8267 243.336,-21.0252"/>
</g>
<!-- String.UnicodeScalarView.Index -->
<g id="node27" class="node">
<g id="a_node27"><a xlink:href="/v2.1/type/String.UnicodeScalarView.Index/" target="_top">
<polygon fill="#999999" stroke="#999999" points="459.917,-22 280.083,-22 280.083,-0 459.917,-0 459.917,-22"/>
<text text-anchor="middle" x="370" y="-7.4" font-family="Helvetica,sans-Serif" font-size="12.00" fill="white">String.UnicodeScalarView.Index</text>
</a>
</g>
</g>
<!-- BidirectionalIndexType&#45;&gt;String.UnicodeScalarView.Index -->
<g id="edge14" class="edge">
<path fill="none" stroke="#cccccc" d="M1469.69,-234.873C1400.86,-226.97 1289.41,-213.056 1194,-196 897.573,-143.01 546.26,-56.5745 419.046,-24.4972"/>
<polygon fill="#cccccc" stroke="#cccccc" points="419.762,-21.0682 409.209,-22.0125 418.048,-27.855 419.762,-21.0682"/>
</g>
<!-- Bit -->
<g id="node5" class="node">
<g id="a_node5"><a xlink:href="/v2.1/type/Bit/" target="_top">
<polygon fill="#999999" stroke="#999999" points="2020,-22 1966,-22 1966,-0 2020,-0 2020,-22"/>
<text text-anchor="middle" x="1993" y="-7.4" font-family="Helvetica,sans-Serif" font-size="12.00" fill="white">Bit</text>
</a>
</g>
</g>
<!-- DictionaryIndex -->
<g id="node6" class="node">
<g id="a_node6"><a xlink:href="/v2.1/type/DictionaryIndex/" target="_top">
<polygon fill="#999999" stroke="#999999" points="2592.03,-22 2499.97,-22 2499.97,-0 2592.03,-0 2592.03,-22"/>
<text text-anchor="middle" x="2546" y="-7.4" font-family="Helvetica,sans-Serif" font-size="12.00" fill="white">DictionaryIndex</text>
</a>
</g>
</g>
<!-- Equatable -->
<g id="node7" class="node">
<g id="a_node7"><a xlink:href="/v2.1/protocol/Equatable/" target="_top">
<path fill="#999999" stroke="#999999" d="M2699.7,-428C2699.7,-428 2650.3,-428 2650.3,-428 2646.63,-428 2642.96,-424.333 2642.96,-420.667 2642.96,-420.667 2642.96,-413.333 2642.96,-413.333 2642.96,-409.667 2646.63,-406 2650.3,-406 2650.3,-406 2699.7,-406 2699.7,-406 2703.37,-406 2707.04,-409.667 2707.04,-413.333 2707.04,-413.333 2707.04,-420.667 2707.04,-420.667 2707.04,-424.333 2703.37,-428 2699.7,-428"/>
<text text-anchor="middle" x="2675" y="-413.4" font-family="Helvetica,sans-Serif" font-size="12.00" fill="white">Equatable</text>
</a>
</g>
</g>
<!-- _Incrementable -->
<g id="node36" class="node">
<g id="a_node36"><a xlink:href="/v2.1/protocol/_Incrementable/" target="_top">
<path fill="#999999" stroke="#999999" d="M2713.71,-370C2713.71,-370 2636.29,-370 2636.29,-370 2632.63,-370 2628.96,-366.333 2628.96,-362.667 2628.96,-362.667 2628.96,-355.333 2628.96,-355.333 2628.96,-351.667 2632.63,-348 2636.29,-348 2636.29,-348 2713.71,-348 2713.71,-348 2717.37,-348 2721.04,-351.667 2721.04,-355.333 2721.04,-355.333 2721.04,-362.667 2721.04,-362.667 2721.04,-366.333 2717.37,-370 2713.71,-370"/>
<text text-anchor="middle" x="2675" y="-355.4" font-family="Helvetica,sans-Serif" font-size="12.00" fill="white">_Incrementable</text>
</a>
</g>
</g>
<!-- Equatable&#45;&gt;_Incrementable -->
<g id="edge48" class="edge">
<path fill="none" stroke="#cccccc" d="M2675,-405.988C2675,-398.91 2675,-389.171 2675,-380.478"/>
<polygon fill="#cccccc" stroke="#cccccc" points="2678.5,-380.304 2675,-370.304 2671.5,-380.304 2678.5,-380.304"/>
</g>
<!-- FlattenCollectionIndex -->
<g id="node9" class="node">
<g id="a_node9"><a xlink:href="/v2.1/type/FlattenCollectionIndex/" target="_top">
<polygon fill="#999999" stroke="#999999" points="2739.05,-22 2610.95,-22 2610.95,-0 2739.05,-0 2739.05,-22"/>
<text text-anchor="middle" x="2675" y="-7.4" font-family="Helvetica,sans-Serif" font-size="12.00" fill="white">FlattenCollectionIndex</text>
</a>
</g>
</g>
<!-- ForwardIndexType -->
<g id="node10" class="node">
<g id="a_node10"><a xlink:href="/v2.1/protocol/ForwardIndexType/" target="_top">
<path fill="#ee543d" stroke="#ee543d" d="M2722.21,-312C2722.21,-312 2627.79,-312 2627.79,-312 2624.13,-312 2620.46,-308.333 2620.46,-304.667 2620.46,-304.667 2620.46,-297.333 2620.46,-297.333 2620.46,-293.667 2624.13,-290 2627.79,-290 2627.79,-290 2722.21,-290 2722.21,-290 2725.87,-290 2729.54,-293.667 2729.54,-297.333 2729.54,-297.333 2729.54,-304.667 2729.54,-304.667 2729.54,-308.333 2725.87,-312 2722.21,-312"/>
<text text-anchor="middle" x="2675" y="-297.4" font-family="Helvetica,sans-Serif" font-size="12.00" fill="white">ForwardIndexType</text>
</a>
</g>
</g>
<!-- ForwardIndexType&#45;&gt;AnyForwardIndex -->
<g id="edge1" class="edge">
<path fill="none" stroke="#cccccc" d="M2620.52,-299.101C2244.71,-292.727 52,-252.68 52,-186 52,-186 52,-186 52,-126 52,-93.1536 52,-54.9837 52,-32.197"/>
<polygon fill="#cccccc" stroke="#cccccc" points="55.5001,-32.0648 52,-22.0648 48.5001,-32.0648 55.5001,-32.0648"/>
</g>
<!-- ForwardIndexType&#45;&gt;BidirectionalIndexType -->
<g id="edge2" class="edge">
<path fill="none" stroke="#cccccc" d="M2620.4,-297.318C2434.35,-288.179 1824.86,-258.239 1610.44,-247.706"/>
<polygon fill="#cccccc" stroke="#cccccc" points="1610.38,-244.199 1600.23,-247.204 1610.04,-251.191 1610.38,-244.199"/>
</g>
<!-- ForwardIndexType&#45;&gt;DictionaryIndex -->
<g id="edge3" class="edge">
<path fill="none" stroke="#cccccc" d="M2647.33,-289.916C2609.42,-274.111 2546,-239.649 2546,-186 2546,-186 2546,-186 2546,-126 2546,-93.1536 2546,-54.9837 2546,-32.197"/>
<polygon fill="#cccccc" stroke="#cccccc" points="2549.5,-32.0648 2546,-22.0648 2542.5,-32.0648 2549.5,-32.0648"/>
</g>
<!-- ForwardIndexType&#45;&gt;FlattenCollectionIndex -->
<g id="edge4" class="edge">
<path fill="none" stroke="#cccccc" d="M2675,-289.935C2675,-270.066 2675,-224.396 2675,-186 2675,-186 2675,-186 2675,-126 2675,-93.1536 2675,-54.9837 2675,-32.197"/>
<polygon fill="#cccccc" stroke="#cccccc" points="2678.5,-32.0648 2675,-22.0648 2671.5,-32.0648 2678.5,-32.0648"/>
</g>
<!-- LazyFilterIndex -->
<g id="node17" class="node">
<g id="a_node17"><a xlink:href="/v2.1/type/LazyFilterIndex/" target="_top">
<polygon fill="#999999" stroke="#999999" points="2848.53,-22 2757.47,-22 2757.47,-0 2848.53,-0 2848.53,-22"/>
<text text-anchor="middle" x="2803" y="-7.4" font-family="Helvetica,sans-Serif" font-size="12.00" fill="white">LazyFilterIndex</text>
</a>
</g>
</g>
<!-- ForwardIndexType&#45;&gt;LazyFilterIndex -->
<g id="edge5" class="edge">
<path fill="none" stroke="#cccccc" d="M2702.15,-289.986C2739.72,-274.164 2803,-239.564 2803,-186 2803,-186 2803,-186 2803,-126 2803,-93.1536 2803,-54.9837 2803,-32.197"/>
<polygon fill="#cccccc" stroke="#cccccc" points="2806.5,-32.0648 2803,-22.0648 2799.5,-32.0648 2806.5,-32.0648"/>
</g>
<!-- SetIndex -->
<g id="node22" class="node">
<g id="a_node22"><a xlink:href="/v2.1/type/SetIndex/" target="_top">
<polygon fill="#999999" stroke="#999999" points="2923.52,-22 2866.48,-22 2866.48,-0 2923.52,-0 2923.52,-22"/>
<text text-anchor="middle" x="2895" y="-7.4" font-family="Helvetica,sans-Serif" font-size="12.00" fill="white">SetIndex</text>
</a>
</g>
</g>
<!-- ForwardIndexType&#45;&gt;SetIndex -->
<g id="edge6" class="edge">
<path fill="none" stroke="#cccccc" d="M2729.38,-295.289C2794.53,-286.319 2895,-260.421 2895,-186 2895,-186 2895,-186 2895,-126 2895,-93.1536 2895,-54.9837 2895,-32.197"/>
<polygon fill="#cccccc" stroke="#cccccc" points="2898.5,-32.0648 2895,-22.0648 2891.5,-32.0648 2898.5,-32.0648"/>
</g>
<!-- String.UTF8View.Index -->
<g id="node26" class="node">
<g id="a_node26"><a xlink:href="/v2.1/type/String.UTF8View.Index/" target="_top">
<polygon fill="#999999" stroke="#999999" points="3073.89,-22 2942.11,-22 2942.11,-0 3073.89,-0 3073.89,-22"/>
<text text-anchor="middle" x="3008" y="-7.4" font-family="Helvetica,sans-Serif" font-size="12.00" fill="white">String.UTF8View.Index</text>
</a>
</g>
</g>
<!-- ForwardIndexType&#45;&gt;String.UTF8View.Index -->
<g id="edge7" class="edge">
<path fill="none" stroke="#cccccc" d="M2729.62,-292.806C2824.09,-278.82 3008,-244.127 3008,-186 3008,-186 3008,-186 3008,-126 3008,-93.1536 3008,-54.9837 3008,-32.197"/>
<polygon fill="#cccccc" stroke="#cccccc" points="3011.5,-32.0648 3008,-22.0648 3004.5,-32.0648 3011.5,-32.0648"/>
</g>
<!-- Int -->
<g id="node11" class="node">
<g id="a_node11"><a xlink:href="/v2.1/type/Int/" target="_top">
<polygon fill="#999999" stroke="#999999" points="1516,-22 1462,-22 1462,-0 1516,-0 1516,-22"/>
<text text-anchor="middle" x="1489" y="-7.4" font-family="Helvetica,sans-Serif" font-size="12.00" fill="white">Int</text>
</a>
</g>
</g>
<!-- Int&#45;&gt;Bit -->
<g id="edge32" class="edge">
<path fill="none" stroke="#cccccc" d="M1501.78,-22.0854C1510.28,-28.7029 1522.05,-36.4837 1534,-40 1578.13,-52.9875 1903.87,-52.9875 1948,-40 1956.4,-37.5276 1964.71,-32.9469 1971.86,-28.1447"/>
<polygon fill="#cccccc" stroke="#cccccc" points="1974.18,-30.7891 1980.22,-22.0854 1970.07,-25.122 1974.18,-30.7891"/>
</g>
<!-- Int16 -->
<g id="node12" class="node">
<g id="a_node12"><a xlink:href="/v2.1/type/Int16/" target="_top">
<polygon fill="#999999" stroke="#999999" points="1588,-22 1534,-22 1534,-0 1588,-0 1588,-22"/>
<text text-anchor="middle" x="1561" y="-7.4" font-family="Helvetica,sans-Serif" font-size="12.00" fill="white">Int16</text>
</a>
</g>
</g>
<!-- Int32 -->
<g id="node13" class="node">
<g id="a_node13"><a xlink:href="/v2.1/type/Int32/" target="_top">
<polygon fill="#999999" stroke="#999999" points="1300,-22 1246,-22 1246,-0 1300,-0 1300,-22"/>
<text text-anchor="middle" x="1273" y="-7.4" font-family="Helvetica,sans-Serif" font-size="12.00" fill="white">Int32</text>
</a>
</g>
</g>
<!-- Int64 -->
<g id="node14" class="node">
<g id="a_node14"><a xlink:href="/v2.1/type/Int64/" target="_top">
<polygon fill="#999999" stroke="#999999" points="1372,-22 1318,-22 1318,-0 1372,-0 1372,-22"/>
<text text-anchor="middle" x="1345" y="-7.4" font-family="Helvetica,sans-Serif" font-size="12.00" fill="white">Int64</text>
</a>
</g>
</g>
<!-- Int8 -->
<g id="node15" class="node">
<g id="a_node15"><a xlink:href="/v2.1/type/Int8/" target="_top">
<polygon fill="#999999" stroke="#999999" points="1444,-22 1390,-22 1390,-0 1444,-0 1444,-22"/>
<text text-anchor="middle" x="1417" y="-7.4" font-family="Helvetica,sans-Serif" font-size="12.00" fill="white">Int8</text>
</a>
</g>
</g>
<!-- IntegerType -->
<g id="node16" class="node">
<g id="a_node16"><a xlink:href="/v2.1/protocol/IntegerType/" target="_top">
<path fill="#999999" stroke="#999999" d="M1532.2,-138C1532.2,-138 1473.8,-138 1473.8,-138 1470.13,-138 1466.47,-134.333 1466.47,-130.667 1466.47,-130.667 1466.47,-123.333 1466.47,-123.333 1466.47,-119.667 1470.13,-116 1473.8,-116 1473.8,-116 1532.2,-116 1532.2,-116 1535.87,-116 1539.53,-119.667 1539.53,-123.333 1539.53,-123.333 1539.53,-130.667 1539.53,-130.667 1539.53,-134.333 1535.87,-138 1532.2,-138"/>
<text text-anchor="middle" x="1503" y="-123.4" font-family="Helvetica,sans-Serif" font-size="12.00" fill="white">IntegerType</text>
</a>
</g>
</g>
<!-- SignedIntegerType -->
<g id="node23" class="node">
<g id="a_node23"><a xlink:href="/v2.1/protocol/SignedIntegerType/" target="_top">
<path fill="#999999" stroke="#999999" d="M1479.73,-80C1479.73,-80 1384.27,-80 1384.27,-80 1380.61,-80 1376.94,-76.3333 1376.94,-72.6667 1376.94,-72.6667 1376.94,-65.3333 1376.94,-65.3333 1376.94,-61.6667 1380.61,-58 1384.27,-58 1384.27,-58 1479.73,-58 1479.73,-58 1483.39,-58 1487.06,-61.6667 1487.06,-65.3333 1487.06,-65.3333 1487.06,-72.6667 1487.06,-72.6667 1487.06,-76.3333 1483.39,-80 1479.73,-80"/>
<text text-anchor="middle" x="1432" y="-65.4" font-family="Helvetica,sans-Serif" font-size="12.00" fill="white">SignedIntegerType</text>
</a>
</g>
</g>
<!-- IntegerType&#45;&gt;SignedIntegerType -->
<g id="edge33" class="edge">
<path fill="none" stroke="#cccccc" d="M1490.31,-115.988C1479.94,-107.809 1465.06,-96.0773 1452.93,-86.5108"/>
<polygon fill="#cccccc" stroke="#cccccc" points="1455.08,-83.7487 1445.06,-80.3039 1450.75,-89.2449 1455.08,-83.7487"/>
</g>
<!-- UnsignedIntegerType -->
<g id="node35" class="node">
<g id="a_node35"><a xlink:href="/v2.1/protocol/UnsignedIntegerType/" target="_top">
<path fill="#999999" stroke="#999999" d="M1788.73,-80C1788.73,-80 1679.27,-80 1679.27,-80 1675.61,-80 1671.94,-76.3333 1671.94,-72.6667 1671.94,-72.6667 1671.94,-65.3333 1671.94,-65.3333 1671.94,-61.6667 1675.61,-58 1679.27,-58 1679.27,-58 1788.73,-58 1788.73,-58 1792.39,-58 1796.06,-61.6667 1796.06,-65.3333 1796.06,-65.3333 1796.06,-72.6667 1796.06,-72.6667 1796.06,-76.3333 1792.39,-80 1788.73,-80"/>
<text text-anchor="middle" x="1734" y="-65.4" font-family="Helvetica,sans-Serif" font-size="12.00" fill="white">UnsignedIntegerType</text>
</a>
</g>
</g>
<!-- IntegerType&#45;&gt;UnsignedIntegerType -->
<g id="edge34" class="edge">
<path fill="none" stroke="#cccccc" d="M1539.35,-117.188C1577.89,-107.844 1639.1,-93.0064 1682.58,-82.4657"/>
<polygon fill="#cccccc" stroke="#cccccc" points="1683.5,-85.8429 1692.4,-80.0853 1681.85,-79.0399 1683.5,-85.8429"/>
</g>
<!-- RandomAccessIndexType&#45;&gt;AnyRandomAccessIndex -->
<g id="edge16" class="edge">
<path fill="none" stroke="#cccccc" d="M1466.97,-173.989C1429.1,-166.903 1381.72,-155.487 1342,-138 1275.81,-108.86 1207.92,-55.827 1175.52,-28.8026"/>
<polygon fill="#cccccc" stroke="#cccccc" points="1177.61,-25.9883 1167.71,-22.2165 1173.1,-31.3392 1177.61,-25.9883"/>
</g>
<!-- RandomAccessIndexType&#45;&gt;Bit -->
<g id="edge17" class="edge">
<path fill="none" stroke="#cccccc" d="M1609.44,-182.261C1670.15,-178.529 1757.01,-167.82 1827,-138 1888.76,-111.686 1948.2,-57.3215 1976.24,-29.3944"/>
<polygon fill="#cccccc" stroke="#cccccc" points="1978.75,-31.8356 1983.29,-22.2639 1973.77,-26.9138 1978.75,-31.8356"/>
</g>
<!-- RandomAccessIndexType&#45;&gt;Int -->
<g id="edge18" class="edge">
<path fill="none" stroke="#cccccc" d="M1503.09,-173.937C1486.18,-166.793 1466.9,-155.337 1457,-138 1452.15,-129.51 1453.08,-124.957 1457,-116 1466.46,-94.3913 1486.54,-101.609 1496,-80 1502.68,-64.7526 1499.94,-45.8022 1496.09,-31.7826"/>
<polygon fill="#cccccc" stroke="#cccccc" points="1499.41,-30.6604 1493.08,-22.1658 1492.73,-32.755 1499.41,-30.6604"/>
</g>
<!-- RandomAccessIndexType&#45;&gt;Int16 -->
<g id="edge19" class="edge">
<path fill="none" stroke="#cccccc" d="M1538.4,-173.89C1541.38,-164.649 1545.6,-150.552 1548,-138 1555.06,-101.101 1558.49,-57.3384 1559.99,-32.3048"/>
<polygon fill="#cccccc" stroke="#cccccc" points="1563.49,-32.3908 1560.54,-22.2127 1556.5,-32.0039 1563.49,-32.3908"/>
</g>
<!-- RandomAccessIndexType&#45;&gt;Int32 -->
<g id="edge20" class="edge">
<path fill="none" stroke="#cccccc" d="M1463.46,-173.92C1433.37,-167.217 1399.12,-156.157 1372,-138 1330.41,-110.157 1298.38,-59.2203 1283.02,-31.3992"/>
<polygon fill="#cccccc" stroke="#cccccc" points="1285.94,-29.4368 1278.12,-22.2808 1279.77,-32.7471 1285.94,-29.4368"/>
</g>
<!-- RandomAccessIndexType&#45;&gt;Int64 -->
<g id="edge21" class="edge">
<path fill="none" stroke="#cccccc" d="M1471.74,-173.976C1445.46,-167.282 1416.03,-156.215 1394,-138 1361.73,-111.312 1350.64,-60.6219 1346.88,-32.3492"/>
<polygon fill="#cccccc" stroke="#cccccc" points="1350.32,-31.6007 1345.71,-22.0611 1343.36,-32.393 1350.32,-31.6007"/>
</g>
<!-- RandomAccessIndexType&#45;&gt;Int8 -->
<g id="edge22" class="edge">
<path fill="none" stroke="#cccccc" d="M1499.44,-173.892C1458.81,-160.167 1394.53,-131.264 1368,-80 1358.17,-61.0092 1375.77,-41.414 1392.55,-28.1661"/>
<polygon fill="#cccccc" stroke="#cccccc" points="1394.65,-30.9689 1400.6,-22.203 1390.48,-25.3448 1394.65,-30.9689"/>
</g>
<!-- RandomAccessIndexType&#45;&gt;IntegerType -->
<g id="edge23" class="edge">
<path fill="none" stroke="#cccccc" d="M1529.28,-173.988C1525.01,-166.517 1519.05,-156.081 1513.88,-147.039"/>
<polygon fill="#cccccc" stroke="#cccccc" points="1516.89,-145.25 1508.89,-138.304 1510.81,-148.723 1516.89,-145.25"/>
</g>
<!-- ReverseRandomAccessIndex -->
<g id="node21" class="node">
<g id="a_node21"><a xlink:href="/v2.1/type/ReverseRandomAccessIndex/" target="_top">
<polygon fill="#999999" stroke="#999999" points="2206.06,-22 2037.94,-22 2037.94,-0 2206.06,-0 2206.06,-22"/>
<text text-anchor="middle" x="2122" y="-7.4" font-family="Helvetica,sans-Serif" font-size="12.00" fill="white">ReverseRandomAccessIndex</text>
</a>
</g>
</g>
<!-- RandomAccessIndexType&#45;&gt;ReverseRandomAccessIndex -->
<g id="edge24" class="edge">
<path fill="none" stroke="#cccccc" d="M1609.56,-180.049C1676.57,-174.963 1777.05,-163.506 1861,-138 1952.24,-110.278 2051.43,-54.5463 2096.8,-27.4699"/>
<polygon fill="#cccccc" stroke="#cccccc" points="2098.88,-30.3037 2105.64,-22.1474 2095.27,-24.3065 2098.88,-30.3037"/>
</g>
<!-- UInt -->
<g id="node28" class="node">
<g id="a_node28"><a xlink:href="/v2.1/type/UInt/" target="_top">
<polygon fill="#999999" stroke="#999999" points="1876,-22 1822,-22 1822,-0 1876,-0 1876,-22"/>
<text text-anchor="middle" x="1849" y="-7.4" font-family="Helvetica,sans-Serif" font-size="12.00" fill="white">UInt</text>
</a>
</g>
</g>
<!-- RandomAccessIndexType&#45;&gt;UInt -->
<g id="edge25" class="edge">
<path fill="none" stroke="#cccccc" d="M1609.36,-181.032C1657.23,-176.388 1719.37,-165.077 1768,-138 1798.77,-120.867 1803.18,-109.769 1822,-80 1831.52,-64.9428 1838.71,-45.9742 1843.27,-31.8992"/>
<polygon fill="#cccccc" stroke="#cccccc" points="1846.65,-32.8226 1846.24,-22.2357 1839.96,-30.7681 1846.65,-32.8226"/>
</g>
<!-- UInt16 -->
<g id="node29" class="node">
<g id="a_node29"><a xlink:href="/v2.1/type/UInt16/" target="_top">
<polygon fill="#999999" stroke="#999999" points="1948,-22 1894,-22 1894,-0 1948,-0 1948,-22"/>
<text text-anchor="middle" x="1921" y="-7.4" font-family="Helvetica,sans-Serif" font-size="12.00" fill="white">UInt16</text>
</a>
</g>
</g>
<!-- RandomAccessIndexType&#45;&gt;UInt16 -->
<g id="edge26" class="edge">
<path fill="none" stroke="#cccccc" d="M1609.48,-182.936C1664.16,-179.386 1738.74,-168.599 1797,-138 1846.56,-111.973 1888.44,-59.0783 1908.43,-30.8091"/>
<polygon fill="#cccccc" stroke="#cccccc" points="1911.54,-32.4576 1914.35,-22.2406 1905.79,-28.4789 1911.54,-32.4576"/>
</g>
<!-- UInt32 -->
<g id="node30" class="node">
<g id="a_node30"><a xlink:href="/v2.1/type/UInt32/" target="_top">
<polygon fill="#999999" stroke="#999999" points="1660,-22 1606,-22 1606,-0 1660,-0 1660,-22"/>
<text text-anchor="middle" x="1633" y="-7.4" font-family="Helvetica,sans-Serif" font-size="12.00" fill="white">UInt32</text>
</a>
</g>
</g>
<!-- RandomAccessIndexType&#45;&gt;UInt32 -->
<g id="edge27" class="edge">
<path fill="none" stroke="#cccccc" d="M1541.63,-173.879C1547.63,-164.632 1556.63,-150.531 1564,-138 1585.9,-100.78 1609.74,-56.2693 1622.88,-31.356"/>
<polygon fill="#cccccc" stroke="#cccccc" points="1626.11,-32.7251 1627.66,-22.2449 1619.91,-29.4687 1626.11,-32.7251"/>
</g>
<!-- UInt64 -->
<g id="node31" class="node">
<g id="a_node31"><a xlink:href="/v2.1/type/UInt64/" target="_top">
<polygon fill="#999999" stroke="#999999" points="1732,-22 1678,-22 1678,-0 1732,-0 1732,-22"/>
<text text-anchor="middle" x="1705" y="-7.4" font-family="Helvetica,sans-Serif" font-size="12.00" fill="white">UInt64</text>
</a>
</g>
</g>
<!-- RandomAccessIndexType&#45;&gt;UInt64 -->
<g id="edge28" class="edge">
<path fill="none" stroke="#cccccc" d="M1546.32,-173.976C1556.58,-164.793 1572.05,-150.733 1585,-138 1623.32,-100.331 1666.33,-54.1722 1689.01,-29.5115"/>
<polygon fill="#cccccc" stroke="#cccccc" points="1691.7,-31.7514 1695.88,-22.0158 1686.54,-27.02 1691.7,-31.7514"/>
</g>
<!-- UInt8 -->
<g id="node32" class="node">
<g id="a_node32"><a xlink:href="/v2.1/type/UInt8/" target="_top">
<polygon fill="#999999" stroke="#999999" points="1804,-22 1750,-22 1750,-0 1804,-0 1804,-22"/>
<text text-anchor="middle" x="1777" y="-7.4" font-family="Helvetica,sans-Serif" font-size="12.00" fill="white">UInt8</text>
</a>
</g>
</g>
<!-- RandomAccessIndexType&#45;&gt;UInt8 -->
<g id="edge29" class="edge">
<path fill="none" stroke="#cccccc" d="M1609.52,-177.86C1673.27,-168.217 1761.43,-143.467 1805,-80 1815.63,-64.5137 1804.79,-44.368 1793.65,-30.0334"/>
<polygon fill="#cccccc" stroke="#cccccc" points="1796.32,-27.7672 1787.22,-22.344 1790.95,-32.2594 1796.32,-27.7672"/>
</g>
<!-- UnsafeMutablePointer -->
<g id="node33" class="node">
<g id="a_node33"><a xlink:href="/v2.1/type/UnsafeMutablePointer/" target="_top">
<polygon fill="#999999" stroke="#999999" points="962.051,-22 833.949,-22 833.949,-0 962.051,-0 962.051,-22"/>
<text text-anchor="middle" x="898" y="-7.4" font-family="Helvetica,sans-Serif" font-size="12.00" fill="white">UnsafeMutablePointer</text>
</a>
</g>
</g>
<!-- RandomAccessIndexType&#45;&gt;UnsafeMutablePointer -->
<g id="edge30" class="edge">
<path fill="none" stroke="#cccccc" d="M1460.36,-176.727C1399.57,-169.791 1311.85,-157.473 1237,-138 1120.44,-107.677 988.224,-52.053 929.258,-26.0692"/>
<polygon fill="#cccccc" stroke="#cccccc" points="930.667,-22.8654 920.106,-22.0147 927.831,-29.2654 930.667,-22.8654"/>
</g>
<!-- UnsafePointer -->
<g id="node34" class="node">
<g id="a_node34"><a xlink:href="/v2.1/type/UnsafePointer/" target="_top">
<polygon fill="#999999" stroke="#999999" points="1066.03,-22 979.968,-22 979.968,-0 1066.03,-0 1066.03,-22"/>
<text text-anchor="middle" x="1023" y="-7.4" font-family="Helvetica,sans-Serif" font-size="12.00" fill="white">UnsafePointer</text>
</a>
</g>
</g>
<!-- RandomAccessIndexType&#45;&gt;UnsafePointer -->
<g id="edge31" class="edge">
<path fill="none" stroke="#cccccc" d="M1460.62,-174.431C1412.86,-167.132 1349.9,-155.342 1296,-138 1201.9,-107.724 1097.63,-53.2906 1049.73,-27.0085"/>
<polygon fill="#cccccc" stroke="#cccccc" points="1051.36,-23.9144 1040.92,-22.143 1047.98,-30.0418 1051.36,-23.9144"/>
</g>
<!-- ReverseIndexType&#45;&gt;ReverseIndex -->
<g id="edge45" class="edge">
<path fill="none" stroke="#cccccc" d="M2147.74,-57.9883C2170.84,-49.0057 2204.95,-35.7398 2230.61,-25.7614"/>
<polygon fill="#cccccc" stroke="#cccccc" points="2231.94,-29.0004 2239.99,-22.1138 2229.4,-22.4763 2231.94,-29.0004"/>
</g>
<!-- ReverseIndexType&#45;&gt;ReverseRandomAccessIndex -->
<g id="edge46" class="edge">
<path fill="none" stroke="#cccccc" d="M2122,-57.9883C2122,-50.9098 2122,-41.1714 2122,-32.4779"/>
<polygon fill="#cccccc" stroke="#cccccc" points="2125.5,-32.3038 2122,-22.3039 2118.5,-32.3039 2125.5,-32.3038"/>
</g>
<!-- SignedIntegerType&#45;&gt;Int -->
<g id="edge35" class="edge">
<path fill="none" stroke="#cccccc" d="M1442.19,-57.9883C1450.28,-50.0446 1461.77,-38.7512 1471.35,-29.3439"/>
<polygon fill="#cccccc" stroke="#cccccc" points="1473.83,-31.8088 1478.51,-22.3039 1468.93,-26.8154 1473.83,-31.8088"/>
</g>
<!-- SignedIntegerType&#45;&gt;Int16 -->
<g id="edge36" class="edge">
<path fill="none" stroke="#cccccc" d="M1455.06,-57.9883C1475.48,-49.1244 1505.51,-36.0897 1528.38,-26.1587"/>
<polygon fill="#cccccc" stroke="#cccccc" points="1529.92,-29.3065 1537.7,-22.1138 1527.14,-22.8854 1529.92,-29.3065"/>
</g>
<!-- SignedIntegerType&#45;&gt;Int32 -->
<g id="edge37" class="edge">
<path fill="none" stroke="#cccccc" d="M1403.57,-57.9883C1377.37,-48.7577 1338.32,-35.0041 1309.75,-24.9426"/>
<polygon fill="#cccccc" stroke="#cccccc" points="1310.71,-21.572 1300.12,-21.5512 1308.39,-28.1745 1310.71,-21.572"/>
</g>
<!-- SignedIntegerType&#45;&gt;Int64 -->
<g id="edge38" class="edge">
<path fill="none" stroke="#cccccc" d="M1416.45,-57.9883C1403.41,-49.5993 1384.58,-37.4743 1369.52,-27.7804"/>
<polygon fill="#cccccc" stroke="#cccccc" points="1371.02,-24.5833 1360.71,-22.1138 1367.23,-30.4693 1371.02,-24.5833"/>
</g>
<!-- SignedIntegerType&#45;&gt;Int8 -->
<g id="edge39" class="edge">
<path fill="none" stroke="#cccccc" d="M1429.32,-57.9883C1427.4,-50.8311 1424.76,-40.9547 1422.41,-32.1885"/>
<polygon fill="#cccccc" stroke="#cccccc" points="1425.73,-31.0578 1419.76,-22.3039 1418.97,-32.869 1425.73,-31.0578"/>
</g>
<!-- UnsignedIntegerType&#45;&gt;UInt -->
<g id="edge40" class="edge">
<path fill="none" stroke="#cccccc" d="M1754.56,-57.9883C1772.52,-49.2431 1798.81,-36.4381 1819.1,-26.5594"/>
<polygon fill="#cccccc" stroke="#cccccc" points="1820.77,-29.6387 1828.23,-22.1138 1817.71,-23.3452 1820.77,-29.6387"/>
</g>
<!-- UnsignedIntegerType&#45;&gt;UInt16 -->
<g id="edge41" class="edge">
<path fill="none" stroke="#cccccc" d="M1767.43,-57.9883C1800.18,-48.1806 1849.98,-33.2666 1883.93,-23.1008"/>
<polygon fill="#cccccc" stroke="#cccccc" points="1885.35,-26.331 1893.92,-20.1092 1883.34,-19.6252 1885.35,-26.331"/>
</g>
<!-- UnsignedIntegerType&#45;&gt;UInt32 -->
<g id="edge42" class="edge">
<path fill="none" stroke="#cccccc" d="M1715.94,-57.9883C1700.38,-49.3619 1677.7,-36.785 1659.99,-26.9633"/>
<polygon fill="#cccccc" stroke="#cccccc" points="1661.68,-23.902 1651.24,-22.1138 1658.29,-30.0239 1661.68,-23.902"/>
</g>
<!-- UnsignedIntegerType&#45;&gt;UInt64 -->
<g id="edge43" class="edge">
<path fill="none" stroke="#cccccc" d="M1728.82,-57.9883C1724.99,-50.5952 1719.66,-40.3005 1715.01,-31.3253"/>
<polygon fill="#cccccc" stroke="#cccccc" points="1718.04,-29.5743 1710.34,-22.3039 1711.83,-32.7933 1718.04,-29.5743"/>
</g>
<!-- UnsignedIntegerType&#45;&gt;UInt8 -->
<g id="edge44" class="edge">
<path fill="none" stroke="#cccccc" d="M1741.69,-57.9883C1747.55,-50.3592 1755.78,-39.6405 1762.82,-30.4702"/>
<polygon fill="#cccccc" stroke="#cccccc" points="1765.77,-32.367 1769.09,-22.3039 1760.22,-28.1038 1765.77,-32.367"/>
</g>
<!-- _Incrementable&#45;&gt;ForwardIndexType -->
<g id="edge47" class="edge">
<path fill="none" stroke="#cccccc" d="M2675,-347.988C2675,-340.91 2675,-331.171 2675,-322.478"/>
<polygon fill="#cccccc" stroke="#cccccc" points="2678.5,-322.304 2675,-312.304 2671.5,-322.304 2678.5,-322.304"/>
</g>
</g>
</svg>
