<?xml version="1.0" encoding="UTF-8" standalone="no"?>
<!DOCTYPE svg PUBLIC "-//W3C//DTD SVG 1.1//EN"
 "http://www.w3.org/Graphics/SVG/1.1/DTD/svg11.dtd">
<!-- Generated by graphviz version 2.36.0 (20140111.2315)
 -->
<!-- Title: Array&lt;Element&gt; &#45; Type Hierarchy &#45; SwiftDoc.org Pages: 1 -->
<svg width="774pt" height="427pt"
 viewBox="0.00 0.00 774.34 427.20" xmlns="http://www.w3.org/2000/svg" xmlns:xlink="http://www.w3.org/1999/xlink">
<g id="graph0" class="graph" transform="scale(1 1) rotate(0) translate(7.2 369.6)">
<g transform="translate(0 -369.6)">
<g>
    <path fill="#666666" d="M13.846,10.832c-0.336-0.464-0.792-0.844-1.368-1.14s-1.224-0.444-1.944-0.444
        c-0.384,0-0.772,0.052-1.164,0.156C8.977,9.509,8.622,9.677,8.301,9.908c-0.32,0.232-0.58,0.52-0.78,0.864
        c-0.2,0.344-0.3,0.756-0.3,1.236c0,0.464,0.092,0.852,0.276,1.164c0.184,0.312,0.432,0.576,0.744,0.792s0.68,0.4,1.104,0.552
        c0.423,0.152,0.876,0.309,1.356,0.468c0.576,0.177,1.16,0.376,1.752,0.601c0.592,0.224,1.128,0.52,1.608,0.888
        s0.872,0.828,1.176,1.38s0.456,1.252,0.456,2.101c0,0.88-0.164,1.644-0.492,2.292c-0.328,0.647-0.765,1.184-1.308,1.607
        c-0.544,0.424-1.172,0.74-1.884,0.948s-1.444,0.312-2.196,0.312c-1.072,0-2.108-0.208-3.108-0.624
        c-1-0.415-1.828-1.031-2.484-1.848l1.848-1.56c0.4,0.592,0.936,1.071,1.608,1.439c0.672,0.368,1.399,0.552,2.184,0.552
        c0.4,0,0.8-0.056,1.2-0.168c0.4-0.111,0.764-0.288,1.092-0.527c0.328-0.24,0.596-0.54,0.804-0.9
        c0.208-0.36,0.312-0.796,0.312-1.308s-0.108-0.94-0.324-1.284c-0.216-0.344-0.508-0.636-0.876-0.876s-0.796-0.444-1.284-0.612
        c-0.488-0.168-1.004-0.34-1.548-0.516c-0.544-0.16-1.08-0.356-1.608-0.588c-0.528-0.232-1-0.528-1.416-0.889
        c-0.416-0.359-0.752-0.804-1.008-1.332c-0.256-0.527-0.384-1.184-0.384-1.968c0-0.848,0.172-1.576,0.516-2.184
        c0.344-0.608,0.792-1.112,1.344-1.512c0.552-0.4,1.176-0.692,1.872-0.876c0.696-0.184,1.396-0.276,2.1-0.276
        c0.992,0,1.92,0.176,2.784,0.528c0.864,0.352,1.56,0.824,2.088,1.416L13.846,10.832z"/>
    <path fill="#666666" d="M18.813,13.304l2.568,8.688h0.048l2.712-8.688h2.376l2.76,8.688h0.048l2.568-8.688h2.376L30.501,24.68
        h-2.352l-2.808-8.544h-0.048l-2.784,8.544h-2.352l-3.792-11.376H18.813z"/>
    <path fill="#666666" d="M38.685,9.2c0,0.416-0.147,0.76-0.44,1.032c-0.294,0.272-0.647,0.408-1.06,0.408s-0.762-0.14-1.047-0.42
        c-0.286-0.28-0.429-0.62-0.429-1.02c0-0.416,0.143-0.764,0.429-1.044c0.286-0.28,0.635-0.42,1.047-0.42s0.766,0.14,1.06,0.42
        C38.538,8.437,38.685,8.784,38.685,9.2z M38.325,24.68h-2.256V13.304h2.256V24.68z"/>
    <path fill="#666666" d="M47.613,15.152h-2.64v9.528h-2.256v-9.528h-2.256v-1.848h2.256v-2.376c0-0.672,0.076-1.292,0.228-1.86
        c0.152-0.568,0.4-1.06,0.744-1.476c0.344-0.416,0.784-0.744,1.32-0.984c0.536-0.24,1.188-0.36,1.956-0.36
        c0.544,0,1.016,0.056,1.416,0.168l-0.264,1.944c-0.176-0.048-0.352-0.088-0.528-0.12c-0.176-0.032-0.376-0.048-0.6-0.048
        c-0.432,0-0.78,0.076-1.044,0.228c-0.264,0.152-0.468,0.356-0.612,0.612s-0.24,0.548-0.288,0.876
        c-0.048,0.328-0.072,0.668-0.072,1.02v2.376h2.64V15.152z"/>
    <path fill="#666666" d="M54.909,15.152h-3.024v5.91c0,0.687,0.128,1.177,0.384,1.472c0.256,0.295,0.664,0.442,1.224,0.442
        c0.208,0,0.432-0.021,0.672-0.065c0.24-0.044,0.456-0.11,0.648-0.198l0.072,1.848c-0.272,0.096-0.572,0.172-0.9,0.229
        c-0.328,0.056-0.668,0.084-1.02,0.084c-1.072,0-1.892-0.296-2.46-0.889c-0.568-0.592-0.852-1.479-0.852-2.664v-6.168h-2.184
        v-1.848h2.184V10.04h2.232v3.264h3.024V15.152z"/>
    <path fill="#666666" d="M57.356,7.688h5.832c1.088,0,2.176,0.16,3.264,0.48c1.088,0.32,2.072,0.824,2.952,1.512
        s1.592,1.568,2.136,2.64c0.544,1.072,0.816,2.36,0.816,3.864c0,1.456-0.272,2.716-0.816,3.78s-1.256,1.943-2.136,2.64
        s-1.864,1.216-2.952,1.561c-1.088,0.344-2.176,0.516-3.264,0.516h-5.832V7.688z M59.732,22.593h2.976
        c1.024,0,1.972-0.145,2.844-0.432c0.872-0.288,1.624-0.704,2.256-1.248c0.632-0.544,1.124-1.216,1.476-2.017
        c0.352-0.8,0.528-1.704,0.528-2.712c0-1.056-0.176-1.983-0.528-2.784c-0.353-0.8-0.844-1.468-1.476-2.004
        c-0.632-0.536-1.384-0.944-2.256-1.224s-1.82-0.42-2.844-0.42h-2.976V22.593z"/>
    <path fill="#666666" d="M86.06,18.969c0,0.88-0.156,1.688-0.468,2.424c-0.312,0.736-0.744,1.372-1.296,1.908
        c-0.552,0.536-1.204,0.952-1.956,1.248c-0.752,0.296-1.56,0.443-2.424,0.443c-0.864,0-1.672-0.147-2.424-0.443
        c-0.752-0.296-1.4-0.712-1.944-1.248c-0.544-0.536-0.972-1.172-1.284-1.908c-0.312-0.735-0.468-1.544-0.468-2.424
        s0.156-1.684,0.468-2.412c0.312-0.728,0.74-1.356,1.284-1.884c0.543-0.528,1.191-0.939,1.944-1.236
        c0.752-0.296,1.56-0.444,2.424-0.444c0.864,0,1.672,0.148,2.424,0.444c0.752,0.297,1.404,0.708,1.956,1.236
        c0.552,0.527,0.984,1.156,1.296,1.884C85.904,17.285,86.06,18.089,86.06,18.969z M83.708,18.98c0-0.542-0.084-1.061-0.252-1.556
        c-0.169-0.494-0.414-0.929-0.734-1.304s-0.718-0.674-1.192-0.897s-1.015-0.335-1.625-0.335c-0.61,0-1.152,0.111-1.625,0.335
        c-0.474,0.224-0.871,0.522-1.191,0.897c-0.321,0.375-0.566,0.81-0.734,1.304C76.184,17.92,76.1,18.438,76.1,18.98
        c0,0.543,0.084,1.062,0.253,1.556c0.168,0.495,0.413,0.934,0.734,1.316c0.321,0.383,0.718,0.686,1.191,0.909
        c0.473,0.224,1.015,0.335,1.625,0.335c0.61,0,1.151-0.111,1.625-0.335s0.871-0.526,1.192-0.909s0.565-0.821,0.734-1.316
        C83.624,20.042,83.708,19.523,83.708,18.98z"/>
    <path fill="#666666" d="M96.428,16.184c-0.24-0.368-0.6-0.676-1.08-0.924s-0.992-0.372-1.536-0.372
        c-0.592,0-1.116,0.112-1.572,0.336c-0.456,0.225-0.844,0.524-1.164,0.9c-0.32,0.376-0.564,0.812-0.732,1.308
        s-0.252,1.017-0.252,1.56c0,0.545,0.084,1.064,0.252,1.561s0.412,0.933,0.732,1.308c0.32,0.376,0.712,0.677,1.176,0.9
        c0.464,0.225,0.992,0.336,1.584,0.336c0.576,0,1.1-0.111,1.572-0.336c0.472-0.224,0.86-0.528,1.164-0.912l1.512,1.368
        c-0.48,0.561-1.08,0.996-1.8,1.308c-0.72,0.312-1.536,0.468-2.448,0.468c-0.88,0-1.692-0.144-2.436-0.432
        c-0.744-0.288-1.388-0.691-1.932-1.212c-0.544-0.52-0.972-1.147-1.284-1.884s-0.468-1.561-0.468-2.473
        c0-0.896,0.152-1.711,0.456-2.447c0.304-0.736,0.728-1.368,1.272-1.896c0.543-0.527,1.188-0.936,1.932-1.224
        c0.744-0.288,1.548-0.433,2.412-0.433c0.8,0,1.596,0.16,2.388,0.48s1.419,0.784,1.884,1.392L96.428,16.184z"/>
    <path fill="#666666" d="M103.1,23.24c0,0.417-0.152,0.784-0.456,1.104c-0.304,0.32-0.688,0.479-1.152,0.479
        c-0.448,0-0.828-0.155-1.14-0.468c-0.312-0.312-0.468-0.676-0.468-1.092c0-0.432,0.152-0.804,0.456-1.116
        c0.304-0.312,0.688-0.468,1.152-0.468c0.464,0,0.848,0.152,1.152,0.456C102.947,22.44,103.1,22.808,103.1,23.24z"/>
    <path fill="#666666" d="M116.635,18.969c0,0.88-0.156,1.688-0.468,2.424c-0.312,0.736-0.744,1.372-1.296,1.908
        c-0.552,0.536-1.204,0.952-1.956,1.248c-0.752,0.296-1.56,0.443-2.424,0.443c-0.864,0-1.672-0.147-2.424-0.443
        c-0.752-0.296-1.4-0.712-1.944-1.248c-0.544-0.536-0.972-1.172-1.284-1.908c-0.312-0.735-0.468-1.544-0.468-2.424
        s0.156-1.684,0.468-2.412c0.312-0.728,0.74-1.356,1.284-1.884c0.543-0.528,1.191-0.939,1.944-1.236
        c0.752-0.296,1.56-0.444,2.424-0.444c0.864,0,1.672,0.148,2.424,0.444c0.752,0.297,1.404,0.708,1.956,1.236
        c0.552,0.527,0.984,1.156,1.296,1.884C116.479,17.285,116.635,18.089,116.635,18.969z M114.283,18.98
        c0-0.542-0.084-1.061-0.252-1.556c-0.169-0.494-0.414-0.929-0.734-1.304s-0.718-0.674-1.192-0.897s-1.015-0.335-1.625-0.335
        c-0.61,0-1.152,0.111-1.625,0.335c-0.474,0.224-0.871,0.522-1.191,0.897c-0.321,0.375-0.566,0.81-0.734,1.304
        c-0.169,0.495-0.253,1.014-0.253,1.556c0,0.543,0.084,1.062,0.253,1.556c0.168,0.495,0.413,0.934,0.734,1.316
        c0.321,0.383,0.718,0.686,1.191,0.909c0.473,0.224,1.015,0.335,1.625,0.335c0.61,0,1.151-0.111,1.625-0.335
        s0.871-0.526,1.192-0.909s0.565-0.821,0.734-1.316C114.199,20.042,114.283,19.523,114.283,18.98z"/>
    <path fill="#666666" d="M119.251,14.577c-0.016-0.48-0.04-0.904-0.072-1.272h2.136c0.032,0.288,0.056,0.62,0.072,0.996
        c0.016,0.376,0.024,0.684,0.024,0.924h0.072c0.32-0.672,0.788-1.212,1.404-1.62c0.616-0.408,1.308-0.612,2.076-0.612
        c0.352,0,0.648,0.033,0.888,0.097l-0.096,2.088c-0.32-0.08-0.664-0.12-1.032-0.12c-0.544,0-1.016,0.101-1.416,0.3
        c-0.4,0.2-0.732,0.468-0.996,0.805c-0.264,0.336-0.46,0.724-0.588,1.163c-0.128,0.44-0.192,0.9-0.192,1.381v5.976h-2.256v-8.928
        C119.275,15.449,119.267,15.056,119.251,14.577z"/>
    <path fill="#666666" d="M128.419,26.625c0.496,0.56,1.116,1.008,1.86,1.344c0.744,0.336,1.508,0.504,2.292,0.504
        c0.752,0,1.384-0.108,1.896-0.324s0.924-0.512,1.236-0.888s0.536-0.82,0.672-1.332c0.136-0.513,0.204-1.064,0.204-1.656v-1.464
        h-0.048c-0.416,0.641-0.984,1.128-1.704,1.464c-0.72,0.336-1.488,0.504-2.304,0.504c-0.864,0-1.652-0.151-2.364-0.456
        c-0.712-0.304-1.316-0.72-1.812-1.248c-0.496-0.527-0.88-1.147-1.152-1.859s-0.408-1.477-0.408-2.292
        c0-0.816,0.136-1.584,0.408-2.305c0.272-0.72,0.656-1.348,1.152-1.884c0.496-0.535,1.096-0.96,1.8-1.271
        c0.704-0.312,1.488-0.469,2.352-0.469c0.816,0,1.596,0.177,2.34,0.528c0.744,0.353,1.332,0.888,1.764,1.608h0.048v-1.824h2.184
        v10.8c0,0.832-0.104,1.628-0.312,2.388c-0.208,0.76-0.56,1.433-1.056,2.017s-1.144,1.052-1.944,1.404
        c-0.8,0.352-1.792,0.527-2.976,0.527c-0.992,0-1.988-0.18-2.988-0.54c-1-0.359-1.86-0.868-2.58-1.523L128.419,26.625z
         M129.091,18.873c0,0.527,0.084,1.031,0.253,1.512c0.168,0.479,0.417,0.904,0.746,1.271c0.329,0.369,0.726,0.664,1.192,0.889
        c0.465,0.224,0.995,0.336,1.589,0.336c0.577,0,1.107-0.104,1.589-0.312c0.481-0.207,0.891-0.491,1.228-0.852
        s0.598-0.784,0.782-1.272c0.185-0.487,0.277-1.012,0.277-1.571c0-0.544-0.093-1.057-0.277-1.536
        c-0.185-0.48-0.449-0.904-0.794-1.272c-0.345-0.367-0.755-0.66-1.228-0.876c-0.474-0.216-1-0.324-1.577-0.324
        c-0.594,0-1.124,0.108-1.589,0.324c-0.466,0.216-0.863,0.504-1.192,0.864s-0.578,0.784-0.746,1.271
        C129.175,17.812,129.091,18.329,129.091,18.873z"/>
</g>
<g><a xlink:href="/" pointer-events="all" target="_top"><polygon fill="none" points="0,0 145,0 145,35 0,35 0,0"/></a></g>

</g>


<!-- Array&lt;Element&gt; -->
<g id="node1" class="node">
<g id="a_node1"><a xlink:href="/v2.1/type/Array/" target="_top">
<polygon fill="#ee543d" stroke="#ee543d" points="409.972,-22 313.909,-22 313.909,-0 409.972,-0 409.972,-22"/>
<text text-anchor="middle" x="361.94" y="-7.4" font-family="Helvetica,sans-Serif" font-size="12.00" fill="white">Array&lt;Element&gt;</text>
</a>
</g>
</g>
<!-- ArrayLiteralConvertible -->
<g id="node2" class="node">
<g id="a_node2"><a xlink:href="/v2.1/protocol/ArrayLiteralConvertible/" target="_top">
<path fill="#999999" stroke="#999999" d="M142.645,-138C142.645,-138 25.2355,-138 25.2355,-138 21.5689,-138 17.9022,-134.333 17.9022,-130.667 17.9022,-130.667 17.9022,-123.333 17.9022,-123.333 17.9022,-119.667 21.5689,-116 25.2355,-116 25.2355,-116 142.645,-116 142.645,-116 146.312,-116 149.978,-119.667 149.978,-123.333 149.978,-123.333 149.978,-130.667 149.978,-130.667 149.978,-134.333 146.312,-138 142.645,-138"/>
<text text-anchor="middle" x="83.9403" y="-123.4" font-family="Helvetica,sans-Serif" font-size="12.00" fill="white">ArrayLiteralConvertible</text>
</a>
</g>
</g>
<!-- ArrayLiteralConvertible&#45;&gt;Array&lt;Element&gt; -->
<g id="edge4" class="edge">
<path fill="none" stroke="#cccccc" d="M63.5861,-115.936C39.491,-102.729 4.78646,-78.7835 22.9403,-58 58.6921,-17.0692 216.566,-11.1509 303.692,-11.1036"/>
<polygon fill="#cccccc" stroke="#cccccc" points="303.689,-14.6035 313.696,-11.1238 303.703,-7.60352 303.689,-14.6035"/>
</g>
<!-- _ArrayType -->
<g id="node12" class="node">
<g id="a_node12"><a xlink:href="/v2.1/protocol/_ArrayType/" target="_top">
<path fill="#999999" stroke="#999999" d="M453.13,-80C453.13,-80 396.751,-80 396.751,-80 393.084,-80 389.417,-76.3333 389.417,-72.6667 389.417,-72.6667 389.417,-65.3333 389.417,-65.3333 389.417,-61.6667 393.084,-58 396.751,-58 396.751,-58 453.13,-58 453.13,-58 456.797,-58 460.463,-61.6667 460.463,-65.3333 460.463,-65.3333 460.463,-72.6667 460.463,-72.6667 460.463,-76.3333 456.797,-80 453.13,-80"/>
<text text-anchor="middle" x="424.94" y="-65.4" font-family="Helvetica,sans-Serif" font-size="12.00" fill="white">_ArrayType</text>
</a>
</g>
</g>
<!-- ArrayLiteralConvertible&#45;&gt;_ArrayType -->
<g id="edge15" class="edge">
<path fill="none" stroke="#cccccc" d="M149.985,-116.981C207.82,-108.799 294.343,-95.8748 379.068,-80.069"/>
<polygon fill="#cccccc" stroke="#cccccc" points="379.941,-83.4663 389.122,-78.1782 378.647,-76.587 379.941,-83.4663"/>
</g>
<!-- CollectionType -->
<g id="node3" class="node">
<g id="a_node3"><a xlink:href="/v2.1/protocol/CollectionType/" target="_top">
<path fill="#999999" stroke="#999999" d="M351.644,-254C351.644,-254 278.236,-254 278.236,-254 274.57,-254 270.903,-250.333 270.903,-246.667 270.903,-246.667 270.903,-239.333 270.903,-239.333 270.903,-235.667 274.57,-232 278.236,-232 278.236,-232 351.644,-232 351.644,-232 355.311,-232 358.977,-235.667 358.977,-239.333 358.977,-239.333 358.977,-246.667 358.977,-246.667 358.977,-250.333 355.311,-254 351.644,-254"/>
<text text-anchor="middle" x="314.94" y="-239.4" font-family="Helvetica,sans-Serif" font-size="12.00" fill="white">CollectionType</text>
</a>
</g>
</g>
<!-- CollectionType&#45;&gt;Array&lt;Element&gt; -->
<g id="edge1" class="edge">
<path fill="none" stroke="#cccccc" d="M358.982,-242.276C395.217,-239.868 444.589,-229.968 469.94,-196 487.559,-172.394 560.423,-195.612 468.94,-58 457.64,-41.0019 438.615,-30.2567 419.713,-23.4762"/>
<polygon fill="#cccccc" stroke="#cccccc" points="420.774,-20.1408 410.182,-20.3679 418.604,-26.7958 420.774,-20.1408"/>
</g>
<!-- MutableCollectionType -->
<g id="node7" class="node">
<g id="a_node7"><a xlink:href="/v2.1/protocol/MutableCollectionType/" target="_top">
<path fill="#999999" stroke="#999999" d="M207.161,-196C207.161,-196 90.7194,-196 90.7194,-196 87.0527,-196 83.3861,-192.333 83.3861,-188.667 83.3861,-188.667 83.3861,-181.333 83.3861,-181.333 83.3861,-177.667 87.0527,-174 90.7194,-174 90.7194,-174 207.161,-174 207.161,-174 210.828,-174 214.495,-177.667 214.495,-181.333 214.495,-181.333 214.495,-188.667 214.495,-188.667 214.495,-192.333 210.828,-196 207.161,-196"/>
<text text-anchor="middle" x="148.94" y="-181.4" font-family="Helvetica,sans-Serif" font-size="12.00" fill="white">MutableCollectionType</text>
</a>
</g>
</g>
<!-- CollectionType&#45;&gt;MutableCollectionType -->
<g id="edge12" class="edge">
<path fill="none" stroke="#cccccc" d="M285.263,-231.988C258.2,-222.859 218.022,-209.305 188.289,-199.274"/>
<polygon fill="#cccccc" stroke="#cccccc" points="189.234,-195.899 178.64,-196.019 186.997,-202.532 189.234,-195.899"/>
</g>
<!-- MutableSliceable -->
<g id="node9" class="node">
<g id="a_node9"><a xlink:href="/v2.1/protocol/MutableSliceable/" target="_top">
<path fill="#999999" stroke="#999999" d="M286.148,-138C286.148,-138 199.733,-138 199.733,-138 196.066,-138 192.399,-134.333 192.399,-130.667 192.399,-130.667 192.399,-123.333 192.399,-123.333 192.399,-119.667 196.066,-116 199.733,-116 199.733,-116 286.148,-116 286.148,-116 289.815,-116 293.481,-119.667 293.481,-123.333 293.481,-123.333 293.481,-130.667 293.481,-130.667 293.481,-134.333 289.815,-138 286.148,-138"/>
<text text-anchor="middle" x="242.94" y="-123.4" font-family="Helvetica,sans-Serif" font-size="12.00" fill="white">MutableSliceable</text>
</a>
</g>
</g>
<!-- CollectionType&#45;&gt;MutableSliceable -->
<g id="edge17" class="edge">
<path fill="none" stroke="#cccccc" d="M298.771,-231.803C286.919,-223.527 271.322,-210.825 261.94,-196 252.837,-181.616 248.019,-162.826 245.516,-148.644"/>
<polygon fill="#cccccc" stroke="#cccccc" points="248.927,-147.793 243.967,-138.431 242.006,-148.842 248.927,-147.793"/>
</g>
<!-- RangeReplaceableCollectionType -->
<g id="node10" class="node">
<g id="a_node10"><a xlink:href="/v2.1/protocol/RangeReplaceableCollectionType/" target="_top">
<path fill="#999999" stroke="#999999" d="M453.701,-196C453.701,-196 278.18,-196 278.18,-196 274.513,-196 270.847,-192.333 270.847,-188.667 270.847,-188.667 270.847,-181.333 270.847,-181.333 270.847,-177.667 274.513,-174 278.18,-174 278.18,-174 453.701,-174 453.701,-174 457.367,-174 461.034,-177.667 461.034,-181.333 461.034,-181.333 461.034,-188.667 461.034,-188.667 461.034,-192.333 457.367,-196 453.701,-196"/>
<text text-anchor="middle" x="365.94" y="-181.4" font-family="Helvetica,sans-Serif" font-size="12.00" fill="white">RangeReplaceableCollectionType</text>
</a>
</g>
</g>
<!-- CollectionType&#45;&gt;RangeReplaceableCollectionType -->
<g id="edge16" class="edge">
<path fill="none" stroke="#cccccc" d="M324.058,-231.988C331.149,-224.202 341.171,-213.197 349.634,-203.905"/>
<polygon fill="#cccccc" stroke="#cccccc" points="352.411,-206.054 356.556,-196.304 347.235,-201.341 352.411,-206.054"/>
</g>
<!-- CustomDebugStringConvertible -->
<g id="node4" class="node">
<g id="a_node4"><a xlink:href="/v2.1/protocol/CustomDebugStringConvertible/" target="_top">
<path fill="#999999" stroke="#999999" d="M202.67,-80C202.67,-80 39.2107,-80 39.2107,-80 35.544,-80 31.8774,-76.3333 31.8774,-72.6667 31.8774,-72.6667 31.8774,-65.3333 31.8774,-65.3333 31.8774,-61.6667 35.544,-58 39.2107,-58 39.2107,-58 202.67,-58 202.67,-58 206.337,-58 210.003,-61.6667 210.003,-65.3333 210.003,-65.3333 210.003,-72.6667 210.003,-72.6667 210.003,-76.3333 206.337,-80 202.67,-80"/>
<text text-anchor="middle" x="120.94" y="-65.4" font-family="Helvetica,sans-Serif" font-size="12.00" fill="white">CustomDebugStringConvertible</text>
</a>
</g>
</g>
<!-- CustomDebugStringConvertible&#45;&gt;Array&lt;Element&gt; -->
<g id="edge8" class="edge">
<path fill="none" stroke="#cccccc" d="M164.026,-57.9883C204.597,-48.561 265.472,-34.4159 308.987,-24.3045"/>
<polygon fill="#cccccc" stroke="#cccccc" points="309.873,-27.6919 318.822,-22.0192 308.289,-20.8735 309.873,-27.6919"/>
</g>
<!-- CustomStringConvertible -->
<g id="node5" class="node">
<g id="a_node5"><a xlink:href="/v2.1/protocol/CustomStringConvertible/" target="_top">
<path fill="#999999" stroke="#999999" d="M364.148,-80C364.148,-80 235.733,-80 235.733,-80 232.066,-80 228.399,-76.3333 228.399,-72.6667 228.399,-72.6667 228.399,-65.3333 228.399,-65.3333 228.399,-61.6667 232.066,-58 235.733,-58 235.733,-58 364.148,-58 364.148,-58 367.815,-58 371.481,-61.6667 371.481,-65.3333 371.481,-65.3333 371.481,-72.6667 371.481,-72.6667 371.481,-76.3333 367.815,-80 364.148,-80"/>
<text text-anchor="middle" x="299.94" y="-65.4" font-family="Helvetica,sans-Serif" font-size="12.00" fill="white">CustomStringConvertible</text>
</a>
</g>
</g>
<!-- CustomStringConvertible&#45;&gt;Array&lt;Element&gt; -->
<g id="edge7" class="edge">
<path fill="none" stroke="#cccccc" d="M311.025,-57.9883C319.907,-49.966 332.571,-38.5272 343.047,-29.065"/>
<polygon fill="#cccccc" stroke="#cccccc" points="345.457,-31.6041 350.532,-22.3039 340.765,-26.4094 345.457,-31.6041"/>
</g>
<!-- Indexable -->
<g id="node6" class="node">
<g id="a_node6"><a xlink:href="/v2.1/protocol/Indexable/" target="_top">
<path fill="#999999" stroke="#999999" d="M291.639,-312C291.639,-312 244.241,-312 244.241,-312 240.575,-312 236.908,-308.333 236.908,-304.667 236.908,-304.667 236.908,-297.333 236.908,-297.333 236.908,-293.667 240.575,-290 244.241,-290 244.241,-290 291.639,-290 291.639,-290 295.306,-290 298.973,-293.667 298.973,-297.333 298.973,-297.333 298.973,-304.667 298.973,-304.667 298.973,-308.333 295.306,-312 291.639,-312"/>
<text text-anchor="middle" x="267.94" y="-297.4" font-family="Helvetica,sans-Serif" font-size="12.00" fill="white">Indexable</text>
</a>
</g>
</g>
<!-- Indexable&#45;&gt;CollectionType -->
<g id="edge9" class="edge">
<path fill="none" stroke="#cccccc" d="M276.343,-289.988C282.812,-282.281 291.928,-271.419 299.676,-262.187"/>
<polygon fill="#cccccc" stroke="#cccccc" points="302.545,-264.214 306.292,-254.304 297.183,-259.714 302.545,-264.214"/>
</g>
<!-- MutableCollectionType&#45;&gt;Array&lt;Element&gt; -->
<g id="edge2" class="edge">
<path fill="none" stroke="#cccccc" d="M83.2895,-179.047C55.6777,-173.33 26.0445,-161.624 8.94029,-138 -1.46849,-123.624 -6.09635,-78.9682 13.9403,-58 52.6171,-17.525 215.02,-11.4532 303.638,-11.2509"/>
<polygon fill="#cccccc" stroke="#cccccc" points="303.804,-14.7508 313.805,-11.2527 303.805,-7.75082 303.804,-14.7508"/>
</g>
<!-- MutableCollectionType&#45;&gt;MutableSliceable -->
<g id="edge18" class="edge">
<path fill="none" stroke="#cccccc" d="M165.746,-173.988C180.093,-165.441 200.95,-153.015 217.368,-143.234"/>
<polygon fill="#cccccc" stroke="#cccccc" points="219.164,-146.239 225.964,-138.114 215.581,-140.225 219.164,-146.239"/>
</g>
<!-- MutableIndexable -->
<g id="node8" class="node">
<g id="a_node8"><a xlink:href="/v2.1/protocol/MutableIndexable/" target="_top">
<path fill="#999999" stroke="#999999" d="M193.659,-254C193.659,-254 104.222,-254 104.222,-254 100.555,-254 96.8887,-250.333 96.8887,-246.667 96.8887,-246.667 96.8887,-239.333 96.8887,-239.333 96.8887,-235.667 100.555,-232 104.222,-232 104.222,-232 193.659,-232 193.659,-232 197.325,-232 200.992,-235.667 200.992,-239.333 200.992,-239.333 200.992,-246.667 200.992,-246.667 200.992,-250.333 197.325,-254 193.659,-254"/>
<text text-anchor="middle" x="148.94" y="-239.4" font-family="Helvetica,sans-Serif" font-size="12.00" fill="white">MutableIndexable</text>
</a>
</g>
</g>
<!-- MutableIndexable&#45;&gt;MutableCollectionType -->
<g id="edge11" class="edge">
<path fill="none" stroke="#cccccc" d="M148.94,-231.988C148.94,-224.91 148.94,-215.171 148.94,-206.478"/>
<polygon fill="#cccccc" stroke="#cccccc" points="152.44,-206.304 148.94,-196.304 145.44,-206.304 152.44,-206.304"/>
</g>
<!-- MutableSliceable&#45;&gt;_ArrayType -->
<g id="edge14" class="edge">
<path fill="none" stroke="#cccccc" d="M275.478,-115.988C305.407,-106.779 349.968,-93.0685 382.647,-83.0134"/>
<polygon fill="#cccccc" stroke="#cccccc" points="383.849,-86.3054 392.378,-80.0192 381.791,-79.6149 383.849,-86.3054"/>
</g>
<!-- RangeReplaceableCollectionType&#45;&gt;_ArrayType -->
<g id="edge13" class="edge">
<path fill="none" stroke="#cccccc" d="M371.176,-173.883C380.992,-154.917 402.307,-113.732 414.951,-89.3004"/>
<polygon fill="#cccccc" stroke="#cccccc" points="418.143,-90.7478 419.631,-80.2579 411.927,-87.5303 418.143,-90.7478"/>
</g>
<!-- SequenceType -->
<g id="node11" class="node">
<g id="a_node11"><a xlink:href="/v2.1/protocol/SequenceType/" target="_top">
<path fill="#999999" stroke="#999999" d="M399.658,-312C399.658,-312 324.222,-312 324.222,-312 320.556,-312 316.889,-308.333 316.889,-304.667 316.889,-304.667 316.889,-297.333 316.889,-297.333 316.889,-293.667 320.556,-290 324.222,-290 324.222,-290 399.658,-290 399.658,-290 403.325,-290 406.992,-293.667 406.992,-297.333 406.992,-297.333 406.992,-304.667 406.992,-304.667 406.992,-308.333 403.325,-312 399.658,-312"/>
<text text-anchor="middle" x="361.94" y="-297.4" font-family="Helvetica,sans-Serif" font-size="12.00" fill="white">SequenceType</text>
</a>
</g>
</g>
<!-- SequenceType&#45;&gt;CollectionType -->
<g id="edge10" class="edge">
<path fill="none" stroke="#cccccc" d="M353.538,-289.988C347.069,-282.281 337.953,-271.419 330.204,-262.187"/>
<polygon fill="#cccccc" stroke="#cccccc" points="332.698,-259.714 323.588,-254.304 327.336,-264.214 332.698,-259.714"/>
</g>
<!-- _ArrayType&#45;&gt;Array&lt;Element&gt; -->
<g id="edge5" class="edge">
<path fill="none" stroke="#cccccc" d="M413.677,-57.9883C404.652,-49.966 391.783,-38.5272 381.138,-29.065"/>
<polygon fill="#cccccc" stroke="#cccccc" points="383.332,-26.3316 373.532,-22.3039 378.681,-31.5635 383.332,-26.3316"/>
</g>
<!-- _DestructorSafeContainer -->
<g id="node13" class="node">
<g id="a_node13"><a xlink:href="/v2.1/protocol/_DestructorSafeContainer/" target="_top">
<path fill="#999999" stroke="#999999" d="M657.661,-80C657.661,-80 524.219,-80 524.219,-80 520.553,-80 516.886,-76.3333 516.886,-72.6667 516.886,-72.6667 516.886,-65.3333 516.886,-65.3333 516.886,-61.6667 520.553,-58 524.219,-58 524.219,-58 657.661,-58 657.661,-58 661.328,-58 664.995,-61.6667 664.995,-65.3333 664.995,-65.3333 664.995,-72.6667 664.995,-72.6667 664.995,-76.3333 661.328,-80 657.661,-80"/>
<text text-anchor="middle" x="590.94" y="-65.4" font-family="Helvetica,sans-Serif" font-size="12.00" fill="white">_DestructorSafeContainer</text>
</a>
</g>
</g>
<!-- _DestructorSafeContainer&#45;&gt;Array&lt;Element&gt; -->
<g id="edge3" class="edge">
<path fill="none" stroke="#cccccc" d="M550,-57.9883C511.611,-48.6007 454.092,-34.5349 412.78,-24.4325"/>
<polygon fill="#cccccc" stroke="#cccccc" points="413.457,-20.9949 402.912,-22.0192 411.794,-27.7946 413.457,-20.9949"/>
</g>
<!-- _Reflectable -->
<g id="node14" class="node">
<g id="a_node14"><a xlink:href="/v2.1/protocol/_Reflectable/" target="_top">
<path fill="#999999" stroke="#999999" d="M752.64,-80C752.64,-80 691.241,-80 691.241,-80 687.574,-80 683.907,-76.3333 683.907,-72.6667 683.907,-72.6667 683.907,-65.3333 683.907,-65.3333 683.907,-61.6667 687.574,-58 691.241,-58 691.241,-58 752.64,-58 752.64,-58 756.307,-58 759.973,-61.6667 759.973,-65.3333 759.973,-65.3333 759.973,-72.6667 759.973,-72.6667 759.973,-76.3333 756.307,-80 752.64,-80"/>
<text text-anchor="middle" x="721.94" y="-65.4" font-family="Helvetica,sans-Serif" font-size="12.00" fill="white">_Reflectable</text>
</a>
</g>
</g>
<!-- _Reflectable&#45;&gt;Array&lt;Element&gt; -->
<g id="edge6" class="edge">
<path fill="none" stroke="#cccccc" d="M683.728,-59.8269C680.422,-59.1843 677.125,-58.566 673.94,-58 585.854,-42.3448 483.103,-27.9336 420.296,-19.5565"/>
<polygon fill="#cccccc" stroke="#cccccc" points="420.561,-16.061 410.187,-18.2143 419.639,-23.0001 420.561,-16.061"/>
</g>
</g>
</svg>
