<?xml version="1.0" encoding="UTF-8" standalone="no"?>
<!DOCTYPE svg PUBLIC "-//W3C//DTD SVG 1.1//EN"
 "http://www.w3.org/Graphics/SVG/1.1/DTD/svg11.dtd">
<!-- Generated by graphviz version 2.36.0 (20140111.2315)
 -->
<!-- Title: ArraySlice&lt;Element&gt; &#45; Type Hierarchy &#45; SwiftDoc.org Pages: 1 -->
<svg width="1273pt" height="427pt"
 viewBox="0.00 0.00 1273.40 427.20" xmlns="http://www.w3.org/2000/svg" xmlns:xlink="http://www.w3.org/1999/xlink">
<g id="graph0" class="graph" transform="scale(1 1) rotate(0) translate(7.2 369.6)">
<g transform="translate(0 -369.6)">
<g>
    <path fill="#666666" d="M13.846,10.832c-0.336-0.464-0.792-0.844-1.368-1.14s-1.224-0.444-1.944-0.444
        c-0.384,0-0.772,0.052-1.164,0.156C8.977,9.509,8.622,9.677,8.301,9.908c-0.32,0.232-0.58,0.52-0.78,0.864
        c-0.2,0.344-0.3,0.756-0.3,1.236c0,0.464,0.092,0.852,0.276,1.164c0.184,0.312,0.432,0.576,0.744,0.792s0.68,0.4,1.104,0.552
        c0.423,0.152,0.876,0.309,1.356,0.468c0.576,0.177,1.16,0.376,1.752,0.601c0.592,0.224,1.128,0.52,1.608,0.888
        s0.872,0.828,1.176,1.38s0.456,1.252,0.456,2.101c0,0.88-0.164,1.644-0.492,2.292c-0.328,0.647-0.765,1.184-1.308,1.607
        c-0.544,0.424-1.172,0.74-1.884,0.948s-1.444,0.312-2.196,0.312c-1.072,0-2.108-0.208-3.108-0.624
        c-1-0.415-1.828-1.031-2.484-1.848l1.848-1.56c0.4,0.592,0.936,1.071,1.608,1.439c0.672,0.368,1.399,0.552,2.184,0.552
        c0.4,0,0.8-0.056,1.2-0.168c0.4-0.111,0.764-0.288,1.092-0.527c0.328-0.24,0.596-0.54,0.804-0.9
        c0.208-0.36,0.312-0.796,0.312-1.308s-0.108-0.94-0.324-1.284c-0.216-0.344-0.508-0.636-0.876-0.876s-0.796-0.444-1.284-0.612
        c-0.488-0.168-1.004-0.34-1.548-0.516c-0.544-0.16-1.08-0.356-1.608-0.588c-0.528-0.232-1-0.528-1.416-0.889
        c-0.416-0.359-0.752-0.804-1.008-1.332c-0.256-0.527-0.384-1.184-0.384-1.968c0-0.848,0.172-1.576,0.516-2.184
        c0.344-0.608,0.792-1.112,1.344-1.512c0.552-0.4,1.176-0.692,1.872-0.876c0.696-0.184,1.396-0.276,2.1-0.276
        c0.992,0,1.92,0.176,2.784,0.528c0.864,0.352,1.56,0.824,2.088,1.416L13.846,10.832z"/>
    <path fill="#666666" d="M18.813,13.304l2.568,8.688h0.048l2.712-8.688h2.376l2.76,8.688h0.048l2.568-8.688h2.376L30.501,24.68
        h-2.352l-2.808-8.544h-0.048l-2.784,8.544h-2.352l-3.792-11.376H18.813z"/>
    <path fill="#666666" d="M38.685,9.2c0,0.416-0.147,0.76-0.44,1.032c-0.294,0.272-0.647,0.408-1.06,0.408s-0.762-0.14-1.047-0.42
        c-0.286-0.28-0.429-0.62-0.429-1.02c0-0.416,0.143-0.764,0.429-1.044c0.286-0.28,0.635-0.42,1.047-0.42s0.766,0.14,1.06,0.42
        C38.538,8.437,38.685,8.784,38.685,9.2z M38.325,24.68h-2.256V13.304h2.256V24.68z"/>
    <path fill="#666666" d="M47.613,15.152h-2.64v9.528h-2.256v-9.528h-2.256v-1.848h2.256v-2.376c0-0.672,0.076-1.292,0.228-1.86
        c0.152-0.568,0.4-1.06,0.744-1.476c0.344-0.416,0.784-0.744,1.32-0.984c0.536-0.24,1.188-0.36,1.956-0.36
        c0.544,0,1.016,0.056,1.416,0.168l-0.264,1.944c-0.176-0.048-0.352-0.088-0.528-0.12c-0.176-0.032-0.376-0.048-0.6-0.048
        c-0.432,0-0.78,0.076-1.044,0.228c-0.264,0.152-0.468,0.356-0.612,0.612s-0.24,0.548-0.288,0.876
        c-0.048,0.328-0.072,0.668-0.072,1.02v2.376h2.64V15.152z"/>
    <path fill="#666666" d="M54.909,15.152h-3.024v5.91c0,0.687,0.128,1.177,0.384,1.472c0.256,0.295,0.664,0.442,1.224,0.442
        c0.208,0,0.432-0.021,0.672-0.065c0.24-0.044,0.456-0.11,0.648-0.198l0.072,1.848c-0.272,0.096-0.572,0.172-0.9,0.229
        c-0.328,0.056-0.668,0.084-1.02,0.084c-1.072,0-1.892-0.296-2.46-0.889c-0.568-0.592-0.852-1.479-0.852-2.664v-6.168h-2.184
        v-1.848h2.184V10.04h2.232v3.264h3.024V15.152z"/>
    <path fill="#666666" d="M57.356,7.688h5.832c1.088,0,2.176,0.16,3.264,0.48c1.088,0.32,2.072,0.824,2.952,1.512
        s1.592,1.568,2.136,2.64c0.544,1.072,0.816,2.36,0.816,3.864c0,1.456-0.272,2.716-0.816,3.78s-1.256,1.943-2.136,2.64
        s-1.864,1.216-2.952,1.561c-1.088,0.344-2.176,0.516-3.264,0.516h-5.832V7.688z M59.732,22.593h2.976
        c1.024,0,1.972-0.145,2.844-0.432c0.872-0.288,1.624-0.704,2.256-1.248c0.632-0.544,1.124-1.216,1.476-2.017
        c0.352-0.8,0.528-1.704,0.528-2.712c0-1.056-0.176-1.983-0.528-2.784c-0.353-0.8-0.844-1.468-1.476-2.004
        c-0.632-0.536-1.384-0.944-2.256-1.224s-1.82-0.42-2.844-0.42h-2.976V22.593z"/>
    <path fill="#666666" d="M86.06,18.969c0,0.88-0.156,1.688-0.468,2.424c-0.312,0.736-0.744,1.372-1.296,1.908
        c-0.552,0.536-1.204,0.952-1.956,1.248c-0.752,0.296-1.56,0.443-2.424,0.443c-0.864,0-1.672-0.147-2.424-0.443
        c-0.752-0.296-1.4-0.712-1.944-1.248c-0.544-0.536-0.972-1.172-1.284-1.908c-0.312-0.735-0.468-1.544-0.468-2.424
        s0.156-1.684,0.468-2.412c0.312-0.728,0.74-1.356,1.284-1.884c0.543-0.528,1.191-0.939,1.944-1.236
        c0.752-0.296,1.56-0.444,2.424-0.444c0.864,0,1.672,0.148,2.424,0.444c0.752,0.297,1.404,0.708,1.956,1.236
        c0.552,0.527,0.984,1.156,1.296,1.884C85.904,17.285,86.06,18.089,86.06,18.969z M83.708,18.98c0-0.542-0.084-1.061-0.252-1.556
        c-0.169-0.494-0.414-0.929-0.734-1.304s-0.718-0.674-1.192-0.897s-1.015-0.335-1.625-0.335c-0.61,0-1.152,0.111-1.625,0.335
        c-0.474,0.224-0.871,0.522-1.191,0.897c-0.321,0.375-0.566,0.81-0.734,1.304C76.184,17.92,76.1,18.438,76.1,18.98
        c0,0.543,0.084,1.062,0.253,1.556c0.168,0.495,0.413,0.934,0.734,1.316c0.321,0.383,0.718,0.686,1.191,0.909
        c0.473,0.224,1.015,0.335,1.625,0.335c0.61,0,1.151-0.111,1.625-0.335s0.871-0.526,1.192-0.909s0.565-0.821,0.734-1.316
        C83.624,20.042,83.708,19.523,83.708,18.98z"/>
    <path fill="#666666" d="M96.428,16.184c-0.24-0.368-0.6-0.676-1.08-0.924s-0.992-0.372-1.536-0.372
        c-0.592,0-1.116,0.112-1.572,0.336c-0.456,0.225-0.844,0.524-1.164,0.9c-0.32,0.376-0.564,0.812-0.732,1.308
        s-0.252,1.017-0.252,1.56c0,0.545,0.084,1.064,0.252,1.561s0.412,0.933,0.732,1.308c0.32,0.376,0.712,0.677,1.176,0.9
        c0.464,0.225,0.992,0.336,1.584,0.336c0.576,0,1.1-0.111,1.572-0.336c0.472-0.224,0.86-0.528,1.164-0.912l1.512,1.368
        c-0.48,0.561-1.08,0.996-1.8,1.308c-0.72,0.312-1.536,0.468-2.448,0.468c-0.88,0-1.692-0.144-2.436-0.432
        c-0.744-0.288-1.388-0.691-1.932-1.212c-0.544-0.52-0.972-1.147-1.284-1.884s-0.468-1.561-0.468-2.473
        c0-0.896,0.152-1.711,0.456-2.447c0.304-0.736,0.728-1.368,1.272-1.896c0.543-0.527,1.188-0.936,1.932-1.224
        c0.744-0.288,1.548-0.433,2.412-0.433c0.8,0,1.596,0.16,2.388,0.48s1.419,0.784,1.884,1.392L96.428,16.184z"/>
    <path fill="#666666" d="M103.1,23.24c0,0.417-0.152,0.784-0.456,1.104c-0.304,0.32-0.688,0.479-1.152,0.479
        c-0.448,0-0.828-0.155-1.14-0.468c-0.312-0.312-0.468-0.676-0.468-1.092c0-0.432,0.152-0.804,0.456-1.116
        c0.304-0.312,0.688-0.468,1.152-0.468c0.464,0,0.848,0.152,1.152,0.456C102.947,22.44,103.1,22.808,103.1,23.24z"/>
    <path fill="#666666" d="M116.635,18.969c0,0.88-0.156,1.688-0.468,2.424c-0.312,0.736-0.744,1.372-1.296,1.908
        c-0.552,0.536-1.204,0.952-1.956,1.248c-0.752,0.296-1.56,0.443-2.424,0.443c-0.864,0-1.672-0.147-2.424-0.443
        c-0.752-0.296-1.4-0.712-1.944-1.248c-0.544-0.536-0.972-1.172-1.284-1.908c-0.312-0.735-0.468-1.544-0.468-2.424
        s0.156-1.684,0.468-2.412c0.312-0.728,0.74-1.356,1.284-1.884c0.543-0.528,1.191-0.939,1.944-1.236
        c0.752-0.296,1.56-0.444,2.424-0.444c0.864,0,1.672,0.148,2.424,0.444c0.752,0.297,1.404,0.708,1.956,1.236
        c0.552,0.527,0.984,1.156,1.296,1.884C116.479,17.285,116.635,18.089,116.635,18.969z M114.283,18.98
        c0-0.542-0.084-1.061-0.252-1.556c-0.169-0.494-0.414-0.929-0.734-1.304s-0.718-0.674-1.192-0.897s-1.015-0.335-1.625-0.335
        c-0.61,0-1.152,0.111-1.625,0.335c-0.474,0.224-0.871,0.522-1.191,0.897c-0.321,0.375-0.566,0.81-0.734,1.304
        c-0.169,0.495-0.253,1.014-0.253,1.556c0,0.543,0.084,1.062,0.253,1.556c0.168,0.495,0.413,0.934,0.734,1.316
        c0.321,0.383,0.718,0.686,1.191,0.909c0.473,0.224,1.015,0.335,1.625,0.335c0.61,0,1.151-0.111,1.625-0.335
        s0.871-0.526,1.192-0.909s0.565-0.821,0.734-1.316C114.199,20.042,114.283,19.523,114.283,18.98z"/>
    <path fill="#666666" d="M119.251,14.577c-0.016-0.48-0.04-0.904-0.072-1.272h2.136c0.032,0.288,0.056,0.62,0.072,0.996
        c0.016,0.376,0.024,0.684,0.024,0.924h0.072c0.32-0.672,0.788-1.212,1.404-1.62c0.616-0.408,1.308-0.612,2.076-0.612
        c0.352,0,0.648,0.033,0.888,0.097l-0.096,2.088c-0.32-0.08-0.664-0.12-1.032-0.12c-0.544,0-1.016,0.101-1.416,0.3
        c-0.4,0.2-0.732,0.468-0.996,0.805c-0.264,0.336-0.46,0.724-0.588,1.163c-0.128,0.44-0.192,0.9-0.192,1.381v5.976h-2.256v-8.928
        C119.275,15.449,119.267,15.056,119.251,14.577z"/>
    <path fill="#666666" d="M128.419,26.625c0.496,0.56,1.116,1.008,1.86,1.344c0.744,0.336,1.508,0.504,2.292,0.504
        c0.752,0,1.384-0.108,1.896-0.324s0.924-0.512,1.236-0.888s0.536-0.82,0.672-1.332c0.136-0.513,0.204-1.064,0.204-1.656v-1.464
        h-0.048c-0.416,0.641-0.984,1.128-1.704,1.464c-0.72,0.336-1.488,0.504-2.304,0.504c-0.864,0-1.652-0.151-2.364-0.456
        c-0.712-0.304-1.316-0.72-1.812-1.248c-0.496-0.527-0.88-1.147-1.152-1.859s-0.408-1.477-0.408-2.292
        c0-0.816,0.136-1.584,0.408-2.305c0.272-0.72,0.656-1.348,1.152-1.884c0.496-0.535,1.096-0.96,1.8-1.271
        c0.704-0.312,1.488-0.469,2.352-0.469c0.816,0,1.596,0.177,2.34,0.528c0.744,0.353,1.332,0.888,1.764,1.608h0.048v-1.824h2.184
        v10.8c0,0.832-0.104,1.628-0.312,2.388c-0.208,0.76-0.56,1.433-1.056,2.017s-1.144,1.052-1.944,1.404
        c-0.8,0.352-1.792,0.527-2.976,0.527c-0.992,0-1.988-0.18-2.988-0.54c-1-0.359-1.86-0.868-2.58-1.523L128.419,26.625z
         M129.091,18.873c0,0.527,0.084,1.031,0.253,1.512c0.168,0.479,0.417,0.904,0.746,1.271c0.329,0.369,0.726,0.664,1.192,0.889
        c0.465,0.224,0.995,0.336,1.589,0.336c0.577,0,1.107-0.104,1.589-0.312c0.481-0.207,0.891-0.491,1.228-0.852
        s0.598-0.784,0.782-1.272c0.185-0.487,0.277-1.012,0.277-1.571c0-0.544-0.093-1.057-0.277-1.536
        c-0.185-0.48-0.449-0.904-0.794-1.272c-0.345-0.367-0.755-0.66-1.228-0.876c-0.474-0.216-1-0.324-1.577-0.324
        c-0.594,0-1.124,0.108-1.589,0.324c-0.466,0.216-0.863,0.504-1.192,0.864s-0.578,0.784-0.746,1.271
        C129.175,17.812,129.091,18.329,129.091,18.873z"/>
</g>
<g><a xlink:href="/" pointer-events="all" target="_top"><polygon fill="none" points="0,0 145,0 145,35 0,35 0,0"/></a></g>

</g>


<!-- ArrayLiteralConvertible -->
<g id="node1" class="node">
<g id="a_node1"><a xlink:href="/v2.0/protocol/ArrayLiteralConvertible/" target="_top">
<path fill="#999999" stroke="#999999" d="M348.705,-138C348.705,-138 231.295,-138 231.295,-138 227.629,-138 223.962,-134.333 223.962,-130.667 223.962,-130.667 223.962,-123.333 223.962,-123.333 223.962,-119.667 227.629,-116 231.295,-116 231.295,-116 348.705,-116 348.705,-116 352.371,-116 356.038,-119.667 356.038,-123.333 356.038,-123.333 356.038,-130.667 356.038,-130.667 356.038,-134.333 352.371,-138 348.705,-138"/>
<text text-anchor="middle" x="290" y="-123.4" font-family="Helvetica,sans-Serif" font-size="12.00" fill="white">ArrayLiteralConvertible</text>
</a>
</g>
</g>
<!-- ArraySlice&lt;Element&gt; -->
<g id="node2" class="node">
<g id="a_node2"><a xlink:href="/v2.0/type/ArraySlice/" target="_top">
<polygon fill="#ee543d" stroke="#ee543d" points="530.038,-22 407.962,-22 407.962,-0 530.038,-0 530.038,-22"/>
<text text-anchor="middle" x="469" y="-7.4" font-family="Helvetica,sans-Serif" font-size="12.00" fill="white">ArraySlice&lt;Element&gt;</text>
</a>
</g>
</g>
<!-- ArrayLiteralConvertible&#45;&gt;ArraySlice&lt;Element&gt; -->
<g id="edge7" class="edge">
<path fill="none" stroke="#cccccc" d="M294.214,-115.701C300.786,-100.876 314.845,-73.5918 335,-58 355.348,-42.2591 381.436,-31.7021 405.177,-24.7205"/>
<polygon fill="#cccccc" stroke="#cccccc" points="406.14,-28.0859 414.836,-22.0342 404.264,-21.3419 406.14,-28.0859"/>
</g>
<!-- _ArrayType -->
<g id="node12" class="node">
<g id="a_node12"><a xlink:href="/v2.0/protocol/_ArrayType/" target="_top">
<path fill="#999999" stroke="#999999" d="M408.19,-80C408.19,-80 351.81,-80 351.81,-80 348.144,-80 344.477,-76.3333 344.477,-72.6667 344.477,-72.6667 344.477,-65.3333 344.477,-65.3333 344.477,-61.6667 348.144,-58 351.81,-58 351.81,-58 408.19,-58 408.19,-58 411.856,-58 415.523,-61.6667 415.523,-65.3333 415.523,-65.3333 415.523,-72.6667 415.523,-72.6667 415.523,-76.3333 411.856,-80 408.19,-80"/>
<text text-anchor="middle" x="380" y="-65.4" font-family="Helvetica,sans-Serif" font-size="12.00" fill="white">_ArrayType</text>
</a>
</g>
</g>
<!-- ArrayLiteralConvertible&#45;&gt;_ArrayType -->
<g id="edge20" class="edge">
<path fill="none" stroke="#cccccc" d="M306.09,-115.988C319.7,-107.52 339.427,-95.2452 355.079,-85.5067"/>
<polygon fill="#cccccc" stroke="#cccccc" points="357.104,-88.3686 363.746,-80.1138 353.406,-82.4252 357.104,-88.3686"/>
</g>
<!-- CollectionType -->
<g id="node3" class="node">
<g id="a_node3"><a xlink:href="/v2.0/protocol/CollectionType/" target="_top">
<path fill="#999999" stroke="#999999" d="M301.704,-254C301.704,-254 228.296,-254 228.296,-254 224.63,-254 220.963,-250.333 220.963,-246.667 220.963,-246.667 220.963,-239.333 220.963,-239.333 220.963,-235.667 224.63,-232 228.296,-232 228.296,-232 301.704,-232 301.704,-232 305.37,-232 309.037,-235.667 309.037,-239.333 309.037,-239.333 309.037,-246.667 309.037,-246.667 309.037,-250.333 305.37,-254 301.704,-254"/>
<text text-anchor="middle" x="265" y="-239.4" font-family="Helvetica,sans-Serif" font-size="12.00" fill="white">CollectionType</text>
</a>
</g>
</g>
<!-- CollectionType&#45;&gt;ArraySlice&lt;Element&gt; -->
<g id="edge3" class="edge">
<path fill="none" stroke="#cccccc" d="M309.165,-242.001C378.742,-239.317 512.197,-222.706 573,-138 603.076,-96.1008 537.956,-50.1536 497.701,-27.0481"/>
<polygon fill="#cccccc" stroke="#cccccc" points="499.24,-23.8989 488.803,-22.0771 495.826,-30.0099 499.24,-23.8989"/>
</g>
<!-- MutableCollectionType -->
<g id="node7" class="node">
<g id="a_node7"><a xlink:href="/v2.0/protocol/MutableCollectionType/" target="_top">
<path fill="#999999" stroke="#999999" d="M201.221,-196C201.221,-196 84.7791,-196 84.7791,-196 81.1124,-196 77.4458,-192.333 77.4458,-188.667 77.4458,-188.667 77.4458,-181.333 77.4458,-181.333 77.4458,-177.667 81.1124,-174 84.7791,-174 84.7791,-174 201.221,-174 201.221,-174 204.888,-174 208.554,-177.667 208.554,-181.333 208.554,-181.333 208.554,-188.667 208.554,-188.667 208.554,-192.333 204.888,-196 201.221,-196"/>
<text text-anchor="middle" x="143" y="-181.4" font-family="Helvetica,sans-Serif" font-size="12.00" fill="white">MutableCollectionType</text>
</a>
</g>
</g>
<!-- CollectionType&#45;&gt;MutableCollectionType -->
<g id="edge17" class="edge">
<path fill="none" stroke="#cccccc" d="M243.189,-231.988C223.964,-223.164 195.735,-210.206 174.136,-200.292"/>
<polygon fill="#cccccc" stroke="#cccccc" points="175.582,-197.105 165.034,-196.114 172.662,-203.466 175.582,-197.105"/>
</g>
<!-- MutableSliceable -->
<g id="node9" class="node">
<g id="a_node9"><a xlink:href="/v2.0/protocol/MutableSliceable/" target="_top">
<path fill="#999999" stroke="#999999" d="M198.208,-138C198.208,-138 111.792,-138 111.792,-138 108.126,-138 104.459,-134.333 104.459,-130.667 104.459,-130.667 104.459,-123.333 104.459,-123.333 104.459,-119.667 108.126,-116 111.792,-116 111.792,-116 198.208,-116 198.208,-116 201.874,-116 205.541,-119.667 205.541,-123.333 205.541,-123.333 205.541,-130.667 205.541,-130.667 205.541,-134.333 201.874,-138 198.208,-138"/>
<text text-anchor="middle" x="155" y="-123.4" font-family="Helvetica,sans-Serif" font-size="12.00" fill="white">MutableSliceable</text>
</a>
</g>
</g>
<!-- CollectionType&#45;&gt;MutableSliceable -->
<g id="edge22" class="edge">
<path fill="none" stroke="#cccccc" d="M259.073,-231.559C250.794,-217.513 234.77,-192.195 217,-174 205.956,-162.691 191.929,-152.039 180.011,-143.839"/>
<polygon fill="#cccccc" stroke="#cccccc" points="181.652,-140.726 171.393,-138.076 177.76,-146.544 181.652,-140.726"/>
</g>
<!-- RangeReplaceableCollectionType -->
<g id="node10" class="node">
<g id="a_node10"><a xlink:href="/v2.0/protocol/RangeReplaceableCollectionType/" target="_top">
<path fill="#999999" stroke="#999999" d="M556.76,-138C556.76,-138 381.24,-138 381.24,-138 377.573,-138 373.906,-134.333 373.906,-130.667 373.906,-130.667 373.906,-123.333 373.906,-123.333 373.906,-119.667 377.573,-116 381.24,-116 381.24,-116 556.76,-116 556.76,-116 560.427,-116 564.094,-119.667 564.094,-123.333 564.094,-123.333 564.094,-130.667 564.094,-130.667 564.094,-134.333 560.427,-138 556.76,-138"/>
<text text-anchor="middle" x="469" y="-123.4" font-family="Helvetica,sans-Serif" font-size="12.00" fill="white">RangeReplaceableCollectionType</text>
</a>
</g>
</g>
<!-- CollectionType&#45;&gt;RangeReplaceableCollectionType -->
<g id="edge21" class="edge">
<path fill="none" stroke="#cccccc" d="M283.104,-231.883C319.094,-211.771 399.798,-166.672 442.047,-143.062"/>
<polygon fill="#cccccc" stroke="#cccccc" points="443.915,-146.028 450.937,-138.094 440.5,-139.917 443.915,-146.028"/>
</g>
<!-- CustomDebugStringConvertible -->
<g id="node4" class="node">
<g id="a_node4"><a xlink:href="/v2.0/protocol/CustomDebugStringConvertible/" target="_top">
<path fill="#999999" stroke="#999999" d="M828.73,-80C828.73,-80 665.27,-80 665.27,-80 661.604,-80 657.937,-76.3333 657.937,-72.6667 657.937,-72.6667 657.937,-65.3333 657.937,-65.3333 657.937,-61.6667 661.604,-58 665.27,-58 665.27,-58 828.73,-58 828.73,-58 832.396,-58 836.063,-61.6667 836.063,-65.3333 836.063,-65.3333 836.063,-72.6667 836.063,-72.6667 836.063,-76.3333 832.396,-80 828.73,-80"/>
<text text-anchor="middle" x="747" y="-65.4" font-family="Helvetica,sans-Serif" font-size="12.00" fill="white">CustomDebugStringConvertible</text>
</a>
</g>
</g>
<!-- CustomDebugStringConvertible&#45;&gt;ArraySlice&lt;Element&gt; -->
<g id="edge13" class="edge">
<path fill="none" stroke="#cccccc" d="M697.299,-57.9883C650.105,-48.4816 579.095,-34.1773 528.819,-24.05"/>
<polygon fill="#cccccc" stroke="#cccccc" points="529.233,-20.563 518.738,-22.0192 527.85,-27.4251 529.233,-20.563"/>
</g>
<!-- CustomStringConvertible -->
<g id="node5" class="node">
<g id="a_node5"><a xlink:href="/v2.0/protocol/CustomStringConvertible/" target="_top">
<path fill="#999999" stroke="#999999" d="M990.208,-80C990.208,-80 861.792,-80 861.792,-80 858.126,-80 854.459,-76.3333 854.459,-72.6667 854.459,-72.6667 854.459,-65.3333 854.459,-65.3333 854.459,-61.6667 858.126,-58 861.792,-58 861.792,-58 990.208,-58 990.208,-58 993.874,-58 997.541,-61.6667 997.541,-65.3333 997.541,-65.3333 997.541,-72.6667 997.541,-72.6667 997.541,-76.3333 993.874,-80 990.208,-80"/>
<text text-anchor="middle" x="926" y="-65.4" font-family="Helvetica,sans-Serif" font-size="12.00" fill="white">CustomStringConvertible</text>
</a>
</g>
</g>
<!-- CustomStringConvertible&#45;&gt;ArraySlice&lt;Element&gt; -->
<g id="edge12" class="edge">
<path fill="none" stroke="#cccccc" d="M854.447,-59.162C851.254,-58.769 848.094,-58.3802 845,-58 739.02,-44.9752 616.226,-29.9684 540.576,-20.7329"/>
<polygon fill="#cccccc" stroke="#cccccc" points="540.572,-17.2065 530.221,-19.4689 539.723,-24.1549 540.572,-17.2065"/>
</g>
<!-- Indexable -->
<g id="node6" class="node">
<g id="a_node6"><a xlink:href="/v2.0/protocol/Indexable/" target="_top">
<path fill="#999999" stroke="#999999" d="M198.699,-312C198.699,-312 151.301,-312 151.301,-312 147.634,-312 143.968,-308.333 143.968,-304.667 143.968,-304.667 143.968,-297.333 143.968,-297.333 143.968,-293.667 147.634,-290 151.301,-290 151.301,-290 198.699,-290 198.699,-290 202.366,-290 206.032,-293.667 206.032,-297.333 206.032,-297.333 206.032,-304.667 206.032,-304.667 206.032,-308.333 202.366,-312 198.699,-312"/>
<text text-anchor="middle" x="175" y="-297.4" font-family="Helvetica,sans-Serif" font-size="12.00" fill="white">Indexable</text>
</a>
</g>
</g>
<!-- Indexable&#45;&gt;ArraySlice&lt;Element&gt; -->
<g id="edge1" class="edge">
<path fill="none" stroke="#cccccc" d="M143.714,-294.397C93.3773,-283.38 0,-253.806 0,-186 0,-186 0,-186 0,-126 0,-45.2308 265.958,-21.4605 397.318,-14.646"/>
<polygon fill="#cccccc" stroke="#cccccc" points="397.873,-18.1228 407.686,-14.1289 397.524,-11.1315 397.873,-18.1228"/>
</g>
<!-- Indexable&#45;&gt;CollectionType -->
<g id="edge14" class="edge">
<path fill="none" stroke="#cccccc" d="M191.09,-289.988C204.7,-281.52 224.427,-269.245 240.079,-259.507"/>
<polygon fill="#cccccc" stroke="#cccccc" points="242.104,-262.369 248.746,-254.114 238.406,-256.425 242.104,-262.369"/>
</g>
<!-- MutableCollectionType&#45;&gt;ArraySlice&lt;Element&gt; -->
<g id="edge4" class="edge">
<path fill="none" stroke="#cccccc" d="M126.931,-173.871C107.914,-160.594 80.5443,-136.573 95,-116 129.709,-66.6035 299.014,-35.4095 397.523,-21.1336"/>
<polygon fill="#cccccc" stroke="#cccccc" points="398.301,-24.5582 407.706,-19.6814 397.312,-17.6283 398.301,-24.5582"/>
</g>
<!-- MutableCollectionType&#45;&gt;MutableSliceable -->
<g id="edge23" class="edge">
<path fill="none" stroke="#cccccc" d="M145.145,-173.988C146.679,-166.831 148.795,-156.955 150.674,-148.189"/>
<polygon fill="#cccccc" stroke="#cccccc" points="154.119,-148.815 152.792,-138.304 147.274,-147.349 154.119,-148.815"/>
</g>
<!-- MutableIndexable -->
<g id="node8" class="node">
<g id="a_node8"><a xlink:href="/v2.0/protocol/MutableIndexable/" target="_top">
<path fill="#999999" stroke="#999999" d="M168.718,-254C168.718,-254 79.2818,-254 79.2818,-254 75.6151,-254 71.9484,-250.333 71.9484,-246.667 71.9484,-246.667 71.9484,-239.333 71.9484,-239.333 71.9484,-235.667 75.6151,-232 79.2818,-232 79.2818,-232 168.718,-232 168.718,-232 172.385,-232 176.052,-235.667 176.052,-239.333 176.052,-239.333 176.052,-246.667 176.052,-246.667 176.052,-250.333 172.385,-254 168.718,-254"/>
<text text-anchor="middle" x="124" y="-239.4" font-family="Helvetica,sans-Serif" font-size="12.00" fill="white">MutableIndexable</text>
</a>
</g>
</g>
<!-- MutableIndexable&#45;&gt;ArraySlice&lt;Element&gt; -->
<g id="edge5" class="edge">
<path fill="none" stroke="#cccccc" d="M104.284,-231.865C91.3412,-224.014 75.4738,-211.811 68,-196 63.8214,-187.16 66.4588,-183.656 68,-174 77.9115,-111.905 92.3091,-85.205 149,-58 191.703,-37.5075 317.195,-24.0413 397.748,-17.2441"/>
<polygon fill="#cccccc" stroke="#cccccc" points="398.15,-20.7228 407.827,-16.4085 397.572,-13.7467 398.15,-20.7228"/>
</g>
<!-- MutableIndexable&#45;&gt;MutableCollectionType -->
<g id="edge16" class="edge">
<path fill="none" stroke="#cccccc" d="M127.397,-231.988C129.852,-224.752 133.25,-214.737 136.248,-205.9"/>
<polygon fill="#cccccc" stroke="#cccccc" points="139.605,-206.898 139.504,-196.304 132.977,-204.649 139.605,-206.898"/>
</g>
<!-- MutableSliceable&#45;&gt;ArraySlice&lt;Element&gt; -->
<g id="edge9" class="edge">
<path fill="none" stroke="#cccccc" d="M175.995,-115.915C205.797,-101.828 262.276,-75.9745 312,-58 347.672,-45.105 388.852,-33.1455 420.085,-24.6547"/>
<polygon fill="#cccccc" stroke="#cccccc" points="421.111,-28.0032 429.857,-22.023 419.29,-21.244 421.111,-28.0032"/>
</g>
<!-- MutableSliceable&#45;&gt;_ArrayType -->
<g id="edge19" class="edge">
<path fill="none" stroke="#cccccc" d="M195.225,-115.988C234.379,-106.244 293.786,-91.4578 334.61,-81.297"/>
<polygon fill="#cccccc" stroke="#cccccc" points="335.707,-84.631 344.565,-78.8193 334.016,-77.8382 335.707,-84.631"/>
</g>
<!-- RangeReplaceableCollectionType&#45;&gt;ArraySlice&lt;Element&gt; -->
<g id="edge10" class="edge">
<path fill="none" stroke="#cccccc" d="M469,-115.883C469,-97.1703 469,-56.8266 469,-32.2866"/>
<polygon fill="#cccccc" stroke="#cccccc" points="472.5,-32.2579 469,-22.2579 465.5,-32.258 472.5,-32.2579"/>
</g>
<!-- RangeReplaceableCollectionType&#45;&gt;_ArrayType -->
<g id="edge18" class="edge">
<path fill="none" stroke="#cccccc" d="M453.089,-115.988C439.63,-107.52 420.122,-95.2452 404.645,-85.5067"/>
<polygon fill="#cccccc" stroke="#cccccc" points="406.402,-82.4771 396.074,-80.1138 402.674,-88.4018 406.402,-82.4771"/>
</g>
<!-- SequenceType -->
<g id="node11" class="node">
<g id="a_node11"><a xlink:href="/v2.0/protocol/SequenceType/" target="_top">
<path fill="#999999" stroke="#999999" d="M391.718,-312C391.718,-312 316.282,-312 316.282,-312 312.615,-312 308.949,-308.333 308.949,-304.667 308.949,-304.667 308.949,-297.333 308.949,-297.333 308.949,-293.667 312.615,-290 316.282,-290 316.282,-290 391.718,-290 391.718,-290 395.385,-290 399.051,-293.667 399.051,-297.333 399.051,-297.333 399.051,-304.667 399.051,-304.667 399.051,-308.333 395.385,-312 391.718,-312"/>
<text text-anchor="middle" x="354" y="-297.4" font-family="Helvetica,sans-Serif" font-size="12.00" fill="white">SequenceType</text>
</a>
</g>
</g>
<!-- SequenceType&#45;&gt;ArraySlice&lt;Element&gt; -->
<g id="edge2" class="edge">
<path fill="none" stroke="#cccccc" d="M399.267,-300.822C477.567,-299.626 630,-284.632 630,-186 630,-186 630,-186 630,-126 630,-71.4833 567.754,-40.6875 520.67,-25.1912"/>
<polygon fill="#cccccc" stroke="#cccccc" points="521.47,-21.7739 510.881,-22.1136 519.371,-28.4517 521.47,-21.7739"/>
</g>
<!-- SequenceType&#45;&gt;CollectionType -->
<g id="edge15" class="edge">
<path fill="none" stroke="#cccccc" d="M338.089,-289.988C324.63,-281.52 305.122,-269.245 289.645,-259.507"/>
<polygon fill="#cccccc" stroke="#cccccc" points="291.402,-256.477 281.074,-254.114 287.674,-262.402 291.402,-256.477"/>
</g>
<!-- _ArrayType&#45;&gt;ArraySlice&lt;Element&gt; -->
<g id="edge8" class="edge">
<path fill="none" stroke="#cccccc" d="M395.911,-57.9883C409.37,-49.5201 428.878,-37.2452 444.355,-27.5067"/>
<polygon fill="#cccccc" stroke="#cccccc" points="446.326,-30.4018 452.926,-22.1138 442.598,-24.4771 446.326,-30.4018"/>
</g>
<!-- _DestructorSafeContainer -->
<g id="node13" class="node">
<g id="a_node13"><a xlink:href="/v2.0/protocol/_DestructorSafeContainer/" target="_top">
<path fill="#999999" stroke="#999999" d="M1156.72,-80C1156.72,-80 1023.28,-80 1023.28,-80 1019.61,-80 1015.95,-76.3333 1015.95,-72.6667 1015.95,-72.6667 1015.95,-65.3333 1015.95,-65.3333 1015.95,-61.6667 1019.61,-58 1023.28,-58 1023.28,-58 1156.72,-58 1156.72,-58 1160.39,-58 1164.05,-61.6667 1164.05,-65.3333 1164.05,-65.3333 1164.05,-72.6667 1164.05,-72.6667 1164.05,-76.3333 1160.39,-80 1156.72,-80"/>
<text text-anchor="middle" x="1090" y="-65.4" font-family="Helvetica,sans-Serif" font-size="12.00" fill="white">_DestructorSafeContainer</text>
</a>
</g>
</g>
<!-- _DestructorSafeContainer&#45;&gt;ArraySlice&lt;Element&gt; -->
<g id="edge6" class="edge">
<path fill="none" stroke="#cccccc" d="M1015.81,-59.0333C1012.5,-58.6751 1009.21,-58.3289 1006,-58 839.511,-40.9639 643.536,-25.2788 540.545,-17.3728"/>
<polygon fill="#cccccc" stroke="#cccccc" points="540.505,-13.8596 530.267,-16.586 539.971,-20.8392 540.505,-13.8596"/>
</g>
<!-- _Reflectable -->
<g id="node14" class="node">
<g id="a_node14"><a xlink:href="/v2.0/protocol/_Reflectable/" target="_top">
<path fill="#999999" stroke="#999999" d="M1251.7,-80C1251.7,-80 1190.3,-80 1190.3,-80 1186.63,-80 1182.97,-76.3333 1182.97,-72.6667 1182.97,-72.6667 1182.97,-65.3333 1182.97,-65.3333 1182.97,-61.6667 1186.63,-58 1190.3,-58 1190.3,-58 1251.7,-58 1251.7,-58 1255.37,-58 1259.03,-61.6667 1259.03,-65.3333 1259.03,-65.3333 1259.03,-72.6667 1259.03,-72.6667 1259.03,-76.3333 1255.37,-80 1251.7,-80"/>
<text text-anchor="middle" x="1221" y="-65.4" font-family="Helvetica,sans-Serif" font-size="12.00" fill="white">_Reflectable</text>
</a>
</g>
</g>
<!-- _Reflectable&#45;&gt;ArraySlice&lt;Element&gt; -->
<g id="edge11" class="edge">
<path fill="none" stroke="#cccccc" d="M1182.83,-59.5449C1179.52,-58.9636 1176.21,-58.4364 1173,-58 943.173,-26.7081 668.135,-16.5401 540.537,-13.367"/>
<polygon fill="#cccccc" stroke="#cccccc" points="540.58,-9.86708 530.498,-13.1243 540.411,-16.865 540.58,-9.86708"/>
</g>
</g>
</svg>
