<?xml version="1.0" encoding="UTF-8" standalone="no"?>
<!DOCTYPE svg PUBLIC "-//W3C//DTD SVG 1.1//EN"
 "http://www.w3.org/Graphics/SVG/1.1/DTD/svg11.dtd">
<!-- Generated by graphviz version 2.36.0 (20140111.2315)
 -->
<!-- Title: String &#45; Type Hierarchy &#45; SwiftDoc.org Pages: 1 -->
<svg width="1389pt" height="311pt"
 viewBox="0.00 0.00 1389.40 311.20" xmlns="http://www.w3.org/2000/svg" xmlns:xlink="http://www.w3.org/1999/xlink">
<g id="graph0" class="graph" transform="scale(1 1) rotate(0) translate(7.2 253.6)">
<g transform="translate(0 -253.6)">
<g>
    <path fill="#666666" d="M13.846,10.832c-0.336-0.464-0.792-0.844-1.368-1.14s-1.224-0.444-1.944-0.444
        c-0.384,0-0.772,0.052-1.164,0.156C8.977,9.509,8.622,9.677,8.301,9.908c-0.32,0.232-0.58,0.52-0.78,0.864
        c-0.2,0.344-0.3,0.756-0.3,1.236c0,0.464,0.092,0.852,0.276,1.164c0.184,0.312,0.432,0.576,0.744,0.792s0.68,0.4,1.104,0.552
        c0.423,0.152,0.876,0.309,1.356,0.468c0.576,0.177,1.16,0.376,1.752,0.601c0.592,0.224,1.128,0.52,1.608,0.888
        s0.872,0.828,1.176,1.38s0.456,1.252,0.456,2.101c0,0.88-0.164,1.644-0.492,2.292c-0.328,0.647-0.765,1.184-1.308,1.607
        c-0.544,0.424-1.172,0.74-1.884,0.948s-1.444,0.312-2.196,0.312c-1.072,0-2.108-0.208-3.108-0.624
        c-1-0.415-1.828-1.031-2.484-1.848l1.848-1.56c0.4,0.592,0.936,1.071,1.608,1.439c0.672,0.368,1.399,0.552,2.184,0.552
        c0.4,0,0.8-0.056,1.2-0.168c0.4-0.111,0.764-0.288,1.092-0.527c0.328-0.24,0.596-0.54,0.804-0.9
        c0.208-0.36,0.312-0.796,0.312-1.308s-0.108-0.94-0.324-1.284c-0.216-0.344-0.508-0.636-0.876-0.876s-0.796-0.444-1.284-0.612
        c-0.488-0.168-1.004-0.34-1.548-0.516c-0.544-0.16-1.08-0.356-1.608-0.588c-0.528-0.232-1-0.528-1.416-0.889
        c-0.416-0.359-0.752-0.804-1.008-1.332c-0.256-0.527-0.384-1.184-0.384-1.968c0-0.848,0.172-1.576,0.516-2.184
        c0.344-0.608,0.792-1.112,1.344-1.512c0.552-0.4,1.176-0.692,1.872-0.876c0.696-0.184,1.396-0.276,2.1-0.276
        c0.992,0,1.92,0.176,2.784,0.528c0.864,0.352,1.56,0.824,2.088,1.416L13.846,10.832z"/>
    <path fill="#666666" d="M18.813,13.304l2.568,8.688h0.048l2.712-8.688h2.376l2.76,8.688h0.048l2.568-8.688h2.376L30.501,24.68
        h-2.352l-2.808-8.544h-0.048l-2.784,8.544h-2.352l-3.792-11.376H18.813z"/>
    <path fill="#666666" d="M38.685,9.2c0,0.416-0.147,0.76-0.44,1.032c-0.294,0.272-0.647,0.408-1.06,0.408s-0.762-0.14-1.047-0.42
        c-0.286-0.28-0.429-0.62-0.429-1.02c0-0.416,0.143-0.764,0.429-1.044c0.286-0.28,0.635-0.42,1.047-0.42s0.766,0.14,1.06,0.42
        C38.538,8.437,38.685,8.784,38.685,9.2z M38.325,24.68h-2.256V13.304h2.256V24.68z"/>
    <path fill="#666666" d="M47.613,15.152h-2.64v9.528h-2.256v-9.528h-2.256v-1.848h2.256v-2.376c0-0.672,0.076-1.292,0.228-1.86
        c0.152-0.568,0.4-1.06,0.744-1.476c0.344-0.416,0.784-0.744,1.32-0.984c0.536-0.24,1.188-0.36,1.956-0.36
        c0.544,0,1.016,0.056,1.416,0.168l-0.264,1.944c-0.176-0.048-0.352-0.088-0.528-0.12c-0.176-0.032-0.376-0.048-0.6-0.048
        c-0.432,0-0.78,0.076-1.044,0.228c-0.264,0.152-0.468,0.356-0.612,0.612s-0.24,0.548-0.288,0.876
        c-0.048,0.328-0.072,0.668-0.072,1.02v2.376h2.64V15.152z"/>
    <path fill="#666666" d="M54.909,15.152h-3.024v5.91c0,0.687,0.128,1.177,0.384,1.472c0.256,0.295,0.664,0.442,1.224,0.442
        c0.208,0,0.432-0.021,0.672-0.065c0.24-0.044,0.456-0.11,0.648-0.198l0.072,1.848c-0.272,0.096-0.572,0.172-0.9,0.229
        c-0.328,0.056-0.668,0.084-1.02,0.084c-1.072,0-1.892-0.296-2.46-0.889c-0.568-0.592-0.852-1.479-0.852-2.664v-6.168h-2.184
        v-1.848h2.184V10.04h2.232v3.264h3.024V15.152z"/>
    <path fill="#666666" d="M57.356,7.688h5.832c1.088,0,2.176,0.16,3.264,0.48c1.088,0.32,2.072,0.824,2.952,1.512
        s1.592,1.568,2.136,2.64c0.544,1.072,0.816,2.36,0.816,3.864c0,1.456-0.272,2.716-0.816,3.78s-1.256,1.943-2.136,2.64
        s-1.864,1.216-2.952,1.561c-1.088,0.344-2.176,0.516-3.264,0.516h-5.832V7.688z M59.732,22.593h2.976
        c1.024,0,1.972-0.145,2.844-0.432c0.872-0.288,1.624-0.704,2.256-1.248c0.632-0.544,1.124-1.216,1.476-2.017
        c0.352-0.8,0.528-1.704,0.528-2.712c0-1.056-0.176-1.983-0.528-2.784c-0.353-0.8-0.844-1.468-1.476-2.004
        c-0.632-0.536-1.384-0.944-2.256-1.224s-1.82-0.42-2.844-0.42h-2.976V22.593z"/>
    <path fill="#666666" d="M86.06,18.969c0,0.88-0.156,1.688-0.468,2.424c-0.312,0.736-0.744,1.372-1.296,1.908
        c-0.552,0.536-1.204,0.952-1.956,1.248c-0.752,0.296-1.56,0.443-2.424,0.443c-0.864,0-1.672-0.147-2.424-0.443
        c-0.752-0.296-1.4-0.712-1.944-1.248c-0.544-0.536-0.972-1.172-1.284-1.908c-0.312-0.735-0.468-1.544-0.468-2.424
        s0.156-1.684,0.468-2.412c0.312-0.728,0.74-1.356,1.284-1.884c0.543-0.528,1.191-0.939,1.944-1.236
        c0.752-0.296,1.56-0.444,2.424-0.444c0.864,0,1.672,0.148,2.424,0.444c0.752,0.297,1.404,0.708,1.956,1.236
        c0.552,0.527,0.984,1.156,1.296,1.884C85.904,17.285,86.06,18.089,86.06,18.969z M83.708,18.98c0-0.542-0.084-1.061-0.252-1.556
        c-0.169-0.494-0.414-0.929-0.734-1.304s-0.718-0.674-1.192-0.897s-1.015-0.335-1.625-0.335c-0.61,0-1.152,0.111-1.625,0.335
        c-0.474,0.224-0.871,0.522-1.191,0.897c-0.321,0.375-0.566,0.81-0.734,1.304C76.184,17.92,76.1,18.438,76.1,18.98
        c0,0.543,0.084,1.062,0.253,1.556c0.168,0.495,0.413,0.934,0.734,1.316c0.321,0.383,0.718,0.686,1.191,0.909
        c0.473,0.224,1.015,0.335,1.625,0.335c0.61,0,1.151-0.111,1.625-0.335s0.871-0.526,1.192-0.909s0.565-0.821,0.734-1.316
        C83.624,20.042,83.708,19.523,83.708,18.98z"/>
    <path fill="#666666" d="M96.428,16.184c-0.24-0.368-0.6-0.676-1.08-0.924s-0.992-0.372-1.536-0.372
        c-0.592,0-1.116,0.112-1.572,0.336c-0.456,0.225-0.844,0.524-1.164,0.9c-0.32,0.376-0.564,0.812-0.732,1.308
        s-0.252,1.017-0.252,1.56c0,0.545,0.084,1.064,0.252,1.561s0.412,0.933,0.732,1.308c0.32,0.376,0.712,0.677,1.176,0.9
        c0.464,0.225,0.992,0.336,1.584,0.336c0.576,0,1.1-0.111,1.572-0.336c0.472-0.224,0.86-0.528,1.164-0.912l1.512,1.368
        c-0.48,0.561-1.08,0.996-1.8,1.308c-0.72,0.312-1.536,0.468-2.448,0.468c-0.88,0-1.692-0.144-2.436-0.432
        c-0.744-0.288-1.388-0.691-1.932-1.212c-0.544-0.52-0.972-1.147-1.284-1.884s-0.468-1.561-0.468-2.473
        c0-0.896,0.152-1.711,0.456-2.447c0.304-0.736,0.728-1.368,1.272-1.896c0.543-0.527,1.188-0.936,1.932-1.224
        c0.744-0.288,1.548-0.433,2.412-0.433c0.8,0,1.596,0.16,2.388,0.48s1.419,0.784,1.884,1.392L96.428,16.184z"/>
    <path fill="#666666" d="M103.1,23.24c0,0.417-0.152,0.784-0.456,1.104c-0.304,0.32-0.688,0.479-1.152,0.479
        c-0.448,0-0.828-0.155-1.14-0.468c-0.312-0.312-0.468-0.676-0.468-1.092c0-0.432,0.152-0.804,0.456-1.116
        c0.304-0.312,0.688-0.468,1.152-0.468c0.464,0,0.848,0.152,1.152,0.456C102.947,22.44,103.1,22.808,103.1,23.24z"/>
    <path fill="#666666" d="M116.635,18.969c0,0.88-0.156,1.688-0.468,2.424c-0.312,0.736-0.744,1.372-1.296,1.908
        c-0.552,0.536-1.204,0.952-1.956,1.248c-0.752,0.296-1.56,0.443-2.424,0.443c-0.864,0-1.672-0.147-2.424-0.443
        c-0.752-0.296-1.4-0.712-1.944-1.248c-0.544-0.536-0.972-1.172-1.284-1.908c-0.312-0.735-0.468-1.544-0.468-2.424
        s0.156-1.684,0.468-2.412c0.312-0.728,0.74-1.356,1.284-1.884c0.543-0.528,1.191-0.939,1.944-1.236
        c0.752-0.296,1.56-0.444,2.424-0.444c0.864,0,1.672,0.148,2.424,0.444c0.752,0.297,1.404,0.708,1.956,1.236
        c0.552,0.527,0.984,1.156,1.296,1.884C116.479,17.285,116.635,18.089,116.635,18.969z M114.283,18.98
        c0-0.542-0.084-1.061-0.252-1.556c-0.169-0.494-0.414-0.929-0.734-1.304s-0.718-0.674-1.192-0.897s-1.015-0.335-1.625-0.335
        c-0.61,0-1.152,0.111-1.625,0.335c-0.474,0.224-0.871,0.522-1.191,0.897c-0.321,0.375-0.566,0.81-0.734,1.304
        c-0.169,0.495-0.253,1.014-0.253,1.556c0,0.543,0.084,1.062,0.253,1.556c0.168,0.495,0.413,0.934,0.734,1.316
        c0.321,0.383,0.718,0.686,1.191,0.909c0.473,0.224,1.015,0.335,1.625,0.335c0.61,0,1.151-0.111,1.625-0.335
        s0.871-0.526,1.192-0.909s0.565-0.821,0.734-1.316C114.199,20.042,114.283,19.523,114.283,18.98z"/>
    <path fill="#666666" d="M119.251,14.577c-0.016-0.48-0.04-0.904-0.072-1.272h2.136c0.032,0.288,0.056,0.62,0.072,0.996
        c0.016,0.376,0.024,0.684,0.024,0.924h0.072c0.32-0.672,0.788-1.212,1.404-1.62c0.616-0.408,1.308-0.612,2.076-0.612
        c0.352,0,0.648,0.033,0.888,0.097l-0.096,2.088c-0.32-0.08-0.664-0.12-1.032-0.12c-0.544,0-1.016,0.101-1.416,0.3
        c-0.4,0.2-0.732,0.468-0.996,0.805c-0.264,0.336-0.46,0.724-0.588,1.163c-0.128,0.44-0.192,0.9-0.192,1.381v5.976h-2.256v-8.928
        C119.275,15.449,119.267,15.056,119.251,14.577z"/>
    <path fill="#666666" d="M128.419,26.625c0.496,0.56,1.116,1.008,1.86,1.344c0.744,0.336,1.508,0.504,2.292,0.504
        c0.752,0,1.384-0.108,1.896-0.324s0.924-0.512,1.236-0.888s0.536-0.82,0.672-1.332c0.136-0.513,0.204-1.064,0.204-1.656v-1.464
        h-0.048c-0.416,0.641-0.984,1.128-1.704,1.464c-0.72,0.336-1.488,0.504-2.304,0.504c-0.864,0-1.652-0.151-2.364-0.456
        c-0.712-0.304-1.316-0.72-1.812-1.248c-0.496-0.527-0.88-1.147-1.152-1.859s-0.408-1.477-0.408-2.292
        c0-0.816,0.136-1.584,0.408-2.305c0.272-0.72,0.656-1.348,1.152-1.884c0.496-0.535,1.096-0.96,1.8-1.271
        c0.704-0.312,1.488-0.469,2.352-0.469c0.816,0,1.596,0.177,2.34,0.528c0.744,0.353,1.332,0.888,1.764,1.608h0.048v-1.824h2.184
        v10.8c0,0.832-0.104,1.628-0.312,2.388c-0.208,0.76-0.56,1.433-1.056,2.017s-1.144,1.052-1.944,1.404
        c-0.8,0.352-1.792,0.527-2.976,0.527c-0.992,0-1.988-0.18-2.988-0.54c-1-0.359-1.86-0.868-2.58-1.523L128.419,26.625z
         M129.091,18.873c0,0.527,0.084,1.031,0.253,1.512c0.168,0.479,0.417,0.904,0.746,1.271c0.329,0.369,0.726,0.664,1.192,0.889
        c0.465,0.224,0.995,0.336,1.589,0.336c0.577,0,1.107-0.104,1.589-0.312c0.481-0.207,0.891-0.491,1.228-0.852
        s0.598-0.784,0.782-1.272c0.185-0.487,0.277-1.012,0.277-1.571c0-0.544-0.093-1.057-0.277-1.536
        c-0.185-0.48-0.449-0.904-0.794-1.272c-0.345-0.367-0.755-0.66-1.228-0.876c-0.474-0.216-1-0.324-1.577-0.324
        c-0.594,0-1.124,0.108-1.589,0.324c-0.466,0.216-0.863,0.504-1.192,0.864s-0.578,0.784-0.746,1.271
        C129.175,17.812,129.091,18.329,129.091,18.873z"/>
</g>
<g><a xlink:href="/" pointer-events="all" target="_top"><polygon fill="none" points="0,0 145,0 145,35 0,35 0,0"/></a></g>

</g>


<!-- Comparable -->
<g id="node1" class="node">
<g id="a_node1"><a xlink:href="/v2.1/protocol/Comparable/" target="_top">
<path fill="#999999" stroke="#999999" d="M264.191,-80C264.191,-80 203.809,-80 203.809,-80 200.142,-80 196.475,-76.3333 196.475,-72.6667 196.475,-72.6667 196.475,-65.3333 196.475,-65.3333 196.475,-61.6667 200.142,-58 203.809,-58 203.809,-58 264.191,-58 264.191,-58 267.858,-58 271.525,-61.6667 271.525,-65.3333 271.525,-65.3333 271.525,-72.6667 271.525,-72.6667 271.525,-76.3333 267.858,-80 264.191,-80"/>
<text text-anchor="middle" x="234" y="-65.4" font-family="Helvetica,sans-Serif" font-size="12.00" fill="white">Comparable</text>
</a>
</g>
</g>
<!-- String -->
<g id="node9" class="node">
<g id="a_node9"><a xlink:href="/v2.1/type/String/" target="_top">
<polygon fill="#ee543d" stroke="#ee543d" points="633,-22 579,-22 579,-0 633,-0 633,-22"/>
<text text-anchor="middle" x="606" y="-7.4" font-family="Helvetica,sans-Serif" font-size="12.00" fill="white">String</text>
</a>
</g>
</g>
<!-- Comparable&#45;&gt;String -->
<g id="edge9" class="edge">
<path fill="none" stroke="#cccccc" d="M271.41,-59.7972C274.648,-59.161 277.878,-58.5523 281,-58 384.755,-39.6422 508.173,-23.8063 568.726,-16.4259"/>
<polygon fill="#cccccc" stroke="#cccccc" points="569.428,-19.8664 578.935,-15.1892 568.587,-12.9172 569.428,-19.8664"/>
</g>
<!-- CustomDebugStringConvertible -->
<g id="node2" class="node">
<g id="a_node2"><a xlink:href="/v2.1/protocol/CustomDebugStringConvertible/" target="_top">
<path fill="#999999" stroke="#999999" d="M170.73,-80C170.73,-80 7.2704,-80 7.2704,-80 3.60373,-80 -0.0629365,-76.3333 -0.0629365,-72.6667 -0.0629365,-72.6667 -0.0629365,-65.3333 -0.0629365,-65.3333 -0.0629365,-61.6667 3.60373,-58 7.2704,-58 7.2704,-58 170.73,-58 170.73,-58 174.396,-58 178.063,-61.6667 178.063,-65.3333 178.063,-65.3333 178.063,-72.6667 178.063,-72.6667 178.063,-76.3333 174.396,-80 170.73,-80"/>
<text text-anchor="middle" x="89" y="-65.4" font-family="Helvetica,sans-Serif" font-size="12.00" fill="white">CustomDebugStringConvertible</text>
</a>
</g>
</g>
<!-- CustomDebugStringConvertible&#45;&gt;String -->
<g id="edge7" class="edge">
<path fill="none" stroke="#cccccc" d="M178.17,-58.3414C293.033,-45.8997 487.542,-24.8311 568.697,-16.0405"/>
<polygon fill="#cccccc" stroke="#cccccc" points="569.361,-19.4892 578.926,-14.9326 568.607,-12.5299 569.361,-19.4892"/>
</g>
<!-- Equatable -->
<g id="node3" class="node">
<g id="a_node3"><a xlink:href="/v2.1/protocol/Equatable/" target="_top">
<path fill="#999999" stroke="#999999" d="M304.702,-138C304.702,-138 255.298,-138 255.298,-138 251.632,-138 247.965,-134.333 247.965,-130.667 247.965,-130.667 247.965,-123.333 247.965,-123.333 247.965,-119.667 251.632,-116 255.298,-116 255.298,-116 304.702,-116 304.702,-116 308.368,-116 312.035,-119.667 312.035,-123.333 312.035,-123.333 312.035,-130.667 312.035,-130.667 312.035,-134.333 308.368,-138 304.702,-138"/>
<text text-anchor="middle" x="280" y="-123.4" font-family="Helvetica,sans-Serif" font-size="12.00" fill="white">Equatable</text>
</a>
</g>
</g>
<!-- Equatable&#45;&gt;Comparable -->
<g id="edge16" class="edge">
<path fill="none" stroke="#cccccc" d="M271.776,-115.988C265.445,-108.281 256.523,-97.4191 248.939,-88.187"/>
<polygon fill="#cccccc" stroke="#cccccc" points="251.516,-85.8096 242.464,-80.3039 246.107,-90.2528 251.516,-85.8096"/>
</g>
<!-- Hashable -->
<g id="node5" class="node">
<g id="a_node5"><a xlink:href="/v2.1/protocol/Hashable/" target="_top">
<path fill="#999999" stroke="#999999" d="M342.694,-80C342.694,-80 297.306,-80 297.306,-80 293.639,-80 289.973,-76.3333 289.973,-72.6667 289.973,-72.6667 289.973,-65.3333 289.973,-65.3333 289.973,-61.6667 293.639,-58 297.306,-58 297.306,-58 342.694,-58 342.694,-58 346.361,-58 350.027,-61.6667 350.027,-65.3333 350.027,-65.3333 350.027,-72.6667 350.027,-72.6667 350.027,-76.3333 346.361,-80 342.694,-80"/>
<text text-anchor="middle" x="320" y="-65.4" font-family="Helvetica,sans-Serif" font-size="12.00" fill="white">Hashable</text>
</a>
</g>
</g>
<!-- Equatable&#45;&gt;Hashable -->
<g id="edge17" class="edge">
<path fill="none" stroke="#cccccc" d="M287.151,-115.988C292.601,-108.359 300.257,-97.6405 306.807,-88.4702"/>
<polygon fill="#cccccc" stroke="#cccccc" points="309.676,-90.4756 312.64,-80.3039 303.98,-86.4069 309.676,-90.4756"/>
</g>
<!-- Equatable&#45;&gt;String -->
<g id="edge8" class="edge">
<path fill="none" stroke="#cccccc" d="M298.887,-115.814C326.265,-101.373 378.865,-74.8348 426,-58 474.311,-40.7454 532.07,-27.1753 568.89,-19.3715"/>
<polygon fill="#cccccc" stroke="#cccccc" points="569.621,-22.7944 578.695,-17.325 568.191,-15.9421 569.621,-22.7944"/>
</g>
<!-- ExtendedGraphemeClusterLiteralConvertible -->
<g id="node4" class="node">
<g id="a_node4"><a xlink:href="/v2.1/protocol/ExtendedGraphemeClusterLiteralConvertible/" target="_top">
<path fill="#999999" stroke="#999999" d="M570.762,-138C570.762,-138 337.238,-138 337.238,-138 333.572,-138 329.905,-134.333 329.905,-130.667 329.905,-130.667 329.905,-123.333 329.905,-123.333 329.905,-119.667 333.572,-116 337.238,-116 337.238,-116 570.762,-116 570.762,-116 574.428,-116 578.095,-119.667 578.095,-123.333 578.095,-123.333 578.095,-130.667 578.095,-130.667 578.095,-134.333 574.428,-138 570.762,-138"/>
<text text-anchor="middle" x="454" y="-123.4" font-family="Helvetica,sans-Serif" font-size="12.00" fill="white">ExtendedGraphemeClusterLiteralConvertible</text>
</a>
</g>
</g>
<!-- ExtendedGraphemeClusterLiteralConvertible&#45;&gt;String -->
<g id="edge5" class="edge">
<path fill="none" stroke="#cccccc" d="M446.086,-115.731C436.097,-101.428 421.726,-75.3165 435,-58 451.18,-36.892 523.602,-23.3037 568.85,-16.7126"/>
<polygon fill="#cccccc" stroke="#cccccc" points="569.475,-20.1592 578.89,-15.2995 568.499,-13.2275 569.475,-20.1592"/>
</g>
<!-- StringLiteralConvertible -->
<g id="node11" class="node">
<g id="a_node11"><a xlink:href="/v2.1/protocol/StringLiteralConvertible/" target="_top">
<path fill="#999999" stroke="#999999" d="M570.714,-80C570.714,-80 451.286,-80 451.286,-80 447.62,-80 443.953,-76.3333 443.953,-72.6667 443.953,-72.6667 443.953,-65.3333 443.953,-65.3333 443.953,-61.6667 447.62,-58 451.286,-58 451.286,-58 570.714,-58 570.714,-58 574.38,-58 578.047,-61.6667 578.047,-65.3333 578.047,-65.3333 578.047,-72.6667 578.047,-72.6667 578.047,-76.3333 574.38,-80 570.714,-80"/>
<text text-anchor="middle" x="511" y="-65.4" font-family="Helvetica,sans-Serif" font-size="12.00" fill="white">StringLiteralConvertible</text>
</a>
</g>
</g>
<!-- ExtendedGraphemeClusterLiteralConvertible&#45;&gt;StringLiteralConvertible -->
<g id="edge15" class="edge">
<path fill="none" stroke="#cccccc" d="M464.19,-115.988C472.276,-108.045 483.771,-96.7512 493.346,-87.3439"/>
<polygon fill="#cccccc" stroke="#cccccc" points="495.832,-89.8088 500.512,-80.3039 490.926,-84.8154 495.832,-89.8088"/>
</g>
<!-- Hashable&#45;&gt;String -->
<g id="edge10" class="edge">
<path fill="none" stroke="#cccccc" d="M350.266,-60.9725C354.861,-59.9486 359.552,-58.9278 364,-58 436.351,-42.907 521.303,-27.2284 568.871,-18.6331"/>
<polygon fill="#cccccc" stroke="#cccccc" points="569.497,-22.0767 578.718,-16.8585 568.256,-15.1876 569.497,-22.0767"/>
</g>
<!-- MirrorPathType -->
<g id="node6" class="node">
<g id="a_node6"><a xlink:href="/v2.1/protocol/MirrorPathType/" target="_top">
<path fill="#999999" stroke="#999999" d="M718.69,-80C718.69,-80 641.31,-80 641.31,-80 637.643,-80 633.977,-76.3333 633.977,-72.6667 633.977,-72.6667 633.977,-65.3333 633.977,-65.3333 633.977,-61.6667 637.643,-58 641.31,-58 641.31,-58 718.69,-58 718.69,-58 722.357,-58 726.023,-61.6667 726.023,-65.3333 726.023,-65.3333 726.023,-72.6667 726.023,-72.6667 726.023,-76.3333 722.357,-80 718.69,-80"/>
<text text-anchor="middle" x="680" y="-65.4" font-family="Helvetica,sans-Serif" font-size="12.00" fill="white">MirrorPathType</text>
</a>
</g>
</g>
<!-- MirrorPathType&#45;&gt;String -->
<g id="edge12" class="edge">
<path fill="none" stroke="#cccccc" d="M666.77,-57.9883C655.961,-49.8087 640.459,-38.0773 627.818,-28.5108"/>
<polygon fill="#cccccc" stroke="#cccccc" points="629.702,-25.5474 619.616,-22.3039 625.478,-31.1293 629.702,-25.5474"/>
</g>
<!-- OutputStreamType -->
<g id="node7" class="node">
<g id="a_node7"><a xlink:href="/v2.1/protocol/OutputStreamType/" target="_top">
<path fill="#999999" stroke="#999999" d="M846.709,-80C846.709,-80 751.291,-80 751.291,-80 747.624,-80 743.957,-76.3333 743.957,-72.6667 743.957,-72.6667 743.957,-65.3333 743.957,-65.3333 743.957,-61.6667 747.624,-58 751.291,-58 751.291,-58 846.709,-58 846.709,-58 850.376,-58 854.043,-61.6667 854.043,-65.3333 854.043,-65.3333 854.043,-72.6667 854.043,-72.6667 854.043,-76.3333 850.376,-80 846.709,-80"/>
<text text-anchor="middle" x="799" y="-65.4" font-family="Helvetica,sans-Serif" font-size="12.00" fill="white">OutputStreamType</text>
</a>
</g>
</g>
<!-- OutputStreamType&#45;&gt;String -->
<g id="edge2" class="edge">
<path fill="none" stroke="#cccccc" d="M764.495,-57.9883C730.252,-48.0525 677.947,-32.8759 642.893,-22.7047"/>
<polygon fill="#cccccc" stroke="#cccccc" points="643.629,-19.2741 633.05,-19.8488 641.679,-25.9968 643.629,-19.2741"/>
</g>
<!-- Streamable -->
<g id="node8" class="node">
<g id="a_node8"><a xlink:href="/v2.1/protocol/Streamable/" target="_top">
<path fill="#999999" stroke="#999999" d="M936.19,-80C936.19,-80 879.81,-80 879.81,-80 876.144,-80 872.477,-76.3333 872.477,-72.6667 872.477,-72.6667 872.477,-65.3333 872.477,-65.3333 872.477,-61.6667 876.144,-58 879.81,-58 879.81,-58 936.19,-58 936.19,-58 939.856,-58 943.523,-61.6667 943.523,-65.3333 943.523,-65.3333 943.523,-72.6667 943.523,-72.6667 943.523,-76.3333 939.856,-80 936.19,-80"/>
<text text-anchor="middle" x="908" y="-65.4" font-family="Helvetica,sans-Serif" font-size="12.00" fill="white">Streamable</text>
</a>
</g>
</g>
<!-- Streamable&#45;&gt;String -->
<g id="edge3" class="edge">
<path fill="none" stroke="#cccccc" d="M872.656,-60.0003C869.395,-59.3062 866.139,-58.6294 863,-58 784.996,-42.3591 693.148,-26.5426 643.105,-18.1434"/>
<polygon fill="#cccccc" stroke="#cccccc" points="643.521,-14.6645 633.081,-16.4664 642.366,-21.5685 643.521,-14.6645"/>
</g>
<!-- StringInterpolationConvertible -->
<g id="node10" class="node">
<g id="a_node10"><a xlink:href="/v2.1/protocol/StringInterpolationConvertible/" target="_top">
<path fill="#999999" stroke="#999999" d="M1122.74,-80C1122.74,-80 969.264,-80 969.264,-80 965.598,-80 961.931,-76.3333 961.931,-72.6667 961.931,-72.6667 961.931,-65.3333 961.931,-65.3333 961.931,-61.6667 965.598,-58 969.264,-58 969.264,-58 1122.74,-58 1122.74,-58 1126.4,-58 1130.07,-61.6667 1130.07,-65.3333 1130.07,-65.3333 1130.07,-72.6667 1130.07,-72.6667 1130.07,-76.3333 1126.4,-80 1122.74,-80"/>
<text text-anchor="middle" x="1046" y="-65.4" font-family="Helvetica,sans-Serif" font-size="12.00" fill="white">StringInterpolationConvertible</text>
</a>
</g>
</g>
<!-- StringInterpolationConvertible&#45;&gt;String -->
<g id="edge11" class="edge">
<path fill="none" stroke="#cccccc" d="M967.337,-57.9883C871.879,-45.8392 714.858,-25.8546 643.446,-16.7659"/>
<polygon fill="#cccccc" stroke="#cccccc" points="643.507,-13.2455 633.145,-15.4549 642.623,-20.1895 643.507,-13.2455"/>
</g>
<!-- StringLiteralConvertible&#45;&gt;String -->
<g id="edge6" class="edge">
<path fill="none" stroke="#cccccc" d="M527.984,-57.9883C542.484,-49.441 563.563,-37.0155 580.156,-27.2343"/>
<polygon fill="#cccccc" stroke="#cccccc" points="582.005,-30.2071 588.843,-22.1138 578.451,-24.1768 582.005,-30.2071"/>
</g>
<!-- UnicodeScalarLiteralConvertible -->
<g id="node12" class="node">
<g id="a_node12"><a xlink:href="/v2.1/protocol/UnicodeScalarLiteralConvertible/" target="_top">
<path fill="#999999" stroke="#999999" d="M613.233,-196C613.233,-196 446.767,-196 446.767,-196 443.101,-196 439.434,-192.333 439.434,-188.667 439.434,-188.667 439.434,-181.333 439.434,-181.333 439.434,-177.667 443.101,-174 446.767,-174 446.767,-174 613.233,-174 613.233,-174 616.899,-174 620.566,-177.667 620.566,-181.333 620.566,-181.333 620.566,-188.667 620.566,-188.667 620.566,-192.333 616.899,-196 613.233,-196"/>
<text text-anchor="middle" x="530" y="-181.4" font-family="Helvetica,sans-Serif" font-size="12.00" fill="white">UnicodeScalarLiteralConvertible</text>
</a>
</g>
</g>
<!-- UnicodeScalarLiteralConvertible&#45;&gt;ExtendedGraphemeClusterLiteralConvertible -->
<g id="edge14" class="edge">
<path fill="none" stroke="#cccccc" d="M516.413,-173.988C505.135,-165.678 488.882,-153.703 475.789,-144.055"/>
<polygon fill="#cccccc" stroke="#cccccc" points="477.853,-141.228 467.726,-138.114 473.7,-146.864 477.853,-141.228"/>
</g>
<!-- UnicodeScalarLiteralConvertible&#45;&gt;String -->
<g id="edge4" class="edge">
<path fill="none" stroke="#cccccc" d="M548.773,-173.908C561.694,-165.928 578.08,-153.554 587,-138 606.079,-104.734 608.031,-58.7464 607.304,-32.5186"/>
<polygon fill="#cccccc" stroke="#cccccc" points="610.789,-32.1141 606.851,-22.2783 603.796,-32.4231 610.789,-32.1141"/>
</g>
<!-- _ObjectiveCBridgeable -->
<g id="node13" class="node">
<g id="a_node13"><a xlink:href="/v2.1/protocol/_ObjectiveCBridgeable/" target="_top">
<path fill="#999999" stroke="#999999" d="M1272.72,-80C1272.72,-80 1155.28,-80 1155.28,-80 1151.61,-80 1147.95,-76.3333 1147.95,-72.6667 1147.95,-72.6667 1147.95,-65.3333 1147.95,-65.3333 1147.95,-61.6667 1151.61,-58 1155.28,-58 1155.28,-58 1272.72,-58 1272.72,-58 1276.39,-58 1280.05,-61.6667 1280.05,-65.3333 1280.05,-65.3333 1280.05,-72.6667 1280.05,-72.6667 1280.05,-76.3333 1276.39,-80 1272.72,-80"/>
<text text-anchor="middle" x="1214" y="-65.4" font-family="Helvetica,sans-Serif" font-size="12.00" fill="white">_ObjectiveCBridgeable</text>
</a>
</g>
</g>
<!-- _ObjectiveCBridgeable&#45;&gt;String -->
<g id="edge13" class="edge">
<path fill="none" stroke="#cccccc" d="M1147.77,-58.9992C1144.81,-58.6503 1141.87,-58.3153 1139,-58 953.325,-37.6206 730.436,-20.8718 643.393,-14.6266"/>
<polygon fill="#cccccc" stroke="#cccccc" points="643.447,-11.1216 633.223,-13.9004 642.949,-18.1038 643.447,-11.1216"/>
</g>
<!-- _Reflectable -->
<g id="node14" class="node">
<g id="a_node14"><a xlink:href="/v2.1/protocol/_Reflectable/" target="_top">
<path fill="#999999" stroke="#999999" d="M1367.7,-80C1367.7,-80 1306.3,-80 1306.3,-80 1302.63,-80 1298.97,-76.3333 1298.97,-72.6667 1298.97,-72.6667 1298.97,-65.3333 1298.97,-65.3333 1298.97,-61.6667 1302.63,-58 1306.3,-58 1306.3,-58 1367.7,-58 1367.7,-58 1371.37,-58 1375.03,-61.6667 1375.03,-65.3333 1375.03,-65.3333 1375.03,-72.6667 1375.03,-72.6667 1375.03,-76.3333 1371.37,-80 1367.7,-80"/>
<text text-anchor="middle" x="1337" y="-65.4" font-family="Helvetica,sans-Serif" font-size="12.00" fill="white">_Reflectable</text>
</a>
</g>
</g>
<!-- _Reflectable&#45;&gt;String -->
<g id="edge1" class="edge">
<path fill="none" stroke="#cccccc" d="M1298.83,-59.5519C1295.52,-58.969 1292.2,-58.4396 1289,-58 1044.22,-24.4231 746.581,-15.0447 643.361,-12.7056"/>
<polygon fill="#cccccc" stroke="#cccccc" points="643.217,-9.20173 633.143,-12.4829 643.065,-16.2001 643.217,-9.20173"/>
</g>
</g>
</svg>
