<?xml version="1.0" encoding="UTF-8" standalone="no"?>
<!DOCTYPE svg PUBLIC "-//W3C//DTD SVG 1.1//EN"
 "http://www.w3.org/Graphics/SVG/1.1/DTD/svg11.dtd">
<!-- Generated by graphviz version 2.36.0 (20140111.2315)
 -->
<!-- Title: SequenceType &#45; Type Hierarchy &#45; SwiftDoc.org Pages: 1 -->
<svg width="6316pt" height="427pt"
 viewBox="0.00 0.00 6316.40 427.20" xmlns="http://www.w3.org/2000/svg" xmlns:xlink="http://www.w3.org/1999/xlink">
<g id="graph0" class="graph" transform="scale(1 1) rotate(0) translate(7.2 369.6)">
<g transform="translate(0 -369.6)">
<g>
    <path fill="#666666" d="M13.846,10.832c-0.336-0.464-0.792-0.844-1.368-1.14s-1.224-0.444-1.944-0.444
        c-0.384,0-0.772,0.052-1.164,0.156C8.977,9.509,8.622,9.677,8.301,9.908c-0.32,0.232-0.58,0.52-0.78,0.864
        c-0.2,0.344-0.3,0.756-0.3,1.236c0,0.464,0.092,0.852,0.276,1.164c0.184,0.312,0.432,0.576,0.744,0.792s0.68,0.4,1.104,0.552
        c0.423,0.152,0.876,0.309,1.356,0.468c0.576,0.177,1.16,0.376,1.752,0.601c0.592,0.224,1.128,0.52,1.608,0.888
        s0.872,0.828,1.176,1.38s0.456,1.252,0.456,2.101c0,0.88-0.164,1.644-0.492,2.292c-0.328,0.647-0.765,1.184-1.308,1.607
        c-0.544,0.424-1.172,0.74-1.884,0.948s-1.444,0.312-2.196,0.312c-1.072,0-2.108-0.208-3.108-0.624
        c-1-0.415-1.828-1.031-2.484-1.848l1.848-1.56c0.4,0.592,0.936,1.071,1.608,1.439c0.672,0.368,1.399,0.552,2.184,0.552
        c0.4,0,0.8-0.056,1.2-0.168c0.4-0.111,0.764-0.288,1.092-0.527c0.328-0.24,0.596-0.54,0.804-0.9
        c0.208-0.36,0.312-0.796,0.312-1.308s-0.108-0.94-0.324-1.284c-0.216-0.344-0.508-0.636-0.876-0.876s-0.796-0.444-1.284-0.612
        c-0.488-0.168-1.004-0.34-1.548-0.516c-0.544-0.16-1.08-0.356-1.608-0.588c-0.528-0.232-1-0.528-1.416-0.889
        c-0.416-0.359-0.752-0.804-1.008-1.332c-0.256-0.527-0.384-1.184-0.384-1.968c0-0.848,0.172-1.576,0.516-2.184
        c0.344-0.608,0.792-1.112,1.344-1.512c0.552-0.4,1.176-0.692,1.872-0.876c0.696-0.184,1.396-0.276,2.1-0.276
        c0.992,0,1.92,0.176,2.784,0.528c0.864,0.352,1.56,0.824,2.088,1.416L13.846,10.832z"/>
    <path fill="#666666" d="M18.813,13.304l2.568,8.688h0.048l2.712-8.688h2.376l2.76,8.688h0.048l2.568-8.688h2.376L30.501,24.68
        h-2.352l-2.808-8.544h-0.048l-2.784,8.544h-2.352l-3.792-11.376H18.813z"/>
    <path fill="#666666" d="M38.685,9.2c0,0.416-0.147,0.76-0.44,1.032c-0.294,0.272-0.647,0.408-1.06,0.408s-0.762-0.14-1.047-0.42
        c-0.286-0.28-0.429-0.62-0.429-1.02c0-0.416,0.143-0.764,0.429-1.044c0.286-0.28,0.635-0.42,1.047-0.42s0.766,0.14,1.06,0.42
        C38.538,8.437,38.685,8.784,38.685,9.2z M38.325,24.68h-2.256V13.304h2.256V24.68z"/>
    <path fill="#666666" d="M47.613,15.152h-2.64v9.528h-2.256v-9.528h-2.256v-1.848h2.256v-2.376c0-0.672,0.076-1.292,0.228-1.86
        c0.152-0.568,0.4-1.06,0.744-1.476c0.344-0.416,0.784-0.744,1.32-0.984c0.536-0.24,1.188-0.36,1.956-0.36
        c0.544,0,1.016,0.056,1.416,0.168l-0.264,1.944c-0.176-0.048-0.352-0.088-0.528-0.12c-0.176-0.032-0.376-0.048-0.6-0.048
        c-0.432,0-0.78,0.076-1.044,0.228c-0.264,0.152-0.468,0.356-0.612,0.612s-0.24,0.548-0.288,0.876
        c-0.048,0.328-0.072,0.668-0.072,1.02v2.376h2.64V15.152z"/>
    <path fill="#666666" d="M54.909,15.152h-3.024v5.91c0,0.687,0.128,1.177,0.384,1.472c0.256,0.295,0.664,0.442,1.224,0.442
        c0.208,0,0.432-0.021,0.672-0.065c0.24-0.044,0.456-0.11,0.648-0.198l0.072,1.848c-0.272,0.096-0.572,0.172-0.9,0.229
        c-0.328,0.056-0.668,0.084-1.02,0.084c-1.072,0-1.892-0.296-2.46-0.889c-0.568-0.592-0.852-1.479-0.852-2.664v-6.168h-2.184
        v-1.848h2.184V10.04h2.232v3.264h3.024V15.152z"/>
    <path fill="#666666" d="M57.356,7.688h5.832c1.088,0,2.176,0.16,3.264,0.48c1.088,0.32,2.072,0.824,2.952,1.512
        s1.592,1.568,2.136,2.64c0.544,1.072,0.816,2.36,0.816,3.864c0,1.456-0.272,2.716-0.816,3.78s-1.256,1.943-2.136,2.64
        s-1.864,1.216-2.952,1.561c-1.088,0.344-2.176,0.516-3.264,0.516h-5.832V7.688z M59.732,22.593h2.976
        c1.024,0,1.972-0.145,2.844-0.432c0.872-0.288,1.624-0.704,2.256-1.248c0.632-0.544,1.124-1.216,1.476-2.017
        c0.352-0.8,0.528-1.704,0.528-2.712c0-1.056-0.176-1.983-0.528-2.784c-0.353-0.8-0.844-1.468-1.476-2.004
        c-0.632-0.536-1.384-0.944-2.256-1.224s-1.82-0.42-2.844-0.42h-2.976V22.593z"/>
    <path fill="#666666" d="M86.06,18.969c0,0.88-0.156,1.688-0.468,2.424c-0.312,0.736-0.744,1.372-1.296,1.908
        c-0.552,0.536-1.204,0.952-1.956,1.248c-0.752,0.296-1.56,0.443-2.424,0.443c-0.864,0-1.672-0.147-2.424-0.443
        c-0.752-0.296-1.4-0.712-1.944-1.248c-0.544-0.536-0.972-1.172-1.284-1.908c-0.312-0.735-0.468-1.544-0.468-2.424
        s0.156-1.684,0.468-2.412c0.312-0.728,0.74-1.356,1.284-1.884c0.543-0.528,1.191-0.939,1.944-1.236
        c0.752-0.296,1.56-0.444,2.424-0.444c0.864,0,1.672,0.148,2.424,0.444c0.752,0.297,1.404,0.708,1.956,1.236
        c0.552,0.527,0.984,1.156,1.296,1.884C85.904,17.285,86.06,18.089,86.06,18.969z M83.708,18.98c0-0.542-0.084-1.061-0.252-1.556
        c-0.169-0.494-0.414-0.929-0.734-1.304s-0.718-0.674-1.192-0.897s-1.015-0.335-1.625-0.335c-0.61,0-1.152,0.111-1.625,0.335
        c-0.474,0.224-0.871,0.522-1.191,0.897c-0.321,0.375-0.566,0.81-0.734,1.304C76.184,17.92,76.1,18.438,76.1,18.98
        c0,0.543,0.084,1.062,0.253,1.556c0.168,0.495,0.413,0.934,0.734,1.316c0.321,0.383,0.718,0.686,1.191,0.909
        c0.473,0.224,1.015,0.335,1.625,0.335c0.61,0,1.151-0.111,1.625-0.335s0.871-0.526,1.192-0.909s0.565-0.821,0.734-1.316
        C83.624,20.042,83.708,19.523,83.708,18.98z"/>
    <path fill="#666666" d="M96.428,16.184c-0.24-0.368-0.6-0.676-1.08-0.924s-0.992-0.372-1.536-0.372
        c-0.592,0-1.116,0.112-1.572,0.336c-0.456,0.225-0.844,0.524-1.164,0.9c-0.32,0.376-0.564,0.812-0.732,1.308
        s-0.252,1.017-0.252,1.56c0,0.545,0.084,1.064,0.252,1.561s0.412,0.933,0.732,1.308c0.32,0.376,0.712,0.677,1.176,0.9
        c0.464,0.225,0.992,0.336,1.584,0.336c0.576,0,1.1-0.111,1.572-0.336c0.472-0.224,0.86-0.528,1.164-0.912l1.512,1.368
        c-0.48,0.561-1.08,0.996-1.8,1.308c-0.72,0.312-1.536,0.468-2.448,0.468c-0.88,0-1.692-0.144-2.436-0.432
        c-0.744-0.288-1.388-0.691-1.932-1.212c-0.544-0.52-0.972-1.147-1.284-1.884s-0.468-1.561-0.468-2.473
        c0-0.896,0.152-1.711,0.456-2.447c0.304-0.736,0.728-1.368,1.272-1.896c0.543-0.527,1.188-0.936,1.932-1.224
        c0.744-0.288,1.548-0.433,2.412-0.433c0.8,0,1.596,0.16,2.388,0.48s1.419,0.784,1.884,1.392L96.428,16.184z"/>
    <path fill="#666666" d="M103.1,23.24c0,0.417-0.152,0.784-0.456,1.104c-0.304,0.32-0.688,0.479-1.152,0.479
        c-0.448,0-0.828-0.155-1.14-0.468c-0.312-0.312-0.468-0.676-0.468-1.092c0-0.432,0.152-0.804,0.456-1.116
        c0.304-0.312,0.688-0.468,1.152-0.468c0.464,0,0.848,0.152,1.152,0.456C102.947,22.44,103.1,22.808,103.1,23.24z"/>
    <path fill="#666666" d="M116.635,18.969c0,0.88-0.156,1.688-0.468,2.424c-0.312,0.736-0.744,1.372-1.296,1.908
        c-0.552,0.536-1.204,0.952-1.956,1.248c-0.752,0.296-1.56,0.443-2.424,0.443c-0.864,0-1.672-0.147-2.424-0.443
        c-0.752-0.296-1.4-0.712-1.944-1.248c-0.544-0.536-0.972-1.172-1.284-1.908c-0.312-0.735-0.468-1.544-0.468-2.424
        s0.156-1.684,0.468-2.412c0.312-0.728,0.74-1.356,1.284-1.884c0.543-0.528,1.191-0.939,1.944-1.236
        c0.752-0.296,1.56-0.444,2.424-0.444c0.864,0,1.672,0.148,2.424,0.444c0.752,0.297,1.404,0.708,1.956,1.236
        c0.552,0.527,0.984,1.156,1.296,1.884C116.479,17.285,116.635,18.089,116.635,18.969z M114.283,18.98
        c0-0.542-0.084-1.061-0.252-1.556c-0.169-0.494-0.414-0.929-0.734-1.304s-0.718-0.674-1.192-0.897s-1.015-0.335-1.625-0.335
        c-0.61,0-1.152,0.111-1.625,0.335c-0.474,0.224-0.871,0.522-1.191,0.897c-0.321,0.375-0.566,0.81-0.734,1.304
        c-0.169,0.495-0.253,1.014-0.253,1.556c0,0.543,0.084,1.062,0.253,1.556c0.168,0.495,0.413,0.934,0.734,1.316
        c0.321,0.383,0.718,0.686,1.191,0.909c0.473,0.224,1.015,0.335,1.625,0.335c0.61,0,1.151-0.111,1.625-0.335
        s0.871-0.526,1.192-0.909s0.565-0.821,0.734-1.316C114.199,20.042,114.283,19.523,114.283,18.98z"/>
    <path fill="#666666" d="M119.251,14.577c-0.016-0.48-0.04-0.904-0.072-1.272h2.136c0.032,0.288,0.056,0.62,0.072,0.996
        c0.016,0.376,0.024,0.684,0.024,0.924h0.072c0.32-0.672,0.788-1.212,1.404-1.62c0.616-0.408,1.308-0.612,2.076-0.612
        c0.352,0,0.648,0.033,0.888,0.097l-0.096,2.088c-0.32-0.08-0.664-0.12-1.032-0.12c-0.544,0-1.016,0.101-1.416,0.3
        c-0.4,0.2-0.732,0.468-0.996,0.805c-0.264,0.336-0.46,0.724-0.588,1.163c-0.128,0.44-0.192,0.9-0.192,1.381v5.976h-2.256v-8.928
        C119.275,15.449,119.267,15.056,119.251,14.577z"/>
    <path fill="#666666" d="M128.419,26.625c0.496,0.56,1.116,1.008,1.86,1.344c0.744,0.336,1.508,0.504,2.292,0.504
        c0.752,0,1.384-0.108,1.896-0.324s0.924-0.512,1.236-0.888s0.536-0.82,0.672-1.332c0.136-0.513,0.204-1.064,0.204-1.656v-1.464
        h-0.048c-0.416,0.641-0.984,1.128-1.704,1.464c-0.72,0.336-1.488,0.504-2.304,0.504c-0.864,0-1.652-0.151-2.364-0.456
        c-0.712-0.304-1.316-0.72-1.812-1.248c-0.496-0.527-0.88-1.147-1.152-1.859s-0.408-1.477-0.408-2.292
        c0-0.816,0.136-1.584,0.408-2.305c0.272-0.72,0.656-1.348,1.152-1.884c0.496-0.535,1.096-0.96,1.8-1.271
        c0.704-0.312,1.488-0.469,2.352-0.469c0.816,0,1.596,0.177,2.34,0.528c0.744,0.353,1.332,0.888,1.764,1.608h0.048v-1.824h2.184
        v10.8c0,0.832-0.104,1.628-0.312,2.388c-0.208,0.76-0.56,1.433-1.056,2.017s-1.144,1.052-1.944,1.404
        c-0.8,0.352-1.792,0.527-2.976,0.527c-0.992,0-1.988-0.18-2.988-0.54c-1-0.359-1.86-0.868-2.58-1.523L128.419,26.625z
         M129.091,18.873c0,0.527,0.084,1.031,0.253,1.512c0.168,0.479,0.417,0.904,0.746,1.271c0.329,0.369,0.726,0.664,1.192,0.889
        c0.465,0.224,0.995,0.336,1.589,0.336c0.577,0,1.107-0.104,1.589-0.312c0.481-0.207,0.891-0.491,1.228-0.852
        s0.598-0.784,0.782-1.272c0.185-0.487,0.277-1.012,0.277-1.571c0-0.544-0.093-1.057-0.277-1.536
        c-0.185-0.48-0.449-0.904-0.794-1.272c-0.345-0.367-0.755-0.66-1.228-0.876c-0.474-0.216-1-0.324-1.577-0.324
        c-0.594,0-1.124,0.108-1.589,0.324c-0.466,0.216-0.863,0.504-1.192,0.864s-0.578,0.784-0.746,1.271
        C129.175,17.812,129.091,18.329,129.091,18.873z"/>
</g>
<g><a xlink:href="/" pointer-events="all" target="_top"><polygon fill="none" points="0,0 145,0 145,35 0,35 0,0"/></a></g>

</g>


<!-- AnyBidirectionalCollection -->
<g id="node1" class="node">
<g id="a_node1"><a xlink:href="/v2.1/type/AnyBidirectionalCollection/" target="_top">
<polygon fill="#999999" stroke="#999999" points="1060.05,-22 911.946,-22 911.946,-0 1060.05,-0 1060.05,-22"/>
<text text-anchor="middle" x="986" y="-7.4" font-family="Helvetica,sans-Serif" font-size="12.00" fill="white">AnyBidirectionalCollection</text>
</a>
</g>
</g>
<!-- AnyCollectionType -->
<g id="node2" class="node">
<g id="a_node2"><a xlink:href="/v2.1/protocol/AnyCollectionType/" target="_top">
<path fill="#999999" stroke="#999999" d="M1111.21,-80C1111.21,-80 1016.79,-80 1016.79,-80 1013.12,-80 1009.46,-76.3333 1009.46,-72.6667 1009.46,-72.6667 1009.46,-65.3333 1009.46,-65.3333 1009.46,-61.6667 1013.12,-58 1016.79,-58 1016.79,-58 1111.21,-58 1111.21,-58 1114.88,-58 1118.54,-61.6667 1118.54,-65.3333 1118.54,-65.3333 1118.54,-72.6667 1118.54,-72.6667 1118.54,-76.3333 1114.88,-80 1111.21,-80"/>
<text text-anchor="middle" x="1064" y="-65.4" font-family="Helvetica,sans-Serif" font-size="12.00" fill="white">AnyCollectionType</text>
</a>
</g>
</g>
<!-- AnyCollectionType&#45;&gt;AnyBidirectionalCollection -->
<g id="edge50" class="edge">
<path fill="none" stroke="#cccccc" d="M1050.06,-57.9883C1038.48,-49.6784 1021.8,-37.7028 1008.36,-28.0554"/>
<polygon fill="#cccccc" stroke="#cccccc" points="1010.25,-25.1028 1000.09,-22.1138 1006.17,-30.7891 1010.25,-25.1028"/>
</g>
<!-- AnyForwardCollection -->
<g id="node3" class="node">
<g id="a_node3"><a xlink:href="/v2.1/type/AnyForwardCollection/" target="_top">
<polygon fill="#999999" stroke="#999999" points="1205.54,-22 1078.46,-22 1078.46,-0 1205.54,-0 1205.54,-22"/>
<text text-anchor="middle" x="1142" y="-7.4" font-family="Helvetica,sans-Serif" font-size="12.00" fill="white">AnyForwardCollection</text>
</a>
</g>
</g>
<!-- AnyCollectionType&#45;&gt;AnyForwardCollection -->
<g id="edge51" class="edge">
<path fill="none" stroke="#cccccc" d="M1077.94,-57.9883C1089.52,-49.6784 1106.2,-37.7028 1119.64,-28.0554"/>
<polygon fill="#cccccc" stroke="#cccccc" points="1121.83,-30.7891 1127.91,-22.1138 1117.75,-25.1028 1121.83,-30.7891"/>
</g>
<!-- AnyRandomAccessCollection -->
<g id="node5" class="node">
<g id="a_node5"><a xlink:href="/v2.1/type/AnyRandomAccessCollection/" target="_top">
<polygon fill="#999999" stroke="#999999" points="893.554,-22 726.446,-22 726.446,-0 893.554,-0 893.554,-22"/>
<text text-anchor="middle" x="810" y="-7.4" font-family="Helvetica,sans-Serif" font-size="12.00" fill="white">AnyRandomAccessCollection</text>
</a>
</g>
</g>
<!-- AnyCollectionType&#45;&gt;AnyRandomAccessCollection -->
<g id="edge52" class="edge">
<path fill="none" stroke="#cccccc" d="M1018.59,-57.9883C975.65,-48.5213 911.131,-34.2967 865.232,-24.177"/>
<polygon fill="#cccccc" stroke="#cccccc" points="865.964,-20.7544 855.444,-22.0192 864.456,-27.5903 865.964,-20.7544"/>
</g>
<!-- AnyGenerator -->
<g id="node4" class="node">
<g id="a_node4"><a xlink:href="/v2.1/type/AnyGenerator/" target="_top">
<polygon fill="#999999" stroke="#999999" points="4078.03,-22 3993.97,-22 3993.97,-0 4078.03,-0 4078.03,-22"/>
<text text-anchor="middle" x="4036" y="-7.4" font-family="Helvetica,sans-Serif" font-size="12.00" fill="white">AnyGenerator</text>
</a>
</g>
</g>
<!-- AnySequence -->
<g id="node6" class="node">
<g id="a_node6"><a xlink:href="/v2.1/type/AnySequence/" target="_top">
<polygon fill="#999999" stroke="#999999" points="4181.04,-22 4096.96,-22 4096.96,-0 4181.04,-0 4181.04,-22"/>
<text text-anchor="middle" x="4139" y="-7.4" font-family="Helvetica,sans-Serif" font-size="12.00" fill="white">AnySequence</text>
</a>
</g>
</g>
<!-- Array -->
<g id="node7" class="node">
<g id="a_node7"><a xlink:href="/v2.1/type/Array/" target="_top">
<polygon fill="#999999" stroke="#999999" points="2878,-22 2824,-22 2824,-0 2878,-0 2878,-22"/>
<text text-anchor="middle" x="2851" y="-7.4" font-family="Helvetica,sans-Serif" font-size="12.00" fill="white">Array</text>
</a>
</g>
</g>
<!-- ArraySlice -->
<g id="node8" class="node">
<g id="a_node8"><a xlink:href="/v2.1/type/ArraySlice/" target="_top">
<polygon fill="#999999" stroke="#999999" points="3139.01,-22 3074.99,-22 3074.99,-0 3139.01,-0 3139.01,-22"/>
<text text-anchor="middle" x="3107" y="-7.4" font-family="Helvetica,sans-Serif" font-size="12.00" fill="white">ArraySlice</text>
</a>
</g>
</g>
<!-- CollectionOfOne -->
<g id="node9" class="node">
<g id="a_node9"><a xlink:href="/v2.1/type/CollectionOfOne/" target="_top">
<polygon fill="#999999" stroke="#999999" points="98.0322,-22 -0.0322313,-22 -0.0322313,-0 98.0322,-0 98.0322,-22"/>
<text text-anchor="middle" x="49" y="-7.4" font-family="Helvetica,sans-Serif" font-size="12.00" fill="white">CollectionOfOne</text>
</a>
</g>
</g>
<!-- CollectionType -->
<g id="node10" class="node">
<g id="a_node10"><a xlink:href="/v2.1/protocol/CollectionType/" target="_top">
<path fill="#999999" stroke="#999999" d="M1998.7,-254C1998.7,-254 1925.3,-254 1925.3,-254 1921.63,-254 1917.96,-250.333 1917.96,-246.667 1917.96,-246.667 1917.96,-239.333 1917.96,-239.333 1917.96,-235.667 1921.63,-232 1925.3,-232 1925.3,-232 1998.7,-232 1998.7,-232 2002.37,-232 2006.04,-235.667 2006.04,-239.333 2006.04,-239.333 2006.04,-246.667 2006.04,-246.667 2006.04,-250.333 2002.37,-254 1998.7,-254"/>
<text text-anchor="middle" x="1962" y="-239.4" font-family="Helvetica,sans-Serif" font-size="12.00" fill="white">CollectionType</text>
</a>
</g>
</g>
<!-- CollectionType&#45;&gt;AnyCollectionType -->
<g id="edge23" class="edge">
<path fill="none" stroke="#cccccc" d="M1917.72,-242.405C1780.36,-243.162 1363.19,-241.553 1237,-196 1171.83,-172.475 1109.81,-116.371 1080.93,-87.6296"/>
<polygon fill="#cccccc" stroke="#cccccc" points="1083.21,-84.9528 1073.69,-80.2986 1078.23,-89.8723 1083.21,-84.9528"/>
</g>
<!-- CollectionType&#45;&gt;Array -->
<g id="edge24" class="edge">
<path fill="none" stroke="#cccccc" d="M2006.39,-241.337C2124.44,-239.122 2443.84,-230.063 2543,-196 2587.3,-180.782 2594.43,-167.267 2631,-138 2671,-105.989 2670.2,-84.5814 2714,-58 2731.03,-47.6631 2779.66,-32.447 2814.13,-22.3845"/>
<polygon fill="#cccccc" stroke="#cccccc" points="2815.24,-25.7056 2823.88,-19.5649 2813.3,-18.9813 2815.24,-25.7056"/>
</g>
<!-- CollectionType&#45;&gt;ArraySlice -->
<g id="edge25" class="edge">
<path fill="none" stroke="#cccccc" d="M2006.23,-241.146C2188.41,-237.469 2875.53,-221.989 2969,-196 3021.12,-181.51 3038.94,-177.399 3076,-138 3103.4,-108.87 3107.71,-59.5429 3107.77,-32.0432"/>
<polygon fill="#cccccc" stroke="#cccccc" points="3111.27,-31.9703 3107.61,-22.0296 3104.27,-32.0862 3111.27,-31.9703"/>
</g>
<!-- CollectionType&#45;&gt;CollectionOfOne -->
<g id="edge26" class="edge">
<path fill="none" stroke="#cccccc" d="M1917.74,-241.739C1720.09,-240.373 916.949,-232.631 668,-196 567.533,-181.217 544.548,-166.222 447,-138 315.009,-99.8126 160.238,-49.0834 88.8145,-25.3313"/>
<polygon fill="#cccccc" stroke="#cccccc" points="89.8941,-22.0019 79.3005,-22.1629 87.6824,-28.6433 89.8941,-22.0019"/>
</g>
<!-- ContiguousArray -->
<g id="node11" class="node">
<g id="a_node11"><a xlink:href="/v2.1/type/ContiguousArray/" target="_top">
<polygon fill="#999999" stroke="#999999" points="2805.53,-22 2706.47,-22 2706.47,-0 2805.53,-0 2805.53,-22"/>
<text text-anchor="middle" x="2756" y="-7.4" font-family="Helvetica,sans-Serif" font-size="12.00" fill="white">ContiguousArray</text>
</a>
</g>
</g>
<!-- CollectionType&#45;&gt;ContiguousArray -->
<g id="edge27" class="edge">
<path fill="none" stroke="#cccccc" d="M2006.09,-240.522C2117.32,-236.425 2406.96,-223.38 2499,-196 2551.22,-180.465 2565.83,-173.683 2607,-138 2640.39,-109.066 2632.32,-86.5933 2666,-58 2681.69,-44.6804 2701.89,-33.9104 2719.18,-26.1494"/>
<polygon fill="#cccccc" stroke="#cccccc" points="2720.65,-29.329 2728.44,-22.1503 2717.87,-22.9029 2720.65,-29.329"/>
</g>
<!-- Dictionary -->
<g id="node12" class="node">
<g id="a_node12"><a xlink:href="/v2.1/type/Dictionary/" target="_top">
<polygon fill="#999999" stroke="#999999" points="179.511,-22 116.489,-22 116.489,-0 179.511,-0 179.511,-22"/>
<text text-anchor="middle" x="148" y="-7.4" font-family="Helvetica,sans-Serif" font-size="12.00" fill="white">Dictionary</text>
</a>
</g>
</g>
<!-- CollectionType&#45;&gt;Dictionary -->
<g id="edge28" class="edge">
<path fill="none" stroke="#cccccc" d="M1917.81,-241.727C1730.9,-240.351 1004.57,-232.702 779,-196 546.21,-158.122 278.003,-61.4685 183.309,-25.6364"/>
<polygon fill="#cccccc" stroke="#cccccc" points="184.508,-22.3478 173.917,-22.066 182.021,-28.891 184.508,-22.3478"/>
</g>
<!-- DictionaryLiteral -->
<g id="node13" class="node">
<g id="a_node13"><a xlink:href="/v2.1/type/DictionaryLiteral/" target="_top">
<polygon fill="#999999" stroke="#999999" points="294.025,-22 197.975,-22 197.975,-0 294.025,-0 294.025,-22"/>
<text text-anchor="middle" x="246" y="-7.4" font-family="Helvetica,sans-Serif" font-size="12.00" fill="white">DictionaryLiteral</text>
</a>
</g>
</g>
<!-- CollectionType&#45;&gt;DictionaryLiteral -->
<g id="edge29" class="edge">
<path fill="none" stroke="#cccccc" d="M1917.77,-241.443C1741.01,-239.014 1085.04,-227.99 880,-196 783.483,-180.942 761.918,-164.864 668,-138 528.701,-98.1549 364.407,-48.2612 288.443,-25.0261"/>
<polygon fill="#cccccc" stroke="#cccccc" points="289.342,-21.641 278.755,-22.061 287.293,-28.3345 289.342,-21.641"/>
</g>
<!-- EmptyCollection -->
<g id="node14" class="node">
<g id="a_node14"><a xlink:href="/v2.1/type/EmptyCollection/" target="_top">
<polygon fill="#999999" stroke="#999999" points="408.027,-22 311.973,-22 311.973,-0 408.027,-0 408.027,-22"/>
<text text-anchor="middle" x="360" y="-7.4" font-family="Helvetica,sans-Serif" font-size="12.00" fill="white">EmptyCollection</text>
</a>
</g>
</g>
<!-- CollectionType&#45;&gt;EmptyCollection -->
<g id="edge30" class="edge">
<path fill="none" stroke="#cccccc" d="M1917.87,-241.294C1752.97,-238.439 1173.06,-226.416 991,-196 758.645,-157.182 490.692,-61.313 395.66,-25.6515"/>
<polygon fill="#cccccc" stroke="#cccccc" points="396.822,-22.3489 386.23,-22.0968 394.353,-28.8991 396.822,-22.3489"/>
</g>
<!-- FlattenBidirectionalCollection -->
<g id="node18" class="node">
<g id="a_node18"><a xlink:href="/v2.1/type/FlattenBidirectionalCollection/" target="_top">
<polygon fill="#999999" stroke="#999999" points="591.06,-22 426.94,-22 426.94,-0 591.06,-0 591.06,-22"/>
<text text-anchor="middle" x="509" y="-7.4" font-family="Helvetica,sans-Serif" font-size="12.00" fill="white">FlattenBidirectionalCollection</text>
</a>
</g>
</g>
<!-- CollectionType&#45;&gt;FlattenBidirectionalCollection -->
<g id="edge31" class="edge">
<path fill="none" stroke="#cccccc" d="M1917.86,-241.128C1764.41,-237.867 1254.75,-225.059 1094,-196 878.365,-157.02 631.33,-61.7843 542.766,-25.9454"/>
<polygon fill="#cccccc" stroke="#cccccc" points="543.825,-22.5979 533.244,-22.073 541.189,-29.0822 543.825,-22.5979"/>
</g>
<!-- FlattenCollection -->
<g id="node19" class="node">
<g id="a_node19"><a xlink:href="/v2.1/type/FlattenCollection/" target="_top">
<polygon fill="#999999" stroke="#999999" points="708.534,-22 609.466,-22 609.466,-0 708.534,-0 708.534,-22"/>
<text text-anchor="middle" x="659" y="-7.4" font-family="Helvetica,sans-Serif" font-size="12.00" fill="white">FlattenCollection</text>
</a>
</g>
</g>
<!-- CollectionType&#45;&gt;FlattenCollection -->
<g id="edge32" class="edge">
<path fill="none" stroke="#cccccc" d="M1917.74,-240.969C1775.21,-237.397 1329.25,-224.199 1188,-196 992.537,-156.978 770.929,-62.4765 690.365,-26.3607"/>
<polygon fill="#cccccc" stroke="#cccccc" points="691.37,-22.9746 680.815,-22.056 688.494,-29.3563 691.37,-22.9746"/>
</g>
<!-- LazyCollection -->
<g id="node26" class="node">
<g id="a_node26"><a xlink:href="/v2.1/type/LazyCollection/" target="_top">
<polygon fill="#999999" stroke="#999999" points="3342.03,-22 3253.97,-22 3253.97,-0 3342.03,-0 3342.03,-22"/>
<text text-anchor="middle" x="3298" y="-7.4" font-family="Helvetica,sans-Serif" font-size="12.00" fill="white">LazyCollection</text>
</a>
</g>
</g>
<!-- CollectionType&#45;&gt;LazyCollection -->
<g id="edge33" class="edge">
<path fill="none" stroke="#cccccc" d="M2006.08,-241.443C2193.38,-238.89 2918.01,-227.076 3015,-196 3126.97,-160.124 3237.25,-67.4719 3279.72,-29.0674"/>
<polygon fill="#cccccc" stroke="#cccccc" points="3282.27,-31.4747 3287.29,-22.1428 3277.55,-26.3095 3282.27,-31.4747"/>
</g>
<!-- LazyCollectionType -->
<g id="node27" class="node">
<g id="a_node27"><a xlink:href="/v2.1/protocol/LazyCollectionType/" target="_top">
<path fill="#999999" stroke="#999999" d="M3466.71,-80C3466.71,-80 3367.29,-80 3367.29,-80 3363.62,-80 3359.95,-76.3333 3359.95,-72.6667 3359.95,-72.6667 3359.95,-65.3333 3359.95,-65.3333 3359.95,-61.6667 3363.62,-58 3367.29,-58 3367.29,-58 3466.71,-58 3466.71,-58 3470.38,-58 3474.05,-61.6667 3474.05,-65.3333 3474.05,-65.3333 3474.05,-72.6667 3474.05,-72.6667 3474.05,-76.3333 3470.38,-80 3466.71,-80"/>
<text text-anchor="middle" x="3417" y="-65.4" font-family="Helvetica,sans-Serif" font-size="12.00" fill="white">LazyCollectionType</text>
</a>
</g>
</g>
<!-- CollectionType&#45;&gt;LazyCollectionType -->
<g id="edge34" class="edge">
<path fill="none" stroke="#cccccc" d="M2006.29,-241.827C2216.8,-240.814 3110.89,-234.273 3229,-196 3299.34,-173.207 3367.85,-115.838 3399.22,-87.0432"/>
<polygon fill="#cccccc" stroke="#cccccc" points="3401.79,-89.4339 3406.71,-80.0533 3397.01,-84.3153 3401.79,-89.4339"/>
</g>
<!-- MutableCollectionType -->
<g id="node36" class="node">
<g id="a_node36"><a xlink:href="/v2.1/protocol/MutableCollectionType/" target="_top">
<path fill="#999999" stroke="#999999" d="M2953.22,-196C2953.22,-196 2836.78,-196 2836.78,-196 2833.11,-196 2829.45,-192.333 2829.45,-188.667 2829.45,-188.667 2829.45,-181.333 2829.45,-181.333 2829.45,-177.667 2833.11,-174 2836.78,-174 2836.78,-174 2953.22,-174 2953.22,-174 2956.89,-174 2960.55,-177.667 2960.55,-181.333 2960.55,-181.333 2960.55,-188.667 2960.55,-188.667 2960.55,-192.333 2956.89,-196 2953.22,-196"/>
<text text-anchor="middle" x="2895" y="-181.4" font-family="Helvetica,sans-Serif" font-size="12.00" fill="white">MutableCollectionType</text>
</a>
</g>
</g>
<!-- CollectionType&#45;&gt;MutableCollectionType -->
<g id="edge35" class="edge">
<path fill="none" stroke="#cccccc" d="M2006.18,-239.621C2126.22,-233.114 2468.5,-214.29 2753,-196 2774.61,-194.611 2798.06,-193.001 2819.57,-191.484"/>
<polygon fill="#cccccc" stroke="#cccccc" points="2819.89,-194.97 2829.62,-190.772 2819.4,-187.988 2819.89,-194.97"/>
</g>
<!-- MutableSliceable -->
<g id="node38" class="node">
<g id="a_node38"><a xlink:href="/v2.1/protocol/MutableSliceable/" target="_top">
<path fill="#999999" stroke="#999999" d="M2802.21,-138C2802.21,-138 2715.79,-138 2715.79,-138 2712.13,-138 2708.46,-134.333 2708.46,-130.667 2708.46,-130.667 2708.46,-123.333 2708.46,-123.333 2708.46,-119.667 2712.13,-116 2715.79,-116 2715.79,-116 2802.21,-116 2802.21,-116 2805.87,-116 2809.54,-119.667 2809.54,-123.333 2809.54,-123.333 2809.54,-130.667 2809.54,-130.667 2809.54,-134.333 2805.87,-138 2802.21,-138"/>
<text text-anchor="middle" x="2759" y="-123.4" font-family="Helvetica,sans-Serif" font-size="12.00" fill="white">MutableSliceable</text>
</a>
</g>
</g>
<!-- CollectionType&#45;&gt;MutableSliceable -->
<g id="edge36" class="edge">
<path fill="none" stroke="#cccccc" d="M2006.24,-241.088C2155.06,-237.766 2631.76,-224.948 2694,-196 2716.78,-185.406 2735.65,-162.995 2747.09,-146.791"/>
<polygon fill="#cccccc" stroke="#cccccc" points="2750.25,-148.354 2752.93,-138.104 2744.45,-144.445 2750.25,-148.354"/>
</g>
<!-- Range -->
<g id="node40" class="node">
<g id="a_node40"><a xlink:href="/v2.1/type/Range/" target="_top">
<polygon fill="#999999" stroke="#999999" points="1278,-22 1224,-22 1224,-0 1278,-0 1278,-22"/>
<text text-anchor="middle" x="1251" y="-7.4" font-family="Helvetica,sans-Serif" font-size="12.00" fill="white">Range</text>
</a>
</g>
</g>
<!-- CollectionType&#45;&gt;Range -->
<g id="edge37" class="edge">
<path fill="none" stroke="#cccccc" d="M1917.86,-241.822C1845.46,-240.407 1697.66,-232.774 1579,-196 1525.83,-179.523 1516.75,-164.871 1468,-138 1397.92,-99.3693 1316.68,-51.3035 1276.38,-27.2325"/>
<polygon fill="#cccccc" stroke="#cccccc" points="1278.12,-24.1896 1267.74,-22.0601 1274.52,-30.197 1278.12,-24.1896"/>
</g>
<!-- RangeReplaceableCollectionType -->
<g id="node42" class="node">
<g id="a_node42"><a xlink:href="/v2.1/protocol/RangeReplaceableCollectionType/" target="_top">
<path fill="#999999" stroke="#999999" d="M2568.76,-138C2568.76,-138 2393.24,-138 2393.24,-138 2389.57,-138 2385.91,-134.333 2385.91,-130.667 2385.91,-130.667 2385.91,-123.333 2385.91,-123.333 2385.91,-119.667 2389.57,-116 2393.24,-116 2393.24,-116 2568.76,-116 2568.76,-116 2572.43,-116 2576.09,-119.667 2576.09,-123.333 2576.09,-123.333 2576.09,-130.667 2576.09,-130.667 2576.09,-134.333 2572.43,-138 2568.76,-138"/>
<text text-anchor="middle" x="2481" y="-123.4" font-family="Helvetica,sans-Serif" font-size="12.00" fill="white">RangeReplaceableCollectionType</text>
</a>
</g>
</g>
<!-- CollectionType&#45;&gt;RangeReplaceableCollectionType -->
<g id="edge38" class="edge">
<path fill="none" stroke="#cccccc" d="M2006.33,-239.511C2097.97,-233.962 2305.28,-219.208 2372,-196 2405.73,-184.267 2439.91,-160.607 2460.78,-144.532"/>
<polygon fill="#cccccc" stroke="#cccccc" points="2463.18,-147.099 2468.87,-138.163 2458.85,-141.599 2463.18,-147.099"/>
</g>
<!-- Repeat -->
<g id="node43" class="node">
<g id="a_node43"><a xlink:href="/v2.1/type/Repeat/" target="_top">
<polygon fill="#999999" stroke="#999999" points="1350,-22 1296,-22 1296,-0 1350,-0 1350,-22"/>
<text text-anchor="middle" x="1323" y="-7.4" font-family="Helvetica,sans-Serif" font-size="12.00" fill="white">Repeat</text>
</a>
</g>
</g>
<!-- CollectionType&#45;&gt;Repeat -->
<g id="edge39" class="edge">
<path fill="none" stroke="#cccccc" d="M1917.86,-241.319C1853.48,-239.115 1730.83,-230.307 1633,-196 1514.57,-154.469 1391.48,-65.11 1343.68,-28.3286"/>
<polygon fill="#cccccc" stroke="#cccccc" points="1345.7,-25.4628 1335.65,-22.0959 1341.41,-30.9925 1345.7,-25.4628"/>
</g>
<!-- ReverseCollection -->
<g id="node44" class="node">
<g id="a_node44"><a xlink:href="/v2.1/type/ReverseCollection/" target="_top">
<polygon fill="#999999" stroke="#999999" points="1475.53,-22 1368.47,-22 1368.47,-0 1475.53,-0 1475.53,-22"/>
<text text-anchor="middle" x="1422" y="-7.4" font-family="Helvetica,sans-Serif" font-size="12.00" fill="white">ReverseCollection</text>
</a>
</g>
</g>
<!-- CollectionType&#45;&gt;ReverseCollection -->
<g id="edge40" class="edge">
<path fill="none" stroke="#cccccc" d="M1917.91,-240.699C1861.04,-237.717 1759.92,-227.943 1680,-196 1578.41,-155.396 1478.97,-66.8498 1439.64,-29.3421"/>
<polygon fill="#cccccc" stroke="#cccccc" points="1441.81,-26.5707 1432.18,-22.1487 1436.95,-31.6096 1441.81,-26.5707"/>
</g>
<!-- Set -->
<g id="node47" class="node">
<g id="a_node47"><a xlink:href="/v2.1/type/Set/" target="_top">
<polygon fill="#999999" stroke="#999999" points="1757,-22 1703,-22 1703,-0 1757,-0 1757,-22"/>
<text text-anchor="middle" x="1730" y="-7.4" font-family="Helvetica,sans-Serif" font-size="12.00" fill="white">Set</text>
</a>
</g>
</g>
<!-- CollectionType&#45;&gt;Set -->
<g id="edge41" class="edge">
<path fill="none" stroke="#cccccc" d="M1950.74,-231.917C1940.51,-222.695 1925.07,-208.61 1912,-196 1849.99,-136.19 1778.76,-62.7478 1746.92,-29.6503"/>
<polygon fill="#cccccc" stroke="#cccccc" points="1749.15,-26.9239 1739.7,-22.1378 1744.11,-31.7738 1749.15,-26.9239"/>
</g>
<!-- Slice -->
<g id="node48" class="node">
<g id="a_node48"><a xlink:href="/v2.1/type/Slice/" target="_top">
<polygon fill="#999999" stroke="#999999" points="1829,-22 1775,-22 1775,-0 1829,-0 1829,-22"/>
<text text-anchor="middle" x="1802" y="-7.4" font-family="Helvetica,sans-Serif" font-size="12.00" fill="white">Slice</text>
</a>
</g>
</g>
<!-- CollectionType&#45;&gt;Slice -->
<g id="edge42" class="edge">
<path fill="none" stroke="#cccccc" d="M1954.92,-231.82C1930.14,-196.196 1847.07,-76.7927 1814.89,-30.5307"/>
<polygon fill="#cccccc" stroke="#cccccc" points="1817.58,-28.2724 1809,-22.062 1811.84,-32.2698 1817.58,-28.2724"/>
</g>
<!-- String.CharacterView -->
<g id="node51" class="node">
<g id="a_node51"><a xlink:href="/v2.1/type/String.CharacterView/" target="_top">
<polygon fill="#999999" stroke="#999999" points="2688.38,-22 2565.62,-22 2565.62,-0 2688.38,-0 2688.38,-22"/>
<text text-anchor="middle" x="2627" y="-7.4" font-family="Helvetica,sans-Serif" font-size="12.00" fill="white">String.CharacterView</text>
</a>
</g>
</g>
<!-- CollectionType&#45;&gt;String.CharacterView -->
<g id="edge46" class="edge">
<path fill="none" stroke="#cccccc" d="M2006.3,-241.033C2134.72,-237.277 2503.25,-219.47 2585,-138 2614,-109.102 2622.97,-59.6856 2625.75,-32.1088"/>
<polygon fill="#cccccc" stroke="#cccccc" points="2629.25,-32.3198 2626.59,-22.065 2622.27,-31.7419 2629.25,-32.3198"/>
</g>
<!-- String.UTF16View -->
<g id="node52" class="node">
<g id="a_node52"><a xlink:href="/v2.1/type/String.UTF16View/" target="_top">
<polygon fill="#999999" stroke="#999999" points="1954.37,-22 1847.63,-22 1847.63,-0 1954.37,-0 1954.37,-22"/>
<text text-anchor="middle" x="1901" y="-7.4" font-family="Helvetica,sans-Serif" font-size="12.00" fill="white">String.UTF16View</text>
</a>
</g>
</g>
<!-- CollectionType&#45;&gt;String.UTF16View -->
<g id="edge48" class="edge">
<path fill="none" stroke="#cccccc" d="M1959.3,-231.82C1949.95,-196.568 1918.84,-79.2764 1906.31,-32.0032"/>
<polygon fill="#cccccc" stroke="#cccccc" points="1909.62,-30.8306 1903.67,-22.062 1902.85,-32.6251 1909.62,-30.8306"/>
</g>
<!-- String.UTF8View -->
<g id="node53" class="node">
<g id="a_node53"><a xlink:href="/v2.1/type/String.UTF8View/" target="_top">
<polygon fill="#999999" stroke="#999999" points="2073.36,-22 1972.64,-22 1972.64,-0 2073.36,-0 2073.36,-22"/>
<text text-anchor="middle" x="2023" y="-7.4" font-family="Helvetica,sans-Serif" font-size="12.00" fill="white">String.UTF8View</text>
</a>
</g>
</g>
<!-- CollectionType&#45;&gt;String.UTF8View -->
<g id="edge49" class="edge">
<path fill="none" stroke="#cccccc" d="M1964.7,-231.82C1974.05,-196.568 2005.16,-79.2764 2017.69,-32.0032"/>
<polygon fill="#cccccc" stroke="#cccccc" points="2021.15,-32.6251 2020.33,-22.062 2014.38,-30.8306 2021.15,-32.6251"/>
</g>
<!-- String.UnicodeScalarView -->
<g id="node54" class="node">
<g id="a_node54"><a xlink:href="/v2.1/type/String.UnicodeScalarView/" target="_top">
<polygon fill="#999999" stroke="#999999" points="2546.89,-22 2399.11,-22 2399.11,-0 2546.89,-0 2546.89,-22"/>
<text text-anchor="middle" x="2473" y="-7.4" font-family="Helvetica,sans-Serif" font-size="12.00" fill="white">String.UnicodeScalarView</text>
</a>
</g>
</g>
<!-- CollectionType&#45;&gt;String.UnicodeScalarView -->
<g id="edge47" class="edge">
<path fill="none" stroke="#cccccc" d="M1984.51,-231.973C2005.39,-222.67 2037.31,-208.429 2065,-196 2205.54,-132.926 2373.09,-57.1949 2441.54,-26.2369"/>
<polygon fill="#cccccc" stroke="#cccccc" points="2443.23,-29.3115 2450.9,-22.001 2440.35,-22.9337 2443.23,-29.3115"/>
</g>
<!-- UnicodeScalar.UTF16View -->
<g id="node55" class="node">
<g id="a_node55"><a xlink:href="/v2.1/type/UnicodeScalar.UTF16View/" target="_top">
<polygon fill="#999999" stroke="#999999" points="2244.39,-22 2091.61,-22 2091.61,-0 2244.39,-0 2244.39,-22"/>
<text text-anchor="middle" x="2168" y="-7.4" font-family="Helvetica,sans-Serif" font-size="12.00" fill="white">UnicodeScalar.UTF16View</text>
</a>
</g>
</g>
<!-- CollectionType&#45;&gt;UnicodeScalar.UTF16View -->
<g id="edge43" class="edge">
<path fill="none" stroke="#cccccc" d="M1971.12,-231.82C2003.22,-195.973 2111.31,-75.2938 2152.17,-29.6701"/>
<polygon fill="#cccccc" stroke="#cccccc" points="2154.92,-31.8462 2158.99,-22.062 2149.71,-27.176 2154.92,-31.8462"/>
</g>
<!-- UnsafeBufferPointer -->
<g id="node56" class="node">
<g id="a_node56"><a xlink:href="/v2.1/type/UnsafeBufferPointer/" target="_top">
<polygon fill="#999999" stroke="#999999" points="2380.39,-22 2263.61,-22 2263.61,-0 2380.39,-0 2380.39,-22"/>
<text text-anchor="middle" x="2322" y="-7.4" font-family="Helvetica,sans-Serif" font-size="12.00" fill="white">UnsafeBufferPointer</text>
</a>
</g>
</g>
<!-- CollectionType&#45;&gt;UnsafeBufferPointer -->
<g id="edge44" class="edge">
<path fill="none" stroke="#cccccc" d="M1977.93,-231.82C2034.97,-195.378 2229.24,-71.2645 2297.8,-27.4612"/>
<polygon fill="#cccccc" stroke="#cccccc" points="2299.71,-30.3954 2306.25,-22.062 2295.94,-24.4965 2299.71,-30.3954"/>
</g>
<!-- _ReverseCollectionType -->
<g id="node62" class="node">
<g id="a_node62"><a xlink:href="/v2.1/protocol/_ReverseCollectionType/" target="_top">
<path fill="#999999" stroke="#999999" d="M1651.72,-80C1651.72,-80 1526.28,-80 1526.28,-80 1522.61,-80 1518.95,-76.3333 1518.95,-72.6667 1518.95,-72.6667 1518.95,-65.3333 1518.95,-65.3333 1518.95,-61.6667 1522.61,-58 1526.28,-58 1526.28,-58 1651.72,-58 1651.72,-58 1655.39,-58 1659.05,-61.6667 1659.05,-65.3333 1659.05,-65.3333 1659.05,-72.6667 1659.05,-72.6667 1659.05,-76.3333 1655.39,-80 1651.72,-80"/>
<text text-anchor="middle" x="1589" y="-65.4" font-family="Helvetica,sans-Serif" font-size="12.00" fill="white">_ReverseCollectionType</text>
</a>
</g>
</g>
<!-- CollectionType&#45;&gt;_ReverseCollectionType -->
<g id="edge45" class="edge">
<path fill="none" stroke="#cccccc" d="M1917.69,-241.451C1866.38,-239.124 1780.64,-229.911 1716,-196 1665.62,-169.569 1622.31,-116.453 1601.75,-88.3713"/>
<polygon fill="#cccccc" stroke="#cccccc" points="1604.57,-86.2886 1595.9,-80.1992 1598.88,-90.3662 1604.57,-86.2886"/>
</g>
<!-- EmptyGenerator -->
<g id="node15" class="node">
<g id="a_node15"><a xlink:href="/v2.1/type/EmptyGenerator/" target="_top">
<polygon fill="#999999" stroke="#999999" points="4297.03,-22 4198.97,-22 4198.97,-0 4297.03,-0 4297.03,-22"/>
<text text-anchor="middle" x="4248" y="-7.4" font-family="Helvetica,sans-Serif" font-size="12.00" fill="white">EmptyGenerator</text>
</a>
</g>
</g>
<!-- EnumerateGenerator -->
<g id="node16" class="node">
<g id="a_node16"><a xlink:href="/v2.1/type/EnumerateGenerator/" target="_top">
<polygon fill="#999999" stroke="#999999" points="4437.05,-22 4314.95,-22 4314.95,-0 4437.05,-0 4437.05,-22"/>
<text text-anchor="middle" x="4376" y="-7.4" font-family="Helvetica,sans-Serif" font-size="12.00" fill="white">EnumerateGenerator</text>
</a>
</g>
</g>
<!-- EnumerateSequence -->
<g id="node17" class="node">
<g id="a_node17"><a xlink:href="/v2.1/type/EnumerateSequence/" target="_top">
<polygon fill="#999999" stroke="#999999" points="4578.06,-22 4455.94,-22 4455.94,-0 4578.06,-0 4578.06,-22"/>
<text text-anchor="middle" x="4517" y="-7.4" font-family="Helvetica,sans-Serif" font-size="12.00" fill="white">EnumerateSequence</text>
</a>
</g>
</g>
<!-- FlattenGenerator -->
<g id="node20" class="node">
<g id="a_node20"><a xlink:href="/v2.1/type/FlattenGenerator/" target="_top">
<polygon fill="#999999" stroke="#999999" points="4697.04,-22 4596.96,-22 4596.96,-0 4697.04,-0 4697.04,-22"/>
<text text-anchor="middle" x="4647" y="-7.4" font-family="Helvetica,sans-Serif" font-size="12.00" fill="white">FlattenGenerator</text>
</a>
</g>
</g>
<!-- FlattenSequence -->
<g id="node21" class="node">
<g id="a_node21"><a xlink:href="/v2.1/type/FlattenSequence/" target="_top">
<polygon fill="#999999" stroke="#999999" points="4816.05,-22 4715.95,-22 4715.95,-0 4816.05,-0 4816.05,-22"/>
<text text-anchor="middle" x="4766" y="-7.4" font-family="Helvetica,sans-Serif" font-size="12.00" fill="white">FlattenSequence</text>
</a>
</g>
</g>
<!-- GeneratorOfOne -->
<g id="node22" class="node">
<g id="a_node22"><a xlink:href="/v2.1/type/GeneratorOfOne/" target="_top">
<polygon fill="#999999" stroke="#999999" points="4933.53,-22 4834.47,-22 4834.47,-0 4933.53,-0 4933.53,-22"/>
<text text-anchor="middle" x="4884" y="-7.4" font-family="Helvetica,sans-Serif" font-size="12.00" fill="white">GeneratorOfOne</text>
</a>
</g>
</g>
<!-- GeneratorSequence -->
<g id="node23" class="node">
<g id="a_node23"><a xlink:href="/v2.1/type/GeneratorSequence/" target="_top">
<polygon fill="#999999" stroke="#999999" points="5070.06,-22 4951.94,-22 4951.94,-0 5070.06,-0 5070.06,-22"/>
<text text-anchor="middle" x="5011" y="-7.4" font-family="Helvetica,sans-Serif" font-size="12.00" fill="white">GeneratorSequence</text>
</a>
</g>
</g>
<!-- IndexingGenerator -->
<g id="node24" class="node">
<g id="a_node24"><a xlink:href="/v2.1/type/IndexingGenerator/" target="_top">
<polygon fill="#999999" stroke="#999999" points="5197.55,-22 5088.45,-22 5088.45,-0 5197.55,-0 5197.55,-22"/>
<text text-anchor="middle" x="5143" y="-7.4" font-family="Helvetica,sans-Serif" font-size="12.00" fill="white">IndexingGenerator</text>
</a>
</g>
</g>
<!-- JoinSequence -->
<g id="node25" class="node">
<g id="a_node25"><a xlink:href="/v2.1/type/JoinSequence/" target="_top">
<polygon fill="#999999" stroke="#999999" points="5302.05,-22 5215.95,-22 5215.95,-0 5302.05,-0 5302.05,-22"/>
<text text-anchor="middle" x="5259" y="-7.4" font-family="Helvetica,sans-Serif" font-size="12.00" fill="white">JoinSequence</text>
</a>
</g>
</g>
<!-- LazyCollectionType&#45;&gt;LazyCollection -->
<g id="edge53" class="edge">
<path fill="none" stroke="#cccccc" d="M3395.73,-57.9883C3377.06,-49.2036 3349.68,-36.3222 3328.65,-26.4255"/>
<polygon fill="#cccccc" stroke="#cccccc" points="3330.03,-23.205 3319.49,-22.1138 3327.05,-29.5387 3330.03,-23.205"/>
</g>
<!-- LazyFilterCollection -->
<g id="node28" class="node">
<g id="a_node28"><a xlink:href="/v2.1/type/LazyFilterCollection/" target="_top">
<polygon fill="#999999" stroke="#999999" points="3474.03,-22 3359.97,-22 3359.97,-0 3474.03,-0 3474.03,-22"/>
<text text-anchor="middle" x="3417" y="-7.4" font-family="Helvetica,sans-Serif" font-size="12.00" fill="white">LazyFilterCollection</text>
</a>
</g>
</g>
<!-- LazyCollectionType&#45;&gt;LazyFilterCollection -->
<g id="edge54" class="edge">
<path fill="none" stroke="#cccccc" d="M3417,-57.9883C3417,-50.9098 3417,-41.1714 3417,-32.4779"/>
<polygon fill="#cccccc" stroke="#cccccc" points="3420.5,-32.3038 3417,-22.3039 3413.5,-32.3039 3420.5,-32.3038"/>
</g>
<!-- LazyMapCollection -->
<g id="node31" class="node">
<g id="a_node31"><a xlink:href="/v2.1/type/LazyMapCollection/" target="_top">
<polygon fill="#999999" stroke="#999999" points="3603.54,-22 3492.46,-22 3492.46,-0 3603.54,-0 3603.54,-22"/>
<text text-anchor="middle" x="3548" y="-7.4" font-family="Helvetica,sans-Serif" font-size="12.00" fill="white">LazyMapCollection</text>
</a>
</g>
</g>
<!-- LazyCollectionType&#45;&gt;LazyMapCollection -->
<g id="edge55" class="edge">
<path fill="none" stroke="#cccccc" d="M3440.42,-57.9883C3461.16,-49.1244 3491.65,-36.0897 3514.88,-26.1587"/>
<polygon fill="#cccccc" stroke="#cccccc" points="3516.52,-29.2629 3524.34,-22.1138 3513.77,-22.8263 3516.52,-29.2629"/>
</g>
<!-- LazyFilterGenerator -->
<g id="node29" class="node">
<g id="a_node29"><a xlink:href="/v2.1/type/LazyFilterGenerator/" target="_top">
<polygon fill="#999999" stroke="#999999" points="5436.03,-22 5319.97,-22 5319.97,-0 5436.03,-0 5436.03,-22"/>
<text text-anchor="middle" x="5378" y="-7.4" font-family="Helvetica,sans-Serif" font-size="12.00" fill="white">LazyFilterGenerator</text>
</a>
</g>
</g>
<!-- LazyFilterSequence -->
<g id="node30" class="node">
<g id="a_node30"><a xlink:href="/v2.1/type/LazyFilterSequence/" target="_top">
<polygon fill="#999999" stroke="#999999" points="3976.05,-22 3859.95,-22 3859.95,-0 3976.05,-0 3976.05,-22"/>
<text text-anchor="middle" x="3918" y="-7.4" font-family="Helvetica,sans-Serif" font-size="12.00" fill="white">LazyFilterSequence</text>
</a>
</g>
</g>
<!-- LazyMapGenerator -->
<g id="node32" class="node">
<g id="a_node32"><a xlink:href="/v2.1/type/LazyMapGenerator/" target="_top">
<polygon fill="#999999" stroke="#999999" points="5566.04,-22 5453.96,-22 5453.96,-0 5566.04,-0 5566.04,-22"/>
<text text-anchor="middle" x="5510" y="-7.4" font-family="Helvetica,sans-Serif" font-size="12.00" fill="white">LazyMapGenerator</text>
</a>
</g>
</g>
<!-- LazyMapSequence -->
<g id="node33" class="node">
<g id="a_node33"><a xlink:href="/v2.1/type/LazyMapSequence/" target="_top">
<polygon fill="#999999" stroke="#999999" points="3734.05,-22 3621.95,-22 3621.95,-0 3734.05,-0 3734.05,-22"/>
<text text-anchor="middle" x="3678" y="-7.4" font-family="Helvetica,sans-Serif" font-size="12.00" fill="white">LazyMapSequence</text>
</a>
</g>
</g>
<!-- LazySequence -->
<g id="node34" class="node">
<g id="a_node34"><a xlink:href="/v2.1/type/LazySequence/" target="_top">
<polygon fill="#999999" stroke="#999999" points="3841.55,-22 3752.45,-22 3752.45,-0 3841.55,-0 3841.55,-22"/>
<text text-anchor="middle" x="3797" y="-7.4" font-family="Helvetica,sans-Serif" font-size="12.00" fill="white">LazySequence</text>
</a>
</g>
</g>
<!-- LazySequenceType -->
<g id="node35" class="node">
<g id="a_node35"><a xlink:href="/v2.1/protocol/LazySequenceType/" target="_top">
<path fill="#999999" stroke="#999999" d="M3847.23,-138C3847.23,-138 3746.77,-138 3746.77,-138 3743.11,-138 3739.44,-134.333 3739.44,-130.667 3739.44,-130.667 3739.44,-123.333 3739.44,-123.333 3739.44,-119.667 3743.11,-116 3746.77,-116 3746.77,-116 3847.23,-116 3847.23,-116 3850.89,-116 3854.56,-119.667 3854.56,-123.333 3854.56,-123.333 3854.56,-130.667 3854.56,-130.667 3854.56,-134.333 3850.89,-138 3847.23,-138"/>
<text text-anchor="middle" x="3797" y="-123.4" font-family="Helvetica,sans-Serif" font-size="12.00" fill="white">LazySequenceType</text>
</a>
</g>
</g>
<!-- LazySequenceType&#45;&gt;LazyCollectionType -->
<g id="edge72" class="edge">
<path fill="none" stroke="#cccccc" d="M3739.29,-117.495C3670.77,-107.398 3556.71,-90.5882 3484.26,-79.9119"/>
<polygon fill="#cccccc" stroke="#cccccc" points="3484.73,-76.4429 3474.32,-78.4475 3483.71,-83.3681 3484.73,-76.4429"/>
</g>
<!-- LazySequenceType&#45;&gt;LazyFilterSequence -->
<g id="edge73" class="edge">
<path fill="none" stroke="#cccccc" d="M3807.74,-115.883C3828.41,-96.4116 3873.93,-53.52 3899.55,-29.3824"/>
<polygon fill="#cccccc" stroke="#cccccc" points="3902.23,-31.6628 3907.11,-22.2579 3897.43,-26.5679 3902.23,-31.6628"/>
</g>
<!-- LazySequenceType&#45;&gt;LazyMapSequence -->
<g id="edge74" class="edge">
<path fill="none" stroke="#cccccc" d="M3786.44,-115.883C3766.11,-96.4116 3721.34,-53.52 3696.14,-29.3824"/>
<polygon fill="#cccccc" stroke="#cccccc" points="3698.35,-26.6483 3688.71,-22.2579 3693.51,-31.7031 3698.35,-26.6483"/>
</g>
<!-- LazySequenceType&#45;&gt;LazySequence -->
<g id="edge75" class="edge">
<path fill="none" stroke="#cccccc" d="M3797,-115.883C3797,-97.1703 3797,-56.8266 3797,-32.2866"/>
<polygon fill="#cccccc" stroke="#cccccc" points="3800.5,-32.2579 3797,-22.2579 3793.5,-32.258 3800.5,-32.2579"/>
</g>
<!-- MutableCollectionType&#45;&gt;Array -->
<g id="edge56" class="edge">
<path fill="none" stroke="#cccccc" d="M2892.38,-173.756C2885.3,-146.097 2865.71,-69.5091 2856.25,-32.5186"/>
<polygon fill="#cccccc" stroke="#cccccc" points="2859.53,-31.2287 2853.66,-22.4081 2852.75,-32.9635 2859.53,-31.2287"/>
</g>
<!-- MutableCollectionType&#45;&gt;ArraySlice -->
<g id="edge57" class="edge">
<path fill="none" stroke="#cccccc" d="M2960.53,-178.181C2992,-172.366 3028.35,-160.826 3054,-138 3070.41,-123.395 3090.81,-63.9972 3100.84,-32.246"/>
<polygon fill="#cccccc" stroke="#cccccc" points="3104.31,-32.875 3103.93,-22.2869 3097.63,-30.7993 3104.31,-32.875"/>
</g>
<!-- MutableCollectionType&#45;&gt;ContiguousArray -->
<g id="edge58" class="edge">
<path fill="none" stroke="#cccccc" d="M2888.38,-173.772C2873.94,-151.749 2838.1,-98.5509 2803,-58 2794.3,-47.9532 2783.8,-37.5348 2774.93,-29.1588"/>
<polygon fill="#cccccc" stroke="#cccccc" points="2777.05,-26.3518 2767.34,-22.11 2772.29,-31.4803 2777.05,-26.3518"/>
</g>
<!-- MutableSlice -->
<g id="node37" class="node">
<g id="a_node37"><a xlink:href="/v2.1/type/MutableSlice/" target="_top">
<polygon fill="#999999" stroke="#999999" points="3236.03,-22 3157.97,-22 3157.97,-0 3236.03,-0 3236.03,-22"/>
<text text-anchor="middle" x="3197" y="-7.4" font-family="Helvetica,sans-Serif" font-size="12.00" fill="white">MutableSlice</text>
</a>
</g>
</g>
<!-- MutableCollectionType&#45;&gt;MutableSlice -->
<g id="edge59" class="edge">
<path fill="none" stroke="#cccccc" d="M2960.74,-176.287C2996.65,-169.929 3040.84,-158.474 3076,-138 3123.57,-110.305 3164.5,-58.5533 3184.3,-30.7722"/>
<polygon fill="#cccccc" stroke="#cccccc" points="3187.34,-32.543 3190.19,-22.3391 3181.59,-28.5375 3187.34,-32.543"/>
</g>
<!-- MutableCollectionType&#45;&gt;MutableSliceable -->
<g id="edge60" class="edge">
<path fill="none" stroke="#cccccc" d="M2870.69,-173.988C2849.06,-165.085 2817.22,-151.973 2793.06,-142.026"/>
<polygon fill="#cccccc" stroke="#cccccc" points="2794.14,-138.685 2783.56,-138.114 2791.48,-145.158 2794.14,-138.685"/>
</g>
<!-- UnsafeMutableBufferPointer -->
<g id="node58" class="node">
<g id="a_node58"><a xlink:href="/v2.1/type/UnsafeMutableBufferPointer/" target="_top">
<polygon fill="#999999" stroke="#999999" points="3055.91,-22 2896.09,-22 2896.09,-0 3055.91,-0 3055.91,-22"/>
<text text-anchor="middle" x="2976" y="-7.4" font-family="Helvetica,sans-Serif" font-size="12.00" fill="white">UnsafeMutableBufferPointer</text>
</a>
</g>
</g>
<!-- MutableCollectionType&#45;&gt;UnsafeMutableBufferPointer -->
<g id="edge61" class="edge">
<path fill="none" stroke="#cccccc" d="M2899.82,-173.756C2912.96,-145.859 2949.54,-68.185 2966.78,-31.5708"/>
<polygon fill="#cccccc" stroke="#cccccc" points="2970,-32.9463 2971.1,-22.4081 2963.67,-29.9639 2970,-32.9463"/>
</g>
<!-- _ArrayBufferType -->
<g id="node60" class="node">
<g id="a_node60"><a xlink:href="/v2.1/protocol/_ArrayBufferType/" target="_top">
<path fill="#999999" stroke="#999999" d="M3038.04,-138C3038.04,-138 2949.96,-138 2949.96,-138 2946.29,-138 2942.62,-134.333 2942.62,-130.667 2942.62,-130.667 2942.62,-123.333 2942.62,-123.333 2942.62,-119.667 2946.29,-116 2949.96,-116 2949.96,-116 3038.04,-116 3038.04,-116 3041.71,-116 3045.38,-119.667 3045.38,-123.333 3045.38,-123.333 3045.38,-130.667 3045.38,-130.667 3045.38,-134.333 3041.71,-138 3038.04,-138"/>
<text text-anchor="middle" x="2994" y="-123.4" font-family="Helvetica,sans-Serif" font-size="12.00" fill="white">_ArrayBufferType</text>
</a>
</g>
</g>
<!-- MutableCollectionType&#45;&gt;_ArrayBufferType -->
<g id="edge62" class="edge">
<path fill="none" stroke="#cccccc" d="M2912.7,-173.988C2927.81,-165.441 2949.78,-153.015 2967.07,-143.234"/>
<polygon fill="#cccccc" stroke="#cccccc" points="2969.14,-146.084 2976.12,-138.114 2965.69,-139.991 2969.14,-146.084"/>
</g>
<!-- _ArrayType -->
<g id="node61" class="node">
<g id="a_node61"><a xlink:href="/v2.1/protocol/_ArrayType/" target="_top">
<path fill="#999999" stroke="#999999" d="M2787.19,-80C2787.19,-80 2730.81,-80 2730.81,-80 2727.14,-80 2723.48,-76.3333 2723.48,-72.6667 2723.48,-72.6667 2723.48,-65.3333 2723.48,-65.3333 2723.48,-61.6667 2727.14,-58 2730.81,-58 2730.81,-58 2787.19,-58 2787.19,-58 2790.86,-58 2794.52,-61.6667 2794.52,-65.3333 2794.52,-65.3333 2794.52,-72.6667 2794.52,-72.6667 2794.52,-76.3333 2790.86,-80 2787.19,-80"/>
<text text-anchor="middle" x="2759" y="-65.4" font-family="Helvetica,sans-Serif" font-size="12.00" fill="white">_ArrayType</text>
</a>
</g>
</g>
<!-- MutableSliceable&#45;&gt;_ArrayType -->
<g id="edge63" class="edge">
<path fill="none" stroke="#cccccc" d="M2759,-115.988C2759,-108.91 2759,-99.1714 2759,-90.4779"/>
<polygon fill="#cccccc" stroke="#cccccc" points="2762.5,-90.3038 2759,-80.3039 2755.5,-90.3039 2762.5,-90.3038"/>
</g>
<!-- PermutationGenerator -->
<g id="node39" class="node">
<g id="a_node39"><a xlink:href="/v2.1/type/PermutationGenerator/" target="_top">
<polygon fill="#999999" stroke="#999999" points="5713.05,-22 5584.95,-22 5584.95,-0 5713.05,-0 5713.05,-22"/>
<text text-anchor="middle" x="5649" y="-7.4" font-family="Helvetica,sans-Serif" font-size="12.00" fill="white">PermutationGenerator</text>
</a>
</g>
</g>
<!-- RangeGenerator -->
<g id="node41" class="node">
<g id="a_node41"><a xlink:href="/v2.1/type/RangeGenerator/" target="_top">
<polygon fill="#999999" stroke="#999999" points="5830.54,-22 5731.46,-22 5731.46,-0 5830.54,-0 5830.54,-22"/>
<text text-anchor="middle" x="5781" y="-7.4" font-family="Helvetica,sans-Serif" font-size="12.00" fill="white">RangeGenerator</text>
</a>
</g>
</g>
<!-- RangeReplaceableCollectionType&#45;&gt;String.CharacterView -->
<g id="edge68" class="edge">
<path fill="none" stroke="#cccccc" d="M2493.96,-115.883C2519.22,-96.1587 2575.26,-52.4019 2605.93,-28.4515"/>
<polygon fill="#cccccc" stroke="#cccccc" points="2608.13,-31.171 2613.86,-22.2579 2603.83,-25.6537 2608.13,-31.171"/>
</g>
<!-- RangeReplaceableCollectionType&#45;&gt;String.UnicodeScalarView -->
<g id="edge69" class="edge">
<path fill="none" stroke="#cccccc" d="M2480.29,-115.883C2478.98,-97.1703 2476.15,-56.8266 2474.42,-32.2866"/>
<polygon fill="#cccccc" stroke="#cccccc" points="2477.91,-31.9884 2473.72,-22.2579 2470.93,-32.4785 2477.91,-31.9884"/>
</g>
<!-- RangeReplaceableCollectionType&#45;&gt;_ArrayType -->
<g id="edge67" class="edge">
<path fill="none" stroke="#cccccc" d="M2530.7,-115.988C2582.57,-105.54 2663.21,-89.2959 2713.47,-79.1717"/>
<polygon fill="#cccccc" stroke="#cccccc" points="2714.29,-82.5761 2723.4,-77.1702 2712.91,-75.714 2714.29,-82.5761"/>
</g>
<!-- ReverseRandomAccessCollection -->
<g id="node45" class="node">
<g id="a_node45"><a xlink:href="/v2.1/type/ReverseRandomAccessCollection/" target="_top">
<polygon fill="#999999" stroke="#999999" points="1684.56,-22 1493.44,-22 1493.44,-0 1684.56,-0 1684.56,-22"/>
<text text-anchor="middle" x="1589" y="-7.4" font-family="Helvetica,sans-Serif" font-size="12.00" fill="white">ReverseRandomAccessCollection</text>
</a>
</g>
</g>
<!-- SequenceType -->
<g id="node46" class="node">
<g id="a_node46"><a xlink:href="/v2.1/protocol/SequenceType/" target="_top">
<path fill="#ee543d" stroke="#ee543d" d="M4984.72,-312C4984.72,-312 4909.28,-312 4909.28,-312 4905.62,-312 4901.95,-308.333 4901.95,-304.667 4901.95,-304.667 4901.95,-297.333 4901.95,-297.333 4901.95,-293.667 4905.62,-290 4909.28,-290 4909.28,-290 4984.72,-290 4984.72,-290 4988.38,-290 4992.05,-293.667 4992.05,-297.333 4992.05,-297.333 4992.05,-304.667 4992.05,-304.667 4992.05,-308.333 4988.38,-312 4984.72,-312"/>
<text text-anchor="middle" x="4947" y="-297.4" font-family="Helvetica,sans-Serif" font-size="12.00" fill="white">SequenceType</text>
</a>
</g>
</g>
<!-- SequenceType&#45;&gt;AnyGenerator -->
<g id="edge1" class="edge">
<path fill="none" stroke="#cccccc" d="M4901.89,-299.914C4756.66,-299.239 4302.52,-293.906 4162,-254 4100.79,-236.615 4036,-249.635 4036,-186 4036,-186 4036,-186 4036,-126 4036,-93.1536 4036,-54.9837 4036,-32.197"/>
<polygon fill="#cccccc" stroke="#cccccc" points="4039.5,-32.0648 4036,-22.0648 4032.5,-32.0648 4039.5,-32.0648"/>
</g>
<!-- SequenceType&#45;&gt;AnySequence -->
<g id="edge2" class="edge">
<path fill="none" stroke="#cccccc" d="M4901.61,-299.373C4769.61,-297.164 4387.64,-287.933 4268,-254 4205.65,-236.315 4139,-250.811 4139,-186 4139,-186 4139,-186 4139,-126 4139,-93.1536 4139,-54.9837 4139,-32.197"/>
<polygon fill="#cccccc" stroke="#cccccc" points="4142.5,-32.0648 4139,-22.0648 4135.5,-32.0648 4142.5,-32.0648"/>
</g>
<!-- SequenceType&#45;&gt;CollectionType -->
<g id="edge3" class="edge">
<path fill="none" stroke="#cccccc" d="M4901.9,-299.154C4560.73,-292.753 2389.2,-252.015 2016.43,-245.021"/>
<polygon fill="#cccccc" stroke="#cccccc" points="2016.24,-241.517 2006.18,-244.829 2016.11,-248.516 2016.24,-241.517"/>
</g>
<!-- SequenceType&#45;&gt;EmptyGenerator -->
<g id="edge4" class="edge">
<path fill="none" stroke="#cccccc" d="M4901.96,-298.118C4789.06,-293.092 4496.3,-278.08 4402,-254 4329.51,-235.489 4248,-260.82 4248,-186 4248,-186 4248,-186 4248,-126 4248,-93.1536 4248,-54.9837 4248,-32.197"/>
<polygon fill="#cccccc" stroke="#cccccc" points="4251.5,-32.0648 4248,-22.0648 4244.5,-32.0648 4251.5,-32.0648"/>
</g>
<!-- SequenceType&#45;&gt;EnumerateGenerator -->
<g id="edge5" class="edge">
<path fill="none" stroke="#cccccc" d="M4901.72,-300.552C4766.66,-300.996 4376,-293.027 4376,-186 4376,-186 4376,-186 4376,-126 4376,-93.1536 4376,-54.9837 4376,-32.197"/>
<polygon fill="#cccccc" stroke="#cccccc" points="4379.5,-32.0648 4376,-22.0648 4372.5,-32.0648 4379.5,-32.0648"/>
</g>
<!-- SequenceType&#45;&gt;EnumerateSequence -->
<g id="edge6" class="edge">
<path fill="none" stroke="#cccccc" d="M4901.8,-297.603C4791.39,-290.519 4517,-264.969 4517,-186 4517,-186 4517,-186 4517,-126 4517,-93.1536 4517,-54.9837 4517,-32.197"/>
<polygon fill="#cccccc" stroke="#cccccc" points="4520.5,-32.0648 4517,-22.0648 4513.5,-32.0648 4520.5,-32.0648"/>
</g>
<!-- SequenceType&#45;&gt;FlattenGenerator -->
<g id="edge7" class="edge">
<path fill="none" stroke="#cccccc" d="M4901.76,-292.514C4817.95,-277.355 4647,-239.837 4647,-186 4647,-186 4647,-186 4647,-126 4647,-93.1536 4647,-54.9837 4647,-32.197"/>
<polygon fill="#cccccc" stroke="#cccccc" points="4650.5,-32.0648 4647,-22.0648 4643.5,-32.0648 4650.5,-32.0648"/>
</g>
<!-- SequenceType&#45;&gt;FlattenSequence -->
<g id="edge8" class="edge">
<path fill="none" stroke="#cccccc" d="M4901.79,-291.973C4848.18,-279.551 4766,-250.061 4766,-186 4766,-186 4766,-186 4766,-126 4766,-93.1536 4766,-54.9837 4766,-32.197"/>
<polygon fill="#cccccc" stroke="#cccccc" points="4769.5,-32.0648 4766,-22.0648 4762.5,-32.0648 4769.5,-32.0648"/>
</g>
<!-- SequenceType&#45;&gt;GeneratorOfOne -->
<g id="edge9" class="edge">
<path fill="none" stroke="#cccccc" d="M4936.6,-289.742C4918.7,-270.95 4884,-228.964 4884,-186 4884,-186 4884,-186 4884,-126 4884,-93.1536 4884,-54.9837 4884,-32.197"/>
<polygon fill="#cccccc" stroke="#cccccc" points="4887.5,-32.0648 4884,-22.0648 4880.5,-32.0648 4887.5,-32.0648"/>
</g>
<!-- SequenceType&#45;&gt;GeneratorSequence -->
<g id="edge10" class="edge">
<path fill="none" stroke="#cccccc" d="M4957.57,-289.774C4975.75,-271.032 5011,-229.125 5011,-186 5011,-186 5011,-186 5011,-126 5011,-93.1536 5011,-54.9837 5011,-32.197"/>
<polygon fill="#cccccc" stroke="#cccccc" points="5014.5,-32.0648 5011,-22.0648 5007.5,-32.0648 5014.5,-32.0648"/>
</g>
<!-- SequenceType&#45;&gt;IndexingGenerator -->
<g id="edge11" class="edge">
<path fill="none" stroke="#cccccc" d="M4992.46,-293.857C5050.36,-283.184 5143,-255.282 5143,-186 5143,-186 5143,-186 5143,-126 5143,-93.1536 5143,-54.9837 5143,-32.197"/>
<polygon fill="#cccccc" stroke="#cccccc" points="5146.5,-32.0648 5143,-22.0648 5139.5,-32.0648 5146.5,-32.0648"/>
</g>
<!-- SequenceType&#45;&gt;JoinSequence -->
<g id="edge12" class="edge">
<path fill="none" stroke="#cccccc" d="M4992.03,-293.189C5078.44,-278.846 5259,-242.155 5259,-186 5259,-186 5259,-186 5259,-126 5259,-93.1536 5259,-54.9837 5259,-32.197"/>
<polygon fill="#cccccc" stroke="#cccccc" points="5262.5,-32.0648 5259,-22.0648 5255.5,-32.0648 5262.5,-32.0648"/>
</g>
<!-- SequenceType&#45;&gt;LazyCollection -->
<g id="edge13" class="edge">
<path fill="none" stroke="#cccccc" d="M4901.65,-299.268C4638.07,-294.723 3315,-267.834 3315,-186 3315,-186 3315,-186 3315,-126 3315,-92.8107 3307.86,-54.7748 3302.84,-32.1039"/>
<polygon fill="#cccccc" stroke="#cccccc" points="3306.24,-31.2576 3300.58,-22.2974 3299.41,-32.8276 3306.24,-31.2576"/>
</g>
<!-- SequenceType&#45;&gt;LazyFilterGenerator -->
<g id="edge14" class="edge">
<path fill="none" stroke="#cccccc" d="M4992.31,-297.624C5102.97,-290.588 5378,-265.141 5378,-186 5378,-186 5378,-186 5378,-126 5378,-93.1536 5378,-54.9837 5378,-32.197"/>
<polygon fill="#cccccc" stroke="#cccccc" points="5381.5,-32.0648 5378,-22.0648 5374.5,-32.0648 5381.5,-32.0648"/>
</g>
<!-- SequenceType&#45;&gt;LazyMapGenerator -->
<g id="edge15" class="edge">
<path fill="none" stroke="#cccccc" d="M4992.12,-300.424C5125.72,-300.476 5510,-291.461 5510,-186 5510,-186 5510,-186 5510,-126 5510,-93.1536 5510,-54.9837 5510,-32.197"/>
<polygon fill="#cccccc" stroke="#cccccc" points="5513.5,-32.0648 5510,-22.0648 5506.5,-32.0648 5513.5,-32.0648"/>
</g>
<!-- SequenceType&#45;&gt;LazySequenceType -->
<g id="edge16" class="edge">
<path fill="none" stroke="#cccccc" d="M4901.93,-300.472C4740.24,-301.744 4190.04,-302.338 4022,-254 3940.74,-230.626 3856.92,-173.164 3818.54,-144.631"/>
<polygon fill="#cccccc" stroke="#cccccc" points="3820.31,-141.579 3810.21,-138.359 3816.1,-147.171 3820.31,-141.579"/>
</g>
<!-- SequenceType&#45;&gt;PermutationGenerator -->
<g id="edge17" class="edge">
<path fill="none" stroke="#cccccc" d="M4992.33,-300.138C5083.71,-299.515 5296.05,-293.502 5469,-254 5552.37,-234.958 5649,-271.518 5649,-186 5649,-186 5649,-186 5649,-126 5649,-93.1536 5649,-54.9837 5649,-32.197"/>
<polygon fill="#cccccc" stroke="#cccccc" points="5652.5,-32.0648 5649,-22.0648 5645.5,-32.0648 5652.5,-32.0648"/>
</g>
<!-- SequenceType&#45;&gt;RangeGenerator -->
<g id="edge18" class="edge">
<path fill="none" stroke="#cccccc" d="M4992.14,-298.629C5165.77,-292.768 5781,-266.33 5781,-186 5781,-186 5781,-186 5781,-126 5781,-93.1536 5781,-54.9837 5781,-32.197"/>
<polygon fill="#cccccc" stroke="#cccccc" points="5784.5,-32.0648 5781,-22.0648 5777.5,-32.0648 5784.5,-32.0648"/>
</g>
<!-- StrideThrough -->
<g id="node49" class="node">
<g id="a_node49"><a xlink:href="/v2.1/type/StrideThrough/" target="_top">
<polygon fill="#999999" stroke="#999999" points="5935.03,-22 5848.97,-22 5848.97,-0 5935.03,-0 5935.03,-22"/>
<text text-anchor="middle" x="5892" y="-7.4" font-family="Helvetica,sans-Serif" font-size="12.00" fill="white">StrideThrough</text>
</a>
</g>
</g>
<!-- SequenceType&#45;&gt;StrideThrough -->
<g id="edge19" class="edge">
<path fill="none" stroke="#cccccc" d="M4992.26,-299.36C5180.55,-296.112 5892,-277.766 5892,-186 5892,-186 5892,-186 5892,-126 5892,-93.1536 5892,-54.9837 5892,-32.197"/>
<polygon fill="#cccccc" stroke="#cccccc" points="5895.5,-32.0648 5892,-22.0648 5888.5,-32.0648 5895.5,-32.0648"/>
</g>
<!-- StrideTo -->
<g id="node50" class="node">
<g id="a_node50"><a xlink:href="/v2.1/type/StrideTo/" target="_top">
<polygon fill="#999999" stroke="#999999" points="6007.02,-22 5952.98,-22 5952.98,-0 6007.02,-0 6007.02,-22"/>
<text text-anchor="middle" x="5980" y="-7.4" font-family="Helvetica,sans-Serif" font-size="12.00" fill="white">StrideTo</text>
</a>
</g>
</g>
<!-- SequenceType&#45;&gt;StrideTo -->
<g id="edge20" class="edge">
<path fill="none" stroke="#cccccc" d="M4992.05,-299.833C5190.87,-298.516 5980,-286.928 5980,-186 5980,-186 5980,-186 5980,-126 5980,-93.1536 5980,-54.9837 5980,-32.197"/>
<polygon fill="#cccccc" stroke="#cccccc" points="5983.5,-32.0648 5980,-22.0648 5976.5,-32.0648 5983.5,-32.0648"/>
</g>
<!-- UnsafeBufferPointerGenerator -->
<g id="node57" class="node">
<g id="a_node57"><a xlink:href="/v2.1/type/UnsafeBufferPointerGenerator/" target="_top">
<polygon fill="#999999" stroke="#999999" points="6196.41,-22 6025.59,-22 6025.59,-0 6196.41,-0 6196.41,-22"/>
<text text-anchor="middle" x="6111" y="-7.4" font-family="Helvetica,sans-Serif" font-size="12.00" fill="white">UnsafeBufferPointerGenerator</text>
</a>
</g>
</g>
<!-- SequenceType&#45;&gt;UnsafeBufferPointerGenerator -->
<g id="edge21" class="edge">
<path fill="none" stroke="#cccccc" d="M4992.27,-300.403C5206.84,-301.731 6111,-300.533 6111,-186 6111,-186 6111,-186 6111,-126 6111,-93.1536 6111,-54.9837 6111,-32.197"/>
<polygon fill="#cccccc" stroke="#cccccc" points="6114.5,-32.0648 6111,-22.0648 6107.5,-32.0648 6114.5,-32.0648"/>
</g>
<!-- Zip2Sequence -->
<g id="node59" class="node">
<g id="a_node59"><a xlink:href="/v2.1/type/Zip2Sequence/" target="_top">
<polygon fill="#999999" stroke="#999999" points="6302.54,-22 6215.46,-22 6215.46,-0 6302.54,-0 6302.54,-22"/>
<text text-anchor="middle" x="6259" y="-7.4" font-family="Helvetica,sans-Serif" font-size="12.00" fill="white">Zip2Sequence</text>
</a>
</g>
</g>
<!-- SequenceType&#45;&gt;Zip2Sequence -->
<g id="edge22" class="edge">
<path fill="none" stroke="#cccccc" d="M4992.11,-299.482C5169.36,-297.226 5818.12,-286.856 6021,-254 6129.6,-236.413 6259,-296.011 6259,-186 6259,-186 6259,-186 6259,-126 6259,-93.1536 6259,-54.9837 6259,-32.197"/>
<polygon fill="#cccccc" stroke="#cccccc" points="6262.5,-32.0648 6259,-22.0648 6255.5,-32.0648 6262.5,-32.0648"/>
</g>
<!-- _ArrayType&#45;&gt;Array -->
<g id="edge64" class="edge">
<path fill="none" stroke="#cccccc" d="M2775.45,-57.9883C2789.36,-49.5201 2809.53,-37.2452 2825.52,-27.5067"/>
<polygon fill="#cccccc" stroke="#cccccc" points="2827.66,-30.303 2834.38,-22.1138 2824.02,-24.3236 2827.66,-30.303"/>
</g>
<!-- _ArrayType&#45;&gt;ArraySlice -->
<g id="edge65" class="edge">
<path fill="none" stroke="#cccccc" d="M2794.51,-63.6538C2851.71,-56.4296 2967.69,-40.8628 3065,-22 3065.1,-21.9804 3065.2,-21.9607 3065.3,-21.9409"/>
<polygon fill="#cccccc" stroke="#cccccc" points="3065.88,-25.3954 3074.96,-19.924 3064.45,-18.5433 3065.88,-25.3954"/>
</g>
<!-- _ArrayType&#45;&gt;ContiguousArray -->
<g id="edge66" class="edge">
<path fill="none" stroke="#cccccc" d="M2758.46,-57.9883C2758.08,-50.9098 2757.56,-41.1714 2757.1,-32.4779"/>
<polygon fill="#cccccc" stroke="#cccccc" points="2760.58,-32.1023 2756.55,-22.3039 2753.59,-32.4768 2760.58,-32.1023"/>
</g>
<!-- _ReverseCollectionType&#45;&gt;ReverseCollection -->
<g id="edge70" class="edge">
<path fill="none" stroke="#cccccc" d="M1559.14,-57.9883C1531.92,-48.8587 1491.5,-35.3046 1461.59,-25.2743"/>
<polygon fill="#cccccc" stroke="#cccccc" points="1462.47,-21.8802 1451.88,-22.0192 1460.25,-28.517 1462.47,-21.8802"/>
</g>
<!-- _ReverseCollectionType&#45;&gt;ReverseRandomAccessCollection -->
<g id="edge71" class="edge">
<path fill="none" stroke="#cccccc" d="M1589,-57.9883C1589,-50.9098 1589,-41.1714 1589,-32.4779"/>
<polygon fill="#cccccc" stroke="#cccccc" points="1592.5,-32.3038 1589,-22.3039 1585.5,-32.3039 1592.5,-32.3038"/>
</g>
</g>
</svg>
