<?xml version="1.0" encoding="UTF-8" standalone="no"?>
<!DOCTYPE svg PUBLIC "-//W3C//DTD SVG 1.1//EN"
 "http://www.w3.org/Graphics/SVG/1.1/DTD/svg11.dtd">
<!-- Generated by graphviz version 2.36.0 (20140111.2315)
 -->
<!-- Title: Indexable &#45; Type Hierarchy &#45; SwiftDoc.org Pages: 1 -->
<svg width="3771pt" height="427pt"
 viewBox="0.00 0.00 3771.40 427.20" xmlns="http://www.w3.org/2000/svg" xmlns:xlink="http://www.w3.org/1999/xlink">
<g id="graph0" class="graph" transform="scale(1 1) rotate(0) translate(7.2 369.6)">
<g transform="translate(0 -369.6)">
<g>
    <path fill="#666666" d="M13.846,10.832c-0.336-0.464-0.792-0.844-1.368-1.14s-1.224-0.444-1.944-0.444
        c-0.384,0-0.772,0.052-1.164,0.156C8.977,9.509,8.622,9.677,8.301,9.908c-0.32,0.232-0.58,0.52-0.78,0.864
        c-0.2,0.344-0.3,0.756-0.3,1.236c0,0.464,0.092,0.852,0.276,1.164c0.184,0.312,0.432,0.576,0.744,0.792s0.68,0.4,1.104,0.552
        c0.423,0.152,0.876,0.309,1.356,0.468c0.576,0.177,1.16,0.376,1.752,0.601c0.592,0.224,1.128,0.52,1.608,0.888
        s0.872,0.828,1.176,1.38s0.456,1.252,0.456,2.101c0,0.88-0.164,1.644-0.492,2.292c-0.328,0.647-0.765,1.184-1.308,1.607
        c-0.544,0.424-1.172,0.74-1.884,0.948s-1.444,0.312-2.196,0.312c-1.072,0-2.108-0.208-3.108-0.624
        c-1-0.415-1.828-1.031-2.484-1.848l1.848-1.56c0.4,0.592,0.936,1.071,1.608,1.439c0.672,0.368,1.399,0.552,2.184,0.552
        c0.4,0,0.8-0.056,1.2-0.168c0.4-0.111,0.764-0.288,1.092-0.527c0.328-0.24,0.596-0.54,0.804-0.9
        c0.208-0.36,0.312-0.796,0.312-1.308s-0.108-0.94-0.324-1.284c-0.216-0.344-0.508-0.636-0.876-0.876s-0.796-0.444-1.284-0.612
        c-0.488-0.168-1.004-0.34-1.548-0.516c-0.544-0.16-1.08-0.356-1.608-0.588c-0.528-0.232-1-0.528-1.416-0.889
        c-0.416-0.359-0.752-0.804-1.008-1.332c-0.256-0.527-0.384-1.184-0.384-1.968c0-0.848,0.172-1.576,0.516-2.184
        c0.344-0.608,0.792-1.112,1.344-1.512c0.552-0.4,1.176-0.692,1.872-0.876c0.696-0.184,1.396-0.276,2.1-0.276
        c0.992,0,1.92,0.176,2.784,0.528c0.864,0.352,1.56,0.824,2.088,1.416L13.846,10.832z"/>
    <path fill="#666666" d="M18.813,13.304l2.568,8.688h0.048l2.712-8.688h2.376l2.76,8.688h0.048l2.568-8.688h2.376L30.501,24.68
        h-2.352l-2.808-8.544h-0.048l-2.784,8.544h-2.352l-3.792-11.376H18.813z"/>
    <path fill="#666666" d="M38.685,9.2c0,0.416-0.147,0.76-0.44,1.032c-0.294,0.272-0.647,0.408-1.06,0.408s-0.762-0.14-1.047-0.42
        c-0.286-0.28-0.429-0.62-0.429-1.02c0-0.416,0.143-0.764,0.429-1.044c0.286-0.28,0.635-0.42,1.047-0.42s0.766,0.14,1.06,0.42
        C38.538,8.437,38.685,8.784,38.685,9.2z M38.325,24.68h-2.256V13.304h2.256V24.68z"/>
    <path fill="#666666" d="M47.613,15.152h-2.64v9.528h-2.256v-9.528h-2.256v-1.848h2.256v-2.376c0-0.672,0.076-1.292,0.228-1.86
        c0.152-0.568,0.4-1.06,0.744-1.476c0.344-0.416,0.784-0.744,1.32-0.984c0.536-0.24,1.188-0.36,1.956-0.36
        c0.544,0,1.016,0.056,1.416,0.168l-0.264,1.944c-0.176-0.048-0.352-0.088-0.528-0.12c-0.176-0.032-0.376-0.048-0.6-0.048
        c-0.432,0-0.78,0.076-1.044,0.228c-0.264,0.152-0.468,0.356-0.612,0.612s-0.24,0.548-0.288,0.876
        c-0.048,0.328-0.072,0.668-0.072,1.02v2.376h2.64V15.152z"/>
    <path fill="#666666" d="M54.909,15.152h-3.024v5.91c0,0.687,0.128,1.177,0.384,1.472c0.256,0.295,0.664,0.442,1.224,0.442
        c0.208,0,0.432-0.021,0.672-0.065c0.24-0.044,0.456-0.11,0.648-0.198l0.072,1.848c-0.272,0.096-0.572,0.172-0.9,0.229
        c-0.328,0.056-0.668,0.084-1.02,0.084c-1.072,0-1.892-0.296-2.46-0.889c-0.568-0.592-0.852-1.479-0.852-2.664v-6.168h-2.184
        v-1.848h2.184V10.04h2.232v3.264h3.024V15.152z"/>
    <path fill="#666666" d="M57.356,7.688h5.832c1.088,0,2.176,0.16,3.264,0.48c1.088,0.32,2.072,0.824,2.952,1.512
        s1.592,1.568,2.136,2.64c0.544,1.072,0.816,2.36,0.816,3.864c0,1.456-0.272,2.716-0.816,3.78s-1.256,1.943-2.136,2.64
        s-1.864,1.216-2.952,1.561c-1.088,0.344-2.176,0.516-3.264,0.516h-5.832V7.688z M59.732,22.593h2.976
        c1.024,0,1.972-0.145,2.844-0.432c0.872-0.288,1.624-0.704,2.256-1.248c0.632-0.544,1.124-1.216,1.476-2.017
        c0.352-0.8,0.528-1.704,0.528-2.712c0-1.056-0.176-1.983-0.528-2.784c-0.353-0.8-0.844-1.468-1.476-2.004
        c-0.632-0.536-1.384-0.944-2.256-1.224s-1.82-0.42-2.844-0.42h-2.976V22.593z"/>
    <path fill="#666666" d="M86.06,18.969c0,0.88-0.156,1.688-0.468,2.424c-0.312,0.736-0.744,1.372-1.296,1.908
        c-0.552,0.536-1.204,0.952-1.956,1.248c-0.752,0.296-1.56,0.443-2.424,0.443c-0.864,0-1.672-0.147-2.424-0.443
        c-0.752-0.296-1.4-0.712-1.944-1.248c-0.544-0.536-0.972-1.172-1.284-1.908c-0.312-0.735-0.468-1.544-0.468-2.424
        s0.156-1.684,0.468-2.412c0.312-0.728,0.74-1.356,1.284-1.884c0.543-0.528,1.191-0.939,1.944-1.236
        c0.752-0.296,1.56-0.444,2.424-0.444c0.864,0,1.672,0.148,2.424,0.444c0.752,0.297,1.404,0.708,1.956,1.236
        c0.552,0.527,0.984,1.156,1.296,1.884C85.904,17.285,86.06,18.089,86.06,18.969z M83.708,18.98c0-0.542-0.084-1.061-0.252-1.556
        c-0.169-0.494-0.414-0.929-0.734-1.304s-0.718-0.674-1.192-0.897s-1.015-0.335-1.625-0.335c-0.61,0-1.152,0.111-1.625,0.335
        c-0.474,0.224-0.871,0.522-1.191,0.897c-0.321,0.375-0.566,0.81-0.734,1.304C76.184,17.92,76.1,18.438,76.1,18.98
        c0,0.543,0.084,1.062,0.253,1.556c0.168,0.495,0.413,0.934,0.734,1.316c0.321,0.383,0.718,0.686,1.191,0.909
        c0.473,0.224,1.015,0.335,1.625,0.335c0.61,0,1.151-0.111,1.625-0.335s0.871-0.526,1.192-0.909s0.565-0.821,0.734-1.316
        C83.624,20.042,83.708,19.523,83.708,18.98z"/>
    <path fill="#666666" d="M96.428,16.184c-0.24-0.368-0.6-0.676-1.08-0.924s-0.992-0.372-1.536-0.372
        c-0.592,0-1.116,0.112-1.572,0.336c-0.456,0.225-0.844,0.524-1.164,0.9c-0.32,0.376-0.564,0.812-0.732,1.308
        s-0.252,1.017-0.252,1.56c0,0.545,0.084,1.064,0.252,1.561s0.412,0.933,0.732,1.308c0.32,0.376,0.712,0.677,1.176,0.9
        c0.464,0.225,0.992,0.336,1.584,0.336c0.576,0,1.1-0.111,1.572-0.336c0.472-0.224,0.86-0.528,1.164-0.912l1.512,1.368
        c-0.48,0.561-1.08,0.996-1.8,1.308c-0.72,0.312-1.536,0.468-2.448,0.468c-0.88,0-1.692-0.144-2.436-0.432
        c-0.744-0.288-1.388-0.691-1.932-1.212c-0.544-0.52-0.972-1.147-1.284-1.884s-0.468-1.561-0.468-2.473
        c0-0.896,0.152-1.711,0.456-2.447c0.304-0.736,0.728-1.368,1.272-1.896c0.543-0.527,1.188-0.936,1.932-1.224
        c0.744-0.288,1.548-0.433,2.412-0.433c0.8,0,1.596,0.16,2.388,0.48s1.419,0.784,1.884,1.392L96.428,16.184z"/>
    <path fill="#666666" d="M103.1,23.24c0,0.417-0.152,0.784-0.456,1.104c-0.304,0.32-0.688,0.479-1.152,0.479
        c-0.448,0-0.828-0.155-1.14-0.468c-0.312-0.312-0.468-0.676-0.468-1.092c0-0.432,0.152-0.804,0.456-1.116
        c0.304-0.312,0.688-0.468,1.152-0.468c0.464,0,0.848,0.152,1.152,0.456C102.947,22.44,103.1,22.808,103.1,23.24z"/>
    <path fill="#666666" d="M116.635,18.969c0,0.88-0.156,1.688-0.468,2.424c-0.312,0.736-0.744,1.372-1.296,1.908
        c-0.552,0.536-1.204,0.952-1.956,1.248c-0.752,0.296-1.56,0.443-2.424,0.443c-0.864,0-1.672-0.147-2.424-0.443
        c-0.752-0.296-1.4-0.712-1.944-1.248c-0.544-0.536-0.972-1.172-1.284-1.908c-0.312-0.735-0.468-1.544-0.468-2.424
        s0.156-1.684,0.468-2.412c0.312-0.728,0.74-1.356,1.284-1.884c0.543-0.528,1.191-0.939,1.944-1.236
        c0.752-0.296,1.56-0.444,2.424-0.444c0.864,0,1.672,0.148,2.424,0.444c0.752,0.297,1.404,0.708,1.956,1.236
        c0.552,0.527,0.984,1.156,1.296,1.884C116.479,17.285,116.635,18.089,116.635,18.969z M114.283,18.98
        c0-0.542-0.084-1.061-0.252-1.556c-0.169-0.494-0.414-0.929-0.734-1.304s-0.718-0.674-1.192-0.897s-1.015-0.335-1.625-0.335
        c-0.61,0-1.152,0.111-1.625,0.335c-0.474,0.224-0.871,0.522-1.191,0.897c-0.321,0.375-0.566,0.81-0.734,1.304
        c-0.169,0.495-0.253,1.014-0.253,1.556c0,0.543,0.084,1.062,0.253,1.556c0.168,0.495,0.413,0.934,0.734,1.316
        c0.321,0.383,0.718,0.686,1.191,0.909c0.473,0.224,1.015,0.335,1.625,0.335c0.61,0,1.151-0.111,1.625-0.335
        s0.871-0.526,1.192-0.909s0.565-0.821,0.734-1.316C114.199,20.042,114.283,19.523,114.283,18.98z"/>
    <path fill="#666666" d="M119.251,14.577c-0.016-0.48-0.04-0.904-0.072-1.272h2.136c0.032,0.288,0.056,0.62,0.072,0.996
        c0.016,0.376,0.024,0.684,0.024,0.924h0.072c0.32-0.672,0.788-1.212,1.404-1.62c0.616-0.408,1.308-0.612,2.076-0.612
        c0.352,0,0.648,0.033,0.888,0.097l-0.096,2.088c-0.32-0.08-0.664-0.12-1.032-0.12c-0.544,0-1.016,0.101-1.416,0.3
        c-0.4,0.2-0.732,0.468-0.996,0.805c-0.264,0.336-0.46,0.724-0.588,1.163c-0.128,0.44-0.192,0.9-0.192,1.381v5.976h-2.256v-8.928
        C119.275,15.449,119.267,15.056,119.251,14.577z"/>
    <path fill="#666666" d="M128.419,26.625c0.496,0.56,1.116,1.008,1.86,1.344c0.744,0.336,1.508,0.504,2.292,0.504
        c0.752,0,1.384-0.108,1.896-0.324s0.924-0.512,1.236-0.888s0.536-0.82,0.672-1.332c0.136-0.513,0.204-1.064,0.204-1.656v-1.464
        h-0.048c-0.416,0.641-0.984,1.128-1.704,1.464c-0.72,0.336-1.488,0.504-2.304,0.504c-0.864,0-1.652-0.151-2.364-0.456
        c-0.712-0.304-1.316-0.72-1.812-1.248c-0.496-0.527-0.88-1.147-1.152-1.859s-0.408-1.477-0.408-2.292
        c0-0.816,0.136-1.584,0.408-2.305c0.272-0.72,0.656-1.348,1.152-1.884c0.496-0.535,1.096-0.96,1.8-1.271
        c0.704-0.312,1.488-0.469,2.352-0.469c0.816,0,1.596,0.177,2.34,0.528c0.744,0.353,1.332,0.888,1.764,1.608h0.048v-1.824h2.184
        v10.8c0,0.832-0.104,1.628-0.312,2.388c-0.208,0.76-0.56,1.433-1.056,2.017s-1.144,1.052-1.944,1.404
        c-0.8,0.352-1.792,0.527-2.976,0.527c-0.992,0-1.988-0.18-2.988-0.54c-1-0.359-1.86-0.868-2.58-1.523L128.419,26.625z
         M129.091,18.873c0,0.527,0.084,1.031,0.253,1.512c0.168,0.479,0.417,0.904,0.746,1.271c0.329,0.369,0.726,0.664,1.192,0.889
        c0.465,0.224,0.995,0.336,1.589,0.336c0.577,0,1.107-0.104,1.589-0.312c0.481-0.207,0.891-0.491,1.228-0.852
        s0.598-0.784,0.782-1.272c0.185-0.487,0.277-1.012,0.277-1.571c0-0.544-0.093-1.057-0.277-1.536
        c-0.185-0.48-0.449-0.904-0.794-1.272c-0.345-0.367-0.755-0.66-1.228-0.876c-0.474-0.216-1-0.324-1.577-0.324
        c-0.594,0-1.124,0.108-1.589,0.324c-0.466,0.216-0.863,0.504-1.192,0.864s-0.578,0.784-0.746,1.271
        C129.175,17.812,129.091,18.329,129.091,18.873z"/>
</g>
<g><a xlink:href="/" pointer-events="all" target="_top"><polygon fill="none" points="0,0 145,0 145,35 0,35 0,0"/></a></g>

</g>


<!-- AnyBidirectionalCollection -->
<g id="node1" class="node">
<g id="a_node1"><a xlink:href="/v2.0/type/AnyBidirectionalCollection/" target="_top">
<polygon fill="#999999" stroke="#999999" points="1470.05,-22 1321.95,-22 1321.95,-0 1470.05,-0 1470.05,-22"/>
<text text-anchor="middle" x="1396" y="-7.4" font-family="Helvetica,sans-Serif" font-size="12.00" fill="white">AnyBidirectionalCollection</text>
</a>
</g>
</g>
<!-- AnyCollectionType -->
<g id="node2" class="node">
<g id="a_node2"><a xlink:href="/v2.0/protocol/AnyCollectionType/" target="_top">
<path fill="#999999" stroke="#999999" d="M1682.21,-80C1682.21,-80 1587.79,-80 1587.79,-80 1584.12,-80 1580.46,-76.3333 1580.46,-72.6667 1580.46,-72.6667 1580.46,-65.3333 1580.46,-65.3333 1580.46,-61.6667 1584.12,-58 1587.79,-58 1587.79,-58 1682.21,-58 1682.21,-58 1685.88,-58 1689.54,-61.6667 1689.54,-65.3333 1689.54,-65.3333 1689.54,-72.6667 1689.54,-72.6667 1689.54,-76.3333 1685.88,-80 1682.21,-80"/>
<text text-anchor="middle" x="1635" y="-65.4" font-family="Helvetica,sans-Serif" font-size="12.00" fill="white">AnyCollectionType</text>
</a>
</g>
</g>
<!-- AnyCollectionType&#45;&gt;AnyBidirectionalCollection -->
<g id="edge66" class="edge">
<path fill="none" stroke="#cccccc" d="M1592.27,-57.9883C1552.04,-48.561 1491.67,-34.4159 1448.51,-24.3045"/>
<polygon fill="#cccccc" stroke="#cccccc" points="1449.3,-20.8929 1438.76,-22.0192 1447.7,-27.7083 1449.3,-20.8929"/>
</g>
<!-- AnyForwardCollection -->
<g id="node3" class="node">
<g id="a_node3"><a xlink:href="/v2.0/type/AnyForwardCollection/" target="_top">
<polygon fill="#999999" stroke="#999999" points="1615.54,-22 1488.46,-22 1488.46,-0 1615.54,-0 1615.54,-22"/>
<text text-anchor="middle" x="1552" y="-7.4" font-family="Helvetica,sans-Serif" font-size="12.00" fill="white">AnyForwardCollection</text>
</a>
</g>
</g>
<!-- AnyCollectionType&#45;&gt;AnyForwardCollection -->
<g id="edge67" class="edge">
<path fill="none" stroke="#cccccc" d="M1620.16,-57.9883C1607.73,-49.5993 1589.76,-37.4743 1575.39,-27.7804"/>
<polygon fill="#cccccc" stroke="#cccccc" points="1577.24,-24.8055 1566.99,-22.1138 1573.32,-30.6083 1577.24,-24.8055"/>
</g>
<!-- AnyRandomAccessCollection -->
<g id="node4" class="node">
<g id="a_node4"><a xlink:href="/v2.0/type/AnyRandomAccessCollection/" target="_top">
<polygon fill="#999999" stroke="#999999" points="1800.55,-22 1633.45,-22 1633.45,-0 1800.55,-0 1800.55,-22"/>
<text text-anchor="middle" x="1717" y="-7.4" font-family="Helvetica,sans-Serif" font-size="12.00" fill="white">AnyRandomAccessCollection</text>
</a>
</g>
</g>
<!-- AnyCollectionType&#45;&gt;AnyRandomAccessCollection -->
<g id="edge68" class="edge">
<path fill="none" stroke="#cccccc" d="M1649.66,-57.9883C1661.94,-49.5993 1679.7,-37.4743 1693.89,-27.7804"/>
<polygon fill="#cccccc" stroke="#cccccc" points="1695.91,-30.6438 1702.19,-22.1138 1691.96,-24.8632 1695.91,-30.6438"/>
</g>
<!-- Array -->
<g id="node5" class="node">
<g id="a_node5"><a xlink:href="/v2.0/type/Array/" target="_top">
<polygon fill="#999999" stroke="#999999" points="717,-22 663,-22 663,-0 717,-0 717,-22"/>
<text text-anchor="middle" x="690" y="-7.4" font-family="Helvetica,sans-Serif" font-size="12.00" fill="white">Array</text>
</a>
</g>
</g>
<!-- ArraySlice -->
<g id="node6" class="node">
<g id="a_node6"><a xlink:href="/v2.0/type/ArraySlice/" target="_top">
<polygon fill="#999999" stroke="#999999" points="403.011,-22 338.989,-22 338.989,-0 403.011,-0 403.011,-22"/>
<text text-anchor="middle" x="371" y="-7.4" font-family="Helvetica,sans-Serif" font-size="12.00" fill="white">ArraySlice</text>
</a>
</g>
</g>
<!-- CollectionOfOne -->
<g id="node7" class="node">
<g id="a_node7"><a xlink:href="/v2.0/type/CollectionOfOne/" target="_top">
<polygon fill="#999999" stroke="#999999" points="1108.03,-22 1009.97,-22 1009.97,-0 1108.03,-0 1108.03,-22"/>
<text text-anchor="middle" x="1059" y="-7.4" font-family="Helvetica,sans-Serif" font-size="12.00" fill="white">CollectionOfOne</text>
</a>
</g>
</g>
<!-- CollectionType -->
<g id="node8" class="node">
<g id="a_node8"><a xlink:href="/v2.0/protocol/CollectionType/" target="_top">
<path fill="#999999" stroke="#999999" d="M1887.7,-254C1887.7,-254 1814.3,-254 1814.3,-254 1810.63,-254 1806.96,-250.333 1806.96,-246.667 1806.96,-246.667 1806.96,-239.333 1806.96,-239.333 1806.96,-235.667 1810.63,-232 1814.3,-232 1814.3,-232 1887.7,-232 1887.7,-232 1891.37,-232 1895.04,-235.667 1895.04,-239.333 1895.04,-239.333 1895.04,-246.667 1895.04,-246.667 1895.04,-250.333 1891.37,-254 1887.7,-254"/>
<text text-anchor="middle" x="1851" y="-239.4" font-family="Helvetica,sans-Serif" font-size="12.00" fill="white">CollectionType</text>
</a>
</g>
</g>
<!-- CollectionType&#45;&gt;AnyBidirectionalCollection -->
<g id="edge31" class="edge">
<path fill="none" stroke="#cccccc" d="M1807.43,-231.964C1777.07,-224.158 1736.07,-211.969 1702,-196 1600.2,-148.292 1587.78,-113.478 1490,-58 1469.68,-46.4715 1446.06,-34.9187 1427.58,-26.2746"/>
<polygon fill="#cccccc" stroke="#cccccc" points="1428.97,-23.0631 1418.43,-22.035 1426.03,-29.4146 1428.97,-23.0631"/>
</g>
<!-- CollectionType&#45;&gt;AnyCollectionType -->
<g id="edge32" class="edge">
<path fill="none" stroke="#cccccc" d="M1806.68,-232.1C1781.8,-224.987 1751.2,-213.509 1728,-196 1688.96,-166.538 1658.86,-116.258 1644.42,-88.97"/>
<polygon fill="#cccccc" stroke="#cccccc" points="1647.51,-87.3258 1639.82,-80.0381 1641.28,-90.5309 1647.51,-87.3258"/>
</g>
<!-- CollectionType&#45;&gt;AnyForwardCollection -->
<g id="edge33" class="edge">
<path fill="none" stroke="#cccccc" d="M1845.48,-231.912C1828.06,-201.06 1771.13,-107.088 1698,-58 1674.42,-42.1739 1645.09,-31.5453 1618.92,-24.5326"/>
<polygon fill="#cccccc" stroke="#cccccc" points="1619.62,-21.0983 1609.06,-22.0186 1617.89,-27.8812 1619.62,-21.0983"/>
</g>
<!-- CollectionType&#45;&gt;AnyRandomAccessCollection -->
<g id="edge34" class="edge">
<path fill="none" stroke="#cccccc" d="M1848.19,-231.608C1839.88,-202.198 1813.29,-116.713 1770,-58 1761.75,-46.8146 1750.33,-36.4648 1740.21,-28.4264"/>
<polygon fill="#cccccc" stroke="#cccccc" points="1742.18,-25.5271 1732.1,-22.2502 1737.93,-31.0949 1742.18,-25.5271"/>
</g>
<!-- CollectionType&#45;&gt;Array -->
<g id="edge35" class="edge">
<path fill="none" stroke="#cccccc" d="M1806.91,-241.394C1617.38,-238.61 879.739,-225.888 841,-196 790.136,-156.758 841.085,-105.652 798,-58 787.988,-46.9262 754.063,-33.4613 726.875,-23.9691"/>
<polygon fill="#cccccc" stroke="#cccccc" points="727.815,-20.5914 717.22,-20.6635 725.547,-27.214 727.815,-20.5914"/>
</g>
<!-- CollectionType&#45;&gt;ArraySlice -->
<g id="edge36" class="edge">
<path fill="none" stroke="#cccccc" d="M1806.71,-242.031C1567.85,-241.801 439.658,-235.531 323,-138 294.617,-114.27 282.33,-90.5031 300,-58 307.467,-44.2656 320.998,-34.0001 334.26,-26.6932"/>
<polygon fill="#cccccc" stroke="#cccccc" points="335.983,-29.7437 343.321,-22.101 332.819,-23.4999 335.983,-29.7437"/>
</g>
<!-- CollectionType&#45;&gt;CollectionOfOne -->
<g id="edge37" class="edge">
<path fill="none" stroke="#cccccc" d="M1806.88,-239.291C1747.57,-234.74 1639.38,-223.224 1551,-196 1414.97,-154.097 1396.46,-104.684 1262,-58 1235.89,-48.9354 1168.51,-34.2804 1118.5,-23.9519"/>
<polygon fill="#cccccc" stroke="#cccccc" points="1118.93,-20.4671 1108.43,-21.882 1117.52,-27.3238 1118.93,-20.4671"/>
</g>
<!-- ContiguousArray -->
<g id="node9" class="node">
<g id="a_node9"><a xlink:href="/v2.0/type/ContiguousArray/" target="_top">
<polygon fill="#999999" stroke="#999999" points="611.534,-22 512.466,-22 512.466,-0 611.534,-0 611.534,-22"/>
<text text-anchor="middle" x="562" y="-7.4" font-family="Helvetica,sans-Serif" font-size="12.00" fill="white">ContiguousArray</text>
</a>
</g>
</g>
<!-- CollectionType&#45;&gt;ContiguousArray -->
<g id="edge38" class="edge">
<path fill="none" stroke="#cccccc" d="M1806.9,-242.015C1629.19,-241.787 965.214,-238.078 760,-196 742.19,-192.348 619.731,-150.979 607,-138 591.941,-122.647 575.124,-63.5833 566.97,-32.0742"/>
<polygon fill="#cccccc" stroke="#cccccc" points="570.316,-31.0277 564.465,-22.195 563.53,-32.7486 570.316,-31.0277"/>
</g>
<!-- Dictionary -->
<g id="node10" class="node">
<g id="a_node10"><a xlink:href="/v2.0/type/Dictionary/" target="_top">
<polygon fill="#999999" stroke="#999999" points="1189.51,-22 1126.49,-22 1126.49,-0 1189.51,-0 1189.51,-22"/>
<text text-anchor="middle" x="1158" y="-7.4" font-family="Helvetica,sans-Serif" font-size="12.00" fill="white">Dictionary</text>
</a>
</g>
</g>
<!-- CollectionType&#45;&gt;Dictionary -->
<g id="edge39" class="edge">
<path fill="none" stroke="#cccccc" d="M1806.64,-237.587C1756.79,-231.737 1673.95,-219.317 1606,-196 1479.28,-152.516 1463.25,-105.554 1338,-58 1331.43,-55.5046 1250.29,-35.0661 1199.22,-22.2863"/>
<polygon fill="#cccccc" stroke="#cccccc" points="1199.99,-18.8707 1189.44,-19.8401 1198.29,-25.6616 1199.99,-18.8707"/>
</g>
<!-- DictionaryLiteral -->
<g id="node11" class="node">
<g id="a_node11"><a xlink:href="/v2.0/type/DictionaryLiteral/" target="_top">
<polygon fill="#999999" stroke="#999999" points="1304.02,-22 1207.98,-22 1207.98,-0 1304.02,-0 1304.02,-22"/>
<text text-anchor="middle" x="1256" y="-7.4" font-family="Helvetica,sans-Serif" font-size="12.00" fill="white">DictionaryLiteral</text>
</a>
</g>
</g>
<!-- CollectionType&#45;&gt;DictionaryLiteral -->
<g id="edge40" class="edge">
<path fill="none" stroke="#cccccc" d="M1806.77,-235.202C1766.74,-228.191 1706.61,-215.507 1657,-196 1541.41,-150.549 1528.4,-106.354 1414,-58 1380.52,-43.8485 1341.29,-32.4013 1310.3,-24.4658"/>
<polygon fill="#cccccc" stroke="#cccccc" points="1311.09,-21.0571 1300.54,-22.0138 1309.39,-27.846 1311.09,-21.0571"/>
</g>
<!-- EmptyCollection -->
<g id="node12" class="node">
<g id="a_node12"><a xlink:href="/v2.0/type/EmptyCollection/" target="_top">
<polygon fill="#999999" stroke="#999999" points="2466.03,-22 2369.97,-22 2369.97,-0 2466.03,-0 2466.03,-22"/>
<text text-anchor="middle" x="2418" y="-7.4" font-family="Helvetica,sans-Serif" font-size="12.00" fill="white">EmptyCollection</text>
</a>
</g>
</g>
<!-- CollectionType&#45;&gt;EmptyCollection -->
<g id="edge41" class="edge">
<path fill="none" stroke="#cccccc" d="M1895.31,-235.425C1937.65,-228.373 2002.87,-215.486 2057,-196 2189.6,-148.266 2335.76,-62.5511 2393.04,-27.5392"/>
<polygon fill="#cccccc" stroke="#cccccc" points="2395.07,-30.3965 2401.76,-22.1785 2391.41,-24.4328 2395.07,-30.3965"/>
</g>
<!-- FlattenBidirectionalCollection -->
<g id="node13" class="node">
<g id="a_node13"><a xlink:href="/v2.0/type/FlattenBidirectionalCollection/" target="_top">
<polygon fill="#999999" stroke="#999999" points="2846.06,-22 2681.94,-22 2681.94,-0 2846.06,-0 2846.06,-22"/>
<text text-anchor="middle" x="2764" y="-7.4" font-family="Helvetica,sans-Serif" font-size="12.00" fill="white">FlattenBidirectionalCollection</text>
</a>
</g>
</g>
<!-- CollectionType&#45;&gt;FlattenBidirectionalCollection -->
<g id="edge42" class="edge">
<path fill="none" stroke="#cccccc" d="M1895.04,-238.57C1960.45,-232.913 2086.84,-219.81 2192,-196 2198.8,-194.46 2593.67,-67.0042 2723.28,-25.1514"/>
<polygon fill="#cccccc" stroke="#cccccc" points="2724.42,-28.4621 2732.86,-22.0584 2722.27,-21.8008 2724.42,-28.4621"/>
</g>
<!-- FlattenCollection -->
<g id="node14" class="node">
<g id="a_node14"><a xlink:href="/v2.0/type/FlattenCollection/" target="_top">
<polygon fill="#999999" stroke="#999999" points="3330.53,-22 3231.47,-22 3231.47,-0 3330.53,-0 3330.53,-22"/>
<text text-anchor="middle" x="3281" y="-7.4" font-family="Helvetica,sans-Serif" font-size="12.00" fill="white">FlattenCollection</text>
</a>
</g>
</g>
<!-- CollectionType&#45;&gt;FlattenCollection -->
<g id="edge43" class="edge">
<path fill="none" stroke="#cccccc" d="M1895.18,-241.102C2044.64,-237.821 2530.59,-225.123 2684,-196 2764.5,-180.718 2781.29,-163.992 2859,-138 2964.43,-102.735 2989.3,-89.2169 3096,-58 3139.41,-45.3005 3189.19,-33.0517 3226.17,-24.391"/>
<polygon fill="#cccccc" stroke="#cccccc" points="3227.3,-27.7219 3236.24,-22.046 3225.71,-20.9041 3227.3,-27.7219"/>
</g>
<!-- LazyCollection -->
<g id="node16" class="node">
<g id="a_node16"><a xlink:href="/v2.0/type/LazyCollection/" target="_top">
<polygon fill="#999999" stroke="#999999" points="2952.03,-22 2863.97,-22 2863.97,-0 2952.03,-0 2952.03,-22"/>
<text text-anchor="middle" x="2908" y="-7.4" font-family="Helvetica,sans-Serif" font-size="12.00" fill="white">LazyCollection</text>
</a>
</g>
</g>
<!-- CollectionType&#45;&gt;LazyCollection -->
<g id="edge44" class="edge">
<path fill="none" stroke="#cccccc" d="M1895.21,-239.021C1967.89,-233.626 2116.92,-220.462 2241,-196 2465.08,-151.825 2515.68,-118.171 2736,-58 2777.93,-46.5485 2825.69,-33.7982 2860.23,-24.6311"/>
<polygon fill="#cccccc" stroke="#cccccc" points="2861.28,-27.9726 2870.05,-22.0258 2859.49,-21.2066 2861.28,-27.9726"/>
</g>
<!-- LazyCollectionType -->
<g id="node17" class="node">
<g id="a_node17"><a xlink:href="/v2.0/protocol/LazyCollectionType/" target="_top">
<path fill="#999999" stroke="#999999" d="M2922.71,-80C2922.71,-80 2823.29,-80 2823.29,-80 2819.62,-80 2815.95,-76.3333 2815.95,-72.6667 2815.95,-72.6667 2815.95,-65.3333 2815.95,-65.3333 2815.95,-61.6667 2819.62,-58 2823.29,-58 2823.29,-58 2922.71,-58 2922.71,-58 2926.38,-58 2930.05,-61.6667 2930.05,-65.3333 2930.05,-65.3333 2930.05,-72.6667 2930.05,-72.6667 2930.05,-76.3333 2926.38,-80 2922.71,-80"/>
<text text-anchor="middle" x="2873" y="-65.4" font-family="Helvetica,sans-Serif" font-size="12.00" fill="white">LazyCollectionType</text>
</a>
</g>
</g>
<!-- CollectionType&#45;&gt;LazyCollectionType -->
<g id="edge45" class="edge">
<path fill="none" stroke="#cccccc" d="M1895.26,-241.119C2031.62,-238.101 2443.92,-226.619 2574,-196 2679.34,-171.204 2794.97,-112.662 2846.12,-84.99"/>
<polygon fill="#cccccc" stroke="#cccccc" points="2848.08,-87.9049 2855.18,-80.0415 2844.73,-81.7606 2848.08,-87.9049"/>
</g>
<!-- LazyFilterCollection -->
<g id="node18" class="node">
<g id="a_node18"><a xlink:href="/v2.0/type/LazyFilterCollection/" target="_top">
<polygon fill="#999999" stroke="#999999" points="3084.03,-22 2969.97,-22 2969.97,-0 3084.03,-0 3084.03,-22"/>
<text text-anchor="middle" x="3027" y="-7.4" font-family="Helvetica,sans-Serif" font-size="12.00" fill="white">LazyFilterCollection</text>
</a>
</g>
</g>
<!-- CollectionType&#45;&gt;LazyFilterCollection -->
<g id="edge46" class="edge">
<path fill="none" stroke="#cccccc" d="M1895.15,-239.863C1976.69,-235.401 2156.14,-223.165 2305,-196 2532.63,-154.46 2582.26,-113.08 2807,-58 2859.56,-45.1173 2919.75,-32.6915 2963.87,-24.009"/>
<polygon fill="#cccccc" stroke="#cccccc" points="2964.73,-27.4062 2973.87,-22.0497 2963.39,-20.5366 2964.73,-27.4062"/>
</g>
<!-- LazyMapCollection -->
<g id="node19" class="node">
<g id="a_node19"><a xlink:href="/v2.0/type/LazyMapCollection/" target="_top">
<polygon fill="#999999" stroke="#999999" points="3213.54,-22 3102.46,-22 3102.46,-0 3213.54,-0 3213.54,-22"/>
<text text-anchor="middle" x="3158" y="-7.4" font-family="Helvetica,sans-Serif" font-size="12.00" fill="white">LazyMapCollection</text>
</a>
</g>
</g>
<!-- CollectionType&#45;&gt;LazyMapCollection -->
<g id="edge47" class="edge">
<path fill="none" stroke="#cccccc" d="M1895.26,-240.977C2037.79,-237.429 2483.77,-224.296 2625,-196 2807.34,-159.468 2844.01,-118.071 3020,-58 3052.89,-46.7746 3090.29,-34.3266 3117.85,-25.2135"/>
<polygon fill="#cccccc" stroke="#cccccc" points="3119.14,-28.4751 3127.54,-22.0154 3116.94,-21.8283 3119.14,-28.4751"/>
</g>
<!-- MutableCollectionType -->
<g id="node20" class="node">
<g id="a_node20"><a xlink:href="/v2.0/protocol/MutableCollectionType/" target="_top">
<path fill="#999999" stroke="#999999" d="M974.221,-196C974.221,-196 857.779,-196 857.779,-196 854.112,-196 850.446,-192.333 850.446,-188.667 850.446,-188.667 850.446,-181.333 850.446,-181.333 850.446,-177.667 854.112,-174 857.779,-174 857.779,-174 974.221,-174 974.221,-174 977.888,-174 981.554,-177.667 981.554,-181.333 981.554,-181.333 981.554,-188.667 981.554,-188.667 981.554,-192.333 977.888,-196 974.221,-196"/>
<text text-anchor="middle" x="916" y="-181.4" font-family="Helvetica,sans-Serif" font-size="12.00" fill="white">MutableCollectionType</text>
</a>
</g>
</g>
<!-- CollectionType&#45;&gt;MutableCollectionType -->
<g id="edge48" class="edge">
<path fill="none" stroke="#cccccc" d="M1806.85,-239.355C1658.71,-230.483 1178.29,-201.709 991.375,-190.514"/>
<polygon fill="#cccccc" stroke="#cccccc" points="991.551,-187.019 981.36,-189.915 991.132,-194.006 991.551,-187.019"/>
</g>
<!-- MutableSlice -->
<g id="node21" class="node">
<g id="a_node21"><a xlink:href="/v2.0/type/MutableSlice/" target="_top">
<polygon fill="#999999" stroke="#999999" points="813.027,-22 734.973,-22 734.973,-0 813.027,-0 813.027,-22"/>
<text text-anchor="middle" x="774" y="-7.4" font-family="Helvetica,sans-Serif" font-size="12.00" fill="white">MutableSlice</text>
</a>
</g>
</g>
<!-- CollectionType&#45;&gt;MutableSlice -->
<g id="edge49" class="edge">
<path fill="none" stroke="#cccccc" d="M1806.79,-240.864C1727.38,-238.045 1555.74,-228.407 1415,-196 1239.49,-155.589 1208.13,-103.995 1034,-58 945.076,-34.511 918.275,-39.1611 823.322,-21.9843"/>
<polygon fill="#cccccc" stroke="#cccccc" points="823.762,-18.5064 813.293,-20.1353 822.493,-25.3904 823.762,-18.5064"/>
</g>
<!-- MutableSliceable -->
<g id="node22" class="node">
<g id="a_node22"><a xlink:href="/v2.0/protocol/MutableSliceable/" target="_top">
<path fill="#999999" stroke="#999999" d="M710.208,-138C710.208,-138 623.792,-138 623.792,-138 620.126,-138 616.459,-134.333 616.459,-130.667 616.459,-130.667 616.459,-123.333 616.459,-123.333 616.459,-119.667 620.126,-116 623.792,-116 623.792,-116 710.208,-116 710.208,-116 713.874,-116 717.541,-119.667 717.541,-123.333 717.541,-123.333 717.541,-130.667 717.541,-130.667 717.541,-134.333 713.874,-138 710.208,-138"/>
<text text-anchor="middle" x="667" y="-123.4" font-family="Helvetica,sans-Serif" font-size="12.00" fill="white">MutableSliceable</text>
</a>
</g>
</g>
<!-- CollectionType&#45;&gt;MutableSliceable -->
<g id="edge50" class="edge">
<path fill="none" stroke="#cccccc" d="M1806.69,-242.413C1633.38,-243.666 1001.45,-244.72 808,-196 802.139,-194.524 736.317,-162.253 696.712,-142.706"/>
<polygon fill="#cccccc" stroke="#cccccc" points="697.776,-139.328 687.26,-138.037 694.675,-145.604 697.776,-139.328"/>
</g>
<!-- Range -->
<g id="node23" class="node">
<g id="a_node23"><a xlink:href="/v2.0/type/Range/" target="_top">
<polygon fill="#999999" stroke="#999999" points="1873,-22 1819,-22 1819,-0 1873,-0 1873,-22"/>
<text text-anchor="middle" x="1846" y="-7.4" font-family="Helvetica,sans-Serif" font-size="12.00" fill="white">Range</text>
</a>
</g>
</g>
<!-- CollectionType&#45;&gt;Range -->
<g id="edge51" class="edge">
<path fill="none" stroke="#cccccc" d="M1850.78,-231.82C1850.01,-196.642 1847.47,-79.7709 1846.44,-32.3033"/>
<polygon fill="#cccccc" stroke="#cccccc" points="1849.94,-31.9836 1846.22,-22.062 1842.94,-32.1358 1849.94,-31.9836"/>
</g>
<!-- RangeReplaceableCollectionType -->
<g id="node24" class="node">
<g id="a_node24"><a xlink:href="/v2.0/protocol/RangeReplaceableCollectionType/" target="_top">
<path fill="#999999" stroke="#999999" d="M514.76,-138C514.76,-138 339.24,-138 339.24,-138 335.573,-138 331.906,-134.333 331.906,-130.667 331.906,-130.667 331.906,-123.333 331.906,-123.333 331.906,-119.667 335.573,-116 339.24,-116 339.24,-116 514.76,-116 514.76,-116 518.427,-116 522.094,-119.667 522.094,-123.333 522.094,-123.333 522.094,-130.667 522.094,-130.667 522.094,-134.333 518.427,-138 514.76,-138"/>
<text text-anchor="middle" x="427" y="-123.4" font-family="Helvetica,sans-Serif" font-size="12.00" fill="white">RangeReplaceableCollectionType</text>
</a>
</g>
</g>
<!-- CollectionType&#45;&gt;RangeReplaceableCollectionType -->
<g id="edge52" class="edge">
<path fill="none" stroke="#cccccc" d="M1806.84,-241.237C1626.5,-237.958 945.393,-223.947 732,-196 638.435,-183.746 531.213,-156.752 472.086,-140.705"/>
<polygon fill="#cccccc" stroke="#cccccc" points="472.888,-137.296 462.319,-138.035 471.042,-144.048 472.888,-137.296"/>
</g>
<!-- Repeat -->
<g id="node25" class="node">
<g id="a_node25"><a xlink:href="/v2.0/type/Repeat/" target="_top">
<polygon fill="#999999" stroke="#999999" points="2280,-22 2226,-22 2226,-0 2280,-0 2280,-22"/>
<text text-anchor="middle" x="2253" y="-7.4" font-family="Helvetica,sans-Serif" font-size="12.00" fill="white">Repeat</text>
</a>
</g>
</g>
<!-- CollectionType&#45;&gt;Repeat -->
<g id="edge53" class="edge">
<path fill="none" stroke="#cccccc" d="M1887.3,-231.972C1915.16,-223.743 1954.27,-211.023 1987,-196 2088.22,-149.545 2192.26,-64.6284 2234,-28.7304"/>
<polygon fill="#cccccc" stroke="#cccccc" points="2236.45,-31.2335 2241.72,-22.0376 2231.87,-25.9451 2236.45,-31.2335"/>
</g>
<!-- ReverseCollection -->
<g id="node26" class="node">
<g id="a_node26"><a xlink:href="/v2.0/type/ReverseCollection/" target="_top">
<polygon fill="#999999" stroke="#999999" points="1998.53,-22 1891.47,-22 1891.47,-0 1998.53,-0 1998.53,-22"/>
<text text-anchor="middle" x="1945" y="-7.4" font-family="Helvetica,sans-Serif" font-size="12.00" fill="white">ReverseCollection</text>
</a>
</g>
</g>
<!-- CollectionType&#45;&gt;ReverseCollection -->
<g id="edge54" class="edge">
<path fill="none" stroke="#cccccc" d="M1855.16,-231.82C1869.63,-196.419 1917.91,-78.2851 1937.07,-31.4085"/>
<polygon fill="#cccccc" stroke="#cccccc" points="1940.34,-32.6429 1940.89,-22.062 1933.86,-29.9946 1940.34,-32.6429"/>
</g>
<!-- ReverseRandomAccessCollection -->
<g id="node27" class="node">
<g id="a_node27"><a xlink:href="/v2.0/type/ReverseRandomAccessCollection/" target="_top">
<polygon fill="#999999" stroke="#999999" points="2207.56,-22 2016.44,-22 2016.44,-0 2207.56,-0 2207.56,-22"/>
<text text-anchor="middle" x="2112" y="-7.4" font-family="Helvetica,sans-Serif" font-size="12.00" fill="white">ReverseRandomAccessCollection</text>
</a>
</g>
</g>
<!-- CollectionType&#45;&gt;ReverseRandomAccessCollection -->
<g id="edge55" class="edge">
<path fill="none" stroke="#cccccc" d="M1874,-231.909C1934.44,-204.874 2094.99,-129.514 2123,-80 2131.34,-65.2583 2127.08,-46.0157 2121.62,-31.764"/>
<polygon fill="#cccccc" stroke="#cccccc" points="2124.76,-30.204 2117.59,-22.4044 2118.33,-32.9732 2124.76,-30.204"/>
</g>
<!-- Set -->
<g id="node28" class="node">
<g id="a_node28"><a xlink:href="/v2.0/type/Set/" target="_top">
<polygon fill="#999999" stroke="#999999" points="2352,-22 2298,-22 2298,-0 2352,-0 2352,-22"/>
<text text-anchor="middle" x="2325" y="-7.4" font-family="Helvetica,sans-Serif" font-size="12.00" fill="white">Set</text>
</a>
</g>
</g>
<!-- CollectionType&#45;&gt;Set -->
<g id="edge56" class="edge">
<path fill="none" stroke="#cccccc" d="M1895.39,-233.382C1930.33,-225.799 1979.83,-213.265 2021,-196 2134.28,-148.494 2255.24,-63.5801 2303.41,-28.1847"/>
<polygon fill="#cccccc" stroke="#cccccc" points="2305.59,-30.9325 2311.54,-22.172 2301.42,-25.3046 2305.59,-30.9325"/>
</g>
<!-- Slice -->
<g id="node29" class="node">
<g id="a_node29"><a xlink:href="/v2.0/type/Slice/" target="_top">
<polygon fill="#999999" stroke="#999999" points="2538,-22 2484,-22 2484,-0 2538,-0 2538,-22"/>
<text text-anchor="middle" x="2511" y="-7.4" font-family="Helvetica,sans-Serif" font-size="12.00" fill="white">Slice</text>
</a>
</g>
</g>
<!-- CollectionType&#45;&gt;Slice -->
<g id="edge57" class="edge">
<path fill="none" stroke="#cccccc" d="M1895.3,-236.884C1945.14,-230.403 2028.13,-217.42 2097,-196 2248.45,-148.896 2418.18,-61.8349 2483.42,-26.9903"/>
<polygon fill="#cccccc" stroke="#cccccc" points="2485.47,-29.8626 2492.62,-22.0493 2482.16,-23.6949 2485.47,-29.8626"/>
</g>
<!-- String.CharacterView -->
<g id="node30" class="node">
<g id="a_node30"><a xlink:href="/v2.0/type/String.CharacterView/" target="_top">
<polygon fill="#999999" stroke="#999999" points="122.376,-22 -0.375693,-22 -0.375693,-0 122.376,-0 122.376,-22"/>
<text text-anchor="middle" x="61" y="-7.4" font-family="Helvetica,sans-Serif" font-size="12.00" fill="white">String.CharacterView</text>
</a>
</g>
</g>
<!-- CollectionType&#45;&gt;String.CharacterView -->
<g id="edge62" class="edge">
<path fill="none" stroke="#cccccc" d="M1806.72,-241.872C1567.77,-241.026 437.378,-234.978 287,-196 232.737,-181.935 219.401,-172.218 175,-138 133.197,-105.784 94.1452,-57.0587 74.4157,-30.6334"/>
<polygon fill="#cccccc" stroke="#cccccc" points="77.0154,-28.2608 68.2701,-22.28 71.3769,-32.4091 77.0154,-28.2608"/>
</g>
<!-- String.UTF16View -->
<g id="node31" class="node">
<g id="a_node31"><a xlink:href="/v2.0/type/String.UTF16View/" target="_top">
<polygon fill="#999999" stroke="#999999" points="2663.37,-22 2556.63,-22 2556.63,-0 2663.37,-0 2663.37,-22"/>
<text text-anchor="middle" x="2610" y="-7.4" font-family="Helvetica,sans-Serif" font-size="12.00" fill="white">String.UTF16View</text>
</a>
</g>
</g>
<!-- CollectionType&#45;&gt;String.UTF16View -->
<g id="edge64" class="edge">
<path fill="none" stroke="#cccccc" d="M1895.33,-237.885C1952.74,-231.895 2055.57,-218.91 2141,-196 2312.4,-150.032 2506.71,-61.3527 2579.95,-26.5365"/>
<polygon fill="#cccccc" stroke="#cccccc" points="2581.55,-29.649 2589.07,-22.1815 2578.54,-23.3322 2581.55,-29.649"/>
</g>
<!-- String.UTF8View -->
<g id="node32" class="node">
<g id="a_node32"><a xlink:href="/v2.0/type/String.UTF8View/" target="_top">
<polygon fill="#999999" stroke="#999999" points="3449.36,-22 3348.64,-22 3348.64,-0 3449.36,-0 3449.36,-22"/>
<text text-anchor="middle" x="3399" y="-7.4" font-family="Helvetica,sans-Serif" font-size="12.00" fill="white">String.UTF8View</text>
</a>
</g>
</g>
<!-- CollectionType&#45;&gt;String.UTF8View -->
<g id="edge65" class="edge">
<path fill="none" stroke="#cccccc" d="M1895.08,-241.212C2050.75,-238.196 2574.22,-226.01 2739,-196 2937.71,-159.811 2976.51,-108.799 3172,-58 3227.9,-43.4739 3292.53,-30.7671 3338.5,-22.411"/>
<polygon fill="#cccccc" stroke="#cccccc" points="3339.38,-25.8094 3348.6,-20.5908 3338.14,-18.9204 3339.38,-25.8094"/>
</g>
<!-- String.UnicodeScalarView -->
<g id="node33" class="node">
<g id="a_node33"><a xlink:href="/v2.0/type/String.UnicodeScalarView/" target="_top">
<polygon fill="#999999" stroke="#999999" points="288.892,-22 141.108,-22 141.108,-0 288.892,-0 288.892,-22"/>
<text text-anchor="middle" x="215" y="-7.4" font-family="Helvetica,sans-Serif" font-size="12.00" fill="white">String.UnicodeScalarView</text>
</a>
</g>
</g>
<!-- CollectionType&#45;&gt;String.UnicodeScalarView -->
<g id="edge63" class="edge">
<path fill="none" stroke="#cccccc" d="M1806.91,-241.495C1582.24,-238.799 569.951,-225.116 433,-196 299.233,-167.561 224.328,-193.475 148,-80 134.199,-59.483 159.241,-39.7843 182.538,-26.9186"/>
<polygon fill="#cccccc" stroke="#cccccc" points="184.386,-29.9025 191.629,-22.1704 181.145,-23.6979 184.386,-29.9025"/>
</g>
<!-- UnicodeScalar.UTF16View -->
<g id="node34" class="node">
<g id="a_node34"><a xlink:href="/v2.0/type/UnicodeScalar.UTF16View/" target="_top">
<polygon fill="#999999" stroke="#999999" points="3620.39,-22 3467.61,-22 3467.61,-0 3620.39,-0 3620.39,-22"/>
<text text-anchor="middle" x="3544" y="-7.4" font-family="Helvetica,sans-Serif" font-size="12.00" fill="white">UnicodeScalar.UTF16View</text>
</a>
</g>
</g>
<!-- CollectionType&#45;&gt;UnicodeScalar.UTF16View -->
<g id="edge58" class="edge">
<path fill="none" stroke="#cccccc" d="M1895.07,-241.338C2057.75,-238.667 2624.25,-227.282 2802,-196 3006.35,-160.036 3045.83,-104.723 3248,-58 3287.44,-48.8848 3388.37,-33.8447 3461.43,-23.4567"/>
<polygon fill="#cccccc" stroke="#cccccc" points="3462.13,-26.892 3471.54,-22.0229 3461.15,-19.9613 3462.13,-26.892"/>
</g>
<!-- UnsafeBufferPointer -->
<g id="node35" class="node">
<g id="a_node35"><a xlink:href="/v2.0/type/UnsafeBufferPointer/" target="_top">
<polygon fill="#999999" stroke="#999999" points="3756.39,-22 3639.61,-22 3639.61,-0 3756.39,-0 3756.39,-22"/>
<text text-anchor="middle" x="3698" y="-7.4" font-family="Helvetica,sans-Serif" font-size="12.00" fill="white">UnsafeBufferPointer</text>
</a>
</g>
</g>
<!-- CollectionType&#45;&gt;UnsafeBufferPointer -->
<g id="edge59" class="edge">
<path fill="none" stroke="#cccccc" d="M1895.22,-241.004C2064.65,-237.029 2672.45,-221.289 2864,-196 2942.73,-185.606 3473.75,-63.7513 3644.93,-24.2656"/>
<polygon fill="#cccccc" stroke="#cccccc" points="3645.77,-27.6643 3654.72,-22.0055 3644.19,-20.8435 3645.77,-27.6643"/>
</g>
<!-- UnsafeMutableBufferPointer -->
<g id="node36" class="node">
<g id="a_node36"><a xlink:href="/v2.0/type/UnsafeMutableBufferPointer/" target="_top">
<polygon fill="#999999" stroke="#999999" points="991.905,-22 832.095,-22 832.095,-0 991.905,-0 991.905,-22"/>
<text text-anchor="middle" x="912" y="-7.4" font-family="Helvetica,sans-Serif" font-size="12.00" fill="white">UnsafeMutableBufferPointer</text>
</a>
</g>
</g>
<!-- CollectionType&#45;&gt;UnsafeMutableBufferPointer -->
<g id="edge60" class="edge">
<path fill="none" stroke="#cccccc" d="M1806.72,-240.087C1737.64,-236.282 1600.47,-225.415 1488,-196 1330.22,-154.735 1304.32,-104.483 1148,-58 1096.93,-42.8141 1038.12,-31.3363 991.984,-23.6439"/>
<polygon fill="#cccccc" stroke="#cccccc" points="992.476,-20.1779 982.041,-22.0118 991.342,-27.0854 992.476,-20.1779"/>
</g>
<!-- _ReverseCollectionType -->
<g id="node39" class="node">
<g id="a_node39"><a xlink:href="/v2.0/protocol/_ReverseCollectionType/" target="_top">
<path fill="#999999" stroke="#999999" d="M2106.72,-80C2106.72,-80 1981.28,-80 1981.28,-80 1977.61,-80 1973.95,-76.3333 1973.95,-72.6667 1973.95,-72.6667 1973.95,-65.3333 1973.95,-65.3333 1973.95,-61.6667 1977.61,-58 1981.28,-58 1981.28,-58 2106.72,-58 2106.72,-58 2110.39,-58 2114.05,-61.6667 2114.05,-65.3333 2114.05,-65.3333 2114.05,-72.6667 2114.05,-72.6667 2114.05,-76.3333 2110.39,-80 2106.72,-80"/>
<text text-anchor="middle" x="2044" y="-65.4" font-family="Helvetica,sans-Serif" font-size="12.00" fill="white">_ReverseCollectionType</text>
</a>
</g>
</g>
<!-- CollectionType&#45;&gt;_ReverseCollectionType -->
<g id="edge61" class="edge">
<path fill="none" stroke="#cccccc" d="M1862.5,-231.756C1894.47,-203.263 1984.71,-122.843 2024.61,-87.2809"/>
<polygon fill="#cccccc" stroke="#cccccc" points="2027.18,-89.6743 2032.32,-80.4081 2022.53,-84.4484 2027.18,-89.6743"/>
</g>
<!-- Indexable -->
<g id="node15" class="node">
<g id="a_node15"><a xlink:href="/v2.0/protocol/Indexable/" target="_top">
<path fill="#ee543d" stroke="#ee543d" d="M2127.7,-312C2127.7,-312 2080.3,-312 2080.3,-312 2076.63,-312 2072.97,-308.333 2072.97,-304.667 2072.97,-304.667 2072.97,-297.333 2072.97,-297.333 2072.97,-293.667 2076.63,-290 2080.3,-290 2080.3,-290 2127.7,-290 2127.7,-290 2131.37,-290 2135.03,-293.667 2135.03,-297.333 2135.03,-297.333 2135.03,-304.667 2135.03,-304.667 2135.03,-308.333 2131.37,-312 2127.7,-312"/>
<text text-anchor="middle" x="2104" y="-297.4" font-family="Helvetica,sans-Serif" font-size="12.00" fill="white">Indexable</text>
</a>
</g>
</g>
<!-- Indexable&#45;&gt;AnyBidirectionalCollection -->
<g id="edge1" class="edge">
<path fill="none" stroke="#cccccc" d="M2072.77,-298.007C1941.1,-289.194 1438,-251.252 1438,-186 1438,-186 1438,-186 1438,-126 1438,-90.7234 1420.07,-52.8823 1407.64,-30.8846"/>
<polygon fill="#cccccc" stroke="#cccccc" points="1410.64,-29.0753 1402.56,-22.2193 1404.6,-32.6161 1410.64,-29.0753"/>
</g>
<!-- Indexable&#45;&gt;AnyForwardCollection -->
<g id="edge2" class="edge">
<path fill="none" stroke="#cccccc" d="M2072.82,-297.873C2001.39,-292.645 1828,-277.829 1775,-254 1666.31,-205.13 1635.16,-180.422 1571,-80 1561.83,-65.6549 1557.02,-46.8623 1554.54,-32.6691"/>
<polygon fill="#cccccc" stroke="#cccccc" points="1557.95,-31.8158 1553,-22.4453 1551.03,-32.8538 1557.95,-31.8158"/>
</g>
<!-- Indexable&#45;&gt;AnyRandomAccessCollection -->
<g id="edge3" class="edge">
<path fill="none" stroke="#cccccc" d="M2072.9,-299.335C2003.59,-297.234 1839.24,-288.634 1798,-254 1729.51,-196.488 1718.67,-79.2129 1717.15,-32.1784"/>
<polygon fill="#cccccc" stroke="#cccccc" points="1720.64,-31.9734 1716.93,-22.0495 1713.64,-32.1211 1720.64,-31.9734"/>
</g>
<!-- Indexable&#45;&gt;Array -->
<g id="edge4" class="edge">
<path fill="none" stroke="#cccccc" d="M2072.97,-300.132C1951.38,-300.312 1495.71,-297.846 1124,-254 986.965,-237.836 934.898,-270.882 819,-196 755.201,-154.779 713.83,-69.8314 697.674,-31.51"/>
<polygon fill="#cccccc" stroke="#cccccc" points="700.815,-29.9428 693.788,-22.013 694.336,-32.5936 700.815,-29.9428"/>
</g>
<!-- Indexable&#45;&gt;ArraySlice -->
<g id="edge5" class="edge">
<path fill="none" stroke="#cccccc" d="M2072.79,-300.07C1872.66,-300.382 767.227,-299.97 433,-254 309.98,-237.08 162,-310.178 162,-186 162,-186 162,-186 162,-126 162,-88.2184 268.592,-46.2592 329.531,-25.3581"/>
<polygon fill="#cccccc" stroke="#cccccc" points="330.906,-28.5877 339.257,-22.0676 328.663,-21.9568 330.906,-28.5877"/>
</g>
<!-- Indexable&#45;&gt;CollectionOfOne -->
<g id="edge6" class="edge">
<path fill="none" stroke="#cccccc" d="M2072.56,-300.378C1943.67,-301.591 1455.72,-302.804 1311,-254 1259.72,-236.708 1210,-240.115 1210,-186 1210,-186 1210,-186 1210,-126 1210,-72.7526 1149.45,-41.2294 1105.04,-25.2685"/>
<polygon fill="#cccccc" stroke="#cccccc" points="1106.15,-21.9487 1095.55,-22.0041 1103.87,-28.5677 1106.15,-21.9487"/>
</g>
<!-- Indexable&#45;&gt;CollectionType -->
<g id="edge7" class="edge">
<path fill="none" stroke="#cccccc" d="M2072.98,-293.133C2031.29,-283.906 1956.53,-267.358 1905.38,-256.037"/>
<polygon fill="#cccccc" stroke="#cccccc" points="1906.01,-252.591 1895.49,-253.847 1904.49,-259.425 1906.01,-252.591"/>
</g>
<!-- Indexable&#45;&gt;ContiguousArray -->
<g id="edge8" class="edge">
<path fill="none" stroke="#cccccc" d="M2072.89,-299.523C1907.08,-296.875 1125.88,-283.039 886,-254 632.373,-223.296 484.397,-336.041 323,-138 268.557,-71.1963 415.359,-35.3819 502.589,-20.4842"/>
<polygon fill="#cccccc" stroke="#cccccc" points="503.363,-23.9037 512.654,-18.8123 502.216,-16.9983 503.363,-23.9037"/>
</g>
<!-- Indexable&#45;&gt;Dictionary -->
<g id="edge9" class="edge">
<path fill="none" stroke="#cccccc" d="M2072.81,-300.305C1951.36,-301.145 1510.39,-300.836 1380,-254 1331.47,-236.568 1286,-237.563 1286,-186 1286,-186 1286,-186 1286,-126 1286,-76.6204 1232.22,-43.3582 1194.38,-26.0661"/>
<polygon fill="#cccccc" stroke="#cccccc" points="1195.71,-22.8272 1185.15,-22.0138 1192.9,-29.2372 1195.71,-22.8272"/>
</g>
<!-- Indexable&#45;&gt;DictionaryLiteral -->
<g id="edge10" class="edge">
<path fill="none" stroke="#cccccc" d="M2072.65,-298.731C1968.61,-294.324 1635.43,-278.597 1531,-254 1452.19,-235.438 1362,-266.963 1362,-186 1362,-186 1362,-186 1362,-126 1362,-80.7409 1316.64,-45.9108 1285.26,-27.2334"/>
<polygon fill="#cccccc" stroke="#cccccc" points="1286.86,-24.1118 1276.44,-22.18 1283.38,-30.1864 1286.86,-24.1118"/>
</g>
<!-- Indexable&#45;&gt;EmptyCollection -->
<g id="edge11" class="edge">
<path fill="none" stroke="#cccccc" d="M2135.12,-299.325C2184.97,-297.194 2284.84,-288.552 2361,-254 2405.06,-234.011 2446,-234.379 2446,-186 2446,-186 2446,-186 2446,-126 2446,-92.0444 2434.14,-53.9991 2425.86,-31.5706"/>
<polygon fill="#cccccc" stroke="#cccccc" points="2429.1,-30.2524 2422.25,-22.1678 2422.56,-32.7581 2429.1,-30.2524"/>
</g>
<!-- Indexable&#45;&gt;FlattenBidirectionalCollection -->
<g id="edge12" class="edge">
<path fill="none" stroke="#cccccc" d="M2135.41,-297.482C2259.91,-287.089 2712,-245.269 2712,-186 2712,-186 2712,-186 2712,-126 2712,-89.6446 2734.16,-52.1715 2749.55,-30.5344"/>
<polygon fill="#cccccc" stroke="#cccccc" points="2752.52,-32.4037 2755.65,-22.2803 2746.89,-28.2452 2752.52,-32.4037"/>
</g>
<!-- Indexable&#45;&gt;FlattenCollection -->
<g id="edge13" class="edge">
<path fill="none" stroke="#cccccc" d="M2135.24,-299.951C2308.95,-299.278 3148,-290.61 3148,-186 3148,-186 3148,-186 3148,-126 3148,-75.9561 3202.95,-43.1452 3242.21,-26.09"/>
<polygon fill="#cccccc" stroke="#cccccc" points="3243.93,-29.1677 3251.81,-22.0925 3241.24,-22.7055 3243.93,-29.1677"/>
</g>
<!-- Indexable&#45;&gt;LazyCollection -->
<g id="edge14" class="edge">
<path fill="none" stroke="#cccccc" d="M2135.17,-298.151C2268.98,-289.807 2788,-253.116 2788,-186 2788,-186 2788,-186 2788,-126 2788,-94.6202 2786.59,-81.8393 2807,-58 2819.84,-42.9941 2838.6,-32.6298 2856.47,-25.5961"/>
<polygon fill="#cccccc" stroke="#cccccc" points="2858.07,-28.7383 2866.26,-22.0227 2855.67,-22.1623 2858.07,-28.7383"/>
</g>
<!-- Indexable&#45;&gt;LazyFilterCollection -->
<g id="edge15" class="edge">
<path fill="none" stroke="#cccccc" d="M2135.22,-299.366C2293.1,-295.754 2996,-274.696 2996,-186 2996,-186 2996,-186 2996,-126 2996,-91.827 3009.13,-53.8473 3018.3,-31.4911"/>
<polygon fill="#cccccc" stroke="#cccccc" points="3021.59,-32.6939 3022.29,-22.1221 3015.15,-29.9506 3021.59,-32.6939"/>
</g>
<!-- Indexable&#45;&gt;LazyMapCollection -->
<g id="edge16" class="edge">
<path fill="none" stroke="#cccccc" d="M2135.11,-299.683C2300.8,-297.591 3072,-282.665 3072,-186 3072,-186 3072,-186 3072,-126 3072,-84.3479 3109.04,-48.2665 3134.5,-28.3836"/>
<polygon fill="#cccccc" stroke="#cccccc" points="3136.74,-31.0843 3142.62,-22.277 3132.53,-25.4895 3136.74,-31.0843"/>
</g>
<!-- Indexable&#45;&gt;MutableSlice -->
<g id="edge17" class="edge">
<path fill="none" stroke="#cccccc" d="M2072.87,-299.912C1919.02,-299.286 1243.8,-294.25 1160,-254 1086.21,-218.556 1104.76,-163.387 1038,-116 982.41,-76.5384 959.456,-82.917 896,-58 867.481,-46.8017 835.015,-34.586 810.748,-25.559"/>
<polygon fill="#cccccc" stroke="#cccccc" points="811.809,-22.2196 801.216,-22.0205 809.373,-28.782 811.809,-22.2196"/>
</g>
<!-- Indexable&#45;&gt;Range -->
<g id="edge18" class="edge">
<path fill="none" stroke="#cccccc" d="M2094.82,-289.75C2056.65,-247.146 1910.29,-83.7657 1861.75,-29.578"/>
<polygon fill="#cccccc" stroke="#cccccc" points="1864.35,-27.2402 1855.07,-22.1273 1859.14,-31.911 1864.35,-27.2402"/>
</g>
<!-- Indexable&#45;&gt;Repeat -->
<g id="edge19" class="edge">
<path fill="none" stroke="#cccccc" d="M2135.37,-295.749C2189.34,-286.483 2294,-259.089 2294,-186 2294,-186 2294,-186 2294,-126 2294,-90.9805 2276.66,-53.2908 2264.53,-31.2178"/>
<polygon fill="#cccccc" stroke="#cccccc" points="2267.4,-29.1907 2259.41,-22.2407 2261.32,-32.6606 2267.4,-29.1907"/>
</g>
<!-- Indexable&#45;&gt;ReverseCollection -->
<g id="edge20" class="edge">
<path fill="none" stroke="#cccccc" d="M2103.8,-289.991C2102.99,-267.95 2099.07,-214.001 2080,-174 2065.48,-143.539 2057.15,-137.332 2031,-116 2005.11,-94.8777 1985.98,-106.007 1965,-80 1954.04,-66.414 1949.09,-47.0073 1946.85,-32.401"/>
<polygon fill="#cccccc" stroke="#cccccc" points="1950.3,-31.8406 1945.61,-22.3432 1943.36,-32.6959 1950.3,-31.8406"/>
</g>
<!-- Indexable&#45;&gt;ReverseRandomAccessCollection -->
<g id="edge21" class="edge">
<path fill="none" stroke="#cccccc" d="M2126.52,-289.972C2159.75,-273.466 2218,-237.221 2218,-186 2218,-186 2218,-186 2218,-126 2218,-80.7409 2172.64,-45.9108 2141.26,-27.2334"/>
<polygon fill="#cccccc" stroke="#cccccc" points="2142.86,-24.1118 2132.44,-22.18 2139.38,-30.1864 2142.86,-24.1118"/>
</g>
<!-- Indexable&#45;&gt;Set -->
<g id="edge22" class="edge">
<path fill="none" stroke="#cccccc" d="M2135.03,-300.465C2205.2,-299.734 2370,-287.24 2370,-186 2370,-186 2370,-186 2370,-126 2370,-90.4129 2350.79,-52.667 2337.48,-30.7727"/>
<polygon fill="#cccccc" stroke="#cccccc" points="2340.33,-28.7386 2332.03,-22.1525 2334.41,-32.4764 2340.33,-28.7386"/>
</g>
<!-- Indexable&#45;&gt;Slice -->
<g id="edge23" class="edge">
<path fill="none" stroke="#cccccc" d="M2135.08,-298.234C2231.95,-291.891 2522,-266.203 2522,-186 2522,-186 2522,-186 2522,-126 2522,-93.001 2517.38,-54.8764 2514.13,-32.1404"/>
<polygon fill="#cccccc" stroke="#cccccc" points="2517.56,-31.4103 2512.62,-22.0334 2510.63,-32.4393 2517.56,-31.4103"/>
</g>
<!-- Indexable&#45;&gt;String.CharacterView -->
<g id="edge27" class="edge">
<path fill="none" stroke="#cccccc" d="M2072.85,-299.999C1824.03,-299.908 165.919,-297.66 71,-254 34.1145,-237.034 10,-226.6 10,-186 10,-186 10,-186 10,-126 10,-89.5743 31.9639,-51.8617 47.064,-30.2384"/>
<polygon fill="#cccccc" stroke="#cccccc" points="49.9956,-32.1577 53.0312,-22.007 44.3281,-28.0491 49.9956,-32.1577"/>
</g>
<!-- Indexable&#45;&gt;String.UTF16View -->
<g id="edge29" class="edge">
<path fill="none" stroke="#cccccc" d="M2135.23,-298.428C2212.42,-294.169 2410.29,-280.88 2470,-254 2560.73,-213.155 2595.93,-82.5479 2606.35,-32.1264"/>
<polygon fill="#cccccc" stroke="#cccccc" points="2609.82,-32.6214 2608.3,-22.1357 2602.95,-31.2785 2609.82,-32.6214"/>
</g>
<!-- Indexable&#45;&gt;String.UTF8View -->
<g id="edge30" class="edge">
<path fill="none" stroke="#cccccc" d="M2135.12,-300.184C2316.01,-300.858 3224,-298.628 3224,-186 3224,-186 3224,-186 3224,-126 3224,-93.9507 3224.85,-80.1631 3248,-58 3261.44,-45.138 3303.08,-32.9831 3339.23,-24.4014"/>
<polygon fill="#cccccc" stroke="#cccccc" points="3340.31,-27.7455 3349.26,-22.0781 3338.73,-20.9263 3340.31,-27.7455"/>
</g>
<!-- Indexable&#45;&gt;String.UnicodeScalarView -->
<g id="edge28" class="edge">
<path fill="none" stroke="#cccccc" d="M2072.86,-300.148C1839.08,-301.139 362.857,-305.325 172,-254 111.303,-237.677 48,-248.854 48,-186 48,-186 48,-186 48,-126 48,-70.6618 111.324,-40.2488 159.984,-25.0476"/>
<polygon fill="#cccccc" stroke="#cccccc" points="161.224,-28.3303 169.807,-22.1192 159.224,-21.6221 161.224,-28.3303"/>
</g>
<!-- Indexable&#45;&gt;UnicodeScalar.UTF16View -->
<g id="edge24" class="edge">
<path fill="none" stroke="#cccccc" d="M2135.17,-299.404C2296.49,-296.212 3032.84,-280.299 3131,-254 3194.36,-237.023 3262,-251.599 3262,-186 3262,-186 3262,-186 3262,-126 3262,-78.9343 3398.72,-42.141 3481.77,-24.1339"/>
<polygon fill="#cccccc" stroke="#cccccc" points="3482.57,-27.5422 3491.62,-22.0317 3481.11,-20.6964 3482.57,-27.5422"/>
</g>
<!-- Indexable&#45;&gt;UnsafeBufferPointer -->
<g id="edge25" class="edge">
<path fill="none" stroke="#cccccc" d="M2135.21,-299.394C2290.85,-296.264 2984.18,-281.021 3198,-254 3342.25,-235.771 3518,-331.398 3518,-186 3518,-186 3518,-186 3518,-126 3518,-69.0091 3583.2,-39.325 3635.12,-24.7217"/>
<polygon fill="#cccccc" stroke="#cccccc" points="3636.21,-28.0511 3644.97,-22.0829 3634.4,-21.2895 3636.21,-28.0511"/>
</g>
<!-- Indexable&#45;&gt;UnsafeMutableBufferPointer -->
<g id="edge26" class="edge">
<path fill="none" stroke="#cccccc" d="M2072.93,-299.327C1927.38,-296.044 1316.65,-280.77 1236,-254 1184.29,-236.837 1134,-240.484 1134,-186 1134,-186 1134,-186 1134,-126 1134,-63.6169 1063.77,-35.3447 1002.32,-22.5469"/>
<polygon fill="#cccccc" stroke="#cccccc" points="1002.63,-19.0426 992.147,-20.5502 1001.29,-25.9114 1002.63,-19.0426"/>
</g>
<!-- LazyCollectionType&#45;&gt;LazyCollection -->
<g id="edge69" class="edge">
<path fill="none" stroke="#cccccc" d="M2879.26,-57.9883C2883.93,-50.5165 2890.45,-40.0812 2896.1,-31.0393"/>
<polygon fill="#cccccc" stroke="#cccccc" points="2899.23,-32.6389 2901.56,-22.3039 2893.29,-28.9289 2899.23,-32.6389"/>
</g>
<!-- LazyCollectionType&#45;&gt;LazyFilterCollection -->
<g id="edge70" class="edge">
<path fill="none" stroke="#cccccc" d="M2900.53,-57.9883C2925.42,-48.9381 2962.27,-35.5399 2989.77,-25.5367"/>
<polygon fill="#cccccc" stroke="#cccccc" points="2991.25,-28.726 2999.45,-22.0192 2988.85,-22.1475 2991.25,-28.726"/>
</g>
<!-- LazyCollectionType&#45;&gt;LazyMapCollection -->
<g id="edge71" class="edge">
<path fill="none" stroke="#cccccc" d="M2923.95,-57.9883C2972.44,-48.4618 3045.44,-34.1176 3097,-23.9866"/>
<polygon fill="#cccccc" stroke="#cccccc" points="3097.87,-27.3817 3107.01,-22.0192 3096.52,-20.513 3097.87,-27.3817"/>
</g>
<!-- MutableCollectionType&#45;&gt;Array -->
<g id="edge72" class="edge">
<path fill="none" stroke="#cccccc" d="M912.363,-173.803C903.319,-149.904 877.504,-89.891 836,-58 831.513,-54.5522 768.354,-35.3256 726.591,-22.8454"/>
<polygon fill="#cccccc" stroke="#cccccc" points="727.583,-19.4892 717,-19.9855 725.583,-26.1973 727.583,-19.4892"/>
</g>
<!-- MutableCollectionType&#45;&gt;ArraySlice -->
<g id="edge73" class="edge">
<path fill="none" stroke="#cccccc" d="M850.516,-177.8C787.5,-171.003 689.841,-158.282 607,-138 587.819,-133.304 455.743,-90.4715 439,-80 417.701,-66.6789 397.948,-45.5252 385.281,-30.3484"/>
<polygon fill="#cccccc" stroke="#cccccc" points="387.699,-27.7733 378.684,-22.2076 382.261,-32.1805 387.699,-27.7733"/>
</g>
<!-- MutableCollectionType&#45;&gt;ContiguousArray -->
<g id="edge74" class="edge">
<path fill="none" stroke="#cccccc" d="M897.122,-173.994C855.781,-152.183 753.983,-99.0223 667,-58 643.225,-46.7872 616.032,-34.8996 595.277,-26.0184"/>
<polygon fill="#cccccc" stroke="#cccccc" points="596.512,-22.7399 585.94,-22.0396 593.767,-29.1796 596.512,-22.7399"/>
</g>
<!-- MutableCollectionType&#45;&gt;MutableSlice -->
<g id="edge75" class="edge">
<path fill="none" stroke="#cccccc" d="M915.3,-173.831C913.183,-150.506 904.932,-92.5149 874,-58 860.486,-42.9211 841.028,-32.4441 822.862,-25.3428"/>
<polygon fill="#cccccc" stroke="#cccccc" points="823.828,-21.9698 813.234,-21.834 821.431,-28.5466 823.828,-21.9698"/>
</g>
<!-- MutableCollectionType&#45;&gt;MutableSliceable -->
<g id="edge76" class="edge">
<path fill="none" stroke="#cccccc" d="M871.484,-173.988C829.478,-164.541 766.406,-150.356 721.428,-140.241"/>
<polygon fill="#cccccc" stroke="#cccccc" points="722.074,-136.799 711.55,-138.019 720.538,-143.628 722.074,-136.799"/>
</g>
<!-- MutableCollectionType&#45;&gt;UnsafeMutableBufferPointer -->
<g id="edge77" class="edge">
<path fill="none" stroke="#cccccc" d="M981.391,-174.607C1003.05,-168.039 1024.93,-156.896 1038,-138 1069.86,-91.9413 993.653,-48.0164 946.287,-26.2392"/>
<polygon fill="#cccccc" stroke="#cccccc" points="947.51,-22.9519 936.953,-22.0601 944.649,-29.3409 947.51,-22.9519"/>
</g>
<!-- _ArrayBufferType -->
<g id="node37" class="node">
<g id="a_node37"><a xlink:href="/v2.0/protocol/_ArrayBufferType/" target="_top">
<path fill="#999999" stroke="#999999" d="M1022.04,-138C1022.04,-138 933.956,-138 933.956,-138 930.29,-138 926.623,-134.333 926.623,-130.667 926.623,-130.667 926.623,-123.333 926.623,-123.333 926.623,-119.667 930.29,-116 933.956,-116 933.956,-116 1022.04,-116 1022.04,-116 1025.71,-116 1029.38,-119.667 1029.38,-123.333 1029.38,-123.333 1029.38,-130.667 1029.38,-130.667 1029.38,-134.333 1025.71,-138 1022.04,-138"/>
<text text-anchor="middle" x="978" y="-123.4" font-family="Helvetica,sans-Serif" font-size="12.00" fill="white">_ArrayBufferType</text>
</a>
</g>
</g>
<!-- MutableCollectionType&#45;&gt;_ArrayBufferType -->
<g id="edge78" class="edge">
<path fill="none" stroke="#cccccc" d="M927.084,-173.988C935.966,-165.966 948.631,-154.527 959.107,-145.065"/>
<polygon fill="#cccccc" stroke="#cccccc" points="961.517,-147.604 966.592,-138.304 956.825,-142.409 961.517,-147.604"/>
</g>
<!-- MutableSliceable&#45;&gt;Array -->
<g id="edge79" class="edge">
<path fill="none" stroke="#cccccc" d="M671.733,-115.645C675.702,-106.476 681.163,-92.6266 684,-80 687.532,-64.2813 689.004,-46.0823 689.609,-32.4692"/>
<polygon fill="#cccccc" stroke="#cccccc" points="693.114,-32.3759 689.939,-22.268 686.117,-32.1496 693.114,-32.3759"/>
</g>
<!-- MutableSliceable&#45;&gt;ArraySlice -->
<g id="edge80" class="edge">
<path fill="none" stroke="#cccccc" d="M616.306,-117.294C579.077,-109.926 527.756,-97.7102 485,-80 451.317,-66.048 415.728,-43.3709 393.453,-28.0809"/>
<polygon fill="#cccccc" stroke="#cccccc" points="395.25,-25.0672 385.043,-22.2238 391.249,-30.8113 395.25,-25.0672"/>
</g>
<!-- MutableSliceable&#45;&gt;ContiguousArray -->
<g id="edge81" class="edge">
<path fill="none" stroke="#cccccc" d="M666.213,-115.653C664.628,-101.257 659.909,-75.0367 646,-58 634.593,-44.0275 617.769,-33.6366 602.168,-26.3008"/>
<polygon fill="#cccccc" stroke="#cccccc" points="603.234,-22.9462 592.671,-22.1234 600.416,-29.3537 603.234,-22.9462"/>
</g>
<!-- _ArrayType -->
<g id="node38" class="node">
<g id="a_node38"><a xlink:href="/v2.0/protocol/_ArrayType/" target="_top">
<path fill="#999999" stroke="#999999" d="M558.19,-80C558.19,-80 501.81,-80 501.81,-80 498.144,-80 494.477,-76.3333 494.477,-72.6667 494.477,-72.6667 494.477,-65.3333 494.477,-65.3333 494.477,-61.6667 498.144,-58 501.81,-58 501.81,-58 558.19,-58 558.19,-58 561.856,-58 565.523,-61.6667 565.523,-65.3333 565.523,-65.3333 565.523,-72.6667 565.523,-72.6667 565.523,-76.3333 561.856,-80 558.19,-80"/>
<text text-anchor="middle" x="530" y="-65.4" font-family="Helvetica,sans-Serif" font-size="12.00" fill="white">_ArrayType</text>
</a>
</g>
</g>
<!-- MutableSliceable&#45;&gt;_ArrayType -->
<g id="edge82" class="edge">
<path fill="none" stroke="#cccccc" d="M642.507,-115.988C620.725,-107.085 588.649,-93.9733 564.313,-84.0259"/>
<polygon fill="#cccccc" stroke="#cccccc" points="565.324,-80.6578 554.743,-80.1138 562.675,-87.1374 565.324,-80.6578"/>
</g>
<!-- RangeReplaceableCollectionType&#45;&gt;Array -->
<g id="edge86" class="edge">
<path fill="none" stroke="#cccccc" d="M467.516,-115.988C497.555,-107.931 539.155,-95.4248 574,-80 607.732,-65.0678 644.02,-42.66 666.855,-27.6953"/>
<polygon fill="#cccccc" stroke="#cccccc" points="668.798,-30.6063 675.2,-22.1643 664.931,-24.7715 668.798,-30.6063"/>
</g>
<!-- RangeReplaceableCollectionType&#45;&gt;ArraySlice -->
<g id="edge87" class="edge">
<path fill="none" stroke="#cccccc" d="M410.095,-115.806C398.321,-107.698 383.443,-95.2079 376,-80 368.773,-65.2344 367.916,-46.4775 368.644,-32.405"/>
<polygon fill="#cccccc" stroke="#cccccc" points="372.144,-32.5426 369.477,-22.2892 365.168,-31.9684 372.144,-32.5426"/>
</g>
<!-- RangeReplaceableCollectionType&#45;&gt;ContiguousArray -->
<g id="edge88" class="edge">
<path fill="none" stroke="#cccccc" d="M433.997,-115.873C444.103,-101.738 463.903,-75.8258 485,-58 499.381,-45.8487 517.354,-34.9147 532.317,-26.7585"/>
<polygon fill="#cccccc" stroke="#cccccc" points="533.993,-29.8315 541.186,-22.053 530.712,-23.6479 533.993,-29.8315"/>
</g>
<!-- RangeReplaceableCollectionType&#45;&gt;String.CharacterView -->
<g id="edge90" class="edge">
<path fill="none" stroke="#cccccc" d="M394.841,-115.983C328.618,-95.3563 177.053,-48.1478 103.118,-25.1186"/>
<polygon fill="#cccccc" stroke="#cccccc" points="103.806,-21.6671 93.2171,-22.0348 101.724,-28.3504 103.806,-21.6671"/>
</g>
<!-- RangeReplaceableCollectionType&#45;&gt;String.UnicodeScalarView -->
<g id="edge91" class="edge">
<path fill="none" stroke="#cccccc" d="M408.186,-115.883C370.706,-95.7287 286.564,-50.4823 242.734,-26.9136"/>
<polygon fill="#cccccc" stroke="#cccccc" points="244.236,-23.7476 233.771,-22.0941 240.921,-29.9127 244.236,-23.7476"/>
</g>
<!-- RangeReplaceableCollectionType&#45;&gt;_ArrayType -->
<g id="edge89" class="edge">
<path fill="none" stroke="#cccccc" d="M445.414,-115.988C461.281,-107.362 484.413,-94.785 502.478,-84.9633"/>
<polygon fill="#cccccc" stroke="#cccccc" points="504.284,-87.9653 511.398,-80.1138 500.941,-81.8155 504.284,-87.9653"/>
</g>
<!-- _ArrayType&#45;&gt;Array -->
<g id="edge83" class="edge">
<path fill="none" stroke="#cccccc" d="M558.605,-57.9883C585.058,-48.7296 624.514,-34.9202 653.284,-24.8507"/>
<polygon fill="#cccccc" stroke="#cccccc" points="654.693,-28.0656 662.976,-21.4586 652.381,-21.4586 654.693,-28.0656"/>
</g>
<!-- _ArrayType&#45;&gt;ArraySlice -->
<g id="edge84" class="edge">
<path fill="none" stroke="#cccccc" d="M501.574,-57.9883C475.765,-48.8984 437.503,-35.4223 409.061,-25.4053"/>
<polygon fill="#cccccc" stroke="#cccccc" points="410.042,-22.0401 399.448,-22.0192 407.717,-28.6425 410.042,-22.0401"/>
</g>
<!-- _ArrayType&#45;&gt;ContiguousArray -->
<g id="edge85" class="edge">
<path fill="none" stroke="#cccccc" d="M535.721,-57.9883C539.991,-50.5165 545.954,-40.0812 551.12,-31.0393"/>
<polygon fill="#cccccc" stroke="#cccccc" points="554.189,-32.7228 556.112,-22.3039 548.112,-29.2498 554.189,-32.7228"/>
</g>
<!-- _ReverseCollectionType&#45;&gt;ReverseCollection -->
<g id="edge92" class="edge">
<path fill="none" stroke="#cccccc" d="M2026.3,-57.9883C2011.19,-49.441 1989.22,-37.0155 1971.93,-27.2343"/>
<polygon fill="#cccccc" stroke="#cccccc" points="1973.31,-23.9909 1962.88,-22.1138 1969.86,-30.0837 1973.31,-23.9909"/>
</g>
<!-- _ReverseCollectionType&#45;&gt;ReverseRandomAccessCollection -->
<g id="edge93" class="edge">
<path fill="none" stroke="#cccccc" d="M2056.16,-57.9883C2065.99,-49.8873 2080.06,-38.3026 2091.62,-28.7873"/>
<polygon fill="#cccccc" stroke="#cccccc" points="2093.99,-31.3627 2099.49,-22.3039 2089.54,-25.9592 2093.99,-31.3627"/>
</g>
</g>
</svg>
