<?xml version="1.0" encoding="UTF-8" standalone="no"?>
<!DOCTYPE svg PUBLIC "-//W3C//DTD SVG 1.1//EN"
 "http://www.w3.org/Graphics/SVG/1.1/DTD/svg11.dtd">
<!-- Generated by graphviz version 2.36.0 (20140111.2315)
 -->
<!-- Title: BitwiseOperationsType &#45; Type Hierarchy &#45; SwiftDoc.org Pages: 1 -->
<svg width="913pt" height="369pt"
 viewBox="0.00 0.00 913.40 369.20" xmlns="http://www.w3.org/2000/svg" xmlns:xlink="http://www.w3.org/1999/xlink">
<g id="graph0" class="graph" transform="scale(1 1) rotate(0) translate(7.2 311.6)">
<g transform="translate(0 -311.6)">
<g>
    <path fill="#666666" d="M13.846,10.832c-0.336-0.464-0.792-0.844-1.368-1.14s-1.224-0.444-1.944-0.444
        c-0.384,0-0.772,0.052-1.164,0.156C8.977,9.509,8.622,9.677,8.301,9.908c-0.32,0.232-0.58,0.52-0.78,0.864
        c-0.2,0.344-0.3,0.756-0.3,1.236c0,0.464,0.092,0.852,0.276,1.164c0.184,0.312,0.432,0.576,0.744,0.792s0.68,0.4,1.104,0.552
        c0.423,0.152,0.876,0.309,1.356,0.468c0.576,0.177,1.16,0.376,1.752,0.601c0.592,0.224,1.128,0.52,1.608,0.888
        s0.872,0.828,1.176,1.38s0.456,1.252,0.456,2.101c0,0.88-0.164,1.644-0.492,2.292c-0.328,0.647-0.765,1.184-1.308,1.607
        c-0.544,0.424-1.172,0.74-1.884,0.948s-1.444,0.312-2.196,0.312c-1.072,0-2.108-0.208-3.108-0.624
        c-1-0.415-1.828-1.031-2.484-1.848l1.848-1.56c0.4,0.592,0.936,1.071,1.608,1.439c0.672,0.368,1.399,0.552,2.184,0.552
        c0.4,0,0.8-0.056,1.2-0.168c0.4-0.111,0.764-0.288,1.092-0.527c0.328-0.24,0.596-0.54,0.804-0.9
        c0.208-0.36,0.312-0.796,0.312-1.308s-0.108-0.94-0.324-1.284c-0.216-0.344-0.508-0.636-0.876-0.876s-0.796-0.444-1.284-0.612
        c-0.488-0.168-1.004-0.34-1.548-0.516c-0.544-0.16-1.08-0.356-1.608-0.588c-0.528-0.232-1-0.528-1.416-0.889
        c-0.416-0.359-0.752-0.804-1.008-1.332c-0.256-0.527-0.384-1.184-0.384-1.968c0-0.848,0.172-1.576,0.516-2.184
        c0.344-0.608,0.792-1.112,1.344-1.512c0.552-0.4,1.176-0.692,1.872-0.876c0.696-0.184,1.396-0.276,2.1-0.276
        c0.992,0,1.92,0.176,2.784,0.528c0.864,0.352,1.56,0.824,2.088,1.416L13.846,10.832z"/>
    <path fill="#666666" d="M18.813,13.304l2.568,8.688h0.048l2.712-8.688h2.376l2.76,8.688h0.048l2.568-8.688h2.376L30.501,24.68
        h-2.352l-2.808-8.544h-0.048l-2.784,8.544h-2.352l-3.792-11.376H18.813z"/>
    <path fill="#666666" d="M38.685,9.2c0,0.416-0.147,0.76-0.44,1.032c-0.294,0.272-0.647,0.408-1.06,0.408s-0.762-0.14-1.047-0.42
        c-0.286-0.28-0.429-0.62-0.429-1.02c0-0.416,0.143-0.764,0.429-1.044c0.286-0.28,0.635-0.42,1.047-0.42s0.766,0.14,1.06,0.42
        C38.538,8.437,38.685,8.784,38.685,9.2z M38.325,24.68h-2.256V13.304h2.256V24.68z"/>
    <path fill="#666666" d="M47.613,15.152h-2.64v9.528h-2.256v-9.528h-2.256v-1.848h2.256v-2.376c0-0.672,0.076-1.292,0.228-1.86
        c0.152-0.568,0.4-1.06,0.744-1.476c0.344-0.416,0.784-0.744,1.32-0.984c0.536-0.24,1.188-0.36,1.956-0.36
        c0.544,0,1.016,0.056,1.416,0.168l-0.264,1.944c-0.176-0.048-0.352-0.088-0.528-0.12c-0.176-0.032-0.376-0.048-0.6-0.048
        c-0.432,0-0.78,0.076-1.044,0.228c-0.264,0.152-0.468,0.356-0.612,0.612s-0.24,0.548-0.288,0.876
        c-0.048,0.328-0.072,0.668-0.072,1.02v2.376h2.64V15.152z"/>
    <path fill="#666666" d="M54.909,15.152h-3.024v5.91c0,0.687,0.128,1.177,0.384,1.472c0.256,0.295,0.664,0.442,1.224,0.442
        c0.208,0,0.432-0.021,0.672-0.065c0.24-0.044,0.456-0.11,0.648-0.198l0.072,1.848c-0.272,0.096-0.572,0.172-0.9,0.229
        c-0.328,0.056-0.668,0.084-1.02,0.084c-1.072,0-1.892-0.296-2.46-0.889c-0.568-0.592-0.852-1.479-0.852-2.664v-6.168h-2.184
        v-1.848h2.184V10.04h2.232v3.264h3.024V15.152z"/>
    <path fill="#666666" d="M57.356,7.688h5.832c1.088,0,2.176,0.16,3.264,0.48c1.088,0.32,2.072,0.824,2.952,1.512
        s1.592,1.568,2.136,2.64c0.544,1.072,0.816,2.36,0.816,3.864c0,1.456-0.272,2.716-0.816,3.78s-1.256,1.943-2.136,2.64
        s-1.864,1.216-2.952,1.561c-1.088,0.344-2.176,0.516-3.264,0.516h-5.832V7.688z M59.732,22.593h2.976
        c1.024,0,1.972-0.145,2.844-0.432c0.872-0.288,1.624-0.704,2.256-1.248c0.632-0.544,1.124-1.216,1.476-2.017
        c0.352-0.8,0.528-1.704,0.528-2.712c0-1.056-0.176-1.983-0.528-2.784c-0.353-0.8-0.844-1.468-1.476-2.004
        c-0.632-0.536-1.384-0.944-2.256-1.224s-1.82-0.42-2.844-0.42h-2.976V22.593z"/>
    <path fill="#666666" d="M86.06,18.969c0,0.88-0.156,1.688-0.468,2.424c-0.312,0.736-0.744,1.372-1.296,1.908
        c-0.552,0.536-1.204,0.952-1.956,1.248c-0.752,0.296-1.56,0.443-2.424,0.443c-0.864,0-1.672-0.147-2.424-0.443
        c-0.752-0.296-1.4-0.712-1.944-1.248c-0.544-0.536-0.972-1.172-1.284-1.908c-0.312-0.735-0.468-1.544-0.468-2.424
        s0.156-1.684,0.468-2.412c0.312-0.728,0.74-1.356,1.284-1.884c0.543-0.528,1.191-0.939,1.944-1.236
        c0.752-0.296,1.56-0.444,2.424-0.444c0.864,0,1.672,0.148,2.424,0.444c0.752,0.297,1.404,0.708,1.956,1.236
        c0.552,0.527,0.984,1.156,1.296,1.884C85.904,17.285,86.06,18.089,86.06,18.969z M83.708,18.98c0-0.542-0.084-1.061-0.252-1.556
        c-0.169-0.494-0.414-0.929-0.734-1.304s-0.718-0.674-1.192-0.897s-1.015-0.335-1.625-0.335c-0.61,0-1.152,0.111-1.625,0.335
        c-0.474,0.224-0.871,0.522-1.191,0.897c-0.321,0.375-0.566,0.81-0.734,1.304C76.184,17.92,76.1,18.438,76.1,18.98
        c0,0.543,0.084,1.062,0.253,1.556c0.168,0.495,0.413,0.934,0.734,1.316c0.321,0.383,0.718,0.686,1.191,0.909
        c0.473,0.224,1.015,0.335,1.625,0.335c0.61,0,1.151-0.111,1.625-0.335s0.871-0.526,1.192-0.909s0.565-0.821,0.734-1.316
        C83.624,20.042,83.708,19.523,83.708,18.98z"/>
    <path fill="#666666" d="M96.428,16.184c-0.24-0.368-0.6-0.676-1.08-0.924s-0.992-0.372-1.536-0.372
        c-0.592,0-1.116,0.112-1.572,0.336c-0.456,0.225-0.844,0.524-1.164,0.9c-0.32,0.376-0.564,0.812-0.732,1.308
        s-0.252,1.017-0.252,1.56c0,0.545,0.084,1.064,0.252,1.561s0.412,0.933,0.732,1.308c0.32,0.376,0.712,0.677,1.176,0.9
        c0.464,0.225,0.992,0.336,1.584,0.336c0.576,0,1.1-0.111,1.572-0.336c0.472-0.224,0.86-0.528,1.164-0.912l1.512,1.368
        c-0.48,0.561-1.08,0.996-1.8,1.308c-0.72,0.312-1.536,0.468-2.448,0.468c-0.88,0-1.692-0.144-2.436-0.432
        c-0.744-0.288-1.388-0.691-1.932-1.212c-0.544-0.52-0.972-1.147-1.284-1.884s-0.468-1.561-0.468-2.473
        c0-0.896,0.152-1.711,0.456-2.447c0.304-0.736,0.728-1.368,1.272-1.896c0.543-0.527,1.188-0.936,1.932-1.224
        c0.744-0.288,1.548-0.433,2.412-0.433c0.8,0,1.596,0.16,2.388,0.48s1.419,0.784,1.884,1.392L96.428,16.184z"/>
    <path fill="#666666" d="M103.1,23.24c0,0.417-0.152,0.784-0.456,1.104c-0.304,0.32-0.688,0.479-1.152,0.479
        c-0.448,0-0.828-0.155-1.14-0.468c-0.312-0.312-0.468-0.676-0.468-1.092c0-0.432,0.152-0.804,0.456-1.116
        c0.304-0.312,0.688-0.468,1.152-0.468c0.464,0,0.848,0.152,1.152,0.456C102.947,22.44,103.1,22.808,103.1,23.24z"/>
    <path fill="#666666" d="M116.635,18.969c0,0.88-0.156,1.688-0.468,2.424c-0.312,0.736-0.744,1.372-1.296,1.908
        c-0.552,0.536-1.204,0.952-1.956,1.248c-0.752,0.296-1.56,0.443-2.424,0.443c-0.864,0-1.672-0.147-2.424-0.443
        c-0.752-0.296-1.4-0.712-1.944-1.248c-0.544-0.536-0.972-1.172-1.284-1.908c-0.312-0.735-0.468-1.544-0.468-2.424
        s0.156-1.684,0.468-2.412c0.312-0.728,0.74-1.356,1.284-1.884c0.543-0.528,1.191-0.939,1.944-1.236
        c0.752-0.296,1.56-0.444,2.424-0.444c0.864,0,1.672,0.148,2.424,0.444c0.752,0.297,1.404,0.708,1.956,1.236
        c0.552,0.527,0.984,1.156,1.296,1.884C116.479,17.285,116.635,18.089,116.635,18.969z M114.283,18.98
        c0-0.542-0.084-1.061-0.252-1.556c-0.169-0.494-0.414-0.929-0.734-1.304s-0.718-0.674-1.192-0.897s-1.015-0.335-1.625-0.335
        c-0.61,0-1.152,0.111-1.625,0.335c-0.474,0.224-0.871,0.522-1.191,0.897c-0.321,0.375-0.566,0.81-0.734,1.304
        c-0.169,0.495-0.253,1.014-0.253,1.556c0,0.543,0.084,1.062,0.253,1.556c0.168,0.495,0.413,0.934,0.734,1.316
        c0.321,0.383,0.718,0.686,1.191,0.909c0.473,0.224,1.015,0.335,1.625,0.335c0.61,0,1.151-0.111,1.625-0.335
        s0.871-0.526,1.192-0.909s0.565-0.821,0.734-1.316C114.199,20.042,114.283,19.523,114.283,18.98z"/>
    <path fill="#666666" d="M119.251,14.577c-0.016-0.48-0.04-0.904-0.072-1.272h2.136c0.032,0.288,0.056,0.62,0.072,0.996
        c0.016,0.376,0.024,0.684,0.024,0.924h0.072c0.32-0.672,0.788-1.212,1.404-1.62c0.616-0.408,1.308-0.612,2.076-0.612
        c0.352,0,0.648,0.033,0.888,0.097l-0.096,2.088c-0.32-0.08-0.664-0.12-1.032-0.12c-0.544,0-1.016,0.101-1.416,0.3
        c-0.4,0.2-0.732,0.468-0.996,0.805c-0.264,0.336-0.46,0.724-0.588,1.163c-0.128,0.44-0.192,0.9-0.192,1.381v5.976h-2.256v-8.928
        C119.275,15.449,119.267,15.056,119.251,14.577z"/>
    <path fill="#666666" d="M128.419,26.625c0.496,0.56,1.116,1.008,1.86,1.344c0.744,0.336,1.508,0.504,2.292,0.504
        c0.752,0,1.384-0.108,1.896-0.324s0.924-0.512,1.236-0.888s0.536-0.82,0.672-1.332c0.136-0.513,0.204-1.064,0.204-1.656v-1.464
        h-0.048c-0.416,0.641-0.984,1.128-1.704,1.464c-0.72,0.336-1.488,0.504-2.304,0.504c-0.864,0-1.652-0.151-2.364-0.456
        c-0.712-0.304-1.316-0.72-1.812-1.248c-0.496-0.527-0.88-1.147-1.152-1.859s-0.408-1.477-0.408-2.292
        c0-0.816,0.136-1.584,0.408-2.305c0.272-0.72,0.656-1.348,1.152-1.884c0.496-0.535,1.096-0.96,1.8-1.271
        c0.704-0.312,1.488-0.469,2.352-0.469c0.816,0,1.596,0.177,2.34,0.528c0.744,0.353,1.332,0.888,1.764,1.608h0.048v-1.824h2.184
        v10.8c0,0.832-0.104,1.628-0.312,2.388c-0.208,0.76-0.56,1.433-1.056,2.017s-1.144,1.052-1.944,1.404
        c-0.8,0.352-1.792,0.527-2.976,0.527c-0.992,0-1.988-0.18-2.988-0.54c-1-0.359-1.86-0.868-2.58-1.523L128.419,26.625z
         M129.091,18.873c0,0.527,0.084,1.031,0.253,1.512c0.168,0.479,0.417,0.904,0.746,1.271c0.329,0.369,0.726,0.664,1.192,0.889
        c0.465,0.224,0.995,0.336,1.589,0.336c0.577,0,1.107-0.104,1.589-0.312c0.481-0.207,0.891-0.491,1.228-0.852
        s0.598-0.784,0.782-1.272c0.185-0.487,0.277-1.012,0.277-1.571c0-0.544-0.093-1.057-0.277-1.536
        c-0.185-0.48-0.449-0.904-0.794-1.272c-0.345-0.367-0.755-0.66-1.228-0.876c-0.474-0.216-1-0.324-1.577-0.324
        c-0.594,0-1.124,0.108-1.589,0.324c-0.466,0.216-0.863,0.504-1.192,0.864s-0.578,0.784-0.746,1.271
        C129.175,17.812,129.091,18.329,129.091,18.873z"/>
</g>
<g><a xlink:href="/" pointer-events="all" target="_top"><polygon fill="none" points="0,0 145,0 145,35 0,35 0,0"/></a></g>

</g>


<!-- Bit -->
<g id="node1" class="node">
<g id="a_node1"><a xlink:href="/v2.1/type/Bit/" target="_top">
<polygon fill="#999999" stroke="#999999" points="126,-22 72,-22 72,-0 126,-0 126,-22"/>
<text text-anchor="middle" x="99" y="-7.4" font-family="Helvetica,sans-Serif" font-size="12.00" fill="white">Bit</text>
</a>
</g>
</g>
<!-- BitwiseOperationsType -->
<g id="node2" class="node">
<g id="a_node2"><a xlink:href="/v2.1/protocol/BitwiseOperationsType/" target="_top">
<path fill="#ee543d" stroke="#ee543d" d="M522.715,-254C522.715,-254 405.285,-254 405.285,-254 401.618,-254 397.952,-250.333 397.952,-246.667 397.952,-246.667 397.952,-239.333 397.952,-239.333 397.952,-235.667 401.618,-232 405.285,-232 405.285,-232 522.715,-232 522.715,-232 526.382,-232 530.048,-235.667 530.048,-239.333 530.048,-239.333 530.048,-246.667 530.048,-246.667 530.048,-250.333 526.382,-254 522.715,-254"/>
<text text-anchor="middle" x="464" y="-239.4" font-family="Helvetica,sans-Serif" font-size="12.00" fill="white">BitwiseOperationsType</text>
</a>
</g>
</g>
<!-- Int -->
<g id="node3" class="node">
<g id="a_node3"><a xlink:href="/v2.1/type/Int/" target="_top">
<polygon fill="#999999" stroke="#999999" points="54,-22 0,-22 0,-0 54,-0 54,-22"/>
<text text-anchor="middle" x="27" y="-7.4" font-family="Helvetica,sans-Serif" font-size="12.00" fill="white">Int</text>
</a>
</g>
</g>
<!-- BitwiseOperationsType&#45;&gt;Int -->
<g id="edge1" class="edge">
<path fill="none" stroke="#cccccc" d="M397.764,-238.844C348.417,-234.249 280.592,-223.07 227,-196 144.345,-154.25 70.8728,-68.3662 41.0853,-30.5597"/>
<polygon fill="#cccccc" stroke="#cccccc" points="43.679,-28.1932 34.7813,-22.4415 38.1502,-32.4865 43.679,-28.1932"/>
</g>
<!-- Int16 -->
<g id="node4" class="node">
<g id="a_node4"><a xlink:href="/v2.1/type/Int16/" target="_top">
<polygon fill="#999999" stroke="#999999" points="198,-22 144,-22 144,-0 198,-0 198,-22"/>
<text text-anchor="middle" x="171" y="-7.4" font-family="Helvetica,sans-Serif" font-size="12.00" fill="white">Int16</text>
</a>
</g>
</g>
<!-- BitwiseOperationsType&#45;&gt;Int16 -->
<g id="edge2" class="edge">
<path fill="none" stroke="#cccccc" d="M397.909,-234.284C344.286,-226.844 274.095,-214.047 252,-196 199.841,-153.398 180.293,-70.486 173.828,-32.2314"/>
<polygon fill="#cccccc" stroke="#cccccc" points="177.277,-31.6309 172.277,-22.2899 170.36,-32.71 177.277,-31.6309"/>
</g>
<!-- Int32 -->
<g id="node5" class="node">
<g id="a_node5"><a xlink:href="/v2.1/type/Int32/" target="_top">
<polygon fill="#999999" stroke="#999999" points="270,-22 216,-22 216,-0 270,-0 270,-22"/>
<text text-anchor="middle" x="243" y="-7.4" font-family="Helvetica,sans-Serif" font-size="12.00" fill="white">Int32</text>
</a>
</g>
</g>
<!-- BitwiseOperationsType&#45;&gt;Int32 -->
<g id="edge3" class="edge">
<path fill="none" stroke="#cccccc" d="M397.908,-235.637C361.675,-229.693 317.292,-218.202 283,-196 255.382,-178.119 248.092,-168.975 237,-138 224.265,-102.439 231.414,-57.6017 237.434,-32.1293"/>
<polygon fill="#cccccc" stroke="#cccccc" points="240.89,-32.7402 239.964,-22.1859 234.106,-31.0138 240.89,-32.7402"/>
</g>
<!-- Int64 -->
<g id="node6" class="node">
<g id="a_node6"><a xlink:href="/v2.1/type/Int64/" target="_top">
<polygon fill="#999999" stroke="#999999" points="342,-22 288,-22 288,-0 342,-0 342,-22"/>
<text text-anchor="middle" x="315" y="-7.4" font-family="Helvetica,sans-Serif" font-size="12.00" fill="white">Int64</text>
</a>
</g>
</g>
<!-- BitwiseOperationsType&#45;&gt;Int64 -->
<g id="edge4" class="edge">
<path fill="none" stroke="#cccccc" d="M397.79,-232.011C369.87,-225.317 338.285,-214.239 314,-196 259.638,-155.171 216.33,-118.16 248,-58 255.034,-44.6379 267.897,-34.4085 280.485,-27.0279"/>
<polygon fill="#cccccc" stroke="#cccccc" points="282.379,-29.9832 289.516,-22.153 279.054,-23.8234 282.379,-29.9832"/>
</g>
<!-- Int8 -->
<g id="node7" class="node">
<g id="a_node7"><a xlink:href="/v2.1/type/Int8/" target="_top">
<polygon fill="#999999" stroke="#999999" points="417,-22 363,-22 363,-0 417,-0 417,-22"/>
<text text-anchor="middle" x="390" y="-7.4" font-family="Helvetica,sans-Serif" font-size="12.00" fill="white">Int8</text>
</a>
</g>
</g>
<!-- BitwiseOperationsType&#45;&gt;Int8 -->
<g id="edge5" class="edge">
<path fill="none" stroke="#cccccc" d="M425.588,-231.948C382.834,-218.473 315.84,-189.995 286,-138 253.419,-81.23 361.527,-97.2999 376,-80 387.094,-66.7398 390.151,-46.9912 390.695,-32.188"/>
<polygon fill="#cccccc" stroke="#cccccc" points="394.195,-32.0273 390.712,-22.0213 387.195,-32.0153 394.195,-32.0273"/>
</g>
<!-- UInt -->
<g id="node10" class="node">
<g id="a_node10"><a xlink:href="/v2.1/type/UInt/" target="_top">
<polygon fill="#999999" stroke="#999999" points="585,-22 531,-22 531,-0 585,-0 585,-22"/>
<text text-anchor="middle" x="558" y="-7.4" font-family="Helvetica,sans-Serif" font-size="12.00" fill="white">UInt</text>
</a>
</g>
</g>
<!-- BitwiseOperationsType&#45;&gt;UInt -->
<g id="edge6" class="edge">
<path fill="none" stroke="#cccccc" d="M478.609,-231.968C489.682,-223.605 504.411,-210.712 513,-196 544.268,-142.439 553.888,-67.9367 556.787,-32.4142"/>
<polygon fill="#cccccc" stroke="#cccccc" points="560.286,-32.5514 557.511,-22.3266 553.304,-32.0504 560.286,-32.5514"/>
</g>
<!-- UInt16 -->
<g id="node11" class="node">
<g id="a_node11"><a xlink:href="/v2.1/type/UInt16/" target="_top">
<polygon fill="#999999" stroke="#999999" points="683,-22 629,-22 629,-0 683,-0 683,-22"/>
<text text-anchor="middle" x="656" y="-7.4" font-family="Helvetica,sans-Serif" font-size="12.00" fill="white">UInt16</text>
</a>
</g>
</g>
<!-- BitwiseOperationsType&#45;&gt;UInt16 -->
<g id="edge7" class="edge">
<path fill="none" stroke="#cccccc" d="M530.205,-237.596C595.56,-229.314 692.285,-205.611 739,-138 750.391,-121.513 739.687,-76.5458 727,-58 717.904,-44.7034 703.568,-34.3562 690.153,-26.8721"/>
<polygon fill="#cccccc" stroke="#cccccc" points="691.573,-23.6656 681.088,-22.1471 688.338,-29.873 691.573,-23.6656"/>
</g>
<!-- UInt32 -->
<g id="node12" class="node">
<g id="a_node12"><a xlink:href="/v2.1/type/UInt32/" target="_top">
<polygon fill="#999999" stroke="#999999" points="755,-22 701,-22 701,-0 755,-0 755,-22"/>
<text text-anchor="middle" x="728" y="-7.4" font-family="Helvetica,sans-Serif" font-size="12.00" fill="white">UInt32</text>
</a>
</g>
</g>
<!-- BitwiseOperationsType&#45;&gt;UInt32 -->
<g id="edge8" class="edge">
<path fill="none" stroke="#cccccc" d="M530.281,-240.538C580.565,-236.853 649.862,-226.074 703,-196 733.13,-178.947 742.627,-170.335 755,-138 768.975,-101.478 751.278,-56.0869 738.645,-30.9659"/>
<polygon fill="#cccccc" stroke="#cccccc" points="741.73,-29.3125 733.967,-22.1016 735.539,-32.5793 741.73,-29.3125"/>
</g>
<!-- UInt64 -->
<g id="node13" class="node">
<g id="a_node13"><a xlink:href="/v2.1/type/UInt64/" target="_top">
<polygon fill="#999999" stroke="#999999" points="827,-22 773,-22 773,-0 827,-0 827,-22"/>
<text text-anchor="middle" x="800" y="-7.4" font-family="Helvetica,sans-Serif" font-size="12.00" fill="white">UInt64</text>
</a>
</g>
</g>
<!-- BitwiseOperationsType&#45;&gt;UInt64 -->
<g id="edge9" class="edge">
<path fill="none" stroke="#cccccc" d="M530.35,-236.727C598.937,-230.223 700.455,-217.326 733,-196 788.503,-159.63 798.318,-71.7524 799.85,-32.0568"/>
<polygon fill="#cccccc" stroke="#cccccc" points="803.35,-32.0955 800.095,-22.013 796.352,-31.9245 803.35,-32.0955"/>
</g>
<!-- UInt8 -->
<g id="node14" class="node">
<g id="a_node14"><a xlink:href="/v2.1/type/UInt8/" target="_top">
<polygon fill="#999999" stroke="#999999" points="899,-22 845,-22 845,-0 899,-0 899,-22"/>
<text text-anchor="middle" x="872" y="-7.4" font-family="Helvetica,sans-Serif" font-size="12.00" fill="white">UInt8</text>
</a>
</g>
</g>
<!-- BitwiseOperationsType&#45;&gt;UInt8 -->
<g id="edge10" class="edge">
<path fill="none" stroke="#cccccc" d="M530.077,-237.873C604.94,-232.134 721.318,-219.668 758,-196 819.478,-156.334 853.383,-70.5759 866.095,-31.7775"/>
<polygon fill="#cccccc" stroke="#cccccc" points="869.459,-32.7464 869.124,-22.1569 862.783,-30.6442 869.459,-32.7464"/>
</g>
<!-- _IntegerType -->
<g id="node17" class="node">
<g id="a_node17"><a xlink:href="/v2.1/protocol/_IntegerType/" target="_top">
<path fill="#999999" stroke="#999999" d="M496.708,-196C496.708,-196 431.292,-196 431.292,-196 427.626,-196 423.959,-192.333 423.959,-188.667 423.959,-188.667 423.959,-181.333 423.959,-181.333 423.959,-177.667 427.626,-174 431.292,-174 431.292,-174 496.708,-174 496.708,-174 500.374,-174 504.041,-177.667 504.041,-181.333 504.041,-181.333 504.041,-188.667 504.041,-188.667 504.041,-192.333 500.374,-196 496.708,-196"/>
<text text-anchor="middle" x="464" y="-181.4" font-family="Helvetica,sans-Serif" font-size="12.00" fill="white">_IntegerType</text>
</a>
</g>
</g>
<!-- BitwiseOperationsType&#45;&gt;_IntegerType -->
<g id="edge11" class="edge">
<path fill="none" stroke="#cccccc" d="M464,-231.988C464,-224.91 464,-215.171 464,-206.478"/>
<polygon fill="#cccccc" stroke="#cccccc" points="467.5,-206.304 464,-196.304 460.5,-206.304 467.5,-206.304"/>
</g>
<!-- Int&#45;&gt;Bit -->
<g id="edge12" class="edge">
<path fill="none" stroke="#cccccc" d="M54.2812,-11C56.7377,-11 59.1942,-11 61.6507,-11"/>
<polygon fill="#cccccc" stroke="#cccccc" points="61.7495,-14.5001 71.7495,-11 61.7495,-7.5001 61.7495,-14.5001"/>
</g>
<!-- IntegerType -->
<g id="node8" class="node">
<g id="a_node8"><a xlink:href="/v2.1/protocol/IntegerType/" target="_top">
<path fill="#999999" stroke="#999999" d="M496.202,-138C496.202,-138 437.798,-138 437.798,-138 434.132,-138 430.465,-134.333 430.465,-130.667 430.465,-130.667 430.465,-123.333 430.465,-123.333 430.465,-119.667 434.132,-116 437.798,-116 437.798,-116 496.202,-116 496.202,-116 499.868,-116 503.535,-119.667 503.535,-123.333 503.535,-123.333 503.535,-130.667 503.535,-130.667 503.535,-134.333 499.868,-138 496.202,-138"/>
<text text-anchor="middle" x="467" y="-123.4" font-family="Helvetica,sans-Serif" font-size="12.00" fill="white">IntegerType</text>
</a>
</g>
</g>
<!-- SignedIntegerType -->
<g id="node9" class="node">
<g id="a_node9"><a xlink:href="/v2.1/protocol/SignedIntegerType/" target="_top">
<path fill="#999999" stroke="#999999" d="M359.727,-80C359.727,-80 264.273,-80 264.273,-80 260.606,-80 256.94,-76.3333 256.94,-72.6667 256.94,-72.6667 256.94,-65.3333 256.94,-65.3333 256.94,-61.6667 260.606,-58 264.273,-58 264.273,-58 359.727,-58 359.727,-58 363.394,-58 367.06,-61.6667 367.06,-65.3333 367.06,-65.3333 367.06,-72.6667 367.06,-72.6667 367.06,-76.3333 363.394,-80 359.727,-80"/>
<text text-anchor="middle" x="312" y="-65.4" font-family="Helvetica,sans-Serif" font-size="12.00" fill="white">SignedIntegerType</text>
</a>
</g>
</g>
<!-- IntegerType&#45;&gt;SignedIntegerType -->
<g id="edge16" class="edge">
<path fill="none" stroke="#cccccc" d="M439.289,-115.988C414.239,-106.938 377.155,-93.5399 349.468,-83.5367"/>
<polygon fill="#cccccc" stroke="#cccccc" points="350.326,-80.1255 339.732,-80.0192 347.948,-86.709 350.326,-80.1255"/>
</g>
<!-- UnsignedIntegerType -->
<g id="node15" class="node">
<g id="a_node15"><a xlink:href="/v2.1/protocol/UnsignedIntegerType/" target="_top">
<path fill="#999999" stroke="#999999" d="M710.728,-80C710.728,-80 601.272,-80 601.272,-80 597.605,-80 593.938,-76.3333 593.938,-72.6667 593.938,-72.6667 593.938,-65.3333 593.938,-65.3333 593.938,-61.6667 597.605,-58 601.272,-58 601.272,-58 710.728,-58 710.728,-58 714.395,-58 718.062,-61.6667 718.062,-65.3333 718.062,-65.3333 718.062,-72.6667 718.062,-72.6667 718.062,-76.3333 714.395,-80 710.728,-80"/>
<text text-anchor="middle" x="656" y="-65.4" font-family="Helvetica,sans-Serif" font-size="12.00" fill="white">UnsignedIntegerType</text>
</a>
</g>
</g>
<!-- IntegerType&#45;&gt;UnsignedIntegerType -->
<g id="edge17" class="edge">
<path fill="none" stroke="#cccccc" d="M500.789,-115.988C532.004,-106.74 578.543,-92.9502 612.518,-82.8836"/>
<polygon fill="#cccccc" stroke="#cccccc" points="613.591,-86.216 622.185,-80.0192 611.603,-79.5044 613.591,-86.216"/>
</g>
<!-- SignedIntegerType&#45;&gt;Int -->
<g id="edge18" class="edge">
<path fill="none" stroke="#cccccc" d="M256.821,-59.2434C208.447,-51.2422 136.044,-38.4839 64.1935,-22.1249"/>
<polygon fill="#cccccc" stroke="#cccccc" points="64.5916,-18.6251 54.0613,-19.7929 63.0214,-25.4468 64.5916,-18.6251"/>
</g>
<!-- SignedIntegerType&#45;&gt;Int16 -->
<g id="edge19" class="edge">
<path fill="none" stroke="#cccccc" d="M286.792,-57.9883C264.275,-49.0453 231.068,-35.8566 205.982,-25.8935"/>
<polygon fill="#cccccc" stroke="#cccccc" points="207.051,-22.5522 196.465,-22.1138 204.467,-29.0579 207.051,-22.5522"/>
</g>
<!-- SignedIntegerType&#45;&gt;Int32 -->
<g id="edge20" class="edge">
<path fill="none" stroke="#cccccc" d="M299.664,-57.9883C289.683,-49.8873 275.409,-38.3026 263.684,-28.7873"/>
<polygon fill="#cccccc" stroke="#cccccc" points="265.666,-25.888 255.696,-22.3039 261.255,-31.3232 265.666,-25.888"/>
</g>
<!-- SignedIntegerType&#45;&gt;Int64 -->
<g id="edge21" class="edge">
<path fill="none" stroke="#cccccc" d="M312.536,-57.9883C312.916,-50.9098 313.437,-41.1714 313.903,-32.4779"/>
<polygon fill="#cccccc" stroke="#cccccc" points="317.408,-32.4768 314.448,-22.3039 310.418,-32.1023 317.408,-32.4768"/>
</g>
<!-- SignedIntegerType&#45;&gt;Int8 -->
<g id="edge22" class="edge">
<path fill="none" stroke="#cccccc" d="M325.945,-57.9883C337.519,-49.6784 354.2,-37.7028 367.637,-28.0554"/>
<polygon fill="#cccccc" stroke="#cccccc" points="369.831,-30.7891 375.913,-22.1138 365.748,-25.1028 369.831,-30.7891"/>
</g>
<!-- UnsignedIntegerType&#45;&gt;UInt -->
<g id="edge23" class="edge">
<path fill="none" stroke="#cccccc" d="M638.48,-57.9883C623.522,-49.441 601.777,-37.0155 584.66,-27.2343"/>
<polygon fill="#cccccc" stroke="#cccccc" points="586.118,-24.0364 575.699,-22.1138 582.645,-30.1141 586.118,-24.0364"/>
</g>
<!-- UnsignedIntegerType&#45;&gt;UInt16 -->
<g id="edge24" class="edge">
<path fill="none" stroke="#cccccc" d="M656,-57.9883C656,-50.9098 656,-41.1714 656,-32.4779"/>
<polygon fill="#cccccc" stroke="#cccccc" points="659.5,-32.3038 656,-22.3039 652.5,-32.3039 659.5,-32.3038"/>
</g>
<!-- UnsignedIntegerType&#45;&gt;UInt32 -->
<g id="edge25" class="edge">
<path fill="none" stroke="#cccccc" d="M668.872,-57.9883C679.389,-49.8087 694.472,-38.0773 706.772,-28.5108"/>
<polygon fill="#cccccc" stroke="#cccccc" points="709.007,-31.2061 714.752,-22.3039 704.71,-25.6806 709.007,-31.2061"/>
</g>
<!-- UnsignedIntegerType&#45;&gt;UInt64 -->
<g id="edge26" class="edge">
<path fill="none" stroke="#cccccc" d="M681.744,-57.9883C704.842,-49.0057 738.955,-35.7398 764.614,-25.7614"/>
<polygon fill="#cccccc" stroke="#cccccc" points="765.942,-29.0004 773.993,-22.1138 763.404,-22.4763 765.942,-29.0004"/>
</g>
<!-- UnsignedIntegerType&#45;&gt;UInt8 -->
<g id="edge27" class="edge">
<path fill="none" stroke="#cccccc" d="M696.454,-57.9168C730.836,-49.2898 781.758,-36.3793 834.937,-22.2477"/>
<polygon fill="#cccccc" stroke="#cccccc" points="836.128,-25.5525 844.89,-19.5955 834.326,-18.7885 836.128,-25.5525"/>
</g>
<!-- _DisallowMixedSignArithmetic -->
<g id="node16" class="node">
<g id="a_node16"><a xlink:href="/v2.1/protocol/_DisallowMixedSignArithmetic/" target="_top">
<path fill="#999999" stroke="#999999" d="M722.709,-138C722.709,-138 567.291,-138 567.291,-138 563.624,-138 559.957,-134.333 559.957,-130.667 559.957,-130.667 559.957,-123.333 559.957,-123.333 559.957,-119.667 563.624,-116 567.291,-116 567.291,-116 722.709,-116 722.709,-116 726.376,-116 730.043,-119.667 730.043,-123.333 730.043,-123.333 730.043,-130.667 730.043,-130.667 730.043,-134.333 726.376,-138 722.709,-138"/>
<text text-anchor="middle" x="645" y="-123.4" font-family="Helvetica,sans-Serif" font-size="12.00" fill="white">_DisallowMixedSignArithmetic</text>
</a>
</g>
</g>
<!-- _DisallowMixedSignArithmetic&#45;&gt;UnsignedIntegerType -->
<g id="edge28" class="edge">
<path fill="none" stroke="#cccccc" d="M646.967,-115.988C648.372,-108.831 650.312,-98.9547 652.034,-90.1885"/>
<polygon fill="#cccccc" stroke="#cccccc" points="655.483,-90.791 653.976,-80.3039 648.614,-89.4417 655.483,-90.791"/>
</g>
<!-- _IntegerType&#45;&gt;IntegerType -->
<g id="edge13" class="edge">
<path fill="none" stroke="#cccccc" d="M464.536,-173.988C464.916,-166.91 465.437,-157.171 465.903,-148.478"/>
<polygon fill="#cccccc" stroke="#cccccc" points="469.408,-148.477 466.448,-138.304 462.418,-148.102 469.408,-148.477"/>
</g>
<!-- _IntegerType&#45;&gt;_DisallowMixedSignArithmetic -->
<g id="edge14" class="edge">
<path fill="none" stroke="#cccccc" d="M496.359,-173.988C526.124,-164.779 570.439,-151.068 602.939,-141.013"/>
<polygon fill="#cccccc" stroke="#cccccc" points="604.098,-144.319 612.616,-138.019 602.029,-137.631 604.098,-144.319"/>
</g>
<!-- _SignedIntegerType -->
<g id="node18" class="node">
<g id="a_node18"><a xlink:href="/v2.1/protocol/_SignedIntegerType/" target="_top">
<path fill="#999999" stroke="#999999" d="M405.231,-138C405.231,-138 302.769,-138 302.769,-138 299.102,-138 295.436,-134.333 295.436,-130.667 295.436,-130.667 295.436,-123.333 295.436,-123.333 295.436,-119.667 299.102,-116 302.769,-116 302.769,-116 405.231,-116 405.231,-116 408.898,-116 412.564,-119.667 412.564,-123.333 412.564,-123.333 412.564,-130.667 412.564,-130.667 412.564,-134.333 408.898,-138 405.231,-138"/>
<text text-anchor="middle" x="354" y="-123.4" font-family="Helvetica,sans-Serif" font-size="12.00" fill="white">_SignedIntegerType</text>
</a>
</g>
</g>
<!-- _IntegerType&#45;&gt;_SignedIntegerType -->
<g id="edge15" class="edge">
<path fill="none" stroke="#cccccc" d="M444.334,-173.988C427.234,-165.283 402.231,-152.554 382.863,-142.694"/>
<polygon fill="#cccccc" stroke="#cccccc" points="384.366,-139.532 373.866,-138.114 381.19,-145.77 384.366,-139.532"/>
</g>
<!-- _SignedIntegerType&#45;&gt;SignedIntegerType -->
<g id="edge29" class="edge">
<path fill="none" stroke="#cccccc" d="M346.491,-115.988C340.769,-108.359 332.73,-97.6405 325.853,-88.4702"/>
<polygon fill="#cccccc" stroke="#cccccc" points="328.528,-86.2039 319.728,-80.3039 322.928,-90.4039 328.528,-86.2039"/>
</g>
</g>
</svg>
