<?xml version="1.0" encoding="UTF-8" standalone="no"?>
<!DOCTYPE svg PUBLIC "-//W3C//DTD SVG 1.1//EN"
 "http://www.w3.org/Graphics/SVG/1.1/DTD/svg11.dtd">
<!-- Generated by graphviz version 2.36.0 (20140111.2315)
 -->
<!-- Title: Float &#45; Type Hierarchy &#45; SwiftDoc.org Pages: 1 -->
<svg width="1343pt" height="369pt"
 viewBox="0.00 0.00 1343.40 369.20" xmlns="http://www.w3.org/2000/svg" xmlns:xlink="http://www.w3.org/1999/xlink">
<g id="graph0" class="graph" transform="scale(1 1) rotate(0) translate(7.2 311.6)">
<g transform="translate(0 -311.6)">
<g>
    <path fill="#666666" d="M13.846,10.832c-0.336-0.464-0.792-0.844-1.368-1.14s-1.224-0.444-1.944-0.444
        c-0.384,0-0.772,0.052-1.164,0.156C8.977,9.509,8.622,9.677,8.301,9.908c-0.32,0.232-0.58,0.52-0.78,0.864
        c-0.2,0.344-0.3,0.756-0.3,1.236c0,0.464,0.092,0.852,0.276,1.164c0.184,0.312,0.432,0.576,0.744,0.792s0.68,0.4,1.104,0.552
        c0.423,0.152,0.876,0.309,1.356,0.468c0.576,0.177,1.16,0.376,1.752,0.601c0.592,0.224,1.128,0.52,1.608,0.888
        s0.872,0.828,1.176,1.38s0.456,1.252,0.456,2.101c0,0.88-0.164,1.644-0.492,2.292c-0.328,0.647-0.765,1.184-1.308,1.607
        c-0.544,0.424-1.172,0.74-1.884,0.948s-1.444,0.312-2.196,0.312c-1.072,0-2.108-0.208-3.108-0.624
        c-1-0.415-1.828-1.031-2.484-1.848l1.848-1.56c0.4,0.592,0.936,1.071,1.608,1.439c0.672,0.368,1.399,0.552,2.184,0.552
        c0.4,0,0.8-0.056,1.2-0.168c0.4-0.111,0.764-0.288,1.092-0.527c0.328-0.24,0.596-0.54,0.804-0.9
        c0.208-0.36,0.312-0.796,0.312-1.308s-0.108-0.94-0.324-1.284c-0.216-0.344-0.508-0.636-0.876-0.876s-0.796-0.444-1.284-0.612
        c-0.488-0.168-1.004-0.34-1.548-0.516c-0.544-0.16-1.08-0.356-1.608-0.588c-0.528-0.232-1-0.528-1.416-0.889
        c-0.416-0.359-0.752-0.804-1.008-1.332c-0.256-0.527-0.384-1.184-0.384-1.968c0-0.848,0.172-1.576,0.516-2.184
        c0.344-0.608,0.792-1.112,1.344-1.512c0.552-0.4,1.176-0.692,1.872-0.876c0.696-0.184,1.396-0.276,2.1-0.276
        c0.992,0,1.92,0.176,2.784,0.528c0.864,0.352,1.56,0.824,2.088,1.416L13.846,10.832z"/>
    <path fill="#666666" d="M18.813,13.304l2.568,8.688h0.048l2.712-8.688h2.376l2.76,8.688h0.048l2.568-8.688h2.376L30.501,24.68
        h-2.352l-2.808-8.544h-0.048l-2.784,8.544h-2.352l-3.792-11.376H18.813z"/>
    <path fill="#666666" d="M38.685,9.2c0,0.416-0.147,0.76-0.44,1.032c-0.294,0.272-0.647,0.408-1.06,0.408s-0.762-0.14-1.047-0.42
        c-0.286-0.28-0.429-0.62-0.429-1.02c0-0.416,0.143-0.764,0.429-1.044c0.286-0.28,0.635-0.42,1.047-0.42s0.766,0.14,1.06,0.42
        C38.538,8.437,38.685,8.784,38.685,9.2z M38.325,24.68h-2.256V13.304h2.256V24.68z"/>
    <path fill="#666666" d="M47.613,15.152h-2.64v9.528h-2.256v-9.528h-2.256v-1.848h2.256v-2.376c0-0.672,0.076-1.292,0.228-1.86
        c0.152-0.568,0.4-1.06,0.744-1.476c0.344-0.416,0.784-0.744,1.32-0.984c0.536-0.24,1.188-0.36,1.956-0.36
        c0.544,0,1.016,0.056,1.416,0.168l-0.264,1.944c-0.176-0.048-0.352-0.088-0.528-0.12c-0.176-0.032-0.376-0.048-0.6-0.048
        c-0.432,0-0.78,0.076-1.044,0.228c-0.264,0.152-0.468,0.356-0.612,0.612s-0.24,0.548-0.288,0.876
        c-0.048,0.328-0.072,0.668-0.072,1.02v2.376h2.64V15.152z"/>
    <path fill="#666666" d="M54.909,15.152h-3.024v5.91c0,0.687,0.128,1.177,0.384,1.472c0.256,0.295,0.664,0.442,1.224,0.442
        c0.208,0,0.432-0.021,0.672-0.065c0.24-0.044,0.456-0.11,0.648-0.198l0.072,1.848c-0.272,0.096-0.572,0.172-0.9,0.229
        c-0.328,0.056-0.668,0.084-1.02,0.084c-1.072,0-1.892-0.296-2.46-0.889c-0.568-0.592-0.852-1.479-0.852-2.664v-6.168h-2.184
        v-1.848h2.184V10.04h2.232v3.264h3.024V15.152z"/>
    <path fill="#666666" d="M57.356,7.688h5.832c1.088,0,2.176,0.16,3.264,0.48c1.088,0.32,2.072,0.824,2.952,1.512
        s1.592,1.568,2.136,2.64c0.544,1.072,0.816,2.36,0.816,3.864c0,1.456-0.272,2.716-0.816,3.78s-1.256,1.943-2.136,2.64
        s-1.864,1.216-2.952,1.561c-1.088,0.344-2.176,0.516-3.264,0.516h-5.832V7.688z M59.732,22.593h2.976
        c1.024,0,1.972-0.145,2.844-0.432c0.872-0.288,1.624-0.704,2.256-1.248c0.632-0.544,1.124-1.216,1.476-2.017
        c0.352-0.8,0.528-1.704,0.528-2.712c0-1.056-0.176-1.983-0.528-2.784c-0.353-0.8-0.844-1.468-1.476-2.004
        c-0.632-0.536-1.384-0.944-2.256-1.224s-1.82-0.42-2.844-0.42h-2.976V22.593z"/>
    <path fill="#666666" d="M86.06,18.969c0,0.88-0.156,1.688-0.468,2.424c-0.312,0.736-0.744,1.372-1.296,1.908
        c-0.552,0.536-1.204,0.952-1.956,1.248c-0.752,0.296-1.56,0.443-2.424,0.443c-0.864,0-1.672-0.147-2.424-0.443
        c-0.752-0.296-1.4-0.712-1.944-1.248c-0.544-0.536-0.972-1.172-1.284-1.908c-0.312-0.735-0.468-1.544-0.468-2.424
        s0.156-1.684,0.468-2.412c0.312-0.728,0.74-1.356,1.284-1.884c0.543-0.528,1.191-0.939,1.944-1.236
        c0.752-0.296,1.56-0.444,2.424-0.444c0.864,0,1.672,0.148,2.424,0.444c0.752,0.297,1.404,0.708,1.956,1.236
        c0.552,0.527,0.984,1.156,1.296,1.884C85.904,17.285,86.06,18.089,86.06,18.969z M83.708,18.98c0-0.542-0.084-1.061-0.252-1.556
        c-0.169-0.494-0.414-0.929-0.734-1.304s-0.718-0.674-1.192-0.897s-1.015-0.335-1.625-0.335c-0.61,0-1.152,0.111-1.625,0.335
        c-0.474,0.224-0.871,0.522-1.191,0.897c-0.321,0.375-0.566,0.81-0.734,1.304C76.184,17.92,76.1,18.438,76.1,18.98
        c0,0.543,0.084,1.062,0.253,1.556c0.168,0.495,0.413,0.934,0.734,1.316c0.321,0.383,0.718,0.686,1.191,0.909
        c0.473,0.224,1.015,0.335,1.625,0.335c0.61,0,1.151-0.111,1.625-0.335s0.871-0.526,1.192-0.909s0.565-0.821,0.734-1.316
        C83.624,20.042,83.708,19.523,83.708,18.98z"/>
    <path fill="#666666" d="M96.428,16.184c-0.24-0.368-0.6-0.676-1.08-0.924s-0.992-0.372-1.536-0.372
        c-0.592,0-1.116,0.112-1.572,0.336c-0.456,0.225-0.844,0.524-1.164,0.9c-0.32,0.376-0.564,0.812-0.732,1.308
        s-0.252,1.017-0.252,1.56c0,0.545,0.084,1.064,0.252,1.561s0.412,0.933,0.732,1.308c0.32,0.376,0.712,0.677,1.176,0.9
        c0.464,0.225,0.992,0.336,1.584,0.336c0.576,0,1.1-0.111,1.572-0.336c0.472-0.224,0.86-0.528,1.164-0.912l1.512,1.368
        c-0.48,0.561-1.08,0.996-1.8,1.308c-0.72,0.312-1.536,0.468-2.448,0.468c-0.88,0-1.692-0.144-2.436-0.432
        c-0.744-0.288-1.388-0.691-1.932-1.212c-0.544-0.52-0.972-1.147-1.284-1.884s-0.468-1.561-0.468-2.473
        c0-0.896,0.152-1.711,0.456-2.447c0.304-0.736,0.728-1.368,1.272-1.896c0.543-0.527,1.188-0.936,1.932-1.224
        c0.744-0.288,1.548-0.433,2.412-0.433c0.8,0,1.596,0.16,2.388,0.48s1.419,0.784,1.884,1.392L96.428,16.184z"/>
    <path fill="#666666" d="M103.1,23.24c0,0.417-0.152,0.784-0.456,1.104c-0.304,0.32-0.688,0.479-1.152,0.479
        c-0.448,0-0.828-0.155-1.14-0.468c-0.312-0.312-0.468-0.676-0.468-1.092c0-0.432,0.152-0.804,0.456-1.116
        c0.304-0.312,0.688-0.468,1.152-0.468c0.464,0,0.848,0.152,1.152,0.456C102.947,22.44,103.1,22.808,103.1,23.24z"/>
    <path fill="#666666" d="M116.635,18.969c0,0.88-0.156,1.688-0.468,2.424c-0.312,0.736-0.744,1.372-1.296,1.908
        c-0.552,0.536-1.204,0.952-1.956,1.248c-0.752,0.296-1.56,0.443-2.424,0.443c-0.864,0-1.672-0.147-2.424-0.443
        c-0.752-0.296-1.4-0.712-1.944-1.248c-0.544-0.536-0.972-1.172-1.284-1.908c-0.312-0.735-0.468-1.544-0.468-2.424
        s0.156-1.684,0.468-2.412c0.312-0.728,0.74-1.356,1.284-1.884c0.543-0.528,1.191-0.939,1.944-1.236
        c0.752-0.296,1.56-0.444,2.424-0.444c0.864,0,1.672,0.148,2.424,0.444c0.752,0.297,1.404,0.708,1.956,1.236
        c0.552,0.527,0.984,1.156,1.296,1.884C116.479,17.285,116.635,18.089,116.635,18.969z M114.283,18.98
        c0-0.542-0.084-1.061-0.252-1.556c-0.169-0.494-0.414-0.929-0.734-1.304s-0.718-0.674-1.192-0.897s-1.015-0.335-1.625-0.335
        c-0.61,0-1.152,0.111-1.625,0.335c-0.474,0.224-0.871,0.522-1.191,0.897c-0.321,0.375-0.566,0.81-0.734,1.304
        c-0.169,0.495-0.253,1.014-0.253,1.556c0,0.543,0.084,1.062,0.253,1.556c0.168,0.495,0.413,0.934,0.734,1.316
        c0.321,0.383,0.718,0.686,1.191,0.909c0.473,0.224,1.015,0.335,1.625,0.335c0.61,0,1.151-0.111,1.625-0.335
        s0.871-0.526,1.192-0.909s0.565-0.821,0.734-1.316C114.199,20.042,114.283,19.523,114.283,18.98z"/>
    <path fill="#666666" d="M119.251,14.577c-0.016-0.48-0.04-0.904-0.072-1.272h2.136c0.032,0.288,0.056,0.62,0.072,0.996
        c0.016,0.376,0.024,0.684,0.024,0.924h0.072c0.32-0.672,0.788-1.212,1.404-1.62c0.616-0.408,1.308-0.612,2.076-0.612
        c0.352,0,0.648,0.033,0.888,0.097l-0.096,2.088c-0.32-0.08-0.664-0.12-1.032-0.12c-0.544,0-1.016,0.101-1.416,0.3
        c-0.4,0.2-0.732,0.468-0.996,0.805c-0.264,0.336-0.46,0.724-0.588,1.163c-0.128,0.44-0.192,0.9-0.192,1.381v5.976h-2.256v-8.928
        C119.275,15.449,119.267,15.056,119.251,14.577z"/>
    <path fill="#666666" d="M128.419,26.625c0.496,0.56,1.116,1.008,1.86,1.344c0.744,0.336,1.508,0.504,2.292,0.504
        c0.752,0,1.384-0.108,1.896-0.324s0.924-0.512,1.236-0.888s0.536-0.82,0.672-1.332c0.136-0.513,0.204-1.064,0.204-1.656v-1.464
        h-0.048c-0.416,0.641-0.984,1.128-1.704,1.464c-0.72,0.336-1.488,0.504-2.304,0.504c-0.864,0-1.652-0.151-2.364-0.456
        c-0.712-0.304-1.316-0.72-1.812-1.248c-0.496-0.527-0.88-1.147-1.152-1.859s-0.408-1.477-0.408-2.292
        c0-0.816,0.136-1.584,0.408-2.305c0.272-0.72,0.656-1.348,1.152-1.884c0.496-0.535,1.096-0.96,1.8-1.271
        c0.704-0.312,1.488-0.469,2.352-0.469c0.816,0,1.596,0.177,2.34,0.528c0.744,0.353,1.332,0.888,1.764,1.608h0.048v-1.824h2.184
        v10.8c0,0.832-0.104,1.628-0.312,2.388c-0.208,0.76-0.56,1.433-1.056,2.017s-1.144,1.052-1.944,1.404
        c-0.8,0.352-1.792,0.527-2.976,0.527c-0.992,0-1.988-0.18-2.988-0.54c-1-0.359-1.86-0.868-2.58-1.523L128.419,26.625z
         M129.091,18.873c0,0.527,0.084,1.031,0.253,1.512c0.168,0.479,0.417,0.904,0.746,1.271c0.329,0.369,0.726,0.664,1.192,0.889
        c0.465,0.224,0.995,0.336,1.589,0.336c0.577,0,1.107-0.104,1.589-0.312c0.481-0.207,0.891-0.491,1.228-0.852
        s0.598-0.784,0.782-1.272c0.185-0.487,0.277-1.012,0.277-1.571c0-0.544-0.093-1.057-0.277-1.536
        c-0.185-0.48-0.449-0.904-0.794-1.272c-0.345-0.367-0.755-0.66-1.228-0.876c-0.474-0.216-1-0.324-1.577-0.324
        c-0.594,0-1.124,0.108-1.589,0.324c-0.466,0.216-0.863,0.504-1.192,0.864s-0.578,0.784-0.746,1.271
        C129.175,17.812,129.091,18.329,129.091,18.873z"/>
</g>
<g><a xlink:href="/" pointer-events="all" target="_top"><polygon fill="none" points="0,0 145,0 145,35 0,35 0,0"/></a></g>

</g>


<!-- AbsoluteValuable -->
<g id="node1" class="node">
<g id="a_node1"><a xlink:href="/v2.1/protocol/AbsoluteValuable/" target="_top">
<path fill="#999999" stroke="#999999" d="M372.558,-80C372.558,-80 285.442,-80 285.442,-80 281.775,-80 278.109,-76.3333 278.109,-72.6667 278.109,-72.6667 278.109,-65.3333 278.109,-65.3333 278.109,-61.6667 281.775,-58 285.442,-58 285.442,-58 372.558,-58 372.558,-58 376.225,-58 379.891,-61.6667 379.891,-65.3333 379.891,-65.3333 379.891,-72.6667 379.891,-72.6667 379.891,-76.3333 376.225,-80 372.558,-80"/>
<text text-anchor="middle" x="329" y="-65.4" font-family="Helvetica,sans-Serif" font-size="12.00" fill="white">AbsoluteValuable</text>
</a>
</g>
</g>
<!-- Float -->
<g id="node6" class="node">
<g id="a_node6"><a xlink:href="/v2.1/type/Float/" target="_top">
<polygon fill="#ee543d" stroke="#ee543d" points="664,-22 610,-22 610,-0 664,-0 664,-22"/>
<text text-anchor="middle" x="637" y="-7.4" font-family="Helvetica,sans-Serif" font-size="12.00" fill="white">Float</text>
</a>
</g>
</g>
<!-- AbsoluteValuable&#45;&gt;Float -->
<g id="edge8" class="edge">
<path fill="none" stroke="#cccccc" d="M380.206,-58.6899C442.236,-47.4117 545.215,-28.6881 600.022,-18.7232"/>
<polygon fill="#cccccc" stroke="#cccccc" points="600.782,-22.1425 609.995,-16.91 599.53,-15.2554 600.782,-22.1425"/>
</g>
<!-- CVarArgType -->
<g id="node2" class="node">
<g id="a_node2"><a xlink:href="/v2.1/protocol/CVarArgType/" target="_top">
<path fill="#999999" stroke="#999999" d="M973.029,-138C973.029,-138 906.971,-138 906.971,-138 903.304,-138 899.638,-134.333 899.638,-130.667 899.638,-130.667 899.638,-123.333 899.638,-123.333 899.638,-119.667 903.304,-116 906.971,-116 906.971,-116 973.029,-116 973.029,-116 976.696,-116 980.362,-119.667 980.362,-123.333 980.362,-123.333 980.362,-130.667 980.362,-130.667 980.362,-134.333 976.696,-138 973.029,-138"/>
<text text-anchor="middle" x="940" y="-123.4" font-family="Helvetica,sans-Serif" font-size="12.00" fill="white">CVarArgType</text>
</a>
</g>
</g>
<!-- _CVarArgAlignedType -->
<g id="node13" class="node">
<g id="a_node13"><a xlink:href="/v2.1/protocol/_CVarArgAlignedType/" target="_top">
<path fill="#999999" stroke="#999999" d="M1076.06,-80C1076.06,-80 963.941,-80 963.941,-80 960.274,-80 956.608,-76.3333 956.608,-72.6667 956.608,-72.6667 956.608,-65.3333 956.608,-65.3333 956.608,-61.6667 960.274,-58 963.941,-58 963.941,-58 1076.06,-58 1076.06,-58 1079.73,-58 1083.39,-61.6667 1083.39,-65.3333 1083.39,-65.3333 1083.39,-72.6667 1083.39,-72.6667 1083.39,-76.3333 1079.73,-80 1076.06,-80"/>
<text text-anchor="middle" x="1020" y="-65.4" font-family="Helvetica,sans-Serif" font-size="12.00" fill="white">_CVarArgAlignedType</text>
</a>
</g>
</g>
<!-- CVarArgType&#45;&gt;_CVarArgAlignedType -->
<g id="edge23" class="edge">
<path fill="none" stroke="#cccccc" d="M954.302,-115.988C966.174,-107.678 983.282,-95.7028 997.064,-86.0554"/>
<polygon fill="#cccccc" stroke="#cccccc" points="999.366,-88.7158 1005.55,-80.1138 995.352,-82.9812 999.366,-88.7158"/>
</g>
<!-- _CVarArgPassedAsDouble -->
<g id="node14" class="node">
<g id="a_node14"><a xlink:href="/v2.1/protocol/_CVarArgPassedAsDouble/" target="_top">
<path fill="#999999" stroke="#999999" d="M930.062,-80C930.062,-80 791.938,-80 791.938,-80 788.272,-80 784.605,-76.3333 784.605,-72.6667 784.605,-72.6667 784.605,-65.3333 784.605,-65.3333 784.605,-61.6667 788.272,-58 791.938,-58 791.938,-58 930.062,-58 930.062,-58 933.728,-58 937.395,-61.6667 937.395,-65.3333 937.395,-65.3333 937.395,-72.6667 937.395,-72.6667 937.395,-76.3333 933.728,-80 930.062,-80"/>
<text text-anchor="middle" x="861" y="-65.4" font-family="Helvetica,sans-Serif" font-size="12.00" fill="white">_CVarArgPassedAsDouble</text>
</a>
</g>
</g>
<!-- CVarArgType&#45;&gt;_CVarArgPassedAsDouble -->
<g id="edge22" class="edge">
<path fill="none" stroke="#cccccc" d="M925.876,-115.988C914.153,-107.678 897.259,-95.7028 883.65,-86.0554"/>
<polygon fill="#cccccc" stroke="#cccccc" points="885.45,-83.0415 875.268,-80.1138 881.402,-88.7523 885.45,-83.0415"/>
</g>
<!-- Comparable -->
<g id="node3" class="node">
<g id="a_node3"><a xlink:href="/v2.1/protocol/Comparable/" target="_top">
<path fill="#999999" stroke="#999999" d="M583.191,-196C583.191,-196 522.809,-196 522.809,-196 519.142,-196 515.475,-192.333 515.475,-188.667 515.475,-188.667 515.475,-181.333 515.475,-181.333 515.475,-177.667 519.142,-174 522.809,-174 522.809,-174 583.191,-174 583.191,-174 586.858,-174 590.525,-177.667 590.525,-181.333 590.525,-181.333 590.525,-188.667 590.525,-188.667 590.525,-192.333 586.858,-196 583.191,-196"/>
<text text-anchor="middle" x="553" y="-181.4" font-family="Helvetica,sans-Serif" font-size="12.00" fill="white">Comparable</text>
</a>
</g>
</g>
<!-- Comparable&#45;&gt;Float -->
<g id="edge5" class="edge">
<path fill="none" stroke="#cccccc" d="M552.351,-173.976C551.372,-151.442 551.686,-95.8001 575,-58 582.793,-45.3643 595.45,-35.0513 607.302,-27.4166"/>
<polygon fill="#cccccc" stroke="#cccccc" points="609.356,-30.2652 616.115,-22.1062 605.743,-24.2696 609.356,-30.2652"/>
</g>
<!-- SignedNumberType -->
<g id="node11" class="node">
<g id="a_node11"><a xlink:href="/v2.1/protocol/SignedNumberType/" target="_top">
<path fill="#999999" stroke="#999999" d="M379.716,-138C379.716,-138 278.284,-138 278.284,-138 274.617,-138 270.95,-134.333 270.95,-130.667 270.95,-130.667 270.95,-123.333 270.95,-123.333 270.95,-119.667 274.617,-116 278.284,-116 278.284,-116 379.716,-116 379.716,-116 383.383,-116 387.05,-119.667 387.05,-123.333 387.05,-123.333 387.05,-130.667 387.05,-130.667 387.05,-134.333 383.383,-138 379.716,-138"/>
<text text-anchor="middle" x="329" y="-123.4" font-family="Helvetica,sans-Serif" font-size="12.00" fill="white">SignedNumberType</text>
</a>
</g>
</g>
<!-- Comparable&#45;&gt;SignedNumberType -->
<g id="edge20" class="edge">
<path fill="none" stroke="#cccccc" d="M515.507,-174.627C478.113,-165.278 420.44,-150.86 379.13,-140.532"/>
<polygon fill="#cccccc" stroke="#cccccc" points="379.816,-137.096 369.266,-138.066 378.118,-143.887 379.816,-137.096"/>
</g>
<!-- Strideable -->
<g id="node12" class="node">
<g id="a_node12"><a xlink:href="/v2.1/protocol/Strideable/" target="_top">
<path fill="#999999" stroke="#999999" d="M663.693,-138C663.693,-138 614.307,-138 614.307,-138 610.64,-138 606.974,-134.333 606.974,-130.667 606.974,-130.667 606.974,-123.333 606.974,-123.333 606.974,-119.667 610.64,-116 614.307,-116 614.307,-116 663.693,-116 663.693,-116 667.36,-116 671.026,-119.667 671.026,-123.333 671.026,-123.333 671.026,-130.667 671.026,-130.667 671.026,-134.333 667.36,-138 663.693,-138"/>
<text text-anchor="middle" x="639" y="-123.4" font-family="Helvetica,sans-Serif" font-size="12.00" fill="white">Strideable</text>
</a>
</g>
</g>
<!-- Comparable&#45;&gt;Strideable -->
<g id="edge15" class="edge">
<path fill="none" stroke="#cccccc" d="M568.375,-173.988C581.258,-165.599 599.879,-153.474 614.766,-143.78"/>
<polygon fill="#cccccc" stroke="#cccccc" points="616.998,-146.504 623.468,-138.114 613.178,-140.638 616.998,-146.504"/>
</g>
<!-- CustomStringConvertible -->
<g id="node4" class="node">
<g id="a_node4"><a xlink:href="/v2.1/protocol/CustomStringConvertible/" target="_top">
<path fill="#999999" stroke="#999999" d="M252.208,-80C252.208,-80 123.792,-80 123.792,-80 120.126,-80 116.459,-76.3333 116.459,-72.6667 116.459,-72.6667 116.459,-65.3333 116.459,-65.3333 116.459,-61.6667 120.126,-58 123.792,-58 123.792,-58 252.208,-58 252.208,-58 255.874,-58 259.541,-61.6667 259.541,-65.3333 259.541,-65.3333 259.541,-72.6667 259.541,-72.6667 259.541,-76.3333 255.874,-80 252.208,-80"/>
<text text-anchor="middle" x="188" y="-65.4" font-family="Helvetica,sans-Serif" font-size="12.00" fill="white">CustomStringConvertible</text>
</a>
</g>
</g>
<!-- CustomStringConvertible&#45;&gt;Float -->
<g id="edge1" class="edge">
<path fill="none" stroke="#cccccc" d="M259.642,-59.0647C356.159,-47.027 524.459,-26.0363 599.282,-16.7042"/>
<polygon fill="#cccccc" stroke="#cccccc" points="600.134,-20.1252 609.624,-15.4144 599.267,-13.179 600.134,-20.1252"/>
</g>
<!-- Equatable -->
<g id="node5" class="node">
<g id="a_node5"><a xlink:href="/v2.1/protocol/Equatable/" target="_top">
<path fill="#999999" stroke="#999999" d="M577.702,-254C577.702,-254 528.298,-254 528.298,-254 524.632,-254 520.965,-250.333 520.965,-246.667 520.965,-246.667 520.965,-239.333 520.965,-239.333 520.965,-235.667 524.632,-232 528.298,-232 528.298,-232 577.702,-232 577.702,-232 581.368,-232 585.035,-235.667 585.035,-239.333 585.035,-239.333 585.035,-246.667 585.035,-246.667 585.035,-250.333 581.368,-254 577.702,-254"/>
<text text-anchor="middle" x="553" y="-239.4" font-family="Helvetica,sans-Serif" font-size="12.00" fill="white">Equatable</text>
</a>
</g>
</g>
<!-- Equatable&#45;&gt;Comparable -->
<g id="edge17" class="edge">
<path fill="none" stroke="#cccccc" d="M553,-231.988C553,-224.91 553,-215.171 553,-206.478"/>
<polygon fill="#cccccc" stroke="#cccccc" points="556.5,-206.304 553,-196.304 549.5,-206.304 556.5,-206.304"/>
</g>
<!-- Equatable&#45;&gt;Float -->
<g id="edge6" class="edge">
<path fill="none" stroke="#cccccc" d="M585.08,-239.765C615.904,-235.866 661.583,-225.191 688,-196 729.934,-149.661 745.998,-112.267 715,-58 706.024,-42.2863 689.35,-31.4034 673.716,-24.1841"/>
<polygon fill="#cccccc" stroke="#cccccc" points="674.766,-20.8283 664.193,-20.1521 672.037,-27.2743 674.766,-20.8283"/>
</g>
<!-- Hashable -->
<g id="node9" class="node">
<g id="a_node9"><a xlink:href="/v2.1/protocol/Hashable/" target="_top">
<path fill="#999999" stroke="#999999" d="M52.6941,-138C52.6941,-138 7.30586,-138 7.30586,-138 3.6392,-138 -0.0274696,-134.333 -0.0274696,-130.667 -0.0274696,-130.667 -0.0274696,-123.333 -0.0274696,-123.333 -0.0274696,-119.667 3.6392,-116 7.30586,-116 7.30586,-116 52.6941,-116 52.6941,-116 56.3608,-116 60.0275,-119.667 60.0275,-123.333 60.0275,-123.333 60.0275,-130.667 60.0275,-130.667 60.0275,-134.333 56.3608,-138 52.6941,-138"/>
<text text-anchor="middle" x="30" y="-123.4" font-family="Helvetica,sans-Serif" font-size="12.00" fill="white">Hashable</text>
</a>
</g>
</g>
<!-- Equatable&#45;&gt;Hashable -->
<g id="edge18" class="edge">
<path fill="none" stroke="#cccccc" d="M520.732,-242.63C451.156,-243.068 282.588,-239.145 150,-196 113.213,-184.029 75.0663,-160.086 51.9265,-144.049"/>
<polygon fill="#cccccc" stroke="#cccccc" points="53.7301,-141.038 43.5431,-138.127 49.6913,-146.755 53.7301,-141.038"/>
</g>
<!-- FloatLiteralConvertible -->
<g id="node7" class="node">
<g id="a_node7"><a xlink:href="/v2.1/protocol/FloatLiteralConvertible/" target="_top">
<path fill="#999999" stroke="#999999" d="M520.711,-80C520.711,-80 405.289,-80 405.289,-80 401.623,-80 397.956,-76.3333 397.956,-72.6667 397.956,-72.6667 397.956,-65.3333 397.956,-65.3333 397.956,-61.6667 401.623,-58 405.289,-58 405.289,-58 520.711,-58 520.711,-58 524.377,-58 528.044,-61.6667 528.044,-65.3333 528.044,-65.3333 528.044,-72.6667 528.044,-72.6667 528.044,-76.3333 524.377,-80 520.711,-80"/>
<text text-anchor="middle" x="463" y="-65.4" font-family="Helvetica,sans-Serif" font-size="12.00" fill="white">FloatLiteralConvertible</text>
</a>
</g>
</g>
<!-- FloatLiteralConvertible&#45;&gt;Float -->
<g id="edge4" class="edge">
<path fill="none" stroke="#cccccc" d="M494.108,-57.9883C523.833,-48.4216 568.654,-33.9965 600.154,-23.8586"/>
<polygon fill="#cccccc" stroke="#cccccc" points="601.43,-27.1247 609.877,-20.7293 599.285,-20.4613 601.43,-27.1247"/>
</g>
<!-- FloatingPointType -->
<g id="node8" class="node">
<g id="a_node8"><a xlink:href="/v2.1/protocol/FloatingPointType/" target="_top">
<path fill="#999999" stroke="#999999" d="M682.715,-80C682.715,-80 591.285,-80 591.285,-80 587.618,-80 583.952,-76.3333 583.952,-72.6667 583.952,-72.6667 583.952,-65.3333 583.952,-65.3333 583.952,-61.6667 587.618,-58 591.285,-58 591.285,-58 682.715,-58 682.715,-58 686.382,-58 690.048,-61.6667 690.048,-65.3333 690.048,-65.3333 690.048,-72.6667 690.048,-72.6667 690.048,-76.3333 686.382,-80 682.715,-80"/>
<text text-anchor="middle" x="637" y="-65.4" font-family="Helvetica,sans-Serif" font-size="12.00" fill="white">FloatingPointType</text>
</a>
</g>
</g>
<!-- FloatingPointType&#45;&gt;Float -->
<g id="edge2" class="edge">
<path fill="none" stroke="#cccccc" d="M637,-57.9883C637,-50.9098 637,-41.1714 637,-32.4779"/>
<polygon fill="#cccccc" stroke="#cccccc" points="640.5,-32.3038 637,-22.3039 633.5,-32.3039 640.5,-32.3038"/>
</g>
<!-- Hashable&#45;&gt;Float -->
<g id="edge7" class="edge">
<path fill="none" stroke="#cccccc" d="M33.3058,-115.787C38.9211,-100.281 51.916,-71.2081 74,-58 118.985,-31.0951 481.507,-17.0457 599.811,-13.1447"/>
<polygon fill="#cccccc" stroke="#cccccc" points="599.958,-16.6418 609.839,-12.8191 599.731,-9.64549 599.958,-16.6418"/>
</g>
<!-- IntegerLiteralConvertible -->
<g id="node10" class="node">
<g id="a_node10"><a xlink:href="/v2.1/protocol/IntegerLiteralConvertible/" target="_top">
<path fill="#999999" stroke="#999999" d="M291.722,-196C291.722,-196 166.278,-196 166.278,-196 162.611,-196 158.944,-192.333 158.944,-188.667 158.944,-188.667 158.944,-181.333 158.944,-181.333 158.944,-177.667 162.611,-174 166.278,-174 166.278,-174 291.722,-174 291.722,-174 295.389,-174 299.056,-177.667 299.056,-181.333 299.056,-181.333 299.056,-188.667 299.056,-188.667 299.056,-192.333 295.389,-196 291.722,-196"/>
<text text-anchor="middle" x="229" y="-181.4" font-family="Helvetica,sans-Serif" font-size="12.00" fill="white">IntegerLiteralConvertible</text>
</a>
</g>
</g>
<!-- IntegerLiteralConvertible&#45;&gt;Float -->
<g id="edge3" class="edge">
<path fill="none" stroke="#cccccc" d="M205.739,-173.891C160.083,-152.735 66.5629,-102.099 107,-58 140.216,-21.7757 484.603,-13.9885 599.742,-12.3926"/>
<polygon fill="#cccccc" stroke="#cccccc" points="599.886,-15.8911 609.839,-12.2606 599.794,-8.89172 599.886,-15.8911"/>
</g>
<!-- IntegerLiteralConvertible&#45;&gt;SignedNumberType -->
<g id="edge21" class="edge">
<path fill="none" stroke="#cccccc" d="M246.878,-173.988C262.141,-165.441 284.33,-153.015 301.796,-143.234"/>
<polygon fill="#cccccc" stroke="#cccccc" points="303.925,-146.054 310.94,-138.114 300.504,-139.946 303.925,-146.054"/>
</g>
<!-- SignedNumberType&#45;&gt;AbsoluteValuable -->
<g id="edge19" class="edge">
<path fill="none" stroke="#cccccc" d="M329,-115.988C329,-108.91 329,-99.1714 329,-90.4779"/>
<polygon fill="#cccccc" stroke="#cccccc" points="332.5,-90.3038 329,-80.3039 325.5,-90.3039 332.5,-90.3038"/>
</g>
<!-- Strideable&#45;&gt;Float -->
<g id="edge9" class="edge">
<path fill="none" stroke="#cccccc" d="M659.61,-115.794C681.335,-103.529 710.89,-81.627 699,-58 692.47,-45.0249 680.358,-34.7916 668.56,-27.304"/>
<polygon fill="#cccccc" stroke="#cccccc" points="670.094,-24.1467 659.696,-22.1135 666.557,-30.1872 670.094,-24.1467"/>
</g>
<!-- Strideable&#45;&gt;FloatingPointType -->
<g id="edge14" class="edge">
<path fill="none" stroke="#cccccc" d="M638.642,-115.988C638.39,-108.91 638.042,-99.1714 637.731,-90.4779"/>
<polygon fill="#cccccc" stroke="#cccccc" points="641.223,-90.1726 637.368,-80.3039 634.227,-90.4225 641.223,-90.1726"/>
</g>
<!-- _CVarArgAlignedType&#45;&gt;Float -->
<g id="edge12" class="edge">
<path fill="none" stroke="#cccccc" d="M956.325,-58.6899C875.93,-46.9349 740.217,-27.0918 674.668,-17.5076"/>
<polygon fill="#cccccc" stroke="#cccccc" points="674.796,-13.9892 664.395,-16.0055 673.783,-20.9155 674.796,-13.9892"/>
</g>
<!-- _CVarArgPassedAsDouble&#45;&gt;Float -->
<g id="edge11" class="edge">
<path fill="none" stroke="#cccccc" d="M820.953,-57.9883C779.19,-47.5475 714.279,-31.3198 673.776,-21.194"/>
<polygon fill="#cccccc" stroke="#cccccc" points="674.584,-17.7883 664.034,-18.7584 672.886,-24.5793 674.584,-17.7883"/>
</g>
<!-- _ObjectiveCBridgeable -->
<g id="node15" class="node">
<g id="a_node15"><a xlink:href="/v2.1/protocol/_ObjectiveCBridgeable/" target="_top">
<path fill="#999999" stroke="#999999" d="M1226.72,-80C1226.72,-80 1109.28,-80 1109.28,-80 1105.61,-80 1101.95,-76.3333 1101.95,-72.6667 1101.95,-72.6667 1101.95,-65.3333 1101.95,-65.3333 1101.95,-61.6667 1105.61,-58 1109.28,-58 1109.28,-58 1226.72,-58 1226.72,-58 1230.39,-58 1234.05,-61.6667 1234.05,-65.3333 1234.05,-65.3333 1234.05,-72.6667 1234.05,-72.6667 1234.05,-76.3333 1230.39,-80 1226.72,-80"/>
<text text-anchor="middle" x="1168" y="-65.4" font-family="Helvetica,sans-Serif" font-size="12.00" fill="white">_ObjectiveCBridgeable</text>
</a>
</g>
</g>
<!-- _ObjectiveCBridgeable&#45;&gt;Float -->
<g id="edge13" class="edge">
<path fill="none" stroke="#cccccc" d="M1101.7,-59.1564C1098.42,-58.7567 1095.17,-58.369 1092,-58 937.215,-39.9966 752.325,-22.5604 674.473,-15.4039"/>
<polygon fill="#cccccc" stroke="#cccccc" points="674.49,-11.8908 664.212,-14.4633 673.851,-18.8616 674.49,-11.8908"/>
</g>
<!-- _Reflectable -->
<g id="node16" class="node">
<g id="a_node16"><a xlink:href="/v2.1/protocol/_Reflectable/" target="_top">
<path fill="#999999" stroke="#999999" d="M1321.7,-80C1321.7,-80 1260.3,-80 1260.3,-80 1256.63,-80 1252.97,-76.3333 1252.97,-72.6667 1252.97,-72.6667 1252.97,-65.3333 1252.97,-65.3333 1252.97,-61.6667 1256.63,-58 1260.3,-58 1260.3,-58 1321.7,-58 1321.7,-58 1325.37,-58 1329.03,-61.6667 1329.03,-65.3333 1329.03,-65.3333 1329.03,-72.6667 1329.03,-72.6667 1329.03,-76.3333 1325.37,-80 1321.7,-80"/>
<text text-anchor="middle" x="1291" y="-65.4" font-family="Helvetica,sans-Serif" font-size="12.00" fill="white">_Reflectable</text>
</a>
</g>
</g>
<!-- _Reflectable&#45;&gt;Float -->
<g id="edge10" class="edge">
<path fill="none" stroke="#cccccc" d="M1252.83,-59.5816C1249.51,-58.9922 1246.2,-58.4532 1243,-58 1028.99,-27.7146 769.439,-16.4431 674.273,-13.1481"/>
<polygon fill="#cccccc" stroke="#cccccc" points="674.127,-9.64125 664.014,-12.802 673.891,-16.6373 674.127,-9.64125"/>
</g>
<!-- _Strideable -->
<g id="node17" class="node">
<g id="a_node17"><a xlink:href="/v2.1/protocol/_Strideable/" target="_top">
<path fill="#999999" stroke="#999999" d="M671.7,-196C671.7,-196 616.3,-196 616.3,-196 612.634,-196 608.967,-192.333 608.967,-188.667 608.967,-188.667 608.967,-181.333 608.967,-181.333 608.967,-177.667 612.634,-174 616.3,-174 616.3,-174 671.7,-174 671.7,-174 675.366,-174 679.033,-177.667 679.033,-181.333 679.033,-181.333 679.033,-188.667 679.033,-188.667 679.033,-192.333 675.366,-196 671.7,-196"/>
<text text-anchor="middle" x="644" y="-181.4" font-family="Helvetica,sans-Serif" font-size="12.00" fill="white">_Strideable</text>
</a>
</g>
</g>
<!-- _Strideable&#45;&gt;Strideable -->
<g id="edge16" class="edge">
<path fill="none" stroke="#cccccc" d="M643.106,-173.988C642.474,-166.91 641.605,-157.171 640.828,-148.478"/>
<polygon fill="#cccccc" stroke="#cccccc" points="644.296,-147.953 639.92,-138.304 637.323,-148.576 644.296,-147.953"/>
</g>
</g>
</svg>
