<?xml version="1.0" encoding="UTF-8" standalone="no"?>
<!DOCTYPE svg PUBLIC "-//W3C//DTD SVG 1.1//EN"
 "http://www.w3.org/Graphics/SVG/1.1/DTD/svg11.dtd">
<!-- Generated by graphviz version 2.36.0 (20140111.2315)
 -->
<!-- Title: Character &#45; Type Hierarchy &#45; SwiftDoc.org Pages: 1 -->
<svg width="830pt" height="253pt"
 viewBox="0.00 0.00 830.43 253.20" xmlns="http://www.w3.org/2000/svg" xmlns:xlink="http://www.w3.org/1999/xlink">
<g id="graph0" class="graph" transform="scale(1 1) rotate(0) translate(7.2 195.6)">
<g transform="translate(0 -195.6)">
<g>
    <path fill="#666666" d="M13.846,10.832c-0.336-0.464-0.792-0.844-1.368-1.14s-1.224-0.444-1.944-0.444
        c-0.384,0-0.772,0.052-1.164,0.156C8.977,9.509,8.622,9.677,8.301,9.908c-0.32,0.232-0.58,0.52-0.78,0.864
        c-0.2,0.344-0.3,0.756-0.3,1.236c0,0.464,0.092,0.852,0.276,1.164c0.184,0.312,0.432,0.576,0.744,0.792s0.68,0.4,1.104,0.552
        c0.423,0.152,0.876,0.309,1.356,0.468c0.576,0.177,1.16,0.376,1.752,0.601c0.592,0.224,1.128,0.52,1.608,0.888
        s0.872,0.828,1.176,1.38s0.456,1.252,0.456,2.101c0,0.88-0.164,1.644-0.492,2.292c-0.328,0.647-0.765,1.184-1.308,1.607
        c-0.544,0.424-1.172,0.74-1.884,0.948s-1.444,0.312-2.196,0.312c-1.072,0-2.108-0.208-3.108-0.624
        c-1-0.415-1.828-1.031-2.484-1.848l1.848-1.56c0.4,0.592,0.936,1.071,1.608,1.439c0.672,0.368,1.399,0.552,2.184,0.552
        c0.4,0,0.8-0.056,1.2-0.168c0.4-0.111,0.764-0.288,1.092-0.527c0.328-0.24,0.596-0.54,0.804-0.9
        c0.208-0.36,0.312-0.796,0.312-1.308s-0.108-0.94-0.324-1.284c-0.216-0.344-0.508-0.636-0.876-0.876s-0.796-0.444-1.284-0.612
        c-0.488-0.168-1.004-0.34-1.548-0.516c-0.544-0.16-1.08-0.356-1.608-0.588c-0.528-0.232-1-0.528-1.416-0.889
        c-0.416-0.359-0.752-0.804-1.008-1.332c-0.256-0.527-0.384-1.184-0.384-1.968c0-0.848,0.172-1.576,0.516-2.184
        c0.344-0.608,0.792-1.112,1.344-1.512c0.552-0.4,1.176-0.692,1.872-0.876c0.696-0.184,1.396-0.276,2.1-0.276
        c0.992,0,1.92,0.176,2.784,0.528c0.864,0.352,1.56,0.824,2.088,1.416L13.846,10.832z"/>
    <path fill="#666666" d="M18.813,13.304l2.568,8.688h0.048l2.712-8.688h2.376l2.76,8.688h0.048l2.568-8.688h2.376L30.501,24.68
        h-2.352l-2.808-8.544h-0.048l-2.784,8.544h-2.352l-3.792-11.376H18.813z"/>
    <path fill="#666666" d="M38.685,9.2c0,0.416-0.147,0.76-0.44,1.032c-0.294,0.272-0.647,0.408-1.06,0.408s-0.762-0.14-1.047-0.42
        c-0.286-0.28-0.429-0.62-0.429-1.02c0-0.416,0.143-0.764,0.429-1.044c0.286-0.28,0.635-0.42,1.047-0.42s0.766,0.14,1.06,0.42
        C38.538,8.437,38.685,8.784,38.685,9.2z M38.325,24.68h-2.256V13.304h2.256V24.68z"/>
    <path fill="#666666" d="M47.613,15.152h-2.64v9.528h-2.256v-9.528h-2.256v-1.848h2.256v-2.376c0-0.672,0.076-1.292,0.228-1.86
        c0.152-0.568,0.4-1.06,0.744-1.476c0.344-0.416,0.784-0.744,1.32-0.984c0.536-0.24,1.188-0.36,1.956-0.36
        c0.544,0,1.016,0.056,1.416,0.168l-0.264,1.944c-0.176-0.048-0.352-0.088-0.528-0.12c-0.176-0.032-0.376-0.048-0.6-0.048
        c-0.432,0-0.78,0.076-1.044,0.228c-0.264,0.152-0.468,0.356-0.612,0.612s-0.24,0.548-0.288,0.876
        c-0.048,0.328-0.072,0.668-0.072,1.02v2.376h2.64V15.152z"/>
    <path fill="#666666" d="M54.909,15.152h-3.024v5.91c0,0.687,0.128,1.177,0.384,1.472c0.256,0.295,0.664,0.442,1.224,0.442
        c0.208,0,0.432-0.021,0.672-0.065c0.24-0.044,0.456-0.11,0.648-0.198l0.072,1.848c-0.272,0.096-0.572,0.172-0.9,0.229
        c-0.328,0.056-0.668,0.084-1.02,0.084c-1.072,0-1.892-0.296-2.46-0.889c-0.568-0.592-0.852-1.479-0.852-2.664v-6.168h-2.184
        v-1.848h2.184V10.04h2.232v3.264h3.024V15.152z"/>
    <path fill="#666666" d="M57.356,7.688h5.832c1.088,0,2.176,0.16,3.264,0.48c1.088,0.32,2.072,0.824,2.952,1.512
        s1.592,1.568,2.136,2.64c0.544,1.072,0.816,2.36,0.816,3.864c0,1.456-0.272,2.716-0.816,3.78s-1.256,1.943-2.136,2.64
        s-1.864,1.216-2.952,1.561c-1.088,0.344-2.176,0.516-3.264,0.516h-5.832V7.688z M59.732,22.593h2.976
        c1.024,0,1.972-0.145,2.844-0.432c0.872-0.288,1.624-0.704,2.256-1.248c0.632-0.544,1.124-1.216,1.476-2.017
        c0.352-0.8,0.528-1.704,0.528-2.712c0-1.056-0.176-1.983-0.528-2.784c-0.353-0.8-0.844-1.468-1.476-2.004
        c-0.632-0.536-1.384-0.944-2.256-1.224s-1.82-0.42-2.844-0.42h-2.976V22.593z"/>
    <path fill="#666666" d="M86.06,18.969c0,0.88-0.156,1.688-0.468,2.424c-0.312,0.736-0.744,1.372-1.296,1.908
        c-0.552,0.536-1.204,0.952-1.956,1.248c-0.752,0.296-1.56,0.443-2.424,0.443c-0.864,0-1.672-0.147-2.424-0.443
        c-0.752-0.296-1.4-0.712-1.944-1.248c-0.544-0.536-0.972-1.172-1.284-1.908c-0.312-0.735-0.468-1.544-0.468-2.424
        s0.156-1.684,0.468-2.412c0.312-0.728,0.74-1.356,1.284-1.884c0.543-0.528,1.191-0.939,1.944-1.236
        c0.752-0.296,1.56-0.444,2.424-0.444c0.864,0,1.672,0.148,2.424,0.444c0.752,0.297,1.404,0.708,1.956,1.236
        c0.552,0.527,0.984,1.156,1.296,1.884C85.904,17.285,86.06,18.089,86.06,18.969z M83.708,18.98c0-0.542-0.084-1.061-0.252-1.556
        c-0.169-0.494-0.414-0.929-0.734-1.304s-0.718-0.674-1.192-0.897s-1.015-0.335-1.625-0.335c-0.61,0-1.152,0.111-1.625,0.335
        c-0.474,0.224-0.871,0.522-1.191,0.897c-0.321,0.375-0.566,0.81-0.734,1.304C76.184,17.92,76.1,18.438,76.1,18.98
        c0,0.543,0.084,1.062,0.253,1.556c0.168,0.495,0.413,0.934,0.734,1.316c0.321,0.383,0.718,0.686,1.191,0.909
        c0.473,0.224,1.015,0.335,1.625,0.335c0.61,0,1.151-0.111,1.625-0.335s0.871-0.526,1.192-0.909s0.565-0.821,0.734-1.316
        C83.624,20.042,83.708,19.523,83.708,18.98z"/>
    <path fill="#666666" d="M96.428,16.184c-0.24-0.368-0.6-0.676-1.08-0.924s-0.992-0.372-1.536-0.372
        c-0.592,0-1.116,0.112-1.572,0.336c-0.456,0.225-0.844,0.524-1.164,0.9c-0.32,0.376-0.564,0.812-0.732,1.308
        s-0.252,1.017-0.252,1.56c0,0.545,0.084,1.064,0.252,1.561s0.412,0.933,0.732,1.308c0.32,0.376,0.712,0.677,1.176,0.9
        c0.464,0.225,0.992,0.336,1.584,0.336c0.576,0,1.1-0.111,1.572-0.336c0.472-0.224,0.86-0.528,1.164-0.912l1.512,1.368
        c-0.48,0.561-1.08,0.996-1.8,1.308c-0.72,0.312-1.536,0.468-2.448,0.468c-0.88,0-1.692-0.144-2.436-0.432
        c-0.744-0.288-1.388-0.691-1.932-1.212c-0.544-0.52-0.972-1.147-1.284-1.884s-0.468-1.561-0.468-2.473
        c0-0.896,0.152-1.711,0.456-2.447c0.304-0.736,0.728-1.368,1.272-1.896c0.543-0.527,1.188-0.936,1.932-1.224
        c0.744-0.288,1.548-0.433,2.412-0.433c0.8,0,1.596,0.16,2.388,0.48s1.419,0.784,1.884,1.392L96.428,16.184z"/>
    <path fill="#666666" d="M103.1,23.24c0,0.417-0.152,0.784-0.456,1.104c-0.304,0.32-0.688,0.479-1.152,0.479
        c-0.448,0-0.828-0.155-1.14-0.468c-0.312-0.312-0.468-0.676-0.468-1.092c0-0.432,0.152-0.804,0.456-1.116
        c0.304-0.312,0.688-0.468,1.152-0.468c0.464,0,0.848,0.152,1.152,0.456C102.947,22.44,103.1,22.808,103.1,23.24z"/>
    <path fill="#666666" d="M116.635,18.969c0,0.88-0.156,1.688-0.468,2.424c-0.312,0.736-0.744,1.372-1.296,1.908
        c-0.552,0.536-1.204,0.952-1.956,1.248c-0.752,0.296-1.56,0.443-2.424,0.443c-0.864,0-1.672-0.147-2.424-0.443
        c-0.752-0.296-1.4-0.712-1.944-1.248c-0.544-0.536-0.972-1.172-1.284-1.908c-0.312-0.735-0.468-1.544-0.468-2.424
        s0.156-1.684,0.468-2.412c0.312-0.728,0.74-1.356,1.284-1.884c0.543-0.528,1.191-0.939,1.944-1.236
        c0.752-0.296,1.56-0.444,2.424-0.444c0.864,0,1.672,0.148,2.424,0.444c0.752,0.297,1.404,0.708,1.956,1.236
        c0.552,0.527,0.984,1.156,1.296,1.884C116.479,17.285,116.635,18.089,116.635,18.969z M114.283,18.98
        c0-0.542-0.084-1.061-0.252-1.556c-0.169-0.494-0.414-0.929-0.734-1.304s-0.718-0.674-1.192-0.897s-1.015-0.335-1.625-0.335
        c-0.61,0-1.152,0.111-1.625,0.335c-0.474,0.224-0.871,0.522-1.191,0.897c-0.321,0.375-0.566,0.81-0.734,1.304
        c-0.169,0.495-0.253,1.014-0.253,1.556c0,0.543,0.084,1.062,0.253,1.556c0.168,0.495,0.413,0.934,0.734,1.316
        c0.321,0.383,0.718,0.686,1.191,0.909c0.473,0.224,1.015,0.335,1.625,0.335c0.61,0,1.151-0.111,1.625-0.335
        s0.871-0.526,1.192-0.909s0.565-0.821,0.734-1.316C114.199,20.042,114.283,19.523,114.283,18.98z"/>
    <path fill="#666666" d="M119.251,14.577c-0.016-0.48-0.04-0.904-0.072-1.272h2.136c0.032,0.288,0.056,0.62,0.072,0.996
        c0.016,0.376,0.024,0.684,0.024,0.924h0.072c0.32-0.672,0.788-1.212,1.404-1.62c0.616-0.408,1.308-0.612,2.076-0.612
        c0.352,0,0.648,0.033,0.888,0.097l-0.096,2.088c-0.32-0.08-0.664-0.12-1.032-0.12c-0.544,0-1.016,0.101-1.416,0.3
        c-0.4,0.2-0.732,0.468-0.996,0.805c-0.264,0.336-0.46,0.724-0.588,1.163c-0.128,0.44-0.192,0.9-0.192,1.381v5.976h-2.256v-8.928
        C119.275,15.449,119.267,15.056,119.251,14.577z"/>
    <path fill="#666666" d="M128.419,26.625c0.496,0.56,1.116,1.008,1.86,1.344c0.744,0.336,1.508,0.504,2.292,0.504
        c0.752,0,1.384-0.108,1.896-0.324s0.924-0.512,1.236-0.888s0.536-0.82,0.672-1.332c0.136-0.513,0.204-1.064,0.204-1.656v-1.464
        h-0.048c-0.416,0.641-0.984,1.128-1.704,1.464c-0.72,0.336-1.488,0.504-2.304,0.504c-0.864,0-1.652-0.151-2.364-0.456
        c-0.712-0.304-1.316-0.72-1.812-1.248c-0.496-0.527-0.88-1.147-1.152-1.859s-0.408-1.477-0.408-2.292
        c0-0.816,0.136-1.584,0.408-2.305c0.272-0.72,0.656-1.348,1.152-1.884c0.496-0.535,1.096-0.96,1.8-1.271
        c0.704-0.312,1.488-0.469,2.352-0.469c0.816,0,1.596,0.177,2.34,0.528c0.744,0.353,1.332,0.888,1.764,1.608h0.048v-1.824h2.184
        v10.8c0,0.832-0.104,1.628-0.312,2.388c-0.208,0.76-0.56,1.433-1.056,2.017s-1.144,1.052-1.944,1.404
        c-0.8,0.352-1.792,0.527-2.976,0.527c-0.992,0-1.988-0.18-2.988-0.54c-1-0.359-1.86-0.868-2.58-1.523L128.419,26.625z
         M129.091,18.873c0,0.527,0.084,1.031,0.253,1.512c0.168,0.479,0.417,0.904,0.746,1.271c0.329,0.369,0.726,0.664,1.192,0.889
        c0.465,0.224,0.995,0.336,1.589,0.336c0.577,0,1.107-0.104,1.589-0.312c0.481-0.207,0.891-0.491,1.228-0.852
        s0.598-0.784,0.782-1.272c0.185-0.487,0.277-1.012,0.277-1.571c0-0.544-0.093-1.057-0.277-1.536
        c-0.185-0.48-0.449-0.904-0.794-1.272c-0.345-0.367-0.755-0.66-1.228-0.876c-0.474-0.216-1-0.324-1.577-0.324
        c-0.594,0-1.124,0.108-1.589,0.324c-0.466,0.216-0.863,0.504-1.192,0.864s-0.578,0.784-0.746,1.271
        C129.175,17.812,129.091,18.329,129.091,18.873z"/>
</g>
<g><a xlink:href="/" pointer-events="all" target="_top"><polygon fill="none" points="0,0 145,0 145,35 0,35 0,0"/></a></g>

</g>


<!-- Character -->
<g id="node1" class="node">
<g id="a_node1"><a xlink:href="/v2.1/type/Character/" target="_top">
<polygon fill="#ee543d" stroke="#ee543d" points="307.044,-22 245.01,-22 245.01,-0 307.044,-0 307.044,-22"/>
<text text-anchor="middle" x="276.027" y="-7.4" font-family="Helvetica,sans-Serif" font-size="12.00" fill="white">Character</text>
</a>
</g>
</g>
<!-- Comparable -->
<g id="node2" class="node">
<g id="a_node2"><a xlink:href="/v2.1/protocol/Comparable/" target="_top">
<path fill="#999999" stroke="#999999" d="M82.2183,-80C82.2183,-80 21.8357,-80 21.8357,-80 18.169,-80 14.5024,-76.3333 14.5024,-72.6667 14.5024,-72.6667 14.5024,-65.3333 14.5024,-65.3333 14.5024,-61.6667 18.169,-58 21.8357,-58 21.8357,-58 82.2183,-58 82.2183,-58 85.8849,-58 89.5516,-61.6667 89.5516,-65.3333 89.5516,-65.3333 89.5516,-72.6667 89.5516,-72.6667 89.5516,-76.3333 85.8849,-80 82.2183,-80"/>
<text text-anchor="middle" x="52.027" y="-65.4" font-family="Helvetica,sans-Serif" font-size="12.00" fill="white">Comparable</text>
</a>
</g>
</g>
<!-- Comparable&#45;&gt;Character -->
<g id="edge4" class="edge">
<path fill="none" stroke="#cccccc" d="M89.5195,-58.6269C129.79,-48.5592 193.58,-32.6117 235.123,-22.226"/>
<polygon fill="#cccccc" stroke="#cccccc" points="236.067,-25.5978 244.919,-19.7769 234.369,-18.8068 236.067,-25.5978"/>
</g>
<!-- CustomDebugStringConvertible -->
<g id="node3" class="node">
<g id="a_node3"><a xlink:href="/v2.1/protocol/CustomDebugStringConvertible/" target="_top">
<path fill="#999999" stroke="#999999" d="M357.757,-80C357.757,-80 194.297,-80 194.297,-80 190.631,-80 186.964,-76.3333 186.964,-72.6667 186.964,-72.6667 186.964,-65.3333 186.964,-65.3333 186.964,-61.6667 190.631,-58 194.297,-58 194.297,-58 357.757,-58 357.757,-58 361.423,-58 365.09,-61.6667 365.09,-65.3333 365.09,-65.3333 365.09,-72.6667 365.09,-72.6667 365.09,-76.3333 361.423,-80 357.757,-80"/>
<text text-anchor="middle" x="276.027" y="-65.4" font-family="Helvetica,sans-Serif" font-size="12.00" fill="white">CustomDebugStringConvertible</text>
</a>
</g>
</g>
<!-- CustomDebugStringConvertible&#45;&gt;Character -->
<g id="edge5" class="edge">
<path fill="none" stroke="#cccccc" d="M276.027,-57.9883C276.027,-50.9098 276.027,-41.1714 276.027,-32.4779"/>
<polygon fill="#cccccc" stroke="#cccccc" points="279.527,-32.3038 276.027,-22.3039 272.527,-32.3039 279.527,-32.3038"/>
</g>
<!-- Equatable -->
<g id="node4" class="node">
<g id="a_node4"><a xlink:href="/v2.1/protocol/Equatable/" target="_top">
<path fill="#999999" stroke="#999999" d="M76.7288,-138C76.7288,-138 27.3252,-138 27.3252,-138 23.6585,-138 19.9918,-134.333 19.9918,-130.667 19.9918,-130.667 19.9918,-123.333 19.9918,-123.333 19.9918,-119.667 23.6585,-116 27.3252,-116 27.3252,-116 76.7288,-116 76.7288,-116 80.3955,-116 84.0621,-119.667 84.0621,-123.333 84.0621,-123.333 84.0621,-130.667 84.0621,-130.667 84.0621,-134.333 80.3955,-138 76.7288,-138"/>
<text text-anchor="middle" x="52.027" y="-123.4" font-family="Helvetica,sans-Serif" font-size="12.00" fill="white">Equatable</text>
</a>
</g>
</g>
<!-- Equatable&#45;&gt;Character -->
<g id="edge2" class="edge">
<path fill="none" stroke="#cccccc" d="M36.3515,-115.882C17.0561,-102.201 -11.2702,-77.2966 5.02698,-58 33.9489,-23.7551 166.353,-14.9987 234.792,-12.7635"/>
<polygon fill="#cccccc" stroke="#cccccc" points="234.911,-16.2617 244.804,-12.4683 234.705,-9.26469 234.911,-16.2617"/>
</g>
<!-- Equatable&#45;&gt;Comparable -->
<g id="edge10" class="edge">
<path fill="none" stroke="#cccccc" d="M52.027,-115.988C52.027,-108.91 52.027,-99.1714 52.027,-90.4779"/>
<polygon fill="#cccccc" stroke="#cccccc" points="55.5271,-90.3038 52.027,-80.3039 48.5271,-90.3039 55.5271,-90.3038"/>
</g>
<!-- Hashable -->
<g id="node6" class="node">
<g id="a_node6"><a xlink:href="/v2.1/protocol/Hashable/" target="_top">
<path fill="#999999" stroke="#999999" d="M160.721,-80C160.721,-80 115.333,-80 115.333,-80 111.666,-80 108,-76.3333 108,-72.6667 108,-72.6667 108,-65.3333 108,-65.3333 108,-61.6667 111.666,-58 115.333,-58 115.333,-58 160.721,-58 160.721,-58 164.388,-58 168.054,-61.6667 168.054,-65.3333 168.054,-65.3333 168.054,-72.6667 168.054,-72.6667 168.054,-76.3333 164.388,-80 160.721,-80"/>
<text text-anchor="middle" x="138.027" y="-65.4" font-family="Helvetica,sans-Serif" font-size="12.00" fill="white">Hashable</text>
</a>
</g>
</g>
<!-- Equatable&#45;&gt;Hashable -->
<g id="edge9" class="edge">
<path fill="none" stroke="#cccccc" d="M67.4021,-115.988C80.2852,-107.599 98.9057,-95.4743 113.793,-85.7804"/>
<polygon fill="#cccccc" stroke="#cccccc" points="116.025,-88.5036 122.495,-80.1138 112.205,-82.6376 116.025,-88.5036"/>
</g>
<!-- ExtendedGraphemeClusterLiteralConvertible -->
<g id="node5" class="node">
<g id="a_node5"><a xlink:href="/v2.1/protocol/ExtendedGraphemeClusterLiteralConvertible/" target="_top">
<path fill="#999999" stroke="#999999" d="M624.789,-80C624.789,-80 391.265,-80 391.265,-80 387.599,-80 383.932,-76.3333 383.932,-72.6667 383.932,-72.6667 383.932,-65.3333 383.932,-65.3333 383.932,-61.6667 387.599,-58 391.265,-58 391.265,-58 624.789,-58 624.789,-58 628.455,-58 632.122,-61.6667 632.122,-65.3333 632.122,-65.3333 632.122,-72.6667 632.122,-72.6667 632.122,-76.3333 628.455,-80 624.789,-80"/>
<text text-anchor="middle" x="508.027" y="-65.4" font-family="Helvetica,sans-Serif" font-size="12.00" fill="white">ExtendedGraphemeClusterLiteralConvertible</text>
</a>
</g>
</g>
<!-- ExtendedGraphemeClusterLiteralConvertible&#45;&gt;Character -->
<g id="edge1" class="edge">
<path fill="none" stroke="#cccccc" d="M466.55,-57.9883C424.287,-47.7869 359.137,-32.0611 317.042,-21.9002"/>
<polygon fill="#cccccc" stroke="#cccccc" points="317.668,-18.4507 307.126,-19.5065 316.025,-25.2553 317.668,-18.4507"/>
</g>
<!-- Hashable&#45;&gt;Character -->
<g id="edge3" class="edge">
<path fill="none" stroke="#cccccc" d="M162.699,-57.9883C184.737,-49.0453 217.237,-35.8566 241.79,-25.8935"/>
<polygon fill="#cccccc" stroke="#cccccc" points="243.154,-29.1172 251.104,-22.1138 240.521,-22.6309 243.154,-29.1172"/>
</g>
<!-- Streamable -->
<g id="node7" class="node">
<g id="a_node7"><a xlink:href="/v2.1/protocol/Streamable/" target="_top">
<path fill="#999999" stroke="#999999" d="M714.217,-80C714.217,-80 657.837,-80 657.837,-80 654.171,-80 650.504,-76.3333 650.504,-72.6667 650.504,-72.6667 650.504,-65.3333 650.504,-65.3333 650.504,-61.6667 654.171,-58 657.837,-58 657.837,-58 714.217,-58 714.217,-58 717.883,-58 721.55,-61.6667 721.55,-65.3333 721.55,-65.3333 721.55,-72.6667 721.55,-72.6667 721.55,-76.3333 717.883,-80 714.217,-80"/>
<text text-anchor="middle" x="686.027" y="-65.4" font-family="Helvetica,sans-Serif" font-size="12.00" fill="white">Streamable</text>
</a>
</g>
</g>
<!-- Streamable&#45;&gt;Character -->
<g id="edge7" class="edge">
<path fill="none" stroke="#cccccc" d="M650.226,-59.7281C647.122,-59.1069 644.023,-58.5206 641.027,-58 524.551,-37.7641 385.692,-22.7428 317.709,-15.9744"/>
<polygon fill="#cccccc" stroke="#cccccc" points="317.717,-12.4582 307.421,-14.9594 317.029,-19.4244 317.717,-12.4582"/>
</g>
<!-- UnicodeScalarLiteralConvertible -->
<g id="node8" class="node">
<g id="a_node8"><a xlink:href="/v2.1/protocol/UnicodeScalarLiteralConvertible/" target="_top">
<path fill="#999999" stroke="#999999" d="M591.26,-138C591.26,-138 424.794,-138 424.794,-138 421.128,-138 417.461,-134.333 417.461,-130.667 417.461,-130.667 417.461,-123.333 417.461,-123.333 417.461,-119.667 421.128,-116 424.794,-116 424.794,-116 591.26,-116 591.26,-116 594.926,-116 598.593,-119.667 598.593,-123.333 598.593,-123.333 598.593,-130.667 598.593,-130.667 598.593,-134.333 594.926,-138 591.26,-138"/>
<text text-anchor="middle" x="508.027" y="-123.4" font-family="Helvetica,sans-Serif" font-size="12.00" fill="white">UnicodeScalarLiteralConvertible</text>
</a>
</g>
</g>
<!-- UnicodeScalarLiteralConvertible&#45;&gt;ExtendedGraphemeClusterLiteralConvertible -->
<g id="edge8" class="edge">
<path fill="none" stroke="#cccccc" d="M508.027,-115.988C508.027,-108.91 508.027,-99.1714 508.027,-90.4779"/>
<polygon fill="#cccccc" stroke="#cccccc" points="511.527,-90.3038 508.027,-80.3039 504.527,-90.3039 511.527,-90.3038"/>
</g>
<!-- _Reflectable -->
<g id="node9" class="node">
<g id="a_node9"><a xlink:href="/v2.1/protocol/_Reflectable/" target="_top">
<path fill="#999999" stroke="#999999" d="M808.727,-80C808.727,-80 747.327,-80 747.327,-80 743.661,-80 739.994,-76.3333 739.994,-72.6667 739.994,-72.6667 739.994,-65.3333 739.994,-65.3333 739.994,-61.6667 743.661,-58 747.327,-58 747.327,-58 808.727,-58 808.727,-58 812.393,-58 816.06,-61.6667 816.06,-65.3333 816.06,-65.3333 816.06,-72.6667 816.06,-72.6667 816.06,-76.3333 812.393,-80 808.727,-80"/>
<text text-anchor="middle" x="778.027" y="-65.4" font-family="Helvetica,sans-Serif" font-size="12.00" fill="white">_Reflectable</text>
</a>
</g>
</g>
<!-- _Reflectable&#45;&gt;Character -->
<g id="edge6" class="edge">
<path fill="none" stroke="#cccccc" d="M739.84,-59.6693C736.529,-59.0609 733.224,-58.4936 730.027,-58 578.854,-34.6595 397.458,-20.3597 317.424,-14.7405"/>
<polygon fill="#cccccc" stroke="#cccccc" points="317.487,-11.2365 307.269,-14.036 317.003,-18.2197 317.487,-11.2365"/>
</g>
</g>
</svg>
