<?xml version="1.0" encoding="UTF-8" standalone="no"?>
<!DOCTYPE svg PUBLIC "-//W3C//DTD SVG 1.1//EN"
 "http://www.w3.org/Graphics/SVG/1.1/DTD/svg11.dtd">
<!-- Generated by graphviz version 2.36.0 (20140111.2315)
 -->
<!-- Title: _Incrementable &#45; Type Hierarchy &#45; SwiftDoc.org Pages: 1 -->
<svg width="5265pt" height="543pt"
 viewBox="0.00 0.00 5265.40 543.20" xmlns="http://www.w3.org/2000/svg" xmlns:xlink="http://www.w3.org/1999/xlink">
<g id="graph0" class="graph" transform="scale(1 1) rotate(0) translate(7.2 485.6)">
<g transform="translate(0 -485.6)">
<g>
    <path fill="#666666" d="M13.846,10.832c-0.336-0.464-0.792-0.844-1.368-1.14s-1.224-0.444-1.944-0.444
        c-0.384,0-0.772,0.052-1.164,0.156C8.977,9.509,8.622,9.677,8.301,9.908c-0.32,0.232-0.58,0.52-0.78,0.864
        c-0.2,0.344-0.3,0.756-0.3,1.236c0,0.464,0.092,0.852,0.276,1.164c0.184,0.312,0.432,0.576,0.744,0.792s0.68,0.4,1.104,0.552
        c0.423,0.152,0.876,0.309,1.356,0.468c0.576,0.177,1.16,0.376,1.752,0.601c0.592,0.224,1.128,0.52,1.608,0.888
        s0.872,0.828,1.176,1.38s0.456,1.252,0.456,2.101c0,0.88-0.164,1.644-0.492,2.292c-0.328,0.647-0.765,1.184-1.308,1.607
        c-0.544,0.424-1.172,0.74-1.884,0.948s-1.444,0.312-2.196,0.312c-1.072,0-2.108-0.208-3.108-0.624
        c-1-0.415-1.828-1.031-2.484-1.848l1.848-1.56c0.4,0.592,0.936,1.071,1.608,1.439c0.672,0.368,1.399,0.552,2.184,0.552
        c0.4,0,0.8-0.056,1.2-0.168c0.4-0.111,0.764-0.288,1.092-0.527c0.328-0.24,0.596-0.54,0.804-0.9
        c0.208-0.36,0.312-0.796,0.312-1.308s-0.108-0.94-0.324-1.284c-0.216-0.344-0.508-0.636-0.876-0.876s-0.796-0.444-1.284-0.612
        c-0.488-0.168-1.004-0.34-1.548-0.516c-0.544-0.16-1.08-0.356-1.608-0.588c-0.528-0.232-1-0.528-1.416-0.889
        c-0.416-0.359-0.752-0.804-1.008-1.332c-0.256-0.527-0.384-1.184-0.384-1.968c0-0.848,0.172-1.576,0.516-2.184
        c0.344-0.608,0.792-1.112,1.344-1.512c0.552-0.4,1.176-0.692,1.872-0.876c0.696-0.184,1.396-0.276,2.1-0.276
        c0.992,0,1.92,0.176,2.784,0.528c0.864,0.352,1.56,0.824,2.088,1.416L13.846,10.832z"/>
    <path fill="#666666" d="M18.813,13.304l2.568,8.688h0.048l2.712-8.688h2.376l2.76,8.688h0.048l2.568-8.688h2.376L30.501,24.68
        h-2.352l-2.808-8.544h-0.048l-2.784,8.544h-2.352l-3.792-11.376H18.813z"/>
    <path fill="#666666" d="M38.685,9.2c0,0.416-0.147,0.76-0.44,1.032c-0.294,0.272-0.647,0.408-1.06,0.408s-0.762-0.14-1.047-0.42
        c-0.286-0.28-0.429-0.62-0.429-1.02c0-0.416,0.143-0.764,0.429-1.044c0.286-0.28,0.635-0.42,1.047-0.42s0.766,0.14,1.06,0.42
        C38.538,8.437,38.685,8.784,38.685,9.2z M38.325,24.68h-2.256V13.304h2.256V24.68z"/>
    <path fill="#666666" d="M47.613,15.152h-2.64v9.528h-2.256v-9.528h-2.256v-1.848h2.256v-2.376c0-0.672,0.076-1.292,0.228-1.86
        c0.152-0.568,0.4-1.06,0.744-1.476c0.344-0.416,0.784-0.744,1.32-0.984c0.536-0.24,1.188-0.36,1.956-0.36
        c0.544,0,1.016,0.056,1.416,0.168l-0.264,1.944c-0.176-0.048-0.352-0.088-0.528-0.12c-0.176-0.032-0.376-0.048-0.6-0.048
        c-0.432,0-0.78,0.076-1.044,0.228c-0.264,0.152-0.468,0.356-0.612,0.612s-0.24,0.548-0.288,0.876
        c-0.048,0.328-0.072,0.668-0.072,1.02v2.376h2.64V15.152z"/>
    <path fill="#666666" d="M54.909,15.152h-3.024v5.91c0,0.687,0.128,1.177,0.384,1.472c0.256,0.295,0.664,0.442,1.224,0.442
        c0.208,0,0.432-0.021,0.672-0.065c0.24-0.044,0.456-0.11,0.648-0.198l0.072,1.848c-0.272,0.096-0.572,0.172-0.9,0.229
        c-0.328,0.056-0.668,0.084-1.02,0.084c-1.072,0-1.892-0.296-2.46-0.889c-0.568-0.592-0.852-1.479-0.852-2.664v-6.168h-2.184
        v-1.848h2.184V10.04h2.232v3.264h3.024V15.152z"/>
    <path fill="#666666" d="M57.356,7.688h5.832c1.088,0,2.176,0.16,3.264,0.48c1.088,0.32,2.072,0.824,2.952,1.512
        s1.592,1.568,2.136,2.64c0.544,1.072,0.816,2.36,0.816,3.864c0,1.456-0.272,2.716-0.816,3.78s-1.256,1.943-2.136,2.64
        s-1.864,1.216-2.952,1.561c-1.088,0.344-2.176,0.516-3.264,0.516h-5.832V7.688z M59.732,22.593h2.976
        c1.024,0,1.972-0.145,2.844-0.432c0.872-0.288,1.624-0.704,2.256-1.248c0.632-0.544,1.124-1.216,1.476-2.017
        c0.352-0.8,0.528-1.704,0.528-2.712c0-1.056-0.176-1.983-0.528-2.784c-0.353-0.8-0.844-1.468-1.476-2.004
        c-0.632-0.536-1.384-0.944-2.256-1.224s-1.82-0.42-2.844-0.42h-2.976V22.593z"/>
    <path fill="#666666" d="M86.06,18.969c0,0.88-0.156,1.688-0.468,2.424c-0.312,0.736-0.744,1.372-1.296,1.908
        c-0.552,0.536-1.204,0.952-1.956,1.248c-0.752,0.296-1.56,0.443-2.424,0.443c-0.864,0-1.672-0.147-2.424-0.443
        c-0.752-0.296-1.4-0.712-1.944-1.248c-0.544-0.536-0.972-1.172-1.284-1.908c-0.312-0.735-0.468-1.544-0.468-2.424
        s0.156-1.684,0.468-2.412c0.312-0.728,0.74-1.356,1.284-1.884c0.543-0.528,1.191-0.939,1.944-1.236
        c0.752-0.296,1.56-0.444,2.424-0.444c0.864,0,1.672,0.148,2.424,0.444c0.752,0.297,1.404,0.708,1.956,1.236
        c0.552,0.527,0.984,1.156,1.296,1.884C85.904,17.285,86.06,18.089,86.06,18.969z M83.708,18.98c0-0.542-0.084-1.061-0.252-1.556
        c-0.169-0.494-0.414-0.929-0.734-1.304s-0.718-0.674-1.192-0.897s-1.015-0.335-1.625-0.335c-0.61,0-1.152,0.111-1.625,0.335
        c-0.474,0.224-0.871,0.522-1.191,0.897c-0.321,0.375-0.566,0.81-0.734,1.304C76.184,17.92,76.1,18.438,76.1,18.98
        c0,0.543,0.084,1.062,0.253,1.556c0.168,0.495,0.413,0.934,0.734,1.316c0.321,0.383,0.718,0.686,1.191,0.909
        c0.473,0.224,1.015,0.335,1.625,0.335c0.61,0,1.151-0.111,1.625-0.335s0.871-0.526,1.192-0.909s0.565-0.821,0.734-1.316
        C83.624,20.042,83.708,19.523,83.708,18.98z"/>
    <path fill="#666666" d="M96.428,16.184c-0.24-0.368-0.6-0.676-1.08-0.924s-0.992-0.372-1.536-0.372
        c-0.592,0-1.116,0.112-1.572,0.336c-0.456,0.225-0.844,0.524-1.164,0.9c-0.32,0.376-0.564,0.812-0.732,1.308
        s-0.252,1.017-0.252,1.56c0,0.545,0.084,1.064,0.252,1.561s0.412,0.933,0.732,1.308c0.32,0.376,0.712,0.677,1.176,0.9
        c0.464,0.225,0.992,0.336,1.584,0.336c0.576,0,1.1-0.111,1.572-0.336c0.472-0.224,0.86-0.528,1.164-0.912l1.512,1.368
        c-0.48,0.561-1.08,0.996-1.8,1.308c-0.72,0.312-1.536,0.468-2.448,0.468c-0.88,0-1.692-0.144-2.436-0.432
        c-0.744-0.288-1.388-0.691-1.932-1.212c-0.544-0.52-0.972-1.147-1.284-1.884s-0.468-1.561-0.468-2.473
        c0-0.896,0.152-1.711,0.456-2.447c0.304-0.736,0.728-1.368,1.272-1.896c0.543-0.527,1.188-0.936,1.932-1.224
        c0.744-0.288,1.548-0.433,2.412-0.433c0.8,0,1.596,0.16,2.388,0.48s1.419,0.784,1.884,1.392L96.428,16.184z"/>
    <path fill="#666666" d="M103.1,23.24c0,0.417-0.152,0.784-0.456,1.104c-0.304,0.32-0.688,0.479-1.152,0.479
        c-0.448,0-0.828-0.155-1.14-0.468c-0.312-0.312-0.468-0.676-0.468-1.092c0-0.432,0.152-0.804,0.456-1.116
        c0.304-0.312,0.688-0.468,1.152-0.468c0.464,0,0.848,0.152,1.152,0.456C102.947,22.44,103.1,22.808,103.1,23.24z"/>
    <path fill="#666666" d="M116.635,18.969c0,0.88-0.156,1.688-0.468,2.424c-0.312,0.736-0.744,1.372-1.296,1.908
        c-0.552,0.536-1.204,0.952-1.956,1.248c-0.752,0.296-1.56,0.443-2.424,0.443c-0.864,0-1.672-0.147-2.424-0.443
        c-0.752-0.296-1.4-0.712-1.944-1.248c-0.544-0.536-0.972-1.172-1.284-1.908c-0.312-0.735-0.468-1.544-0.468-2.424
        s0.156-1.684,0.468-2.412c0.312-0.728,0.74-1.356,1.284-1.884c0.543-0.528,1.191-0.939,1.944-1.236
        c0.752-0.296,1.56-0.444,2.424-0.444c0.864,0,1.672,0.148,2.424,0.444c0.752,0.297,1.404,0.708,1.956,1.236
        c0.552,0.527,0.984,1.156,1.296,1.884C116.479,17.285,116.635,18.089,116.635,18.969z M114.283,18.98
        c0-0.542-0.084-1.061-0.252-1.556c-0.169-0.494-0.414-0.929-0.734-1.304s-0.718-0.674-1.192-0.897s-1.015-0.335-1.625-0.335
        c-0.61,0-1.152,0.111-1.625,0.335c-0.474,0.224-0.871,0.522-1.191,0.897c-0.321,0.375-0.566,0.81-0.734,1.304
        c-0.169,0.495-0.253,1.014-0.253,1.556c0,0.543,0.084,1.062,0.253,1.556c0.168,0.495,0.413,0.934,0.734,1.316
        c0.321,0.383,0.718,0.686,1.191,0.909c0.473,0.224,1.015,0.335,1.625,0.335c0.61,0,1.151-0.111,1.625-0.335
        s0.871-0.526,1.192-0.909s0.565-0.821,0.734-1.316C114.199,20.042,114.283,19.523,114.283,18.98z"/>
    <path fill="#666666" d="M119.251,14.577c-0.016-0.48-0.04-0.904-0.072-1.272h2.136c0.032,0.288,0.056,0.62,0.072,0.996
        c0.016,0.376,0.024,0.684,0.024,0.924h0.072c0.32-0.672,0.788-1.212,1.404-1.62c0.616-0.408,1.308-0.612,2.076-0.612
        c0.352,0,0.648,0.033,0.888,0.097l-0.096,2.088c-0.32-0.08-0.664-0.12-1.032-0.12c-0.544,0-1.016,0.101-1.416,0.3
        c-0.4,0.2-0.732,0.468-0.996,0.805c-0.264,0.336-0.46,0.724-0.588,1.163c-0.128,0.44-0.192,0.9-0.192,1.381v5.976h-2.256v-8.928
        C119.275,15.449,119.267,15.056,119.251,14.577z"/>
    <path fill="#666666" d="M128.419,26.625c0.496,0.56,1.116,1.008,1.86,1.344c0.744,0.336,1.508,0.504,2.292,0.504
        c0.752,0,1.384-0.108,1.896-0.324s0.924-0.512,1.236-0.888s0.536-0.82,0.672-1.332c0.136-0.513,0.204-1.064,0.204-1.656v-1.464
        h-0.048c-0.416,0.641-0.984,1.128-1.704,1.464c-0.72,0.336-1.488,0.504-2.304,0.504c-0.864,0-1.652-0.151-2.364-0.456
        c-0.712-0.304-1.316-0.72-1.812-1.248c-0.496-0.527-0.88-1.147-1.152-1.859s-0.408-1.477-0.408-2.292
        c0-0.816,0.136-1.584,0.408-2.305c0.272-0.72,0.656-1.348,1.152-1.884c0.496-0.535,1.096-0.96,1.8-1.271
        c0.704-0.312,1.488-0.469,2.352-0.469c0.816,0,1.596,0.177,2.34,0.528c0.744,0.353,1.332,0.888,1.764,1.608h0.048v-1.824h2.184
        v10.8c0,0.832-0.104,1.628-0.312,2.388c-0.208,0.76-0.56,1.433-1.056,2.017s-1.144,1.052-1.944,1.404
        c-0.8,0.352-1.792,0.527-2.976,0.527c-0.992,0-1.988-0.18-2.988-0.54c-1-0.359-1.86-0.868-2.58-1.523L128.419,26.625z
         M129.091,18.873c0,0.527,0.084,1.031,0.253,1.512c0.168,0.479,0.417,0.904,0.746,1.271c0.329,0.369,0.726,0.664,1.192,0.889
        c0.465,0.224,0.995,0.336,1.589,0.336c0.577,0,1.107-0.104,1.589-0.312c0.481-0.207,0.891-0.491,1.228-0.852
        s0.598-0.784,0.782-1.272c0.185-0.487,0.277-1.012,0.277-1.571c0-0.544-0.093-1.057-0.277-1.536
        c-0.185-0.48-0.449-0.904-0.794-1.272c-0.345-0.367-0.755-0.66-1.228-0.876c-0.474-0.216-1-0.324-1.577-0.324
        c-0.594,0-1.124,0.108-1.589,0.324c-0.466,0.216-0.863,0.504-1.192,0.864s-0.578,0.784-0.746,1.271
        C129.175,17.812,129.091,18.329,129.091,18.873z"/>
</g>
<g><a xlink:href="/" pointer-events="all" target="_top"><polygon fill="none" points="0,0 145,0 145,35 0,35 0,0"/></a></g>

</g>


<!-- AnyBidirectionalIndex -->
<g id="node1" class="node">
<g id="a_node1"><a xlink:href="/swift-2/type/AnyBidirectionalIndex/" target="_top">
<polygon fill="#999999" stroke="#999999" points="3812.55,-22 3687.45,-22 3687.45,-0 3812.55,-0 3812.55,-22"/>
<text text-anchor="middle" x="3750" y="-7.4" font-family="Helvetica,sans-Serif" font-size="12.00" fill="white">AnyBidirectionalIndex</text>
</a>
</g>
</g>
<!-- AnyForwardIndex -->
<g id="node2" class="node">
<g id="a_node2"><a xlink:href="/swift-2/type/AnyForwardIndex/" target="_top">
<polygon fill="#999999" stroke="#999999" points="2988.03,-22 2883.97,-22 2883.97,-0 2988.03,-0 2988.03,-22"/>
<text text-anchor="middle" x="2936" y="-7.4" font-family="Helvetica,sans-Serif" font-size="12.00" fill="white">AnyForwardIndex</text>
</a>
</g>
</g>
<!-- AnyRandomAccessIndex -->
<g id="node3" class="node">
<g id="a_node3"><a xlink:href="/swift-2/type/AnyRandomAccessIndex/" target="_top">
<polygon fill="#999999" stroke="#999999" points="3157.05,-22 3012.95,-22 3012.95,-0 3157.05,-0 3157.05,-22"/>
<text text-anchor="middle" x="3085" y="-7.4" font-family="Helvetica,sans-Serif" font-size="12.00" fill="white">AnyRandomAccessIndex</text>
</a>
</g>
</g>
<!-- BidirectionalIndexType -->
<g id="node4" class="node">
<g id="a_node4"><a xlink:href="/swift-2/protocol/BidirectionalIndexType/" target="_top">
<path fill="#999999" stroke="#999999" d="M3310.73,-254C3310.73,-254 3195.27,-254 3195.27,-254 3191.61,-254 3187.94,-250.333 3187.94,-246.667 3187.94,-246.667 3187.94,-239.333 3187.94,-239.333 3187.94,-235.667 3191.61,-232 3195.27,-232 3195.27,-232 3310.73,-232 3310.73,-232 3314.39,-232 3318.06,-235.667 3318.06,-239.333 3318.06,-239.333 3318.06,-246.667 3318.06,-246.667 3318.06,-250.333 3314.39,-254 3310.73,-254"/>
<text text-anchor="middle" x="3253" y="-239.4" font-family="Helvetica,sans-Serif" font-size="12.00" fill="white">BidirectionalIndexType</text>
</a>
</g>
</g>
<!-- BidirectionalIndexType&#45;&gt;AnyBidirectionalIndex -->
<g id="edge58" class="edge">
<path fill="none" stroke="#cccccc" d="M3318.43,-234.563C3364.45,-227.929 3426.87,-216.073 3479,-196 3584.75,-155.275 3690.07,-66.463 3731.55,-29.1021"/>
<polygon fill="#cccccc" stroke="#cccccc" points="3734.16,-31.4647 3739.2,-22.1454 3729.45,-26.2876 3734.16,-31.4647"/>
</g>
<!-- BidirectionalIndexType&#45;&gt;AnyRandomAccessIndex -->
<g id="edge59" class="edge">
<path fill="none" stroke="#cccccc" d="M3251.43,-231.677C3247.6,-209.009 3236.08,-153.888 3210,-116 3183.57,-77.6012 3139.23,-45.4683 3111.08,-27.4944"/>
<polygon fill="#cccccc" stroke="#cccccc" points="3112.89,-24.4971 3102.55,-22.1662 3109.18,-30.4335 3112.89,-24.4971"/>
</g>
<!-- Bit -->
<g id="node5" class="node">
<g id="a_node5"><a xlink:href="/swift-2/type/Bit/" target="_top">
<polygon fill="#999999" stroke="#999999" points="3233,-22 3179,-22 3179,-0 3233,-0 3233,-22"/>
<text text-anchor="middle" x="3206" y="-7.4" font-family="Helvetica,sans-Serif" font-size="12.00" fill="white">Bit</text>
</a>
</g>
</g>
<!-- BidirectionalIndexType&#45;&gt;Bit -->
<g id="edge60" class="edge">
<path fill="none" stroke="#cccccc" d="M3255.08,-231.934C3260.51,-203.381 3272.99,-119.935 3248,-58 3243.52,-46.9046 3235.07,-36.8075 3226.91,-28.9184"/>
<polygon fill="#cccccc" stroke="#cccccc" points="3229.1,-26.1719 3219.33,-22.0706 3224.41,-31.3687 3229.1,-26.1719"/>
</g>
<!-- FlattenBidirectionalCollectionIndex -->
<g id="node8" class="node">
<g id="a_node8"><a xlink:href="/swift-2/type/FlattenBidirectionalCollectionIndex/" target="_top">
<polygon fill="#999999" stroke="#999999" points="4301.08,-22 4106.92,-22 4106.92,-0 4301.08,-0 4301.08,-22"/>
<text text-anchor="middle" x="4204" y="-7.4" font-family="Helvetica,sans-Serif" font-size="12.00" fill="white">FlattenBidirectionalCollectionIndex</text>
</a>
</g>
</g>
<!-- BidirectionalIndexType&#45;&gt;FlattenBidirectionalCollectionIndex -->
<g id="edge61" class="edge">
<path fill="none" stroke="#cccccc" d="M3318.21,-236.952C3390.04,-230.61 3508.68,-217.825 3609,-196 3825.37,-148.93 4076.32,-59.4214 4168.07,-25.4932"/>
<polygon fill="#cccccc" stroke="#cccccc" points="4169.3,-28.7709 4177.46,-22.0106 4166.86,-22.2081 4169.3,-28.7709"/>
</g>
<!-- Int -->
<g id="node11" class="node">
<g id="a_node11"><a xlink:href="/swift-2/type/Int/" target="_top">
<polygon fill="#999999" stroke="#999999" points="521,-22 467,-22 467,-0 521,-0 521,-22"/>
<text text-anchor="middle" x="494" y="-7.4" font-family="Helvetica,sans-Serif" font-size="12.00" fill="white">Int</text>
</a>
</g>
</g>
<!-- BidirectionalIndexType&#45;&gt;Int -->
<g id="edge62" class="edge">
<path fill="none" stroke="#cccccc" d="M3187.89,-242.176C2819.99,-242.984 1009.33,-244.457 766,-196 627.83,-168.484 550.325,-196.429 471,-80 460.773,-64.9887 469.646,-45.0286 479.186,-30.6206"/>
<polygon fill="#cccccc" stroke="#cccccc" points="482.056,-32.6247 485.047,-22.4609 476.371,-28.5408 482.056,-32.6247"/>
</g>
<!-- Int16 -->
<g id="node12" class="node">
<g id="a_node12"><a xlink:href="/swift-2/type/Int16/" target="_top">
<polygon fill="#999999" stroke="#999999" points="692,-22 638,-22 638,-0 692,-0 692,-22"/>
<text text-anchor="middle" x="665" y="-7.4" font-family="Helvetica,sans-Serif" font-size="12.00" fill="white">Int16</text>
</a>
</g>
</g>
<!-- BidirectionalIndexType&#45;&gt;Int16 -->
<g id="edge63" class="edge">
<path fill="none" stroke="#cccccc" d="M3187.84,-241.462C2880.62,-238.785 1574.8,-225.834 1168,-196 960.73,-180.799 877.558,-252.323 704,-138 669.561,-115.315 664.276,-62.1898 664.17,-32.6803"/>
<polygon fill="#cccccc" stroke="#cccccc" points="667.675,-32.3613 664.345,-22.3035 660.676,-32.2429 667.675,-32.3613"/>
</g>
<!-- Int32 -->
<g id="node13" class="node">
<g id="a_node13"><a xlink:href="/swift-2/type/Int32/" target="_top">
<polygon fill="#999999" stroke="#999999" points="1010,-22 956,-22 956,-0 1010,-0 1010,-22"/>
<text text-anchor="middle" x="983" y="-7.4" font-family="Helvetica,sans-Serif" font-size="12.00" fill="white">Int32</text>
</a>
</g>
</g>
<!-- BidirectionalIndexType&#45;&gt;Int32 -->
<g id="edge64" class="edge">
<path fill="none" stroke="#cccccc" d="M3187.73,-241.478C2851.28,-238.668 1324.92,-224.392 1229,-196 1136.66,-168.668 1119.62,-142.077 1046,-80 1027.9,-64.7365 1009.8,-44.5575 997.671,-30.1543"/>
<polygon fill="#cccccc" stroke="#cccccc" points="1000.34,-27.892 991.268,-22.4221 994.95,-32.3566 1000.34,-27.892"/>
</g>
<!-- Int64 -->
<g id="node14" class="node">
<g id="a_node14"><a xlink:href="/swift-2/type/Int64/" target="_top">
<polygon fill="#999999" stroke="#999999" points="1219,-22 1165,-22 1165,-0 1219,-0 1219,-22"/>
<text text-anchor="middle" x="1192" y="-7.4" font-family="Helvetica,sans-Serif" font-size="12.00" fill="white">Int64</text>
</a>
</g>
</g>
<!-- BidirectionalIndexType&#45;&gt;Int64 -->
<g id="edge65" class="edge">
<path fill="none" stroke="#cccccc" d="M3187.88,-241.526C2848.13,-238.926 1292.79,-225.431 1253,-196 1200.55,-157.203 1192.55,-71.6476 1191.77,-32.4011"/>
<polygon fill="#cccccc" stroke="#cccccc" points="1195.26,-32.2015 1191.71,-22.2219 1188.26,-32.2421 1195.26,-32.2015"/>
</g>
<!-- Int8 -->
<g id="node15" class="node">
<g id="a_node15"><a xlink:href="/swift-2/type/Int8/" target="_top">
<polygon fill="#999999" stroke="#999999" points="160,-22 106,-22 106,-0 160,-0 160,-22"/>
<text text-anchor="middle" x="133" y="-7.4" font-family="Helvetica,sans-Serif" font-size="12.00" fill="white">Int8</text>
</a>
</g>
</g>
<!-- BidirectionalIndexType&#45;&gt;Int8 -->
<g id="edge66" class="edge">
<path fill="none" stroke="#cccccc" d="M3187.81,-241.906C2832.92,-241.235 1130.46,-235.954 606,-196 600.019,-195.544 183.314,-140.784 178,-138 147.068,-121.796 137.634,-112.554 125,-80 118.968,-64.4579 121.947,-45.5357 125.873,-31.6018"/>
<polygon fill="#cccccc" stroke="#cccccc" points="129.213,-32.6484 128.927,-22.0575 122.546,-30.5152 129.213,-32.6484"/>
</g>
<!-- RandomAccessIndexType -->
<g id="node18" class="node">
<g id="a_node18"><a xlink:href="/swift-2/protocol/RandomAccessIndexType/" target="_top">
<path fill="#999999" stroke="#999999" d="M2606.23,-196C2606.23,-196 2471.77,-196 2471.77,-196 2468.11,-196 2464.44,-192.333 2464.44,-188.667 2464.44,-188.667 2464.44,-181.333 2464.44,-181.333 2464.44,-177.667 2468.11,-174 2471.77,-174 2471.77,-174 2606.23,-174 2606.23,-174 2609.89,-174 2613.56,-177.667 2613.56,-181.333 2613.56,-181.333 2613.56,-188.667 2613.56,-188.667 2613.56,-192.333 2609.89,-196 2606.23,-196"/>
<text text-anchor="middle" x="2539" y="-181.4" font-family="Helvetica,sans-Serif" font-size="12.00" fill="white">RandomAccessIndexType</text>
</a>
</g>
</g>
<!-- BidirectionalIndexType&#45;&gt;RandomAccessIndexType -->
<g id="edge67" class="edge">
<path fill="none" stroke="#cccccc" d="M3187.74,-236.882C3057.98,-226.704 2767.64,-203.933 2623.51,-192.628"/>
<polygon fill="#cccccc" stroke="#cccccc" points="2623.63,-189.127 2613.39,-191.834 2623.08,-196.106 2623.63,-189.127"/>
</g>
<!-- ReverseIndex -->
<g id="node19" class="node">
<g id="a_node19"><a xlink:href="/swift-2/type/ReverseIndex/" target="_top">
<polygon fill="#999999" stroke="#999999" points="3915.03,-22 3830.97,-22 3830.97,-0 3915.03,-0 3915.03,-22"/>
<text text-anchor="middle" x="3873" y="-7.4" font-family="Helvetica,sans-Serif" font-size="12.00" fill="white">ReverseIndex</text>
</a>
</g>
</g>
<!-- BidirectionalIndexType&#45;&gt;ReverseIndex -->
<g id="edge68" class="edge">
<path fill="none" stroke="#cccccc" d="M3318.12,-236.151C3372.18,-229.992 3450.54,-218.022 3516,-196 3649.03,-151.246 3793.58,-63.1101 3849.28,-27.4852"/>
<polygon fill="#cccccc" stroke="#cccccc" points="3851.23,-30.3955 3857.74,-22.0402 3847.44,-24.5093 3851.23,-30.3955"/>
</g>
<!-- ReverseIndexType -->
<g id="node20" class="node">
<g id="a_node20"><a xlink:href="/swift-2/protocol/ReverseIndexType/" target="_top">
<path fill="#999999" stroke="#999999" d="M3592.71,-80C3592.71,-80 3497.29,-80 3497.29,-80 3493.62,-80 3489.95,-76.3333 3489.95,-72.6667 3489.95,-72.6667 3489.95,-65.3333 3489.95,-65.3333 3489.95,-61.6667 3493.62,-58 3497.29,-58 3497.29,-58 3592.71,-58 3592.71,-58 3596.38,-58 3600.05,-61.6667 3600.05,-65.3333 3600.05,-65.3333 3600.05,-72.6667 3600.05,-72.6667 3600.05,-76.3333 3596.38,-80 3592.71,-80"/>
<text text-anchor="middle" x="3545" y="-65.4" font-family="Helvetica,sans-Serif" font-size="12.00" fill="white">ReverseIndexType</text>
</a>
</g>
</g>
<!-- BidirectionalIndexType&#45;&gt;ReverseIndexType -->
<g id="edge69" class="edge">
<path fill="none" stroke="#cccccc" d="M3288.11,-231.963C3313.6,-223.971 3348.48,-211.559 3377,-196 3435.8,-163.924 3496.73,-112.99 3526.45,-86.7877"/>
<polygon fill="#cccccc" stroke="#cccccc" points="3528.83,-89.3522 3533.98,-80.0893 3524.18,-84.1232 3528.83,-89.3522"/>
</g>
<!-- ReverseRandomAccessIndex -->
<g id="node21" class="node">
<g id="a_node21"><a xlink:href="/swift-2/type/ReverseRandomAccessIndex/" target="_top">
<polygon fill="#999999" stroke="#999999" points="3419.06,-22 3250.94,-22 3250.94,-0 3419.06,-0 3419.06,-22"/>
<text text-anchor="middle" x="3335" y="-7.4" font-family="Helvetica,sans-Serif" font-size="12.00" fill="white">ReverseRandomAccessIndex</text>
</a>
</g>
</g>
<!-- BidirectionalIndexType&#45;&gt;ReverseRandomAccessIndex -->
<g id="edge70" class="edge">
<path fill="none" stroke="#cccccc" d="M3258.57,-231.976C3263.54,-222.793 3270.81,-208.734 3276,-196 3299.76,-137.693 3320.39,-65.9793 3329.71,-31.8581"/>
<polygon fill="#cccccc" stroke="#cccccc" points="3333.1,-32.7321 3332.33,-22.1654 3326.35,-30.9067 3333.1,-32.7321"/>
</g>
<!-- String.CharacterView.Index -->
<g id="node24" class="node">
<g id="a_node24"><a xlink:href="/swift-2/type/String.CharacterView.Index/" target="_top">
<polygon fill="#999999" stroke="#999999" points="4088.4,-22 3933.6,-22 3933.6,-0 4088.4,-0 4088.4,-22"/>
<text text-anchor="middle" x="4011" y="-7.4" font-family="Helvetica,sans-Serif" font-size="12.00" fill="white">String.CharacterView.Index</text>
</a>
</g>
</g>
<!-- BidirectionalIndexType&#45;&gt;String.CharacterView.Index -->
<g id="edge78" class="edge">
<path fill="none" stroke="#cccccc" d="M3318.1,-236.729C3380.69,-230.608 3477.54,-218.362 3559,-196 3724.82,-150.483 3911.81,-61.4898 3982.18,-26.5637"/>
<polygon fill="#cccccc" stroke="#cccccc" points="3983.94,-29.5997 3991.32,-22.0045 3980.81,-23.3355 3983.94,-29.5997"/>
</g>
<!-- String.UTF16View.Index -->
<g id="node25" class="node">
<g id="a_node25"><a xlink:href="/swift-2/type/String.UTF16View.Index/" target="_top">
<polygon fill="#999999" stroke="#999999" points="4458.39,-22 4319.61,-22 4319.61,-0 4458.39,-0 4458.39,-22"/>
<text text-anchor="middle" x="4389" y="-7.4" font-family="Helvetica,sans-Serif" font-size="12.00" fill="white">String.UTF16View.Index</text>
</a>
</g>
</g>
<!-- BidirectionalIndexType&#45;&gt;String.UTF16View.Index -->
<g id="edge80" class="edge">
<path fill="none" stroke="#cccccc" d="M3318.26,-237.626C3400.52,-231.462 3546.04,-218.395 3669,-196 3929.94,-148.472 4236.11,-58.618 4346.58,-25.069"/>
<polygon fill="#cccccc" stroke="#cccccc" points="4347.8,-28.3561 4356.35,-22.0946 4345.76,-21.6597 4347.8,-28.3561"/>
</g>
<!-- String.UnicodeScalarView.Index -->
<g id="node27" class="node">
<g id="a_node27"><a xlink:href="/swift-2/type/String.UnicodeScalarView.Index/" target="_top">
<polygon fill="#999999" stroke="#999999" points="4803.92,-22 4624.08,-22 4624.08,-0 4803.92,-0 4803.92,-22"/>
<text text-anchor="middle" x="4714" y="-7.4" font-family="Helvetica,sans-Serif" font-size="12.00" fill="white">String.UnicodeScalarView.Index</text>
</a>
</g>
</g>
<!-- BidirectionalIndexType&#45;&gt;String.UnicodeScalarView.Index -->
<g id="edge79" class="edge">
<path fill="none" stroke="#cccccc" d="M3318.08,-237.755C3411.53,-231.226 3589,-217.207 3739,-196 4091.7,-146.136 4510.77,-56.7722 4658.86,-24.2568"/>
<polygon fill="#cccccc" stroke="#cccccc" points="4660.04,-27.5821 4669.05,-22.0152 4658.53,-20.7455 4660.04,-27.5821"/>
</g>
<!-- UInt -->
<g id="node28" class="node">
<g id="a_node28"><a xlink:href="/swift-2/type/UInt/" target="_top">
<polygon fill="#999999" stroke="#999999" points="1656,-22 1602,-22 1602,-0 1656,-0 1656,-22"/>
<text text-anchor="middle" x="1629" y="-7.4" font-family="Helvetica,sans-Serif" font-size="12.00" fill="white">UInt</text>
</a>
</g>
</g>
<!-- BidirectionalIndexType&#45;&gt;UInt -->
<g id="edge71" class="edge">
<path fill="none" stroke="#cccccc" d="M3187.6,-241.198C2976.98,-238.329 2317.78,-227.038 2107,-196 1932.3,-170.275 1883.44,-161.908 1727,-80 1698.52,-65.0895 1668.55,-43.2599 1649.36,-28.3841"/>
<polygon fill="#cccccc" stroke="#cccccc" points="1651.38,-25.5152 1641.35,-22.0884 1647.05,-31.0191 1651.38,-25.5152"/>
</g>
<!-- UInt16 -->
<g id="node29" class="node">
<g id="a_node29"><a xlink:href="/swift-2/type/UInt16/" target="_top">
<polygon fill="#999999" stroke="#999999" points="1903,-22 1849,-22 1849,-0 1903,-0 1903,-22"/>
<text text-anchor="middle" x="1876" y="-7.4" font-family="Helvetica,sans-Serif" font-size="12.00" fill="white">UInt16</text>
</a>
</g>
</g>
<!-- BidirectionalIndexType&#45;&gt;UInt16 -->
<g id="edge72" class="edge">
<path fill="none" stroke="#cccccc" d="M3187.52,-240.226C2939.05,-233.022 2063.13,-203.185 1958,-138 1917.88,-113.121 1893.51,-60.491 1882.67,-31.7495"/>
<polygon fill="#cccccc" stroke="#cccccc" points="1885.85,-30.2395 1879.17,-22.0113 1879.26,-32.6058 1885.85,-30.2395"/>
</g>
<!-- UInt32 -->
<g id="node30" class="node">
<g id="a_node30"><a xlink:href="/swift-2/type/UInt32/" target="_top">
<polygon fill="#999999" stroke="#999999" points="2254,-22 2200,-22 2200,-0 2254,-0 2254,-22"/>
<text text-anchor="middle" x="2227" y="-7.4" font-family="Helvetica,sans-Serif" font-size="12.00" fill="white">UInt32</text>
</a>
</g>
</g>
<!-- BidirectionalIndexType&#45;&gt;UInt32 -->
<g id="edge73" class="edge">
<path fill="none" stroke="#cccccc" d="M3208.25,-231.969C3036.71,-193.513 2422.7,-55.8696 2264.43,-20.3905"/>
<polygon fill="#cccccc" stroke="#cccccc" points="2264.78,-16.8814 2254.25,-18.1091 2263.24,-23.7118 2264.78,-16.8814"/>
</g>
<!-- UInt64 -->
<g id="node31" class="node">
<g id="a_node31"><a xlink:href="/swift-2/type/UInt64/" target="_top">
<polygon fill="#999999" stroke="#999999" points="2520,-22 2466,-22 2466,-0 2520,-0 2520,-22"/>
<text text-anchor="middle" x="2493" y="-7.4" font-family="Helvetica,sans-Serif" font-size="12.00" fill="white">UInt64</text>
</a>
</g>
</g>
<!-- BidirectionalIndexType&#45;&gt;UInt64 -->
<g id="edge74" class="edge">
<path fill="none" stroke="#cccccc" d="M3228.84,-231.984C3140.44,-195.383 2837.36,-70.3693 2792,-58 2699.7,-32.8314 2587.36,-20.19 2530.24,-14.9915"/>
<polygon fill="#cccccc" stroke="#cccccc" points="2530.5,-11.5012 2520.23,-14.1061 2529.88,-18.4739 2530.5,-11.5012"/>
</g>
<!-- UInt8 -->
<g id="node32" class="node">
<g id="a_node32"><a xlink:href="/swift-2/type/UInt8/" target="_top">
<polygon fill="#999999" stroke="#999999" points="2710,-22 2656,-22 2656,-0 2710,-0 2710,-22"/>
<text text-anchor="middle" x="2683" y="-7.4" font-family="Helvetica,sans-Serif" font-size="12.00" fill="white">UInt8</text>
</a>
</g>
</g>
<!-- BidirectionalIndexType&#45;&gt;UInt8 -->
<g id="edge75" class="edge">
<path fill="none" stroke="#cccccc" d="M3237.83,-231.901C3190.73,-201.014 3042.02,-106.957 2906,-58 2842.81,-35.2574 2765.29,-22.442 2720.28,-16.3935"/>
<polygon fill="#cccccc" stroke="#cccccc" points="2720.47,-12.8893 2710.1,-15.0676 2719.57,-19.8306 2720.47,-12.8893"/>
</g>
<!-- UnsafeMutablePointer -->
<g id="node33" class="node">
<g id="a_node33"><a xlink:href="/swift-2/type/UnsafeMutablePointer/" target="_top">
<polygon fill="#999999" stroke="#999999" points="3565.05,-22 3436.95,-22 3436.95,-0 3565.05,-0 3565.05,-22"/>
<text text-anchor="middle" x="3501" y="-7.4" font-family="Helvetica,sans-Serif" font-size="12.00" fill="white">UnsafeMutablePointer</text>
</a>
</g>
</g>
<!-- BidirectionalIndexType&#45;&gt;UnsafeMutablePointer -->
<g id="edge76" class="edge">
<path fill="none" stroke="#cccccc" d="M3263.98,-231.82C3302.79,-195.824 3433.83,-74.2909 3482.56,-29.1061"/>
<polygon fill="#cccccc" stroke="#cccccc" points="3485.2,-31.4283 3490.15,-22.062 3480.44,-26.2958 3485.2,-31.4283"/>
</g>
<!-- UnsafePointer -->
<g id="node34" class="node">
<g id="a_node34"><a xlink:href="/swift-2/type/UnsafePointer/" target="_top">
<polygon fill="#999999" stroke="#999999" points="3669.03,-22 3582.97,-22 3582.97,-0 3669.03,-0 3669.03,-22"/>
<text text-anchor="middle" x="3626" y="-7.4" font-family="Helvetica,sans-Serif" font-size="12.00" fill="white">UnsafePointer</text>
</a>
</g>
</g>
<!-- BidirectionalIndexType&#45;&gt;UnsafePointer -->
<g id="edge77" class="edge">
<path fill="none" stroke="#cccccc" d="M3316.61,-231.985C3398.23,-215.555 3537.75,-174.68 3609,-80 3619.38,-66.2079 3623.48,-46.8235 3625.06,-32.2781"/>
<polygon fill="#cccccc" stroke="#cccccc" points="3628.56,-32.5155 3625.85,-22.2711 3621.58,-31.9648 3628.56,-32.5155"/>
</g>
<!-- DictionaryIndex -->
<g id="node6" class="node">
<g id="a_node6"><a xlink:href="/swift-2/type/DictionaryIndex/" target="_top">
<polygon fill="#999999" stroke="#999999" points="5250.03,-22 5157.97,-22 5157.97,-0 5250.03,-0 5250.03,-22"/>
<text text-anchor="middle" x="5204" y="-7.4" font-family="Helvetica,sans-Serif" font-size="12.00" fill="white">DictionaryIndex</text>
</a>
</g>
</g>
<!-- Equatable -->
<g id="node7" class="node">
<g id="a_node7"><a xlink:href="/swift-2/protocol/Equatable/" target="_top">
<path fill="#999999" stroke="#999999" d="M3596.7,-428C3596.7,-428 3547.3,-428 3547.3,-428 3543.63,-428 3539.96,-424.333 3539.96,-420.667 3539.96,-420.667 3539.96,-413.333 3539.96,-413.333 3539.96,-409.667 3543.63,-406 3547.3,-406 3547.3,-406 3596.7,-406 3596.7,-406 3600.37,-406 3604.04,-409.667 3604.04,-413.333 3604.04,-413.333 3604.04,-420.667 3604.04,-420.667 3604.04,-424.333 3600.37,-428 3596.7,-428"/>
<text text-anchor="middle" x="3572" y="-413.4" font-family="Helvetica,sans-Serif" font-size="12.00" fill="white">Equatable</text>
</a>
</g>
</g>
<!-- _Incrementable -->
<g id="node37" class="node">
<g id="a_node37"><a xlink:href="/swift-2/protocol/_Incrementable/" target="_top">
<path fill="#ee543d" stroke="#ee543d" d="M3610.71,-370C3610.71,-370 3533.29,-370 3533.29,-370 3529.63,-370 3525.96,-366.333 3525.96,-362.667 3525.96,-362.667 3525.96,-355.333 3525.96,-355.333 3525.96,-351.667 3529.63,-348 3533.29,-348 3533.29,-348 3610.71,-348 3610.71,-348 3614.37,-348 3618.04,-351.667 3618.04,-355.333 3618.04,-355.333 3618.04,-362.667 3618.04,-362.667 3618.04,-366.333 3614.37,-370 3610.71,-370"/>
<text text-anchor="middle" x="3572" y="-355.4" font-family="Helvetica,sans-Serif" font-size="12.00" fill="white">_Incrementable</text>
</a>
</g>
</g>
<!-- Equatable&#45;&gt;_Incrementable -->
<g id="edge147" class="edge">
<path fill="none" stroke="#cccccc" d="M3572,-405.988C3572,-398.91 3572,-389.171 3572,-380.478"/>
<polygon fill="#cccccc" stroke="#cccccc" points="3575.5,-380.304 3572,-370.304 3568.5,-380.304 3575.5,-380.304"/>
</g>
<!-- FlattenCollectionIndex -->
<g id="node9" class="node">
<g id="a_node9"><a xlink:href="/swift-2/type/FlattenCollectionIndex/" target="_top">
<polygon fill="#999999" stroke="#999999" points="4605.05,-22 4476.95,-22 4476.95,-0 4605.05,-0 4605.05,-22"/>
<text text-anchor="middle" x="4541" y="-7.4" font-family="Helvetica,sans-Serif" font-size="12.00" fill="white">FlattenCollectionIndex</text>
</a>
</g>
</g>
<!-- ForwardIndexType -->
<g id="node10" class="node">
<g id="a_node10"><a xlink:href="/swift-2/protocol/ForwardIndexType/" target="_top">
<path fill="#999999" stroke="#999999" d="M3619.21,-312C3619.21,-312 3524.79,-312 3524.79,-312 3521.13,-312 3517.46,-308.333 3517.46,-304.667 3517.46,-304.667 3517.46,-297.333 3517.46,-297.333 3517.46,-293.667 3521.13,-290 3524.79,-290 3524.79,-290 3619.21,-290 3619.21,-290 3622.87,-290 3626.54,-293.667 3626.54,-297.333 3626.54,-297.333 3626.54,-304.667 3626.54,-304.667 3626.54,-308.333 3622.87,-312 3619.21,-312"/>
<text text-anchor="middle" x="3572" y="-297.4" font-family="Helvetica,sans-Serif" font-size="12.00" fill="white">ForwardIndexType</text>
</a>
</g>
</g>
<!-- ForwardIndexType&#45;&gt;AnyBidirectionalIndex -->
<g id="edge30" class="edge">
<path fill="none" stroke="#cccccc" d="M3614.42,-289.95C3643.16,-282.241 3681.5,-270.171 3713,-254 3816.63,-200.797 3864.19,-187.522 3909,-80 3912.76,-70.9746 3914.88,-65.8158 3909,-58 3897.98,-43.3453 3858.45,-31.8714 3821.56,-24.0482"/>
<polygon fill="#cccccc" stroke="#cccccc" points="3822.26,-20.6181 3811.76,-22.0387 3820.85,-27.4755 3822.26,-20.6181"/>
</g>
<!-- ForwardIndexType&#45;&gt;AnyForwardIndex -->
<g id="edge31" class="edge">
<path fill="none" stroke="#cccccc" d="M3517.41,-299.262C3415.87,-297.073 3202.42,-288.393 3138,-254 3039.5,-201.409 2969.7,-78.9304 2945.42,-31.369"/>
<polygon fill="#cccccc" stroke="#cccccc" points="2948.42,-29.5444 2940.81,-22.1668 2942.16,-32.6761 2948.42,-29.5444"/>
</g>
<!-- ForwardIndexType&#45;&gt;AnyRandomAccessIndex -->
<g id="edge32" class="edge">
<path fill="none" stroke="#cccccc" d="M3517.5,-298.445C3423.74,-294.982 3236.47,-284.381 3179,-254 3143.63,-235.299 3120,-226.012 3120,-186 3120,-186 3120,-186 3120,-126 3120,-91.3492 3105.04,-53.2797 3094.68,-31.0723"/>
<polygon fill="#cccccc" stroke="#cccccc" points="3097.82,-29.5302 3090.32,-22.0544 3091.52,-32.5803 3097.82,-29.5302"/>
</g>
<!-- ForwardIndexType&#45;&gt;BidirectionalIndexType -->
<g id="edge33" class="edge">
<path fill="none" stroke="#cccccc" d="M3517.52,-290.437C3462.94,-280.854 3378.81,-266.085 3320.13,-255.784"/>
<polygon fill="#cccccc" stroke="#cccccc" points="3320.67,-252.325 3310.21,-254.043 3319.46,-259.22 3320.67,-252.325"/>
</g>
<!-- ForwardIndexType&#45;&gt;Bit -->
<g id="edge34" class="edge">
<path fill="none" stroke="#cccccc" d="M3569.7,-289.886C3560.58,-252.241 3523.2,-119.258 3438,-58 3368.62,-8.1134 3331.01,-39.4786 3242.9,-21.9168"/>
<polygon fill="#cccccc" stroke="#cccccc" points="3243.57,-18.4822 3233.06,-19.7959 3242.1,-25.325 3243.57,-18.4822"/>
</g>
<!-- ForwardIndexType&#45;&gt;DictionaryIndex -->
<g id="edge35" class="edge">
<path fill="none" stroke="#cccccc" d="M3626.66,-299.589C3815.22,-297.865 4437.65,-289.555 4634,-254 4715.87,-239.174 4734.64,-226.625 4812,-196 4884.23,-167.407 5095.3,-65.0687 5173.98,-26.6833"/>
<polygon fill="#cccccc" stroke="#cccccc" points="5175.88,-29.6523 5183.33,-22.1198 5172.8,-23.3619 5175.88,-29.6523"/>
</g>
<!-- ForwardIndexType&#45;&gt;FlattenBidirectionalCollectionIndex -->
<g id="edge36" class="edge">
<path fill="none" stroke="#cccccc" d="M3626.71,-297.841C3719.33,-292.139 3910.62,-271.4 4051,-196 4122.72,-157.48 4174.28,-70.1317 4194.53,-31.2684"/>
<polygon fill="#cccccc" stroke="#cccccc" points="4197.68,-32.7859 4199.1,-22.2858 4191.45,-29.6126 4197.68,-32.7859"/>
</g>
<!-- ForwardIndexType&#45;&gt;FlattenCollectionIndex -->
<g id="edge37" class="edge">
<path fill="none" stroke="#cccccc" d="M3626.37,-299.191C3708.25,-296.845 3867.5,-287.882 3998,-254 4207.8,-199.529 4438.82,-71.5599 4515.04,-27.3459"/>
<polygon fill="#cccccc" stroke="#cccccc" points="4517.09,-30.2066 4523.96,-22.1448 4513.56,-24.16 4517.09,-30.2066"/>
</g>
<!-- ForwardIndexType&#45;&gt;Int -->
<g id="edge38" class="edge">
<path fill="none" stroke="#cccccc" d="M3517.42,-300.116C3155.36,-300.75 1106.11,-302.178 833,-254 677.42,-226.555 619.194,-238.135 497,-138 467.118,-113.513 451.712,-94.9477 463,-58 466.1,-47.8545 472.271,-37.923 478.298,-29.8998"/>
<polygon fill="#cccccc" stroke="#cccccc" points="481.092,-32.0104 484.628,-22.023 475.635,-27.6256 481.092,-32.0104"/>
</g>
<!-- ForwardIndexType&#45;&gt;Int16 -->
<g id="edge39" class="edge">
<path fill="none" stroke="#cccccc" d="M3517.23,-300.148C3214.26,-300.779 1740.94,-301.325 1289,-254 1015.4,-225.35 887.569,-319.679 681,-138 651.327,-111.902 655.358,-60.596 660.446,-32.1648"/>
<polygon fill="#cccccc" stroke="#cccccc" points="663.916,-32.6574 662.451,-22.1643 657.053,-31.2808 663.916,-32.6574"/>
</g>
<!-- ForwardIndexType&#45;&gt;Int32 -->
<g id="edge40" class="edge">
<path fill="none" stroke="#cccccc" d="M3517.29,-299.512C3243.05,-296.943 2016.21,-283.949 1636,-254 1386.52,-234.348 1292.81,-277.448 1085,-138 1052.85,-116.426 1044.05,-110.341 1020,-80 1008.18,-65.0837 998.11,-45.8597 991.477,-31.6595"/>
<polygon fill="#cccccc" stroke="#cccccc" points="994.577,-30.0195 987.277,-22.3408 988.195,-32.8958 994.577,-30.0195"/>
</g>
<!-- ForwardIndexType&#45;&gt;Int64 -->
<g id="edge41" class="edge">
<path fill="none" stroke="#cccccc" d="M3517.51,-298.752C3330.74,-294.356 2699.25,-278.524 2178,-254 2125.24,-251.518 1273.06,-225.128 1229,-196 1175.83,-160.852 1182.31,-71.9894 1188.33,-32.0196"/>
<polygon fill="#cccccc" stroke="#cccccc" points="1191.79,-32.5648 1189.96,-22.1278 1184.88,-31.4233 1191.79,-32.5648"/>
</g>
<!-- ForwardIndexType&#45;&gt;Int8 -->
<g id="edge42" class="edge">
<path fill="none" stroke="#cccccc" d="M3517.38,-299.76C3144.62,-298.042 981.569,-286.709 691,-254 443.178,-226.103 333.807,-297.386 142,-138 113.45,-114.275 112.174,-94.661 118,-58 119.412,-49.1169 122.267,-39.6171 125.111,-31.5707"/>
<polygon fill="#cccccc" stroke="#cccccc" points="128.465,-32.5958 128.721,-22.0041 121.916,-30.1244 128.465,-32.5958"/>
</g>
<!-- LazyFilterIndex -->
<g id="node17" class="node">
<g id="a_node17"><a xlink:href="/swift-2/type/LazyFilterIndex/" target="_top">
<polygon fill="#999999" stroke="#999999" points="4913.53,-22 4822.47,-22 4822.47,-0 4913.53,-0 4913.53,-22"/>
<text text-anchor="middle" x="4868" y="-7.4" font-family="Helvetica,sans-Serif" font-size="12.00" fill="white">LazyFilterIndex</text>
</a>
</g>
</g>
<!-- ForwardIndexType&#45;&gt;LazyFilterIndex -->
<g id="edge43" class="edge">
<path fill="none" stroke="#cccccc" d="M3626.43,-298.36C3715.41,-294.873 3897.23,-284.368 4048,-254 4335.88,-196.017 4395.97,-136.317 4679,-58 4724.11,-45.5162 4775.78,-33.0652 4813.68,-24.2714"/>
<polygon fill="#cccccc" stroke="#cccccc" points="4814.54,-27.6649 4823.5,-22.0041 4812.97,-20.8445 4814.54,-27.6649"/>
</g>
<!-- ForwardIndexType&#45;&gt;ReverseIndex -->
<g id="edge44" class="edge">
<path fill="none" stroke="#cccccc" d="M3624.75,-289.99C3660.33,-282.331 3707.92,-270.303 3748,-254 3881.97,-199.502 3954.92,-207.61 4023,-80 4027.6,-71.373 4028.81,-65.8624 4023,-58 4016.87,-49.7038 3965.45,-35.1155 3924.51,-24.5886"/>
<polygon fill="#cccccc" stroke="#cccccc" points="3925.18,-21.1476 3914.62,-22.0733 3923.45,-27.9314 3925.18,-21.1476"/>
</g>
<!-- ForwardIndexType&#45;&gt;ReverseRandomAccessIndex -->
<g id="edge45" class="edge">
<path fill="none" stroke="#cccccc" d="M3578.46,-289.764C3600.57,-253.335 3668.57,-128.408 3609,-58 3602.78,-50.6435 3497.53,-34.5433 3419.32,-23.4842"/>
<polygon fill="#cccccc" stroke="#cccccc" points="3419.36,-19.9543 3408.97,-22.0264 3418.38,-26.886 3419.36,-19.9543"/>
</g>
<!-- SetIndex -->
<g id="node22" class="node">
<g id="a_node22"><a xlink:href="/swift-2/type/SetIndex/" target="_top">
<polygon fill="#999999" stroke="#999999" points="4988.52,-22 4931.48,-22 4931.48,-0 4988.52,-0 4988.52,-22"/>
<text text-anchor="middle" x="4960" y="-7.4" font-family="Helvetica,sans-Serif" font-size="12.00" fill="white">SetIndex</text>
</a>
</g>
</g>
<!-- ForwardIndexType&#45;&gt;SetIndex -->
<g id="edge46" class="edge">
<path fill="none" stroke="#cccccc" d="M3626.45,-299.905C3786.51,-299.163 4253.45,-293.571 4400,-254 4584.99,-204.051 4604.91,-126.139 4784,-58 4840.35,-36.5601 4858.88,-37.8711 4921.38,-22.1095"/>
<polygon fill="#cccccc" stroke="#cccccc" points="4922.55,-25.4222 4931.37,-19.5418 4920.81,-18.6428 4922.55,-25.4222"/>
</g>
<!-- ForwardIndexType&#45;&gt;String.CharacterView.Index -->
<g id="edge54" class="edge">
<path fill="none" stroke="#cccccc" d="M3626.62,-291.1C3671.3,-283.207 3735.89,-270.394 3791,-254 3955.98,-204.924 4051.58,-229.435 4137,-80 4153.19,-51.6719 4119.65,-34.5159 4083.12,-24.523"/>
<polygon fill="#cccccc" stroke="#cccccc" points="4083.84,-21.0955 4073.29,-22.0128 4082.11,-27.8779 4083.84,-21.0955"/>
</g>
<!-- ForwardIndexType&#45;&gt;String.UTF16View.Index -->
<g id="edge56" class="edge">
<path fill="none" stroke="#cccccc" d="M3626.65,-298.468C3701.21,-295.233 3838.42,-285.184 3951,-254 4126.16,-205.482 4307.55,-74.6415 4368.01,-28.4347"/>
<polygon fill="#cccccc" stroke="#cccccc" points="4370.25,-31.1266 4376.03,-22.2513 4365.98,-25.5812 4370.25,-31.1266"/>
</g>
<!-- String.UTF8View.Index -->
<g id="node26" class="node">
<g id="a_node26"><a xlink:href="/swift-2/type/String.UTF8View.Index/" target="_top">
<polygon fill="#999999" stroke="#999999" points="5138.89,-22 5007.11,-22 5007.11,-0 5138.89,-0 5138.89,-22"/>
<text text-anchor="middle" x="5073" y="-7.4" font-family="Helvetica,sans-Serif" font-size="12.00" fill="white">String.UTF8View.Index</text>
</a>
</g>
</g>
<!-- ForwardIndexType&#45;&gt;String.UTF8View.Index -->
<g id="edge57" class="edge">
<path fill="none" stroke="#cccccc" d="M3626.56,-299.772C3764.63,-298.625 4138.88,-291.957 4448,-254 4605.28,-234.687 4798,-344.464 4798,-186 4798,-186 4798,-186 4798,-126 4798,-79.8445 4931.87,-42.6009 5012.8,-24.3014"/>
<polygon fill="#cccccc" stroke="#cccccc" points="5013.88,-27.647 5022.88,-22.0581 5012.36,-20.8141 5013.88,-27.647"/>
</g>
<!-- ForwardIndexType&#45;&gt;String.UnicodeScalarView.Index -->
<g id="edge55" class="edge">
<path fill="none" stroke="#cccccc" d="M3626.43,-298.845C3794.31,-295.003 4296.93,-281.326 4365,-254 4452.77,-218.763 4449.29,-169.916 4527,-116 4579.48,-79.5918 4645.81,-45.1782 4683.72,-26.5019"/>
<polygon fill="#cccccc" stroke="#cccccc" points="4685.28,-29.6382 4692.72,-22.1011 4682.2,-23.3497 4685.28,-29.6382"/>
</g>
<!-- ForwardIndexType&#45;&gt;UInt -->
<g id="edge47" class="edge">
<path fill="none" stroke="#cccccc" d="M3517.56,-299.883C3349.78,-299.092 2825.85,-293.4 2394,-254 2213.79,-237.559 2167.7,-235.037 1991,-196 1850.2,-164.893 1800.96,-169.623 1688,-80 1669.95,-65.6805 1653.13,-45.306 1642.1,-30.5971"/>
<polygon fill="#cccccc" stroke="#cccccc" points="1644.75,-28.2884 1636.02,-22.2757 1639.09,-32.416 1644.75,-28.2884"/>
</g>
<!-- ForwardIndexType&#45;&gt;UInt16 -->
<g id="edge48" class="edge">
<path fill="none" stroke="#cccccc" d="M3517.58,-298.05C3286.4,-289.472 2384.89,-252.967 2107,-196 2025.49,-179.29 1995.39,-188.15 1929,-138 1904.21,-119.277 1902.03,-108.641 1890,-80 1883.52,-64.5663 1879.95,-45.8662 1878.04,-31.9855"/>
<polygon fill="#cccccc" stroke="#cccccc" points="1881.51,-31.5499 1876.84,-22.0412 1874.56,-32.3884 1881.51,-31.5499"/>
</g>
<!-- ForwardIndexType&#45;&gt;UInt32 -->
<g id="edge49" class="edge">
<path fill="none" stroke="#cccccc" d="M3517.27,-296.344C3412.75,-289.23 3177.57,-272.584 2980,-254 2950.78,-251.252 2482.09,-207.279 2455,-196 2362.01,-157.285 2276.46,-68.3684 2242.48,-30.0801"/>
<polygon fill="#cccccc" stroke="#cccccc" points="2244.89,-27.5242 2235.67,-22.3052 2239.62,-32.1349 2244.89,-27.5242"/>
</g>
<!-- ForwardIndexType&#45;&gt;UInt64 -->
<g id="edge50" class="edge">
<path fill="none" stroke="#cccccc" d="M3517.3,-300.753C3422.19,-300.822 3220.82,-295.466 3057,-254 2843.55,-199.97 2804.54,-144.362 2602,-58 2576.77,-47.2413 2548.2,-35.1892 2526.64,-26.121"/>
<polygon fill="#cccccc" stroke="#cccccc" points="2527.84,-22.829 2517.27,-22.1799 2525.13,-29.282 2527.84,-22.829"/>
</g>
<!-- ForwardIndexType&#45;&gt;UInt8 -->
<g id="edge51" class="edge">
<path fill="none" stroke="#cccccc" d="M3517.63,-298.692C3410.43,-295.461 3175.8,-284.978 3102,-254 2976.91,-201.495 2988.92,-119.498 2868,-58 2820.27,-33.7269 2758.98,-21.7616 2720.33,-16.2422"/>
<polygon fill="#cccccc" stroke="#cccccc" points="2720.44,-12.7251 2710.06,-14.8516 2719.5,-19.6618 2720.44,-12.7251"/>
</g>
<!-- ForwardIndexType&#45;&gt;UnsafeMutablePointer -->
<g id="edge52" class="edge">
<path fill="none" stroke="#cccccc" d="M3594.35,-289.9C3609.74,-281.993 3629.73,-269.708 3643,-254 3703.19,-182.749 3776.72,-130.469 3718,-58 3708.82,-46.6681 3634.52,-32.64 3575.38,-23.0746"/>
<polygon fill="#cccccc" stroke="#cccccc" points="3575.71,-19.5832 3565.29,-21.4607 3574.61,-26.4955 3575.71,-19.5832"/>
</g>
<!-- ForwardIndexType&#45;&gt;UnsafePointer -->
<g id="edge53" class="edge">
<path fill="none" stroke="#cccccc" d="M3601.18,-289.983C3623.69,-281.716 3655.24,-268.943 3681,-254 3769.57,-202.626 3803.02,-178.206 3832,-80 3834.77,-70.6221 3838.11,-65.6302 3832,-58 3829.57,-54.9673 3739.86,-35.7453 3679.64,-23.1278"/>
<polygon fill="#cccccc" stroke="#cccccc" points="3680.01,-19.6299 3669.5,-21.0087 3678.58,-26.4817 3680.01,-19.6299"/>
</g>
<!-- Int&#45;&gt;Bit -->
<g id="edge81" class="edge">
<path fill="none" stroke="#cccccc" d="M521.093,-18.1345C549.857,-25.3122 596.764,-35.889 638,-40 707.627,-46.9414 3089.51,-58.4747 3157,-40 3166.28,-37.4589 3175.59,-32.6562 3183.56,-27.6796"/>
<polygon fill="#cccccc" stroke="#cccccc" points="3185.55,-30.5613 3191.93,-22.0983 3181.67,-24.7392 3185.55,-30.5613"/>
</g>
<!-- IntegerType -->
<g id="node16" class="node">
<g id="a_node16"><a xlink:href="/swift-2/protocol/IntegerType/" target="_top">
<path fill="#999999" stroke="#999999" d="M1454.2,-138C1454.2,-138 1395.8,-138 1395.8,-138 1392.13,-138 1388.47,-134.333 1388.47,-130.667 1388.47,-130.667 1388.47,-123.333 1388.47,-123.333 1388.47,-119.667 1392.13,-116 1395.8,-116 1395.8,-116 1454.2,-116 1454.2,-116 1457.87,-116 1461.53,-119.667 1461.53,-123.333 1461.53,-123.333 1461.53,-130.667 1461.53,-130.667 1461.53,-134.333 1457.87,-138 1454.2,-138"/>
<text text-anchor="middle" x="1425" y="-123.4" font-family="Helvetica,sans-Serif" font-size="12.00" fill="white">IntegerType</text>
</a>
</g>
</g>
<!-- IntegerType&#45;&gt;Int -->
<g id="edge98" class="edge">
<path fill="none" stroke="#cccccc" d="M1388.28,-124.878C1260.59,-120.786 836.54,-105.557 703,-80 639.468,-67.8415 568.43,-41.9673 527.686,-25.874"/>
<polygon fill="#cccccc" stroke="#cccccc" points="528.832,-22.5628 518.247,-22.1058 526.236,-29.0639 528.832,-22.5628"/>
</g>
<!-- IntegerType&#45;&gt;Int16 -->
<g id="edge99" class="edge">
<path fill="none" stroke="#cccccc" d="M1388.51,-115.998C1333.07,-101.168 1224.14,-73.4406 1130,-58 972.307,-32.1343 781.974,-18.8385 702.6,-14.0829"/>
<polygon fill="#cccccc" stroke="#cccccc" points="702.34,-10.5616 692.152,-13.4681 701.929,-17.5495 702.34,-10.5616"/>
</g>
<!-- IntegerType&#45;&gt;Int32 -->
<g id="edge100" class="edge">
<path fill="none" stroke="#cccccc" d="M1418.4,-115.833C1407.76,-100.387 1385.21,-71.3947 1358,-58 1299.09,-28.9992 1102.93,-17.2238 1020.26,-13.4693"/>
<polygon fill="#cccccc" stroke="#cccccc" points="1020.2,-9.96374 1010.06,-13.0211 1019.9,-16.957 1020.2,-9.96374"/>
</g>
<!-- IntegerType&#45;&gt;Int64 -->
<g id="edge101" class="edge">
<path fill="none" stroke="#cccccc" d="M1423.63,-115.988C1421.03,-101.014 1413.94,-72.9536 1396,-58 1371.02,-37.1799 1281.09,-22.9717 1229.35,-16.318"/>
<polygon fill="#cccccc" stroke="#cccccc" points="1229.6,-12.8211 1219.24,-15.0507 1228.73,-19.7668 1229.6,-12.8211"/>
</g>
<!-- IntegerType&#45;&gt;Int8 -->
<g id="edge102" class="edge">
<path fill="none" stroke="#cccccc" d="M1388.32,-124.985C1274.06,-121.594 914.421,-109.178 618,-80 450.371,-63.4994 251.742,-31.8155 170.476,-18.3287"/>
<polygon fill="#cccccc" stroke="#cccccc" points="170.692,-14.8165 160.253,-16.6251 169.541,-21.7213 170.692,-14.8165"/>
</g>
<!-- SignedIntegerType -->
<g id="node23" class="node">
<g id="a_node23"><a xlink:href="/swift-2/protocol/SignedIntegerType/" target="_top">
<path fill="#999999" stroke="#999999" d="M814.727,-80C814.727,-80 719.273,-80 719.273,-80 715.606,-80 711.94,-76.3333 711.94,-72.6667 711.94,-72.6667 711.94,-65.3333 711.94,-65.3333 711.94,-61.6667 715.606,-58 719.273,-58 719.273,-58 814.727,-58 814.727,-58 818.394,-58 822.06,-61.6667 822.06,-65.3333 822.06,-65.3333 822.06,-72.6667 822.06,-72.6667 822.06,-76.3333 818.394,-80 814.727,-80"/>
<text text-anchor="middle" x="767" y="-65.4" font-family="Helvetica,sans-Serif" font-size="12.00" fill="white">SignedIntegerType</text>
</a>
</g>
</g>
<!-- IntegerType&#45;&gt;SignedIntegerType -->
<g id="edge103" class="edge">
<path fill="none" stroke="#cccccc" d="M1388.21,-122.869C1281.25,-113.766 969.293,-87.2164 832.533,-75.5772"/>
<polygon fill="#cccccc" stroke="#cccccc" points="832.468,-72.0592 822.207,-74.6985 831.875,-79.034 832.468,-72.0592"/>
</g>
<!-- IntegerType&#45;&gt;UInt -->
<g id="edge104" class="edge">
<path fill="none" stroke="#cccccc" d="M1430.99,-115.647C1440.12,-100.754 1458.93,-73.3858 1482,-58 1515.48,-35.6702 1560.39,-23.6975 1591.73,-17.6215"/>
<polygon fill="#cccccc" stroke="#cccccc" points="1592.59,-21.0218 1601.8,-15.7805 1591.34,-14.1359 1592.59,-21.0218"/>
</g>
<!-- IntegerType&#45;&gt;UInt16 -->
<g id="edge105" class="edge">
<path fill="none" stroke="#cccccc" d="M1459.63,-115.913C1507.29,-102.16 1595.85,-77.0576 1672,-58 1730.12,-43.4559 1798.07,-28.5488 1839.04,-19.7898"/>
<polygon fill="#cccccc" stroke="#cccccc" points="1839.79,-23.2067 1848.85,-17.6994 1838.34,-16.3604 1839.79,-23.2067"/>
</g>
<!-- IntegerType&#45;&gt;UInt32 -->
<g id="edge106" class="edge">
<path fill="none" stroke="#cccccc" d="M1461.54,-120.805C1594.91,-101.848 2054.62,-36.5024 2189.51,-17.3285"/>
<polygon fill="#cccccc" stroke="#cccccc" points="2190.34,-20.7468 2199.74,-15.8742 2189.35,-13.8164 2190.34,-20.7468"/>
</g>
<!-- IntegerType&#45;&gt;UInt64 -->
<g id="edge107" class="edge">
<path fill="none" stroke="#cccccc" d="M1461.42,-125.403C1567.95,-123.288 1888.01,-114.322 2151,-80 2263.02,-65.3807 2393.45,-35.9418 2455.93,-21.0571"/>
<polygon fill="#cccccc" stroke="#cccccc" points="2456.81,-24.4456 2465.72,-18.7115 2455.18,-17.6384 2456.81,-24.4456"/>
</g>
<!-- IntegerType&#45;&gt;UInt8 -->
<g id="edge108" class="edge">
<path fill="none" stroke="#cccccc" d="M1461.69,-125.12C1576,-122.118 1935.73,-110.712 2232,-80 2386.4,-63.9948 2568.79,-32.6288 2645.77,-18.8116"/>
<polygon fill="#cccccc" stroke="#cccccc" points="2646.69,-22.2008 2655.91,-16.9819 2645.45,-15.3118 2646.69,-22.2008"/>
</g>
<!-- UnsignedIntegerType -->
<g id="node35" class="node">
<g id="a_node35"><a xlink:href="/swift-2/protocol/UnsignedIntegerType/" target="_top">
<path fill="#999999" stroke="#999999" d="M2134.73,-80C2134.73,-80 2025.27,-80 2025.27,-80 2021.61,-80 2017.94,-76.3333 2017.94,-72.6667 2017.94,-72.6667 2017.94,-65.3333 2017.94,-65.3333 2017.94,-61.6667 2021.61,-58 2025.27,-58 2025.27,-58 2134.73,-58 2134.73,-58 2138.39,-58 2142.06,-61.6667 2142.06,-65.3333 2142.06,-65.3333 2142.06,-72.6667 2142.06,-72.6667 2142.06,-76.3333 2138.39,-80 2134.73,-80"/>
<text text-anchor="middle" x="2080" y="-65.4" font-family="Helvetica,sans-Serif" font-size="12.00" fill="white">UnsignedIntegerType</text>
</a>
</g>
</g>
<!-- IntegerType&#45;&gt;UnsignedIntegerType -->
<g id="edge109" class="edge">
<path fill="none" stroke="#cccccc" d="M1461.62,-122.869C1566.29,-113.92 1868.19,-88.1086 2007.72,-76.1798"/>
<polygon fill="#cccccc" stroke="#cccccc" points="2008.22,-79.65 2017.88,-75.3108 2007.62,-72.6755 2008.22,-79.65"/>
</g>
<!-- RandomAccessIndexType&#45;&gt;AnyRandomAccessIndex -->
<g id="edge82" class="edge">
<path fill="none" stroke="#cccccc" d="M2571.12,-173.883C2664.9,-144.339 2938.34,-58.2003 3043.3,-25.135"/>
<polygon fill="#cccccc" stroke="#cccccc" points="3044.44,-28.4475 3052.92,-22.1045 3042.33,-21.7709 3044.44,-28.4475"/>
</g>
<!-- RandomAccessIndexType&#45;&gt;Bit -->
<g id="edge83" class="edge">
<path fill="none" stroke="#cccccc" d="M2583.47,-173.976C2623.25,-164.909 2683.13,-151.021 2735,-138 2897.25,-97.2687 3089.69,-44.3348 3169.01,-22.3126"/>
<polygon fill="#cccccc" stroke="#cccccc" points="3170.3,-25.5869 3179,-19.5371 3168.42,-18.8425 3170.3,-25.5869"/>
</g>
<!-- RandomAccessIndexType&#45;&gt;Int -->
<g id="edge84" class="edge">
<path fill="none" stroke="#cccccc" d="M2464.41,-184.044C2146.05,-183.969 909.514,-180.893 741,-138 720.196,-132.705 718.105,-123.525 698,-116 635.812,-92.7248 609.617,-114.693 553,-80 532.914,-67.692 516.028,-46.3064 505.537,-30.7981"/>
<polygon fill="#cccccc" stroke="#cccccc" points="508.234,-28.5246 499.86,-22.0352 502.36,-32.3308 508.234,-28.5246"/>
</g>
<!-- RandomAccessIndexType&#45;&gt;Int16 -->
<g id="edge85" class="edge">
<path fill="none" stroke="#cccccc" d="M2464.31,-182.861C2230.76,-179.047 1516.21,-165.393 1286,-138 1061.77,-111.317 797.862,-46.414 702.076,-21.7391"/>
<polygon fill="#cccccc" stroke="#cccccc" points="702.843,-18.3224 692.285,-19.2059 701.09,-25.0992 702.843,-18.3224"/>
</g>
<!-- RandomAccessIndexType&#45;&gt;Int32 -->
<g id="edge86" class="edge">
<path fill="none" stroke="#cccccc" d="M2464.27,-183.677C2242.19,-182.3 1588.62,-175.118 1379,-138 1264.54,-117.733 1240.8,-93.135 1130,-58 1092.44,-46.0902 1049.42,-32.6516 1019.67,-23.3894"/>
<polygon fill="#cccccc" stroke="#cccccc" points="1020.7,-20.0456 1010.11,-20.4166 1018.62,-26.7295 1020.7,-20.0456"/>
</g>
<!-- RandomAccessIndexType&#45;&gt;Int64 -->
<g id="edge87" class="edge">
<path fill="none" stroke="#cccccc" d="M2464.35,-181.465C2342.2,-176.715 2092.16,-164.463 1882,-138 1752.13,-121.647 1353.77,-43.9004 1229.46,-19.4074"/>
<polygon fill="#cccccc" stroke="#cccccc" points="1229.79,-15.9053 1219.3,-17.4044 1228.44,-22.773 1229.79,-15.9053"/>
</g>
<!-- RandomAccessIndexType&#45;&gt;Int8 -->
<g id="edge88" class="edge">
<path fill="none" stroke="#cccccc" d="M2464.42,-183.165C2165.07,-179.656 1050.05,-165.014 698,-138 496.937,-122.572 438.702,-145.553 248,-80 212.72,-67.8727 176.377,-44.142 154.233,-28.1754"/>
<polygon fill="#cccccc" stroke="#cccccc" points="156.058,-25.1733 145.928,-22.0687 151.911,-30.8127 156.058,-25.1733"/>
</g>
<!-- RandomAccessIndexType&#45;&gt;IntegerType -->
<g id="edge89" class="edge">
<path fill="none" stroke="#cccccc" d="M2464.61,-180.261C2251.8,-169.563 1644.73,-139.046 1471.61,-130.343"/>
<polygon fill="#cccccc" stroke="#cccccc" points="1471.71,-126.844 1461.55,-129.837 1471.36,-133.835 1471.71,-126.844"/>
</g>
<!-- RandomAccessIndexType&#45;&gt;ReverseRandomAccessIndex -->
<g id="edge90" class="edge">
<path fill="none" stroke="#cccccc" d="M2598.47,-173.957C2649.63,-165.123 2725.35,-151.587 2791,-138 2973.5,-100.229 3188.68,-48.1308 3284.54,-24.5241"/>
<polygon fill="#cccccc" stroke="#cccccc" points="3285.67,-27.8516 3294.54,-22.0591 3283.99,-21.0552 3285.67,-27.8516"/>
</g>
<!-- RandomAccessIndexType&#45;&gt;UInt -->
<g id="edge91" class="edge">
<path fill="none" stroke="#cccccc" d="M2464.61,-184.869C2353.11,-184.662 2136.63,-178.392 1958,-138 1842.95,-111.986 1714.54,-53.6652 1658.19,-26.4725"/>
<polygon fill="#cccccc" stroke="#cccccc" points="1659.67,-23.3018 1649.14,-22.0779 1656.61,-29.5975 1659.67,-23.3018"/>
</g>
<!-- RandomAccessIndexType&#45;&gt;UInt16 -->
<g id="edge92" class="edge">
<path fill="none" stroke="#cccccc" d="M2464.57,-181.249C2323.29,-175.529 2026.7,-160.942 1986,-138 1947.74,-116.437 1957.51,-90.5221 1928,-58 1918.51,-47.5401 1906.81,-37.0173 1896.91,-28.6811"/>
<polygon fill="#cccccc" stroke="#cccccc" points="1899.05,-25.909 1889.11,-22.2423 1894.6,-31.3074 1899.05,-25.909"/>
</g>
<!-- RandomAccessIndexType&#45;&gt;UInt32 -->
<g id="edge93" class="edge">
<path fill="none" stroke="#cccccc" d="M2527.49,-173.901C2511.07,-159.799 2479.61,-133.926 2450,-116 2387.02,-77.8679 2307.76,-43.9407 2262.69,-25.8407"/>
<polygon fill="#cccccc" stroke="#cccccc" points="2263.93,-22.5659 2253.34,-22.1166 2261.34,-29.0689 2263.93,-22.5659"/>
</g>
<!-- RandomAccessIndexType&#45;&gt;UInt64 -->
<g id="edge94" class="edge">
<path fill="none" stroke="#cccccc" d="M2536.26,-173.756C2528.86,-146.097 2508.38,-69.5091 2498.49,-32.5186"/>
<polygon fill="#cccccc" stroke="#cccccc" points="2501.75,-31.1643 2495.78,-22.4081 2494.99,-32.9729 2501.75,-31.1643"/>
</g>
<!-- RandomAccessIndexType&#45;&gt;UInt8 -->
<g id="edge95" class="edge">
<path fill="none" stroke="#cccccc" d="M2552.73,-173.843C2587.63,-148.007 2677.07,-81.7018 2678,-80 2685.89,-65.5805 2686.7,-46.7942 2685.78,-32.6224"/>
<polygon fill="#cccccc" stroke="#cccccc" points="2689.23,-32.0269 2684.77,-22.4177 2682.27,-32.7124 2689.23,-32.0269"/>
</g>
<!-- RandomAccessIndexType&#45;&gt;UnsafeMutablePointer -->
<g id="edge96" class="edge">
<path fill="none" stroke="#cccccc" d="M2613.38,-174.098C2677.1,-165.377 2771.26,-151.927 2853,-138 3072.06,-100.677 3331.03,-47.6087 3443.78,-24.0579"/>
<polygon fill="#cccccc" stroke="#cccccc" points="3444.51,-27.4805 3453.58,-22.0074 3443.07,-20.6288 3444.51,-27.4805"/>
</g>
<!-- RandomAccessIndexType&#45;&gt;UnsafePointer -->
<g id="edge97" class="edge">
<path fill="none" stroke="#cccccc" d="M2613.53,-176.42C2691.4,-168.196 2817.03,-154.069 2925,-138 3167.79,-101.868 3455.55,-46.0093 3572.55,-22.7429"/>
<polygon fill="#cccccc" stroke="#cccccc" points="3573.55,-26.113 3582.67,-20.7268 3572.18,-19.2479 3573.55,-26.113"/>
</g>
<!-- ReverseIndexType&#45;&gt;ReverseIndex -->
<g id="edge120" class="edge">
<path fill="none" stroke="#cccccc" d="M3600.05,-59.2372C3653.69,-50.6072 3737.79,-36.8282 3820.87,-21.9872"/>
<polygon fill="#cccccc" stroke="#cccccc" points="3821.51,-25.4291 3830.73,-20.2197 3820.27,-18.5389 3821.51,-25.4291"/>
</g>
<!-- ReverseIndexType&#45;&gt;ReverseRandomAccessIndex -->
<g id="edge121" class="edge">
<path fill="none" stroke="#cccccc" d="M3507.46,-57.9883C3472.48,-48.6603 3420.17,-34.7132 3382.34,-24.6252"/>
<polygon fill="#cccccc" stroke="#cccccc" points="3383.14,-21.2141 3372.57,-22.0192 3381.33,-27.9778 3383.14,-21.2141"/>
</g>
<!-- SignedIntegerType&#45;&gt;Int -->
<g id="edge110" class="edge">
<path fill="none" stroke="#cccccc" d="M718.193,-57.9883C664.612,-46.9972 579.767,-29.5933 531.273,-19.6457"/>
<polygon fill="#cccccc" stroke="#cccccc" points="531.711,-16.1628 521.212,-17.5819 530.304,-23.02 531.711,-16.1628"/>
</g>
<!-- SignedIntegerType&#45;&gt;Int16 -->
<g id="edge111" class="edge">
<path fill="none" stroke="#cccccc" d="M748.764,-57.9883C733.052,-49.3619 710.144,-36.785 692.255,-26.9633"/>
<polygon fill="#cccccc" stroke="#cccccc" points="693.872,-23.8584 683.422,-22.1138 690.503,-29.9945 693.872,-23.8584"/>
</g>
<!-- SignedIntegerType&#45;&gt;Int32 -->
<g id="edge112" class="edge">
<path fill="none" stroke="#cccccc" d="M805.616,-57.9883C845.383,-47.6784 906.915,-31.7257 946.058,-21.5777"/>
<polygon fill="#cccccc" stroke="#cccccc" points="947.182,-24.902 955.983,-19.0044 945.425,-18.1261 947.182,-24.902"/>
</g>
<!-- SignedIntegerType&#45;&gt;Int64 -->
<g id="edge113" class="edge">
<path fill="none" stroke="#cccccc" d="M822.126,-60.7364C910.074,-49.1478 1079.85,-26.7778 1154.84,-16.8964"/>
<polygon fill="#cccccc" stroke="#cccccc" points="1155.32,-20.3639 1164.77,-15.5874 1154.4,-13.4238 1155.32,-20.3639"/>
</g>
<!-- SignedIntegerType&#45;&gt;Int8 -->
<g id="edge114" class="edge">
<path fill="none" stroke="#cccccc" d="M711.846,-63.1283C585.31,-51.9517 276.841,-24.7052 170.085,-15.2757"/>
<polygon fill="#cccccc" stroke="#cccccc" points="170.375,-11.7877 160.106,-14.3942 169.759,-18.7606 170.375,-11.7877"/>
</g>
<!-- UnsignedIntegerType&#45;&gt;UInt -->
<g id="edge115" class="edge">
<path fill="none" stroke="#cccccc" d="M2017.76,-60.2722C1922.56,-48.4514 1743.69,-26.2408 1666.28,-16.6287"/>
<polygon fill="#cccccc" stroke="#cccccc" points="1666.4,-13.1173 1656.05,-15.3584 1665.54,-20.064 1666.4,-13.1173"/>
</g>
<!-- UnsignedIntegerType&#45;&gt;UInt16 -->
<g id="edge116" class="edge">
<path fill="none" stroke="#cccccc" d="M2043.53,-57.9883C2006.65,-47.866 1949.97,-32.3046 1912.93,-22.1375"/>
<polygon fill="#cccccc" stroke="#cccccc" points="1913.61,-18.694 1903.04,-19.4219 1911.75,-25.4443 1913.61,-18.694"/>
</g>
<!-- UnsignedIntegerType&#45;&gt;UInt32 -->
<g id="edge117" class="edge">
<path fill="none" stroke="#cccccc" d="M2106.28,-57.9883C2129.86,-49.0057 2164.68,-35.7398 2190.88,-25.7614"/>
<polygon fill="#cccccc" stroke="#cccccc" points="2192.35,-28.9445 2200.45,-22.1138 2189.86,-22.4031 2192.35,-28.9445"/>
</g>
<!-- UnsignedIntegerType&#45;&gt;UInt64 -->
<g id="edge118" class="edge">
<path fill="none" stroke="#cccccc" d="M2142.28,-59.5556C2229.3,-47.756 2384.57,-26.7021 2455.63,-17.0667"/>
<polygon fill="#cccccc" stroke="#cccccc" points="2456.45,-20.4878 2465.89,-15.6758 2455.51,-13.5513 2456.45,-20.4878"/>
</g>
<!-- UnsignedIntegerType&#45;&gt;UInt8 -->
<g id="edge119" class="edge">
<path fill="none" stroke="#cccccc" d="M2142.26,-62.2179C2267.23,-50.6123 2545.24,-24.7935 2645.8,-15.4552"/>
<polygon fill="#cccccc" stroke="#cccccc" points="2646.16,-18.9368 2655.79,-14.527 2645.51,-11.9668 2646.16,-18.9368"/>
</g>
<!-- _DisallowMixedSignArithmetic -->
<g id="node36" class="node">
<g id="a_node36"><a xlink:href="/swift-2/protocol/_DisallowMixedSignArithmetic/" target="_top">
<path fill="#999999" stroke="#999999" d="M2157.71,-138C2157.71,-138 2002.29,-138 2002.29,-138 1998.62,-138 1994.96,-134.333 1994.96,-130.667 1994.96,-130.667 1994.96,-123.333 1994.96,-123.333 1994.96,-119.667 1998.62,-116 2002.29,-116 2002.29,-116 2157.71,-116 2157.71,-116 2161.38,-116 2165.04,-119.667 2165.04,-123.333 2165.04,-123.333 2165.04,-130.667 2165.04,-130.667 2165.04,-134.333 2161.38,-138 2157.71,-138"/>
<text text-anchor="middle" x="2080" y="-123.4" font-family="Helvetica,sans-Serif" font-size="12.00" fill="white">_DisallowMixedSignArithmetic</text>
</a>
</g>
</g>
<!-- _DisallowMixedSignArithmetic&#45;&gt;UInt -->
<g id="edge135" class="edge">
<path fill="none" stroke="#cccccc" d="M2040.37,-115.983C1954.02,-94.1555 1749.91,-42.5614 1666,-21.3527"/>
<polygon fill="#cccccc" stroke="#cccccc" points="1666.7,-17.9192 1656.15,-18.8618 1664.98,-24.7058 1666.7,-17.9192"/>
</g>
<!-- _DisallowMixedSignArithmetic&#45;&gt;UInt16 -->
<g id="edge136" class="edge">
<path fill="none" stroke="#cccccc" d="M2063.96,-115.979C2042.07,-102.409 2001.49,-77.6289 1966,-58 1946.18,-47.0371 1923.46,-35.4334 1905.81,-26.6229"/>
<polygon fill="#cccccc" stroke="#cccccc" points="1907.09,-23.3502 1896.57,-22.0374 1903.97,-29.6198 1907.09,-23.3502"/>
</g>
<!-- _DisallowMixedSignArithmetic&#45;&gt;UInt32 -->
<g id="edge137" class="edge">
<path fill="none" stroke="#cccccc" d="M2097.14,-115.928C2111.84,-107.049 2133.38,-93.464 2151,-80 2171.89,-64.0385 2194.12,-43.7135 2209.1,-29.4582"/>
<polygon fill="#cccccc" stroke="#cccccc" points="2211.84,-31.6813 2216.63,-22.2293 2206.99,-26.6334 2211.84,-31.6813"/>
</g>
<!-- _DisallowMixedSignArithmetic&#45;&gt;UInt64 -->
<g id="edge138" class="edge">
<path fill="none" stroke="#cccccc" d="M2165.31,-120.874C2225.09,-115.318 2306.11,-103.799 2374,-80 2393.15,-73.2875 2439.6,-45.3401 2468.47,-27.4295"/>
<polygon fill="#cccccc" stroke="#cccccc" points="2470.54,-30.2662 2477.17,-22.0066 2466.84,-24.3255 2470.54,-30.2662"/>
</g>
<!-- _DisallowMixedSignArithmetic&#45;&gt;UInt8 -->
<g id="edge139" class="edge">
<path fill="none" stroke="#cccccc" d="M2165.32,-121.932C2248.51,-116.668 2378.19,-105.007 2488,-80 2546.57,-66.6634 2611.99,-41.6608 2650.21,-25.9723"/>
<polygon fill="#cccccc" stroke="#cccccc" points="2651.89,-29.0672 2659.78,-22.0046 2649.21,-22.6008 2651.89,-29.0672"/>
</g>
<!-- _DisallowMixedSignArithmetic&#45;&gt;UnsignedIntegerType -->
<g id="edge140" class="edge">
<path fill="none" stroke="#cccccc" d="M2080,-115.988C2080,-108.91 2080,-99.1714 2080,-90.4779"/>
<polygon fill="#cccccc" stroke="#cccccc" points="2083.5,-90.3038 2080,-80.3039 2076.5,-90.3039 2083.5,-90.3038"/>
</g>
<!-- _Incrementable&#45;&gt;AnyBidirectionalIndex -->
<g id="edge1" class="edge">
<path fill="none" stroke="#cccccc" d="M3618.1,-358.613C3704.56,-358.747 3886.28,-353.885 3930,-312 3980.58,-263.542 3963.14,-103.296 3925,-58 3911.47,-41.9273 3864.29,-30.0914 3822.33,-22.4532"/>
<polygon fill="#cccccc" stroke="#cccccc" points="3822.81,-18.9846 3812.35,-20.6971 3821.6,-25.8785 3822.81,-18.9846"/>
</g>
<!-- _Incrementable&#45;&gt;AnyForwardIndex -->
<g id="edge2" class="edge">
<path fill="none" stroke="#cccccc" d="M3525.72,-358.141C3455.81,-357.023 3319.99,-349.629 3212,-312 3094.61,-271.096 3064.52,-239.68 2993,-138 2975.54,-113.185 2969.58,-107.609 2957,-80 2949.97,-64.5628 2944.44,-46.1248 2940.82,-32.3451"/>
<polygon fill="#cccccc" stroke="#cccccc" points="2944.17,-31.2888 2938.34,-22.4391 2937.37,-32.9899 2944.17,-31.2888"/>
</g>
<!-- _Incrementable&#45;&gt;AnyRandomAccessIndex -->
<g id="edge3" class="edge">
<path fill="none" stroke="#cccccc" d="M3525.64,-352.404C3426.02,-339.525 3195.87,-304.934 3138,-254 3072.83,-196.641 3077.48,-79.2776 3082.36,-32.1989"/>
<polygon fill="#cccccc" stroke="#cccccc" points="3085.86,-32.3963 3083.54,-22.0602 3078.91,-31.5914 3085.86,-32.3963"/>
</g>
<!-- _Incrementable&#45;&gt;Bit -->
<g id="edge4" class="edge">
<path fill="none" stroke="#cccccc" d="M3556.4,-347.98C3543.05,-339.134 3523.58,-325.568 3508,-312 3390.41,-209.61 3382,-162.194 3266,-58 3254.17,-47.376 3240.11,-36.5076 3228.57,-28.0043"/>
<polygon fill="#cccccc" stroke="#cccccc" points="3230.46,-25.0542 3220.31,-22.0061 3226.34,-30.7166 3230.46,-25.0542"/>
</g>
<!-- _Incrementable&#45;&gt;DictionaryIndex -->
<g id="edge5" class="edge">
<path fill="none" stroke="#cccccc" d="M3618.22,-357.792C3819.95,-356.665 4624.38,-349.841 4874,-312 4987.85,-294.742 5124,-359.148 5124,-244 5124,-244 5124,-244 5124,-126 5124,-85.3382 5158.52,-48.9034 5182.21,-28.6894"/>
<polygon fill="#cccccc" stroke="#cccccc" points="5184.56,-31.289 5190.07,-22.2356 5180.12,-25.881 5184.56,-31.289"/>
</g>
<!-- _Incrementable&#45;&gt;FlattenBidirectionalCollectionIndex -->
<g id="edge6" class="edge">
<path fill="none" stroke="#cccccc" d="M3618.44,-357.943C3733.23,-357.19 4027.44,-351.36 4116,-312 4174.65,-285.935 4189.15,-258.879 4202,-196 4213.95,-137.509 4209.52,-66.3644 4206.26,-32.208"/>
<polygon fill="#cccccc" stroke="#cccccc" points="4209.72,-31.704 4205.22,-22.1142 4202.76,-32.4196 4209.72,-31.704"/>
</g>
<!-- _Incrementable&#45;&gt;FlattenCollectionIndex -->
<g id="edge7" class="edge">
<path fill="none" stroke="#cccccc" d="M3618.16,-357.874C3777.35,-357.09 4302.67,-351.498 4466,-312 4537.54,-294.7 4617,-317.602 4617,-244 4617,-244 4617,-244 4617,-184 4617,-123.645 4577.36,-60.7604 4555.34,-30.4765"/>
<polygon fill="#cccccc" stroke="#cccccc" points="4557.92,-28.0828 4549.13,-22.1635 4552.31,-32.2705 4557.92,-28.0828"/>
</g>
<!-- _Incrementable&#45;&gt;ForwardIndexType -->
<g id="edge8" class="edge">
<path fill="none" stroke="#cccccc" d="M3572,-347.988C3572,-340.91 3572,-331.171 3572,-322.478"/>
<polygon fill="#cccccc" stroke="#cccccc" points="3575.5,-322.304 3572,-312.304 3568.5,-322.304 3575.5,-322.304"/>
</g>
<!-- _Incrementable&#45;&gt;Int -->
<g id="edge9" class="edge">
<path fill="none" stroke="#cccccc" d="M3525.84,-357.874C3207.98,-356.914 1339.42,-349.715 772,-312 642.074,-303.364 190,-374.213 190,-244 190,-244 190,-244 190,-126 190,-69.6952 375.139,-31.8427 456.456,-17.9327"/>
<polygon fill="#cccccc" stroke="#cccccc" points="457.472,-21.3113 466.754,-16.2044 456.313,-14.4078 457.472,-21.3113"/>
</g>
<!-- _Incrementable&#45;&gt;Int16 -->
<g id="edge10" class="edge">
<path fill="none" stroke="#cccccc" d="M3525.96,-357.604C3134.56,-354.088 380,-326.42 380,-244 380,-244 380,-244 380,-126 380,-73.2582 550.385,-33.9226 627.671,-18.793"/>
<polygon fill="#cccccc" stroke="#cccccc" points="628.772,-22.1455 637.931,-16.8199 627.45,-15.2715 628.772,-22.1455"/>
</g>
<!-- _Incrementable&#45;&gt;Int32 -->
<g id="edge11" class="edge">
<path fill="none" stroke="#cccccc" d="M3525.9,-357.666C3216.6,-355.349 1452.21,-340.899 1343,-312 1284.96,-296.641 1063.4,-148.762 1051,-138 1025.51,-115.884 1017.79,-109.823 1002,-80 994.034,-64.9559 989.119,-46.2227 986.29,-32.2302"/>
<polygon fill="#cccccc" stroke="#cccccc" points="989.694,-31.3911 984.449,-22.1858 982.809,-32.6529 989.694,-31.3911"/>
</g>
<!-- _Incrementable&#45;&gt;Int64 -->
<g id="edge12" class="edge">
<path fill="none" stroke="#cccccc" d="M3525.82,-357.591C3223.6,-354.843 1536.97,-338.364 1432,-312 1321.73,-284.305 1279.29,-281.193 1204,-196 1163.29,-149.934 1176.91,-69.4362 1186.25,-32.0895"/>
<polygon fill="#cccccc" stroke="#cccccc" points="1189.65,-32.9295 1188.84,-22.3658 1182.88,-31.1303 1189.65,-32.9295"/>
</g>
<!-- _Incrementable&#45;&gt;Int8 -->
<g id="edge13" class="edge">
<path fill="none" stroke="#cccccc" d="M3525.9,-357.747C3135.21,-355.559 388.909,-339.237 218,-312 117.772,-296.027 0,-345.493 0,-244 0,-244 0,-244 0,-126 0,-75.1151 56.8158,-42.0472 96.1783,-25.2434"/>
<polygon fill="#cccccc" stroke="#cccccc" points="97.8349,-28.3473 105.765,-21.3207 95.1839,-21.8687 97.8349,-28.3473"/>
</g>
<!-- _Incrementable&#45;&gt;LazyFilterIndex -->
<g id="edge14" class="edge">
<path fill="none" stroke="#cccccc" d="M3618.09,-357.264C3799.1,-354.179 4455.58,-341.07 4544,-312 4622.6,-286.159 4798.99,-90.621 4852.39,-29.9182"/>
<polygon fill="#cccccc" stroke="#cccccc" points="4855.13,-32.1065 4859.08,-22.2794 4849.86,-27.4924 4855.13,-32.1065"/>
</g>
<!-- _Incrementable&#45;&gt;ReverseIndex -->
<g id="edge15" class="edge">
<path fill="none" stroke="#cccccc" d="M3618.5,-358.218C3751.34,-357.599 4123,-346.692 4123,-244 4123,-244 4123,-244 4123,-126 4123,-77.9671 4081.71,-79.9854 4039,-58 4019.16,-47.7887 3966.07,-33.8554 3925.21,-24.0068"/>
<polygon fill="#cccccc" stroke="#cccccc" points="3925.92,-20.5779 3915.38,-21.6584 3924.3,-27.3863 3925.92,-20.5779"/>
</g>
<!-- _Incrementable&#45;&gt;ReverseRandomAccessIndex -->
<g id="edge16" class="edge">
<path fill="none" stroke="#cccccc" d="M3594.37,-347.951C3608.62,-340.274 3626.03,-328.242 3635,-312 3689.58,-213.155 3714.87,-132.467 3630,-58 3622.14,-51.1014 3506.88,-34.6105 3422.8,-23.3687"/>
<polygon fill="#cccccc" stroke="#cccccc" points="3423.08,-19.8759 3412.71,-22.0248 3422.16,-26.8146 3423.08,-19.8759"/>
</g>
<!-- _Incrementable&#45;&gt;SetIndex -->
<g id="edge17" class="edge">
<path fill="none" stroke="#cccccc" d="M3618.09,-358.327C3761.66,-358.828 4213.36,-356.491 4584,-312 4740.04,-293.27 4931,-401.156 4931,-244 4931,-244 4931,-244 4931,-126 4931,-91.9742 4943.28,-53.9501 4951.86,-31.5449"/>
<polygon fill="#cccccc" stroke="#cccccc" points="4955.15,-32.7387 4955.6,-22.1531 4948.65,-30.1529 4955.15,-32.7387"/>
</g>
<!-- _Incrementable&#45;&gt;String.CharacterView.Index -->
<g id="edge26" class="edge">
<path fill="none" stroke="#cccccc" d="M3618.31,-358.073C3728.45,-357.577 4002.83,-352.216 4084,-312 4188.93,-260.014 4222.97,-152.633 4154,-58 4143.97,-44.2366 4106.95,-32.5436 4073.1,-24.391"/>
<polygon fill="#cccccc" stroke="#cccccc" points="4073.72,-20.9438 4063.19,-22.0816 4072.14,-27.761 4073.72,-20.9438"/>
</g>
<!-- _Incrementable&#45;&gt;String.UTF16View.Index -->
<g id="edge28" class="edge">
<path fill="none" stroke="#cccccc" d="M3618.22,-357.692C3815.74,-355.777 4579,-342.033 4579,-244 4579,-244 4579,-244 4579,-184 4579,-102.36 4481.4,-49.3907 4426.1,-25.9326"/>
<polygon fill="#cccccc" stroke="#cccccc" points="4427.21,-22.6032 4416.63,-22.0266 4424.54,-29.0746 4427.21,-22.6032"/>
</g>
<!-- _Incrementable&#45;&gt;String.UTF8View.Index -->
<g id="edge29" class="edge">
<path fill="none" stroke="#cccccc" d="M3618.28,-357.923C3809.73,-357.344 4540.39,-352.472 4767,-312 4860.25,-295.345 4969,-338.728 4969,-244 4969,-244 4969,-244 4969,-126 4969,-80.891 5013.99,-45.8037 5044.79,-27.0695"/>
<polygon fill="#cccccc" stroke="#cccccc" points="5046.58,-30.0788 5053.44,-22.0057 5043.04,-24.038 5046.58,-30.0788"/>
</g>
<!-- _Incrementable&#45;&gt;String.UnicodeScalarView.Index -->
<g id="edge27" class="edge">
<path fill="none" stroke="#cccccc" d="M3618.09,-357.264C3799.1,-354.179 4455.58,-341.07 4544,-312 4588.15,-297.485 4602.63,-290.809 4631,-254 4684.87,-184.094 4705.12,-76.9123 4711.48,-32.436"/>
<polygon fill="#cccccc" stroke="#cccccc" points="4714.98,-32.6894 4712.84,-22.3126 4708.04,-31.7578 4714.98,-32.6894"/>
</g>
<!-- _Incrementable&#45;&gt;UInt -->
<g id="edge18" class="edge">
<path fill="none" stroke="#cccccc" d="M3525.73,-357.953C3219.42,-357.344 1496,-349.242 1496,-244 1496,-244 1496,-244 1496,-126 1496,-75.1151 1552.82,-42.0472 1592.18,-25.2434"/>
<polygon fill="#cccccc" stroke="#cccccc" points="1593.83,-28.3473 1601.76,-21.3207 1591.18,-21.8687 1593.83,-28.3473"/>
</g>
<!-- _Incrementable&#45;&gt;UInt16 -->
<g id="edge19" class="edge">
<path fill="none" stroke="#cccccc" d="M3525.65,-358.536C3391.04,-359.477 2988.71,-357.933 2659,-312 2317.94,-264.485 2166.82,-360.49 1904,-138 1873.35,-112.053 1871.89,-60.6864 1873.77,-32.2055"/>
<polygon fill="#cccccc" stroke="#cccccc" points="1877.26,-32.4506 1874.64,-22.1863 1870.29,-31.8478 1877.26,-32.4506"/>
</g>
<!-- _Incrementable&#45;&gt;UInt32 -->
<g id="edge20" class="edge">
<path fill="none" stroke="#cccccc" d="M3525.77,-356.875C3377.98,-353.038 2918.18,-339.17 2772,-312 2605.9,-281.127 2561.38,-271.005 2410,-196 2336.05,-159.361 2315.87,-144.987 2265,-80 2253.19,-64.9181 2242.82,-45.7117 2235.91,-31.5603"/>
<polygon fill="#cccccc" stroke="#cccccc" points="2238.96,-29.8214 2231.52,-22.2805 2232.63,-32.8165 2238.96,-29.8214"/>
</g>
<!-- _Incrementable&#45;&gt;UInt64 -->
<g id="edge21" class="edge">
<path fill="none" stroke="#cccccc" d="M3525.77,-356.988C3343.28,-352.39 2683,-329.825 2683,-244 2683,-244 2683,-244 2683,-184 2683,-139.927 2569.22,-61.0647 2517.76,-27.6493"/>
<polygon fill="#cccccc" stroke="#cccccc" points="2519.5,-24.6102 2509.2,-22.1393 2515.71,-30.4957 2519.5,-24.6102"/>
</g>
<!-- _Incrementable&#45;&gt;UInt8 -->
<g id="edge22" class="edge">
<path fill="none" stroke="#cccccc" d="M3525.72,-355.559C3431.73,-350.171 3221.66,-335.811 3154,-312 2959.22,-243.457 2762.53,-81.3158 2701.93,-28.7597"/>
<polygon fill="#cccccc" stroke="#cccccc" points="2704.13,-26.0345 2694.3,-22.0923 2699.52,-31.3067 2704.13,-26.0345"/>
</g>
<!-- _Incrementable&#45;&gt;UnsafeMutablePointer -->
<g id="edge23" class="edge">
<path fill="none" stroke="#cccccc" d="M3618.07,-356.731C3685.52,-353.792 3806.09,-344.073 3833,-312 3855.86,-284.764 3841.72,-266.471 3833,-232 3811.45,-146.785 3809.86,-110.011 3739,-58 3725.76,-48.2789 3640.12,-33.3029 3575.34,-23.099"/>
<polygon fill="#cccccc" stroke="#cccccc" points="3575.55,-19.5903 3565.13,-21.5038 3574.47,-26.5063 3575.55,-19.5903"/>
</g>
<!-- _Incrementable&#45;&gt;UnsafePointer -->
<g id="edge24" class="edge">
<path fill="none" stroke="#cccccc" d="M3618.32,-358.823C3701.69,-359.206 3871.82,-354.598 3909,-312 3962.81,-250.347 3878.92,-85.0648 3848,-58 3844.78,-55.1856 3743.72,-35.0112 3679.08,-22.3317"/>
<polygon fill="#cccccc" stroke="#cccccc" points="3679.52,-18.8523 3669.03,-20.3648 3678.17,-25.7218 3679.52,-18.8523"/>
</g>
<!-- _IntegerType -->
<g id="node38" class="node">
<g id="a_node38"><a xlink:href="/swift-2/protocol/_IntegerType/" target="_top">
<path fill="#999999" stroke="#999999" d="M1334.71,-196C1334.71,-196 1269.29,-196 1269.29,-196 1265.63,-196 1261.96,-192.333 1261.96,-188.667 1261.96,-188.667 1261.96,-181.333 1261.96,-181.333 1261.96,-177.667 1265.63,-174 1269.29,-174 1269.29,-174 1334.71,-174 1334.71,-174 1338.37,-174 1342.04,-177.667 1342.04,-181.333 1342.04,-181.333 1342.04,-188.667 1342.04,-188.667 1342.04,-192.333 1338.37,-196 1334.71,-196"/>
<text text-anchor="middle" x="1302" y="-181.4" font-family="Helvetica,sans-Serif" font-size="12.00" fill="white">_IntegerType</text>
</a>
</g>
</g>
<!-- _Incrementable&#45;&gt;_IntegerType -->
<g id="edge25" class="edge">
<path fill="none" stroke="#cccccc" d="M3525.9,-357.744C3227.84,-355.991 1582.35,-344.851 1482,-312 1414.07,-289.762 1349.15,-232.572 1319.22,-203.511"/>
<polygon fill="#cccccc" stroke="#cccccc" points="1321.31,-200.653 1311.74,-196.113 1316.39,-205.632 1321.31,-200.653"/>
</g>
<!-- _IntegerType&#45;&gt;Int -->
<g id="edge122" class="edge">
<path fill="none" stroke="#cccccc" d="M1261.82,-183.352C1165.11,-181.264 911.989,-172.648 704,-138 602.559,-121.102 542.948,-161.323 480,-80 469.33,-66.2152 475.184,-46.3028 482.297,-31.5858"/>
<polygon fill="#cccccc" stroke="#cccccc" points="485.599,-32.8341 487.236,-22.3664 479.429,-29.5289 485.599,-32.8341"/>
</g>
<!-- _IntegerType&#45;&gt;Int16 -->
<g id="edge123" class="edge">
<path fill="none" stroke="#cccccc" d="M1261.69,-180.877C1134.07,-170.966 746.935,-140.717 741,-138 707.566,-122.694 700.254,-111.92 682,-80 673.611,-65.3297 669.321,-46.5648 667.151,-32.4649"/>
<polygon fill="#cccccc" stroke="#cccccc" points="670.593,-31.7877 665.828,-22.3246 663.651,-32.6934 670.593,-31.7877"/>
</g>
<!-- _IntegerType&#45;&gt;Int32 -->
<g id="edge124" class="edge">
<path fill="none" stroke="#cccccc" d="M1269.07,-173.966C1243.59,-165.69 1207.77,-152.913 1178,-138 1111.56,-104.712 1039.67,-54.0156 1004.65,-28.2532"/>
<polygon fill="#cccccc" stroke="#cccccc" points="1006.68,-25.405 996.564,-22.2664 1002.52,-31.0304 1006.68,-25.405"/>
</g>
<!-- _IntegerType&#45;&gt;Int64 -->
<g id="edge125" class="edge">
<path fill="none" stroke="#cccccc" d="M1298.9,-173.763C1291.77,-151.267 1272.58,-96.4672 1244,-58 1235.69,-46.8131 1224.28,-36.3477 1214.26,-28.2341"/>
<polygon fill="#cccccc" stroke="#cccccc" points="1216.31,-25.3961 1206.28,-22.0077 1212.01,-30.9166 1216.31,-25.3961"/>
</g>
<!-- _IntegerType&#45;&gt;Int8 -->
<g id="edge126" class="edge">
<path fill="none" stroke="#cccccc" d="M1261.86,-182.971C1146.05,-179.716 801.425,-168.031 517,-138 347.536,-120.107 253.676,-205.128 138,-80 126.361,-67.4099 126.292,-47.2982 128.426,-32.2066"/>
<polygon fill="#cccccc" stroke="#cccccc" points="131.885,-32.7499 130.236,-22.2842 124.998,-31.4939 131.885,-32.7499"/>
</g>
<!-- _IntegerType&#45;&gt;IntegerType -->
<g id="edge127" class="edge">
<path fill="none" stroke="#cccccc" d="M1323.99,-173.988C1343.37,-165.164 1371.83,-152.206 1393.61,-142.292"/>
<polygon fill="#cccccc" stroke="#cccccc" points="1395.13,-145.443 1402.79,-138.114 1392.23,-139.072 1395.13,-145.443"/>
</g>
<!-- _IntegerType&#45;&gt;UInt -->
<g id="edge128" class="edge">
<path fill="none" stroke="#cccccc" d="M1313,-173.835C1327.76,-160.312 1354.88,-135.81 1379,-116 1411.83,-89.0307 1416.84,-76.6791 1455,-58 1499.45,-36.2466 1555.49,-23.8036 1591.77,-17.4766"/>
<polygon fill="#cccccc" stroke="#cccccc" points="1592.63,-20.8826 1601.91,-15.7787 1591.47,-13.9788 1592.63,-20.8826"/>
</g>
<!-- _IntegerType&#45;&gt;UInt16 -->
<g id="edge129" class="edge">
<path fill="none" stroke="#cccccc" d="M1340.13,-173.95C1374.25,-164.866 1425.59,-150.968 1470,-138 1606.4,-98.1737 1767.27,-46.9844 1838.66,-24.0502"/>
<polygon fill="#cccccc" stroke="#cccccc" points="1840.08,-27.2697 1848.53,-20.8762 1837.94,-20.6059 1840.08,-27.2697"/>
</g>
<!-- _IntegerType&#45;&gt;UInt32 -->
<g id="edge130" class="edge">
<path fill="none" stroke="#cccccc" d="M1342.24,-183.061C1509.1,-179.019 2139.58,-162.192 2174,-138 2208.97,-113.423 2220.96,-61.068 2225.01,-32.1813"/>
<polygon fill="#cccccc" stroke="#cccccc" points="2228.51,-32.3856 2226.23,-22.0383 2221.56,-31.5469 2228.51,-32.3856"/>
</g>
<!-- _IntegerType&#45;&gt;UInt64 -->
<g id="edge131" class="edge">
<path fill="none" stroke="#cccccc" d="M1342.23,-183.104C1493.83,-179.545 2030.44,-165.263 2199,-138 2294.59,-122.54 2322.89,-124.283 2409,-80 2434.58,-66.8471 2459.64,-45.0664 2475.63,-29.7052"/>
<polygon fill="#cccccc" stroke="#cccccc" points="2478.45,-31.8443 2483.13,-22.3372 2473.54,-26.8532 2478.45,-31.8443"/>
</g>
<!-- _IntegerType&#45;&gt;UInt8 -->
<g id="edge132" class="edge">
<path fill="none" stroke="#cccccc" d="M1342.02,-184.486C1475.11,-185.595 1914.71,-185.191 2274,-138 2394.4,-122.186 2426.13,-119.379 2541,-80 2582.81,-65.6655 2628.47,-42.3053 2656.42,-27.0432"/>
<polygon fill="#cccccc" stroke="#cccccc" points="2658.13,-30.0989 2665.19,-22.2025 2654.75,-23.9704 2658.13,-30.0989"/>
</g>
<!-- _IntegerType&#45;&gt;_DisallowMixedSignArithmetic -->
<g id="edge133" class="edge">
<path fill="none" stroke="#cccccc" d="M1342.19,-181.107C1461.1,-172.548 1813.51,-147.182 1984.63,-134.865"/>
<polygon fill="#cccccc" stroke="#cccccc" points="1984.92,-138.353 1994.64,-134.144 1984.41,-131.371 1984.92,-138.353"/>
</g>
<!-- _SignedIntegerType -->
<g id="node39" class="node">
<g id="a_node39"><a xlink:href="/swift-2/protocol/_SignedIntegerType/" target="_top">
<path fill="#999999" stroke="#999999" d="M860.231,-138C860.231,-138 757.769,-138 757.769,-138 754.102,-138 750.436,-134.333 750.436,-130.667 750.436,-130.667 750.436,-123.333 750.436,-123.333 750.436,-119.667 754.102,-116 757.769,-116 757.769,-116 860.231,-116 860.231,-116 863.898,-116 867.564,-119.667 867.564,-123.333 867.564,-123.333 867.564,-130.667 867.564,-130.667 867.564,-134.333 863.898,-138 860.231,-138"/>
<text text-anchor="middle" x="809" y="-123.4" font-family="Helvetica,sans-Serif" font-size="12.00" fill="white">_SignedIntegerType</text>
</a>
</g>
</g>
<!-- _IntegerType&#45;&gt;_SignedIntegerType -->
<g id="edge134" class="edge">
<path fill="none" stroke="#cccccc" d="M1261.66,-179.417C1177.42,-169.849 982.024,-147.654 877.64,-135.797"/>
<polygon fill="#cccccc" stroke="#cccccc" points="877.853,-132.299 867.522,-134.648 877.063,-139.254 877.853,-132.299"/>
</g>
<!-- _SignedIntegerType&#45;&gt;Int -->
<g id="edge141" class="edge">
<path fill="none" stroke="#cccccc" d="M750.536,-116.104C696.889,-106.551 621.684,-91.8346 594,-80 563.563,-66.9884 532.685,-44.2104 513.455,-28.6316"/>
<polygon fill="#cccccc" stroke="#cccccc" points="515.662,-25.9142 505.723,-22.2434 511.203,-31.3108 515.662,-25.9142"/>
</g>
<!-- _SignedIntegerType&#45;&gt;Int16 -->
<g id="edge142" class="edge">
<path fill="none" stroke="#cccccc" d="M770.282,-115.919C748.543,-108.725 722.043,-97.2254 703,-80 688.332,-66.732 678.021,-46.4305 671.876,-31.4621"/>
<polygon fill="#cccccc" stroke="#cccccc" points="675.136,-30.1859 668.286,-22.1034 668.6,-32.6935 675.136,-30.1859"/>
</g>
<!-- _SignedIntegerType&#45;&gt;Int32 -->
<g id="edge143" class="edge">
<path fill="none" stroke="#cccccc" d="M816.386,-115.991C827.495,-101.526 849.799,-74.6869 874,-58 896.143,-42.7326 924.152,-31.0486 946.232,-23.2767"/>
<polygon fill="#cccccc" stroke="#cccccc" points="947.578,-26.516 955.918,-19.9822 945.323,-19.8889 947.578,-26.516"/>
</g>
<!-- _SignedIntegerType&#45;&gt;Int64 -->
<g id="edge144" class="edge">
<path fill="none" stroke="#cccccc" d="M842.653,-115.983C914.131,-94.7076 1080.62,-45.1524 1154.98,-23.0194"/>
<polygon fill="#cccccc" stroke="#cccccc" points="1156.25,-26.2915 1164.84,-20.0841 1154.26,-19.5824 1156.25,-26.2915"/>
</g>
<!-- _SignedIntegerType&#45;&gt;Int8 -->
<g id="edge145" class="edge">
<path fill="none" stroke="#cccccc" d="M750.547,-120.594C624.623,-108.923 338.218,-82.236 328,-80 269.163,-67.1244 203.576,-41.8657 165.434,-26.02"/>
<polygon fill="#cccccc" stroke="#cccccc" points="166.465,-22.6572 155.89,-22.013 163.756,-29.1114 166.465,-22.6572"/>
</g>
<!-- _SignedIntegerType&#45;&gt;SignedIntegerType -->
<g id="edge146" class="edge">
<path fill="none" stroke="#cccccc" d="M801.491,-115.988C795.769,-108.359 787.73,-97.6405 780.853,-88.4702"/>
<polygon fill="#cccccc" stroke="#cccccc" points="783.528,-86.2039 774.728,-80.3039 777.928,-90.4039 783.528,-86.2039"/>
</g>
</g>
</svg>
