<?xml version="1.0" encoding="UTF-8" standalone="no"?>
<!DOCTYPE svg PUBLIC "-//W3C//DTD SVG 1.1//EN"
 "http://www.w3.org/Graphics/SVG/1.1/DTD/svg11.dtd">
<!-- Generated by graphviz version 2.36.0 (20140111.2315)
 -->
<!-- Title: UInt &#45; Type Hierarchy &#45; SwiftDoc.org Pages: 1 -->
<svg width="1393pt" height="543pt"
 viewBox="0.00 0.00 1392.73 543.20" xmlns="http://www.w3.org/2000/svg" xmlns:xlink="http://www.w3.org/1999/xlink">
<g id="graph0" class="graph" transform="scale(1 1) rotate(0) translate(7.2 485.6)">
<g transform="translate(0 -485.6)">
<g>
    <path fill="#666666" d="M13.846,10.832c-0.336-0.464-0.792-0.844-1.368-1.14s-1.224-0.444-1.944-0.444
        c-0.384,0-0.772,0.052-1.164,0.156C8.977,9.509,8.622,9.677,8.301,9.908c-0.32,0.232-0.58,0.52-0.78,0.864
        c-0.2,0.344-0.3,0.756-0.3,1.236c0,0.464,0.092,0.852,0.276,1.164c0.184,0.312,0.432,0.576,0.744,0.792s0.68,0.4,1.104,0.552
        c0.423,0.152,0.876,0.309,1.356,0.468c0.576,0.177,1.16,0.376,1.752,0.601c0.592,0.224,1.128,0.52,1.608,0.888
        s0.872,0.828,1.176,1.38s0.456,1.252,0.456,2.101c0,0.88-0.164,1.644-0.492,2.292c-0.328,0.647-0.765,1.184-1.308,1.607
        c-0.544,0.424-1.172,0.74-1.884,0.948s-1.444,0.312-2.196,0.312c-1.072,0-2.108-0.208-3.108-0.624
        c-1-0.415-1.828-1.031-2.484-1.848l1.848-1.56c0.4,0.592,0.936,1.071,1.608,1.439c0.672,0.368,1.399,0.552,2.184,0.552
        c0.4,0,0.8-0.056,1.2-0.168c0.4-0.111,0.764-0.288,1.092-0.527c0.328-0.24,0.596-0.54,0.804-0.9
        c0.208-0.36,0.312-0.796,0.312-1.308s-0.108-0.94-0.324-1.284c-0.216-0.344-0.508-0.636-0.876-0.876s-0.796-0.444-1.284-0.612
        c-0.488-0.168-1.004-0.34-1.548-0.516c-0.544-0.16-1.08-0.356-1.608-0.588c-0.528-0.232-1-0.528-1.416-0.889
        c-0.416-0.359-0.752-0.804-1.008-1.332c-0.256-0.527-0.384-1.184-0.384-1.968c0-0.848,0.172-1.576,0.516-2.184
        c0.344-0.608,0.792-1.112,1.344-1.512c0.552-0.4,1.176-0.692,1.872-0.876c0.696-0.184,1.396-0.276,2.1-0.276
        c0.992,0,1.92,0.176,2.784,0.528c0.864,0.352,1.56,0.824,2.088,1.416L13.846,10.832z"/>
    <path fill="#666666" d="M18.813,13.304l2.568,8.688h0.048l2.712-8.688h2.376l2.76,8.688h0.048l2.568-8.688h2.376L30.501,24.68
        h-2.352l-2.808-8.544h-0.048l-2.784,8.544h-2.352l-3.792-11.376H18.813z"/>
    <path fill="#666666" d="M38.685,9.2c0,0.416-0.147,0.76-0.44,1.032c-0.294,0.272-0.647,0.408-1.06,0.408s-0.762-0.14-1.047-0.42
        c-0.286-0.28-0.429-0.62-0.429-1.02c0-0.416,0.143-0.764,0.429-1.044c0.286-0.28,0.635-0.42,1.047-0.42s0.766,0.14,1.06,0.42
        C38.538,8.437,38.685,8.784,38.685,9.2z M38.325,24.68h-2.256V13.304h2.256V24.68z"/>
    <path fill="#666666" d="M47.613,15.152h-2.64v9.528h-2.256v-9.528h-2.256v-1.848h2.256v-2.376c0-0.672,0.076-1.292,0.228-1.86
        c0.152-0.568,0.4-1.06,0.744-1.476c0.344-0.416,0.784-0.744,1.32-0.984c0.536-0.24,1.188-0.36,1.956-0.36
        c0.544,0,1.016,0.056,1.416,0.168l-0.264,1.944c-0.176-0.048-0.352-0.088-0.528-0.12c-0.176-0.032-0.376-0.048-0.6-0.048
        c-0.432,0-0.78,0.076-1.044,0.228c-0.264,0.152-0.468,0.356-0.612,0.612s-0.24,0.548-0.288,0.876
        c-0.048,0.328-0.072,0.668-0.072,1.02v2.376h2.64V15.152z"/>
    <path fill="#666666" d="M54.909,15.152h-3.024v5.91c0,0.687,0.128,1.177,0.384,1.472c0.256,0.295,0.664,0.442,1.224,0.442
        c0.208,0,0.432-0.021,0.672-0.065c0.24-0.044,0.456-0.11,0.648-0.198l0.072,1.848c-0.272,0.096-0.572,0.172-0.9,0.229
        c-0.328,0.056-0.668,0.084-1.02,0.084c-1.072,0-1.892-0.296-2.46-0.889c-0.568-0.592-0.852-1.479-0.852-2.664v-6.168h-2.184
        v-1.848h2.184V10.04h2.232v3.264h3.024V15.152z"/>
    <path fill="#666666" d="M57.356,7.688h5.832c1.088,0,2.176,0.16,3.264,0.48c1.088,0.32,2.072,0.824,2.952,1.512
        s1.592,1.568,2.136,2.64c0.544,1.072,0.816,2.36,0.816,3.864c0,1.456-0.272,2.716-0.816,3.78s-1.256,1.943-2.136,2.64
        s-1.864,1.216-2.952,1.561c-1.088,0.344-2.176,0.516-3.264,0.516h-5.832V7.688z M59.732,22.593h2.976
        c1.024,0,1.972-0.145,2.844-0.432c0.872-0.288,1.624-0.704,2.256-1.248c0.632-0.544,1.124-1.216,1.476-2.017
        c0.352-0.8,0.528-1.704,0.528-2.712c0-1.056-0.176-1.983-0.528-2.784c-0.353-0.8-0.844-1.468-1.476-2.004
        c-0.632-0.536-1.384-0.944-2.256-1.224s-1.82-0.42-2.844-0.42h-2.976V22.593z"/>
    <path fill="#666666" d="M86.06,18.969c0,0.88-0.156,1.688-0.468,2.424c-0.312,0.736-0.744,1.372-1.296,1.908
        c-0.552,0.536-1.204,0.952-1.956,1.248c-0.752,0.296-1.56,0.443-2.424,0.443c-0.864,0-1.672-0.147-2.424-0.443
        c-0.752-0.296-1.4-0.712-1.944-1.248c-0.544-0.536-0.972-1.172-1.284-1.908c-0.312-0.735-0.468-1.544-0.468-2.424
        s0.156-1.684,0.468-2.412c0.312-0.728,0.74-1.356,1.284-1.884c0.543-0.528,1.191-0.939,1.944-1.236
        c0.752-0.296,1.56-0.444,2.424-0.444c0.864,0,1.672,0.148,2.424,0.444c0.752,0.297,1.404,0.708,1.956,1.236
        c0.552,0.527,0.984,1.156,1.296,1.884C85.904,17.285,86.06,18.089,86.06,18.969z M83.708,18.98c0-0.542-0.084-1.061-0.252-1.556
        c-0.169-0.494-0.414-0.929-0.734-1.304s-0.718-0.674-1.192-0.897s-1.015-0.335-1.625-0.335c-0.61,0-1.152,0.111-1.625,0.335
        c-0.474,0.224-0.871,0.522-1.191,0.897c-0.321,0.375-0.566,0.81-0.734,1.304C76.184,17.92,76.1,18.438,76.1,18.98
        c0,0.543,0.084,1.062,0.253,1.556c0.168,0.495,0.413,0.934,0.734,1.316c0.321,0.383,0.718,0.686,1.191,0.909
        c0.473,0.224,1.015,0.335,1.625,0.335c0.61,0,1.151-0.111,1.625-0.335s0.871-0.526,1.192-0.909s0.565-0.821,0.734-1.316
        C83.624,20.042,83.708,19.523,83.708,18.98z"/>
    <path fill="#666666" d="M96.428,16.184c-0.24-0.368-0.6-0.676-1.08-0.924s-0.992-0.372-1.536-0.372
        c-0.592,0-1.116,0.112-1.572,0.336c-0.456,0.225-0.844,0.524-1.164,0.9c-0.32,0.376-0.564,0.812-0.732,1.308
        s-0.252,1.017-0.252,1.56c0,0.545,0.084,1.064,0.252,1.561s0.412,0.933,0.732,1.308c0.32,0.376,0.712,0.677,1.176,0.9
        c0.464,0.225,0.992,0.336,1.584,0.336c0.576,0,1.1-0.111,1.572-0.336c0.472-0.224,0.86-0.528,1.164-0.912l1.512,1.368
        c-0.48,0.561-1.08,0.996-1.8,1.308c-0.72,0.312-1.536,0.468-2.448,0.468c-0.88,0-1.692-0.144-2.436-0.432
        c-0.744-0.288-1.388-0.691-1.932-1.212c-0.544-0.52-0.972-1.147-1.284-1.884s-0.468-1.561-0.468-2.473
        c0-0.896,0.152-1.711,0.456-2.447c0.304-0.736,0.728-1.368,1.272-1.896c0.543-0.527,1.188-0.936,1.932-1.224
        c0.744-0.288,1.548-0.433,2.412-0.433c0.8,0,1.596,0.16,2.388,0.48s1.419,0.784,1.884,1.392L96.428,16.184z"/>
    <path fill="#666666" d="M103.1,23.24c0,0.417-0.152,0.784-0.456,1.104c-0.304,0.32-0.688,0.479-1.152,0.479
        c-0.448,0-0.828-0.155-1.14-0.468c-0.312-0.312-0.468-0.676-0.468-1.092c0-0.432,0.152-0.804,0.456-1.116
        c0.304-0.312,0.688-0.468,1.152-0.468c0.464,0,0.848,0.152,1.152,0.456C102.947,22.44,103.1,22.808,103.1,23.24z"/>
    <path fill="#666666" d="M116.635,18.969c0,0.88-0.156,1.688-0.468,2.424c-0.312,0.736-0.744,1.372-1.296,1.908
        c-0.552,0.536-1.204,0.952-1.956,1.248c-0.752,0.296-1.56,0.443-2.424,0.443c-0.864,0-1.672-0.147-2.424-0.443
        c-0.752-0.296-1.4-0.712-1.944-1.248c-0.544-0.536-0.972-1.172-1.284-1.908c-0.312-0.735-0.468-1.544-0.468-2.424
        s0.156-1.684,0.468-2.412c0.312-0.728,0.74-1.356,1.284-1.884c0.543-0.528,1.191-0.939,1.944-1.236
        c0.752-0.296,1.56-0.444,2.424-0.444c0.864,0,1.672,0.148,2.424,0.444c0.752,0.297,1.404,0.708,1.956,1.236
        c0.552,0.527,0.984,1.156,1.296,1.884C116.479,17.285,116.635,18.089,116.635,18.969z M114.283,18.98
        c0-0.542-0.084-1.061-0.252-1.556c-0.169-0.494-0.414-0.929-0.734-1.304s-0.718-0.674-1.192-0.897s-1.015-0.335-1.625-0.335
        c-0.61,0-1.152,0.111-1.625,0.335c-0.474,0.224-0.871,0.522-1.191,0.897c-0.321,0.375-0.566,0.81-0.734,1.304
        c-0.169,0.495-0.253,1.014-0.253,1.556c0,0.543,0.084,1.062,0.253,1.556c0.168,0.495,0.413,0.934,0.734,1.316
        c0.321,0.383,0.718,0.686,1.191,0.909c0.473,0.224,1.015,0.335,1.625,0.335c0.61,0,1.151-0.111,1.625-0.335
        s0.871-0.526,1.192-0.909s0.565-0.821,0.734-1.316C114.199,20.042,114.283,19.523,114.283,18.98z"/>
    <path fill="#666666" d="M119.251,14.577c-0.016-0.48-0.04-0.904-0.072-1.272h2.136c0.032,0.288,0.056,0.62,0.072,0.996
        c0.016,0.376,0.024,0.684,0.024,0.924h0.072c0.32-0.672,0.788-1.212,1.404-1.62c0.616-0.408,1.308-0.612,2.076-0.612
        c0.352,0,0.648,0.033,0.888,0.097l-0.096,2.088c-0.32-0.08-0.664-0.12-1.032-0.12c-0.544,0-1.016,0.101-1.416,0.3
        c-0.4,0.2-0.732,0.468-0.996,0.805c-0.264,0.336-0.46,0.724-0.588,1.163c-0.128,0.44-0.192,0.9-0.192,1.381v5.976h-2.256v-8.928
        C119.275,15.449,119.267,15.056,119.251,14.577z"/>
    <path fill="#666666" d="M128.419,26.625c0.496,0.56,1.116,1.008,1.86,1.344c0.744,0.336,1.508,0.504,2.292,0.504
        c0.752,0,1.384-0.108,1.896-0.324s0.924-0.512,1.236-0.888s0.536-0.82,0.672-1.332c0.136-0.513,0.204-1.064,0.204-1.656v-1.464
        h-0.048c-0.416,0.641-0.984,1.128-1.704,1.464c-0.72,0.336-1.488,0.504-2.304,0.504c-0.864,0-1.652-0.151-2.364-0.456
        c-0.712-0.304-1.316-0.72-1.812-1.248c-0.496-0.527-0.88-1.147-1.152-1.859s-0.408-1.477-0.408-2.292
        c0-0.816,0.136-1.584,0.408-2.305c0.272-0.72,0.656-1.348,1.152-1.884c0.496-0.535,1.096-0.96,1.8-1.271
        c0.704-0.312,1.488-0.469,2.352-0.469c0.816,0,1.596,0.177,2.34,0.528c0.744,0.353,1.332,0.888,1.764,1.608h0.048v-1.824h2.184
        v10.8c0,0.832-0.104,1.628-0.312,2.388c-0.208,0.76-0.56,1.433-1.056,2.017s-1.144,1.052-1.944,1.404
        c-0.8,0.352-1.792,0.527-2.976,0.527c-0.992,0-1.988-0.18-2.988-0.54c-1-0.359-1.86-0.868-2.58-1.523L128.419,26.625z
         M129.091,18.873c0,0.527,0.084,1.031,0.253,1.512c0.168,0.479,0.417,0.904,0.746,1.271c0.329,0.369,0.726,0.664,1.192,0.889
        c0.465,0.224,0.995,0.336,1.589,0.336c0.577,0,1.107-0.104,1.589-0.312c0.481-0.207,0.891-0.491,1.228-0.852
        s0.598-0.784,0.782-1.272c0.185-0.487,0.277-1.012,0.277-1.571c0-0.544-0.093-1.057-0.277-1.536
        c-0.185-0.48-0.449-0.904-0.794-1.272c-0.345-0.367-0.755-0.66-1.228-0.876c-0.474-0.216-1-0.324-1.577-0.324
        c-0.594,0-1.124,0.108-1.589,0.324c-0.466,0.216-0.863,0.504-1.192,0.864s-0.578,0.784-0.746,1.271
        C129.175,17.812,129.091,18.329,129.091,18.873z"/>
</g>
<g><a xlink:href="/" pointer-events="all" target="_top"><polygon fill="none" points="0,0 145,0 145,35 0,35 0,0"/></a></g>

</g>


<!-- BidirectionalIndexType -->
<g id="node1" class="node">
<g id="a_node1"><a xlink:href="/v2.1/protocol/BidirectionalIndexType/" target="_top">
<path fill="#999999" stroke="#999999" d="M887.057,-254C887.057,-254 771.607,-254 771.607,-254 767.94,-254 764.273,-250.333 764.273,-246.667 764.273,-246.667 764.273,-239.333 764.273,-239.333 764.273,-235.667 767.94,-232 771.607,-232 771.607,-232 887.057,-232 887.057,-232 890.724,-232 894.391,-235.667 894.391,-239.333 894.391,-239.333 894.391,-246.667 894.391,-246.667 894.391,-250.333 890.724,-254 887.057,-254"/>
<text text-anchor="middle" x="829.332" y="-239.4" font-family="Helvetica,sans-Serif" font-size="12.00" fill="white">BidirectionalIndexType</text>
</a>
</g>
</g>
<!-- RandomAccessIndexType -->
<g id="node12" class="node">
<g id="a_node12"><a xlink:href="/v2.1/protocol/RandomAccessIndexType/" target="_top">
<path fill="#999999" stroke="#999999" d="M882.557,-196C882.557,-196 748.107,-196 748.107,-196 744.44,-196 740.773,-192.333 740.773,-188.667 740.773,-188.667 740.773,-181.333 740.773,-181.333 740.773,-177.667 744.44,-174 748.107,-174 748.107,-174 882.557,-174 882.557,-174 886.224,-174 889.891,-177.667 889.891,-181.333 889.891,-181.333 889.891,-188.667 889.891,-188.667 889.891,-192.333 886.224,-196 882.557,-196"/>
<text text-anchor="middle" x="815.332" y="-181.4" font-family="Helvetica,sans-Serif" font-size="12.00" fill="white">RandomAccessIndexType</text>
</a>
</g>
</g>
<!-- BidirectionalIndexType&#45;&gt;RandomAccessIndexType -->
<g id="edge26" class="edge">
<path fill="none" stroke="#cccccc" d="M826.829,-231.988C825.04,-224.831 822.571,-214.955 820.379,-206.189"/>
<polygon fill="#cccccc" stroke="#cccccc" points="823.729,-205.156 817.908,-196.304 816.938,-206.854 823.729,-205.156"/>
</g>
<!-- BitwiseOperationsType -->
<g id="node2" class="node">
<g id="a_node2"><a xlink:href="/v2.1/protocol/BitwiseOperationsType/" target="_top">
<path fill="#999999" stroke="#999999" d="M154.047,-254C154.047,-254 36.6168,-254 36.6168,-254 32.9501,-254 29.2834,-250.333 29.2834,-246.667 29.2834,-246.667 29.2834,-239.333 29.2834,-239.333 29.2834,-235.667 32.9501,-232 36.6168,-232 36.6168,-232 154.047,-232 154.047,-232 157.714,-232 161.38,-235.667 161.38,-239.333 161.38,-239.333 161.38,-246.667 161.38,-246.667 161.38,-250.333 157.714,-254 154.047,-254"/>
<text text-anchor="middle" x="95.3319" y="-239.4" font-family="Helvetica,sans-Serif" font-size="12.00" fill="white">BitwiseOperationsType</text>
</a>
</g>
</g>
<!-- UInt -->
<g id="node14" class="node">
<g id="a_node14"><a xlink:href="/v2.1/type/UInt/" target="_top">
<polygon fill="#ee543d" stroke="#ee543d" points="842.332,-22 788.332,-22 788.332,-0 842.332,-0 842.332,-22"/>
<text text-anchor="middle" x="815.332" y="-7.4" font-family="Helvetica,sans-Serif" font-size="12.00" fill="white">UInt</text>
</a>
</g>
</g>
<!-- BitwiseOperationsType&#45;&gt;UInt -->
<g id="edge7" class="edge">
<path fill="none" stroke="#cccccc" d="M117.346,-231.944C184.595,-201.582 393.808,-109.749 575.332,-58 645.694,-37.9413 730.172,-24.0324 777.816,-17.0906"/>
<polygon fill="#cccccc" stroke="#cccccc" points="778.569,-20.5185 787.972,-15.6355 777.576,-13.5893 778.569,-20.5185"/>
</g>
<!-- _IntegerType -->
<g id="node19" class="node">
<g id="a_node19"><a xlink:href="/v2.1/protocol/_IntegerType/" target="_top">
<path fill="#999999" stroke="#999999" d="M597.04,-196C597.04,-196 531.624,-196 531.624,-196 527.958,-196 524.291,-192.333 524.291,-188.667 524.291,-188.667 524.291,-181.333 524.291,-181.333 524.291,-177.667 527.958,-174 531.624,-174 531.624,-174 597.04,-174 597.04,-174 600.706,-174 604.373,-177.667 604.373,-181.333 604.373,-181.333 604.373,-188.667 604.373,-188.667 604.373,-192.333 600.706,-196 597.04,-196"/>
<text text-anchor="middle" x="564.332" y="-181.4" font-family="Helvetica,sans-Serif" font-size="12.00" fill="white">_IntegerType</text>
</a>
</g>
</g>
<!-- BitwiseOperationsType&#45;&gt;_IntegerType -->
<g id="edge17" class="edge">
<path fill="none" stroke="#cccccc" d="M161.578,-233.108C164.536,-232.729 167.464,-232.359 170.332,-232 293.847,-216.556 439.358,-199.989 514.231,-191.584"/>
<polygon fill="#cccccc" stroke="#cccccc" points="514.77,-195.046 524.318,-190.453 513.99,-188.089 514.77,-195.046"/>
</g>
<!-- CVarArgType -->
<g id="node3" class="node">
<g id="a_node3"><a xlink:href="/v2.1/protocol/CVarArgType/" target="_top">
<path fill="#999999" stroke="#999999" d="M1275.36,-80C1275.36,-80 1209.3,-80 1209.3,-80 1205.64,-80 1201.97,-76.3333 1201.97,-72.6667 1201.97,-72.6667 1201.97,-65.3333 1201.97,-65.3333 1201.97,-61.6667 1205.64,-58 1209.3,-58 1209.3,-58 1275.36,-58 1275.36,-58 1279.03,-58 1282.69,-61.6667 1282.69,-65.3333 1282.69,-65.3333 1282.69,-72.6667 1282.69,-72.6667 1282.69,-76.3333 1279.03,-80 1275.36,-80"/>
<text text-anchor="middle" x="1242.33" y="-65.4" font-family="Helvetica,sans-Serif" font-size="12.00" fill="white">CVarArgType</text>
</a>
</g>
</g>
<!-- CVarArgType&#45;&gt;UInt -->
<g id="edge9" class="edge">
<path fill="none" stroke="#cccccc" d="M1201.83,-60.3661C1196.95,-59.5266 1192.03,-58.7174 1187.33,-58 1065.2,-39.362 919.635,-23.07 852.553,-15.8942"/>
<polygon fill="#cccccc" stroke="#cccccc" points="852.791,-12.3998 842.477,-14.8218 852.05,-19.3605 852.791,-12.3998"/>
</g>
<!-- Comparable -->
<g id="node4" class="node">
<g id="a_node4"><a xlink:href="/v2.1/protocol/Comparable/" target="_top">
<path fill="#999999" stroke="#999999" d="M618.523,-312C618.523,-312 558.141,-312 558.141,-312 554.474,-312 550.807,-308.333 550.807,-304.667 550.807,-304.667 550.807,-297.333 550.807,-297.333 550.807,-293.667 554.474,-290 558.141,-290 558.141,-290 618.523,-290 618.523,-290 622.19,-290 625.857,-293.667 625.857,-297.333 625.857,-297.333 625.857,-304.667 625.857,-304.667 625.857,-308.333 622.19,-312 618.523,-312"/>
<text text-anchor="middle" x="588.332" y="-297.4" font-family="Helvetica,sans-Serif" font-size="12.00" fill="white">Comparable</text>
</a>
</g>
</g>
<!-- IntegerArithmeticType -->
<g id="node9" class="node">
<g id="a_node9"><a xlink:href="/v2.1/protocol/IntegerArithmeticType/" target="_top">
<path fill="#999999" stroke="#999999" d="M619.043,-254C619.043,-254 507.621,-254 507.621,-254 503.954,-254 500.288,-250.333 500.288,-246.667 500.288,-246.667 500.288,-239.333 500.288,-239.333 500.288,-235.667 503.954,-232 507.621,-232 507.621,-232 619.043,-232 619.043,-232 622.709,-232 626.376,-235.667 626.376,-239.333 626.376,-239.333 626.376,-246.667 626.376,-246.667 626.376,-250.333 622.709,-254 619.043,-254"/>
<text text-anchor="middle" x="563.332" y="-239.4" font-family="Helvetica,sans-Serif" font-size="12.00" fill="white">IntegerArithmeticType</text>
</a>
</g>
</g>
<!-- Comparable&#45;&gt;IntegerArithmeticType -->
<g id="edge21" class="edge">
<path fill="none" stroke="#cccccc" d="M583.862,-289.988C580.597,-282.674 576.064,-272.519 572.087,-263.612"/>
<polygon fill="#cccccc" stroke="#cccccc" points="575.204,-262.008 567.932,-254.304 568.812,-264.862 575.204,-262.008"/>
</g>
<!-- Strideable -->
<g id="node13" class="node">
<g id="a_node13"><a xlink:href="/v2.1/protocol/Strideable/" target="_top">
<path fill="#999999" stroke="#999999" d="M739.025,-254C739.025,-254 689.639,-254 689.639,-254 685.972,-254 682.306,-250.333 682.306,-246.667 682.306,-246.667 682.306,-239.333 682.306,-239.333 682.306,-235.667 685.972,-232 689.639,-232 689.639,-232 739.025,-232 739.025,-232 742.692,-232 746.358,-235.667 746.358,-239.333 746.358,-239.333 746.358,-246.667 746.358,-246.667 746.358,-250.333 742.692,-254 739.025,-254"/>
<text text-anchor="middle" x="714.332" y="-239.4" font-family="Helvetica,sans-Serif" font-size="12.00" fill="white">Strideable</text>
</a>
</g>
</g>
<!-- Comparable&#45;&gt;Strideable -->
<g id="edge31" class="edge">
<path fill="none" stroke="#cccccc" d="M610.858,-289.988C630.713,-281.164 659.868,-268.206 682.175,-258.292"/>
<polygon fill="#cccccc" stroke="#cccccc" points="683.859,-261.374 691.576,-254.114 681.016,-254.977 683.859,-261.374"/>
</g>
<!-- Comparable&#45;&gt;UInt -->
<g id="edge2" class="edge">
<path fill="none" stroke="#cccccc" d="M550.961,-291.553C547.714,-290.97 544.471,-290.44 541.332,-290 483.867,-281.942 65.3182,-290.652 20.3319,-254 -3.99576,-234.179 1.33192,-217.38 1.33192,-186 1.33192,-186 1.33192,-186 1.33192,-126 1.33192,-46.4887 618.328,-19.016 777.981,-13.2381"/>
<polygon fill="#cccccc" stroke="#cccccc" points="778.379,-16.7263 788.249,-12.8739 778.131,-9.73072 778.379,-16.7263"/>
</g>
<!-- CustomStringConvertible -->
<g id="node5" class="node">
<g id="a_node5"><a xlink:href="/v2.1/protocol/CustomStringConvertible/" target="_top">
<path fill="#999999" stroke="#999999" d="M315.54,-254C315.54,-254 187.124,-254 187.124,-254 183.457,-254 179.791,-250.333 179.791,-246.667 179.791,-246.667 179.791,-239.333 179.791,-239.333 179.791,-235.667 183.457,-232 187.124,-232 187.124,-232 315.54,-232 315.54,-232 319.206,-232 322.873,-235.667 322.873,-239.333 322.873,-239.333 322.873,-246.667 322.873,-246.667 322.873,-250.333 319.206,-254 315.54,-254"/>
<text text-anchor="middle" x="251.332" y="-239.4" font-family="Helvetica,sans-Serif" font-size="12.00" fill="white">CustomStringConvertible</text>
</a>
</g>
</g>
<!-- CustomStringConvertible&#45;&gt;UInt -->
<g id="edge5" class="edge">
<path fill="none" stroke="#cccccc" d="M267.654,-231.838C304.761,-209.02 398.722,-152.835 482.332,-116 555.003,-83.9841 575.515,-81.6217 651.332,-58 694.7,-44.4882 745.07,-30.6296 778.425,-21.7051"/>
<polygon fill="#cccccc" stroke="#cccccc" points="779.442,-25.0564 788.204,-19.0997 777.64,-18.2923 779.442,-25.0564"/>
</g>
<!-- CustomStringConvertible&#45;&gt;_IntegerType -->
<g id="edge14" class="edge">
<path fill="none" stroke="#cccccc" d="M307.29,-231.988C366.056,-221.474 457.62,-205.092 514.128,-194.982"/>
<polygon fill="#cccccc" stroke="#cccccc" points="515.028,-198.377 524.255,-193.17 513.795,-191.486 515.028,-198.377"/>
</g>
<!-- Equatable -->
<g id="node6" class="node">
<g id="a_node6"><a xlink:href="/v2.1/protocol/Equatable/" target="_top">
<path fill="#999999" stroke="#999999" d="M903.034,-428C903.034,-428 853.63,-428 853.63,-428 849.963,-428 846.297,-424.333 846.297,-420.667 846.297,-420.667 846.297,-413.333 846.297,-413.333 846.297,-409.667 849.963,-406 853.63,-406 853.63,-406 903.034,-406 903.034,-406 906.7,-406 910.367,-409.667 910.367,-413.333 910.367,-413.333 910.367,-420.667 910.367,-420.667 910.367,-424.333 906.7,-428 903.034,-428"/>
<text text-anchor="middle" x="878.332" y="-413.4" font-family="Helvetica,sans-Serif" font-size="12.00" fill="white">Equatable</text>
</a>
</g>
</g>
<!-- Equatable&#45;&gt;Comparable -->
<g id="edge22" class="edge">
<path fill="none" stroke="#cccccc" d="M852.851,-405.983C800.873,-385.551 682.545,-339.036 623.377,-315.776"/>
<polygon fill="#cccccc" stroke="#cccccc" points="624.654,-312.518 614.067,-312.117 622.093,-319.032 624.654,-312.518"/>
</g>
<!-- Hashable -->
<g id="node8" class="node">
<g id="a_node8"><a xlink:href="/v2.1/protocol/Hashable/" target="_top">
<path fill="#999999" stroke="#999999" d="M966.026,-254C966.026,-254 920.638,-254 920.638,-254 916.971,-254 913.304,-250.333 913.304,-246.667 913.304,-246.667 913.304,-239.333 913.304,-239.333 913.304,-235.667 916.971,-232 920.638,-232 920.638,-232 966.026,-232 966.026,-232 969.693,-232 973.359,-235.667 973.359,-239.333 973.359,-239.333 973.359,-246.667 973.359,-246.667 973.359,-250.333 969.693,-254 966.026,-254"/>
<text text-anchor="middle" x="943.332" y="-239.4" font-family="Helvetica,sans-Serif" font-size="12.00" fill="white">Hashable</text>
</a>
</g>
</g>
<!-- Equatable&#45;&gt;Hashable -->
<g id="edge19" class="edge">
<path fill="none" stroke="#cccccc" d="M882.203,-405.756C892.701,-377.978 921.849,-300.848 935.758,-264.042"/>
<polygon fill="#cccccc" stroke="#cccccc" points="939.138,-265 939.399,-254.408 932.589,-262.525 939.138,-265"/>
</g>
<!-- Equatable&#45;&gt;UInt -->
<g id="edge3" class="edge">
<path fill="none" stroke="#cccccc" d="M910.464,-410.632C986.921,-396.951 1173.33,-357.867 1173.33,-302 1173.33,-302 1173.33,-302 1173.33,-126 1173.33,-59.1887 944.089,-26.305 852.49,-15.8324"/>
<polygon fill="#cccccc" stroke="#cccccc" points="852.861,-12.3521 842.534,-14.7207 852.084,-19.3088 852.861,-12.3521"/>
</g>
<!-- _Incrementable -->
<g id="node17" class="node">
<g id="a_node17"><a xlink:href="/v2.1/protocol/_Incrementable/" target="_top">
<path fill="#999999" stroke="#999999" d="M868.037,-370C868.037,-370 790.627,-370 790.627,-370 786.96,-370 783.293,-366.333 783.293,-362.667 783.293,-362.667 783.293,-355.333 783.293,-355.333 783.293,-351.667 786.96,-348 790.627,-348 790.627,-348 868.037,-348 868.037,-348 871.704,-348 875.37,-351.667 875.37,-355.333 875.37,-355.333 875.37,-362.667 875.37,-362.667 875.37,-366.333 871.704,-370 868.037,-370"/>
<text text-anchor="middle" x="829.332" y="-355.4" font-family="Helvetica,sans-Serif" font-size="12.00" fill="white">_Incrementable</text>
</a>
</g>
</g>
<!-- Equatable&#45;&gt;_Incrementable -->
<g id="edge23" class="edge">
<path fill="none" stroke="#cccccc" d="M869.572,-405.988C862.759,-398.202 853.129,-387.197 844.999,-377.905"/>
<polygon fill="#cccccc" stroke="#cccccc" points="847.567,-375.525 838.348,-370.304 842.299,-380.134 847.567,-375.525"/>
</g>
<!-- ForwardIndexType -->
<g id="node7" class="node">
<g id="a_node7"><a xlink:href="/v2.1/protocol/ForwardIndexType/" target="_top">
<path fill="#999999" stroke="#999999" d="M876.538,-312C876.538,-312 782.126,-312 782.126,-312 778.459,-312 774.792,-308.333 774.792,-304.667 774.792,-304.667 774.792,-297.333 774.792,-297.333 774.792,-293.667 778.459,-290 782.126,-290 782.126,-290 876.538,-290 876.538,-290 880.205,-290 883.871,-293.667 883.871,-297.333 883.871,-297.333 883.871,-304.667 883.871,-304.667 883.871,-308.333 880.205,-312 876.538,-312"/>
<text text-anchor="middle" x="829.332" y="-297.4" font-family="Helvetica,sans-Serif" font-size="12.00" fill="white">ForwardIndexType</text>
</a>
</g>
</g>
<!-- ForwardIndexType&#45;&gt;BidirectionalIndexType -->
<g id="edge29" class="edge">
<path fill="none" stroke="#cccccc" d="M829.332,-289.988C829.332,-282.91 829.332,-273.171 829.332,-264.478"/>
<polygon fill="#cccccc" stroke="#cccccc" points="832.832,-264.304 829.332,-254.304 825.832,-264.304 832.832,-264.304"/>
</g>
<!-- Hashable&#45;&gt;UInt -->
<g id="edge4" class="edge">
<path fill="none" stroke="#cccccc" d="M937.667,-231.82C917.882,-196.271 851.668,-77.2909 825.806,-30.8214"/>
<polygon fill="#cccccc" stroke="#cccccc" points="828.853,-29.098 820.932,-22.062 822.736,-32.5021 828.853,-29.098"/>
</g>
<!-- Hashable&#45;&gt;_IntegerType -->
<g id="edge15" class="edge">
<path fill="none" stroke="#cccccc" d="M913.27,-234.107C909.928,-233.343 906.565,-232.622 903.332,-232 801.601,-212.443 681.129,-198.182 614.677,-191.079"/>
<polygon fill="#cccccc" stroke="#cccccc" points="614.8,-187.572 604.487,-190.001 614.063,-194.534 614.8,-187.572"/>
</g>
<!-- IntegerArithmeticType&#45;&gt;_IntegerType -->
<g id="edge16" class="edge">
<path fill="none" stroke="#cccccc" d="M563.511,-231.988C563.637,-224.91 563.811,-215.171 563.966,-206.478"/>
<polygon fill="#cccccc" stroke="#cccccc" points="567.469,-206.365 564.148,-196.304 560.47,-206.24 567.469,-206.365"/>
</g>
<!-- IntegerLiteralConvertible -->
<g id="node10" class="node">
<g id="a_node10"><a xlink:href="/v2.1/protocol/IntegerLiteralConvertible/" target="_top">
<path fill="#999999" stroke="#999999" d="M474.054,-254C474.054,-254 348.609,-254 348.609,-254 344.943,-254 341.276,-250.333 341.276,-246.667 341.276,-246.667 341.276,-239.333 341.276,-239.333 341.276,-235.667 344.943,-232 348.609,-232 348.609,-232 474.054,-232 474.054,-232 477.721,-232 481.388,-235.667 481.388,-239.333 481.388,-239.333 481.388,-246.667 481.388,-246.667 481.388,-250.333 477.721,-254 474.054,-254"/>
<text text-anchor="middle" x="411.332" y="-239.4" font-family="Helvetica,sans-Serif" font-size="12.00" fill="white">IntegerLiteralConvertible</text>
</a>
</g>
</g>
<!-- IntegerLiteralConvertible&#45;&gt;_IntegerType -->
<g id="edge13" class="edge">
<path fill="none" stroke="#cccccc" d="M438.685,-231.988C463.412,-222.938 500.017,-209.54 527.348,-199.537"/>
<polygon fill="#cccccc" stroke="#cccccc" points="528.77,-202.743 536.958,-196.019 526.364,-196.17 528.77,-202.743"/>
</g>
<!-- IntegerType -->
<g id="node11" class="node">
<g id="a_node11"><a xlink:href="/v2.1/protocol/IntegerType/" target="_top">
<path fill="#999999" stroke="#999999" d="M751.533,-138C751.533,-138 693.13,-138 693.13,-138 689.464,-138 685.797,-134.333 685.797,-130.667 685.797,-130.667 685.797,-123.333 685.797,-123.333 685.797,-119.667 689.464,-116 693.13,-116 693.13,-116 751.533,-116 751.533,-116 755.2,-116 758.867,-119.667 758.867,-123.333 758.867,-123.333 758.867,-130.667 758.867,-130.667 758.867,-134.333 755.2,-138 751.533,-138"/>
<text text-anchor="middle" x="722.332" y="-123.4" font-family="Helvetica,sans-Serif" font-size="12.00" fill="white">IntegerType</text>
</a>
</g>
</g>
<!-- UnsignedIntegerType -->
<g id="node15" class="node">
<g id="a_node15"><a xlink:href="/v2.1/protocol/UnsignedIntegerType/" target="_top">
<path fill="#999999" stroke="#999999" d="M777.06,-80C777.06,-80 667.604,-80 667.604,-80 663.937,-80 660.27,-76.3333 660.27,-72.6667 660.27,-72.6667 660.27,-65.3333 660.27,-65.3333 660.27,-61.6667 663.937,-58 667.604,-58 667.604,-58 777.06,-58 777.06,-58 780.727,-58 784.393,-61.6667 784.393,-65.3333 784.393,-65.3333 784.393,-72.6667 784.393,-72.6667 784.393,-76.3333 780.727,-80 777.06,-80"/>
<text text-anchor="middle" x="722.332" y="-65.4" font-family="Helvetica,sans-Serif" font-size="12.00" fill="white">UnsignedIntegerType</text>
</a>
</g>
</g>
<!-- IntegerType&#45;&gt;UnsignedIntegerType -->
<g id="edge11" class="edge">
<path fill="none" stroke="#cccccc" d="M722.332,-115.988C722.332,-108.91 722.332,-99.1714 722.332,-90.4779"/>
<polygon fill="#cccccc" stroke="#cccccc" points="725.832,-90.3038 722.332,-80.3039 718.832,-90.3039 725.832,-90.3038"/>
</g>
<!-- RandomAccessIndexType&#45;&gt;IntegerType -->
<g id="edge25" class="edge">
<path fill="none" stroke="#cccccc" d="M798.705,-173.988C784.642,-165.52 764.257,-153.245 748.084,-143.507"/>
<polygon fill="#cccccc" stroke="#cccccc" points="749.5,-140.274 739.128,-138.114 745.889,-146.271 749.5,-140.274"/>
</g>
<!-- RandomAccessIndexType&#45;&gt;UInt -->
<g id="edge6" class="edge">
<path fill="none" stroke="#cccccc" d="M815.332,-173.756C815.332,-146.097 815.332,-69.5091 815.332,-32.5186"/>
<polygon fill="#cccccc" stroke="#cccccc" points="818.832,-32.408 815.332,-22.4081 811.832,-32.4081 818.832,-32.408"/>
</g>
<!-- Strideable&#45;&gt;RandomAccessIndexType -->
<g id="edge27" class="edge">
<path fill="none" stroke="#cccccc" d="M732.389,-231.988C747.947,-223.362 770.63,-210.785 788.345,-200.963"/>
<polygon fill="#cccccc" stroke="#cccccc" points="790.042,-204.024 797.091,-196.114 786.648,-197.902 790.042,-204.024"/>
</g>
<!-- UnsignedIntegerType&#45;&gt;UInt -->
<g id="edge1" class="edge">
<path fill="none" stroke="#cccccc" d="M738.958,-57.9883C753.022,-49.5201 773.407,-37.2452 789.58,-27.5067"/>
<polygon fill="#cccccc" stroke="#cccccc" points="791.774,-30.2707 798.536,-22.1138 788.163,-24.274 791.774,-30.2707"/>
</g>
<!-- _DisallowMixedSignArithmetic -->
<g id="node16" class="node">
<g id="a_node16"><a xlink:href="/v2.1/protocol/_DisallowMixedSignArithmetic/" target="_top">
<path fill="#999999" stroke="#999999" d="M654.041,-138C654.041,-138 498.623,-138 498.623,-138 494.956,-138 491.289,-134.333 491.289,-130.667 491.289,-130.667 491.289,-123.333 491.289,-123.333 491.289,-119.667 494.956,-116 498.623,-116 498.623,-116 654.041,-116 654.041,-116 657.708,-116 661.374,-119.667 661.374,-123.333 661.374,-123.333 661.374,-130.667 661.374,-130.667 661.374,-134.333 657.708,-138 654.041,-138"/>
<text text-anchor="middle" x="576.332" y="-123.4" font-family="Helvetica,sans-Serif" font-size="12.00" fill="white">_DisallowMixedSignArithmetic</text>
</a>
</g>
</g>
<!-- _DisallowMixedSignArithmetic&#45;&gt;UnsignedIntegerType -->
<g id="edge10" class="edge">
<path fill="none" stroke="#cccccc" d="M602.434,-115.988C625.853,-107.006 660.439,-93.7398 686.454,-83.7614"/>
<polygon fill="#cccccc" stroke="#cccccc" points="687.88,-86.963 695.964,-80.1138 685.374,-80.4272 687.88,-86.963"/>
</g>
<!-- _Incrementable&#45;&gt;ForwardIndexType -->
<g id="edge30" class="edge">
<path fill="none" stroke="#cccccc" d="M829.332,-347.988C829.332,-340.91 829.332,-331.171 829.332,-322.478"/>
<polygon fill="#cccccc" stroke="#cccccc" points="832.832,-322.304 829.332,-312.304 825.832,-322.304 832.832,-322.304"/>
</g>
<!-- _Incrementable&#45;&gt;_IntegerType -->
<g id="edge18" class="edge">
<path fill="none" stroke="#cccccc" d="M783.278,-354.406C749.425,-349.587 704.138,-338.321 673.332,-312 643.405,-286.43 661.278,-261.602 635.332,-232 624.241,-219.346 608.858,-208.806 595.245,-201.021"/>
<polygon fill="#cccccc" stroke="#cccccc" points="596.634,-197.792 586.179,-196.08 593.284,-203.939 596.634,-197.792"/>
</g>
<!-- _IntegerArithmeticType -->
<g id="node18" class="node">
<g id="a_node18"><a xlink:href="/v2.1/protocol/_IntegerArithmeticType/" target="_top">
<path fill="#999999" stroke="#999999" d="M525.547,-312C525.547,-312 407.117,-312 407.117,-312 403.45,-312 399.784,-308.333 399.784,-304.667 399.784,-304.667 399.784,-297.333 399.784,-297.333 399.784,-293.667 403.45,-290 407.117,-290 407.117,-290 525.547,-290 525.547,-290 529.214,-290 532.88,-293.667 532.88,-297.333 532.88,-297.333 532.88,-304.667 532.88,-304.667 532.88,-308.333 529.214,-312 525.547,-312"/>
<text text-anchor="middle" x="466.332" y="-297.4" font-family="Helvetica,sans-Serif" font-size="12.00" fill="white">_IntegerArithmeticType</text>
</a>
</g>
</g>
<!-- _IntegerArithmeticType&#45;&gt;IntegerArithmeticType -->
<g id="edge20" class="edge">
<path fill="none" stroke="#cccccc" d="M483.674,-289.988C498.479,-281.441 520.002,-269.015 536.944,-259.234"/>
<polygon fill="#cccccc" stroke="#cccccc" points="538.903,-262.145 545.813,-254.114 535.403,-256.083 538.903,-262.145"/>
</g>
<!-- _IntegerType&#45;&gt;IntegerType -->
<g id="edge24" class="edge">
<path fill="none" stroke="#cccccc" d="M592.579,-173.988C618.226,-164.898 656.247,-151.422 684.51,-141.405"/>
<polygon fill="#cccccc" stroke="#cccccc" points="685.807,-144.659 694.063,-138.019 683.469,-138.061 685.807,-144.659"/>
</g>
<!-- _IntegerType&#45;&gt;_DisallowMixedSignArithmetic -->
<g id="edge12" class="edge">
<path fill="none" stroke="#cccccc" d="M566.477,-173.988C568.011,-166.831 570.127,-156.955 572.006,-148.189"/>
<polygon fill="#cccccc" stroke="#cccccc" points="575.451,-148.815 574.124,-138.304 568.606,-147.349 575.451,-148.815"/>
</g>
<!-- _RandomAccessAmbiguity -->
<g id="node20" class="node">
<g id="a_node20"><a xlink:href="/v2.1/protocol/_RandomAccessAmbiguity/" target="_top">
<path fill="#999999" stroke="#999999" d="M1137.55,-254C1137.55,-254 999.118,-254 999.118,-254 995.452,-254 991.785,-250.333 991.785,-246.667 991.785,-246.667 991.785,-239.333 991.785,-239.333 991.785,-235.667 995.452,-232 999.118,-232 999.118,-232 1137.55,-232 1137.55,-232 1141.21,-232 1144.88,-235.667 1144.88,-239.333 1144.88,-239.333 1144.88,-246.667 1144.88,-246.667 1144.88,-250.333 1141.21,-254 1137.55,-254"/>
<text text-anchor="middle" x="1068.33" y="-239.4" font-family="Helvetica,sans-Serif" font-size="12.00" fill="white">_RandomAccessAmbiguity</text>
</a>
</g>
</g>
<!-- _RandomAccessAmbiguity&#45;&gt;RandomAccessIndexType -->
<g id="edge28" class="edge">
<path fill="none" stroke="#cccccc" d="M1023.1,-231.988C980.42,-222.541 916.335,-208.356 870.634,-198.241"/>
<polygon fill="#cccccc" stroke="#cccccc" points="871.118,-194.763 860.597,-196.019 869.605,-201.598 871.118,-194.763"/>
</g>
<!-- _Reflectable -->
<g id="node21" class="node">
<g id="a_node21"><a xlink:href="/v2.1/protocol/_Reflectable/" target="_top">
<path fill="#999999" stroke="#999999" d="M1370.03,-80C1370.03,-80 1308.63,-80 1308.63,-80 1304.97,-80 1301.3,-76.3333 1301.3,-72.6667 1301.3,-72.6667 1301.3,-65.3333 1301.3,-65.3333 1301.3,-61.6667 1304.97,-58 1308.63,-58 1308.63,-58 1370.03,-58 1370.03,-58 1373.7,-58 1377.36,-61.6667 1377.36,-65.3333 1377.36,-65.3333 1377.36,-72.6667 1377.36,-72.6667 1377.36,-76.3333 1373.7,-80 1370.03,-80"/>
<text text-anchor="middle" x="1339.33" y="-65.4" font-family="Helvetica,sans-Serif" font-size="12.00" fill="white">_Reflectable</text>
</a>
</g>
</g>
<!-- _Reflectable&#45;&gt;UInt -->
<g id="edge8" class="edge">
<path fill="none" stroke="#cccccc" d="M1301.15,-59.6532C1297.84,-59.0483 1294.53,-58.4862 1291.33,-58 1128.92,-33.31 933.209,-19.3062 852.697,-14.2194"/>
<polygon fill="#cccccc" stroke="#cccccc" points="852.761,-10.7167 842.563,-13.588 852.326,-17.7031 852.761,-10.7167"/>
</g>
<!-- _Strideable -->
<g id="node22" class="node">
<g id="a_node22"><a xlink:href="/v2.1/protocol/_Strideable/" target="_top">
<path fill="#999999" stroke="#999999" d="M745.032,-312C745.032,-312 689.632,-312 689.632,-312 685.966,-312 682.299,-308.333 682.299,-304.667 682.299,-304.667 682.299,-297.333 682.299,-297.333 682.299,-293.667 685.966,-290 689.632,-290 689.632,-290 745.032,-290 745.032,-290 748.698,-290 752.365,-293.667 752.365,-297.333 752.365,-297.333 752.365,-304.667 752.365,-304.667 752.365,-308.333 748.698,-312 745.032,-312"/>
<text text-anchor="middle" x="717.332" y="-297.4" font-family="Helvetica,sans-Serif" font-size="12.00" fill="white">_Strideable</text>
</a>
</g>
</g>
<!-- _Strideable&#45;&gt;Strideable -->
<g id="edge32" class="edge">
<path fill="none" stroke="#cccccc" d="M716.796,-289.988C716.416,-282.91 715.895,-273.171 715.429,-264.478"/>
<polygon fill="#cccccc" stroke="#cccccc" points="718.914,-264.102 714.884,-254.304 711.924,-264.477 718.914,-264.102"/>
</g>
</g>
</svg>
