<?xml version="1.0" encoding="UTF-8" standalone="no"?>
<!DOCTYPE svg PUBLIC "-//W3C//DTD SVG 1.1//EN"
 "http://www.w3.org/Graphics/SVG/1.1/DTD/svg11.dtd">
<!-- Generated by graphviz version 2.36.0 (20140111.2315)
 -->
<!-- Title: SequenceType &#45; Type Hierarchy &#45; SwiftDoc.org Pages: 1 -->
<svg width="5829pt" height="427pt"
 viewBox="0.00 0.00 5829.40 427.20" xmlns="http://www.w3.org/2000/svg" xmlns:xlink="http://www.w3.org/1999/xlink">
<g id="graph0" class="graph" transform="scale(1 1) rotate(0) translate(7.2 369.6)">
<g transform="translate(0 -369.6)">
<g>
    <path fill="#666666" d="M13.846,10.832c-0.336-0.464-0.792-0.844-1.368-1.14s-1.224-0.444-1.944-0.444
        c-0.384,0-0.772,0.052-1.164,0.156C8.977,9.509,8.622,9.677,8.301,9.908c-0.32,0.232-0.58,0.52-0.78,0.864
        c-0.2,0.344-0.3,0.756-0.3,1.236c0,0.464,0.092,0.852,0.276,1.164c0.184,0.312,0.432,0.576,0.744,0.792s0.68,0.4,1.104,0.552
        c0.423,0.152,0.876,0.309,1.356,0.468c0.576,0.177,1.16,0.376,1.752,0.601c0.592,0.224,1.128,0.52,1.608,0.888
        s0.872,0.828,1.176,1.38s0.456,1.252,0.456,2.101c0,0.88-0.164,1.644-0.492,2.292c-0.328,0.647-0.765,1.184-1.308,1.607
        c-0.544,0.424-1.172,0.74-1.884,0.948s-1.444,0.312-2.196,0.312c-1.072,0-2.108-0.208-3.108-0.624
        c-1-0.415-1.828-1.031-2.484-1.848l1.848-1.56c0.4,0.592,0.936,1.071,1.608,1.439c0.672,0.368,1.399,0.552,2.184,0.552
        c0.4,0,0.8-0.056,1.2-0.168c0.4-0.111,0.764-0.288,1.092-0.527c0.328-0.24,0.596-0.54,0.804-0.9
        c0.208-0.36,0.312-0.796,0.312-1.308s-0.108-0.94-0.324-1.284c-0.216-0.344-0.508-0.636-0.876-0.876s-0.796-0.444-1.284-0.612
        c-0.488-0.168-1.004-0.34-1.548-0.516c-0.544-0.16-1.08-0.356-1.608-0.588c-0.528-0.232-1-0.528-1.416-0.889
        c-0.416-0.359-0.752-0.804-1.008-1.332c-0.256-0.527-0.384-1.184-0.384-1.968c0-0.848,0.172-1.576,0.516-2.184
        c0.344-0.608,0.792-1.112,1.344-1.512c0.552-0.4,1.176-0.692,1.872-0.876c0.696-0.184,1.396-0.276,2.1-0.276
        c0.992,0,1.92,0.176,2.784,0.528c0.864,0.352,1.56,0.824,2.088,1.416L13.846,10.832z"/>
    <path fill="#666666" d="M18.813,13.304l2.568,8.688h0.048l2.712-8.688h2.376l2.76,8.688h0.048l2.568-8.688h2.376L30.501,24.68
        h-2.352l-2.808-8.544h-0.048l-2.784,8.544h-2.352l-3.792-11.376H18.813z"/>
    <path fill="#666666" d="M38.685,9.2c0,0.416-0.147,0.76-0.44,1.032c-0.294,0.272-0.647,0.408-1.06,0.408s-0.762-0.14-1.047-0.42
        c-0.286-0.28-0.429-0.62-0.429-1.02c0-0.416,0.143-0.764,0.429-1.044c0.286-0.28,0.635-0.42,1.047-0.42s0.766,0.14,1.06,0.42
        C38.538,8.437,38.685,8.784,38.685,9.2z M38.325,24.68h-2.256V13.304h2.256V24.68z"/>
    <path fill="#666666" d="M47.613,15.152h-2.64v9.528h-2.256v-9.528h-2.256v-1.848h2.256v-2.376c0-0.672,0.076-1.292,0.228-1.86
        c0.152-0.568,0.4-1.06,0.744-1.476c0.344-0.416,0.784-0.744,1.32-0.984c0.536-0.24,1.188-0.36,1.956-0.36
        c0.544,0,1.016,0.056,1.416,0.168l-0.264,1.944c-0.176-0.048-0.352-0.088-0.528-0.12c-0.176-0.032-0.376-0.048-0.6-0.048
        c-0.432,0-0.78,0.076-1.044,0.228c-0.264,0.152-0.468,0.356-0.612,0.612s-0.24,0.548-0.288,0.876
        c-0.048,0.328-0.072,0.668-0.072,1.02v2.376h2.64V15.152z"/>
    <path fill="#666666" d="M54.909,15.152h-3.024v5.91c0,0.687,0.128,1.177,0.384,1.472c0.256,0.295,0.664,0.442,1.224,0.442
        c0.208,0,0.432-0.021,0.672-0.065c0.24-0.044,0.456-0.11,0.648-0.198l0.072,1.848c-0.272,0.096-0.572,0.172-0.9,0.229
        c-0.328,0.056-0.668,0.084-1.02,0.084c-1.072,0-1.892-0.296-2.46-0.889c-0.568-0.592-0.852-1.479-0.852-2.664v-6.168h-2.184
        v-1.848h2.184V10.04h2.232v3.264h3.024V15.152z"/>
    <path fill="#666666" d="M57.356,7.688h5.832c1.088,0,2.176,0.16,3.264,0.48c1.088,0.32,2.072,0.824,2.952,1.512
        s1.592,1.568,2.136,2.64c0.544,1.072,0.816,2.36,0.816,3.864c0,1.456-0.272,2.716-0.816,3.78s-1.256,1.943-2.136,2.64
        s-1.864,1.216-2.952,1.561c-1.088,0.344-2.176,0.516-3.264,0.516h-5.832V7.688z M59.732,22.593h2.976
        c1.024,0,1.972-0.145,2.844-0.432c0.872-0.288,1.624-0.704,2.256-1.248c0.632-0.544,1.124-1.216,1.476-2.017
        c0.352-0.8,0.528-1.704,0.528-2.712c0-1.056-0.176-1.983-0.528-2.784c-0.353-0.8-0.844-1.468-1.476-2.004
        c-0.632-0.536-1.384-0.944-2.256-1.224s-1.82-0.42-2.844-0.42h-2.976V22.593z"/>
    <path fill="#666666" d="M86.06,18.969c0,0.88-0.156,1.688-0.468,2.424c-0.312,0.736-0.744,1.372-1.296,1.908
        c-0.552,0.536-1.204,0.952-1.956,1.248c-0.752,0.296-1.56,0.443-2.424,0.443c-0.864,0-1.672-0.147-2.424-0.443
        c-0.752-0.296-1.4-0.712-1.944-1.248c-0.544-0.536-0.972-1.172-1.284-1.908c-0.312-0.735-0.468-1.544-0.468-2.424
        s0.156-1.684,0.468-2.412c0.312-0.728,0.74-1.356,1.284-1.884c0.543-0.528,1.191-0.939,1.944-1.236
        c0.752-0.296,1.56-0.444,2.424-0.444c0.864,0,1.672,0.148,2.424,0.444c0.752,0.297,1.404,0.708,1.956,1.236
        c0.552,0.527,0.984,1.156,1.296,1.884C85.904,17.285,86.06,18.089,86.06,18.969z M83.708,18.98c0-0.542-0.084-1.061-0.252-1.556
        c-0.169-0.494-0.414-0.929-0.734-1.304s-0.718-0.674-1.192-0.897s-1.015-0.335-1.625-0.335c-0.61,0-1.152,0.111-1.625,0.335
        c-0.474,0.224-0.871,0.522-1.191,0.897c-0.321,0.375-0.566,0.81-0.734,1.304C76.184,17.92,76.1,18.438,76.1,18.98
        c0,0.543,0.084,1.062,0.253,1.556c0.168,0.495,0.413,0.934,0.734,1.316c0.321,0.383,0.718,0.686,1.191,0.909
        c0.473,0.224,1.015,0.335,1.625,0.335c0.61,0,1.151-0.111,1.625-0.335s0.871-0.526,1.192-0.909s0.565-0.821,0.734-1.316
        C83.624,20.042,83.708,19.523,83.708,18.98z"/>
    <path fill="#666666" d="M96.428,16.184c-0.24-0.368-0.6-0.676-1.08-0.924s-0.992-0.372-1.536-0.372
        c-0.592,0-1.116,0.112-1.572,0.336c-0.456,0.225-0.844,0.524-1.164,0.9c-0.32,0.376-0.564,0.812-0.732,1.308
        s-0.252,1.017-0.252,1.56c0,0.545,0.084,1.064,0.252,1.561s0.412,0.933,0.732,1.308c0.32,0.376,0.712,0.677,1.176,0.9
        c0.464,0.225,0.992,0.336,1.584,0.336c0.576,0,1.1-0.111,1.572-0.336c0.472-0.224,0.86-0.528,1.164-0.912l1.512,1.368
        c-0.48,0.561-1.08,0.996-1.8,1.308c-0.72,0.312-1.536,0.468-2.448,0.468c-0.88,0-1.692-0.144-2.436-0.432
        c-0.744-0.288-1.388-0.691-1.932-1.212c-0.544-0.52-0.972-1.147-1.284-1.884s-0.468-1.561-0.468-2.473
        c0-0.896,0.152-1.711,0.456-2.447c0.304-0.736,0.728-1.368,1.272-1.896c0.543-0.527,1.188-0.936,1.932-1.224
        c0.744-0.288,1.548-0.433,2.412-0.433c0.8,0,1.596,0.16,2.388,0.48s1.419,0.784,1.884,1.392L96.428,16.184z"/>
    <path fill="#666666" d="M103.1,23.24c0,0.417-0.152,0.784-0.456,1.104c-0.304,0.32-0.688,0.479-1.152,0.479
        c-0.448,0-0.828-0.155-1.14-0.468c-0.312-0.312-0.468-0.676-0.468-1.092c0-0.432,0.152-0.804,0.456-1.116
        c0.304-0.312,0.688-0.468,1.152-0.468c0.464,0,0.848,0.152,1.152,0.456C102.947,22.44,103.1,22.808,103.1,23.24z"/>
    <path fill="#666666" d="M116.635,18.969c0,0.88-0.156,1.688-0.468,2.424c-0.312,0.736-0.744,1.372-1.296,1.908
        c-0.552,0.536-1.204,0.952-1.956,1.248c-0.752,0.296-1.56,0.443-2.424,0.443c-0.864,0-1.672-0.147-2.424-0.443
        c-0.752-0.296-1.4-0.712-1.944-1.248c-0.544-0.536-0.972-1.172-1.284-1.908c-0.312-0.735-0.468-1.544-0.468-2.424
        s0.156-1.684,0.468-2.412c0.312-0.728,0.74-1.356,1.284-1.884c0.543-0.528,1.191-0.939,1.944-1.236
        c0.752-0.296,1.56-0.444,2.424-0.444c0.864,0,1.672,0.148,2.424,0.444c0.752,0.297,1.404,0.708,1.956,1.236
        c0.552,0.527,0.984,1.156,1.296,1.884C116.479,17.285,116.635,18.089,116.635,18.969z M114.283,18.98
        c0-0.542-0.084-1.061-0.252-1.556c-0.169-0.494-0.414-0.929-0.734-1.304s-0.718-0.674-1.192-0.897s-1.015-0.335-1.625-0.335
        c-0.61,0-1.152,0.111-1.625,0.335c-0.474,0.224-0.871,0.522-1.191,0.897c-0.321,0.375-0.566,0.81-0.734,1.304
        c-0.169,0.495-0.253,1.014-0.253,1.556c0,0.543,0.084,1.062,0.253,1.556c0.168,0.495,0.413,0.934,0.734,1.316
        c0.321,0.383,0.718,0.686,1.191,0.909c0.473,0.224,1.015,0.335,1.625,0.335c0.61,0,1.151-0.111,1.625-0.335
        s0.871-0.526,1.192-0.909s0.565-0.821,0.734-1.316C114.199,20.042,114.283,19.523,114.283,18.98z"/>
    <path fill="#666666" d="M119.251,14.577c-0.016-0.48-0.04-0.904-0.072-1.272h2.136c0.032,0.288,0.056,0.62,0.072,0.996
        c0.016,0.376,0.024,0.684,0.024,0.924h0.072c0.32-0.672,0.788-1.212,1.404-1.62c0.616-0.408,1.308-0.612,2.076-0.612
        c0.352,0,0.648,0.033,0.888,0.097l-0.096,2.088c-0.32-0.08-0.664-0.12-1.032-0.12c-0.544,0-1.016,0.101-1.416,0.3
        c-0.4,0.2-0.732,0.468-0.996,0.805c-0.264,0.336-0.46,0.724-0.588,1.163c-0.128,0.44-0.192,0.9-0.192,1.381v5.976h-2.256v-8.928
        C119.275,15.449,119.267,15.056,119.251,14.577z"/>
    <path fill="#666666" d="M128.419,26.625c0.496,0.56,1.116,1.008,1.86,1.344c0.744,0.336,1.508,0.504,2.292,0.504
        c0.752,0,1.384-0.108,1.896-0.324s0.924-0.512,1.236-0.888s0.536-0.82,0.672-1.332c0.136-0.513,0.204-1.064,0.204-1.656v-1.464
        h-0.048c-0.416,0.641-0.984,1.128-1.704,1.464c-0.72,0.336-1.488,0.504-2.304,0.504c-0.864,0-1.652-0.151-2.364-0.456
        c-0.712-0.304-1.316-0.72-1.812-1.248c-0.496-0.527-0.88-1.147-1.152-1.859s-0.408-1.477-0.408-2.292
        c0-0.816,0.136-1.584,0.408-2.305c0.272-0.72,0.656-1.348,1.152-1.884c0.496-0.535,1.096-0.96,1.8-1.271
        c0.704-0.312,1.488-0.469,2.352-0.469c0.816,0,1.596,0.177,2.34,0.528c0.744,0.353,1.332,0.888,1.764,1.608h0.048v-1.824h2.184
        v10.8c0,0.832-0.104,1.628-0.312,2.388c-0.208,0.76-0.56,1.433-1.056,2.017s-1.144,1.052-1.944,1.404
        c-0.8,0.352-1.792,0.527-2.976,0.527c-0.992,0-1.988-0.18-2.988-0.54c-1-0.359-1.86-0.868-2.58-1.523L128.419,26.625z
         M129.091,18.873c0,0.527,0.084,1.031,0.253,1.512c0.168,0.479,0.417,0.904,0.746,1.271c0.329,0.369,0.726,0.664,1.192,0.889
        c0.465,0.224,0.995,0.336,1.589,0.336c0.577,0,1.107-0.104,1.589-0.312c0.481-0.207,0.891-0.491,1.228-0.852
        s0.598-0.784,0.782-1.272c0.185-0.487,0.277-1.012,0.277-1.571c0-0.544-0.093-1.057-0.277-1.536
        c-0.185-0.48-0.449-0.904-0.794-1.272c-0.345-0.367-0.755-0.66-1.228-0.876c-0.474-0.216-1-0.324-1.577-0.324
        c-0.594,0-1.124,0.108-1.589,0.324c-0.466,0.216-0.863,0.504-1.192,0.864s-0.578,0.784-0.746,1.271
        C129.175,17.812,129.091,18.329,129.091,18.873z"/>
</g>
<g><a xlink:href="/" pointer-events="all" target="_top"><polygon fill="none" points="0,0 145,0 145,35 0,35 0,0"/></a></g>

</g>


<!-- AnyBidirectionalCollection -->
<g id="node1" class="node">
<g id="a_node1"><a xlink:href="/swift-2/type/AnyBidirectionalCollection/" target="_top">
<polygon fill="#999999" stroke="#999999" points="1132.05,-22 983.946,-22 983.946,-0 1132.05,-0 1132.05,-22"/>
<text text-anchor="middle" x="1058" y="-7.4" font-family="Helvetica,sans-Serif" font-size="12.00" fill="white">AnyBidirectionalCollection</text>
</a>
</g>
</g>
<!-- AnyCollectionType -->
<g id="node2" class="node">
<g id="a_node2"><a xlink:href="/swift-2/protocol/AnyCollectionType/" target="_top">
<path fill="#999999" stroke="#999999" d="M908.211,-80C908.211,-80 813.789,-80 813.789,-80 810.123,-80 806.456,-76.3333 806.456,-72.6667 806.456,-72.6667 806.456,-65.3333 806.456,-65.3333 806.456,-61.6667 810.123,-58 813.789,-58 813.789,-58 908.211,-58 908.211,-58 911.877,-58 915.544,-61.6667 915.544,-65.3333 915.544,-65.3333 915.544,-72.6667 915.544,-72.6667 915.544,-76.3333 911.877,-80 908.211,-80"/>
<text text-anchor="middle" x="861" y="-65.4" font-family="Helvetica,sans-Serif" font-size="12.00" fill="white">AnyCollectionType</text>
</a>
</g>
</g>
<!-- AnyCollectionType&#45;&gt;AnyBidirectionalCollection -->
<g id="edge83" class="edge">
<path fill="none" stroke="#cccccc" d="M896.22,-57.9883C928.895,-48.7 977.681,-34.8318 1013.13,-24.7542"/>
<polygon fill="#cccccc" stroke="#cccccc" points="1014.09,-28.1203 1022.75,-22.0192 1012.18,-21.387 1014.09,-28.1203"/>
</g>
<!-- AnyForwardCollection -->
<g id="node3" class="node">
<g id="a_node3"><a xlink:href="/swift-2/type/AnyForwardCollection/" target="_top">
<polygon fill="#999999" stroke="#999999" points="780.535,-22 653.465,-22 653.465,-0 780.535,-0 780.535,-22"/>
<text text-anchor="middle" x="717" y="-7.4" font-family="Helvetica,sans-Serif" font-size="12.00" fill="white">AnyForwardCollection</text>
</a>
</g>
</g>
<!-- AnyCollectionType&#45;&gt;AnyForwardCollection -->
<g id="edge84" class="edge">
<path fill="none" stroke="#cccccc" d="M835.256,-57.9883C812.158,-49.0057 778.045,-35.7398 752.386,-25.7614"/>
<polygon fill="#cccccc" stroke="#cccccc" points="753.596,-22.4763 743.007,-22.1138 751.058,-29.0004 753.596,-22.4763"/>
</g>
<!-- AnyRandomAccessCollection -->
<g id="node5" class="node">
<g id="a_node5"><a xlink:href="/swift-2/type/AnyRandomAccessCollection/" target="_top">
<polygon fill="#999999" stroke="#999999" points="965.554,-22 798.446,-22 798.446,-0 965.554,-0 965.554,-22"/>
<text text-anchor="middle" x="882" y="-7.4" font-family="Helvetica,sans-Serif" font-size="12.00" fill="white">AnyRandomAccessCollection</text>
</a>
</g>
</g>
<!-- AnyCollectionType&#45;&gt;AnyRandomAccessCollection -->
<g id="edge85" class="edge">
<path fill="none" stroke="#cccccc" d="M864.754,-57.9883C867.468,-50.7525 871.224,-40.7373 874.538,-31.9"/>
<polygon fill="#cccccc" stroke="#cccccc" points="877.902,-32.8961 878.136,-22.3039 871.348,-30.4382 877.902,-32.8961"/>
</g>
<!-- AnyGenerator -->
<g id="node4" class="node">
<g id="a_node4"><a xlink:href="/swift-2/type/AnyGenerator/" target="_top">
<polygon fill="#999999" stroke="#999999" points="84.0314,-22 -0.0313876,-22 -0.0313876,-0 84.0314,-0 84.0314,-22"/>
<text text-anchor="middle" x="42" y="-7.4" font-family="Helvetica,sans-Serif" font-size="12.00" fill="white">AnyGenerator</text>
</a>
</g>
</g>
<!-- AnySequence -->
<g id="node6" class="node">
<g id="a_node6"><a xlink:href="/swift-2/type/AnySequence/" target="_top">
<polygon fill="#999999" stroke="#999999" points="187.044,-22 102.956,-22 102.956,-0 187.044,-0 187.044,-22"/>
<text text-anchor="middle" x="145" y="-7.4" font-family="Helvetica,sans-Serif" font-size="12.00" fill="white">AnySequence</text>
</a>
</g>
</g>
<!-- Array -->
<g id="node7" class="node">
<g id="a_node7"><a xlink:href="/swift-2/type/Array/" target="_top">
<polygon fill="#999999" stroke="#999999" points="1204,-22 1150,-22 1150,-0 1204,-0 1204,-22"/>
<text text-anchor="middle" x="1177" y="-7.4" font-family="Helvetica,sans-Serif" font-size="12.00" fill="white">Array</text>
</a>
</g>
</g>
<!-- ArraySlice -->
<g id="node8" class="node">
<g id="a_node8"><a xlink:href="/swift-2/type/ArraySlice/" target="_top">
<polygon fill="#999999" stroke="#999999" points="1404.01,-22 1339.99,-22 1339.99,-0 1404.01,-0 1404.01,-22"/>
<text text-anchor="middle" x="1372" y="-7.4" font-family="Helvetica,sans-Serif" font-size="12.00" fill="white">ArraySlice</text>
</a>
</g>
</g>
<!-- CollectionOfOne -->
<g id="node9" class="node">
<g id="a_node9"><a xlink:href="/swift-2/type/CollectionOfOne/" target="_top">
<polygon fill="#999999" stroke="#999999" points="375.032,-22 276.968,-22 276.968,-0 375.032,-0 375.032,-22"/>
<text text-anchor="middle" x="326" y="-7.4" font-family="Helvetica,sans-Serif" font-size="12.00" fill="white">CollectionOfOne</text>
</a>
</g>
</g>
<!-- CollectionType -->
<g id="node10" class="node">
<g id="a_node10"><a xlink:href="/swift-2/protocol/CollectionType/" target="_top">
<path fill="#999999" stroke="#999999" d="M2095.7,-254C2095.7,-254 2022.3,-254 2022.3,-254 2018.63,-254 2014.96,-250.333 2014.96,-246.667 2014.96,-246.667 2014.96,-239.333 2014.96,-239.333 2014.96,-235.667 2018.63,-232 2022.3,-232 2022.3,-232 2095.7,-232 2095.7,-232 2099.37,-232 2103.04,-235.667 2103.04,-239.333 2103.04,-239.333 2103.04,-246.667 2103.04,-246.667 2103.04,-250.333 2099.37,-254 2095.7,-254"/>
<text text-anchor="middle" x="2059" y="-239.4" font-family="Helvetica,sans-Serif" font-size="12.00" fill="white">CollectionType</text>
</a>
</g>
</g>
<!-- CollectionType&#45;&gt;AnyBidirectionalCollection -->
<g id="edge50" class="edge">
<path fill="none" stroke="#cccccc" d="M2014.77,-241.639C1851.02,-240.024 1284.95,-231.873 1213,-196 1139.41,-159.31 1087.34,-70.2392 1067.21,-31.0461"/>
<polygon fill="#cccccc" stroke="#cccccc" points="1070.3,-29.3864 1062.69,-22.0122 1064.04,-32.5209 1070.3,-29.3864"/>
</g>
<!-- CollectionType&#45;&gt;AnyCollectionType -->
<g id="edge51" class="edge">
<path fill="none" stroke="#cccccc" d="M2014.8,-241.931C1825.31,-241.388 1086.97,-236.66 992,-196 938.601,-173.138 894.263,-118.007 873.565,-88.8341"/>
<polygon fill="#cccccc" stroke="#cccccc" points="876.262,-86.5805 867.694,-80.3482 870.506,-90.5632 876.262,-86.5805"/>
</g>
<!-- CollectionType&#45;&gt;AnyForwardCollection -->
<g id="edge52" class="edge">
<path fill="none" stroke="#cccccc" d="M2014.9,-241.707C1821.48,-240.214 1053.25,-232.045 952,-196 854.879,-161.426 766.78,-69.4591 732.339,-30.1882"/>
<polygon fill="#cccccc" stroke="#cccccc" points="734.651,-27.5097 725.465,-22.2299 729.353,-32.0855 734.651,-27.5097"/>
</g>
<!-- CollectionType&#45;&gt;AnyRandomAccessCollection -->
<g id="edge53" class="edge">
<path fill="none" stroke="#cccccc" d="M2014.88,-241C1847.39,-237.028 1256.29,-221.332 1176,-196 1060.55,-159.575 945.113,-66.8819 900.869,-28.7625"/>
<polygon fill="#cccccc" stroke="#cccccc" points="903.061,-26.0299 893.221,-22.102 898.463,-31.3088 903.061,-26.0299"/>
</g>
<!-- CollectionType&#45;&gt;Array -->
<g id="edge54" class="edge">
<path fill="none" stroke="#cccccc" d="M2014.96,-242.392C1853.32,-243.446 1298.88,-243.538 1237,-196 1185.35,-156.317 1177.52,-71.2177 1176.76,-32.2446"/>
<polygon fill="#cccccc" stroke="#cccccc" points="1180.26,-32.1211 1176.71,-22.1396 1173.26,-32.1578 1180.26,-32.1211"/>
</g>
<!-- CollectionType&#45;&gt;ArraySlice -->
<g id="edge55" class="edge">
<path fill="none" stroke="#cccccc" d="M2042.15,-231.931C1988.34,-200.306 1814.98,-102.435 1658,-58 1555.2,-28.9033 1522.91,-42.2199 1414.22,-22.0645"/>
<polygon fill="#cccccc" stroke="#cccccc" points="1414.65,-18.5825 1404.17,-20.146 1413.33,-25.4585 1414.65,-18.5825"/>
</g>
<!-- CollectionType&#45;&gt;CollectionOfOne -->
<g id="edge56" class="edge">
<path fill="none" stroke="#cccccc" d="M2014.79,-241.356C1802.56,-238.139 893.557,-222.887 770,-196 603.7,-159.811 420.542,-64.4834 352.959,-27.2282"/>
<polygon fill="#cccccc" stroke="#cccccc" points="354.284,-23.9607 343.842,-22.1669 350.886,-30.0808 354.284,-23.9607"/>
</g>
<!-- ContiguousArray -->
<g id="node11" class="node">
<g id="a_node11"><a xlink:href="/swift-2/type/ContiguousArray/" target="_top">
<polygon fill="#999999" stroke="#999999" points="1321.53,-22 1222.47,-22 1222.47,-0 1321.53,-0 1321.53,-22"/>
<text text-anchor="middle" x="1272" y="-7.4" font-family="Helvetica,sans-Serif" font-size="12.00" fill="white">ContiguousArray</text>
</a>
</g>
</g>
<!-- CollectionType&#45;&gt;ContiguousArray -->
<g id="edge57" class="edge">
<path fill="none" stroke="#cccccc" d="M2014.78,-241.135C1850.08,-237.701 1280.3,-223.843 1254,-196 1211.29,-150.782 1243.55,-68.5911 1261.76,-31.3102"/>
<polygon fill="#cccccc" stroke="#cccccc" points="1265.05,-32.5566 1266.45,-22.0541 1258.81,-29.3938 1265.05,-32.5566"/>
</g>
<!-- Dictionary -->
<g id="node12" class="node">
<g id="a_node12"><a xlink:href="/swift-2/type/Dictionary/" target="_top">
<polygon fill="#999999" stroke="#999999" points="456.511,-22 393.489,-22 393.489,-0 456.511,-0 456.511,-22"/>
<text text-anchor="middle" x="425" y="-7.4" font-family="Helvetica,sans-Serif" font-size="12.00" fill="white">Dictionary</text>
</a>
</g>
</g>
<!-- CollectionType&#45;&gt;Dictionary -->
<g id="edge58" class="edge">
<path fill="none" stroke="#cccccc" d="M2014.74,-241.328C1809.34,-238.077 954.224,-223.016 838,-196 758.285,-177.471 534.414,-67.0463 454.12,-26.7261"/>
<polygon fill="#cccccc" stroke="#cccccc" points="455.565,-23.5353 445.059,-22.1674 452.419,-29.7885 455.565,-23.5353"/>
</g>
<!-- DictionaryLiteral -->
<g id="node13" class="node">
<g id="a_node13"><a xlink:href="/swift-2/type/DictionaryLiteral/" target="_top">
<polygon fill="#999999" stroke="#999999" points="1518.02,-22 1421.98,-22 1421.98,-0 1518.02,-0 1518.02,-22"/>
<text text-anchor="middle" x="1470" y="-7.4" font-family="Helvetica,sans-Serif" font-size="12.00" fill="white">DictionaryLiteral</text>
</a>
</g>
</g>
<!-- CollectionType&#45;&gt;DictionaryLiteral -->
<g id="edge59" class="edge">
<path fill="none" stroke="#cccccc" d="M2050.07,-231.738C2021.35,-199.542 1927.37,-100.159 1826,-58 1705.43,-7.85671 1661.56,-39.9156 1528.34,-22.0744"/>
<polygon fill="#cccccc" stroke="#cccccc" points="1528.56,-18.5708 1518.17,-20.6392 1527.59,-25.5021 1528.56,-18.5708"/>
</g>
<!-- EmptyCollection -->
<g id="node14" class="node">
<g id="a_node14"><a xlink:href="/swift-2/type/EmptyCollection/" target="_top">
<polygon fill="#999999" stroke="#999999" points="2184.03,-22 2087.97,-22 2087.97,-0 2184.03,-0 2184.03,-22"/>
<text text-anchor="middle" x="2136" y="-7.4" font-family="Helvetica,sans-Serif" font-size="12.00" fill="white">EmptyCollection</text>
</a>
</g>
</g>
<!-- CollectionType&#45;&gt;EmptyCollection -->
<g id="edge60" class="edge">
<path fill="none" stroke="#cccccc" d="M2074.63,-231.721C2086.07,-223.402 2101.1,-210.683 2110,-196 2141.69,-143.723 2140.71,-68.0232 2138.06,-32.2187"/>
<polygon fill="#cccccc" stroke="#cccccc" points="2141.54,-31.7364 2137.19,-22.076 2134.56,-32.3409 2141.54,-31.7364"/>
</g>
<!-- FilterCollection -->
<g id="node18" class="node">
<g id="a_node18"><a xlink:href="/swift-2/type/FilterCollection/" target="_top">
<polygon fill="#999999" stroke="#999999" points="2860.52,-22 2771.48,-22 2771.48,-0 2860.52,-0 2860.52,-22"/>
<text text-anchor="middle" x="2816" y="-7.4" font-family="Helvetica,sans-Serif" font-size="12.00" fill="white">FilterCollection</text>
</a>
</g>
</g>
<!-- CollectionType&#45;&gt;FilterCollection -->
<g id="edge61" class="edge">
<path fill="none" stroke="#cccccc" d="M2103.18,-233.776C2145.92,-225.48 2212.35,-211.683 2269,-196 2464.72,-141.819 2693.42,-58.0895 2780.18,-25.5662"/>
<polygon fill="#cccccc" stroke="#cccccc" points="2781.44,-28.8322 2789.57,-22.0387 2778.97,-22.2794 2781.44,-28.8322"/>
</g>
<!-- LazyBidirectionalCollection -->
<g id="node24" class="node">
<g id="a_node24"><a xlink:href="/swift-2/type/LazyBidirectionalCollection/" target="_top">
<polygon fill="#999999" stroke="#999999" points="2069.56,-22 1916.44,-22 1916.44,-0 2069.56,-0 2069.56,-22"/>
<text text-anchor="middle" x="1993" y="-7.4" font-family="Helvetica,sans-Serif" font-size="12.00" fill="white">LazyBidirectionalCollection</text>
</a>
</g>
</g>
<!-- CollectionType&#45;&gt;LazyBidirectionalCollection -->
<g id="edge62" class="edge">
<path fill="none" stroke="#cccccc" d="M2069.29,-231.741C2077.21,-223.059 2087.55,-209.848 2092,-196 2110.78,-137.612 2124.99,-109.705 2092,-58 2082.33,-42.841 2066.23,-32.5999 2049.79,-25.7136"/>
<polygon fill="#cccccc" stroke="#cccccc" points="2050.71,-22.3193 2040.12,-22.035 2048.22,-28.8619 2050.71,-22.3193"/>
</g>
<!-- LazyForwardCollection -->
<g id="node25" class="node">
<g id="a_node25"><a xlink:href="/swift-2/type/LazyForwardCollection/" target="_top">
<polygon fill="#999999" stroke="#999999" points="2334.04,-22 2201.96,-22 2201.96,-0 2334.04,-0 2334.04,-22"/>
<text text-anchor="middle" x="2268" y="-7.4" font-family="Helvetica,sans-Serif" font-size="12.00" fill="white">LazyForwardCollection</text>
</a>
</g>
</g>
<!-- CollectionType&#45;&gt;LazyForwardCollection -->
<g id="edge63" class="edge">
<path fill="none" stroke="#cccccc" d="M2078.38,-231.925C2093.44,-223.538 2114.33,-210.634 2130,-196 2186.03,-143.693 2235.62,-66.3777 2256.93,-30.9659"/>
<polygon fill="#cccccc" stroke="#cccccc" points="2260.07,-32.5294 2262.17,-22.1447 2254.05,-28.9534 2260.07,-32.5294"/>
</g>
<!-- LazyRandomAccessCollection -->
<g id="node26" class="node">
<g id="a_node26"><a xlink:href="/swift-2/type/LazyRandomAccessCollection/" target="_top">
<polygon fill="#999999" stroke="#999999" points="2524.06,-22 2351.94,-22 2351.94,-0 2524.06,-0 2524.06,-22"/>
<text text-anchor="middle" x="2438" y="-7.4" font-family="Helvetica,sans-Serif" font-size="12.00" fill="white">LazyRandomAccessCollection</text>
</a>
</g>
</g>
<!-- CollectionType&#45;&gt;LazyRandomAccessCollection -->
<g id="edge64" class="edge">
<path fill="none" stroke="#cccccc" d="M2081.67,-231.985C2101.17,-223.143 2129.89,-209.578 2154,-196 2254.75,-139.259 2368.45,-61.0076 2415.64,-27.8583"/>
<polygon fill="#cccccc" stroke="#cccccc" points="2417.75,-30.6498 2423.91,-22.0288 2413.72,-24.9275 2417.75,-30.6498"/>
</g>
<!-- MapCollection -->
<g id="node28" class="node">
<g id="a_node28"><a xlink:href="/swift-2/type/MapCollection/" target="_top">
<polygon fill="#999999" stroke="#999999" points="2628.03,-22 2541.97,-22 2541.97,-0 2628.03,-0 2628.03,-22"/>
<text text-anchor="middle" x="2585" y="-7.4" font-family="Helvetica,sans-Serif" font-size="12.00" fill="white">MapCollection</text>
</a>
</g>
</g>
<!-- CollectionType&#45;&gt;MapCollection -->
<g id="edge65" class="edge">
<path fill="none" stroke="#cccccc" d="M2089.04,-231.923C2114.95,-223.042 2153.25,-209.456 2186,-196 2326.27,-138.375 2489.29,-59.2911 2555.15,-26.8248"/>
<polygon fill="#cccccc" stroke="#cccccc" points="2557.09,-29.7695 2564.5,-22.2026 2553.99,-23.4934 2557.09,-29.7695"/>
</g>
<!-- MutableCollectionType -->
<g id="node31" class="node">
<g id="a_node31"><a xlink:href="/swift-2/protocol/MutableCollectionType/" target="_top">
<path fill="#999999" stroke="#999999" d="M1387.22,-196C1387.22,-196 1270.78,-196 1270.78,-196 1267.11,-196 1263.45,-192.333 1263.45,-188.667 1263.45,-188.667 1263.45,-181.333 1263.45,-181.333 1263.45,-177.667 1267.11,-174 1270.78,-174 1270.78,-174 1387.22,-174 1387.22,-174 1390.89,-174 1394.55,-177.667 1394.55,-181.333 1394.55,-181.333 1394.55,-188.667 1394.55,-188.667 1394.55,-192.333 1390.89,-196 1387.22,-196"/>
<text text-anchor="middle" x="1329" y="-181.4" font-family="Helvetica,sans-Serif" font-size="12.00" fill="white">MutableCollectionType</text>
</a>
</g>
</g>
<!-- CollectionType&#45;&gt;MutableCollectionType -->
<g id="edge66" class="edge">
<path fill="none" stroke="#cccccc" d="M2014.71,-238.602C1893.69,-229.319 1556.43,-203.447 1404.68,-191.806"/>
<polygon fill="#cccccc" stroke="#cccccc" points="1404.76,-188.301 1394.52,-191.026 1404.22,-195.281 1404.76,-188.301"/>
</g>
<!-- MutableSliceable -->
<g id="node32" class="node">
<g id="a_node32"><a xlink:href="/swift-2/protocol/MutableSliceable/" target="_top">
<path fill="#999999" stroke="#999999" d="M1492.21,-138C1492.21,-138 1405.79,-138 1405.79,-138 1402.13,-138 1398.46,-134.333 1398.46,-130.667 1398.46,-130.667 1398.46,-123.333 1398.46,-123.333 1398.46,-119.667 1402.13,-116 1405.79,-116 1405.79,-116 1492.21,-116 1492.21,-116 1495.87,-116 1499.54,-119.667 1499.54,-123.333 1499.54,-123.333 1499.54,-130.667 1499.54,-130.667 1499.54,-134.333 1495.87,-138 1492.21,-138"/>
<text text-anchor="middle" x="1449" y="-123.4" font-family="Helvetica,sans-Serif" font-size="12.00" fill="white">MutableSliceable</text>
</a>
</g>
</g>
<!-- CollectionType&#45;&gt;MutableSliceable -->
<g id="edge67" class="edge">
<path fill="none" stroke="#cccccc" d="M2014.64,-233.71C1907.04,-213.601 1632.04,-162.208 1509.5,-139.307"/>
<polygon fill="#cccccc" stroke="#cccccc" points="1510.01,-135.841 1499.53,-137.444 1508.72,-142.722 1510.01,-135.841"/>
</g>
<!-- Range -->
<g id="node34" class="node">
<g id="a_node34"><a xlink:href="/swift-2/type/Range/" target="_top">
<polygon fill="#999999" stroke="#999999" points="3223,-22 3169,-22 3169,-0 3223,-0 3223,-22"/>
<text text-anchor="middle" x="3196" y="-7.4" font-family="Helvetica,sans-Serif" font-size="12.00" fill="white">Range</text>
</a>
</g>
</g>
<!-- CollectionType&#45;&gt;Range -->
<g id="edge68" class="edge">
<path fill="none" stroke="#cccccc" d="M2103.12,-238.263C2174.19,-231.885 2318.29,-217.468 2439,-196 2718.93,-146.216 3049.58,-54.1199 3158.89,-22.7725"/>
<polygon fill="#cccccc" stroke="#cccccc" points="3160.12,-26.0593 3168.77,-19.932 3158.19,-19.3319 3160.12,-26.0593"/>
</g>
<!-- RangeReplaceableCollectionType -->
<g id="node36" class="node">
<g id="a_node36"><a xlink:href="/swift-2/protocol/RangeReplaceableCollectionType/" target="_top">
<path fill="#999999" stroke="#999999" d="M1776.76,-138C1776.76,-138 1601.24,-138 1601.24,-138 1597.57,-138 1593.91,-134.333 1593.91,-130.667 1593.91,-130.667 1593.91,-123.333 1593.91,-123.333 1593.91,-119.667 1597.57,-116 1601.24,-116 1601.24,-116 1776.76,-116 1776.76,-116 1780.43,-116 1784.09,-119.667 1784.09,-123.333 1784.09,-123.333 1784.09,-130.667 1784.09,-130.667 1784.09,-134.333 1780.43,-138 1776.76,-138"/>
<text text-anchor="middle" x="1689" y="-123.4" font-family="Helvetica,sans-Serif" font-size="12.00" fill="white">RangeReplaceableCollectionType</text>
</a>
</g>
</g>
<!-- CollectionType&#45;&gt;RangeReplaceableCollectionType -->
<g id="edge69" class="edge">
<path fill="none" stroke="#cccccc" d="M2026.49,-231.983C1959.54,-211.356 1806.32,-164.148 1731.58,-141.119"/>
<polygon fill="#cccccc" stroke="#cccccc" points="1732.16,-137.635 1721.57,-138.035 1730.1,-144.324 1732.16,-137.635"/>
</g>
<!-- Repeat -->
<g id="node37" class="node">
<g id="a_node37"><a xlink:href="/swift-2/type/Repeat/" target="_top">
<polygon fill="#999999" stroke="#999999" points="3431,-22 3377,-22 3377,-0 3431,-0 3431,-22"/>
<text text-anchor="middle" x="3404" y="-7.4" font-family="Helvetica,sans-Serif" font-size="12.00" fill="white">Repeat</text>
</a>
</g>
</g>
<!-- CollectionType&#45;&gt;Repeat -->
<g id="edge70" class="edge">
<path fill="none" stroke="#cccccc" d="M2103.27,-240.33C2193.61,-236.432 2405.49,-224.784 2581,-196 2622.06,-189.266 2631.3,-182.669 2672,-174 2758.2,-155.638 2780.72,-155.963 2867,-138 3090.34,-91.5025 3145.74,-77.5466 3367,-22 3367.1,-21.9747 3367.2,-21.9493 3367.3,-21.9239"/>
<polygon fill="#cccccc" stroke="#cccccc" points="3368.15,-25.3213 3376.95,-19.4309 3366.39,-18.5439 3368.15,-25.3213"/>
</g>
<!-- ReverseCollection -->
<g id="node38" class="node">
<g id="a_node38"><a xlink:href="/swift-2/type/ReverseCollection/" target="_top">
<polygon fill="#999999" stroke="#999999" points="3556.53,-22 3449.47,-22 3449.47,-0 3556.53,-0 3556.53,-22"/>
<text text-anchor="middle" x="3503" y="-7.4" font-family="Helvetica,sans-Serif" font-size="12.00" fill="white">ReverseCollection</text>
</a>
</g>
</g>
<!-- CollectionType&#45;&gt;ReverseCollection -->
<g id="edge71" class="edge">
<path fill="none" stroke="#cccccc" d="M2103.27,-241.95C2201.18,-241.091 2443.07,-234.838 2641,-196 2672.59,-189.802 2678.7,-181.497 2710,-174 2806.78,-150.822 2833.26,-156.711 2931,-138 3123.87,-101.077 3351.26,-48.1585 3451.33,-24.389"/>
<polygon fill="#cccccc" stroke="#cccccc" points="3452.26,-27.7643 3461.18,-22.0449 3450.64,-20.9544 3452.26,-27.7643"/>
</g>
<!-- ReverseRandomAccessCollection -->
<g id="node39" class="node">
<g id="a_node39"><a xlink:href="/swift-2/type/ReverseRandomAccessCollection/" target="_top">
<polygon fill="#999999" stroke="#999999" points="3765.56,-22 3574.44,-22 3574.44,-0 3765.56,-0 3765.56,-22"/>
<text text-anchor="middle" x="3670" y="-7.4" font-family="Helvetica,sans-Serif" font-size="12.00" fill="white">ReverseRandomAccessCollection</text>
</a>
</g>
</g>
<!-- CollectionType&#45;&gt;ReverseRandomAccessCollection -->
<g id="edge72" class="edge">
<path fill="none" stroke="#cccccc" d="M2103.26,-240.614C2227.58,-236.429 2578.19,-222.547 2690,-196 2714.81,-190.108 2718.4,-180.725 2743,-174 2853.41,-143.818 2885.06,-156.551 2998,-138 3225.34,-100.659 3494.24,-47.5112 3611,-23.9903"/>
<polygon fill="#cccccc" stroke="#cccccc" points="3611.7,-27.4185 3620.81,-22.0103 3610.32,-20.5567 3611.7,-27.4185"/>
</g>
<!-- Set -->
<g id="node41" class="node">
<g id="a_node41"><a xlink:href="/swift-2/type/Set/" target="_top">
<polygon fill="#999999" stroke="#999999" points="259,-22 205,-22 205,-0 259,-0 259,-22"/>
<text text-anchor="middle" x="232" y="-7.4" font-family="Helvetica,sans-Serif" font-size="12.00" fill="white">Set</text>
</a>
</g>
</g>
<!-- CollectionType&#45;&gt;Set -->
<g id="edge73" class="edge">
<path fill="none" stroke="#cccccc" d="M2014.62,-241.358C1794.06,-238.055 821.355,-222.109 689,-196 517.093,-162.089 327.66,-64.6189 258.841,-27.0326"/>
<polygon fill="#cccccc" stroke="#cccccc" points="260.394,-23.8923 249.945,-22.1393 257.02,-30.0257 260.394,-23.8923"/>
</g>
<!-- Slice -->
<g id="node42" class="node">
<g id="a_node42"><a xlink:href="/swift-2/type/Slice/" target="_top">
<polygon fill="#999999" stroke="#999999" points="1898,-22 1844,-22 1844,-0 1898,-0 1898,-22"/>
<text text-anchor="middle" x="1871" y="-7.4" font-family="Helvetica,sans-Serif" font-size="12.00" fill="white">Slice</text>
</a>
</g>
</g>
<!-- CollectionType&#45;&gt;Slice -->
<g id="edge74" class="edge">
<path fill="none" stroke="#cccccc" d="M2062.52,-231.807C2072.28,-201.447 2096.34,-110.477 2054,-58 2013.66,-8.00233 1975.65,-36.1798 1907.87,-21.9296"/>
<polygon fill="#cccccc" stroke="#cccccc" points="1908.64,-18.5156 1898.1,-19.6247 1907.03,-25.3284 1908.64,-18.5156"/>
</g>
<!-- String.CharacterView -->
<g id="node45" class="node">
<g id="a_node45"><a xlink:href="/swift-2/type/String.CharacterView/" target="_top">
<polygon fill="#999999" stroke="#999999" points="1659.38,-22 1536.62,-22 1536.62,-0 1659.38,-0 1659.38,-22"/>
<text text-anchor="middle" x="1598" y="-7.4" font-family="Helvetica,sans-Serif" font-size="12.00" fill="white">String.CharacterView</text>
</a>
</g>
</g>
<!-- CollectionType&#45;&gt;String.CharacterView -->
<g id="edge79" class="edge">
<path fill="none" stroke="#cccccc" d="M2055.85,-231.839C2045.38,-199.94 2008.46,-101.344 1940,-58 1891.08,-27.0272 1743.9,-29.8746 1669.93,-21.954"/>
<polygon fill="#cccccc" stroke="#cccccc" points="1669.92,-18.4268 1659.57,-20.7019 1669.08,-25.3763 1669.92,-18.4268"/>
</g>
<!-- String.UTF16View -->
<g id="node46" class="node">
<g id="a_node46"><a xlink:href="/swift-2/type/String.UTF16View/" target="_top">
<polygon fill="#999999" stroke="#999999" points="2753.37,-22 2646.63,-22 2646.63,-0 2753.37,-0 2753.37,-22"/>
<text text-anchor="middle" x="2700" y="-7.4" font-family="Helvetica,sans-Serif" font-size="12.00" fill="white">String.UTF16View</text>
</a>
</g>
</g>
<!-- CollectionType&#45;&gt;String.UTF16View -->
<g id="edge81" class="edge">
<path fill="none" stroke="#cccccc" d="M2099.59,-231.954C2133.41,-223.298 2182.7,-210.015 2225,-196 2393.72,-140.099 2590.28,-58.5657 2666.98,-26.0994"/>
<polygon fill="#cccccc" stroke="#cccccc" points="2668.74,-29.1573 2676.58,-22.0299 2666.01,-22.7131 2668.74,-29.1573"/>
</g>
<!-- String.UTF8View -->
<g id="node47" class="node">
<g id="a_node47"><a xlink:href="/swift-2/type/String.UTF8View/" target="_top">
<polygon fill="#999999" stroke="#999999" points="2979.36,-22 2878.64,-22 2878.64,-0 2979.36,-0 2979.36,-22"/>
<text text-anchor="middle" x="2929" y="-7.4" font-family="Helvetica,sans-Serif" font-size="12.00" fill="white">String.UTF8View</text>
</a>
</g>
</g>
<!-- CollectionType&#45;&gt;String.UTF8View -->
<g id="edge82" class="edge">
<path fill="none" stroke="#cccccc" d="M2103.37,-235.871C2155.75,-228.254 2245.3,-214.031 2321,-196 2539.63,-143.924 2795.46,-58.1589 2890.73,-25.3409"/>
<polygon fill="#cccccc" stroke="#cccccc" points="2891.92,-28.6321 2900.23,-22.0594 2889.63,-22.0155 2891.92,-28.6321"/>
</g>
<!-- String.UnicodeScalarView -->
<g id="node48" class="node">
<g id="a_node48"><a xlink:href="/swift-2/type/String.UnicodeScalarView/" target="_top">
<polygon fill="#999999" stroke="#999999" points="1825.89,-22 1678.11,-22 1678.11,-0 1825.89,-0 1825.89,-22"/>
<text text-anchor="middle" x="1752" y="-7.4" font-family="Helvetica,sans-Serif" font-size="12.00" fill="white">String.UnicodeScalarView</text>
</a>
</g>
</g>
<!-- CollectionType&#45;&gt;String.UnicodeScalarView -->
<g id="edge80" class="edge">
<path fill="none" stroke="#cccccc" d="M2060.11,-231.794C2062.87,-200.601 2066.56,-105.754 2016,-58 2009.17,-51.5511 1905.89,-34.9318 1830.57,-23.5408"/>
<polygon fill="#cccccc" stroke="#cccccc" points="1831.02,-20.0684 1820.61,-22.0395 1829.98,-26.9903 1831.02,-20.0684"/>
</g>
<!-- UnicodeScalar.UTF16View -->
<g id="node49" class="node">
<g id="a_node49"><a xlink:href="/swift-2/type/UnicodeScalar.UTF16View/" target="_top">
<polygon fill="#999999" stroke="#999999" points="3150.39,-22 2997.61,-22 2997.61,-0 3150.39,-0 3150.39,-22"/>
<text text-anchor="middle" x="3074" y="-7.4" font-family="Helvetica,sans-Serif" font-size="12.00" fill="white">UnicodeScalar.UTF16View</text>
</a>
</g>
</g>
<!-- CollectionType&#45;&gt;UnicodeScalar.UTF16View -->
<g id="edge75" class="edge">
<path fill="none" stroke="#cccccc" d="M2103.26,-237.22C2164.94,-230.19 2280.11,-215.729 2377,-196 2627.97,-144.896 2923.11,-57.912 3031.41,-25.0718"/>
<polygon fill="#cccccc" stroke="#cccccc" points="3032.75,-28.3227 3041.3,-22.0658 3030.72,-21.6252 3032.75,-28.3227"/>
</g>
<!-- UnsafeBufferPointer -->
<g id="node50" class="node">
<g id="a_node50"><a xlink:href="/swift-2/type/UnsafeBufferPointer/" target="_top">
<polygon fill="#999999" stroke="#999999" points="3358.39,-22 3241.61,-22 3241.61,-0 3358.39,-0 3358.39,-22"/>
<text text-anchor="middle" x="3300" y="-7.4" font-family="Helvetica,sans-Serif" font-size="12.00" fill="white">UnsafeBufferPointer</text>
</a>
</g>
</g>
<!-- CollectionType&#45;&gt;UnsafeBufferPointer -->
<g id="edge76" class="edge">
<path fill="none" stroke="#cccccc" d="M2103.31,-239.084C2183.84,-233.418 2359.43,-219.386 2506,-196 2794.52,-149.963 3134.16,-58.4881 3254.76,-24.8225"/>
<polygon fill="#cccccc" stroke="#cccccc" points="3256.05,-28.095 3264.73,-22.0287 3254.16,-21.3541 3256.05,-28.095"/>
</g>
<!-- UnsafeMutableBufferPointer -->
<g id="node52" class="node">
<g id="a_node52"><a xlink:href="/swift-2/type/UnsafeMutableBufferPointer/" target="_top">
<polygon fill="#999999" stroke="#999999" points="634.905,-22 475.095,-22 475.095,-0 634.905,-0 634.905,-22"/>
<text text-anchor="middle" x="555" y="-7.4" font-family="Helvetica,sans-Serif" font-size="12.00" fill="white">UnsafeMutableBufferPointer</text>
</a>
</g>
</g>
<!-- CollectionType&#45;&gt;UnsafeMutableBufferPointer -->
<g id="edge77" class="edge">
<path fill="none" stroke="#cccccc" d="M2014.79,-241.395C1816.33,-238.524 1012.59,-225.178 904,-196 770.182,-160.044 629.923,-66.0153 576.965,-28.1475"/>
<polygon fill="#cccccc" stroke="#cccccc" points="578.826,-25.1744 568.668,-22.1614 574.73,-30.851 578.826,-25.1744"/>
</g>
<!-- _prext_LazyCollectionType -->
<g id="node56" class="node">
<g id="a_node56"><a xlink:href="/swift-2/protocol/_prext_LazyCollectionType/" target="_top">
<path fill="#999999" stroke="#999999" d="M2898.73,-196C2898.73,-196 2759.27,-196 2759.27,-196 2755.6,-196 2751.93,-192.333 2751.93,-188.667 2751.93,-188.667 2751.93,-181.333 2751.93,-181.333 2751.93,-177.667 2755.6,-174 2759.27,-174 2759.27,-174 2898.73,-174 2898.73,-174 2902.4,-174 2906.07,-177.667 2906.07,-181.333 2906.07,-181.333 2906.07,-188.667 2906.07,-188.667 2906.07,-192.333 2902.4,-196 2898.73,-196"/>
<text text-anchor="middle" x="2829" y="-181.4" font-family="Helvetica,sans-Serif" font-size="12.00" fill="white">_prext_LazyCollectionType</text>
</a>
</g>
</g>
<!-- CollectionType&#45;&gt;_prext_LazyCollectionType -->
<g id="edge78" class="edge">
<path fill="none" stroke="#cccccc" d="M2103.14,-239.651C2211.41,-233.748 2498.8,-217.236 2738,-196 2739.11,-195.902 2740.22,-195.801 2741.35,-195.699"/>
<polygon fill="#cccccc" stroke="#cccccc" points="2741.95,-199.157 2751.58,-194.731 2741.29,-192.188 2741.95,-199.157"/>
</g>
<!-- EmptyGenerator -->
<g id="node15" class="node">
<g id="a_node15"><a xlink:href="/swift-2/type/EmptyGenerator/" target="_top">
<polygon fill="#999999" stroke="#999999" points="3882.03,-22 3783.97,-22 3783.97,-0 3882.03,-0 3882.03,-22"/>
<text text-anchor="middle" x="3833" y="-7.4" font-family="Helvetica,sans-Serif" font-size="12.00" fill="white">EmptyGenerator</text>
</a>
</g>
</g>
<!-- EnumerateGenerator -->
<g id="node16" class="node">
<g id="a_node16"><a xlink:href="/swift-2/type/EnumerateGenerator/" target="_top">
<polygon fill="#999999" stroke="#999999" points="4022.05,-22 3899.95,-22 3899.95,-0 4022.05,-0 4022.05,-22"/>
<text text-anchor="middle" x="3961" y="-7.4" font-family="Helvetica,sans-Serif" font-size="12.00" fill="white">EnumerateGenerator</text>
</a>
</g>
</g>
<!-- EnumerateSequence -->
<g id="node17" class="node">
<g id="a_node17"><a xlink:href="/swift-2/type/EnumerateSequence/" target="_top">
<polygon fill="#999999" stroke="#999999" points="4163.06,-22 4040.94,-22 4040.94,-0 4163.06,-0 4163.06,-22"/>
<text text-anchor="middle" x="4102" y="-7.4" font-family="Helvetica,sans-Serif" font-size="12.00" fill="white">EnumerateSequence</text>
</a>
</g>
</g>
<!-- FilterGenerator -->
<g id="node19" class="node">
<g id="a_node19"><a xlink:href="/swift-2/type/FilterGenerator/" target="_top">
<polygon fill="#999999" stroke="#999999" points="4272.02,-22 4181.98,-22 4181.98,-0 4272.02,-0 4272.02,-22"/>
<text text-anchor="middle" x="4227" y="-7.4" font-family="Helvetica,sans-Serif" font-size="12.00" fill="white">FilterGenerator</text>
</a>
</g>
</g>
<!-- FilterSequence -->
<g id="node20" class="node">
<g id="a_node20"><a xlink:href="/swift-2/type/FilterSequence/" target="_top">
<polygon fill="#999999" stroke="#999999" points="4381.04,-22 4290.96,-22 4290.96,-0 4381.04,-0 4381.04,-22"/>
<text text-anchor="middle" x="4336" y="-7.4" font-family="Helvetica,sans-Serif" font-size="12.00" fill="white">FilterSequence</text>
</a>
</g>
</g>
<!-- GeneratorOfOne -->
<g id="node21" class="node">
<g id="a_node21"><a xlink:href="/swift-2/type/GeneratorOfOne/" target="_top">
<polygon fill="#999999" stroke="#999999" points="4498.53,-22 4399.47,-22 4399.47,-0 4498.53,-0 4498.53,-22"/>
<text text-anchor="middle" x="4449" y="-7.4" font-family="Helvetica,sans-Serif" font-size="12.00" fill="white">GeneratorOfOne</text>
</a>
</g>
</g>
<!-- GeneratorSequence -->
<g id="node22" class="node">
<g id="a_node22"><a xlink:href="/swift-2/type/GeneratorSequence/" target="_top">
<polygon fill="#999999" stroke="#999999" points="4635.06,-22 4516.94,-22 4516.94,-0 4635.06,-0 4635.06,-22"/>
<text text-anchor="middle" x="4576" y="-7.4" font-family="Helvetica,sans-Serif" font-size="12.00" fill="white">GeneratorSequence</text>
</a>
</g>
</g>
<!-- IndexingGenerator -->
<g id="node23" class="node">
<g id="a_node23"><a xlink:href="/swift-2/type/IndexingGenerator/" target="_top">
<polygon fill="#999999" stroke="#999999" points="4762.55,-22 4653.45,-22 4653.45,-0 4762.55,-0 4762.55,-22"/>
<text text-anchor="middle" x="4708" y="-7.4" font-family="Helvetica,sans-Serif" font-size="12.00" fill="white">IndexingGenerator</text>
</a>
</g>
</g>
<!-- LazySequence -->
<g id="node27" class="node">
<g id="a_node27"><a xlink:href="/swift-2/type/LazySequence/" target="_top">
<polygon fill="#999999" stroke="#999999" points="4869.55,-22 4780.45,-22 4780.45,-0 4869.55,-0 4869.55,-22"/>
<text text-anchor="middle" x="4825" y="-7.4" font-family="Helvetica,sans-Serif" font-size="12.00" fill="white">LazySequence</text>
</a>
</g>
</g>
<!-- MapGenerator -->
<g id="node29" class="node">
<g id="a_node29"><a xlink:href="/swift-2/type/MapGenerator/" target="_top">
<polygon fill="#999999" stroke="#999999" points="4974.53,-22 4887.47,-22 4887.47,-0 4974.53,-0 4974.53,-22"/>
<text text-anchor="middle" x="4931" y="-7.4" font-family="Helvetica,sans-Serif" font-size="12.00" fill="white">MapGenerator</text>
</a>
</g>
</g>
<!-- MapSequence -->
<g id="node30" class="node">
<g id="a_node30"><a xlink:href="/swift-2/type/MapSequence/" target="_top">
<polygon fill="#999999" stroke="#999999" points="5079.54,-22 4992.46,-22 4992.46,-0 5079.54,-0 5079.54,-22"/>
<text text-anchor="middle" x="5036" y="-7.4" font-family="Helvetica,sans-Serif" font-size="12.00" fill="white">MapSequence</text>
</a>
</g>
</g>
<!-- MutableCollectionType&#45;&gt;Array -->
<g id="edge86" class="edge">
<path fill="none" stroke="#cccccc" d="M1309.64,-173.904C1294.9,-165.594 1274.72,-152.802 1260,-138 1227.24,-105.061 1200.04,-57.2916 1186.41,-31.0465"/>
<polygon fill="#cccccc" stroke="#cccccc" points="1189.53,-29.445 1181.87,-22.1175 1183.29,-32.6177 1189.53,-29.445"/>
</g>
<!-- MutableCollectionType&#45;&gt;ArraySlice -->
<g id="edge87" class="edge">
<path fill="none" stroke="#cccccc" d="M1394.62,-175.621C1439.74,-168.358 1493.94,-156.129 1508,-138 1524.12,-117.22 1500.86,-72.3229 1487,-58 1476.4,-47.0438 1442.27,-34.1136 1413.92,-24.7566"/>
<polygon fill="#cccccc" stroke="#cccccc" points="1414.77,-21.3543 1404.18,-21.6051 1412.62,-28.0142 1414.77,-21.3543"/>
</g>
<!-- MutableCollectionType&#45;&gt;ContiguousArray -->
<g id="edge88" class="edge">
<path fill="none" stroke="#cccccc" d="M1306.97,-173.965C1293.01,-166.294 1276.11,-154.264 1268,-138 1259.04,-120.031 1264.98,-63.1013 1269.06,-32.2846"/>
<polygon fill="#cccccc" stroke="#cccccc" points="1272.55,-32.6181 1270.45,-22.2331 1265.62,-31.6598 1272.55,-32.6181"/>
</g>
<!-- MutableCollectionType&#45;&gt;MutableSliceable -->
<g id="edge89" class="edge">
<path fill="none" stroke="#cccccc" d="M1350.45,-173.988C1369.28,-165.204 1396.88,-152.322 1418.09,-142.425"/>
<polygon fill="#cccccc" stroke="#cccccc" points="1419.75,-145.514 1427.33,-138.114 1416.79,-139.171 1419.75,-145.514"/>
</g>
<!-- MutableCollectionType&#45;&gt;UnsafeMutableBufferPointer -->
<g id="edge90" class="edge">
<path fill="none" stroke="#cccccc" d="M1269.22,-173.941C1170.42,-156.951 967.065,-120.446 797,-80 726.445,-63.2201 645.516,-39.5712 597.411,-25.0419"/>
<polygon fill="#cccccc" stroke="#cccccc" points="598.246,-21.6376 587.66,-22.0857 596.215,-28.3365 598.246,-21.6376"/>
</g>
<!-- _ArrayBufferType -->
<g id="node54" class="node">
<g id="a_node54"><a xlink:href="/swift-2/protocol/_ArrayBufferType/" target="_top">
<path fill="#999999" stroke="#999999" d="M1373.04,-138C1373.04,-138 1284.96,-138 1284.96,-138 1281.29,-138 1277.62,-134.333 1277.62,-130.667 1277.62,-130.667 1277.62,-123.333 1277.62,-123.333 1277.62,-119.667 1281.29,-116 1284.96,-116 1284.96,-116 1373.04,-116 1373.04,-116 1376.71,-116 1380.38,-119.667 1380.38,-123.333 1380.38,-123.333 1380.38,-130.667 1380.38,-130.667 1380.38,-134.333 1376.71,-138 1373.04,-138"/>
<text text-anchor="middle" x="1329" y="-123.4" font-family="Helvetica,sans-Serif" font-size="12.00" fill="white">_ArrayBufferType</text>
</a>
</g>
</g>
<!-- MutableCollectionType&#45;&gt;_ArrayBufferType -->
<g id="edge91" class="edge">
<path fill="none" stroke="#cccccc" d="M1329,-173.988C1329,-166.91 1329,-157.171 1329,-148.478"/>
<polygon fill="#cccccc" stroke="#cccccc" points="1332.5,-148.304 1329,-138.304 1325.5,-148.304 1332.5,-148.304"/>
</g>
<!-- MutableSliceable&#45;&gt;Array -->
<g id="edge92" class="edge">
<path fill="none" stroke="#cccccc" d="M1402.7,-115.988C1358.39,-106.044 1295,-90.7672 1272,-80 1243.43,-66.6261 1214.5,-44.3998 1196.2,-29.016"/>
<polygon fill="#cccccc" stroke="#cccccc" points="1197.99,-25.9376 1188.12,-22.0825 1193.43,-31.2503 1197.99,-25.9376"/>
</g>
<!-- MutableSliceable&#45;&gt;ArraySlice -->
<g id="edge93" class="edge">
<path fill="none" stroke="#cccccc" d="M1457.29,-115.606C1467.36,-101.613 1481.66,-76.3552 1470,-58 1463.14,-47.194 1435.82,-34.8624 1411.77,-25.6889"/>
<polygon fill="#cccccc" stroke="#cccccc" points="1412.67,-22.2893 1402.08,-22.0894 1410.23,-28.8515 1412.67,-22.2893"/>
</g>
<!-- MutableSliceable&#45;&gt;ContiguousArray -->
<g id="edge94" class="edge">
<path fill="none" stroke="#cccccc" d="M1433.29,-115.883C1402.33,-95.9399 1333.22,-51.4281 1296.32,-27.6618"/>
<polygon fill="#cccccc" stroke="#cccccc" points="1297.97,-24.5664 1287.67,-22.0941 1294.18,-30.4514 1297.97,-24.5664"/>
</g>
<!-- _ArrayType -->
<g id="node55" class="node">
<g id="a_node55"><a xlink:href="/swift-2/protocol/_ArrayType/" target="_top">
<path fill="#999999" stroke="#999999" d="M1454.19,-80C1454.19,-80 1397.81,-80 1397.81,-80 1394.14,-80 1390.48,-76.3333 1390.48,-72.6667 1390.48,-72.6667 1390.48,-65.3333 1390.48,-65.3333 1390.48,-61.6667 1394.14,-58 1397.81,-58 1397.81,-58 1454.19,-58 1454.19,-58 1457.86,-58 1461.52,-61.6667 1461.52,-65.3333 1461.52,-65.3333 1461.52,-72.6667 1461.52,-72.6667 1461.52,-76.3333 1457.86,-80 1454.19,-80"/>
<text text-anchor="middle" x="1426" y="-65.4" font-family="Helvetica,sans-Serif" font-size="12.00" fill="white">_ArrayType</text>
</a>
</g>
</g>
<!-- MutableSliceable&#45;&gt;_ArrayType -->
<g id="edge95" class="edge">
<path fill="none" stroke="#cccccc" d="M1444.89,-115.988C1441.88,-108.674 1437.71,-98.5192 1434.06,-89.6122"/>
<polygon fill="#cccccc" stroke="#cccccc" points="1437.27,-88.2243 1430.23,-80.3039 1430.79,-90.8838 1437.27,-88.2243"/>
</g>
<!-- PermutationGenerator -->
<g id="node33" class="node">
<g id="a_node33"><a xlink:href="/swift-2/type/PermutationGenerator/" target="_top">
<polygon fill="#999999" stroke="#999999" points="5226.05,-22 5097.95,-22 5097.95,-0 5226.05,-0 5226.05,-22"/>
<text text-anchor="middle" x="5162" y="-7.4" font-family="Helvetica,sans-Serif" font-size="12.00" fill="white">PermutationGenerator</text>
</a>
</g>
</g>
<!-- RangeGenerator -->
<g id="node35" class="node">
<g id="a_node35"><a xlink:href="/swift-2/type/RangeGenerator/" target="_top">
<polygon fill="#999999" stroke="#999999" points="5343.54,-22 5244.46,-22 5244.46,-0 5343.54,-0 5343.54,-22"/>
<text text-anchor="middle" x="5294" y="-7.4" font-family="Helvetica,sans-Serif" font-size="12.00" fill="white">RangeGenerator</text>
</a>
</g>
</g>
<!-- RangeReplaceableCollectionType&#45;&gt;Array -->
<g id="edge99" class="edge">
<path fill="none" stroke="#cccccc" d="M1593.82,-116.11C1532.54,-108.682 1451.46,-96.8691 1381,-80 1320.29,-65.4647 1251.86,-40.9062 1211.69,-25.6196"/>
<polygon fill="#cccccc" stroke="#cccccc" points="1212.94,-22.3509 1202.35,-22.0383 1210.43,-28.8869 1212.94,-22.3509"/>
</g>
<!-- RangeReplaceableCollectionType&#45;&gt;ArraySlice -->
<g id="edge100" class="edge">
<path fill="none" stroke="#cccccc" d="M1683.43,-115.973C1674.38,-100.715 1654.96,-71.97 1630,-58 1547.44,-11.7899 1511.14,-39.6583 1414.08,-22.0083"/>
<polygon fill="#cccccc" stroke="#cccccc" points="1414.66,-18.5557 1404.18,-20.0892 1413.33,-25.4279 1414.66,-18.5557"/>
</g>
<!-- RangeReplaceableCollectionType&#45;&gt;ContiguousArray -->
<g id="edge101" class="edge">
<path fill="none" stroke="#cccccc" d="M1659.09,-115.954C1617.11,-102.028 1538.2,-76.4853 1470,-58 1423,-45.2614 1369.14,-32.8907 1329.47,-24.1923"/>
<polygon fill="#cccccc" stroke="#cccccc" points="1329.96,-20.7177 1319.45,-22.0064 1328.47,-27.5569 1329.96,-20.7177"/>
</g>
<!-- RangeReplaceableCollectionType&#45;&gt;String.CharacterView -->
<g id="edge103" class="edge">
<path fill="none" stroke="#cccccc" d="M1690.31,-115.796C1691.6,-101.568 1691.89,-75.5475 1680,-58 1670.29,-43.6765 1654.57,-33.3281 1639.47,-26.1186"/>
<polygon fill="#cccccc" stroke="#cccccc" points="1640.77,-22.8674 1630.21,-22.0278 1637.94,-29.2704 1640.77,-22.8674"/>
</g>
<!-- RangeReplaceableCollectionType&#45;&gt;String.UnicodeScalarView -->
<g id="edge104" class="edge">
<path fill="none" stroke="#cccccc" d="M1736.12,-115.965C1755.66,-109.231 1776.43,-98.1341 1788,-80 1798.61,-63.3724 1785,-43.3037 1771.59,-29.2951"/>
<polygon fill="#cccccc" stroke="#cccccc" points="1773.91,-26.6724 1764.31,-22.1963 1769.02,-31.6839 1773.91,-26.6724"/>
</g>
<!-- RangeReplaceableCollectionType&#45;&gt;_ArrayType -->
<g id="edge102" class="edge">
<path fill="none" stroke="#cccccc" d="M1641.98,-115.988C1593.8,-105.73 1519.39,-89.8853 1471.7,-79.7305"/>
<polygon fill="#cccccc" stroke="#cccccc" points="1472.16,-76.251 1461.65,-77.5915 1470.7,-83.0975 1472.16,-76.251"/>
</g>
<!-- SequenceType -->
<g id="node40" class="node">
<g id="a_node40"><a xlink:href="/swift-2/protocol/SequenceType/" target="_top">
<path fill="#ee543d" stroke="#ee543d" d="M3123.72,-312C3123.72,-312 3048.28,-312 3048.28,-312 3044.62,-312 3040.95,-308.333 3040.95,-304.667 3040.95,-304.667 3040.95,-297.333 3040.95,-297.333 3040.95,-293.667 3044.62,-290 3048.28,-290 3048.28,-290 3123.72,-290 3123.72,-290 3127.38,-290 3131.05,-293.667 3131.05,-297.333 3131.05,-297.333 3131.05,-304.667 3131.05,-304.667 3131.05,-308.333 3127.38,-312 3123.72,-312"/>
<text text-anchor="middle" x="3086" y="-297.4" font-family="Helvetica,sans-Serif" font-size="12.00" fill="white">SequenceType</text>
</a>
</g>
</g>
<!-- SequenceType&#45;&gt;AnyBidirectionalCollection -->
<g id="edge1" class="edge">
<path fill="none" stroke="#cccccc" d="M3040.63,-300.069C2762.68,-300.347 1299.15,-299.635 1217,-254 1127.32,-204.184 1079.58,-80.0157 1063.9,-31.6868"/>
<polygon fill="#cccccc" stroke="#cccccc" points="1067.23,-30.5816 1060.89,-22.0879 1060.55,-32.677 1067.23,-30.5816"/>
</g>
<!-- SequenceType&#45;&gt;AnyForwardCollection -->
<g id="edge2" class="edge">
<path fill="none" stroke="#cccccc" d="M3040.91,-299.936C2778.87,-299.421 1449.62,-294.807 1043,-254 872.721,-236.911 664,-357.134 664,-186 664,-186 664,-186 664,-126 664,-89.5232 686.588,-52.0873 702.272,-30.4905"/>
<polygon fill="#cccccc" stroke="#cccccc" points="705.257,-32.3447 708.485,-22.2535 699.669,-28.1295 705.257,-32.3447"/>
</g>
<!-- SequenceType&#45;&gt;AnyGenerator -->
<g id="edge3" class="edge">
<path fill="none" stroke="#cccccc" d="M3040.83,-299.913C2682.53,-299.147 309.958,-292.622 165,-254 104.641,-237.918 42,-248.465 42,-186 42,-186 42,-186 42,-126 42,-93.1536 42,-54.9837 42,-32.197"/>
<polygon fill="#cccccc" stroke="#cccccc" points="45.5001,-32.0648 42,-22.0648 38.5001,-32.0648 45.5001,-32.0648"/>
</g>
<!-- SequenceType&#45;&gt;AnyRandomAccessCollection -->
<g id="edge4" class="edge">
<path fill="none" stroke="#cccccc" d="M3040.86,-299.866C2770.34,-298.934 1369.18,-292.282 1182,-254 998.033,-216.375 888.5,-243.973 797,-80 783.696,-56.1592 812.477,-37.5709 840.08,-25.8992"/>
<polygon fill="#cccccc" stroke="#cccccc" points="841.727,-29.0112 849.724,-22.062 839.138,-22.5071 841.727,-29.0112"/>
</g>
<!-- SequenceType&#45;&gt;AnySequence -->
<g id="edge5" class="edge">
<path fill="none" stroke="#cccccc" d="M3040.88,-299.793C2691.73,-298.129 430.631,-286.13 291,-254 221.241,-237.948 145,-257.582 145,-186 145,-186 145,-186 145,-126 145,-93.1536 145,-54.9837 145,-32.197"/>
<polygon fill="#cccccc" stroke="#cccccc" points="148.5,-32.0648 145,-22.0648 141.5,-32.0648 148.5,-32.0648"/>
</g>
<!-- SequenceType&#45;&gt;Array -->
<g id="edge6" class="edge">
<path fill="none" stroke="#cccccc" d="M3040.6,-299.89C2765.67,-299.093 1332.59,-293.073 1249,-254 1167.41,-215.861 1170.41,-83.0599 1174.77,-32.1118"/>
<polygon fill="#cccccc" stroke="#cccccc" points="1178.27,-32.3242 1175.75,-22.0331 1171.3,-31.6486 1178.27,-32.3242"/>
</g>
<!-- SequenceType&#45;&gt;ArraySlice -->
<g id="edge7" class="edge">
<path fill="none" stroke="#cccccc" d="M3040.97,-299.21C2853,-295.764 2130.35,-280.998 1904,-254 1751.85,-235.852 1566,-339.232 1566,-186 1566,-186 1566,-186 1566,-126 1566,-86.5645 1541.58,-80.2199 1509,-58 1493.29,-47.2885 1448.18,-33.1395 1413.97,-23.3761"/>
<polygon fill="#cccccc" stroke="#cccccc" points="1414.77,-19.9661 1404.2,-20.6206 1412.87,-26.7034 1414.77,-19.9661"/>
</g>
<!-- SequenceType&#45;&gt;CollectionOfOne -->
<g id="edge8" class="edge">
<path fill="none" stroke="#cccccc" d="M3040.93,-299.921C2702.9,-299.242 574.189,-293.405 445,-254 391.821,-237.779 340,-241.598 340,-186 340,-186 340,-186 340,-126 340,-92.9068 334.116,-54.8101 329.977,-32.1055"/>
<polygon fill="#cccccc" stroke="#cccccc" points="333.366,-31.1879 328.066,-22.014 326.488,-32.4907 333.366,-31.1879"/>
</g>
<!-- SequenceType&#45;&gt;CollectionType -->
<g id="edge9" class="edge">
<path fill="none" stroke="#cccccc" d="M3040.71,-297.778C2911.75,-291.414 2531.58,-272.393 2216,-254 2181.98,-252.017 2143.82,-249.591 2113.64,-247.625"/>
<polygon fill="#cccccc" stroke="#cccccc" points="2113.53,-244.11 2103.32,-246.951 2113.07,-251.096 2113.53,-244.11"/>
</g>
<!-- SequenceType&#45;&gt;ContiguousArray -->
<g id="edge10" class="edge">
<path fill="none" stroke="#cccccc" d="M3040.72,-299.414C2821.45,-296.457 1868.62,-282.188 1573,-254 1411.67,-238.616 1318.09,-319.374 1213,-196 1170.69,-146.325 1226.74,-65.9088 1256.1,-30.1466"/>
<polygon fill="#cccccc" stroke="#cccccc" points="1259.15,-31.9643 1262.92,-22.0625 1253.8,-27.4527 1259.15,-31.9643"/>
</g>
<!-- SequenceType&#45;&gt;Dictionary -->
<g id="edge11" class="edge">
<path fill="none" stroke="#cccccc" d="M3040.84,-299.953C2727.74,-299.523 885.153,-295.245 640,-254 543.672,-237.794 431,-283.682 431,-186 431,-186 431,-186 431,-126 431,-93.1081 428.478,-54.9517 426.705,-32.1802"/>
<polygon fill="#cccccc" stroke="#cccccc" points="430.181,-31.7406 425.885,-22.0554 423.203,-32.3052 430.181,-31.7406"/>
</g>
<!-- SequenceType&#45;&gt;DictionaryLiteral -->
<g id="edge12" class="edge">
<path fill="none" stroke="#cccccc" d="M3040.88,-299.975C2842.06,-299.624 2049.52,-295.605 1947,-254 1861.84,-219.441 1870.46,-165.457 1793,-116 1737.96,-80.8582 1719.93,-78.7203 1658,-58 1615.33,-43.723 1565.86,-31.7957 1528.38,-23.6664"/>
<polygon fill="#cccccc" stroke="#cccccc" points="1528.65,-20.1456 1518.14,-21.4754 1527.19,-26.9907 1528.65,-20.1456"/>
</g>
<!-- SequenceType&#45;&gt;EmptyCollection -->
<g id="edge13" class="edge">
<path fill="none" stroke="#cccccc" d="M3040.93,-297.56C2974.38,-293.159 2846.35,-281.635 2741,-254 2681.6,-238.418 2287.68,-75.1548 2169.47,-25.955"/>
<polygon fill="#cccccc" stroke="#cccccc" points="2170.75,-22.6947 2160.17,-22.0818 2168.06,-29.1569 2170.75,-22.6947"/>
</g>
<!-- SequenceType&#45;&gt;EmptyGenerator -->
<g id="edge14" class="edge">
<path fill="none" stroke="#cccccc" d="M3131.05,-297.909C3292.55,-289.82 3833,-257.416 3833,-186 3833,-186 3833,-186 3833,-126 3833,-93.1536 3833,-54.9837 3833,-32.197"/>
<polygon fill="#cccccc" stroke="#cccccc" points="3836.5,-32.0648 3833,-22.0648 3829.5,-32.0648 3836.5,-32.0648"/>
</g>
<!-- SequenceType&#45;&gt;EnumerateGenerator -->
<g id="edge15" class="edge">
<path fill="none" stroke="#cccccc" d="M3131.2,-298.92C3310.38,-294.049 3961,-270.544 3961,-186 3961,-186 3961,-186 3961,-126 3961,-93.1536 3961,-54.9837 3961,-32.197"/>
<polygon fill="#cccccc" stroke="#cccccc" points="3964.5,-32.0648 3961,-22.0648 3957.5,-32.0648 3964.5,-32.0648"/>
</g>
<!-- SequenceType&#45;&gt;EnumerateSequence -->
<g id="edge16" class="edge">
<path fill="none" stroke="#cccccc" d="M3131.3,-299.747C3328.46,-298.059 4102,-285.12 4102,-186 4102,-186 4102,-186 4102,-126 4102,-93.1536 4102,-54.9837 4102,-32.197"/>
<polygon fill="#cccccc" stroke="#cccccc" points="4105.5,-32.0648 4102,-22.0648 4098.5,-32.0648 4105.5,-32.0648"/>
</g>
<!-- SequenceType&#45;&gt;FilterCollection -->
<g id="edge17" class="edge">
<path fill="none" stroke="#cccccc" d="M3086.61,-289.868C3087.46,-267.113 3086.72,-211.049 3062,-174 3010.73,-97.1512 2909.32,-48.0905 2854.06,-25.8682"/>
<polygon fill="#cccccc" stroke="#cccccc" points="2855.22,-22.5612 2844.63,-22.1555 2852.65,-29.0749 2855.22,-22.5612"/>
</g>
<!-- SequenceType&#45;&gt;FilterGenerator -->
<g id="edge18" class="edge">
<path fill="none" stroke="#cccccc" d="M3131.08,-300.312C3342.66,-301.193 4227,-298.167 4227,-186 4227,-186 4227,-186 4227,-126 4227,-93.1536 4227,-54.9837 4227,-32.197"/>
<polygon fill="#cccccc" stroke="#cccccc" points="4230.5,-32.0648 4227,-22.0648 4223.5,-32.0648 4230.5,-32.0648"/>
</g>
<!-- SequenceType&#45;&gt;FilterSequence -->
<g id="edge19" class="edge">
<path fill="none" stroke="#cccccc" d="M3131.17,-299.679C3305.64,-298.18 3935.61,-290.316 4132,-254 4225.98,-236.622 4336,-281.571 4336,-186 4336,-186 4336,-186 4336,-126 4336,-93.1536 4336,-54.9837 4336,-32.197"/>
<polygon fill="#cccccc" stroke="#cccccc" points="4339.5,-32.0648 4336,-22.0648 4332.5,-32.0648 4339.5,-32.0648"/>
</g>
<!-- SequenceType&#45;&gt;GeneratorOfOne -->
<g id="edge20" class="edge">
<path fill="none" stroke="#cccccc" d="M3131.32,-299.852C3317.17,-298.987 4021.42,-293.143 4240,-254 4336.15,-236.781 4449,-283.682 4449,-186 4449,-186 4449,-186 4449,-126 4449,-93.1536 4449,-54.9837 4449,-32.197"/>
<polygon fill="#cccccc" stroke="#cccccc" points="4452.5,-32.0648 4449,-22.0648 4445.5,-32.0648 4452.5,-32.0648"/>
</g>
<!-- SequenceType&#45;&gt;GeneratorSequence -->
<g id="edge21" class="edge">
<path fill="none" stroke="#cccccc" d="M3131.22,-299.902C3327.72,-299.237 4108.32,-294.075 4350,-254 4453.48,-236.841 4576,-290.893 4576,-186 4576,-186 4576,-186 4576,-126 4576,-93.1536 4576,-54.9837 4576,-32.197"/>
<polygon fill="#cccccc" stroke="#cccccc" points="4579.5,-32.0648 4576,-22.0648 4572.5,-32.0648 4579.5,-32.0648"/>
</g>
<!-- SequenceType&#45;&gt;IndexingGenerator -->
<g id="edge22" class="edge">
<path fill="none" stroke="#cccccc" d="M3131.22,-299.976C3338.88,-299.64 4202.43,-295.713 4469,-254 4578.11,-236.926 4708,-296.438 4708,-186 4708,-186 4708,-186 4708,-126 4708,-93.1536 4708,-54.9837 4708,-32.197"/>
<polygon fill="#cccccc" stroke="#cccccc" points="4711.5,-32.0648 4708,-22.0648 4704.5,-32.0648 4711.5,-32.0648"/>
</g>
<!-- SequenceType&#45;&gt;LazyBidirectionalCollection -->
<g id="edge23" class="edge">
<path fill="none" stroke="#cccccc" d="M3040.94,-298.737C2964.6,-295.761 2805.41,-285.938 2675,-254 2440.35,-196.534 2397.85,-132.38 2168,-58 2127.74,-44.9717 2081.4,-32.918 2046.52,-24.4204"/>
<polygon fill="#cccccc" stroke="#cccccc" points="2047.08,-20.9564 2036.54,-22.0103 2045.44,-27.7607 2047.08,-20.9564"/>
</g>
<!-- SequenceType&#45;&gt;LazyForwardCollection -->
<g id="edge24" class="edge">
<path fill="none" stroke="#cccccc" d="M3067.96,-289.919C3052.47,-281.035 3029.74,-267.448 3011,-254 2988.44,-237.809 2939.76,-186.578 2915,-174 2811.29,-121.311 2471.81,-51.5341 2330.55,-23.9508"/>
<polygon fill="#cccccc" stroke="#cccccc" points="2331.21,-20.5141 2320.72,-22.0385 2329.87,-27.3851 2331.21,-20.5141"/>
</g>
<!-- SequenceType&#45;&gt;LazyRandomAccessCollection -->
<g id="edge25" class="edge">
<path fill="none" stroke="#cccccc" d="M3075.24,-289.676C3045.37,-261.094 2962.68,-182.478 2948,-174 2802.41,-89.9115 2607.79,-43.753 2506.22,-23.9199"/>
<polygon fill="#cccccc" stroke="#cccccc" points="2506.87,-20.4808 2496.39,-22.0257 2505.55,-27.3544 2506.87,-20.4808"/>
</g>
<!-- SequenceType&#45;&gt;LazySequence -->
<g id="edge26" class="edge">
<path fill="none" stroke="#cccccc" d="M3131.29,-300.193C3350.59,-300.886 4303.39,-301.086 4596,-254 4700.82,-237.132 4825,-292.17 4825,-186 4825,-186 4825,-186 4825,-126 4825,-93.1536 4825,-54.9837 4825,-32.197"/>
<polygon fill="#cccccc" stroke="#cccccc" points="4828.5,-32.0648 4825,-22.0648 4821.5,-32.0648 4828.5,-32.0648"/>
</g>
<!-- SequenceType&#45;&gt;MapCollection -->
<g id="edge27" class="edge">
<path fill="none" stroke="#cccccc" d="M3080.36,-289.705C3066.97,-266.117 3030.96,-207.61 2986,-174 2876.28,-91.9776 2719.28,-44.5846 2638.11,-24.122"/>
<polygon fill="#cccccc" stroke="#cccccc" points="2638.68,-20.655 2628.13,-21.6436 2636.99,-27.449 2638.68,-20.655"/>
</g>
<!-- SequenceType&#45;&gt;MapGenerator -->
<g id="edge28" class="edge">
<path fill="none" stroke="#cccccc" d="M3131.29,-299.482C3378.35,-296.552 4558.03,-281.23 4718,-254 4815.96,-237.325 4931,-285.374 4931,-186 4931,-186 4931,-186 4931,-126 4931,-93.1536 4931,-54.9837 4931,-32.197"/>
<polygon fill="#cccccc" stroke="#cccccc" points="4934.5,-32.0648 4931,-22.0648 4927.5,-32.0648 4934.5,-32.0648"/>
</g>
<!-- SequenceType&#45;&gt;MapSequence -->
<g id="edge29" class="edge">
<path fill="none" stroke="#cccccc" d="M3131.03,-299.603C3387.59,-297.235 4659.35,-284.051 4831,-254 4925.55,-237.446 5036,-281.993 5036,-186 5036,-186 5036,-186 5036,-126 5036,-93.1536 5036,-54.9837 5036,-32.197"/>
<polygon fill="#cccccc" stroke="#cccccc" points="5039.5,-32.0648 5036,-22.0648 5032.5,-32.0648 5039.5,-32.0648"/>
</g>
<!-- SequenceType&#45;&gt;PermutationGenerator -->
<g id="edge30" class="edge">
<path fill="none" stroke="#cccccc" d="M3131.18,-299.611C3397.36,-297.222 4755.74,-283.649 4939,-254 5041.29,-237.451 5162,-289.617 5162,-186 5162,-186 5162,-186 5162,-126 5162,-93.1536 5162,-54.9837 5162,-32.197"/>
<polygon fill="#cccccc" stroke="#cccccc" points="5165.5,-32.0648 5162,-22.0648 5158.5,-32.0648 5165.5,-32.0648"/>
</g>
<!-- SequenceType&#45;&gt;Range -->
<g id="edge31" class="edge">
<path fill="none" stroke="#cccccc" d="M3110.96,-289.915C3126.42,-282.35 3145.3,-270.457 3156,-254 3202.13,-183.065 3200.75,-76.4517 3197.82,-32.2814"/>
<polygon fill="#cccccc" stroke="#cccccc" points="3201.3,-31.934 3197.05,-22.2306 3194.32,-32.4688 3201.3,-31.934"/>
</g>
<!-- SequenceType&#45;&gt;RangeGenerator -->
<g id="edge32" class="edge">
<path fill="none" stroke="#cccccc" d="M3131.32,-299.637C3407.73,-297.334 4861.17,-283.872 5057,-254 5165.33,-237.475 5294,-295.583 5294,-186 5294,-186 5294,-186 5294,-126 5294,-93.1536 5294,-54.9837 5294,-32.197"/>
<polygon fill="#cccccc" stroke="#cccccc" points="5297.5,-32.0648 5294,-22.0648 5290.5,-32.0648 5297.5,-32.0648"/>
</g>
<!-- SequenceType&#45;&gt;Repeat -->
<g id="edge33" class="edge">
<path fill="none" stroke="#cccccc" d="M3131.05,-297.234C3197.49,-290.442 3314,-266.988 3314,-186 3314,-186 3314,-186 3314,-126 3314,-83.635 3352.76,-47.7764 3379.41,-28.1309"/>
<polygon fill="#cccccc" stroke="#cccccc" points="3381.78,-30.7436 3387.91,-22.1041 3377.73,-25.0336 3381.78,-30.7436"/>
</g>
<!-- SequenceType&#45;&gt;ReverseCollection -->
<g id="edge34" class="edge">
<path fill="none" stroke="#cccccc" d="M3131.28,-296.277C3176.32,-291.238 3246.51,-279.708 3302,-254 3346.85,-233.222 3390,-235.427 3390,-186 3390,-186 3390,-186 3390,-126 3390,-79.3857 3438.25,-45.0161 3471.69,-26.7914"/>
<polygon fill="#cccccc" stroke="#cccccc" points="3473.44,-29.8237 3480.67,-22.0824 3470.19,-23.6232 3473.44,-29.8237"/>
</g>
<!-- SequenceType&#45;&gt;ReverseRandomAccessCollection -->
<g id="edge35" class="edge">
<path fill="none" stroke="#cccccc" d="M3131.35,-298.881C3251.33,-294.7 3568,-275.214 3568,-186 3568,-186 3568,-186 3568,-126 3568,-81.4749 3611.75,-46.3744 3641.94,-27.451"/>
<polygon fill="#cccccc" stroke="#cccccc" points="3644.06,-30.264 3650.81,-22.1051 3640.44,-24.2683 3644.06,-30.264"/>
</g>
<!-- SequenceType&#45;&gt;Set -->
<g id="edge36" class="edge">
<path fill="none" stroke="#cccccc" d="M3040.91,-299.99C2696.85,-299.824 496.569,-297.074 364,-254 313.927,-237.731 267,-238.649 267,-186 267,-186 267,-186 267,-126 267,-91.3492 252.04,-53.2797 241.681,-31.0723"/>
<polygon fill="#cccccc" stroke="#cccccc" points="244.823,-29.5302 237.316,-22.0544 238.523,-32.5803 244.823,-29.5302"/>
</g>
<!-- SequenceType&#45;&gt;Slice -->
<g id="edge37" class="edge">
<path fill="none" stroke="#cccccc" d="M3040.77,-299.748C2953.59,-298.389 2756.69,-291.067 2596,-254 2354.93,-198.391 2312.39,-127.667 2075,-58 2004.73,-37.3788 1982.93,-39.9635 1908,-22.1153"/>
<polygon fill="#cccccc" stroke="#cccccc" points="1908.62,-18.6664 1898.08,-19.7096 1906.97,-25.469 1908.62,-18.6664"/>
</g>
<!-- StrideThrough -->
<g id="node43" class="node">
<g id="a_node43"><a xlink:href="/swift-2/type/StrideThrough/" target="_top">
<polygon fill="#999999" stroke="#999999" points="5448.03,-22 5361.97,-22 5361.97,-0 5448.03,-0 5448.03,-22"/>
<text text-anchor="middle" x="5405" y="-7.4" font-family="Helvetica,sans-Serif" font-size="12.00" fill="white">StrideThrough</text>
</a>
</g>
</g>
<!-- SequenceType&#45;&gt;StrideThrough -->
<g id="edge38" class="edge">
<path fill="none" stroke="#cccccc" d="M3131.41,-299.753C3418.31,-298.095 4974.25,-287.598 5183,-254 5284.88,-237.602 5405,-289.192 5405,-186 5405,-186 5405,-186 5405,-126 5405,-93.1536 5405,-54.9837 5405,-32.197"/>
<polygon fill="#cccccc" stroke="#cccccc" points="5408.5,-32.0648 5405,-22.0648 5401.5,-32.0648 5408.5,-32.0648"/>
</g>
<!-- StrideTo -->
<g id="node44" class="node">
<g id="a_node44"><a xlink:href="/swift-2/type/StrideTo/" target="_top">
<polygon fill="#999999" stroke="#999999" points="5520.02,-22 5465.98,-22 5465.98,-0 5520.02,-0 5520.02,-22"/>
<text text-anchor="middle" x="5493" y="-7.4" font-family="Helvetica,sans-Serif" font-size="12.00" fill="white">StrideTo</text>
</a>
</g>
</g>
<!-- SequenceType&#45;&gt;StrideTo -->
<g id="edge39" class="edge">
<path fill="none" stroke="#cccccc" d="M3131.09,-299.927C3426.52,-299.336 5080.59,-294.238 5301,-254 5390.06,-237.742 5493,-276.527 5493,-186 5493,-186 5493,-186 5493,-126 5493,-93.1536 5493,-54.9837 5493,-32.197"/>
<polygon fill="#cccccc" stroke="#cccccc" points="5496.5,-32.0648 5493,-22.0648 5489.5,-32.0648 5496.5,-32.0648"/>
</g>
<!-- SequenceType&#45;&gt;String.CharacterView -->
<g id="edge46" class="edge">
<path fill="none" stroke="#cccccc" d="M3040.78,-300.317C2845.16,-301.393 2077.4,-302.471 1982,-254 1882.74,-203.568 1920.98,-116.081 1826,-58 1812.54,-49.7686 1730.52,-34.4414 1668.69,-23.7513"/>
<polygon fill="#cccccc" stroke="#cccccc" points="1669.01,-20.2556 1658.56,-22.0111 1667.82,-27.1545 1669.01,-20.2556"/>
</g>
<!-- SequenceType&#45;&gt;String.UTF16View -->
<g id="edge48" class="edge">
<path fill="none" stroke="#cccccc" d="M3083.43,-289.865C3077.06,-266.612 3058.54,-208.761 3024,-174 2943.94,-93.425 2815.57,-45.9066 2746.91,-24.9083"/>
<polygon fill="#cccccc" stroke="#cccccc" points="2747.81,-21.5243 2737.23,-22.0018 2745.8,-28.2288 2747.81,-21.5243"/>
</g>
<!-- SequenceType&#45;&gt;String.UTF8View -->
<g id="edge49" class="edge">
<path fill="none" stroke="#cccccc" d="M3090.48,-289.692C3099.43,-267.514 3117.22,-214.033 3100,-174 3070.47,-105.342 2995.95,-52.1479 2955.73,-27.3318"/>
<polygon fill="#cccccc" stroke="#cccccc" points="2957.36,-24.2289 2946.99,-22.0553 2953.74,-30.221 2957.36,-24.2289"/>
</g>
<!-- SequenceType&#45;&gt;String.UnicodeScalarView -->
<g id="edge47" class="edge">
<path fill="none" stroke="#cccccc" d="M3040.9,-299.495C2841.6,-297.083 2047.97,-285.526 2006,-254 1932.51,-198.793 2007.69,-120.181 1940,-58 1923.99,-43.2909 1876.12,-31.6976 1832.69,-23.829"/>
<polygon fill="#cccccc" stroke="#cccccc" points="1833.1,-20.3467 1822.64,-22.0583 1831.88,-27.2405 1833.1,-20.3467"/>
</g>
<!-- SequenceType&#45;&gt;UnicodeScalar.UTF16View -->
<g id="edge40" class="edge">
<path fill="none" stroke="#cccccc" d="M3103.83,-289.873C3115.95,-281.876 3131.02,-269.495 3138,-254 3152.6,-221.582 3144.65,-208.928 3138,-174 3127.73,-120.056 3099.83,-61.1292 3084.48,-31.431"/>
<polygon fill="#cccccc" stroke="#cccccc" points="3087.37,-29.4205 3079.62,-22.2015 3081.18,-32.6808 3087.37,-29.4205"/>
</g>
<!-- SequenceType&#45;&gt;UnsafeBufferPointer -->
<g id="edge41" class="edge">
<path fill="none" stroke="#cccccc" d="M3123.18,-289.944C3168.18,-275.25 3238,-243.231 3238,-186 3238,-186 3238,-186 3238,-126 3238,-88.2105 3264.62,-51.0008 3282.97,-29.8342"/>
<polygon fill="#cccccc" stroke="#cccccc" points="3285.67,-32.0635 3289.76,-22.2892 3280.47,-27.3805 3285.67,-32.0635"/>
</g>
<!-- UnsafeBufferPointerGenerator -->
<g id="node51" class="node">
<g id="a_node51"><a xlink:href="/swift-2/type/UnsafeBufferPointerGenerator/" target="_top">
<polygon fill="#999999" stroke="#999999" points="5709.41,-22 5538.59,-22 5538.59,-0 5709.41,-0 5709.41,-22"/>
<text text-anchor="middle" x="5624" y="-7.4" font-family="Helvetica,sans-Serif" font-size="12.00" fill="white">UnsafeBufferPointerGenerator</text>
</a>
</g>
</g>
<!-- SequenceType&#45;&gt;UnsafeBufferPointerGenerator -->
<g id="edge42" class="edge">
<path fill="none" stroke="#cccccc" d="M3131.15,-299.855C3434.47,-298.785 5170.18,-291.065 5402,-254 5503.9,-237.708 5624,-289.192 5624,-186 5624,-186 5624,-186 5624,-126 5624,-93.1536 5624,-54.9837 5624,-32.197"/>
<polygon fill="#cccccc" stroke="#cccccc" points="5627.5,-32.0648 5624,-22.0648 5620.5,-32.0648 5627.5,-32.0648"/>
</g>
<!-- SequenceType&#45;&gt;UnsafeMutableBufferPointer -->
<g id="edge43" class="edge">
<path fill="none" stroke="#cccccc" d="M3040.92,-299.799C2714.21,-298.261 720.737,-287.513 669,-254 589.971,-202.809 564.616,-80.9132 557.488,-32.4141"/>
<polygon fill="#cccccc" stroke="#cccccc" points="560.92,-31.6773 556.106,-22.2391 553.983,-32.6191 560.92,-31.6773"/>
</g>
<!-- Zip2Sequence -->
<g id="node53" class="node">
<g id="a_node53"><a xlink:href="/swift-2/type/Zip2Sequence/" target="_top">
<polygon fill="#999999" stroke="#999999" points="5815.54,-22 5728.46,-22 5728.46,-0 5815.54,-0 5815.54,-22"/>
<text text-anchor="middle" x="5772" y="-7.4" font-family="Helvetica,sans-Serif" font-size="12.00" fill="white">Zip2Sequence</text>
</a>
</g>
</g>
<!-- SequenceType&#45;&gt;Zip2Sequence -->
<g id="edge44" class="edge">
<path fill="none" stroke="#cccccc" d="M3131.4,-299.807C3444.15,-298.392 5274.3,-288.668 5519,-254 5634.28,-237.667 5772,-302.435 5772,-186 5772,-186 5772,-186 5772,-126 5772,-93.1536 5772,-54.9837 5772,-32.197"/>
<polygon fill="#cccccc" stroke="#cccccc" points="5775.5,-32.0648 5772,-22.0648 5768.5,-32.0648 5775.5,-32.0648"/>
</g>
<!-- _prext_LazySequenceType -->
<g id="node57" class="node">
<g id="a_node57"><a xlink:href="/swift-2/protocol/_prext_LazySequenceType/" target="_top">
<path fill="#999999" stroke="#999999" d="M2898.25,-254C2898.25,-254 2757.75,-254 2757.75,-254 2754.09,-254 2750.42,-250.333 2750.42,-246.667 2750.42,-246.667 2750.42,-239.333 2750.42,-239.333 2750.42,-235.667 2754.09,-232 2757.75,-232 2757.75,-232 2898.25,-232 2898.25,-232 2901.91,-232 2905.58,-235.667 2905.58,-239.333 2905.58,-239.333 2905.58,-246.667 2905.58,-246.667 2905.58,-250.333 2901.91,-254 2898.25,-254"/>
<text text-anchor="middle" x="2828" y="-239.4" font-family="Helvetica,sans-Serif" font-size="12.00" fill="white">_prext_LazySequenceType</text>
</a>
</g>
</g>
<!-- SequenceType&#45;&gt;_prext_LazySequenceType -->
<g id="edge45" class="edge">
<path fill="none" stroke="#cccccc" d="M3040.76,-290.181C2997.28,-280.742 2931.41,-266.446 2884.5,-256.263"/>
<polygon fill="#cccccc" stroke="#cccccc" points="2885.01,-252.792 2874.49,-254.091 2883.52,-259.632 2885.01,-252.792"/>
</g>
<!-- _ArrayType&#45;&gt;Array -->
<g id="edge96" class="edge">
<path fill="none" stroke="#cccccc" d="M1390.43,-60.9777C1350.01,-52.8532 1281.85,-38.7158 1214.08,-22.1641"/>
<polygon fill="#cccccc" stroke="#cccccc" points="1214.63,-18.696 1204.08,-19.7049 1212.96,-25.4932 1214.63,-18.696"/>
</g>
<!-- _ArrayType&#45;&gt;ArraySlice -->
<g id="edge97" class="edge">
<path fill="none" stroke="#cccccc" d="M1416.35,-57.9883C1408.76,-50.1233 1398.01,-38.9745 1388.99,-29.6239"/>
<polygon fill="#cccccc" stroke="#cccccc" points="1391.4,-27.0729 1381.94,-22.3039 1386.36,-31.9318 1391.4,-27.0729"/>
</g>
<!-- _ArrayType&#45;&gt;ContiguousArray -->
<g id="edge98" class="edge">
<path fill="none" stroke="#cccccc" d="M1398.47,-57.9883C1373.58,-48.9381 1336.73,-35.5399 1309.23,-25.5367"/>
<polygon fill="#cccccc" stroke="#cccccc" points="1310.15,-22.1475 1299.55,-22.0192 1307.75,-28.726 1310.15,-22.1475"/>
</g>
<!-- _prext_LazySequenceType&#45;&gt;_prext_LazyCollectionType -->
<g id="edge105" class="edge">
<path fill="none" stroke="#cccccc" d="M2828.18,-231.988C2828.31,-224.91 2828.48,-215.171 2828.63,-206.478"/>
<polygon fill="#cccccc" stroke="#cccccc" points="2832.14,-206.365 2828.82,-196.304 2825.14,-206.24 2832.14,-206.365"/>
</g>
</g>
</svg>
