<?xml version="1.0" encoding="UTF-8" standalone="no"?>
<!DOCTYPE svg PUBLIC "-//W3C//DTD SVG 1.1//EN"
 "http://www.w3.org/Graphics/SVG/1.1/DTD/svg11.dtd">
<!-- Generated by graphviz version 2.36.0 (20140111.2315)
 -->
<!-- Title: SequenceType &#45; Type Hierarchy &#45; SwiftDoc.org Pages: 1 -->
<svg width="5890pt" height="427pt"
 viewBox="0.00 0.00 5890.40 427.20" xmlns="http://www.w3.org/2000/svg" xmlns:xlink="http://www.w3.org/1999/xlink">
<g id="graph0" class="graph" transform="scale(1 1) rotate(0) translate(7.2 369.6)">
<g transform="translate(0 -369.6)">
<g>
    <path fill="#666666" d="M13.846,10.832c-0.336-0.464-0.792-0.844-1.368-1.14s-1.224-0.444-1.944-0.444
        c-0.384,0-0.772,0.052-1.164,0.156C8.977,9.509,8.622,9.677,8.301,9.908c-0.32,0.232-0.58,0.52-0.78,0.864
        c-0.2,0.344-0.3,0.756-0.3,1.236c0,0.464,0.092,0.852,0.276,1.164c0.184,0.312,0.432,0.576,0.744,0.792s0.68,0.4,1.104,0.552
        c0.423,0.152,0.876,0.309,1.356,0.468c0.576,0.177,1.16,0.376,1.752,0.601c0.592,0.224,1.128,0.52,1.608,0.888
        s0.872,0.828,1.176,1.38s0.456,1.252,0.456,2.101c0,0.88-0.164,1.644-0.492,2.292c-0.328,0.647-0.765,1.184-1.308,1.607
        c-0.544,0.424-1.172,0.74-1.884,0.948s-1.444,0.312-2.196,0.312c-1.072,0-2.108-0.208-3.108-0.624
        c-1-0.415-1.828-1.031-2.484-1.848l1.848-1.56c0.4,0.592,0.936,1.071,1.608,1.439c0.672,0.368,1.399,0.552,2.184,0.552
        c0.4,0,0.8-0.056,1.2-0.168c0.4-0.111,0.764-0.288,1.092-0.527c0.328-0.24,0.596-0.54,0.804-0.9
        c0.208-0.36,0.312-0.796,0.312-1.308s-0.108-0.94-0.324-1.284c-0.216-0.344-0.508-0.636-0.876-0.876s-0.796-0.444-1.284-0.612
        c-0.488-0.168-1.004-0.34-1.548-0.516c-0.544-0.16-1.08-0.356-1.608-0.588c-0.528-0.232-1-0.528-1.416-0.889
        c-0.416-0.359-0.752-0.804-1.008-1.332c-0.256-0.527-0.384-1.184-0.384-1.968c0-0.848,0.172-1.576,0.516-2.184
        c0.344-0.608,0.792-1.112,1.344-1.512c0.552-0.4,1.176-0.692,1.872-0.876c0.696-0.184,1.396-0.276,2.1-0.276
        c0.992,0,1.92,0.176,2.784,0.528c0.864,0.352,1.56,0.824,2.088,1.416L13.846,10.832z"/>
    <path fill="#666666" d="M18.813,13.304l2.568,8.688h0.048l2.712-8.688h2.376l2.76,8.688h0.048l2.568-8.688h2.376L30.501,24.68
        h-2.352l-2.808-8.544h-0.048l-2.784,8.544h-2.352l-3.792-11.376H18.813z"/>
    <path fill="#666666" d="M38.685,9.2c0,0.416-0.147,0.76-0.44,1.032c-0.294,0.272-0.647,0.408-1.06,0.408s-0.762-0.14-1.047-0.42
        c-0.286-0.28-0.429-0.62-0.429-1.02c0-0.416,0.143-0.764,0.429-1.044c0.286-0.28,0.635-0.42,1.047-0.42s0.766,0.14,1.06,0.42
        C38.538,8.437,38.685,8.784,38.685,9.2z M38.325,24.68h-2.256V13.304h2.256V24.68z"/>
    <path fill="#666666" d="M47.613,15.152h-2.64v9.528h-2.256v-9.528h-2.256v-1.848h2.256v-2.376c0-0.672,0.076-1.292,0.228-1.86
        c0.152-0.568,0.4-1.06,0.744-1.476c0.344-0.416,0.784-0.744,1.32-0.984c0.536-0.24,1.188-0.36,1.956-0.36
        c0.544,0,1.016,0.056,1.416,0.168l-0.264,1.944c-0.176-0.048-0.352-0.088-0.528-0.12c-0.176-0.032-0.376-0.048-0.6-0.048
        c-0.432,0-0.78,0.076-1.044,0.228c-0.264,0.152-0.468,0.356-0.612,0.612s-0.24,0.548-0.288,0.876
        c-0.048,0.328-0.072,0.668-0.072,1.02v2.376h2.64V15.152z"/>
    <path fill="#666666" d="M54.909,15.152h-3.024v5.91c0,0.687,0.128,1.177,0.384,1.472c0.256,0.295,0.664,0.442,1.224,0.442
        c0.208,0,0.432-0.021,0.672-0.065c0.24-0.044,0.456-0.11,0.648-0.198l0.072,1.848c-0.272,0.096-0.572,0.172-0.9,0.229
        c-0.328,0.056-0.668,0.084-1.02,0.084c-1.072,0-1.892-0.296-2.46-0.889c-0.568-0.592-0.852-1.479-0.852-2.664v-6.168h-2.184
        v-1.848h2.184V10.04h2.232v3.264h3.024V15.152z"/>
    <path fill="#666666" d="M57.356,7.688h5.832c1.088,0,2.176,0.16,3.264,0.48c1.088,0.32,2.072,0.824,2.952,1.512
        s1.592,1.568,2.136,2.64c0.544,1.072,0.816,2.36,0.816,3.864c0,1.456-0.272,2.716-0.816,3.78s-1.256,1.943-2.136,2.64
        s-1.864,1.216-2.952,1.561c-1.088,0.344-2.176,0.516-3.264,0.516h-5.832V7.688z M59.732,22.593h2.976
        c1.024,0,1.972-0.145,2.844-0.432c0.872-0.288,1.624-0.704,2.256-1.248c0.632-0.544,1.124-1.216,1.476-2.017
        c0.352-0.8,0.528-1.704,0.528-2.712c0-1.056-0.176-1.983-0.528-2.784c-0.353-0.8-0.844-1.468-1.476-2.004
        c-0.632-0.536-1.384-0.944-2.256-1.224s-1.82-0.42-2.844-0.42h-2.976V22.593z"/>
    <path fill="#666666" d="M86.06,18.969c0,0.88-0.156,1.688-0.468,2.424c-0.312,0.736-0.744,1.372-1.296,1.908
        c-0.552,0.536-1.204,0.952-1.956,1.248c-0.752,0.296-1.56,0.443-2.424,0.443c-0.864,0-1.672-0.147-2.424-0.443
        c-0.752-0.296-1.4-0.712-1.944-1.248c-0.544-0.536-0.972-1.172-1.284-1.908c-0.312-0.735-0.468-1.544-0.468-2.424
        s0.156-1.684,0.468-2.412c0.312-0.728,0.74-1.356,1.284-1.884c0.543-0.528,1.191-0.939,1.944-1.236
        c0.752-0.296,1.56-0.444,2.424-0.444c0.864,0,1.672,0.148,2.424,0.444c0.752,0.297,1.404,0.708,1.956,1.236
        c0.552,0.527,0.984,1.156,1.296,1.884C85.904,17.285,86.06,18.089,86.06,18.969z M83.708,18.98c0-0.542-0.084-1.061-0.252-1.556
        c-0.169-0.494-0.414-0.929-0.734-1.304s-0.718-0.674-1.192-0.897s-1.015-0.335-1.625-0.335c-0.61,0-1.152,0.111-1.625,0.335
        c-0.474,0.224-0.871,0.522-1.191,0.897c-0.321,0.375-0.566,0.81-0.734,1.304C76.184,17.92,76.1,18.438,76.1,18.98
        c0,0.543,0.084,1.062,0.253,1.556c0.168,0.495,0.413,0.934,0.734,1.316c0.321,0.383,0.718,0.686,1.191,0.909
        c0.473,0.224,1.015,0.335,1.625,0.335c0.61,0,1.151-0.111,1.625-0.335s0.871-0.526,1.192-0.909s0.565-0.821,0.734-1.316
        C83.624,20.042,83.708,19.523,83.708,18.98z"/>
    <path fill="#666666" d="M96.428,16.184c-0.24-0.368-0.6-0.676-1.08-0.924s-0.992-0.372-1.536-0.372
        c-0.592,0-1.116,0.112-1.572,0.336c-0.456,0.225-0.844,0.524-1.164,0.9c-0.32,0.376-0.564,0.812-0.732,1.308
        s-0.252,1.017-0.252,1.56c0,0.545,0.084,1.064,0.252,1.561s0.412,0.933,0.732,1.308c0.32,0.376,0.712,0.677,1.176,0.9
        c0.464,0.225,0.992,0.336,1.584,0.336c0.576,0,1.1-0.111,1.572-0.336c0.472-0.224,0.86-0.528,1.164-0.912l1.512,1.368
        c-0.48,0.561-1.08,0.996-1.8,1.308c-0.72,0.312-1.536,0.468-2.448,0.468c-0.88,0-1.692-0.144-2.436-0.432
        c-0.744-0.288-1.388-0.691-1.932-1.212c-0.544-0.52-0.972-1.147-1.284-1.884s-0.468-1.561-0.468-2.473
        c0-0.896,0.152-1.711,0.456-2.447c0.304-0.736,0.728-1.368,1.272-1.896c0.543-0.527,1.188-0.936,1.932-1.224
        c0.744-0.288,1.548-0.433,2.412-0.433c0.8,0,1.596,0.16,2.388,0.48s1.419,0.784,1.884,1.392L96.428,16.184z"/>
    <path fill="#666666" d="M103.1,23.24c0,0.417-0.152,0.784-0.456,1.104c-0.304,0.32-0.688,0.479-1.152,0.479
        c-0.448,0-0.828-0.155-1.14-0.468c-0.312-0.312-0.468-0.676-0.468-1.092c0-0.432,0.152-0.804,0.456-1.116
        c0.304-0.312,0.688-0.468,1.152-0.468c0.464,0,0.848,0.152,1.152,0.456C102.947,22.44,103.1,22.808,103.1,23.24z"/>
    <path fill="#666666" d="M116.635,18.969c0,0.88-0.156,1.688-0.468,2.424c-0.312,0.736-0.744,1.372-1.296,1.908
        c-0.552,0.536-1.204,0.952-1.956,1.248c-0.752,0.296-1.56,0.443-2.424,0.443c-0.864,0-1.672-0.147-2.424-0.443
        c-0.752-0.296-1.4-0.712-1.944-1.248c-0.544-0.536-0.972-1.172-1.284-1.908c-0.312-0.735-0.468-1.544-0.468-2.424
        s0.156-1.684,0.468-2.412c0.312-0.728,0.74-1.356,1.284-1.884c0.543-0.528,1.191-0.939,1.944-1.236
        c0.752-0.296,1.56-0.444,2.424-0.444c0.864,0,1.672,0.148,2.424,0.444c0.752,0.297,1.404,0.708,1.956,1.236
        c0.552,0.527,0.984,1.156,1.296,1.884C116.479,17.285,116.635,18.089,116.635,18.969z M114.283,18.98
        c0-0.542-0.084-1.061-0.252-1.556c-0.169-0.494-0.414-0.929-0.734-1.304s-0.718-0.674-1.192-0.897s-1.015-0.335-1.625-0.335
        c-0.61,0-1.152,0.111-1.625,0.335c-0.474,0.224-0.871,0.522-1.191,0.897c-0.321,0.375-0.566,0.81-0.734,1.304
        c-0.169,0.495-0.253,1.014-0.253,1.556c0,0.543,0.084,1.062,0.253,1.556c0.168,0.495,0.413,0.934,0.734,1.316
        c0.321,0.383,0.718,0.686,1.191,0.909c0.473,0.224,1.015,0.335,1.625,0.335c0.61,0,1.151-0.111,1.625-0.335
        s0.871-0.526,1.192-0.909s0.565-0.821,0.734-1.316C114.199,20.042,114.283,19.523,114.283,18.98z"/>
    <path fill="#666666" d="M119.251,14.577c-0.016-0.48-0.04-0.904-0.072-1.272h2.136c0.032,0.288,0.056,0.62,0.072,0.996
        c0.016,0.376,0.024,0.684,0.024,0.924h0.072c0.32-0.672,0.788-1.212,1.404-1.62c0.616-0.408,1.308-0.612,2.076-0.612
        c0.352,0,0.648,0.033,0.888,0.097l-0.096,2.088c-0.32-0.08-0.664-0.12-1.032-0.12c-0.544,0-1.016,0.101-1.416,0.3
        c-0.4,0.2-0.732,0.468-0.996,0.805c-0.264,0.336-0.46,0.724-0.588,1.163c-0.128,0.44-0.192,0.9-0.192,1.381v5.976h-2.256v-8.928
        C119.275,15.449,119.267,15.056,119.251,14.577z"/>
    <path fill="#666666" d="M128.419,26.625c0.496,0.56,1.116,1.008,1.86,1.344c0.744,0.336,1.508,0.504,2.292,0.504
        c0.752,0,1.384-0.108,1.896-0.324s0.924-0.512,1.236-0.888s0.536-0.82,0.672-1.332c0.136-0.513,0.204-1.064,0.204-1.656v-1.464
        h-0.048c-0.416,0.641-0.984,1.128-1.704,1.464c-0.72,0.336-1.488,0.504-2.304,0.504c-0.864,0-1.652-0.151-2.364-0.456
        c-0.712-0.304-1.316-0.72-1.812-1.248c-0.496-0.527-0.88-1.147-1.152-1.859s-0.408-1.477-0.408-2.292
        c0-0.816,0.136-1.584,0.408-2.305c0.272-0.72,0.656-1.348,1.152-1.884c0.496-0.535,1.096-0.96,1.8-1.271
        c0.704-0.312,1.488-0.469,2.352-0.469c0.816,0,1.596,0.177,2.34,0.528c0.744,0.353,1.332,0.888,1.764,1.608h0.048v-1.824h2.184
        v10.8c0,0.832-0.104,1.628-0.312,2.388c-0.208,0.76-0.56,1.433-1.056,2.017s-1.144,1.052-1.944,1.404
        c-0.8,0.352-1.792,0.527-2.976,0.527c-0.992,0-1.988-0.18-2.988-0.54c-1-0.359-1.86-0.868-2.58-1.523L128.419,26.625z
         M129.091,18.873c0,0.527,0.084,1.031,0.253,1.512c0.168,0.479,0.417,0.904,0.746,1.271c0.329,0.369,0.726,0.664,1.192,0.889
        c0.465,0.224,0.995,0.336,1.589,0.336c0.577,0,1.107-0.104,1.589-0.312c0.481-0.207,0.891-0.491,1.228-0.852
        s0.598-0.784,0.782-1.272c0.185-0.487,0.277-1.012,0.277-1.571c0-0.544-0.093-1.057-0.277-1.536
        c-0.185-0.48-0.449-0.904-0.794-1.272c-0.345-0.367-0.755-0.66-1.228-0.876c-0.474-0.216-1-0.324-1.577-0.324
        c-0.594,0-1.124,0.108-1.589,0.324c-0.466,0.216-0.863,0.504-1.192,0.864s-0.578,0.784-0.746,1.271
        C129.175,17.812,129.091,18.329,129.091,18.873z"/>
</g>
<g><a xlink:href="/" pointer-events="all" target="_top"><polygon fill="none" points="0,0 145,0 145,35 0,35 0,0"/></a></g>

</g>


<!-- AnyBidirectionalCollection -->
<g id="node1" class="node">
<g id="a_node1"><a xlink:href="/swift-2/type/AnyBidirectionalCollection/" target="_top">
<polygon fill="#999999" stroke="#999999" points="1477.05,-22 1328.95,-22 1328.95,-0 1477.05,-0 1477.05,-22"/>
<text text-anchor="middle" x="1403" y="-7.4" font-family="Helvetica,sans-Serif" font-size="12.00" fill="white">AnyBidirectionalCollection</text>
</a>
</g>
</g>
<!-- AnyCollectionType -->
<g id="node2" class="node">
<g id="a_node2"><a xlink:href="/swift-2/protocol/AnyCollectionType/" target="_top">
<path fill="#999999" stroke="#999999" d="M1733.21,-80C1733.21,-80 1638.79,-80 1638.79,-80 1635.12,-80 1631.46,-76.3333 1631.46,-72.6667 1631.46,-72.6667 1631.46,-65.3333 1631.46,-65.3333 1631.46,-61.6667 1635.12,-58 1638.79,-58 1638.79,-58 1733.21,-58 1733.21,-58 1736.88,-58 1740.54,-61.6667 1740.54,-65.3333 1740.54,-65.3333 1740.54,-72.6667 1740.54,-72.6667 1740.54,-76.3333 1736.88,-80 1733.21,-80"/>
<text text-anchor="middle" x="1686" y="-65.4" font-family="Helvetica,sans-Serif" font-size="12.00" fill="white">AnyCollectionType</text>
</a>
</g>
</g>
<!-- AnyCollectionType&#45;&gt;AnyBidirectionalCollection -->
<g id="edge81" class="edge">
<path fill="none" stroke="#cccccc" d="M1635.41,-57.9883C1587.26,-48.4618 1514.77,-34.1176 1463.58,-23.9866"/>
<polygon fill="#cccccc" stroke="#cccccc" points="1464.12,-20.5271 1453.63,-22.0192 1462.76,-27.3939 1464.12,-20.5271"/>
</g>
<!-- AnyForwardCollection -->
<g id="node3" class="node">
<g id="a_node3"><a xlink:href="/swift-2/type/AnyForwardCollection/" target="_top">
<polygon fill="#999999" stroke="#999999" points="1622.54,-22 1495.46,-22 1495.46,-0 1622.54,-0 1622.54,-22"/>
<text text-anchor="middle" x="1559" y="-7.4" font-family="Helvetica,sans-Serif" font-size="12.00" fill="white">AnyForwardCollection</text>
</a>
</g>
</g>
<!-- AnyCollectionType&#45;&gt;AnyForwardCollection -->
<g id="edge82" class="edge">
<path fill="none" stroke="#cccccc" d="M1663.29,-57.9883C1643.19,-49.1244 1613.63,-36.0897 1591.11,-26.1587"/>
<polygon fill="#cccccc" stroke="#cccccc" points="1592.5,-22.946 1581.94,-22.1138 1589.67,-29.351 1592.5,-22.946"/>
</g>
<!-- AnyRandomAccessCollection -->
<g id="node5" class="node">
<g id="a_node5"><a xlink:href="/swift-2/type/AnyRandomAccessCollection/" target="_top">
<polygon fill="#999999" stroke="#999999" points="1807.55,-22 1640.45,-22 1640.45,-0 1807.55,-0 1807.55,-22"/>
<text text-anchor="middle" x="1724" y="-7.4" font-family="Helvetica,sans-Serif" font-size="12.00" fill="white">AnyRandomAccessCollection</text>
</a>
</g>
</g>
<!-- AnyCollectionType&#45;&gt;AnyRandomAccessCollection -->
<g id="edge83" class="edge">
<path fill="none" stroke="#cccccc" d="M1692.79,-57.9883C1697.92,-50.4379 1705.09,-39.8611 1711.27,-30.7543"/>
<polygon fill="#cccccc" stroke="#cccccc" points="1714.29,-32.5439 1717.01,-22.3039 1708.5,-28.6134 1714.29,-32.5439"/>
</g>
<!-- AnyGenerator -->
<g id="node4" class="node">
<g id="a_node4"><a xlink:href="/swift-2/type/AnyGenerator/" target="_top">
<polygon fill="#999999" stroke="#999999" points="84.0314,-22 -0.0313876,-22 -0.0313876,-0 84.0314,-0 84.0314,-22"/>
<text text-anchor="middle" x="42" y="-7.4" font-family="Helvetica,sans-Serif" font-size="12.00" fill="white">AnyGenerator</text>
</a>
</g>
</g>
<!-- AnySequence -->
<g id="node6" class="node">
<g id="a_node6"><a xlink:href="/swift-2/type/AnySequence/" target="_top">
<polygon fill="#999999" stroke="#999999" points="187.044,-22 102.956,-22 102.956,-0 187.044,-0 187.044,-22"/>
<text text-anchor="middle" x="145" y="-7.4" font-family="Helvetica,sans-Serif" font-size="12.00" fill="white">AnySequence</text>
</a>
</g>
</g>
<!-- Array -->
<g id="node7" class="node">
<g id="a_node7"><a xlink:href="/swift-2/type/Array/" target="_top">
<polygon fill="#999999" stroke="#999999" points="509,-22 455,-22 455,-0 509,-0 509,-22"/>
<text text-anchor="middle" x="482" y="-7.4" font-family="Helvetica,sans-Serif" font-size="12.00" fill="white">Array</text>
</a>
</g>
</g>
<!-- ArraySlice -->
<g id="node8" class="node">
<g id="a_node8"><a xlink:href="/swift-2/type/ArraySlice/" target="_top">
<polygon fill="#999999" stroke="#999999" points="409.011,-22 344.989,-22 344.989,-0 409.011,-0 409.011,-22"/>
<text text-anchor="middle" x="377" y="-7.4" font-family="Helvetica,sans-Serif" font-size="12.00" fill="white">ArraySlice</text>
</a>
</g>
</g>
<!-- CollectionOfOne -->
<g id="node9" class="node">
<g id="a_node9"><a xlink:href="/swift-2/type/CollectionOfOne/" target="_top">
<polygon fill="#999999" stroke="#999999" points="1229.03,-22 1130.97,-22 1130.97,-0 1229.03,-0 1229.03,-22"/>
<text text-anchor="middle" x="1180" y="-7.4" font-family="Helvetica,sans-Serif" font-size="12.00" fill="white">CollectionOfOne</text>
</a>
</g>
</g>
<!-- CollectionType -->
<g id="node10" class="node">
<g id="a_node10"><a xlink:href="/swift-2/protocol/CollectionType/" target="_top">
<path fill="#999999" stroke="#999999" d="M1995.7,-254C1995.7,-254 1922.3,-254 1922.3,-254 1918.63,-254 1914.96,-250.333 1914.96,-246.667 1914.96,-246.667 1914.96,-239.333 1914.96,-239.333 1914.96,-235.667 1918.63,-232 1922.3,-232 1922.3,-232 1995.7,-232 1995.7,-232 1999.37,-232 2003.04,-235.667 2003.04,-239.333 2003.04,-239.333 2003.04,-246.667 2003.04,-246.667 2003.04,-250.333 1999.37,-254 1995.7,-254"/>
<text text-anchor="middle" x="1959" y="-239.4" font-family="Helvetica,sans-Serif" font-size="12.00" fill="white">CollectionType</text>
</a>
</g>
</g>
<!-- CollectionType&#45;&gt;AnyBidirectionalCollection -->
<g id="edge49" class="edge">
<path fill="none" stroke="#cccccc" d="M1928.67,-231.924C1902.74,-223.096 1864.57,-209.586 1832,-196 1699.89,-140.897 1673.81,-111.397 1541,-58 1509.91,-45.4982 1473.97,-33.5969 1446.56,-25.033"/>
<polygon fill="#cccccc" stroke="#cccccc" points="1447.46,-21.6483 1436.87,-22.0339 1445.39,-28.3351 1447.46,-21.6483"/>
</g>
<!-- CollectionType&#45;&gt;AnyCollectionType -->
<g id="edge50" class="edge">
<path fill="none" stroke="#cccccc" d="M1937.48,-231.982C1918.98,-223.137 1891.76,-209.572 1869,-196 1808.48,-159.909 1741.15,-111.167 1707.54,-86.2064"/>
<polygon fill="#cccccc" stroke="#cccccc" points="1709.48,-83.2841 1699.37,-80.1105 1705.29,-88.8951 1709.48,-83.2841"/>
</g>
<!-- CollectionType&#45;&gt;AnyForwardCollection -->
<g id="edge51" class="edge">
<path fill="none" stroke="#cccccc" d="M1950.61,-231.755C1924.37,-200.451 1840.22,-105.319 1749,-58 1727.18,-46.68 1669.21,-33.4409 1622.99,-24.0798"/>
<polygon fill="#cccccc" stroke="#cccccc" points="1623.52,-20.616 1613.03,-22.0841 1622.14,-27.4797 1623.52,-20.616"/>
</g>
<!-- CollectionType&#45;&gt;AnyRandomAccessCollection -->
<g id="edge52" class="edge">
<path fill="none" stroke="#cccccc" d="M1955.84,-231.957C1948.39,-209.383 1927.97,-153.665 1897,-116 1860.79,-71.9543 1800.72,-41.8853 1761.75,-25.8194"/>
<polygon fill="#cccccc" stroke="#cccccc" points="1762.91,-22.513 1752.32,-22.0366 1760.3,-29.0094 1762.91,-22.513"/>
</g>
<!-- CollectionType&#45;&gt;Array -->
<g id="edge53" class="edge">
<path fill="none" stroke="#cccccc" d="M1914.73,-242.024C1717.04,-241.884 913.791,-238.652 666,-196 581.498,-181.455 532.704,-207.146 482,-138 459.148,-106.836 467.835,-58.6811 475.415,-31.8258"/>
<polygon fill="#cccccc" stroke="#cccccc" points="478.831,-32.6248 478.4,-22.0387 472.135,-30.583 478.831,-32.6248"/>
</g>
<!-- CollectionType&#45;&gt;ArraySlice -->
<g id="edge54" class="edge">
<path fill="none" stroke="#cccccc" d="M1914.73,-242.272C1686.83,-243.445 651.385,-245.968 518,-196 448.536,-169.977 433.596,-145.08 398,-80 389.766,-64.9458 384.285,-46.2134 380.994,-32.2238"/>
<polygon fill="#cccccc" stroke="#cccccc" points="384.356,-31.2114 378.813,-22.182 377.516,-32.6971 384.356,-31.2114"/>
</g>
<!-- CollectionType&#45;&gt;CollectionOfOne -->
<g id="edge55" class="edge">
<path fill="none" stroke="#cccccc" d="M1914.66,-236.026C1865.18,-228.818 1783,-215.225 1714,-196 1545.33,-149.004 1511.48,-112.227 1345,-58 1306.56,-45.4801 1262.42,-33.286 1229.47,-24.6019"/>
<polygon fill="#cccccc" stroke="#cccccc" points="1230.18,-21.1706 1219.62,-22.023 1228.41,-27.9423 1230.18,-21.1706"/>
</g>
<!-- ContiguousArray -->
<g id="node11" class="node">
<g id="a_node11"><a xlink:href="/swift-2/type/ContiguousArray/" target="_top">
<polygon fill="#999999" stroke="#999999" points="626.534,-22 527.466,-22 527.466,-0 626.534,-0 626.534,-22"/>
<text text-anchor="middle" x="577" y="-7.4" font-family="Helvetica,sans-Serif" font-size="12.00" fill="white">ContiguousArray</text>
</a>
</g>
</g>
<!-- CollectionType&#45;&gt;ContiguousArray -->
<g id="edge56" class="edge">
<path fill="none" stroke="#cccccc" d="M1914.96,-240.669C1818.08,-237.264 1579.42,-226.268 1382,-196 1306.27,-184.389 795.676,-63.8632 629.298,-24.419"/>
<polygon fill="#cccccc" stroke="#cccccc" points="629.845,-20.9517 619.307,-22.0498 628.23,-27.7628 629.845,-20.9517"/>
</g>
<!-- Dictionary -->
<g id="node12" class="node">
<g id="a_node12"><a xlink:href="/swift-2/type/Dictionary/" target="_top">
<polygon fill="#999999" stroke="#999999" points="1310.51,-22 1247.49,-22 1247.49,-0 1310.51,-0 1310.51,-22"/>
<text text-anchor="middle" x="1279" y="-7.4" font-family="Helvetica,sans-Serif" font-size="12.00" fill="white">Dictionary</text>
</a>
</g>
</g>
<!-- CollectionType&#45;&gt;Dictionary -->
<g id="edge57" class="edge">
<path fill="none" stroke="#cccccc" d="M1914.71,-232.028C1878.46,-223.514 1825.99,-210.387 1781,-196 1617.79,-143.813 1582.56,-115.09 1421,-58 1387.23,-46.0676 1348.54,-33.6121 1320.08,-24.6761"/>
<polygon fill="#cccccc" stroke="#cccccc" points="1321.05,-21.3136 1310.46,-21.6687 1318.96,-27.9944 1321.05,-21.3136"/>
</g>
<!-- DictionaryLiteral -->
<g id="node13" class="node">
<g id="a_node13"><a xlink:href="/swift-2/type/DictionaryLiteral/" target="_top">
<polygon fill="#999999" stroke="#999999" points="2203.02,-22 2106.98,-22 2106.98,-0 2203.02,-0 2203.02,-22"/>
<text text-anchor="middle" x="2155" y="-7.4" font-family="Helvetica,sans-Serif" font-size="12.00" fill="white">DictionaryLiteral</text>
</a>
</g>
</g>
<!-- CollectionType&#45;&gt;DictionaryLiteral -->
<g id="edge58" class="edge">
<path fill="none" stroke="#cccccc" d="M1967.93,-231.8C1976.06,-222.5 1988.38,-208.365 1999,-196 2051.09,-135.331 2112.26,-62.8041 2139.99,-29.8575"/>
<polygon fill="#cccccc" stroke="#cccccc" points="2142.83,-31.9155 2146.59,-22.01 2137.47,-27.4093 2142.83,-31.9155"/>
</g>
<!-- EmptyCollection -->
<g id="node14" class="node">
<g id="a_node14"><a xlink:href="/swift-2/type/EmptyCollection/" target="_top">
<polygon fill="#999999" stroke="#999999" points="2561.03,-22 2464.97,-22 2464.97,-0 2561.03,-0 2561.03,-22"/>
<text text-anchor="middle" x="2513" y="-7.4" font-family="Helvetica,sans-Serif" font-size="12.00" fill="white">EmptyCollection</text>
</a>
</g>
</g>
<!-- CollectionType&#45;&gt;EmptyCollection -->
<g id="edge59" class="edge">
<path fill="none" stroke="#cccccc" d="M1987.96,-231.83C2013.4,-222.78 2051.34,-209.001 2084,-196 2233.93,-136.307 2410.19,-58.1461 2481.09,-26.3675"/>
<polygon fill="#cccccc" stroke="#cccccc" points="2482.7,-29.4852 2490.39,-22.198 2479.83,-23.0986 2482.7,-29.4852"/>
</g>
<!-- FilterCollection -->
<g id="node18" class="node">
<g id="a_node18"><a xlink:href="/swift-2/type/FilterCollection/" target="_top">
<polygon fill="#999999" stroke="#999999" points="294.519,-22 205.481,-22 205.481,-0 294.519,-0 294.519,-22"/>
<text text-anchor="middle" x="250" y="-7.4" font-family="Helvetica,sans-Serif" font-size="12.00" fill="white">FilterCollection</text>
</a>
</g>
</g>
<!-- CollectionType&#45;&gt;FilterCollection -->
<g id="edge60" class="edge">
<path fill="none" stroke="#cccccc" d="M1914.69,-241.45C1674.63,-238.366 538.169,-222.416 469,-196 376.704,-160.751 295.594,-69.1582 264.029,-30.0876"/>
<polygon fill="#cccccc" stroke="#cccccc" points="266.697,-27.8198 257.733,-22.1712 261.218,-32.1766 266.697,-27.8198"/>
</g>
<!-- LazyBidirectionalCollection -->
<g id="node24" class="node">
<g id="a_node24"><a xlink:href="/swift-2/type/LazyBidirectionalCollection/" target="_top">
<polygon fill="#999999" stroke="#999999" points="2446.56,-22 2293.44,-22 2293.44,-0 2446.56,-0 2446.56,-22"/>
<text text-anchor="middle" x="2370" y="-7.4" font-family="Helvetica,sans-Serif" font-size="12.00" fill="white">LazyBidirectionalCollection</text>
</a>
</g>
</g>
<!-- CollectionType&#45;&gt;LazyBidirectionalCollection -->
<g id="edge61" class="edge">
<path fill="none" stroke="#cccccc" d="M1979.76,-231.9C1998.32,-222.783 2026.17,-208.864 2050,-196 2160.92,-136.13 2290.3,-59.6403 2344.29,-27.4118"/>
<polygon fill="#cccccc" stroke="#cccccc" points="2346.39,-30.2331 2353.18,-22.0985 2342.8,-24.2245 2346.39,-30.2331"/>
</g>
<!-- LazyForwardCollection -->
<g id="node25" class="node">
<g id="a_node25"><a xlink:href="/swift-2/type/LazyForwardCollection/" target="_top">
<polygon fill="#999999" stroke="#999999" points="2711.04,-22 2578.96,-22 2578.96,-0 2711.04,-0 2711.04,-22"/>
<text text-anchor="middle" x="2645" y="-7.4" font-family="Helvetica,sans-Serif" font-size="12.00" fill="white">LazyForwardCollection</text>
</a>
</g>
</g>
<!-- CollectionType&#45;&gt;LazyForwardCollection -->
<g id="edge62" class="edge">
<path fill="none" stroke="#cccccc" d="M1998.13,-231.981C2031.91,-223.135 2081.93,-209.57 2125,-196 2308.88,-138.069 2525.13,-57.4629 2609.13,-25.6702"/>
<polygon fill="#cccccc" stroke="#cccccc" points="2610.59,-28.8573 2618.7,-22.0398 2608.11,-22.3118 2610.59,-28.8573"/>
</g>
<!-- LazyRandomAccessCollection -->
<g id="node26" class="node">
<g id="a_node26"><a xlink:href="/swift-2/type/LazyRandomAccessCollection/" target="_top">
<polygon fill="#999999" stroke="#999999" points="2901.06,-22 2728.94,-22 2728.94,-0 2901.06,-0 2901.06,-22"/>
<text text-anchor="middle" x="2815" y="-7.4" font-family="Helvetica,sans-Serif" font-size="12.00" fill="white">LazyRandomAccessCollection</text>
</a>
</g>
</g>
<!-- CollectionType&#45;&gt;LazyRandomAccessCollection -->
<g id="edge63" class="edge">
<path fill="none" stroke="#cccccc" d="M2003.04,-233.308C2046.06,-224.617 2113.29,-210.49 2171,-196 2399.93,-138.523 2670.72,-56.5082 2773.04,-25.0075"/>
<polygon fill="#cccccc" stroke="#cccccc" points="2774.17,-28.3221 2782.7,-22.0315 2772.11,-21.6327 2774.17,-28.3221"/>
</g>
<!-- MapCollection -->
<g id="node28" class="node">
<g id="a_node28"><a xlink:href="/swift-2/type/MapCollection/" target="_top">
<polygon fill="#999999" stroke="#999999" points="3005.03,-22 2918.97,-22 2918.97,-0 3005.03,-0 3005.03,-22"/>
<text text-anchor="middle" x="2962" y="-7.4" font-family="Helvetica,sans-Serif" font-size="12.00" fill="white">MapCollection</text>
</a>
</g>
</g>
<!-- CollectionType&#45;&gt;MapCollection -->
<g id="edge64" class="edge">
<path fill="none" stroke="#cccccc" d="M2003.43,-235.338C2056.4,-227.161 2147.5,-212.352 2225,-196 2488.35,-140.433 2800.22,-56.5197 2915.87,-24.774"/>
<polygon fill="#cccccc" stroke="#cccccc" points="2917.08,-28.0702 2925.79,-22.0444 2915.22,-21.3207 2917.08,-28.0702"/>
</g>
<!-- MutableCollectionType -->
<g id="node31" class="node">
<g id="a_node31"><a xlink:href="/swift-2/protocol/MutableCollectionType/" target="_top">
<path fill="#999999" stroke="#999999" d="M925.221,-196C925.221,-196 808.779,-196 808.779,-196 805.112,-196 801.446,-192.333 801.446,-188.667 801.446,-188.667 801.446,-181.333 801.446,-181.333 801.446,-177.667 805.112,-174 808.779,-174 808.779,-174 925.221,-174 925.221,-174 928.888,-174 932.554,-177.667 932.554,-181.333 932.554,-181.333 932.554,-188.667 932.554,-188.667 932.554,-192.333 928.888,-196 925.221,-196"/>
<text text-anchor="middle" x="867" y="-181.4" font-family="Helvetica,sans-Serif" font-size="12.00" fill="white">MutableCollectionType</text>
</a>
</g>
</g>
<!-- CollectionType&#45;&gt;MutableCollectionType -->
<g id="edge65" class="edge">
<path fill="none" stroke="#cccccc" d="M1914.84,-239.735C1747.89,-231.174 1154.06,-200.721 942.519,-189.873"/>
<polygon fill="#cccccc" stroke="#cccccc" points="942.603,-186.373 932.436,-189.356 942.244,-193.363 942.603,-186.373"/>
</g>
<!-- MutableSliceable -->
<g id="node32" class="node">
<g id="a_node32"><a xlink:href="/swift-2/protocol/MutableSliceable/" target="_top">
<path fill="#999999" stroke="#999999" d="M585.208,-138C585.208,-138 498.792,-138 498.792,-138 495.126,-138 491.459,-134.333 491.459,-130.667 491.459,-130.667 491.459,-123.333 491.459,-123.333 491.459,-119.667 495.126,-116 498.792,-116 498.792,-116 585.208,-116 585.208,-116 588.874,-116 592.541,-119.667 592.541,-123.333 592.541,-123.333 592.541,-130.667 592.541,-130.667 592.541,-134.333 588.874,-138 585.208,-138"/>
<text text-anchor="middle" x="542" y="-123.4" font-family="Helvetica,sans-Serif" font-size="12.00" fill="white">MutableSliceable</text>
</a>
</g>
</g>
<!-- CollectionType&#45;&gt;MutableSliceable -->
<g id="edge66" class="edge">
<path fill="none" stroke="#cccccc" d="M1914.84,-241.939C1725.56,-241.427 981.962,-236.807 752,-196 687.686,-184.587 615.921,-158.228 575.137,-141.884"/>
<polygon fill="#cccccc" stroke="#cccccc" points="576.284,-138.572 565.702,-138.059 573.655,-145.06 576.284,-138.572"/>
</g>
<!-- Range -->
<g id="node34" class="node">
<g id="a_node34"><a xlink:href="/swift-2/type/Range/" target="_top">
<polygon fill="#999999" stroke="#999999" points="3493,-22 3439,-22 3439,-0 3493,-0 3493,-22"/>
<text text-anchor="middle" x="3466" y="-7.4" font-family="Helvetica,sans-Serif" font-size="12.00" fill="white">Range</text>
</a>
</g>
</g>
<!-- CollectionType&#45;&gt;Range -->
<g id="edge67" class="edge">
<path fill="none" stroke="#cccccc" d="M2003.06,-240.2C2096.65,-235.964 2322.02,-223.57 2509,-196 2631.71,-177.906 2660.78,-164.308 2782,-138 2862.3,-120.573 3062.04,-72.035 3143,-58 3266.03,-36.6728 3301.51,-46.2525 3428.51,-21.8329"/>
<polygon fill="#cccccc" stroke="#cccccc" points="3429.48,-25.209 3438.62,-19.854 3428.13,-18.3393 3429.48,-25.209"/>
</g>
<!-- RangeReplaceableCollectionType -->
<g id="node36" class="node">
<g id="a_node36"><a xlink:href="/swift-2/protocol/RangeReplaceableCollectionType/" target="_top">
<path fill="#999999" stroke="#999999" d="M793.76,-138C793.76,-138 618.24,-138 618.24,-138 614.573,-138 610.906,-134.333 610.906,-130.667 610.906,-130.667 610.906,-123.333 610.906,-123.333 610.906,-119.667 614.573,-116 618.24,-116 618.24,-116 793.76,-116 793.76,-116 797.427,-116 801.094,-119.667 801.094,-123.333 801.094,-123.333 801.094,-130.667 801.094,-130.667 801.094,-134.333 797.427,-138 793.76,-138"/>
<text text-anchor="middle" x="706" y="-123.4" font-family="Helvetica,sans-Serif" font-size="12.00" fill="white">RangeReplaceableCollectionType</text>
</a>
</g>
</g>
<!-- CollectionType&#45;&gt;RangeReplaceableCollectionType -->
<g id="edge68" class="edge">
<path fill="none" stroke="#cccccc" d="M1914.86,-241.874C1714.83,-241.084 898.675,-235.451 792,-196 763.771,-185.56 737.604,-162.074 721.721,-145.641"/>
<polygon fill="#cccccc" stroke="#cccccc" points="724.174,-143.14 714.787,-138.228 719.063,-147.922 724.174,-143.14"/>
</g>
<!-- Repeat -->
<g id="node37" class="node">
<g id="a_node37"><a xlink:href="/swift-2/type/Repeat/" target="_top">
<polygon fill="#999999" stroke="#999999" points="3701,-22 3647,-22 3647,-0 3701,-0 3701,-22"/>
<text text-anchor="middle" x="3674" y="-7.4" font-family="Helvetica,sans-Serif" font-size="12.00" fill="white">Repeat</text>
</a>
</g>
</g>
<!-- CollectionType&#45;&gt;Repeat -->
<g id="edge69" class="edge">
<path fill="none" stroke="#cccccc" d="M2003.2,-241.319C2113.64,-239.134 2410.35,-230.273 2655,-196 2799.08,-175.815 3151.34,-80.9819 3295,-58 3442.68,-34.376 3484.95,-49.3511 3636.49,-21.7947"/>
<polygon fill="#cccccc" stroke="#cccccc" points="3637.44,-25.179 3646.63,-19.9172 3636.16,-18.2959 3637.44,-25.179"/>
</g>
<!-- ReverseCollection -->
<g id="node38" class="node">
<g id="a_node38"><a xlink:href="/swift-2/type/ReverseCollection/" target="_top">
<polygon fill="#999999" stroke="#999999" points="3826.53,-22 3719.47,-22 3719.47,-0 3826.53,-0 3826.53,-22"/>
<text text-anchor="middle" x="3773" y="-7.4" font-family="Helvetica,sans-Serif" font-size="12.00" fill="white">ReverseCollection</text>
</a>
</g>
</g>
<!-- CollectionType&#45;&gt;ReverseCollection -->
<g id="edge70" class="edge">
<path fill="none" stroke="#cccccc" d="M2003.31,-241.116C2121.35,-238.38 2453.06,-228.191 2727,-196 3108.45,-151.175 3561.67,-57.4749 3717.32,-24.1144"/>
<polygon fill="#cccccc" stroke="#cccccc" points="3718.1,-27.5276 3727.14,-22.0054 3716.63,-20.6837 3718.1,-27.5276"/>
</g>
<!-- ReverseRandomAccessCollection -->
<g id="node39" class="node">
<g id="a_node39"><a xlink:href="/swift-2/type/ReverseRandomAccessCollection/" target="_top">
<polygon fill="#999999" stroke="#999999" points="2016.56,-22 1825.44,-22 1825.44,-0 2016.56,-0 2016.56,-22"/>
<text text-anchor="middle" x="1921" y="-7.4" font-family="Helvetica,sans-Serif" font-size="12.00" fill="white">ReverseRandomAccessCollection</text>
</a>
</g>
</g>
<!-- CollectionType&#45;&gt;ReverseRandomAccessCollection -->
<g id="edge71" class="edge">
<path fill="none" stroke="#cccccc" d="M1958.28,-231.928C1956.15,-204.031 1949.14,-123.499 1935,-58 1933.11,-49.2625 1930.36,-39.7865 1927.79,-31.7185"/>
<polygon fill="#cccccc" stroke="#cccccc" points="1931.07,-30.4979 1924.6,-22.1038 1924.42,-32.6971 1931.07,-30.4979"/>
</g>
<!-- Set -->
<g id="node41" class="node">
<g id="a_node41"><a xlink:href="/swift-2/type/Set/" target="_top">
<polygon fill="#999999" stroke="#999999" points="2089,-22 2035,-22 2035,-0 2089,-0 2089,-22"/>
<text text-anchor="middle" x="2062" y="-7.4" font-family="Helvetica,sans-Serif" font-size="12.00" fill="white">Set</text>
</a>
</g>
</g>
<!-- CollectionType&#45;&gt;Set -->
<g id="edge72" class="edge">
<path fill="none" stroke="#cccccc" d="M1963.56,-231.82C1979.41,-196.419 2032.32,-78.2851 2053.31,-31.4085"/>
<polygon fill="#cccccc" stroke="#cccccc" points="2056.6,-32.6192 2057.49,-22.062 2050.21,-29.7581 2056.6,-32.6192"/>
</g>
<!-- Slice -->
<g id="node42" class="node">
<g id="a_node42"><a xlink:href="/swift-2/type/Slice/" target="_top">
<polygon fill="#999999" stroke="#999999" points="2275,-22 2221,-22 2221,-0 2275,-0 2275,-22"/>
<text text-anchor="middle" x="2248" y="-7.4" font-family="Helvetica,sans-Serif" font-size="12.00" fill="white">Slice</text>
</a>
</g>
</g>
<!-- CollectionType&#45;&gt;Slice -->
<g id="edge73" class="edge">
<path fill="none" stroke="#cccccc" d="M1973.17,-231.978C1986.04,-222.797 2005.49,-208.738 2022,-196 2099.47,-136.245 2188.86,-61.7768 2227.95,-28.9185"/>
<polygon fill="#cccccc" stroke="#cccccc" points="2230.54,-31.3187 2235.93,-22.2016 2226.03,-25.9631 2230.54,-31.3187"/>
</g>
<!-- String.CharacterView -->
<g id="node45" class="node">
<g id="a_node45"><a xlink:href="/swift-2/type/String.CharacterView/" target="_top">
<polygon fill="#999999" stroke="#999999" points="767.376,-22 644.624,-22 644.624,-0 767.376,-0 767.376,-22"/>
<text text-anchor="middle" x="706" y="-7.4" font-family="Helvetica,sans-Serif" font-size="12.00" fill="white">String.CharacterView</text>
</a>
</g>
</g>
<!-- CollectionType&#45;&gt;String.CharacterView -->
<g id="edge77" class="edge">
<path fill="none" stroke="#cccccc" d="M1914.79,-240.478C1829.98,-236.957 1638.85,-226.112 1481,-196 1263.8,-154.565 1218.92,-105.685 1003,-58 981.41,-53.2319 858.208,-34.6118 777.415,-22.5732"/>
<polygon fill="#cccccc" stroke="#cccccc" points="777.699,-19.0769 767.293,-21.0662 776.668,-26.0006 777.699,-19.0769"/>
</g>
<!-- String.UTF16View -->
<g id="node46" class="node">
<g id="a_node46"><a xlink:href="/swift-2/type/String.UTF16View/" target="_top">
<polygon fill="#999999" stroke="#999999" points="3130.37,-22 3023.63,-22 3023.63,-0 3130.37,-0 3130.37,-22"/>
<text text-anchor="middle" x="3077" y="-7.4" font-family="Helvetica,sans-Serif" font-size="12.00" fill="white">String.UTF16View</text>
</a>
</g>
</g>
<!-- CollectionType&#45;&gt;String.UTF16View -->
<g id="edge79" class="edge">
<path fill="none" stroke="#cccccc" d="M2003.08,-236.939C2065.75,-229.477 2184.1,-214.398 2284,-196 2569.26,-143.465 2906.8,-56.9072 3029.46,-24.6413"/>
<polygon fill="#cccccc" stroke="#cccccc" points="3030.51,-27.9837 3039.29,-22.0508 3028.73,-21.2148 3030.51,-27.9837"/>
</g>
<!-- String.UTF8View -->
<g id="node47" class="node">
<g id="a_node47"><a xlink:href="/swift-2/type/String.UTF8View/" target="_top">
<polygon fill="#999999" stroke="#999999" points="3249.36,-22 3148.64,-22 3148.64,-0 3249.36,-0 3249.36,-22"/>
<text text-anchor="middle" x="3199" y="-7.4" font-family="Helvetica,sans-Serif" font-size="12.00" fill="white">String.UTF8View</text>
</a>
</g>
</g>
<!-- CollectionType&#45;&gt;String.UTF8View -->
<g id="edge80" class="edge">
<path fill="none" stroke="#cccccc" d="M2003.2,-238.13C2076.27,-231.444 2226.72,-216.455 2353,-196 2639.38,-149.609 2707.78,-120.874 2991,-58 3042.7,-46.5228 3101.64,-33.4931 3143.55,-24.2385"/>
<polygon fill="#cccccc" stroke="#cccccc" points="3144.54,-27.6032 3153.55,-22.0293 3143.03,-20.7679 3144.54,-27.6032"/>
</g>
<!-- String.UnicodeScalarView -->
<g id="node48" class="node">
<g id="a_node48"><a xlink:href="/swift-2/type/String.UnicodeScalarView/" target="_top">
<polygon fill="#999999" stroke="#999999" points="933.892,-22 786.108,-22 786.108,-0 933.892,-0 933.892,-22"/>
<text text-anchor="middle" x="860" y="-7.4" font-family="Helvetica,sans-Serif" font-size="12.00" fill="white">String.UnicodeScalarView</text>
</a>
</g>
</g>
<!-- CollectionType&#45;&gt;String.UnicodeScalarView -->
<g id="edge78" class="edge">
<path fill="none" stroke="#cccccc" d="M1914.71,-239.784C1841.55,-235.463 1691.21,-223.778 1567,-196 1378.54,-153.856 1342.62,-103.705 1155,-58 1116.04,-48.5093 1016.42,-33.6877 943.687,-23.4458"/>
<polygon fill="#cccccc" stroke="#cccccc" points="944.002,-19.9558 933.613,-22.0321 943.029,-26.8879 944.002,-19.9558"/>
</g>
<!-- UnicodeScalar.UTF16View -->
<g id="node49" class="node">
<g id="a_node49"><a xlink:href="/swift-2/type/UnicodeScalar.UTF16View/" target="_top">
<polygon fill="#999999" stroke="#999999" points="3420.39,-22 3267.61,-22 3267.61,-0 3420.39,-0 3420.39,-22"/>
<text text-anchor="middle" x="3344" y="-7.4" font-family="Helvetica,sans-Serif" font-size="12.00" fill="white">UnicodeScalar.UTF16View</text>
</a>
</g>
</g>
<!-- CollectionType&#45;&gt;UnicodeScalar.UTF16View -->
<g id="edge74" class="edge">
<path fill="none" stroke="#cccccc" d="M2003.12,-239.274C2086.86,-233.75 2274.5,-219.708 2431,-196 2716.98,-152.676 2783.13,-113.508 3067,-58 3134.22,-44.8553 3211.1,-32.2827 3266.78,-23.6139"/>
<polygon fill="#cccccc" stroke="#cccccc" points="3267.58,-27.0322 3276.92,-22.0414 3266.5,-20.1148 3267.58,-27.0322"/>
</g>
<!-- UnsafeBufferPointer -->
<g id="node50" class="node">
<g id="a_node50"><a xlink:href="/swift-2/type/UnsafeBufferPointer/" target="_top">
<polygon fill="#999999" stroke="#999999" points="3628.39,-22 3511.61,-22 3511.61,-0 3628.39,-0 3628.39,-22"/>
<text text-anchor="middle" x="3570" y="-7.4" font-family="Helvetica,sans-Serif" font-size="12.00" fill="white">UnsafeBufferPointer</text>
</a>
</g>
</g>
<!-- CollectionType&#45;&gt;UnsafeBufferPointer -->
<g id="edge75" class="edge">
<path fill="none" stroke="#cccccc" d="M2003.11,-240.87C2105.47,-237.786 2366.91,-227.252 2583,-196 2726.13,-175.3 3076.47,-82.4816 3219,-58 3340.79,-37.0817 3374.68,-39.1036 3501.32,-22.0623"/>
<polygon fill="#cccccc" stroke="#cccccc" points="3501.97,-25.506 3511.4,-20.6909 3501.02,-18.5698 3501.97,-25.506"/>
</g>
<!-- UnsafeMutableBufferPointer -->
<g id="node52" class="node">
<g id="a_node52"><a xlink:href="/swift-2/type/UnsafeMutableBufferPointer/" target="_top">
<polygon fill="#999999" stroke="#999999" points="1112.91,-22 953.095,-22 953.095,-0 1112.91,-0 1112.91,-22"/>
<text text-anchor="middle" x="1033" y="-7.4" font-family="Helvetica,sans-Serif" font-size="12.00" fill="white">UnsafeMutableBufferPointer</text>
</a>
</g>
</g>
<!-- CollectionType&#45;&gt;UnsafeMutableBufferPointer -->
<g id="edge76" class="edge">
<path fill="none" stroke="#cccccc" d="M1914.96,-238.595C1853.05,-233.141 1737.09,-220.478 1641,-196 1470.11,-152.467 1438.77,-105.693 1269,-58 1216.58,-43.2749 1156.32,-31.6137 1109.81,-23.7166"/>
<polygon fill="#cccccc" stroke="#cccccc" points="1110.24,-20.2406 1099.8,-22.0394 1109.08,-27.1443 1110.24,-20.2406"/>
</g>
<!-- EmptyGenerator -->
<g id="node15" class="node">
<g id="a_node15"><a xlink:href="/swift-2/type/EmptyGenerator/" target="_top">
<polygon fill="#999999" stroke="#999999" points="3943.03,-22 3844.97,-22 3844.97,-0 3943.03,-0 3943.03,-22"/>
<text text-anchor="middle" x="3894" y="-7.4" font-family="Helvetica,sans-Serif" font-size="12.00" fill="white">EmptyGenerator</text>
</a>
</g>
</g>
<!-- EnumerateGenerator -->
<g id="node16" class="node">
<g id="a_node16"><a xlink:href="/swift-2/type/EnumerateGenerator/" target="_top">
<polygon fill="#999999" stroke="#999999" points="4083.05,-22 3960.95,-22 3960.95,-0 4083.05,-0 4083.05,-22"/>
<text text-anchor="middle" x="4022" y="-7.4" font-family="Helvetica,sans-Serif" font-size="12.00" fill="white">EnumerateGenerator</text>
</a>
</g>
</g>
<!-- EnumerateSequence -->
<g id="node17" class="node">
<g id="a_node17"><a xlink:href="/swift-2/type/EnumerateSequence/" target="_top">
<polygon fill="#999999" stroke="#999999" points="4224.06,-22 4101.94,-22 4101.94,-0 4224.06,-0 4224.06,-22"/>
<text text-anchor="middle" x="4163" y="-7.4" font-family="Helvetica,sans-Serif" font-size="12.00" fill="white">EnumerateSequence</text>
</a>
</g>
</g>
<!-- FilterGenerator -->
<g id="node19" class="node">
<g id="a_node19"><a xlink:href="/swift-2/type/FilterGenerator/" target="_top">
<polygon fill="#999999" stroke="#999999" points="4333.02,-22 4242.98,-22 4242.98,-0 4333.02,-0 4333.02,-22"/>
<text text-anchor="middle" x="4288" y="-7.4" font-family="Helvetica,sans-Serif" font-size="12.00" fill="white">FilterGenerator</text>
</a>
</g>
</g>
<!-- FilterSequence -->
<g id="node20" class="node">
<g id="a_node20"><a xlink:href="/swift-2/type/FilterSequence/" target="_top">
<polygon fill="#999999" stroke="#999999" points="4442.04,-22 4351.96,-22 4351.96,-0 4442.04,-0 4442.04,-22"/>
<text text-anchor="middle" x="4397" y="-7.4" font-family="Helvetica,sans-Serif" font-size="12.00" fill="white">FilterSequence</text>
</a>
</g>
</g>
<!-- GeneratorOfOne -->
<g id="node21" class="node">
<g id="a_node21"><a xlink:href="/swift-2/type/GeneratorOfOne/" target="_top">
<polygon fill="#999999" stroke="#999999" points="4559.53,-22 4460.47,-22 4460.47,-0 4559.53,-0 4559.53,-22"/>
<text text-anchor="middle" x="4510" y="-7.4" font-family="Helvetica,sans-Serif" font-size="12.00" fill="white">GeneratorOfOne</text>
</a>
</g>
</g>
<!-- GeneratorSequence -->
<g id="node22" class="node">
<g id="a_node22"><a xlink:href="/swift-2/type/GeneratorSequence/" target="_top">
<polygon fill="#999999" stroke="#999999" points="4696.06,-22 4577.94,-22 4577.94,-0 4696.06,-0 4696.06,-22"/>
<text text-anchor="middle" x="4637" y="-7.4" font-family="Helvetica,sans-Serif" font-size="12.00" fill="white">GeneratorSequence</text>
</a>
</g>
</g>
<!-- IndexingGenerator -->
<g id="node23" class="node">
<g id="a_node23"><a xlink:href="/swift-2/type/IndexingGenerator/" target="_top">
<polygon fill="#999999" stroke="#999999" points="4823.55,-22 4714.45,-22 4714.45,-0 4823.55,-0 4823.55,-22"/>
<text text-anchor="middle" x="4769" y="-7.4" font-family="Helvetica,sans-Serif" font-size="12.00" fill="white">IndexingGenerator</text>
</a>
</g>
</g>
<!-- LazySequence -->
<g id="node27" class="node">
<g id="a_node27"><a xlink:href="/swift-2/type/LazySequence/" target="_top">
<polygon fill="#999999" stroke="#999999" points="4930.55,-22 4841.45,-22 4841.45,-0 4930.55,-0 4930.55,-22"/>
<text text-anchor="middle" x="4886" y="-7.4" font-family="Helvetica,sans-Serif" font-size="12.00" fill="white">LazySequence</text>
</a>
</g>
</g>
<!-- MapGenerator -->
<g id="node29" class="node">
<g id="a_node29"><a xlink:href="/swift-2/type/MapGenerator/" target="_top">
<polygon fill="#999999" stroke="#999999" points="5035.53,-22 4948.47,-22 4948.47,-0 5035.53,-0 5035.53,-22"/>
<text text-anchor="middle" x="4992" y="-7.4" font-family="Helvetica,sans-Serif" font-size="12.00" fill="white">MapGenerator</text>
</a>
</g>
</g>
<!-- MapSequence -->
<g id="node30" class="node">
<g id="a_node30"><a xlink:href="/swift-2/type/MapSequence/" target="_top">
<polygon fill="#999999" stroke="#999999" points="5140.54,-22 5053.46,-22 5053.46,-0 5140.54,-0 5140.54,-22"/>
<text text-anchor="middle" x="5097" y="-7.4" font-family="Helvetica,sans-Serif" font-size="12.00" fill="white">MapSequence</text>
</a>
</g>
</g>
<!-- MutableCollectionType&#45;&gt;Array -->
<g id="edge84" class="edge">
<path fill="none" stroke="#cccccc" d="M860.235,-173.775C850.434,-159.523 831.131,-133.474 810,-116 789.607,-99.1364 730.867,-67.0481 706,-58 629.021,-29.9907 602.779,-40.5312 519.013,-22.0444"/>
<polygon fill="#cccccc" stroke="#cccccc" points="519.594,-18.587 509.066,-19.7737 518.036,-25.4114 519.594,-18.587"/>
</g>
<!-- MutableCollectionType&#45;&gt;ArraySlice -->
<g id="edge85" class="edge">
<path fill="none" stroke="#cccccc" d="M801.45,-181.086C706.823,-176.054 537.234,-163.7 482,-138 434.657,-115.972 401.262,-60.8491 386.125,-31.3478"/>
<polygon fill="#cccccc" stroke="#cccccc" points="389.111,-29.4891 381.54,-22.0776 382.837,-32.5928 389.111,-29.4891"/>
</g>
<!-- MutableCollectionType&#45;&gt;ContiguousArray -->
<g id="edge86" class="edge">
<path fill="none" stroke="#cccccc" d="M865.827,-173.52C863.691,-158.966 857.913,-132.559 843,-116 812.937,-82.6189 692.168,-44.3896 624.159,-24.8989"/>
<polygon fill="#cccccc" stroke="#cccccc" points="624.698,-21.4135 614.122,-22.0485 622.786,-28.1472 624.698,-21.4135"/>
</g>
<!-- MutableCollectionType&#45;&gt;MutableSliceable -->
<g id="edge87" class="edge">
<path fill="none" stroke="#cccccc" d="M808.897,-173.988C750.645,-163.951 661.357,-148.566 602.33,-138.395"/>
<polygon fill="#cccccc" stroke="#cccccc" points="602.85,-134.933 592.401,-136.684 601.661,-141.832 602.85,-134.933"/>
</g>
<!-- MutableCollectionType&#45;&gt;UnsafeMutableBufferPointer -->
<g id="edge88" class="edge">
<path fill="none" stroke="#cccccc" d="M932.669,-176.841C959.264,-170.654 988.096,-159.192 1007,-138 1033.27,-108.555 1035.66,-59.7463 1034.62,-32.321"/>
<polygon fill="#cccccc" stroke="#cccccc" points="1038.12,-32.0939 1034.05,-22.3095 1031.13,-32.4926 1038.12,-32.0939"/>
</g>
<!-- _ArrayBufferType -->
<g id="node54" class="node">
<g id="a_node54"><a xlink:href="/swift-2/protocol/_ArrayBufferType/" target="_top">
<path fill="#999999" stroke="#999999" d="M991.044,-138C991.044,-138 902.956,-138 902.956,-138 899.29,-138 895.623,-134.333 895.623,-130.667 895.623,-130.667 895.623,-123.333 895.623,-123.333 895.623,-119.667 899.29,-116 902.956,-116 902.956,-116 991.044,-116 991.044,-116 994.71,-116 998.377,-119.667 998.377,-123.333 998.377,-123.333 998.377,-130.667 998.377,-130.667 998.377,-134.333 994.71,-138 991.044,-138"/>
<text text-anchor="middle" x="947" y="-123.4" font-family="Helvetica,sans-Serif" font-size="12.00" fill="white">_ArrayBufferType</text>
</a>
</g>
</g>
<!-- MutableCollectionType&#45;&gt;_ArrayBufferType -->
<g id="edge89" class="edge">
<path fill="none" stroke="#cccccc" d="M881.302,-173.988C893.174,-165.678 910.282,-153.703 924.064,-144.055"/>
<polygon fill="#cccccc" stroke="#cccccc" points="926.366,-146.716 932.552,-138.114 922.352,-140.981 926.366,-146.716"/>
</g>
<!-- MutableSliceable&#45;&gt;Array -->
<g id="edge90" class="edge">
<path fill="none" stroke="#cccccc" d="M538.879,-115.976C534.462,-102.402 525.721,-77.6175 515,-58 509.739,-48.3726 502.792,-38.3951 496.629,-30.2033"/>
<polygon fill="#cccccc" stroke="#cccccc" points="499.257,-27.88 490.367,-22.1162 493.722,-32.1658 499.257,-27.88"/>
</g>
<!-- MutableSliceable&#45;&gt;ArraySlice -->
<g id="edge91" class="edge">
<path fill="none" stroke="#cccccc" d="M516.8,-115.971C497.426,-107.697 470.437,-94.9216 449,-80 427.806,-65.2476 406.699,-44.4004 392.871,-29.6872"/>
<polygon fill="#cccccc" stroke="#cccccc" points="395.337,-27.1984 385.984,-22.2219 390.192,-31.9451 395.337,-27.1984"/>
</g>
<!-- MutableSliceable&#45;&gt;ContiguousArray -->
<g id="edge92" class="edge">
<path fill="none" stroke="#cccccc" d="M592.682,-116.258C629.16,-108.096 673.826,-95.3328 685,-80 703.728,-54.3031 667.52,-36.0476 632.083,-24.9657"/>
<polygon fill="#cccccc" stroke="#cccccc" points="632.737,-21.5093 622.155,-22.0301 630.752,-28.222 632.737,-21.5093"/>
</g>
<!-- _ArrayType -->
<g id="node55" class="node">
<g id="a_node55"><a xlink:href="/swift-2/protocol/_ArrayType/" target="_top">
<path fill="#999999" stroke="#999999" d="M669.19,-80C669.19,-80 612.81,-80 612.81,-80 609.144,-80 605.477,-76.3333 605.477,-72.6667 605.477,-72.6667 605.477,-65.3333 605.477,-65.3333 605.477,-61.6667 609.144,-58 612.81,-58 612.81,-58 669.19,-58 669.19,-58 672.856,-58 676.523,-61.6667 676.523,-65.3333 676.523,-65.3333 676.523,-72.6667 676.523,-72.6667 676.523,-76.3333 672.856,-80 669.19,-80"/>
<text text-anchor="middle" x="641" y="-65.4" font-family="Helvetica,sans-Serif" font-size="12.00" fill="white">_ArrayType</text>
</a>
</g>
</g>
<!-- MutableSliceable&#45;&gt;_ArrayType -->
<g id="edge93" class="edge">
<path fill="none" stroke="#cccccc" d="M559.699,-115.988C574.81,-107.441 596.776,-95.0155 614.068,-85.2343"/>
<polygon fill="#cccccc" stroke="#cccccc" points="616.139,-88.0837 623.12,-80.1138 612.693,-81.9909 616.139,-88.0837"/>
</g>
<!-- PermutationGenerator -->
<g id="node33" class="node">
<g id="a_node33"><a xlink:href="/swift-2/type/PermutationGenerator/" target="_top">
<polygon fill="#999999" stroke="#999999" points="5287.05,-22 5158.95,-22 5158.95,-0 5287.05,-0 5287.05,-22"/>
<text text-anchor="middle" x="5223" y="-7.4" font-family="Helvetica,sans-Serif" font-size="12.00" fill="white">PermutationGenerator</text>
</a>
</g>
</g>
<!-- RangeGenerator -->
<g id="node35" class="node">
<g id="a_node35"><a xlink:href="/swift-2/type/RangeGenerator/" target="_top">
<polygon fill="#999999" stroke="#999999" points="5404.54,-22 5305.46,-22 5305.46,-0 5404.54,-0 5404.54,-22"/>
<text text-anchor="middle" x="5355" y="-7.4" font-family="Helvetica,sans-Serif" font-size="12.00" fill="white">RangeGenerator</text>
</a>
</g>
</g>
<!-- RangeReplaceableCollectionType&#45;&gt;Array -->
<g id="edge97" class="edge">
<path fill="none" stroke="#cccccc" d="M705.882,-115.552C705.118,-100.54 701.397,-73.0257 685,-58 631.318,-8.8068 594.813,-37.5659 519.026,-21.9613"/>
<polygon fill="#cccccc" stroke="#cccccc" points="519.609,-18.5045 509.082,-19.706 518.06,-25.3312 519.609,-18.5045"/>
</g>
<!-- RangeReplaceableCollectionType&#45;&gt;ArraySlice -->
<g id="edge98" class="edge">
<path fill="none" stroke="#cccccc" d="M677.092,-115.983C617.881,-95.4665 482.775,-48.6515 415.931,-25.4898"/>
<polygon fill="#cccccc" stroke="#cccccc" points="416.791,-22.0836 406.196,-22.1165 414.499,-28.6978 416.791,-22.0836"/>
</g>
<!-- RangeReplaceableCollectionType&#45;&gt;ContiguousArray -->
<g id="edge99" class="edge">
<path fill="none" stroke="#cccccc" d="M708.606,-115.616C711.579,-101.176 714.545,-74.9035 702,-58 692.705,-45.4752 658.496,-33.3771 628.211,-24.7338"/>
<polygon fill="#cccccc" stroke="#cccccc" points="629.124,-21.3551 618.552,-22.0528 627.252,-28.1001 629.124,-21.3551"/>
</g>
<!-- RangeReplaceableCollectionType&#45;&gt;String.CharacterView -->
<g id="edge101" class="edge">
<path fill="none" stroke="#cccccc" d="M766.517,-115.985C808.795,-106.175 854.183,-88.2021 833,-58 824.009,-45.1802 789.837,-33.2175 759.203,-24.7063"/>
<polygon fill="#cccccc" stroke="#cccccc" points="759.984,-21.292 749.418,-22.0675 758.162,-28.0506 759.984,-21.292"/>
</g>
<!-- RangeReplaceableCollectionType&#45;&gt;String.UnicodeScalarView -->
<g id="edge102" class="edge">
<path fill="none" stroke="#cccccc" d="M789.088,-115.997C811.882,-109.283 834.545,-98.2077 850,-80 861.076,-66.9512 862.88,-47.1771 862.324,-32.3106"/>
<polygon fill="#cccccc" stroke="#cccccc" points="865.796,-31.8002 861.554,-22.0914 858.816,-32.3262 865.796,-31.8002"/>
</g>
<!-- RangeReplaceableCollectionType&#45;&gt;_ArrayType -->
<g id="edge100" class="edge">
<path fill="none" stroke="#cccccc" d="M694.379,-115.988C685.068,-107.966 671.791,-96.5272 660.808,-87.065"/>
<polygon fill="#cccccc" stroke="#cccccc" points="662.82,-84.1794 652.96,-80.3039 658.251,-89.4826 662.82,-84.1794"/>
</g>
<!-- SequenceType -->
<g id="node40" class="node">
<g id="a_node40"><a xlink:href="/swift-2/protocol/SequenceType/" target="_top">
<path fill="#ee543d" stroke="#ee543d" d="M2966.72,-312C2966.72,-312 2891.28,-312 2891.28,-312 2887.62,-312 2883.95,-308.333 2883.95,-304.667 2883.95,-304.667 2883.95,-297.333 2883.95,-297.333 2883.95,-293.667 2887.62,-290 2891.28,-290 2891.28,-290 2966.72,-290 2966.72,-290 2970.38,-290 2974.05,-293.667 2974.05,-297.333 2974.05,-297.333 2974.05,-304.667 2974.05,-304.667 2974.05,-308.333 2970.38,-312 2966.72,-312"/>
<text text-anchor="middle" x="2929" y="-297.4" font-family="Helvetica,sans-Serif" font-size="12.00" fill="white">SequenceType</text>
</a>
</g>
</g>
<!-- SequenceType&#45;&gt;AnyBidirectionalCollection -->
<g id="edge1" class="edge">
<path fill="none" stroke="#cccccc" d="M2883.83,-299.139C2699.36,-295.473 2002.65,-280.156 1784,-254 1631.42,-235.748 1445,-339.668 1445,-186 1445,-186 1445,-186 1445,-126 1445,-90.7234 1427.07,-52.8823 1414.64,-30.8846"/>
<polygon fill="#cccccc" stroke="#cccccc" points="1417.64,-29.0753 1409.56,-22.2193 1411.6,-32.6161 1417.64,-29.0753"/>
</g>
<!-- SequenceType&#45;&gt;AnyForwardCollection -->
<g id="edge2" class="edge">
<path fill="none" stroke="#cccccc" d="M2883.96,-299.804C2689.98,-298.734 1931.2,-292.123 1832,-254 1709.81,-207.04 1606.98,-78.1695 1571.89,-30.2568"/>
<polygon fill="#cccccc" stroke="#cccccc" points="1574.65,-28.1054 1565.96,-22.0455 1568.98,-32.2023 1574.65,-28.1054"/>
</g>
<!-- SequenceType&#45;&gt;AnyGenerator -->
<g id="edge3" class="edge">
<path fill="none" stroke="#cccccc" d="M2883.84,-299.862C2536.85,-298.726 303.85,-290.03 167,-254 105.84,-237.898 42,-249.244 42,-186 42,-186 42,-186 42,-126 42,-93.1536 42,-54.9837 42,-32.197"/>
<polygon fill="#cccccc" stroke="#cccccc" points="45.5001,-32.0648 42,-22.0648 38.5001,-32.0648 45.5001,-32.0648"/>
</g>
<!-- SequenceType&#45;&gt;AnyRandomAccessCollection -->
<g id="edge4" class="edge">
<path fill="none" stroke="#cccccc" d="M2883.67,-299.428C2697.8,-296.883 1999.4,-285.303 1906,-254 1855.39,-237.037 1807,-239.38 1807,-186 1807,-186 1807,-186 1807,-126 1807,-84.8288 1771.18,-48.5539 1746.6,-28.5095"/>
<polygon fill="#cccccc" stroke="#cccccc" points="1748.48,-25.5359 1738.46,-22.1151 1744.16,-31.0424 1748.48,-25.5359"/>
</g>
<!-- SequenceType&#45;&gt;AnySequence -->
<g id="edge5" class="edge">
<path fill="none" stroke="#cccccc" d="M2883.82,-300.13C2540.26,-301.004 350.082,-304.578 221,-254 178.799,-237.465 145,-231.325 145,-186 145,-186 145,-186 145,-126 145,-93.1536 145,-54.9837 145,-32.197"/>
<polygon fill="#cccccc" stroke="#cccccc" points="148.5,-32.0648 145,-22.0648 141.5,-32.0648 148.5,-32.0648"/>
</g>
<!-- SequenceType&#45;&gt;Array -->
<g id="edge6" class="edge">
<path fill="none" stroke="#cccccc" d="M2883.64,-299.99C2576.99,-299.805 812.55,-296.874 578,-254 489.36,-237.797 387,-276.108 387,-186 387,-186 387,-186 387,-126 387,-82.7605 427.833,-47.2175 455.958,-27.8646"/>
<polygon fill="#cccccc" stroke="#cccccc" points="458.169,-30.599 464.576,-22.1609 454.305,-24.7619 458.169,-30.599"/>
</g>
<!-- SequenceType&#45;&gt;ArraySlice -->
<g id="edge7" class="edge">
<path fill="none" stroke="#cccccc" d="M2883.82,-299.773C2554.05,-298.041 526.9,-286.113 402,-254 339.23,-237.861 273,-250.811 273,-186 273,-186 273,-186 273,-126 273,-80.891 317.991,-45.8037 348.79,-27.0695"/>
<polygon fill="#cccccc" stroke="#cccccc" points="350.577,-30.0788 357.438,-22.0057 347.04,-24.038 350.577,-30.0788"/>
</g>
<!-- SequenceType&#45;&gt;CollectionOfOne -->
<g id="edge8" class="edge">
<path fill="none" stroke="#cccccc" d="M2883.84,-300.164C2645.23,-300.828 1536.8,-301.324 1392,-254 1341.26,-237.417 1293,-239.38 1293,-186 1293,-186 1293,-186 1293,-126 1293,-79.3857 1244.75,-45.0161 1211.31,-26.7914"/>
<polygon fill="#cccccc" stroke="#cccccc" points="1212.81,-23.6232 1202.33,-22.0824 1209.56,-29.8237 1212.81,-23.6232"/>
</g>
<!-- SequenceType&#45;&gt;CollectionType -->
<g id="edge9" class="edge">
<path fill="none" stroke="#cccccc" d="M2883.84,-297.393C2724.13,-288.172 2186.32,-257.124 2013.19,-247.128"/>
<polygon fill="#cccccc" stroke="#cccccc" points="2013.22,-243.625 2003.04,-246.542 2012.82,-250.613 2013.22,-243.625"/>
</g>
<!-- SequenceType&#45;&gt;ContiguousArray -->
<g id="edge10" class="edge">
<path fill="none" stroke="#cccccc" d="M2883.7,-299.469C2639.7,-296.512 1479.7,-281.231 1122,-254 833.755,-232.056 652.944,-371.12 482,-138 452.579,-97.8776 512.711,-51.2704 550.143,-27.5714"/>
<polygon fill="#cccccc" stroke="#cccccc" points="552.42,-30.2797 559.102,-22.0577 548.751,-24.3182 552.42,-30.2797"/>
</g>
<!-- SequenceType&#45;&gt;Dictionary -->
<g id="edge11" class="edge">
<path fill="none" stroke="#cccccc" d="M2883.62,-300.319C2650.03,-301.731 1588.7,-305.26 1452,-254 1407.35,-237.256 1369,-233.688 1369,-186 1369,-186 1369,-186 1369,-126 1369,-83.635 1330.24,-47.7764 1303.59,-28.1309"/>
<polygon fill="#cccccc" stroke="#cccccc" points="1305.27,-25.0336 1295.09,-22.1041 1301.22,-30.7436 1305.27,-25.0336"/>
</g>
<!-- SequenceType&#45;&gt;DictionaryLiteral -->
<g id="edge12" class="edge">
<path fill="none" stroke="#cccccc" d="M2883.53,-296.128C2828.45,-290.586 2733.33,-278.263 2655,-254 2462.37,-194.33 2250.82,-70.6724 2179.79,-27.3761"/>
<polygon fill="#cccccc" stroke="#cccccc" points="2181.44,-24.2836 2171.09,-22.0434 2177.78,-30.2523 2181.44,-24.2836"/>
</g>
<!-- SequenceType&#45;&gt;EmptyCollection -->
<g id="edge13" class="edge">
<path fill="none" stroke="#cccccc" d="M2890.8,-289.98C2864.76,-282.25 2830.05,-270.145 2802,-254 2686.14,-187.306 2571.16,-72.9518 2529.43,-29.4719"/>
<polygon fill="#cccccc" stroke="#cccccc" points="2531.94,-27.0317 2522.51,-22.2055 2526.87,-31.8601 2531.94,-27.0317"/>
</g>
<!-- SequenceType&#45;&gt;EmptyGenerator -->
<g id="edge14" class="edge">
<path fill="none" stroke="#cccccc" d="M2974.25,-299.475C3165.03,-296.676 3894,-279.839 3894,-186 3894,-186 3894,-186 3894,-126 3894,-93.1536 3894,-54.9837 3894,-32.197"/>
<polygon fill="#cccccc" stroke="#cccccc" points="3897.5,-32.0648 3894,-22.0648 3890.5,-32.0648 3897.5,-32.0648"/>
</g>
<!-- SequenceType&#45;&gt;EnumerateGenerator -->
<g id="edge15" class="edge">
<path fill="none" stroke="#cccccc" d="M2974.23,-300.111C3180.5,-300.03 4022,-293.138 4022,-186 4022,-186 4022,-186 4022,-126 4022,-93.1536 4022,-54.9837 4022,-32.197"/>
<polygon fill="#cccccc" stroke="#cccccc" points="4025.5,-32.0648 4022,-22.0648 4018.5,-32.0648 4025.5,-32.0648"/>
</g>
<!-- SequenceType&#45;&gt;EnumerateSequence -->
<g id="edge16" class="edge">
<path fill="none" stroke="#cccccc" d="M2974.03,-299.263C3142.29,-296.301 3734.01,-283.942 3920,-254 4030.72,-236.175 4163,-298.149 4163,-186 4163,-186 4163,-186 4163,-126 4163,-93.1536 4163,-54.9837 4163,-32.197"/>
<polygon fill="#cccccc" stroke="#cccccc" points="4166.5,-32.0648 4163,-22.0648 4159.5,-32.0648 4166.5,-32.0648"/>
</g>
<!-- SequenceType&#45;&gt;FilterCollection -->
<g id="edge17" class="edge">
<path fill="none" stroke="#cccccc" d="M2883.75,-299.964C2545.53,-299.601 422.117,-295.667 294,-254 243.932,-237.717 197,-238.649 197,-186 197,-186 197,-186 197,-126 197,-89.5232 219.588,-52.0873 235.272,-30.4905"/>
<polygon fill="#cccccc" stroke="#cccccc" points="238.257,-32.3447 241.485,-22.2535 232.669,-28.1295 238.257,-32.3447"/>
</g>
<!-- SequenceType&#45;&gt;FilterGenerator -->
<g id="edge18" class="edge">
<path fill="none" stroke="#cccccc" d="M2974.17,-299.566C3156.26,-297.599 3836.67,-288.074 4049,-254 4158.04,-236.501 4288,-296.438 4288,-186 4288,-186 4288,-186 4288,-126 4288,-93.1536 4288,-54.9837 4288,-32.197"/>
<polygon fill="#cccccc" stroke="#cccccc" points="4291.5,-32.0648 4288,-22.0648 4284.5,-32.0648 4291.5,-32.0648"/>
</g>
<!-- SequenceType&#45;&gt;FilterSequence -->
<g id="edge19" class="edge">
<path fill="none" stroke="#cccccc" d="M2974.28,-299.913C3169.23,-299.293 3937.97,-294.293 4176,-254 4277.33,-236.848 4397,-288.767 4397,-186 4397,-186 4397,-186 4397,-126 4397,-93.1536 4397,-54.9837 4397,-32.197"/>
<polygon fill="#cccccc" stroke="#cccccc" points="4400.5,-32.0648 4397,-22.0648 4393.5,-32.0648 4400.5,-32.0648"/>
</g>
<!-- SequenceType&#45;&gt;GeneratorOfOne -->
<g id="edge20" class="edge">
<path fill="none" stroke="#cccccc" d="M2974.31,-300.111C3180.44,-300.363 4030.96,-298.629 4293,-254 4392.63,-237.031 4510,-287.069 4510,-186 4510,-186 4510,-186 4510,-126 4510,-93.1536 4510,-54.9837 4510,-32.197"/>
<polygon fill="#cccccc" stroke="#cccccc" points="4513.5,-32.0648 4510,-22.0648 4506.5,-32.0648 4513.5,-32.0648"/>
</g>
<!-- SequenceType&#45;&gt;GeneratorSequence -->
<g id="edge21" class="edge">
<path fill="none" stroke="#cccccc" d="M2974.08,-300.159C3190.22,-300.68 4121.73,-300.161 4408,-254 4512.82,-237.099 4637,-292.17 4637,-186 4637,-186 4637,-186 4637,-126 4637,-93.1536 4637,-54.9837 4637,-32.197"/>
<polygon fill="#cccccc" stroke="#cccccc" points="4640.5,-32.0648 4637,-22.0648 4633.5,-32.0648 4640.5,-32.0648"/>
</g>
<!-- SequenceType&#45;&gt;IndexingGenerator -->
<g id="edge22" class="edge">
<path fill="none" stroke="#cccccc" d="M2974.35,-300.215C3201.63,-301.064 4218.25,-302.06 4530,-254 4639.15,-237.173 4769,-296.438 4769,-186 4769,-186 4769,-186 4769,-126 4769,-93.1536 4769,-54.9837 4769,-32.197"/>
<polygon fill="#cccccc" stroke="#cccccc" points="4772.5,-32.0648 4769,-22.0648 4765.5,-32.0648 4772.5,-32.0648"/>
</g>
<!-- SequenceType&#45;&gt;LazyBidirectionalCollection -->
<g id="edge23" class="edge">
<path fill="none" stroke="#cccccc" d="M2883.79,-291.094C2849.73,-283.528 2802.34,-271.151 2763,-254 2611.36,-187.888 2448.7,-71.0165 2391.42,-28.2555"/>
<polygon fill="#cccccc" stroke="#cccccc" points="2393.25,-25.2517 2383.15,-22.048 2389.05,-30.8502 2393.25,-25.2517"/>
</g>
<!-- SequenceType&#45;&gt;LazyForwardCollection -->
<g id="edge24" class="edge">
<path fill="none" stroke="#cccccc" d="M2896.71,-289.952C2875.68,-282.341 2848.45,-270.382 2828,-254 2745.06,-187.565 2679.19,-75.5494 2655,-31.0514"/>
<polygon fill="#cccccc" stroke="#cccccc" points="2658.04,-29.3234 2650.24,-22.1628 2651.87,-32.6301 2658.04,-29.3234"/>
</g>
<!-- SequenceType&#45;&gt;LazyRandomAccessCollection -->
<g id="edge25" class="edge">
<path fill="none" stroke="#cccccc" d="M2906.48,-289.972C2873.25,-273.466 2815,-237.221 2815,-186 2815,-186 2815,-186 2815,-126 2815,-93.1536 2815,-54.9837 2815,-32.197"/>
<polygon fill="#cccccc" stroke="#cccccc" points="2818.5,-32.0648 2815,-22.0648 2811.5,-32.0648 2818.5,-32.0648"/>
</g>
<!-- SequenceType&#45;&gt;LazySequence -->
<g id="edge26" class="edge">
<path fill="none" stroke="#cccccc" d="M2974.41,-299.502C3230.29,-296.599 4486.76,-281.059 4657,-254 4761.85,-237.333 4886,-292.17 4886,-186 4886,-186 4886,-186 4886,-126 4886,-93.1536 4886,-54.9837 4886,-32.197"/>
<polygon fill="#cccccc" stroke="#cccccc" points="4889.5,-32.0648 4886,-22.0648 4882.5,-32.0648 4889.5,-32.0648"/>
</g>
<!-- SequenceType&#45;&gt;MapCollection -->
<g id="edge27" class="edge">
<path fill="none" stroke="#cccccc" d="M2923.06,-289.698C2912.38,-270.153 2891,-226.056 2891,-186 2891,-186 2891,-186 2891,-126 2891,-86.9242 2921.43,-50.1539 2942.44,-29.417"/>
<polygon fill="#cccccc" stroke="#cccccc" points="2945.12,-31.7076 2949.96,-22.283 2940.29,-26.6321 2945.12,-31.7076"/>
</g>
<!-- SequenceType&#45;&gt;MapGenerator -->
<g id="edge28" class="edge">
<path fill="none" stroke="#cccccc" d="M2974.11,-299.645C3239.89,-297.448 4596.24,-284.797 4779,-254 4876.99,-237.487 4992,-285.374 4992,-186 4992,-186 4992,-186 4992,-126 4992,-93.1536 4992,-54.9837 4992,-32.197"/>
<polygon fill="#cccccc" stroke="#cccccc" points="4995.5,-32.0648 4992,-22.0648 4988.5,-32.0648 4995.5,-32.0648"/>
</g>
<!-- SequenceType&#45;&gt;MapSequence -->
<g id="edge29" class="edge">
<path fill="none" stroke="#cccccc" d="M2974.16,-299.744C3249.54,-298.075 4697.62,-287.739 4892,-254 4986.58,-237.584 5097,-281.993 5097,-186 5097,-186 5097,-186 5097,-126 5097,-93.1536 5097,-54.9837 5097,-32.197"/>
<polygon fill="#cccccc" stroke="#cccccc" points="5100.5,-32.0648 5097,-22.0648 5093.5,-32.0648 5100.5,-32.0648"/>
</g>
<!-- SequenceType&#45;&gt;PermutationGenerator -->
<g id="edge30" class="edge">
<path fill="none" stroke="#cccccc" d="M2974.3,-299.737C3258.84,-297.987 4793.93,-287.063 5000,-254 5102.31,-237.585 5223,-289.617 5223,-186 5223,-186 5223,-186 5223,-126 5223,-93.1536 5223,-54.9837 5223,-32.197"/>
<polygon fill="#cccccc" stroke="#cccccc" points="5226.5,-32.0648 5223,-22.0648 5219.5,-32.0648 5226.5,-32.0648"/>
</g>
<!-- SequenceType&#45;&gt;Range -->
<g id="edge31" class="edge">
<path fill="none" stroke="#cccccc" d="M2974.12,-300.175C3050.01,-297.842 3195,-280.959 3195,-186 3195,-186 3195,-186 3195,-126 3195,-85.1015 3221.49,-78.2834 3257,-58 3324.82,-19.2663 3353.05,-40.1962 3429,-22 3429.1,-21.9758 3429.2,-21.9515 3429.3,-21.9271"/>
<polygon fill="#cccccc" stroke="#cccccc" points="3430.12,-25.3303 3438.97,-19.4988 3428.42,-18.5413 3430.12,-25.3303"/>
</g>
<!-- SequenceType&#45;&gt;RangeGenerator -->
<g id="edge32" class="edge">
<path fill="none" stroke="#cccccc" d="M2974.48,-299.75C3268.83,-298.036 4899.31,-287.099 5118,-254 5226.35,-237.601 5355,-295.583 5355,-186 5355,-186 5355,-186 5355,-126 5355,-93.1536 5355,-54.9837 5355,-32.197"/>
<polygon fill="#cccccc" stroke="#cccccc" points="5358.5,-32.0648 5355,-22.0648 5351.5,-32.0648 5358.5,-32.0648"/>
</g>
<!-- SequenceType&#45;&gt;Repeat -->
<g id="edge33" class="edge">
<path fill="none" stroke="#cccccc" d="M2974.2,-300.502C3034.68,-299.547 3144.05,-292.048 3228,-254 3270.81,-234.597 3309,-233.004 3309,-186 3309,-186 3309,-186 3309,-126 3309,-117.472 3544.3,-49.1467 3637.05,-22.5455"/>
<polygon fill="#cccccc" stroke="#cccccc" points="3638.21,-25.8539 3646.86,-19.7352 3636.29,-19.1246 3638.21,-25.8539"/>
</g>
<!-- SequenceType&#45;&gt;ReverseCollection -->
<g id="edge34" class="edge">
<path fill="none" stroke="#cccccc" d="M2974.19,-296.865C3121.6,-286.044 3579,-247.51 3579,-186 3579,-186 3579,-186 3579,-126 3579,-64.272 3652.91,-35.3137 3709.49,-22.189"/>
<polygon fill="#cccccc" stroke="#cccccc" points="3710.46,-25.5594 3719.48,-19.9925 3708.96,-18.7229 3710.46,-25.5594"/>
</g>
<!-- SequenceType&#45;&gt;ReverseRandomAccessCollection -->
<g id="edge35" class="edge">
<path fill="none" stroke="#cccccc" d="M2883.91,-298.683C2809.11,-295.644 2655.08,-285.745 2529,-254 2296.94,-195.574 2035.15,-69.4646 1949.65,-26.6022"/>
<polygon fill="#cccccc" stroke="#cccccc" points="1951.07,-23.3974 1940.56,-22.026 1947.92,-29.6495 1951.07,-23.3974"/>
</g>
<!-- SequenceType&#45;&gt;Set -->
<g id="edge36" class="edge">
<path fill="none" stroke="#cccccc" d="M2883.71,-297.459C2818.49,-292.982 2694.76,-281.415 2593,-254 2488.02,-225.719 2185.83,-74.7562 2090.9,-26.702"/>
<polygon fill="#cccccc" stroke="#cccccc" points="2092.37,-23.5237 2081.87,-22.1242 2089.2,-29.7674 2092.37,-23.5237"/>
</g>
<!-- SequenceType&#45;&gt;Slice -->
<g id="edge37" class="edge">
<path fill="none" stroke="#cccccc" d="M2883.76,-294.005C2839.37,-287.282 2770.19,-274.543 2713,-254 2535.08,-190.092 2339.73,-70.5569 2272.39,-27.7508"/>
<polygon fill="#cccccc" stroke="#cccccc" points="2274.06,-24.6669 2263.75,-22.2337 2270.29,-30.5662 2274.06,-24.6669"/>
</g>
<!-- StrideThrough -->
<g id="node43" class="node">
<g id="a_node43"><a xlink:href="/swift-2/type/StrideThrough/" target="_top">
<polygon fill="#999999" stroke="#999999" points="5509.03,-22 5422.97,-22 5422.97,-0 5509.03,-0 5509.03,-22"/>
<text text-anchor="middle" x="5466" y="-7.4" font-family="Helvetica,sans-Serif" font-size="12.00" fill="white">StrideThrough</text>
</a>
</g>
</g>
<!-- SequenceType&#45;&gt;StrideThrough -->
<g id="edge38" class="edge">
<path fill="none" stroke="#cccccc" d="M2974.14,-299.855C3277.32,-298.782 5012.28,-291.05 5244,-254 5345.9,-237.707 5466,-289.192 5466,-186 5466,-186 5466,-186 5466,-126 5466,-93.1536 5466,-54.9837 5466,-32.197"/>
<polygon fill="#cccccc" stroke="#cccccc" points="5469.5,-32.0648 5466,-22.0648 5462.5,-32.0648 5469.5,-32.0648"/>
</g>
<!-- StrideTo -->
<g id="node44" class="node">
<g id="a_node44"><a xlink:href="/swift-2/type/StrideTo/" target="_top">
<polygon fill="#999999" stroke="#999999" points="5581.02,-22 5526.98,-22 5526.98,-0 5581.02,-0 5581.02,-22"/>
<text text-anchor="middle" x="5554" y="-7.4" font-family="Helvetica,sans-Serif" font-size="12.00" fill="white">StrideTo</text>
</a>
</g>
</g>
<!-- SequenceType&#45;&gt;StrideTo -->
<g id="edge39" class="edge">
<path fill="none" stroke="#cccccc" d="M2974.43,-300.018C3287.41,-300.023 5118.83,-298.16 5362,-254 5451.07,-237.825 5554,-276.527 5554,-186 5554,-186 5554,-186 5554,-126 5554,-93.1536 5554,-54.9837 5554,-32.197"/>
<polygon fill="#cccccc" stroke="#cccccc" points="5557.5,-32.0648 5554,-22.0648 5550.5,-32.0648 5557.5,-32.0648"/>
</g>
<!-- SequenceType&#45;&gt;String.CharacterView -->
<g id="edge45" class="edge">
<path fill="none" stroke="#cccccc" d="M2883.77,-299.682C2616.09,-297.693 1248.37,-285.99 1166,-254 1078.78,-220.124 1087.53,-163.653 1007,-116 942.982,-78.1165 920.336,-82.2128 850,-58 816.037,-46.3084 777.23,-33.9702 748.467,-25.0185"/>
<polygon fill="#cccccc" stroke="#cccccc" points="749.324,-21.6199 738.736,-22 747.25,-28.3057 749.324,-21.6199"/>
</g>
<!-- SequenceType&#45;&gt;String.UTF16View -->
<g id="edge47" class="edge">
<path fill="none" stroke="#cccccc" d="M2934.94,-289.698C2945.62,-270.153 2967,-226.056 2967,-186 2967,-186 2967,-186 2967,-126 2967,-80.0663 3013.82,-45.5457 3046.37,-27.0969"/>
<polygon fill="#cccccc" stroke="#cccccc" points="3048.42,-29.9637 3055.53,-22.1078 3045.07,-23.8159 3048.42,-29.9637"/>
</g>
<!-- SequenceType&#45;&gt;String.UTF8View -->
<g id="edge48" class="edge">
<path fill="none" stroke="#cccccc" d="M2951.52,-289.972C2984.75,-273.466 3043,-237.221 3043,-186 3043,-186 3043,-186 3043,-126 3043,-71.9787 3104.74,-40.8102 3150.53,-25.1206"/>
<polygon fill="#cccccc" stroke="#cccccc" points="3151.63,-28.4462 3160.04,-22.0049 3149.44,-21.7946 3151.63,-28.4462"/>
</g>
<!-- SequenceType&#45;&gt;String.UnicodeScalarView -->
<g id="edge46" class="edge">
<path fill="none" stroke="#cccccc" d="M2883.61,-299.49C2622.46,-296.466 1320.28,-280.12 1240,-254 1189.24,-237.485 1141,-239.38 1141,-186 1141,-186 1141,-186 1141,-126 1141,-79.0777 1004.76,-42.2281 922.009,-24.1736"/>
<polygon fill="#cccccc" stroke="#cccccc" points="922.707,-20.7439 912.195,-22.0656 921.237,-27.5878 922.707,-20.7439"/>
</g>
<!-- SequenceType&#45;&gt;UnicodeScalar.UTF16View -->
<g id="edge40" class="edge">
<path fill="none" stroke="#cccccc" d="M2974.03,-293.202C3030.21,-281.873 3119,-253.319 3119,-186 3119,-186 3119,-186 3119,-126 3119,-85.1015 3146.2,-79.4917 3181,-58 3207.07,-41.8977 3238.93,-31.2824 3267.54,-24.3551"/>
<polygon fill="#cccccc" stroke="#cccccc" points="3268.55,-27.7136 3277.51,-22.0558 3266.98,-20.8927 3268.55,-27.7136"/>
</g>
<!-- SequenceType&#45;&gt;UnsafeBufferPointer -->
<g id="edge41" class="edge">
<path fill="none" stroke="#cccccc" d="M2974.17,-298.611C3027.11,-295.5 3116.45,-285.556 3186,-254 3230.06,-234.011 3271,-234.379 3271,-186 3271,-186 3271,-186 3271,-126 3271,-93.9507 3270.46,-78.6129 3295,-58 3298.98,-54.6598 3421.27,-35.1164 3501.41,-22.6014"/>
<polygon fill="#cccccc" stroke="#cccccc" points="3502.11,-26.0349 3511.45,-21.036 3501.03,-19.1184 3502.11,-26.0349"/>
</g>
<!-- UnsafeBufferPointerGenerator -->
<g id="node51" class="node">
<g id="a_node51"><a xlink:href="/swift-2/type/UnsafeBufferPointerGenerator/" target="_top">
<polygon fill="#999999" stroke="#999999" points="5770.41,-22 5599.59,-22 5599.59,-0 5770.41,-0 5770.41,-22"/>
<text text-anchor="middle" x="5685" y="-7.4" font-family="Helvetica,sans-Serif" font-size="12.00" fill="white">UnsafeBufferPointerGenerator</text>
</a>
</g>
</g>
<!-- SequenceType&#45;&gt;UnsafeBufferPointerGenerator -->
<g id="edge42" class="edge">
<path fill="none" stroke="#cccccc" d="M2974.23,-299.938C3293.97,-299.402 5208.25,-294.508 5463,-254 5564.91,-237.795 5685,-289.192 5685,-186 5685,-186 5685,-186 5685,-126 5685,-93.1536 5685,-54.9837 5685,-32.197"/>
<polygon fill="#cccccc" stroke="#cccccc" points="5688.5,-32.0648 5685,-22.0648 5681.5,-32.0648 5688.5,-32.0648"/>
</g>
<!-- SequenceType&#45;&gt;UnsafeMutableBufferPointer -->
<g id="edge43" class="edge">
<path fill="none" stroke="#cccccc" d="M2883.71,-300.208C2638,-301.136 1470.44,-302.924 1318,-254 1266.47,-237.463 1217,-240.115 1217,-186 1217,-186 1217,-186 1217,-126 1217,-68.5127 1151.29,-39.0225 1098.41,-24.5971"/>
<polygon fill="#cccccc" stroke="#cccccc" points="1099.26,-21.2024 1088.71,-22.0755 1097.5,-27.9775 1099.26,-21.2024"/>
</g>
<!-- Zip2Sequence -->
<g id="node53" class="node">
<g id="a_node53"><a xlink:href="/swift-2/type/Zip2Sequence/" target="_top">
<polygon fill="#999999" stroke="#999999" points="5876.54,-22 5789.46,-22 5789.46,-0 5876.54,-0 5876.54,-22"/>
<text text-anchor="middle" x="5833" y="-7.4" font-family="Helvetica,sans-Serif" font-size="12.00" fill="white">Zip2Sequence</text>
</a>
</g>
</g>
<!-- SequenceType&#45;&gt;Zip2Sequence -->
<g id="edge44" class="edge">
<path fill="none" stroke="#cccccc" d="M2974.2,-299.887C3302.3,-298.976 5313.13,-291.873 5581,-254 5695.86,-237.76 5833,-302.006 5833,-186 5833,-186 5833,-186 5833,-126 5833,-93.1536 5833,-54.9837 5833,-32.197"/>
<polygon fill="#cccccc" stroke="#cccccc" points="5836.5,-32.0648 5833,-22.0648 5829.5,-32.0648 5836.5,-32.0648"/>
</g>
<!-- _ArrayType&#45;&gt;Array -->
<g id="edge94" class="edge">
<path fill="none" stroke="#cccccc" d="M612.574,-57.9883C586.366,-48.7577 547.315,-35.0041 518.748,-24.9426"/>
<polygon fill="#cccccc" stroke="#cccccc" points="519.713,-21.572 509.119,-21.5512 517.388,-28.1745 519.713,-21.572"/>
</g>
<!-- _ArrayType&#45;&gt;ArraySlice -->
<g id="edge95" class="edge">
<path fill="none" stroke="#cccccc" d="M605.396,-60.4476C556.971,-50.1757 470.49,-31.8312 418.968,-20.9022"/>
<polygon fill="#cccccc" stroke="#cccccc" points="419.66,-17.4712 409.151,-18.8199 418.207,-24.3188 419.66,-17.4712"/>
</g>
<!-- _ArrayType&#45;&gt;ContiguousArray -->
<g id="edge96" class="edge">
<path fill="none" stroke="#cccccc" d="M629.558,-57.9883C620.39,-49.966 607.317,-38.5272 596.503,-29.065"/>
<polygon fill="#cccccc" stroke="#cccccc" points="598.606,-26.2549 588.776,-22.3039 593.997,-31.523 598.606,-26.2549"/>
</g>
</g>
</svg>
