<?xml version="1.0" encoding="UTF-8" standalone="no"?>
<!DOCTYPE svg PUBLIC "-//W3C//DTD SVG 1.1//EN"
 "http://www.w3.org/Graphics/SVG/1.1/DTD/svg11.dtd">
<!-- Generated by graphviz version 2.36.0 (20140111.2315)
 -->
<!-- Title: SequenceType &#45; Type Hierarchy &#45; SwiftDoc.org Pages: 1 -->
<svg width="6315pt" height="427pt"
 viewBox="0.00 0.00 6315.40 427.20" xmlns="http://www.w3.org/2000/svg" xmlns:xlink="http://www.w3.org/1999/xlink">
<g id="graph0" class="graph" transform="scale(1 1) rotate(0) translate(7.2 369.6)">
<g transform="translate(0 -369.6)">
<g>
    <path fill="#666666" d="M13.846,10.832c-0.336-0.464-0.792-0.844-1.368-1.14s-1.224-0.444-1.944-0.444
        c-0.384,0-0.772,0.052-1.164,0.156C8.977,9.509,8.622,9.677,8.301,9.908c-0.32,0.232-0.58,0.52-0.78,0.864
        c-0.2,0.344-0.3,0.756-0.3,1.236c0,0.464,0.092,0.852,0.276,1.164c0.184,0.312,0.432,0.576,0.744,0.792s0.68,0.4,1.104,0.552
        c0.423,0.152,0.876,0.309,1.356,0.468c0.576,0.177,1.16,0.376,1.752,0.601c0.592,0.224,1.128,0.52,1.608,0.888
        s0.872,0.828,1.176,1.38s0.456,1.252,0.456,2.101c0,0.88-0.164,1.644-0.492,2.292c-0.328,0.647-0.765,1.184-1.308,1.607
        c-0.544,0.424-1.172,0.74-1.884,0.948s-1.444,0.312-2.196,0.312c-1.072,0-2.108-0.208-3.108-0.624
        c-1-0.415-1.828-1.031-2.484-1.848l1.848-1.56c0.4,0.592,0.936,1.071,1.608,1.439c0.672,0.368,1.399,0.552,2.184,0.552
        c0.4,0,0.8-0.056,1.2-0.168c0.4-0.111,0.764-0.288,1.092-0.527c0.328-0.24,0.596-0.54,0.804-0.9
        c0.208-0.36,0.312-0.796,0.312-1.308s-0.108-0.94-0.324-1.284c-0.216-0.344-0.508-0.636-0.876-0.876s-0.796-0.444-1.284-0.612
        c-0.488-0.168-1.004-0.34-1.548-0.516c-0.544-0.16-1.08-0.356-1.608-0.588c-0.528-0.232-1-0.528-1.416-0.889
        c-0.416-0.359-0.752-0.804-1.008-1.332c-0.256-0.527-0.384-1.184-0.384-1.968c0-0.848,0.172-1.576,0.516-2.184
        c0.344-0.608,0.792-1.112,1.344-1.512c0.552-0.4,1.176-0.692,1.872-0.876c0.696-0.184,1.396-0.276,2.1-0.276
        c0.992,0,1.92,0.176,2.784,0.528c0.864,0.352,1.56,0.824,2.088,1.416L13.846,10.832z"/>
    <path fill="#666666" d="M18.813,13.304l2.568,8.688h0.048l2.712-8.688h2.376l2.76,8.688h0.048l2.568-8.688h2.376L30.501,24.68
        h-2.352l-2.808-8.544h-0.048l-2.784,8.544h-2.352l-3.792-11.376H18.813z"/>
    <path fill="#666666" d="M38.685,9.2c0,0.416-0.147,0.76-0.44,1.032c-0.294,0.272-0.647,0.408-1.06,0.408s-0.762-0.14-1.047-0.42
        c-0.286-0.28-0.429-0.62-0.429-1.02c0-0.416,0.143-0.764,0.429-1.044c0.286-0.28,0.635-0.42,1.047-0.42s0.766,0.14,1.06,0.42
        C38.538,8.437,38.685,8.784,38.685,9.2z M38.325,24.68h-2.256V13.304h2.256V24.68z"/>
    <path fill="#666666" d="M47.613,15.152h-2.64v9.528h-2.256v-9.528h-2.256v-1.848h2.256v-2.376c0-0.672,0.076-1.292,0.228-1.86
        c0.152-0.568,0.4-1.06,0.744-1.476c0.344-0.416,0.784-0.744,1.32-0.984c0.536-0.24,1.188-0.36,1.956-0.36
        c0.544,0,1.016,0.056,1.416,0.168l-0.264,1.944c-0.176-0.048-0.352-0.088-0.528-0.12c-0.176-0.032-0.376-0.048-0.6-0.048
        c-0.432,0-0.78,0.076-1.044,0.228c-0.264,0.152-0.468,0.356-0.612,0.612s-0.24,0.548-0.288,0.876
        c-0.048,0.328-0.072,0.668-0.072,1.02v2.376h2.64V15.152z"/>
    <path fill="#666666" d="M54.909,15.152h-3.024v5.91c0,0.687,0.128,1.177,0.384,1.472c0.256,0.295,0.664,0.442,1.224,0.442
        c0.208,0,0.432-0.021,0.672-0.065c0.24-0.044,0.456-0.11,0.648-0.198l0.072,1.848c-0.272,0.096-0.572,0.172-0.9,0.229
        c-0.328,0.056-0.668,0.084-1.02,0.084c-1.072,0-1.892-0.296-2.46-0.889c-0.568-0.592-0.852-1.479-0.852-2.664v-6.168h-2.184
        v-1.848h2.184V10.04h2.232v3.264h3.024V15.152z"/>
    <path fill="#666666" d="M57.356,7.688h5.832c1.088,0,2.176,0.16,3.264,0.48c1.088,0.32,2.072,0.824,2.952,1.512
        s1.592,1.568,2.136,2.64c0.544,1.072,0.816,2.36,0.816,3.864c0,1.456-0.272,2.716-0.816,3.78s-1.256,1.943-2.136,2.64
        s-1.864,1.216-2.952,1.561c-1.088,0.344-2.176,0.516-3.264,0.516h-5.832V7.688z M59.732,22.593h2.976
        c1.024,0,1.972-0.145,2.844-0.432c0.872-0.288,1.624-0.704,2.256-1.248c0.632-0.544,1.124-1.216,1.476-2.017
        c0.352-0.8,0.528-1.704,0.528-2.712c0-1.056-0.176-1.983-0.528-2.784c-0.353-0.8-0.844-1.468-1.476-2.004
        c-0.632-0.536-1.384-0.944-2.256-1.224s-1.82-0.42-2.844-0.42h-2.976V22.593z"/>
    <path fill="#666666" d="M86.06,18.969c0,0.88-0.156,1.688-0.468,2.424c-0.312,0.736-0.744,1.372-1.296,1.908
        c-0.552,0.536-1.204,0.952-1.956,1.248c-0.752,0.296-1.56,0.443-2.424,0.443c-0.864,0-1.672-0.147-2.424-0.443
        c-0.752-0.296-1.4-0.712-1.944-1.248c-0.544-0.536-0.972-1.172-1.284-1.908c-0.312-0.735-0.468-1.544-0.468-2.424
        s0.156-1.684,0.468-2.412c0.312-0.728,0.74-1.356,1.284-1.884c0.543-0.528,1.191-0.939,1.944-1.236
        c0.752-0.296,1.56-0.444,2.424-0.444c0.864,0,1.672,0.148,2.424,0.444c0.752,0.297,1.404,0.708,1.956,1.236
        c0.552,0.527,0.984,1.156,1.296,1.884C85.904,17.285,86.06,18.089,86.06,18.969z M83.708,18.98c0-0.542-0.084-1.061-0.252-1.556
        c-0.169-0.494-0.414-0.929-0.734-1.304s-0.718-0.674-1.192-0.897s-1.015-0.335-1.625-0.335c-0.61,0-1.152,0.111-1.625,0.335
        c-0.474,0.224-0.871,0.522-1.191,0.897c-0.321,0.375-0.566,0.81-0.734,1.304C76.184,17.92,76.1,18.438,76.1,18.98
        c0,0.543,0.084,1.062,0.253,1.556c0.168,0.495,0.413,0.934,0.734,1.316c0.321,0.383,0.718,0.686,1.191,0.909
        c0.473,0.224,1.015,0.335,1.625,0.335c0.61,0,1.151-0.111,1.625-0.335s0.871-0.526,1.192-0.909s0.565-0.821,0.734-1.316
        C83.624,20.042,83.708,19.523,83.708,18.98z"/>
    <path fill="#666666" d="M96.428,16.184c-0.24-0.368-0.6-0.676-1.08-0.924s-0.992-0.372-1.536-0.372
        c-0.592,0-1.116,0.112-1.572,0.336c-0.456,0.225-0.844,0.524-1.164,0.9c-0.32,0.376-0.564,0.812-0.732,1.308
        s-0.252,1.017-0.252,1.56c0,0.545,0.084,1.064,0.252,1.561s0.412,0.933,0.732,1.308c0.32,0.376,0.712,0.677,1.176,0.9
        c0.464,0.225,0.992,0.336,1.584,0.336c0.576,0,1.1-0.111,1.572-0.336c0.472-0.224,0.86-0.528,1.164-0.912l1.512,1.368
        c-0.48,0.561-1.08,0.996-1.8,1.308c-0.72,0.312-1.536,0.468-2.448,0.468c-0.88,0-1.692-0.144-2.436-0.432
        c-0.744-0.288-1.388-0.691-1.932-1.212c-0.544-0.52-0.972-1.147-1.284-1.884s-0.468-1.561-0.468-2.473
        c0-0.896,0.152-1.711,0.456-2.447c0.304-0.736,0.728-1.368,1.272-1.896c0.543-0.527,1.188-0.936,1.932-1.224
        c0.744-0.288,1.548-0.433,2.412-0.433c0.8,0,1.596,0.16,2.388,0.48s1.419,0.784,1.884,1.392L96.428,16.184z"/>
    <path fill="#666666" d="M103.1,23.24c0,0.417-0.152,0.784-0.456,1.104c-0.304,0.32-0.688,0.479-1.152,0.479
        c-0.448,0-0.828-0.155-1.14-0.468c-0.312-0.312-0.468-0.676-0.468-1.092c0-0.432,0.152-0.804,0.456-1.116
        c0.304-0.312,0.688-0.468,1.152-0.468c0.464,0,0.848,0.152,1.152,0.456C102.947,22.44,103.1,22.808,103.1,23.24z"/>
    <path fill="#666666" d="M116.635,18.969c0,0.88-0.156,1.688-0.468,2.424c-0.312,0.736-0.744,1.372-1.296,1.908
        c-0.552,0.536-1.204,0.952-1.956,1.248c-0.752,0.296-1.56,0.443-2.424,0.443c-0.864,0-1.672-0.147-2.424-0.443
        c-0.752-0.296-1.4-0.712-1.944-1.248c-0.544-0.536-0.972-1.172-1.284-1.908c-0.312-0.735-0.468-1.544-0.468-2.424
        s0.156-1.684,0.468-2.412c0.312-0.728,0.74-1.356,1.284-1.884c0.543-0.528,1.191-0.939,1.944-1.236
        c0.752-0.296,1.56-0.444,2.424-0.444c0.864,0,1.672,0.148,2.424,0.444c0.752,0.297,1.404,0.708,1.956,1.236
        c0.552,0.527,0.984,1.156,1.296,1.884C116.479,17.285,116.635,18.089,116.635,18.969z M114.283,18.98
        c0-0.542-0.084-1.061-0.252-1.556c-0.169-0.494-0.414-0.929-0.734-1.304s-0.718-0.674-1.192-0.897s-1.015-0.335-1.625-0.335
        c-0.61,0-1.152,0.111-1.625,0.335c-0.474,0.224-0.871,0.522-1.191,0.897c-0.321,0.375-0.566,0.81-0.734,1.304
        c-0.169,0.495-0.253,1.014-0.253,1.556c0,0.543,0.084,1.062,0.253,1.556c0.168,0.495,0.413,0.934,0.734,1.316
        c0.321,0.383,0.718,0.686,1.191,0.909c0.473,0.224,1.015,0.335,1.625,0.335c0.61,0,1.151-0.111,1.625-0.335
        s0.871-0.526,1.192-0.909s0.565-0.821,0.734-1.316C114.199,20.042,114.283,19.523,114.283,18.98z"/>
    <path fill="#666666" d="M119.251,14.577c-0.016-0.48-0.04-0.904-0.072-1.272h2.136c0.032,0.288,0.056,0.62,0.072,0.996
        c0.016,0.376,0.024,0.684,0.024,0.924h0.072c0.32-0.672,0.788-1.212,1.404-1.62c0.616-0.408,1.308-0.612,2.076-0.612
        c0.352,0,0.648,0.033,0.888,0.097l-0.096,2.088c-0.32-0.08-0.664-0.12-1.032-0.12c-0.544,0-1.016,0.101-1.416,0.3
        c-0.4,0.2-0.732,0.468-0.996,0.805c-0.264,0.336-0.46,0.724-0.588,1.163c-0.128,0.44-0.192,0.9-0.192,1.381v5.976h-2.256v-8.928
        C119.275,15.449,119.267,15.056,119.251,14.577z"/>
    <path fill="#666666" d="M128.419,26.625c0.496,0.56,1.116,1.008,1.86,1.344c0.744,0.336,1.508,0.504,2.292,0.504
        c0.752,0,1.384-0.108,1.896-0.324s0.924-0.512,1.236-0.888s0.536-0.82,0.672-1.332c0.136-0.513,0.204-1.064,0.204-1.656v-1.464
        h-0.048c-0.416,0.641-0.984,1.128-1.704,1.464c-0.72,0.336-1.488,0.504-2.304,0.504c-0.864,0-1.652-0.151-2.364-0.456
        c-0.712-0.304-1.316-0.72-1.812-1.248c-0.496-0.527-0.88-1.147-1.152-1.859s-0.408-1.477-0.408-2.292
        c0-0.816,0.136-1.584,0.408-2.305c0.272-0.72,0.656-1.348,1.152-1.884c0.496-0.535,1.096-0.96,1.8-1.271
        c0.704-0.312,1.488-0.469,2.352-0.469c0.816,0,1.596,0.177,2.34,0.528c0.744,0.353,1.332,0.888,1.764,1.608h0.048v-1.824h2.184
        v10.8c0,0.832-0.104,1.628-0.312,2.388c-0.208,0.76-0.56,1.433-1.056,2.017s-1.144,1.052-1.944,1.404
        c-0.8,0.352-1.792,0.527-2.976,0.527c-0.992,0-1.988-0.18-2.988-0.54c-1-0.359-1.86-0.868-2.58-1.523L128.419,26.625z
         M129.091,18.873c0,0.527,0.084,1.031,0.253,1.512c0.168,0.479,0.417,0.904,0.746,1.271c0.329,0.369,0.726,0.664,1.192,0.889
        c0.465,0.224,0.995,0.336,1.589,0.336c0.577,0,1.107-0.104,1.589-0.312c0.481-0.207,0.891-0.491,1.228-0.852
        s0.598-0.784,0.782-1.272c0.185-0.487,0.277-1.012,0.277-1.571c0-0.544-0.093-1.057-0.277-1.536
        c-0.185-0.48-0.449-0.904-0.794-1.272c-0.345-0.367-0.755-0.66-1.228-0.876c-0.474-0.216-1-0.324-1.577-0.324
        c-0.594,0-1.124,0.108-1.589,0.324c-0.466,0.216-0.863,0.504-1.192,0.864s-0.578,0.784-0.746,1.271
        C129.175,17.812,129.091,18.329,129.091,18.873z"/>
</g>
<g><a xlink:href="/" pointer-events="all" target="_top"><polygon fill="none" points="0,0 145,0 145,35 0,35 0,0"/></a></g>

</g>


<!-- AnyBidirectionalCollection -->
<g id="node1" class="node">
<g id="a_node1"><a xlink:href="/swift-2/type/AnyBidirectionalCollection/" target="_top">
<polygon fill="#999999" stroke="#999999" points="1535.05,-22 1386.95,-22 1386.95,-0 1535.05,-0 1535.05,-22"/>
<text text-anchor="middle" x="1461" y="-7.4" font-family="Helvetica,sans-Serif" font-size="12.00" fill="white">AnyBidirectionalCollection</text>
</a>
</g>
</g>
<!-- AnyCollectionType -->
<g id="node2" class="node">
<g id="a_node2"><a xlink:href="/swift-2/protocol/AnyCollectionType/" target="_top">
<path fill="#999999" stroke="#999999" d="M2028.21,-80C2028.21,-80 1933.79,-80 1933.79,-80 1930.12,-80 1926.46,-76.3333 1926.46,-72.6667 1926.46,-72.6667 1926.46,-65.3333 1926.46,-65.3333 1926.46,-61.6667 1930.12,-58 1933.79,-58 1933.79,-58 2028.21,-58 2028.21,-58 2031.88,-58 2035.54,-61.6667 2035.54,-65.3333 2035.54,-65.3333 2035.54,-72.6667 2035.54,-72.6667 2035.54,-76.3333 2031.88,-80 2028.21,-80"/>
<text text-anchor="middle" x="1981" y="-65.4" font-family="Helvetica,sans-Serif" font-size="12.00" fill="white">AnyCollectionType</text>
</a>
</g>
</g>
<!-- AnyCollectionType&#45;&gt;AnyBidirectionalCollection -->
<g id="edge89" class="edge">
<path fill="none" stroke="#cccccc" d="M1926.47,-62.5257C1845.68,-54.3567 1689.15,-38.3041 1545.52,-22.1589"/>
<polygon fill="#cccccc" stroke="#cccccc" points="1545.53,-18.6382 1535.21,-20.9964 1544.75,-25.5941 1545.53,-18.6382"/>
</g>
<!-- AnyForwardCollection -->
<g id="node3" class="node">
<g id="a_node3"><a xlink:href="/swift-2/type/AnyForwardCollection/" target="_top">
<polygon fill="#999999" stroke="#999999" points="1805.54,-22 1678.46,-22 1678.46,-0 1805.54,-0 1805.54,-22"/>
<text text-anchor="middle" x="1742" y="-7.4" font-family="Helvetica,sans-Serif" font-size="12.00" fill="white">AnyForwardCollection</text>
</a>
</g>
</g>
<!-- AnyCollectionType&#45;&gt;AnyForwardCollection -->
<g id="edge90" class="edge">
<path fill="none" stroke="#cccccc" d="M1938.27,-57.9883C1898.04,-48.561 1837.67,-34.4159 1794.51,-24.3045"/>
<polygon fill="#cccccc" stroke="#cccccc" points="1795.3,-20.8929 1784.76,-22.0192 1793.7,-27.7083 1795.3,-20.8929"/>
</g>
<!-- AnyRandomAccessCollection -->
<g id="node5" class="node">
<g id="a_node5"><a xlink:href="/swift-2/type/AnyRandomAccessCollection/" target="_top">
<polygon fill="#999999" stroke="#999999" points="1990.55,-22 1823.45,-22 1823.45,-0 1990.55,-0 1990.55,-22"/>
<text text-anchor="middle" x="1907" y="-7.4" font-family="Helvetica,sans-Serif" font-size="12.00" fill="white">AnyRandomAccessCollection</text>
</a>
</g>
</g>
<!-- AnyCollectionType&#45;&gt;AnyRandomAccessCollection -->
<g id="edge91" class="edge">
<path fill="none" stroke="#cccccc" d="M1967.77,-57.9883C1956.96,-49.8087 1941.46,-38.0773 1928.82,-28.5108"/>
<polygon fill="#cccccc" stroke="#cccccc" points="1930.7,-25.5474 1920.62,-22.3039 1926.48,-31.1293 1930.7,-25.5474"/>
</g>
<!-- AnyGenerator -->
<g id="node4" class="node">
<g id="a_node4"><a xlink:href="/swift-2/type/AnyGenerator/" target="_top">
<polygon fill="#999999" stroke="#999999" points="84.0314,-22 -0.0313876,-22 -0.0313876,-0 84.0314,-0 84.0314,-22"/>
<text text-anchor="middle" x="42" y="-7.4" font-family="Helvetica,sans-Serif" font-size="12.00" fill="white">AnyGenerator</text>
</a>
</g>
</g>
<!-- AnySequence -->
<g id="node6" class="node">
<g id="a_node6"><a xlink:href="/swift-2/type/AnySequence/" target="_top">
<polygon fill="#999999" stroke="#999999" points="187.044,-22 102.956,-22 102.956,-0 187.044,-0 187.044,-22"/>
<text text-anchor="middle" x="145" y="-7.4" font-family="Helvetica,sans-Serif" font-size="12.00" fill="white">AnySequence</text>
</a>
</g>
</g>
<!-- Array -->
<g id="node7" class="node">
<g id="a_node7"><a xlink:href="/swift-2/type/Array/" target="_top">
<polygon fill="#999999" stroke="#999999" points="893,-22 839,-22 839,-0 893,-0 893,-22"/>
<text text-anchor="middle" x="866" y="-7.4" font-family="Helvetica,sans-Serif" font-size="12.00" fill="white">Array</text>
</a>
</g>
</g>
<!-- ArraySlice -->
<g id="node8" class="node">
<g id="a_node8"><a xlink:href="/swift-2/type/ArraySlice/" target="_top">
<polygon fill="#999999" stroke="#999999" points="975.011,-22 910.989,-22 910.989,-0 975.011,-0 975.011,-22"/>
<text text-anchor="middle" x="943" y="-7.4" font-family="Helvetica,sans-Serif" font-size="12.00" fill="white">ArraySlice</text>
</a>
</g>
</g>
<!-- CollectionOfOne -->
<g id="node9" class="node">
<g id="a_node9"><a xlink:href="/swift-2/type/CollectionOfOne/" target="_top">
<polygon fill="#999999" stroke="#999999" points="303.032,-22 204.968,-22 204.968,-0 303.032,-0 303.032,-22"/>
<text text-anchor="middle" x="254" y="-7.4" font-family="Helvetica,sans-Serif" font-size="12.00" fill="white">CollectionOfOne</text>
</a>
</g>
</g>
<!-- CollectionType -->
<g id="node10" class="node">
<g id="a_node10"><a xlink:href="/swift-2/protocol/CollectionType/" target="_top">
<path fill="#999999" stroke="#999999" d="M2233.7,-254C2233.7,-254 2160.3,-254 2160.3,-254 2156.63,-254 2152.96,-250.333 2152.96,-246.667 2152.96,-246.667 2152.96,-239.333 2152.96,-239.333 2152.96,-235.667 2156.63,-232 2160.3,-232 2160.3,-232 2233.7,-232 2233.7,-232 2237.37,-232 2241.04,-235.667 2241.04,-239.333 2241.04,-239.333 2241.04,-246.667 2241.04,-246.667 2241.04,-250.333 2237.37,-254 2233.7,-254"/>
<text text-anchor="middle" x="2197" y="-239.4" font-family="Helvetica,sans-Serif" font-size="12.00" fill="white">CollectionType</text>
</a>
</g>
</g>
<!-- CollectionType&#45;&gt;AnyBidirectionalCollection -->
<g id="edge54" class="edge">
<path fill="none" stroke="#cccccc" d="M2152.73,-233.793C2117.3,-226.37 2066.78,-213.853 2025,-196 1916.43,-149.611 1909.27,-97.4797 1798,-58 1786.16,-53.7986 1641.06,-34.8457 1545.16,-22.6167"/>
<polygon fill="#cccccc" stroke="#cccccc" points="1545.53,-19.1361 1535.17,-21.3446 1544.65,-26.08 1545.53,-19.1361"/>
</g>
<!-- CollectionType&#45;&gt;AnyCollectionType -->
<g id="edge55" class="edge">
<path fill="none" stroke="#cccccc" d="M2152.65,-237.019C2121.09,-231.508 2079.27,-219.984 2050,-196 2015.6,-167.809 1995.64,-117.753 1986.7,-89.9731"/>
<polygon fill="#cccccc" stroke="#cccccc" points="1989.98,-88.7329 1983.71,-80.1912 1983.29,-90.7775 1989.98,-88.7329"/>
</g>
<!-- CollectionType&#45;&gt;AnyForwardCollection -->
<g id="edge56" class="edge">
<path fill="none" stroke="#cccccc" d="M2152.83,-232.677C2130.65,-225.911 2104.97,-214.58 2088,-196 2044.59,-148.463 2092.96,-99.7983 2044,-58 2039.64,-54.2802 1903.51,-34.615 1815.52,-22.2312"/>
<polygon fill="#cccccc" stroke="#cccccc" points="1815.96,-18.759 1805.57,-20.8332 1814.99,-25.6909 1815.96,-18.759"/>
</g>
<!-- CollectionType&#45;&gt;AnyRandomAccessCollection -->
<g id="edge57" class="edge">
<path fill="none" stroke="#cccccc" d="M2198.08,-231.82C2200.77,-200.702 2204.28,-106.047 2154,-58 2142.23,-46.7497 2060.14,-32.9719 1993.78,-23.4436"/>
<polygon fill="#cccccc" stroke="#cccccc" points="1994.09,-19.9524 1983.69,-22.0107 1993.1,-26.8828 1994.09,-19.9524"/>
</g>
<!-- CollectionType&#45;&gt;Array -->
<g id="edge58" class="edge">
<path fill="none" stroke="#cccccc" d="M2152.7,-241.21C1966.98,-237.751 1250.36,-222.901 1026,-196 896.791,-180.507 821.402,-238.721 739,-138 703.046,-94.0538 783.207,-48.6182 831.979,-26.231"/>
<polygon fill="#cccccc" stroke="#cccccc" points="833.577,-29.3507 841.272,-22.0682 830.715,-22.9625 833.577,-29.3507"/>
</g>
<!-- CollectionType&#45;&gt;ArraySlice -->
<g id="edge59" class="edge">
<path fill="none" stroke="#cccccc" d="M2152.87,-241.866C1982.39,-241.063 1366.93,-235.436 1176,-196 1158.2,-192.322 1036.04,-150.669 1023,-138 995.413,-111.199 1011.52,-89.8802 990,-58 982.762,-47.2764 972.724,-37.0337 963.782,-28.947"/>
<polygon fill="#cccccc" stroke="#cccccc" points="965.833,-26.093 955.99,-22.1748 961.241,-31.3764 965.833,-26.093"/>
</g>
<!-- CollectionType&#45;&gt;CollectionOfOne -->
<g id="edge60" class="edge">
<path fill="none" stroke="#cccccc" d="M2152.85,-241.793C1914.62,-240.527 787.558,-232.632 637,-196 491.4,-160.575 335.718,-65.5179 277.627,-27.7679"/>
<polygon fill="#cccccc" stroke="#cccccc" points="279.441,-24.772 269.158,-22.2192 275.605,-30.6272 279.441,-24.772"/>
</g>
<!-- ContiguousArray -->
<g id="node11" class="node">
<g id="a_node11"><a xlink:href="/swift-2/type/ContiguousArray/" target="_top">
<polygon fill="#999999" stroke="#999999" points="1092.53,-22 993.466,-22 993.466,-0 1092.53,-0 1092.53,-22"/>
<text text-anchor="middle" x="1043" y="-7.4" font-family="Helvetica,sans-Serif" font-size="12.00" fill="white">ContiguousArray</text>
</a>
</g>
</g>
<!-- CollectionType&#45;&gt;ContiguousArray -->
<g id="edge61" class="edge">
<path fill="none" stroke="#cccccc" d="M2152.95,-241.239C1971.88,-237.934 1292.81,-223.725 1257,-196 1206.2,-156.672 1260.31,-102.525 1214,-58 1205.51,-49.8363 1145.9,-34.9614 1099.42,-24.3363"/>
<polygon fill="#cccccc" stroke="#cccccc" points="1099.95,-20.8683 1089.43,-22.0704 1098.41,-27.695 1099.95,-20.8683"/>
</g>
<!-- Dictionary -->
<g id="node12" class="node">
<g id="a_node12"><a xlink:href="/swift-2/type/Dictionary/" target="_top">
<polygon fill="#999999" stroke="#999999" points="2071.51,-22 2008.49,-22 2008.49,-0 2071.51,-0 2071.51,-22"/>
<text text-anchor="middle" x="2040" y="-7.4" font-family="Helvetica,sans-Serif" font-size="12.00" fill="white">Dictionary</text>
</a>
</g>
</g>
<!-- CollectionType&#45;&gt;Dictionary -->
<g id="edge62" class="edge">
<path fill="none" stroke="#cccccc" d="M2200.38,-231.911C2209.78,-201.84 2232.92,-111.594 2192,-58 2188.52,-53.4383 2125.25,-35.3464 2081.45,-23.2574"/>
<polygon fill="#cccccc" stroke="#cccccc" points="2082.17,-19.8273 2071.6,-20.5509 2080.32,-26.5768 2082.17,-19.8273"/>
</g>
<!-- DictionaryLiteral -->
<g id="node13" class="node">
<g id="a_node13"><a xlink:href="/swift-2/type/DictionaryLiteral/" target="_top">
<polygon fill="#999999" stroke="#999999" points="2186.02,-22 2089.98,-22 2089.98,-0 2186.02,-0 2186.02,-22"/>
<text text-anchor="middle" x="2138" y="-7.4" font-family="Helvetica,sans-Serif" font-size="12.00" fill="white">DictionaryLiteral</text>
</a>
</g>
</g>
<!-- CollectionType&#45;&gt;DictionaryLiteral -->
<g id="edge63" class="edge">
<path fill="none" stroke="#cccccc" d="M2207.29,-231.741C2215.21,-223.059 2225.55,-209.848 2230,-196 2248.78,-137.612 2262.24,-110.173 2230,-58 2220.74,-43.016 2204.96,-32.7496 2189.05,-25.7899"/>
<polygon fill="#cccccc" stroke="#cccccc" points="2190.31,-22.5224 2179.72,-22.0636 2187.71,-29.0231 2190.31,-22.5224"/>
</g>
<!-- EmptyCollection -->
<g id="node14" class="node">
<g id="a_node14"><a xlink:href="/swift-2/type/EmptyCollection/" target="_top">
<polygon fill="#999999" stroke="#999999" points="2300.03,-22 2203.97,-22 2203.97,-0 2300.03,-0 2300.03,-22"/>
<text text-anchor="middle" x="2252" y="-7.4" font-family="Helvetica,sans-Serif" font-size="12.00" fill="white">EmptyCollection</text>
</a>
</g>
</g>
<!-- CollectionType&#45;&gt;EmptyCollection -->
<g id="edge64" class="edge">
<path fill="none" stroke="#cccccc" d="M2224.68,-231.899C2240.43,-224.553 2258.81,-212.904 2268,-196 2297.01,-142.642 2274.33,-67.5174 2260.57,-32.0433"/>
<polygon fill="#cccccc" stroke="#cccccc" points="2263.66,-30.3291 2256.66,-22.3751 2257.17,-32.9576 2263.66,-30.3291"/>
</g>
<!-- FlattenBidirectionalCollection -->
<g id="node18" class="node">
<g id="a_node18"><a xlink:href="/swift-2/type/FlattenBidirectionalCollection/" target="_top">
<polygon fill="#999999" stroke="#999999" points="2554.06,-22 2389.94,-22 2389.94,-0 2554.06,-0 2554.06,-22"/>
<text text-anchor="middle" x="2472" y="-7.4" font-family="Helvetica,sans-Serif" font-size="12.00" fill="white">FlattenBidirectionalCollection</text>
</a>
</g>
</g>
<!-- CollectionType&#45;&gt;FlattenBidirectionalCollection -->
<g id="edge65" class="edge">
<path fill="none" stroke="#cccccc" d="M2232.65,-231.985C2255.76,-224.418 2285.78,-212.498 2309,-196 2376.38,-148.121 2435.11,-67.3617 2459.71,-30.8855"/>
<polygon fill="#cccccc" stroke="#cccccc" points="2462.84,-32.4882 2465.47,-22.2227 2457.01,-28.6133 2462.84,-32.4882"/>
</g>
<!-- FlattenCollection -->
<g id="node19" class="node">
<g id="a_node19"><a xlink:href="/swift-2/type/FlattenCollection/" target="_top">
<polygon fill="#999999" stroke="#999999" points="2671.53,-22 2572.47,-22 2572.47,-0 2671.53,-0 2671.53,-22"/>
<text text-anchor="middle" x="2622" y="-7.4" font-family="Helvetica,sans-Serif" font-size="12.00" fill="white">FlattenCollection</text>
</a>
</g>
</g>
<!-- CollectionType&#45;&gt;FlattenCollection -->
<g id="edge66" class="edge">
<path fill="none" stroke="#cccccc" d="M2236.36,-231.985C2265,-224.004 2304.33,-211.595 2337,-196 2442.36,-145.707 2555.43,-62.9796 2601.1,-28.2005"/>
<polygon fill="#cccccc" stroke="#cccccc" points="2603.26,-30.9546 2609.07,-22.095 2599.01,-25.3975 2603.26,-30.9546"/>
</g>
<!-- LazyCollection -->
<g id="node26" class="node">
<g id="a_node26"><a xlink:href="/swift-2/type/LazyCollection/" target="_top">
<polygon fill="#999999" stroke="#999999" points="3662.03,-22 3573.97,-22 3573.97,-0 3662.03,-0 3662.03,-22"/>
<text text-anchor="middle" x="3618" y="-7.4" font-family="Helvetica,sans-Serif" font-size="12.00" fill="white">LazyCollection</text>
</a>
</g>
</g>
<!-- CollectionType&#45;&gt;LazyCollection -->
<g id="edge67" class="edge">
<path fill="none" stroke="#cccccc" d="M2241.22,-240.034C2333.55,-235.532 2553.4,-222.739 2736,-196 3056.16,-149.117 3434.81,-57.8598 3568.37,-24.5535"/>
<polygon fill="#cccccc" stroke="#cccccc" points="3569.46,-27.8908 3578.31,-22.0702 3567.76,-21.0998 3569.46,-27.8908"/>
</g>
<!-- LazyCollectionType -->
<g id="node27" class="node">
<g id="a_node27"><a xlink:href="/swift-2/protocol/LazyCollectionType/" target="_top">
<path fill="#999999" stroke="#999999" d="M3681.71,-80C3681.71,-80 3582.29,-80 3582.29,-80 3578.62,-80 3574.95,-76.3333 3574.95,-72.6667 3574.95,-72.6667 3574.95,-65.3333 3574.95,-65.3333 3574.95,-61.6667 3578.62,-58 3582.29,-58 3582.29,-58 3681.71,-58 3681.71,-58 3685.38,-58 3689.05,-61.6667 3689.05,-65.3333 3689.05,-65.3333 3689.05,-72.6667 3689.05,-72.6667 3689.05,-76.3333 3685.38,-80 3681.71,-80"/>
<text text-anchor="middle" x="3632" y="-65.4" font-family="Helvetica,sans-Serif" font-size="12.00" fill="white">LazyCollectionType</text>
</a>
</g>
</g>
<!-- CollectionType&#45;&gt;LazyCollectionType -->
<g id="edge68" class="edge">
<path fill="none" stroke="#cccccc" d="M2241.16,-241.95C2433.97,-241.487 3196.68,-237.056 3295,-196 3343.17,-175.884 3334.35,-139.421 3381,-116 3397.27,-107.83 3496.18,-91.1804 3564.86,-80.313"/>
<polygon fill="#cccccc" stroke="#cccccc" points="3565.43,-83.7669 3574.76,-78.7533 3564.34,-76.8522 3565.43,-83.7669"/>
</g>
<!-- LazyFilterCollection -->
<g id="node28" class="node">
<g id="a_node28"><a xlink:href="/swift-2/type/LazyFilterCollection/" target="_top">
<polygon fill="#999999" stroke="#999999" points="3794.03,-22 3679.97,-22 3679.97,-0 3794.03,-0 3794.03,-22"/>
<text text-anchor="middle" x="3737" y="-7.4" font-family="Helvetica,sans-Serif" font-size="12.00" fill="white">LazyFilterCollection</text>
</a>
</g>
</g>
<!-- CollectionType&#45;&gt;LazyFilterCollection -->
<g id="edge69" class="edge">
<path fill="none" stroke="#cccccc" d="M2241.21,-240.352C2343.21,-236.194 2602.73,-223.586 2818,-196 3153.38,-153.023 3549.81,-58.5812 3687.2,-24.5415"/>
<polygon fill="#cccccc" stroke="#cccccc" points="3688.16,-27.909 3697.02,-22.1012 3686.47,-21.1155 3688.16,-27.909"/>
</g>
<!-- LazyMapCollection -->
<g id="node31" class="node">
<g id="a_node31"><a xlink:href="/swift-2/type/LazyMapCollection/" target="_top">
<polygon fill="#999999" stroke="#999999" points="3923.54,-22 3812.46,-22 3812.46,-0 3923.54,-0 3923.54,-22"/>
<text text-anchor="middle" x="3868" y="-7.4" font-family="Helvetica,sans-Serif" font-size="12.00" fill="white">LazyMapCollection</text>
</a>
</g>
</g>
<!-- CollectionType&#45;&gt;LazyMapCollection -->
<g id="edge70" class="edge">
<path fill="none" stroke="#cccccc" d="M2241.28,-241.733C2422.89,-240.401 3111.11,-232.966 3325,-196 3527.17,-161.06 3755.8,-63.1006 3837.22,-26.2541"/>
<polygon fill="#cccccc" stroke="#cccccc" points="3838.75,-29.4005 3846.4,-22.072 3835.85,-23.0295 3838.75,-29.4005"/>
</g>
<!-- MutableCollectionType -->
<g id="node36" class="node">
<g id="a_node36"><a xlink:href="/swift-2/protocol/MutableCollectionType/" target="_top">
<path fill="#999999" stroke="#999999" d="M1390.22,-196C1390.22,-196 1273.78,-196 1273.78,-196 1270.11,-196 1266.45,-192.333 1266.45,-188.667 1266.45,-188.667 1266.45,-181.333 1266.45,-181.333 1266.45,-177.667 1270.11,-174 1273.78,-174 1273.78,-174 1390.22,-174 1390.22,-174 1393.89,-174 1397.55,-177.667 1397.55,-181.333 1397.55,-181.333 1397.55,-188.667 1397.55,-188.667 1397.55,-192.333 1393.89,-196 1390.22,-196"/>
<text text-anchor="middle" x="1332" y="-181.4" font-family="Helvetica,sans-Serif" font-size="12.00" fill="white">MutableCollectionType</text>
</a>
</g>
</g>
<!-- CollectionType&#45;&gt;MutableCollectionType -->
<g id="edge71" class="edge">
<path fill="none" stroke="#cccccc" d="M2152.92,-239.146C2013.84,-230.142 1583.22,-202.264 1407.66,-190.899"/>
<polygon fill="#cccccc" stroke="#cccccc" points="1407.69,-187.393 1397.48,-190.239 1407.23,-194.378 1407.69,-187.393"/>
</g>
<!-- MutableSlice -->
<g id="node37" class="node">
<g id="a_node37"><a xlink:href="/swift-2/type/MutableSlice/" target="_top">
<polygon fill="#999999" stroke="#999999" points="1189.03,-22 1110.97,-22 1110.97,-0 1189.03,-0 1189.03,-22"/>
<text text-anchor="middle" x="1150" y="-7.4" font-family="Helvetica,sans-Serif" font-size="12.00" fill="white">MutableSlice</text>
</a>
</g>
</g>
<!-- CollectionType&#45;&gt;MutableSlice -->
<g id="edge72" class="edge">
<path fill="none" stroke="#cccccc" d="M2152.71,-242.13C2074.51,-241.281 1907.51,-234.607 1773,-196 1637.73,-157.175 1622.96,-97.897 1488,-58 1366.9,-22.2016 1328.59,-41.9344 1199.16,-21.8741"/>
<polygon fill="#cccccc" stroke="#cccccc" points="1199.69,-18.4154 1189.27,-20.2918 1198.59,-25.3275 1199.69,-18.4154"/>
</g>
<!-- MutableSliceable -->
<g id="node38" class="node">
<g id="a_node38"><a xlink:href="/swift-2/protocol/MutableSliceable/" target="_top">
<path fill="#999999" stroke="#999999" d="M1126.21,-138C1126.21,-138 1039.79,-138 1039.79,-138 1036.13,-138 1032.46,-134.333 1032.46,-130.667 1032.46,-130.667 1032.46,-123.333 1032.46,-123.333 1032.46,-119.667 1036.13,-116 1039.79,-116 1039.79,-116 1126.21,-116 1126.21,-116 1129.87,-116 1133.54,-119.667 1133.54,-123.333 1133.54,-123.333 1133.54,-130.667 1133.54,-130.667 1133.54,-134.333 1129.87,-138 1126.21,-138"/>
<text text-anchor="middle" x="1083" y="-123.4" font-family="Helvetica,sans-Serif" font-size="12.00" fill="white">MutableSliceable</text>
</a>
</g>
</g>
<!-- CollectionType&#45;&gt;MutableSliceable -->
<g id="edge73" class="edge">
<path fill="none" stroke="#cccccc" d="M2152.86,-242.248C1987.29,-242.817 1403.4,-241.483 1224,-196 1218.14,-194.515 1152.32,-162.248 1112.71,-142.703"/>
<polygon fill="#cccccc" stroke="#cccccc" points="1113.78,-139.325 1103.26,-138.035 1110.68,-145.601 1113.78,-139.325"/>
</g>
<!-- Range -->
<g id="node40" class="node">
<g id="a_node40"><a xlink:href="/swift-2/type/Range/" target="_top">
<polygon fill="#999999" stroke="#999999" points="2372,-22 2318,-22 2318,-0 2372,-0 2372,-22"/>
<text text-anchor="middle" x="2345" y="-7.4" font-family="Helvetica,sans-Serif" font-size="12.00" fill="white">Range</text>
</a>
</g>
</g>
<!-- CollectionType&#45;&gt;Range -->
<g id="edge74" class="edge">
<path fill="none" stroke="#cccccc" d="M2231.12,-231.864C2250,-224.653 2272.5,-213.153 2287,-196 2328.17,-147.301 2340.18,-69.2632 2343.64,-32.464"/>
<polygon fill="#cccccc" stroke="#cccccc" points="2347.16,-32.3055 2344.48,-22.0547 2340.18,-31.7381 2347.16,-32.3055"/>
</g>
<!-- RangeReplaceableCollectionType -->
<g id="node42" class="node">
<g id="a_node42"><a xlink:href="/swift-2/protocol/RangeReplaceableCollectionType/" target="_top">
<path fill="#999999" stroke="#999999" d="M930.76,-138C930.76,-138 755.24,-138 755.24,-138 751.573,-138 747.906,-134.333 747.906,-130.667 747.906,-130.667 747.906,-123.333 747.906,-123.333 747.906,-119.667 751.573,-116 755.24,-116 755.24,-116 930.76,-116 930.76,-116 934.427,-116 938.094,-119.667 938.094,-123.333 938.094,-123.333 938.094,-130.667 938.094,-130.667 938.094,-134.333 934.427,-138 930.76,-138"/>
<text text-anchor="middle" x="843" y="-123.4" font-family="Helvetica,sans-Serif" font-size="12.00" fill="white">RangeReplaceableCollectionType</text>
</a>
</g>
</g>
<!-- CollectionType&#45;&gt;RangeReplaceableCollectionType -->
<g id="edge75" class="edge">
<path fill="none" stroke="#cccccc" d="M2152.69,-241.094C1979.34,-237.389 1346.9,-222.326 1148,-196 1054.45,-183.618 947.224,-156.67 888.091,-140.666"/>
<polygon fill="#cccccc" stroke="#cccccc" points="888.892,-137.256 878.323,-138.003 887.051,-144.01 888.892,-137.256"/>
</g>
<!-- Repeat -->
<g id="node43" class="node">
<g id="a_node43"><a xlink:href="/swift-2/type/Repeat/" target="_top">
<polygon fill="#999999" stroke="#999999" points="2744,-22 2690,-22 2690,-0 2744,-0 2744,-22"/>
<text text-anchor="middle" x="2717" y="-7.4" font-family="Helvetica,sans-Serif" font-size="12.00" fill="white">Repeat</text>
</a>
</g>
</g>
<!-- CollectionType&#45;&gt;Repeat -->
<g id="edge76" class="edge">
<path fill="none" stroke="#cccccc" d="M2241.05,-233.404C2276.99,-225.688 2328.71,-212.964 2372,-196 2498.06,-146.597 2637.12,-62.4778 2692.4,-27.7314"/>
<polygon fill="#cccccc" stroke="#cccccc" points="2694.54,-30.5136 2701.13,-22.213 2690.81,-24.596 2694.54,-30.5136"/>
</g>
<!-- ReverseCollection -->
<g id="node44" class="node">
<g id="a_node44"><a xlink:href="/swift-2/type/ReverseCollection/" target="_top">
<polygon fill="#999999" stroke="#999999" points="1660.53,-22 1553.47,-22 1553.47,-0 1660.53,-0 1660.53,-22"/>
<text text-anchor="middle" x="1607" y="-7.4" font-family="Helvetica,sans-Serif" font-size="12.00" fill="white">ReverseCollection</text>
</a>
</g>
</g>
<!-- CollectionType&#45;&gt;ReverseCollection -->
<g id="edge77" class="edge">
<path fill="none" stroke="#cccccc" d="M2192.12,-231.671C2176.2,-199.275 2122.23,-99.3664 2044,-58 1972.6,-20.2416 1767.18,-31.7655 1670.52,-21.993"/>
<polygon fill="#cccccc" stroke="#cccccc" points="1670.74,-18.4945 1660.4,-20.8365 1669.94,-25.4493 1670.74,-18.4945"/>
</g>
<!-- ReverseRandomAccessCollection -->
<g id="node45" class="node">
<g id="a_node45"><a xlink:href="/swift-2/type/ReverseRandomAccessCollection/" target="_top">
<polygon fill="#999999" stroke="#999999" points="820.559,-22 629.441,-22 629.441,-0 820.559,-0 820.559,-22"/>
<text text-anchor="middle" x="725" y="-7.4" font-family="Helvetica,sans-Serif" font-size="12.00" fill="white">ReverseRandomAccessCollection</text>
</a>
</g>
</g>
<!-- CollectionType&#45;&gt;ReverseRandomAccessCollection -->
<g id="edge78" class="edge">
<path fill="none" stroke="#cccccc" d="M2152.69,-241.602C1918.91,-239.37 837.159,-227.375 774,-196 744.285,-181.239 738.328,-169.185 727,-138 714.116,-102.534 717.685,-57.6632 721.385,-32.1594"/>
<polygon fill="#cccccc" stroke="#cccccc" points="724.854,-32.631 722.984,-22.2026 717.943,-31.5213 724.854,-32.631"/>
</g>
<!-- Set -->
<g id="node47" class="node">
<g id="a_node47"><a xlink:href="/swift-2/type/Set/" target="_top">
<polygon fill="#999999" stroke="#999999" points="2816,-22 2762,-22 2762,-0 2816,-0 2816,-22"/>
<text text-anchor="middle" x="2789" y="-7.4" font-family="Helvetica,sans-Serif" font-size="12.00" fill="white">Set</text>
</a>
</g>
</g>
<!-- CollectionType&#45;&gt;Set -->
<g id="edge79" class="edge">
<path fill="none" stroke="#cccccc" d="M2241.22,-235.493C2285.05,-228.349 2353.73,-215.272 2411,-196 2550.2,-149.154 2704.13,-62.2616 2763.62,-27.2278"/>
<polygon fill="#cccccc" stroke="#cccccc" points="2765.51,-30.1713 2772.34,-22.0645 2761.95,-24.1481 2765.51,-30.1713"/>
</g>
<!-- Slice -->
<g id="node48" class="node">
<g id="a_node48"><a xlink:href="/swift-2/type/Slice/" target="_top">
<polygon fill="#999999" stroke="#999999" points="2888,-22 2834,-22 2834,-0 2888,-0 2888,-22"/>
<text text-anchor="middle" x="2861" y="-7.4" font-family="Helvetica,sans-Serif" font-size="12.00" fill="white">Slice</text>
</a>
</g>
</g>
<!-- CollectionType&#45;&gt;Slice -->
<g id="edge80" class="edge">
<path fill="none" stroke="#cccccc" d="M2241.41,-236.855C2292.81,-230.247 2379.65,-217.049 2452,-196 2603.11,-152.036 2770.57,-62.7926 2834.36,-27.1766"/>
<polygon fill="#cccccc" stroke="#cccccc" points="2836.34,-30.0773 2843.35,-22.129 2832.91,-23.9739 2836.34,-30.0773"/>
</g>
<!-- String.CharacterView -->
<g id="node51" class="node">
<g id="a_node51"><a xlink:href="/swift-2/type/String.CharacterView/" target="_top">
<polygon fill="#999999" stroke="#999999" points="444.376,-22 321.624,-22 321.624,-0 444.376,-0 444.376,-22"/>
<text text-anchor="middle" x="383" y="-7.4" font-family="Helvetica,sans-Serif" font-size="12.00" fill="white">String.CharacterView</text>
</a>
</g>
</g>
<!-- CollectionType&#45;&gt;String.CharacterView -->
<g id="edge85" class="edge">
<path fill="none" stroke="#cccccc" d="M2152.6,-241.945C1919.22,-241.481 839.787,-237.114 697,-196 574.679,-160.779 450.42,-67.0414 403.027,-28.6997"/>
<polygon fill="#cccccc" stroke="#cccccc" points="405.048,-25.8308 395.09,-22.2117 400.617,-31.2505 405.048,-25.8308"/>
</g>
<!-- String.UTF16View -->
<g id="node52" class="node">
<g id="a_node52"><a xlink:href="/swift-2/type/String.UTF16View/" target="_top">
<polygon fill="#999999" stroke="#999999" points="3013.37,-22 2906.63,-22 2906.63,-0 3013.37,-0 3013.37,-22"/>
<text text-anchor="middle" x="2960" y="-7.4" font-family="Helvetica,sans-Serif" font-size="12.00" fill="white">String.UTF16View</text>
</a>
</g>
</g>
<!-- CollectionType&#45;&gt;String.UTF16View -->
<g id="edge87" class="edge">
<path fill="none" stroke="#cccccc" d="M2241.13,-238.345C2300.52,-232.735 2409.08,-220.035 2499,-196 2667.96,-150.838 2858.77,-61.637 2930.59,-26.6095"/>
<polygon fill="#cccccc" stroke="#cccccc" points="2932.48,-29.5807 2939.92,-22.0367 2929.4,-23.2951 2932.48,-29.5807"/>
</g>
<!-- String.UTF8View -->
<g id="node53" class="node">
<g id="a_node53"><a xlink:href="/swift-2/type/String.UTF8View/" target="_top">
<polygon fill="#999999" stroke="#999999" points="3132.36,-22 3031.64,-22 3031.64,-0 3132.36,-0 3132.36,-22"/>
<text text-anchor="middle" x="3082" y="-7.4" font-family="Helvetica,sans-Serif" font-size="12.00" fill="white">String.UTF8View</text>
</a>
</g>
</g>
<!-- CollectionType&#45;&gt;String.UTF8View -->
<g id="edge88" class="edge">
<path fill="none" stroke="#cccccc" d="M2241.14,-239.113C2308.33,-234.074 2439.97,-221.665 2549,-196 2743.58,-150.199 2966.87,-60.3945 3049.26,-25.9265"/>
<polygon fill="#cccccc" stroke="#cccccc" points="3050.74,-29.1036 3058.6,-22.0041 3048.03,-22.6498 3050.74,-29.1036"/>
</g>
<!-- String.UnicodeScalarView -->
<g id="node54" class="node">
<g id="a_node54"><a xlink:href="/swift-2/type/String.UnicodeScalarView/" target="_top">
<polygon fill="#999999" stroke="#999999" points="610.892,-22 463.108,-22 463.108,-0 610.892,-0 610.892,-22"/>
<text text-anchor="middle" x="537" y="-7.4" font-family="Helvetica,sans-Serif" font-size="12.00" fill="white">String.UnicodeScalarView</text>
</a>
</g>
</g>
<!-- CollectionType&#45;&gt;String.UnicodeScalarView -->
<g id="edge86" class="edge">
<path fill="none" stroke="#cccccc" d="M2152.91,-241.46C1916.6,-238.461 808.046,-222.992 741,-196 653.345,-160.711 579.183,-69.8418 550.128,-30.554"/>
<polygon fill="#cccccc" stroke="#cccccc" points="552.735,-28.1879 544.026,-22.1548 547.072,-32.3023 552.735,-28.1879"/>
</g>
<!-- UnicodeScalar.UTF16View -->
<g id="node55" class="node">
<g id="a_node55"><a xlink:href="/swift-2/type/UnicodeScalar.UTF16View/" target="_top">
<polygon fill="#999999" stroke="#999999" points="3303.39,-22 3150.61,-22 3150.61,-0 3303.39,-0 3303.39,-22"/>
<text text-anchor="middle" x="3227" y="-7.4" font-family="Helvetica,sans-Serif" font-size="12.00" fill="white">UnicodeScalar.UTF16View</text>
</a>
</g>
</g>
<!-- CollectionType&#45;&gt;UnicodeScalar.UTF16View -->
<g id="edge81" class="edge">
<path fill="none" stroke="#cccccc" d="M2241.17,-239.565C2316.45,-234.849 2474.18,-222.51 2605,-196 2831.52,-150.096 3094.61,-59.5322 3190.05,-25.4207"/>
<polygon fill="#cccccc" stroke="#cccccc" points="3191.31,-28.6865 3199.54,-22.0157 3188.95,-22.0975 3191.31,-28.6865"/>
</g>
<!-- UnsafeBufferPointer -->
<g id="node56" class="node">
<g id="a_node56"><a xlink:href="/swift-2/type/UnsafeBufferPointer/" target="_top">
<polygon fill="#999999" stroke="#999999" points="3439.39,-22 3322.61,-22 3322.61,-0 3439.39,-0 3439.39,-22"/>
<text text-anchor="middle" x="3381" y="-7.4" font-family="Helvetica,sans-Serif" font-size="12.00" fill="white">UnsafeBufferPointer</text>
</a>
</g>
</g>
<!-- CollectionType&#45;&gt;UnsafeBufferPointer -->
<g id="edge82" class="edge">
<path fill="none" stroke="#cccccc" d="M2241.05,-239.965C2324.63,-235.602 2511.78,-223.426 2667,-196 2926.76,-150.102 3230.96,-58.8737 3339.75,-25.0315"/>
<polygon fill="#cccccc" stroke="#cccccc" points="3340.86,-28.3527 3349.36,-22.0329 3338.77,-21.6705 3340.86,-28.3527"/>
</g>
<!-- UnsafeMutableBufferPointer -->
<g id="node58" class="node">
<g id="a_node58"><a xlink:href="/swift-2/type/UnsafeMutableBufferPointer/" target="_top">
<polygon fill="#999999" stroke="#999999" points="1367.91,-22 1208.09,-22 1208.09,-0 1367.91,-0 1367.91,-22"/>
<text text-anchor="middle" x="1288" y="-7.4" font-family="Helvetica,sans-Serif" font-size="12.00" fill="white">UnsafeMutableBufferPointer</text>
</a>
</g>
</g>
<!-- CollectionType&#45;&gt;UnsafeMutableBufferPointer -->
<g id="edge83" class="edge">
<path fill="none" stroke="#cccccc" d="M2152.6,-237.578C2107.13,-231.945 2035.09,-219.917 1977,-196 1889.34,-159.909 1877.22,-132.072 1798,-80 1783.27,-70.3178 1781.62,-63.8847 1765,-58 1602.17,-0.330786 1549.85,-39.5388 1378,-22 1377.9,-21.9895 1377.79,-21.979 1377.69,-21.9685"/>
<polygon fill="#cccccc" stroke="#cccccc" points="1378.29,-18.5116 1367.98,-20.9618 1377.57,-25.4743 1378.29,-18.5116"/>
</g>
<!-- _ReverseCollectionType -->
<g id="node62" class="node">
<g id="a_node62"><a xlink:href="/swift-2/protocol/_ReverseCollectionType/" target="_top">
<path fill="#999999" stroke="#999999" d="M1748.72,-80C1748.72,-80 1623.28,-80 1623.28,-80 1619.61,-80 1615.95,-76.3333 1615.95,-72.6667 1615.95,-72.6667 1615.95,-65.3333 1615.95,-65.3333 1615.95,-61.6667 1619.61,-58 1623.28,-58 1623.28,-58 1748.72,-58 1748.72,-58 1752.39,-58 1756.05,-61.6667 1756.05,-65.3333 1756.05,-65.3333 1756.05,-72.6667 1756.05,-72.6667 1756.05,-76.3333 1752.39,-80 1748.72,-80"/>
<text text-anchor="middle" x="1686" y="-65.4" font-family="Helvetica,sans-Serif" font-size="12.00" fill="white">_ReverseCollectionType</text>
</a>
</g>
</g>
<!-- CollectionType&#45;&gt;_ReverseCollectionType -->
<g id="edge84" class="edge">
<path fill="none" stroke="#cccccc" d="M2152.75,-240.476C2064.02,-236.822 1867.73,-225.564 1808,-196 1757.98,-171.244 1717.05,-117.351 1697.83,-88.7318"/>
<polygon fill="#cccccc" stroke="#cccccc" points="1700.57,-86.5238 1692.17,-80.0735 1694.71,-90.3574 1700.57,-86.5238"/>
</g>
<!-- EmptyGenerator -->
<g id="node15" class="node">
<g id="a_node15"><a xlink:href="/swift-2/type/EmptyGenerator/" target="_top">
<polygon fill="#999999" stroke="#999999" points="3556.03,-22 3457.97,-22 3457.97,-0 3556.03,-0 3556.03,-22"/>
<text text-anchor="middle" x="3507" y="-7.4" font-family="Helvetica,sans-Serif" font-size="12.00" fill="white">EmptyGenerator</text>
</a>
</g>
</g>
<!-- EnumerateGenerator -->
<g id="node16" class="node">
<g id="a_node16"><a xlink:href="/swift-2/type/EnumerateGenerator/" target="_top">
<polygon fill="#999999" stroke="#999999" points="4436.05,-22 4313.95,-22 4313.95,-0 4436.05,-0 4436.05,-22"/>
<text text-anchor="middle" x="4375" y="-7.4" font-family="Helvetica,sans-Serif" font-size="12.00" fill="white">EnumerateGenerator</text>
</a>
</g>
</g>
<!-- EnumerateSequence -->
<g id="node17" class="node">
<g id="a_node17"><a xlink:href="/swift-2/type/EnumerateSequence/" target="_top">
<polygon fill="#999999" stroke="#999999" points="4577.06,-22 4454.94,-22 4454.94,-0 4577.06,-0 4577.06,-22"/>
<text text-anchor="middle" x="4516" y="-7.4" font-family="Helvetica,sans-Serif" font-size="12.00" fill="white">EnumerateSequence</text>
</a>
</g>
</g>
<!-- FlattenGenerator -->
<g id="node20" class="node">
<g id="a_node20"><a xlink:href="/swift-2/type/FlattenGenerator/" target="_top">
<polygon fill="#999999" stroke="#999999" points="4696.04,-22 4595.96,-22 4595.96,-0 4696.04,-0 4696.04,-22"/>
<text text-anchor="middle" x="4646" y="-7.4" font-family="Helvetica,sans-Serif" font-size="12.00" fill="white">FlattenGenerator</text>
</a>
</g>
</g>
<!-- FlattenSequence -->
<g id="node21" class="node">
<g id="a_node21"><a xlink:href="/swift-2/type/FlattenSequence/" target="_top">
<polygon fill="#999999" stroke="#999999" points="4815.05,-22 4714.95,-22 4714.95,-0 4815.05,-0 4815.05,-22"/>
<text text-anchor="middle" x="4765" y="-7.4" font-family="Helvetica,sans-Serif" font-size="12.00" fill="white">FlattenSequence</text>
</a>
</g>
</g>
<!-- GeneratorOfOne -->
<g id="node22" class="node">
<g id="a_node22"><a xlink:href="/swift-2/type/GeneratorOfOne/" target="_top">
<polygon fill="#999999" stroke="#999999" points="4932.53,-22 4833.47,-22 4833.47,-0 4932.53,-0 4932.53,-22"/>
<text text-anchor="middle" x="4883" y="-7.4" font-family="Helvetica,sans-Serif" font-size="12.00" fill="white">GeneratorOfOne</text>
</a>
</g>
</g>
<!-- GeneratorSequence -->
<g id="node23" class="node">
<g id="a_node23"><a xlink:href="/swift-2/type/GeneratorSequence/" target="_top">
<polygon fill="#999999" stroke="#999999" points="5069.06,-22 4950.94,-22 4950.94,-0 5069.06,-0 5069.06,-22"/>
<text text-anchor="middle" x="5010" y="-7.4" font-family="Helvetica,sans-Serif" font-size="12.00" fill="white">GeneratorSequence</text>
</a>
</g>
</g>
<!-- IndexingGenerator -->
<g id="node24" class="node">
<g id="a_node24"><a xlink:href="/swift-2/type/IndexingGenerator/" target="_top">
<polygon fill="#999999" stroke="#999999" points="5196.55,-22 5087.45,-22 5087.45,-0 5196.55,-0 5196.55,-22"/>
<text text-anchor="middle" x="5142" y="-7.4" font-family="Helvetica,sans-Serif" font-size="12.00" fill="white">IndexingGenerator</text>
</a>
</g>
</g>
<!-- JoinSequence -->
<g id="node25" class="node">
<g id="a_node25"><a xlink:href="/swift-2/type/JoinSequence/" target="_top">
<polygon fill="#999999" stroke="#999999" points="5301.05,-22 5214.95,-22 5214.95,-0 5301.05,-0 5301.05,-22"/>
<text text-anchor="middle" x="5258" y="-7.4" font-family="Helvetica,sans-Serif" font-size="12.00" fill="white">JoinSequence</text>
</a>
</g>
</g>
<!-- LazyCollectionType&#45;&gt;LazyCollection -->
<g id="edge92" class="edge">
<path fill="none" stroke="#cccccc" d="M3629.5,-57.9883C3627.71,-50.8311 3625.24,-40.9547 3623.05,-32.1885"/>
<polygon fill="#cccccc" stroke="#cccccc" points="3626.4,-31.1564 3620.58,-22.3039 3619.61,-32.8542 3626.4,-31.1564"/>
</g>
<!-- LazyCollectionType&#45;&gt;LazyFilterCollection -->
<g id="edge93" class="edge">
<path fill="none" stroke="#cccccc" d="M3650.77,-57.9883C3667.02,-49.3223 3690.74,-36.6696 3709.2,-26.8283"/>
<polygon fill="#cccccc" stroke="#cccccc" points="3710.86,-29.908 3718.04,-22.1138 3707.57,-23.7315 3710.86,-29.908"/>
</g>
<!-- LazyCollectionType&#45;&gt;LazyMapCollection -->
<g id="edge94" class="edge">
<path fill="none" stroke="#cccccc" d="M3674.19,-57.9883C3713.84,-48.5809 3773.28,-34.4754 3815.88,-24.3685"/>
<polygon fill="#cccccc" stroke="#cccccc" points="3816.85,-27.7335 3825.78,-22.0192 3815.24,-20.9227 3816.85,-27.7335"/>
</g>
<!-- LazyFilterGenerator -->
<g id="node29" class="node">
<g id="a_node29"><a xlink:href="/swift-2/type/LazyFilterGenerator/" target="_top">
<polygon fill="#999999" stroke="#999999" points="5435.03,-22 5318.97,-22 5318.97,-0 5435.03,-0 5435.03,-22"/>
<text text-anchor="middle" x="5377" y="-7.4" font-family="Helvetica,sans-Serif" font-size="12.00" fill="white">LazyFilterGenerator</text>
</a>
</g>
</g>
<!-- LazyFilterSequence -->
<g id="node30" class="node">
<g id="a_node30"><a xlink:href="/swift-2/type/LazyFilterSequence/" target="_top">
<polygon fill="#999999" stroke="#999999" points="4296.05,-22 4179.95,-22 4179.95,-0 4296.05,-0 4296.05,-22"/>
<text text-anchor="middle" x="4238" y="-7.4" font-family="Helvetica,sans-Serif" font-size="12.00" fill="white">LazyFilterSequence</text>
</a>
</g>
</g>
<!-- LazyMapGenerator -->
<g id="node32" class="node">
<g id="a_node32"><a xlink:href="/swift-2/type/LazyMapGenerator/" target="_top">
<polygon fill="#999999" stroke="#999999" points="5565.04,-22 5452.96,-22 5452.96,-0 5565.04,-0 5565.04,-22"/>
<text text-anchor="middle" x="5509" y="-7.4" font-family="Helvetica,sans-Serif" font-size="12.00" fill="white">LazyMapGenerator</text>
</a>
</g>
</g>
<!-- LazyMapSequence -->
<g id="node33" class="node">
<g id="a_node33"><a xlink:href="/swift-2/type/LazyMapSequence/" target="_top">
<polygon fill="#999999" stroke="#999999" points="4054.05,-22 3941.95,-22 3941.95,-0 4054.05,-0 4054.05,-22"/>
<text text-anchor="middle" x="3998" y="-7.4" font-family="Helvetica,sans-Serif" font-size="12.00" fill="white">LazyMapSequence</text>
</a>
</g>
</g>
<!-- LazySequence -->
<g id="node34" class="node">
<g id="a_node34"><a xlink:href="/swift-2/type/LazySequence/" target="_top">
<polygon fill="#999999" stroke="#999999" points="4161.55,-22 4072.45,-22 4072.45,-0 4161.55,-0 4161.55,-22"/>
<text text-anchor="middle" x="4117" y="-7.4" font-family="Helvetica,sans-Serif" font-size="12.00" fill="white">LazySequence</text>
</a>
</g>
</g>
<!-- LazySequenceType -->
<g id="node35" class="node">
<g id="a_node35"><a xlink:href="/swift-2/protocol/LazySequenceType/" target="_top">
<path fill="#999999" stroke="#999999" d="M3962.23,-138C3962.23,-138 3861.77,-138 3861.77,-138 3858.11,-138 3854.44,-134.333 3854.44,-130.667 3854.44,-130.667 3854.44,-123.333 3854.44,-123.333 3854.44,-119.667 3858.11,-116 3861.77,-116 3861.77,-116 3962.23,-116 3962.23,-116 3965.89,-116 3969.56,-119.667 3969.56,-123.333 3969.56,-123.333 3969.56,-130.667 3969.56,-130.667 3969.56,-134.333 3965.89,-138 3962.23,-138"/>
<text text-anchor="middle" x="3912" y="-123.4" font-family="Helvetica,sans-Serif" font-size="12.00" fill="white">LazySequenceType</text>
</a>
</g>
</g>
<!-- LazySequenceType&#45;&gt;LazyCollection -->
<g id="edge117" class="edge">
<path fill="none" stroke="#cccccc" d="M3854.58,-122.446C3761.15,-116.072 3584.69,-101.34 3566,-80 3550.99,-62.8598 3572.61,-41.8609 3592.37,-27.7725"/>
<polygon fill="#cccccc" stroke="#cccccc" points="3594.57,-30.5083 3600.89,-22.0068 3590.65,-24.7099 3594.57,-30.5083"/>
</g>
<!-- LazySequenceType&#45;&gt;LazyCollectionType -->
<g id="edge118" class="edge">
<path fill="none" stroke="#cccccc" d="M3861.94,-115.988C3814.31,-106.462 3742.59,-92.1176 3691.93,-81.9866"/>
<polygon fill="#cccccc" stroke="#cccccc" points="3692.59,-78.5485 3682.1,-80.0192 3691.22,-85.4125 3692.59,-78.5485"/>
</g>
<!-- LazySequenceType&#45;&gt;LazyFilterCollection -->
<g id="edge119" class="edge">
<path fill="none" stroke="#cccccc" d="M3896.47,-115.883C3865.86,-95.9399 3797.53,-51.4281 3761.04,-27.6618"/>
<polygon fill="#cccccc" stroke="#cccccc" points="3762.78,-24.6198 3752.5,-22.0941 3758.96,-30.485 3762.78,-24.6198"/>
</g>
<!-- LazySequenceType&#45;&gt;LazyFilterSequence -->
<g id="edge120" class="edge">
<path fill="none" stroke="#cccccc" d="M3940.64,-115.983C3999.32,-95.4665 4133.19,-48.6515 4199.42,-25.4898"/>
<polygon fill="#cccccc" stroke="#cccccc" points="4200.79,-28.7214 4209.07,-22.1165 4198.48,-22.1137 4200.79,-28.7214"/>
</g>
<!-- LazySequenceType&#45;&gt;LazyMapCollection -->
<g id="edge121" class="edge">
<path fill="none" stroke="#cccccc" d="M3908.1,-115.883C3900.81,-97.0017 3885.02,-56.098 3875.58,-31.6272"/>
<polygon fill="#cccccc" stroke="#cccccc" points="3878.83,-30.3269 3871.96,-22.2579 3872.29,-32.8475 3878.83,-30.3269"/>
</g>
<!-- LazySequenceType&#45;&gt;LazyMapSequence -->
<g id="edge122" class="edge">
<path fill="none" stroke="#cccccc" d="M3914.6,-115.983C3918.58,-101.979 3927.22,-76.2217 3941,-58 3949.78,-46.3952 3962.09,-35.9751 3973.03,-27.9988"/>
<polygon fill="#cccccc" stroke="#cccccc" points="3975.22,-30.7419 3981.42,-22.1499 3971.21,-25.0007 3975.22,-30.7419"/>
</g>
<!-- LazySequenceType&#45;&gt;LazySequence -->
<g id="edge123" class="edge">
<path fill="none" stroke="#cccccc" d="M3930.01,-115.8C3953.61,-102.445 3996.34,-78.3406 4033,-58 4051.72,-47.6162 4072.85,-36.0434 4089.24,-27.1033"/>
<polygon fill="#cccccc" stroke="#cccccc" points="4091.18,-30.0317 4098.28,-22.1726 4087.83,-23.8855 4091.18,-30.0317"/>
</g>
<!-- MutableCollectionType&#45;&gt;Array -->
<g id="edge95" class="edge">
<path fill="none" stroke="#cccccc" d="M1266.57,-178.804C1203.38,-172.727 1105.41,-160.501 1023,-138 989.919,-128.967 901.941,-106.354 880,-80 868.938,-66.7131 865.877,-46.9677 865.324,-32.1725"/>
<polygon fill="#cccccc" stroke="#cccccc" points="868.824,-32.0037 865.299,-22.0124 861.824,-32.0211 868.824,-32.0037"/>
</g>
<!-- MutableCollectionType&#45;&gt;ArraySlice -->
<g id="edge96" class="edge">
<path fill="none" stroke="#cccccc" d="M1314.32,-173.876C1274.14,-151.137 1172.51,-95.1041 1083,-58 1050.8,-44.6505 1013.21,-32.4794 985.094,-24.0145"/>
<polygon fill="#cccccc" stroke="#cccccc" points="985.775,-20.5655 975.192,-21.0682 983.779,-27.2748 985.775,-20.5655"/>
</g>
<!-- MutableCollectionType&#45;&gt;ContiguousArray -->
<g id="edge97" class="edge">
<path fill="none" stroke="#cccccc" d="M1328.67,-173.914C1320.15,-149.721 1295.09,-88.1707 1252,-58 1239.73,-49.4059 1159.93,-33.3774 1102.59,-22.6964"/>
<polygon fill="#cccccc" stroke="#cccccc" points="1102.99,-19.2116 1092.52,-20.8331 1101.72,-26.0947 1102.99,-19.2116"/>
</g>
<!-- MutableCollectionType&#45;&gt;MutableSlice -->
<g id="edge98" class="edge">
<path fill="none" stroke="#cccccc" d="M1331.59,-173.933C1330.07,-150.315 1323.01,-90.8647 1290,-58 1276.92,-44.9793 1234.13,-32.0261 1199.26,-23.199"/>
<polygon fill="#cccccc" stroke="#cccccc" points="1199.75,-19.7148 1189.2,-20.7095 1198.07,-26.5097 1199.75,-19.7148"/>
</g>
<!-- MutableCollectionType&#45;&gt;MutableSliceable -->
<g id="edge99" class="edge">
<path fill="none" stroke="#cccccc" d="M1287.48,-173.988C1245.48,-164.541 1182.41,-150.356 1137.43,-140.241"/>
<polygon fill="#cccccc" stroke="#cccccc" points="1138.07,-136.799 1127.55,-138.019 1136.54,-143.628 1138.07,-136.799"/>
</g>
<!-- MutableCollectionType&#45;&gt;UnsafeMutableBufferPointer -->
<g id="edge100" class="edge">
<path fill="none" stroke="#cccccc" d="M1390.93,-173.984C1429.91,-164.369 1470.97,-146.656 1454,-116 1428.06,-69.1337 1371.2,-40.5678 1331.28,-25.5248"/>
<polygon fill="#cccccc" stroke="#cccccc" points="1332.38,-22.1986 1321.78,-22.077 1329.99,-28.7787 1332.38,-22.1986"/>
</g>
<!-- _ArrayBufferType -->
<g id="node60" class="node">
<g id="a_node60"><a xlink:href="/swift-2/protocol/_ArrayBufferType/" target="_top">
<path fill="#999999" stroke="#999999" d="M1438.04,-138C1438.04,-138 1349.96,-138 1349.96,-138 1346.29,-138 1342.62,-134.333 1342.62,-130.667 1342.62,-130.667 1342.62,-123.333 1342.62,-123.333 1342.62,-119.667 1346.29,-116 1349.96,-116 1349.96,-116 1438.04,-116 1438.04,-116 1441.71,-116 1445.38,-119.667 1445.38,-123.333 1445.38,-123.333 1445.38,-130.667 1445.38,-130.667 1445.38,-134.333 1441.71,-138 1438.04,-138"/>
<text text-anchor="middle" x="1394" y="-123.4" font-family="Helvetica,sans-Serif" font-size="12.00" fill="white">_ArrayBufferType</text>
</a>
</g>
</g>
<!-- MutableCollectionType&#45;&gt;_ArrayBufferType -->
<g id="edge101" class="edge">
<path fill="none" stroke="#cccccc" d="M1343.08,-173.988C1351.97,-165.966 1364.63,-154.527 1375.11,-145.065"/>
<polygon fill="#cccccc" stroke="#cccccc" points="1377.52,-147.604 1382.59,-138.304 1372.83,-142.409 1377.52,-147.604"/>
</g>
<!-- MutableSliceable&#45;&gt;Array -->
<g id="edge102" class="edge">
<path fill="none" stroke="#cccccc" d="M1032.27,-117.98C985.76,-109.787 921.157,-96.0188 901,-80 885.798,-67.9185 876.542,-47.4478 871.4,-32.1163"/>
<polygon fill="#cccccc" stroke="#cccccc" points="874.731,-31.0401 868.475,-22.4895 868.034,-33.0751 874.731,-31.0401"/>
</g>
<!-- MutableSliceable&#45;&gt;ArraySlice -->
<g id="edge103" class="edge">
<path fill="none" stroke="#cccccc" d="M1082.56,-115.879C1081.39,-101.274 1077.17,-74.2618 1062,-58 1051.11,-46.3231 1014.73,-33.2059 985.032,-23.9759"/>
<polygon fill="#cccccc" stroke="#cccccc" points="985.849,-20.5662 975.263,-21.0024 983.811,-27.2628 985.849,-20.5662"/>
</g>
<!-- MutableSliceable&#45;&gt;ContiguousArray -->
<g id="edge104" class="edge">
<path fill="none" stroke="#cccccc" d="M1089.65,-115.89C1097.74,-102.218 1109.24,-77.3232 1100,-58 1093.99,-45.4164 1082.66,-35.1717 1071.68,-27.5716"/>
<polygon fill="#cccccc" stroke="#cccccc" points="1073.37,-24.4947 1063.06,-22.0492 1069.59,-30.3896 1073.37,-24.4947"/>
</g>
<!-- _ArrayType -->
<g id="node61" class="node">
<g id="a_node61"><a xlink:href="/swift-2/protocol/_ArrayType/" target="_top">
<path fill="#999999" stroke="#999999" d="M974.19,-80C974.19,-80 917.81,-80 917.81,-80 914.144,-80 910.477,-76.3333 910.477,-72.6667 910.477,-72.6667 910.477,-65.3333 910.477,-65.3333 910.477,-61.6667 914.144,-58 917.81,-58 917.81,-58 974.19,-58 974.19,-58 977.856,-58 981.523,-61.6667 981.523,-65.3333 981.523,-65.3333 981.523,-72.6667 981.523,-72.6667 981.523,-76.3333 977.856,-80 974.19,-80"/>
<text text-anchor="middle" x="946" y="-65.4" font-family="Helvetica,sans-Serif" font-size="12.00" fill="white">_ArrayType</text>
</a>
</g>
</g>
<!-- MutableSliceable&#45;&gt;_ArrayType -->
<g id="edge105" class="edge">
<path fill="none" stroke="#cccccc" d="M1058.51,-115.988C1036.73,-107.085 1004.65,-93.9733 980.313,-84.0259"/>
<polygon fill="#cccccc" stroke="#cccccc" points="981.324,-80.6578 970.743,-80.1138 978.675,-87.1374 981.324,-80.6578"/>
</g>
<!-- PermutationGenerator -->
<g id="node39" class="node">
<g id="a_node39"><a xlink:href="/swift-2/type/PermutationGenerator/" target="_top">
<polygon fill="#999999" stroke="#999999" points="5712.05,-22 5583.95,-22 5583.95,-0 5712.05,-0 5712.05,-22"/>
<text text-anchor="middle" x="5648" y="-7.4" font-family="Helvetica,sans-Serif" font-size="12.00" fill="white">PermutationGenerator</text>
</a>
</g>
</g>
<!-- RangeGenerator -->
<g id="node41" class="node">
<g id="a_node41"><a xlink:href="/swift-2/type/RangeGenerator/" target="_top">
<polygon fill="#999999" stroke="#999999" points="5829.54,-22 5730.46,-22 5730.46,-0 5829.54,-0 5829.54,-22"/>
<text text-anchor="middle" x="5780" y="-7.4" font-family="Helvetica,sans-Serif" font-size="12.00" fill="white">RangeGenerator</text>
</a>
</g>
</g>
<!-- RangeReplaceableCollectionType&#45;&gt;Array -->
<g id="edge109" class="edge">
<path fill="none" stroke="#cccccc" d="M825.812,-115.783C806.614,-102.987 779.74,-80.0562 792,-58 800.139,-43.3578 815.084,-32.7756 829.423,-25.4808"/>
<polygon fill="#cccccc" stroke="#cccccc" points="831.105,-28.5582 838.682,-21.1522 828.14,-22.2171 831.105,-28.5582"/>
</g>
<!-- RangeReplaceableCollectionType&#45;&gt;ArraySlice -->
<g id="edge110" class="edge">
<path fill="none" stroke="#cccccc" d="M851.541,-115.77C862.761,-102.382 883.135,-78.2429 901,-58 909.351,-48.5376 918.816,-38.1428 926.645,-29.6322"/>
<polygon fill="#cccccc" stroke="#cccccc" points="929.348,-31.8639 933.559,-22.1418 924.204,-27.116 929.348,-31.8639"/>
</g>
<!-- RangeReplaceableCollectionType&#45;&gt;ContiguousArray -->
<g id="edge111" class="edge">
<path fill="none" stroke="#cccccc" d="M902.486,-115.978C930.806,-109.151 964.064,-97.9731 990,-80 1008.34,-67.2917 1023.29,-46.3278 1032.58,-31.0311"/>
<polygon fill="#cccccc" stroke="#cccccc" points="1035.62,-32.7688 1037.62,-22.3635 1029.57,-29.2535 1035.62,-32.7688"/>
</g>
<!-- RangeReplaceableCollectionType&#45;&gt;String.CharacterView -->
<g id="edge113" class="edge">
<path fill="none" stroke="#cccccc" d="M802.581,-115.983C718.584,-95.1665 525.344,-47.2767 433.394,-24.489"/>
<polygon fill="#cccccc" stroke="#cccccc" points="434.04,-21.0432 423.491,-22.0348 432.356,-27.8376 434.04,-21.0432"/>
</g>
<!-- RangeReplaceableCollectionType&#45;&gt;String.UnicodeScalarView -->
<g id="edge114" class="edge">
<path fill="none" stroke="#cccccc" d="M816.113,-115.983C761.155,-95.5086 635.896,-48.8436 573.593,-25.6328"/>
<polygon fill="#cccccc" stroke="#cccccc" points="574.748,-22.3279 564.155,-22.1165 572.304,-28.8875 574.748,-22.3279"/>
</g>
<!-- RangeReplaceableCollectionType&#45;&gt;_ArrayType -->
<g id="edge112" class="edge">
<path fill="none" stroke="#cccccc" d="M861.414,-115.988C877.281,-107.362 900.413,-94.785 918.478,-84.9633"/>
<polygon fill="#cccccc" stroke="#cccccc" points="920.284,-87.9653 927.398,-80.1138 916.941,-81.8155 920.284,-87.9653"/>
</g>
<!-- SequenceType -->
<g id="node46" class="node">
<g id="a_node46"><a xlink:href="/swift-2/protocol/SequenceType/" target="_top">
<path fill="#ee543d" stroke="#ee543d" d="M3163.72,-312C3163.72,-312 3088.28,-312 3088.28,-312 3084.62,-312 3080.95,-308.333 3080.95,-304.667 3080.95,-304.667 3080.95,-297.333 3080.95,-297.333 3080.95,-293.667 3084.62,-290 3088.28,-290 3088.28,-290 3163.72,-290 3163.72,-290 3167.38,-290 3171.05,-293.667 3171.05,-297.333 3171.05,-297.333 3171.05,-304.667 3171.05,-304.667 3171.05,-308.333 3167.38,-312 3163.72,-312"/>
<text text-anchor="middle" x="3126" y="-297.4" font-family="Helvetica,sans-Serif" font-size="12.00" fill="white">SequenceType</text>
</a>
</g>
</g>
<!-- SequenceType&#45;&gt;AnyBidirectionalCollection -->
<g id="edge1" class="edge">
<path fill="none" stroke="#cccccc" d="M3080.9,-299.938C2880.42,-299.427 2068.91,-294.828 1818,-254 1712.79,-236.88 1588,-292.596 1588,-186 1588,-186 1588,-186 1588,-126 1588,-93.9507 1585.73,-81.5584 1564,-58 1550.09,-42.9216 1530.32,-32.4813 1511.82,-25.4079"/>
<polygon fill="#cccccc" stroke="#cccccc" points="1512.89,-22.0736 1502.29,-22.0092 1510.53,-28.6664 1512.89,-22.0736"/>
</g>
<!-- SequenceType&#45;&gt;AnyForwardCollection -->
<g id="edge2" class="edge">
<path fill="none" stroke="#cccccc" d="M3080.62,-299.737C2858.85,-298.281 1897.67,-289.913 1846,-254 1768.6,-200.203 1804.1,-143.764 1765,-58 1760.94,-49.1053 1756.15,-39.405 1751.99,-31.2151"/>
<polygon fill="#cccccc" stroke="#cccccc" points="1755.01,-29.4269 1747.33,-22.13 1748.78,-32.6245 1755.01,-29.4269"/>
</g>
<!-- SequenceType&#45;&gt;AnyGenerator -->
<g id="edge3" class="edge">
<path fill="none" stroke="#cccccc" d="M3080.83,-299.91C2719.99,-299.113 315.071,-292.372 168,-254 106.426,-237.935 42,-249.635 42,-186 42,-186 42,-186 42,-126 42,-93.1536 42,-54.9837 42,-32.197"/>
<polygon fill="#cccccc" stroke="#cccccc" points="45.5001,-32.0648 42,-22.0648 38.5001,-32.0648 45.5001,-32.0648"/>
</g>
<!-- SequenceType&#45;&gt;AnyRandomAccessCollection -->
<g id="edge4" class="edge">
<path fill="none" stroke="#cccccc" d="M3080.74,-299.14C2893.05,-295.412 2183.8,-279.674 2144,-254 2061.82,-200.988 2118.07,-121.855 2044,-58 2025.54,-42.0886 2001.37,-31.6293 1978.48,-24.7755"/>
<polygon fill="#cccccc" stroke="#cccccc" points="1979.34,-21.3819 1968.77,-22.0535 1977.45,-28.1222 1979.34,-21.3819"/>
</g>
<!-- SequenceType&#45;&gt;AnySequence -->
<g id="edge5" class="edge">
<path fill="none" stroke="#cccccc" d="M3080.89,-299.846C2728.11,-298.569 421.776,-288.903 280,-254 214.766,-237.94 145,-253.182 145,-186 145,-186 145,-186 145,-126 145,-93.1536 145,-54.9837 145,-32.197"/>
<polygon fill="#cccccc" stroke="#cccccc" points="148.5,-32.0648 145,-22.0648 141.5,-32.0648 148.5,-32.0648"/>
</g>
<!-- SequenceType&#45;&gt;Array -->
<g id="edge6" class="edge">
<path fill="none" stroke="#cccccc" d="M3080.91,-299.854C2770.61,-298.752 960.548,-290.761 851,-254 773.944,-228.142 722.057,-196.785 731,-116 733.907,-89.743 726.673,-77.9413 744,-58 749.895,-51.2155 795.433,-35.144 829.156,-23.9201"/>
<polygon fill="#cccccc" stroke="#cccccc" points="830.35,-27.2117 838.747,-20.7516 828.154,-20.565 830.35,-27.2117"/>
</g>
<!-- SequenceType&#45;&gt;ArraySlice -->
<g id="edge7" class="edge">
<path fill="none" stroke="#cccccc" d="M3080.88,-299.923C2836.59,-299.343 1670.04,-294.468 1312,-254 1053.81,-224.818 903.495,-339.133 739,-138 732.81,-130.431 733.892,-124.337 739,-116 757.769,-85.3649 851.731,-46.1445 905.348,-25.7342"/>
<polygon fill="#cccccc" stroke="#cccccc" points="906.74,-28.9502 914.863,-22.1484 904.271,-22.3999 906.74,-28.9502"/>
</g>
<!-- SequenceType&#45;&gt;CollectionOfOne -->
<g id="edge8" class="edge">
<path fill="none" stroke="#cccccc" d="M3080.71,-299.81C2724.15,-298.251 381.217,-286.768 317,-254 283.35,-236.829 266,-223.778 266,-186 266,-186 266,-186 266,-126 266,-92.9721 260.957,-54.856 257.409,-32.1297"/>
<polygon fill="#cccccc" stroke="#cccccc" points="260.827,-31.3381 255.771,-22.0275 253.917,-32.4589 260.827,-31.3381"/>
</g>
<!-- SequenceType&#45;&gt;CollectionType -->
<g id="edge9" class="edge">
<path fill="none" stroke="#cccccc" d="M3080.88,-297.28C2926.32,-287.963 2418.56,-257.355 2251.1,-247.261"/>
<polygon fill="#cccccc" stroke="#cccccc" points="2251.23,-243.763 2241.04,-246.655 2250.81,-250.75 2251.23,-243.763"/>
</g>
<!-- SequenceType&#45;&gt;ContiguousArray -->
<g id="edge10" class="edge">
<path fill="none" stroke="#cccccc" d="M3080.83,-299.716C2854.44,-298.138 1841.67,-289.201 1529,-254 1397.08,-239.149 1350.86,-262.563 1236,-196 1165.68,-155.245 1177.71,-110.898 1116,-58 1102.29,-46.2437 1085.29,-35.3564 1071.16,-27.1279"/>
<polygon fill="#cccccc" stroke="#cccccc" points="1072.76,-24.0163 1062.34,-22.1221 1069.31,-30.1034 1072.76,-24.0163"/>
</g>
<!-- SequenceType&#45;&gt;Dictionary -->
<g id="edge11" class="edge">
<path fill="none" stroke="#cccccc" d="M3080.72,-299.203C3001.96,-296.918 2835.16,-288.09 2699,-254 2473.07,-197.434 2433.96,-131.62 2213,-58 2188.77,-49.9285 2124.37,-33.2656 2081.35,-22.3666"/>
<polygon fill="#cccccc" stroke="#cccccc" points="2082,-18.9209 2071.44,-19.8639 2080.28,-25.7075 2082,-18.9209"/>
</g>
<!-- SequenceType&#45;&gt;DictionaryLiteral -->
<g id="edge12" class="edge">
<path fill="none" stroke="#cccccc" d="M3080.95,-297.987C3013.11,-294.096 2881.15,-283.174 2773,-254 2555.67,-195.376 2518.78,-131.433 2306,-58 2267.92,-44.8575 2223.98,-32.9365 2190.59,-24.5246"/>
<polygon fill="#cccccc" stroke="#cccccc" points="2191.13,-21.0532 2180.58,-22.0293 2189.44,-27.8452 2191.13,-21.0532"/>
</g>
<!-- SequenceType&#45;&gt;EmptyCollection -->
<g id="edge13" class="edge">
<path fill="none" stroke="#cccccc" d="M3080.89,-296.096C3023.59,-290.39 2922.05,-277.766 2838,-254 2773.19,-235.674 2759.97,-222.367 2698,-196 2556.98,-136.003 2524.55,-114.264 2382,-58 2352.08,-46.1926 2317.77,-34.1102 2291.91,-25.2928"/>
<polygon fill="#cccccc" stroke="#cccccc" points="2293.03,-21.9781 2282.44,-22.0807 2290.78,-28.6072 2293.03,-21.9781"/>
</g>
<!-- SequenceType&#45;&gt;EmptyGenerator -->
<g id="edge14" class="edge">
<path fill="none" stroke="#cccccc" d="M3171.2,-296.56C3209.51,-291.83 3264.51,-280.607 3305,-254 3397.13,-193.463 3382.4,-139.158 3457,-58 3466.38,-47.791 3477.69,-37.2575 3487.18,-28.8506"/>
<polygon fill="#cccccc" stroke="#cccccc" points="3489.72,-31.2818 3494.96,-22.0717 3485.12,-26.0057 3489.72,-31.2818"/>
</g>
<!-- SequenceType&#45;&gt;EnumerateGenerator -->
<g id="edge15" class="edge">
<path fill="none" stroke="#cccccc" d="M3171.08,-299.086C3338.15,-295.509 3921.93,-281.302 4106,-254 4227.98,-235.907 4375,-309.316 4375,-186 4375,-186 4375,-186 4375,-126 4375,-93.1536 4375,-54.9837 4375,-32.197"/>
<polygon fill="#cccccc" stroke="#cccccc" points="4378.5,-32.0648 4375,-22.0648 4371.5,-32.0648 4378.5,-32.0648"/>
</g>
<!-- SequenceType&#45;&gt;EnumerateSequence -->
<g id="edge16" class="edge">
<path fill="none" stroke="#cccccc" d="M3171.23,-299.398C3353.53,-296.777 4034.83,-285.07 4248,-254 4369.6,-236.277 4516,-308.885 4516,-186 4516,-186 4516,-186 4516,-126 4516,-93.1536 4516,-54.9837 4516,-32.197"/>
<polygon fill="#cccccc" stroke="#cccccc" points="4519.5,-32.0648 4516,-22.0648 4512.5,-32.0648 4519.5,-32.0648"/>
</g>
<!-- SequenceType&#45;&gt;FlattenBidirectionalCollection -->
<g id="edge17" class="edge">
<path fill="none" stroke="#cccccc" d="M3080.84,-290.373C3046.13,-282.356 2997.29,-269.727 2956,-254 2773.68,-184.549 2568.65,-68.5197 2497.74,-27.1897"/>
<polygon fill="#cccccc" stroke="#cccccc" points="2499.41,-24.1136 2489.01,-22.0855 2495.88,-30.1558 2499.41,-24.1136"/>
</g>
<!-- SequenceType&#45;&gt;FlattenCollection -->
<g id="edge18" class="edge">
<path fill="none" stroke="#cccccc" d="M3092,-289.968C3065.92,-281.736 3029.38,-269.016 2999,-254 2855.72,-183.173 2699.53,-70.1104 2643.49,-28.2643"/>
<polygon fill="#cccccc" stroke="#cccccc" points="2645.48,-25.3769 2635.38,-22.1771 2641.28,-30.977 2645.48,-25.3769"/>
</g>
<!-- SequenceType&#45;&gt;FlattenGenerator -->
<g id="edge19" class="edge">
<path fill="none" stroke="#cccccc" d="M3171.19,-299.706C3367.56,-298.222 4147.7,-290.126 4390,-254 4506.44,-236.64 4646,-303.723 4646,-186 4646,-186 4646,-186 4646,-126 4646,-93.1536 4646,-54.9837 4646,-32.197"/>
<polygon fill="#cccccc" stroke="#cccccc" points="4649.5,-32.0648 4646,-22.0648 4642.5,-32.0648 4649.5,-32.0648"/>
</g>
<!-- SequenceType&#45;&gt;FlattenSequence -->
<g id="edge20" class="edge">
<path fill="none" stroke="#cccccc" d="M3171.07,-299.998C3380.04,-299.76 4255.85,-296.218 4526,-254 4635.11,-236.948 4765,-296.438 4765,-186 4765,-186 4765,-186 4765,-126 4765,-93.1536 4765,-54.9837 4765,-32.197"/>
<polygon fill="#cccccc" stroke="#cccccc" points="4768.5,-32.0648 4765,-22.0648 4761.5,-32.0648 4768.5,-32.0648"/>
</g>
<!-- SequenceType&#45;&gt;GeneratorOfOne -->
<g id="edge21" class="edge">
<path fill="none" stroke="#cccccc" d="M3171.07,-300.203C3391.43,-300.956 4356.74,-301.442 4653,-254 4758.26,-237.145 4883,-292.596 4883,-186 4883,-186 4883,-186 4883,-126 4883,-93.1536 4883,-54.9837 4883,-32.197"/>
<polygon fill="#cccccc" stroke="#cccccc" points="4886.5,-32.0648 4883,-22.0648 4879.5,-32.0648 4886.5,-32.0648"/>
</g>
<!-- SequenceType&#45;&gt;GeneratorSequence -->
<g id="edge22" class="edge">
<path fill="none" stroke="#cccccc" d="M3171.2,-300.294C3402.38,-301.56 4454.13,-304.406 4776,-254 4883,-237.244 5010,-294.302 5010,-186 5010,-186 5010,-186 5010,-126 5010,-93.1536 5010,-54.9837 5010,-32.197"/>
<polygon fill="#cccccc" stroke="#cccccc" points="5013.5,-32.0648 5010,-22.0648 5006.5,-32.0648 5013.5,-32.0648"/>
</g>
<!-- SequenceType&#45;&gt;IndexingGenerator -->
<g id="edge23" class="edge">
<path fill="none" stroke="#cccccc" d="M3171.33,-299.497C3431.06,-296.523 4724.74,-280.475 4900,-254 5010.47,-237.313 5142,-297.721 5142,-186 5142,-186 5142,-186 5142,-126 5142,-93.1536 5142,-54.9837 5142,-32.197"/>
<polygon fill="#cccccc" stroke="#cccccc" points="5145.5,-32.0648 5142,-22.0648 5138.5,-32.0648 5145.5,-32.0648"/>
</g>
<!-- SequenceType&#45;&gt;JoinSequence -->
<g id="edge24" class="edge">
<path fill="none" stroke="#cccccc" d="M3171.04,-299.62C3441.03,-297.251 4839.46,-283.619 5028,-254 5133.3,-237.457 5258,-292.596 5258,-186 5258,-186 5258,-186 5258,-126 5258,-93.1536 5258,-54.9837 5258,-32.197"/>
<polygon fill="#cccccc" stroke="#cccccc" points="5261.5,-32.0648 5258,-22.0648 5254.5,-32.0648 5261.5,-32.0648"/>
</g>
<!-- SequenceType&#45;&gt;LazyCollection -->
<g id="edge25" class="edge">
<path fill="none" stroke="#cccccc" d="M3171.1,-294.713C3264.62,-282.493 3471,-248.45 3471,-186 3471,-186 3471,-186 3471,-126 3471,-73.4561 3530.37,-41.6543 3573.65,-25.4525"/>
<polygon fill="#cccccc" stroke="#cccccc" points="3574.93,-28.7121 3583.16,-22.0419 3572.57,-22.1229 3574.93,-28.7121"/>
</g>
<!-- SequenceType&#45;&gt;LazyFilterCollection -->
<g id="edge26" class="edge">
<path fill="none" stroke="#cccccc" d="M3171.39,-296.052C3309.78,-283.415 3717,-241.513 3717,-186 3717,-186 3717,-186 3717,-126 3717,-92.6723 3725.4,-54.6773 3731.31,-32.0524"/>
<polygon fill="#cccccc" stroke="#cccccc" points="3734.72,-32.8357 3733.96,-22.2681 3727.97,-31.0024 3734.72,-32.8357"/>
</g>
<!-- SequenceType&#45;&gt;LazyFilterGenerator -->
<g id="edge27" class="edge">
<path fill="none" stroke="#cccccc" d="M3171.2,-299.703C3451.74,-297.765 4949.67,-285.972 5151,-254 5254.59,-237.549 5377,-290.893 5377,-186 5377,-186 5377,-186 5377,-126 5377,-93.1536 5377,-54.9837 5377,-32.197"/>
<polygon fill="#cccccc" stroke="#cccccc" points="5380.5,-32.0648 5377,-22.0648 5373.5,-32.0648 5380.5,-32.0648"/>
</g>
<!-- SequenceType&#45;&gt;LazyFilterSequence -->
<g id="edge28" class="edge">
<path fill="none" stroke="#cccccc" d="M3171.07,-300.058C3375.66,-299.737 4207,-291.916 4207,-186 4207,-186 4207,-186 4207,-126 4207,-91.827 4220.13,-53.8473 4229.3,-31.4911"/>
<polygon fill="#cccccc" stroke="#cccccc" points="4232.59,-32.6939 4233.29,-22.1221 4226.15,-29.9506 4232.59,-32.6939"/>
</g>
<!-- SequenceType&#45;&gt;LazyMapCollection -->
<g id="edge29" class="edge">
<path fill="none" stroke="#cccccc" d="M3171.12,-299.694C3254.35,-298.207 3437.15,-290.63 3586,-254 3653,-237.513 3675.29,-238.035 3730,-196 3791.07,-149.081 3838.45,-68.4213 3858.1,-31.4914"/>
<polygon fill="#cccccc" stroke="#cccccc" points="3861.38,-32.7841 3862.9,-22.2993 3855.17,-29.5457 3861.38,-32.7841"/>
</g>
<!-- SequenceType&#45;&gt;LazyMapGenerator -->
<g id="edge30" class="edge">
<path fill="none" stroke="#cccccc" d="M3171.47,-299.722C3462.27,-297.853 5056,-286.194 5270,-254 5379.21,-237.57 5509,-296.438 5509,-186 5509,-186 5509,-186 5509,-126 5509,-93.1536 5509,-54.9837 5509,-32.197"/>
<polygon fill="#cccccc" stroke="#cccccc" points="5512.5,-32.0648 5509,-22.0648 5505.5,-32.0648 5512.5,-32.0648"/>
</g>
<!-- SequenceType&#45;&gt;LazyMapSequence -->
<g id="edge31" class="edge">
<path fill="none" stroke="#cccccc" d="M3171.48,-299.636C3311.58,-298.127 3735.03,-290.581 3867,-254 3930.22,-236.478 3998,-251.599 3998,-186 3998,-186 3998,-186 3998,-126 3998,-93.1536 3998,-54.9837 3998,-32.197"/>
<polygon fill="#cccccc" stroke="#cccccc" points="4001.5,-32.0648 3998,-22.0648 3994.5,-32.0648 4001.5,-32.0648"/>
</g>
<!-- SequenceType&#45;&gt;LazySequence -->
<g id="edge32" class="edge">
<path fill="none" stroke="#cccccc" d="M3171.21,-299.319C3319.02,-296.798 3786.83,-286.397 3934,-254 4014.28,-236.328 4106,-268.202 4106,-186 4106,-186 4106,-186 4106,-126 4106,-93.001 4110.62,-54.8764 4113.87,-32.1404"/>
<polygon fill="#cccccc" stroke="#cccccc" points="4117.37,-32.4393 4115.38,-22.0334 4110.44,-31.4103 4117.37,-32.4393"/>
</g>
<!-- SequenceType&#45;&gt;LazySequenceType -->
<g id="edge33" class="edge">
<path fill="none" stroke="#cccccc" d="M3171.23,-299.552C3319.33,-297.749 3783.43,-289.31 3840,-254 3878.66,-229.869 3898.64,-176.93 3907.03,-147.943"/>
<polygon fill="#cccccc" stroke="#cccccc" points="3910.45,-148.683 3909.69,-138.116 3903.7,-146.851 3910.45,-148.683"/>
</g>
<!-- SequenceType&#45;&gt;MutableSlice -->
<g id="edge34" class="edge">
<path fill="none" stroke="#cccccc" d="M3080.61,-299.749C2830.74,-298.229 1631.47,-289.121 1562,-254 1492.49,-218.861 1516.13,-162.964 1454,-116 1413.01,-85.0165 1273.58,-44.767 1198.62,-24.6338"/>
<polygon fill="#cccccc" stroke="#cccccc" points="1199.49,-21.2442 1188.93,-22.0463 1197.69,-28.0074 1199.49,-21.2442"/>
</g>
<!-- SequenceType&#45;&gt;PermutationGenerator -->
<g id="edge35" class="edge">
<path fill="none" stroke="#cccccc" d="M3171.22,-299.748C3471.24,-297.988 5169.37,-286.637 5397,-254 5511.41,-237.596 5648,-301.577 5648,-186 5648,-186 5648,-186 5648,-126 5648,-93.1536 5648,-54.9837 5648,-32.197"/>
<polygon fill="#cccccc" stroke="#cccccc" points="5651.5,-32.0648 5648,-22.0648 5644.5,-32.0648 5651.5,-32.0648"/>
</g>
<!-- SequenceType&#45;&gt;Range -->
<g id="edge36" class="edge">
<path fill="none" stroke="#cccccc" d="M3080.86,-293.564C3035.3,-286.401 2963.25,-273.244 2903,-254 2697.13,-188.247 2656.99,-142.305 2458,-58 2431.84,-46.9156 2402.06,-34.8167 2379.65,-25.8102"/>
<polygon fill="#cccccc" stroke="#cccccc" points="2380.8,-22.5014 2370.22,-22.0283 2378.2,-28.9986 2380.8,-22.5014"/>
</g>
<!-- SequenceType&#45;&gt;RangeGenerator -->
<g id="edge37" class="edge">
<path fill="none" stroke="#cccccc" d="M3171.37,-299.808C3481.97,-298.401 5289.32,-288.763 5531,-254 5644.55,-237.667 5780,-300.719 5780,-186 5780,-186 5780,-186 5780,-126 5780,-93.1536 5780,-54.9837 5780,-32.197"/>
<polygon fill="#cccccc" stroke="#cccccc" points="5783.5,-32.0648 5780,-22.0648 5776.5,-32.0648 5783.5,-32.0648"/>
</g>
<!-- SequenceType&#45;&gt;Repeat -->
<g id="edge38" class="edge">
<path fill="none" stroke="#cccccc" d="M3103.58,-289.897C3085,-281.207 3058.14,-267.905 3036,-254 2916.04,-178.669 2784.95,-69.9395 2736.44,-28.7051"/>
<polygon fill="#cccccc" stroke="#cccccc" points="2738.5,-25.8581 2728.62,-22.0296 2733.95,-31.1831 2738.5,-25.8581"/>
</g>
<!-- SequenceType&#45;&gt;ReverseCollection -->
<g id="edge39" class="edge">
<path fill="none" stroke="#cccccc" d="M3080.96,-299.238C2910.53,-296.156 2305.25,-283.345 2115,-254 1999.08,-236.12 1860,-303.294 1860,-186 1860,-186 1860,-186 1860,-126 1860,-84.4974 1831.87,-78.8813 1796,-58 1774.79,-45.653 1716.75,-32.4993 1670.53,-23.4343"/>
<polygon fill="#cccccc" stroke="#cccccc" points="1671.05,-19.9698 1660.57,-21.5068 1669.72,-26.8424 1671.05,-19.9698"/>
</g>
<!-- SequenceType&#45;&gt;ReverseRandomAccessCollection -->
<g id="edge40" class="edge">
<path fill="none" stroke="#cccccc" d="M3080.73,-300.046C2765.18,-300.252 903.483,-299.527 794,-254 715.409,-221.319 721.257,-164.806 714,-80 713.166,-70.2578 712.855,-67.7105 714,-58 715.018,-49.3661 717.075,-40.0057 719.138,-31.9965"/>
<polygon fill="#cccccc" stroke="#cccccc" points="722.581,-32.6777 721.858,-22.1076 715.832,-30.8215 722.581,-32.6777"/>
</g>
<!-- SequenceType&#45;&gt;Set -->
<g id="edge41" class="edge">
<path fill="none" stroke="#cccccc" d="M3111.46,-289.735C3098.73,-280.625 3079.84,-266.81 3064,-254 2964.12,-173.23 2850.66,-69.2663 2807.22,-28.9886"/>
<polygon fill="#cccccc" stroke="#cccccc" points="2809.43,-26.2602 2799.72,-22.0178 2804.66,-31.3885 2809.43,-26.2602"/>
</g>
<!-- SequenceType&#45;&gt;Slice -->
<g id="edge42" class="edge">
<path fill="none" stroke="#cccccc" d="M3116.85,-289.734C3076.06,-243.987 2912.75,-60.8223 2910,-58 2900.42,-48.1792 2889.31,-37.6774 2880.09,-29.1912"/>
<polygon fill="#cccccc" stroke="#cccccc" points="2882.31,-26.476 2872.56,-22.3203 2877.59,-31.6465 2882.31,-26.476"/>
</g>
<!-- StrideThrough -->
<g id="node49" class="node">
<g id="a_node49"><a xlink:href="/swift-2/type/StrideThrough/" target="_top">
<polygon fill="#999999" stroke="#999999" points="5934.03,-22 5847.97,-22 5847.97,-0 5934.03,-0 5934.03,-22"/>
<text text-anchor="middle" x="5891" y="-7.4" font-family="Helvetica,sans-Serif" font-size="12.00" fill="white">StrideThrough</text>
</a>
</g>
</g>
<!-- SequenceType&#45;&gt;StrideThrough -->
<g id="edge43" class="edge">
<path fill="none" stroke="#cccccc" d="M3171.04,-299.923C3490.5,-299.283 5408.65,-293.791 5664,-254 5768.06,-237.784 5891,-291.318 5891,-186 5891,-186 5891,-186 5891,-126 5891,-93.1536 5891,-54.9837 5891,-32.197"/>
<polygon fill="#cccccc" stroke="#cccccc" points="5894.5,-32.0648 5891,-22.0648 5887.5,-32.0648 5894.5,-32.0648"/>
</g>
<!-- StrideTo -->
<g id="node50" class="node">
<g id="a_node50"><a xlink:href="/swift-2/type/StrideTo/" target="_top">
<polygon fill="#999999" stroke="#999999" points="6006.02,-22 5951.98,-22 5951.98,-0 6006.02,-0 6006.02,-22"/>
<text text-anchor="middle" x="5979" y="-7.4" font-family="Helvetica,sans-Serif" font-size="12.00" fill="white">StrideTo</text>
</a>
</g>
</g>
<!-- SequenceType&#45;&gt;StrideTo -->
<g id="edge44" class="edge">
<path fill="none" stroke="#cccccc" d="M3171.07,-300.082C3499.32,-300.569 5516.99,-301.6 5784,-254 5874.36,-237.891 5979,-277.785 5979,-186 5979,-186 5979,-186 5979,-126 5979,-93.1536 5979,-54.9837 5979,-32.197"/>
<polygon fill="#cccccc" stroke="#cccccc" points="5982.5,-32.0648 5979,-22.0648 5975.5,-32.0648 5982.5,-32.0648"/>
</g>
<!-- SequenceType&#45;&gt;String.CharacterView -->
<g id="edge50" class="edge">
<path fill="none" stroke="#cccccc" d="M3080.86,-300.079C2791.38,-300.446 1192.3,-300.316 706,-254 529.101,-237.152 312,-363.7 312,-186 312,-186 312,-186 312,-126 312,-86.9242 342.428,-50.1539 363.445,-29.417"/>
<polygon fill="#cccccc" stroke="#cccccc" points="366.115,-31.7076 370.956,-22.283 361.295,-26.6321 366.115,-31.7076"/>
</g>
<!-- SequenceType&#45;&gt;String.UTF16View -->
<g id="edge52" class="edge">
<path fill="none" stroke="#cccccc" d="M3120.21,-289.836C3101.22,-256.529 3039.06,-147.666 2987,-58 2981.85,-49.1361 2976.11,-39.3377 2971.25,-31.0699"/>
<polygon fill="#cccccc" stroke="#cccccc" points="2974.12,-29.0561 2966.03,-22.2152 2968.09,-32.6081 2974.12,-29.0561"/>
</g>
<!-- SequenceType&#45;&gt;String.UTF8View -->
<g id="edge53" class="edge">
<path fill="none" stroke="#cccccc" d="M3126,-289.935C3126,-270.066 3126,-224.396 3126,-186 3126,-186 3126,-186 3126,-126 3126,-90.5184 3107.22,-52.7402 3094.2,-30.8107"/>
<polygon fill="#cccccc" stroke="#cccccc" points="3097.1,-28.8513 3088.88,-22.1752 3091.14,-32.5245 3097.1,-28.8513"/>
</g>
<!-- SequenceType&#45;&gt;String.UnicodeScalarView -->
<g id="edge51" class="edge">
<path fill="none" stroke="#cccccc" d="M3080.73,-300.046C2762.08,-300.253 865.771,-299.563 754,-254 649.475,-211.391 635.312,-171.344 569,-80 558.25,-65.1917 549.674,-46.1993 544.117,-32.0519"/>
<polygon fill="#cccccc" stroke="#cccccc" points="547.258,-30.4613 540.47,-22.3272 540.704,-32.9195 547.258,-30.4613"/>
</g>
<!-- SequenceType&#45;&gt;UnicodeScalar.UTF16View -->
<g id="edge45" class="edge">
<path fill="none" stroke="#cccccc" d="M3129.59,-289.75C3144.35,-247.671 3200.43,-87.7731 3220.12,-31.6301"/>
<polygon fill="#cccccc" stroke="#cccccc" points="3223.44,-32.7221 3223.45,-22.1273 3216.84,-30.4055 3223.44,-32.7221"/>
</g>
<!-- SequenceType&#45;&gt;UnsafeBufferPointer -->
<g id="edge46" class="edge">
<path fill="none" stroke="#cccccc" d="M3171.25,-293.532C3228.29,-282.529 3319,-254.297 3319,-186 3319,-186 3319,-186 3319,-126 3319,-88.2105 3345.62,-51.0008 3363.97,-29.8342"/>
<polygon fill="#cccccc" stroke="#cccccc" points="3366.67,-32.0635 3370.76,-22.2892 3361.47,-27.3805 3366.67,-32.0635"/>
</g>
<!-- UnsafeBufferPointerGenerator -->
<g id="node57" class="node">
<g id="a_node57"><a xlink:href="/swift-2/type/UnsafeBufferPointerGenerator/" target="_top">
<polygon fill="#999999" stroke="#999999" points="6195.41,-22 6024.59,-22 6024.59,-0 6195.41,-0 6195.41,-22"/>
<text text-anchor="middle" x="6110" y="-7.4" font-family="Helvetica,sans-Serif" font-size="12.00" fill="white">UnsafeBufferPointerGenerator</text>
</a>
</g>
</g>
<!-- SequenceType&#45;&gt;UnsafeBufferPointerGenerator -->
<g id="edge47" class="edge">
<path fill="none" stroke="#cccccc" d="M3171.17,-300.004C3506.81,-299.934 5607.34,-297.741 5886,-254 5988.78,-237.866 6110,-290.042 6110,-186 6110,-186 6110,-186 6110,-126 6110,-93.1536 6110,-54.9837 6110,-32.197"/>
<polygon fill="#cccccc" stroke="#cccccc" points="6113.5,-32.0648 6110,-22.0648 6106.5,-32.0648 6113.5,-32.0648"/>
</g>
<!-- SequenceType&#45;&gt;UnsafeMutableBufferPointer -->
<g id="edge48" class="edge">
<path fill="none" stroke="#cccccc" d="M3080.83,-299.773C2834.8,-298.394 1664.92,-289.962 1598,-254 1565.41,-236.488 1550,-222.993 1550,-186 1550,-186 1550,-186 1550,-126 1550,-85.1015 1523.31,-78.633 1488,-58 1466.32,-45.3305 1407.87,-32.6654 1359.72,-23.8417"/>
<polygon fill="#cccccc" stroke="#cccccc" points="1360.08,-20.3505 1349.62,-22.0186 1358.83,-27.2392 1360.08,-20.3505"/>
</g>
<!-- Zip2Sequence -->
<g id="node59" class="node">
<g id="a_node59"><a xlink:href="/swift-2/type/Zip2Sequence/" target="_top">
<polygon fill="#999999" stroke="#999999" points="6301.54,-22 6214.46,-22 6214.46,-0 6301.54,-0 6301.54,-22"/>
<text text-anchor="middle" x="6258" y="-7.4" font-family="Helvetica,sans-Serif" font-size="12.00" fill="white">Zip2Sequence</text>
</a>
</g>
</g>
<!-- SequenceType&#45;&gt;Zip2Sequence -->
<g id="edge49" class="edge">
<path fill="none" stroke="#cccccc" d="M3171.15,-299.948C3514.83,-299.461 5712.16,-294.765 6004,-254 6119.74,-237.833 6258,-302.864 6258,-186 6258,-186 6258,-186 6258,-126 6258,-93.1536 6258,-54.9837 6258,-32.197"/>
<polygon fill="#cccccc" stroke="#cccccc" points="6261.5,-32.0648 6258,-22.0648 6254.5,-32.0648 6261.5,-32.0648"/>
</g>
<!-- _ArrayType&#45;&gt;Array -->
<g id="edge106" class="edge">
<path fill="none" stroke="#cccccc" d="M931.698,-57.9883C919.826,-49.6784 902.718,-37.7028 888.936,-28.0554"/>
<polygon fill="#cccccc" stroke="#cccccc" points="890.648,-24.9812 880.448,-22.1138 886.634,-30.7158 890.648,-24.9812"/>
</g>
<!-- _ArrayType&#45;&gt;ArraySlice -->
<g id="edge107" class="edge">
<path fill="none" stroke="#cccccc" d="M945.464,-57.9883C945.084,-50.9098 944.563,-41.1714 944.097,-32.4779"/>
<polygon fill="#cccccc" stroke="#cccccc" points="947.582,-32.1023 943.552,-22.3039 940.592,-32.4768 947.582,-32.1023"/>
</g>
<!-- _ArrayType&#45;&gt;ContiguousArray -->
<g id="edge108" class="edge">
<path fill="none" stroke="#cccccc" d="M963.342,-57.9883C978.147,-49.441 999.67,-37.0155 1016.61,-27.2343"/>
<polygon fill="#cccccc" stroke="#cccccc" points="1018.57,-30.1448 1025.48,-22.1138 1015.07,-24.0825 1018.57,-30.1448"/>
</g>
<!-- _ReverseCollectionType&#45;&gt;ReverseCollection -->
<g id="edge115" class="edge">
<path fill="none" stroke="#cccccc" d="M1671.88,-57.9883C1660.15,-49.6784 1643.26,-37.7028 1629.65,-28.0554"/>
<polygon fill="#cccccc" stroke="#cccccc" points="1631.45,-25.0415 1621.27,-22.1138 1627.4,-30.7523 1631.45,-25.0415"/>
</g>
<!-- _ReverseCollectionType&#45;&gt;ReverseRandomAccessCollection -->
<g id="edge116" class="edge">
<path fill="none" stroke="#cccccc" d="M1615.75,-65.2078C1471.1,-59.2438 1129.24,-44.0467 830.71,-22.0223"/>
<polygon fill="#cccccc" stroke="#cccccc" points="830.787,-18.5184 820.555,-21.2692 830.269,-25.4993 830.787,-18.5184"/>
</g>
</g>
</svg>
