<?xml version="1.0" encoding="UTF-8" standalone="no"?>
<!DOCTYPE svg PUBLIC "-//W3C//DTD SVG 1.1//EN"
 "http://www.w3.org/Graphics/SVG/1.1/DTD/svg11.dtd">
<!-- Generated by graphviz version 2.36.0 (20140111.2315)
 -->
<!-- Title: Int64 &#45; Type Hierarchy &#45; SwiftDoc.org Pages: 1 -->
<svg width="1328pt" height="543pt"
 viewBox="0.00 0.00 1328.40 543.20" xmlns="http://www.w3.org/2000/svg" xmlns:xlink="http://www.w3.org/1999/xlink">
<g id="graph0" class="graph" transform="scale(1 1) rotate(0) translate(7.2 485.6)">
<g transform="translate(0 -485.6)">
<g>
    <path fill="#666666" d="M13.846,10.832c-0.336-0.464-0.792-0.844-1.368-1.14s-1.224-0.444-1.944-0.444
        c-0.384,0-0.772,0.052-1.164,0.156C8.977,9.509,8.622,9.677,8.301,9.908c-0.32,0.232-0.58,0.52-0.78,0.864
        c-0.2,0.344-0.3,0.756-0.3,1.236c0,0.464,0.092,0.852,0.276,1.164c0.184,0.312,0.432,0.576,0.744,0.792s0.68,0.4,1.104,0.552
        c0.423,0.152,0.876,0.309,1.356,0.468c0.576,0.177,1.16,0.376,1.752,0.601c0.592,0.224,1.128,0.52,1.608,0.888
        s0.872,0.828,1.176,1.38s0.456,1.252,0.456,2.101c0,0.88-0.164,1.644-0.492,2.292c-0.328,0.647-0.765,1.184-1.308,1.607
        c-0.544,0.424-1.172,0.74-1.884,0.948s-1.444,0.312-2.196,0.312c-1.072,0-2.108-0.208-3.108-0.624
        c-1-0.415-1.828-1.031-2.484-1.848l1.848-1.56c0.4,0.592,0.936,1.071,1.608,1.439c0.672,0.368,1.399,0.552,2.184,0.552
        c0.4,0,0.8-0.056,1.2-0.168c0.4-0.111,0.764-0.288,1.092-0.527c0.328-0.24,0.596-0.54,0.804-0.9
        c0.208-0.36,0.312-0.796,0.312-1.308s-0.108-0.94-0.324-1.284c-0.216-0.344-0.508-0.636-0.876-0.876s-0.796-0.444-1.284-0.612
        c-0.488-0.168-1.004-0.34-1.548-0.516c-0.544-0.16-1.08-0.356-1.608-0.588c-0.528-0.232-1-0.528-1.416-0.889
        c-0.416-0.359-0.752-0.804-1.008-1.332c-0.256-0.527-0.384-1.184-0.384-1.968c0-0.848,0.172-1.576,0.516-2.184
        c0.344-0.608,0.792-1.112,1.344-1.512c0.552-0.4,1.176-0.692,1.872-0.876c0.696-0.184,1.396-0.276,2.1-0.276
        c0.992,0,1.92,0.176,2.784,0.528c0.864,0.352,1.56,0.824,2.088,1.416L13.846,10.832z"/>
    <path fill="#666666" d="M18.813,13.304l2.568,8.688h0.048l2.712-8.688h2.376l2.76,8.688h0.048l2.568-8.688h2.376L30.501,24.68
        h-2.352l-2.808-8.544h-0.048l-2.784,8.544h-2.352l-3.792-11.376H18.813z"/>
    <path fill="#666666" d="M38.685,9.2c0,0.416-0.147,0.76-0.44,1.032c-0.294,0.272-0.647,0.408-1.06,0.408s-0.762-0.14-1.047-0.42
        c-0.286-0.28-0.429-0.62-0.429-1.02c0-0.416,0.143-0.764,0.429-1.044c0.286-0.28,0.635-0.42,1.047-0.42s0.766,0.14,1.06,0.42
        C38.538,8.437,38.685,8.784,38.685,9.2z M38.325,24.68h-2.256V13.304h2.256V24.68z"/>
    <path fill="#666666" d="M47.613,15.152h-2.64v9.528h-2.256v-9.528h-2.256v-1.848h2.256v-2.376c0-0.672,0.076-1.292,0.228-1.86
        c0.152-0.568,0.4-1.06,0.744-1.476c0.344-0.416,0.784-0.744,1.32-0.984c0.536-0.24,1.188-0.36,1.956-0.36
        c0.544,0,1.016,0.056,1.416,0.168l-0.264,1.944c-0.176-0.048-0.352-0.088-0.528-0.12c-0.176-0.032-0.376-0.048-0.6-0.048
        c-0.432,0-0.78,0.076-1.044,0.228c-0.264,0.152-0.468,0.356-0.612,0.612s-0.24,0.548-0.288,0.876
        c-0.048,0.328-0.072,0.668-0.072,1.02v2.376h2.64V15.152z"/>
    <path fill="#666666" d="M54.909,15.152h-3.024v5.91c0,0.687,0.128,1.177,0.384,1.472c0.256,0.295,0.664,0.442,1.224,0.442
        c0.208,0,0.432-0.021,0.672-0.065c0.24-0.044,0.456-0.11,0.648-0.198l0.072,1.848c-0.272,0.096-0.572,0.172-0.9,0.229
        c-0.328,0.056-0.668,0.084-1.02,0.084c-1.072,0-1.892-0.296-2.46-0.889c-0.568-0.592-0.852-1.479-0.852-2.664v-6.168h-2.184
        v-1.848h2.184V10.04h2.232v3.264h3.024V15.152z"/>
    <path fill="#666666" d="M57.356,7.688h5.832c1.088,0,2.176,0.16,3.264,0.48c1.088,0.32,2.072,0.824,2.952,1.512
        s1.592,1.568,2.136,2.64c0.544,1.072,0.816,2.36,0.816,3.864c0,1.456-0.272,2.716-0.816,3.78s-1.256,1.943-2.136,2.64
        s-1.864,1.216-2.952,1.561c-1.088,0.344-2.176,0.516-3.264,0.516h-5.832V7.688z M59.732,22.593h2.976
        c1.024,0,1.972-0.145,2.844-0.432c0.872-0.288,1.624-0.704,2.256-1.248c0.632-0.544,1.124-1.216,1.476-2.017
        c0.352-0.8,0.528-1.704,0.528-2.712c0-1.056-0.176-1.983-0.528-2.784c-0.353-0.8-0.844-1.468-1.476-2.004
        c-0.632-0.536-1.384-0.944-2.256-1.224s-1.82-0.42-2.844-0.42h-2.976V22.593z"/>
    <path fill="#666666" d="M86.06,18.969c0,0.88-0.156,1.688-0.468,2.424c-0.312,0.736-0.744,1.372-1.296,1.908
        c-0.552,0.536-1.204,0.952-1.956,1.248c-0.752,0.296-1.56,0.443-2.424,0.443c-0.864,0-1.672-0.147-2.424-0.443
        c-0.752-0.296-1.4-0.712-1.944-1.248c-0.544-0.536-0.972-1.172-1.284-1.908c-0.312-0.735-0.468-1.544-0.468-2.424
        s0.156-1.684,0.468-2.412c0.312-0.728,0.74-1.356,1.284-1.884c0.543-0.528,1.191-0.939,1.944-1.236
        c0.752-0.296,1.56-0.444,2.424-0.444c0.864,0,1.672,0.148,2.424,0.444c0.752,0.297,1.404,0.708,1.956,1.236
        c0.552,0.527,0.984,1.156,1.296,1.884C85.904,17.285,86.06,18.089,86.06,18.969z M83.708,18.98c0-0.542-0.084-1.061-0.252-1.556
        c-0.169-0.494-0.414-0.929-0.734-1.304s-0.718-0.674-1.192-0.897s-1.015-0.335-1.625-0.335c-0.61,0-1.152,0.111-1.625,0.335
        c-0.474,0.224-0.871,0.522-1.191,0.897c-0.321,0.375-0.566,0.81-0.734,1.304C76.184,17.92,76.1,18.438,76.1,18.98
        c0,0.543,0.084,1.062,0.253,1.556c0.168,0.495,0.413,0.934,0.734,1.316c0.321,0.383,0.718,0.686,1.191,0.909
        c0.473,0.224,1.015,0.335,1.625,0.335c0.61,0,1.151-0.111,1.625-0.335s0.871-0.526,1.192-0.909s0.565-0.821,0.734-1.316
        C83.624,20.042,83.708,19.523,83.708,18.98z"/>
    <path fill="#666666" d="M96.428,16.184c-0.24-0.368-0.6-0.676-1.08-0.924s-0.992-0.372-1.536-0.372
        c-0.592,0-1.116,0.112-1.572,0.336c-0.456,0.225-0.844,0.524-1.164,0.9c-0.32,0.376-0.564,0.812-0.732,1.308
        s-0.252,1.017-0.252,1.56c0,0.545,0.084,1.064,0.252,1.561s0.412,0.933,0.732,1.308c0.32,0.376,0.712,0.677,1.176,0.9
        c0.464,0.225,0.992,0.336,1.584,0.336c0.576,0,1.1-0.111,1.572-0.336c0.472-0.224,0.86-0.528,1.164-0.912l1.512,1.368
        c-0.48,0.561-1.08,0.996-1.8,1.308c-0.72,0.312-1.536,0.468-2.448,0.468c-0.88,0-1.692-0.144-2.436-0.432
        c-0.744-0.288-1.388-0.691-1.932-1.212c-0.544-0.52-0.972-1.147-1.284-1.884s-0.468-1.561-0.468-2.473
        c0-0.896,0.152-1.711,0.456-2.447c0.304-0.736,0.728-1.368,1.272-1.896c0.543-0.527,1.188-0.936,1.932-1.224
        c0.744-0.288,1.548-0.433,2.412-0.433c0.8,0,1.596,0.16,2.388,0.48s1.419,0.784,1.884,1.392L96.428,16.184z"/>
    <path fill="#666666" d="M103.1,23.24c0,0.417-0.152,0.784-0.456,1.104c-0.304,0.32-0.688,0.479-1.152,0.479
        c-0.448,0-0.828-0.155-1.14-0.468c-0.312-0.312-0.468-0.676-0.468-1.092c0-0.432,0.152-0.804,0.456-1.116
        c0.304-0.312,0.688-0.468,1.152-0.468c0.464,0,0.848,0.152,1.152,0.456C102.947,22.44,103.1,22.808,103.1,23.24z"/>
    <path fill="#666666" d="M116.635,18.969c0,0.88-0.156,1.688-0.468,2.424c-0.312,0.736-0.744,1.372-1.296,1.908
        c-0.552,0.536-1.204,0.952-1.956,1.248c-0.752,0.296-1.56,0.443-2.424,0.443c-0.864,0-1.672-0.147-2.424-0.443
        c-0.752-0.296-1.4-0.712-1.944-1.248c-0.544-0.536-0.972-1.172-1.284-1.908c-0.312-0.735-0.468-1.544-0.468-2.424
        s0.156-1.684,0.468-2.412c0.312-0.728,0.74-1.356,1.284-1.884c0.543-0.528,1.191-0.939,1.944-1.236
        c0.752-0.296,1.56-0.444,2.424-0.444c0.864,0,1.672,0.148,2.424,0.444c0.752,0.297,1.404,0.708,1.956,1.236
        c0.552,0.527,0.984,1.156,1.296,1.884C116.479,17.285,116.635,18.089,116.635,18.969z M114.283,18.98
        c0-0.542-0.084-1.061-0.252-1.556c-0.169-0.494-0.414-0.929-0.734-1.304s-0.718-0.674-1.192-0.897s-1.015-0.335-1.625-0.335
        c-0.61,0-1.152,0.111-1.625,0.335c-0.474,0.224-0.871,0.522-1.191,0.897c-0.321,0.375-0.566,0.81-0.734,1.304
        c-0.169,0.495-0.253,1.014-0.253,1.556c0,0.543,0.084,1.062,0.253,1.556c0.168,0.495,0.413,0.934,0.734,1.316
        c0.321,0.383,0.718,0.686,1.191,0.909c0.473,0.224,1.015,0.335,1.625,0.335c0.61,0,1.151-0.111,1.625-0.335
        s0.871-0.526,1.192-0.909s0.565-0.821,0.734-1.316C114.199,20.042,114.283,19.523,114.283,18.98z"/>
    <path fill="#666666" d="M119.251,14.577c-0.016-0.48-0.04-0.904-0.072-1.272h2.136c0.032,0.288,0.056,0.62,0.072,0.996
        c0.016,0.376,0.024,0.684,0.024,0.924h0.072c0.32-0.672,0.788-1.212,1.404-1.62c0.616-0.408,1.308-0.612,2.076-0.612
        c0.352,0,0.648,0.033,0.888,0.097l-0.096,2.088c-0.32-0.08-0.664-0.12-1.032-0.12c-0.544,0-1.016,0.101-1.416,0.3
        c-0.4,0.2-0.732,0.468-0.996,0.805c-0.264,0.336-0.46,0.724-0.588,1.163c-0.128,0.44-0.192,0.9-0.192,1.381v5.976h-2.256v-8.928
        C119.275,15.449,119.267,15.056,119.251,14.577z"/>
    <path fill="#666666" d="M128.419,26.625c0.496,0.56,1.116,1.008,1.86,1.344c0.744,0.336,1.508,0.504,2.292,0.504
        c0.752,0,1.384-0.108,1.896-0.324s0.924-0.512,1.236-0.888s0.536-0.82,0.672-1.332c0.136-0.513,0.204-1.064,0.204-1.656v-1.464
        h-0.048c-0.416,0.641-0.984,1.128-1.704,1.464c-0.72,0.336-1.488,0.504-2.304,0.504c-0.864,0-1.652-0.151-2.364-0.456
        c-0.712-0.304-1.316-0.72-1.812-1.248c-0.496-0.527-0.88-1.147-1.152-1.859s-0.408-1.477-0.408-2.292
        c0-0.816,0.136-1.584,0.408-2.305c0.272-0.72,0.656-1.348,1.152-1.884c0.496-0.535,1.096-0.96,1.8-1.271
        c0.704-0.312,1.488-0.469,2.352-0.469c0.816,0,1.596,0.177,2.34,0.528c0.744,0.353,1.332,0.888,1.764,1.608h0.048v-1.824h2.184
        v10.8c0,0.832-0.104,1.628-0.312,2.388c-0.208,0.76-0.56,1.433-1.056,2.017s-1.144,1.052-1.944,1.404
        c-0.8,0.352-1.792,0.527-2.976,0.527c-0.992,0-1.988-0.18-2.988-0.54c-1-0.359-1.86-0.868-2.58-1.523L128.419,26.625z
         M129.091,18.873c0,0.527,0.084,1.031,0.253,1.512c0.168,0.479,0.417,0.904,0.746,1.271c0.329,0.369,0.726,0.664,1.192,0.889
        c0.465,0.224,0.995,0.336,1.589,0.336c0.577,0,1.107-0.104,1.589-0.312c0.481-0.207,0.891-0.491,1.228-0.852
        s0.598-0.784,0.782-1.272c0.185-0.487,0.277-1.012,0.277-1.571c0-0.544-0.093-1.057-0.277-1.536
        c-0.185-0.48-0.449-0.904-0.794-1.272c-0.345-0.367-0.755-0.66-1.228-0.876c-0.474-0.216-1-0.324-1.577-0.324
        c-0.594,0-1.124,0.108-1.589,0.324c-0.466,0.216-0.863,0.504-1.192,0.864s-0.578,0.784-0.746,1.271
        C129.175,17.812,129.091,18.329,129.091,18.873z"/>
</g>
<g><a xlink:href="/" pointer-events="all" target="_top"><polygon fill="none" points="0,0 145,0 145,35 0,35 0,0"/></a></g>

</g>


<!-- BidirectionalIndexType -->
<g id="node1" class="node">
<g id="a_node1"><a xlink:href="/v2.1/protocol/BidirectionalIndexType/" target="_top">
<path fill="#999999" stroke="#999999" d="M724.725,-254C724.725,-254 609.275,-254 609.275,-254 605.608,-254 601.941,-250.333 601.941,-246.667 601.941,-246.667 601.941,-239.333 601.941,-239.333 601.941,-235.667 605.608,-232 609.275,-232 609.275,-232 724.725,-232 724.725,-232 728.392,-232 732.059,-235.667 732.059,-239.333 732.059,-239.333 732.059,-246.667 732.059,-246.667 732.059,-250.333 728.392,-254 724.725,-254"/>
<text text-anchor="middle" x="667" y="-239.4" font-family="Helvetica,sans-Serif" font-size="12.00" fill="white">BidirectionalIndexType</text>
</a>
</g>
</g>
<!-- RandomAccessIndexType -->
<g id="node14" class="node">
<g id="a_node14"><a xlink:href="/v2.1/protocol/RandomAccessIndexType/" target="_top">
<path fill="#999999" stroke="#999999" d="M734.225,-196C734.225,-196 599.775,-196 599.775,-196 596.108,-196 592.441,-192.333 592.441,-188.667 592.441,-188.667 592.441,-181.333 592.441,-181.333 592.441,-177.667 596.108,-174 599.775,-174 599.775,-174 734.225,-174 734.225,-174 737.892,-174 741.559,-177.667 741.559,-181.333 741.559,-181.333 741.559,-188.667 741.559,-188.667 741.559,-192.333 737.892,-196 734.225,-196"/>
<text text-anchor="middle" x="667" y="-181.4" font-family="Helvetica,sans-Serif" font-size="12.00" fill="white">RandomAccessIndexType</text>
</a>
</g>
</g>
<!-- BidirectionalIndexType&#45;&gt;RandomAccessIndexType -->
<g id="edge32" class="edge">
<path fill="none" stroke="#cccccc" d="M667,-231.988C667,-224.91 667,-215.171 667,-206.478"/>
<polygon fill="#cccccc" stroke="#cccccc" points="670.5,-206.304 667,-196.304 663.5,-206.304 670.5,-206.304"/>
</g>
<!-- BitwiseOperationsType -->
<g id="node2" class="node">
<g id="a_node2"><a xlink:href="/v2.1/protocol/BitwiseOperationsType/" target="_top">
<path fill="#999999" stroke="#999999" d="M152.715,-254C152.715,-254 35.2848,-254 35.2848,-254 31.6182,-254 27.9515,-250.333 27.9515,-246.667 27.9515,-246.667 27.9515,-239.333 27.9515,-239.333 27.9515,-235.667 31.6182,-232 35.2848,-232 35.2848,-232 152.715,-232 152.715,-232 156.382,-232 160.048,-235.667 160.048,-239.333 160.048,-239.333 160.048,-246.667 160.048,-246.667 160.048,-250.333 156.382,-254 152.715,-254"/>
<text text-anchor="middle" x="94" y="-239.4" font-family="Helvetica,sans-Serif" font-size="12.00" fill="white">BitwiseOperationsType</text>
</a>
</g>
</g>
<!-- Int64 -->
<g id="node9" class="node">
<g id="a_node9"><a xlink:href="/v2.1/type/Int64/" target="_top">
<polygon fill="#ee543d" stroke="#ee543d" points="409,-22 355,-22 355,-0 409,-0 409,-22"/>
<text text-anchor="middle" x="382" y="-7.4" font-family="Helvetica,sans-Serif" font-size="12.00" fill="white">Int64</text>
</a>
</g>
</g>
<!-- BitwiseOperationsType&#45;&gt;Int64 -->
<g id="edge8" class="edge">
<path fill="none" stroke="#cccccc" d="M106.747,-231.82C152.006,-195.676 305.261,-73.285 361.277,-28.5499"/>
<polygon fill="#cccccc" stroke="#cccccc" points="363.771,-31.0373 369.401,-22.062 359.402,-25.5675 363.771,-31.0373"/>
</g>
<!-- _IntegerType -->
<g id="node21" class="node">
<g id="a_node21"><a xlink:href="/v2.1/protocol/_IntegerType/" target="_top">
<path fill="#999999" stroke="#999999" d="M470.708,-196C470.708,-196 405.292,-196 405.292,-196 401.626,-196 397.959,-192.333 397.959,-188.667 397.959,-188.667 397.959,-181.333 397.959,-181.333 397.959,-177.667 401.626,-174 405.292,-174 405.292,-174 470.708,-174 470.708,-174 474.374,-174 478.041,-177.667 478.041,-181.333 478.041,-181.333 478.041,-188.667 478.041,-188.667 478.041,-192.333 474.374,-196 470.708,-196"/>
<text text-anchor="middle" x="438" y="-181.4" font-family="Helvetica,sans-Serif" font-size="12.00" fill="white">_IntegerType</text>
</a>
</g>
</g>
<!-- BitwiseOperationsType&#45;&gt;_IntegerType -->
<g id="edge21" class="edge">
<path fill="none" stroke="#cccccc" d="M155.5,-231.988C221.815,-221.193 326.135,-204.211 387.728,-194.184"/>
<polygon fill="#cccccc" stroke="#cccccc" points="388.666,-197.577 397.974,-192.516 387.541,-190.668 388.666,-197.577"/>
</g>
<!-- CVarArgType -->
<g id="node3" class="node">
<g id="a_node3"><a xlink:href="/v2.1/protocol/CVarArgType/" target="_top">
<path fill="#999999" stroke="#999999" d="M164.029,-138C164.029,-138 97.9709,-138 97.9709,-138 94.3043,-138 90.6376,-134.333 90.6376,-130.667 90.6376,-130.667 90.6376,-123.333 90.6376,-123.333 90.6376,-119.667 94.3043,-116 97.9709,-116 97.9709,-116 164.029,-116 164.029,-116 167.696,-116 171.362,-119.667 171.362,-123.333 171.362,-123.333 171.362,-130.667 171.362,-130.667 171.362,-134.333 167.696,-138 164.029,-138"/>
<text text-anchor="middle" x="131" y="-123.4" font-family="Helvetica,sans-Serif" font-size="12.00" fill="white">CVarArgType</text>
</a>
</g>
</g>
<!-- CVarArgType&#45;&gt;Int64 -->
<g id="edge11" class="edge">
<path fill="none" stroke="#cccccc" d="M120.935,-115.711C108.142,-101.383 89.3755,-75.2432 104,-58 134.411,-22.1433 275.882,-14.1989 344.491,-12.4661"/>
<polygon fill="#cccccc" stroke="#cccccc" points="344.928,-15.9574 354.848,-12.238 344.773,-8.95908 344.928,-15.9574"/>
</g>
<!-- _CVarArgAlignedType -->
<g id="node18" class="node">
<g id="a_node18"><a xlink:href="/v2.1/protocol/_CVarArgAlignedType/" target="_top">
<path fill="#999999" stroke="#999999" d="M233.059,-80C233.059,-80 120.941,-80 120.941,-80 117.274,-80 113.608,-76.3333 113.608,-72.6667 113.608,-72.6667 113.608,-65.3333 113.608,-65.3333 113.608,-61.6667 117.274,-58 120.941,-58 120.941,-58 233.059,-58 233.059,-58 236.726,-58 240.392,-61.6667 240.392,-65.3333 240.392,-65.3333 240.392,-72.6667 240.392,-72.6667 240.392,-76.3333 236.726,-80 233.059,-80"/>
<text text-anchor="middle" x="177" y="-65.4" font-family="Helvetica,sans-Serif" font-size="12.00" fill="white">_CVarArgAlignedType</text>
</a>
</g>
</g>
<!-- CVarArgType&#45;&gt;_CVarArgAlignedType -->
<g id="edge39" class="edge">
<path fill="none" stroke="#cccccc" d="M139.224,-115.988C145.555,-108.281 154.477,-97.4191 162.061,-88.187"/>
<polygon fill="#cccccc" stroke="#cccccc" points="164.893,-90.2528 168.536,-80.3039 159.484,-85.8096 164.893,-90.2528"/>
</g>
<!-- Comparable -->
<g id="node4" class="node">
<g id="a_node4"><a xlink:href="/v2.1/protocol/Comparable/" target="_top">
<path fill="#999999" stroke="#999999" d="M898.191,-312C898.191,-312 837.809,-312 837.809,-312 834.142,-312 830.475,-308.333 830.475,-304.667 830.475,-304.667 830.475,-297.333 830.475,-297.333 830.475,-293.667 834.142,-290 837.809,-290 837.809,-290 898.191,-290 898.191,-290 901.858,-290 905.525,-293.667 905.525,-297.333 905.525,-297.333 905.525,-304.667 905.525,-304.667 905.525,-308.333 901.858,-312 898.191,-312"/>
<text text-anchor="middle" x="868" y="-297.4" font-family="Helvetica,sans-Serif" font-size="12.00" fill="white">Comparable</text>
</a>
</g>
</g>
<!-- Comparable&#45;&gt;Int64 -->
<g id="edge2" class="edge">
<path fill="none" stroke="#cccccc" d="M905.491,-298.328C976.758,-294.511 1128.47,-283.12 1171,-254 1199.75,-234.317 1210,-220.84 1210,-186 1210,-186 1210,-186 1210,-126 1210,-45.0586 581.015,-18.6109 419.461,-13.1528"/>
<polygon fill="#cccccc" stroke="#cccccc" points="419.189,-9.64195 409.078,-12.8094 418.957,-16.6381 419.189,-9.64195"/>
</g>
<!-- IntegerArithmeticType -->
<g id="node10" class="node">
<g id="a_node10"><a xlink:href="/v2.1/protocol/IntegerArithmeticType/" target="_top">
<path fill="#999999" stroke="#999999" d="M575.711,-254C575.711,-254 464.289,-254 464.289,-254 460.623,-254 456.956,-250.333 456.956,-246.667 456.956,-246.667 456.956,-239.333 456.956,-239.333 456.956,-235.667 460.623,-232 464.289,-232 464.289,-232 575.711,-232 575.711,-232 579.377,-232 583.044,-235.667 583.044,-239.333 583.044,-239.333 583.044,-246.667 583.044,-246.667 583.044,-250.333 579.377,-254 575.711,-254"/>
<text text-anchor="middle" x="520" y="-239.4" font-family="Helvetica,sans-Serif" font-size="12.00" fill="white">IntegerArithmeticType</text>
</a>
</g>
</g>
<!-- Comparable&#45;&gt;IntegerArithmeticType -->
<g id="edge25" class="edge">
<path fill="none" stroke="#cccccc" d="M830.584,-291.835C827.347,-291.19 824.119,-290.57 821,-290 778.596,-282.256 668.07,-265.711 593.42,-254.721"/>
<polygon fill="#cccccc" stroke="#cccccc" points="593.539,-251.201 583.136,-253.208 592.52,-258.126 593.539,-251.201"/>
</g>
<!-- SignedNumberType -->
<g id="node16" class="node">
<g id="a_node16"><a xlink:href="/v2.1/protocol/SignedNumberType/" target="_top">
<path fill="#999999" stroke="#999999" d="M996.716,-196C996.716,-196 895.284,-196 895.284,-196 891.617,-196 887.95,-192.333 887.95,-188.667 887.95,-188.667 887.95,-181.333 887.95,-181.333 887.95,-177.667 891.617,-174 895.284,-174 895.284,-174 996.716,-174 996.716,-174 1000.38,-174 1004.05,-177.667 1004.05,-181.333 1004.05,-181.333 1004.05,-188.667 1004.05,-188.667 1004.05,-192.333 1000.38,-196 996.716,-196"/>
<text text-anchor="middle" x="946" y="-181.4" font-family="Helvetica,sans-Serif" font-size="12.00" fill="white">SignedNumberType</text>
</a>
</g>
</g>
<!-- Comparable&#45;&gt;SignedNumberType -->
<g id="edge28" class="edge">
<path fill="none" stroke="#cccccc" d="M905.588,-299.704C975.58,-298.269 1121.64,-290.823 1153,-254 1194.69,-205.039 1089.72,-191.118 1014.5,-187.29"/>
<polygon fill="#cccccc" stroke="#cccccc" points="1014.25,-183.775 1004.1,-186.814 1013.93,-190.768 1014.25,-183.775"/>
</g>
<!-- Strideable -->
<g id="node17" class="node">
<g id="a_node17"><a xlink:href="/v2.1/protocol/Strideable/" target="_top">
<path fill="#999999" stroke="#999999" d="M806.693,-254C806.693,-254 757.307,-254 757.307,-254 753.64,-254 749.974,-250.333 749.974,-246.667 749.974,-246.667 749.974,-239.333 749.974,-239.333 749.974,-235.667 753.64,-232 757.307,-232 757.307,-232 806.693,-232 806.693,-232 810.36,-232 814.026,-235.667 814.026,-239.333 814.026,-239.333 814.026,-246.667 814.026,-246.667 814.026,-250.333 810.36,-254 806.693,-254"/>
<text text-anchor="middle" x="782" y="-239.4" font-family="Helvetica,sans-Serif" font-size="12.00" fill="white">Strideable</text>
</a>
</g>
</g>
<!-- Comparable&#45;&gt;Strideable -->
<g id="edge37" class="edge">
<path fill="none" stroke="#cccccc" d="M852.625,-289.988C839.742,-281.599 821.121,-269.474 806.234,-259.78"/>
<polygon fill="#cccccc" stroke="#cccccc" points="807.822,-256.638 797.532,-254.114 804.002,-262.504 807.822,-256.638"/>
</g>
<!-- CustomStringConvertible -->
<g id="node5" class="node">
<g id="a_node5"><a xlink:href="/v2.1/protocol/CustomStringConvertible/" target="_top">
<path fill="#999999" stroke="#999999" d="M393.208,-254C393.208,-254 264.792,-254 264.792,-254 261.126,-254 257.459,-250.333 257.459,-246.667 257.459,-246.667 257.459,-239.333 257.459,-239.333 257.459,-235.667 261.126,-232 264.792,-232 264.792,-232 393.208,-232 393.208,-232 396.874,-232 400.541,-235.667 400.541,-239.333 400.541,-239.333 400.541,-246.667 400.541,-246.667 400.541,-250.333 396.874,-254 393.208,-254"/>
<text text-anchor="middle" x="329" y="-239.4" font-family="Helvetica,sans-Serif" font-size="12.00" fill="white">CustomStringConvertible</text>
</a>
</g>
</g>
<!-- CustomStringConvertible&#45;&gt;Int64 -->
<g id="edge5" class="edge">
<path fill="none" stroke="#cccccc" d="M330.255,-231.874C333.874,-203.841 345.277,-122.993 364,-58 366.571,-49.0769 370.187,-39.4726 373.504,-31.3597"/>
<polygon fill="#cccccc" stroke="#cccccc" points="376.772,-32.618 377.446,-22.0446 370.326,-29.8904 376.772,-32.618"/>
</g>
<!-- CustomStringConvertible&#45;&gt;_IntegerType -->
<g id="edge18" class="edge">
<path fill="none" stroke="#cccccc" d="M348.487,-231.988C365.432,-223.283 390.208,-210.554 409.4,-200.694"/>
<polygon fill="#cccccc" stroke="#cccccc" points="411.019,-203.797 418.314,-196.114 407.82,-197.57 411.019,-203.797"/>
</g>
<!-- Equatable -->
<g id="node6" class="node">
<g id="a_node6"><a xlink:href="/v2.1/protocol/Equatable/" target="_top">
<path fill="#999999" stroke="#999999" d="M398.702,-428C398.702,-428 349.298,-428 349.298,-428 345.632,-428 341.965,-424.333 341.965,-420.667 341.965,-420.667 341.965,-413.333 341.965,-413.333 341.965,-409.667 345.632,-406 349.298,-406 349.298,-406 398.702,-406 398.702,-406 402.368,-406 406.035,-409.667 406.035,-413.333 406.035,-413.333 406.035,-420.667 406.035,-420.667 406.035,-424.333 402.368,-428 398.702,-428"/>
<text text-anchor="middle" x="374" y="-413.4" font-family="Helvetica,sans-Serif" font-size="12.00" fill="white">Equatable</text>
</a>
</g>
</g>
<!-- Equatable&#45;&gt;Comparable -->
<g id="edge26" class="edge">
<path fill="none" stroke="#cccccc" d="M406.032,-408.608C490.678,-389.074 720.636,-336.007 820.571,-312.945"/>
<polygon fill="#cccccc" stroke="#cccccc" points="821.439,-316.337 830.396,-310.678 819.865,-309.516 821.439,-316.337"/>
</g>
<!-- Hashable -->
<g id="node8" class="node">
<g id="a_node8"><a xlink:href="/v2.1/protocol/Hashable/" target="_top">
<path fill="#999999" stroke="#999999" d="M231.694,-254C231.694,-254 186.306,-254 186.306,-254 182.639,-254 178.973,-250.333 178.973,-246.667 178.973,-246.667 178.973,-239.333 178.973,-239.333 178.973,-235.667 182.639,-232 186.306,-232 186.306,-232 231.694,-232 231.694,-232 235.361,-232 239.027,-235.667 239.027,-239.333 239.027,-239.333 239.027,-246.667 239.027,-246.667 239.027,-250.333 235.361,-254 231.694,-254"/>
<text text-anchor="middle" x="209" y="-239.4" font-family="Helvetica,sans-Serif" font-size="12.00" fill="white">Hashable</text>
</a>
</g>
</g>
<!-- Equatable&#45;&gt;Hashable -->
<g id="edge23" class="edge">
<path fill="none" stroke="#cccccc" d="M364.173,-405.756C336.954,-377.382 260.337,-297.515 226.008,-261.73"/>
<polygon fill="#cccccc" stroke="#cccccc" points="228.433,-259.202 218.984,-254.408 223.381,-264.047 228.433,-259.202"/>
</g>
<!-- Equatable&#45;&gt;Int64 -->
<g id="edge3" class="edge">
<path fill="none" stroke="#cccccc" d="M341.789,-413.152C251.07,-404.252 0,-373.189 0,-302 0,-302 0,-302 0,-126 0,-74.076 46.9767,-77.745 95,-58 179.622,-23.2072 288.344,-14.624 344.578,-12.5772"/>
<polygon fill="#cccccc" stroke="#cccccc" points="344.891,-16.0692 354.776,-12.2576 344.672,-9.07264 344.891,-16.0692"/>
</g>
<!-- _Incrementable -->
<g id="node19" class="node">
<g id="a_node19"><a xlink:href="/v2.1/protocol/_Incrementable/" target="_top">
<path fill="#999999" stroke="#999999" d="M467.705,-370C467.705,-370 390.295,-370 390.295,-370 386.628,-370 382.961,-366.333 382.961,-362.667 382.961,-362.667 382.961,-355.333 382.961,-355.333 382.961,-351.667 386.628,-348 390.295,-348 390.295,-348 467.705,-348 467.705,-348 471.372,-348 475.039,-351.667 475.039,-355.333 475.039,-355.333 475.039,-362.667 475.039,-362.667 475.039,-366.333 471.372,-370 467.705,-370"/>
<text text-anchor="middle" x="429" y="-355.4" font-family="Helvetica,sans-Serif" font-size="12.00" fill="white">_Incrementable</text>
</a>
</g>
</g>
<!-- Equatable&#45;&gt;_Incrementable -->
<g id="edge27" class="edge">
<path fill="none" stroke="#cccccc" d="M383.833,-405.988C391.557,-398.123 402.507,-386.974 411.691,-377.624"/>
<polygon fill="#cccccc" stroke="#cccccc" points="414.37,-379.891 418.88,-370.304 409.376,-374.986 414.37,-379.891"/>
</g>
<!-- ForwardIndexType -->
<g id="node7" class="node">
<g id="a_node7"><a xlink:href="/v2.1/protocol/ForwardIndexType/" target="_top">
<path fill="#999999" stroke="#999999" d="M712.206,-312C712.206,-312 617.794,-312 617.794,-312 614.127,-312 610.461,-308.333 610.461,-304.667 610.461,-304.667 610.461,-297.333 610.461,-297.333 610.461,-293.667 614.127,-290 617.794,-290 617.794,-290 712.206,-290 712.206,-290 715.873,-290 719.539,-293.667 719.539,-297.333 719.539,-297.333 719.539,-304.667 719.539,-304.667 719.539,-308.333 715.873,-312 712.206,-312"/>
<text text-anchor="middle" x="665" y="-297.4" font-family="Helvetica,sans-Serif" font-size="12.00" fill="white">ForwardIndexType</text>
</a>
</g>
</g>
<!-- ForwardIndexType&#45;&gt;BidirectionalIndexType -->
<g id="edge35" class="edge">
<path fill="none" stroke="#cccccc" d="M665.358,-289.988C665.61,-282.91 665.958,-273.171 666.269,-264.478"/>
<polygon fill="#cccccc" stroke="#cccccc" points="669.773,-264.422 666.632,-254.304 662.777,-264.173 669.773,-264.422"/>
</g>
<!-- Hashable&#45;&gt;Int64 -->
<g id="edge4" class="edge">
<path fill="none" stroke="#cccccc" d="M231.602,-231.96C247.521,-224.005 268.496,-211.639 283,-196 330.042,-145.277 321.48,-118.516 355,-58 359.966,-49.0337 365.686,-39.2215 370.578,-30.971"/>
<polygon fill="#cccccc" stroke="#cccccc" points="373.725,-32.5275 375.848,-22.1473 367.715,-28.9385 373.725,-32.5275"/>
</g>
<!-- Hashable&#45;&gt;_IntegerType -->
<g id="edge19" class="edge">
<path fill="none" stroke="#cccccc" d="M239.223,-234.208C242.188,-233.456 245.151,-232.71 248,-232 295.461,-220.17 349.702,-207.081 388.047,-197.9"/>
<polygon fill="#cccccc" stroke="#cccccc" points="389.018,-201.266 397.929,-195.536 387.389,-194.458 389.018,-201.266"/>
</g>
<!-- IntegerArithmeticType&#45;&gt;_IntegerType -->
<g id="edge20" class="edge">
<path fill="none" stroke="#cccccc" d="M505.34,-231.988C493.056,-223.599 475.302,-211.474 461.107,-201.78"/>
<polygon fill="#cccccc" stroke="#cccccc" points="463.041,-198.863 452.81,-196.114 459.094,-204.644 463.041,-198.863"/>
</g>
<!-- IntegerLiteralConvertible -->
<g id="node11" class="node">
<g id="a_node11"><a xlink:href="/v2.1/protocol/IntegerLiteralConvertible/" target="_top">
<path fill="#999999" stroke="#999999" d="M1136.72,-254C1136.72,-254 1011.28,-254 1011.28,-254 1007.61,-254 1003.94,-250.333 1003.94,-246.667 1003.94,-246.667 1003.94,-239.333 1003.94,-239.333 1003.94,-235.667 1007.61,-232 1011.28,-232 1011.28,-232 1136.72,-232 1136.72,-232 1140.39,-232 1144.06,-235.667 1144.06,-239.333 1144.06,-239.333 1144.06,-246.667 1144.06,-246.667 1144.06,-250.333 1140.39,-254 1136.72,-254"/>
<text text-anchor="middle" x="1074" y="-239.4" font-family="Helvetica,sans-Serif" font-size="12.00" fill="white">IntegerLiteralConvertible</text>
</a>
</g>
</g>
<!-- IntegerLiteralConvertible&#45;&gt;SignedNumberType -->
<g id="edge29" class="edge">
<path fill="none" stroke="#cccccc" d="M1051.12,-231.988C1030.86,-223.124 1001.06,-210.09 978.363,-200.159"/>
<polygon fill="#cccccc" stroke="#cccccc" points="979.682,-196.916 969.117,-196.114 976.876,-203.329 979.682,-196.916"/>
</g>
<!-- IntegerLiteralConvertible&#45;&gt;_IntegerType -->
<g id="edge17" class="edge">
<path fill="none" stroke="#cccccc" d="M1003.78,-233.054C1000.47,-232.686 997.202,-232.332 994,-232 807.862,-212.675 585.986,-196.318 488.344,-189.457"/>
<polygon fill="#cccccc" stroke="#cccccc" points="488.393,-185.952 478.173,-188.745 487.904,-192.935 488.393,-185.952"/>
</g>
<!-- IntegerType -->
<g id="node12" class="node">
<g id="a_node12"><a xlink:href="/v2.1/protocol/IntegerType/" target="_top">
<path fill="#999999" stroke="#999999" d="M472.202,-138C472.202,-138 413.798,-138 413.798,-138 410.132,-138 406.465,-134.333 406.465,-130.667 406.465,-130.667 406.465,-123.333 406.465,-123.333 406.465,-119.667 410.132,-116 413.798,-116 413.798,-116 472.202,-116 472.202,-116 475.868,-116 479.535,-119.667 479.535,-123.333 479.535,-123.333 479.535,-130.667 479.535,-130.667 479.535,-134.333 475.868,-138 472.202,-138"/>
<text text-anchor="middle" x="443" y="-123.4" font-family="Helvetica,sans-Serif" font-size="12.00" fill="white">IntegerType</text>
</a>
</g>
</g>
<!-- SignedIntegerType -->
<g id="node15" class="node">
<g id="a_node15"><a xlink:href="/v2.1/protocol/SignedIntegerType/" target="_top">
<path fill="#999999" stroke="#999999" d="M585.727,-80C585.727,-80 490.273,-80 490.273,-80 486.606,-80 482.94,-76.3333 482.94,-72.6667 482.94,-72.6667 482.94,-65.3333 482.94,-65.3333 482.94,-61.6667 486.606,-58 490.273,-58 490.273,-58 585.727,-58 585.727,-58 589.394,-58 593.06,-61.6667 593.06,-65.3333 593.06,-65.3333 593.06,-72.6667 593.06,-72.6667 593.06,-76.3333 589.394,-80 585.727,-80"/>
<text text-anchor="middle" x="538" y="-65.4" font-family="Helvetica,sans-Serif" font-size="12.00" fill="white">SignedIntegerType</text>
</a>
</g>
</g>
<!-- IntegerType&#45;&gt;SignedIntegerType -->
<g id="edge14" class="edge">
<path fill="none" stroke="#cccccc" d="M459.984,-115.988C474.484,-107.441 495.563,-95.0155 512.156,-85.2343"/>
<polygon fill="#cccccc" stroke="#cccccc" points="514.005,-88.2071 520.843,-80.1138 510.451,-82.1768 514.005,-88.2071"/>
</g>
<!-- MirrorPathType -->
<g id="node13" class="node">
<g id="a_node13"><a xlink:href="/v2.1/protocol/MirrorPathType/" target="_top">
<path fill="#999999" stroke="#999999" d="M457.69,-80C457.69,-80 380.31,-80 380.31,-80 376.643,-80 372.977,-76.3333 372.977,-72.6667 372.977,-72.6667 372.977,-65.3333 372.977,-65.3333 372.977,-61.6667 376.643,-58 380.31,-58 380.31,-58 457.69,-58 457.69,-58 461.357,-58 465.023,-61.6667 465.023,-65.3333 465.023,-65.3333 465.023,-72.6667 465.023,-72.6667 465.023,-76.3333 461.357,-80 457.69,-80"/>
<text text-anchor="middle" x="419" y="-65.4" font-family="Helvetica,sans-Serif" font-size="12.00" fill="white">MirrorPathType</text>
</a>
</g>
</g>
<!-- MirrorPathType&#45;&gt;Int64 -->
<g id="edge10" class="edge">
<path fill="none" stroke="#cccccc" d="M412.385,-57.9883C407.396,-50.4379 400.408,-39.8611 394.391,-30.7543"/>
<polygon fill="#cccccc" stroke="#cccccc" points="397.241,-28.7178 388.808,-22.3039 391.4,-32.5767 397.241,-28.7178"/>
</g>
<!-- RandomAccessIndexType&#45;&gt;Int64 -->
<g id="edge6" class="edge">
<path fill="none" stroke="#cccccc" d="M664.909,-173.924C659.338,-149.755 641.768,-88.2523 602,-58 573.7,-36.4715 474.19,-22.2817 419.206,-15.893"/>
<polygon fill="#cccccc" stroke="#cccccc" points="419.491,-12.403 409.161,-14.7551 418.703,-19.3585 419.491,-12.403"/>
</g>
<!-- RandomAccessIndexType&#45;&gt;IntegerType -->
<g id="edge31" class="edge">
<path fill="none" stroke="#cccccc" d="M626.953,-173.988C588.322,-164.331 529.886,-149.721 489.281,-139.57"/>
<polygon fill="#cccccc" stroke="#cccccc" points="489.915,-136.121 479.365,-137.091 488.218,-142.912 489.915,-136.121"/>
</g>
<!-- SignedIntegerType&#45;&gt;Int64 -->
<g id="edge1" class="edge">
<path fill="none" stroke="#cccccc" d="M510.11,-57.9883C484.553,-48.814 446.55,-35.1716 418.568,-25.1271"/>
<polygon fill="#cccccc" stroke="#cccccc" points="419.72,-21.822 409.126,-21.7375 417.355,-28.4104 419.72,-21.822"/>
</g>
<!-- SignedNumberType&#45;&gt;Int64 -->
<g id="edge7" class="edge">
<path fill="none" stroke="#cccccc" d="M924.833,-173.997C874.371,-150.517 742.568,-91.3429 627,-58 554.751,-37.1553 467.715,-23.4157 419.246,-16.7388"/>
<polygon fill="#cccccc" stroke="#cccccc" points="419.599,-13.2548 409.22,-15.3831 418.661,-20.1917 419.599,-13.2548"/>
</g>
<!-- _SignedIntegerType -->
<g id="node24" class="node">
<g id="a_node24"><a xlink:href="/v2.1/protocol/_SignedIntegerType/" target="_top">
<path fill="#999999" stroke="#999999" d="M607.231,-138C607.231,-138 504.769,-138 504.769,-138 501.102,-138 497.436,-134.333 497.436,-130.667 497.436,-130.667 497.436,-123.333 497.436,-123.333 497.436,-119.667 501.102,-116 504.769,-116 504.769,-116 607.231,-116 607.231,-116 610.898,-116 614.564,-119.667 614.564,-123.333 614.564,-123.333 614.564,-130.667 614.564,-130.667 614.564,-134.333 610.898,-138 607.231,-138"/>
<text text-anchor="middle" x="556" y="-123.4" font-family="Helvetica,sans-Serif" font-size="12.00" fill="white">_SignedIntegerType</text>
</a>
</g>
</g>
<!-- SignedNumberType&#45;&gt;_SignedIntegerType -->
<g id="edge16" class="edge">
<path fill="none" stroke="#cccccc" d="M887.613,-175.616C817.291,-165.519 699.335,-148.581 624.701,-137.865"/>
<polygon fill="#cccccc" stroke="#cccccc" points="624.863,-134.352 614.467,-136.395 623.868,-141.281 624.863,-134.352"/>
</g>
<!-- Strideable&#45;&gt;RandomAccessIndexType -->
<g id="edge33" class="edge">
<path fill="none" stroke="#cccccc" d="M761.44,-231.988C743.481,-223.243 717.185,-210.438 696.899,-200.559"/>
<polygon fill="#cccccc" stroke="#cccccc" points="698.292,-197.345 687.769,-196.114 695.228,-203.639 698.292,-197.345"/>
</g>
<!-- _CVarArgAlignedType&#45;&gt;Int64 -->
<g id="edge12" class="edge">
<path fill="none" stroke="#cccccc" d="M213.65,-57.9883C250.705,-47.866 307.671,-32.3046 344.89,-22.1375"/>
<polygon fill="#cccccc" stroke="#cccccc" points="346.106,-25.4334 354.831,-19.4219 344.262,-18.6808 346.106,-25.4334"/>
</g>
<!-- _Incrementable&#45;&gt;ForwardIndexType -->
<g id="edge36" class="edge">
<path fill="none" stroke="#cccccc" d="M471.192,-347.988C510.838,-338.581 570.282,-324.475 612.876,-314.368"/>
<polygon fill="#cccccc" stroke="#cccccc" points="613.854,-317.734 622.776,-312.019 612.238,-310.923 613.854,-317.734"/>
</g>
<!-- _Incrementable&#45;&gt;_IntegerType -->
<g id="edge22" class="edge">
<path fill="none" stroke="#cccccc" d="M429.536,-347.756C430.983,-320.097 434.991,-243.509 436.926,-206.519"/>
<polygon fill="#cccccc" stroke="#cccccc" points="440.428,-206.577 437.455,-196.408 433.438,-206.211 440.428,-206.577"/>
</g>
<!-- _IntegerArithmeticType -->
<g id="node20" class="node">
<g id="a_node20"><a xlink:href="/v2.1/protocol/_IntegerArithmeticType/" target="_top">
<path fill="#999999" stroke="#999999" d="M583.215,-312C583.215,-312 464.785,-312 464.785,-312 461.118,-312 457.452,-308.333 457.452,-304.667 457.452,-304.667 457.452,-297.333 457.452,-297.333 457.452,-293.667 461.118,-290 464.785,-290 464.785,-290 583.215,-290 583.215,-290 586.882,-290 590.548,-293.667 590.548,-297.333 590.548,-297.333 590.548,-304.667 590.548,-304.667 590.548,-308.333 586.882,-312 583.215,-312"/>
<text text-anchor="middle" x="524" y="-297.4" font-family="Helvetica,sans-Serif" font-size="12.00" fill="white">_IntegerArithmeticType</text>
</a>
</g>
</g>
<!-- _IntegerArithmeticType&#45;&gt;IntegerArithmeticType -->
<g id="edge24" class="edge">
<path fill="none" stroke="#cccccc" d="M523.285,-289.988C522.779,-282.91 522.084,-273.171 521.463,-264.478"/>
<polygon fill="#cccccc" stroke="#cccccc" points="524.94,-264.029 520.736,-254.304 517.957,-264.528 524.94,-264.029"/>
</g>
<!-- _IntegerType&#45;&gt;IntegerType -->
<g id="edge30" class="edge">
<path fill="none" stroke="#cccccc" d="M438.894,-173.988C439.526,-166.91 440.395,-157.171 441.172,-148.478"/>
<polygon fill="#cccccc" stroke="#cccccc" points="444.677,-148.576 442.08,-138.304 437.704,-147.953 444.677,-148.576"/>
</g>
<!-- _IntegerType&#45;&gt;_SignedIntegerType -->
<g id="edge15" class="edge">
<path fill="none" stroke="#cccccc" d="M459.096,-173.988C477.607,-165.204 504.75,-152.322 525.603,-142.425"/>
<polygon fill="#cccccc" stroke="#cccccc" points="527.155,-145.563 534.689,-138.114 524.154,-139.239 527.155,-145.563"/>
</g>
<!-- _RandomAccessAmbiguity -->
<g id="node22" class="node">
<g id="a_node22"><a xlink:href="/v2.1/protocol/_RandomAccessAmbiguity/" target="_top">
<path fill="#999999" stroke="#999999" d="M978.214,-254C978.214,-254 839.786,-254 839.786,-254 836.12,-254 832.453,-250.333 832.453,-246.667 832.453,-246.667 832.453,-239.333 832.453,-239.333 832.453,-235.667 836.12,-232 839.786,-232 839.786,-232 978.214,-232 978.214,-232 981.88,-232 985.547,-235.667 985.547,-239.333 985.547,-239.333 985.547,-246.667 985.547,-246.667 985.547,-250.333 981.88,-254 978.214,-254"/>
<text text-anchor="middle" x="909" y="-239.4" font-family="Helvetica,sans-Serif" font-size="12.00" fill="white">_RandomAccessAmbiguity</text>
</a>
</g>
</g>
<!-- _RandomAccessAmbiguity&#45;&gt;RandomAccessIndexType -->
<g id="edge34" class="edge">
<path fill="none" stroke="#cccccc" d="M865.735,-231.988C824.996,-222.561 763.869,-208.416 720.173,-198.305"/>
<polygon fill="#cccccc" stroke="#cccccc" points="720.829,-194.864 710.297,-196.019 719.251,-201.684 720.829,-194.864"/>
</g>
<!-- _Reflectable -->
<g id="node23" class="node">
<g id="a_node23"><a xlink:href="/v2.1/protocol/_Reflectable/" target="_top">
<path fill="#999999" stroke="#999999" d="M1306.7,-80C1306.7,-80 1245.3,-80 1245.3,-80 1241.63,-80 1237.97,-76.3333 1237.97,-72.6667 1237.97,-72.6667 1237.97,-65.3333 1237.97,-65.3333 1237.97,-61.6667 1241.63,-58 1245.3,-58 1245.3,-58 1306.7,-58 1306.7,-58 1310.37,-58 1314.03,-61.6667 1314.03,-65.3333 1314.03,-65.3333 1314.03,-72.6667 1314.03,-72.6667 1314.03,-76.3333 1310.37,-80 1306.7,-80"/>
<text text-anchor="middle" x="1276" y="-65.4" font-family="Helvetica,sans-Serif" font-size="12.00" fill="white">_Reflectable</text>
</a>
</g>
</g>
<!-- _Reflectable&#45;&gt;Int64 -->
<g id="edge9" class="edge">
<path fill="none" stroke="#cccccc" d="M1237.76,-60.0366C1233.14,-59.255 1228.47,-58.5495 1224,-58 914.71,-19.9895 537.645,-13.3864 419.332,-12.2404"/>
<polygon fill="#cccccc" stroke="#cccccc" points="419.049,-8.73782 409.018,-12.1482 418.986,-15.7375 419.049,-8.73782"/>
</g>
<!-- _SignedIntegerType&#45;&gt;SignedIntegerType -->
<g id="edge13" class="edge">
<path fill="none" stroke="#cccccc" d="M552.782,-115.988C550.456,-108.752 547.237,-98.7373 544.396,-89.9"/>
<polygon fill="#cccccc" stroke="#cccccc" points="547.704,-88.7531 541.312,-80.3039 541.04,-90.8952 547.704,-88.7531"/>
</g>
<!-- _Strideable -->
<g id="node25" class="node">
<g id="a_node25"><a xlink:href="/v2.1/protocol/_Strideable/" target="_top">
<path fill="#999999" stroke="#999999" d="M804.7,-312C804.7,-312 749.3,-312 749.3,-312 745.634,-312 741.967,-308.333 741.967,-304.667 741.967,-304.667 741.967,-297.333 741.967,-297.333 741.967,-293.667 745.634,-290 749.3,-290 749.3,-290 804.7,-290 804.7,-290 808.366,-290 812.033,-293.667 812.033,-297.333 812.033,-297.333 812.033,-304.667 812.033,-304.667 812.033,-308.333 808.366,-312 804.7,-312"/>
<text text-anchor="middle" x="777" y="-297.4" font-family="Helvetica,sans-Serif" font-size="12.00" fill="white">_Strideable</text>
</a>
</g>
</g>
<!-- _Strideable&#45;&gt;Strideable -->
<g id="edge38" class="edge">
<path fill="none" stroke="#cccccc" d="M777.894,-289.988C778.526,-282.91 779.395,-273.171 780.172,-264.478"/>
<polygon fill="#cccccc" stroke="#cccccc" points="783.677,-264.576 781.08,-254.304 776.704,-263.953 783.677,-264.576"/>
</g>
</g>
</svg>
