<?xml version="1.0" encoding="UTF-8" standalone="no"?>
<!DOCTYPE svg PUBLIC "-//W3C//DTD SVG 1.1//EN"
 "http://www.w3.org/Graphics/SVG/1.1/DTD/svg11.dtd">
<!-- Generated by graphviz version 2.36.0 (20140111.2315)
 -->
<!-- Title: Comparable &#45; Type Hierarchy &#45; SwiftDoc.org Pages: 1 -->
<svg width="2685pt" height="485pt"
 viewBox="0.00 0.00 2685.40 485.20" xmlns="http://www.w3.org/2000/svg" xmlns:xlink="http://www.w3.org/1999/xlink">
<g id="graph0" class="graph" transform="scale(1 1) rotate(0) translate(7.2 427.6)">
<g transform="translate(0 -427.6)">
<g>
    <path fill="#666666" d="M13.846,10.832c-0.336-0.464-0.792-0.844-1.368-1.14s-1.224-0.444-1.944-0.444
        c-0.384,0-0.772,0.052-1.164,0.156C8.977,9.509,8.622,9.677,8.301,9.908c-0.32,0.232-0.58,0.52-0.78,0.864
        c-0.2,0.344-0.3,0.756-0.3,1.236c0,0.464,0.092,0.852,0.276,1.164c0.184,0.312,0.432,0.576,0.744,0.792s0.68,0.4,1.104,0.552
        c0.423,0.152,0.876,0.309,1.356,0.468c0.576,0.177,1.16,0.376,1.752,0.601c0.592,0.224,1.128,0.52,1.608,0.888
        s0.872,0.828,1.176,1.38s0.456,1.252,0.456,2.101c0,0.88-0.164,1.644-0.492,2.292c-0.328,0.647-0.765,1.184-1.308,1.607
        c-0.544,0.424-1.172,0.74-1.884,0.948s-1.444,0.312-2.196,0.312c-1.072,0-2.108-0.208-3.108-0.624
        c-1-0.415-1.828-1.031-2.484-1.848l1.848-1.56c0.4,0.592,0.936,1.071,1.608,1.439c0.672,0.368,1.399,0.552,2.184,0.552
        c0.4,0,0.8-0.056,1.2-0.168c0.4-0.111,0.764-0.288,1.092-0.527c0.328-0.24,0.596-0.54,0.804-0.9
        c0.208-0.36,0.312-0.796,0.312-1.308s-0.108-0.94-0.324-1.284c-0.216-0.344-0.508-0.636-0.876-0.876s-0.796-0.444-1.284-0.612
        c-0.488-0.168-1.004-0.34-1.548-0.516c-0.544-0.16-1.08-0.356-1.608-0.588c-0.528-0.232-1-0.528-1.416-0.889
        c-0.416-0.359-0.752-0.804-1.008-1.332c-0.256-0.527-0.384-1.184-0.384-1.968c0-0.848,0.172-1.576,0.516-2.184
        c0.344-0.608,0.792-1.112,1.344-1.512c0.552-0.4,1.176-0.692,1.872-0.876c0.696-0.184,1.396-0.276,2.1-0.276
        c0.992,0,1.92,0.176,2.784,0.528c0.864,0.352,1.56,0.824,2.088,1.416L13.846,10.832z"/>
    <path fill="#666666" d="M18.813,13.304l2.568,8.688h0.048l2.712-8.688h2.376l2.76,8.688h0.048l2.568-8.688h2.376L30.501,24.68
        h-2.352l-2.808-8.544h-0.048l-2.784,8.544h-2.352l-3.792-11.376H18.813z"/>
    <path fill="#666666" d="M38.685,9.2c0,0.416-0.147,0.76-0.44,1.032c-0.294,0.272-0.647,0.408-1.06,0.408s-0.762-0.14-1.047-0.42
        c-0.286-0.28-0.429-0.62-0.429-1.02c0-0.416,0.143-0.764,0.429-1.044c0.286-0.28,0.635-0.42,1.047-0.42s0.766,0.14,1.06,0.42
        C38.538,8.437,38.685,8.784,38.685,9.2z M38.325,24.68h-2.256V13.304h2.256V24.68z"/>
    <path fill="#666666" d="M47.613,15.152h-2.64v9.528h-2.256v-9.528h-2.256v-1.848h2.256v-2.376c0-0.672,0.076-1.292,0.228-1.86
        c0.152-0.568,0.4-1.06,0.744-1.476c0.344-0.416,0.784-0.744,1.32-0.984c0.536-0.24,1.188-0.36,1.956-0.36
        c0.544,0,1.016,0.056,1.416,0.168l-0.264,1.944c-0.176-0.048-0.352-0.088-0.528-0.12c-0.176-0.032-0.376-0.048-0.6-0.048
        c-0.432,0-0.78,0.076-1.044,0.228c-0.264,0.152-0.468,0.356-0.612,0.612s-0.24,0.548-0.288,0.876
        c-0.048,0.328-0.072,0.668-0.072,1.02v2.376h2.64V15.152z"/>
    <path fill="#666666" d="M54.909,15.152h-3.024v5.91c0,0.687,0.128,1.177,0.384,1.472c0.256,0.295,0.664,0.442,1.224,0.442
        c0.208,0,0.432-0.021,0.672-0.065c0.24-0.044,0.456-0.11,0.648-0.198l0.072,1.848c-0.272,0.096-0.572,0.172-0.9,0.229
        c-0.328,0.056-0.668,0.084-1.02,0.084c-1.072,0-1.892-0.296-2.46-0.889c-0.568-0.592-0.852-1.479-0.852-2.664v-6.168h-2.184
        v-1.848h2.184V10.04h2.232v3.264h3.024V15.152z"/>
    <path fill="#666666" d="M57.356,7.688h5.832c1.088,0,2.176,0.16,3.264,0.48c1.088,0.32,2.072,0.824,2.952,1.512
        s1.592,1.568,2.136,2.64c0.544,1.072,0.816,2.36,0.816,3.864c0,1.456-0.272,2.716-0.816,3.78s-1.256,1.943-2.136,2.64
        s-1.864,1.216-2.952,1.561c-1.088,0.344-2.176,0.516-3.264,0.516h-5.832V7.688z M59.732,22.593h2.976
        c1.024,0,1.972-0.145,2.844-0.432c0.872-0.288,1.624-0.704,2.256-1.248c0.632-0.544,1.124-1.216,1.476-2.017
        c0.352-0.8,0.528-1.704,0.528-2.712c0-1.056-0.176-1.983-0.528-2.784c-0.353-0.8-0.844-1.468-1.476-2.004
        c-0.632-0.536-1.384-0.944-2.256-1.224s-1.82-0.42-2.844-0.42h-2.976V22.593z"/>
    <path fill="#666666" d="M86.06,18.969c0,0.88-0.156,1.688-0.468,2.424c-0.312,0.736-0.744,1.372-1.296,1.908
        c-0.552,0.536-1.204,0.952-1.956,1.248c-0.752,0.296-1.56,0.443-2.424,0.443c-0.864,0-1.672-0.147-2.424-0.443
        c-0.752-0.296-1.4-0.712-1.944-1.248c-0.544-0.536-0.972-1.172-1.284-1.908c-0.312-0.735-0.468-1.544-0.468-2.424
        s0.156-1.684,0.468-2.412c0.312-0.728,0.74-1.356,1.284-1.884c0.543-0.528,1.191-0.939,1.944-1.236
        c0.752-0.296,1.56-0.444,2.424-0.444c0.864,0,1.672,0.148,2.424,0.444c0.752,0.297,1.404,0.708,1.956,1.236
        c0.552,0.527,0.984,1.156,1.296,1.884C85.904,17.285,86.06,18.089,86.06,18.969z M83.708,18.98c0-0.542-0.084-1.061-0.252-1.556
        c-0.169-0.494-0.414-0.929-0.734-1.304s-0.718-0.674-1.192-0.897s-1.015-0.335-1.625-0.335c-0.61,0-1.152,0.111-1.625,0.335
        c-0.474,0.224-0.871,0.522-1.191,0.897c-0.321,0.375-0.566,0.81-0.734,1.304C76.184,17.92,76.1,18.438,76.1,18.98
        c0,0.543,0.084,1.062,0.253,1.556c0.168,0.495,0.413,0.934,0.734,1.316c0.321,0.383,0.718,0.686,1.191,0.909
        c0.473,0.224,1.015,0.335,1.625,0.335c0.61,0,1.151-0.111,1.625-0.335s0.871-0.526,1.192-0.909s0.565-0.821,0.734-1.316
        C83.624,20.042,83.708,19.523,83.708,18.98z"/>
    <path fill="#666666" d="M96.428,16.184c-0.24-0.368-0.6-0.676-1.08-0.924s-0.992-0.372-1.536-0.372
        c-0.592,0-1.116,0.112-1.572,0.336c-0.456,0.225-0.844,0.524-1.164,0.9c-0.32,0.376-0.564,0.812-0.732,1.308
        s-0.252,1.017-0.252,1.56c0,0.545,0.084,1.064,0.252,1.561s0.412,0.933,0.732,1.308c0.32,0.376,0.712,0.677,1.176,0.9
        c0.464,0.225,0.992,0.336,1.584,0.336c0.576,0,1.1-0.111,1.572-0.336c0.472-0.224,0.86-0.528,1.164-0.912l1.512,1.368
        c-0.48,0.561-1.08,0.996-1.8,1.308c-0.72,0.312-1.536,0.468-2.448,0.468c-0.88,0-1.692-0.144-2.436-0.432
        c-0.744-0.288-1.388-0.691-1.932-1.212c-0.544-0.52-0.972-1.147-1.284-1.884s-0.468-1.561-0.468-2.473
        c0-0.896,0.152-1.711,0.456-2.447c0.304-0.736,0.728-1.368,1.272-1.896c0.543-0.527,1.188-0.936,1.932-1.224
        c0.744-0.288,1.548-0.433,2.412-0.433c0.8,0,1.596,0.16,2.388,0.48s1.419,0.784,1.884,1.392L96.428,16.184z"/>
    <path fill="#666666" d="M103.1,23.24c0,0.417-0.152,0.784-0.456,1.104c-0.304,0.32-0.688,0.479-1.152,0.479
        c-0.448,0-0.828-0.155-1.14-0.468c-0.312-0.312-0.468-0.676-0.468-1.092c0-0.432,0.152-0.804,0.456-1.116
        c0.304-0.312,0.688-0.468,1.152-0.468c0.464,0,0.848,0.152,1.152,0.456C102.947,22.44,103.1,22.808,103.1,23.24z"/>
    <path fill="#666666" d="M116.635,18.969c0,0.88-0.156,1.688-0.468,2.424c-0.312,0.736-0.744,1.372-1.296,1.908
        c-0.552,0.536-1.204,0.952-1.956,1.248c-0.752,0.296-1.56,0.443-2.424,0.443c-0.864,0-1.672-0.147-2.424-0.443
        c-0.752-0.296-1.4-0.712-1.944-1.248c-0.544-0.536-0.972-1.172-1.284-1.908c-0.312-0.735-0.468-1.544-0.468-2.424
        s0.156-1.684,0.468-2.412c0.312-0.728,0.74-1.356,1.284-1.884c0.543-0.528,1.191-0.939,1.944-1.236
        c0.752-0.296,1.56-0.444,2.424-0.444c0.864,0,1.672,0.148,2.424,0.444c0.752,0.297,1.404,0.708,1.956,1.236
        c0.552,0.527,0.984,1.156,1.296,1.884C116.479,17.285,116.635,18.089,116.635,18.969z M114.283,18.98
        c0-0.542-0.084-1.061-0.252-1.556c-0.169-0.494-0.414-0.929-0.734-1.304s-0.718-0.674-1.192-0.897s-1.015-0.335-1.625-0.335
        c-0.61,0-1.152,0.111-1.625,0.335c-0.474,0.224-0.871,0.522-1.191,0.897c-0.321,0.375-0.566,0.81-0.734,1.304
        c-0.169,0.495-0.253,1.014-0.253,1.556c0,0.543,0.084,1.062,0.253,1.556c0.168,0.495,0.413,0.934,0.734,1.316
        c0.321,0.383,0.718,0.686,1.191,0.909c0.473,0.224,1.015,0.335,1.625,0.335c0.61,0,1.151-0.111,1.625-0.335
        s0.871-0.526,1.192-0.909s0.565-0.821,0.734-1.316C114.199,20.042,114.283,19.523,114.283,18.98z"/>
    <path fill="#666666" d="M119.251,14.577c-0.016-0.48-0.04-0.904-0.072-1.272h2.136c0.032,0.288,0.056,0.62,0.072,0.996
        c0.016,0.376,0.024,0.684,0.024,0.924h0.072c0.32-0.672,0.788-1.212,1.404-1.62c0.616-0.408,1.308-0.612,2.076-0.612
        c0.352,0,0.648,0.033,0.888,0.097l-0.096,2.088c-0.32-0.08-0.664-0.12-1.032-0.12c-0.544,0-1.016,0.101-1.416,0.3
        c-0.4,0.2-0.732,0.468-0.996,0.805c-0.264,0.336-0.46,0.724-0.588,1.163c-0.128,0.44-0.192,0.9-0.192,1.381v5.976h-2.256v-8.928
        C119.275,15.449,119.267,15.056,119.251,14.577z"/>
    <path fill="#666666" d="M128.419,26.625c0.496,0.56,1.116,1.008,1.86,1.344c0.744,0.336,1.508,0.504,2.292,0.504
        c0.752,0,1.384-0.108,1.896-0.324s0.924-0.512,1.236-0.888s0.536-0.82,0.672-1.332c0.136-0.513,0.204-1.064,0.204-1.656v-1.464
        h-0.048c-0.416,0.641-0.984,1.128-1.704,1.464c-0.72,0.336-1.488,0.504-2.304,0.504c-0.864,0-1.652-0.151-2.364-0.456
        c-0.712-0.304-1.316-0.72-1.812-1.248c-0.496-0.527-0.88-1.147-1.152-1.859s-0.408-1.477-0.408-2.292
        c0-0.816,0.136-1.584,0.408-2.305c0.272-0.72,0.656-1.348,1.152-1.884c0.496-0.535,1.096-0.96,1.8-1.271
        c0.704-0.312,1.488-0.469,2.352-0.469c0.816,0,1.596,0.177,2.34,0.528c0.744,0.353,1.332,0.888,1.764,1.608h0.048v-1.824h2.184
        v10.8c0,0.832-0.104,1.628-0.312,2.388c-0.208,0.76-0.56,1.433-1.056,2.017s-1.144,1.052-1.944,1.404
        c-0.8,0.352-1.792,0.527-2.976,0.527c-0.992,0-1.988-0.18-2.988-0.54c-1-0.359-1.86-0.868-2.58-1.523L128.419,26.625z
         M129.091,18.873c0,0.527,0.084,1.031,0.253,1.512c0.168,0.479,0.417,0.904,0.746,1.271c0.329,0.369,0.726,0.664,1.192,0.889
        c0.465,0.224,0.995,0.336,1.589,0.336c0.577,0,1.107-0.104,1.589-0.312c0.481-0.207,0.891-0.491,1.228-0.852
        s0.598-0.784,0.782-1.272c0.185-0.487,0.277-1.012,0.277-1.571c0-0.544-0.093-1.057-0.277-1.536
        c-0.185-0.48-0.449-0.904-0.794-1.272c-0.345-0.367-0.755-0.66-1.228-0.876c-0.474-0.216-1-0.324-1.577-0.324
        c-0.594,0-1.124,0.108-1.589,0.324c-0.466,0.216-0.863,0.504-1.192,0.864s-0.578,0.784-0.746,1.271
        C129.175,17.812,129.091,18.329,129.091,18.873z"/>
</g>
<g><a xlink:href="/" pointer-events="all" target="_top"><polygon fill="none" points="0,0 145,0 145,35 0,35 0,0"/></a></g>

</g>


<!-- AbsoluteValuable -->
<g id="node1" class="node">
<g id="a_node1"><a xlink:href="/v2.1/protocol/AbsoluteValuable/" target="_top">
<path fill="#999999" stroke="#999999" d="M776.558,-138C776.558,-138 689.442,-138 689.442,-138 685.775,-138 682.109,-134.333 682.109,-130.667 682.109,-130.667 682.109,-123.333 682.109,-123.333 682.109,-119.667 685.775,-116 689.442,-116 689.442,-116 776.558,-116 776.558,-116 780.225,-116 783.891,-119.667 783.891,-123.333 783.891,-123.333 783.891,-130.667 783.891,-130.667 783.891,-134.333 780.225,-138 776.558,-138"/>
<text text-anchor="middle" x="733" y="-123.4" font-family="Helvetica,sans-Serif" font-size="12.00" fill="white">AbsoluteValuable</text>
</a>
</g>
</g>
<!-- Double -->
<g id="node7" class="node">
<g id="a_node7"><a xlink:href="/v2.1/type/Double/" target="_top">
<polygon fill="#999999" stroke="#999999" points="724,-22 670,-22 670,-0 724,-0 724,-22"/>
<text text-anchor="middle" x="697" y="-7.4" font-family="Helvetica,sans-Serif" font-size="12.00" fill="white">Double</text>
</a>
</g>
</g>
<!-- AbsoluteValuable&#45;&gt;Double -->
<g id="edge34" class="edge">
<path fill="none" stroke="#cccccc" d="M729.805,-115.883C723.869,-97.086 711.041,-56.4627 703.302,-31.9559"/>
<polygon fill="#cccccc" stroke="#cccccc" points="706.588,-30.7398 700.239,-22.2579 699.913,-32.8478 706.588,-30.7398"/>
</g>
<!-- Float -->
<g id="node9" class="node">
<g id="a_node9"><a xlink:href="/v2.1/type/Float/" target="_top">
<polygon fill="#999999" stroke="#999999" points="652,-22 598,-22 598,-0 652,-0 652,-22"/>
<text text-anchor="middle" x="625" y="-7.4" font-family="Helvetica,sans-Serif" font-size="12.00" fill="white">Float</text>
</a>
</g>
</g>
<!-- AbsoluteValuable&#45;&gt;Float -->
<g id="edge35" class="edge">
<path fill="none" stroke="#cccccc" d="M725.488,-115.902C715.152,-102.244 695.694,-77.3661 677,-58 667.059,-47.7019 655.152,-37.0598 645.242,-28.6086"/>
<polygon fill="#cccccc" stroke="#cccccc" points="647.381,-25.8346 637.473,-22.0806 642.877,-31.1937 647.381,-25.8346"/>
</g>
<!-- Float80 -->
<g id="node10" class="node">
<g id="a_node10"><a xlink:href="/v2.1/type/Float80/" target="_top">
<polygon fill="#999999" stroke="#999999" points="796,-22 742,-22 742,-0 796,-0 796,-22"/>
<text text-anchor="middle" x="769" y="-7.4" font-family="Helvetica,sans-Serif" font-size="12.00" fill="white">Float80</text>
</a>
</g>
</g>
<!-- AbsoluteValuable&#45;&gt;Float80 -->
<g id="edge36" class="edge">
<path fill="none" stroke="#cccccc" d="M736.195,-115.883C742.131,-97.086 754.959,-56.4627 762.698,-31.9559"/>
<polygon fill="#cccccc" stroke="#cccccc" points="766.087,-32.8478 765.761,-22.2579 759.412,-30.7398 766.087,-32.8478"/>
</g>
<!-- AnyRandomAccessIndex -->
<g id="node2" class="node">
<g id="a_node2"><a xlink:href="/v2.1/type/AnyRandomAccessIndex/" target="_top">
<polygon fill="#999999" stroke="#999999" points="144.051,-22 -0.0512776,-22 -0.0512776,-0 144.051,-0 144.051,-22"/>
<text text-anchor="middle" x="72" y="-7.4" font-family="Helvetica,sans-Serif" font-size="12.00" fill="white">AnyRandomAccessIndex</text>
</a>
</g>
</g>
<!-- Bit -->
<g id="node3" class="node">
<g id="a_node3"><a xlink:href="/v2.1/type/Bit/" target="_top">
<polygon fill="#999999" stroke="#999999" points="1228,-22 1174,-22 1174,-0 1228,-0 1228,-22"/>
<text text-anchor="middle" x="1201" y="-7.4" font-family="Helvetica,sans-Serif" font-size="12.00" fill="white">Bit</text>
</a>
</g>
</g>
<!-- Character -->
<g id="node4" class="node">
<g id="a_node4"><a xlink:href="/v2.1/type/Character/" target="_top">
<polygon fill="#999999" stroke="#999999" points="1668.02,-22 1605.98,-22 1605.98,-0 1668.02,-0 1668.02,-22"/>
<text text-anchor="middle" x="1637" y="-7.4" font-family="Helvetica,sans-Serif" font-size="12.00" fill="white">Character</text>
</a>
</g>
</g>
<!-- Comparable -->
<g id="node5" class="node">
<g id="a_node5"><a xlink:href="/v2.1/protocol/Comparable/" target="_top">
<path fill="#ee543d" stroke="#ee543d" d="M1919.19,-312C1919.19,-312 1858.81,-312 1858.81,-312 1855.14,-312 1851.48,-308.333 1851.48,-304.667 1851.48,-304.667 1851.48,-297.333 1851.48,-297.333 1851.48,-293.667 1855.14,-290 1858.81,-290 1858.81,-290 1919.19,-290 1919.19,-290 1922.86,-290 1926.52,-293.667 1926.52,-297.333 1926.52,-297.333 1926.52,-304.667 1926.52,-304.667 1926.52,-308.333 1922.86,-312 1919.19,-312"/>
<text text-anchor="middle" x="1889" y="-297.4" font-family="Helvetica,sans-Serif" font-size="12.00" fill="white">Comparable</text>
</a>
</g>
</g>
<!-- Comparable&#45;&gt;Character -->
<g id="edge1" class="edge">
<path fill="none" stroke="#cccccc" d="M1851.55,-299.559C1781.35,-296.545 1637,-279.036 1637,-186 1637,-186 1637,-186 1637,-126 1637,-93.1536 1637,-54.9837 1637,-32.197"/>
<polygon fill="#cccccc" stroke="#cccccc" points="1640.5,-32.0648 1637,-22.0648 1633.5,-32.0648 1640.5,-32.0648"/>
</g>
<!-- DictionaryIndex -->
<g id="node6" class="node">
<g id="a_node6"><a xlink:href="/v2.1/type/DictionaryIndex/" target="_top">
<polygon fill="#999999" stroke="#999999" points="1779.03,-22 1686.97,-22 1686.97,-0 1779.03,-0 1779.03,-22"/>
<text text-anchor="middle" x="1733" y="-7.4" font-family="Helvetica,sans-Serif" font-size="12.00" fill="white">DictionaryIndex</text>
</a>
</g>
</g>
<!-- Comparable&#45;&gt;DictionaryIndex -->
<g id="edge2" class="edge">
<path fill="none" stroke="#cccccc" d="M1851.63,-290.492C1805.48,-276.238 1733,-244.535 1733,-186 1733,-186 1733,-186 1733,-126 1733,-93.1536 1733,-54.9837 1733,-32.197"/>
<polygon fill="#cccccc" stroke="#cccccc" points="1736.5,-32.0648 1733,-22.0648 1729.5,-32.0648 1736.5,-32.0648"/>
</g>
<!-- IntegerArithmeticType -->
<g id="node17" class="node">
<g id="a_node17"><a xlink:href="/v2.1/protocol/IntegerArithmeticType/" target="_top">
<path fill="#999999" stroke="#999999" d="M1531.71,-254C1531.71,-254 1420.29,-254 1420.29,-254 1416.62,-254 1412.96,-250.333 1412.96,-246.667 1412.96,-246.667 1412.96,-239.333 1412.96,-239.333 1412.96,-235.667 1416.62,-232 1420.29,-232 1420.29,-232 1531.71,-232 1531.71,-232 1535.38,-232 1539.04,-235.667 1539.04,-239.333 1539.04,-239.333 1539.04,-246.667 1539.04,-246.667 1539.04,-250.333 1535.38,-254 1531.71,-254"/>
<text text-anchor="middle" x="1476" y="-239.4" font-family="Helvetica,sans-Serif" font-size="12.00" fill="white">IntegerArithmeticType</text>
</a>
</g>
</g>
<!-- Comparable&#45;&gt;IntegerArithmeticType -->
<g id="edge3" class="edge">
<path fill="none" stroke="#cccccc" d="M1851.62,-294.932C1783.46,-285.69 1637.85,-265.946 1549.29,-253.937"/>
<polygon fill="#cccccc" stroke="#cccccc" points="1549.69,-250.46 1539.31,-252.584 1548.75,-257.396 1549.69,-250.46"/>
</g>
<!-- ObjectIdentifier -->
<g id="node19" class="node">
<g id="a_node19"><a xlink:href="/v2.1/type/ObjectIdentifier/" target="_top">
<polygon fill="#999999" stroke="#999999" points="1888.03,-22 1797.97,-22 1797.97,-0 1888.03,-0 1888.03,-22"/>
<text text-anchor="middle" x="1843" y="-7.4" font-family="Helvetica,sans-Serif" font-size="12.00" fill="white">ObjectIdentifier</text>
</a>
</g>
</g>
<!-- Comparable&#45;&gt;ObjectIdentifier -->
<g id="edge4" class="edge">
<path fill="none" stroke="#cccccc" d="M1881.81,-289.871C1868.88,-270.613 1843,-226.977 1843,-186 1843,-186 1843,-186 1843,-126 1843,-93.1536 1843,-54.9837 1843,-32.197"/>
<polygon fill="#cccccc" stroke="#cccccc" points="1846.5,-32.0648 1843,-22.0648 1839.5,-32.0648 1846.5,-32.0648"/>
</g>
<!-- SetIndex -->
<g id="node22" class="node">
<g id="a_node22"><a xlink:href="/v2.1/type/SetIndex/" target="_top">
<polygon fill="#999999" stroke="#999999" points="1963.52,-22 1906.48,-22 1906.48,-0 1963.52,-0 1963.52,-22"/>
<text text-anchor="middle" x="1935" y="-7.4" font-family="Helvetica,sans-Serif" font-size="12.00" fill="white">SetIndex</text>
</a>
</g>
</g>
<!-- Comparable&#45;&gt;SetIndex -->
<g id="edge5" class="edge">
<path fill="none" stroke="#cccccc" d="M1896.19,-289.871C1909.12,-270.613 1935,-226.977 1935,-186 1935,-186 1935,-186 1935,-126 1935,-93.1536 1935,-54.9837 1935,-32.197"/>
<polygon fill="#cccccc" stroke="#cccccc" points="1938.5,-32.0648 1935,-22.0648 1931.5,-32.0648 1938.5,-32.0648"/>
</g>
<!-- SignedNumberType -->
<g id="node24" class="node">
<g id="a_node24"><a xlink:href="/v2.1/protocol/SignedNumberType/" target="_top">
<path fill="#999999" stroke="#999999" d="M1224.72,-196C1224.72,-196 1123.28,-196 1123.28,-196 1119.62,-196 1115.95,-192.333 1115.95,-188.667 1115.95,-188.667 1115.95,-181.333 1115.95,-181.333 1115.95,-177.667 1119.62,-174 1123.28,-174 1123.28,-174 1224.72,-174 1224.72,-174 1228.38,-174 1232.05,-177.667 1232.05,-181.333 1232.05,-181.333 1232.05,-188.667 1232.05,-188.667 1232.05,-192.333 1228.38,-196 1224.72,-196"/>
<text text-anchor="middle" x="1174" y="-181.4" font-family="Helvetica,sans-Serif" font-size="12.00" fill="white">SignedNumberType</text>
</a>
</g>
</g>
<!-- Comparable&#45;&gt;SignedNumberType -->
<g id="edge6" class="edge">
<path fill="none" stroke="#cccccc" d="M1851.54,-298.905C1769.64,-295.975 1568.84,-285.874 1404,-254 1334.64,-240.587 1256.19,-215.084 1211.16,-199.408"/>
<polygon fill="#cccccc" stroke="#cccccc" points="1212.14,-196.04 1201.54,-196.03 1209.82,-202.645 1212.14,-196.04"/>
</g>
<!-- Strideable -->
<g id="node25" class="node">
<g id="a_node25"><a xlink:href="/v2.1/protocol/Strideable/" target="_top">
<path fill="#999999" stroke="#999999" d="M747.693,-254C747.693,-254 698.307,-254 698.307,-254 694.64,-254 690.974,-250.333 690.974,-246.667 690.974,-246.667 690.974,-239.333 690.974,-239.333 690.974,-235.667 694.64,-232 698.307,-232 698.307,-232 747.693,-232 747.693,-232 751.36,-232 755.026,-235.667 755.026,-239.333 755.026,-239.333 755.026,-246.667 755.026,-246.667 755.026,-250.333 751.36,-254 747.693,-254"/>
<text text-anchor="middle" x="723" y="-239.4" font-family="Helvetica,sans-Serif" font-size="12.00" fill="white">Strideable</text>
</a>
</g>
</g>
<!-- Comparable&#45;&gt;Strideable -->
<g id="edge7" class="edge">
<path fill="none" stroke="#cccccc" d="M1851.53,-298.2C1677.54,-289.844 949.28,-254.868 765.341,-246.034"/>
<polygon fill="#cccccc" stroke="#cccccc" points="765.408,-242.533 755.252,-245.549 765.072,-249.525 765.408,-242.533"/>
</g>
<!-- String -->
<g id="node26" class="node">
<g id="a_node26"><a xlink:href="/v2.1/type/String/" target="_top">
<polygon fill="#999999" stroke="#999999" points="2036,-22 1982,-22 1982,-0 2036,-0 2036,-22"/>
<text text-anchor="middle" x="2009" y="-7.4" font-family="Helvetica,sans-Serif" font-size="12.00" fill="white">String</text>
</a>
</g>
</g>
<!-- Comparable&#45;&gt;String -->
<g id="edge8" class="edge">
<path fill="none" stroke="#cccccc" d="M1913.57,-289.906C1948.68,-273.659 2009,-238.155 2009,-186 2009,-186 2009,-186 2009,-126 2009,-93.1536 2009,-54.9837 2009,-32.197"/>
<polygon fill="#cccccc" stroke="#cccccc" points="2012.5,-32.0648 2009,-22.0648 2005.5,-32.0648 2012.5,-32.0648"/>
</g>
<!-- String.CharacterView.Index -->
<g id="node27" class="node">
<g id="a_node27"><a xlink:href="/v2.1/type/String.CharacterView.Index/" target="_top">
<polygon fill="#999999" stroke="#999999" points="2209.4,-22 2054.6,-22 2054.6,-0 2209.4,-0 2209.4,-22"/>
<text text-anchor="middle" x="2132" y="-7.4" font-family="Helvetica,sans-Serif" font-size="12.00" fill="white">String.CharacterView.Index</text>
</a>
</g>
</g>
<!-- Comparable&#45;&gt;String.CharacterView.Index -->
<g id="edge10" class="edge">
<path fill="none" stroke="#cccccc" d="M1926.44,-298.995C1994.6,-294.961 2132,-275.704 2132,-186 2132,-186 2132,-186 2132,-126 2132,-93.1536 2132,-54.9837 2132,-32.197"/>
<polygon fill="#cccccc" stroke="#cccccc" points="2135.5,-32.0648 2132,-22.0648 2128.5,-32.0648 2135.5,-32.0648"/>
</g>
<!-- String.UTF16View.Index -->
<g id="node28" class="node">
<g id="a_node28"><a xlink:href="/v2.1/type/String.UTF16View.Index/" target="_top">
<polygon fill="#999999" stroke="#999999" points="2366.39,-22 2227.61,-22 2227.61,-0 2366.39,-0 2366.39,-22"/>
<text text-anchor="middle" x="2297" y="-7.4" font-family="Helvetica,sans-Serif" font-size="12.00" fill="white">String.UTF16View.Index</text>
</a>
</g>
</g>
<!-- Comparable&#45;&gt;String.UTF16View.Index -->
<g id="edge12" class="edge">
<path fill="none" stroke="#cccccc" d="M1926.65,-297.547C2027.66,-289.941 2297,-262.488 2297,-186 2297,-186 2297,-186 2297,-126 2297,-93.1536 2297,-54.9837 2297,-32.197"/>
<polygon fill="#cccccc" stroke="#cccccc" points="2300.5,-32.0648 2297,-22.0648 2293.5,-32.0648 2300.5,-32.0648"/>
</g>
<!-- String.UnicodeScalarView.Index -->
<g id="node29" class="node">
<g id="a_node29"><a xlink:href="/v2.1/type/String.UnicodeScalarView.Index/" target="_top">
<polygon fill="#999999" stroke="#999999" points="2564.92,-22 2385.08,-22 2385.08,-0 2564.92,-0 2564.92,-22"/>
<text text-anchor="middle" x="2475" y="-7.4" font-family="Helvetica,sans-Serif" font-size="12.00" fill="white">String.UnicodeScalarView.Index</text>
</a>
</g>
</g>
<!-- Comparable&#45;&gt;String.UnicodeScalarView.Index -->
<g id="edge11" class="edge">
<path fill="none" stroke="#cccccc" d="M1926.55,-300.709C2055.88,-302.157 2475,-298.194 2475,-186 2475,-186 2475,-186 2475,-126 2475,-93.1536 2475,-54.9837 2475,-32.197"/>
<polygon fill="#cccccc" stroke="#cccccc" points="2478.5,-32.0648 2475,-22.0648 2471.5,-32.0648 2478.5,-32.0648"/>
</g>
<!-- UnicodeScalar -->
<g id="node35" class="node">
<g id="a_node35"><a xlink:href="/v2.1/type/UnicodeScalar/" target="_top">
<polygon fill="#999999" stroke="#999999" points="2671.03,-22 2582.97,-22 2582.97,-0 2671.03,-0 2671.03,-22"/>
<text text-anchor="middle" x="2627" y="-7.4" font-family="Helvetica,sans-Serif" font-size="12.00" fill="white">UnicodeScalar</text>
</a>
</g>
</g>
<!-- Comparable&#45;&gt;UnicodeScalar -->
<g id="edge9" class="edge">
<path fill="none" stroke="#cccccc" d="M1926.37,-300.184C2015.72,-299.909 2248.3,-294.954 2437,-254 2524.65,-234.977 2627,-275.69 2627,-186 2627,-186 2627,-186 2627,-126 2627,-93.1536 2627,-54.9837 2627,-32.197"/>
<polygon fill="#cccccc" stroke="#cccccc" points="2630.5,-32.0648 2627,-22.0648 2623.5,-32.0648 2630.5,-32.0648"/>
</g>
<!-- Equatable -->
<g id="node8" class="node">
<g id="a_node8"><a xlink:href="/v2.1/protocol/Equatable/" target="_top">
<path fill="#999999" stroke="#999999" d="M1913.7,-370C1913.7,-370 1864.3,-370 1864.3,-370 1860.63,-370 1856.96,-366.333 1856.96,-362.667 1856.96,-362.667 1856.96,-355.333 1856.96,-355.333 1856.96,-351.667 1860.63,-348 1864.3,-348 1864.3,-348 1913.7,-348 1913.7,-348 1917.37,-348 1921.04,-351.667 1921.04,-355.333 1921.04,-355.333 1921.04,-362.667 1921.04,-362.667 1921.04,-366.333 1917.37,-370 1913.7,-370"/>
<text text-anchor="middle" x="1889" y="-355.4" font-family="Helvetica,sans-Serif" font-size="12.00" fill="white">Equatable</text>
</a>
</g>
</g>
<!-- Equatable&#45;&gt;Comparable -->
<g id="edge47" class="edge">
<path fill="none" stroke="#cccccc" d="M1889,-347.988C1889,-340.91 1889,-331.171 1889,-322.478"/>
<polygon fill="#cccccc" stroke="#cccccc" points="1892.5,-322.304 1889,-312.304 1885.5,-322.304 1892.5,-322.304"/>
</g>
<!-- FloatingPointType -->
<g id="node11" class="node">
<g id="a_node11"><a xlink:href="/v2.1/protocol/FloatingPointType/" target="_top">
<path fill="#999999" stroke="#999999" d="M660.715,-80C660.715,-80 569.285,-80 569.285,-80 565.618,-80 561.952,-76.3333 561.952,-72.6667 561.952,-72.6667 561.952,-65.3333 561.952,-65.3333 561.952,-61.6667 565.618,-58 569.285,-58 569.285,-58 660.715,-58 660.715,-58 664.382,-58 668.048,-61.6667 668.048,-65.3333 668.048,-65.3333 668.048,-72.6667 668.048,-72.6667 668.048,-76.3333 664.382,-80 660.715,-80"/>
<text text-anchor="middle" x="615" y="-65.4" font-family="Helvetica,sans-Serif" font-size="12.00" fill="white">FloatingPointType</text>
</a>
</g>
</g>
<!-- FloatingPointType&#45;&gt;Double -->
<g id="edge40" class="edge">
<path fill="none" stroke="#cccccc" d="M629.66,-57.9883C641.944,-49.5993 659.698,-37.4743 673.893,-27.7804"/>
<polygon fill="#cccccc" stroke="#cccccc" points="675.906,-30.6438 682.19,-22.1138 671.959,-24.8632 675.906,-30.6438"/>
</g>
<!-- FloatingPointType&#45;&gt;Float -->
<g id="edge41" class="edge">
<path fill="none" stroke="#cccccc" d="M616.788,-57.9883C618.066,-50.8311 619.83,-40.9547 621.395,-32.1885"/>
<polygon fill="#cccccc" stroke="#cccccc" points="624.848,-32.7634 623.16,-22.3039 617.957,-31.5329 624.848,-32.7634"/>
</g>
<!-- Int -->
<g id="node12" class="node">
<g id="a_node12"><a xlink:href="/v2.1/type/Int/" target="_top">
<polygon fill="#999999" stroke="#999999" points="1084,-22 1030,-22 1030,-0 1084,-0 1084,-22"/>
<text text-anchor="middle" x="1057" y="-7.4" font-family="Helvetica,sans-Serif" font-size="12.00" fill="white">Int</text>
</a>
</g>
</g>
<!-- Int&#45;&gt;Bit -->
<g id="edge24" class="edge">
<path fill="none" stroke="#cccccc" d="M1069.78,-22.0854C1078.28,-28.7029 1090.05,-36.4837 1102,-40 1125.02,-46.7761 1132.98,-46.7761 1156,-40 1164.4,-37.5276 1172.71,-32.9469 1179.86,-28.1447"/>
<polygon fill="#cccccc" stroke="#cccccc" points="1182.18,-30.7891 1188.22,-22.0854 1178.07,-25.122 1182.18,-30.7891"/>
</g>
<!-- Int16 -->
<g id="node13" class="node">
<g id="a_node13"><a xlink:href="/v2.1/type/Int16/" target="_top">
<polygon fill="#999999" stroke="#999999" points="1156,-22 1102,-22 1102,-0 1156,-0 1156,-22"/>
<text text-anchor="middle" x="1129" y="-7.4" font-family="Helvetica,sans-Serif" font-size="12.00" fill="white">Int16</text>
</a>
</g>
</g>
<!-- Int32 -->
<g id="node14" class="node">
<g id="a_node14"><a xlink:href="/v2.1/type/Int32/" target="_top">
<polygon fill="#999999" stroke="#999999" points="868,-22 814,-22 814,-0 868,-0 868,-22"/>
<text text-anchor="middle" x="841" y="-7.4" font-family="Helvetica,sans-Serif" font-size="12.00" fill="white">Int32</text>
</a>
</g>
</g>
<!-- Int64 -->
<g id="node15" class="node">
<g id="a_node15"><a xlink:href="/v2.1/type/Int64/" target="_top">
<polygon fill="#999999" stroke="#999999" points="940,-22 886,-22 886,-0 940,-0 940,-22"/>
<text text-anchor="middle" x="913" y="-7.4" font-family="Helvetica,sans-Serif" font-size="12.00" fill="white">Int64</text>
</a>
</g>
</g>
<!-- Int8 -->
<g id="node16" class="node">
<g id="a_node16"><a xlink:href="/v2.1/type/Int8/" target="_top">
<polygon fill="#999999" stroke="#999999" points="1012,-22 958,-22 958,-0 1012,-0 1012,-22"/>
<text text-anchor="middle" x="985" y="-7.4" font-family="Helvetica,sans-Serif" font-size="12.00" fill="white">Int8</text>
</a>
</g>
</g>
<!-- _IntegerType -->
<g id="node40" class="node">
<g id="a_node40"><a xlink:href="/v2.1/protocol/_IntegerType/" target="_top">
<path fill="#999999" stroke="#999999" d="M1347.71,-196C1347.71,-196 1282.29,-196 1282.29,-196 1278.63,-196 1274.96,-192.333 1274.96,-188.667 1274.96,-188.667 1274.96,-181.333 1274.96,-181.333 1274.96,-177.667 1278.63,-174 1282.29,-174 1282.29,-174 1347.71,-174 1347.71,-174 1351.37,-174 1355.04,-177.667 1355.04,-181.333 1355.04,-181.333 1355.04,-188.667 1355.04,-188.667 1355.04,-192.333 1351.37,-196 1347.71,-196"/>
<text text-anchor="middle" x="1315" y="-181.4" font-family="Helvetica,sans-Serif" font-size="12.00" fill="white">_IntegerType</text>
</a>
</g>
</g>
<!-- IntegerArithmeticType&#45;&gt;_IntegerType -->
<g id="edge13" class="edge">
<path fill="none" stroke="#cccccc" d="M1447.22,-231.988C1421.08,-222.898 1382.34,-209.422 1353.54,-199.405"/>
<polygon fill="#cccccc" stroke="#cccccc" points="1354.4,-195.999 1343.81,-196.019 1352.1,-202.61 1354.4,-195.999"/>
</g>
<!-- IntegerType -->
<g id="node18" class="node">
<g id="a_node18"><a xlink:href="/v2.1/protocol/IntegerType/" target="_top">
<path fill="#999999" stroke="#999999" d="M1088.2,-138C1088.2,-138 1029.8,-138 1029.8,-138 1026.13,-138 1022.47,-134.333 1022.47,-130.667 1022.47,-130.667 1022.47,-123.333 1022.47,-123.333 1022.47,-119.667 1026.13,-116 1029.8,-116 1029.8,-116 1088.2,-116 1088.2,-116 1091.87,-116 1095.53,-119.667 1095.53,-123.333 1095.53,-123.333 1095.53,-130.667 1095.53,-130.667 1095.53,-134.333 1091.87,-138 1088.2,-138"/>
<text text-anchor="middle" x="1059" y="-123.4" font-family="Helvetica,sans-Serif" font-size="12.00" fill="white">IntegerType</text>
</a>
</g>
</g>
<!-- SignedIntegerType -->
<g id="node23" class="node">
<g id="a_node23"><a xlink:href="/v2.1/protocol/SignedIntegerType/" target="_top">
<path fill="#999999" stroke="#999999" d="M1104.73,-80C1104.73,-80 1009.27,-80 1009.27,-80 1005.61,-80 1001.94,-76.3333 1001.94,-72.6667 1001.94,-72.6667 1001.94,-65.3333 1001.94,-65.3333 1001.94,-61.6667 1005.61,-58 1009.27,-58 1009.27,-58 1104.73,-58 1104.73,-58 1108.39,-58 1112.06,-61.6667 1112.06,-65.3333 1112.06,-65.3333 1112.06,-72.6667 1112.06,-72.6667 1112.06,-76.3333 1108.39,-80 1104.73,-80"/>
<text text-anchor="middle" x="1057" y="-65.4" font-family="Helvetica,sans-Serif" font-size="12.00" fill="white">SignedIntegerType</text>
</a>
</g>
</g>
<!-- IntegerType&#45;&gt;SignedIntegerType -->
<g id="edge17" class="edge">
<path fill="none" stroke="#cccccc" d="M1058.64,-115.988C1058.39,-108.91 1058.04,-99.1714 1057.73,-90.4779"/>
<polygon fill="#cccccc" stroke="#cccccc" points="1061.22,-90.1726 1057.37,-80.3039 1054.23,-90.4225 1061.22,-90.1726"/>
</g>
<!-- UnsignedIntegerType -->
<g id="node38" class="node">
<g id="a_node38"><a xlink:href="/v2.1/protocol/UnsignedIntegerType/" target="_top">
<path fill="#999999" stroke="#999999" d="M1399.73,-80C1399.73,-80 1290.27,-80 1290.27,-80 1286.61,-80 1282.94,-76.3333 1282.94,-72.6667 1282.94,-72.6667 1282.94,-65.3333 1282.94,-65.3333 1282.94,-61.6667 1286.61,-58 1290.27,-58 1290.27,-58 1399.73,-58 1399.73,-58 1403.39,-58 1407.06,-61.6667 1407.06,-65.3333 1407.06,-65.3333 1407.06,-72.6667 1407.06,-72.6667 1407.06,-76.3333 1403.39,-80 1399.73,-80"/>
<text text-anchor="middle" x="1345" y="-65.4" font-family="Helvetica,sans-Serif" font-size="12.00" fill="white">UnsignedIntegerType</text>
</a>
</g>
</g>
<!-- IntegerType&#45;&gt;UnsignedIntegerType -->
<g id="edge18" class="edge">
<path fill="none" stroke="#cccccc" d="M1095.42,-118.178C1098.99,-117.432 1102.57,-116.696 1106,-116 1165.35,-103.976 1233.15,-90.9992 1281.34,-81.9041"/>
<polygon fill="#cccccc" stroke="#cccccc" points="1282.13,-85.3156 1291.31,-80.0239 1280.84,-78.4367 1282.13,-85.3156"/>
</g>
<!-- RandomAccessIndexType -->
<g id="node20" class="node">
<g id="a_node20"><a xlink:href="/v2.1/protocol/RandomAccessIndexType/" target="_top">
<path fill="#999999" stroke="#999999" d="M538.225,-196C538.225,-196 403.775,-196 403.775,-196 400.108,-196 396.441,-192.333 396.441,-188.667 396.441,-188.667 396.441,-181.333 396.441,-181.333 396.441,-177.667 400.108,-174 403.775,-174 403.775,-174 538.225,-174 538.225,-174 541.892,-174 545.559,-177.667 545.559,-181.333 545.559,-181.333 545.559,-188.667 545.559,-188.667 545.559,-192.333 541.892,-196 538.225,-196"/>
<text text-anchor="middle" x="471" y="-181.4" font-family="Helvetica,sans-Serif" font-size="12.00" fill="white">RandomAccessIndexType</text>
</a>
</g>
</g>
<!-- RandomAccessIndexType&#45;&gt;AnyRandomAccessIndex -->
<g id="edge42" class="edge">
<path fill="none" stroke="#cccccc" d="M447.53,-173.883C379.688,-144.637 183.189,-59.9312 104.827,-26.151"/>
<polygon fill="#cccccc" stroke="#cccccc" points="106.009,-22.8491 95.4401,-22.1045 103.238,-29.2773 106.009,-22.8491"/>
</g>
<!-- RandomAccessIndexType&#45;&gt;IntegerType -->
<g id="edge43" class="edge">
<path fill="none" stroke="#cccccc" d="M545.471,-176.908C668.563,-165.184 910.938,-142.101 1012.5,-132.429"/>
<polygon fill="#cccccc" stroke="#cccccc" points="1012.83,-135.913 1022.45,-131.481 1012.17,-128.945 1012.83,-135.913"/>
</g>
<!-- ReverseRandomAccessIndex -->
<g id="node21" class="node">
<g id="a_node21"><a xlink:href="/v2.1/type/ReverseRandomAccessIndex/" target="_top">
<polygon fill="#999999" stroke="#999999" points="330.056,-22 161.944,-22 161.944,-0 330.056,-0 330.056,-22"/>
<text text-anchor="middle" x="246" y="-7.4" font-family="Helvetica,sans-Serif" font-size="12.00" fill="white">ReverseRandomAccessIndex</text>
</a>
</g>
</g>
<!-- RandomAccessIndexType&#45;&gt;ReverseRandomAccessIndex -->
<g id="edge44" class="edge">
<path fill="none" stroke="#cccccc" d="M457.599,-173.756C420.004,-145.016 313.299,-63.446 267.41,-28.3671"/>
<polygon fill="#cccccc" stroke="#cccccc" points="269.401,-25.4832 259.331,-22.1906 265.15,-31.0444 269.401,-25.4832"/>
</g>
<!-- UnsafeMutablePointer -->
<g id="node36" class="node">
<g id="a_node36"><a xlink:href="/v2.1/type/UnsafeMutablePointer/" target="_top">
<polygon fill="#999999" stroke="#999999" points="476.051,-22 347.949,-22 347.949,-0 476.051,-0 476.051,-22"/>
<text text-anchor="middle" x="412" y="-7.4" font-family="Helvetica,sans-Serif" font-size="12.00" fill="white">UnsafeMutablePointer</text>
</a>
</g>
</g>
<!-- RandomAccessIndexType&#45;&gt;UnsafeMutablePointer -->
<g id="edge45" class="edge">
<path fill="none" stroke="#cccccc" d="M467.486,-173.756C457.958,-145.978 431.5,-68.848 418.875,-32.0425"/>
<polygon fill="#cccccc" stroke="#cccccc" points="422.126,-30.7314 415.57,-22.4081 415.504,-33.0027 422.126,-30.7314"/>
</g>
<!-- UnsafePointer -->
<g id="node37" class="node">
<g id="a_node37"><a xlink:href="/v2.1/type/UnsafePointer/" target="_top">
<polygon fill="#999999" stroke="#999999" points="580.032,-22 493.968,-22 493.968,-0 580.032,-0 580.032,-22"/>
<text text-anchor="middle" x="537" y="-7.4" font-family="Helvetica,sans-Serif" font-size="12.00" fill="white">UnsafePointer</text>
</a>
</g>
</g>
<!-- RandomAccessIndexType&#45;&gt;UnsafePointer -->
<g id="edge46" class="edge">
<path fill="none" stroke="#cccccc" d="M474.931,-173.756C485.59,-145.978 515.186,-68.848 529.309,-32.0425"/>
<polygon fill="#cccccc" stroke="#cccccc" points="532.691,-32.9982 533.006,-22.4081 526.156,-30.4904 532.691,-32.9982"/>
</g>
<!-- SignedIntegerType&#45;&gt;Int -->
<g id="edge19" class="edge">
<path fill="none" stroke="#cccccc" d="M1057,-57.9883C1057,-50.9098 1057,-41.1714 1057,-32.4779"/>
<polygon fill="#cccccc" stroke="#cccccc" points="1060.5,-32.3038 1057,-22.3039 1053.5,-32.3039 1060.5,-32.3038"/>
</g>
<!-- SignedIntegerType&#45;&gt;Int16 -->
<g id="edge20" class="edge">
<path fill="none" stroke="#cccccc" d="M1069.87,-57.9883C1080.39,-49.8087 1095.47,-38.0773 1107.77,-28.5108"/>
<polygon fill="#cccccc" stroke="#cccccc" points="1110.01,-31.2061 1115.75,-22.3039 1105.71,-25.6806 1110.01,-31.2061"/>
</g>
<!-- SignedIntegerType&#45;&gt;Int32 -->
<g id="edge21" class="edge">
<path fill="none" stroke="#cccccc" d="M1016.55,-57.9168C982.164,-49.2898 931.242,-36.3793 878.063,-22.2477"/>
<polygon fill="#cccccc" stroke="#cccccc" points="878.674,-18.7885 868.11,-19.5955 876.872,-25.5525 878.674,-18.7885"/>
</g>
<!-- SignedIntegerType&#45;&gt;Int64 -->
<g id="edge22" class="edge">
<path fill="none" stroke="#cccccc" d="M1031.26,-57.9883C1008.16,-49.0057 974.045,-35.7398 948.386,-25.7614"/>
<polygon fill="#cccccc" stroke="#cccccc" points="949.596,-22.4763 939.007,-22.1138 947.058,-29.0004 949.596,-22.4763"/>
</g>
<!-- SignedIntegerType&#45;&gt;Int8 -->
<g id="edge23" class="edge">
<path fill="none" stroke="#cccccc" d="M1044.13,-57.9883C1033.61,-49.8087 1018.53,-38.0773 1006.23,-28.5108"/>
<polygon fill="#cccccc" stroke="#cccccc" points="1008.29,-25.6806 998.248,-22.3039 1003.99,-31.2061 1008.29,-25.6806"/>
</g>
<!-- SignedNumberType&#45;&gt;AbsoluteValuable -->
<g id="edge32" class="edge">
<path fill="none" stroke="#cccccc" d="M1115.89,-176.621C1032.4,-166.019 879.193,-146.564 794.079,-135.756"/>
<polygon fill="#cccccc" stroke="#cccccc" points="794.407,-132.27 784.046,-134.482 793.525,-139.214 794.407,-132.27"/>
</g>
<!-- _SignedIntegerType -->
<g id="node41" class="node">
<g id="a_node41"><a xlink:href="/v2.1/protocol/_SignedIntegerType/" target="_top">
<path fill="#999999" stroke="#999999" d="M1225.23,-138C1225.23,-138 1122.77,-138 1122.77,-138 1119.1,-138 1115.44,-134.333 1115.44,-130.667 1115.44,-130.667 1115.44,-123.333 1115.44,-123.333 1115.44,-119.667 1119.1,-116 1122.77,-116 1122.77,-116 1225.23,-116 1225.23,-116 1228.9,-116 1232.56,-119.667 1232.56,-123.333 1232.56,-123.333 1232.56,-130.667 1232.56,-130.667 1232.56,-134.333 1228.9,-138 1225.23,-138"/>
<text text-anchor="middle" x="1174" y="-123.4" font-family="Helvetica,sans-Serif" font-size="12.00" fill="white">_SignedIntegerType</text>
</a>
</g>
</g>
<!-- SignedNumberType&#45;&gt;_SignedIntegerType -->
<g id="edge33" class="edge">
<path fill="none" stroke="#cccccc" d="M1174,-173.988C1174,-166.91 1174,-157.171 1174,-148.478"/>
<polygon fill="#cccccc" stroke="#cccccc" points="1177.5,-148.304 1174,-138.304 1170.5,-148.304 1177.5,-148.304"/>
</g>
<!-- Strideable&#45;&gt;Float80 -->
<g id="edge37" class="edge">
<path fill="none" stroke="#cccccc" d="M732.925,-231.891C749.245,-214.477 781.12,-176.927 793,-138 804.255,-101.123 789.307,-56.4912 778.452,-31.4637"/>
<polygon fill="#cccccc" stroke="#cccccc" points="781.61,-29.9542 774.277,-22.307 775.241,-32.858 781.61,-29.9542"/>
</g>
<!-- Strideable&#45;&gt;FloatingPointType -->
<g id="edge38" class="edge">
<path fill="none" stroke="#cccccc" d="M716.568,-231.756C698.976,-203.74 649.862,-125.52 626.995,-89.1037"/>
<polygon fill="#cccccc" stroke="#cccccc" points="629.817,-87.0158 621.535,-80.4081 623.889,-90.7382 629.817,-87.0158"/>
</g>
<!-- Strideable&#45;&gt;RandomAccessIndexType -->
<g id="edge39" class="edge">
<path fill="none" stroke="#cccccc" d="M690.828,-234.851C649.28,-225.618 576.331,-209.407 525.929,-198.206"/>
<polygon fill="#cccccc" stroke="#cccccc" points="526.686,-194.789 516.165,-196.037 525.168,-201.623 526.686,-194.789"/>
</g>
<!-- UInt -->
<g id="node30" class="node">
<g id="a_node30"><a xlink:href="/v2.1/type/UInt/" target="_top">
<polygon fill="#999999" stroke="#999999" points="1588,-22 1534,-22 1534,-0 1588,-0 1588,-22"/>
<text text-anchor="middle" x="1561" y="-7.4" font-family="Helvetica,sans-Serif" font-size="12.00" fill="white">UInt</text>
</a>
</g>
</g>
<!-- UInt16 -->
<g id="node31" class="node">
<g id="a_node31"><a xlink:href="/v2.1/type/UInt16/" target="_top">
<polygon fill="#999999" stroke="#999999" points="1300,-22 1246,-22 1246,-0 1300,-0 1300,-22"/>
<text text-anchor="middle" x="1273" y="-7.4" font-family="Helvetica,sans-Serif" font-size="12.00" fill="white">UInt16</text>
</a>
</g>
</g>
<!-- UInt32 -->
<g id="node32" class="node">
<g id="a_node32"><a xlink:href="/v2.1/type/UInt32/" target="_top">
<polygon fill="#999999" stroke="#999999" points="1372,-22 1318,-22 1318,-0 1372,-0 1372,-22"/>
<text text-anchor="middle" x="1345" y="-7.4" font-family="Helvetica,sans-Serif" font-size="12.00" fill="white">UInt32</text>
</a>
</g>
</g>
<!-- UInt64 -->
<g id="node33" class="node">
<g id="a_node33"><a xlink:href="/v2.1/type/UInt64/" target="_top">
<polygon fill="#999999" stroke="#999999" points="1444,-22 1390,-22 1390,-0 1444,-0 1444,-22"/>
<text text-anchor="middle" x="1417" y="-7.4" font-family="Helvetica,sans-Serif" font-size="12.00" fill="white">UInt64</text>
</a>
</g>
</g>
<!-- UInt8 -->
<g id="node34" class="node">
<g id="a_node34"><a xlink:href="/v2.1/type/UInt8/" target="_top">
<polygon fill="#999999" stroke="#999999" points="1516,-22 1462,-22 1462,-0 1516,-0 1516,-22"/>
<text text-anchor="middle" x="1489" y="-7.4" font-family="Helvetica,sans-Serif" font-size="12.00" fill="white">UInt8</text>
</a>
</g>
</g>
<!-- UnsignedIntegerType&#45;&gt;UInt -->
<g id="edge25" class="edge">
<path fill="none" stroke="#cccccc" d="M1385.45,-57.9168C1419.84,-49.2898 1470.76,-36.3793 1523.94,-22.2477"/>
<polygon fill="#cccccc" stroke="#cccccc" points="1525.13,-25.5525 1533.89,-19.5955 1523.33,-18.7885 1525.13,-25.5525"/>
</g>
<!-- UnsignedIntegerType&#45;&gt;UInt16 -->
<g id="edge26" class="edge">
<path fill="none" stroke="#cccccc" d="M1332.13,-57.9883C1321.61,-49.8087 1306.53,-38.0773 1294.23,-28.5108"/>
<polygon fill="#cccccc" stroke="#cccccc" points="1296.29,-25.6806 1286.25,-22.3039 1291.99,-31.2061 1296.29,-25.6806"/>
</g>
<!-- UnsignedIntegerType&#45;&gt;UInt32 -->
<g id="edge27" class="edge">
<path fill="none" stroke="#cccccc" d="M1345,-57.9883C1345,-50.9098 1345,-41.1714 1345,-32.4779"/>
<polygon fill="#cccccc" stroke="#cccccc" points="1348.5,-32.3038 1345,-22.3039 1341.5,-32.3039 1348.5,-32.3038"/>
</g>
<!-- UnsignedIntegerType&#45;&gt;UInt64 -->
<g id="edge28" class="edge">
<path fill="none" stroke="#cccccc" d="M1357.87,-57.9883C1368.39,-49.8087 1383.47,-38.0773 1395.77,-28.5108"/>
<polygon fill="#cccccc" stroke="#cccccc" points="1398.01,-31.2061 1403.75,-22.3039 1393.71,-25.6806 1398.01,-31.2061"/>
</g>
<!-- UnsignedIntegerType&#45;&gt;UInt8 -->
<g id="edge29" class="edge">
<path fill="none" stroke="#cccccc" d="M1370.74,-57.9883C1393.84,-49.0057 1427.95,-35.7398 1453.61,-25.7614"/>
<polygon fill="#cccccc" stroke="#cccccc" points="1454.94,-29.0004 1462.99,-22.1138 1452.4,-22.4763 1454.94,-29.0004"/>
</g>
<!-- _DisallowMixedSignArithmetic -->
<g id="node39" class="node">
<g id="a_node39"><a xlink:href="/v2.1/protocol/_DisallowMixedSignArithmetic/" target="_top">
<path fill="#999999" stroke="#999999" d="M1416.71,-138C1416.71,-138 1261.29,-138 1261.29,-138 1257.62,-138 1253.96,-134.333 1253.96,-130.667 1253.96,-130.667 1253.96,-123.333 1253.96,-123.333 1253.96,-119.667 1257.62,-116 1261.29,-116 1261.29,-116 1416.71,-116 1416.71,-116 1420.38,-116 1424.04,-119.667 1424.04,-123.333 1424.04,-123.333 1424.04,-130.667 1424.04,-130.667 1424.04,-134.333 1420.38,-138 1416.71,-138"/>
<text text-anchor="middle" x="1339" y="-123.4" font-family="Helvetica,sans-Serif" font-size="12.00" fill="white">_DisallowMixedSignArithmetic</text>
</a>
</g>
</g>
<!-- _DisallowMixedSignArithmetic&#45;&gt;UnsignedIntegerType -->
<g id="edge30" class="edge">
<path fill="none" stroke="#cccccc" d="M1340.07,-115.988C1340.83,-108.91 1341.87,-99.1714 1342.81,-90.4779"/>
<polygon fill="#cccccc" stroke="#cccccc" points="1346.31,-90.6199 1343.9,-80.3039 1339.35,-89.8741 1346.31,-90.6199"/>
</g>
<!-- _IntegerType&#45;&gt;IntegerType -->
<g id="edge14" class="edge">
<path fill="none" stroke="#cccccc" d="M1274.72,-175.188C1228.84,-165.153 1153.99,-148.78 1105.63,-138.2"/>
<polygon fill="#cccccc" stroke="#cccccc" points="1106.24,-134.752 1095.73,-136.034 1104.75,-141.59 1106.24,-134.752"/>
</g>
<!-- _IntegerType&#45;&gt;_DisallowMixedSignArithmetic -->
<g id="edge15" class="edge">
<path fill="none" stroke="#cccccc" d="M1319.29,-173.988C1322.43,-166.674 1326.78,-156.519 1330.59,-147.612"/>
<polygon fill="#cccccc" stroke="#cccccc" points="1333.86,-148.874 1334.58,-138.304 1327.43,-146.117 1333.86,-148.874"/>
</g>
<!-- _IntegerType&#45;&gt;_SignedIntegerType -->
<g id="edge16" class="edge">
<path fill="none" stroke="#cccccc" d="M1289.79,-173.988C1267.27,-165.045 1234.07,-151.857 1208.98,-141.893"/>
<polygon fill="#cccccc" stroke="#cccccc" points="1210.05,-138.552 1199.47,-138.114 1207.47,-145.058 1210.05,-138.552"/>
</g>
<!-- _SignedIntegerType&#45;&gt;SignedIntegerType -->
<g id="edge31" class="edge">
<path fill="none" stroke="#cccccc" d="M1153.08,-115.988C1134.81,-107.243 1108.06,-94.4381 1087.42,-84.5594"/>
<polygon fill="#cccccc" stroke="#cccccc" points="1088.66,-81.2741 1078.13,-80.1138 1085.64,-87.5882 1088.66,-81.2741"/>
</g>
</g>
</svg>
