<?xml version="1.0" encoding="UTF-8" standalone="no"?>
<!DOCTYPE svg PUBLIC "-//W3C//DTD SVG 1.1//EN"
 "http://www.w3.org/Graphics/SVG/1.1/DTD/svg11.dtd">
<!-- Generated by graphviz version 2.36.0 (20140111.2315)
 -->
<!-- Title: Comparable &#45; Type Hierarchy &#45; SwiftDoc.org Pages: 1 -->
<svg width="3131pt" height="485pt"
 viewBox="0.00 0.00 3131.40 485.20" xmlns="http://www.w3.org/2000/svg" xmlns:xlink="http://www.w3.org/1999/xlink">
<g id="graph0" class="graph" transform="scale(1 1) rotate(0) translate(7.2 427.6)">
<g transform="translate(0 -427.6)">
<g>
    <path fill="#666666" d="M13.846,10.832c-0.336-0.464-0.792-0.844-1.368-1.14s-1.224-0.444-1.944-0.444
        c-0.384,0-0.772,0.052-1.164,0.156C8.977,9.509,8.622,9.677,8.301,9.908c-0.32,0.232-0.58,0.52-0.78,0.864
        c-0.2,0.344-0.3,0.756-0.3,1.236c0,0.464,0.092,0.852,0.276,1.164c0.184,0.312,0.432,0.576,0.744,0.792s0.68,0.4,1.104,0.552
        c0.423,0.152,0.876,0.309,1.356,0.468c0.576,0.177,1.16,0.376,1.752,0.601c0.592,0.224,1.128,0.52,1.608,0.888
        s0.872,0.828,1.176,1.38s0.456,1.252,0.456,2.101c0,0.88-0.164,1.644-0.492,2.292c-0.328,0.647-0.765,1.184-1.308,1.607
        c-0.544,0.424-1.172,0.74-1.884,0.948s-1.444,0.312-2.196,0.312c-1.072,0-2.108-0.208-3.108-0.624
        c-1-0.415-1.828-1.031-2.484-1.848l1.848-1.56c0.4,0.592,0.936,1.071,1.608,1.439c0.672,0.368,1.399,0.552,2.184,0.552
        c0.4,0,0.8-0.056,1.2-0.168c0.4-0.111,0.764-0.288,1.092-0.527c0.328-0.24,0.596-0.54,0.804-0.9
        c0.208-0.36,0.312-0.796,0.312-1.308s-0.108-0.94-0.324-1.284c-0.216-0.344-0.508-0.636-0.876-0.876s-0.796-0.444-1.284-0.612
        c-0.488-0.168-1.004-0.34-1.548-0.516c-0.544-0.16-1.08-0.356-1.608-0.588c-0.528-0.232-1-0.528-1.416-0.889
        c-0.416-0.359-0.752-0.804-1.008-1.332c-0.256-0.527-0.384-1.184-0.384-1.968c0-0.848,0.172-1.576,0.516-2.184
        c0.344-0.608,0.792-1.112,1.344-1.512c0.552-0.4,1.176-0.692,1.872-0.876c0.696-0.184,1.396-0.276,2.1-0.276
        c0.992,0,1.92,0.176,2.784,0.528c0.864,0.352,1.56,0.824,2.088,1.416L13.846,10.832z"/>
    <path fill="#666666" d="M18.813,13.304l2.568,8.688h0.048l2.712-8.688h2.376l2.76,8.688h0.048l2.568-8.688h2.376L30.501,24.68
        h-2.352l-2.808-8.544h-0.048l-2.784,8.544h-2.352l-3.792-11.376H18.813z"/>
    <path fill="#666666" d="M38.685,9.2c0,0.416-0.147,0.76-0.44,1.032c-0.294,0.272-0.647,0.408-1.06,0.408s-0.762-0.14-1.047-0.42
        c-0.286-0.28-0.429-0.62-0.429-1.02c0-0.416,0.143-0.764,0.429-1.044c0.286-0.28,0.635-0.42,1.047-0.42s0.766,0.14,1.06,0.42
        C38.538,8.437,38.685,8.784,38.685,9.2z M38.325,24.68h-2.256V13.304h2.256V24.68z"/>
    <path fill="#666666" d="M47.613,15.152h-2.64v9.528h-2.256v-9.528h-2.256v-1.848h2.256v-2.376c0-0.672,0.076-1.292,0.228-1.86
        c0.152-0.568,0.4-1.06,0.744-1.476c0.344-0.416,0.784-0.744,1.32-0.984c0.536-0.24,1.188-0.36,1.956-0.36
        c0.544,0,1.016,0.056,1.416,0.168l-0.264,1.944c-0.176-0.048-0.352-0.088-0.528-0.12c-0.176-0.032-0.376-0.048-0.6-0.048
        c-0.432,0-0.78,0.076-1.044,0.228c-0.264,0.152-0.468,0.356-0.612,0.612s-0.24,0.548-0.288,0.876
        c-0.048,0.328-0.072,0.668-0.072,1.02v2.376h2.64V15.152z"/>
    <path fill="#666666" d="M54.909,15.152h-3.024v5.91c0,0.687,0.128,1.177,0.384,1.472c0.256,0.295,0.664,0.442,1.224,0.442
        c0.208,0,0.432-0.021,0.672-0.065c0.24-0.044,0.456-0.11,0.648-0.198l0.072,1.848c-0.272,0.096-0.572,0.172-0.9,0.229
        c-0.328,0.056-0.668,0.084-1.02,0.084c-1.072,0-1.892-0.296-2.46-0.889c-0.568-0.592-0.852-1.479-0.852-2.664v-6.168h-2.184
        v-1.848h2.184V10.04h2.232v3.264h3.024V15.152z"/>
    <path fill="#666666" d="M57.356,7.688h5.832c1.088,0,2.176,0.16,3.264,0.48c1.088,0.32,2.072,0.824,2.952,1.512
        s1.592,1.568,2.136,2.64c0.544,1.072,0.816,2.36,0.816,3.864c0,1.456-0.272,2.716-0.816,3.78s-1.256,1.943-2.136,2.64
        s-1.864,1.216-2.952,1.561c-1.088,0.344-2.176,0.516-3.264,0.516h-5.832V7.688z M59.732,22.593h2.976
        c1.024,0,1.972-0.145,2.844-0.432c0.872-0.288,1.624-0.704,2.256-1.248c0.632-0.544,1.124-1.216,1.476-2.017
        c0.352-0.8,0.528-1.704,0.528-2.712c0-1.056-0.176-1.983-0.528-2.784c-0.353-0.8-0.844-1.468-1.476-2.004
        c-0.632-0.536-1.384-0.944-2.256-1.224s-1.82-0.42-2.844-0.42h-2.976V22.593z"/>
    <path fill="#666666" d="M86.06,18.969c0,0.88-0.156,1.688-0.468,2.424c-0.312,0.736-0.744,1.372-1.296,1.908
        c-0.552,0.536-1.204,0.952-1.956,1.248c-0.752,0.296-1.56,0.443-2.424,0.443c-0.864,0-1.672-0.147-2.424-0.443
        c-0.752-0.296-1.4-0.712-1.944-1.248c-0.544-0.536-0.972-1.172-1.284-1.908c-0.312-0.735-0.468-1.544-0.468-2.424
        s0.156-1.684,0.468-2.412c0.312-0.728,0.74-1.356,1.284-1.884c0.543-0.528,1.191-0.939,1.944-1.236
        c0.752-0.296,1.56-0.444,2.424-0.444c0.864,0,1.672,0.148,2.424,0.444c0.752,0.297,1.404,0.708,1.956,1.236
        c0.552,0.527,0.984,1.156,1.296,1.884C85.904,17.285,86.06,18.089,86.06,18.969z M83.708,18.98c0-0.542-0.084-1.061-0.252-1.556
        c-0.169-0.494-0.414-0.929-0.734-1.304s-0.718-0.674-1.192-0.897s-1.015-0.335-1.625-0.335c-0.61,0-1.152,0.111-1.625,0.335
        c-0.474,0.224-0.871,0.522-1.191,0.897c-0.321,0.375-0.566,0.81-0.734,1.304C76.184,17.92,76.1,18.438,76.1,18.98
        c0,0.543,0.084,1.062,0.253,1.556c0.168,0.495,0.413,0.934,0.734,1.316c0.321,0.383,0.718,0.686,1.191,0.909
        c0.473,0.224,1.015,0.335,1.625,0.335c0.61,0,1.151-0.111,1.625-0.335s0.871-0.526,1.192-0.909s0.565-0.821,0.734-1.316
        C83.624,20.042,83.708,19.523,83.708,18.98z"/>
    <path fill="#666666" d="M96.428,16.184c-0.24-0.368-0.6-0.676-1.08-0.924s-0.992-0.372-1.536-0.372
        c-0.592,0-1.116,0.112-1.572,0.336c-0.456,0.225-0.844,0.524-1.164,0.9c-0.32,0.376-0.564,0.812-0.732,1.308
        s-0.252,1.017-0.252,1.56c0,0.545,0.084,1.064,0.252,1.561s0.412,0.933,0.732,1.308c0.32,0.376,0.712,0.677,1.176,0.9
        c0.464,0.225,0.992,0.336,1.584,0.336c0.576,0,1.1-0.111,1.572-0.336c0.472-0.224,0.86-0.528,1.164-0.912l1.512,1.368
        c-0.48,0.561-1.08,0.996-1.8,1.308c-0.72,0.312-1.536,0.468-2.448,0.468c-0.88,0-1.692-0.144-2.436-0.432
        c-0.744-0.288-1.388-0.691-1.932-1.212c-0.544-0.52-0.972-1.147-1.284-1.884s-0.468-1.561-0.468-2.473
        c0-0.896,0.152-1.711,0.456-2.447c0.304-0.736,0.728-1.368,1.272-1.896c0.543-0.527,1.188-0.936,1.932-1.224
        c0.744-0.288,1.548-0.433,2.412-0.433c0.8,0,1.596,0.16,2.388,0.48s1.419,0.784,1.884,1.392L96.428,16.184z"/>
    <path fill="#666666" d="M103.1,23.24c0,0.417-0.152,0.784-0.456,1.104c-0.304,0.32-0.688,0.479-1.152,0.479
        c-0.448,0-0.828-0.155-1.14-0.468c-0.312-0.312-0.468-0.676-0.468-1.092c0-0.432,0.152-0.804,0.456-1.116
        c0.304-0.312,0.688-0.468,1.152-0.468c0.464,0,0.848,0.152,1.152,0.456C102.947,22.44,103.1,22.808,103.1,23.24z"/>
    <path fill="#666666" d="M116.635,18.969c0,0.88-0.156,1.688-0.468,2.424c-0.312,0.736-0.744,1.372-1.296,1.908
        c-0.552,0.536-1.204,0.952-1.956,1.248c-0.752,0.296-1.56,0.443-2.424,0.443c-0.864,0-1.672-0.147-2.424-0.443
        c-0.752-0.296-1.4-0.712-1.944-1.248c-0.544-0.536-0.972-1.172-1.284-1.908c-0.312-0.735-0.468-1.544-0.468-2.424
        s0.156-1.684,0.468-2.412c0.312-0.728,0.74-1.356,1.284-1.884c0.543-0.528,1.191-0.939,1.944-1.236
        c0.752-0.296,1.56-0.444,2.424-0.444c0.864,0,1.672,0.148,2.424,0.444c0.752,0.297,1.404,0.708,1.956,1.236
        c0.552,0.527,0.984,1.156,1.296,1.884C116.479,17.285,116.635,18.089,116.635,18.969z M114.283,18.98
        c0-0.542-0.084-1.061-0.252-1.556c-0.169-0.494-0.414-0.929-0.734-1.304s-0.718-0.674-1.192-0.897s-1.015-0.335-1.625-0.335
        c-0.61,0-1.152,0.111-1.625,0.335c-0.474,0.224-0.871,0.522-1.191,0.897c-0.321,0.375-0.566,0.81-0.734,1.304
        c-0.169,0.495-0.253,1.014-0.253,1.556c0,0.543,0.084,1.062,0.253,1.556c0.168,0.495,0.413,0.934,0.734,1.316
        c0.321,0.383,0.718,0.686,1.191,0.909c0.473,0.224,1.015,0.335,1.625,0.335c0.61,0,1.151-0.111,1.625-0.335
        s0.871-0.526,1.192-0.909s0.565-0.821,0.734-1.316C114.199,20.042,114.283,19.523,114.283,18.98z"/>
    <path fill="#666666" d="M119.251,14.577c-0.016-0.48-0.04-0.904-0.072-1.272h2.136c0.032,0.288,0.056,0.62,0.072,0.996
        c0.016,0.376,0.024,0.684,0.024,0.924h0.072c0.32-0.672,0.788-1.212,1.404-1.62c0.616-0.408,1.308-0.612,2.076-0.612
        c0.352,0,0.648,0.033,0.888,0.097l-0.096,2.088c-0.32-0.08-0.664-0.12-1.032-0.12c-0.544,0-1.016,0.101-1.416,0.3
        c-0.4,0.2-0.732,0.468-0.996,0.805c-0.264,0.336-0.46,0.724-0.588,1.163c-0.128,0.44-0.192,0.9-0.192,1.381v5.976h-2.256v-8.928
        C119.275,15.449,119.267,15.056,119.251,14.577z"/>
    <path fill="#666666" d="M128.419,26.625c0.496,0.56,1.116,1.008,1.86,1.344c0.744,0.336,1.508,0.504,2.292,0.504
        c0.752,0,1.384-0.108,1.896-0.324s0.924-0.512,1.236-0.888s0.536-0.82,0.672-1.332c0.136-0.513,0.204-1.064,0.204-1.656v-1.464
        h-0.048c-0.416,0.641-0.984,1.128-1.704,1.464c-0.72,0.336-1.488,0.504-2.304,0.504c-0.864,0-1.652-0.151-2.364-0.456
        c-0.712-0.304-1.316-0.72-1.812-1.248c-0.496-0.527-0.88-1.147-1.152-1.859s-0.408-1.477-0.408-2.292
        c0-0.816,0.136-1.584,0.408-2.305c0.272-0.72,0.656-1.348,1.152-1.884c0.496-0.535,1.096-0.96,1.8-1.271
        c0.704-0.312,1.488-0.469,2.352-0.469c0.816,0,1.596,0.177,2.34,0.528c0.744,0.353,1.332,0.888,1.764,1.608h0.048v-1.824h2.184
        v10.8c0,0.832-0.104,1.628-0.312,2.388c-0.208,0.76-0.56,1.433-1.056,2.017s-1.144,1.052-1.944,1.404
        c-0.8,0.352-1.792,0.527-2.976,0.527c-0.992,0-1.988-0.18-2.988-0.54c-1-0.359-1.86-0.868-2.58-1.523L128.419,26.625z
         M129.091,18.873c0,0.527,0.084,1.031,0.253,1.512c0.168,0.479,0.417,0.904,0.746,1.271c0.329,0.369,0.726,0.664,1.192,0.889
        c0.465,0.224,0.995,0.336,1.589,0.336c0.577,0,1.107-0.104,1.589-0.312c0.481-0.207,0.891-0.491,1.228-0.852
        s0.598-0.784,0.782-1.272c0.185-0.487,0.277-1.012,0.277-1.571c0-0.544-0.093-1.057-0.277-1.536
        c-0.185-0.48-0.449-0.904-0.794-1.272c-0.345-0.367-0.755-0.66-1.228-0.876c-0.474-0.216-1-0.324-1.577-0.324
        c-0.594,0-1.124,0.108-1.589,0.324c-0.466,0.216-0.863,0.504-1.192,0.864s-0.578,0.784-0.746,1.271
        C129.175,17.812,129.091,18.329,129.091,18.873z"/>
</g>
<g><a xlink:href="/" pointer-events="all" target="_top"><polygon fill="none" points="0,0 145,0 145,35 0,35 0,0"/></a></g>

</g>


<!-- AbsoluteValuable -->
<g id="node1" class="node">
<g id="a_node1"><a xlink:href="/v2.1/protocol/AbsoluteValuable/" target="_top">
<path fill="#999999" stroke="#999999" d="M1087.56,-138C1087.56,-138 1000.44,-138 1000.44,-138 996.775,-138 993.109,-134.333 993.109,-130.667 993.109,-130.667 993.109,-123.333 993.109,-123.333 993.109,-119.667 996.775,-116 1000.44,-116 1000.44,-116 1087.56,-116 1087.56,-116 1091.22,-116 1094.89,-119.667 1094.89,-123.333 1094.89,-123.333 1094.89,-130.667 1094.89,-130.667 1094.89,-134.333 1091.22,-138 1087.56,-138"/>
<text text-anchor="middle" x="1044" y="-123.4" font-family="Helvetica,sans-Serif" font-size="12.00" fill="white">AbsoluteValuable</text>
</a>
</g>
</g>
<!-- Double -->
<g id="node7" class="node">
<g id="a_node7"><a xlink:href="/v2.1/type/Double/" target="_top">
<polygon fill="#999999" stroke="#999999" points="1003,-22 949,-22 949,-0 1003,-0 1003,-22"/>
<text text-anchor="middle" x="976" y="-7.4" font-family="Helvetica,sans-Serif" font-size="12.00" fill="white">Double</text>
</a>
</g>
</g>
<!-- AbsoluteValuable&#45;&gt;Double -->
<g id="edge54" class="edge">
<path fill="none" stroke="#cccccc" d="M1024.2,-115.945C1010.83,-108.057 994.036,-95.7794 985,-80 976.781,-65.6488 974.831,-46.8567 974.767,-32.6652"/>
<polygon fill="#cccccc" stroke="#cccccc" points="978.271,-32.5317 975.036,-22.4431 971.274,-32.3474 978.271,-32.5317"/>
</g>
<!-- Float -->
<g id="node9" class="node">
<g id="a_node9"><a xlink:href="/v2.1/type/Float/" target="_top">
<polygon fill="#999999" stroke="#999999" points="1075,-22 1021,-22 1021,-0 1075,-0 1075,-22"/>
<text text-anchor="middle" x="1048" y="-7.4" font-family="Helvetica,sans-Serif" font-size="12.00" fill="white">Float</text>
</a>
</g>
</g>
<!-- AbsoluteValuable&#45;&gt;Float -->
<g id="edge55" class="edge">
<path fill="none" stroke="#cccccc" d="M1094.97,-122.948C1124.99,-118.214 1160.75,-106.834 1180,-80 1185.7,-72.0553 1185.66,-65.9708 1180,-58 1174.27,-49.9304 1122.22,-33.4614 1085.23,-22.5777"/>
<polygon fill="#cccccc" stroke="#cccccc" points="1085.82,-19.1057 1075.24,-19.6676 1083.86,-25.8261 1085.82,-19.1057"/>
</g>
<!-- Float80 -->
<g id="node10" class="node">
<g id="a_node10"><a xlink:href="/v2.1/type/Float80/" target="_top">
<polygon fill="#999999" stroke="#999999" points="912,-22 858,-22 858,-0 912,-0 912,-22"/>
<text text-anchor="middle" x="885" y="-7.4" font-family="Helvetica,sans-Serif" font-size="12.00" fill="white">Float80</text>
</a>
</g>
</g>
<!-- AbsoluteValuable&#45;&gt;Float80 -->
<g id="edge56" class="edge">
<path fill="none" stroke="#cccccc" d="M1027.94,-115.904C1013.61,-106.788 992.148,-92.8714 974,-80 950.147,-63.0821 923.604,-42.5738 905.764,-28.5321"/>
<polygon fill="#cccccc" stroke="#cccccc" points="907.771,-25.6572 897.755,-22.2025 903.431,-31.1491 907.771,-25.6572"/>
</g>
<!-- AnyRandomAccessIndex -->
<g id="node2" class="node">
<g id="a_node2"><a xlink:href="/v2.1/type/AnyRandomAccessIndex/" target="_top">
<polygon fill="#999999" stroke="#999999" points="1423.05,-22 1278.95,-22 1278.95,-0 1423.05,-0 1423.05,-22"/>
<text text-anchor="middle" x="1351" y="-7.4" font-family="Helvetica,sans-Serif" font-size="12.00" fill="white">AnyRandomAccessIndex</text>
</a>
</g>
</g>
<!-- Bit -->
<g id="node3" class="node">
<g id="a_node3"><a xlink:href="/v2.1/type/Bit/" target="_top">
<polygon fill="#999999" stroke="#999999" points="706,-22 652,-22 652,-0 706,-0 706,-22"/>
<text text-anchor="middle" x="679" y="-7.4" font-family="Helvetica,sans-Serif" font-size="12.00" fill="white">Bit</text>
</a>
</g>
</g>
<!-- Character -->
<g id="node4" class="node">
<g id="a_node4"><a xlink:href="/v2.1/type/Character/" target="_top">
<polygon fill="#999999" stroke="#999999" points="2113.02,-22 2050.98,-22 2050.98,-0 2113.02,-0 2113.02,-22"/>
<text text-anchor="middle" x="2082" y="-7.4" font-family="Helvetica,sans-Serif" font-size="12.00" fill="white">Character</text>
</a>
</g>
</g>
<!-- Comparable -->
<g id="node5" class="node">
<g id="a_node5"><a xlink:href="/v2.1/protocol/Comparable/" target="_top">
<path fill="#ee543d" stroke="#ee543d" d="M1759.19,-312C1759.19,-312 1698.81,-312 1698.81,-312 1695.14,-312 1691.48,-308.333 1691.48,-304.667 1691.48,-304.667 1691.48,-297.333 1691.48,-297.333 1691.48,-293.667 1695.14,-290 1698.81,-290 1698.81,-290 1759.19,-290 1759.19,-290 1762.86,-290 1766.52,-293.667 1766.52,-297.333 1766.52,-297.333 1766.52,-304.667 1766.52,-304.667 1766.52,-308.333 1762.86,-312 1759.19,-312"/>
<text text-anchor="middle" x="1729" y="-297.4" font-family="Helvetica,sans-Serif" font-size="12.00" fill="white">Comparable</text>
</a>
</g>
</g>
<!-- Comparable&#45;&gt;Bit -->
<g id="edge1" class="edge">
<path fill="none" stroke="#cccccc" d="M1691.51,-299.875C1502.71,-299.067 663.666,-293.269 626,-254 565.419,-190.84 634.628,-75.1934 665.574,-30.4015"/>
<polygon fill="#cccccc" stroke="#cccccc" points="668.462,-32.3807 671.371,-22.1931 662.743,-28.343 668.462,-32.3807"/>
</g>
<!-- Comparable&#45;&gt;Character -->
<g id="edge2" class="edge">
<path fill="none" stroke="#cccccc" d="M1766.61,-298.39C1818.01,-295.065 1912.21,-284.911 1986,-254 2034.23,-233.798 2082,-238.286 2082,-186 2082,-186 2082,-186 2082,-126 2082,-93.1536 2082,-54.9837 2082,-32.197"/>
<polygon fill="#cccccc" stroke="#cccccc" points="2085.5,-32.0648 2082,-22.0648 2078.5,-32.0648 2085.5,-32.0648"/>
</g>
<!-- DictionaryIndex -->
<g id="node6" class="node">
<g id="a_node6"><a xlink:href="/v2.1/type/DictionaryIndex/" target="_top">
<polygon fill="#999999" stroke="#999999" points="2224.03,-22 2131.97,-22 2131.97,-0 2224.03,-0 2224.03,-22"/>
<text text-anchor="middle" x="2178" y="-7.4" font-family="Helvetica,sans-Serif" font-size="12.00" fill="white">DictionaryIndex</text>
</a>
</g>
</g>
<!-- Comparable&#45;&gt;DictionaryIndex -->
<g id="edge3" class="edge">
<path fill="none" stroke="#cccccc" d="M1766.51,-298.498C1874.42,-293.167 2178,-270.647 2178,-186 2178,-186 2178,-186 2178,-126 2178,-93.1536 2178,-54.9837 2178,-32.197"/>
<polygon fill="#cccccc" stroke="#cccccc" points="2181.5,-32.0648 2178,-22.0648 2174.5,-32.0648 2181.5,-32.0648"/>
</g>
<!-- Comparable&#45;&gt;Double -->
<g id="edge4" class="edge">
<path fill="none" stroke="#cccccc" d="M1691.55,-299.126C1572.63,-296.05 1208.8,-284.237 1166,-254 1111.08,-215.204 1151.64,-163.449 1104,-116 1076.09,-88.1994 1053.33,-105.141 1023,-80 1006.69,-66.477 993.555,-45.9316 985.363,-30.9633"/>
<polygon fill="#cccccc" stroke="#cccccc" points="988.444,-29.3023 980.709,-22.0623 982.241,-32.5458 988.444,-29.3023"/>
</g>
<!-- Comparable&#45;&gt;Float -->
<g id="edge5" class="edge">
<path fill="none" stroke="#cccccc" d="M1691.46,-298.6C1582.69,-293.534 1275,-271.634 1275,-186 1275,-186 1275,-186 1275,-126 1275,-86.5645 1251.25,-79.2081 1218,-58 1168.55,-26.4551 1145.76,-37.0534 1084.82,-22.0776"/>
<polygon fill="#cccccc" stroke="#cccccc" points="1085.68,-18.6857 1075.12,-19.5599 1083.92,-25.461 1085.68,-18.6857"/>
</g>
<!-- Comparable&#45;&gt;Float80 -->
<g id="edge6" class="edge">
<path fill="none" stroke="#cccccc" d="M1691.51,-299.015C1518.58,-294.089 803.543,-269.369 740,-196 716.723,-169.123 723.761,-147.631 740,-116 762.697,-71.7895 813.886,-42.1489 848.946,-26.1784"/>
<polygon fill="#cccccc" stroke="#cccccc" points="850.624,-29.2641 858.37,-22.0357 847.807,-22.8559 850.624,-29.2641"/>
</g>
<!-- Int -->
<g id="node12" class="node">
<g id="a_node12"><a xlink:href="/v2.1/type/Int/" target="_top">
<polygon fill="#999999" stroke="#999999" points="414,-22 360,-22 360,-0 414,-0 414,-22"/>
<text text-anchor="middle" x="387" y="-7.4" font-family="Helvetica,sans-Serif" font-size="12.00" fill="white">Int</text>
</a>
</g>
</g>
<!-- Comparable&#45;&gt;Int -->
<g id="edge7" class="edge">
<path fill="none" stroke="#cccccc" d="M1691.39,-299.708C1502.86,-298.091 659.542,-288.992 400,-254 270.517,-236.543 114,-316.655 114,-186 114,-186 114,-186 114,-126 114,-75.4734 275.248,-35.2758 349.893,-19.3743"/>
<polygon fill="#cccccc" stroke="#cccccc" points="350.756,-22.7697 359.826,-17.2933 349.32,-15.9185 350.756,-22.7697"/>
</g>
<!-- Int16 -->
<g id="node13" class="node">
<g id="a_node13"><a xlink:href="/v2.1/type/Int16/" target="_top">
<polygon fill="#999999" stroke="#999999" points="114,-22 60,-22 60,-0 114,-0 114,-22"/>
<text text-anchor="middle" x="87" y="-7.4" font-family="Helvetica,sans-Serif" font-size="12.00" fill="white">Int16</text>
</a>
</g>
</g>
<!-- Comparable&#45;&gt;Int16 -->
<g id="edge8" class="edge">
<path fill="none" stroke="#cccccc" d="M1691.64,-299.608C1454.49,-297.04 165.965,-281.839 88,-254 41.4511,-237.379 0,-235.427 0,-186 0,-186 0,-186 0,-126 0,-84.1716 37.4713,-48.1453 63.2305,-28.3211"/>
<polygon fill="#cccccc" stroke="#cccccc" points="65.4946,-30.9996 71.4461,-22.2343 61.3275,-25.375 65.4946,-30.9996"/>
</g>
<!-- Int32 -->
<g id="node14" class="node">
<g id="a_node14"><a xlink:href="/v2.1/type/Int32/" target="_top">
<polygon fill="#999999" stroke="#999999" points="512,-22 458,-22 458,-0 512,-0 512,-22"/>
<text text-anchor="middle" x="485" y="-7.4" font-family="Helvetica,sans-Serif" font-size="12.00" fill="white">Int32</text>
</a>
</g>
</g>
<!-- Comparable&#45;&gt;Int32 -->
<g id="edge9" class="edge">
<path fill="none" stroke="#cccccc" d="M1691.55,-299.596C1500.06,-297.389 637.435,-285.711 591,-254 514.205,-201.555 492.564,-80.3912 486.883,-32.2512"/>
<polygon fill="#cccccc" stroke="#cccccc" points="490.347,-31.7258 485.804,-22.1542 483.386,-32.4695 490.347,-31.7258"/>
</g>
<!-- Int64 -->
<g id="node15" class="node">
<g id="a_node15"><a xlink:href="/v2.1/type/Int64/" target="_top">
<polygon fill="#999999" stroke="#999999" points="597,-22 543,-22 543,-0 597,-0 597,-22"/>
<text text-anchor="middle" x="570" y="-7.4" font-family="Helvetica,sans-Serif" font-size="12.00" fill="white">Int64</text>
</a>
</g>
</g>
<!-- Comparable&#45;&gt;Int64 -->
<g id="edge10" class="edge">
<path fill="none" stroke="#cccccc" d="M1691.65,-299.773C1501.63,-298.457 649.601,-290.526 608,-254 574.951,-224.983 570.5,-84.8952 570.009,-32.1463"/>
<polygon fill="#cccccc" stroke="#cccccc" points="573.509,-32.0052 569.956,-22.024 566.509,-32.0424 573.509,-32.0052"/>
</g>
<!-- Int8 -->
<g id="node16" class="node">
<g id="a_node16"><a xlink:href="/v2.1/type/Int8/" target="_top">
<polygon fill="#999999" stroke="#999999" points="236,-22 182,-22 182,-0 236,-0 236,-22"/>
<text text-anchor="middle" x="209" y="-7.4" font-family="Helvetica,sans-Serif" font-size="12.00" fill="white">Int8</text>
</a>
</g>
</g>
<!-- Comparable&#45;&gt;Int8 -->
<g id="edge11" class="edge">
<path fill="none" stroke="#cccccc" d="M1691.53,-299.892C1456.47,-299.093 192.98,-292.991 122,-254 90.0198,-236.432 76,-222.488 76,-186 76,-186 76,-186 76,-126 76,-75.1151 132.816,-42.0472 172.178,-25.2434"/>
<polygon fill="#cccccc" stroke="#cccccc" points="173.835,-28.3473 181.765,-21.3207 171.184,-21.8687 173.835,-28.3473"/>
</g>
<!-- IntegerArithmeticType -->
<g id="node17" class="node">
<g id="a_node17"><a xlink:href="/v2.1/protocol/IntegerArithmeticType/" target="_top">
<path fill="#999999" stroke="#999999" d="M753.711,-254C753.711,-254 642.289,-254 642.289,-254 638.623,-254 634.956,-250.333 634.956,-246.667 634.956,-246.667 634.956,-239.333 634.956,-239.333 634.956,-235.667 638.623,-232 642.289,-232 642.289,-232 753.711,-232 753.711,-232 757.377,-232 761.044,-235.667 761.044,-239.333 761.044,-239.333 761.044,-246.667 761.044,-246.667 761.044,-250.333 757.377,-254 753.711,-254"/>
<text text-anchor="middle" x="698" y="-239.4" font-family="Helvetica,sans-Serif" font-size="12.00" fill="white">IntegerArithmeticType</text>
</a>
</g>
</g>
<!-- Comparable&#45;&gt;IntegerArithmeticType -->
<g id="edge12" class="edge">
<path fill="none" stroke="#cccccc" d="M1691.65,-299.286C1563.64,-296.608 1130.93,-285.641 775,-254 773.892,-253.902 772.776,-253.799 771.653,-253.693"/>
<polygon fill="#cccccc" stroke="#cccccc" points="771.708,-250.18 761.405,-252.648 770.998,-257.144 771.708,-250.18"/>
</g>
<!-- ObjectIdentifier -->
<g id="node19" class="node">
<g id="a_node19"><a xlink:href="/v2.1/type/ObjectIdentifier/" target="_top">
<polygon fill="#999999" stroke="#999999" points="2333.03,-22 2242.97,-22 2242.97,-0 2333.03,-0 2333.03,-22"/>
<text text-anchor="middle" x="2288" y="-7.4" font-family="Helvetica,sans-Serif" font-size="12.00" fill="white">ObjectIdentifier</text>
</a>
</g>
</g>
<!-- Comparable&#45;&gt;ObjectIdentifier -->
<g id="edge13" class="edge">
<path fill="none" stroke="#cccccc" d="M1766.55,-300.356C1891.88,-300.55 2288,-292.722 2288,-186 2288,-186 2288,-186 2288,-126 2288,-93.1536 2288,-54.9837 2288,-32.197"/>
<polygon fill="#cccccc" stroke="#cccccc" points="2291.5,-32.0648 2288,-22.0648 2284.5,-32.0648 2291.5,-32.0648"/>
</g>
<!-- SetIndex -->
<g id="node22" class="node">
<g id="a_node22"><a xlink:href="/v2.1/type/SetIndex/" target="_top">
<polygon fill="#999999" stroke="#999999" points="2408.52,-22 2351.48,-22 2351.48,-0 2408.52,-0 2408.52,-22"/>
<text text-anchor="middle" x="2380" y="-7.4" font-family="Helvetica,sans-Serif" font-size="12.00" fill="white">SetIndex</text>
</a>
</g>
</g>
<!-- Comparable&#45;&gt;SetIndex -->
<g id="edge14" class="edge">
<path fill="none" stroke="#cccccc" d="M1766.69,-298.566C1870.4,-294.321 2158.29,-280.43 2249,-254 2311.98,-235.65 2380,-251.599 2380,-186 2380,-186 2380,-186 2380,-126 2380,-93.1536 2380,-54.9837 2380,-32.197"/>
<polygon fill="#cccccc" stroke="#cccccc" points="2383.5,-32.0648 2380,-22.0648 2376.5,-32.0648 2383.5,-32.0648"/>
</g>
<!-- SignedNumberType -->
<g id="node24" class="node">
<g id="a_node24"><a xlink:href="/v2.1/protocol/SignedNumberType/" target="_top">
<path fill="#999999" stroke="#999999" d="M336.716,-196C336.716,-196 235.284,-196 235.284,-196 231.617,-196 227.95,-192.333 227.95,-188.667 227.95,-188.667 227.95,-181.333 227.95,-181.333 227.95,-177.667 231.617,-174 235.284,-174 235.284,-174 336.716,-174 336.716,-174 340.383,-174 344.05,-177.667 344.05,-181.333 344.05,-181.333 344.05,-188.667 344.05,-188.667 344.05,-192.333 340.383,-196 336.716,-196"/>
<text text-anchor="middle" x="286" y="-181.4" font-family="Helvetica,sans-Serif" font-size="12.00" fill="white">SignedNumberType</text>
</a>
</g>
</g>
<!-- Comparable&#45;&gt;SignedNumberType -->
<g id="edge15" class="edge">
<path fill="none" stroke="#cccccc" d="M1691.46,-300.14C1509.7,-300.586 720.079,-299.806 479,-254 419.889,-242.769 354.517,-216.635 317.041,-200.233"/>
<polygon fill="#cccccc" stroke="#cccccc" points="318.247,-196.94 307.687,-196.087 315.411,-203.339 318.247,-196.94"/>
</g>
<!-- Strideable -->
<g id="node25" class="node">
<g id="a_node25"><a xlink:href="/v2.1/protocol/Strideable/" target="_top">
<path fill="#999999" stroke="#999999" d="M1231.69,-254C1231.69,-254 1182.31,-254 1182.31,-254 1178.64,-254 1174.97,-250.333 1174.97,-246.667 1174.97,-246.667 1174.97,-239.333 1174.97,-239.333 1174.97,-235.667 1178.64,-232 1182.31,-232 1182.31,-232 1231.69,-232 1231.69,-232 1235.36,-232 1239.03,-235.667 1239.03,-239.333 1239.03,-239.333 1239.03,-246.667 1239.03,-246.667 1239.03,-250.333 1235.36,-254 1231.69,-254"/>
<text text-anchor="middle" x="1207" y="-239.4" font-family="Helvetica,sans-Serif" font-size="12.00" fill="white">Strideable</text>
</a>
</g>
</g>
<!-- Comparable&#45;&gt;Strideable -->
<g id="edge16" class="edge">
<path fill="none" stroke="#cccccc" d="M1691.56,-297.408C1612.03,-291.663 1420.45,-276.558 1261,-254 1257.13,-253.452 1253.11,-252.823 1249.09,-252.153"/>
<polygon fill="#cccccc" stroke="#cccccc" points="1249.65,-248.697 1239.19,-250.426 1248.44,-255.593 1249.65,-248.697"/>
</g>
<!-- String -->
<g id="node26" class="node">
<g id="a_node26"><a xlink:href="/v2.1/type/String/" target="_top">
<polygon fill="#999999" stroke="#999999" points="2481,-22 2427,-22 2427,-0 2481,-0 2481,-22"/>
<text text-anchor="middle" x="2454" y="-7.4" font-family="Helvetica,sans-Serif" font-size="12.00" fill="white">String</text>
</a>
</g>
</g>
<!-- Comparable&#45;&gt;String -->
<g id="edge17" class="edge">
<path fill="none" stroke="#cccccc" d="M1766.53,-298.891C1878.83,-295.284 2210.9,-282.437 2315,-254 2381.34,-235.877 2454,-254.774 2454,-186 2454,-186 2454,-186 2454,-126 2454,-93.1536 2454,-54.9837 2454,-32.197"/>
<polygon fill="#cccccc" stroke="#cccccc" points="2457.5,-32.0648 2454,-22.0648 2450.5,-32.0648 2457.5,-32.0648"/>
</g>
<!-- String.CharacterView.Index -->
<g id="node27" class="node">
<g id="a_node27"><a xlink:href="/v2.1/type/String.CharacterView.Index/" target="_top">
<polygon fill="#999999" stroke="#999999" points="2654.4,-22 2499.6,-22 2499.6,-0 2654.4,-0 2654.4,-22"/>
<text text-anchor="middle" x="2577" y="-7.4" font-family="Helvetica,sans-Serif" font-size="12.00" fill="white">String.CharacterView.Index</text>
</a>
</g>
</g>
<!-- Comparable&#45;&gt;String.CharacterView.Index -->
<g id="edge24" class="edge">
<path fill="none" stroke="#cccccc" d="M1766.64,-298.723C1887.85,-294.398 2267.08,-279.152 2387,-254 2474.78,-235.589 2577,-275.69 2577,-186 2577,-186 2577,-186 2577,-126 2577,-93.1536 2577,-54.9837 2577,-32.197"/>
<polygon fill="#cccccc" stroke="#cccccc" points="2580.5,-32.0648 2577,-22.0648 2573.5,-32.0648 2580.5,-32.0648"/>
</g>
<!-- String.UTF16View.Index -->
<g id="node28" class="node">
<g id="a_node28"><a xlink:href="/v2.1/type/String.UTF16View.Index/" target="_top">
<polygon fill="#999999" stroke="#999999" points="2811.39,-22 2672.61,-22 2672.61,-0 2811.39,-0 2811.39,-22"/>
<text text-anchor="middle" x="2742" y="-7.4" font-family="Helvetica,sans-Serif" font-size="12.00" fill="white">String.UTF16View.Index</text>
</a>
</g>
</g>
<!-- Comparable&#45;&gt;String.UTF16View.Index -->
<g id="edge26" class="edge">
<path fill="none" stroke="#cccccc" d="M1766.56,-299.797C1949.89,-298.323 2742,-286.159 2742,-186 2742,-186 2742,-186 2742,-126 2742,-93.1536 2742,-54.9837 2742,-32.197"/>
<polygon fill="#cccccc" stroke="#cccccc" points="2745.5,-32.0648 2742,-22.0648 2738.5,-32.0648 2745.5,-32.0648"/>
</g>
<!-- String.UnicodeScalarView.Index -->
<g id="node29" class="node">
<g id="a_node29"><a xlink:href="/v2.1/type/String.UnicodeScalarView.Index/" target="_top">
<polygon fill="#999999" stroke="#999999" points="3009.92,-22 2830.08,-22 2830.08,-0 3009.92,-0 3009.92,-22"/>
<text text-anchor="middle" x="2920" y="-7.4" font-family="Helvetica,sans-Serif" font-size="12.00" fill="white">String.UnicodeScalarView.Index</text>
</a>
</g>
</g>
<!-- Comparable&#45;&gt;String.UnicodeScalarView.Index -->
<g id="edge25" class="edge">
<path fill="none" stroke="#cccccc" d="M1766.61,-300.438C1969.06,-302.311 2920,-304.788 2920,-186 2920,-186 2920,-186 2920,-126 2920,-93.1536 2920,-54.9837 2920,-32.197"/>
<polygon fill="#cccccc" stroke="#cccccc" points="2923.5,-32.0648 2920,-22.0648 2916.5,-32.0648 2923.5,-32.0648"/>
</g>
<!-- UInt -->
<g id="node30" class="node">
<g id="a_node30"><a xlink:href="/v2.1/type/UInt/" target="_top">
<polygon fill="#999999" stroke="#999999" points="1495,-22 1441,-22 1441,-0 1495,-0 1495,-22"/>
<text text-anchor="middle" x="1468" y="-7.4" font-family="Helvetica,sans-Serif" font-size="12.00" fill="white">UInt</text>
</a>
</g>
</g>
<!-- Comparable&#45;&gt;UInt -->
<g id="edge18" class="edge">
<path fill="none" stroke="#cccccc" d="M1721.82,-289.748C1701.21,-260.706 1639.35,-176.097 1577,-116 1558.06,-97.7399 1549.39,-97.7922 1530,-80 1512.85,-64.2549 1495.13,-44.3966 1483.05,-30.2123"/>
<polygon fill="#cccccc" stroke="#cccccc" points="1485.43,-27.602 1476.31,-22.2013 1480.07,-32.1074 1485.43,-27.602"/>
</g>
<!-- UInt16 -->
<g id="node31" class="node">
<g id="a_node31"><a xlink:href="/v2.1/type/UInt16/" target="_top">
<polygon fill="#999999" stroke="#999999" points="1567,-22 1513,-22 1513,-0 1567,-0 1567,-22"/>
<text text-anchor="middle" x="1540" y="-7.4" font-family="Helvetica,sans-Serif" font-size="12.00" fill="white">UInt16</text>
</a>
</g>
</g>
<!-- Comparable&#45;&gt;UInt16 -->
<g id="edge19" class="edge">
<path fill="none" stroke="#cccccc" d="M1734.94,-289.698C1745.62,-270.153 1767,-226.056 1767,-186 1767,-186 1767,-186 1767,-126 1767,-84.0345 1641.54,-41.4593 1577.16,-22.3748"/>
<polygon fill="#cccccc" stroke="#cccccc" points="1577.96,-18.9626 1567.38,-19.5173 1576,-25.6816 1577.96,-18.9626"/>
</g>
<!-- UInt32 -->
<g id="node32" class="node">
<g id="a_node32"><a xlink:href="/v2.1/type/UInt32/" target="_top">
<polygon fill="#999999" stroke="#999999" points="1639,-22 1585,-22 1585,-0 1639,-0 1639,-22"/>
<text text-anchor="middle" x="1612" y="-7.4" font-family="Helvetica,sans-Serif" font-size="12.00" fill="white">UInt32</text>
</a>
</g>
</g>
<!-- Comparable&#45;&gt;UInt32 -->
<g id="edge20" class="edge">
<path fill="none" stroke="#cccccc" d="M1766.18,-289.944C1811.18,-275.25 1881,-243.231 1881,-186 1881,-186 1881,-186 1881,-126 1881,-15.6978 1764.03,-49.9505 1648.83,-22.0587"/>
<polygon fill="#cccccc" stroke="#cccccc" points="1649.68,-18.6629 1639.12,-19.5544 1647.93,-25.4411 1649.68,-18.6629"/>
</g>
<!-- UInt64 -->
<g id="node33" class="node">
<g id="a_node33"><a xlink:href="/v2.1/type/UInt64/" target="_top">
<polygon fill="#999999" stroke="#999999" points="1711,-22 1657,-22 1657,-0 1711,-0 1711,-22"/>
<text text-anchor="middle" x="1684" y="-7.4" font-family="Helvetica,sans-Serif" font-size="12.00" fill="white">UInt64</text>
</a>
</g>
</g>
<!-- Comparable&#45;&gt;UInt64 -->
<g id="edge21" class="edge">
<path fill="none" stroke="#cccccc" d="M1766.42,-299.244C1803.57,-296.516 1859.91,-286.75 1895,-254 1918.43,-232.132 1919,-218.049 1919,-186 1919,-186 1919,-186 1919,-126 1919,-93.9507 1919.15,-79.0651 1895,-58 1837.49,-7.84708 1800.19,-38.0489 1720.95,-21.9366"/>
<polygon fill="#cccccc" stroke="#cccccc" points="1721.6,-18.495 1711.08,-19.7336 1720.07,-25.3271 1721.6,-18.495"/>
</g>
<!-- UInt8 -->
<g id="node34" class="node">
<g id="a_node34"><a xlink:href="/v2.1/type/UInt8/" target="_top">
<polygon fill="#999999" stroke="#999999" points="1783,-22 1729,-22 1729,-0 1783,-0 1783,-22"/>
<text text-anchor="middle" x="1756" y="-7.4" font-family="Helvetica,sans-Serif" font-size="12.00" fill="white">UInt8</text>
</a>
</g>
</g>
<!-- Comparable&#45;&gt;UInt8 -->
<g id="edge22" class="edge">
<path fill="none" stroke="#cccccc" d="M1766.55,-300.366C1839.87,-298.911 1995,-284.225 1995,-186 1995,-186 1995,-186 1995,-126 1995,-85.1015 1968.06,-79.0537 1933,-58 1880.15,-26.2664 1856.73,-37.4521 1792.84,-22.0671"/>
<polygon fill="#cccccc" stroke="#cccccc" points="1793.66,-18.6658 1783.11,-19.5962 1791.94,-25.4503 1793.66,-18.6658"/>
</g>
<!-- UnicodeScalar -->
<g id="node35" class="node">
<g id="a_node35"><a xlink:href="/v2.1/type/UnicodeScalar/" target="_top">
<polygon fill="#999999" stroke="#999999" points="3116.03,-22 3027.97,-22 3027.97,-0 3116.03,-0 3116.03,-22"/>
<text text-anchor="middle" x="3072" y="-7.4" font-family="Helvetica,sans-Serif" font-size="12.00" fill="white">UnicodeScalar</text>
</a>
</g>
</g>
<!-- Comparable&#45;&gt;UnicodeScalar -->
<g id="edge23" class="edge">
<path fill="none" stroke="#cccccc" d="M1766.35,-299.596C1933.95,-297.604 2617.57,-287.541 2829,-254 2939.76,-236.429 3072,-298.149 3072,-186 3072,-186 3072,-186 3072,-126 3072,-93.1536 3072,-54.9837 3072,-32.197"/>
<polygon fill="#cccccc" stroke="#cccccc" points="3075.5,-32.0648 3072,-22.0648 3068.5,-32.0648 3075.5,-32.0648"/>
</g>
<!-- Equatable -->
<g id="node8" class="node">
<g id="a_node8"><a xlink:href="/v2.1/protocol/Equatable/" target="_top">
<path fill="#999999" stroke="#999999" d="M1753.7,-370C1753.7,-370 1704.3,-370 1704.3,-370 1700.63,-370 1696.96,-366.333 1696.96,-362.667 1696.96,-362.667 1696.96,-355.333 1696.96,-355.333 1696.96,-351.667 1700.63,-348 1704.3,-348 1704.3,-348 1753.7,-348 1753.7,-348 1757.37,-348 1761.04,-351.667 1761.04,-355.333 1761.04,-355.333 1761.04,-362.667 1761.04,-362.667 1761.04,-366.333 1757.37,-370 1753.7,-370"/>
<text text-anchor="middle" x="1729" y="-355.4" font-family="Helvetica,sans-Serif" font-size="12.00" fill="white">Equatable</text>
</a>
</g>
</g>
<!-- Equatable&#45;&gt;Comparable -->
<g id="edge80" class="edge">
<path fill="none" stroke="#cccccc" d="M1729,-347.988C1729,-340.91 1729,-331.171 1729,-322.478"/>
<polygon fill="#cccccc" stroke="#cccccc" points="1732.5,-322.304 1729,-312.304 1725.5,-322.304 1732.5,-322.304"/>
</g>
<!-- FloatingPointType -->
<g id="node11" class="node">
<g id="a_node11"><a xlink:href="/v2.1/protocol/FloatingPointType/" target="_top">
<path fill="#999999" stroke="#999999" d="M1163.72,-80C1163.72,-80 1072.28,-80 1072.28,-80 1068.62,-80 1064.95,-76.3333 1064.95,-72.6667 1064.95,-72.6667 1064.95,-65.3333 1064.95,-65.3333 1064.95,-61.6667 1068.62,-58 1072.28,-58 1072.28,-58 1163.72,-58 1163.72,-58 1167.38,-58 1171.05,-61.6667 1171.05,-65.3333 1171.05,-65.3333 1171.05,-72.6667 1171.05,-72.6667 1171.05,-76.3333 1167.38,-80 1163.72,-80"/>
<text text-anchor="middle" x="1118" y="-65.4" font-family="Helvetica,sans-Serif" font-size="12.00" fill="white">FloatingPointType</text>
</a>
</g>
</g>
<!-- FloatingPointType&#45;&gt;Double -->
<g id="edge62" class="edge">
<path fill="none" stroke="#cccccc" d="M1092.61,-57.9883C1069.94,-49.0453 1036.49,-35.8566 1011.23,-25.8935"/>
<polygon fill="#cccccc" stroke="#cccccc" points="1012.23,-22.5266 1001.65,-22.1138 1009.66,-29.0385 1012.23,-22.5266"/>
</g>
<!-- FloatingPointType&#45;&gt;Float -->
<g id="edge63" class="edge">
<path fill="none" stroke="#cccccc" d="M1105.49,-57.9883C1095.36,-49.8873 1080.88,-38.3026 1068.98,-28.7873"/>
<polygon fill="#cccccc" stroke="#cccccc" points="1070.87,-25.8178 1060.88,-22.3039 1066.5,-31.2839 1070.87,-25.8178"/>
</g>
<!-- Int&#45;&gt;Bit -->
<g id="edge27" class="edge">
<path fill="none" stroke="#cccccc" d="M408.077,-22.139C421.86,-28.7778 440.492,-36.5623 458,-40 518.62,-51.9029 536.112,-50.4496 597,-40 613.324,-37.1984 630.714,-31.4737 645.258,-25.845"/>
<polygon fill="#cccccc" stroke="#cccccc" points="646.852,-28.977 654.825,-22.0008 644.242,-22.4817 646.852,-28.977"/>
</g>
<!-- IntegerArithmeticType&#45;&gt;Bit -->
<g id="edge28" class="edge">
<path fill="none" stroke="#cccccc" d="M697.159,-231.82C694.253,-196.642 684.598,-79.7709 680.677,-32.3033"/>
<polygon fill="#cccccc" stroke="#cccccc" points="684.143,-31.7399 679.831,-22.062 677.166,-32.3163 684.143,-31.7399"/>
</g>
<!-- _IntegerType -->
<g id="node40" class="node">
<g id="a_node40"><a xlink:href="/v2.1/protocol/_IntegerType/" target="_top">
<path fill="#999999" stroke="#999999" d="M821.708,-196C821.708,-196 756.292,-196 756.292,-196 752.626,-196 748.959,-192.333 748.959,-188.667 748.959,-188.667 748.959,-181.333 748.959,-181.333 748.959,-177.667 752.626,-174 756.292,-174 756.292,-174 821.708,-174 821.708,-174 825.374,-174 829.041,-177.667 829.041,-181.333 829.041,-181.333 829.041,-188.667 829.041,-188.667 829.041,-192.333 825.374,-196 821.708,-196"/>
<text text-anchor="middle" x="789" y="-181.4" font-family="Helvetica,sans-Serif" font-size="12.00" fill="white">_IntegerType</text>
</a>
</g>
</g>
<!-- IntegerArithmeticType&#45;&gt;_IntegerType -->
<g id="edge29" class="edge">
<path fill="none" stroke="#cccccc" d="M714.269,-231.988C728.03,-223.52 747.977,-211.245 763.802,-201.507"/>
<polygon fill="#cccccc" stroke="#cccccc" points="765.883,-204.336 772.565,-196.114 762.214,-198.374 765.883,-204.336"/>
</g>
<!-- IntegerType -->
<g id="node18" class="node">
<g id="a_node18"><a xlink:href="/v2.1/protocol/IntegerType/" target="_top">
<path fill="#999999" stroke="#999999" d="M815.202,-138C815.202,-138 756.798,-138 756.798,-138 753.132,-138 749.465,-134.333 749.465,-130.667 749.465,-130.667 749.465,-123.333 749.465,-123.333 749.465,-119.667 753.132,-116 756.798,-116 756.798,-116 815.202,-116 815.202,-116 818.868,-116 822.535,-119.667 822.535,-123.333 822.535,-123.333 822.535,-130.667 822.535,-130.667 822.535,-134.333 818.868,-138 815.202,-138"/>
<text text-anchor="middle" x="786" y="-123.4" font-family="Helvetica,sans-Serif" font-size="12.00" fill="white">IntegerType</text>
</a>
</g>
</g>
<!-- SignedIntegerType -->
<g id="node23" class="node">
<g id="a_node23"><a xlink:href="/v2.1/protocol/SignedIntegerType/" target="_top">
<path fill="#999999" stroke="#999999" d="M434.727,-80C434.727,-80 339.273,-80 339.273,-80 335.606,-80 331.94,-76.3333 331.94,-72.6667 331.94,-72.6667 331.94,-65.3333 331.94,-65.3333 331.94,-61.6667 335.606,-58 339.273,-58 339.273,-58 434.727,-58 434.727,-58 438.394,-58 442.06,-61.6667 442.06,-65.3333 442.06,-65.3333 442.06,-72.6667 442.06,-72.6667 442.06,-76.3333 438.394,-80 434.727,-80"/>
<text text-anchor="middle" x="387" y="-65.4" font-family="Helvetica,sans-Serif" font-size="12.00" fill="white">SignedIntegerType</text>
</a>
</g>
</g>
<!-- IntegerType&#45;&gt;SignedIntegerType -->
<g id="edge33" class="edge">
<path fill="none" stroke="#cccccc" d="M749.534,-120.882C682.058,-111.412 536.899,-91.0384 452.154,-79.1444"/>
<polygon fill="#cccccc" stroke="#cccccc" points="452.518,-75.6612 442.128,-77.7373 451.545,-82.5933 452.518,-75.6612"/>
</g>
<!-- UnsignedIntegerType -->
<g id="node38" class="node">
<g id="a_node38"><a xlink:href="/v2.1/protocol/UnsignedIntegerType/" target="_top">
<path fill="#999999" stroke="#999999" d="M1655.73,-80C1655.73,-80 1546.27,-80 1546.27,-80 1542.61,-80 1538.94,-76.3333 1538.94,-72.6667 1538.94,-72.6667 1538.94,-65.3333 1538.94,-65.3333 1538.94,-61.6667 1542.61,-58 1546.27,-58 1546.27,-58 1655.73,-58 1655.73,-58 1659.39,-58 1663.06,-61.6667 1663.06,-65.3333 1663.06,-65.3333 1663.06,-72.6667 1663.06,-72.6667 1663.06,-76.3333 1659.39,-80 1655.73,-80"/>
<text text-anchor="middle" x="1601" y="-65.4" font-family="Helvetica,sans-Serif" font-size="12.00" fill="white">UnsignedIntegerType</text>
</a>
</g>
</g>
<!-- IntegerType&#45;&gt;UnsignedIntegerType -->
<g id="edge34" class="edge">
<path fill="none" stroke="#cccccc" d="M822.602,-123.485C947.811,-114.882 1360.53,-86.5229 1528.71,-74.9669"/>
<polygon fill="#cccccc" stroke="#cccccc" points="1528.97,-78.4574 1538.71,-74.2801 1528.49,-71.4739 1528.97,-78.4574"/>
</g>
<!-- RandomAccessIndexType -->
<g id="node20" class="node">
<g id="a_node20"><a xlink:href="/v2.1/protocol/RandomAccessIndexType/" target="_top">
<path fill="#999999" stroke="#999999" d="M1445.23,-196C1445.23,-196 1310.77,-196 1310.77,-196 1307.11,-196 1303.44,-192.333 1303.44,-188.667 1303.44,-188.667 1303.44,-181.333 1303.44,-181.333 1303.44,-177.667 1307.11,-174 1310.77,-174 1310.77,-174 1445.23,-174 1445.23,-174 1448.89,-174 1452.56,-177.667 1452.56,-181.333 1452.56,-181.333 1452.56,-188.667 1452.56,-188.667 1452.56,-192.333 1448.89,-196 1445.23,-196"/>
<text text-anchor="middle" x="1378" y="-181.4" font-family="Helvetica,sans-Serif" font-size="12.00" fill="white">RandomAccessIndexType</text>
</a>
</g>
</g>
<!-- RandomAccessIndexType&#45;&gt;AnyRandomAccessIndex -->
<g id="edge64" class="edge">
<path fill="none" stroke="#cccccc" d="M1376.15,-173.78C1374.49,-164.465 1372,-150.322 1370,-138 1363.94,-100.695 1357.51,-57.0685 1353.9,-32.1701"/>
<polygon fill="#cccccc" stroke="#cccccc" points="1357.34,-31.5351 1352.45,-22.1381 1350.42,-32.5358 1357.34,-31.5351"/>
</g>
<!-- RandomAccessIndexType&#45;&gt;Bit -->
<g id="edge65" class="edge">
<path fill="none" stroke="#cccccc" d="M1303.54,-181.405C1223.47,-177.209 1092.99,-166.293 984,-138 956.195,-130.782 784.745,-57.5334 711.798,-26.1499"/>
<polygon fill="#cccccc" stroke="#cccccc" points="712.753,-22.7504 702.184,-22.0106 709.985,-29.1799 712.753,-22.7504"/>
</g>
<!-- RandomAccessIndexType&#45;&gt;Int -->
<g id="edge66" class="edge">
<path fill="none" stroke="#cccccc" d="M1303.53,-181.162C1159.06,-175.239 845.683,-160.24 740,-138 616.949,-112.106 478.529,-53.509 418.057,-26.3356"/>
<polygon fill="#cccccc" stroke="#cccccc" points="419.252,-23.0347 408.698,-22.1006 416.366,-29.4121 419.252,-23.0347"/>
</g>
<!-- RandomAccessIndexType&#45;&gt;Int16 -->
<g id="edge67" class="edge">
<path fill="none" stroke="#cccccc" d="M1303.4,-182.334C1117.57,-177.838 637.685,-164.006 480,-138 456.644,-134.148 297.533,-87.2527 275,-80 221.318,-62.7217 160.047,-39.9837 122.444,-25.6765"/>
<polygon fill="#cccccc" stroke="#cccccc" points="123.544,-22.3499 112.953,-22.0529 121.047,-28.8895 123.544,-22.3499"/>
</g>
<!-- RandomAccessIndexType&#45;&gt;Int32 -->
<g id="edge68" class="edge">
<path fill="none" stroke="#cccccc" d="M1303.51,-181.713C1181.34,-177.229 944.046,-165.24 865,-138 847.983,-132.136 847.418,-123.376 831,-116 776.313,-91.4319 758.49,-97.004 701,-80 637.828,-61.3154 564.811,-37.9569 521.903,-24.0484"/>
<polygon fill="#cccccc" stroke="#cccccc" points="522.777,-20.6522 512.185,-20.8928 520.615,-27.3101 522.777,-20.6522"/>
</g>
<!-- RandomAccessIndexType&#45;&gt;Int64 -->
<g id="edge69" class="edge">
<path fill="none" stroke="#cccccc" d="M1303.32,-182.123C1212.75,-178.546 1055.96,-168.155 925,-138 897.322,-131.627 891.727,-125.611 865,-116 772.202,-82.6308 662.616,-44.271 606.755,-24.7922"/>
<polygon fill="#cccccc" stroke="#cccccc" points="607.885,-21.4793 597.29,-21.4929 605.581,-28.0893 607.885,-21.4793"/>
</g>
<!-- RandomAccessIndexType&#45;&gt;Int8 -->
<g id="edge70" class="edge">
<path fill="none" stroke="#cccccc" d="M1303.35,-181.584C1093.77,-174.024 503.457,-147.19 323,-80 288.454,-67.1373 252.57,-43.7995 230.509,-28.0994"/>
<polygon fill="#cccccc" stroke="#cccccc" points="232.368,-25.1247 222.217,-22.0923 228.262,-30.7934 232.368,-25.1247"/>
</g>
<!-- RandomAccessIndexType&#45;&gt;IntegerType -->
<g id="edge71" class="edge">
<path fill="none" stroke="#cccccc" d="M1303.33,-180.226C1198.7,-174.354 1002.7,-161.219 837,-138 835.52,-137.793 834.018,-137.57 832.503,-137.336"/>
<polygon fill="#cccccc" stroke="#cccccc" points="832.855,-133.846 822.414,-135.64 831.695,-140.749 832.855,-133.846"/>
</g>
<!-- ReverseRandomAccessIndex -->
<g id="node21" class="node">
<g id="a_node21"><a xlink:href="/v2.1/type/ReverseRandomAccessIndex/" target="_top">
<polygon fill="#999999" stroke="#999999" points="1261.06,-22 1092.94,-22 1092.94,-0 1261.06,-0 1261.06,-22"/>
<text text-anchor="middle" x="1177" y="-7.4" font-family="Helvetica,sans-Serif" font-size="12.00" fill="white">ReverseRandomAccessIndex</text>
</a>
</g>
</g>
<!-- RandomAccessIndexType&#45;&gt;ReverseRandomAccessIndex -->
<g id="edge72" class="edge">
<path fill="none" stroke="#cccccc" d="M1373.27,-173.696C1361.96,-150.089 1331.1,-91.545 1289,-58 1270.48,-43.2429 1246.57,-32.5657 1225.6,-25.2353"/>
<polygon fill="#cccccc" stroke="#cccccc" points="1226.48,-21.8412 1215.89,-22.0015 1224.27,-28.4825 1226.48,-21.8412"/>
</g>
<!-- RandomAccessIndexType&#45;&gt;UInt -->
<g id="edge73" class="edge">
<path fill="none" stroke="#cccccc" d="M1452.65,-174.245C1496.05,-166.871 1544.75,-155.068 1558,-138 1597.6,-87.0083 1507.42,-149.134 1459,-80 1449.21,-66.0291 1453.2,-46.4045 1458.6,-31.8263"/>
<polygon fill="#cccccc" stroke="#cccccc" points="1461.98,-32.8316 1462.62,-22.2561 1455.52,-30.125 1461.98,-32.8316"/>
</g>
<!-- RandomAccessIndexType&#45;&gt;UInt16 -->
<g id="edge74" class="edge">
<path fill="none" stroke="#cccccc" d="M1452.45,-176.409C1502.23,-169.619 1561.39,-157.636 1577,-138 1603.99,-104.059 1532.2,-84.4629 1530,-80 1522.59,-64.9937 1526.3,-46.0202 1531.17,-31.9305"/>
<polygon fill="#cccccc" stroke="#cccccc" points="1534.57,-32.8424 1534.96,-22.2545 1528.05,-30.2922 1534.57,-32.8424"/>
</g>
<!-- RandomAccessIndexType&#45;&gt;UInt32 -->
<g id="edge75" class="edge">
<path fill="none" stroke="#cccccc" d="M1452.6,-176.356C1495.67,-169.97 1550.05,-158.465 1595,-138 1633.99,-120.247 1652.88,-118.341 1672,-80 1682.28,-59.3812 1661.2,-40.1144 1641.26,-27.3918"/>
<polygon fill="#cccccc" stroke="#cccccc" points="1642.96,-24.3309 1632.58,-22.1905 1639.36,-30.3345 1642.96,-24.3309"/>
</g>
<!-- RandomAccessIndexType&#45;&gt;UInt64 -->
<g id="edge76" class="edge">
<path fill="none" stroke="#cccccc" d="M1452.36,-182.74C1505.5,-179.036 1577.19,-168.143 1633,-138 1664.26,-121.118 1674.84,-112.998 1688,-80 1694.08,-64.7448 1692.39,-46.0295 1689.57,-32.0976"/>
<polygon fill="#cccccc" stroke="#cccccc" points="1692.91,-31.0243 1687.19,-22.1074 1686.1,-32.6463 1692.91,-31.0243"/>
</g>
<!-- RandomAccessIndexType&#45;&gt;UInt8 -->
<g id="edge77" class="edge">
<path fill="none" stroke="#cccccc" d="M1452.66,-178.437C1525.26,-171.894 1629.48,-159.153 1664,-138 1705.75,-112.413 1734.42,-60.1216 1747.66,-31.6074"/>
<polygon fill="#cccccc" stroke="#cccccc" points="1750.94,-32.829 1751.83,-22.2714 1744.55,-29.9714 1750.94,-32.829"/>
</g>
<!-- UnsafeMutablePointer -->
<g id="node36" class="node">
<g id="a_node36"><a xlink:href="/v2.1/type/UnsafeMutablePointer/" target="_top">
<polygon fill="#999999" stroke="#999999" points="1929.05,-22 1800.95,-22 1800.95,-0 1929.05,-0 1929.05,-22"/>
<text text-anchor="middle" x="1865" y="-7.4" font-family="Helvetica,sans-Serif" font-size="12.00" fill="white">UnsafeMutablePointer</text>
</a>
</g>
</g>
<!-- RandomAccessIndexType&#45;&gt;UnsafeMutablePointer -->
<g id="edge78" class="edge">
<path fill="none" stroke="#cccccc" d="M1452.39,-182.983C1517.51,-179.809 1613.54,-169.508 1691,-138 1755.11,-111.924 1817.69,-57.4523 1847.29,-29.4484"/>
<polygon fill="#cccccc" stroke="#cccccc" points="1849.94,-31.7487 1854.73,-22.2973 1845.1,-26.7002 1849.94,-31.7487"/>
</g>
<!-- UnsafePointer -->
<g id="node37" class="node">
<g id="a_node37"><a xlink:href="/v2.1/type/UnsafePointer/" target="_top">
<polygon fill="#999999" stroke="#999999" points="2033.03,-22 1946.97,-22 1946.97,-0 2033.03,-0 2033.03,-22"/>
<text text-anchor="middle" x="1990" y="-7.4" font-family="Helvetica,sans-Serif" font-size="12.00" fill="white">UnsafePointer</text>
</a>
</g>
</g>
<!-- RandomAccessIndexType&#45;&gt;UnsafePointer -->
<g id="edge79" class="edge">
<path fill="none" stroke="#cccccc" d="M1452.38,-180.912C1523.82,-176.381 1634.13,-165.253 1726,-138 1818.7,-110.504 1919.53,-54.2178 1965.13,-27.1706"/>
<polygon fill="#cccccc" stroke="#cccccc" points="1966.96,-30.153 1973.75,-22.0158 1963.37,-24.1457 1966.96,-30.153"/>
</g>
<!-- SignedIntegerType&#45;&gt;Int -->
<g id="edge35" class="edge">
<path fill="none" stroke="#cccccc" d="M387,-57.9883C387,-50.9098 387,-41.1714 387,-32.4779"/>
<polygon fill="#cccccc" stroke="#cccccc" points="390.5,-32.3038 387,-22.3039 383.5,-32.3039 390.5,-32.3038"/>
</g>
<!-- SignedIntegerType&#45;&gt;Int16 -->
<g id="edge36" class="edge">
<path fill="none" stroke="#cccccc" d="M333.366,-57.9883C273.009,-46.7217 176.553,-28.7165 124.027,-18.9117"/>
<polygon fill="#cccccc" stroke="#cccccc" points="124.604,-15.459 114.131,-17.0645 123.319,-22.3401 124.604,-15.459"/>
</g>
<!-- SignedIntegerType&#45;&gt;Int32 -->
<g id="edge37" class="edge">
<path fill="none" stroke="#cccccc" d="M404.52,-57.9883C419.478,-49.441 441.223,-37.0155 458.34,-27.2343"/>
<polygon fill="#cccccc" stroke="#cccccc" points="460.355,-30.1141 467.301,-22.1138 456.882,-24.0364 460.355,-30.1141"/>
</g>
<!-- SignedIntegerType&#45;&gt;Int64 -->
<g id="edge38" class="edge">
<path fill="none" stroke="#cccccc" d="M419.717,-57.9883C451.581,-48.2376 499.938,-33.4399 533.143,-23.2786"/>
<polygon fill="#cccccc" stroke="#cccccc" points="534.389,-26.5577 542.927,-20.2846 532.34,-19.8641 534.389,-26.5577"/>
</g>
<!-- SignedIntegerType&#45;&gt;Int8 -->
<g id="edge39" class="edge">
<path fill="none" stroke="#cccccc" d="M355.177,-57.9883C324.588,-48.3648 278.373,-33.8251 246.121,-23.6786"/>
<polygon fill="#cccccc" stroke="#cccccc" points="246.768,-20.2129 236.178,-20.5504 244.667,-26.8902 246.768,-20.2129"/>
</g>
<!-- SignedNumberType&#45;&gt;AbsoluteValuable -->
<g id="edge47" class="edge">
<path fill="none" stroke="#cccccc" d="M344.22,-179.699C484.238,-169.354 838.814,-143.159 982.307,-132.558"/>
<polygon fill="#cccccc" stroke="#cccccc" points="982.962,-136.019 992.676,-131.792 982.446,-129.038 982.962,-136.019"/>
</g>
<!-- SignedNumberType&#45;&gt;Int -->
<g id="edge48" class="edge">
<path fill="none" stroke="#cccccc" d="M265.942,-173.951C252.772,-166.138 236.623,-153.947 229,-138 224.783,-129.178 225.145,-124.986 229,-116 250.546,-65.7825 310.836,-36.908 350.401,-22.8473"/>
<polygon fill="#cccccc" stroke="#cccccc" points="351.638,-26.1235 359.977,-19.5878 349.382,-19.4968 351.638,-26.1235"/>
</g>
<!-- SignedNumberType&#45;&gt;Int16 -->
<g id="edge49" class="edge">
<path fill="none" stroke="#cccccc" d="M236.728,-173.951C212.216,-167.032 183.347,-155.783 162,-138 127.12,-108.944 104.441,-59.2277 93.8902,-31.7341"/>
<polygon fill="#cccccc" stroke="#cccccc" points="97.0684,-30.2359 90.3295,-22.0604 90.4992,-32.6539 97.0684,-30.2359"/>
</g>
<!-- SignedNumberType&#45;&gt;Int32 -->
<g id="edge50" class="edge">
<path fill="none" stroke="#cccccc" d="M277.547,-173.701C267.585,-160.239 253.411,-136.019 262,-116 276.751,-81.6208 290.506,-76.5373 323,-58 362.469,-35.4834 413.725,-23.3521 447.908,-17.2952"/>
<polygon fill="#cccccc" stroke="#cccccc" points="448.657,-20.7185 457.937,-15.6058 447.494,-13.8158 448.657,-20.7185"/>
</g>
<!-- SignedNumberType&#45;&gt;Int64 -->
<g id="edge51" class="edge">
<path fill="none" stroke="#cccccc" d="M315.629,-173.901C338.512,-165.589 370.619,-152.797 397,-138 456.243,-104.77 519.096,-54.7455 550.192,-28.8586"/>
<polygon fill="#cccccc" stroke="#cccccc" points="552.68,-31.34 558.091,-22.2313 548.181,-25.9775 552.68,-31.34"/>
</g>
<!-- SignedNumberType&#45;&gt;Int8 -->
<g id="edge52" class="edge">
<path fill="none" stroke="#cccccc" d="M229.484,-173.941C209.108,-167.29 188.159,-156.265 176,-138 156.296,-108.403 165.114,-91.8482 176,-58 179.27,-47.8305 185.712,-38.0046 192.043,-30.0635"/>
<polygon fill="#cccccc" stroke="#cccccc" points="194.877,-32.1351 198.714,-22.2594 189.556,-27.5868 194.877,-32.1351"/>
</g>
<!-- _SignedIntegerType -->
<g id="node41" class="node">
<g id="a_node41"><a xlink:href="/v2.1/protocol/_SignedIntegerType/" target="_top">
<path fill="#999999" stroke="#999999" d="M381.231,-138C381.231,-138 278.769,-138 278.769,-138 275.102,-138 271.436,-134.333 271.436,-130.667 271.436,-130.667 271.436,-123.333 271.436,-123.333 271.436,-119.667 275.102,-116 278.769,-116 278.769,-116 381.231,-116 381.231,-116 384.898,-116 388.564,-119.667 388.564,-123.333 388.564,-123.333 388.564,-130.667 388.564,-130.667 388.564,-134.333 384.898,-138 381.231,-138"/>
<text text-anchor="middle" x="330" y="-123.4" font-family="Helvetica,sans-Serif" font-size="12.00" fill="white">_SignedIntegerType</text>
</a>
</g>
</g>
<!-- SignedNumberType&#45;&gt;_SignedIntegerType -->
<g id="edge53" class="edge">
<path fill="none" stroke="#cccccc" d="M293.866,-173.988C299.922,-166.281 308.456,-155.419 315.71,-146.187"/>
<polygon fill="#cccccc" stroke="#cccccc" points="318.478,-148.329 321.904,-138.304 312.974,-144.005 318.478,-148.329"/>
</g>
<!-- Strideable&#45;&gt;Double -->
<g id="edge57" class="edge">
<path fill="none" stroke="#cccccc" d="M1203.83,-231.753C1196.1,-208.264 1174.11,-149.951 1137,-116 1107.93,-89.4082 1089.35,-100.972 1056,-80 1032.61,-65.2914 1008.87,-44.161 993.398,-29.3702"/>
<polygon fill="#cccccc" stroke="#cccccc" points="995.715,-26.7415 986.105,-22.281 990.836,-31.7609 995.715,-26.7415"/>
</g>
<!-- Strideable&#45;&gt;Float -->
<g id="edge58" class="edge">
<path fill="none" stroke="#cccccc" d="M1210.27,-231.677C1219.31,-200.954 1241.14,-109.074 1197,-58 1193.21,-53.6146 1127.8,-34.5079 1084.92,-22.3405"/>
<polygon fill="#cccccc" stroke="#cccccc" points="1085.66,-18.9123 1075.08,-19.5592 1083.75,-25.6482 1085.66,-18.9123"/>
</g>
<!-- Strideable&#45;&gt;Float80 -->
<g id="edge59" class="edge">
<path fill="none" stroke="#cccccc" d="M1174.87,-232.331C1129.06,-217.433 1043.91,-185.521 984,-138 944.983,-107.051 912.124,-57.7727 895.889,-30.9339"/>
<polygon fill="#cccccc" stroke="#cccccc" points="898.786,-28.9576 890.679,-22.1367 892.763,-32.5245 898.786,-28.9576"/>
</g>
<!-- Strideable&#45;&gt;FloatingPointType -->
<g id="edge60" class="edge">
<path fill="none" stroke="#cccccc" d="M1206.55,-231.665C1205.13,-208.973 1199.25,-153.806 1175,-116 1167.25,-103.922 1155.26,-93.5543 1144.27,-85.736"/>
<polygon fill="#cccccc" stroke="#cccccc" points="1146.03,-82.6983 1135.78,-80.0283 1142.13,-88.5094 1146.03,-82.6983"/>
</g>
<!-- Strideable&#45;&gt;RandomAccessIndexType -->
<g id="edge61" class="edge">
<path fill="none" stroke="#cccccc" d="M1237.57,-231.988C1265.57,-222.819 1307.2,-209.187 1337.87,-199.144"/>
<polygon fill="#cccccc" stroke="#cccccc" points="1338.99,-202.458 1347.41,-196.019 1336.81,-195.805 1338.99,-202.458"/>
</g>
<!-- UnsignedIntegerType&#45;&gt;UInt -->
<g id="edge40" class="edge">
<path fill="none" stroke="#cccccc" d="M1577.22,-57.9883C1556.08,-49.0849 1524.94,-35.9733 1501.31,-26.0259"/>
<polygon fill="#cccccc" stroke="#cccccc" points="1502.59,-22.7687 1492.02,-22.1138 1499.88,-29.2202 1502.59,-22.7687"/>
</g>
<!-- UnsignedIntegerType&#45;&gt;UInt16 -->
<g id="edge41" class="edge">
<path fill="none" stroke="#cccccc" d="M1590.09,-57.9883C1581.44,-50.0446 1569.14,-38.7512 1558.89,-29.3439"/>
<polygon fill="#cccccc" stroke="#cccccc" points="1560.96,-26.4883 1551.22,-22.3039 1556.22,-31.6449 1560.96,-26.4883"/>
</g>
<!-- UnsignedIntegerType&#45;&gt;UInt32 -->
<g id="edge42" class="edge">
<path fill="none" stroke="#cccccc" d="M1602.97,-57.9883C1604.37,-50.8311 1606.31,-40.9547 1608.03,-32.1885"/>
<polygon fill="#cccccc" stroke="#cccccc" points="1611.48,-32.791 1609.98,-22.3039 1604.61,-31.4417 1611.48,-32.791"/>
</g>
<!-- UnsignedIntegerType&#45;&gt;UInt64 -->
<g id="edge43" class="edge">
<path fill="none" stroke="#cccccc" d="M1615.84,-57.9883C1628.27,-49.5993 1646.24,-37.4743 1660.61,-27.7804"/>
<polygon fill="#cccccc" stroke="#cccccc" points="1662.68,-30.6083 1669.01,-22.1138 1658.76,-24.8055 1662.68,-30.6083"/>
</g>
<!-- UnsignedIntegerType&#45;&gt;UInt8 -->
<g id="edge44" class="edge">
<path fill="none" stroke="#cccccc" d="M1628.71,-57.9883C1653.92,-48.8821 1691.3,-35.3739 1719.05,-25.3513"/>
<polygon fill="#cccccc" stroke="#cccccc" points="1720.57,-28.5208 1728.79,-21.8311 1718.19,-21.9373 1720.57,-28.5208"/>
</g>
<!-- _DisallowMixedSignArithmetic -->
<g id="node39" class="node">
<g id="a_node39"><a xlink:href="/v2.1/protocol/_DisallowMixedSignArithmetic/" target="_top">
<path fill="#999999" stroke="#999999" d="M1541.71,-138C1541.71,-138 1386.29,-138 1386.29,-138 1382.62,-138 1378.96,-134.333 1378.96,-130.667 1378.96,-130.667 1378.96,-123.333 1378.96,-123.333 1378.96,-119.667 1382.62,-116 1386.29,-116 1386.29,-116 1541.71,-116 1541.71,-116 1545.38,-116 1549.04,-119.667 1549.04,-123.333 1549.04,-123.333 1549.04,-130.667 1549.04,-130.667 1549.04,-134.333 1545.38,-138 1541.71,-138"/>
<text text-anchor="middle" x="1464" y="-123.4" font-family="Helvetica,sans-Serif" font-size="12.00" fill="white">_DisallowMixedSignArithmetic</text>
</a>
</g>
</g>
<!-- _DisallowMixedSignArithmetic&#45;&gt;UnsignedIntegerType -->
<g id="edge45" class="edge">
<path fill="none" stroke="#cccccc" d="M1488.49,-115.988C1510.27,-107.085 1542.35,-93.9733 1566.69,-84.0259"/>
<polygon fill="#cccccc" stroke="#cccccc" points="1568.33,-87.1374 1576.26,-80.1138 1565.68,-80.6578 1568.33,-87.1374"/>
</g>
<!-- _IntegerType&#45;&gt;IntegerType -->
<g id="edge30" class="edge">
<path fill="none" stroke="#cccccc" d="M788.464,-173.988C788.084,-166.91 787.563,-157.171 787.097,-148.478"/>
<polygon fill="#cccccc" stroke="#cccccc" points="790.582,-148.102 786.552,-138.304 783.592,-148.477 790.582,-148.102"/>
</g>
<!-- _IntegerType&#45;&gt;_DisallowMixedSignArithmetic -->
<g id="edge31" class="edge">
<path fill="none" stroke="#cccccc" d="M829.203,-180.665C934.215,-171.953 1218.96,-148.329 1368.83,-135.896"/>
<polygon fill="#cccccc" stroke="#cccccc" points="1369.27,-139.371 1378.94,-135.057 1368.69,-132.395 1369.27,-139.371"/>
</g>
<!-- _IntegerType&#45;&gt;_SignedIntegerType -->
<g id="edge32" class="edge">
<path fill="none" stroke="#cccccc" d="M748.962,-179.463C678.824,-171.462 529.184,-154.16 403,-138 401.533,-137.812 400.049,-137.621 398.554,-137.427"/>
<polygon fill="#cccccc" stroke="#cccccc" points="398.93,-133.946 388.559,-136.114 398.018,-140.886 398.93,-133.946"/>
</g>
<!-- _SignedIntegerType&#45;&gt;SignedIntegerType -->
<g id="edge46" class="edge">
<path fill="none" stroke="#cccccc" d="M340.19,-115.988C348.276,-108.045 359.771,-96.7512 369.346,-87.3439"/>
<polygon fill="#cccccc" stroke="#cccccc" points="371.832,-89.8088 376.512,-80.3039 366.926,-84.8154 371.832,-89.8088"/>
</g>
</g>
</svg>
