<?xml version="1.0" encoding="UTF-8" standalone="no"?>
<!DOCTYPE svg PUBLIC "-//W3C//DTD SVG 1.1//EN"
 "http://www.w3.org/Graphics/SVG/1.1/DTD/svg11.dtd">
<!-- Generated by graphviz version 2.36.0 (20140111.2315)
 -->
<!-- Title: Array&lt;Element&gt; &#45; Type Hierarchy &#45; SwiftDoc.org Pages: 1 -->
<svg width="962pt" height="427pt"
 viewBox="0.00 0.00 962.40 427.20" xmlns="http://www.w3.org/2000/svg" xmlns:xlink="http://www.w3.org/1999/xlink">
<g id="graph0" class="graph" transform="scale(1 1) rotate(0) translate(7.2 369.6)">
<g transform="translate(0 -369.6)">
<g>
    <path fill="#666666" d="M13.846,10.832c-0.336-0.464-0.792-0.844-1.368-1.14s-1.224-0.444-1.944-0.444
        c-0.384,0-0.772,0.052-1.164,0.156C8.977,9.509,8.622,9.677,8.301,9.908c-0.32,0.232-0.58,0.52-0.78,0.864
        c-0.2,0.344-0.3,0.756-0.3,1.236c0,0.464,0.092,0.852,0.276,1.164c0.184,0.312,0.432,0.576,0.744,0.792s0.68,0.4,1.104,0.552
        c0.423,0.152,0.876,0.309,1.356,0.468c0.576,0.177,1.16,0.376,1.752,0.601c0.592,0.224,1.128,0.52,1.608,0.888
        s0.872,0.828,1.176,1.38s0.456,1.252,0.456,2.101c0,0.88-0.164,1.644-0.492,2.292c-0.328,0.647-0.765,1.184-1.308,1.607
        c-0.544,0.424-1.172,0.74-1.884,0.948s-1.444,0.312-2.196,0.312c-1.072,0-2.108-0.208-3.108-0.624
        c-1-0.415-1.828-1.031-2.484-1.848l1.848-1.56c0.4,0.592,0.936,1.071,1.608,1.439c0.672,0.368,1.399,0.552,2.184,0.552
        c0.4,0,0.8-0.056,1.2-0.168c0.4-0.111,0.764-0.288,1.092-0.527c0.328-0.24,0.596-0.54,0.804-0.9
        c0.208-0.36,0.312-0.796,0.312-1.308s-0.108-0.94-0.324-1.284c-0.216-0.344-0.508-0.636-0.876-0.876s-0.796-0.444-1.284-0.612
        c-0.488-0.168-1.004-0.34-1.548-0.516c-0.544-0.16-1.08-0.356-1.608-0.588c-0.528-0.232-1-0.528-1.416-0.889
        c-0.416-0.359-0.752-0.804-1.008-1.332c-0.256-0.527-0.384-1.184-0.384-1.968c0-0.848,0.172-1.576,0.516-2.184
        c0.344-0.608,0.792-1.112,1.344-1.512c0.552-0.4,1.176-0.692,1.872-0.876c0.696-0.184,1.396-0.276,2.1-0.276
        c0.992,0,1.92,0.176,2.784,0.528c0.864,0.352,1.56,0.824,2.088,1.416L13.846,10.832z"/>
    <path fill="#666666" d="M18.813,13.304l2.568,8.688h0.048l2.712-8.688h2.376l2.76,8.688h0.048l2.568-8.688h2.376L30.501,24.68
        h-2.352l-2.808-8.544h-0.048l-2.784,8.544h-2.352l-3.792-11.376H18.813z"/>
    <path fill="#666666" d="M38.685,9.2c0,0.416-0.147,0.76-0.44,1.032c-0.294,0.272-0.647,0.408-1.06,0.408s-0.762-0.14-1.047-0.42
        c-0.286-0.28-0.429-0.62-0.429-1.02c0-0.416,0.143-0.764,0.429-1.044c0.286-0.28,0.635-0.42,1.047-0.42s0.766,0.14,1.06,0.42
        C38.538,8.437,38.685,8.784,38.685,9.2z M38.325,24.68h-2.256V13.304h2.256V24.68z"/>
    <path fill="#666666" d="M47.613,15.152h-2.64v9.528h-2.256v-9.528h-2.256v-1.848h2.256v-2.376c0-0.672,0.076-1.292,0.228-1.86
        c0.152-0.568,0.4-1.06,0.744-1.476c0.344-0.416,0.784-0.744,1.32-0.984c0.536-0.24,1.188-0.36,1.956-0.36
        c0.544,0,1.016,0.056,1.416,0.168l-0.264,1.944c-0.176-0.048-0.352-0.088-0.528-0.12c-0.176-0.032-0.376-0.048-0.6-0.048
        c-0.432,0-0.78,0.076-1.044,0.228c-0.264,0.152-0.468,0.356-0.612,0.612s-0.24,0.548-0.288,0.876
        c-0.048,0.328-0.072,0.668-0.072,1.02v2.376h2.64V15.152z"/>
    <path fill="#666666" d="M54.909,15.152h-3.024v5.91c0,0.687,0.128,1.177,0.384,1.472c0.256,0.295,0.664,0.442,1.224,0.442
        c0.208,0,0.432-0.021,0.672-0.065c0.24-0.044,0.456-0.11,0.648-0.198l0.072,1.848c-0.272,0.096-0.572,0.172-0.9,0.229
        c-0.328,0.056-0.668,0.084-1.02,0.084c-1.072,0-1.892-0.296-2.46-0.889c-0.568-0.592-0.852-1.479-0.852-2.664v-6.168h-2.184
        v-1.848h2.184V10.04h2.232v3.264h3.024V15.152z"/>
    <path fill="#666666" d="M57.356,7.688h5.832c1.088,0,2.176,0.16,3.264,0.48c1.088,0.32,2.072,0.824,2.952,1.512
        s1.592,1.568,2.136,2.64c0.544,1.072,0.816,2.36,0.816,3.864c0,1.456-0.272,2.716-0.816,3.78s-1.256,1.943-2.136,2.64
        s-1.864,1.216-2.952,1.561c-1.088,0.344-2.176,0.516-3.264,0.516h-5.832V7.688z M59.732,22.593h2.976
        c1.024,0,1.972-0.145,2.844-0.432c0.872-0.288,1.624-0.704,2.256-1.248c0.632-0.544,1.124-1.216,1.476-2.017
        c0.352-0.8,0.528-1.704,0.528-2.712c0-1.056-0.176-1.983-0.528-2.784c-0.353-0.8-0.844-1.468-1.476-2.004
        c-0.632-0.536-1.384-0.944-2.256-1.224s-1.82-0.42-2.844-0.42h-2.976V22.593z"/>
    <path fill="#666666" d="M86.06,18.969c0,0.88-0.156,1.688-0.468,2.424c-0.312,0.736-0.744,1.372-1.296,1.908
        c-0.552,0.536-1.204,0.952-1.956,1.248c-0.752,0.296-1.56,0.443-2.424,0.443c-0.864,0-1.672-0.147-2.424-0.443
        c-0.752-0.296-1.4-0.712-1.944-1.248c-0.544-0.536-0.972-1.172-1.284-1.908c-0.312-0.735-0.468-1.544-0.468-2.424
        s0.156-1.684,0.468-2.412c0.312-0.728,0.74-1.356,1.284-1.884c0.543-0.528,1.191-0.939,1.944-1.236
        c0.752-0.296,1.56-0.444,2.424-0.444c0.864,0,1.672,0.148,2.424,0.444c0.752,0.297,1.404,0.708,1.956,1.236
        c0.552,0.527,0.984,1.156,1.296,1.884C85.904,17.285,86.06,18.089,86.06,18.969z M83.708,18.98c0-0.542-0.084-1.061-0.252-1.556
        c-0.169-0.494-0.414-0.929-0.734-1.304s-0.718-0.674-1.192-0.897s-1.015-0.335-1.625-0.335c-0.61,0-1.152,0.111-1.625,0.335
        c-0.474,0.224-0.871,0.522-1.191,0.897c-0.321,0.375-0.566,0.81-0.734,1.304C76.184,17.92,76.1,18.438,76.1,18.98
        c0,0.543,0.084,1.062,0.253,1.556c0.168,0.495,0.413,0.934,0.734,1.316c0.321,0.383,0.718,0.686,1.191,0.909
        c0.473,0.224,1.015,0.335,1.625,0.335c0.61,0,1.151-0.111,1.625-0.335s0.871-0.526,1.192-0.909s0.565-0.821,0.734-1.316
        C83.624,20.042,83.708,19.523,83.708,18.98z"/>
    <path fill="#666666" d="M96.428,16.184c-0.24-0.368-0.6-0.676-1.08-0.924s-0.992-0.372-1.536-0.372
        c-0.592,0-1.116,0.112-1.572,0.336c-0.456,0.225-0.844,0.524-1.164,0.9c-0.32,0.376-0.564,0.812-0.732,1.308
        s-0.252,1.017-0.252,1.56c0,0.545,0.084,1.064,0.252,1.561s0.412,0.933,0.732,1.308c0.32,0.376,0.712,0.677,1.176,0.9
        c0.464,0.225,0.992,0.336,1.584,0.336c0.576,0,1.1-0.111,1.572-0.336c0.472-0.224,0.86-0.528,1.164-0.912l1.512,1.368
        c-0.48,0.561-1.08,0.996-1.8,1.308c-0.72,0.312-1.536,0.468-2.448,0.468c-0.88,0-1.692-0.144-2.436-0.432
        c-0.744-0.288-1.388-0.691-1.932-1.212c-0.544-0.52-0.972-1.147-1.284-1.884s-0.468-1.561-0.468-2.473
        c0-0.896,0.152-1.711,0.456-2.447c0.304-0.736,0.728-1.368,1.272-1.896c0.543-0.527,1.188-0.936,1.932-1.224
        c0.744-0.288,1.548-0.433,2.412-0.433c0.8,0,1.596,0.16,2.388,0.48s1.419,0.784,1.884,1.392L96.428,16.184z"/>
    <path fill="#666666" d="M103.1,23.24c0,0.417-0.152,0.784-0.456,1.104c-0.304,0.32-0.688,0.479-1.152,0.479
        c-0.448,0-0.828-0.155-1.14-0.468c-0.312-0.312-0.468-0.676-0.468-1.092c0-0.432,0.152-0.804,0.456-1.116
        c0.304-0.312,0.688-0.468,1.152-0.468c0.464,0,0.848,0.152,1.152,0.456C102.947,22.44,103.1,22.808,103.1,23.24z"/>
    <path fill="#666666" d="M116.635,18.969c0,0.88-0.156,1.688-0.468,2.424c-0.312,0.736-0.744,1.372-1.296,1.908
        c-0.552,0.536-1.204,0.952-1.956,1.248c-0.752,0.296-1.56,0.443-2.424,0.443c-0.864,0-1.672-0.147-2.424-0.443
        c-0.752-0.296-1.4-0.712-1.944-1.248c-0.544-0.536-0.972-1.172-1.284-1.908c-0.312-0.735-0.468-1.544-0.468-2.424
        s0.156-1.684,0.468-2.412c0.312-0.728,0.74-1.356,1.284-1.884c0.543-0.528,1.191-0.939,1.944-1.236
        c0.752-0.296,1.56-0.444,2.424-0.444c0.864,0,1.672,0.148,2.424,0.444c0.752,0.297,1.404,0.708,1.956,1.236
        c0.552,0.527,0.984,1.156,1.296,1.884C116.479,17.285,116.635,18.089,116.635,18.969z M114.283,18.98
        c0-0.542-0.084-1.061-0.252-1.556c-0.169-0.494-0.414-0.929-0.734-1.304s-0.718-0.674-1.192-0.897s-1.015-0.335-1.625-0.335
        c-0.61,0-1.152,0.111-1.625,0.335c-0.474,0.224-0.871,0.522-1.191,0.897c-0.321,0.375-0.566,0.81-0.734,1.304
        c-0.169,0.495-0.253,1.014-0.253,1.556c0,0.543,0.084,1.062,0.253,1.556c0.168,0.495,0.413,0.934,0.734,1.316
        c0.321,0.383,0.718,0.686,1.191,0.909c0.473,0.224,1.015,0.335,1.625,0.335c0.61,0,1.151-0.111,1.625-0.335
        s0.871-0.526,1.192-0.909s0.565-0.821,0.734-1.316C114.199,20.042,114.283,19.523,114.283,18.98z"/>
    <path fill="#666666" d="M119.251,14.577c-0.016-0.48-0.04-0.904-0.072-1.272h2.136c0.032,0.288,0.056,0.62,0.072,0.996
        c0.016,0.376,0.024,0.684,0.024,0.924h0.072c0.32-0.672,0.788-1.212,1.404-1.62c0.616-0.408,1.308-0.612,2.076-0.612
        c0.352,0,0.648,0.033,0.888,0.097l-0.096,2.088c-0.32-0.08-0.664-0.12-1.032-0.12c-0.544,0-1.016,0.101-1.416,0.3
        c-0.4,0.2-0.732,0.468-0.996,0.805c-0.264,0.336-0.46,0.724-0.588,1.163c-0.128,0.44-0.192,0.9-0.192,1.381v5.976h-2.256v-8.928
        C119.275,15.449,119.267,15.056,119.251,14.577z"/>
    <path fill="#666666" d="M128.419,26.625c0.496,0.56,1.116,1.008,1.86,1.344c0.744,0.336,1.508,0.504,2.292,0.504
        c0.752,0,1.384-0.108,1.896-0.324s0.924-0.512,1.236-0.888s0.536-0.82,0.672-1.332c0.136-0.513,0.204-1.064,0.204-1.656v-1.464
        h-0.048c-0.416,0.641-0.984,1.128-1.704,1.464c-0.72,0.336-1.488,0.504-2.304,0.504c-0.864,0-1.652-0.151-2.364-0.456
        c-0.712-0.304-1.316-0.72-1.812-1.248c-0.496-0.527-0.88-1.147-1.152-1.859s-0.408-1.477-0.408-2.292
        c0-0.816,0.136-1.584,0.408-2.305c0.272-0.72,0.656-1.348,1.152-1.884c0.496-0.535,1.096-0.96,1.8-1.271
        c0.704-0.312,1.488-0.469,2.352-0.469c0.816,0,1.596,0.177,2.34,0.528c0.744,0.353,1.332,0.888,1.764,1.608h0.048v-1.824h2.184
        v10.8c0,0.832-0.104,1.628-0.312,2.388c-0.208,0.76-0.56,1.433-1.056,2.017s-1.144,1.052-1.944,1.404
        c-0.8,0.352-1.792,0.527-2.976,0.527c-0.992,0-1.988-0.18-2.988-0.54c-1-0.359-1.86-0.868-2.58-1.523L128.419,26.625z
         M129.091,18.873c0,0.527,0.084,1.031,0.253,1.512c0.168,0.479,0.417,0.904,0.746,1.271c0.329,0.369,0.726,0.664,1.192,0.889
        c0.465,0.224,0.995,0.336,1.589,0.336c0.577,0,1.107-0.104,1.589-0.312c0.481-0.207,0.891-0.491,1.228-0.852
        s0.598-0.784,0.782-1.272c0.185-0.487,0.277-1.012,0.277-1.571c0-0.544-0.093-1.057-0.277-1.536
        c-0.185-0.48-0.449-0.904-0.794-1.272c-0.345-0.367-0.755-0.66-1.228-0.876c-0.474-0.216-1-0.324-1.577-0.324
        c-0.594,0-1.124,0.108-1.589,0.324c-0.466,0.216-0.863,0.504-1.192,0.864s-0.578,0.784-0.746,1.271
        C129.175,17.812,129.091,18.329,129.091,18.873z"/>
</g>
<g><a xlink:href="/" pointer-events="all" target="_top"><polygon fill="none" points="0,0 145,0 145,35 0,35 0,0"/></a></g>

</g>


<!-- Array&lt;Element&gt; -->
<g id="node1" class="node">
<g id="a_node1"><a xlink:href="/swift-2/type/Array/" target="_top">
<polygon fill="#ee543d" stroke="#ee543d" points="578.031,-22 481.969,-22 481.969,-0 578.031,-0 578.031,-22"/>
<text text-anchor="middle" x="530" y="-7.4" font-family="Helvetica,sans-Serif" font-size="12.00" fill="white">Array&lt;Element&gt;</text>
</a>
</g>
</g>
<!-- ArrayLiteralConvertible -->
<g id="node2" class="node">
<g id="a_node2"><a xlink:href="/swift-2/protocol/ArrayLiteralConvertible/" target="_top">
<path fill="#999999" stroke="#999999" d="M564.705,-138C564.705,-138 447.295,-138 447.295,-138 443.629,-138 439.962,-134.333 439.962,-130.667 439.962,-130.667 439.962,-123.333 439.962,-123.333 439.962,-119.667 443.629,-116 447.295,-116 447.295,-116 564.705,-116 564.705,-116 568.371,-116 572.038,-119.667 572.038,-123.333 572.038,-123.333 572.038,-130.667 572.038,-130.667 572.038,-134.333 568.371,-138 564.705,-138"/>
<text text-anchor="middle" x="506" y="-123.4" font-family="Helvetica,sans-Serif" font-size="12.00" fill="white">ArrayLiteralConvertible</text>
</a>
</g>
</g>
<!-- ArrayLiteralConvertible&#45;&gt;Array&lt;Element&gt; -->
<g id="edge6" class="edge">
<path fill="none" stroke="#cccccc" d="M517.203,-115.923C525.84,-107.346 537.108,-94.189 542,-80 547.418,-64.2857 543.447,-45.6456 538.668,-31.8589"/>
<polygon fill="#cccccc" stroke="#cccccc" points="541.875,-30.4502 534.998,-22.3911 535.348,-32.9802 541.875,-30.4502"/>
</g>
<!-- _ArrayType -->
<g id="node11" class="node">
<g id="a_node11"><a xlink:href="/swift-2/protocol/_ArrayType/" target="_top">
<path fill="#999999" stroke="#999999" d="M526.19,-80C526.19,-80 469.81,-80 469.81,-80 466.144,-80 462.477,-76.3333 462.477,-72.6667 462.477,-72.6667 462.477,-65.3333 462.477,-65.3333 462.477,-61.6667 466.144,-58 469.81,-58 469.81,-58 526.19,-58 526.19,-58 529.856,-58 533.523,-61.6667 533.523,-65.3333 533.523,-65.3333 533.523,-72.6667 533.523,-72.6667 533.523,-76.3333 529.856,-80 526.19,-80"/>
<text text-anchor="middle" x="498" y="-65.4" font-family="Helvetica,sans-Serif" font-size="12.00" fill="white">_ArrayType</text>
</a>
</g>
</g>
<!-- ArrayLiteralConvertible&#45;&gt;_ArrayType -->
<g id="edge18" class="edge">
<path fill="none" stroke="#cccccc" d="M504.57,-115.988C503.559,-108.91 502.167,-99.1714 500.925,-90.4779"/>
<polygon fill="#cccccc" stroke="#cccccc" points="504.351,-89.7084 499.472,-80.3039 497.421,-90.6984 504.351,-89.7084"/>
</g>
<!-- CollectionType -->
<g id="node3" class="node">
<g id="a_node3"><a xlink:href="/swift-2/protocol/CollectionType/" target="_top">
<path fill="#999999" stroke="#999999" d="M454.704,-254C454.704,-254 381.296,-254 381.296,-254 377.63,-254 373.963,-250.333 373.963,-246.667 373.963,-246.667 373.963,-239.333 373.963,-239.333 373.963,-235.667 377.63,-232 381.296,-232 381.296,-232 454.704,-232 454.704,-232 458.37,-232 462.037,-235.667 462.037,-239.333 462.037,-239.333 462.037,-246.667 462.037,-246.667 462.037,-250.333 458.37,-254 454.704,-254"/>
<text text-anchor="middle" x="418" y="-239.4" font-family="Helvetica,sans-Serif" font-size="12.00" fill="white">CollectionType</text>
</a>
</g>
</g>
<!-- CollectionType&#45;&gt;Array&lt;Element&gt; -->
<g id="edge1" class="edge">
<path fill="none" stroke="#cccccc" d="M462.334,-232.559C508.036,-220.01 575.79,-192.717 599,-138 606.751,-119.726 597.18,-70.1066 590,-58 582.53,-45.4052 570.176,-35.0518 558.613,-27.3781"/>
<polygon fill="#cccccc" stroke="#cccccc" points="560.361,-24.3434 550.02,-22.0396 556.667,-30.2895 560.361,-24.3434"/>
</g>
<!-- MutableCollectionType -->
<g id="node7" class="node">
<g id="a_node7"><a xlink:href="/swift-2/protocol/MutableCollectionType/" target="_top">
<path fill="#999999" stroke="#999999" d="M523.221,-196C523.221,-196 406.779,-196 406.779,-196 403.112,-196 399.446,-192.333 399.446,-188.667 399.446,-188.667 399.446,-181.333 399.446,-181.333 399.446,-177.667 403.112,-174 406.779,-174 406.779,-174 523.221,-174 523.221,-174 526.888,-174 530.554,-177.667 530.554,-181.333 530.554,-181.333 530.554,-188.667 530.554,-188.667 530.554,-192.333 526.888,-196 523.221,-196"/>
<text text-anchor="middle" x="465" y="-181.4" font-family="Helvetica,sans-Serif" font-size="12.00" fill="white">MutableCollectionType</text>
</a>
</g>
</g>
<!-- CollectionType&#45;&gt;MutableCollectionType -->
<g id="edge15" class="edge">
<path fill="none" stroke="#cccccc" d="M426.403,-231.988C432.872,-224.281 441.988,-213.419 449.736,-204.187"/>
<polygon fill="#cccccc" stroke="#cccccc" points="452.604,-206.214 456.352,-196.304 447.242,-201.714 452.604,-206.214"/>
</g>
<!-- MutableSliceable -->
<g id="node8" class="node">
<g id="a_node8"><a xlink:href="/swift-2/protocol/MutableSliceable/" target="_top">
<path fill="#999999" stroke="#999999" d="M414.208,-138C414.208,-138 327.792,-138 327.792,-138 324.126,-138 320.459,-134.333 320.459,-130.667 320.459,-130.667 320.459,-123.333 320.459,-123.333 320.459,-119.667 324.126,-116 327.792,-116 327.792,-116 414.208,-116 414.208,-116 417.874,-116 421.541,-119.667 421.541,-123.333 421.541,-123.333 421.541,-130.667 421.541,-130.667 421.541,-134.333 417.874,-138 414.208,-138"/>
<text text-anchor="middle" x="371" y="-123.4" font-family="Helvetica,sans-Serif" font-size="12.00" fill="white">MutableSliceable</text>
</a>
</g>
</g>
<!-- CollectionType&#45;&gt;MutableSliceable -->
<g id="edge20" class="edge">
<path fill="none" stroke="#cccccc" d="M410.694,-231.847C404.47,-222.808 395.66,-209.035 390,-196 383.297,-180.563 378.319,-162.125 375.144,-148.345"/>
<polygon fill="#cccccc" stroke="#cccccc" points="378.534,-147.465 372.985,-138.439 371.694,-148.955 378.534,-147.465"/>
</g>
<!-- RangeReplaceableCollectionType -->
<g id="node9" class="node">
<g id="a_node9"><a xlink:href="/swift-2/protocol/RangeReplaceableCollectionType/" target="_top">
<path fill="#999999" stroke="#999999" d="M294.76,-138C294.76,-138 119.24,-138 119.24,-138 115.573,-138 111.906,-134.333 111.906,-130.667 111.906,-130.667 111.906,-123.333 111.906,-123.333 111.906,-119.667 115.573,-116 119.24,-116 119.24,-116 294.76,-116 294.76,-116 298.427,-116 302.094,-119.667 302.094,-123.333 302.094,-123.333 302.094,-130.667 302.094,-130.667 302.094,-134.333 298.427,-138 294.76,-138"/>
<text text-anchor="middle" x="207" y="-123.4" font-family="Helvetica,sans-Serif" font-size="12.00" fill="white">RangeReplaceableCollectionType</text>
</a>
</g>
</g>
<!-- CollectionType&#45;&gt;RangeReplaceableCollectionType -->
<g id="edge19" class="edge">
<path fill="none" stroke="#cccccc" d="M399.275,-231.883C361.971,-211.729 278.226,-166.482 234.603,-142.914"/>
<polygon fill="#cccccc" stroke="#cccccc" points="236.145,-139.768 225.683,-138.094 232.817,-145.927 236.145,-139.768"/>
</g>
<!-- CustomDebugStringConvertible -->
<g id="node4" class="node">
<g id="a_node4"><a xlink:href="/swift-2/protocol/CustomDebugStringConvertible/" target="_top">
<path fill="#999999" stroke="#999999" d="M236.73,-80C236.73,-80 73.2704,-80 73.2704,-80 69.6037,-80 65.9371,-76.3333 65.9371,-72.6667 65.9371,-72.6667 65.9371,-65.3333 65.9371,-65.3333 65.9371,-61.6667 69.6037,-58 73.2704,-58 73.2704,-58 236.73,-58 236.73,-58 240.396,-58 244.063,-61.6667 244.063,-65.3333 244.063,-65.3333 244.063,-72.6667 244.063,-72.6667 244.063,-76.3333 240.396,-80 236.73,-80"/>
<text text-anchor="middle" x="155" y="-65.4" font-family="Helvetica,sans-Serif" font-size="12.00" fill="white">CustomDebugStringConvertible</text>
</a>
</g>
</g>
<!-- CustomDebugStringConvertible&#45;&gt;Array&lt;Element&gt; -->
<g id="edge12" class="edge">
<path fill="none" stroke="#cccccc" d="M222.042,-57.9883C293.079,-47.3803 404.117,-30.7985 471.659,-20.7122"/>
<polygon fill="#cccccc" stroke="#cccccc" points="472.332,-24.1506 481.706,-19.212 471.298,-17.2274 472.332,-24.1506"/>
</g>
<!-- CustomStringConvertible -->
<g id="node5" class="node">
<g id="a_node5"><a xlink:href="/swift-2/protocol/CustomStringConvertible/" target="_top">
<path fill="#999999" stroke="#999999" d="M398.208,-80C398.208,-80 269.792,-80 269.792,-80 266.126,-80 262.459,-76.3333 262.459,-72.6667 262.459,-72.6667 262.459,-65.3333 262.459,-65.3333 262.459,-61.6667 266.126,-58 269.792,-58 269.792,-58 398.208,-58 398.208,-58 401.874,-58 405.541,-61.6667 405.541,-65.3333 405.541,-65.3333 405.541,-72.6667 405.541,-72.6667 405.541,-76.3333 401.874,-80 398.208,-80"/>
<text text-anchor="middle" x="334" y="-65.4" font-family="Helvetica,sans-Serif" font-size="12.00" fill="white">CustomStringConvertible</text>
</a>
</g>
</g>
<!-- CustomStringConvertible&#45;&gt;Array&lt;Element&gt; -->
<g id="edge11" class="edge">
<path fill="none" stroke="#cccccc" d="M369.041,-57.9883C401.411,-48.7397 449.674,-34.9502 484.907,-24.8836"/>
<polygon fill="#cccccc" stroke="#cccccc" points="486.279,-28.1319 494.933,-22.0192 484.356,-21.4012 486.279,-28.1319"/>
</g>
<!-- Indexable -->
<g id="node6" class="node">
<g id="a_node6"><a xlink:href="/swift-2/protocol/Indexable/" target="_top">
<path fill="#999999" stroke="#999999" d="M209.699,-312C209.699,-312 162.301,-312 162.301,-312 158.634,-312 154.968,-308.333 154.968,-304.667 154.968,-304.667 154.968,-297.333 154.968,-297.333 154.968,-293.667 158.634,-290 162.301,-290 162.301,-290 209.699,-290 209.699,-290 213.366,-290 217.032,-293.667 217.032,-297.333 217.032,-297.333 217.032,-304.667 217.032,-304.667 217.032,-308.333 213.366,-312 209.699,-312"/>
<text text-anchor="middle" x="186" y="-297.4" font-family="Helvetica,sans-Serif" font-size="12.00" fill="white">Indexable</text>
</a>
</g>
</g>
<!-- Indexable&#45;&gt;Array&lt;Element&gt; -->
<g id="edge2" class="edge">
<path fill="none" stroke="#cccccc" d="M154.868,-295.448C101.918,-285.754 0,-257.772 0,-186 0,-186 0,-186 0,-126 0,-89.5122 14.6181,-76.6154 46,-58 116.573,-16.1366 359.132,-11.3289 471.724,-11.4379"/>
<polygon fill="#cccccc" stroke="#cccccc" points="471.872,-14.9382 481.88,-11.4615 471.888,-7.93821 471.872,-14.9382"/>
</g>
<!-- Indexable&#45;&gt;CollectionType -->
<g id="edge13" class="edge">
<path fill="none" stroke="#cccccc" d="M217.289,-292.448C255.545,-283.213 320.828,-267.455 366.523,-256.425"/>
<polygon fill="#cccccc" stroke="#cccccc" points="367.347,-259.827 376.247,-254.078 365.705,-253.023 367.347,-259.827"/>
</g>
<!-- MutableCollectionType&#45;&gt;Array&lt;Element&gt; -->
<g id="edge4" class="edge">
<path fill="none" stroke="#cccccc" d="M526.95,-173.934C547.647,-167.296 568.584,-156.28 581,-138 604.809,-102.945 570.125,-55.0748 547.291,-29.6144"/>
<polygon fill="#cccccc" stroke="#cccccc" points="549.755,-27.1233 540.384,-22.1802 544.627,-31.8883 549.755,-27.1233"/>
</g>
<!-- MutableCollectionType&#45;&gt;MutableSliceable -->
<g id="edge21" class="edge">
<path fill="none" stroke="#cccccc" d="M448.195,-173.988C433.847,-165.441 412.99,-153.015 396.572,-143.234"/>
<polygon fill="#cccccc" stroke="#cccccc" points="398.359,-140.225 387.977,-138.114 394.776,-146.239 398.359,-140.225"/>
</g>
<!-- MutableSliceable&#45;&gt;Array&lt;Element&gt; -->
<g id="edge8" class="edge">
<path fill="none" stroke="#cccccc" d="M381.971,-115.969C397.304,-102.17 426.271,-76.8979 453,-58 468.9,-46.7587 487.638,-35.5239 502.649,-26.9713"/>
<polygon fill="#cccccc" stroke="#cccccc" points="504.456,-29.9707 511.455,-22.0167 501.023,-23.8701 504.456,-29.9707"/>
</g>
<!-- MutableSliceable&#45;&gt;_ArrayType -->
<g id="edge17" class="edge">
<path fill="none" stroke="#cccccc" d="M393.705,-115.988C413.807,-107.124 443.368,-94.0897 465.89,-84.1587"/>
<polygon fill="#cccccc" stroke="#cccccc" points="467.325,-87.351 475.063,-80.1138 464.501,-80.946 467.325,-87.351"/>
</g>
<!-- RangeReplaceableCollectionType&#45;&gt;Array&lt;Element&gt; -->
<g id="edge9" class="edge">
<path fill="none" stroke="#cccccc" d="M130.62,-115.95C80.605,-106.318 29.2348,-88.5964 57,-58 84.375,-27.8336 351.019,-16.8346 471.467,-13.3828"/>
<polygon fill="#cccccc" stroke="#cccccc" points="471.718,-16.8773 481.616,-13.0999 471.523,-9.87998 471.718,-16.8773"/>
</g>
<!-- RangeReplaceableCollectionType&#45;&gt;_ArrayType -->
<g id="edge16" class="edge">
<path fill="none" stroke="#cccccc" d="M259.025,-115.988C314.046,-105.4 399.994,-88.8602 452.434,-78.7687"/>
<polygon fill="#cccccc" stroke="#cccccc" points="453.298,-82.1667 462.456,-76.84 451.975,-75.2929 453.298,-82.1667"/>
</g>
<!-- SequenceType -->
<g id="node10" class="node">
<g id="a_node10"><a xlink:href="/swift-2/protocol/SequenceType/" target="_top">
<path fill="#999999" stroke="#999999" d="M502.718,-312C502.718,-312 427.282,-312 427.282,-312 423.615,-312 419.949,-308.333 419.949,-304.667 419.949,-304.667 419.949,-297.333 419.949,-297.333 419.949,-293.667 423.615,-290 427.282,-290 427.282,-290 502.718,-290 502.718,-290 506.385,-290 510.051,-293.667 510.051,-297.333 510.051,-297.333 510.051,-304.667 510.051,-304.667 510.051,-308.333 506.385,-312 502.718,-312"/>
<text text-anchor="middle" x="465" y="-297.4" font-family="Helvetica,sans-Serif" font-size="12.00" fill="white">SequenceType</text>
</a>
</g>
</g>
<!-- SequenceType&#45;&gt;Array&lt;Element&gt; -->
<g id="edge3" class="edge">
<path fill="none" stroke="#cccccc" d="M510.265,-295.566C572.264,-286.715 676,-260.738 676,-186 676,-186 676,-186 676,-126 676,-73.6791 617.031,-41.8168 574.046,-25.5413"/>
<polygon fill="#cccccc" stroke="#cccccc" points="575.194,-22.2347 564.6,-22.1139 572.807,-28.8149 575.194,-22.2347"/>
</g>
<!-- SequenceType&#45;&gt;CollectionType -->
<g id="edge14" class="edge">
<path fill="none" stroke="#cccccc" d="M456.597,-289.988C450.128,-282.281 441.012,-271.419 433.264,-262.187"/>
<polygon fill="#cccccc" stroke="#cccccc" points="435.758,-259.714 426.648,-254.304 430.396,-264.214 435.758,-259.714"/>
</g>
<!-- _ArrayType&#45;&gt;Array&lt;Element&gt; -->
<g id="edge7" class="edge">
<path fill="none" stroke="#cccccc" d="M503.721,-57.9883C507.991,-50.5165 513.954,-40.0812 519.12,-31.0393"/>
<polygon fill="#cccccc" stroke="#cccccc" points="522.189,-32.7228 524.112,-22.3039 516.112,-29.2498 522.189,-32.7228"/>
</g>
<!-- _DestructorSafeContainer -->
<g id="node12" class="node">
<g id="a_node12"><a xlink:href="/swift-2/protocol/_DestructorSafeContainer/" target="_top">
<path fill="#999999" stroke="#999999" d="M844.721,-80C844.721,-80 711.279,-80 711.279,-80 707.612,-80 703.946,-76.3333 703.946,-72.6667 703.946,-72.6667 703.946,-65.3333 703.946,-65.3333 703.946,-61.6667 707.612,-58 711.279,-58 711.279,-58 844.721,-58 844.721,-58 848.388,-58 852.054,-61.6667 852.054,-65.3333 852.054,-65.3333 852.054,-72.6667 852.054,-72.6667 852.054,-76.3333 848.388,-80 844.721,-80"/>
<text text-anchor="middle" x="778" y="-65.4" font-family="Helvetica,sans-Serif" font-size="12.00" fill="white">_DestructorSafeContainer</text>
</a>
</g>
</g>
<!-- _DestructorSafeContainer&#45;&gt;Array&lt;Element&gt; -->
<g id="edge5" class="edge">
<path fill="none" stroke="#cccccc" d="M733.663,-57.9883C691.825,-48.5412 629.006,-34.3563 584.209,-24.2407"/>
<polygon fill="#cccccc" stroke="#cccccc" points="584.896,-20.8079 574.371,-22.0192 583.354,-27.636 584.896,-20.8079"/>
</g>
<!-- _Reflectable -->
<g id="node13" class="node">
<g id="a_node13"><a xlink:href="/swift-2/protocol/_Reflectable/" target="_top">
<path fill="#999999" stroke="#999999" d="M939.7,-80C939.7,-80 878.3,-80 878.3,-80 874.634,-80 870.967,-76.3333 870.967,-72.6667 870.967,-72.6667 870.967,-65.3333 870.967,-65.3333 870.967,-61.6667 874.634,-58 878.3,-58 878.3,-58 939.7,-58 939.7,-58 943.366,-58 947.033,-61.6667 947.033,-65.3333 947.033,-65.3333 947.033,-72.6667 947.033,-72.6667 947.033,-76.3333 943.366,-80 939.7,-80"/>
<text text-anchor="middle" x="909" y="-65.4" font-family="Helvetica,sans-Serif" font-size="12.00" fill="white">_Reflectable</text>
</a>
</g>
</g>
<!-- _Reflectable&#45;&gt;Array&lt;Element&gt; -->
<g id="edge10" class="edge">
<path fill="none" stroke="#cccccc" d="M870.792,-59.7982C867.486,-59.1618 864.187,-58.5528 861,-58 765.907,-41.5061 654.634,-27.0245 588.361,-18.9044"/>
<polygon fill="#cccccc" stroke="#cccccc" points="588.471,-15.392 578.121,-17.6565 587.624,-22.3405 588.471,-15.392"/>
</g>
</g>
</svg>
