<?xml version="1.0" encoding="UTF-8" standalone="no"?>
<!DOCTYPE svg PUBLIC "-//W3C//DTD SVG 1.1//EN"
 "http://www.w3.org/Graphics/SVG/1.1/DTD/svg11.dtd">
<!-- Generated by graphviz version 2.36.0 (20140111.2315)
 -->
<!-- Title: Bit &#45; Type Hierarchy &#45; SwiftDoc.org Pages: 1 -->
<svg width="1261pt" height="543pt"
 viewBox="0.00 0.00 1261.40 543.20" xmlns="http://www.w3.org/2000/svg" xmlns:xlink="http://www.w3.org/1999/xlink">
<g id="graph0" class="graph" transform="scale(1 1) rotate(0) translate(7.2 485.6)">
<g transform="translate(0 -485.6)">
<g>
    <path fill="#666666" d="M13.846,10.832c-0.336-0.464-0.792-0.844-1.368-1.14s-1.224-0.444-1.944-0.444
        c-0.384,0-0.772,0.052-1.164,0.156C8.977,9.509,8.622,9.677,8.301,9.908c-0.32,0.232-0.58,0.52-0.78,0.864
        c-0.2,0.344-0.3,0.756-0.3,1.236c0,0.464,0.092,0.852,0.276,1.164c0.184,0.312,0.432,0.576,0.744,0.792s0.68,0.4,1.104,0.552
        c0.423,0.152,0.876,0.309,1.356,0.468c0.576,0.177,1.16,0.376,1.752,0.601c0.592,0.224,1.128,0.52,1.608,0.888
        s0.872,0.828,1.176,1.38s0.456,1.252,0.456,2.101c0,0.88-0.164,1.644-0.492,2.292c-0.328,0.647-0.765,1.184-1.308,1.607
        c-0.544,0.424-1.172,0.74-1.884,0.948s-1.444,0.312-2.196,0.312c-1.072,0-2.108-0.208-3.108-0.624
        c-1-0.415-1.828-1.031-2.484-1.848l1.848-1.56c0.4,0.592,0.936,1.071,1.608,1.439c0.672,0.368,1.399,0.552,2.184,0.552
        c0.4,0,0.8-0.056,1.2-0.168c0.4-0.111,0.764-0.288,1.092-0.527c0.328-0.24,0.596-0.54,0.804-0.9
        c0.208-0.36,0.312-0.796,0.312-1.308s-0.108-0.94-0.324-1.284c-0.216-0.344-0.508-0.636-0.876-0.876s-0.796-0.444-1.284-0.612
        c-0.488-0.168-1.004-0.34-1.548-0.516c-0.544-0.16-1.08-0.356-1.608-0.588c-0.528-0.232-1-0.528-1.416-0.889
        c-0.416-0.359-0.752-0.804-1.008-1.332c-0.256-0.527-0.384-1.184-0.384-1.968c0-0.848,0.172-1.576,0.516-2.184
        c0.344-0.608,0.792-1.112,1.344-1.512c0.552-0.4,1.176-0.692,1.872-0.876c0.696-0.184,1.396-0.276,2.1-0.276
        c0.992,0,1.92,0.176,2.784,0.528c0.864,0.352,1.56,0.824,2.088,1.416L13.846,10.832z"/>
    <path fill="#666666" d="M18.813,13.304l2.568,8.688h0.048l2.712-8.688h2.376l2.76,8.688h0.048l2.568-8.688h2.376L30.501,24.68
        h-2.352l-2.808-8.544h-0.048l-2.784,8.544h-2.352l-3.792-11.376H18.813z"/>
    <path fill="#666666" d="M38.685,9.2c0,0.416-0.147,0.76-0.44,1.032c-0.294,0.272-0.647,0.408-1.06,0.408s-0.762-0.14-1.047-0.42
        c-0.286-0.28-0.429-0.62-0.429-1.02c0-0.416,0.143-0.764,0.429-1.044c0.286-0.28,0.635-0.42,1.047-0.42s0.766,0.14,1.06,0.42
        C38.538,8.437,38.685,8.784,38.685,9.2z M38.325,24.68h-2.256V13.304h2.256V24.68z"/>
    <path fill="#666666" d="M47.613,15.152h-2.64v9.528h-2.256v-9.528h-2.256v-1.848h2.256v-2.376c0-0.672,0.076-1.292,0.228-1.86
        c0.152-0.568,0.4-1.06,0.744-1.476c0.344-0.416,0.784-0.744,1.32-0.984c0.536-0.24,1.188-0.36,1.956-0.36
        c0.544,0,1.016,0.056,1.416,0.168l-0.264,1.944c-0.176-0.048-0.352-0.088-0.528-0.12c-0.176-0.032-0.376-0.048-0.6-0.048
        c-0.432,0-0.78,0.076-1.044,0.228c-0.264,0.152-0.468,0.356-0.612,0.612s-0.24,0.548-0.288,0.876
        c-0.048,0.328-0.072,0.668-0.072,1.02v2.376h2.64V15.152z"/>
    <path fill="#666666" d="M54.909,15.152h-3.024v5.91c0,0.687,0.128,1.177,0.384,1.472c0.256,0.295,0.664,0.442,1.224,0.442
        c0.208,0,0.432-0.021,0.672-0.065c0.24-0.044,0.456-0.11,0.648-0.198l0.072,1.848c-0.272,0.096-0.572,0.172-0.9,0.229
        c-0.328,0.056-0.668,0.084-1.02,0.084c-1.072,0-1.892-0.296-2.46-0.889c-0.568-0.592-0.852-1.479-0.852-2.664v-6.168h-2.184
        v-1.848h2.184V10.04h2.232v3.264h3.024V15.152z"/>
    <path fill="#666666" d="M57.356,7.688h5.832c1.088,0,2.176,0.16,3.264,0.48c1.088,0.32,2.072,0.824,2.952,1.512
        s1.592,1.568,2.136,2.64c0.544,1.072,0.816,2.36,0.816,3.864c0,1.456-0.272,2.716-0.816,3.78s-1.256,1.943-2.136,2.64
        s-1.864,1.216-2.952,1.561c-1.088,0.344-2.176,0.516-3.264,0.516h-5.832V7.688z M59.732,22.593h2.976
        c1.024,0,1.972-0.145,2.844-0.432c0.872-0.288,1.624-0.704,2.256-1.248c0.632-0.544,1.124-1.216,1.476-2.017
        c0.352-0.8,0.528-1.704,0.528-2.712c0-1.056-0.176-1.983-0.528-2.784c-0.353-0.8-0.844-1.468-1.476-2.004
        c-0.632-0.536-1.384-0.944-2.256-1.224s-1.82-0.42-2.844-0.42h-2.976V22.593z"/>
    <path fill="#666666" d="M86.06,18.969c0,0.88-0.156,1.688-0.468,2.424c-0.312,0.736-0.744,1.372-1.296,1.908
        c-0.552,0.536-1.204,0.952-1.956,1.248c-0.752,0.296-1.56,0.443-2.424,0.443c-0.864,0-1.672-0.147-2.424-0.443
        c-0.752-0.296-1.4-0.712-1.944-1.248c-0.544-0.536-0.972-1.172-1.284-1.908c-0.312-0.735-0.468-1.544-0.468-2.424
        s0.156-1.684,0.468-2.412c0.312-0.728,0.74-1.356,1.284-1.884c0.543-0.528,1.191-0.939,1.944-1.236
        c0.752-0.296,1.56-0.444,2.424-0.444c0.864,0,1.672,0.148,2.424,0.444c0.752,0.297,1.404,0.708,1.956,1.236
        c0.552,0.527,0.984,1.156,1.296,1.884C85.904,17.285,86.06,18.089,86.06,18.969z M83.708,18.98c0-0.542-0.084-1.061-0.252-1.556
        c-0.169-0.494-0.414-0.929-0.734-1.304s-0.718-0.674-1.192-0.897s-1.015-0.335-1.625-0.335c-0.61,0-1.152,0.111-1.625,0.335
        c-0.474,0.224-0.871,0.522-1.191,0.897c-0.321,0.375-0.566,0.81-0.734,1.304C76.184,17.92,76.1,18.438,76.1,18.98
        c0,0.543,0.084,1.062,0.253,1.556c0.168,0.495,0.413,0.934,0.734,1.316c0.321,0.383,0.718,0.686,1.191,0.909
        c0.473,0.224,1.015,0.335,1.625,0.335c0.61,0,1.151-0.111,1.625-0.335s0.871-0.526,1.192-0.909s0.565-0.821,0.734-1.316
        C83.624,20.042,83.708,19.523,83.708,18.98z"/>
    <path fill="#666666" d="M96.428,16.184c-0.24-0.368-0.6-0.676-1.08-0.924s-0.992-0.372-1.536-0.372
        c-0.592,0-1.116,0.112-1.572,0.336c-0.456,0.225-0.844,0.524-1.164,0.9c-0.32,0.376-0.564,0.812-0.732,1.308
        s-0.252,1.017-0.252,1.56c0,0.545,0.084,1.064,0.252,1.561s0.412,0.933,0.732,1.308c0.32,0.376,0.712,0.677,1.176,0.9
        c0.464,0.225,0.992,0.336,1.584,0.336c0.576,0,1.1-0.111,1.572-0.336c0.472-0.224,0.86-0.528,1.164-0.912l1.512,1.368
        c-0.48,0.561-1.08,0.996-1.8,1.308c-0.72,0.312-1.536,0.468-2.448,0.468c-0.88,0-1.692-0.144-2.436-0.432
        c-0.744-0.288-1.388-0.691-1.932-1.212c-0.544-0.52-0.972-1.147-1.284-1.884s-0.468-1.561-0.468-2.473
        c0-0.896,0.152-1.711,0.456-2.447c0.304-0.736,0.728-1.368,1.272-1.896c0.543-0.527,1.188-0.936,1.932-1.224
        c0.744-0.288,1.548-0.433,2.412-0.433c0.8,0,1.596,0.16,2.388,0.48s1.419,0.784,1.884,1.392L96.428,16.184z"/>
    <path fill="#666666" d="M103.1,23.24c0,0.417-0.152,0.784-0.456,1.104c-0.304,0.32-0.688,0.479-1.152,0.479
        c-0.448,0-0.828-0.155-1.14-0.468c-0.312-0.312-0.468-0.676-0.468-1.092c0-0.432,0.152-0.804,0.456-1.116
        c0.304-0.312,0.688-0.468,1.152-0.468c0.464,0,0.848,0.152,1.152,0.456C102.947,22.44,103.1,22.808,103.1,23.24z"/>
    <path fill="#666666" d="M116.635,18.969c0,0.88-0.156,1.688-0.468,2.424c-0.312,0.736-0.744,1.372-1.296,1.908
        c-0.552,0.536-1.204,0.952-1.956,1.248c-0.752,0.296-1.56,0.443-2.424,0.443c-0.864,0-1.672-0.147-2.424-0.443
        c-0.752-0.296-1.4-0.712-1.944-1.248c-0.544-0.536-0.972-1.172-1.284-1.908c-0.312-0.735-0.468-1.544-0.468-2.424
        s0.156-1.684,0.468-2.412c0.312-0.728,0.74-1.356,1.284-1.884c0.543-0.528,1.191-0.939,1.944-1.236
        c0.752-0.296,1.56-0.444,2.424-0.444c0.864,0,1.672,0.148,2.424,0.444c0.752,0.297,1.404,0.708,1.956,1.236
        c0.552,0.527,0.984,1.156,1.296,1.884C116.479,17.285,116.635,18.089,116.635,18.969z M114.283,18.98
        c0-0.542-0.084-1.061-0.252-1.556c-0.169-0.494-0.414-0.929-0.734-1.304s-0.718-0.674-1.192-0.897s-1.015-0.335-1.625-0.335
        c-0.61,0-1.152,0.111-1.625,0.335c-0.474,0.224-0.871,0.522-1.191,0.897c-0.321,0.375-0.566,0.81-0.734,1.304
        c-0.169,0.495-0.253,1.014-0.253,1.556c0,0.543,0.084,1.062,0.253,1.556c0.168,0.495,0.413,0.934,0.734,1.316
        c0.321,0.383,0.718,0.686,1.191,0.909c0.473,0.224,1.015,0.335,1.625,0.335c0.61,0,1.151-0.111,1.625-0.335
        s0.871-0.526,1.192-0.909s0.565-0.821,0.734-1.316C114.199,20.042,114.283,19.523,114.283,18.98z"/>
    <path fill="#666666" d="M119.251,14.577c-0.016-0.48-0.04-0.904-0.072-1.272h2.136c0.032,0.288,0.056,0.62,0.072,0.996
        c0.016,0.376,0.024,0.684,0.024,0.924h0.072c0.32-0.672,0.788-1.212,1.404-1.62c0.616-0.408,1.308-0.612,2.076-0.612
        c0.352,0,0.648,0.033,0.888,0.097l-0.096,2.088c-0.32-0.08-0.664-0.12-1.032-0.12c-0.544,0-1.016,0.101-1.416,0.3
        c-0.4,0.2-0.732,0.468-0.996,0.805c-0.264,0.336-0.46,0.724-0.588,1.163c-0.128,0.44-0.192,0.9-0.192,1.381v5.976h-2.256v-8.928
        C119.275,15.449,119.267,15.056,119.251,14.577z"/>
    <path fill="#666666" d="M128.419,26.625c0.496,0.56,1.116,1.008,1.86,1.344c0.744,0.336,1.508,0.504,2.292,0.504
        c0.752,0,1.384-0.108,1.896-0.324s0.924-0.512,1.236-0.888s0.536-0.82,0.672-1.332c0.136-0.513,0.204-1.064,0.204-1.656v-1.464
        h-0.048c-0.416,0.641-0.984,1.128-1.704,1.464c-0.72,0.336-1.488,0.504-2.304,0.504c-0.864,0-1.652-0.151-2.364-0.456
        c-0.712-0.304-1.316-0.72-1.812-1.248c-0.496-0.527-0.88-1.147-1.152-1.859s-0.408-1.477-0.408-2.292
        c0-0.816,0.136-1.584,0.408-2.305c0.272-0.72,0.656-1.348,1.152-1.884c0.496-0.535,1.096-0.96,1.8-1.271
        c0.704-0.312,1.488-0.469,2.352-0.469c0.816,0,1.596,0.177,2.34,0.528c0.744,0.353,1.332,0.888,1.764,1.608h0.048v-1.824h2.184
        v10.8c0,0.832-0.104,1.628-0.312,2.388c-0.208,0.76-0.56,1.433-1.056,2.017s-1.144,1.052-1.944,1.404
        c-0.8,0.352-1.792,0.527-2.976,0.527c-0.992,0-1.988-0.18-2.988-0.54c-1-0.359-1.86-0.868-2.58-1.523L128.419,26.625z
         M129.091,18.873c0,0.527,0.084,1.031,0.253,1.512c0.168,0.479,0.417,0.904,0.746,1.271c0.329,0.369,0.726,0.664,1.192,0.889
        c0.465,0.224,0.995,0.336,1.589,0.336c0.577,0,1.107-0.104,1.589-0.312c0.481-0.207,0.891-0.491,1.228-0.852
        s0.598-0.784,0.782-1.272c0.185-0.487,0.277-1.012,0.277-1.571c0-0.544-0.093-1.057-0.277-1.536
        c-0.185-0.48-0.449-0.904-0.794-1.272c-0.345-0.367-0.755-0.66-1.228-0.876c-0.474-0.216-1-0.324-1.577-0.324
        c-0.594,0-1.124,0.108-1.589,0.324c-0.466,0.216-0.863,0.504-1.192,0.864s-0.578,0.784-0.746,1.271
        C129.175,17.812,129.091,18.329,129.091,18.873z"/>
</g>
<g><a xlink:href="/" pointer-events="all" target="_top"><polygon fill="none" points="0,0 145,0 145,35 0,35 0,0"/></a></g>

</g>


<!-- BidirectionalIndexType -->
<g id="node1" class="node">
<g id="a_node1"><a xlink:href="/v2.1/protocol/BidirectionalIndexType/" target="_top">
<path fill="#999999" stroke="#999999" d="M919.725,-254C919.725,-254 804.275,-254 804.275,-254 800.608,-254 796.941,-250.333 796.941,-246.667 796.941,-246.667 796.941,-239.333 796.941,-239.333 796.941,-235.667 800.608,-232 804.275,-232 804.275,-232 919.725,-232 919.725,-232 923.392,-232 927.059,-235.667 927.059,-239.333 927.059,-239.333 927.059,-246.667 927.059,-246.667 927.059,-250.333 923.392,-254 919.725,-254"/>
<text text-anchor="middle" x="862" y="-239.4" font-family="Helvetica,sans-Serif" font-size="12.00" fill="white">BidirectionalIndexType</text>
</a>
</g>
</g>
<!-- RandomAccessIndexType -->
<g id="node15" class="node">
<g id="a_node15"><a xlink:href="/v2.1/protocol/RandomAccessIndexType/" target="_top">
<path fill="#999999" stroke="#999999" d="M1044.23,-196C1044.23,-196 909.775,-196 909.775,-196 906.108,-196 902.441,-192.333 902.441,-188.667 902.441,-188.667 902.441,-181.333 902.441,-181.333 902.441,-177.667 906.108,-174 909.775,-174 909.775,-174 1044.23,-174 1044.23,-174 1047.89,-174 1051.56,-177.667 1051.56,-181.333 1051.56,-181.333 1051.56,-188.667 1051.56,-188.667 1051.56,-192.333 1047.89,-196 1044.23,-196"/>
<text text-anchor="middle" x="977" y="-181.4" font-family="Helvetica,sans-Serif" font-size="12.00" fill="white">RandomAccessIndexType</text>
</a>
</g>
</g>
<!-- BidirectionalIndexType&#45;&gt;RandomAccessIndexType -->
<g id="edge36" class="edge">
<path fill="none" stroke="#cccccc" d="M882.56,-231.988C900.519,-223.243 926.815,-210.438 947.101,-200.559"/>
<polygon fill="#cccccc" stroke="#cccccc" points="948.772,-203.639 956.231,-196.114 945.708,-197.345 948.772,-203.639"/>
</g>
<!-- Bit -->
<g id="node2" class="node">
<g id="a_node2"><a xlink:href="/v2.1/type/Bit/" target="_top">
<polygon fill="#ee543d" stroke="#ee543d" points="1128,-22 1074,-22 1074,-0 1128,-0 1128,-22"/>
<text text-anchor="middle" x="1101" y="-7.4" font-family="Helvetica,sans-Serif" font-size="12.00" fill="white">Bit</text>
</a>
</g>
</g>
<!-- BitwiseOperationsType -->
<g id="node3" class="node">
<g id="a_node3"><a xlink:href="/v2.1/protocol/BitwiseOperationsType/" target="_top">
<path fill="#999999" stroke="#999999" d="M464.715,-254C464.715,-254 347.285,-254 347.285,-254 343.618,-254 339.952,-250.333 339.952,-246.667 339.952,-246.667 339.952,-239.333 339.952,-239.333 339.952,-235.667 343.618,-232 347.285,-232 347.285,-232 464.715,-232 464.715,-232 468.382,-232 472.048,-235.667 472.048,-239.333 472.048,-239.333 472.048,-246.667 472.048,-246.667 472.048,-250.333 468.382,-254 464.715,-254"/>
<text text-anchor="middle" x="406" y="-239.4" font-family="Helvetica,sans-Serif" font-size="12.00" fill="white">BitwiseOperationsType</text>
</a>
</g>
</g>
<!-- Int -->
<g id="node10" class="node">
<g id="a_node10"><a xlink:href="/v2.1/type/Int/" target="_top">
<polygon fill="#999999" stroke="#999999" points="442,-22 388,-22 388,-0 442,-0 442,-22"/>
<text text-anchor="middle" x="415" y="-7.4" font-family="Helvetica,sans-Serif" font-size="12.00" fill="white">Int</text>
</a>
</g>
</g>
<!-- BitwiseOperationsType&#45;&gt;Int -->
<g id="edge13" class="edge">
<path fill="none" stroke="#cccccc" d="M421.276,-231.747C444.37,-215.21 487.251,-180.198 504,-138 517.743,-103.376 502.345,-87.0291 479,-58 469.133,-45.7299 455.205,-35.1964 442.861,-27.3174"/>
<polygon fill="#cccccc" stroke="#cccccc" points="444.594,-24.2752 434.233,-22.0626 440.953,-30.2536 444.594,-24.2752"/>
</g>
<!-- _IntegerType -->
<g id="node21" class="node">
<g id="a_node21"><a xlink:href="/v2.1/protocol/_IntegerType/" target="_top">
<path fill="#999999" stroke="#999999" d="M415.708,-196C415.708,-196 350.292,-196 350.292,-196 346.626,-196 342.959,-192.333 342.959,-188.667 342.959,-188.667 342.959,-181.333 342.959,-181.333 342.959,-177.667 346.626,-174 350.292,-174 350.292,-174 415.708,-174 415.708,-174 419.374,-174 423.041,-177.667 423.041,-181.333 423.041,-181.333 423.041,-188.667 423.041,-188.667 423.041,-192.333 419.374,-196 415.708,-196"/>
<text text-anchor="middle" x="383" y="-181.4" font-family="Helvetica,sans-Serif" font-size="12.00" fill="white">_IntegerType</text>
</a>
</g>
</g>
<!-- BitwiseOperationsType&#45;&gt;_IntegerType -->
<g id="edge25" class="edge">
<path fill="none" stroke="#cccccc" d="M401.888,-231.988C398.884,-224.674 394.713,-214.519 391.055,-205.612"/>
<polygon fill="#cccccc" stroke="#cccccc" points="394.269,-204.224 387.232,-196.304 387.794,-206.884 394.269,-204.224"/>
</g>
<!-- CVarArgType -->
<g id="node4" class="node">
<g id="a_node4"><a xlink:href="/v2.1/protocol/CVarArgType/" target="_top">
<path fill="#999999" stroke="#999999" d="M160.029,-80C160.029,-80 93.9709,-80 93.9709,-80 90.3043,-80 86.6376,-76.3333 86.6376,-72.6667 86.6376,-72.6667 86.6376,-65.3333 86.6376,-65.3333 86.6376,-61.6667 90.3043,-58 93.9709,-58 93.9709,-58 160.029,-58 160.029,-58 163.696,-58 167.362,-61.6667 167.362,-65.3333 167.362,-65.3333 167.362,-72.6667 167.362,-72.6667 167.362,-76.3333 163.696,-80 160.029,-80"/>
<text text-anchor="middle" x="127" y="-65.4" font-family="Helvetica,sans-Serif" font-size="12.00" fill="white">CVarArgType</text>
</a>
</g>
</g>
<!-- CVarArgType&#45;&gt;Int -->
<g id="edge16" class="edge">
<path fill="none" stroke="#cccccc" d="M167.384,-59.9C170.637,-59.2546 173.873,-58.6149 177,-58 248.021,-44.0346 331.039,-28.0711 377.877,-19.098"/>
<polygon fill="#cccccc" stroke="#cccccc" points="378.699,-22.5042 387.862,-17.1859 377.382,-15.6291 378.699,-22.5042"/>
</g>
<!-- Comparable -->
<g id="node5" class="node">
<g id="a_node5"><a xlink:href="/v2.1/protocol/Comparable/" target="_top">
<path fill="#999999" stroke="#999999" d="M1045.19,-312C1045.19,-312 984.809,-312 984.809,-312 981.142,-312 977.475,-308.333 977.475,-304.667 977.475,-304.667 977.475,-297.333 977.475,-297.333 977.475,-293.667 981.142,-290 984.809,-290 984.809,-290 1045.19,-290 1045.19,-290 1048.86,-290 1052.52,-293.667 1052.52,-297.333 1052.52,-297.333 1052.52,-304.667 1052.52,-304.667 1052.52,-308.333 1048.86,-312 1045.19,-312"/>
<text text-anchor="middle" x="1015" y="-297.4" font-family="Helvetica,sans-Serif" font-size="12.00" fill="white">Comparable</text>
</a>
</g>
</g>
<!-- Comparable&#45;&gt;Bit -->
<g id="edge2" class="edge">
<path fill="none" stroke="#cccccc" d="M1052.52,-296.078C1105.37,-289.841 1198.08,-276.062 1223,-254 1247,-232.757 1247,-218.049 1247,-186 1247,-186 1247,-186 1247,-126 1247,-70.6563 1181.02,-38.2035 1137.77,-22.8756"/>
<polygon fill="#cccccc" stroke="#cccccc" points="1138.71,-19.4997 1128.12,-19.6027 1136.47,-26.1289 1138.71,-19.4997"/>
</g>
<!-- Comparable&#45;&gt;Int -->
<g id="edge7" class="edge">
<path fill="none" stroke="#cccccc" d="M1052.8,-298.967C1113.33,-295.804 1222.03,-283.062 1189,-232 1105.64,-103.117 595.068,-33.3931 452.147,-16.2316"/>
<polygon fill="#cccccc" stroke="#cccccc" points="452.464,-12.7446 442.121,-15.0418 451.639,-19.6958 452.464,-12.7446"/>
</g>
<!-- IntegerArithmeticType -->
<g id="node11" class="node">
<g id="a_node11"><a xlink:href="/v2.1/protocol/IntegerArithmeticType/" target="_top">
<path fill="#999999" stroke="#999999" d="M770.711,-254C770.711,-254 659.289,-254 659.289,-254 655.623,-254 651.956,-250.333 651.956,-246.667 651.956,-246.667 651.956,-239.333 651.956,-239.333 651.956,-235.667 655.623,-232 659.289,-232 659.289,-232 770.711,-232 770.711,-232 774.377,-232 778.044,-235.667 778.044,-239.333 778.044,-239.333 778.044,-246.667 778.044,-246.667 778.044,-250.333 774.377,-254 770.711,-254"/>
<text text-anchor="middle" x="715" y="-239.4" font-family="Helvetica,sans-Serif" font-size="12.00" fill="white">IntegerArithmeticType</text>
</a>
</g>
</g>
<!-- Comparable&#45;&gt;IntegerArithmeticType -->
<g id="edge29" class="edge">
<path fill="none" stroke="#cccccc" d="M977.565,-291.93C974.333,-291.265 971.11,-290.613 968,-290 905.38,-277.648 833.795,-264.746 782.788,-255.76"/>
<polygon fill="#cccccc" stroke="#cccccc" points="783.325,-252.301 772.87,-254.017 782.113,-259.195 783.325,-252.301"/>
</g>
<!-- SignedNumberType -->
<g id="node17" class="node">
<g id="a_node17"><a xlink:href="/v2.1/protocol/SignedNumberType/" target="_top">
<path fill="#999999" stroke="#999999" d="M295.716,-196C295.716,-196 194.284,-196 194.284,-196 190.617,-196 186.95,-192.333 186.95,-188.667 186.95,-188.667 186.95,-181.333 186.95,-181.333 186.95,-177.667 190.617,-174 194.284,-174 194.284,-174 295.716,-174 295.716,-174 299.383,-174 303.05,-177.667 303.05,-181.333 303.05,-181.333 303.05,-188.667 303.05,-188.667 303.05,-192.333 299.383,-196 295.716,-196"/>
<text text-anchor="middle" x="245" y="-181.4" font-family="Helvetica,sans-Serif" font-size="12.00" fill="white">SignedNumberType</text>
</a>
</g>
</g>
<!-- Comparable&#45;&gt;SignedNumberType -->
<g id="edge32" class="edge">
<path fill="none" stroke="#cccccc" d="M977.641,-291.465C974.392,-290.901 971.145,-290.4 968,-290 922.049,-284.16 167.039,-287.454 135,-254 111.737,-229.709 153.367,-210.562 191.908,-198.856"/>
<polygon fill="#cccccc" stroke="#cccccc" points="192.972,-202.192 201.599,-196.042 191.02,-195.47 192.972,-202.192"/>
</g>
<!-- Strideable -->
<g id="node18" class="node">
<g id="a_node18"><a xlink:href="/v2.1/protocol/Strideable/" target="_top">
<path fill="#999999" stroke="#999999" d="M1001.69,-254C1001.69,-254 952.307,-254 952.307,-254 948.64,-254 944.974,-250.333 944.974,-246.667 944.974,-246.667 944.974,-239.333 944.974,-239.333 944.974,-235.667 948.64,-232 952.307,-232 952.307,-232 1001.69,-232 1001.69,-232 1005.36,-232 1009.03,-235.667 1009.03,-239.333 1009.03,-239.333 1009.03,-246.667 1009.03,-246.667 1009.03,-250.333 1005.36,-254 1001.69,-254"/>
<text text-anchor="middle" x="977" y="-239.4" font-family="Helvetica,sans-Serif" font-size="12.00" fill="white">Strideable</text>
</a>
</g>
</g>
<!-- Comparable&#45;&gt;Strideable -->
<g id="edge41" class="edge">
<path fill="none" stroke="#cccccc" d="M1008.21,-289.988C1003.08,-282.438 995.906,-271.861 989.726,-262.754"/>
<polygon fill="#cccccc" stroke="#cccccc" points="992.503,-260.613 983.992,-254.304 986.711,-264.544 992.503,-260.613"/>
</g>
<!-- CustomStringConvertible -->
<g id="node6" class="node">
<g id="a_node6"><a xlink:href="/v2.1/protocol/CustomStringConvertible/" target="_top">
<path fill="#999999" stroke="#999999" d="M626.208,-254C626.208,-254 497.792,-254 497.792,-254 494.126,-254 490.459,-250.333 490.459,-246.667 490.459,-246.667 490.459,-239.333 490.459,-239.333 490.459,-235.667 494.126,-232 497.792,-232 497.792,-232 626.208,-232 626.208,-232 629.874,-232 633.541,-235.667 633.541,-239.333 633.541,-239.333 633.541,-246.667 633.541,-246.667 633.541,-250.333 629.874,-254 626.208,-254"/>
<text text-anchor="middle" x="562" y="-239.4" font-family="Helvetica,sans-Serif" font-size="12.00" fill="white">CustomStringConvertible</text>
</a>
</g>
</g>
<!-- CustomStringConvertible&#45;&gt;Int -->
<g id="edge11" class="edge">
<path fill="none" stroke="#cccccc" d="M561.326,-231.967C558.826,-202.053 547.699,-112.201 502,-58 488.805,-42.3498 468.904,-31.2729 451.465,-23.9165"/>
<polygon fill="#cccccc" stroke="#cccccc" points="452.674,-20.6311 442.088,-20.207 450.099,-27.1403 452.674,-20.6311"/>
</g>
<!-- CustomStringConvertible&#45;&gt;_IntegerType -->
<g id="edge22" class="edge">
<path fill="none" stroke="#cccccc" d="M529.998,-231.988C500.563,-222.779 456.737,-209.068 424.596,-199.013"/>
<polygon fill="#cccccc" stroke="#cccccc" points="425.615,-195.665 415.026,-196.019 423.525,-202.345 425.615,-195.665"/>
</g>
<!-- Equatable -->
<g id="node7" class="node">
<g id="a_node7"><a xlink:href="/v2.1/protocol/Equatable/" target="_top">
<path fill="#999999" stroke="#999999" d="M254.702,-428C254.702,-428 205.298,-428 205.298,-428 201.632,-428 197.965,-424.333 197.965,-420.667 197.965,-420.667 197.965,-413.333 197.965,-413.333 197.965,-409.667 201.632,-406 205.298,-406 205.298,-406 254.702,-406 254.702,-406 258.368,-406 262.035,-409.667 262.035,-413.333 262.035,-413.333 262.035,-420.667 262.035,-420.667 262.035,-424.333 258.368,-428 254.702,-428"/>
<text text-anchor="middle" x="230" y="-413.4" font-family="Helvetica,sans-Serif" font-size="12.00" fill="white">Equatable</text>
</a>
</g>
</g>
<!-- Equatable&#45;&gt;Comparable -->
<g id="edge30" class="edge">
<path fill="none" stroke="#cccccc" d="M262.135,-412.283C363.943,-400.336 688.55,-360.93 967.681,-311.951"/>
<polygon fill="#cccccc" stroke="#cccccc" points="968.35,-315.387 977.591,-310.205 967.135,-308.494 968.35,-315.387"/>
</g>
<!-- Hashable -->
<g id="node9" class="node">
<g id="a_node9"><a xlink:href="/v2.1/protocol/Hashable/" target="_top">
<path fill="#999999" stroke="#999999" d="M80.6941,-254C80.6941,-254 35.3059,-254 35.3059,-254 31.6392,-254 27.9725,-250.333 27.9725,-246.667 27.9725,-246.667 27.9725,-239.333 27.9725,-239.333 27.9725,-235.667 31.6392,-232 35.3059,-232 35.3059,-232 80.6941,-232 80.6941,-232 84.3608,-232 88.0275,-235.667 88.0275,-239.333 88.0275,-239.333 88.0275,-246.667 88.0275,-246.667 88.0275,-250.333 84.3608,-254 80.6941,-254"/>
<text text-anchor="middle" x="58" y="-239.4" font-family="Helvetica,sans-Serif" font-size="12.00" fill="white">Hashable</text>
</a>
</g>
</g>
<!-- Equatable&#45;&gt;Hashable -->
<g id="edge27" class="edge">
<path fill="none" stroke="#cccccc" d="M219.756,-405.756C191.382,-377.382 111.515,-297.515 75.7296,-261.73"/>
<polygon fill="#cccccc" stroke="#cccccc" points="77.9541,-259.004 68.4081,-254.408 73.0043,-263.954 77.9541,-259.004"/>
</g>
<!-- Equatable&#45;&gt;Int -->
<g id="edge8" class="edge">
<path fill="none" stroke="#cccccc" d="M197.534,-414.507C134.135,-409.665 0,-389.127 0,-302 0,-302 0,-302 0,-126 0,-86.2775 23.0714,-76.9174 58,-58 112.627,-28.4143 297.74,-17.0375 377.704,-13.4314"/>
<polygon fill="#cccccc" stroke="#cccccc" points="377.979,-16.9229 387.818,-12.9917 377.675,-9.92946 377.979,-16.9229"/>
</g>
<!-- _Incrementable -->
<g id="node19" class="node">
<g id="a_node19"><a xlink:href="/v2.1/protocol/_Incrementable/" target="_top">
<path fill="#999999" stroke="#999999" d="M350.705,-370C350.705,-370 273.295,-370 273.295,-370 269.628,-370 265.961,-366.333 265.961,-362.667 265.961,-362.667 265.961,-355.333 265.961,-355.333 265.961,-351.667 269.628,-348 273.295,-348 273.295,-348 350.705,-348 350.705,-348 354.372,-348 358.039,-351.667 358.039,-355.333 358.039,-355.333 358.039,-362.667 358.039,-362.667 358.039,-366.333 354.372,-370 350.705,-370"/>
<text text-anchor="middle" x="312" y="-355.4" font-family="Helvetica,sans-Serif" font-size="12.00" fill="white">_Incrementable</text>
</a>
</g>
</g>
<!-- Equatable&#45;&gt;_Incrementable -->
<g id="edge31" class="edge">
<path fill="none" stroke="#cccccc" d="M244.66,-405.988C256.944,-397.599 274.698,-385.474 288.893,-375.78"/>
<polygon fill="#cccccc" stroke="#cccccc" points="290.906,-378.644 297.19,-370.114 286.959,-372.863 290.906,-378.644"/>
</g>
<!-- ForwardIndexType -->
<g id="node8" class="node">
<g id="a_node8"><a xlink:href="/v2.1/protocol/ForwardIndexType/" target="_top">
<path fill="#999999" stroke="#999999" d="M863.206,-312C863.206,-312 768.794,-312 768.794,-312 765.127,-312 761.461,-308.333 761.461,-304.667 761.461,-304.667 761.461,-297.333 761.461,-297.333 761.461,-293.667 765.127,-290 768.794,-290 768.794,-290 863.206,-290 863.206,-290 866.873,-290 870.539,-293.667 870.539,-297.333 870.539,-297.333 870.539,-304.667 870.539,-304.667 870.539,-308.333 866.873,-312 863.206,-312"/>
<text text-anchor="middle" x="816" y="-297.4" font-family="Helvetica,sans-Serif" font-size="12.00" fill="white">ForwardIndexType</text>
</a>
</g>
</g>
<!-- ForwardIndexType&#45;&gt;BidirectionalIndexType -->
<g id="edge39" class="edge">
<path fill="none" stroke="#cccccc" d="M824.224,-289.988C830.555,-282.281 839.477,-271.419 847.061,-262.187"/>
<polygon fill="#cccccc" stroke="#cccccc" points="849.893,-264.253 853.536,-254.304 844.484,-259.81 849.893,-264.253"/>
</g>
<!-- Hashable&#45;&gt;Int -->
<g id="edge10" class="edge">
<path fill="none" stroke="#cccccc" d="M55.2941,-231.897C47.6913,-201 29.6439,-106.914 77,-58 117.901,-15.7531 298.735,-11.3696 377.792,-11.5284"/>
<polygon fill="#cccccc" stroke="#cccccc" points="377.788,-15.0284 387.804,-11.5743 377.82,-8.02843 377.788,-15.0284"/>
</g>
<!-- Hashable&#45;&gt;_IntegerType -->
<g id="edge23" class="edge">
<path fill="none" stroke="#cccccc" d="M88.2834,-236.782C144.266,-227.136 264.453,-206.427 332.792,-194.651"/>
<polygon fill="#cccccc" stroke="#cccccc" points="333.63,-198.058 342.891,-192.911 332.441,-191.16 333.63,-198.058"/>
</g>
<!-- Int&#45;&gt;Bit -->
<g id="edge1" class="edge">
<path fill="none" stroke="#cccccc" d="M442.132,-11C649.353,-11 856.574,-11 1063.8,-11"/>
<polygon fill="#cccccc" stroke="#cccccc" points="1063.98,-14.5001 1073.98,-11 1063.98,-7.5001 1063.98,-14.5001"/>
</g>
<!-- IntegerArithmeticType&#45;&gt;Bit -->
<g id="edge5" class="edge">
<path fill="none" stroke="#cccccc" d="M742.021,-231.925C814.697,-204.446 1012.28,-127.107 1063,-80 1077.35,-66.6701 1087.63,-46.6557 1093.85,-31.7882"/>
<polygon fill="#cccccc" stroke="#cccccc" points="1097.28,-32.6291 1097.66,-22.0411 1090.76,-30.0804 1097.28,-32.6291"/>
</g>
<!-- IntegerArithmeticType&#45;&gt;_IntegerType -->
<g id="edge24" class="edge">
<path fill="none" stroke="#cccccc" d="M655.645,-231.988C592.172,-221.282 492.625,-204.491 433,-194.434"/>
<polygon fill="#cccccc" stroke="#cccccc" points="433.51,-190.97 423.068,-192.758 432.346,-197.873 433.51,-190.97"/>
</g>
<!-- IntegerLiteralConvertible -->
<g id="node12" class="node">
<g id="a_node12"><a xlink:href="/v2.1/protocol/IntegerLiteralConvertible/" target="_top">
<path fill="#999999" stroke="#999999" d="M276.722,-254C276.722,-254 151.278,-254 151.278,-254 147.611,-254 143.944,-250.333 143.944,-246.667 143.944,-246.667 143.944,-239.333 143.944,-239.333 143.944,-235.667 147.611,-232 151.278,-232 151.278,-232 276.722,-232 276.722,-232 280.389,-232 284.056,-235.667 284.056,-239.333 284.056,-239.333 284.056,-246.667 284.056,-246.667 284.056,-250.333 280.389,-254 276.722,-254"/>
<text text-anchor="middle" x="214" y="-239.4" font-family="Helvetica,sans-Serif" font-size="12.00" fill="white">IntegerLiteralConvertible</text>
</a>
</g>
</g>
<!-- IntegerLiteralConvertible&#45;&gt;SignedNumberType -->
<g id="edge33" class="edge">
<path fill="none" stroke="#cccccc" d="M219.542,-231.988C223.635,-224.595 229.334,-214.301 234.302,-205.325"/>
<polygon fill="#cccccc" stroke="#cccccc" points="237.515,-206.748 239.296,-196.304 231.391,-203.358 237.515,-206.748"/>
</g>
<!-- IntegerLiteralConvertible&#45;&gt;_IntegerType -->
<g id="edge21" class="edge">
<path fill="none" stroke="#cccccc" d="M244.214,-231.988C271.766,-222.859 312.67,-209.305 342.94,-199.274"/>
<polygon fill="#cccccc" stroke="#cccccc" points="344.372,-202.487 352.763,-196.019 342.17,-195.842 344.372,-202.487"/>
</g>
<!-- IntegerType -->
<g id="node13" class="node">
<g id="a_node13"><a xlink:href="/v2.1/protocol/IntegerType/" target="_top">
<path fill="#999999" stroke="#999999" d="M488.202,-138C488.202,-138 429.798,-138 429.798,-138 426.132,-138 422.465,-134.333 422.465,-130.667 422.465,-130.667 422.465,-123.333 422.465,-123.333 422.465,-119.667 426.132,-116 429.798,-116 429.798,-116 488.202,-116 488.202,-116 491.868,-116 495.535,-119.667 495.535,-123.333 495.535,-123.333 495.535,-130.667 495.535,-130.667 495.535,-134.333 491.868,-138 488.202,-138"/>
<text text-anchor="middle" x="459" y="-123.4" font-family="Helvetica,sans-Serif" font-size="12.00" fill="white">IntegerType</text>
</a>
</g>
</g>
<!-- SignedIntegerType -->
<g id="node16" class="node">
<g id="a_node16"><a xlink:href="/v2.1/protocol/SignedIntegerType/" target="_top">
<path fill="#999999" stroke="#999999" d="M462.727,-80C462.727,-80 367.273,-80 367.273,-80 363.606,-80 359.94,-76.3333 359.94,-72.6667 359.94,-72.6667 359.94,-65.3333 359.94,-65.3333 359.94,-61.6667 363.606,-58 367.273,-58 367.273,-58 462.727,-58 462.727,-58 466.394,-58 470.06,-61.6667 470.06,-65.3333 470.06,-65.3333 470.06,-72.6667 470.06,-72.6667 470.06,-76.3333 466.394,-80 462.727,-80"/>
<text text-anchor="middle" x="415" y="-65.4" font-family="Helvetica,sans-Serif" font-size="12.00" fill="white">SignedIntegerType</text>
</a>
</g>
</g>
<!-- IntegerType&#45;&gt;SignedIntegerType -->
<g id="edge18" class="edge">
<path fill="none" stroke="#cccccc" d="M451.134,-115.988C445.078,-108.281 436.544,-97.4191 429.29,-88.187"/>
<polygon fill="#cccccc" stroke="#cccccc" points="432.026,-86.0047 423.096,-80.3039 426.522,-90.3295 432.026,-86.0047"/>
</g>
<!-- MirrorPathType -->
<g id="node14" class="node">
<g id="a_node14"><a xlink:href="/v2.1/protocol/MirrorPathType/" target="_top">
<path fill="#999999" stroke="#999999" d="M270.69,-80C270.69,-80 193.31,-80 193.31,-80 189.643,-80 185.977,-76.3333 185.977,-72.6667 185.977,-72.6667 185.977,-65.3333 185.977,-65.3333 185.977,-61.6667 189.643,-58 193.31,-58 193.31,-58 270.69,-58 270.69,-58 274.357,-58 278.023,-61.6667 278.023,-65.3333 278.023,-65.3333 278.023,-72.6667 278.023,-72.6667 278.023,-76.3333 274.357,-80 270.69,-80"/>
<text text-anchor="middle" x="232" y="-65.4" font-family="Helvetica,sans-Serif" font-size="12.00" fill="white">MirrorPathType</text>
</a>
</g>
</g>
<!-- MirrorPathType&#45;&gt;Int -->
<g id="edge15" class="edge">
<path fill="none" stroke="#cccccc" d="M264.717,-57.9883C296.581,-48.2376 344.938,-33.4399 378.143,-23.2786"/>
<polygon fill="#cccccc" stroke="#cccccc" points="379.389,-26.5577 387.927,-20.2846 377.34,-19.8641 379.389,-26.5577"/>
</g>
<!-- RandomAccessIndexType&#45;&gt;Bit -->
<g id="edge3" class="edge">
<path fill="none" stroke="#cccccc" d="M995.946,-173.893C1023.52,-158.024 1073.82,-124.434 1096,-80 1103.34,-65.2914 1104.19,-46.5297 1103.43,-32.4408"/>
<polygon fill="#cccccc" stroke="#cccccc" points="1106.9,-31.9776 1102.57,-22.3104 1099.93,-32.5712 1106.9,-31.9776"/>
</g>
<!-- RandomAccessIndexType&#45;&gt;Int -->
<g id="edge9" class="edge">
<path fill="none" stroke="#cccccc" d="M945.888,-173.919C878.592,-152.182 714.398,-99.5068 576,-58 533.664,-45.303 484.824,-31.4617 452.14,-22.3143"/>
<polygon fill="#cccccc" stroke="#cccccc" points="452.698,-18.8362 442.125,-19.5167 450.815,-25.5781 452.698,-18.8362"/>
</g>
<!-- RandomAccessIndexType&#45;&gt;IntegerType -->
<g id="edge35" class="edge">
<path fill="none" stroke="#cccccc" d="M902.508,-175.947C793.979,-164.214 595.552,-142.762 505.569,-133.035"/>
<polygon fill="#cccccc" stroke="#cccccc" points="505.722,-129.531 495.403,-131.936 504.969,-136.49 505.722,-129.531"/>
</g>
<!-- SignedIntegerType&#45;&gt;Int -->
<g id="edge6" class="edge">
<path fill="none" stroke="#cccccc" d="M415,-57.9883C415,-50.9098 415,-41.1714 415,-32.4779"/>
<polygon fill="#cccccc" stroke="#cccccc" points="418.5,-32.3038 415,-22.3039 411.5,-32.3039 418.5,-32.3038"/>
</g>
<!-- SignedNumberType&#45;&gt;Int -->
<g id="edge12" class="edge">
<path fill="none" stroke="#cccccc" d="M248.256,-173.985C253.145,-159.982 263.393,-134.227 278,-116 308.971,-77.3554 357.31,-45.1341 387.517,-27.2321"/>
<polygon fill="#cccccc" stroke="#cccccc" points="389.383,-30.1959 396.27,-22.1448 385.865,-24.1438 389.383,-30.1959"/>
</g>
<!-- _SignedIntegerType -->
<g id="node24" class="node">
<g id="a_node24"><a xlink:href="/v2.1/protocol/_SignedIntegerType/" target="_top">
<path fill="#999999" stroke="#999999" d="M397.231,-138C397.231,-138 294.769,-138 294.769,-138 291.102,-138 287.436,-134.333 287.436,-130.667 287.436,-130.667 287.436,-123.333 287.436,-123.333 287.436,-119.667 291.102,-116 294.769,-116 294.769,-116 397.231,-116 397.231,-116 400.898,-116 404.564,-119.667 404.564,-123.333 404.564,-123.333 404.564,-130.667 404.564,-130.667 404.564,-134.333 400.898,-138 397.231,-138"/>
<text text-anchor="middle" x="346" y="-123.4" font-family="Helvetica,sans-Serif" font-size="12.00" fill="white">_SignedIntegerType</text>
</a>
</g>
</g>
<!-- SignedNumberType&#45;&gt;_SignedIntegerType -->
<g id="edge20" class="edge">
<path fill="none" stroke="#cccccc" d="M263.057,-173.988C278.615,-165.362 301.298,-152.785 319.013,-142.963"/>
<polygon fill="#cccccc" stroke="#cccccc" points="320.711,-146.024 327.759,-138.114 317.316,-139.902 320.711,-146.024"/>
</g>
<!-- Strideable&#45;&gt;RandomAccessIndexType -->
<g id="edge37" class="edge">
<path fill="none" stroke="#cccccc" d="M977,-231.988C977,-224.91 977,-215.171 977,-206.478"/>
<polygon fill="#cccccc" stroke="#cccccc" points="980.5,-206.304 977,-196.304 973.5,-206.304 980.5,-206.304"/>
</g>
<!-- _Incrementable&#45;&gt;ForwardIndexType -->
<g id="edge40" class="edge">
<path fill="none" stroke="#cccccc" d="M358.335,-353.937C436.835,-346.883 601.217,-331.376 751.242,-312.038"/>
<polygon fill="#cccccc" stroke="#cccccc" points="752.093,-315.457 761.56,-310.699 751.192,-308.515 752.093,-315.457"/>
</g>
<!-- _Incrementable&#45;&gt;_IntegerType -->
<g id="edge26" class="edge">
<path fill="none" stroke="#cccccc" d="M311.278,-347.794C310.153,-325.359 309.967,-270.674 331,-232 337.433,-220.171 348.155,-209.905 358.197,-202.092"/>
<polygon fill="#cccccc" stroke="#cccccc" points="360.354,-204.851 366.363,-196.125 356.224,-199.199 360.354,-204.851"/>
</g>
<!-- _IntegerArithmeticType -->
<g id="node20" class="node">
<g id="a_node20"><a xlink:href="/v2.1/protocol/_IntegerArithmeticType/" target="_top">
<path fill="#999999" stroke="#999999" d="M736.215,-312C736.215,-312 617.785,-312 617.785,-312 614.118,-312 610.452,-308.333 610.452,-304.667 610.452,-304.667 610.452,-297.333 610.452,-297.333 610.452,-293.667 614.118,-290 617.785,-290 617.785,-290 736.215,-290 736.215,-290 739.882,-290 743.548,-293.667 743.548,-297.333 743.548,-297.333 743.548,-304.667 743.548,-304.667 743.548,-308.333 739.882,-312 736.215,-312"/>
<text text-anchor="middle" x="677" y="-297.4" font-family="Helvetica,sans-Serif" font-size="12.00" fill="white">_IntegerArithmeticType</text>
</a>
</g>
</g>
<!-- _IntegerArithmeticType&#45;&gt;IntegerArithmeticType -->
<g id="edge28" class="edge">
<path fill="none" stroke="#cccccc" d="M683.794,-289.988C688.917,-282.438 696.094,-271.861 702.274,-262.754"/>
<polygon fill="#cccccc" stroke="#cccccc" points="705.289,-264.544 708.008,-254.304 699.497,-260.613 705.289,-264.544"/>
</g>
<!-- _IntegerType&#45;&gt;IntegerType -->
<g id="edge34" class="edge">
<path fill="none" stroke="#cccccc" d="M396.587,-173.988C407.865,-165.678 424.118,-153.703 437.211,-144.055"/>
<polygon fill="#cccccc" stroke="#cccccc" points="439.3,-146.864 445.274,-138.114 435.147,-141.228 439.3,-146.864"/>
</g>
<!-- _IntegerType&#45;&gt;_SignedIntegerType -->
<g id="edge19" class="edge">
<path fill="none" stroke="#cccccc" d="M376.385,-173.988C371.396,-166.438 364.408,-155.861 358.391,-146.754"/>
<polygon fill="#cccccc" stroke="#cccccc" points="361.241,-144.718 352.808,-138.304 355.4,-148.577 361.241,-144.718"/>
</g>
<!-- _RandomAccessAmbiguity -->
<g id="node22" class="node">
<g id="a_node22"><a xlink:href="/v2.1/protocol/_RandomAccessAmbiguity/" target="_top">
<path fill="#999999" stroke="#999999" d="M1173.21,-254C1173.21,-254 1034.79,-254 1034.79,-254 1031.12,-254 1027.45,-250.333 1027.45,-246.667 1027.45,-246.667 1027.45,-239.333 1027.45,-239.333 1027.45,-235.667 1031.12,-232 1034.79,-232 1034.79,-232 1173.21,-232 1173.21,-232 1176.88,-232 1180.55,-235.667 1180.55,-239.333 1180.55,-239.333 1180.55,-246.667 1180.55,-246.667 1180.55,-250.333 1176.88,-254 1173.21,-254"/>
<text text-anchor="middle" x="1104" y="-239.4" font-family="Helvetica,sans-Serif" font-size="12.00" fill="white">_RandomAccessAmbiguity</text>
</a>
</g>
</g>
<!-- _RandomAccessAmbiguity&#45;&gt;RandomAccessIndexType -->
<g id="edge38" class="edge">
<path fill="none" stroke="#cccccc" d="M1081.29,-231.988C1061.19,-223.124 1031.63,-210.09 1009.11,-200.159"/>
<polygon fill="#cccccc" stroke="#cccccc" points="1010.5,-196.946 999.937,-196.114 1007.67,-203.351 1010.5,-196.946"/>
</g>
<!-- _Reflectable -->
<g id="node23" class="node">
<g id="a_node23"><a xlink:href="/v2.1/protocol/_Reflectable/" target="_top">
<path fill="#999999" stroke="#999999" d="M1046.7,-80C1046.7,-80 985.3,-80 985.3,-80 981.634,-80 977.967,-76.3333 977.967,-72.6667 977.967,-72.6667 977.967,-65.3333 977.967,-65.3333 977.967,-61.6667 981.634,-58 985.3,-58 985.3,-58 1046.7,-58 1046.7,-58 1050.37,-58 1054.03,-61.6667 1054.03,-65.3333 1054.03,-65.3333 1054.03,-72.6667 1054.03,-72.6667 1054.03,-76.3333 1050.37,-80 1046.7,-80"/>
<text text-anchor="middle" x="1016" y="-65.4" font-family="Helvetica,sans-Serif" font-size="12.00" fill="white">_Reflectable</text>
</a>
</g>
</g>
<!-- _Reflectable&#45;&gt;Bit -->
<g id="edge4" class="edge">
<path fill="none" stroke="#cccccc" d="M1031.2,-57.9883C1043.93,-49.5993 1062.33,-37.4743 1077.05,-27.7804"/>
<polygon fill="#cccccc" stroke="#cccccc" points="1079.22,-30.5382 1085.65,-22.1138 1075.37,-24.6927 1079.22,-30.5382"/>
</g>
<!-- _Reflectable&#45;&gt;Int -->
<g id="edge14" class="edge">
<path fill="none" stroke="#cccccc" d="M977.739,-60.1637C973.122,-59.3598 968.463,-58.6143 964,-58 772.564,-31.6487 541.35,-18.2397 452.379,-13.7575"/>
<polygon fill="#cccccc" stroke="#cccccc" points="452.408,-10.2547 442.247,-13.2549 452.061,-17.2461 452.408,-10.2547"/>
</g>
<!-- _SignedIntegerType&#45;&gt;SignedIntegerType -->
<g id="edge17" class="edge">
<path fill="none" stroke="#cccccc" d="M358.336,-115.988C368.317,-107.887 382.591,-96.3026 394.316,-86.7873"/>
<polygon fill="#cccccc" stroke="#cccccc" points="396.745,-89.3232 402.304,-80.3039 392.334,-83.888 396.745,-89.3232"/>
</g>
<!-- _Strideable -->
<g id="node25" class="node">
<g id="a_node25"><a xlink:href="/v2.1/protocol/_Strideable/" target="_top">
<path fill="#999999" stroke="#999999" d="M951.7,-312C951.7,-312 896.3,-312 896.3,-312 892.634,-312 888.967,-308.333 888.967,-304.667 888.967,-304.667 888.967,-297.333 888.967,-297.333 888.967,-293.667 892.634,-290 896.3,-290 896.3,-290 951.7,-290 951.7,-290 955.366,-290 959.033,-293.667 959.033,-297.333 959.033,-297.333 959.033,-304.667 959.033,-304.667 959.033,-308.333 955.366,-312 951.7,-312"/>
<text text-anchor="middle" x="924" y="-297.4" font-family="Helvetica,sans-Serif" font-size="12.00" fill="white">_Strideable</text>
</a>
</g>
</g>
<!-- _Strideable&#45;&gt;Strideable -->
<g id="edge42" class="edge">
<path fill="none" stroke="#cccccc" d="M933.475,-289.988C940.919,-282.123 951.471,-270.974 960.32,-261.624"/>
<polygon fill="#cccccc" stroke="#cccccc" points="962.916,-263.973 967.248,-254.304 957.832,-259.161 962.916,-263.973"/>
</g>
</g>
</svg>
