<?xml version="1.0" encoding="UTF-8" standalone="no"?>
<!DOCTYPE svg PUBLIC "-//W3C//DTD SVG 1.1//EN"
 "http://www.w3.org/Graphics/SVG/1.1/DTD/svg11.dtd">
<!-- Generated by graphviz version 2.36.0 (20140111.2315)
 -->
<!-- Title: Hashable &#45; Type Hierarchy &#45; SwiftDoc.org Pages: 1 -->
<svg width="1883pt" height="427pt"
 viewBox="0.00 0.00 1883.40 427.20" xmlns="http://www.w3.org/2000/svg" xmlns:xlink="http://www.w3.org/1999/xlink">
<g id="graph0" class="graph" transform="scale(1 1) rotate(0) translate(7.2 369.6)">
<g transform="translate(0 -369.6)">
<g>
    <path fill="#666666" d="M13.846,10.832c-0.336-0.464-0.792-0.844-1.368-1.14s-1.224-0.444-1.944-0.444
        c-0.384,0-0.772,0.052-1.164,0.156C8.977,9.509,8.622,9.677,8.301,9.908c-0.32,0.232-0.58,0.52-0.78,0.864
        c-0.2,0.344-0.3,0.756-0.3,1.236c0,0.464,0.092,0.852,0.276,1.164c0.184,0.312,0.432,0.576,0.744,0.792s0.68,0.4,1.104,0.552
        c0.423,0.152,0.876,0.309,1.356,0.468c0.576,0.177,1.16,0.376,1.752,0.601c0.592,0.224,1.128,0.52,1.608,0.888
        s0.872,0.828,1.176,1.38s0.456,1.252,0.456,2.101c0,0.88-0.164,1.644-0.492,2.292c-0.328,0.647-0.765,1.184-1.308,1.607
        c-0.544,0.424-1.172,0.74-1.884,0.948s-1.444,0.312-2.196,0.312c-1.072,0-2.108-0.208-3.108-0.624
        c-1-0.415-1.828-1.031-2.484-1.848l1.848-1.56c0.4,0.592,0.936,1.071,1.608,1.439c0.672,0.368,1.399,0.552,2.184,0.552
        c0.4,0,0.8-0.056,1.2-0.168c0.4-0.111,0.764-0.288,1.092-0.527c0.328-0.24,0.596-0.54,0.804-0.9
        c0.208-0.36,0.312-0.796,0.312-1.308s-0.108-0.94-0.324-1.284c-0.216-0.344-0.508-0.636-0.876-0.876s-0.796-0.444-1.284-0.612
        c-0.488-0.168-1.004-0.34-1.548-0.516c-0.544-0.16-1.08-0.356-1.608-0.588c-0.528-0.232-1-0.528-1.416-0.889
        c-0.416-0.359-0.752-0.804-1.008-1.332c-0.256-0.527-0.384-1.184-0.384-1.968c0-0.848,0.172-1.576,0.516-2.184
        c0.344-0.608,0.792-1.112,1.344-1.512c0.552-0.4,1.176-0.692,1.872-0.876c0.696-0.184,1.396-0.276,2.1-0.276
        c0.992,0,1.92,0.176,2.784,0.528c0.864,0.352,1.56,0.824,2.088,1.416L13.846,10.832z"/>
    <path fill="#666666" d="M18.813,13.304l2.568,8.688h0.048l2.712-8.688h2.376l2.76,8.688h0.048l2.568-8.688h2.376L30.501,24.68
        h-2.352l-2.808-8.544h-0.048l-2.784,8.544h-2.352l-3.792-11.376H18.813z"/>
    <path fill="#666666" d="M38.685,9.2c0,0.416-0.147,0.76-0.44,1.032c-0.294,0.272-0.647,0.408-1.06,0.408s-0.762-0.14-1.047-0.42
        c-0.286-0.28-0.429-0.62-0.429-1.02c0-0.416,0.143-0.764,0.429-1.044c0.286-0.28,0.635-0.42,1.047-0.42s0.766,0.14,1.06,0.42
        C38.538,8.437,38.685,8.784,38.685,9.2z M38.325,24.68h-2.256V13.304h2.256V24.68z"/>
    <path fill="#666666" d="M47.613,15.152h-2.64v9.528h-2.256v-9.528h-2.256v-1.848h2.256v-2.376c0-0.672,0.076-1.292,0.228-1.86
        c0.152-0.568,0.4-1.06,0.744-1.476c0.344-0.416,0.784-0.744,1.32-0.984c0.536-0.24,1.188-0.36,1.956-0.36
        c0.544,0,1.016,0.056,1.416,0.168l-0.264,1.944c-0.176-0.048-0.352-0.088-0.528-0.12c-0.176-0.032-0.376-0.048-0.6-0.048
        c-0.432,0-0.78,0.076-1.044,0.228c-0.264,0.152-0.468,0.356-0.612,0.612s-0.24,0.548-0.288,0.876
        c-0.048,0.328-0.072,0.668-0.072,1.02v2.376h2.64V15.152z"/>
    <path fill="#666666" d="M54.909,15.152h-3.024v5.91c0,0.687,0.128,1.177,0.384,1.472c0.256,0.295,0.664,0.442,1.224,0.442
        c0.208,0,0.432-0.021,0.672-0.065c0.24-0.044,0.456-0.11,0.648-0.198l0.072,1.848c-0.272,0.096-0.572,0.172-0.9,0.229
        c-0.328,0.056-0.668,0.084-1.02,0.084c-1.072,0-1.892-0.296-2.46-0.889c-0.568-0.592-0.852-1.479-0.852-2.664v-6.168h-2.184
        v-1.848h2.184V10.04h2.232v3.264h3.024V15.152z"/>
    <path fill="#666666" d="M57.356,7.688h5.832c1.088,0,2.176,0.16,3.264,0.48c1.088,0.32,2.072,0.824,2.952,1.512
        s1.592,1.568,2.136,2.64c0.544,1.072,0.816,2.36,0.816,3.864c0,1.456-0.272,2.716-0.816,3.78s-1.256,1.943-2.136,2.64
        s-1.864,1.216-2.952,1.561c-1.088,0.344-2.176,0.516-3.264,0.516h-5.832V7.688z M59.732,22.593h2.976
        c1.024,0,1.972-0.145,2.844-0.432c0.872-0.288,1.624-0.704,2.256-1.248c0.632-0.544,1.124-1.216,1.476-2.017
        c0.352-0.8,0.528-1.704,0.528-2.712c0-1.056-0.176-1.983-0.528-2.784c-0.353-0.8-0.844-1.468-1.476-2.004
        c-0.632-0.536-1.384-0.944-2.256-1.224s-1.82-0.42-2.844-0.42h-2.976V22.593z"/>
    <path fill="#666666" d="M86.06,18.969c0,0.88-0.156,1.688-0.468,2.424c-0.312,0.736-0.744,1.372-1.296,1.908
        c-0.552,0.536-1.204,0.952-1.956,1.248c-0.752,0.296-1.56,0.443-2.424,0.443c-0.864,0-1.672-0.147-2.424-0.443
        c-0.752-0.296-1.4-0.712-1.944-1.248c-0.544-0.536-0.972-1.172-1.284-1.908c-0.312-0.735-0.468-1.544-0.468-2.424
        s0.156-1.684,0.468-2.412c0.312-0.728,0.74-1.356,1.284-1.884c0.543-0.528,1.191-0.939,1.944-1.236
        c0.752-0.296,1.56-0.444,2.424-0.444c0.864,0,1.672,0.148,2.424,0.444c0.752,0.297,1.404,0.708,1.956,1.236
        c0.552,0.527,0.984,1.156,1.296,1.884C85.904,17.285,86.06,18.089,86.06,18.969z M83.708,18.98c0-0.542-0.084-1.061-0.252-1.556
        c-0.169-0.494-0.414-0.929-0.734-1.304s-0.718-0.674-1.192-0.897s-1.015-0.335-1.625-0.335c-0.61,0-1.152,0.111-1.625,0.335
        c-0.474,0.224-0.871,0.522-1.191,0.897c-0.321,0.375-0.566,0.81-0.734,1.304C76.184,17.92,76.1,18.438,76.1,18.98
        c0,0.543,0.084,1.062,0.253,1.556c0.168,0.495,0.413,0.934,0.734,1.316c0.321,0.383,0.718,0.686,1.191,0.909
        c0.473,0.224,1.015,0.335,1.625,0.335c0.61,0,1.151-0.111,1.625-0.335s0.871-0.526,1.192-0.909s0.565-0.821,0.734-1.316
        C83.624,20.042,83.708,19.523,83.708,18.98z"/>
    <path fill="#666666" d="M96.428,16.184c-0.24-0.368-0.6-0.676-1.08-0.924s-0.992-0.372-1.536-0.372
        c-0.592,0-1.116,0.112-1.572,0.336c-0.456,0.225-0.844,0.524-1.164,0.9c-0.32,0.376-0.564,0.812-0.732,1.308
        s-0.252,1.017-0.252,1.56c0,0.545,0.084,1.064,0.252,1.561s0.412,0.933,0.732,1.308c0.32,0.376,0.712,0.677,1.176,0.9
        c0.464,0.225,0.992,0.336,1.584,0.336c0.576,0,1.1-0.111,1.572-0.336c0.472-0.224,0.86-0.528,1.164-0.912l1.512,1.368
        c-0.48,0.561-1.08,0.996-1.8,1.308c-0.72,0.312-1.536,0.468-2.448,0.468c-0.88,0-1.692-0.144-2.436-0.432
        c-0.744-0.288-1.388-0.691-1.932-1.212c-0.544-0.52-0.972-1.147-1.284-1.884s-0.468-1.561-0.468-2.473
        c0-0.896,0.152-1.711,0.456-2.447c0.304-0.736,0.728-1.368,1.272-1.896c0.543-0.527,1.188-0.936,1.932-1.224
        c0.744-0.288,1.548-0.433,2.412-0.433c0.8,0,1.596,0.16,2.388,0.48s1.419,0.784,1.884,1.392L96.428,16.184z"/>
    <path fill="#666666" d="M103.1,23.24c0,0.417-0.152,0.784-0.456,1.104c-0.304,0.32-0.688,0.479-1.152,0.479
        c-0.448,0-0.828-0.155-1.14-0.468c-0.312-0.312-0.468-0.676-0.468-1.092c0-0.432,0.152-0.804,0.456-1.116
        c0.304-0.312,0.688-0.468,1.152-0.468c0.464,0,0.848,0.152,1.152,0.456C102.947,22.44,103.1,22.808,103.1,23.24z"/>
    <path fill="#666666" d="M116.635,18.969c0,0.88-0.156,1.688-0.468,2.424c-0.312,0.736-0.744,1.372-1.296,1.908
        c-0.552,0.536-1.204,0.952-1.956,1.248c-0.752,0.296-1.56,0.443-2.424,0.443c-0.864,0-1.672-0.147-2.424-0.443
        c-0.752-0.296-1.4-0.712-1.944-1.248c-0.544-0.536-0.972-1.172-1.284-1.908c-0.312-0.735-0.468-1.544-0.468-2.424
        s0.156-1.684,0.468-2.412c0.312-0.728,0.74-1.356,1.284-1.884c0.543-0.528,1.191-0.939,1.944-1.236
        c0.752-0.296,1.56-0.444,2.424-0.444c0.864,0,1.672,0.148,2.424,0.444c0.752,0.297,1.404,0.708,1.956,1.236
        c0.552,0.527,0.984,1.156,1.296,1.884C116.479,17.285,116.635,18.089,116.635,18.969z M114.283,18.98
        c0-0.542-0.084-1.061-0.252-1.556c-0.169-0.494-0.414-0.929-0.734-1.304s-0.718-0.674-1.192-0.897s-1.015-0.335-1.625-0.335
        c-0.61,0-1.152,0.111-1.625,0.335c-0.474,0.224-0.871,0.522-1.191,0.897c-0.321,0.375-0.566,0.81-0.734,1.304
        c-0.169,0.495-0.253,1.014-0.253,1.556c0,0.543,0.084,1.062,0.253,1.556c0.168,0.495,0.413,0.934,0.734,1.316
        c0.321,0.383,0.718,0.686,1.191,0.909c0.473,0.224,1.015,0.335,1.625,0.335c0.61,0,1.151-0.111,1.625-0.335
        s0.871-0.526,1.192-0.909s0.565-0.821,0.734-1.316C114.199,20.042,114.283,19.523,114.283,18.98z"/>
    <path fill="#666666" d="M119.251,14.577c-0.016-0.48-0.04-0.904-0.072-1.272h2.136c0.032,0.288,0.056,0.62,0.072,0.996
        c0.016,0.376,0.024,0.684,0.024,0.924h0.072c0.32-0.672,0.788-1.212,1.404-1.62c0.616-0.408,1.308-0.612,2.076-0.612
        c0.352,0,0.648,0.033,0.888,0.097l-0.096,2.088c-0.32-0.08-0.664-0.12-1.032-0.12c-0.544,0-1.016,0.101-1.416,0.3
        c-0.4,0.2-0.732,0.468-0.996,0.805c-0.264,0.336-0.46,0.724-0.588,1.163c-0.128,0.44-0.192,0.9-0.192,1.381v5.976h-2.256v-8.928
        C119.275,15.449,119.267,15.056,119.251,14.577z"/>
    <path fill="#666666" d="M128.419,26.625c0.496,0.56,1.116,1.008,1.86,1.344c0.744,0.336,1.508,0.504,2.292,0.504
        c0.752,0,1.384-0.108,1.896-0.324s0.924-0.512,1.236-0.888s0.536-0.82,0.672-1.332c0.136-0.513,0.204-1.064,0.204-1.656v-1.464
        h-0.048c-0.416,0.641-0.984,1.128-1.704,1.464c-0.72,0.336-1.488,0.504-2.304,0.504c-0.864,0-1.652-0.151-2.364-0.456
        c-0.712-0.304-1.316-0.72-1.812-1.248c-0.496-0.527-0.88-1.147-1.152-1.859s-0.408-1.477-0.408-2.292
        c0-0.816,0.136-1.584,0.408-2.305c0.272-0.72,0.656-1.348,1.152-1.884c0.496-0.535,1.096-0.96,1.8-1.271
        c0.704-0.312,1.488-0.469,2.352-0.469c0.816,0,1.596,0.177,2.34,0.528c0.744,0.353,1.332,0.888,1.764,1.608h0.048v-1.824h2.184
        v10.8c0,0.832-0.104,1.628-0.312,2.388c-0.208,0.76-0.56,1.433-1.056,2.017s-1.144,1.052-1.944,1.404
        c-0.8,0.352-1.792,0.527-2.976,0.527c-0.992,0-1.988-0.18-2.988-0.54c-1-0.359-1.86-0.868-2.58-1.523L128.419,26.625z
         M129.091,18.873c0,0.527,0.084,1.031,0.253,1.512c0.168,0.479,0.417,0.904,0.746,1.271c0.329,0.369,0.726,0.664,1.192,0.889
        c0.465,0.224,0.995,0.336,1.589,0.336c0.577,0,1.107-0.104,1.589-0.312c0.481-0.207,0.891-0.491,1.228-0.852
        s0.598-0.784,0.782-1.272c0.185-0.487,0.277-1.012,0.277-1.571c0-0.544-0.093-1.057-0.277-1.536
        c-0.185-0.48-0.449-0.904-0.794-1.272c-0.345-0.367-0.755-0.66-1.228-0.876c-0.474-0.216-1-0.324-1.577-0.324
        c-0.594,0-1.124,0.108-1.589,0.324c-0.466,0.216-0.863,0.504-1.192,0.864s-0.578,0.784-0.746,1.271
        C129.175,17.812,129.091,18.329,129.091,18.873z"/>
</g>
<g><a xlink:href="/" pointer-events="all" target="_top"><polygon fill="none" points="0,0 145,0 145,35 0,35 0,0"/></a></g>

</g>


<!-- Bit -->
<g id="node1" class="node">
<g id="a_node1"><a xlink:href="/v2.1/type/Bit/" target="_top">
<polygon fill="#999999" stroke="#999999" points="612,-22 558,-22 558,-0 612,-0 612,-22"/>
<text text-anchor="middle" x="585" y="-7.4" font-family="Helvetica,sans-Serif" font-size="12.00" fill="white">Bit</text>
</a>
</g>
</g>
<!-- Bool -->
<g id="node2" class="node">
<g id="a_node2"><a xlink:href="/v2.1/type/Bool/" target="_top">
<polygon fill="#999999" stroke="#999999" points="54,-22 0,-22 0,-0 54,-0 54,-22"/>
<text text-anchor="middle" x="27" y="-7.4" font-family="Helvetica,sans-Serif" font-size="12.00" fill="white">Bool</text>
</a>
</g>
</g>
<!-- COpaquePointer -->
<g id="node3" class="node">
<g id="a_node3"><a xlink:href="/v2.1/type/COpaquePointer/" target="_top">
<polygon fill="#999999" stroke="#999999" points="171.542,-22 72.4576,-22 72.4576,-0 171.542,-0 171.542,-22"/>
<text text-anchor="middle" x="122" y="-7.4" font-family="Helvetica,sans-Serif" font-size="12.00" fill="white">COpaquePointer</text>
</a>
</g>
</g>
<!-- Character -->
<g id="node4" class="node">
<g id="a_node4"><a xlink:href="/v2.1/type/Character/" target="_top">
<polygon fill="#999999" stroke="#999999" points="252.017,-22 189.983,-22 189.983,-0 252.017,-0 252.017,-22"/>
<text text-anchor="middle" x="221" y="-7.4" font-family="Helvetica,sans-Serif" font-size="12.00" fill="white">Character</text>
</a>
</g>
</g>
<!-- Double -->
<g id="node5" class="node">
<g id="a_node5"><a xlink:href="/v2.1/type/Double/" target="_top">
<polygon fill="#999999" stroke="#999999" points="324,-22 270,-22 270,-0 324,-0 324,-22"/>
<text text-anchor="middle" x="297" y="-7.4" font-family="Helvetica,sans-Serif" font-size="12.00" fill="white">Double</text>
</a>
</g>
</g>
<!-- Equatable -->
<g id="node6" class="node">
<g id="a_node6"><a xlink:href="/v2.1/protocol/Equatable/" target="_top">
<path fill="#999999" stroke="#999999" d="M901.702,-312C901.702,-312 852.298,-312 852.298,-312 848.632,-312 844.965,-308.333 844.965,-304.667 844.965,-304.667 844.965,-297.333 844.965,-297.333 844.965,-293.667 848.632,-290 852.298,-290 852.298,-290 901.702,-290 901.702,-290 905.368,-290 909.035,-293.667 909.035,-297.333 909.035,-297.333 909.035,-304.667 909.035,-304.667 909.035,-308.333 905.368,-312 901.702,-312"/>
<text text-anchor="middle" x="877" y="-297.4" font-family="Helvetica,sans-Serif" font-size="12.00" fill="white">Equatable</text>
</a>
</g>
</g>
<!-- Hashable -->
<g id="node9" class="node">
<g id="a_node9"><a xlink:href="/v2.1/protocol/Hashable/" target="_top">
<path fill="#ee543d" stroke="#ee543d" d="M899.694,-254C899.694,-254 854.306,-254 854.306,-254 850.639,-254 846.973,-250.333 846.973,-246.667 846.973,-246.667 846.973,-239.333 846.973,-239.333 846.973,-235.667 850.639,-232 854.306,-232 854.306,-232 899.694,-232 899.694,-232 903.361,-232 907.027,-235.667 907.027,-239.333 907.027,-239.333 907.027,-246.667 907.027,-246.667 907.027,-250.333 903.361,-254 899.694,-254"/>
<text text-anchor="middle" x="877" y="-239.4" font-family="Helvetica,sans-Serif" font-size="12.00" fill="white">Hashable</text>
</a>
</g>
</g>
<!-- Equatable&#45;&gt;Hashable -->
<g id="edge42" class="edge">
<path fill="none" stroke="#cccccc" d="M877,-289.988C877,-282.91 877,-273.171 877,-264.478"/>
<polygon fill="#cccccc" stroke="#cccccc" points="880.5,-264.304 877,-254.304 873.5,-264.304 880.5,-264.304"/>
</g>
<!-- Float -->
<g id="node7" class="node">
<g id="a_node7"><a xlink:href="/v2.1/type/Float/" target="_top">
<polygon fill="#999999" stroke="#999999" points="396,-22 342,-22 342,-0 396,-0 396,-22"/>
<text text-anchor="middle" x="369" y="-7.4" font-family="Helvetica,sans-Serif" font-size="12.00" fill="white">Float</text>
</a>
</g>
</g>
<!-- Float80 -->
<g id="node8" class="node">
<g id="a_node8"><a xlink:href="/v2.1/type/Float80/" target="_top">
<polygon fill="#999999" stroke="#999999" points="468,-22 414,-22 414,-0 468,-0 468,-22"/>
<text text-anchor="middle" x="441" y="-7.4" font-family="Helvetica,sans-Serif" font-size="12.00" fill="white">Float80</text>
</a>
</g>
</g>
<!-- Hashable&#45;&gt;Bool -->
<g id="edge1" class="edge">
<path fill="none" stroke="#cccccc" d="M846.808,-240.735C753.131,-236.569 468.423,-222.04 380,-196 246.2,-156.597 103.967,-64.96 49.7593,-27.9395"/>
<polygon fill="#cccccc" stroke="#cccccc" points="51.4752,-24.8716 41.2538,-22.0835 47.5056,-30.6372 51.4752,-24.8716"/>
</g>
<!-- Hashable&#45;&gt;COpaquePointer -->
<g id="edge2" class="edge">
<path fill="none" stroke="#cccccc" d="M846.813,-240.463C760.852,-235.829 516.077,-220.765 440,-196 318.097,-156.317 191.592,-65.526 142.853,-28.3398"/>
<polygon fill="#cccccc" stroke="#cccccc" points="144.735,-25.3717 134.677,-22.0446 140.465,-30.9183 144.735,-25.3717"/>
</g>
<!-- Hashable&#45;&gt;Character -->
<g id="edge3" class="edge">
<path fill="none" stroke="#cccccc" d="M846.855,-240.192C768.291,-235.195 558.865,-219.955 494,-196 386.934,-156.46 280.792,-66.6508 239.276,-29.0531"/>
<polygon fill="#cccccc" stroke="#cccccc" points="241.593,-26.4295 231.853,-22.2601 236.867,-31.5934 241.593,-26.4295"/>
</g>
<!-- Hashable&#45;&gt;Double -->
<g id="edge4" class="edge">
<path fill="none" stroke="#cccccc" d="M846.763,-242.895C786.006,-243.635 645.792,-239.95 539,-196 442.35,-156.224 350.423,-67.888 313.743,-29.9169"/>
<polygon fill="#cccccc" stroke="#cccccc" points="315.825,-27.0289 306.39,-22.2086 310.76,-31.8605 315.825,-27.0289"/>
</g>
<!-- Hashable&#45;&gt;Float -->
<g id="edge5" class="edge">
<path fill="none" stroke="#cccccc" d="M846.647,-242.782C790.901,-243.064 669.619,-238.256 579,-196 492.37,-155.604 414.599,-68.2679 383.44,-30.2736"/>
<polygon fill="#cccccc" stroke="#cccccc" points="385.872,-27.7144 376.864,-22.1367 380.427,-32.1143 385.872,-27.7144"/>
</g>
<!-- Hashable&#45;&gt;Float80 -->
<g id="edge6" class="edge">
<path fill="none" stroke="#cccccc" d="M846.735,-242.693C795.797,-242.6 691.053,-236.914 615,-196 538.973,-155.099 477.206,-68.6893 452.552,-30.6472"/>
<polygon fill="#cccccc" stroke="#cccccc" points="455.419,-28.6329 447.098,-22.0747 449.513,-32.3906 455.419,-28.6329"/>
</g>
<!-- Int -->
<g id="node10" class="node">
<g id="a_node10"><a xlink:href="/v2.1/type/Int/" target="_top">
<polygon fill="#999999" stroke="#999999" points="540,-22 486,-22 486,-0 540,-0 540,-22"/>
<text text-anchor="middle" x="513" y="-7.4" font-family="Helvetica,sans-Serif" font-size="12.00" fill="white">Int</text>
</a>
</g>
</g>
<!-- Hashable&#45;&gt;Int -->
<g id="edge7" class="edge">
<path fill="none" stroke="#cccccc" d="M846.96,-242.837C800.083,-242.741 708.35,-236.795 645,-196 580.948,-154.753 538.231,-70.5212 521.251,-32.0139"/>
<polygon fill="#cccccc" stroke="#cccccc" points="524.304,-30.252 517.148,-22.4391 517.87,-33.0093 524.304,-30.252"/>
</g>
<!-- Int16 -->
<g id="node11" class="node">
<g id="a_node11"><a xlink:href="/v2.1/type/Int16/" target="_top">
<polygon fill="#999999" stroke="#999999" points="684,-22 630,-22 630,-0 684,-0 684,-22"/>
<text text-anchor="middle" x="657" y="-7.4" font-family="Helvetica,sans-Serif" font-size="12.00" fill="white">Int16</text>
</a>
</g>
</g>
<!-- Hashable&#45;&gt;Int16 -->
<g id="edge8" class="edge">
<path fill="none" stroke="#cccccc" d="M846.908,-242.7C803.736,-242.192 723.635,-235.449 671,-196 620.921,-158.467 631.664,-119.548 643,-58 644.619,-49.2092 647.333,-39.7245 649.943,-31.6643"/>
<polygon fill="#cccccc" stroke="#cccccc" points="653.301,-32.6618 653.213,-22.0673 646.675,-30.4042 653.301,-32.6618"/>
</g>
<!-- Int32 -->
<g id="node12" class="node">
<g id="a_node12"><a xlink:href="/v2.1/type/Int32/" target="_top">
<polygon fill="#999999" stroke="#999999" points="756,-22 702,-22 702,-0 756,-0 756,-22"/>
<text text-anchor="middle" x="729" y="-7.4" font-family="Helvetica,sans-Serif" font-size="12.00" fill="white">Int32</text>
</a>
</g>
</g>
<!-- Hashable&#45;&gt;Int32 -->
<g id="edge9" class="edge">
<path fill="none" stroke="#cccccc" d="M846.687,-241.394C808.434,-239.141 742.404,-230.135 699,-196 648.503,-156.287 624.961,-114.246 656,-58 663.956,-43.5833 678.538,-33.0661 692.59,-25.7578"/>
<polygon fill="#cccccc" stroke="#cccccc" points="694.164,-28.8847 701.672,-21.4097 691.141,-22.5709 694.164,-28.8847"/>
</g>
<!-- Int64 -->
<g id="node13" class="node">
<g id="a_node13"><a xlink:href="/v2.1/type/Int64/" target="_top">
<polygon fill="#999999" stroke="#999999" points="828,-22 774,-22 774,-0 828,-0 828,-22"/>
<text text-anchor="middle" x="801" y="-7.4" font-family="Helvetica,sans-Serif" font-size="12.00" fill="white">Int64</text>
</a>
</g>
</g>
<!-- Hashable&#45;&gt;Int64 -->
<g id="edge10" class="edge">
<path fill="none" stroke="#cccccc" d="M846.942,-238.884C814.547,-234.229 762.828,-222.909 727,-196 679.919,-160.639 675.315,-137.579 663,-80 660.955,-70.4385 657.283,-65.9321 663,-58 666.097,-53.7033 724.411,-35.2797 764.234,-23.0922"/>
<polygon fill="#cccccc" stroke="#cccccc" points="765.371,-26.4048 773.916,-20.1404 763.33,-19.7091 765.371,-26.4048"/>
</g>
<!-- Int8 -->
<g id="node14" class="node">
<g id="a_node14"><a xlink:href="/v2.1/type/Int8/" target="_top">
<polygon fill="#999999" stroke="#999999" points="900,-22 846,-22 846,-0 900,-0 900,-22"/>
<text text-anchor="middle" x="873" y="-7.4" font-family="Helvetica,sans-Serif" font-size="12.00" fill="white">Int8</text>
</a>
</g>
</g>
<!-- Hashable&#45;&gt;Int8 -->
<g id="edge11" class="edge">
<path fill="none" stroke="#cccccc" d="M846.68,-234.411C804.794,-222.112 730.8,-193.41 699,-138 665.098,-78.928 770.534,-92.0649 791,-80 815.15,-65.7639 839.449,-44.5465 855.254,-29.606"/>
<polygon fill="#cccccc" stroke="#cccccc" points="857.925,-31.8934 862.7,-22.4355 853.069,-26.8516 857.925,-31.8934"/>
</g>
<!-- ObjectIdentifier -->
<g id="node16" class="node">
<g id="a_node16"><a xlink:href="/v2.1/type/ObjectIdentifier/" target="_top">
<polygon fill="#999999" stroke="#999999" points="1368.03,-22 1277.97,-22 1277.97,-0 1368.03,-0 1368.03,-22"/>
<text text-anchor="middle" x="1323" y="-7.4" font-family="Helvetica,sans-Serif" font-size="12.00" fill="white">ObjectIdentifier</text>
</a>
</g>
</g>
<!-- Hashable&#45;&gt;ObjectIdentifier -->
<g id="edge12" class="edge">
<path fill="none" stroke="#cccccc" d="M907.225,-240.779C977.701,-237.446 1150.61,-226.326 1199,-196 1262.55,-156.171 1301.16,-70.498 1316.01,-31.7495"/>
<polygon fill="#cccccc" stroke="#cccccc" points="1319.37,-32.735 1319.56,-22.1418 1312.81,-30.3036 1319.37,-32.735"/>
</g>
<!-- Set -->
<g id="node17" class="node">
<g id="a_node17"><a xlink:href="/v2.1/type/Set/" target="_top">
<polygon fill="#999999" stroke="#999999" points="1440,-22 1386,-22 1386,-0 1440,-0 1440,-22"/>
<text text-anchor="middle" x="1413" y="-7.4" font-family="Helvetica,sans-Serif" font-size="12.00" fill="white">Set</text>
</a>
</g>
</g>
<!-- Hashable&#45;&gt;Set -->
<g id="edge13" class="edge">
<path fill="none" stroke="#cccccc" d="M907.234,-240.495C981.475,-236.41 1170.79,-223.524 1227,-196 1307.1,-156.777 1373.75,-69.471 1400.46,-30.9203"/>
<polygon fill="#cccccc" stroke="#cccccc" points="1403.64,-32.4654 1406.37,-22.2287 1397.86,-28.5279 1403.64,-32.4654"/>
</g>
<!-- String -->
<g id="node19" class="node">
<g id="a_node19"><a xlink:href="/v2.1/type/String/" target="_top">
<polygon fill="#999999" stroke="#999999" points="1512,-22 1458,-22 1458,-0 1512,-0 1512,-22"/>
<text text-anchor="middle" x="1485" y="-7.4" font-family="Helvetica,sans-Serif" font-size="12.00" fill="white">String</text>
</a>
</g>
</g>
<!-- Hashable&#45;&gt;String -->
<g id="edge14" class="edge">
<path fill="none" stroke="#cccccc" d="M907.068,-240.388C985.418,-235.869 1194.19,-221.699 1258,-196 1351.18,-158.471 1436.03,-68.9056 1469.68,-30.2626"/>
<polygon fill="#cccccc" stroke="#cccccc" points="1472.56,-32.2807 1476.42,-22.4132 1467.25,-27.7212 1472.56,-32.2807"/>
</g>
<!-- UInt -->
<g id="node20" class="node">
<g id="a_node20"><a xlink:href="/v2.1/type/UInt/" target="_top">
<polygon fill="#999999" stroke="#999999" points="972,-22 918,-22 918,-0 972,-0 972,-22"/>
<text text-anchor="middle" x="945" y="-7.4" font-family="Helvetica,sans-Serif" font-size="12.00" fill="white">UInt</text>
</a>
</g>
</g>
<!-- Hashable&#45;&gt;UInt -->
<g id="edge15" class="edge">
<path fill="none" stroke="#cccccc" d="M892.648,-231.936C903.97,-223.729 918.542,-211.056 926,-196 952.884,-141.729 950.469,-67.5627 947.334,-32.2665"/>
<polygon fill="#cccccc" stroke="#cccccc" points="950.809,-31.8468 946.327,-22.247 943.844,-32.5469 950.809,-31.8468"/>
</g>
<!-- UInt16 -->
<g id="node21" class="node">
<g id="a_node21"><a xlink:href="/v2.1/type/UInt16/" target="_top">
<polygon fill="#999999" stroke="#999999" points="1044,-22 990,-22 990,-0 1044,-0 1044,-22"/>
<text text-anchor="middle" x="1017" y="-7.4" font-family="Helvetica,sans-Serif" font-size="12.00" fill="white">UInt16</text>
</a>
</g>
</g>
<!-- Hashable&#45;&gt;UInt16 -->
<g id="edge16" class="edge">
<path fill="none" stroke="#cccccc" d="M907.216,-241.019C966.143,-237.277 1095.56,-219.679 1152,-138 1167.78,-115.155 1139.5,-68.6245 1129,-58 1118.03,-46.8972 1082.1,-33.1978 1053.86,-23.6496"/>
<polygon fill="#cccccc" stroke="#cccccc" points="1054.84,-20.2867 1044.25,-20.4565 1052.64,-26.9299 1054.84,-20.2867"/>
</g>
<!-- UInt32 -->
<g id="node22" class="node">
<g id="a_node22"><a xlink:href="/v2.1/type/UInt32/" target="_top">
<polygon fill="#999999" stroke="#999999" points="1116,-22 1062,-22 1062,-0 1116,-0 1116,-22"/>
<text text-anchor="middle" x="1089" y="-7.4" font-family="Helvetica,sans-Serif" font-size="12.00" fill="white">UInt32</text>
</a>
</g>
</g>
<!-- Hashable&#45;&gt;UInt32 -->
<g id="edge17" class="edge">
<path fill="none" stroke="#cccccc" d="M907.369,-242.134C954.879,-241.085 1048.34,-233.871 1116,-196 1146.47,-178.945 1156.37,-170.554 1169,-138 1182.19,-104.024 1172.08,-87.7311 1151,-58 1142.23,-45.6275 1129.1,-35.2052 1117.18,-27.4265"/>
<polygon fill="#cccccc" stroke="#cccccc" points="1118.73,-24.276 1108.39,-22.0048 1115.06,-30.2337 1118.73,-24.276"/>
</g>
<!-- UInt64 -->
<g id="node23" class="node">
<g id="a_node23"><a xlink:href="/v2.1/type/UInt64/" target="_top">
<polygon fill="#999999" stroke="#999999" points="1188,-22 1134,-22 1134,-0 1188,-0 1188,-22"/>
<text text-anchor="middle" x="1161" y="-7.4" font-family="Helvetica,sans-Serif" font-size="12.00" fill="white">UInt64</text>
</a>
</g>
</g>
<!-- Hashable&#45;&gt;UInt64 -->
<g id="edge18" class="edge">
<path fill="none" stroke="#cccccc" d="M907.481,-239.76C969.273,-234.746 1106.76,-221.05 1146,-196 1172.39,-179.149 1176.69,-167.898 1186,-138 1197.48,-101.132 1182,-56.4974 1170.77,-31.4667"/>
<polygon fill="#cccccc" stroke="#cccccc" points="1173.88,-29.8624 1166.45,-22.3087 1167.55,-32.8466 1173.88,-29.8624"/>
</g>
<!-- UInt8 -->
<g id="node24" class="node">
<g id="a_node24"><a xlink:href="/v2.1/type/UInt8/" target="_top">
<polygon fill="#999999" stroke="#999999" points="1260,-22 1206,-22 1206,-0 1260,-0 1260,-22"/>
<text text-anchor="middle" x="1233" y="-7.4" font-family="Helvetica,sans-Serif" font-size="12.00" fill="white">UInt8</text>
</a>
</g>
</g>
<!-- Hashable&#45;&gt;UInt8 -->
<g id="edge19" class="edge">
<path fill="none" stroke="#cccccc" d="M907.266,-240.762C973.96,-237.493 1131,-226.667 1173,-196 1225.61,-157.59 1232.95,-71.8353 1233.41,-32.4694"/>
<polygon fill="#cccccc" stroke="#cccccc" points="1236.91,-32.2486 1233.38,-22.2579 1229.91,-32.2671 1236.91,-32.2486"/>
</g>
<!-- UnicodeScalar -->
<g id="node25" class="node">
<g id="a_node25"><a xlink:href="/v2.1/type/UnicodeScalar/" target="_top">
<polygon fill="#999999" stroke="#999999" points="1618.03,-22 1529.97,-22 1529.97,-0 1618.03,-0 1618.03,-22"/>
<text text-anchor="middle" x="1574" y="-7.4" font-family="Helvetica,sans-Serif" font-size="12.00" fill="white">UnicodeScalar</text>
</a>
</g>
</g>
<!-- Hashable&#45;&gt;UnicodeScalar -->
<g id="edge20" class="edge">
<path fill="none" stroke="#cccccc" d="M907.058,-240.495C990.305,-236.043 1222.42,-221.618 1294,-196 1403.36,-156.858 1512.48,-66.8257 1555.19,-29.1109"/>
<polygon fill="#cccccc" stroke="#cccccc" points="1557.7,-31.5653 1562.83,-22.296 1553.04,-26.3422 1557.7,-31.5653"/>
</g>
<!-- UnsafeMutablePointer -->
<g id="node26" class="node">
<g id="a_node26"><a xlink:href="/v2.1/type/UnsafeMutablePointer/" target="_top">
<polygon fill="#999999" stroke="#999999" points="1764.05,-22 1635.95,-22 1635.95,-0 1764.05,-0 1764.05,-22"/>
<text text-anchor="middle" x="1700" y="-7.4" font-family="Helvetica,sans-Serif" font-size="12.00" fill="white">UnsafeMutablePointer</text>
</a>
</g>
</g>
<!-- Hashable&#45;&gt;UnsafeMutablePointer -->
<g id="edge21" class="edge">
<path fill="none" stroke="#cccccc" d="M907.118,-242.708C981.313,-243.658 1178.18,-241.324 1334,-196 1472.11,-155.826 1620.43,-64.2916 1676.63,-27.6195"/>
<polygon fill="#cccccc" stroke="#cccccc" points="1678.71,-30.4414 1685.14,-22.0233 1674.86,-24.5922 1678.71,-30.4414"/>
</g>
<!-- UnsafePointer -->
<g id="node27" class="node">
<g id="a_node27"><a xlink:href="/v2.1/type/UnsafePointer/" target="_top">
<polygon fill="#999999" stroke="#999999" points="1868.03,-22 1781.97,-22 1781.97,-0 1868.03,-0 1868.03,-22"/>
<text text-anchor="middle" x="1825" y="-7.4" font-family="Helvetica,sans-Serif" font-size="12.00" fill="white">UnsafePointer</text>
</a>
</g>
</g>
<!-- Hashable&#45;&gt;UnsafePointer -->
<g id="edge22" class="edge">
<path fill="none" stroke="#cccccc" d="M907.058,-242.384C986.005,-242.726 1205.27,-239.366 1381,-196 1545.85,-155.319 1729.17,-63.0511 1797.43,-26.9127"/>
<polygon fill="#cccccc" stroke="#cccccc" points="1799.47,-29.7913 1806.65,-22.0009 1796.18,-23.6131 1799.47,-29.7913"/>
</g>
<!-- _IntegerType -->
<g id="node30" class="node">
<g id="a_node30"><a xlink:href="/v2.1/protocol/_IntegerType/" target="_top">
<path fill="#999999" stroke="#999999" d="M909.708,-196C909.708,-196 844.292,-196 844.292,-196 840.626,-196 836.959,-192.333 836.959,-188.667 836.959,-188.667 836.959,-181.333 836.959,-181.333 836.959,-177.667 840.626,-174 844.292,-174 844.292,-174 909.708,-174 909.708,-174 913.374,-174 917.041,-177.667 917.041,-181.333 917.041,-181.333 917.041,-188.667 917.041,-188.667 917.041,-192.333 913.374,-196 909.708,-196"/>
<text text-anchor="middle" x="877" y="-181.4" font-family="Helvetica,sans-Serif" font-size="12.00" fill="white">_IntegerType</text>
</a>
</g>
</g>
<!-- Hashable&#45;&gt;_IntegerType -->
<g id="edge23" class="edge">
<path fill="none" stroke="#cccccc" d="M877,-231.988C877,-224.91 877,-215.171 877,-206.478"/>
<polygon fill="#cccccc" stroke="#cccccc" points="880.5,-206.304 877,-196.304 873.5,-206.304 880.5,-206.304"/>
</g>
<!-- Int&#45;&gt;Bit -->
<g id="edge24" class="edge">
<path fill="none" stroke="#cccccc" d="M540.281,-11C542.738,-11 545.194,-11 547.651,-11"/>
<polygon fill="#cccccc" stroke="#cccccc" points="547.75,-14.5001 557.75,-11 547.749,-7.5001 547.75,-14.5001"/>
</g>
<!-- IntegerType -->
<g id="node15" class="node">
<g id="a_node15"><a xlink:href="/v2.1/protocol/IntegerType/" target="_top">
<path fill="#999999" stroke="#999999" d="M909.202,-138C909.202,-138 850.798,-138 850.798,-138 847.132,-138 843.465,-134.333 843.465,-130.667 843.465,-130.667 843.465,-123.333 843.465,-123.333 843.465,-119.667 847.132,-116 850.798,-116 850.798,-116 909.202,-116 909.202,-116 912.868,-116 916.535,-119.667 916.535,-123.333 916.535,-123.333 916.535,-130.667 916.535,-130.667 916.535,-134.333 912.868,-138 909.202,-138"/>
<text text-anchor="middle" x="880" y="-123.4" font-family="Helvetica,sans-Serif" font-size="12.00" fill="white">IntegerType</text>
</a>
</g>
</g>
<!-- SignedIntegerType -->
<g id="node18" class="node">
<g id="a_node18"><a xlink:href="/v2.1/protocol/SignedIntegerType/" target="_top">
<path fill="#999999" stroke="#999999" d="M774.727,-80C774.727,-80 679.273,-80 679.273,-80 675.606,-80 671.94,-76.3333 671.94,-72.6667 671.94,-72.6667 671.94,-65.3333 671.94,-65.3333 671.94,-61.6667 675.606,-58 679.273,-58 679.273,-58 774.727,-58 774.727,-58 778.394,-58 782.06,-61.6667 782.06,-65.3333 782.06,-65.3333 782.06,-72.6667 782.06,-72.6667 782.06,-76.3333 778.394,-80 774.727,-80"/>
<text text-anchor="middle" x="727" y="-65.4" font-family="Helvetica,sans-Serif" font-size="12.00" fill="white">SignedIntegerType</text>
</a>
</g>
</g>
<!-- IntegerType&#45;&gt;SignedIntegerType -->
<g id="edge28" class="edge">
<path fill="none" stroke="#cccccc" d="M852.647,-115.988C827.92,-106.938 791.315,-93.5399 763.984,-83.5367"/>
<polygon fill="#cccccc" stroke="#cccccc" points="764.968,-80.1697 754.374,-80.0192 762.562,-86.7432 764.968,-80.1697"/>
</g>
<!-- UnsignedIntegerType -->
<g id="node28" class="node">
<g id="a_node28"><a xlink:href="/v2.1/protocol/UnsignedIntegerType/" target="_top">
<path fill="#999999" stroke="#999999" d="M1112.73,-80C1112.73,-80 1003.27,-80 1003.27,-80 999.605,-80 995.938,-76.3333 995.938,-72.6667 995.938,-72.6667 995.938,-65.3333 995.938,-65.3333 995.938,-61.6667 999.605,-58 1003.27,-58 1003.27,-58 1112.73,-58 1112.73,-58 1116.39,-58 1120.06,-61.6667 1120.06,-65.3333 1120.06,-65.3333 1120.06,-72.6667 1120.06,-72.6667 1120.06,-76.3333 1116.39,-80 1112.73,-80"/>
<text text-anchor="middle" x="1058" y="-65.4" font-family="Helvetica,sans-Serif" font-size="12.00" fill="white">UnsignedIntegerType</text>
</a>
</g>
</g>
<!-- IntegerType&#45;&gt;UnsignedIntegerType -->
<g id="edge29" class="edge">
<path fill="none" stroke="#cccccc" d="M911.823,-115.988C940.968,-106.819 984.3,-93.1866 1016.22,-83.1436"/>
<polygon fill="#cccccc" stroke="#cccccc" points="1017.66,-86.359 1026.15,-80.0192 1015.56,-79.6817 1017.66,-86.359"/>
</g>
<!-- SignedIntegerType&#45;&gt;Int -->
<g id="edge30" class="edge">
<path fill="none" stroke="#cccccc" d="M687.356,-57.9731C653.363,-49.3269 602.832,-36.3587 550.001,-22.2371"/>
<polygon fill="#cccccc" stroke="#cccccc" points="550.678,-18.7952 540.112,-19.5877 548.866,-25.5566 550.678,-18.7952"/>
</g>
<!-- SignedIntegerType&#45;&gt;Int16 -->
<g id="edge31" class="edge">
<path fill="none" stroke="#cccccc" d="M714.485,-57.9883C704.359,-49.8873 689.878,-38.3026 677.984,-28.7873"/>
<polygon fill="#cccccc" stroke="#cccccc" points="679.875,-25.8178 669.88,-22.3039 675.502,-31.2839 679.875,-25.8178"/>
</g>
<!-- SignedIntegerType&#45;&gt;Int32 -->
<g id="edge32" class="edge">
<path fill="none" stroke="#cccccc" d="M727.358,-57.9883C727.61,-50.9098 727.958,-41.1714 728.269,-32.4779"/>
<polygon fill="#cccccc" stroke="#cccccc" points="731.773,-32.4225 728.632,-22.3039 724.777,-32.1726 731.773,-32.4225"/>
</g>
<!-- SignedIntegerType&#45;&gt;Int64 -->
<g id="edge33" class="edge">
<path fill="none" stroke="#cccccc" d="M740.23,-57.9883C751.039,-49.8087 766.541,-38.0773 779.182,-28.5108"/>
<polygon fill="#cccccc" stroke="#cccccc" points="781.522,-31.1293 787.384,-22.3039 777.298,-25.5474 781.522,-31.1293"/>
</g>
<!-- SignedIntegerType&#45;&gt;Int8 -->
<g id="edge34" class="edge">
<path fill="none" stroke="#cccccc" d="M753.102,-57.9883C776.521,-49.0057 811.107,-35.7398 837.122,-25.7614"/>
<polygon fill="#cccccc" stroke="#cccccc" points="838.549,-28.963 846.632,-22.1138 836.042,-22.4272 838.549,-28.963"/>
</g>
<!-- UnsignedIntegerType&#45;&gt;UInt -->
<g id="edge35" class="edge">
<path fill="none" stroke="#cccccc" d="M1037.8,-57.9883C1020.15,-49.2431 994.313,-36.4381 974.379,-26.5594"/>
<polygon fill="#cccccc" stroke="#cccccc" points="975.922,-23.4182 965.408,-22.1138 972.814,-29.6903 975.922,-23.4182"/>
</g>
<!-- UnsignedIntegerType&#45;&gt;UInt16 -->
<g id="edge36" class="edge">
<path fill="none" stroke="#cccccc" d="M1050.67,-57.9883C1045.08,-50.3592 1037.24,-39.6405 1030.52,-30.4702"/>
<polygon fill="#cccccc" stroke="#cccccc" points="1033.28,-28.3049 1024.54,-22.3039 1027.63,-32.4401 1033.28,-28.3049"/>
</g>
<!-- UnsignedIntegerType&#45;&gt;UInt32 -->
<g id="edge37" class="edge">
<path fill="none" stroke="#cccccc" d="M1063.54,-57.9883C1067.63,-50.5952 1073.33,-40.3005 1078.3,-31.3253"/>
<polygon fill="#cccccc" stroke="#cccccc" points="1081.51,-32.7479 1083.3,-22.3039 1075.39,-29.3577 1081.51,-32.7479"/>
</g>
<!-- UnsignedIntegerType&#45;&gt;UInt64 -->
<g id="edge38" class="edge">
<path fill="none" stroke="#cccccc" d="M1076.41,-57.9883C1092.28,-49.3619 1115.41,-36.785 1133.48,-26.9633"/>
<polygon fill="#cccccc" stroke="#cccccc" points="1135.28,-29.9653 1142.4,-22.1138 1131.94,-23.8155 1135.28,-29.9653"/>
</g>
<!-- UnsignedIntegerType&#45;&gt;UInt8 -->
<g id="edge39" class="edge">
<path fill="none" stroke="#cccccc" d="M1089.29,-57.9883C1119.18,-48.4216 1164.26,-33.9965 1195.94,-23.8586"/>
<polygon fill="#cccccc" stroke="#cccccc" points="1197.26,-27.1107 1205.72,-20.7293 1195.13,-20.4437 1197.26,-27.1107"/>
</g>
<!-- _DisallowMixedSignArithmetic -->
<g id="node29" class="node">
<g id="a_node29"><a xlink:href="/v2.1/protocol/_DisallowMixedSignArithmetic/" target="_top">
<path fill="#999999" stroke="#999999" d="M1135.71,-138C1135.71,-138 980.291,-138 980.291,-138 976.624,-138 972.957,-134.333 972.957,-130.667 972.957,-130.667 972.957,-123.333 972.957,-123.333 972.957,-119.667 976.624,-116 980.291,-116 980.291,-116 1135.71,-116 1135.71,-116 1139.38,-116 1143.04,-119.667 1143.04,-123.333 1143.04,-123.333 1143.04,-130.667 1143.04,-130.667 1143.04,-134.333 1139.38,-138 1135.71,-138"/>
<text text-anchor="middle" x="1058" y="-123.4" font-family="Helvetica,sans-Serif" font-size="12.00" fill="white">_DisallowMixedSignArithmetic</text>
</a>
</g>
</g>
<!-- _DisallowMixedSignArithmetic&#45;&gt;UnsignedIntegerType -->
<g id="edge40" class="edge">
<path fill="none" stroke="#cccccc" d="M1058,-115.988C1058,-108.91 1058,-99.1714 1058,-90.4779"/>
<polygon fill="#cccccc" stroke="#cccccc" points="1061.5,-90.3038 1058,-80.3039 1054.5,-90.3039 1061.5,-90.3038"/>
</g>
<!-- _IntegerType&#45;&gt;IntegerType -->
<g id="edge25" class="edge">
<path fill="none" stroke="#cccccc" d="M877.536,-173.988C877.916,-166.91 878.437,-157.171 878.903,-148.478"/>
<polygon fill="#cccccc" stroke="#cccccc" points="882.408,-148.477 879.448,-138.304 875.418,-148.102 882.408,-148.477"/>
</g>
<!-- _IntegerType&#45;&gt;_DisallowMixedSignArithmetic -->
<g id="edge26" class="edge">
<path fill="none" stroke="#cccccc" d="M909.359,-173.988C939.124,-164.779 983.439,-151.068 1015.94,-141.013"/>
<polygon fill="#cccccc" stroke="#cccccc" points="1017.1,-144.319 1025.62,-138.019 1015.03,-137.631 1017.1,-144.319"/>
</g>
<!-- _SignedIntegerType -->
<g id="node31" class="node">
<g id="a_node31"><a xlink:href="/v2.1/protocol/_SignedIntegerType/" target="_top">
<path fill="#999999" stroke="#999999" d="M818.231,-138C818.231,-138 715.769,-138 715.769,-138 712.102,-138 708.436,-134.333 708.436,-130.667 708.436,-130.667 708.436,-123.333 708.436,-123.333 708.436,-119.667 712.102,-116 715.769,-116 715.769,-116 818.231,-116 818.231,-116 821.898,-116 825.564,-119.667 825.564,-123.333 825.564,-123.333 825.564,-130.667 825.564,-130.667 825.564,-134.333 821.898,-138 818.231,-138"/>
<text text-anchor="middle" x="767" y="-123.4" font-family="Helvetica,sans-Serif" font-size="12.00" fill="white">_SignedIntegerType</text>
</a>
</g>
</g>
<!-- _IntegerType&#45;&gt;_SignedIntegerType -->
<g id="edge27" class="edge">
<path fill="none" stroke="#cccccc" d="M857.334,-173.988C840.234,-165.283 815.231,-152.554 795.863,-142.694"/>
<polygon fill="#cccccc" stroke="#cccccc" points="797.366,-139.532 786.866,-138.114 794.19,-145.77 797.366,-139.532"/>
</g>
<!-- _SignedIntegerType&#45;&gt;SignedIntegerType -->
<g id="edge41" class="edge">
<path fill="none" stroke="#cccccc" d="M759.849,-115.988C754.399,-108.359 746.743,-97.6405 740.193,-88.4702"/>
<polygon fill="#cccccc" stroke="#cccccc" points="743.02,-86.4069 734.36,-80.3039 737.324,-90.4756 743.02,-86.4069"/>
</g>
</g>
</svg>
