<?xml version="1.0" encoding="UTF-8" standalone="no"?>
<!DOCTYPE svg PUBLIC "-//W3C//DTD SVG 1.1//EN"
 "http://www.w3.org/Graphics/SVG/1.1/DTD/svg11.dtd">
<!-- Generated by graphviz version 2.36.0 (20140111.2315)
 -->
<!-- Title: _Reflectable &#45; Type Hierarchy &#45; SwiftDoc.org Pages: 1 -->
<svg width="3564pt" height="195pt"
 viewBox="0.00 0.00 3564.40 195.20" xmlns="http://www.w3.org/2000/svg" xmlns:xlink="http://www.w3.org/1999/xlink">
<g id="graph0" class="graph" transform="scale(1 1) rotate(0) translate(7.2 137.6)">
<g transform="translate(0 -137.6)">
<g>
    <path fill="#666666" d="M13.846,10.832c-0.336-0.464-0.792-0.844-1.368-1.14s-1.224-0.444-1.944-0.444
        c-0.384,0-0.772,0.052-1.164,0.156C8.977,9.509,8.622,9.677,8.301,9.908c-0.32,0.232-0.58,0.52-0.78,0.864
        c-0.2,0.344-0.3,0.756-0.3,1.236c0,0.464,0.092,0.852,0.276,1.164c0.184,0.312,0.432,0.576,0.744,0.792s0.68,0.4,1.104,0.552
        c0.423,0.152,0.876,0.309,1.356,0.468c0.576,0.177,1.16,0.376,1.752,0.601c0.592,0.224,1.128,0.52,1.608,0.888
        s0.872,0.828,1.176,1.38s0.456,1.252,0.456,2.101c0,0.88-0.164,1.644-0.492,2.292c-0.328,0.647-0.765,1.184-1.308,1.607
        c-0.544,0.424-1.172,0.74-1.884,0.948s-1.444,0.312-2.196,0.312c-1.072,0-2.108-0.208-3.108-0.624
        c-1-0.415-1.828-1.031-2.484-1.848l1.848-1.56c0.4,0.592,0.936,1.071,1.608,1.439c0.672,0.368,1.399,0.552,2.184,0.552
        c0.4,0,0.8-0.056,1.2-0.168c0.4-0.111,0.764-0.288,1.092-0.527c0.328-0.24,0.596-0.54,0.804-0.9
        c0.208-0.36,0.312-0.796,0.312-1.308s-0.108-0.94-0.324-1.284c-0.216-0.344-0.508-0.636-0.876-0.876s-0.796-0.444-1.284-0.612
        c-0.488-0.168-1.004-0.34-1.548-0.516c-0.544-0.16-1.08-0.356-1.608-0.588c-0.528-0.232-1-0.528-1.416-0.889
        c-0.416-0.359-0.752-0.804-1.008-1.332c-0.256-0.527-0.384-1.184-0.384-1.968c0-0.848,0.172-1.576,0.516-2.184
        c0.344-0.608,0.792-1.112,1.344-1.512c0.552-0.4,1.176-0.692,1.872-0.876c0.696-0.184,1.396-0.276,2.1-0.276
        c0.992,0,1.92,0.176,2.784,0.528c0.864,0.352,1.56,0.824,2.088,1.416L13.846,10.832z"/>
    <path fill="#666666" d="M18.813,13.304l2.568,8.688h0.048l2.712-8.688h2.376l2.76,8.688h0.048l2.568-8.688h2.376L30.501,24.68
        h-2.352l-2.808-8.544h-0.048l-2.784,8.544h-2.352l-3.792-11.376H18.813z"/>
    <path fill="#666666" d="M38.685,9.2c0,0.416-0.147,0.76-0.44,1.032c-0.294,0.272-0.647,0.408-1.06,0.408s-0.762-0.14-1.047-0.42
        c-0.286-0.28-0.429-0.62-0.429-1.02c0-0.416,0.143-0.764,0.429-1.044c0.286-0.28,0.635-0.42,1.047-0.42s0.766,0.14,1.06,0.42
        C38.538,8.437,38.685,8.784,38.685,9.2z M38.325,24.68h-2.256V13.304h2.256V24.68z"/>
    <path fill="#666666" d="M47.613,15.152h-2.64v9.528h-2.256v-9.528h-2.256v-1.848h2.256v-2.376c0-0.672,0.076-1.292,0.228-1.86
        c0.152-0.568,0.4-1.06,0.744-1.476c0.344-0.416,0.784-0.744,1.32-0.984c0.536-0.24,1.188-0.36,1.956-0.36
        c0.544,0,1.016,0.056,1.416,0.168l-0.264,1.944c-0.176-0.048-0.352-0.088-0.528-0.12c-0.176-0.032-0.376-0.048-0.6-0.048
        c-0.432,0-0.78,0.076-1.044,0.228c-0.264,0.152-0.468,0.356-0.612,0.612s-0.24,0.548-0.288,0.876
        c-0.048,0.328-0.072,0.668-0.072,1.02v2.376h2.64V15.152z"/>
    <path fill="#666666" d="M54.909,15.152h-3.024v5.91c0,0.687,0.128,1.177,0.384,1.472c0.256,0.295,0.664,0.442,1.224,0.442
        c0.208,0,0.432-0.021,0.672-0.065c0.24-0.044,0.456-0.11,0.648-0.198l0.072,1.848c-0.272,0.096-0.572,0.172-0.9,0.229
        c-0.328,0.056-0.668,0.084-1.02,0.084c-1.072,0-1.892-0.296-2.46-0.889c-0.568-0.592-0.852-1.479-0.852-2.664v-6.168h-2.184
        v-1.848h2.184V10.04h2.232v3.264h3.024V15.152z"/>
    <path fill="#666666" d="M57.356,7.688h5.832c1.088,0,2.176,0.16,3.264,0.48c1.088,0.32,2.072,0.824,2.952,1.512
        s1.592,1.568,2.136,2.64c0.544,1.072,0.816,2.36,0.816,3.864c0,1.456-0.272,2.716-0.816,3.78s-1.256,1.943-2.136,2.64
        s-1.864,1.216-2.952,1.561c-1.088,0.344-2.176,0.516-3.264,0.516h-5.832V7.688z M59.732,22.593h2.976
        c1.024,0,1.972-0.145,2.844-0.432c0.872-0.288,1.624-0.704,2.256-1.248c0.632-0.544,1.124-1.216,1.476-2.017
        c0.352-0.8,0.528-1.704,0.528-2.712c0-1.056-0.176-1.983-0.528-2.784c-0.353-0.8-0.844-1.468-1.476-2.004
        c-0.632-0.536-1.384-0.944-2.256-1.224s-1.82-0.42-2.844-0.42h-2.976V22.593z"/>
    <path fill="#666666" d="M86.06,18.969c0,0.88-0.156,1.688-0.468,2.424c-0.312,0.736-0.744,1.372-1.296,1.908
        c-0.552,0.536-1.204,0.952-1.956,1.248c-0.752,0.296-1.56,0.443-2.424,0.443c-0.864,0-1.672-0.147-2.424-0.443
        c-0.752-0.296-1.4-0.712-1.944-1.248c-0.544-0.536-0.972-1.172-1.284-1.908c-0.312-0.735-0.468-1.544-0.468-2.424
        s0.156-1.684,0.468-2.412c0.312-0.728,0.74-1.356,1.284-1.884c0.543-0.528,1.191-0.939,1.944-1.236
        c0.752-0.296,1.56-0.444,2.424-0.444c0.864,0,1.672,0.148,2.424,0.444c0.752,0.297,1.404,0.708,1.956,1.236
        c0.552,0.527,0.984,1.156,1.296,1.884C85.904,17.285,86.06,18.089,86.06,18.969z M83.708,18.98c0-0.542-0.084-1.061-0.252-1.556
        c-0.169-0.494-0.414-0.929-0.734-1.304s-0.718-0.674-1.192-0.897s-1.015-0.335-1.625-0.335c-0.61,0-1.152,0.111-1.625,0.335
        c-0.474,0.224-0.871,0.522-1.191,0.897c-0.321,0.375-0.566,0.81-0.734,1.304C76.184,17.92,76.1,18.438,76.1,18.98
        c0,0.543,0.084,1.062,0.253,1.556c0.168,0.495,0.413,0.934,0.734,1.316c0.321,0.383,0.718,0.686,1.191,0.909
        c0.473,0.224,1.015,0.335,1.625,0.335c0.61,0,1.151-0.111,1.625-0.335s0.871-0.526,1.192-0.909s0.565-0.821,0.734-1.316
        C83.624,20.042,83.708,19.523,83.708,18.98z"/>
    <path fill="#666666" d="M96.428,16.184c-0.24-0.368-0.6-0.676-1.08-0.924s-0.992-0.372-1.536-0.372
        c-0.592,0-1.116,0.112-1.572,0.336c-0.456,0.225-0.844,0.524-1.164,0.9c-0.32,0.376-0.564,0.812-0.732,1.308
        s-0.252,1.017-0.252,1.56c0,0.545,0.084,1.064,0.252,1.561s0.412,0.933,0.732,1.308c0.32,0.376,0.712,0.677,1.176,0.9
        c0.464,0.225,0.992,0.336,1.584,0.336c0.576,0,1.1-0.111,1.572-0.336c0.472-0.224,0.86-0.528,1.164-0.912l1.512,1.368
        c-0.48,0.561-1.08,0.996-1.8,1.308c-0.72,0.312-1.536,0.468-2.448,0.468c-0.88,0-1.692-0.144-2.436-0.432
        c-0.744-0.288-1.388-0.691-1.932-1.212c-0.544-0.52-0.972-1.147-1.284-1.884s-0.468-1.561-0.468-2.473
        c0-0.896,0.152-1.711,0.456-2.447c0.304-0.736,0.728-1.368,1.272-1.896c0.543-0.527,1.188-0.936,1.932-1.224
        c0.744-0.288,1.548-0.433,2.412-0.433c0.8,0,1.596,0.16,2.388,0.48s1.419,0.784,1.884,1.392L96.428,16.184z"/>
    <path fill="#666666" d="M103.1,23.24c0,0.417-0.152,0.784-0.456,1.104c-0.304,0.32-0.688,0.479-1.152,0.479
        c-0.448,0-0.828-0.155-1.14-0.468c-0.312-0.312-0.468-0.676-0.468-1.092c0-0.432,0.152-0.804,0.456-1.116
        c0.304-0.312,0.688-0.468,1.152-0.468c0.464,0,0.848,0.152,1.152,0.456C102.947,22.44,103.1,22.808,103.1,23.24z"/>
    <path fill="#666666" d="M116.635,18.969c0,0.88-0.156,1.688-0.468,2.424c-0.312,0.736-0.744,1.372-1.296,1.908
        c-0.552,0.536-1.204,0.952-1.956,1.248c-0.752,0.296-1.56,0.443-2.424,0.443c-0.864,0-1.672-0.147-2.424-0.443
        c-0.752-0.296-1.4-0.712-1.944-1.248c-0.544-0.536-0.972-1.172-1.284-1.908c-0.312-0.735-0.468-1.544-0.468-2.424
        s0.156-1.684,0.468-2.412c0.312-0.728,0.74-1.356,1.284-1.884c0.543-0.528,1.191-0.939,1.944-1.236
        c0.752-0.296,1.56-0.444,2.424-0.444c0.864,0,1.672,0.148,2.424,0.444c0.752,0.297,1.404,0.708,1.956,1.236
        c0.552,0.527,0.984,1.156,1.296,1.884C116.479,17.285,116.635,18.089,116.635,18.969z M114.283,18.98
        c0-0.542-0.084-1.061-0.252-1.556c-0.169-0.494-0.414-0.929-0.734-1.304s-0.718-0.674-1.192-0.897s-1.015-0.335-1.625-0.335
        c-0.61,0-1.152,0.111-1.625,0.335c-0.474,0.224-0.871,0.522-1.191,0.897c-0.321,0.375-0.566,0.81-0.734,1.304
        c-0.169,0.495-0.253,1.014-0.253,1.556c0,0.543,0.084,1.062,0.253,1.556c0.168,0.495,0.413,0.934,0.734,1.316
        c0.321,0.383,0.718,0.686,1.191,0.909c0.473,0.224,1.015,0.335,1.625,0.335c0.61,0,1.151-0.111,1.625-0.335
        s0.871-0.526,1.192-0.909s0.565-0.821,0.734-1.316C114.199,20.042,114.283,19.523,114.283,18.98z"/>
    <path fill="#666666" d="M119.251,14.577c-0.016-0.48-0.04-0.904-0.072-1.272h2.136c0.032,0.288,0.056,0.62,0.072,0.996
        c0.016,0.376,0.024,0.684,0.024,0.924h0.072c0.32-0.672,0.788-1.212,1.404-1.62c0.616-0.408,1.308-0.612,2.076-0.612
        c0.352,0,0.648,0.033,0.888,0.097l-0.096,2.088c-0.32-0.08-0.664-0.12-1.032-0.12c-0.544,0-1.016,0.101-1.416,0.3
        c-0.4,0.2-0.732,0.468-0.996,0.805c-0.264,0.336-0.46,0.724-0.588,1.163c-0.128,0.44-0.192,0.9-0.192,1.381v5.976h-2.256v-8.928
        C119.275,15.449,119.267,15.056,119.251,14.577z"/>
    <path fill="#666666" d="M128.419,26.625c0.496,0.56,1.116,1.008,1.86,1.344c0.744,0.336,1.508,0.504,2.292,0.504
        c0.752,0,1.384-0.108,1.896-0.324s0.924-0.512,1.236-0.888s0.536-0.82,0.672-1.332c0.136-0.513,0.204-1.064,0.204-1.656v-1.464
        h-0.048c-0.416,0.641-0.984,1.128-1.704,1.464c-0.72,0.336-1.488,0.504-2.304,0.504c-0.864,0-1.652-0.151-2.364-0.456
        c-0.712-0.304-1.316-0.72-1.812-1.248c-0.496-0.527-0.88-1.147-1.152-1.859s-0.408-1.477-0.408-2.292
        c0-0.816,0.136-1.584,0.408-2.305c0.272-0.72,0.656-1.348,1.152-1.884c0.496-0.535,1.096-0.96,1.8-1.271
        c0.704-0.312,1.488-0.469,2.352-0.469c0.816,0,1.596,0.177,2.34,0.528c0.744,0.353,1.332,0.888,1.764,1.608h0.048v-1.824h2.184
        v10.8c0,0.832-0.104,1.628-0.312,2.388c-0.208,0.76-0.56,1.433-1.056,2.017s-1.144,1.052-1.944,1.404
        c-0.8,0.352-1.792,0.527-2.976,0.527c-0.992,0-1.988-0.18-2.988-0.54c-1-0.359-1.86-0.868-2.58-1.523L128.419,26.625z
         M129.091,18.873c0,0.527,0.084,1.031,0.253,1.512c0.168,0.479,0.417,0.904,0.746,1.271c0.329,0.369,0.726,0.664,1.192,0.889
        c0.465,0.224,0.995,0.336,1.589,0.336c0.577,0,1.107-0.104,1.589-0.312c0.481-0.207,0.891-0.491,1.228-0.852
        s0.598-0.784,0.782-1.272c0.185-0.487,0.277-1.012,0.277-1.571c0-0.544-0.093-1.057-0.277-1.536
        c-0.185-0.48-0.449-0.904-0.794-1.272c-0.345-0.367-0.755-0.66-1.228-0.876c-0.474-0.216-1-0.324-1.577-0.324
        c-0.594,0-1.124,0.108-1.589,0.324c-0.466,0.216-0.863,0.504-1.192,0.864s-0.578,0.784-0.746,1.271
        C129.175,17.812,129.091,18.329,129.091,18.873z"/>
</g>
<g><a xlink:href="/" pointer-events="all" target="_top"><polygon fill="none" points="0,0 145,0 145,35 0,35 0,0"/></a></g>

</g>


<!-- Array -->
<g id="node1" class="node">
<g id="a_node1"><a xlink:href="/v2.1/type/Array/hierarchy/" target="_top">
<polygon fill="#999999" stroke="#999999" points="54,-22 0,-22 0,-0 54,-0 54,-22"/>
<text text-anchor="middle" x="27" y="-7.4" font-family="Helvetica,sans-Serif" font-size="12.00" fill="white">Array</text>
</a>
</g>
</g>
<!-- ArraySlice -->
<g id="node2" class="node">
<g id="a_node2"><a xlink:href="/v2.1/type/ArraySlice/hierarchy/" target="_top">
<polygon fill="#999999" stroke="#999999" points="136.011,-22 71.9886,-22 71.9886,-0 136.011,-0 136.011,-22"/>
<text text-anchor="middle" x="104" y="-7.4" font-family="Helvetica,sans-Serif" font-size="12.00" fill="white">ArraySlice</text>
</a>
</g>
</g>
<!-- Bit -->
<g id="node3" class="node">
<g id="a_node3"><a xlink:href="/v2.1/type/Bit/hierarchy/" target="_top">
<polygon fill="#999999" stroke="#999999" points="1408,-22 1354,-22 1354,-0 1408,-0 1408,-22"/>
<text text-anchor="middle" x="1381" y="-7.4" font-family="Helvetica,sans-Serif" font-size="12.00" fill="white">Bit</text>
</a>
</g>
</g>
<!-- Bool -->
<g id="node4" class="node">
<g id="a_node4"><a xlink:href="/v2.1/type/Bool/hierarchy/" target="_top">
<polygon fill="#999999" stroke="#999999" points="208,-22 154,-22 154,-0 208,-0 208,-22"/>
<text text-anchor="middle" x="181" y="-7.4" font-family="Helvetica,sans-Serif" font-size="12.00" fill="white">Bool</text>
</a>
</g>
</g>
<!-- Character -->
<g id="node5" class="node">
<g id="a_node5"><a xlink:href="/v2.1/type/Character/hierarchy/" target="_top">
<polygon fill="#999999" stroke="#999999" points="288.017,-22 225.983,-22 225.983,-0 288.017,-0 288.017,-22"/>
<text text-anchor="middle" x="257" y="-7.4" font-family="Helvetica,sans-Serif" font-size="12.00" fill="white">Character</text>
</a>
</g>
</g>
<!-- ClosedInterval -->
<g id="node6" class="node">
<g id="a_node6"><a xlink:href="/v2.1/type/ClosedInterval/hierarchy/" target="_top">
<polygon fill="#999999" stroke="#999999" points="393.03,-22 306.97,-22 306.97,-0 393.03,-0 393.03,-22"/>
<text text-anchor="middle" x="350" y="-7.4" font-family="Helvetica,sans-Serif" font-size="12.00" fill="white">ClosedInterval</text>
</a>
</g>
</g>
<!-- CollectionOfOne -->
<g id="node7" class="node">
<g id="a_node7"><a xlink:href="/v2.1/type/CollectionOfOne/hierarchy/" target="_top">
<polygon fill="#999999" stroke="#999999" points="509.032,-22 410.968,-22 410.968,-0 509.032,-0 509.032,-22"/>
<text text-anchor="middle" x="460" y="-7.4" font-family="Helvetica,sans-Serif" font-size="12.00" fill="white">CollectionOfOne</text>
</a>
</g>
</g>
<!-- ContiguousArray -->
<g id="node8" class="node">
<g id="a_node8"><a xlink:href="/v2.1/type/ContiguousArray/hierarchy/" target="_top">
<polygon fill="#999999" stroke="#999999" points="626.534,-22 527.466,-22 527.466,-0 626.534,-0 626.534,-22"/>
<text text-anchor="middle" x="577" y="-7.4" font-family="Helvetica,sans-Serif" font-size="12.00" fill="white">ContiguousArray</text>
</a>
</g>
</g>
<!-- Dictionary -->
<g id="node9" class="node">
<g id="a_node9"><a xlink:href="/v2.1/type/Dictionary/hierarchy/" target="_top">
<polygon fill="#999999" stroke="#999999" points="707.511,-22 644.489,-22 644.489,-0 707.511,-0 707.511,-22"/>
<text text-anchor="middle" x="676" y="-7.4" font-family="Helvetica,sans-Serif" font-size="12.00" fill="white">Dictionary</text>
</a>
</g>
</g>
<!-- Double -->
<g id="node10" class="node">
<g id="a_node10"><a xlink:href="/v2.1/type/Double/hierarchy/" target="_top">
<polygon fill="#999999" stroke="#999999" points="780,-22 726,-22 726,-0 780,-0 780,-22"/>
<text text-anchor="middle" x="753" y="-7.4" font-family="Helvetica,sans-Serif" font-size="12.00" fill="white">Double</text>
</a>
</g>
</g>
<!-- EmptyCollection -->
<g id="node11" class="node">
<g id="a_node11"><a xlink:href="/v2.1/type/EmptyCollection/hierarchy/" target="_top">
<polygon fill="#999999" stroke="#999999" points="894.027,-22 797.973,-22 797.973,-0 894.027,-0 894.027,-22"/>
<text text-anchor="middle" x="846" y="-7.4" font-family="Helvetica,sans-Serif" font-size="12.00" fill="white">EmptyCollection</text>
</a>
</g>
</g>
<!-- Float -->
<g id="node12" class="node">
<g id="a_node12"><a xlink:href="/v2.1/type/Float/hierarchy/" target="_top">
<polygon fill="#999999" stroke="#999999" points="966,-22 912,-22 912,-0 966,-0 966,-22"/>
<text text-anchor="middle" x="939" y="-7.4" font-family="Helvetica,sans-Serif" font-size="12.00" fill="white">Float</text>
</a>
</g>
</g>
<!-- HalfOpenInterval -->
<g id="node13" class="node">
<g id="a_node13"><a xlink:href="/v2.1/type/HalfOpenInterval/hierarchy/" target="_top">
<polygon fill="#999999" stroke="#999999" points="1084.04,-22 983.965,-22 983.965,-0 1084.04,-0 1084.04,-22"/>
<text text-anchor="middle" x="1034" y="-7.4" font-family="Helvetica,sans-Serif" font-size="12.00" fill="white">HalfOpenInterval</text>
</a>
</g>
</g>
<!-- ImplicitlyUnwrappedOptional -->
<g id="node14" class="node">
<g id="a_node14"><a xlink:href="/v2.1/type/ImplicitlyUnwrappedOptional/hierarchy/" target="_top">
<polygon fill="#999999" stroke="#999999" points="1264.05,-22 1101.95,-22 1101.95,-0 1264.05,-0 1264.05,-22"/>
<text text-anchor="middle" x="1183" y="-7.4" font-family="Helvetica,sans-Serif" font-size="12.00" fill="white">ImplicitlyUnwrappedOptional</text>
</a>
</g>
</g>
<!-- Int -->
<g id="node15" class="node">
<g id="a_node15"><a xlink:href="/v2.1/type/Int/hierarchy/" target="_top">
<polygon fill="#999999" stroke="#999999" points="1336,-22 1282,-22 1282,-0 1336,-0 1336,-22"/>
<text text-anchor="middle" x="1309" y="-7.4" font-family="Helvetica,sans-Serif" font-size="12.00" fill="white">Int</text>
</a>
</g>
</g>
<!-- Int&#45;&gt;Bit -->
<g id="edge38" class="edge">
<path fill="none" stroke="#cccccc" d="M1336.28,-11C1338.74,-11 1341.19,-11 1343.65,-11"/>
<polygon fill="#cccccc" stroke="#cccccc" points="1343.75,-14.5001 1353.75,-11 1343.75,-7.5001 1343.75,-14.5001"/>
</g>
<!-- Int16 -->
<g id="node16" class="node">
<g id="a_node16"><a xlink:href="/v2.1/type/Int16/hierarchy/" target="_top">
<polygon fill="#999999" stroke="#999999" points="1480,-22 1426,-22 1426,-0 1480,-0 1480,-22"/>
<text text-anchor="middle" x="1453" y="-7.4" font-family="Helvetica,sans-Serif" font-size="12.00" fill="white">Int16</text>
</a>
</g>
</g>
<!-- Int32 -->
<g id="node17" class="node">
<g id="a_node17"><a xlink:href="/v2.1/type/Int32/hierarchy/" target="_top">
<polygon fill="#999999" stroke="#999999" points="1552,-22 1498,-22 1498,-0 1552,-0 1552,-22"/>
<text text-anchor="middle" x="1525" y="-7.4" font-family="Helvetica,sans-Serif" font-size="12.00" fill="white">Int32</text>
</a>
</g>
</g>
<!-- Int64 -->
<g id="node18" class="node">
<g id="a_node18"><a xlink:href="/v2.1/type/Int64/hierarchy/" target="_top">
<polygon fill="#999999" stroke="#999999" points="1624,-22 1570,-22 1570,-0 1624,-0 1624,-22"/>
<text text-anchor="middle" x="1597" y="-7.4" font-family="Helvetica,sans-Serif" font-size="12.00" fill="white">Int64</text>
</a>
</g>
</g>
<!-- Int8 -->
<g id="node19" class="node">
<g id="a_node19"><a xlink:href="/v2.1/type/Int8/hierarchy/" target="_top">
<polygon fill="#999999" stroke="#999999" points="1696,-22 1642,-22 1642,-0 1696,-0 1696,-22"/>
<text text-anchor="middle" x="1669" y="-7.4" font-family="Helvetica,sans-Serif" font-size="12.00" fill="white">Int8</text>
</a>
</g>
</g>
<!-- Optional -->
<g id="node20" class="node">
<g id="a_node20"><a xlink:href="/v2.1/type/Optional/hierarchy/" target="_top">
<polygon fill="#999999" stroke="#999999" points="1768.02,-22 1713.98,-22 1713.98,-0 1768.02,-0 1768.02,-22"/>
<text text-anchor="middle" x="1741" y="-7.4" font-family="Helvetica,sans-Serif" font-size="12.00" fill="white">Optional</text>
</a>
</g>
</g>
<!-- Range -->
<g id="node21" class="node">
<g id="a_node21"><a xlink:href="/v2.1/type/Range/hierarchy/" target="_top">
<polygon fill="#999999" stroke="#999999" points="1840,-22 1786,-22 1786,-0 1840,-0 1840,-22"/>
<text text-anchor="middle" x="1813" y="-7.4" font-family="Helvetica,sans-Serif" font-size="12.00" fill="white">Range</text>
</a>
</g>
</g>
<!-- Set -->
<g id="node22" class="node">
<g id="a_node22"><a xlink:href="/v2.1/type/Set/hierarchy/" target="_top">
<polygon fill="#999999" stroke="#999999" points="1912,-22 1858,-22 1858,-0 1912,-0 1912,-22"/>
<text text-anchor="middle" x="1885" y="-7.4" font-family="Helvetica,sans-Serif" font-size="12.00" fill="white">Set</text>
</a>
</g>
</g>
<!-- StaticString -->
<g id="node23" class="node">
<g id="a_node23"><a xlink:href="/v2.1/type/StaticString/hierarchy/" target="_top">
<polygon fill="#999999" stroke="#999999" points="2001.52,-22 1930.48,-22 1930.48,-0 2001.52,-0 2001.52,-22"/>
<text text-anchor="middle" x="1966" y="-7.4" font-family="Helvetica,sans-Serif" font-size="12.00" fill="white">StaticString</text>
</a>
</g>
</g>
<!-- StrideThrough -->
<g id="node24" class="node">
<g id="a_node24"><a xlink:href="/v2.1/type/StrideThrough/hierarchy/" target="_top">
<polygon fill="#999999" stroke="#999999" points="2106.03,-22 2019.97,-22 2019.97,-0 2106.03,-0 2106.03,-22"/>
<text text-anchor="middle" x="2063" y="-7.4" font-family="Helvetica,sans-Serif" font-size="12.00" fill="white">StrideThrough</text>
</a>
</g>
</g>
<!-- StrideTo -->
<g id="node25" class="node">
<g id="a_node25"><a xlink:href="/v2.1/type/StrideTo/hierarchy/" target="_top">
<polygon fill="#999999" stroke="#999999" points="2178.02,-22 2123.98,-22 2123.98,-0 2178.02,-0 2178.02,-22"/>
<text text-anchor="middle" x="2151" y="-7.4" font-family="Helvetica,sans-Serif" font-size="12.00" fill="white">StrideTo</text>
</a>
</g>
</g>
<!-- String -->
<g id="node26" class="node">
<g id="a_node26"><a xlink:href="/v2.1/type/String/hierarchy/" target="_top">
<polygon fill="#999999" stroke="#999999" points="2250,-22 2196,-22 2196,-0 2250,-0 2250,-22"/>
<text text-anchor="middle" x="2223" y="-7.4" font-family="Helvetica,sans-Serif" font-size="12.00" fill="white">String</text>
</a>
</g>
</g>
<!-- String.CharacterView.Index -->
<g id="node27" class="node">
<g id="a_node27"><a xlink:href="/v2.1/type/String.CharacterView.Index/hierarchy/" target="_top">
<polygon fill="#999999" stroke="#999999" points="2423.4,-22 2268.6,-22 2268.6,-0 2423.4,-0 2423.4,-22"/>
<text text-anchor="middle" x="2346" y="-7.4" font-family="Helvetica,sans-Serif" font-size="12.00" fill="white">String.CharacterView.Index</text>
</a>
</g>
</g>
<!-- String.UTF16View -->
<g id="node28" class="node">
<g id="a_node28"><a xlink:href="/v2.1/type/String.UTF16View/hierarchy/" target="_top">
<polygon fill="#999999" stroke="#999999" points="2548.37,-22 2441.63,-22 2441.63,-0 2548.37,-0 2548.37,-22"/>
<text text-anchor="middle" x="2495" y="-7.4" font-family="Helvetica,sans-Serif" font-size="12.00" fill="white">String.UTF16View</text>
</a>
</g>
</g>
<!-- String.UTF8View -->
<g id="node29" class="node">
<g id="a_node29"><a xlink:href="/v2.1/type/String.UTF8View/hierarchy/" target="_top">
<polygon fill="#999999" stroke="#999999" points="2667.36,-22 2566.64,-22 2566.64,-0 2667.36,-0 2667.36,-22"/>
<text text-anchor="middle" x="2617" y="-7.4" font-family="Helvetica,sans-Serif" font-size="12.00" fill="white">String.UTF8View</text>
</a>
</g>
</g>
<!-- String.UnicodeScalarView -->
<g id="node30" class="node">
<g id="a_node30"><a xlink:href="/v2.1/type/String.UnicodeScalarView/hierarchy/" target="_top">
<polygon fill="#999999" stroke="#999999" points="2833.89,-22 2686.11,-22 2686.11,-0 2833.89,-0 2833.89,-22"/>
<text text-anchor="middle" x="2760" y="-7.4" font-family="Helvetica,sans-Serif" font-size="12.00" fill="white">String.UnicodeScalarView</text>
</a>
</g>
</g>
<!-- UInt -->
<g id="node31" class="node">
<g id="a_node31"><a xlink:href="/v2.1/type/UInt/hierarchy/" target="_top">
<polygon fill="#999999" stroke="#999999" points="2906,-22 2852,-22 2852,-0 2906,-0 2906,-22"/>
<text text-anchor="middle" x="2879" y="-7.4" font-family="Helvetica,sans-Serif" font-size="12.00" fill="white">UInt</text>
</a>
</g>
</g>
<!-- UInt16 -->
<g id="node32" class="node">
<g id="a_node32"><a xlink:href="/v2.1/type/UInt16/hierarchy/" target="_top">
<polygon fill="#999999" stroke="#999999" points="2978,-22 2924,-22 2924,-0 2978,-0 2978,-22"/>
<text text-anchor="middle" x="2951" y="-7.4" font-family="Helvetica,sans-Serif" font-size="12.00" fill="white">UInt16</text>
</a>
</g>
</g>
<!-- UInt32 -->
<g id="node33" class="node">
<g id="a_node33"><a xlink:href="/v2.1/type/UInt32/hierarchy/" target="_top">
<polygon fill="#999999" stroke="#999999" points="3050,-22 2996,-22 2996,-0 3050,-0 3050,-22"/>
<text text-anchor="middle" x="3023" y="-7.4" font-family="Helvetica,sans-Serif" font-size="12.00" fill="white">UInt32</text>
</a>
</g>
</g>
<!-- UInt64 -->
<g id="node34" class="node">
<g id="a_node34"><a xlink:href="/v2.1/type/UInt64/hierarchy/" target="_top">
<polygon fill="#999999" stroke="#999999" points="3122,-22 3068,-22 3068,-0 3122,-0 3122,-22"/>
<text text-anchor="middle" x="3095" y="-7.4" font-family="Helvetica,sans-Serif" font-size="12.00" fill="white">UInt64</text>
</a>
</g>
</g>
<!-- UInt8 -->
<g id="node35" class="node">
<g id="a_node35"><a xlink:href="/v2.1/type/UInt8/hierarchy/" target="_top">
<polygon fill="#999999" stroke="#999999" points="3194,-22 3140,-22 3140,-0 3194,-0 3194,-22"/>
<text text-anchor="middle" x="3167" y="-7.4" font-family="Helvetica,sans-Serif" font-size="12.00" fill="white">UInt8</text>
</a>
</g>
</g>
<!-- UnicodeScalar -->
<g id="node36" class="node">
<g id="a_node36"><a xlink:href="/v2.1/type/UnicodeScalar/hierarchy/" target="_top">
<polygon fill="#999999" stroke="#999999" points="3300.03,-22 3211.97,-22 3211.97,-0 3300.03,-0 3300.03,-22"/>
<text text-anchor="middle" x="3256" y="-7.4" font-family="Helvetica,sans-Serif" font-size="12.00" fill="white">UnicodeScalar</text>
</a>
</g>
</g>
<!-- UnsafeMutablePointer -->
<g id="node37" class="node">
<g id="a_node37"><a xlink:href="/v2.1/type/UnsafeMutablePointer/hierarchy/" target="_top">
<polygon fill="#999999" stroke="#999999" points="3446.05,-22 3317.95,-22 3317.95,-0 3446.05,-0 3446.05,-22"/>
<text text-anchor="middle" x="3382" y="-7.4" font-family="Helvetica,sans-Serif" font-size="12.00" fill="white">UnsafeMutablePointer</text>
</a>
</g>
</g>
<!-- UnsafePointer -->
<g id="node38" class="node">
<g id="a_node38"><a xlink:href="/v2.1/type/UnsafePointer/hierarchy/" target="_top">
<polygon fill="#999999" stroke="#999999" points="3550.03,-22 3463.97,-22 3463.97,-0 3550.03,-0 3550.03,-22"/>
<text text-anchor="middle" x="3507" y="-7.4" font-family="Helvetica,sans-Serif" font-size="12.00" fill="white">UnsafePointer</text>
</a>
</g>
</g>
<!-- _Reflectable -->
<g id="node39" class="node">
<g id="a_node39"><a xlink:href="/v2.1/protocol/_Reflectable/" target="_top">
<path fill="#ee543d" stroke="#ee543d" d="M1771.7,-80C1771.7,-80 1710.3,-80 1710.3,-80 1706.63,-80 1702.97,-76.3333 1702.97,-72.6667 1702.97,-72.6667 1702.97,-65.3333 1702.97,-65.3333 1702.97,-61.6667 1706.63,-58 1710.3,-58 1710.3,-58 1771.7,-58 1771.7,-58 1775.37,-58 1779.03,-61.6667 1779.03,-65.3333 1779.03,-65.3333 1779.03,-72.6667 1779.03,-72.6667 1779.03,-76.3333 1775.37,-80 1771.7,-80"/>
<text text-anchor="middle" x="1741" y="-65.4" font-family="Helvetica,sans-Serif" font-size="12.00" fill="white">_Reflectable</text>
</a>
</g>
</g>
<!-- _Reflectable&#45;&gt;Array -->
<g id="edge1" class="edge">
<path fill="none" stroke="#cccccc" d="M1702.85,-68.2143C1486.86,-69.2386 415.106,-71.7617 64.2844,-21.7981"/>
<polygon fill="#cccccc" stroke="#cccccc" points="64.7707,-18.332 54.3684,-20.3426 63.754,-25.2578 64.7707,-18.332"/>
</g>
<!-- _Reflectable&#45;&gt;ArraySlice -->
<g id="edge2" class="edge">
<path fill="none" stroke="#cccccc" d="M1702.68,-67.9889C1492.87,-67.7641 480.943,-64.5243 146.288,-21.8467"/>
<polygon fill="#cccccc" stroke="#cccccc" points="146.478,-18.3416 136.107,-20.5075 145.565,-25.2818 146.478,-18.3416"/>
</g>
<!-- _Reflectable&#45;&gt;Bool -->
<g id="edge3" class="edge">
<path fill="none" stroke="#cccccc" d="M1702.71,-68.0914C1498.69,-68.3915 537.138,-67.4077 218.52,-21.835"/>
<polygon fill="#cccccc" stroke="#cccccc" points="218.774,-18.3346 208.37,-20.3346 217.75,-25.2593 218.774,-18.3346"/>
</g>
<!-- _Reflectable&#45;&gt;Character -->
<g id="edge4" class="edge">
<path fill="none" stroke="#cccccc" d="M1702.82,-67.8538C1505.76,-66.9379 601.593,-60.7337 298.311,-21.6631"/>
<polygon fill="#cccccc" stroke="#cccccc" points="298.586,-18.1689 288.211,-20.319 297.662,-25.1077 298.586,-18.1689"/>
</g>
<!-- _Reflectable&#45;&gt;ClosedInterval -->
<g id="edge5" class="edge">
<path fill="none" stroke="#cccccc" d="M1702.82,-67.4917C1514.71,-64.8664 684.669,-51.8408 403.231,-21.9306"/>
<polygon fill="#cccccc" stroke="#cccccc" points="403.373,-18.4253 393.051,-20.814 402.61,-25.3835 403.373,-18.4253"/>
</g>
<!-- _Reflectable&#45;&gt;CollectionOfOne -->
<g id="edge6" class="edge">
<path fill="none" stroke="#cccccc" d="M1702.83,-68.4103C1553.04,-69.6332 990.952,-70.5901 519.373,-22.0062"/>
<polygon fill="#cccccc" stroke="#cccccc" points="519.607,-18.5118 509.299,-20.9594 518.884,-25.4743 519.607,-18.5118"/>
</g>
<!-- _Reflectable&#45;&gt;ContiguousArray -->
<g id="edge7" class="edge">
<path fill="none" stroke="#cccccc" d="M1702.66,-68.1944C1561.81,-68.5326 1059.53,-66.4222 636.591,-22.0442"/>
<polygon fill="#cccccc" stroke="#cccccc" points="636.928,-18.5605 626.615,-20.9881 636.191,-25.5216 636.928,-18.5605"/>
</g>
<!-- _Reflectable&#45;&gt;Dictionary -->
<g id="edge8" class="edge">
<path fill="none" stroke="#cccccc" d="M1702.78,-67.2776C1543.65,-64.1191 932.392,-50.4513 717.591,-21.7458"/>
<polygon fill="#cccccc" stroke="#cccccc" points="718.052,-18.2763 707.665,-20.3675 717.089,-25.2097 718.052,-18.2763"/>
</g>
<!-- _Reflectable&#45;&gt;Double -->
<g id="edge9" class="edge">
<path fill="none" stroke="#cccccc" d="M1702.87,-67.2904C1551.14,-64.295 989.285,-51.5244 790.418,-21.8455"/>
<polygon fill="#cccccc" stroke="#cccccc" points="790.797,-18.3625 780.378,-20.282 789.72,-25.2791 790.797,-18.3625"/>
</g>
<!-- _Reflectable&#45;&gt;EmptyCollection -->
<g id="edge10" class="edge">
<path fill="none" stroke="#cccccc" d="M1702.86,-67.5179C1585.34,-65.6915 1218.24,-57.4374 904.35,-22.0239"/>
<polygon fill="#cccccc" stroke="#cccccc" points="904.476,-18.5156 894.143,-20.8606 903.683,-25.4706 904.476,-18.5156"/>
</g>
<!-- _Reflectable&#45;&gt;Float -->
<g id="edge11" class="edge">
<path fill="none" stroke="#cccccc" d="M1702.82,-68.5382C1591.75,-69.5064 1259.2,-68.1684 976.421,-21.9126"/>
<polygon fill="#cccccc" stroke="#cccccc" points="976.821,-18.4312 966.383,-20.2481 975.676,-25.3369 976.821,-18.4312"/>
</g>
<!-- _Reflectable&#45;&gt;HalfOpenInterval -->
<g id="edge12" class="edge">
<path fill="none" stroke="#cccccc" d="M1702.9,-66.5878C1604.12,-62.6514 1331.55,-50.0349 1094.36,-22.0579"/>
<polygon fill="#cccccc" stroke="#cccccc" points="1094.51,-18.5506 1084.16,-20.8428 1093.68,-25.5015 1094.51,-18.5506"/>
</g>
<!-- _Reflectable&#45;&gt;ImplicitlyUnwrappedOptional -->
<g id="edge13" class="edge">
<path fill="none" stroke="#cccccc" d="M1702.77,-64.4075C1624.54,-57.0218 1440.31,-39.4452 1274.8,-22.1786"/>
<polygon fill="#cccccc" stroke="#cccccc" points="1274.74,-18.6533 1264.43,-21.0946 1274.01,-25.6154 1274.74,-18.6533"/>
</g>
<!-- _Reflectable&#45;&gt;Int -->
<g id="edge14" class="edge">
<path fill="none" stroke="#cccccc" d="M1702.75,-65.5403C1633.46,-60.658 1482.51,-48.0624 1346.22,-21.9743"/>
<polygon fill="#cccccc" stroke="#cccccc" points="1346.5,-18.4636 1336.02,-19.9903 1345.17,-25.3349 1346.5,-18.4636"/>
</g>
<!-- _Reflectable&#45;&gt;Int16 -->
<g id="edge15" class="edge">
<path fill="none" stroke="#cccccc" d="M1702.78,-62.1283C1655.16,-54.5682 1571.1,-40.4315 1489.94,-22.0603"/>
<polygon fill="#cccccc" stroke="#cccccc" points="1490.59,-18.6184 1480.06,-19.7991 1489.03,-25.4419 1490.59,-18.6184"/>
</g>
<!-- _Reflectable&#45;&gt;Int32 -->
<g id="edge16" class="edge">
<path fill="none" stroke="#cccccc" d="M1702.67,-58.4485C1668.25,-49.8186 1616.1,-36.6078 1561.89,-22.2024"/>
<polygon fill="#cccccc" stroke="#cccccc" points="1562.67,-18.7885 1552.11,-19.5955 1560.87,-25.5525 1562.67,-18.7885"/>
</g>
<!-- _Reflectable&#45;&gt;Int64 -->
<g id="edge17" class="edge">
<path fill="none" stroke="#cccccc" d="M1715.26,-57.9883C1692.16,-49.0057 1658.05,-35.7398 1632.39,-25.7614"/>
<polygon fill="#cccccc" stroke="#cccccc" points="1633.6,-22.4763 1623.01,-22.1138 1631.06,-29.0004 1633.6,-22.4763"/>
</g>
<!-- _Reflectable&#45;&gt;Int8 -->
<g id="edge18" class="edge">
<path fill="none" stroke="#cccccc" d="M1728.13,-57.9883C1717.61,-49.8087 1702.53,-38.0773 1690.23,-28.5108"/>
<polygon fill="#cccccc" stroke="#cccccc" points="1692.29,-25.6806 1682.25,-22.3039 1687.99,-31.2061 1692.29,-25.6806"/>
</g>
<!-- _Reflectable&#45;&gt;Optional -->
<g id="edge19" class="edge">
<path fill="none" stroke="#cccccc" d="M1741,-57.9883C1741,-50.9098 1741,-41.1714 1741,-32.4779"/>
<polygon fill="#cccccc" stroke="#cccccc" points="1744.5,-32.3038 1741,-22.3039 1737.5,-32.3039 1744.5,-32.3038"/>
</g>
<!-- _Reflectable&#45;&gt;Range -->
<g id="edge20" class="edge">
<path fill="none" stroke="#cccccc" d="M1753.87,-57.9883C1764.39,-49.8087 1779.47,-38.0773 1791.77,-28.5108"/>
<polygon fill="#cccccc" stroke="#cccccc" points="1794.01,-31.2061 1799.75,-22.3039 1789.71,-25.6806 1794.01,-31.2061"/>
</g>
<!-- _Reflectable&#45;&gt;Set -->
<g id="edge21" class="edge">
<path fill="none" stroke="#cccccc" d="M1766.74,-57.9883C1789.84,-49.0057 1823.95,-35.7398 1849.61,-25.7614"/>
<polygon fill="#cccccc" stroke="#cccccc" points="1850.94,-29.0004 1858.99,-22.1138 1848.4,-22.4763 1850.94,-29.0004"/>
</g>
<!-- _Reflectable&#45;&gt;StaticString -->
<g id="edge22" class="edge">
<path fill="none" stroke="#cccccc" d="M1779.17,-58.5004C1818.32,-48.7564 1879.21,-33.6021 1920.76,-23.2609"/>
<polygon fill="#cccccc" stroke="#cccccc" points="1921.76,-26.6185 1930.62,-20.8068 1920.07,-19.8257 1921.76,-26.6185"/>
</g>
<!-- _Reflectable&#45;&gt;StrideThrough -->
<g id="edge23" class="edge">
<path fill="none" stroke="#cccccc" d="M1779.35,-61.6549C1831.56,-52.9664 1927.93,-36.7587 2010,-22 2010.1,-21.9819 2010.2,-21.9637 2010.3,-21.9455"/>
<polygon fill="#cccccc" stroke="#cccccc" points="2010.7,-25.4304 2019.91,-20.1935 2009.45,-18.5439 2010.7,-25.4304"/>
</g>
<!-- _Reflectable&#45;&gt;StrideTo -->
<g id="edge24" class="edge">
<path fill="none" stroke="#cccccc" d="M1779.26,-65.1829C1845.56,-59.8925 1986.2,-46.8752 2114.02,-21.9433"/>
<polygon fill="#cccccc" stroke="#cccccc" points="2114.85,-25.3465 2123.98,-19.9704 2113.49,-18.4799 2114.85,-25.3465"/>
</g>
<!-- _Reflectable&#45;&gt;String -->
<g id="edge25" class="edge">
<path fill="none" stroke="#cccccc" d="M1779.2,-66.2282C1855.02,-62.2465 2029.93,-50.7439 2185.75,-21.9501"/>
<polygon fill="#cccccc" stroke="#cccccc" points="2186.81,-25.3137 2195.99,-20.0284 2185.51,-18.4339 2186.81,-25.3137"/>
</g>
<!-- _Reflectable&#45;&gt;String.CharacterView.Index -->
<g id="edge37" class="edge">
<path fill="none" stroke="#cccccc" d="M1779.05,-64.9602C1863.28,-58.1585 2072.07,-40.8955 2258.69,-22.0067"/>
<polygon fill="#cccccc" stroke="#cccccc" points="2259.09,-25.4842 2268.69,-20.9913 2258.39,-18.52 2259.09,-25.4842"/>
</g>
<!-- _Reflectable&#45;&gt;String.UTF16View -->
<g id="edge35" class="edge">
<path fill="none" stroke="#cccccc" d="M1779.31,-66.6733C1882.7,-62.8326 2176.21,-50.2084 2431.23,-21.9826"/>
<polygon fill="#cccccc" stroke="#cccccc" points="2431.88,-25.4318 2441.43,-20.843 2431.1,-18.4751 2431.88,-25.4318"/>
</g>
<!-- _Reflectable&#45;&gt;String.UTF8View -->
<g id="edge36" class="edge">
<path fill="none" stroke="#cccccc" d="M1779.36,-67.3195C1895.08,-64.9526 2250.98,-55.3715 2556.7,-21.9005"/>
<polygon fill="#cccccc" stroke="#cccccc" points="2557.09,-25.3792 2566.64,-20.8017 2556.32,-18.4216 2557.09,-25.3792"/>
</g>
<!-- _Reflectable&#45;&gt;String.UnicodeScalarView -->
<g id="edge34" class="edge">
<path fill="none" stroke="#cccccc" d="M1779.36,-67.0665C1905.73,-63.7895 2320.61,-51.4263 2675.6,-21.9674"/>
<polygon fill="#cccccc" stroke="#cccccc" points="2676.15,-25.434 2685.82,-21.1131 2675.57,-18.4583 2676.15,-25.434"/>
</g>
<!-- _Reflectable&#45;&gt;UInt -->
<g id="edge26" class="edge">
<path fill="none" stroke="#cccccc" d="M1779.27,-67.5784C1946.13,-65.5624 2611.61,-55.6324 2841.66,-21.8247"/>
<polygon fill="#cccccc" stroke="#cccccc" points="2842.27,-25.272 2851.63,-20.3011 2841.21,-18.3523 2842.27,-25.272"/>
</g>
<!-- _Reflectable&#45;&gt;UInt16 -->
<g id="edge27" class="edge">
<path fill="none" stroke="#cccccc" d="M1779.09,-67.6934C1952.43,-66.1191 2668.57,-57.6355 2913.71,-21.8139"/>
<polygon fill="#cccccc" stroke="#cccccc" points="2914.26,-25.2694 2923.63,-20.3085 2913.21,-18.3487 2914.26,-25.2694"/>
</g>
<!-- _Reflectable&#45;&gt;UInt32 -->
<g id="edge28" class="edge">
<path fill="none" stroke="#cccccc" d="M1779.27,-67.7922C1959.47,-66.6318 2725.12,-59.6284 2985.47,-21.8459"/>
<polygon fill="#cccccc" stroke="#cccccc" points="2986.26,-25.2658 2995.63,-20.315 2985.22,-18.3439 2986.26,-25.2658"/>
</g>
<!-- _Reflectable&#45;&gt;UInt64 -->
<g id="edge29" class="edge">
<path fill="none" stroke="#cccccc" d="M1779.26,-67.8817C1965.89,-67.1214 2782.45,-61.6328 3057.68,-21.8129"/>
<polygon fill="#cccccc" stroke="#cccccc" points="3058.26,-25.2648 3067.63,-20.3209 3057.22,-18.3421 3058.26,-25.2648"/>
</g>
<!-- _Reflectable&#45;&gt;UInt8 -->
<g id="edge30" class="edge">
<path fill="none" stroke="#cccccc" d="M1779.07,-67.9624C1971.51,-67.5883 2839,-63.661 3129.54,-21.8302"/>
<polygon fill="#cccccc" stroke="#cccccc" points="3130.25,-25.2623 3139.63,-20.3261 3129.22,-18.3388 3130.25,-25.2623"/>
</g>
<!-- _Reflectable&#45;&gt;UnicodeScalar -->
<g id="edge31" class="edge">
<path fill="none" stroke="#cccccc" d="M1779.32,-67.5994C1978.11,-65.3999 2894.31,-53.75 3201.6,-21.9552"/>
<polygon fill="#cccccc" stroke="#cccccc" points="3202.26,-25.4047 3211.83,-20.864 3201.52,-18.4442 3202.26,-25.4047"/>
</g>
<!-- _Reflectable&#45;&gt;UnsafeMutablePointer -->
<g id="edge32" class="edge">
<path fill="none" stroke="#cccccc" d="M1779.29,-68.3818C1953.86,-69.8082 2692.01,-72.4398 3307.53,-22.0272"/>
<polygon fill="#cccccc" stroke="#cccccc" points="3308.27,-25.4784 3317.95,-21.1681 3307.69,-18.5021 3308.27,-25.4784"/>
</g>
<!-- _Reflectable&#45;&gt;UnsafePointer -->
<g id="edge33" class="edge">
<path fill="none" stroke="#cccccc" d="M1779.19,-67.8229C1997.83,-66.6818 3093.17,-59.2233 3453.76,-21.9232"/>
<polygon fill="#cccccc" stroke="#cccccc" points="3454.38,-25.3771 3463.95,-20.8392 3453.64,-18.4164 3454.38,-25.3771"/>
</g>
</g>
</svg>
