<?xml version="1.0" encoding="UTF-8" standalone="no"?>
<!DOCTYPE svg PUBLIC "-//W3C//DTD SVG 1.1//EN"
 "http://www.w3.org/Graphics/SVG/1.1/DTD/svg11.dtd">
<!-- Generated by graphviz version 2.36.0 (20140111.2315)
 -->
<!-- Title: Equatable &#45; Type Hierarchy &#45; SwiftDoc.org Pages: 1 -->
<svg width="6214pt" height="543pt"
 viewBox="0.00 0.00 6214.40 543.20" xmlns="http://www.w3.org/2000/svg" xmlns:xlink="http://www.w3.org/1999/xlink">
<g id="graph0" class="graph" transform="scale(1 1) rotate(0) translate(7.2 485.6)">
<g transform="translate(0 -485.6)">
<g>
    <path fill="#666666" d="M13.846,10.832c-0.336-0.464-0.792-0.844-1.368-1.14s-1.224-0.444-1.944-0.444
        c-0.384,0-0.772,0.052-1.164,0.156C8.977,9.509,8.622,9.677,8.301,9.908c-0.32,0.232-0.58,0.52-0.78,0.864
        c-0.2,0.344-0.3,0.756-0.3,1.236c0,0.464,0.092,0.852,0.276,1.164c0.184,0.312,0.432,0.576,0.744,0.792s0.68,0.4,1.104,0.552
        c0.423,0.152,0.876,0.309,1.356,0.468c0.576,0.177,1.16,0.376,1.752,0.601c0.592,0.224,1.128,0.52,1.608,0.888
        s0.872,0.828,1.176,1.38s0.456,1.252,0.456,2.101c0,0.88-0.164,1.644-0.492,2.292c-0.328,0.647-0.765,1.184-1.308,1.607
        c-0.544,0.424-1.172,0.74-1.884,0.948s-1.444,0.312-2.196,0.312c-1.072,0-2.108-0.208-3.108-0.624
        c-1-0.415-1.828-1.031-2.484-1.848l1.848-1.56c0.4,0.592,0.936,1.071,1.608,1.439c0.672,0.368,1.399,0.552,2.184,0.552
        c0.4,0,0.8-0.056,1.2-0.168c0.4-0.111,0.764-0.288,1.092-0.527c0.328-0.24,0.596-0.54,0.804-0.9
        c0.208-0.36,0.312-0.796,0.312-1.308s-0.108-0.94-0.324-1.284c-0.216-0.344-0.508-0.636-0.876-0.876s-0.796-0.444-1.284-0.612
        c-0.488-0.168-1.004-0.34-1.548-0.516c-0.544-0.16-1.08-0.356-1.608-0.588c-0.528-0.232-1-0.528-1.416-0.889
        c-0.416-0.359-0.752-0.804-1.008-1.332c-0.256-0.527-0.384-1.184-0.384-1.968c0-0.848,0.172-1.576,0.516-2.184
        c0.344-0.608,0.792-1.112,1.344-1.512c0.552-0.4,1.176-0.692,1.872-0.876c0.696-0.184,1.396-0.276,2.1-0.276
        c0.992,0,1.92,0.176,2.784,0.528c0.864,0.352,1.56,0.824,2.088,1.416L13.846,10.832z"/>
    <path fill="#666666" d="M18.813,13.304l2.568,8.688h0.048l2.712-8.688h2.376l2.76,8.688h0.048l2.568-8.688h2.376L30.501,24.68
        h-2.352l-2.808-8.544h-0.048l-2.784,8.544h-2.352l-3.792-11.376H18.813z"/>
    <path fill="#666666" d="M38.685,9.2c0,0.416-0.147,0.76-0.44,1.032c-0.294,0.272-0.647,0.408-1.06,0.408s-0.762-0.14-1.047-0.42
        c-0.286-0.28-0.429-0.62-0.429-1.02c0-0.416,0.143-0.764,0.429-1.044c0.286-0.28,0.635-0.42,1.047-0.42s0.766,0.14,1.06,0.42
        C38.538,8.437,38.685,8.784,38.685,9.2z M38.325,24.68h-2.256V13.304h2.256V24.68z"/>
    <path fill="#666666" d="M47.613,15.152h-2.64v9.528h-2.256v-9.528h-2.256v-1.848h2.256v-2.376c0-0.672,0.076-1.292,0.228-1.86
        c0.152-0.568,0.4-1.06,0.744-1.476c0.344-0.416,0.784-0.744,1.32-0.984c0.536-0.24,1.188-0.36,1.956-0.36
        c0.544,0,1.016,0.056,1.416,0.168l-0.264,1.944c-0.176-0.048-0.352-0.088-0.528-0.12c-0.176-0.032-0.376-0.048-0.6-0.048
        c-0.432,0-0.78,0.076-1.044,0.228c-0.264,0.152-0.468,0.356-0.612,0.612s-0.24,0.548-0.288,0.876
        c-0.048,0.328-0.072,0.668-0.072,1.02v2.376h2.64V15.152z"/>
    <path fill="#666666" d="M54.909,15.152h-3.024v5.91c0,0.687,0.128,1.177,0.384,1.472c0.256,0.295,0.664,0.442,1.224,0.442
        c0.208,0,0.432-0.021,0.672-0.065c0.24-0.044,0.456-0.11,0.648-0.198l0.072,1.848c-0.272,0.096-0.572,0.172-0.9,0.229
        c-0.328,0.056-0.668,0.084-1.02,0.084c-1.072,0-1.892-0.296-2.46-0.889c-0.568-0.592-0.852-1.479-0.852-2.664v-6.168h-2.184
        v-1.848h2.184V10.04h2.232v3.264h3.024V15.152z"/>
    <path fill="#666666" d="M57.356,7.688h5.832c1.088,0,2.176,0.16,3.264,0.48c1.088,0.32,2.072,0.824,2.952,1.512
        s1.592,1.568,2.136,2.64c0.544,1.072,0.816,2.36,0.816,3.864c0,1.456-0.272,2.716-0.816,3.78s-1.256,1.943-2.136,2.64
        s-1.864,1.216-2.952,1.561c-1.088,0.344-2.176,0.516-3.264,0.516h-5.832V7.688z M59.732,22.593h2.976
        c1.024,0,1.972-0.145,2.844-0.432c0.872-0.288,1.624-0.704,2.256-1.248c0.632-0.544,1.124-1.216,1.476-2.017
        c0.352-0.8,0.528-1.704,0.528-2.712c0-1.056-0.176-1.983-0.528-2.784c-0.353-0.8-0.844-1.468-1.476-2.004
        c-0.632-0.536-1.384-0.944-2.256-1.224s-1.82-0.42-2.844-0.42h-2.976V22.593z"/>
    <path fill="#666666" d="M86.06,18.969c0,0.88-0.156,1.688-0.468,2.424c-0.312,0.736-0.744,1.372-1.296,1.908
        c-0.552,0.536-1.204,0.952-1.956,1.248c-0.752,0.296-1.56,0.443-2.424,0.443c-0.864,0-1.672-0.147-2.424-0.443
        c-0.752-0.296-1.4-0.712-1.944-1.248c-0.544-0.536-0.972-1.172-1.284-1.908c-0.312-0.735-0.468-1.544-0.468-2.424
        s0.156-1.684,0.468-2.412c0.312-0.728,0.74-1.356,1.284-1.884c0.543-0.528,1.191-0.939,1.944-1.236
        c0.752-0.296,1.56-0.444,2.424-0.444c0.864,0,1.672,0.148,2.424,0.444c0.752,0.297,1.404,0.708,1.956,1.236
        c0.552,0.527,0.984,1.156,1.296,1.884C85.904,17.285,86.06,18.089,86.06,18.969z M83.708,18.98c0-0.542-0.084-1.061-0.252-1.556
        c-0.169-0.494-0.414-0.929-0.734-1.304s-0.718-0.674-1.192-0.897s-1.015-0.335-1.625-0.335c-0.61,0-1.152,0.111-1.625,0.335
        c-0.474,0.224-0.871,0.522-1.191,0.897c-0.321,0.375-0.566,0.81-0.734,1.304C76.184,17.92,76.1,18.438,76.1,18.98
        c0,0.543,0.084,1.062,0.253,1.556c0.168,0.495,0.413,0.934,0.734,1.316c0.321,0.383,0.718,0.686,1.191,0.909
        c0.473,0.224,1.015,0.335,1.625,0.335c0.61,0,1.151-0.111,1.625-0.335s0.871-0.526,1.192-0.909s0.565-0.821,0.734-1.316
        C83.624,20.042,83.708,19.523,83.708,18.98z"/>
    <path fill="#666666" d="M96.428,16.184c-0.24-0.368-0.6-0.676-1.08-0.924s-0.992-0.372-1.536-0.372
        c-0.592,0-1.116,0.112-1.572,0.336c-0.456,0.225-0.844,0.524-1.164,0.9c-0.32,0.376-0.564,0.812-0.732,1.308
        s-0.252,1.017-0.252,1.56c0,0.545,0.084,1.064,0.252,1.561s0.412,0.933,0.732,1.308c0.32,0.376,0.712,0.677,1.176,0.9
        c0.464,0.225,0.992,0.336,1.584,0.336c0.576,0,1.1-0.111,1.572-0.336c0.472-0.224,0.86-0.528,1.164-0.912l1.512,1.368
        c-0.48,0.561-1.08,0.996-1.8,1.308c-0.72,0.312-1.536,0.468-2.448,0.468c-0.88,0-1.692-0.144-2.436-0.432
        c-0.744-0.288-1.388-0.691-1.932-1.212c-0.544-0.52-0.972-1.147-1.284-1.884s-0.468-1.561-0.468-2.473
        c0-0.896,0.152-1.711,0.456-2.447c0.304-0.736,0.728-1.368,1.272-1.896c0.543-0.527,1.188-0.936,1.932-1.224
        c0.744-0.288,1.548-0.433,2.412-0.433c0.8,0,1.596,0.16,2.388,0.48s1.419,0.784,1.884,1.392L96.428,16.184z"/>
    <path fill="#666666" d="M103.1,23.24c0,0.417-0.152,0.784-0.456,1.104c-0.304,0.32-0.688,0.479-1.152,0.479
        c-0.448,0-0.828-0.155-1.14-0.468c-0.312-0.312-0.468-0.676-0.468-1.092c0-0.432,0.152-0.804,0.456-1.116
        c0.304-0.312,0.688-0.468,1.152-0.468c0.464,0,0.848,0.152,1.152,0.456C102.947,22.44,103.1,22.808,103.1,23.24z"/>
    <path fill="#666666" d="M116.635,18.969c0,0.88-0.156,1.688-0.468,2.424c-0.312,0.736-0.744,1.372-1.296,1.908
        c-0.552,0.536-1.204,0.952-1.956,1.248c-0.752,0.296-1.56,0.443-2.424,0.443c-0.864,0-1.672-0.147-2.424-0.443
        c-0.752-0.296-1.4-0.712-1.944-1.248c-0.544-0.536-0.972-1.172-1.284-1.908c-0.312-0.735-0.468-1.544-0.468-2.424
        s0.156-1.684,0.468-2.412c0.312-0.728,0.74-1.356,1.284-1.884c0.543-0.528,1.191-0.939,1.944-1.236
        c0.752-0.296,1.56-0.444,2.424-0.444c0.864,0,1.672,0.148,2.424,0.444c0.752,0.297,1.404,0.708,1.956,1.236
        c0.552,0.527,0.984,1.156,1.296,1.884C116.479,17.285,116.635,18.089,116.635,18.969z M114.283,18.98
        c0-0.542-0.084-1.061-0.252-1.556c-0.169-0.494-0.414-0.929-0.734-1.304s-0.718-0.674-1.192-0.897s-1.015-0.335-1.625-0.335
        c-0.61,0-1.152,0.111-1.625,0.335c-0.474,0.224-0.871,0.522-1.191,0.897c-0.321,0.375-0.566,0.81-0.734,1.304
        c-0.169,0.495-0.253,1.014-0.253,1.556c0,0.543,0.084,1.062,0.253,1.556c0.168,0.495,0.413,0.934,0.734,1.316
        c0.321,0.383,0.718,0.686,1.191,0.909c0.473,0.224,1.015,0.335,1.625,0.335c0.61,0,1.151-0.111,1.625-0.335
        s0.871-0.526,1.192-0.909s0.565-0.821,0.734-1.316C114.199,20.042,114.283,19.523,114.283,18.98z"/>
    <path fill="#666666" d="M119.251,14.577c-0.016-0.48-0.04-0.904-0.072-1.272h2.136c0.032,0.288,0.056,0.62,0.072,0.996
        c0.016,0.376,0.024,0.684,0.024,0.924h0.072c0.32-0.672,0.788-1.212,1.404-1.62c0.616-0.408,1.308-0.612,2.076-0.612
        c0.352,0,0.648,0.033,0.888,0.097l-0.096,2.088c-0.32-0.08-0.664-0.12-1.032-0.12c-0.544,0-1.016,0.101-1.416,0.3
        c-0.4,0.2-0.732,0.468-0.996,0.805c-0.264,0.336-0.46,0.724-0.588,1.163c-0.128,0.44-0.192,0.9-0.192,1.381v5.976h-2.256v-8.928
        C119.275,15.449,119.267,15.056,119.251,14.577z"/>
    <path fill="#666666" d="M128.419,26.625c0.496,0.56,1.116,1.008,1.86,1.344c0.744,0.336,1.508,0.504,2.292,0.504
        c0.752,0,1.384-0.108,1.896-0.324s0.924-0.512,1.236-0.888s0.536-0.82,0.672-1.332c0.136-0.513,0.204-1.064,0.204-1.656v-1.464
        h-0.048c-0.416,0.641-0.984,1.128-1.704,1.464c-0.72,0.336-1.488,0.504-2.304,0.504c-0.864,0-1.652-0.151-2.364-0.456
        c-0.712-0.304-1.316-0.72-1.812-1.248c-0.496-0.527-0.88-1.147-1.152-1.859s-0.408-1.477-0.408-2.292
        c0-0.816,0.136-1.584,0.408-2.305c0.272-0.72,0.656-1.348,1.152-1.884c0.496-0.535,1.096-0.96,1.8-1.271
        c0.704-0.312,1.488-0.469,2.352-0.469c0.816,0,1.596,0.177,2.34,0.528c0.744,0.353,1.332,0.888,1.764,1.608h0.048v-1.824h2.184
        v10.8c0,0.832-0.104,1.628-0.312,2.388c-0.208,0.76-0.56,1.433-1.056,2.017s-1.144,1.052-1.944,1.404
        c-0.8,0.352-1.792,0.527-2.976,0.527c-0.992,0-1.988-0.18-2.988-0.54c-1-0.359-1.86-0.868-2.58-1.523L128.419,26.625z
         M129.091,18.873c0,0.527,0.084,1.031,0.253,1.512c0.168,0.479,0.417,0.904,0.746,1.271c0.329,0.369,0.726,0.664,1.192,0.889
        c0.465,0.224,0.995,0.336,1.589,0.336c0.577,0,1.107-0.104,1.589-0.312c0.481-0.207,0.891-0.491,1.228-0.852
        s0.598-0.784,0.782-1.272c0.185-0.487,0.277-1.012,0.277-1.571c0-0.544-0.093-1.057-0.277-1.536
        c-0.185-0.48-0.449-0.904-0.794-1.272c-0.345-0.367-0.755-0.66-1.228-0.876c-0.474-0.216-1-0.324-1.577-0.324
        c-0.594,0-1.124,0.108-1.589,0.324c-0.466,0.216-0.863,0.504-1.192,0.864s-0.578,0.784-0.746,1.271
        C129.175,17.812,129.091,18.329,129.091,18.873z"/>
</g>
<g><a xlink:href="/" pointer-events="all" target="_top"><polygon fill="none" points="0,0 145,0 145,35 0,35 0,0"/></a></g>

</g>


<!-- AbsoluteValuable -->
<g id="node1" class="node">
<g id="a_node1"><a xlink:href="/v2.1/protocol/AbsoluteValuable/" target="_top">
<path fill="#999999" stroke="#999999" d="M1003.56,-138C1003.56,-138 916.442,-138 916.442,-138 912.775,-138 909.109,-134.333 909.109,-130.667 909.109,-130.667 909.109,-123.333 909.109,-123.333 909.109,-119.667 912.775,-116 916.442,-116 916.442,-116 1003.56,-116 1003.56,-116 1007.22,-116 1010.89,-119.667 1010.89,-123.333 1010.89,-123.333 1010.89,-130.667 1010.89,-130.667 1010.89,-134.333 1007.22,-138 1003.56,-138"/>
<text text-anchor="middle" x="960" y="-123.4" font-family="Helvetica,sans-Serif" font-size="12.00" fill="white">AbsoluteValuable</text>
</a>
</g>
</g>
<!-- Double -->
<g id="node14" class="node">
<g id="a_node14"><a xlink:href="/v2.1/type/Double/" target="_top">
<polygon fill="#999999" stroke="#999999" points="634,-22 580,-22 580,-0 634,-0 634,-22"/>
<text text-anchor="middle" x="607" y="-7.4" font-family="Helvetica,sans-Serif" font-size="12.00" fill="white">Double</text>
</a>
</g>
</g>
<!-- AbsoluteValuable&#45;&gt;Double -->
<g id="edge83" class="edge">
<path fill="none" stroke="#cccccc" d="M948.225,-115.89C929.974,-100.789 893.176,-72.5642 857,-58 785.147,-29.0727 694.305,-18.1883 644.288,-14.2036"/>
<polygon fill="#cccccc" stroke="#cccccc" points="644.489,-10.7089 634.256,-13.454 643.967,-17.6895 644.489,-10.7089"/>
</g>
<!-- Float -->
<g id="node18" class="node">
<g id="a_node18"><a xlink:href="/v2.1/type/Float/" target="_top">
<polygon fill="#999999" stroke="#999999" points="813,-22 759,-22 759,-0 813,-0 813,-22"/>
<text text-anchor="middle" x="786" y="-7.4" font-family="Helvetica,sans-Serif" font-size="12.00" fill="white">Float</text>
</a>
</g>
</g>
<!-- AbsoluteValuable&#45;&gt;Float -->
<g id="edge84" class="edge">
<path fill="none" stroke="#cccccc" d="M958.705,-115.691C956.299,-100.852 949.76,-73.5522 933,-58 902.843,-30.0153 855.841,-19.053 823.133,-14.7602"/>
<polygon fill="#cccccc" stroke="#cccccc" points="823.392,-11.2669 813.055,-13.5877 822.583,-18.22 823.392,-11.2669"/>
</g>
<!-- Float80 -->
<g id="node19" class="node">
<g id="a_node19"><a xlink:href="/v2.1/type/Float80/" target="_top">
<polygon fill="#999999" stroke="#999999" points="1098,-22 1044,-22 1044,-0 1098,-0 1098,-22"/>
<text text-anchor="middle" x="1071" y="-7.4" font-family="Helvetica,sans-Serif" font-size="12.00" fill="white">Float80</text>
</a>
</g>
</g>
<!-- AbsoluteValuable&#45;&gt;Float80 -->
<g id="edge85" class="edge">
<path fill="none" stroke="#cccccc" d="M968.013,-115.954C979.015,-102.356 999.642,-77.5446 1019,-58 1029.07,-47.8306 1040.99,-37.1978 1050.87,-28.7196"/>
<polygon fill="#cccccc" stroke="#cccccc" points="1053.24,-31.2975 1058.61,-22.1622 1048.72,-25.9571 1053.24,-31.2975"/>
</g>
<!-- AnyBidirectionalIndex -->
<g id="node2" class="node">
<g id="a_node2"><a xlink:href="/v2.1/type/AnyBidirectionalIndex/" target="_top">
<polygon fill="#999999" stroke="#999999" points="5103.55,-22 4978.45,-22 4978.45,-0 5103.55,-0 5103.55,-22"/>
<text text-anchor="middle" x="5041" y="-7.4" font-family="Helvetica,sans-Serif" font-size="12.00" fill="white">AnyBidirectionalIndex</text>
</a>
</g>
</g>
<!-- AnyForwardIndex -->
<g id="node3" class="node">
<g id="a_node3"><a xlink:href="/v2.1/type/AnyForwardIndex/" target="_top">
<polygon fill="#999999" stroke="#999999" points="5438.03,-22 5333.97,-22 5333.97,-0 5438.03,-0 5438.03,-22"/>
<text text-anchor="middle" x="5386" y="-7.4" font-family="Helvetica,sans-Serif" font-size="12.00" fill="white">AnyForwardIndex</text>
</a>
</g>
</g>
<!-- AnyRandomAccessIndex -->
<g id="node4" class="node">
<g id="a_node4"><a xlink:href="/v2.1/type/AnyRandomAccessIndex/" target="_top">
<polygon fill="#999999" stroke="#999999" points="2626.05,-22 2481.95,-22 2481.95,-0 2626.05,-0 2626.05,-22"/>
<text text-anchor="middle" x="2554" y="-7.4" font-family="Helvetica,sans-Serif" font-size="12.00" fill="white">AnyRandomAccessIndex</text>
</a>
</g>
</g>
<!-- AutoreleasingUnsafeMutablePointer -->
<g id="node5" class="node">
<g id="a_node5"><a xlink:href="/v2.1/type/AutoreleasingUnsafeMutablePointer/" target="_top">
<polygon fill="#999999" stroke="#999999" points="202.088,-22 -0.0879076,-22 -0.0879076,-0 202.088,-0 202.088,-22"/>
<text text-anchor="middle" x="101" y="-7.4" font-family="Helvetica,sans-Serif" font-size="12.00" fill="white">AutoreleasingUnsafeMutablePointer</text>
</a>
</g>
</g>
<!-- BidirectionalIndexType -->
<g id="node6" class="node">
<g id="a_node6"><a xlink:href="/v2.1/protocol/BidirectionalIndexType/" target="_top">
<path fill="#999999" stroke="#999999" d="M4600.73,-254C4600.73,-254 4485.27,-254 4485.27,-254 4481.61,-254 4477.94,-250.333 4477.94,-246.667 4477.94,-246.667 4477.94,-239.333 4477.94,-239.333 4477.94,-235.667 4481.61,-232 4485.27,-232 4485.27,-232 4600.73,-232 4600.73,-232 4604.39,-232 4608.06,-235.667 4608.06,-239.333 4608.06,-239.333 4608.06,-246.667 4608.06,-246.667 4608.06,-250.333 4604.39,-254 4600.73,-254"/>
<text text-anchor="middle" x="4543" y="-239.4" font-family="Helvetica,sans-Serif" font-size="12.00" fill="white">BidirectionalIndexType</text>
</a>
</g>
</g>
<!-- BidirectionalIndexType&#45;&gt;AnyBidirectionalIndex -->
<g id="edge142" class="edge">
<path fill="none" stroke="#cccccc" d="M4564.85,-231.962C4585.12,-222.651 4616.1,-208.404 4643,-196 4779.72,-132.953 4942.73,-57.502 5009.82,-26.4415"/>
<polygon fill="#cccccc" stroke="#cccccc" points="5011.4,-29.5655 5019,-22.1876 5008.46,-23.2134 5011.4,-29.5655"/>
</g>
<!-- FlattenBidirectionalCollectionIndex -->
<g id="node16" class="node">
<g id="a_node16"><a xlink:href="/v2.1/type/FlattenBidirectionalCollectionIndex/" target="_top">
<polygon fill="#999999" stroke="#999999" points="5316.08,-22 5121.92,-22 5121.92,-0 5316.08,-0 5316.08,-22"/>
<text text-anchor="middle" x="5219" y="-7.4" font-family="Helvetica,sans-Serif" font-size="12.00" fill="white">FlattenBidirectionalCollectionIndex</text>
</a>
</g>
</g>
<!-- BidirectionalIndexType&#45;&gt;FlattenBidirectionalCollectionIndex -->
<g id="edge143" class="edge">
<path fill="none" stroke="#cccccc" d="M4572.48,-231.969C4680.74,-195.135 5056.46,-67.3023 5179.59,-25.409"/>
<polygon fill="#cccccc" stroke="#cccccc" points="5181.02,-28.6181 5189.36,-22.0835 5178.77,-21.9911 5181.02,-28.6181"/>
</g>
<!-- RandomAccessIndexType -->
<g id="node36" class="node">
<g id="a_node36"><a xlink:href="/v2.1/protocol/RandomAccessIndexType/" target="_top">
<path fill="#999999" stroke="#999999" d="M2677.23,-196C2677.23,-196 2542.77,-196 2542.77,-196 2539.11,-196 2535.44,-192.333 2535.44,-188.667 2535.44,-188.667 2535.44,-181.333 2535.44,-181.333 2535.44,-177.667 2539.11,-174 2542.77,-174 2542.77,-174 2677.23,-174 2677.23,-174 2680.89,-174 2684.56,-177.667 2684.56,-181.333 2684.56,-181.333 2684.56,-188.667 2684.56,-188.667 2684.56,-192.333 2680.89,-196 2677.23,-196"/>
<text text-anchor="middle" x="2610" y="-181.4" font-family="Helvetica,sans-Serif" font-size="12.00" fill="white">RandomAccessIndexType</text>
</a>
</g>
</g>
<!-- BidirectionalIndexType&#45;&gt;RandomAccessIndexType -->
<g id="edge144" class="edge">
<path fill="none" stroke="#cccccc" d="M4477.86,-240.113C4188.59,-231.733 3020.36,-197.888 2694.67,-188.453"/>
<polygon fill="#cccccc" stroke="#cccccc" points="2694.46,-184.945 2684.36,-188.154 2694.25,-191.942 2694.46,-184.945"/>
</g>
<!-- ReverseIndex -->
<g id="node38" class="node">
<g id="a_node38"><a xlink:href="/v2.1/type/ReverseIndex/" target="_top">
<polygon fill="#999999" stroke="#999999" points="4803.03,-22 4718.97,-22 4718.97,-0 4803.03,-0 4803.03,-22"/>
<text text-anchor="middle" x="4761" y="-7.4" font-family="Helvetica,sans-Serif" font-size="12.00" fill="white">ReverseIndex</text>
</a>
</g>
</g>
<!-- BidirectionalIndexType&#45;&gt;ReverseIndex -->
<g id="edge145" class="edge">
<path fill="none" stroke="#cccccc" d="M4552.65,-231.82C4586.7,-195.899 4701.48,-74.7927 4744.52,-29.3871"/>
<polygon fill="#cccccc" stroke="#cccccc" points="4747.12,-31.7277 4751.46,-22.062 4742.04,-26.9122 4747.12,-31.7277"/>
</g>
<!-- ReverseIndexType -->
<g id="node39" class="node">
<g id="a_node39"><a xlink:href="/v2.1/protocol/ReverseIndexType/" target="_top">
<path fill="#999999" stroke="#999999" d="M4590.71,-80C4590.71,-80 4495.29,-80 4495.29,-80 4491.62,-80 4487.95,-76.3333 4487.95,-72.6667 4487.95,-72.6667 4487.95,-65.3333 4487.95,-65.3333 4487.95,-61.6667 4491.62,-58 4495.29,-58 4495.29,-58 4590.71,-58 4590.71,-58 4594.38,-58 4598.05,-61.6667 4598.05,-65.3333 4598.05,-65.3333 4598.05,-72.6667 4598.05,-72.6667 4598.05,-76.3333 4594.38,-80 4590.71,-80"/>
<text text-anchor="middle" x="4543" y="-65.4" font-family="Helvetica,sans-Serif" font-size="12.00" fill="white">ReverseIndexType</text>
</a>
</g>
</g>
<!-- BidirectionalIndexType&#45;&gt;ReverseIndexType -->
<g id="edge146" class="edge">
<path fill="none" stroke="#cccccc" d="M4543,-231.756C4543,-204.097 4543,-127.509 4543,-90.5186"/>
<polygon fill="#cccccc" stroke="#cccccc" points="4546.5,-90.408 4543,-80.4081 4539.5,-90.4081 4546.5,-90.408"/>
</g>
<!-- String.CharacterView.Index -->
<g id="node48" class="node">
<g id="a_node48"><a xlink:href="/v2.1/type/String.CharacterView.Index/" target="_top">
<polygon fill="#999999" stroke="#999999" points="4165.4,-22 4010.6,-22 4010.6,-0 4165.4,-0 4165.4,-22"/>
<text text-anchor="middle" x="4088" y="-7.4" font-family="Helvetica,sans-Serif" font-size="12.00" fill="white">String.CharacterView.Index</text>
</a>
</g>
</g>
<!-- BidirectionalIndexType&#45;&gt;String.CharacterView.Index -->
<g id="edge147" class="edge">
<path fill="none" stroke="#cccccc" d="M4531.96,-231.85C4497.61,-200.818 4388.44,-106.384 4281,-58 4245.26,-41.9045 4203.15,-31.0289 4167.41,-23.913"/>
<polygon fill="#cccccc" stroke="#cccccc" points="4167.99,-20.4602 4157.5,-22.0045 4166.66,-27.3337 4167.99,-20.4602"/>
</g>
<!-- String.UTF16View.Index -->
<g id="node49" class="node">
<g id="a_node49"><a xlink:href="/v2.1/type/String.UTF16View.Index/" target="_top">
<polygon fill="#999999" stroke="#999999" points="4960.39,-22 4821.61,-22 4821.61,-0 4960.39,-0 4960.39,-22"/>
<text text-anchor="middle" x="4891" y="-7.4" font-family="Helvetica,sans-Serif" font-size="12.00" fill="white">String.UTF16View.Index</text>
</a>
</g>
</g>
<!-- BidirectionalIndexType&#45;&gt;String.UTF16View.Index -->
<g id="edge149" class="edge">
<path fill="none" stroke="#cccccc" d="M4558.4,-231.82C4613.43,-195.452 4800.56,-71.7707 4867.2,-27.7304"/>
<polygon fill="#cccccc" stroke="#cccccc" points="4869.36,-30.4957 4875.78,-22.062 4865.5,-24.6559 4869.36,-30.4957"/>
</g>
<!-- String.UnicodeScalarView.Index -->
<g id="node51" class="node">
<g id="a_node51"><a xlink:href="/v2.1/type/String.UnicodeScalarView.Index/" target="_top">
<polygon fill="#999999" stroke="#999999" points="4549.92,-22 4370.08,-22 4370.08,-0 4549.92,-0 4549.92,-22"/>
<text text-anchor="middle" x="4460" y="-7.4" font-family="Helvetica,sans-Serif" font-size="12.00" fill="white">String.UnicodeScalarView.Index</text>
</a>
</g>
</g>
<!-- BidirectionalIndexType&#45;&gt;String.UnicodeScalarView.Index -->
<g id="edge148" class="edge">
<path fill="none" stroke="#cccccc" d="M4538.58,-231.901C4527.63,-206.626 4498.66,-138.473 4479,-80 4473.64,-64.0481 4468.56,-45.6475 4465.01,-32.0131"/>
<polygon fill="#cccccc" stroke="#cccccc" points="4468.38,-31.0591 4462.51,-22.2383 4461.59,-32.7938 4468.38,-31.0591"/>
</g>
<!-- Bit -->
<g id="node7" class="node">
<g id="a_node7"><a xlink:href="/v2.1/type/Bit/" target="_top">
<polygon fill="#999999" stroke="#999999" points="2064,-22 2010,-22 2010,-0 2064,-0 2064,-22"/>
<text text-anchor="middle" x="2037" y="-7.4" font-family="Helvetica,sans-Serif" font-size="12.00" fill="white">Bit</text>
</a>
</g>
</g>
<!-- Bool -->
<g id="node8" class="node">
<g id="a_node8"><a xlink:href="/v2.1/type/Bool/" target="_top">
<polygon fill="#999999" stroke="#999999" points="3806,-22 3752,-22 3752,-0 3806,-0 3806,-22"/>
<text text-anchor="middle" x="3779" y="-7.4" font-family="Helvetica,sans-Serif" font-size="12.00" fill="white">Bool</text>
</a>
</g>
</g>
<!-- COpaquePointer -->
<g id="node9" class="node">
<g id="a_node9"><a xlink:href="/v2.1/type/COpaquePointer/" target="_top">
<polygon fill="#999999" stroke="#999999" points="423.542,-22 324.458,-22 324.458,-0 423.542,-0 423.542,-22"/>
<text text-anchor="middle" x="374" y="-7.4" font-family="Helvetica,sans-Serif" font-size="12.00" fill="white">COpaquePointer</text>
</a>
</g>
</g>
<!-- Character -->
<g id="node10" class="node">
<g id="a_node10"><a xlink:href="/v2.1/type/Character/" target="_top">
<polygon fill="#999999" stroke="#999999" points="504.017,-22 441.983,-22 441.983,-0 504.017,-0 504.017,-22"/>
<text text-anchor="middle" x="473" y="-7.4" font-family="Helvetica,sans-Serif" font-size="12.00" fill="white">Character</text>
</a>
</g>
</g>
<!-- ClosedInterval -->
<g id="node11" class="node">
<g id="a_node11"><a xlink:href="/v2.1/type/ClosedInterval/" target="_top">
<polygon fill="#999999" stroke="#999999" points="306.03,-22 219.97,-22 219.97,-0 306.03,-0 306.03,-22"/>
<text text-anchor="middle" x="263" y="-7.4" font-family="Helvetica,sans-Serif" font-size="12.00" fill="white">ClosedInterval</text>
</a>
</g>
</g>
<!-- Comparable -->
<g id="node12" class="node">
<g id="a_node12"><a xlink:href="/v2.1/protocol/Comparable/" target="_top">
<path fill="#999999" stroke="#999999" d="M2326.19,-312C2326.19,-312 2265.81,-312 2265.81,-312 2262.14,-312 2258.48,-308.333 2258.48,-304.667 2258.48,-304.667 2258.48,-297.333 2258.48,-297.333 2258.48,-293.667 2262.14,-290 2265.81,-290 2265.81,-290 2326.19,-290 2326.19,-290 2329.86,-290 2333.52,-293.667 2333.52,-297.333 2333.52,-297.333 2333.52,-304.667 2333.52,-304.667 2333.52,-308.333 2329.86,-312 2326.19,-312"/>
<text text-anchor="middle" x="2296" y="-297.4" font-family="Helvetica,sans-Serif" font-size="12.00" fill="white">Comparable</text>
</a>
</g>
</g>
<!-- Comparable&#45;&gt;Bit -->
<g id="edge30" class="edge">
<path fill="none" stroke="#cccccc" d="M2258.52,-300.277C2183.68,-299.946 2019.95,-294.495 1985,-254 1928.12,-188.09 1993.83,-74.9429 2023.73,-30.5991"/>
<polygon fill="#cccccc" stroke="#cccccc" points="2026.71,-32.4416 2029.51,-22.2227 2020.95,-28.4666 2026.71,-32.4416"/>
</g>
<!-- Comparable&#45;&gt;Character -->
<g id="edge31" class="edge">
<path fill="none" stroke="#cccccc" d="M2258.64,-299.593C2024.27,-296.956 764.214,-281.534 688,-254 578.964,-214.608 506.046,-81.5621 481.839,-31.3761"/>
<polygon fill="#cccccc" stroke="#cccccc" points="484.963,-29.7945 477.533,-22.2411 478.631,-32.779 484.963,-29.7945"/>
</g>
<!-- DictionaryIndex -->
<g id="node13" class="node">
<g id="a_node13"><a xlink:href="/v2.1/type/DictionaryIndex/" target="_top">
<polygon fill="#999999" stroke="#999999" points="3992.03,-22 3899.97,-22 3899.97,-0 3992.03,-0 3992.03,-22"/>
<text text-anchor="middle" x="3946" y="-7.4" font-family="Helvetica,sans-Serif" font-size="12.00" fill="white">DictionaryIndex</text>
</a>
</g>
</g>
<!-- Comparable&#45;&gt;DictionaryIndex -->
<g id="edge32" class="edge">
<path fill="none" stroke="#cccccc" d="M2333.64,-299.693C2532.5,-297.929 3456.43,-287.955 3579,-254 3732.63,-211.441 3879.88,-77.23 3928.89,-29.2577"/>
<polygon fill="#cccccc" stroke="#cccccc" points="3931.49,-31.5999 3936.14,-22.0783 3926.57,-26.6239 3931.49,-31.5999"/>
</g>
<!-- Comparable&#45;&gt;Double -->
<g id="edge33" class="edge">
<path fill="none" stroke="#cccccc" d="M2258.37,-300.207C2035.38,-301.26 892.175,-304.161 745,-254 643.833,-219.52 602.833,-184.19 579,-80 576.82,-70.4684 576.36,-67.4146 579,-58 581.751,-48.1892 587.234,-38.3948 592.625,-30.3809"/>
<polygon fill="#cccccc" stroke="#cccccc" points="595.523,-32.3454 598.521,-22.1835 589.841,-28.2579 595.523,-32.3454"/>
</g>
<!-- Comparable&#45;&gt;Float -->
<g id="edge34" class="edge">
<path fill="none" stroke="#cccccc" d="M2258.34,-298.887C2050.73,-292.521 1050.99,-258.779 930,-196 859.268,-159.3 812.296,-70.5766 794.27,-31.2822"/>
<polygon fill="#cccccc" stroke="#cccccc" points="797.402,-29.7132 790.134,-22.0045 791.009,-32.5632 797.402,-29.7132"/>
</g>
<!-- Comparable&#45;&gt;Float80 -->
<g id="edge35" class="edge">
<path fill="none" stroke="#cccccc" d="M2258.24,-299.782C2120.56,-298.683 1645.98,-292.15 1500,-254 1329.23,-209.371 1288.16,-180.417 1143,-80 1121.76,-65.3093 1100.66,-44.4515 1086.85,-29.7189"/>
<polygon fill="#cccccc" stroke="#cccccc" points="1089.32,-27.2311 1079.97,-22.2423 1084.17,-31.971 1089.32,-27.2311"/>
</g>
<!-- Int -->
<g id="node25" class="node">
<g id="a_node25"><a xlink:href="/v2.1/type/Int/" target="_top">
<polygon fill="#999999" stroke="#999999" points="1364,-22 1310,-22 1310,-0 1364,-0 1364,-22"/>
<text text-anchor="middle" x="1337" y="-7.4" font-family="Helvetica,sans-Serif" font-size="12.00" fill="white">Int</text>
</a>
</g>
</g>
<!-- Comparable&#45;&gt;Int -->
<g id="edge36" class="edge">
<path fill="none" stroke="#cccccc" d="M2258.61,-300.053C2125.55,-299.884 1675.67,-296.135 1539,-254 1534.49,-252.609 1249.33,-84.1047 1247,-80 1231.85,-53.3433 1268.89,-33.8588 1299.95,-22.7437"/>
<polygon fill="#cccccc" stroke="#cccccc" points="1301.4,-25.9487 1309.75,-19.4305 1299.16,-19.3174 1301.4,-25.9487"/>
</g>
<!-- Int16 -->
<g id="node26" class="node">
<g id="a_node26"><a xlink:href="/v2.1/type/Int16/" target="_top">
<polygon fill="#999999" stroke="#999999" points="1929,-22 1875,-22 1875,-0 1929,-0 1929,-22"/>
<text text-anchor="middle" x="1902" y="-7.4" font-family="Helvetica,sans-Serif" font-size="12.00" fill="white">Int16</text>
</a>
</g>
</g>
<!-- Comparable&#45;&gt;Int16 -->
<g id="edge37" class="edge">
<path fill="none" stroke="#cccccc" d="M2258.41,-299.204C2184.95,-296.904 2025.92,-288.022 1985,-254 1916.06,-196.68 1904.23,-79.294 1902.32,-32.2041"/>
<polygon fill="#cccccc" stroke="#cccccc" points="1905.81,-31.9554 1902.02,-22.0629 1898.81,-32.1617 1905.81,-31.9554"/>
</g>
<!-- Int32 -->
<g id="node27" class="node">
<g id="a_node27"><a xlink:href="/v2.1/type/Int32/" target="_top">
<polygon fill="#999999" stroke="#999999" points="1668,-22 1614,-22 1614,-0 1668,-0 1668,-22"/>
<text text-anchor="middle" x="1641" y="-7.4" font-family="Helvetica,sans-Serif" font-size="12.00" fill="white">Int32</text>
</a>
</g>
</g>
<!-- Comparable&#45;&gt;Int32 -->
<g id="edge38" class="edge">
<path fill="none" stroke="#cccccc" d="M2258.62,-299.645C2165.83,-298.203 1917.83,-290.902 1715,-254 1692.13,-249.839 1527.97,-214.576 1514,-196 1483.35,-155.252 1474.77,-169.256 1573,-58 1583.96,-45.5858 1598.98,-34.9647 1612.11,-27.0664"/>
<polygon fill="#cccccc" stroke="#cccccc" points="1613.92,-30.0682 1620.83,-22.0447 1610.42,-24.0022 1613.92,-30.0682"/>
</g>
<!-- Int64 -->
<g id="node28" class="node">
<g id="a_node28"><a xlink:href="/v2.1/type/Int64/" target="_top">
<polygon fill="#999999" stroke="#999999" points="2214,-22 2160,-22 2160,-0 2214,-0 2214,-22"/>
<text text-anchor="middle" x="2187" y="-7.4" font-family="Helvetica,sans-Serif" font-size="12.00" fill="white">Int64</text>
</a>
</g>
</g>
<!-- Comparable&#45;&gt;Int64 -->
<g id="edge39" class="edge">
<path fill="none" stroke="#cccccc" d="M2266,-289.892C2228.89,-275.571 2167.38,-245.468 2141,-196 2111.4,-140.495 2151.59,-65.364 2173.9,-30.8088"/>
<polygon fill="#cccccc" stroke="#cccccc" points="2177.01,-32.451 2179.64,-22.1884 2171.19,-28.5695 2177.01,-32.451"/>
</g>
<!-- Int8 -->
<g id="node29" class="node">
<g id="a_node29"><a xlink:href="/v2.1/type/Int8/" target="_top">
<polygon fill="#999999" stroke="#999999" points="1554,-22 1500,-22 1500,-0 1554,-0 1554,-22"/>
<text text-anchor="middle" x="1527" y="-7.4" font-family="Helvetica,sans-Serif" font-size="12.00" fill="white">Int8</text>
</a>
</g>
</g>
<!-- Comparable&#45;&gt;Int8 -->
<g id="edge40" class="edge">
<path fill="none" stroke="#cccccc" d="M2258.24,-299.323C2133.87,-296.801 1738.05,-286.368 1615,-254 1557.33,-238.829 1536.37,-237.964 1494,-196 1453.18,-155.58 1450,-135.952 1437,-80 1434.79,-70.4761 1431.9,-66.3401 1437,-58 1448.6,-39.0497 1470.74,-27.5923 1490.15,-20.8516"/>
<polygon fill="#cccccc" stroke="#cccccc" points="1491.22,-24.184 1499.7,-17.8255 1489.11,-17.5113 1491.22,-24.184"/>
</g>
<!-- IntegerArithmeticType -->
<g id="node30" class="node">
<g id="a_node30"><a xlink:href="/v2.1/protocol/IntegerArithmeticType/" target="_top">
<path fill="#999999" stroke="#999999" d="M2112.71,-254C2112.71,-254 2001.29,-254 2001.29,-254 1997.62,-254 1993.96,-250.333 1993.96,-246.667 1993.96,-246.667 1993.96,-239.333 1993.96,-239.333 1993.96,-235.667 1997.62,-232 2001.29,-232 2001.29,-232 2112.71,-232 2112.71,-232 2116.38,-232 2120.04,-235.667 2120.04,-239.333 2120.04,-239.333 2120.04,-246.667 2120.04,-246.667 2120.04,-250.333 2116.38,-254 2112.71,-254"/>
<text text-anchor="middle" x="2057" y="-239.4" font-family="Helvetica,sans-Serif" font-size="12.00" fill="white">IntegerArithmeticType</text>
</a>
</g>
</g>
<!-- Comparable&#45;&gt;IntegerArithmeticType -->
<g id="edge41" class="edge">
<path fill="none" stroke="#cccccc" d="M2258.66,-291.25C2218.62,-281.87 2154.74,-266.902 2109.63,-256.331"/>
<polygon fill="#cccccc" stroke="#cccccc" points="2110.26,-252.885 2099.73,-254.012 2108.67,-259.701 2110.26,-252.885"/>
</g>
<!-- ObjectIdentifier -->
<g id="node34" class="node">
<g id="a_node34"><a xlink:href="/v2.1/type/ObjectIdentifier/" target="_top">
<polygon fill="#999999" stroke="#999999" points="2464.03,-22 2373.97,-22 2373.97,-0 2464.03,-0 2464.03,-22"/>
<text text-anchor="middle" x="2419" y="-7.4" font-family="Helvetica,sans-Serif" font-size="12.00" fill="white">ObjectIdentifier</text>
</a>
</g>
</g>
<!-- Comparable&#45;&gt;ObjectIdentifier -->
<g id="edge42" class="edge">
<path fill="none" stroke="#cccccc" d="M2291.63,-289.776C2282.34,-268.196 2259.8,-216.481 2239,-174 2231.05,-157.751 2224.35,-155.561 2220,-138 2217.65,-128.509 2214.93,-124.363 2220,-116 2251.02,-64.7938 2316.44,-37.5971 2363.82,-24.0315"/>
<polygon fill="#cccccc" stroke="#cccccc" points="2364.92,-27.3593 2373.64,-21.3399 2363.07,-20.6083 2364.92,-27.3593"/>
</g>
<!-- SetIndex -->
<g id="node43" class="node">
<g id="a_node43"><a xlink:href="/v2.1/type/SetIndex/" target="_top">
<polygon fill="#999999" stroke="#999999" points="3881.52,-22 3824.48,-22 3824.48,-0 3881.52,-0 3881.52,-22"/>
<text text-anchor="middle" x="3853" y="-7.4" font-family="Helvetica,sans-Serif" font-size="12.00" fill="white">SetIndex</text>
</a>
</g>
</g>
<!-- Comparable&#45;&gt;SetIndex -->
<g id="edge43" class="edge">
<path fill="none" stroke="#cccccc" d="M2333.4,-299.77C2527.92,-298.417 3419.65,-290.271 3537,-254 3674.33,-211.554 3797.12,-78.312 3838.33,-29.849"/>
<polygon fill="#cccccc" stroke="#cccccc" points="3841.1,-31.984 3844.85,-22.0745 3835.74,-27.4834 3841.1,-31.984"/>
</g>
<!-- SignedNumberType -->
<g id="node45" class="node">
<g id="a_node45"><a xlink:href="/v2.1/protocol/SignedNumberType/" target="_top">
<path fill="#999999" stroke="#999999" d="M1631.72,-196C1631.72,-196 1530.28,-196 1530.28,-196 1526.62,-196 1522.95,-192.333 1522.95,-188.667 1522.95,-188.667 1522.95,-181.333 1522.95,-181.333 1522.95,-177.667 1526.62,-174 1530.28,-174 1530.28,-174 1631.72,-174 1631.72,-174 1635.38,-174 1639.05,-177.667 1639.05,-181.333 1639.05,-181.333 1639.05,-188.667 1639.05,-188.667 1639.05,-192.333 1635.38,-196 1631.72,-196"/>
<text text-anchor="middle" x="1581" y="-181.4" font-family="Helvetica,sans-Serif" font-size="12.00" fill="white">SignedNumberType</text>
</a>
</g>
</g>
<!-- Comparable&#45;&gt;SignedNumberType -->
<g id="edge44" class="edge">
<path fill="none" stroke="#cccccc" d="M2258.53,-299.005C2176.14,-296.267 1973.33,-286.511 1807,-254 1738.77,-240.664 1661.71,-215.136 1617.49,-199.434"/>
<polygon fill="#cccccc" stroke="#cccccc" points="1618.64,-196.126 1608.04,-196.05 1616.28,-202.717 1618.64,-196.126"/>
</g>
<!-- Strideable -->
<g id="node46" class="node">
<g id="a_node46"><a xlink:href="/v2.1/protocol/Strideable/" target="_top">
<path fill="#999999" stroke="#999999" d="M810.693,-254C810.693,-254 761.307,-254 761.307,-254 757.64,-254 753.974,-250.333 753.974,-246.667 753.974,-246.667 753.974,-239.333 753.974,-239.333 753.974,-235.667 757.64,-232 761.307,-232 761.307,-232 810.693,-232 810.693,-232 814.36,-232 818.026,-235.667 818.026,-239.333 818.026,-239.333 818.026,-246.667 818.026,-246.667 818.026,-250.333 814.36,-254 810.693,-254"/>
<text text-anchor="middle" x="786" y="-239.4" font-family="Helvetica,sans-Serif" font-size="12.00" fill="white">Strideable</text>
</a>
</g>
</g>
<!-- Comparable&#45;&gt;Strideable -->
<g id="edge45" class="edge">
<path fill="none" stroke="#cccccc" d="M2258.59,-299.134C2099.62,-295.371 1464.44,-279.465 943,-254 904.153,-252.103 859.944,-249.222 828.359,-247.039"/>
<polygon fill="#cccccc" stroke="#cccccc" points="828.377,-243.532 818.158,-246.328 827.89,-250.515 828.377,-243.532"/>
</g>
<!-- String -->
<g id="node47" class="node">
<g id="a_node47"><a xlink:href="/v2.1/type/String/" target="_top">
<polygon fill="#999999" stroke="#999999" points="3628,-22 3574,-22 3574,-0 3628,-0 3628,-22"/>
<text text-anchor="middle" x="3601" y="-7.4" font-family="Helvetica,sans-Serif" font-size="12.00" fill="white">String</text>
</a>
</g>
</g>
<!-- Comparable&#45;&gt;String -->
<g id="edge46" class="edge">
<path fill="none" stroke="#cccccc" d="M2333.36,-300.064C2503.32,-300.112 3204.48,-297.612 3419,-254 3518.19,-233.834 3583.8,-234.294 3615,-138 3626.75,-101.725 3616.19,-56.8409 3608.13,-31.6139"/>
<polygon fill="#cccccc" stroke="#cccccc" points="3611.42,-30.4357 3604.9,-22.0883 3604.79,-32.6826 3611.42,-30.4357"/>
</g>
<!-- Comparable&#45;&gt;String.CharacterView.Index -->
<g id="edge53" class="edge">
<path fill="none" stroke="#cccccc" d="M2333.58,-299.624C2536.41,-297.471 3495.93,-285.67 3624,-254 3809.32,-208.173 4003.01,-74.5463 4066.49,-28.1186"/>
<polygon fill="#cccccc" stroke="#cccccc" points="4068.59,-30.9149 4074.56,-22.1644 4064.44,-25.2801 4068.59,-30.9149"/>
</g>
<!-- Comparable&#45;&gt;String.UTF16View.Index -->
<g id="edge55" class="edge">
<path fill="none" stroke="#cccccc" d="M2333.55,-299.652C2531.62,-297.685 3456.6,-286.866 3741,-254 4130.99,-208.932 4223.6,-164.388 4607,-80 4689.44,-61.8543 4784.78,-38.547 4841.37,-24.4684"/>
<polygon fill="#cccccc" stroke="#cccccc" points="4842.27,-27.85 4851.13,-22.0355 4840.58,-21.0577 4842.27,-27.85"/>
</g>
<!-- Comparable&#45;&gt;String.UnicodeScalarView.Index -->
<g id="edge54" class="edge">
<path fill="none" stroke="#cccccc" d="M2333.39,-300.084C2525.61,-300.313 3403.84,-298.843 3672,-254 3972.79,-203.701 4318.83,-69.4568 4426.37,-25.8741"/>
<polygon fill="#cccccc" stroke="#cccccc" points="4427.79,-29.074 4435.73,-22.0627 4425.15,-22.5904 4427.79,-29.074"/>
</g>
<!-- UInt -->
<g id="node52" class="node">
<g id="a_node52"><a xlink:href="/v2.1/type/UInt/" target="_top">
<polygon fill="#999999" stroke="#999999" points="3304,-22 3250,-22 3250,-0 3304,-0 3304,-22"/>
<text text-anchor="middle" x="3277" y="-7.4" font-family="Helvetica,sans-Serif" font-size="12.00" fill="white">UInt</text>
</a>
</g>
</g>
<!-- Comparable&#45;&gt;UInt -->
<g id="edge47" class="edge">
<path fill="none" stroke="#cccccc" d="M2333.35,-300.314C2487.87,-301.291 3077.26,-301.748 3256,-254 3310.54,-239.43 3339.58,-244.177 3369,-196 3401.57,-142.665 3382.04,-105.988 3342,-58 3331.81,-45.7848 3317.65,-35.2569 3305.14,-27.3674"/>
<polygon fill="#cccccc" stroke="#cccccc" points="3306.78,-24.2689 3296.41,-22.1025 3303.17,-30.2635 3306.78,-24.2689"/>
</g>
<!-- UInt16 -->
<g id="node53" class="node">
<g id="a_node53"><a xlink:href="/v2.1/type/UInt16/" target="_top">
<polygon fill="#999999" stroke="#999999" points="3376,-22 3322,-22 3322,-0 3376,-0 3376,-22"/>
<text text-anchor="middle" x="3349" y="-7.4" font-family="Helvetica,sans-Serif" font-size="12.00" fill="white">UInt16</text>
</a>
</g>
</g>
<!-- Comparable&#45;&gt;UInt16 -->
<g id="edge48" class="edge">
<path fill="none" stroke="#cccccc" d="M2333.47,-299.584C2505.65,-297.501 3216.63,-286.956 3310,-254 3351.07,-239.502 3366.71,-233.421 3389,-196 3402.32,-173.645 3395.22,-163.961 3397,-138 3397.67,-128.245 3399.1,-125.55 3397,-116 3390.07,-84.453 3372.61,-51.0725 3360.77,-30.884"/>
<polygon fill="#cccccc" stroke="#cccccc" points="3363.64,-28.8608 3355.49,-22.0988 3357.65,-32.4713 3363.64,-28.8608"/>
</g>
<!-- UInt32 -->
<g id="node54" class="node">
<g id="a_node54"><a xlink:href="/v2.1/type/UInt32/" target="_top">
<polygon fill="#999999" stroke="#999999" points="3556,-22 3502,-22 3502,-0 3556,-0 3556,-22"/>
<text text-anchor="middle" x="3529" y="-7.4" font-family="Helvetica,sans-Serif" font-size="12.00" fill="white">UInt32</text>
</a>
</g>
</g>
<!-- Comparable&#45;&gt;UInt32 -->
<g id="edge49" class="edge">
<path fill="none" stroke="#cccccc" d="M2333.55,-300.324C2497.43,-301.436 3150.62,-302.669 3349,-254 3467.18,-225.007 3531.68,-240.665 3597,-138 3621.05,-100.206 3577.54,-53.1833 3549.67,-28.6538"/>
<polygon fill="#cccccc" stroke="#cccccc" points="3551.84,-25.9009 3541.96,-22.0778 3547.3,-31.2283 3551.84,-25.9009"/>
</g>
<!-- UInt64 -->
<g id="node55" class="node">
<g id="a_node55"><a xlink:href="/v2.1/type/UInt64/" target="_top">
<polygon fill="#999999" stroke="#999999" points="2948,-22 2894,-22 2894,-0 2948,-0 2948,-22"/>
<text text-anchor="middle" x="2921" y="-7.4" font-family="Helvetica,sans-Serif" font-size="12.00" fill="white">UInt64</text>
</a>
</g>
</g>
<!-- Comparable&#45;&gt;UInt64 -->
<g id="edge50" class="edge">
<path fill="none" stroke="#cccccc" d="M2333.7,-298.999C2478.3,-294.982 2990.53,-279.025 3014,-254 3030.3,-236.618 3085.58,-287.234 3008,-116 2998.53,-95.1009 2986.07,-97.3013 2971,-80 2957.1,-64.047 2942.98,-44.46 2933.3,-30.4119"/>
<polygon fill="#cccccc" stroke="#cccccc" points="2936.15,-28.3756 2927.63,-22.074 2930.36,-32.3115 2936.15,-28.3756"/>
</g>
<!-- UInt8 -->
<g id="node56" class="node">
<g id="a_node56"><a xlink:href="/v2.1/type/UInt8/" target="_top">
<polygon fill="#999999" stroke="#999999" points="3230,-22 3176,-22 3176,-0 3230,-0 3230,-22"/>
<text text-anchor="middle" x="3203" y="-7.4" font-family="Helvetica,sans-Serif" font-size="12.00" fill="white">UInt8</text>
</a>
</g>
</g>
<!-- Comparable&#45;&gt;UInt8 -->
<g id="edge51" class="edge">
<path fill="none" stroke="#cccccc" d="M2333.38,-299.984C2521.42,-299.42 3355,-290.998 3355,-186 3355,-186 3355,-186 3355,-126 3355,-68.6531 3284.9,-36.6203 3239.91,-21.9673"/>
<polygon fill="#cccccc" stroke="#cccccc" points="3240.76,-18.5671 3230.17,-18.9374 3238.68,-25.2509 3240.76,-18.5671"/>
</g>
<!-- UnicodeScalar -->
<g id="node57" class="node">
<g id="a_node57"><a xlink:href="/v2.1/type/UnicodeScalar/" target="_top">
<polygon fill="#999999" stroke="#999999" points="3734.03,-22 3645.97,-22 3645.97,-0 3734.03,-0 3734.03,-22"/>
<text text-anchor="middle" x="3690" y="-7.4" font-family="Helvetica,sans-Serif" font-size="12.00" fill="white">UnicodeScalar</text>
</a>
</g>
</g>
<!-- Comparable&#45;&gt;UnicodeScalar -->
<g id="edge52" class="edge">
<path fill="none" stroke="#cccccc" d="M2333.62,-299.453C2523.41,-296.571 3371.14,-282.204 3485,-254 3542.89,-239.661 3564.23,-238.562 3606,-196 3653.03,-148.077 3676.67,-69.0865 3685.62,-32.178"/>
<polygon fill="#cccccc" stroke="#cccccc" points="3689.1,-32.6869 3687.94,-22.1556 3682.28,-31.1108 3689.1,-32.6869"/>
</g>
<!-- Equatable -->
<g id="node15" class="node">
<g id="a_node15"><a xlink:href="/v2.1/protocol/Equatable/" target="_top">
<path fill="#ee543d" stroke="#ee543d" d="M3331.7,-428C3331.7,-428 3282.3,-428 3282.3,-428 3278.63,-428 3274.96,-424.333 3274.96,-420.667 3274.96,-420.667 3274.96,-413.333 3274.96,-413.333 3274.96,-409.667 3278.63,-406 3282.3,-406 3282.3,-406 3331.7,-406 3331.7,-406 3335.37,-406 3339.04,-409.667 3339.04,-413.333 3339.04,-413.333 3339.04,-420.667 3339.04,-420.667 3339.04,-424.333 3335.37,-428 3331.7,-428"/>
<text text-anchor="middle" x="3307" y="-413.4" font-family="Helvetica,sans-Serif" font-size="12.00" fill="white">Equatable</text>
</a>
</g>
</g>
<!-- Equatable&#45;&gt;AutoreleasingUnsafeMutablePointer -->
<g id="edge1" class="edge">
<path fill="none" stroke="#cccccc" d="M3274.8,-415.834C2959.57,-414.174 432.91,-399.951 278,-370 195.26,-354.002 101,-386.272 101,-302 101,-302 101,-302 101,-126 101,-93.1536 101,-54.9837 101,-32.197"/>
<polygon fill="#cccccc" stroke="#cccccc" points="104.5,-32.0648 101,-22.0648 97.5001,-32.0648 104.5,-32.0648"/>
</g>
<!-- Equatable&#45;&gt;Bool -->
<g id="edge2" class="edge">
<path fill="none" stroke="#cccccc" d="M3339.29,-415.558C3459.94,-413.651 3883.99,-404.583 4014,-370 4080.46,-352.321 4153,-370.774 4153,-302 4153,-302 4153,-302 4153,-184 4153,-147.152 3910.27,-58.0456 3815.9,-24.7947"/>
<polygon fill="#cccccc" stroke="#cccccc" points="3816.79,-21.3974 3806.2,-21.3877 3814.47,-28.0023 3816.79,-21.3974"/>
</g>
<!-- Equatable&#45;&gt;COpaquePointer -->
<g id="edge3" class="edge">
<path fill="none" stroke="#cccccc" d="M3274.72,-415.863C2958.83,-414.48 429.578,-402.406 360,-370 323.729,-353.107 301,-342.012 301,-302 301,-302 301,-302 301,-126 301,-86.44 332.561,-49.6162 354.179,-29.0341"/>
<polygon fill="#cccccc" stroke="#cccccc" points="356.614,-31.5503 361.617,-22.211 351.882,-26.392 356.614,-31.5503"/>
</g>
<!-- Equatable&#45;&gt;Character -->
<g id="edge4" class="edge">
<path fill="none" stroke="#cccccc" d="M3274.55,-415.88C2969.93,-414.704 619.92,-404.527 477,-370 410.537,-353.943 339,-370.375 339,-302 339,-302 339,-302 339,-126 339,-75.6324 394.601,-42.8513 434.172,-25.8991"/>
<polygon fill="#cccccc" stroke="#cccccc" points="435.674,-29.066 443.593,-22.0277 433.013,-22.5913 435.674,-29.066"/>
</g>
<!-- Equatable&#45;&gt;ClosedInterval -->
<g id="edge5" class="edge">
<path fill="none" stroke="#cccccc" d="M3274.74,-415.888C2956.34,-414.74 386.901,-404.417 317,-370 282.377,-352.953 263,-340.593 263,-302 263,-302 263,-302 263,-126 263,-93.1536 263,-54.9837 263,-32.197"/>
<polygon fill="#cccccc" stroke="#cccccc" points="266.5,-32.0648 263,-22.0648 259.5,-32.0648 266.5,-32.0648"/>
</g>
<!-- Equatable&#45;&gt;Comparable -->
<g id="edge6" class="edge">
<path fill="none" stroke="#cccccc" d="M3274.79,-412.368C3127.59,-395.769 2518.51,-327.09 2343.33,-307.337"/>
<polygon fill="#cccccc" stroke="#cccccc" points="2343.71,-303.858 2333.38,-306.215 2342.93,-310.814 2343.71,-303.858"/>
</g>
<!-- Equatable&#45;&gt;Double -->
<g id="edge7" class="edge">
<path fill="none" stroke="#cccccc" d="M3274.7,-415.917C2976.36,-415.091 708.882,-407.586 572,-370 513.259,-353.871 453,-362.915 453,-302 453,-302 453,-302 453,-126 453,-68.0144 524.403,-36.1395 569.969,-21.7019"/>
<polygon fill="#cccccc" stroke="#cccccc" points="571.264,-24.9669 579.822,-18.7216 569.237,-18.2667 571.264,-24.9669"/>
</g>
<!-- Equatable&#45;&gt;Float -->
<g id="edge8" class="edge">
<path fill="none" stroke="#cccccc" d="M3274.63,-416.109C3025.93,-416.84 1415.31,-419.582 931,-370 767.279,-353.239 567,-466.577 567,-302 567,-302 567,-302 567,-242 567,-213.084 714.056,-77.1161 767.159,-28.9589"/>
<polygon fill="#cccccc" stroke="#cccccc" points="769.77,-31.3173 774.839,-22.0137 765.074,-26.1256 769.77,-31.3173"/>
</g>
<!-- Equatable&#45;&gt;Float80 -->
<g id="edge9" class="edge">
<path fill="none" stroke="#cccccc" d="M3274.93,-415.873C3022.1,-414.8 1354.12,-406.369 1134,-370 1035.12,-353.663 919,-402.221 919,-302 919,-302 919,-302 919,-242 919,-170.75 1002.73,-198.1 1041,-138 1062.04,-104.955 1068.34,-58.5318 1070.21,-32.2435"/>
<polygon fill="#cccccc" stroke="#cccccc" points="1073.72,-32.185 1070.79,-22.0043 1066.73,-31.7921 1073.72,-32.185"/>
</g>
<!-- FloatingPointClassification -->
<g id="node20" class="node">
<g id="a_node20"><a xlink:href="/v2.1/type/FloatingPointClassification/" target="_top">
<polygon fill="#999999" stroke="#999999" points="5862.05,-22 5711.95,-22 5711.95,-0 5862.05,-0 5862.05,-22"/>
<text text-anchor="middle" x="5787" y="-7.4" font-family="Helvetica,sans-Serif" font-size="12.00" fill="white">FloatingPointClassification</text>
</a>
</g>
</g>
<!-- Equatable&#45;&gt;FloatingPointClassification -->
<g id="edge10" class="edge">
<path fill="none" stroke="#cccccc" d="M3339.27,-416.282C3521.54,-417.65 4440.69,-421.589 5189,-370 5322.43,-360.801 5787,-435.745 5787,-302 5787,-302 5787,-302 5787,-126 5787,-93.1536 5787,-54.9837 5787,-32.197"/>
<polygon fill="#cccccc" stroke="#cccccc" points="5790.5,-32.0648 5787,-22.0648 5783.5,-32.0648 5790.5,-32.0648"/>
</g>
<!-- HalfOpenInterval -->
<g id="node23" class="node">
<g id="a_node23"><a xlink:href="/v2.1/type/HalfOpenInterval/" target="_top">
<polygon fill="#999999" stroke="#999999" points="5980.04,-22 5879.96,-22 5879.96,-0 5980.04,-0 5980.04,-22"/>
<text text-anchor="middle" x="5930" y="-7.4" font-family="Helvetica,sans-Serif" font-size="12.00" fill="white">HalfOpenInterval</text>
</a>
</g>
</g>
<!-- Equatable&#45;&gt;HalfOpenInterval -->
<g id="edge11" class="edge">
<path fill="none" stroke="#cccccc" d="M3339.26,-415.899C3575.6,-415.074 5042.83,-408.448 5486,-370 5684.89,-352.745 5930,-501.634 5930,-302 5930,-302 5930,-302 5930,-126 5930,-93.1536 5930,-54.9837 5930,-32.197"/>
<polygon fill="#cccccc" stroke="#cccccc" points="5933.5,-32.0648 5930,-22.0648 5926.5,-32.0648 5933.5,-32.0648"/>
</g>
<!-- Hashable -->
<g id="node24" class="node">
<g id="a_node24"><a xlink:href="/v2.1/protocol/Hashable/" target="_top">
<path fill="#999999" stroke="#999999" d="M2997.69,-254C2997.69,-254 2952.31,-254 2952.31,-254 2948.64,-254 2944.97,-250.333 2944.97,-246.667 2944.97,-246.667 2944.97,-239.333 2944.97,-239.333 2944.97,-235.667 2948.64,-232 2952.31,-232 2952.31,-232 2997.69,-232 2997.69,-232 3001.36,-232 3005.03,-235.667 3005.03,-239.333 3005.03,-239.333 3005.03,-246.667 3005.03,-246.667 3005.03,-250.333 3001.36,-254 2997.69,-254"/>
<text text-anchor="middle" x="2975" y="-239.4" font-family="Helvetica,sans-Serif" font-size="12.00" fill="white">Hashable</text>
</a>
</g>
</g>
<!-- Equatable&#45;&gt;Hashable -->
<g id="edge12" class="edge">
<path fill="none" stroke="#cccccc" d="M3287.23,-405.756C3230.94,-376.598 3069.7,-293.061 3003.69,-258.865"/>
<polygon fill="#cccccc" stroke="#cccccc" points="3005.16,-255.683 2994.67,-254.191 3001.94,-261.898 3005.16,-255.683"/>
</g>
<!-- Equatable&#45;&gt;Int -->
<g id="edge13" class="edge">
<path fill="none" stroke="#cccccc" d="M3274.68,-416.004C3030.41,-415.942 1478.3,-413.812 1275,-370 1199.47,-353.723 1115,-379.267 1115,-302 1115,-302 1115,-302 1115,-184 1115,-91.4398 1237.09,-41.5716 1300.19,-21.9788"/>
<polygon fill="#cccccc" stroke="#cccccc" points="1301.21,-25.3253 1309.78,-19.0923 1299.19,-18.6221 1301.21,-25.3253"/>
</g>
<!-- Equatable&#45;&gt;Int16 -->
<g id="edge14" class="edge">
<path fill="none" stroke="#cccccc" d="M3274.96,-415.972C3102.47,-415.426 2283.63,-407.755 2053,-312 1960.55,-273.617 1941.07,-233.153 1910,-138 1898.32,-102.224 1898.71,-57.7566 1900.23,-32.3511"/>
<polygon fill="#cccccc" stroke="#cccccc" points="1903.74,-32.3459 1900.97,-22.1193 1896.76,-31.8405 1903.74,-32.3459"/>
</g>
<!-- Equatable&#45;&gt;Int32 -->
<g id="edge15" class="edge">
<path fill="none" stroke="#cccccc" d="M3274.87,-415.809C3025.59,-414.122 1410,-399.434 1410,-302 1410,-302 1410,-302 1410,-242 1410,-131.918 1543.36,-56.3355 1607.43,-26.3793"/>
<polygon fill="#cccccc" stroke="#cccccc" points="1609.08,-29.4717 1616.72,-22.1281 1606.17,-23.1065 1609.08,-29.4717"/>
</g>
<!-- Equatable&#45;&gt;Int64 -->
<g id="edge16" class="edge">
<path fill="none" stroke="#cccccc" d="M3274.98,-414.685C3081.03,-406.385 2068.82,-358.232 1985,-254 1914.76,-166.655 2086.19,-64.1781 2157.57,-26.6843"/>
<polygon fill="#cccccc" stroke="#cccccc" points="2159.28,-29.7413 2166.55,-22.0343 2156.06,-23.5256 2159.28,-29.7413"/>
</g>
<!-- Equatable&#45;&gt;Int8 -->
<g id="edge17" class="edge">
<path fill="none" stroke="#cccccc" d="M3274.89,-416.005C3067.72,-415.911 1917.39,-413.411 1569,-370 1432.47,-352.988 1267,-439.583 1267,-302 1267,-302 1267,-302 1267,-242 1267,-124.293 1418.34,-52.3144 1490.09,-24.8032"/>
<polygon fill="#cccccc" stroke="#cccccc" points="1491.53,-28.0027 1499.67,-21.2163 1489.07,-21.4478 1491.53,-28.0027"/>
</g>
<!-- ManagedBufferPointer -->
<g id="node33" class="node">
<g id="a_node33"><a xlink:href="/v2.1/type/ManagedBufferPointer/" target="_top">
<polygon fill="#999999" stroke="#999999" points="6127.4,-22 5998.6,-22 5998.6,-0 6127.4,-0 6127.4,-22"/>
<text text-anchor="middle" x="6063" y="-7.4" font-family="Helvetica,sans-Serif" font-size="12.00" fill="white">ManagedBufferPointer</text>
</a>
</g>
</g>
<!-- Equatable&#45;&gt;ManagedBufferPointer -->
<g id="edge18" class="edge">
<path fill="none" stroke="#cccccc" d="M3339.07,-416.165C3588.91,-417.337 5227.1,-422.892 5719,-370 5873.95,-353.339 6063,-457.847 6063,-302 6063,-302 6063,-302 6063,-126 6063,-93.1536 6063,-54.9837 6063,-32.197"/>
<polygon fill="#cccccc" stroke="#cccccc" points="6066.5,-32.0648 6063,-22.0648 6059.5,-32.0648 6066.5,-32.0648"/>
</g>
<!-- Range -->
<g id="node37" class="node">
<g id="a_node37"><a xlink:href="/v2.1/type/Range/" target="_top">
<polygon fill="#999999" stroke="#999999" points="6200,-22 6146,-22 6146,-0 6200,-0 6200,-22"/>
<text text-anchor="middle" x="6173" y="-7.4" font-family="Helvetica,sans-Serif" font-size="12.00" fill="white">Range</text>
</a>
</g>
</g>
<!-- Equatable&#45;&gt;Range -->
<g id="edge19" class="edge">
<path fill="none" stroke="#cccccc" d="M3339.27,-415.87C3619.36,-414.687 5634.26,-404.993 5900,-370 6023.97,-353.675 6173,-427.041 6173,-302 6173,-302 6173,-302 6173,-126 6173,-93.1536 6173,-54.9837 6173,-32.197"/>
<polygon fill="#cccccc" stroke="#cccccc" points="6176.5,-32.0648 6173,-22.0648 6169.5,-32.0648 6176.5,-32.0648"/>
</g>
<!-- SetAlgebraType -->
<g id="node42" class="node">
<g id="a_node42"><a xlink:href="/v2.1/protocol/SetAlgebraType/" target="_top">
<path fill="#999999" stroke="#999999" d="M3347.21,-370C3347.21,-370 3266.79,-370 3266.79,-370 3263.12,-370 3259.45,-366.333 3259.45,-362.667 3259.45,-362.667 3259.45,-355.333 3259.45,-355.333 3259.45,-351.667 3263.12,-348 3266.79,-348 3266.79,-348 3347.21,-348 3347.21,-348 3350.88,-348 3354.55,-351.667 3354.55,-355.333 3354.55,-355.333 3354.55,-362.667 3354.55,-362.667 3354.55,-366.333 3350.88,-370 3347.21,-370"/>
<text text-anchor="middle" x="3307" y="-355.4" font-family="Helvetica,sans-Serif" font-size="12.00" fill="white">SetAlgebraType</text>
</a>
</g>
</g>
<!-- Equatable&#45;&gt;SetAlgebraType -->
<g id="edge20" class="edge">
<path fill="none" stroke="#cccccc" d="M3307,-405.988C3307,-398.91 3307,-389.171 3307,-380.478"/>
<polygon fill="#cccccc" stroke="#cccccc" points="3310.5,-380.304 3307,-370.304 3303.5,-380.304 3310.5,-380.304"/>
</g>
<!-- Equatable&#45;&gt;String -->
<g id="edge21" class="edge">
<path fill="none" stroke="#cccccc" d="M3339.34,-415.263C3448.31,-412.51 3801.3,-401.332 3910,-370 3972.28,-352.05 4039,-366.811 4039,-302 4039,-302 4039,-302 4039,-242 4039,-151.711 3743.57,-54.5909 3637.97,-22.7611"/>
<polygon fill="#cccccc" stroke="#cccccc" points="3638.65,-19.3125 3628.07,-19.8012 3636.65,-26.0192 3638.65,-19.3125"/>
</g>
<!-- Equatable&#45;&gt;String.UTF16View.Index -->
<g id="edge29" class="edge">
<path fill="none" stroke="#cccccc" d="M3339.42,-415.99C3603.97,-415.7 5398,-409.761 5398,-302 5398,-302 5398,-302 5398,-126 5398,-103.776 5097.56,-48.2128 4959.23,-23.809"/>
<polygon fill="#cccccc" stroke="#cccccc" points="4959.61,-20.3226 4949.16,-22.0365 4958.4,-27.2167 4959.61,-20.3226"/>
</g>
<!-- Equatable&#45;&gt;UInt -->
<g id="edge22" class="edge">
<path fill="none" stroke="#cccccc" d="M3339.07,-413.593C3404.9,-408.223 3552.8,-393.826 3597,-370 3633,-350.593 3659,-342.899 3659,-302 3659,-302 3659,-302 3659,-242 3659,-179.588 3640.84,-160.426 3597,-116 3505.9,-23.6701 3445.17,-52.0825 3314.06,-22.0815"/>
<polygon fill="#cccccc" stroke="#cccccc" points="3314.62,-18.6174 3304.08,-19.7167 3313,-25.4287 3314.62,-18.6174"/>
</g>
<!-- Equatable&#45;&gt;UInt16 -->
<g id="edge23" class="edge">
<path fill="none" stroke="#cccccc" d="M3339.17,-414.363C3438.71,-408.431 3735,-383.894 3735,-302 3735,-302 3735,-302 3735,-184 3735,-84.1512 3640.54,-97.8683 3549,-58 3520.1,-45.4159 3435.63,-28.2559 3386.19,-18.8546"/>
<polygon fill="#cccccc" stroke="#cccccc" points="3386.69,-15.3856 3376.21,-16.9707 3385.39,-22.2642 3386.69,-15.3856"/>
</g>
<!-- Equatable&#45;&gt;UInt32 -->
<g id="edge24" class="edge">
<path fill="none" stroke="#cccccc" d="M3339.36,-415.819C3452.92,-414.85 3828.34,-408.723 3864,-370 3897.39,-333.736 4045.8,-416.921 3731,-116 3682.59,-69.7264 3609.55,-39.088 3565.84,-23.6986"/>
<polygon fill="#cccccc" stroke="#cccccc" points="3566.77,-20.3204 3556.18,-20.3797 3564.5,-26.9403 3566.77,-20.3204"/>
</g>
<!-- Equatable&#45;&gt;UInt64 -->
<g id="edge25" class="edge">
<path fill="none" stroke="#cccccc" d="M3326.72,-405.865C3339.66,-398.014 3355.53,-385.811 3363,-370 3369.63,-355.973 3373,-311.452 3360,-290 3264.8,-132.891 3154.6,-185.185 3004,-80 2980.98,-63.9228 2956.3,-43.2047 2939.89,-28.8838"/>
<polygon fill="#cccccc" stroke="#cccccc" points="2941.93,-26.0196 2932.11,-22.0365 2937.3,-31.2726 2941.93,-26.0196"/>
</g>
<!-- Equatable&#45;&gt;UInt8 -->
<g id="edge26" class="edge">
<path fill="none" stroke="#cccccc" d="M3339.2,-416.903C3412.01,-417.107 3583,-406.464 3583,-302 3583,-302 3583,-302 3583,-184 3583,-63.1332 3453.29,-105.142 3342,-58 3308.23,-43.6957 3268.37,-30.9035 3240.02,-22.4627"/>
<polygon fill="#cccccc" stroke="#cccccc" points="3240.7,-19.0168 3230.12,-19.5551 3238.73,-25.7327 3240.7,-19.0168"/>
</g>
<!-- Equatable&#45;&gt;UnicodeScalar -->
<g id="edge27" class="edge">
<path fill="none" stroke="#cccccc" d="M3339.33,-416.165C3456.23,-416.394 3856.29,-413.882 3975,-370 4015.52,-355.022 4033.6,-350.6 4053,-312 4128.37,-162.024 3849.39,-59.6542 3735.94,-24.9907"/>
<polygon fill="#cccccc" stroke="#cccccc" points="3736.72,-21.57 3726.13,-22.0377 3734.7,-28.2727 3736.72,-21.57"/>
</g>
<!-- _Incrementable -->
<g id="node62" class="node">
<g id="a_node62"><a xlink:href="/v2.1/protocol/_Incrementable/" target="_top">
<path fill="#999999" stroke="#999999" d="M3847.71,-370C3847.71,-370 3770.29,-370 3770.29,-370 3766.63,-370 3762.96,-366.333 3762.96,-362.667 3762.96,-362.667 3762.96,-355.333 3762.96,-355.333 3762.96,-351.667 3766.63,-348 3770.29,-348 3770.29,-348 3847.71,-348 3847.71,-348 3851.37,-348 3855.04,-351.667 3855.04,-355.333 3855.04,-355.333 3855.04,-362.667 3855.04,-362.667 3855.04,-366.333 3851.37,-370 3847.71,-370"/>
<text text-anchor="middle" x="3809" y="-355.4" font-family="Helvetica,sans-Serif" font-size="12.00" fill="white">_Incrementable</text>
</a>
</g>
</g>
<!-- Equatable&#45;&gt;_Incrementable -->
<g id="edge28" class="edge">
<path fill="none" stroke="#cccccc" d="M3339.25,-413.328C3412.33,-407.123 3596.09,-390.679 3749,-370 3750.27,-369.829 3751.55,-369.652 3752.84,-369.469"/>
<polygon fill="#cccccc" stroke="#cccccc" points="3753.48,-372.912 3762.86,-367.984 3752.45,-365.988 3753.48,-372.912"/>
</g>
<!-- FlattenCollectionIndex -->
<g id="node17" class="node">
<g id="a_node17"><a xlink:href="/v2.1/type/FlattenCollectionIndex/" target="_top">
<polygon fill="#999999" stroke="#999999" points="5584.05,-22 5455.95,-22 5455.95,-0 5584.05,-0 5584.05,-22"/>
<text text-anchor="middle" x="5520" y="-7.4" font-family="Helvetica,sans-Serif" font-size="12.00" fill="white">FlattenCollectionIndex</text>
</a>
</g>
</g>
<!-- FloatingPointType -->
<g id="node21" class="node">
<g id="a_node21"><a xlink:href="/v2.1/protocol/FloatingPointType/" target="_top">
<path fill="#999999" stroke="#999999" d="M693.715,-80C693.715,-80 602.285,-80 602.285,-80 598.618,-80 594.952,-76.3333 594.952,-72.6667 594.952,-72.6667 594.952,-65.3333 594.952,-65.3333 594.952,-61.6667 598.618,-58 602.285,-58 602.285,-58 693.715,-58 693.715,-58 697.382,-58 701.048,-61.6667 701.048,-65.3333 701.048,-65.3333 701.048,-72.6667 701.048,-72.6667 701.048,-76.3333 697.382,-80 693.715,-80"/>
<text text-anchor="middle" x="648" y="-65.4" font-family="Helvetica,sans-Serif" font-size="12.00" fill="white">FloatingPointType</text>
</a>
</g>
</g>
<!-- FloatingPointType&#45;&gt;Double -->
<g id="edge91" class="edge">
<path fill="none" stroke="#cccccc" d="M640.67,-57.9883C635.084,-50.3592 627.237,-39.6405 620.523,-30.4702"/>
<polygon fill="#cccccc" stroke="#cccccc" points="623.275,-28.3049 614.544,-22.3039 617.627,-32.4401 623.275,-28.3049"/>
</g>
<!-- FloatingPointType&#45;&gt;Float -->
<g id="edge92" class="edge">
<path fill="none" stroke="#cccccc" d="M672.672,-57.9883C694.71,-49.0453 727.21,-35.8566 751.763,-25.8935"/>
<polygon fill="#cccccc" stroke="#cccccc" points="753.127,-29.1172 761.077,-22.1138 750.494,-22.6309 753.127,-29.1172"/>
</g>
<!-- ForwardIndexType -->
<g id="node22" class="node">
<g id="a_node22"><a xlink:href="/v2.1/protocol/ForwardIndexType/" target="_top">
<path fill="#999999" stroke="#999999" d="M4491.21,-312C4491.21,-312 4396.79,-312 4396.79,-312 4393.13,-312 4389.46,-308.333 4389.46,-304.667 4389.46,-304.667 4389.46,-297.333 4389.46,-297.333 4389.46,-293.667 4393.13,-290 4396.79,-290 4396.79,-290 4491.21,-290 4491.21,-290 4494.87,-290 4498.54,-293.667 4498.54,-297.333 4498.54,-297.333 4498.54,-304.667 4498.54,-304.667 4498.54,-308.333 4494.87,-312 4491.21,-312"/>
<text text-anchor="middle" x="4444" y="-297.4" font-family="Helvetica,sans-Serif" font-size="12.00" fill="white">ForwardIndexType</text>
</a>
</g>
</g>
<!-- ForwardIndexType&#45;&gt;AnyForwardIndex -->
<g id="edge135" class="edge">
<path fill="none" stroke="#cccccc" d="M4498.59,-298.684C4690.41,-293.346 5322,-269.436 5322,-186 5322,-186 5322,-186 5322,-126 5322,-93.9507 5329.87,-85.6925 5346,-58 5351.99,-47.7125 5360.44,-37.5832 5368.03,-29.4599"/>
<polygon fill="#cccccc" stroke="#cccccc" points="5370.75,-31.6834 5375.22,-22.0736 5365.74,-26.8038 5370.75,-31.6834"/>
</g>
<!-- ForwardIndexType&#45;&gt;BidirectionalIndexType -->
<g id="edge136" class="edge">
<path fill="none" stroke="#cccccc" d="M4461.7,-289.988C4476.81,-281.441 4498.78,-269.015 4516.07,-259.234"/>
<polygon fill="#cccccc" stroke="#cccccc" points="4518.14,-262.084 4525.12,-254.114 4514.69,-255.991 4518.14,-262.084"/>
</g>
<!-- ForwardIndexType&#45;&gt;DictionaryIndex -->
<g id="edge137" class="edge">
<path fill="none" stroke="#cccccc" d="M4437.47,-289.802C4412.58,-251.855 4319.25,-117.941 4205,-58 4126.26,-16.6897 4093.86,-36.7389 4002.17,-22.1077"/>
<polygon fill="#cccccc" stroke="#cccccc" points="4002.65,-18.6397 3992.21,-20.4198 4001.49,-25.5413 4002.65,-18.6397"/>
</g>
<!-- ForwardIndexType&#45;&gt;FlattenCollectionIndex -->
<g id="edge138" class="edge">
<path fill="none" stroke="#cccccc" d="M4498.36,-299.236C4649.48,-296.713 5072.35,-286.839 5207,-254 5279.29,-236.368 5360,-260.414 5360,-186 5360,-186 5360,-186 5360,-126 5360,-71.5494 5422.22,-40.6772 5469.06,-25.1513"/>
<polygon fill="#cccccc" stroke="#cccccc" points="5470.32,-28.4245 5478.8,-22.0682 5468.21,-21.7512 5470.32,-28.4245"/>
</g>
<!-- LazyFilterIndex -->
<g id="node32" class="node">
<g id="a_node32"><a xlink:href="/v2.1/type/LazyFilterIndex/" target="_top">
<polygon fill="#999999" stroke="#999999" points="5693.53,-22 5602.47,-22 5602.47,-0 5693.53,-0 5693.53,-22"/>
<text text-anchor="middle" x="5648" y="-7.4" font-family="Helvetica,sans-Serif" font-size="12.00" fill="white">LazyFilterIndex</text>
</a>
</g>
</g>
<!-- ForwardIndexType&#45;&gt;LazyFilterIndex -->
<g id="edge139" class="edge">
<path fill="none" stroke="#cccccc" d="M4498.39,-299.494C4632.63,-297.711 4990.23,-289.703 5286,-254 5448.52,-234.382 5648,-349.703 5648,-186 5648,-186 5648,-186 5648,-126 5648,-93.1536 5648,-54.9837 5648,-32.197"/>
<polygon fill="#cccccc" stroke="#cccccc" points="5651.5,-32.0648 5648,-22.0648 5644.5,-32.0648 5651.5,-32.0648"/>
</g>
<!-- ForwardIndexType&#45;&gt;SetIndex -->
<g id="edge140" class="edge">
<path fill="none" stroke="#cccccc" d="M4433.16,-289.912C4392.16,-252.357 4241.19,-119.654 4091,-58 4010.39,-24.9076 3981.24,-40.3203 3891.62,-21.9282"/>
<polygon fill="#cccccc" stroke="#cccccc" points="3892.09,-18.4492 3881.57,-19.7791 3890.62,-25.2942 3892.09,-18.4492"/>
</g>
<!-- String.UTF8View.Index -->
<g id="node50" class="node">
<g id="a_node50"><a xlink:href="/v2.1/type/String.UTF8View.Index/" target="_top">
<polygon fill="#999999" stroke="#999999" points="4700.89,-22 4569.11,-22 4569.11,-0 4700.89,-0 4700.89,-22"/>
<text text-anchor="middle" x="4635" y="-7.4" font-family="Helvetica,sans-Serif" font-size="12.00" fill="white">String.UTF8View.Index</text>
</a>
</g>
</g>
<!-- ForwardIndexType&#45;&gt;String.UTF8View.Index -->
<g id="edge141" class="edge">
<path fill="none" stroke="#cccccc" d="M4442.03,-289.961C4435.55,-253.675 4418.55,-127.789 4479,-58 4491.08,-44.0516 4531.5,-32.3547 4568.16,-24.2465"/>
<polygon fill="#cccccc" stroke="#cccccc" points="4569.33,-27.575 4578.37,-22.0559 4567.86,-20.7306 4569.33,-27.575"/>
</g>
<!-- Hashable&#45;&gt;Bool -->
<g id="edge109" class="edge">
<path fill="none" stroke="#cccccc" d="M3005.39,-239.45C3061.49,-234.315 3184.8,-221.027 3286,-196 3466.36,-151.397 3671.29,-61.5401 3747.92,-26.4779"/>
<polygon fill="#cccccc" stroke="#cccccc" points="3749.83,-29.4526 3757.46,-22.0957 3746.91,-23.0924 3749.83,-29.4526"/>
</g>
<!-- Hashable&#45;&gt;COpaquePointer -->
<g id="edge110" class="edge">
<path fill="none" stroke="#cccccc" d="M2944.59,-241.637C2690.7,-238.569 930.117,-216.599 821,-196 652.011,-164.098 467.145,-65.3694 400.102,-27.242"/>
<polygon fill="#cccccc" stroke="#cccccc" points="401.497,-24.0078 391.081,-22.0715 398.016,-30.0809 401.497,-24.0078"/>
</g>
<!-- Hashable&#45;&gt;Character -->
<g id="edge111" class="edge">
<path fill="none" stroke="#cccccc" d="M2944.59,-241.578C2698.09,-238.127 1033.62,-214.199 930,-196 771.085,-168.089 732.424,-147.771 586,-80 553.31,-64.87 518.123,-42.6547 495.853,-27.7768"/>
<polygon fill="#cccccc" stroke="#cccccc" points="497.67,-24.7804 487.425,-22.0828 493.752,-30.5809 497.67,-24.7804"/>
</g>
<!-- Hashable&#45;&gt;Double -->
<g id="edge112" class="edge">
<path fill="none" stroke="#cccccc" d="M2944.63,-241.626C2703.73,-238.615 1108.53,-217.899 1010,-196 866.732,-164.158 843.267,-119.478 710,-58 686.465,-47.143 659.736,-35.2177 639.406,-26.2302"/>
<polygon fill="#cccccc" stroke="#cccccc" points="640.543,-22.9066 629.982,-22.0717 637.718,-29.3109 640.543,-22.9066"/>
</g>
<!-- Hashable&#45;&gt;Float -->
<g id="edge113" class="edge">
<path fill="none" stroke="#cccccc" d="M2944.73,-242.122C2784.17,-242.559 2015.97,-242.039 1390,-196 1280.65,-187.957 990.639,-199.705 900,-138 866.632,-115.284 884.354,-87.685 857,-58 845.517,-45.5384 829.963,-34.966 816.34,-27.111"/>
<polygon fill="#cccccc" stroke="#cccccc" points="817.738,-23.8846 807.291,-22.1173 814.355,-30.0133 817.738,-23.8846"/>
</g>
<!-- Hashable&#45;&gt;Float80 -->
<g id="edge114" class="edge">
<path fill="none" stroke="#cccccc" d="M2944.83,-241.818C2744.68,-240.516 1611.94,-231.604 1463,-196 1314.47,-160.495 1154.84,-65.4852 1095.25,-27.7578"/>
<polygon fill="#cccccc" stroke="#cccccc" points="1096.87,-24.642 1086.56,-22.2125 1093.1,-30.5427 1096.87,-24.642"/>
</g>
<!-- Hashable&#45;&gt;Int -->
<g id="edge115" class="edge">
<path fill="none" stroke="#cccccc" d="M2944.73,-241.601C2741.66,-238.855 1583.32,-222.089 1514,-196 1438.05,-167.417 1424.32,-142.862 1373,-80 1361.04,-65.3451 1351.29,-46.0932 1344.97,-31.816"/>
<polygon fill="#cccccc" stroke="#cccccc" points="1348.12,-30.2753 1340.99,-22.4359 1341.68,-33.0088 1348.12,-30.2753"/>
</g>
<!-- Hashable&#45;&gt;Int16 -->
<g id="edge116" class="edge">
<path fill="none" stroke="#cccccc" d="M2944.63,-240.05C2846.83,-233.662 2540.76,-212.816 2443,-196 2342.07,-178.639 2317.34,-169.811 2220,-138 2113.28,-103.125 1990.75,-51.0393 1933.97,-26.1855"/>
<polygon fill="#cccccc" stroke="#cccccc" points="1935.35,-22.9709 1924.79,-22.154 1932.54,-29.3799 1935.35,-22.9709"/>
</g>
<!-- Hashable&#45;&gt;Int32 -->
<g id="edge117" class="edge">
<path fill="none" stroke="#cccccc" d="M2944.9,-240.125C2826.18,-232.692 2393.9,-205.249 2333,-196 2290.58,-189.558 2280.99,-182.832 2239,-174 2016.44,-127.186 1945.21,-169.191 1736,-80 1706.55,-67.4457 1677.31,-44.525 1659.21,-28.7918"/>
<polygon fill="#cccccc" stroke="#cccccc" points="1661.51,-26.1593 1651.71,-22.1318 1656.86,-31.3913 1661.51,-26.1593"/>
</g>
<!-- Hashable&#45;&gt;Int64 -->
<g id="edge118" class="edge">
<path fill="none" stroke="#cccccc" d="M2944.92,-239.885C2847.13,-232.899 2542.1,-210.201 2500,-196 2389.56,-158.745 2378.53,-115.237 2277,-58 2257.4,-46.9484 2234.85,-35.425 2217.22,-26.6763"/>
<polygon fill="#cccccc" stroke="#cccccc" points="2218.5,-23.4063 2207.99,-22.1219 2215.41,-29.6843 2218.5,-23.4063"/>
</g>
<!-- Hashable&#45;&gt;Int8 -->
<g id="edge119" class="edge">
<path fill="none" stroke="#cccccc" d="M2944.84,-241.161C2756.61,-235.729 1747.13,-203.678 1628,-138 1583.2,-113.3 1550.95,-59.7902 1536.12,-31.0939"/>
<polygon fill="#cccccc" stroke="#cccccc" points="1539.21,-29.4479 1531.61,-22.0665 1532.95,-32.5764 1539.21,-29.4479"/>
</g>
<!-- Hashable&#45;&gt;ObjectIdentifier -->
<g id="edge120" class="edge">
<path fill="none" stroke="#cccccc" d="M2944.78,-239.715C2846.81,-232.2 2543.22,-208.044 2526,-196 2470.13,-156.917 2496.58,-114.885 2459,-58 2452.44,-48.0663 2443.92,-37.9799 2436.43,-29.7934"/>
<polygon fill="#cccccc" stroke="#cccccc" points="2438.8,-27.2012 2429.39,-22.3163 2433.7,-31.9979 2438.8,-27.2012"/>
</g>
<!-- Set -->
<g id="node41" class="node">
<g id="a_node41"><a xlink:href="/v2.1/type/Set/" target="_top">
<polygon fill="#999999" stroke="#999999" points="3484,-22 3430,-22 3430,-0 3484,-0 3484,-22"/>
<text text-anchor="middle" x="3457" y="-7.4" font-family="Helvetica,sans-Serif" font-size="12.00" fill="white">Set</text>
</a>
</g>
</g>
<!-- Hashable&#45;&gt;Set -->
<g id="edge121" class="edge">
<path fill="none" stroke="#cccccc" d="M3005.16,-233.557C3033.48,-225.25 3076.81,-211.576 3113,-196 3236.79,-142.717 3375.98,-61.0961 3431.83,-27.3845"/>
<polygon fill="#cccccc" stroke="#cccccc" points="3433.93,-30.205 3440.67,-22.0296 3430.31,-24.2182 3433.93,-30.205"/>
</g>
<!-- Hashable&#45;&gt;String -->
<g id="edge122" class="edge">
<path fill="none" stroke="#cccccc" d="M3005.1,-237.584C3047.61,-230.913 3127.37,-216.799 3193,-196 3342.37,-148.668 3509.57,-61.7383 3573.83,-26.9595"/>
<polygon fill="#cccccc" stroke="#cccccc" points="3575.79,-29.8807 3582.9,-22.0281 3572.44,-23.7314 3575.79,-29.8807"/>
</g>
<!-- Hashable&#45;&gt;UInt -->
<g id="edge123" class="edge">
<path fill="none" stroke="#cccccc" d="M2993.78,-231.998C3009.9,-223.164 3033.55,-209.604 3053,-196 3133.14,-139.96 3220.67,-62.9894 3258.2,-29.1447"/>
<polygon fill="#cccccc" stroke="#cccccc" points="3260.77,-31.5397 3265.84,-22.2334 3256.08,-26.3505 3260.77,-31.5397"/>
</g>
<!-- Hashable&#45;&gt;UInt16 -->
<g id="edge124" class="edge">
<path fill="none" stroke="#cccccc" d="M3002.53,-231.901C3024.56,-223.407 3055.98,-210.373 3082,-196 3179.01,-142.407 3284.72,-62.4222 3328.38,-28.3346"/>
<polygon fill="#cccccc" stroke="#cccccc" points="3330.55,-31.0767 3336.26,-22.1505 3326.23,-25.5694 3330.55,-31.0767"/>
</g>
<!-- Hashable&#45;&gt;UInt32 -->
<g id="edge125" class="edge">
<path fill="none" stroke="#cccccc" d="M3005.31,-236.054C3041.02,-228.612 3101.82,-214.553 3152,-196 3288.82,-145.412 3442.31,-61.3555 3502.64,-27.1639"/>
<polygon fill="#cccccc" stroke="#cccccc" points="3504.55,-30.1059 3511.51,-22.1173 3501.09,-24.0224 3504.55,-30.1059"/>
</g>
<!-- Hashable&#45;&gt;UInt64 -->
<g id="edge126" class="edge">
<path fill="none" stroke="#cccccc" d="M2980.3,-231.756C2991.37,-208.771 3013.95,-152.268 2989,-116 2963.65,-79.141 2920.35,-116.859 2895,-80 2884.56,-64.8224 2894.44,-44.8854 2904.88,-30.528"/>
<polygon fill="#cccccc" stroke="#cccccc" points="2907.84,-32.424 2911.28,-22.4021 2902.34,-28.0935 2907.84,-32.424"/>
</g>
<!-- Hashable&#45;&gt;UInt8 -->
<g id="edge127" class="edge">
<path fill="none" stroke="#cccccc" d="M2986.64,-231.818C3014.92,-206.898 3089.11,-140.457 3146,-80 3161.21,-63.8349 3177.36,-44.3238 3188.57,-30.3547"/>
<polygon fill="#cccccc" stroke="#cccccc" points="3191.37,-32.4566 3194.86,-22.4526 3185.89,-28.0976 3191.37,-32.4566"/>
</g>
<!-- Hashable&#45;&gt;UnicodeScalar -->
<g id="edge128" class="edge">
<path fill="none" stroke="#cccccc" d="M3005.18,-238.641C3054.23,-232.745 3154.03,-218.937 3236,-196 3401.83,-149.599 3589.35,-61.494 3660.51,-26.6812"/>
<polygon fill="#cccccc" stroke="#cccccc" points="3662.33,-29.6847 3669.76,-22.1325 3659.24,-23.4025 3662.33,-29.6847"/>
</g>
<!-- UnsafeMutablePointer -->
<g id="node58" class="node">
<g id="a_node58"><a xlink:href="/v2.1/type/UnsafeMutablePointer/" target="_top">
<polygon fill="#999999" stroke="#999999" points="2772.05,-22 2643.95,-22 2643.95,-0 2772.05,-0 2772.05,-22"/>
<text text-anchor="middle" x="2708" y="-7.4" font-family="Helvetica,sans-Serif" font-size="12.00" fill="white">UnsafeMutablePointer</text>
</a>
</g>
</g>
<!-- Hashable&#45;&gt;UnsafeMutablePointer -->
<g id="edge129" class="edge">
<path fill="none" stroke="#cccccc" d="M2944.6,-238.412C2891.97,-230.486 2784.31,-206.394 2730,-138 2705.71,-107.415 2704.41,-59.3844 2705.98,-32.3145"/>
<polygon fill="#cccccc" stroke="#cccccc" points="2709.49,-32.3481 2706.77,-22.1084 2702.51,-31.8094 2709.49,-32.3481"/>
</g>
<!-- UnsafePointer -->
<g id="node59" class="node">
<g id="a_node59"><a xlink:href="/v2.1/type/UnsafePointer/" target="_top">
<polygon fill="#999999" stroke="#999999" points="2876.03,-22 2789.97,-22 2789.97,-0 2876.03,-0 2876.03,-22"/>
<text text-anchor="middle" x="2833" y="-7.4" font-family="Helvetica,sans-Serif" font-size="12.00" fill="white">UnsafePointer</text>
</a>
</g>
</g>
<!-- Hashable&#45;&gt;UnsafePointer -->
<g id="edge130" class="edge">
<path fill="none" stroke="#cccccc" d="M2971.49,-231.699C2963.68,-209.534 2943.57,-156.077 2918,-116 2906.64,-98.1994 2900.46,-96.2708 2887,-80 2873.29,-63.4188 2858.08,-44.1884 2847.3,-30.4176"/>
<polygon fill="#cccccc" stroke="#cccccc" points="2849.84,-27.9719 2840.93,-22.2392 2844.32,-32.277 2849.84,-27.9719"/>
</g>
<!-- _IntegerType -->
<g id="node63" class="node">
<g id="a_node63"><a xlink:href="/v2.1/protocol/_IntegerType/" target="_top">
<path fill="#999999" stroke="#999999" d="M2222.71,-196C2222.71,-196 2157.29,-196 2157.29,-196 2153.63,-196 2149.96,-192.333 2149.96,-188.667 2149.96,-188.667 2149.96,-181.333 2149.96,-181.333 2149.96,-177.667 2153.63,-174 2157.29,-174 2157.29,-174 2222.71,-174 2222.71,-174 2226.37,-174 2230.04,-177.667 2230.04,-181.333 2230.04,-181.333 2230.04,-188.667 2230.04,-188.667 2230.04,-192.333 2226.37,-196 2222.71,-196"/>
<text text-anchor="middle" x="2190" y="-181.4" font-family="Helvetica,sans-Serif" font-size="12.00" fill="white">_IntegerType</text>
</a>
</g>
</g>
<!-- Hashable&#45;&gt;_IntegerType -->
<g id="edge131" class="edge">
<path fill="none" stroke="#cccccc" d="M2944.83,-234.428C2940.22,-233.48 2935.5,-232.625 2931,-232 2628.15,-189.966 2547.64,-231.914 2244,-196 2242.72,-195.849 2241.43,-195.686 2240.12,-195.513"/>
<polygon fill="#cccccc" stroke="#cccccc" points="2240.42,-192.018 2230.02,-194.013 2239.39,-198.942 2240.42,-192.018"/>
</g>
<!-- Int&#45;&gt;Bit -->
<g id="edge56" class="edge">
<path fill="none" stroke="#cccccc" d="M1364.2,-17.3554C1396.4,-24.5254 1451.76,-35.7418 1500,-40 1689.93,-56.7638 1739.97,-64.9372 1929,-40 1953.15,-36.8141 1979.57,-29.785 2000.23,-23.4452"/>
<polygon fill="#cccccc" stroke="#cccccc" points="2001.39,-26.7497 2009.88,-20.4082 1999.29,-20.0728 2001.39,-26.7497"/>
</g>
<!-- IntegerArithmeticType&#45;&gt;Bit -->
<g id="edge57" class="edge">
<path fill="none" stroke="#cccccc" d="M2056.11,-231.82C2053.06,-196.642 2042.89,-79.7709 2038.77,-32.3033"/>
<polygon fill="#cccccc" stroke="#cccccc" points="2042.23,-31.7212 2037.87,-22.062 2035.25,-32.3277 2042.23,-31.7212"/>
</g>
<!-- IntegerArithmeticType&#45;&gt;_IntegerType -->
<g id="edge58" class="edge">
<path fill="none" stroke="#cccccc" d="M2080.78,-231.988C2101.92,-223.085 2133.06,-209.973 2156.69,-200.026"/>
<polygon fill="#cccccc" stroke="#cccccc" points="2158.12,-203.22 2165.98,-196.114 2155.41,-196.769 2158.12,-203.22"/>
</g>
<!-- IntegerType -->
<g id="node31" class="node">
<g id="a_node31"><a xlink:href="/v2.1/protocol/IntegerType/" target="_top">
<path fill="#999999" stroke="#999999" d="M2295.2,-138C2295.2,-138 2236.8,-138 2236.8,-138 2233.13,-138 2229.47,-134.333 2229.47,-130.667 2229.47,-130.667 2229.47,-123.333 2229.47,-123.333 2229.47,-119.667 2233.13,-116 2236.8,-116 2236.8,-116 2295.2,-116 2295.2,-116 2298.87,-116 2302.53,-119.667 2302.53,-123.333 2302.53,-123.333 2302.53,-130.667 2302.53,-130.667 2302.53,-134.333 2298.87,-138 2295.2,-138"/>
<text text-anchor="middle" x="2266" y="-123.4" font-family="Helvetica,sans-Serif" font-size="12.00" fill="white">IntegerType</text>
</a>
</g>
</g>
<!-- SignedIntegerType -->
<g id="node44" class="node">
<g id="a_node44"><a xlink:href="/v2.1/protocol/SignedIntegerType/" target="_top">
<path fill="#999999" stroke="#999999" d="M1847.73,-80C1847.73,-80 1752.27,-80 1752.27,-80 1748.61,-80 1744.94,-76.3333 1744.94,-72.6667 1744.94,-72.6667 1744.94,-65.3333 1744.94,-65.3333 1744.94,-61.6667 1748.61,-58 1752.27,-58 1752.27,-58 1847.73,-58 1847.73,-58 1851.39,-58 1855.06,-61.6667 1855.06,-65.3333 1855.06,-65.3333 1855.06,-72.6667 1855.06,-72.6667 1855.06,-76.3333 1851.39,-80 1847.73,-80"/>
<text text-anchor="middle" x="1800" y="-65.4" font-family="Helvetica,sans-Serif" font-size="12.00" fill="white">SignedIntegerType</text>
</a>
</g>
</g>
<!-- IntegerType&#45;&gt;SignedIntegerType -->
<g id="edge62" class="edge">
<path fill="none" stroke="#cccccc" d="M2229.43,-121.606C2150.82,-112.158 1964.78,-89.8024 1865.35,-77.8528"/>
<polygon fill="#cccccc" stroke="#cccccc" points="1865.76,-74.3776 1855.42,-76.6594 1864.93,-81.3276 1865.76,-74.3776"/>
</g>
<!-- UnsignedIntegerType -->
<g id="node60" class="node">
<g id="a_node60"><a xlink:href="/v2.1/protocol/UnsignedIntegerType/" target="_top">
<path fill="#999999" stroke="#999999" d="M3129.73,-80C3129.73,-80 3020.27,-80 3020.27,-80 3016.61,-80 3012.94,-76.3333 3012.94,-72.6667 3012.94,-72.6667 3012.94,-65.3333 3012.94,-65.3333 3012.94,-61.6667 3016.61,-58 3020.27,-58 3020.27,-58 3129.73,-58 3129.73,-58 3133.39,-58 3137.06,-61.6667 3137.06,-65.3333 3137.06,-65.3333 3137.06,-72.6667 3137.06,-72.6667 3137.06,-76.3333 3133.39,-80 3129.73,-80"/>
<text text-anchor="middle" x="3075" y="-65.4" font-family="Helvetica,sans-Serif" font-size="12.00" fill="white">UnsignedIntegerType</text>
</a>
</g>
</g>
<!-- IntegerType&#45;&gt;UnsignedIntegerType -->
<g id="edge63" class="edge">
<path fill="none" stroke="#cccccc" d="M2302.6,-123.467C2427.08,-114.85 2835.64,-86.5688 3002.77,-75.0001"/>
<polygon fill="#cccccc" stroke="#cccccc" points="3003.21,-78.478 3012.94,-74.2957 3002.72,-71.4947 3003.21,-78.478"/>
</g>
<!-- OptionSetType -->
<g id="node35" class="node">
<g id="a_node35"><a xlink:href="/v2.1/protocol/OptionSetType/" target="_top">
<path fill="#999999" stroke="#999999" d="M3344.21,-312C3344.21,-312 3269.79,-312 3269.79,-312 3266.13,-312 3262.46,-308.333 3262.46,-304.667 3262.46,-304.667 3262.46,-297.333 3262.46,-297.333 3262.46,-293.667 3266.13,-290 3269.79,-290 3269.79,-290 3344.21,-290 3344.21,-290 3347.87,-290 3351.54,-293.667 3351.54,-297.333 3351.54,-297.333 3351.54,-304.667 3351.54,-304.667 3351.54,-308.333 3347.87,-312 3344.21,-312"/>
<text text-anchor="middle" x="3307" y="-297.4" font-family="Helvetica,sans-Serif" font-size="12.00" fill="white">OptionSetType</text>
</a>
</g>
</g>
<!-- RandomAccessIndexType&#45;&gt;AnyRandomAccessIndex -->
<g id="edge93" class="edge">
<path fill="none" stroke="#cccccc" d="M2602.83,-173.869C2596.74,-164.844 2588.2,-151.079 2583,-138 2568.76,-102.186 2560.57,-57.7317 2556.73,-32.3388"/>
<polygon fill="#cccccc" stroke="#cccccc" points="2560.15,-31.514 2555.26,-22.1126 2553.22,-32.5084 2560.15,-31.514"/>
</g>
<!-- RandomAccessIndexType&#45;&gt;Bit -->
<g id="edge94" class="edge">
<path fill="none" stroke="#cccccc" d="M2584.24,-173.981C2548.07,-160.087 2480.04,-134.583 2421,-116 2295.04,-76.3557 2143.05,-37.9208 2074.16,-21.0001"/>
<polygon fill="#cccccc" stroke="#cccccc" points="2074.77,-17.5456 2064.22,-18.5671 2073.1,-24.3448 2074.77,-17.5456"/>
</g>
<!-- RandomAccessIndexType&#45;&gt;Int -->
<g id="edge95" class="edge">
<path fill="none" stroke="#cccccc" d="M2535.35,-180.239C2422.13,-174.085 2200.36,-160.272 2013,-138 1852.07,-118.87 1812.27,-109.946 1653,-80 1551.81,-60.9741 1433.34,-34.2892 1374.34,-20.6979"/>
<polygon fill="#cccccc" stroke="#cccccc" points="1374.91,-17.2362 1364.38,-18.3959 1373.33,-24.0566 1374.91,-17.2362"/>
</g>
<!-- RandomAccessIndexType&#45;&gt;Int16 -->
<g id="edge96" class="edge">
<path fill="none" stroke="#cccccc" d="M2566.33,-173.933C2527.93,-164.949 2470.6,-151.209 2421,-138 2387.02,-128.951 2379.02,-124.91 2345,-116 2195.37,-76.8071 2015.49,-36.7314 1939.16,-20.0484"/>
<polygon fill="#cccccc" stroke="#cccccc" points="1939.6,-16.5635 1929.09,-17.8522 1938.11,-23.4027 1939.6,-16.5635"/>
</g>
<!-- RandomAccessIndexType&#45;&gt;Int32 -->
<g id="edge97" class="edge">
<path fill="none" stroke="#cccccc" d="M2535.6,-179.108C2481.26,-173.638 2406.64,-162.126 2345,-138 2328.24,-131.44 2327.82,-122.41 2311,-116 2280.98,-104.559 1814.91,-36.9986 1678.34,-17.3544"/>
<polygon fill="#cccccc" stroke="#cccccc" points="1678.74,-13.8769 1668.35,-15.9185 1677.75,-20.8057 1678.74,-13.8769"/>
</g>
<!-- RandomAccessIndexType&#45;&gt;Int64 -->
<g id="edge98" class="edge">
<path fill="none" stroke="#cccccc" d="M2595.3,-173.926C2560.17,-150.291 2467.93,-90.8078 2383,-58 2329.58,-37.3631 2264.24,-24.2986 2224.13,-17.5675"/>
<polygon fill="#cccccc" stroke="#cccccc" points="2224.45,-14.0721 2214.01,-15.9139 2223.32,-20.9805 2224.45,-14.0721"/>
</g>
<!-- RandomAccessIndexType&#45;&gt;Int8 -->
<g id="edge99" class="edge">
<path fill="none" stroke="#cccccc" d="M2535.4,-175.976C2338.27,-154.652 1813.32,-97.0391 1736,-80 1673.35,-66.1928 1602.84,-41.1894 1561.82,-25.6528"/>
<polygon fill="#cccccc" stroke="#cccccc" points="1562.88,-22.3136 1552.29,-22.0144 1560.39,-28.8526 1562.88,-22.3136"/>
</g>
<!-- RandomAccessIndexType&#45;&gt;IntegerType -->
<g id="edge100" class="edge">
<path fill="none" stroke="#cccccc" d="M2541.5,-173.996C2482.04,-165.133 2393.7,-151.535 2317,-138 2315.53,-137.74 2314.03,-137.472 2312.53,-137.198"/>
<polygon fill="#cccccc" stroke="#cccccc" points="2312.94,-133.715 2302.46,-135.324 2311.65,-140.596 2312.94,-133.715"/>
</g>
<!-- ReverseRandomAccessIndex -->
<g id="node40" class="node">
<g id="a_node40"><a xlink:href="/v2.1/type/ReverseRandomAccessIndex/" target="_top">
<polygon fill="#999999" stroke="#999999" points="4352.06,-22 4183.94,-22 4183.94,-0 4352.06,-0 4352.06,-22"/>
<text text-anchor="middle" x="4268" y="-7.4" font-family="Helvetica,sans-Serif" font-size="12.00" fill="white">ReverseRandomAccessIndex</text>
</a>
</g>
</g>
<!-- RandomAccessIndexType&#45;&gt;ReverseRandomAccessIndex -->
<g id="edge101" class="edge">
<path fill="none" stroke="#cccccc" d="M2684.67,-177.818C2784.9,-169.41 2968.46,-153.617 3125,-138 3514.78,-99.1122 3978.53,-45.8163 4173.87,-23.0438"/>
<polygon fill="#cccccc" stroke="#cccccc" points="4174.29,-26.519 4183.82,-21.8839 4173.48,-19.5661 4174.29,-26.519"/>
</g>
<!-- RandomAccessIndexType&#45;&gt;UInt -->
<g id="edge102" class="edge">
<path fill="none" stroke="#cccccc" d="M2684.5,-177.029C2753.16,-169.851 2857.62,-157.016 2947,-138 2992.05,-128.415 3103.24,-97.1367 3146,-80 3183.92,-64.802 3225.41,-42.1619 3251.32,-27.2427"/>
<polygon fill="#cccccc" stroke="#cccccc" points="3253.24,-30.1753 3260.13,-22.1236 3249.73,-24.1236 3253.24,-30.1753"/>
</g>
<!-- RandomAccessIndexType&#45;&gt;UInt16 -->
<g id="edge103" class="edge">
<path fill="none" stroke="#cccccc" d="M2684.59,-179.583C2764.16,-173.872 2893.57,-161.704 3003,-138 3085.56,-120.117 3104.66,-109.006 3184,-80 3230.68,-62.9347 3283.64,-40.5576 3316.69,-26.2254"/>
<polygon fill="#cccccc" stroke="#cccccc" points="3318.5,-29.252 3326.27,-22.0505 3315.71,-22.8341 3318.5,-29.252"/>
</g>
<!-- RandomAccessIndexType&#45;&gt;UInt32 -->
<g id="edge104" class="edge">
<path fill="none" stroke="#cccccc" d="M2684.4,-180.011C2773.88,-174.379 2928.37,-161.992 3059,-138 3222.81,-107.915 3413.06,-49.4407 3491.87,-24.1454"/>
<polygon fill="#cccccc" stroke="#cccccc" points="3493.36,-27.3439 3501.8,-20.9445 3491.21,-20.6815 3493.36,-27.3439"/>
</g>
<!-- RandomAccessIndexType&#45;&gt;UInt64 -->
<g id="edge105" class="edge">
<path fill="none" stroke="#cccccc" d="M2627.44,-173.997C2650.74,-160.654 2693.37,-136.35 2730,-116 2787.72,-83.9358 2855.71,-47.1488 2893,-27.0532"/>
<polygon fill="#cccccc" stroke="#cccccc" points="2895.09,-29.9038 2902.24,-22.081 2891.77,-23.7405 2895.09,-29.9038"/>
</g>
<!-- RandomAccessIndexType&#45;&gt;UInt8 -->
<g id="edge106" class="edge">
<path fill="none" stroke="#cccccc" d="M2684.56,-177.965C2762.18,-170.785 2877.93,-157.293 2918,-138 2965.03,-115.352 2957.9,-82.4859 3004,-58 3055.97,-30.4006 3124.18,-19.2536 3165.74,-14.8263"/>
<polygon fill="#cccccc" stroke="#cccccc" points="3166.1,-18.3079 3175.7,-13.8396 3165.41,-11.342 3166.1,-18.3079"/>
</g>
<!-- RandomAccessIndexType&#45;&gt;UnsafeMutablePointer -->
<g id="edge107" class="edge">
<path fill="none" stroke="#cccccc" d="M2607.86,-173.803C2603.66,-150.915 2596.72,-94.5954 2621,-58 2630.62,-43.498 2646.36,-33.2539 2661.82,-26.1752"/>
<polygon fill="#cccccc" stroke="#cccccc" points="2663.5,-29.2684 2671.36,-22.167 2660.78,-22.8152 2663.5,-29.2684"/>
</g>
<!-- RandomAccessIndexType&#45;&gt;UnsafePointer -->
<g id="edge108" class="edge">
<path fill="none" stroke="#cccccc" d="M2614.26,-173.863C2624.75,-150.093 2654.13,-90.3396 2697,-58 2711.16,-47.3209 2751.59,-34.303 2784.71,-24.8449"/>
<polygon fill="#cccccc" stroke="#cccccc" points="2786.04,-28.1068 2794.72,-22.0305 2784.15,-21.3681 2786.04,-28.1068"/>
</g>
<!-- ReverseIndexType&#45;&gt;ReverseIndex -->
<g id="edge150" class="edge">
<path fill="none" stroke="#cccccc" d="M4581.97,-57.9883C4618.36,-48.6404 4672.81,-34.6538 4712.1,-24.5608"/>
<polygon fill="#cccccc" stroke="#cccccc" points="4713.18,-27.8973 4722,-22.0192 4711.44,-21.1174 4713.18,-27.8973"/>
</g>
<!-- ReverseIndexType&#45;&gt;ReverseRandomAccessIndex -->
<g id="edge151" class="edge">
<path fill="none" stroke="#cccccc" d="M4493.84,-57.9883C4447.15,-48.4816 4376.91,-34.1773 4327.17,-24.05"/>
<polygon fill="#cccccc" stroke="#cccccc" points="4327.7,-20.5851 4317.2,-22.0192 4326.3,-27.4444 4327.7,-20.5851"/>
</g>
<!-- SetAlgebraType&#45;&gt;OptionSetType -->
<g id="edge132" class="edge">
<path fill="none" stroke="#cccccc" d="M3307,-347.988C3307,-340.91 3307,-331.171 3307,-322.478"/>
<polygon fill="#cccccc" stroke="#cccccc" points="3310.5,-322.304 3307,-312.304 3303.5,-322.304 3310.5,-322.304"/>
</g>
<!-- SignedIntegerType&#45;&gt;Int -->
<g id="edge64" class="edge">
<path fill="none" stroke="#cccccc" d="M1744.61,-61.3007C1649.05,-49.7425 1455.64,-26.35 1374.34,-16.5162"/>
<polygon fill="#cccccc" stroke="#cccccc" points="1374.43,-13.0021 1364.09,-15.276 1373.59,-19.9515 1374.43,-13.0021"/>
</g>
<!-- SignedIntegerType&#45;&gt;Int16 -->
<g id="edge65" class="edge">
<path fill="none" stroke="#cccccc" d="M1818.24,-57.9883C1833.95,-49.3619 1856.86,-36.785 1874.75,-26.9633"/>
<polygon fill="#cccccc" stroke="#cccccc" points="1876.5,-29.9945 1883.58,-22.1138 1873.13,-23.8584 1876.5,-29.9945"/>
</g>
<!-- SignedIntegerType&#45;&gt;Int32 -->
<g id="edge66" class="edge">
<path fill="none" stroke="#cccccc" d="M1771.57,-57.9883C1745.37,-48.7577 1706.32,-35.0041 1677.75,-24.9426"/>
<polygon fill="#cccccc" stroke="#cccccc" points="1678.71,-21.572 1668.12,-21.5512 1676.39,-28.1745 1678.71,-21.572"/>
</g>
<!-- SignedIntegerType&#45;&gt;Int64 -->
<g id="edge67" class="edge">
<path fill="none" stroke="#cccccc" d="M1855.45,-59.9766C1935.4,-48.4075 2080.96,-27.3445 2149.46,-17.4322"/>
<polygon fill="#cccccc" stroke="#cccccc" points="2150.37,-20.8364 2159.77,-15.9402 2149.37,-13.9085 2150.37,-20.8364"/>
</g>
<!-- SignedIntegerType&#45;&gt;Int8 -->
<g id="edge68" class="edge">
<path fill="none" stroke="#cccccc" d="M1751.19,-57.9883C1697.61,-46.9972 1612.77,-29.5933 1564.27,-19.6457"/>
<polygon fill="#cccccc" stroke="#cccccc" points="1564.71,-16.1628 1554.21,-17.5819 1563.3,-23.02 1564.71,-16.1628"/>
</g>
<!-- SignedNumberType&#45;&gt;AbsoluteValuable -->
<g id="edge76" class="edge">
<path fill="none" stroke="#cccccc" d="M1522.86,-178.757C1405.52,-168.176 1141.38,-144.357 1021.39,-133.536"/>
<polygon fill="#cccccc" stroke="#cccccc" points="1021.55,-130.036 1011.27,-132.624 1020.92,-137.008 1021.55,-130.036"/>
</g>
<!-- SignedNumberType&#45;&gt;Int -->
<g id="edge77" class="edge">
<path fill="none" stroke="#cccccc" d="M1558.31,-173.882C1522.42,-157.274 1451.26,-121.861 1399,-80 1380.62,-65.2778 1362.85,-44.9643 1351.08,-30.3797"/>
<polygon fill="#cccccc" stroke="#cccccc" points="1353.52,-27.8212 1344.58,-22.1402 1348.03,-32.1582 1353.52,-27.8212"/>
</g>
<!-- SignedNumberType&#45;&gt;Int16 -->
<g id="edge78" class="edge">
<path fill="none" stroke="#cccccc" d="M1586.13,-173.65C1593.67,-159.249 1608.95,-133.024 1628,-116 1697.46,-53.9112 1807.73,-27.4359 1864.9,-17.3925"/>
<polygon fill="#cccccc" stroke="#cccccc" points="1865.65,-20.8148 1874.93,-15.7035 1864.49,-13.9119 1865.65,-20.8148"/>
</g>
<!-- SignedNumberType&#45;&gt;Int32 -->
<g id="edge79" class="edge">
<path fill="none" stroke="#cccccc" d="M1572.96,-173.861C1563.44,-160.572 1549.74,-136.539 1557,-116 1569.63,-80.2605 1600.33,-47.7939 1620.91,-28.9703"/>
<polygon fill="#cccccc" stroke="#cccccc" points="1623.35,-31.48 1628.5,-22.2197 1618.7,-26.2487 1623.35,-31.48"/>
</g>
<!-- SignedNumberType&#45;&gt;Int64 -->
<g id="edge80" class="edge">
<path fill="none" stroke="#cccccc" d="M1622.69,-173.982C1659.66,-164.974 1715.08,-151.171 1763,-138 1906.92,-98.447 2076.7,-46.3254 2150.12,-23.5182"/>
<polygon fill="#cccccc" stroke="#cccccc" points="2151.32,-26.8109 2159.83,-20.4989 2149.24,-20.1268 2151.32,-26.8109"/>
</g>
<!-- SignedNumberType&#45;&gt;Int8 -->
<g id="edge81" class="edge">
<path fill="none" stroke="#cccccc" d="M1558.3,-173.887C1544.18,-166.247 1527.19,-154.282 1519,-138 1501.84,-103.907 1511.73,-57.9 1519.8,-31.9589"/>
<polygon fill="#cccccc" stroke="#cccccc" points="1523.23,-32.7568 1523.07,-22.1631 1516.59,-30.5422 1523.23,-32.7568"/>
</g>
<!-- _SignedIntegerType -->
<g id="node64" class="node">
<g id="a_node64"><a xlink:href="/v2.1/protocol/_SignedIntegerType/" target="_top">
<path fill="#999999" stroke="#999999" d="M1747.23,-138C1747.23,-138 1644.77,-138 1644.77,-138 1641.1,-138 1637.44,-134.333 1637.44,-130.667 1637.44,-130.667 1637.44,-123.333 1637.44,-123.333 1637.44,-119.667 1641.1,-116 1644.77,-116 1644.77,-116 1747.23,-116 1747.23,-116 1750.9,-116 1754.56,-119.667 1754.56,-123.333 1754.56,-123.333 1754.56,-130.667 1754.56,-130.667 1754.56,-134.333 1750.9,-138 1747.23,-138"/>
<text text-anchor="middle" x="1696" y="-123.4" font-family="Helvetica,sans-Serif" font-size="12.00" fill="white">_SignedIntegerType</text>
</a>
</g>
</g>
<!-- SignedNumberType&#45;&gt;_SignedIntegerType -->
<g id="edge82" class="edge">
<path fill="none" stroke="#cccccc" d="M1601.56,-173.988C1619.52,-165.243 1645.81,-152.438 1666.1,-142.559"/>
<polygon fill="#cccccc" stroke="#cccccc" points="1667.77,-145.639 1675.23,-138.114 1664.71,-139.345 1667.77,-145.639"/>
</g>
<!-- Strideable&#45;&gt;Double -->
<g id="edge86" class="edge">
<path fill="none" stroke="#cccccc" d="M763.027,-231.878C718.851,-210.97 623.152,-158.322 586,-80 578.428,-64.0363 585.868,-44.6892 593.911,-30.7197"/>
<polygon fill="#cccccc" stroke="#cccccc" points="597.026,-32.3411 599.399,-22.0153 591.105,-28.6078 597.026,-32.3411"/>
</g>
<!-- Strideable&#45;&gt;Float -->
<g id="edge87" class="edge">
<path fill="none" stroke="#cccccc" d="M786,-231.82C786,-196.642 786,-79.7709 786,-32.3033"/>
<polygon fill="#cccccc" stroke="#cccccc" points="789.5,-32.062 786,-22.062 782.5,-32.0621 789.5,-32.062"/>
</g>
<!-- Strideable&#45;&gt;Float80 -->
<g id="edge88" class="edge">
<path fill="none" stroke="#cccccc" d="M801.225,-231.866C823.334,-217.489 865.959,-191.027 905,-174 954.091,-152.59 980.623,-174.302 1020,-138 1036.06,-123.191 1055.57,-63.884 1065.14,-32.199"/>
<polygon fill="#cccccc" stroke="#cccccc" points="1068.6,-32.8442 1068.08,-22.2618 1061.89,-30.8541 1068.6,-32.8442"/>
</g>
<!-- Strideable&#45;&gt;FloatingPointType -->
<g id="edge89" class="edge">
<path fill="none" stroke="#cccccc" d="M777.781,-231.756C755.207,-203.621 692.01,-124.854 662.956,-88.6411"/>
<polygon fill="#cccccc" stroke="#cccccc" points="665.339,-86.0176 656.351,-80.4081 659.879,-90.3982 665.339,-86.0176"/>
</g>
<!-- Strideable&#45;&gt;RandomAccessIndexType -->
<g id="edge90" class="edge">
<path fill="none" stroke="#cccccc" d="M818.045,-241.016C1027.08,-234.598 2198.17,-198.644 2525.18,-188.604"/>
<polygon fill="#cccccc" stroke="#cccccc" points="2525.65,-192.092 2535.53,-188.286 2525.43,-185.095 2525.65,-192.092"/>
</g>
<!-- UnsignedIntegerType&#45;&gt;UInt -->
<g id="edge69" class="edge">
<path fill="none" stroke="#cccccc" d="M3111.11,-57.9883C3147.52,-47.8948 3203.44,-32.393 3240.12,-22.2243"/>
<polygon fill="#cccccc" stroke="#cccccc" points="3241.22,-25.5509 3249.92,-19.5065 3239.35,-18.8053 3241.22,-25.5509"/>
</g>
<!-- UnsignedIntegerType&#45;&gt;UInt16 -->
<g id="edge70" class="edge">
<path fill="none" stroke="#cccccc" d="M3133.96,-57.9586C3180.03,-49.8042 3245.85,-37.4786 3312.15,-22.0651"/>
<polygon fill="#cccccc" stroke="#cccccc" points="3313,-25.4613 3321.93,-19.7687 3311.4,-18.6465 3313,-25.4613"/>
</g>
<!-- UnsignedIntegerType&#45;&gt;UInt32 -->
<g id="edge71" class="edge">
<path fill="none" stroke="#cccccc" d="M3137.08,-64.3081C3217.13,-58.8514 3360.68,-46.7069 3492.14,-21.8948"/>
<polygon fill="#cccccc" stroke="#cccccc" points="3492.82,-25.3277 3501.98,-20.0082 3491.5,-18.4528 3492.82,-25.3277"/>
</g>
<!-- UnsignedIntegerType&#45;&gt;UInt64 -->
<g id="edge72" class="edge">
<path fill="none" stroke="#cccccc" d="M3047.47,-57.9883C3022.43,-48.8821 2985.28,-35.3739 2957.72,-25.3513"/>
<polygon fill="#cccccc" stroke="#cccccc" points="2958.63,-21.9593 2948.04,-21.8311 2956.24,-28.5378 2958.63,-21.9593"/>
</g>
<!-- UnsignedIntegerType&#45;&gt;UInt8 -->
<g id="edge73" class="edge">
<path fill="none" stroke="#cccccc" d="M3097.88,-57.9883C3118.14,-49.1244 3147.94,-36.0897 3170.64,-26.1587"/>
<polygon fill="#cccccc" stroke="#cccccc" points="3172.12,-29.3286 3179.88,-22.1138 3169.32,-22.9155 3172.12,-29.3286"/>
</g>
<!-- _DisallowMixedSignArithmetic -->
<g id="node61" class="node">
<g id="a_node61"><a xlink:href="/v2.1/protocol/_DisallowMixedSignArithmetic/" target="_top">
<path fill="#999999" stroke="#999999" d="M2901.71,-138C2901.71,-138 2746.29,-138 2746.29,-138 2742.62,-138 2738.96,-134.333 2738.96,-130.667 2738.96,-130.667 2738.96,-123.333 2738.96,-123.333 2738.96,-119.667 2742.62,-116 2746.29,-116 2746.29,-116 2901.71,-116 2901.71,-116 2905.38,-116 2909.04,-119.667 2909.04,-123.333 2909.04,-123.333 2909.04,-130.667 2909.04,-130.667 2909.04,-134.333 2905.38,-138 2901.71,-138"/>
<text text-anchor="middle" x="2824" y="-123.4" font-family="Helvetica,sans-Serif" font-size="12.00" fill="white">_DisallowMixedSignArithmetic</text>
</a>
</g>
</g>
<!-- _DisallowMixedSignArithmetic&#45;&gt;UnsignedIntegerType -->
<g id="edge74" class="edge">
<path fill="none" stroke="#cccccc" d="M2868.87,-115.988C2911.22,-106.541 2974.8,-92.3563 3020.14,-82.2407"/>
<polygon fill="#cccccc" stroke="#cccccc" points="3021.09,-85.6129 3030.09,-80.0192 3019.57,-78.7809 3021.09,-85.6129"/>
</g>
<!-- _Incrementable&#45;&gt;ForwardIndexType -->
<g id="edge133" class="edge">
<path fill="none" stroke="#cccccc" d="M3855.18,-353.928C3966.75,-344.089 4251.19,-319.003 4379.5,-307.688"/>
<polygon fill="#cccccc" stroke="#cccccc" points="4379.92,-311.165 4389.57,-306.8 4379.3,-304.192 4379.92,-311.165"/>
</g>
<!-- _Incrementable&#45;&gt;_IntegerType -->
<g id="edge134" class="edge">
<path fill="none" stroke="#cccccc" d="M3762.92,-349.989C3681.73,-336.106 3507.79,-307.396 3360,-290 3112.83,-260.906 2490.66,-229.144 2244,-196 2242.72,-195.829 2241.43,-195.647 2240.13,-195.458"/>
<polygon fill="#cccccc" stroke="#cccccc" points="2240.46,-191.966 2230.03,-193.87 2239.37,-198.881 2240.46,-191.966"/>
</g>
<!-- _IntegerType&#45;&gt;IntegerType -->
<g id="edge59" class="edge">
<path fill="none" stroke="#cccccc" d="M2203.59,-173.988C2214.86,-165.678 2231.12,-153.703 2244.21,-144.055"/>
<polygon fill="#cccccc" stroke="#cccccc" points="2246.3,-146.864 2252.27,-138.114 2242.15,-141.228 2246.3,-146.864"/>
</g>
<!-- _IntegerType&#45;&gt;_DisallowMixedSignArithmetic -->
<g id="edge60" class="edge">
<path fill="none" stroke="#cccccc" d="M2230.14,-180.454C2329.19,-171.705 2587.43,-148.896 2728.54,-136.432"/>
<polygon fill="#cccccc" stroke="#cccccc" points="2729.25,-139.883 2738.91,-135.516 2728.64,-132.91 2729.25,-139.883"/>
</g>
<!-- _IntegerType&#45;&gt;_SignedIntegerType -->
<g id="edge61" class="edge">
<path fill="none" stroke="#cccccc" d="M2149.9,-179.987C2075,-172.409 1908.75,-155.203 1769,-138 1767.53,-137.819 1766.05,-137.635 1764.55,-137.446"/>
<polygon fill="#cccccc" stroke="#cccccc" points="1764.92,-133.965 1754.55,-136.164 1764.03,-140.908 1764.92,-133.965"/>
</g>
<!-- _SignedIntegerType&#45;&gt;SignedIntegerType -->
<g id="edge75" class="edge">
<path fill="none" stroke="#cccccc" d="M1714.59,-115.988C1730.61,-107.362 1753.97,-94.785 1772.21,-84.9633"/>
<polygon fill="#cccccc" stroke="#cccccc" points="1774.07,-87.9365 1781.22,-80.1138 1770.75,-81.7732 1774.07,-87.9365"/>
</g>
</g>
</svg>
