<?xml version="1.0" encoding="UTF-8" standalone="no"?>
<!DOCTYPE svg PUBLIC "-//W3C//DTD SVG 1.1//EN"
 "http://www.w3.org/Graphics/SVG/1.1/DTD/svg11.dtd">
<!-- Generated by graphviz version 2.36.0 (20140111.2315)
 -->
<!-- Title: MutableIndexable &#45; Type Hierarchy &#45; SwiftDoc.org Pages: 1 -->
<svg width="666pt" height="369pt"
 viewBox="0.00 0.00 666.40 369.20" xmlns="http://www.w3.org/2000/svg" xmlns:xlink="http://www.w3.org/1999/xlink">
<g id="graph0" class="graph" transform="scale(1 1) rotate(0) translate(7.2 311.6)">
<g transform="translate(0 -311.6)">
<g>
    <path fill="#666666" d="M13.846,10.832c-0.336-0.464-0.792-0.844-1.368-1.14s-1.224-0.444-1.944-0.444
        c-0.384,0-0.772,0.052-1.164,0.156C8.977,9.509,8.622,9.677,8.301,9.908c-0.32,0.232-0.58,0.52-0.78,0.864
        c-0.2,0.344-0.3,0.756-0.3,1.236c0,0.464,0.092,0.852,0.276,1.164c0.184,0.312,0.432,0.576,0.744,0.792s0.68,0.4,1.104,0.552
        c0.423,0.152,0.876,0.309,1.356,0.468c0.576,0.177,1.16,0.376,1.752,0.601c0.592,0.224,1.128,0.52,1.608,0.888
        s0.872,0.828,1.176,1.38s0.456,1.252,0.456,2.101c0,0.88-0.164,1.644-0.492,2.292c-0.328,0.647-0.765,1.184-1.308,1.607
        c-0.544,0.424-1.172,0.74-1.884,0.948s-1.444,0.312-2.196,0.312c-1.072,0-2.108-0.208-3.108-0.624
        c-1-0.415-1.828-1.031-2.484-1.848l1.848-1.56c0.4,0.592,0.936,1.071,1.608,1.439c0.672,0.368,1.399,0.552,2.184,0.552
        c0.4,0,0.8-0.056,1.2-0.168c0.4-0.111,0.764-0.288,1.092-0.527c0.328-0.24,0.596-0.54,0.804-0.9
        c0.208-0.36,0.312-0.796,0.312-1.308s-0.108-0.94-0.324-1.284c-0.216-0.344-0.508-0.636-0.876-0.876s-0.796-0.444-1.284-0.612
        c-0.488-0.168-1.004-0.34-1.548-0.516c-0.544-0.16-1.08-0.356-1.608-0.588c-0.528-0.232-1-0.528-1.416-0.889
        c-0.416-0.359-0.752-0.804-1.008-1.332c-0.256-0.527-0.384-1.184-0.384-1.968c0-0.848,0.172-1.576,0.516-2.184
        c0.344-0.608,0.792-1.112,1.344-1.512c0.552-0.4,1.176-0.692,1.872-0.876c0.696-0.184,1.396-0.276,2.1-0.276
        c0.992,0,1.92,0.176,2.784,0.528c0.864,0.352,1.56,0.824,2.088,1.416L13.846,10.832z"/>
    <path fill="#666666" d="M18.813,13.304l2.568,8.688h0.048l2.712-8.688h2.376l2.76,8.688h0.048l2.568-8.688h2.376L30.501,24.68
        h-2.352l-2.808-8.544h-0.048l-2.784,8.544h-2.352l-3.792-11.376H18.813z"/>
    <path fill="#666666" d="M38.685,9.2c0,0.416-0.147,0.76-0.44,1.032c-0.294,0.272-0.647,0.408-1.06,0.408s-0.762-0.14-1.047-0.42
        c-0.286-0.28-0.429-0.62-0.429-1.02c0-0.416,0.143-0.764,0.429-1.044c0.286-0.28,0.635-0.42,1.047-0.42s0.766,0.14,1.06,0.42
        C38.538,8.437,38.685,8.784,38.685,9.2z M38.325,24.68h-2.256V13.304h2.256V24.68z"/>
    <path fill="#666666" d="M47.613,15.152h-2.64v9.528h-2.256v-9.528h-2.256v-1.848h2.256v-2.376c0-0.672,0.076-1.292,0.228-1.86
        c0.152-0.568,0.4-1.06,0.744-1.476c0.344-0.416,0.784-0.744,1.32-0.984c0.536-0.24,1.188-0.36,1.956-0.36
        c0.544,0,1.016,0.056,1.416,0.168l-0.264,1.944c-0.176-0.048-0.352-0.088-0.528-0.12c-0.176-0.032-0.376-0.048-0.6-0.048
        c-0.432,0-0.78,0.076-1.044,0.228c-0.264,0.152-0.468,0.356-0.612,0.612s-0.24,0.548-0.288,0.876
        c-0.048,0.328-0.072,0.668-0.072,1.02v2.376h2.64V15.152z"/>
    <path fill="#666666" d="M54.909,15.152h-3.024v5.91c0,0.687,0.128,1.177,0.384,1.472c0.256,0.295,0.664,0.442,1.224,0.442
        c0.208,0,0.432-0.021,0.672-0.065c0.24-0.044,0.456-0.11,0.648-0.198l0.072,1.848c-0.272,0.096-0.572,0.172-0.9,0.229
        c-0.328,0.056-0.668,0.084-1.02,0.084c-1.072,0-1.892-0.296-2.46-0.889c-0.568-0.592-0.852-1.479-0.852-2.664v-6.168h-2.184
        v-1.848h2.184V10.04h2.232v3.264h3.024V15.152z"/>
    <path fill="#666666" d="M57.356,7.688h5.832c1.088,0,2.176,0.16,3.264,0.48c1.088,0.32,2.072,0.824,2.952,1.512
        s1.592,1.568,2.136,2.64c0.544,1.072,0.816,2.36,0.816,3.864c0,1.456-0.272,2.716-0.816,3.78s-1.256,1.943-2.136,2.64
        s-1.864,1.216-2.952,1.561c-1.088,0.344-2.176,0.516-3.264,0.516h-5.832V7.688z M59.732,22.593h2.976
        c1.024,0,1.972-0.145,2.844-0.432c0.872-0.288,1.624-0.704,2.256-1.248c0.632-0.544,1.124-1.216,1.476-2.017
        c0.352-0.8,0.528-1.704,0.528-2.712c0-1.056-0.176-1.983-0.528-2.784c-0.353-0.8-0.844-1.468-1.476-2.004
        c-0.632-0.536-1.384-0.944-2.256-1.224s-1.82-0.42-2.844-0.42h-2.976V22.593z"/>
    <path fill="#666666" d="M86.06,18.969c0,0.88-0.156,1.688-0.468,2.424c-0.312,0.736-0.744,1.372-1.296,1.908
        c-0.552,0.536-1.204,0.952-1.956,1.248c-0.752,0.296-1.56,0.443-2.424,0.443c-0.864,0-1.672-0.147-2.424-0.443
        c-0.752-0.296-1.4-0.712-1.944-1.248c-0.544-0.536-0.972-1.172-1.284-1.908c-0.312-0.735-0.468-1.544-0.468-2.424
        s0.156-1.684,0.468-2.412c0.312-0.728,0.74-1.356,1.284-1.884c0.543-0.528,1.191-0.939,1.944-1.236
        c0.752-0.296,1.56-0.444,2.424-0.444c0.864,0,1.672,0.148,2.424,0.444c0.752,0.297,1.404,0.708,1.956,1.236
        c0.552,0.527,0.984,1.156,1.296,1.884C85.904,17.285,86.06,18.089,86.06,18.969z M83.708,18.98c0-0.542-0.084-1.061-0.252-1.556
        c-0.169-0.494-0.414-0.929-0.734-1.304s-0.718-0.674-1.192-0.897s-1.015-0.335-1.625-0.335c-0.61,0-1.152,0.111-1.625,0.335
        c-0.474,0.224-0.871,0.522-1.191,0.897c-0.321,0.375-0.566,0.81-0.734,1.304C76.184,17.92,76.1,18.438,76.1,18.98
        c0,0.543,0.084,1.062,0.253,1.556c0.168,0.495,0.413,0.934,0.734,1.316c0.321,0.383,0.718,0.686,1.191,0.909
        c0.473,0.224,1.015,0.335,1.625,0.335c0.61,0,1.151-0.111,1.625-0.335s0.871-0.526,1.192-0.909s0.565-0.821,0.734-1.316
        C83.624,20.042,83.708,19.523,83.708,18.98z"/>
    <path fill="#666666" d="M96.428,16.184c-0.24-0.368-0.6-0.676-1.08-0.924s-0.992-0.372-1.536-0.372
        c-0.592,0-1.116,0.112-1.572,0.336c-0.456,0.225-0.844,0.524-1.164,0.9c-0.32,0.376-0.564,0.812-0.732,1.308
        s-0.252,1.017-0.252,1.56c0,0.545,0.084,1.064,0.252,1.561s0.412,0.933,0.732,1.308c0.32,0.376,0.712,0.677,1.176,0.9
        c0.464,0.225,0.992,0.336,1.584,0.336c0.576,0,1.1-0.111,1.572-0.336c0.472-0.224,0.86-0.528,1.164-0.912l1.512,1.368
        c-0.48,0.561-1.08,0.996-1.8,1.308c-0.72,0.312-1.536,0.468-2.448,0.468c-0.88,0-1.692-0.144-2.436-0.432
        c-0.744-0.288-1.388-0.691-1.932-1.212c-0.544-0.52-0.972-1.147-1.284-1.884s-0.468-1.561-0.468-2.473
        c0-0.896,0.152-1.711,0.456-2.447c0.304-0.736,0.728-1.368,1.272-1.896c0.543-0.527,1.188-0.936,1.932-1.224
        c0.744-0.288,1.548-0.433,2.412-0.433c0.8,0,1.596,0.16,2.388,0.48s1.419,0.784,1.884,1.392L96.428,16.184z"/>
    <path fill="#666666" d="M103.1,23.24c0,0.417-0.152,0.784-0.456,1.104c-0.304,0.32-0.688,0.479-1.152,0.479
        c-0.448,0-0.828-0.155-1.14-0.468c-0.312-0.312-0.468-0.676-0.468-1.092c0-0.432,0.152-0.804,0.456-1.116
        c0.304-0.312,0.688-0.468,1.152-0.468c0.464,0,0.848,0.152,1.152,0.456C102.947,22.44,103.1,22.808,103.1,23.24z"/>
    <path fill="#666666" d="M116.635,18.969c0,0.88-0.156,1.688-0.468,2.424c-0.312,0.736-0.744,1.372-1.296,1.908
        c-0.552,0.536-1.204,0.952-1.956,1.248c-0.752,0.296-1.56,0.443-2.424,0.443c-0.864,0-1.672-0.147-2.424-0.443
        c-0.752-0.296-1.4-0.712-1.944-1.248c-0.544-0.536-0.972-1.172-1.284-1.908c-0.312-0.735-0.468-1.544-0.468-2.424
        s0.156-1.684,0.468-2.412c0.312-0.728,0.74-1.356,1.284-1.884c0.543-0.528,1.191-0.939,1.944-1.236
        c0.752-0.296,1.56-0.444,2.424-0.444c0.864,0,1.672,0.148,2.424,0.444c0.752,0.297,1.404,0.708,1.956,1.236
        c0.552,0.527,0.984,1.156,1.296,1.884C116.479,17.285,116.635,18.089,116.635,18.969z M114.283,18.98
        c0-0.542-0.084-1.061-0.252-1.556c-0.169-0.494-0.414-0.929-0.734-1.304s-0.718-0.674-1.192-0.897s-1.015-0.335-1.625-0.335
        c-0.61,0-1.152,0.111-1.625,0.335c-0.474,0.224-0.871,0.522-1.191,0.897c-0.321,0.375-0.566,0.81-0.734,1.304
        c-0.169,0.495-0.253,1.014-0.253,1.556c0,0.543,0.084,1.062,0.253,1.556c0.168,0.495,0.413,0.934,0.734,1.316
        c0.321,0.383,0.718,0.686,1.191,0.909c0.473,0.224,1.015,0.335,1.625,0.335c0.61,0,1.151-0.111,1.625-0.335
        s0.871-0.526,1.192-0.909s0.565-0.821,0.734-1.316C114.199,20.042,114.283,19.523,114.283,18.98z"/>
    <path fill="#666666" d="M119.251,14.577c-0.016-0.48-0.04-0.904-0.072-1.272h2.136c0.032,0.288,0.056,0.62,0.072,0.996
        c0.016,0.376,0.024,0.684,0.024,0.924h0.072c0.32-0.672,0.788-1.212,1.404-1.62c0.616-0.408,1.308-0.612,2.076-0.612
        c0.352,0,0.648,0.033,0.888,0.097l-0.096,2.088c-0.32-0.08-0.664-0.12-1.032-0.12c-0.544,0-1.016,0.101-1.416,0.3
        c-0.4,0.2-0.732,0.468-0.996,0.805c-0.264,0.336-0.46,0.724-0.588,1.163c-0.128,0.44-0.192,0.9-0.192,1.381v5.976h-2.256v-8.928
        C119.275,15.449,119.267,15.056,119.251,14.577z"/>
    <path fill="#666666" d="M128.419,26.625c0.496,0.56,1.116,1.008,1.86,1.344c0.744,0.336,1.508,0.504,2.292,0.504
        c0.752,0,1.384-0.108,1.896-0.324s0.924-0.512,1.236-0.888s0.536-0.82,0.672-1.332c0.136-0.513,0.204-1.064,0.204-1.656v-1.464
        h-0.048c-0.416,0.641-0.984,1.128-1.704,1.464c-0.72,0.336-1.488,0.504-2.304,0.504c-0.864,0-1.652-0.151-2.364-0.456
        c-0.712-0.304-1.316-0.72-1.812-1.248c-0.496-0.527-0.88-1.147-1.152-1.859s-0.408-1.477-0.408-2.292
        c0-0.816,0.136-1.584,0.408-2.305c0.272-0.72,0.656-1.348,1.152-1.884c0.496-0.535,1.096-0.96,1.8-1.271
        c0.704-0.312,1.488-0.469,2.352-0.469c0.816,0,1.596,0.177,2.34,0.528c0.744,0.353,1.332,0.888,1.764,1.608h0.048v-1.824h2.184
        v10.8c0,0.832-0.104,1.628-0.312,2.388c-0.208,0.76-0.56,1.433-1.056,2.017s-1.144,1.052-1.944,1.404
        c-0.8,0.352-1.792,0.527-2.976,0.527c-0.992,0-1.988-0.18-2.988-0.54c-1-0.359-1.86-0.868-2.58-1.523L128.419,26.625z
         M129.091,18.873c0,0.527,0.084,1.031,0.253,1.512c0.168,0.479,0.417,0.904,0.746,1.271c0.329,0.369,0.726,0.664,1.192,0.889
        c0.465,0.224,0.995,0.336,1.589,0.336c0.577,0,1.107-0.104,1.589-0.312c0.481-0.207,0.891-0.491,1.228-0.852
        s0.598-0.784,0.782-1.272c0.185-0.487,0.277-1.012,0.277-1.571c0-0.544-0.093-1.057-0.277-1.536
        c-0.185-0.48-0.449-0.904-0.794-1.272c-0.345-0.367-0.755-0.66-1.228-0.876c-0.474-0.216-1-0.324-1.577-0.324
        c-0.594,0-1.124,0.108-1.589,0.324c-0.466,0.216-0.863,0.504-1.192,0.864s-0.578,0.784-0.746,1.271
        C129.175,17.812,129.091,18.329,129.091,18.873z"/>
</g>
<g><a xlink:href="/" pointer-events="all" target="_top"><polygon fill="none" points="0,0 145,0 145,35 0,35 0,0"/></a></g>

</g>


<!-- Array -->
<g id="node1" class="node">
<g id="a_node1"><a xlink:href="/v2.0/type/Array/" target="_top">
<polygon fill="#999999" stroke="#999999" points="162,-22 108,-22 108,-0 162,-0 162,-22"/>
<text text-anchor="middle" x="135" y="-7.4" font-family="Helvetica,sans-Serif" font-size="12.00" fill="white">Array</text>
</a>
</g>
</g>
<!-- ArraySlice -->
<g id="node2" class="node">
<g id="a_node2"><a xlink:href="/v2.0/type/ArraySlice/" target="_top">
<polygon fill="#999999" stroke="#999999" points="64.0114,-22 -0.0113922,-22 -0.0113922,-0 64.0114,-0 64.0114,-22"/>
<text text-anchor="middle" x="32" y="-7.4" font-family="Helvetica,sans-Serif" font-size="12.00" fill="white">ArraySlice</text>
</a>
</g>
</g>
<!-- ContiguousArray -->
<g id="node3" class="node">
<g id="a_node3"><a xlink:href="/v2.0/type/ContiguousArray/" target="_top">
<polygon fill="#999999" stroke="#999999" points="352.534,-22 253.466,-22 253.466,-0 352.534,-0 352.534,-22"/>
<text text-anchor="middle" x="303" y="-7.4" font-family="Helvetica,sans-Serif" font-size="12.00" fill="white">ContiguousArray</text>
</a>
</g>
</g>
<!-- MutableCollectionType -->
<g id="node4" class="node">
<g id="a_node4"><a xlink:href="/v2.0/protocol/MutableCollectionType/" target="_top">
<path fill="#999999" stroke="#999999" d="M362.221,-196C362.221,-196 245.779,-196 245.779,-196 242.112,-196 238.446,-192.333 238.446,-188.667 238.446,-188.667 238.446,-181.333 238.446,-181.333 238.446,-177.667 242.112,-174 245.779,-174 245.779,-174 362.221,-174 362.221,-174 365.888,-174 369.554,-177.667 369.554,-181.333 369.554,-181.333 369.554,-188.667 369.554,-188.667 369.554,-192.333 365.888,-196 362.221,-196"/>
<text text-anchor="middle" x="304" y="-181.4" font-family="Helvetica,sans-Serif" font-size="12.00" fill="white">MutableCollectionType</text>
</a>
</g>
</g>
<!-- MutableCollectionType&#45;&gt;Array -->
<g id="edge7" class="edge">
<path fill="none" stroke="#cccccc" d="M238.378,-175.621C193.264,-168.358 139.059,-156.129 125,-138 101.138,-107.23 115.16,-58.5795 126.013,-31.6194"/>
<polygon fill="#cccccc" stroke="#cccccc" points="129.36,-32.6932 130.071,-22.1223 122.923,-29.9426 129.36,-32.6932"/>
</g>
<!-- MutableCollectionType&#45;&gt;ArraySlice -->
<g id="edge8" class="edge">
<path fill="none" stroke="#cccccc" d="M238.478,-180.789C198.481,-175.994 148.083,-164.607 111,-138 73.2389,-110.906 49.5224,-59.6189 38.7692,-31.556"/>
<polygon fill="#cccccc" stroke="#cccccc" points="42.0078,-30.2216 35.2804,-22.0367 35.4353,-32.6304 42.0078,-30.2216"/>
</g>
<!-- MutableCollectionType&#45;&gt;ContiguousArray -->
<g id="edge9" class="edge">
<path fill="none" stroke="#cccccc" d="M297.822,-173.849C292.707,-164.811 285.836,-151.039 283,-138 274.887,-100.693 286.767,-56.4998 295.395,-31.6085"/>
<polygon fill="#cccccc" stroke="#cccccc" points="298.688,-32.7928 298.825,-22.1989 292.112,-30.3951 298.688,-32.7928"/>
</g>
<!-- MutableSlice -->
<g id="node6" class="node">
<g id="a_node6"><a xlink:href="/v2.0/type/MutableSlice/" target="_top">
<polygon fill="#999999" stroke="#999999" points="466.027,-22 387.973,-22 387.973,-0 466.027,-0 466.027,-22"/>
<text text-anchor="middle" x="427" y="-7.4" font-family="Helvetica,sans-Serif" font-size="12.00" fill="white">MutableSlice</text>
</a>
</g>
</g>
<!-- MutableCollectionType&#45;&gt;MutableSlice -->
<g id="edge10" class="edge">
<path fill="none" stroke="#cccccc" d="M347.538,-173.926C367.657,-167.072 390.114,-155.888 404,-138 427.981,-107.107 429.867,-59.1917 428.699,-32.224"/>
<polygon fill="#cccccc" stroke="#cccccc" points="432.181,-31.8231 428.066,-22.0597 425.194,-32.2577 432.181,-31.8231"/>
</g>
<!-- MutableSliceable -->
<g id="node7" class="node">
<g id="a_node7"><a xlink:href="/v2.0/protocol/MutableSliceable/" target="_top">
<path fill="#999999" stroke="#999999" d="M228.208,-138C228.208,-138 141.792,-138 141.792,-138 138.126,-138 134.459,-134.333 134.459,-130.667 134.459,-130.667 134.459,-123.333 134.459,-123.333 134.459,-119.667 138.126,-116 141.792,-116 141.792,-116 228.208,-116 228.208,-116 231.874,-116 235.541,-119.667 235.541,-123.333 235.541,-123.333 235.541,-130.667 235.541,-130.667 235.541,-134.333 231.874,-138 228.208,-138"/>
<text text-anchor="middle" x="185" y="-123.4" font-family="Helvetica,sans-Serif" font-size="12.00" fill="white">MutableSliceable</text>
</a>
</g>
</g>
<!-- MutableCollectionType&#45;&gt;MutableSliceable -->
<g id="edge11" class="edge">
<path fill="none" stroke="#cccccc" d="M282.725,-173.988C264.058,-165.204 236.685,-152.322 215.654,-142.425"/>
<polygon fill="#cccccc" stroke="#cccccc" points="217.03,-139.205 206.492,-138.114 214.05,-145.539 217.03,-139.205"/>
</g>
<!-- UnsafeMutableBufferPointer -->
<g id="node8" class="node">
<g id="a_node8"><a xlink:href="/v2.0/type/UnsafeMutableBufferPointer/" target="_top">
<polygon fill="#999999" stroke="#999999" points="651.905,-22 492.095,-22 492.095,-0 651.905,-0 651.905,-22"/>
<text text-anchor="middle" x="572" y="-7.4" font-family="Helvetica,sans-Serif" font-size="12.00" fill="white">UnsafeMutableBufferPointer</text>
</a>
</g>
</g>
<!-- MutableCollectionType&#45;&gt;UnsafeMutableBufferPointer -->
<g id="edge12" class="edge">
<path fill="none" stroke="#cccccc" d="M339.89,-173.954C364.777,-166.143 398.142,-153.952 425,-138 477.643,-106.733 529.796,-56.1681 555.503,-29.5985"/>
<polygon fill="#cccccc" stroke="#cccccc" points="558.223,-31.8181 562.604,-22.1711 553.163,-26.981 558.223,-31.8181"/>
</g>
<!-- _ArrayBufferType -->
<g id="node9" class="node">
<g id="a_node9"><a xlink:href="/v2.0/protocol/_ArrayBufferType/" target="_top">
<path fill="#999999" stroke="#999999" d="M388.044,-138C388.044,-138 299.956,-138 299.956,-138 296.29,-138 292.623,-134.333 292.623,-130.667 292.623,-130.667 292.623,-123.333 292.623,-123.333 292.623,-119.667 296.29,-116 299.956,-116 299.956,-116 388.044,-116 388.044,-116 391.71,-116 395.377,-119.667 395.377,-123.333 395.377,-123.333 395.377,-130.667 395.377,-130.667 395.377,-134.333 391.71,-138 388.044,-138"/>
<text text-anchor="middle" x="344" y="-123.4" font-family="Helvetica,sans-Serif" font-size="12.00" fill="white">_ArrayBufferType</text>
</a>
</g>
</g>
<!-- MutableCollectionType&#45;&gt;_ArrayBufferType -->
<g id="edge13" class="edge">
<path fill="none" stroke="#cccccc" d="M311.151,-173.988C316.601,-166.359 324.257,-155.64 330.807,-146.47"/>
<polygon fill="#cccccc" stroke="#cccccc" points="333.676,-148.476 336.64,-138.304 327.98,-144.407 333.676,-148.476"/>
</g>
<!-- MutableIndexable -->
<g id="node5" class="node">
<g id="a_node5"><a xlink:href="/v2.0/protocol/MutableIndexable/" target="_top">
<path fill="#ee543d" stroke="#ee543d" d="M427.718,-254C427.718,-254 338.282,-254 338.282,-254 334.615,-254 330.948,-250.333 330.948,-246.667 330.948,-246.667 330.948,-239.333 330.948,-239.333 330.948,-235.667 334.615,-232 338.282,-232 338.282,-232 427.718,-232 427.718,-232 431.385,-232 435.052,-235.667 435.052,-239.333 435.052,-239.333 435.052,-246.667 435.052,-246.667 435.052,-250.333 431.385,-254 427.718,-254"/>
<text text-anchor="middle" x="383" y="-239.4" font-family="Helvetica,sans-Serif" font-size="12.00" fill="white">MutableIndexable</text>
</a>
</g>
</g>
<!-- MutableIndexable&#45;&gt;Array -->
<g id="edge1" class="edge">
<path fill="none" stroke="#cccccc" d="M330.746,-239.45C266.022,-233.113 158.507,-211.435 111,-138 91.6812,-108.137 99.9519,-92.3965 109,-58 111.516,-48.4352 116.524,-38.7681 121.479,-30.7813"/>
<polygon fill="#cccccc" stroke="#cccccc" points="124.505,-32.5514 127.119,-22.2841 118.673,-28.6803 124.505,-32.5514"/>
</g>
<!-- MutableIndexable&#45;&gt;ArraySlice -->
<g id="edge2" class="edge">
<path fill="none" stroke="#cccccc" d="M330.49,-242.105C279.078,-239.983 200.208,-230.623 142,-196 84.7274,-161.933 76.0847,-139.956 47,-80 39.6723,-64.8944 35.8806,-46.1664 33.9449,-32.1915"/>
<polygon fill="#cccccc" stroke="#cccccc" points="37.4092,-31.6824 32.7583,-22.163 30.4577,-32.505 37.4092,-31.6824"/>
</g>
<!-- MutableIndexable&#45;&gt;ContiguousArray -->
<g id="edge3" class="edge">
<path fill="none" stroke="#cccccc" d="M388.287,-231.794C398.917,-209.811 420.506,-156.689 404,-116 388.58,-77.9875 351.856,-46.2222 327.205,-28.1573"/>
<polygon fill="#cccccc" stroke="#cccccc" points="328.91,-25.0751 318.731,-22.1354 324.855,-30.7811 328.91,-25.0751"/>
</g>
<!-- MutableIndexable&#45;&gt;MutableCollectionType -->
<g id="edge4" class="edge">
<path fill="none" stroke="#cccccc" d="M368.876,-231.988C357.153,-223.678 340.259,-211.703 326.65,-202.055"/>
<polygon fill="#cccccc" stroke="#cccccc" points="328.45,-199.042 318.268,-196.114 324.402,-204.752 328.45,-199.042"/>
</g>
<!-- MutableIndexable&#45;&gt;MutableSlice -->
<g id="edge5" class="edge">
<path fill="none" stroke="#cccccc" d="M425.646,-231.877C444.5,-225.051 464.882,-213.904 476,-196 508.357,-143.896 500.363,-114.287 476,-58 470.91,-46.2394 461.168,-36.1033 451.704,-28.3623"/>
<polygon fill="#cccccc" stroke="#cccccc" points="453.662,-25.4549 443.581,-22.1957 449.429,-31.0302 453.662,-25.4549"/>
</g>
<!-- MutableIndexable&#45;&gt;UnsafeMutableBufferPointer -->
<g id="edge6" class="edge">
<path fill="none" stroke="#cccccc" d="M429.815,-231.939C452.242,-225.061 478.056,-213.852 496,-196 542.851,-149.387 562.114,-69.7497 568.863,-32.4297"/>
<polygon fill="#cccccc" stroke="#cccccc" points="572.362,-32.7324 570.573,-22.2896 565.459,-31.5686 572.362,-32.7324"/>
</g>
<!-- MutableSliceable&#45;&gt;Array -->
<g id="edge14" class="edge">
<path fill="none" stroke="#cccccc" d="M199.638,-115.928C216.97,-102.712 241.952,-78.7576 229,-58 216.519,-37.9976 192.539,-26.454 171.924,-19.9333"/>
<polygon fill="#cccccc" stroke="#cccccc" points="172.717,-16.5196 162.139,-17.1207 170.783,-23.2472 172.717,-16.5196"/>
</g>
<!-- MutableSliceable&#45;&gt;ArraySlice -->
<g id="edge15" class="edge">
<path fill="none" stroke="#cccccc" d="M171.422,-115.883C144.95,-96.1587 86.2237,-52.4019 54.0797,-28.4515"/>
<polygon fill="#cccccc" stroke="#cccccc" points="55.8773,-25.4262 45.7672,-22.2579 51.6949,-31.0394 55.8773,-25.4262"/>
</g>
<!-- MutableSliceable&#45;&gt;ContiguousArray -->
<g id="edge16" class="edge">
<path fill="none" stroke="#cccccc" d="M199.997,-115.843C212.575,-107.018 230.72,-93.5545 245,-80 261.403,-64.4306 277.928,-44.5479 289.12,-30.31"/>
<polygon fill="#cccccc" stroke="#cccccc" points="291.996,-32.3131 295.351,-22.2634 286.461,-28.0275 291.996,-32.3131"/>
</g>
<!-- _ArrayType -->
<g id="node10" class="node">
<g id="a_node10"><a xlink:href="/v2.0/protocol/_ArrayType/" target="_top">
<path fill="#999999" stroke="#999999" d="M213.19,-80C213.19,-80 156.81,-80 156.81,-80 153.144,-80 149.477,-76.3333 149.477,-72.6667 149.477,-72.6667 149.477,-65.3333 149.477,-65.3333 149.477,-61.6667 153.144,-58 156.81,-58 156.81,-58 213.19,-58 213.19,-58 216.856,-58 220.523,-61.6667 220.523,-65.3333 220.523,-65.3333 220.523,-72.6667 220.523,-72.6667 220.523,-76.3333 216.856,-80 213.19,-80"/>
<text text-anchor="middle" x="185" y="-65.4" font-family="Helvetica,sans-Serif" font-size="12.00" fill="white">_ArrayType</text>
</a>
</g>
</g>
<!-- MutableSliceable&#45;&gt;_ArrayType -->
<g id="edge17" class="edge">
<path fill="none" stroke="#cccccc" d="M185,-115.988C185,-108.91 185,-99.1714 185,-90.4779"/>
<polygon fill="#cccccc" stroke="#cccccc" points="188.5,-90.3038 185,-80.3039 181.5,-90.3039 188.5,-90.3038"/>
</g>
<!-- _ArrayType&#45;&gt;Array -->
<g id="edge18" class="edge">
<path fill="none" stroke="#cccccc" d="M176.061,-57.9883C169.109,-50.2019 159.283,-39.1971 150.987,-29.9049"/>
<polygon fill="#cccccc" stroke="#cccccc" points="153.471,-27.4322 144.2,-22.3039 148.249,-32.0943 153.471,-27.4322"/>
</g>
<!-- _ArrayType&#45;&gt;ArraySlice -->
<g id="edge19" class="edge">
<path fill="none" stroke="#cccccc" d="M157.647,-57.9883C132.92,-48.9381 96.3145,-35.5399 68.9842,-25.5367"/>
<polygon fill="#cccccc" stroke="#cccccc" points="69.9678,-22.1697 59.374,-22.0192 67.5618,-28.7432 69.9678,-22.1697"/>
</g>
<!-- _ArrayType&#45;&gt;ContiguousArray -->
<g id="edge20" class="edge">
<path fill="none" stroke="#cccccc" d="M206.096,-57.9883C224.607,-49.2036 251.75,-36.3222 272.603,-26.4255"/>
<polygon fill="#cccccc" stroke="#cccccc" points="274.155,-29.5633 281.689,-22.1138 271.154,-23.2393 274.155,-29.5633"/>
</g>
</g>
</svg>
