<?xml version="1.0" encoding="UTF-8" standalone="no"?>
<!DOCTYPE svg PUBLIC "-//W3C//DTD SVG 1.1//EN"
 "http://www.w3.org/Graphics/SVG/1.1/DTD/svg11.dtd">
<!-- Generated by graphviz version 2.36.0 (20140111.2315)
 -->
<!-- Title: _Strideable &#45; Type Hierarchy &#45; SwiftDoc.org Pages: 1 -->
<svg width="1602pt" height="427pt"
 viewBox="0.00 0.00 1602.40 427.20" xmlns="http://www.w3.org/2000/svg" xmlns:xlink="http://www.w3.org/1999/xlink">
<g id="graph0" class="graph" transform="scale(1 1) rotate(0) translate(7.2 369.6)">
<g transform="translate(0 -369.6)">
<g>
    <path fill="#666666" d="M13.846,10.832c-0.336-0.464-0.792-0.844-1.368-1.14s-1.224-0.444-1.944-0.444
        c-0.384,0-0.772,0.052-1.164,0.156C8.977,9.509,8.622,9.677,8.301,9.908c-0.32,0.232-0.58,0.52-0.78,0.864
        c-0.2,0.344-0.3,0.756-0.3,1.236c0,0.464,0.092,0.852,0.276,1.164c0.184,0.312,0.432,0.576,0.744,0.792s0.68,0.4,1.104,0.552
        c0.423,0.152,0.876,0.309,1.356,0.468c0.576,0.177,1.16,0.376,1.752,0.601c0.592,0.224,1.128,0.52,1.608,0.888
        s0.872,0.828,1.176,1.38s0.456,1.252,0.456,2.101c0,0.88-0.164,1.644-0.492,2.292c-0.328,0.647-0.765,1.184-1.308,1.607
        c-0.544,0.424-1.172,0.74-1.884,0.948s-1.444,0.312-2.196,0.312c-1.072,0-2.108-0.208-3.108-0.624
        c-1-0.415-1.828-1.031-2.484-1.848l1.848-1.56c0.4,0.592,0.936,1.071,1.608,1.439c0.672,0.368,1.399,0.552,2.184,0.552
        c0.4,0,0.8-0.056,1.2-0.168c0.4-0.111,0.764-0.288,1.092-0.527c0.328-0.24,0.596-0.54,0.804-0.9
        c0.208-0.36,0.312-0.796,0.312-1.308s-0.108-0.94-0.324-1.284c-0.216-0.344-0.508-0.636-0.876-0.876s-0.796-0.444-1.284-0.612
        c-0.488-0.168-1.004-0.34-1.548-0.516c-0.544-0.16-1.08-0.356-1.608-0.588c-0.528-0.232-1-0.528-1.416-0.889
        c-0.416-0.359-0.752-0.804-1.008-1.332c-0.256-0.527-0.384-1.184-0.384-1.968c0-0.848,0.172-1.576,0.516-2.184
        c0.344-0.608,0.792-1.112,1.344-1.512c0.552-0.4,1.176-0.692,1.872-0.876c0.696-0.184,1.396-0.276,2.1-0.276
        c0.992,0,1.92,0.176,2.784,0.528c0.864,0.352,1.56,0.824,2.088,1.416L13.846,10.832z"/>
    <path fill="#666666" d="M18.813,13.304l2.568,8.688h0.048l2.712-8.688h2.376l2.76,8.688h0.048l2.568-8.688h2.376L30.501,24.68
        h-2.352l-2.808-8.544h-0.048l-2.784,8.544h-2.352l-3.792-11.376H18.813z"/>
    <path fill="#666666" d="M38.685,9.2c0,0.416-0.147,0.76-0.44,1.032c-0.294,0.272-0.647,0.408-1.06,0.408s-0.762-0.14-1.047-0.42
        c-0.286-0.28-0.429-0.62-0.429-1.02c0-0.416,0.143-0.764,0.429-1.044c0.286-0.28,0.635-0.42,1.047-0.42s0.766,0.14,1.06,0.42
        C38.538,8.437,38.685,8.784,38.685,9.2z M38.325,24.68h-2.256V13.304h2.256V24.68z"/>
    <path fill="#666666" d="M47.613,15.152h-2.64v9.528h-2.256v-9.528h-2.256v-1.848h2.256v-2.376c0-0.672,0.076-1.292,0.228-1.86
        c0.152-0.568,0.4-1.06,0.744-1.476c0.344-0.416,0.784-0.744,1.32-0.984c0.536-0.24,1.188-0.36,1.956-0.36
        c0.544,0,1.016,0.056,1.416,0.168l-0.264,1.944c-0.176-0.048-0.352-0.088-0.528-0.12c-0.176-0.032-0.376-0.048-0.6-0.048
        c-0.432,0-0.78,0.076-1.044,0.228c-0.264,0.152-0.468,0.356-0.612,0.612s-0.24,0.548-0.288,0.876
        c-0.048,0.328-0.072,0.668-0.072,1.02v2.376h2.64V15.152z"/>
    <path fill="#666666" d="M54.909,15.152h-3.024v5.91c0,0.687,0.128,1.177,0.384,1.472c0.256,0.295,0.664,0.442,1.224,0.442
        c0.208,0,0.432-0.021,0.672-0.065c0.24-0.044,0.456-0.11,0.648-0.198l0.072,1.848c-0.272,0.096-0.572,0.172-0.9,0.229
        c-0.328,0.056-0.668,0.084-1.02,0.084c-1.072,0-1.892-0.296-2.46-0.889c-0.568-0.592-0.852-1.479-0.852-2.664v-6.168h-2.184
        v-1.848h2.184V10.04h2.232v3.264h3.024V15.152z"/>
    <path fill="#666666" d="M57.356,7.688h5.832c1.088,0,2.176,0.16,3.264,0.48c1.088,0.32,2.072,0.824,2.952,1.512
        s1.592,1.568,2.136,2.64c0.544,1.072,0.816,2.36,0.816,3.864c0,1.456-0.272,2.716-0.816,3.78s-1.256,1.943-2.136,2.64
        s-1.864,1.216-2.952,1.561c-1.088,0.344-2.176,0.516-3.264,0.516h-5.832V7.688z M59.732,22.593h2.976
        c1.024,0,1.972-0.145,2.844-0.432c0.872-0.288,1.624-0.704,2.256-1.248c0.632-0.544,1.124-1.216,1.476-2.017
        c0.352-0.8,0.528-1.704,0.528-2.712c0-1.056-0.176-1.983-0.528-2.784c-0.353-0.8-0.844-1.468-1.476-2.004
        c-0.632-0.536-1.384-0.944-2.256-1.224s-1.82-0.42-2.844-0.42h-2.976V22.593z"/>
    <path fill="#666666" d="M86.06,18.969c0,0.88-0.156,1.688-0.468,2.424c-0.312,0.736-0.744,1.372-1.296,1.908
        c-0.552,0.536-1.204,0.952-1.956,1.248c-0.752,0.296-1.56,0.443-2.424,0.443c-0.864,0-1.672-0.147-2.424-0.443
        c-0.752-0.296-1.4-0.712-1.944-1.248c-0.544-0.536-0.972-1.172-1.284-1.908c-0.312-0.735-0.468-1.544-0.468-2.424
        s0.156-1.684,0.468-2.412c0.312-0.728,0.74-1.356,1.284-1.884c0.543-0.528,1.191-0.939,1.944-1.236
        c0.752-0.296,1.56-0.444,2.424-0.444c0.864,0,1.672,0.148,2.424,0.444c0.752,0.297,1.404,0.708,1.956,1.236
        c0.552,0.527,0.984,1.156,1.296,1.884C85.904,17.285,86.06,18.089,86.06,18.969z M83.708,18.98c0-0.542-0.084-1.061-0.252-1.556
        c-0.169-0.494-0.414-0.929-0.734-1.304s-0.718-0.674-1.192-0.897s-1.015-0.335-1.625-0.335c-0.61,0-1.152,0.111-1.625,0.335
        c-0.474,0.224-0.871,0.522-1.191,0.897c-0.321,0.375-0.566,0.81-0.734,1.304C76.184,17.92,76.1,18.438,76.1,18.98
        c0,0.543,0.084,1.062,0.253,1.556c0.168,0.495,0.413,0.934,0.734,1.316c0.321,0.383,0.718,0.686,1.191,0.909
        c0.473,0.224,1.015,0.335,1.625,0.335c0.61,0,1.151-0.111,1.625-0.335s0.871-0.526,1.192-0.909s0.565-0.821,0.734-1.316
        C83.624,20.042,83.708,19.523,83.708,18.98z"/>
    <path fill="#666666" d="M96.428,16.184c-0.24-0.368-0.6-0.676-1.08-0.924s-0.992-0.372-1.536-0.372
        c-0.592,0-1.116,0.112-1.572,0.336c-0.456,0.225-0.844,0.524-1.164,0.9c-0.32,0.376-0.564,0.812-0.732,1.308
        s-0.252,1.017-0.252,1.56c0,0.545,0.084,1.064,0.252,1.561s0.412,0.933,0.732,1.308c0.32,0.376,0.712,0.677,1.176,0.9
        c0.464,0.225,0.992,0.336,1.584,0.336c0.576,0,1.1-0.111,1.572-0.336c0.472-0.224,0.86-0.528,1.164-0.912l1.512,1.368
        c-0.48,0.561-1.08,0.996-1.8,1.308c-0.72,0.312-1.536,0.468-2.448,0.468c-0.88,0-1.692-0.144-2.436-0.432
        c-0.744-0.288-1.388-0.691-1.932-1.212c-0.544-0.52-0.972-1.147-1.284-1.884s-0.468-1.561-0.468-2.473
        c0-0.896,0.152-1.711,0.456-2.447c0.304-0.736,0.728-1.368,1.272-1.896c0.543-0.527,1.188-0.936,1.932-1.224
        c0.744-0.288,1.548-0.433,2.412-0.433c0.8,0,1.596,0.16,2.388,0.48s1.419,0.784,1.884,1.392L96.428,16.184z"/>
    <path fill="#666666" d="M103.1,23.24c0,0.417-0.152,0.784-0.456,1.104c-0.304,0.32-0.688,0.479-1.152,0.479
        c-0.448,0-0.828-0.155-1.14-0.468c-0.312-0.312-0.468-0.676-0.468-1.092c0-0.432,0.152-0.804,0.456-1.116
        c0.304-0.312,0.688-0.468,1.152-0.468c0.464,0,0.848,0.152,1.152,0.456C102.947,22.44,103.1,22.808,103.1,23.24z"/>
    <path fill="#666666" d="M116.635,18.969c0,0.88-0.156,1.688-0.468,2.424c-0.312,0.736-0.744,1.372-1.296,1.908
        c-0.552,0.536-1.204,0.952-1.956,1.248c-0.752,0.296-1.56,0.443-2.424,0.443c-0.864,0-1.672-0.147-2.424-0.443
        c-0.752-0.296-1.4-0.712-1.944-1.248c-0.544-0.536-0.972-1.172-1.284-1.908c-0.312-0.735-0.468-1.544-0.468-2.424
        s0.156-1.684,0.468-2.412c0.312-0.728,0.74-1.356,1.284-1.884c0.543-0.528,1.191-0.939,1.944-1.236
        c0.752-0.296,1.56-0.444,2.424-0.444c0.864,0,1.672,0.148,2.424,0.444c0.752,0.297,1.404,0.708,1.956,1.236
        c0.552,0.527,0.984,1.156,1.296,1.884C116.479,17.285,116.635,18.089,116.635,18.969z M114.283,18.98
        c0-0.542-0.084-1.061-0.252-1.556c-0.169-0.494-0.414-0.929-0.734-1.304s-0.718-0.674-1.192-0.897s-1.015-0.335-1.625-0.335
        c-0.61,0-1.152,0.111-1.625,0.335c-0.474,0.224-0.871,0.522-1.191,0.897c-0.321,0.375-0.566,0.81-0.734,1.304
        c-0.169,0.495-0.253,1.014-0.253,1.556c0,0.543,0.084,1.062,0.253,1.556c0.168,0.495,0.413,0.934,0.734,1.316
        c0.321,0.383,0.718,0.686,1.191,0.909c0.473,0.224,1.015,0.335,1.625,0.335c0.61,0,1.151-0.111,1.625-0.335
        s0.871-0.526,1.192-0.909s0.565-0.821,0.734-1.316C114.199,20.042,114.283,19.523,114.283,18.98z"/>
    <path fill="#666666" d="M119.251,14.577c-0.016-0.48-0.04-0.904-0.072-1.272h2.136c0.032,0.288,0.056,0.62,0.072,0.996
        c0.016,0.376,0.024,0.684,0.024,0.924h0.072c0.32-0.672,0.788-1.212,1.404-1.62c0.616-0.408,1.308-0.612,2.076-0.612
        c0.352,0,0.648,0.033,0.888,0.097l-0.096,2.088c-0.32-0.08-0.664-0.12-1.032-0.12c-0.544,0-1.016,0.101-1.416,0.3
        c-0.4,0.2-0.732,0.468-0.996,0.805c-0.264,0.336-0.46,0.724-0.588,1.163c-0.128,0.44-0.192,0.9-0.192,1.381v5.976h-2.256v-8.928
        C119.275,15.449,119.267,15.056,119.251,14.577z"/>
    <path fill="#666666" d="M128.419,26.625c0.496,0.56,1.116,1.008,1.86,1.344c0.744,0.336,1.508,0.504,2.292,0.504
        c0.752,0,1.384-0.108,1.896-0.324s0.924-0.512,1.236-0.888s0.536-0.82,0.672-1.332c0.136-0.513,0.204-1.064,0.204-1.656v-1.464
        h-0.048c-0.416,0.641-0.984,1.128-1.704,1.464c-0.72,0.336-1.488,0.504-2.304,0.504c-0.864,0-1.652-0.151-2.364-0.456
        c-0.712-0.304-1.316-0.72-1.812-1.248c-0.496-0.527-0.88-1.147-1.152-1.859s-0.408-1.477-0.408-2.292
        c0-0.816,0.136-1.584,0.408-2.305c0.272-0.72,0.656-1.348,1.152-1.884c0.496-0.535,1.096-0.96,1.8-1.271
        c0.704-0.312,1.488-0.469,2.352-0.469c0.816,0,1.596,0.177,2.34,0.528c0.744,0.353,1.332,0.888,1.764,1.608h0.048v-1.824h2.184
        v10.8c0,0.832-0.104,1.628-0.312,2.388c-0.208,0.76-0.56,1.433-1.056,2.017s-1.144,1.052-1.944,1.404
        c-0.8,0.352-1.792,0.527-2.976,0.527c-0.992,0-1.988-0.18-2.988-0.54c-1-0.359-1.86-0.868-2.58-1.523L128.419,26.625z
         M129.091,18.873c0,0.527,0.084,1.031,0.253,1.512c0.168,0.479,0.417,0.904,0.746,1.271c0.329,0.369,0.726,0.664,1.192,0.889
        c0.465,0.224,0.995,0.336,1.589,0.336c0.577,0,1.107-0.104,1.589-0.312c0.481-0.207,0.891-0.491,1.228-0.852
        s0.598-0.784,0.782-1.272c0.185-0.487,0.277-1.012,0.277-1.571c0-0.544-0.093-1.057-0.277-1.536
        c-0.185-0.48-0.449-0.904-0.794-1.272c-0.345-0.367-0.755-0.66-1.228-0.876c-0.474-0.216-1-0.324-1.577-0.324
        c-0.594,0-1.124,0.108-1.589,0.324c-0.466,0.216-0.863,0.504-1.192,0.864s-0.578,0.784-0.746,1.271
        C129.175,17.812,129.091,18.329,129.091,18.873z"/>
</g>
<g><a xlink:href="/" pointer-events="all" target="_top"><polygon fill="none" points="0,0 145,0 145,35 0,35 0,0"/></a></g>

</g>


<!-- AnyRandomAccessIndex -->
<g id="node1" class="node">
<g id="a_node1"><a xlink:href="/v2.1/type/AnyRandomAccessIndex/hierarchy/" target="_top">
<polygon fill="#999999" stroke="#999999" points="360.051,-22 215.949,-22 215.949,-0 360.051,-0 360.051,-22"/>
<text text-anchor="middle" x="288" y="-7.4" font-family="Helvetica,sans-Serif" font-size="12.00" fill="white">AnyRandomAccessIndex</text>
</a>
</g>
</g>
<!-- Bit -->
<g id="node2" class="node">
<g id="a_node2"><a xlink:href="/v2.1/type/Bit/hierarchy/" target="_top">
<polygon fill="#999999" stroke="#999999" points="504,-22 450,-22 450,-0 504,-0 504,-22"/>
<text text-anchor="middle" x="477" y="-7.4" font-family="Helvetica,sans-Serif" font-size="12.00" fill="white">Bit</text>
</a>
</g>
</g>
<!-- Double -->
<g id="node3" class="node">
<g id="a_node3"><a xlink:href="/v2.1/type/Double/hierarchy/" target="_top">
<polygon fill="#999999" stroke="#999999" points="126,-22 72,-22 72,-0 126,-0 126,-22"/>
<text text-anchor="middle" x="99" y="-7.4" font-family="Helvetica,sans-Serif" font-size="12.00" fill="white">Double</text>
</a>
</g>
</g>
<!-- Float -->
<g id="node4" class="node">
<g id="a_node4"><a xlink:href="/v2.1/type/Float/hierarchy/" target="_top">
<polygon fill="#999999" stroke="#999999" points="198,-22 144,-22 144,-0 198,-0 198,-22"/>
<text text-anchor="middle" x="171" y="-7.4" font-family="Helvetica,sans-Serif" font-size="12.00" fill="white">Float</text>
</a>
</g>
</g>
<!-- Float80 -->
<g id="node5" class="node">
<g id="a_node5"><a xlink:href="/v2.1/type/Float80/hierarchy/" target="_top">
<polygon fill="#999999" stroke="#999999" points="54,-22 0,-22 0,-0 54,-0 54,-22"/>
<text text-anchor="middle" x="27" y="-7.4" font-family="Helvetica,sans-Serif" font-size="12.00" fill="white">Float80</text>
</a>
</g>
</g>
<!-- FloatingPointType -->
<g id="node6" class="node">
<g id="a_node6"><a xlink:href="/v2.1/protocol/FloatingPointType/hierarchy/" target="_top">
<path fill="#999999" stroke="#999999" d="M185.715,-80C185.715,-80 94.285,-80 94.285,-80 90.6183,-80 86.9517,-76.3333 86.9517,-72.6667 86.9517,-72.6667 86.9517,-65.3333 86.9517,-65.3333 86.9517,-61.6667 90.6183,-58 94.285,-58 94.285,-58 185.715,-58 185.715,-58 189.382,-58 193.048,-61.6667 193.048,-65.3333 193.048,-65.3333 193.048,-72.6667 193.048,-72.6667 193.048,-76.3333 189.382,-80 185.715,-80"/>
<text text-anchor="middle" x="140" y="-65.4" font-family="Helvetica,sans-Serif" font-size="12.00" fill="white">FloatingPointType</text>
</a>
</g>
</g>
<!-- FloatingPointType&#45;&gt;Double -->
<g id="edge5" class="edge">
<path fill="none" stroke="#cccccc" d="M132.67,-57.9883C127.084,-50.3592 119.237,-39.6405 112.523,-30.4702"/>
<polygon fill="#cccccc" stroke="#cccccc" points="115.275,-28.3049 106.544,-22.3039 109.627,-32.4401 115.275,-28.3049"/>
</g>
<!-- FloatingPointType&#45;&gt;Float -->
<g id="edge6" class="edge">
<path fill="none" stroke="#cccccc" d="M145.542,-57.9883C149.635,-50.5952 155.334,-40.3005 160.302,-31.3253"/>
<polygon fill="#cccccc" stroke="#cccccc" points="163.515,-32.7479 165.296,-22.3039 157.391,-29.3577 163.515,-32.7479"/>
</g>
<!-- Int -->
<g id="node7" class="node">
<g id="a_node7"><a xlink:href="/v2.1/type/Int/hierarchy/" target="_top">
<polygon fill="#999999" stroke="#999999" points="432,-22 378,-22 378,-0 432,-0 432,-22"/>
<text text-anchor="middle" x="405" y="-7.4" font-family="Helvetica,sans-Serif" font-size="12.00" fill="white">Int</text>
</a>
</g>
</g>
<!-- Int&#45;&gt;Bit -->
<g id="edge19" class="edge">
<path fill="none" stroke="#cccccc" d="M432.281,-11C434.738,-11 437.194,-11 439.651,-11"/>
<polygon fill="#cccccc" stroke="#cccccc" points="439.75,-14.5001 449.75,-11 439.749,-7.5001 439.75,-14.5001"/>
</g>
<!-- Int16 -->
<g id="node8" class="node">
<g id="a_node8"><a xlink:href="/v2.1/type/Int16/hierarchy/" target="_top">
<polygon fill="#999999" stroke="#999999" points="576,-22 522,-22 522,-0 576,-0 576,-22"/>
<text text-anchor="middle" x="549" y="-7.4" font-family="Helvetica,sans-Serif" font-size="12.00" fill="white">Int16</text>
</a>
</g>
</g>
<!-- Int32 -->
<g id="node9" class="node">
<g id="a_node9"><a xlink:href="/v2.1/type/Int32/hierarchy/" target="_top">
<polygon fill="#999999" stroke="#999999" points="648,-22 594,-22 594,-0 648,-0 648,-22"/>
<text text-anchor="middle" x="621" y="-7.4" font-family="Helvetica,sans-Serif" font-size="12.00" fill="white">Int32</text>
</a>
</g>
</g>
<!-- Int64 -->
<g id="node10" class="node">
<g id="a_node10"><a xlink:href="/v2.1/type/Int64/hierarchy/" target="_top">
<polygon fill="#999999" stroke="#999999" points="720,-22 666,-22 666,-0 720,-0 720,-22"/>
<text text-anchor="middle" x="693" y="-7.4" font-family="Helvetica,sans-Serif" font-size="12.00" fill="white">Int64</text>
</a>
</g>
</g>
<!-- Int8 -->
<g id="node11" class="node">
<g id="a_node11"><a xlink:href="/v2.1/type/Int8/hierarchy/" target="_top">
<polygon fill="#999999" stroke="#999999" points="792,-22 738,-22 738,-0 792,-0 792,-22"/>
<text text-anchor="middle" x="765" y="-7.4" font-family="Helvetica,sans-Serif" font-size="12.00" fill="white">Int8</text>
</a>
</g>
</g>
<!-- IntegerType -->
<g id="node12" class="node">
<g id="a_node12"><a xlink:href="/v2.1/protocol/IntegerType/hierarchy/" target="_top">
<path fill="#999999" stroke="#999999" d="M1010.2,-138C1010.2,-138 951.798,-138 951.798,-138 948.132,-138 944.465,-134.333 944.465,-130.667 944.465,-130.667 944.465,-123.333 944.465,-123.333 944.465,-119.667 948.132,-116 951.798,-116 951.798,-116 1010.2,-116 1010.2,-116 1013.87,-116 1017.53,-119.667 1017.53,-123.333 1017.53,-123.333 1017.53,-130.667 1017.53,-130.667 1017.53,-134.333 1013.87,-138 1010.2,-138"/>
<text text-anchor="middle" x="981" y="-123.4" font-family="Helvetica,sans-Serif" font-size="12.00" fill="white">IntegerType</text>
</a>
</g>
</g>
<!-- SignedIntegerType -->
<g id="node15" class="node">
<g id="a_node15"><a xlink:href="/v2.1/protocol/SignedIntegerType/hierarchy/" target="_top">
<path fill="#999999" stroke="#999999" d="M704.727,-80C704.727,-80 609.273,-80 609.273,-80 605.606,-80 601.94,-76.3333 601.94,-72.6667 601.94,-72.6667 601.94,-65.3333 601.94,-65.3333 601.94,-61.6667 605.606,-58 609.273,-58 609.273,-58 704.727,-58 704.727,-58 708.394,-58 712.06,-61.6667 712.06,-65.3333 712.06,-65.3333 712.06,-72.6667 712.06,-72.6667 712.06,-76.3333 708.394,-80 704.727,-80"/>
<text text-anchor="middle" x="657" y="-65.4" font-family="Helvetica,sans-Serif" font-size="12.00" fill="white">SignedIntegerType</text>
</a>
</g>
</g>
<!-- IntegerType&#45;&gt;SignedIntegerType -->
<g id="edge12" class="edge">
<path fill="none" stroke="#cccccc" d="M944.463,-119.685C890.627,-110.38 789.159,-92.8424 722.318,-81.2896"/>
<polygon fill="#cccccc" stroke="#cccccc" points="722.759,-77.814 712.309,-79.5596 721.567,-84.7117 722.759,-77.814"/>
</g>
<!-- UnsignedIntegerType -->
<g id="node24" class="node">
<g id="a_node24"><a xlink:href="/v2.1/protocol/UnsignedIntegerType/hierarchy/" target="_top">
<path fill="#999999" stroke="#999999" d="M1035.73,-80C1035.73,-80 926.272,-80 926.272,-80 922.605,-80 918.938,-76.3333 918.938,-72.6667 918.938,-72.6667 918.938,-65.3333 918.938,-65.3333 918.938,-61.6667 922.605,-58 926.272,-58 926.272,-58 1035.73,-58 1035.73,-58 1039.39,-58 1043.06,-61.6667 1043.06,-65.3333 1043.06,-65.3333 1043.06,-72.6667 1043.06,-72.6667 1043.06,-76.3333 1039.39,-80 1035.73,-80"/>
<text text-anchor="middle" x="981" y="-65.4" font-family="Helvetica,sans-Serif" font-size="12.00" fill="white">UnsignedIntegerType</text>
</a>
</g>
</g>
<!-- IntegerType&#45;&gt;UnsignedIntegerType -->
<g id="edge13" class="edge">
<path fill="none" stroke="#cccccc" d="M981,-115.988C981,-108.91 981,-99.1714 981,-90.4779"/>
<polygon fill="#cccccc" stroke="#cccccc" points="984.5,-90.3038 981,-80.3039 977.5,-90.3039 984.5,-90.3038"/>
</g>
<!-- RandomAccessIndexType -->
<g id="node13" class="node">
<g id="a_node13"><a xlink:href="/v2.1/protocol/RandomAccessIndexType/hierarchy/" target="_top">
<path fill="#999999" stroke="#999999" d="M1184.23,-196C1184.23,-196 1049.77,-196 1049.77,-196 1046.11,-196 1042.44,-192.333 1042.44,-188.667 1042.44,-188.667 1042.44,-181.333 1042.44,-181.333 1042.44,-177.667 1046.11,-174 1049.77,-174 1049.77,-174 1184.23,-174 1184.23,-174 1187.89,-174 1191.56,-177.667 1191.56,-181.333 1191.56,-181.333 1191.56,-188.667 1191.56,-188.667 1191.56,-192.333 1187.89,-196 1184.23,-196"/>
<text text-anchor="middle" x="1117" y="-181.4" font-family="Helvetica,sans-Serif" font-size="12.00" fill="white">RandomAccessIndexType</text>
</a>
</g>
</g>
<!-- RandomAccessIndexType&#45;&gt;AnyRandomAccessIndex -->
<g id="edge7" class="edge">
<path fill="none" stroke="#cccccc" d="M1064.48,-173.999C970.013,-155.915 765.206,-116.281 593,-80 504.496,-61.3537 401.911,-38.1539 341.121,-24.2397"/>
<polygon fill="#cccccc" stroke="#cccccc" points="341.896,-20.8266 331.367,-22.0046 340.333,-27.6498 341.896,-20.8266"/>
</g>
<!-- RandomAccessIndexType&#45;&gt;IntegerType -->
<g id="edge8" class="edge">
<path fill="none" stroke="#cccccc" d="M1092.69,-173.988C1071.06,-165.085 1039.22,-151.973 1015.06,-142.026"/>
<polygon fill="#cccccc" stroke="#cccccc" points="1016.14,-138.685 1005.56,-138.114 1013.48,-145.158 1016.14,-138.685"/>
</g>
<!-- ReverseRandomAccessIndex -->
<g id="node14" class="node">
<g id="a_node14"><a xlink:href="/v2.1/type/ReverseRandomAccessIndex/hierarchy/" target="_top">
<polygon fill="#999999" stroke="#999999" points="1338.06,-22 1169.94,-22 1169.94,-0 1338.06,-0 1338.06,-22"/>
<text text-anchor="middle" x="1254" y="-7.4" font-family="Helvetica,sans-Serif" font-size="12.00" fill="white">ReverseRandomAccessIndex</text>
</a>
</g>
</g>
<!-- RandomAccessIndexType&#45;&gt;ReverseRandomAccessIndex -->
<g id="edge9" class="edge">
<path fill="none" stroke="#cccccc" d="M1125.16,-173.756C1147.57,-145.621 1210.31,-66.8536 1239.15,-30.6411"/>
<polygon fill="#cccccc" stroke="#cccccc" points="1242.22,-32.4107 1245.71,-22.4081 1236.74,-28.0495 1242.22,-32.4107"/>
</g>
<!-- UnsafeMutablePointer -->
<g id="node22" class="node">
<g id="a_node22"><a xlink:href="/v2.1/type/UnsafeMutablePointer/hierarchy/" target="_top">
<polygon fill="#999999" stroke="#999999" points="1484.05,-22 1355.95,-22 1355.95,-0 1484.05,-0 1484.05,-22"/>
<text text-anchor="middle" x="1420" y="-7.4" font-family="Helvetica,sans-Serif" font-size="12.00" fill="white">UnsafeMutablePointer</text>
</a>
</g>
</g>
<!-- RandomAccessIndexType&#45;&gt;UnsafeMutablePointer -->
<g id="edge10" class="edge">
<path fill="none" stroke="#cccccc" d="M1135.05,-173.756C1186.2,-144.717 1332.37,-61.7444 1393.07,-27.2883"/>
<polygon fill="#cccccc" stroke="#cccccc" points="1395.08,-30.1711 1402.05,-22.1906 1391.62,-24.0835 1395.08,-30.1711"/>
</g>
<!-- UnsafePointer -->
<g id="node23" class="node">
<g id="a_node23"><a xlink:href="/v2.1/type/UnsafePointer/hierarchy/" target="_top">
<polygon fill="#999999" stroke="#999999" points="1588.03,-22 1501.97,-22 1501.97,-0 1588.03,-0 1588.03,-22"/>
<text text-anchor="middle" x="1545" y="-7.4" font-family="Helvetica,sans-Serif" font-size="12.00" fill="white">UnsafePointer</text>
</a>
</g>
</g>
<!-- RandomAccessIndexType&#45;&gt;UnsafePointer -->
<g id="edge11" class="edge">
<path fill="none" stroke="#cccccc" d="M1142.18,-173.883C1215.17,-144.548 1427.02,-59.4131 1510.55,-25.8429"/>
<polygon fill="#cccccc" stroke="#cccccc" points="1511.88,-29.081 1519.86,-22.1045 1509.27,-22.5858 1511.88,-29.081"/>
</g>
<!-- SignedIntegerType&#45;&gt;Int -->
<g id="edge14" class="edge">
<path fill="none" stroke="#cccccc" d="M605.3,-57.9138C563.643,-49.5777 503.361,-37.0452 441.944,-22.1277"/>
<polygon fill="#cccccc" stroke="#cccccc" points="442.626,-18.6912 432.08,-19.7133 440.961,-25.4905 442.626,-18.6912"/>
</g>
<!-- SignedIntegerType&#45;&gt;Int16 -->
<g id="edge15" class="edge">
<path fill="none" stroke="#cccccc" d="M637.692,-57.9883C620.979,-49.3223 596.577,-36.6696 577.597,-26.8283"/>
<polygon fill="#cccccc" stroke="#cccccc" points="578.994,-23.6099 568.505,-22.1138 575.772,-29.8242 578.994,-23.6099"/>
</g>
<!-- SignedIntegerType&#45;&gt;Int32 -->
<g id="edge16" class="edge">
<path fill="none" stroke="#cccccc" d="M650.564,-57.9883C645.71,-50.4379 638.911,-39.8611 633.056,-30.7543"/>
<polygon fill="#cccccc" stroke="#cccccc" points="635.976,-28.823 627.624,-22.3039 630.087,-32.6083 635.976,-28.823"/>
</g>
<!-- SignedIntegerType&#45;&gt;Int64 -->
<g id="edge17" class="edge">
<path fill="none" stroke="#cccccc" d="M663.436,-57.9883C668.29,-50.4379 675.089,-39.8611 680.944,-30.7543"/>
<polygon fill="#cccccc" stroke="#cccccc" points="683.913,-32.6083 686.376,-22.3039 678.024,-28.823 683.913,-32.6083"/>
</g>
<!-- SignedIntegerType&#45;&gt;Int8 -->
<g id="edge18" class="edge">
<path fill="none" stroke="#cccccc" d="M676.308,-57.9883C693.021,-49.3223 717.423,-36.6696 736.403,-26.8283"/>
<polygon fill="#cccccc" stroke="#cccccc" points="738.228,-29.8242 745.495,-22.1138 735.006,-23.6099 738.228,-29.8242"/>
</g>
<!-- Strideable -->
<g id="node16" class="node">
<g id="a_node16"><a xlink:href="/v2.1/protocol/Strideable/hierarchy/" target="_top">
<path fill="#999999" stroke="#999999" d="M164.693,-254C164.693,-254 115.307,-254 115.307,-254 111.64,-254 107.974,-250.333 107.974,-246.667 107.974,-246.667 107.974,-239.333 107.974,-239.333 107.974,-235.667 111.64,-232 115.307,-232 115.307,-232 164.693,-232 164.693,-232 168.36,-232 172.026,-235.667 172.026,-239.333 172.026,-239.333 172.026,-246.667 172.026,-246.667 172.026,-250.333 168.36,-254 164.693,-254"/>
<text text-anchor="middle" x="140" y="-239.4" font-family="Helvetica,sans-Serif" font-size="12.00" fill="white">Strideable</text>
</a>
</g>
</g>
<!-- Strideable&#45;&gt;Float80 -->
<g id="edge2" class="edge">
<path fill="none" stroke="#cccccc" d="M134.999,-231.82C117.569,-196.345 59.3221,-77.7884 36.3908,-31.114"/>
<polygon fill="#cccccc" stroke="#cccccc" points="39.4945,-29.4939 31.9435,-22.062 33.2118,-32.5807 39.4945,-29.4939"/>
</g>
<!-- Strideable&#45;&gt;FloatingPointType -->
<g id="edge3" class="edge">
<path fill="none" stroke="#cccccc" d="M140,-231.756C140,-204.097 140,-127.509 140,-90.5186"/>
<polygon fill="#cccccc" stroke="#cccccc" points="143.5,-90.408 140,-80.4081 136.5,-90.4081 143.5,-90.408"/>
</g>
<!-- Strideable&#45;&gt;RandomAccessIndexType -->
<g id="edge4" class="edge">
<path fill="none" stroke="#cccccc" d="M172.228,-240.153C306.818,-232.438 826.517,-202.65 1032.35,-190.852"/>
<polygon fill="#cccccc" stroke="#cccccc" points="1032.72,-194.336 1042.51,-190.27 1032.32,-187.348 1032.72,-194.336"/>
</g>
<!-- UInt -->
<g id="node17" class="node">
<g id="a_node17"><a xlink:href="/v2.1/type/UInt/hierarchy/" target="_top">
<polygon fill="#999999" stroke="#999999" points="864,-22 810,-22 810,-0 864,-0 864,-22"/>
<text text-anchor="middle" x="837" y="-7.4" font-family="Helvetica,sans-Serif" font-size="12.00" fill="white">UInt</text>
</a>
</g>
</g>
<!-- UInt16 -->
<g id="node18" class="node">
<g id="a_node18"><a xlink:href="/v2.1/type/UInt16/hierarchy/" target="_top">
<polygon fill="#999999" stroke="#999999" points="936,-22 882,-22 882,-0 936,-0 936,-22"/>
<text text-anchor="middle" x="909" y="-7.4" font-family="Helvetica,sans-Serif" font-size="12.00" fill="white">UInt16</text>
</a>
</g>
</g>
<!-- UInt32 -->
<g id="node19" class="node">
<g id="a_node19"><a xlink:href="/v2.1/type/UInt32/hierarchy/" target="_top">
<polygon fill="#999999" stroke="#999999" points="1008,-22 954,-22 954,-0 1008,-0 1008,-22"/>
<text text-anchor="middle" x="981" y="-7.4" font-family="Helvetica,sans-Serif" font-size="12.00" fill="white">UInt32</text>
</a>
</g>
</g>
<!-- UInt64 -->
<g id="node20" class="node">
<g id="a_node20"><a xlink:href="/v2.1/type/UInt64/hierarchy/" target="_top">
<polygon fill="#999999" stroke="#999999" points="1080,-22 1026,-22 1026,-0 1080,-0 1080,-22"/>
<text text-anchor="middle" x="1053" y="-7.4" font-family="Helvetica,sans-Serif" font-size="12.00" fill="white">UInt64</text>
</a>
</g>
</g>
<!-- UInt8 -->
<g id="node21" class="node">
<g id="a_node21"><a xlink:href="/v2.1/type/UInt8/hierarchy/" target="_top">
<polygon fill="#999999" stroke="#999999" points="1152,-22 1098,-22 1098,-0 1152,-0 1152,-22"/>
<text text-anchor="middle" x="1125" y="-7.4" font-family="Helvetica,sans-Serif" font-size="12.00" fill="white">UInt8</text>
</a>
</g>
</g>
<!-- UnsignedIntegerType&#45;&gt;UInt -->
<g id="edge20" class="edge">
<path fill="none" stroke="#cccccc" d="M955.256,-57.9883C932.158,-49.0057 898.045,-35.7398 872.386,-25.7614"/>
<polygon fill="#cccccc" stroke="#cccccc" points="873.596,-22.4763 863.007,-22.1138 871.058,-29.0004 873.596,-22.4763"/>
</g>
<!-- UnsignedIntegerType&#45;&gt;UInt16 -->
<g id="edge21" class="edge">
<path fill="none" stroke="#cccccc" d="M968.128,-57.9883C957.611,-49.8087 942.528,-38.0773 930.228,-28.5108"/>
<polygon fill="#cccccc" stroke="#cccccc" points="932.29,-25.6806 922.248,-22.3039 927.993,-31.2061 932.29,-25.6806"/>
</g>
<!-- UnsignedIntegerType&#45;&gt;UInt32 -->
<g id="edge22" class="edge">
<path fill="none" stroke="#cccccc" d="M981,-57.9883C981,-50.9098 981,-41.1714 981,-32.4779"/>
<polygon fill="#cccccc" stroke="#cccccc" points="984.5,-32.3038 981,-22.3039 977.5,-32.3039 984.5,-32.3038"/>
</g>
<!-- UnsignedIntegerType&#45;&gt;UInt64 -->
<g id="edge23" class="edge">
<path fill="none" stroke="#cccccc" d="M993.872,-57.9883C1004.39,-49.8087 1019.47,-38.0773 1031.77,-28.5108"/>
<polygon fill="#cccccc" stroke="#cccccc" points="1034.01,-31.2061 1039.75,-22.3039 1029.71,-25.6806 1034.01,-31.2061"/>
</g>
<!-- UnsignedIntegerType&#45;&gt;UInt8 -->
<g id="edge24" class="edge">
<path fill="none" stroke="#cccccc" d="M1006.74,-57.9883C1029.84,-49.0057 1063.95,-35.7398 1089.61,-25.7614"/>
<polygon fill="#cccccc" stroke="#cccccc" points="1090.94,-29.0004 1098.99,-22.1138 1088.4,-22.4763 1090.94,-29.0004"/>
</g>
<!-- _Strideable -->
<g id="node25" class="node">
<g id="a_node25"><a xlink:href="/v2.1/protocol/_Strideable/" target="_top">
<path fill="#ee543d" stroke="#ee543d" d="M167.7,-312C167.7,-312 112.3,-312 112.3,-312 108.634,-312 104.967,-308.333 104.967,-304.667 104.967,-304.667 104.967,-297.333 104.967,-297.333 104.967,-293.667 108.634,-290 112.3,-290 112.3,-290 167.7,-290 167.7,-290 171.366,-290 175.033,-293.667 175.033,-297.333 175.033,-297.333 175.033,-304.667 175.033,-304.667 175.033,-308.333 171.366,-312 167.7,-312"/>
<text text-anchor="middle" x="140" y="-297.4" font-family="Helvetica,sans-Serif" font-size="12.00" fill="white">_Strideable</text>
</a>
</g>
</g>
<!-- _Strideable&#45;&gt;Strideable -->
<g id="edge1" class="edge">
<path fill="none" stroke="#cccccc" d="M140,-289.988C140,-282.91 140,-273.171 140,-264.478"/>
<polygon fill="#cccccc" stroke="#cccccc" points="143.5,-264.304 140,-254.304 136.5,-264.304 143.5,-264.304"/>
</g>
</g>
</svg>
