<?xml version="1.0" encoding="UTF-8" standalone="no"?>
<!DOCTYPE svg PUBLIC "-//W3C//DTD SVG 1.1//EN"
 "http://www.w3.org/Graphics/SVG/1.1/DTD/svg11.dtd">
<!-- Generated by graphviz version 2.36.0 (20140111.2315)
 -->
<!-- Title: _Strideable &#45; Type Hierarchy &#45; SwiftDoc.org Pages: 1 -->
<svg width="1602pt" height="427pt"
 viewBox="0.00 0.00 1602.40 427.20" xmlns="http://www.w3.org/2000/svg" xmlns:xlink="http://www.w3.org/1999/xlink">
<g id="graph0" class="graph" transform="scale(1 1) rotate(0) translate(7.2 369.6)">
<g transform="translate(0 -369.6)">
<g>
    <path fill="#666666" d="M13.846,10.832c-0.336-0.464-0.792-0.844-1.368-1.14s-1.224-0.444-1.944-0.444
        c-0.384,0-0.772,0.052-1.164,0.156C8.977,9.509,8.622,9.677,8.301,9.908c-0.32,0.232-0.58,0.52-0.78,0.864
        c-0.2,0.344-0.3,0.756-0.3,1.236c0,0.464,0.092,0.852,0.276,1.164c0.184,0.312,0.432,0.576,0.744,0.792s0.68,0.4,1.104,0.552
        c0.423,0.152,0.876,0.309,1.356,0.468c0.576,0.177,1.16,0.376,1.752,0.601c0.592,0.224,1.128,0.52,1.608,0.888
        s0.872,0.828,1.176,1.38s0.456,1.252,0.456,2.101c0,0.88-0.164,1.644-0.492,2.292c-0.328,0.647-0.765,1.184-1.308,1.607
        c-0.544,0.424-1.172,0.74-1.884,0.948s-1.444,0.312-2.196,0.312c-1.072,0-2.108-0.208-3.108-0.624
        c-1-0.415-1.828-1.031-2.484-1.848l1.848-1.56c0.4,0.592,0.936,1.071,1.608,1.439c0.672,0.368,1.399,0.552,2.184,0.552
        c0.4,0,0.8-0.056,1.2-0.168c0.4-0.111,0.764-0.288,1.092-0.527c0.328-0.24,0.596-0.54,0.804-0.9
        c0.208-0.36,0.312-0.796,0.312-1.308s-0.108-0.94-0.324-1.284c-0.216-0.344-0.508-0.636-0.876-0.876s-0.796-0.444-1.284-0.612
        c-0.488-0.168-1.004-0.34-1.548-0.516c-0.544-0.16-1.08-0.356-1.608-0.588c-0.528-0.232-1-0.528-1.416-0.889
        c-0.416-0.359-0.752-0.804-1.008-1.332c-0.256-0.527-0.384-1.184-0.384-1.968c0-0.848,0.172-1.576,0.516-2.184
        c0.344-0.608,0.792-1.112,1.344-1.512c0.552-0.4,1.176-0.692,1.872-0.876c0.696-0.184,1.396-0.276,2.1-0.276
        c0.992,0,1.92,0.176,2.784,0.528c0.864,0.352,1.56,0.824,2.088,1.416L13.846,10.832z"/>
    <path fill="#666666" d="M18.813,13.304l2.568,8.688h0.048l2.712-8.688h2.376l2.76,8.688h0.048l2.568-8.688h2.376L30.501,24.68
        h-2.352l-2.808-8.544h-0.048l-2.784,8.544h-2.352l-3.792-11.376H18.813z"/>
    <path fill="#666666" d="M38.685,9.2c0,0.416-0.147,0.76-0.44,1.032c-0.294,0.272-0.647,0.408-1.06,0.408s-0.762-0.14-1.047-0.42
        c-0.286-0.28-0.429-0.62-0.429-1.02c0-0.416,0.143-0.764,0.429-1.044c0.286-0.28,0.635-0.42,1.047-0.42s0.766,0.14,1.06,0.42
        C38.538,8.437,38.685,8.784,38.685,9.2z M38.325,24.68h-2.256V13.304h2.256V24.68z"/>
    <path fill="#666666" d="M47.613,15.152h-2.64v9.528h-2.256v-9.528h-2.256v-1.848h2.256v-2.376c0-0.672,0.076-1.292,0.228-1.86
        c0.152-0.568,0.4-1.06,0.744-1.476c0.344-0.416,0.784-0.744,1.32-0.984c0.536-0.24,1.188-0.36,1.956-0.36
        c0.544,0,1.016,0.056,1.416,0.168l-0.264,1.944c-0.176-0.048-0.352-0.088-0.528-0.12c-0.176-0.032-0.376-0.048-0.6-0.048
        c-0.432,0-0.78,0.076-1.044,0.228c-0.264,0.152-0.468,0.356-0.612,0.612s-0.24,0.548-0.288,0.876
        c-0.048,0.328-0.072,0.668-0.072,1.02v2.376h2.64V15.152z"/>
    <path fill="#666666" d="M54.909,15.152h-3.024v5.91c0,0.687,0.128,1.177,0.384,1.472c0.256,0.295,0.664,0.442,1.224,0.442
        c0.208,0,0.432-0.021,0.672-0.065c0.24-0.044,0.456-0.11,0.648-0.198l0.072,1.848c-0.272,0.096-0.572,0.172-0.9,0.229
        c-0.328,0.056-0.668,0.084-1.02,0.084c-1.072,0-1.892-0.296-2.46-0.889c-0.568-0.592-0.852-1.479-0.852-2.664v-6.168h-2.184
        v-1.848h2.184V10.04h2.232v3.264h3.024V15.152z"/>
    <path fill="#666666" d="M57.356,7.688h5.832c1.088,0,2.176,0.16,3.264,0.48c1.088,0.32,2.072,0.824,2.952,1.512
        s1.592,1.568,2.136,2.64c0.544,1.072,0.816,2.36,0.816,3.864c0,1.456-0.272,2.716-0.816,3.78s-1.256,1.943-2.136,2.64
        s-1.864,1.216-2.952,1.561c-1.088,0.344-2.176,0.516-3.264,0.516h-5.832V7.688z M59.732,22.593h2.976
        c1.024,0,1.972-0.145,2.844-0.432c0.872-0.288,1.624-0.704,2.256-1.248c0.632-0.544,1.124-1.216,1.476-2.017
        c0.352-0.8,0.528-1.704,0.528-2.712c0-1.056-0.176-1.983-0.528-2.784c-0.353-0.8-0.844-1.468-1.476-2.004
        c-0.632-0.536-1.384-0.944-2.256-1.224s-1.82-0.42-2.844-0.42h-2.976V22.593z"/>
    <path fill="#666666" d="M86.06,18.969c0,0.88-0.156,1.688-0.468,2.424c-0.312,0.736-0.744,1.372-1.296,1.908
        c-0.552,0.536-1.204,0.952-1.956,1.248c-0.752,0.296-1.56,0.443-2.424,0.443c-0.864,0-1.672-0.147-2.424-0.443
        c-0.752-0.296-1.4-0.712-1.944-1.248c-0.544-0.536-0.972-1.172-1.284-1.908c-0.312-0.735-0.468-1.544-0.468-2.424
        s0.156-1.684,0.468-2.412c0.312-0.728,0.74-1.356,1.284-1.884c0.543-0.528,1.191-0.939,1.944-1.236
        c0.752-0.296,1.56-0.444,2.424-0.444c0.864,0,1.672,0.148,2.424,0.444c0.752,0.297,1.404,0.708,1.956,1.236
        c0.552,0.527,0.984,1.156,1.296,1.884C85.904,17.285,86.06,18.089,86.06,18.969z M83.708,18.98c0-0.542-0.084-1.061-0.252-1.556
        c-0.169-0.494-0.414-0.929-0.734-1.304s-0.718-0.674-1.192-0.897s-1.015-0.335-1.625-0.335c-0.61,0-1.152,0.111-1.625,0.335
        c-0.474,0.224-0.871,0.522-1.191,0.897c-0.321,0.375-0.566,0.81-0.734,1.304C76.184,17.92,76.1,18.438,76.1,18.98
        c0,0.543,0.084,1.062,0.253,1.556c0.168,0.495,0.413,0.934,0.734,1.316c0.321,0.383,0.718,0.686,1.191,0.909
        c0.473,0.224,1.015,0.335,1.625,0.335c0.61,0,1.151-0.111,1.625-0.335s0.871-0.526,1.192-0.909s0.565-0.821,0.734-1.316
        C83.624,20.042,83.708,19.523,83.708,18.98z"/>
    <path fill="#666666" d="M96.428,16.184c-0.24-0.368-0.6-0.676-1.08-0.924s-0.992-0.372-1.536-0.372
        c-0.592,0-1.116,0.112-1.572,0.336c-0.456,0.225-0.844,0.524-1.164,0.9c-0.32,0.376-0.564,0.812-0.732,1.308
        s-0.252,1.017-0.252,1.56c0,0.545,0.084,1.064,0.252,1.561s0.412,0.933,0.732,1.308c0.32,0.376,0.712,0.677,1.176,0.9
        c0.464,0.225,0.992,0.336,1.584,0.336c0.576,0,1.1-0.111,1.572-0.336c0.472-0.224,0.86-0.528,1.164-0.912l1.512,1.368
        c-0.48,0.561-1.08,0.996-1.8,1.308c-0.72,0.312-1.536,0.468-2.448,0.468c-0.88,0-1.692-0.144-2.436-0.432
        c-0.744-0.288-1.388-0.691-1.932-1.212c-0.544-0.52-0.972-1.147-1.284-1.884s-0.468-1.561-0.468-2.473
        c0-0.896,0.152-1.711,0.456-2.447c0.304-0.736,0.728-1.368,1.272-1.896c0.543-0.527,1.188-0.936,1.932-1.224
        c0.744-0.288,1.548-0.433,2.412-0.433c0.8,0,1.596,0.16,2.388,0.48s1.419,0.784,1.884,1.392L96.428,16.184z"/>
    <path fill="#666666" d="M103.1,23.24c0,0.417-0.152,0.784-0.456,1.104c-0.304,0.32-0.688,0.479-1.152,0.479
        c-0.448,0-0.828-0.155-1.14-0.468c-0.312-0.312-0.468-0.676-0.468-1.092c0-0.432,0.152-0.804,0.456-1.116
        c0.304-0.312,0.688-0.468,1.152-0.468c0.464,0,0.848,0.152,1.152,0.456C102.947,22.44,103.1,22.808,103.1,23.24z"/>
    <path fill="#666666" d="M116.635,18.969c0,0.88-0.156,1.688-0.468,2.424c-0.312,0.736-0.744,1.372-1.296,1.908
        c-0.552,0.536-1.204,0.952-1.956,1.248c-0.752,0.296-1.56,0.443-2.424,0.443c-0.864,0-1.672-0.147-2.424-0.443
        c-0.752-0.296-1.4-0.712-1.944-1.248c-0.544-0.536-0.972-1.172-1.284-1.908c-0.312-0.735-0.468-1.544-0.468-2.424
        s0.156-1.684,0.468-2.412c0.312-0.728,0.74-1.356,1.284-1.884c0.543-0.528,1.191-0.939,1.944-1.236
        c0.752-0.296,1.56-0.444,2.424-0.444c0.864,0,1.672,0.148,2.424,0.444c0.752,0.297,1.404,0.708,1.956,1.236
        c0.552,0.527,0.984,1.156,1.296,1.884C116.479,17.285,116.635,18.089,116.635,18.969z M114.283,18.98
        c0-0.542-0.084-1.061-0.252-1.556c-0.169-0.494-0.414-0.929-0.734-1.304s-0.718-0.674-1.192-0.897s-1.015-0.335-1.625-0.335
        c-0.61,0-1.152,0.111-1.625,0.335c-0.474,0.224-0.871,0.522-1.191,0.897c-0.321,0.375-0.566,0.81-0.734,1.304
        c-0.169,0.495-0.253,1.014-0.253,1.556c0,0.543,0.084,1.062,0.253,1.556c0.168,0.495,0.413,0.934,0.734,1.316
        c0.321,0.383,0.718,0.686,1.191,0.909c0.473,0.224,1.015,0.335,1.625,0.335c0.61,0,1.151-0.111,1.625-0.335
        s0.871-0.526,1.192-0.909s0.565-0.821,0.734-1.316C114.199,20.042,114.283,19.523,114.283,18.98z"/>
    <path fill="#666666" d="M119.251,14.577c-0.016-0.48-0.04-0.904-0.072-1.272h2.136c0.032,0.288,0.056,0.62,0.072,0.996
        c0.016,0.376,0.024,0.684,0.024,0.924h0.072c0.32-0.672,0.788-1.212,1.404-1.62c0.616-0.408,1.308-0.612,2.076-0.612
        c0.352,0,0.648,0.033,0.888,0.097l-0.096,2.088c-0.32-0.08-0.664-0.12-1.032-0.12c-0.544,0-1.016,0.101-1.416,0.3
        c-0.4,0.2-0.732,0.468-0.996,0.805c-0.264,0.336-0.46,0.724-0.588,1.163c-0.128,0.44-0.192,0.9-0.192,1.381v5.976h-2.256v-8.928
        C119.275,15.449,119.267,15.056,119.251,14.577z"/>
    <path fill="#666666" d="M128.419,26.625c0.496,0.56,1.116,1.008,1.86,1.344c0.744,0.336,1.508,0.504,2.292,0.504
        c0.752,0,1.384-0.108,1.896-0.324s0.924-0.512,1.236-0.888s0.536-0.82,0.672-1.332c0.136-0.513,0.204-1.064,0.204-1.656v-1.464
        h-0.048c-0.416,0.641-0.984,1.128-1.704,1.464c-0.72,0.336-1.488,0.504-2.304,0.504c-0.864,0-1.652-0.151-2.364-0.456
        c-0.712-0.304-1.316-0.72-1.812-1.248c-0.496-0.527-0.88-1.147-1.152-1.859s-0.408-1.477-0.408-2.292
        c0-0.816,0.136-1.584,0.408-2.305c0.272-0.72,0.656-1.348,1.152-1.884c0.496-0.535,1.096-0.96,1.8-1.271
        c0.704-0.312,1.488-0.469,2.352-0.469c0.816,0,1.596,0.177,2.34,0.528c0.744,0.353,1.332,0.888,1.764,1.608h0.048v-1.824h2.184
        v10.8c0,0.832-0.104,1.628-0.312,2.388c-0.208,0.76-0.56,1.433-1.056,2.017s-1.144,1.052-1.944,1.404
        c-0.8,0.352-1.792,0.527-2.976,0.527c-0.992,0-1.988-0.18-2.988-0.54c-1-0.359-1.86-0.868-2.58-1.523L128.419,26.625z
         M129.091,18.873c0,0.527,0.084,1.031,0.253,1.512c0.168,0.479,0.417,0.904,0.746,1.271c0.329,0.369,0.726,0.664,1.192,0.889
        c0.465,0.224,0.995,0.336,1.589,0.336c0.577,0,1.107-0.104,1.589-0.312c0.481-0.207,0.891-0.491,1.228-0.852
        s0.598-0.784,0.782-1.272c0.185-0.487,0.277-1.012,0.277-1.571c0-0.544-0.093-1.057-0.277-1.536
        c-0.185-0.48-0.449-0.904-0.794-1.272c-0.345-0.367-0.755-0.66-1.228-0.876c-0.474-0.216-1-0.324-1.577-0.324
        c-0.594,0-1.124,0.108-1.589,0.324c-0.466,0.216-0.863,0.504-1.192,0.864s-0.578,0.784-0.746,1.271
        C129.175,17.812,129.091,18.329,129.091,18.873z"/>
</g>
<g><a xlink:href="/" pointer-events="all" target="_top"><polygon fill="none" points="0,0 145,0 145,35 0,35 0,0"/></a></g>

</g>


<!-- AnyRandomAccessIndex -->
<g id="node1" class="node">
<g id="a_node1"><a xlink:href="/v2.1/type/AnyRandomAccessIndex/" target="_top">
<polygon fill="#999999" stroke="#999999" points="1372.05,-22 1227.95,-22 1227.95,-0 1372.05,-0 1372.05,-22"/>
<text text-anchor="middle" x="1300" y="-7.4" font-family="Helvetica,sans-Serif" font-size="12.00" fill="white">AnyRandomAccessIndex</text>
</a>
</g>
</g>
<!-- Bit -->
<g id="node2" class="node">
<g id="a_node2"><a xlink:href="/v2.1/type/Bit/" target="_top">
<polygon fill="#999999" stroke="#999999" points="774,-22 720,-22 720,-0 774,-0 774,-22"/>
<text text-anchor="middle" x="747" y="-7.4" font-family="Helvetica,sans-Serif" font-size="12.00" fill="white">Bit</text>
</a>
</g>
</g>
<!-- Double -->
<g id="node3" class="node">
<g id="a_node3"><a xlink:href="/v2.1/type/Double/" target="_top">
<polygon fill="#999999" stroke="#999999" points="1444,-22 1390,-22 1390,-0 1444,-0 1444,-22"/>
<text text-anchor="middle" x="1417" y="-7.4" font-family="Helvetica,sans-Serif" font-size="12.00" fill="white">Double</text>
</a>
</g>
</g>
<!-- Float -->
<g id="node4" class="node">
<g id="a_node4"><a xlink:href="/v2.1/type/Float/" target="_top">
<polygon fill="#999999" stroke="#999999" points="1516,-22 1462,-22 1462,-0 1516,-0 1516,-22"/>
<text text-anchor="middle" x="1489" y="-7.4" font-family="Helvetica,sans-Serif" font-size="12.00" fill="white">Float</text>
</a>
</g>
</g>
<!-- Float80 -->
<g id="node5" class="node">
<g id="a_node5"><a xlink:href="/v2.1/type/Float80/" target="_top">
<polygon fill="#999999" stroke="#999999" points="1588,-22 1534,-22 1534,-0 1588,-0 1588,-22"/>
<text text-anchor="middle" x="1561" y="-7.4" font-family="Helvetica,sans-Serif" font-size="12.00" fill="white">Float80</text>
</a>
</g>
</g>
<!-- FloatingPointType -->
<g id="node6" class="node">
<g id="a_node6"><a xlink:href="/v2.1/protocol/FloatingPointType/" target="_top">
<path fill="#999999" stroke="#999999" d="M1475.72,-80C1475.72,-80 1384.28,-80 1384.28,-80 1380.62,-80 1376.95,-76.3333 1376.95,-72.6667 1376.95,-72.6667 1376.95,-65.3333 1376.95,-65.3333 1376.95,-61.6667 1380.62,-58 1384.28,-58 1384.28,-58 1475.72,-58 1475.72,-58 1479.38,-58 1483.05,-61.6667 1483.05,-65.3333 1483.05,-65.3333 1483.05,-72.6667 1483.05,-72.6667 1483.05,-76.3333 1479.38,-80 1475.72,-80"/>
<text text-anchor="middle" x="1430" y="-65.4" font-family="Helvetica,sans-Serif" font-size="12.00" fill="white">FloatingPointType</text>
</a>
</g>
</g>
<!-- FloatingPointType&#45;&gt;Double -->
<g id="edge7" class="edge">
<path fill="none" stroke="#cccccc" d="M1427.68,-57.9883C1426.01,-50.8311 1423.72,-40.9547 1421.69,-32.1885"/>
<polygon fill="#cccccc" stroke="#cccccc" points="1425.06,-31.2534 1419.39,-22.3039 1418.24,-32.8363 1425.06,-31.2534"/>
</g>
<!-- FloatingPointType&#45;&gt;Float -->
<g id="edge8" class="edge">
<path fill="none" stroke="#cccccc" d="M1440.55,-57.9883C1448.92,-50.0446 1460.82,-38.7512 1470.73,-29.3439"/>
<polygon fill="#cccccc" stroke="#cccccc" points="1473.3,-31.7268 1478.14,-22.3039 1468.48,-26.6496 1473.3,-31.7268"/>
</g>
<!-- Int -->
<g id="node7" class="node">
<g id="a_node7"><a xlink:href="/v2.1/type/Int/" target="_top">
<polygon fill="#999999" stroke="#999999" points="54,-22 0,-22 0,-0 54,-0 54,-22"/>
<text text-anchor="middle" x="27" y="-7.4" font-family="Helvetica,sans-Serif" font-size="12.00" fill="white">Int</text>
</a>
</g>
</g>
<!-- Int&#45;&gt;Bit -->
<g id="edge25" class="edge">
<path fill="none" stroke="#cccccc" d="M39.7788,-22.0854C48.283,-28.7029 60.0524,-36.4837 72,-40 139.152,-59.7636 634.848,-59.7636 702,-40 710.401,-37.5276 718.713,-32.9469 725.865,-28.1447"/>
<polygon fill="#cccccc" stroke="#cccccc" points="728.18,-30.7891 734.221,-22.0854 724.071,-25.122 728.18,-30.7891"/>
</g>
<!-- Int16 -->
<g id="node8" class="node">
<g id="a_node8"><a xlink:href="/v2.1/type/Int16/" target="_top">
<polygon fill="#999999" stroke="#999999" points="126,-22 72,-22 72,-0 126,-0 126,-22"/>
<text text-anchor="middle" x="99" y="-7.4" font-family="Helvetica,sans-Serif" font-size="12.00" fill="white">Int16</text>
</a>
</g>
</g>
<!-- Int32 -->
<g id="node9" class="node">
<g id="a_node9"><a xlink:href="/v2.1/type/Int32/" target="_top">
<polygon fill="#999999" stroke="#999999" points="198,-22 144,-22 144,-0 198,-0 198,-22"/>
<text text-anchor="middle" x="171" y="-7.4" font-family="Helvetica,sans-Serif" font-size="12.00" fill="white">Int32</text>
</a>
</g>
</g>
<!-- Int64 -->
<g id="node10" class="node">
<g id="a_node10"><a xlink:href="/v2.1/type/Int64/" target="_top">
<polygon fill="#999999" stroke="#999999" points="270,-22 216,-22 216,-0 270,-0 270,-22"/>
<text text-anchor="middle" x="243" y="-7.4" font-family="Helvetica,sans-Serif" font-size="12.00" fill="white">Int64</text>
</a>
</g>
</g>
<!-- Int8 -->
<g id="node11" class="node">
<g id="a_node11"><a xlink:href="/v2.1/type/Int8/" target="_top">
<polygon fill="#999999" stroke="#999999" points="342,-22 288,-22 288,-0 342,-0 342,-22"/>
<text text-anchor="middle" x="315" y="-7.4" font-family="Helvetica,sans-Serif" font-size="12.00" fill="white">Int8</text>
</a>
</g>
</g>
<!-- IntegerType -->
<g id="node12" class="node">
<g id="a_node12"><a xlink:href="/v2.1/protocol/IntegerType/" target="_top">
<path fill="#999999" stroke="#999999" d="M284.202,-138C284.202,-138 225.798,-138 225.798,-138 222.132,-138 218.465,-134.333 218.465,-130.667 218.465,-130.667 218.465,-123.333 218.465,-123.333 218.465,-119.667 222.132,-116 225.798,-116 225.798,-116 284.202,-116 284.202,-116 287.868,-116 291.535,-119.667 291.535,-123.333 291.535,-123.333 291.535,-130.667 291.535,-130.667 291.535,-134.333 287.868,-138 284.202,-138"/>
<text text-anchor="middle" x="255" y="-123.4" font-family="Helvetica,sans-Serif" font-size="12.00" fill="white">IntegerType</text>
</a>
</g>
</g>
<!-- SignedIntegerType -->
<g id="node15" class="node">
<g id="a_node15"><a xlink:href="/v2.1/protocol/SignedIntegerType/" target="_top">
<path fill="#999999" stroke="#999999" d="M284.727,-80C284.727,-80 189.273,-80 189.273,-80 185.606,-80 181.94,-76.3333 181.94,-72.6667 181.94,-72.6667 181.94,-65.3333 181.94,-65.3333 181.94,-61.6667 185.606,-58 189.273,-58 189.273,-58 284.727,-58 284.727,-58 288.394,-58 292.06,-61.6667 292.06,-65.3333 292.06,-65.3333 292.06,-72.6667 292.06,-72.6667 292.06,-76.3333 288.394,-80 284.727,-80"/>
<text text-anchor="middle" x="237" y="-65.4" font-family="Helvetica,sans-Serif" font-size="12.00" fill="white">SignedIntegerType</text>
</a>
</g>
</g>
<!-- IntegerType&#45;&gt;SignedIntegerType -->
<g id="edge26" class="edge">
<path fill="none" stroke="#cccccc" d="M251.782,-115.988C249.456,-108.752 246.237,-98.7373 243.396,-89.9"/>
<polygon fill="#cccccc" stroke="#cccccc" points="246.704,-88.7531 240.312,-80.3039 240.04,-90.8952 246.704,-88.7531"/>
</g>
<!-- UnsignedIntegerType -->
<g id="node24" class="node">
<g id="a_node24"><a xlink:href="/v2.1/protocol/UnsignedIntegerType/" target="_top">
<path fill="#999999" stroke="#999999" d="M578.728,-80C578.728,-80 469.272,-80 469.272,-80 465.605,-80 461.938,-76.3333 461.938,-72.6667 461.938,-72.6667 461.938,-65.3333 461.938,-65.3333 461.938,-61.6667 465.605,-58 469.272,-58 469.272,-58 578.728,-58 578.728,-58 582.395,-58 586.062,-61.6667 586.062,-65.3333 586.062,-65.3333 586.062,-72.6667 586.062,-72.6667 586.062,-76.3333 582.395,-80 578.728,-80"/>
<text text-anchor="middle" x="524" y="-65.4" font-family="Helvetica,sans-Serif" font-size="12.00" fill="white">UnsignedIntegerType</text>
</a>
</g>
</g>
<!-- IntegerType&#45;&gt;UnsignedIntegerType -->
<g id="edge27" class="edge">
<path fill="none" stroke="#cccccc" d="M291.558,-118.389C336.363,-109.062 412.838,-93.1415 465.771,-82.1221"/>
<polygon fill="#cccccc" stroke="#cccccc" points="466.62,-85.5203 475.697,-80.0556 465.194,-78.6673 466.62,-85.5203"/>
</g>
<!-- RandomAccessIndexType -->
<g id="node13" class="node">
<g id="a_node13"><a xlink:href="/v2.1/protocol/RandomAccessIndexType/" target="_top">
<path fill="#999999" stroke="#999999" d="M681.225,-196C681.225,-196 546.775,-196 546.775,-196 543.108,-196 539.441,-192.333 539.441,-188.667 539.441,-188.667 539.441,-181.333 539.441,-181.333 539.441,-177.667 543.108,-174 546.775,-174 546.775,-174 681.225,-174 681.225,-174 684.892,-174 688.559,-177.667 688.559,-181.333 688.559,-181.333 688.559,-188.667 688.559,-188.667 688.559,-192.333 684.892,-196 681.225,-196"/>
<text text-anchor="middle" x="614" y="-181.4" font-family="Helvetica,sans-Serif" font-size="12.00" fill="white">RandomAccessIndexType</text>
</a>
</g>
</g>
<!-- RandomAccessIndexType&#45;&gt;AnyRandomAccessIndex -->
<g id="edge9" class="edge">
<path fill="none" stroke="#cccccc" d="M661.159,-173.989C702.988,-164.986 765.695,-151.186 820,-138 979.901,-99.174 1168.37,-48.1509 1253.79,-24.7394"/>
<polygon fill="#cccccc" stroke="#cccccc" points="1254.97,-28.0453 1263.69,-22.0239 1253.12,-21.2948 1254.97,-28.0453"/>
</g>
<!-- RandomAccessIndexType&#45;&gt;Bit -->
<g id="edge10" class="edge">
<path fill="none" stroke="#cccccc" d="M626.429,-173.742C636.812,-164.855 651.692,-151.358 663,-138 692.842,-102.748 721.285,-56.5413 736.195,-31.0166"/>
<polygon fill="#cccccc" stroke="#cccccc" points="739.421,-32.4295 741.389,-22.0191 733.358,-28.9299 739.421,-32.4295"/>
</g>
<!-- RandomAccessIndexType&#45;&gt;Int -->
<g id="edge11" class="edge">
<path fill="none" stroke="#cccccc" d="M539.323,-182.551C426.944,-179.366 220.425,-169.317 154,-138 102.286,-113.619 59.2786,-59.1535 39.1946,-30.4743"/>
<polygon fill="#cccccc" stroke="#cccccc" points="42.0301,-28.4202 33.4974,-22.1397 36.2512,-32.3704 42.0301,-28.4202"/>
</g>
<!-- RandomAccessIndexType&#45;&gt;Int16 -->
<g id="edge12" class="edge">
<path fill="none" stroke="#cccccc" d="M539.499,-183.613C432.109,-181.804 240.292,-173.515 182,-138 141.535,-113.347 116.814,-60.6232 105.792,-31.8076"/>
<polygon fill="#cccccc" stroke="#cccccc" points="108.946,-30.2402 102.234,-22.0428 102.369,-32.6368 108.946,-30.2402"/>
</g>
<!-- RandomAccessIndexType&#45;&gt;Int32 -->
<g id="edge13" class="edge">
<path fill="none" stroke="#cccccc" d="M539.367,-183.181C437.724,-180.787 262.294,-171.725 209,-138 183.362,-121.776 181.747,-109.051 173,-80 168.371,-64.6266 168.094,-46.4061 168.853,-32.697"/>
<polygon fill="#cccccc" stroke="#cccccc" points="172.367,-32.6472 169.661,-22.404 165.389,-32.0995 172.367,-32.6472"/>
</g>
<!-- RandomAccessIndexType&#45;&gt;Int64 -->
<g id="edge14" class="edge">
<path fill="none" stroke="#cccccc" d="M539.285,-173.93C501.192,-167.005 454.834,-155.757 416,-138 399.443,-130.429 306.832,-60.5942 264.328,-28.2735"/>
<polygon fill="#cccccc" stroke="#cccccc" points="266.375,-25.4329 256.298,-22.1602 262.135,-31.0025 266.375,-25.4329"/>
</g>
<!-- RandomAccessIndexType&#45;&gt;Int8 -->
<g id="edge15" class="edge">
<path fill="none" stroke="#cccccc" d="M554.832,-173.936C523.232,-166.912 484.475,-155.57 453,-138 401.366,-109.177 353.3,-57.5221 329.897,-30.1603"/>
<polygon fill="#cccccc" stroke="#cccccc" points="332.308,-27.5892 323.192,-22.19 326.951,-32.0955 332.308,-27.5892"/>
</g>
<!-- RandomAccessIndexType&#45;&gt;IntegerType -->
<g id="edge16" class="edge">
<path fill="none" stroke="#cccccc" d="M540.416,-173.967C477.924,-165.217 385.916,-151.795 306,-138 304.527,-137.746 303.032,-137.483 301.523,-137.213"/>
<polygon fill="#cccccc" stroke="#cccccc" points="301.927,-133.728 291.458,-135.357 300.657,-140.612 301.927,-133.728"/>
</g>
<!-- ReverseRandomAccessIndex -->
<g id="node14" class="node">
<g id="a_node14"><a xlink:href="/v2.1/type/ReverseRandomAccessIndex/" target="_top">
<polygon fill="#999999" stroke="#999999" points="960.056,-22 791.944,-22 791.944,-0 960.056,-0 960.056,-22"/>
<text text-anchor="middle" x="876" y="-7.4" font-family="Helvetica,sans-Serif" font-size="12.00" fill="white">ReverseRandomAccessIndex</text>
</a>
</g>
</g>
<!-- RandomAccessIndexType&#45;&gt;ReverseRandomAccessIndex -->
<g id="edge17" class="edge">
<path fill="none" stroke="#cccccc" d="M630.064,-173.847C644.689,-164.577 666.856,-150.462 686,-138 746.242,-98.7849 816.632,-51.7977 852.453,-27.8013"/>
<polygon fill="#cccccc" stroke="#cccccc" points="854.431,-30.6896 860.789,-22.2145 850.533,-24.8748 854.431,-30.6896"/>
</g>
<!-- UInt -->
<g id="node17" class="node">
<g id="a_node17"><a xlink:href="/v2.1/type/UInt/" target="_top">
<polygon fill="#999999" stroke="#999999" points="486,-22 432,-22 432,-0 486,-0 486,-22"/>
<text text-anchor="middle" x="459" y="-7.4" font-family="Helvetica,sans-Serif" font-size="12.00" fill="white">UInt</text>
</a>
</g>
</g>
<!-- RandomAccessIndexType&#45;&gt;UInt -->
<g id="edge18" class="edge">
<path fill="none" stroke="#cccccc" d="M582.214,-173.992C543.64,-159.934 480.371,-130.265 453,-80 445.051,-65.4023 447.613,-46.3897 451.554,-32.181"/>
<polygon fill="#cccccc" stroke="#cccccc" points="454.968,-32.9957 454.686,-22.4047 448.302,-30.8602 454.968,-32.9957"/>
</g>
<!-- UInt16 -->
<g id="node18" class="node">
<g id="a_node18"><a xlink:href="/v2.1/type/UInt16/" target="_top">
<polygon fill="#999999" stroke="#999999" points="558,-22 504,-22 504,-0 558,-0 558,-22"/>
<text text-anchor="middle" x="531" y="-7.4" font-family="Helvetica,sans-Serif" font-size="12.00" fill="white">UInt16</text>
</a>
</g>
</g>
<!-- RandomAccessIndexType&#45;&gt;UInt16 -->
<g id="edge19" class="edge">
<path fill="none" stroke="#cccccc" d="M614.983,-173.969C616.692,-151.42 618.074,-95.7512 595,-58 587.076,-45.0351 573.984,-34.6624 561.698,-27.0727"/>
<polygon fill="#cccccc" stroke="#cccccc" points="563.391,-24.0086 552.981,-22.0407 559.892,-30.0712 563.391,-24.0086"/>
</g>
<!-- UInt32 -->
<g id="node19" class="node">
<g id="a_node19"><a xlink:href="/v2.1/type/UInt32/" target="_top">
<polygon fill="#999999" stroke="#999999" points="630,-22 576,-22 576,-0 630,-0 630,-22"/>
<text text-anchor="middle" x="603" y="-7.4" font-family="Helvetica,sans-Serif" font-size="12.00" fill="white">UInt32</text>
</a>
</g>
</g>
<!-- RandomAccessIndexType&#45;&gt;UInt32 -->
<g id="edge20" class="edge">
<path fill="none" stroke="#cccccc" d="M617.995,-173.967C621.426,-164.779 626.108,-150.716 628,-138 633.233,-102.832 636.759,-92.4598 628,-58 625.586,-48.5026 620.771,-38.8461 616.006,-30.849"/>
<polygon fill="#cccccc" stroke="#cccccc" points="618.906,-28.8866 610.582,-22.3323 613.002,-32.647 618.906,-28.8866"/>
</g>
<!-- UInt64 -->
<g id="node20" class="node">
<g id="a_node20"><a xlink:href="/v2.1/type/UInt64/" target="_top">
<polygon fill="#999999" stroke="#999999" points="702,-22 648,-22 648,-0 702,-0 702,-22"/>
<text text-anchor="middle" x="675" y="-7.4" font-family="Helvetica,sans-Serif" font-size="12.00" fill="white">UInt64</text>
</a>
</g>
</g>
<!-- RandomAccessIndexType&#45;&gt;UInt64 -->
<g id="edge21" class="edge">
<path fill="none" stroke="#cccccc" d="M621.973,-173.975C628.735,-165.018 638.229,-151.294 644,-138 659.472,-102.359 668.168,-57.5494 672.195,-32.1037"/>
<polygon fill="#cccccc" stroke="#cccccc" points="675.662,-32.5799 673.683,-22.1717 668.74,-31.5428 675.662,-32.5799"/>
</g>
<!-- UInt8 -->
<g id="node21" class="node">
<g id="a_node21"><a xlink:href="/v2.1/type/UInt8/" target="_top">
<polygon fill="#999999" stroke="#999999" points="414,-22 360,-22 360,-0 414,-0 414,-22"/>
<text text-anchor="middle" x="387" y="-7.4" font-family="Helvetica,sans-Serif" font-size="12.00" fill="white">UInt8</text>
</a>
</g>
</g>
<!-- RandomAccessIndexType&#45;&gt;UInt8 -->
<g id="edge22" class="edge">
<path fill="none" stroke="#cccccc" d="M561.102,-173.927C534.613,-167.002 503.134,-155.754 479,-138 439.749,-109.124 410.23,-58.6063 396.149,-31.1255"/>
<polygon fill="#cccccc" stroke="#cccccc" points="399.259,-29.5194 391.671,-22.126 392.993,-32.6381 399.259,-29.5194"/>
</g>
<!-- UnsafeMutablePointer -->
<g id="node22" class="node">
<g id="a_node22"><a xlink:href="/v2.1/type/UnsafeMutablePointer/" target="_top">
<polygon fill="#999999" stroke="#999999" points="1106.05,-22 977.949,-22 977.949,-0 1106.05,-0 1106.05,-22"/>
<text text-anchor="middle" x="1042" y="-7.4" font-family="Helvetica,sans-Serif" font-size="12.00" fill="white">UnsafeMutablePointer</text>
</a>
</g>
</g>
<!-- RandomAccessIndexType&#45;&gt;UnsafeMutablePointer -->
<g id="edge23" class="edge">
<path fill="none" stroke="#cccccc" d="M639.175,-173.883C712.171,-144.548 924.018,-59.4131 1007.55,-25.8429"/>
<polygon fill="#cccccc" stroke="#cccccc" points="1008.88,-29.081 1016.86,-22.1045 1006.27,-22.5858 1008.88,-29.081"/>
</g>
<!-- UnsafePointer -->
<g id="node23" class="node">
<g id="a_node23"><a xlink:href="/v2.1/type/UnsafePointer/" target="_top">
<polygon fill="#999999" stroke="#999999" points="1210.03,-22 1123.97,-22 1123.97,-0 1210.03,-0 1210.03,-22"/>
<text text-anchor="middle" x="1167" y="-7.4" font-family="Helvetica,sans-Serif" font-size="12.00" fill="white">UnsafePointer</text>
</a>
</g>
</g>
<!-- RandomAccessIndexType&#45;&gt;UnsafePointer -->
<g id="edge24" class="edge">
<path fill="none" stroke="#cccccc" d="M648.989,-173.999C680.851,-164.831 729.169,-150.781 771,-138 901.478,-98.1334 1055.27,-48.411 1126.74,-25.1476"/>
<polygon fill="#cccccc" stroke="#cccccc" points="1127.84,-28.4695 1136.27,-22.0444 1125.68,-21.8137 1127.84,-28.4695"/>
</g>
<!-- SignedIntegerType&#45;&gt;Int -->
<g id="edge28" class="edge">
<path fill="none" stroke="#cccccc" d="M198.605,-57.9967C165.391,-49.3103 115.827,-36.27 63.8473,-22.2082"/>
<polygon fill="#cccccc" stroke="#cccccc" points="64.6842,-18.8088 54.1168,-19.5715 62.8533,-25.5652 64.6842,-18.8088"/>
</g>
<!-- SignedIntegerType&#45;&gt;Int16 -->
<g id="edge29" class="edge">
<path fill="none" stroke="#cccccc" d="M212.328,-57.9883C190.29,-49.0453 157.79,-35.8566 133.237,-25.8935"/>
<polygon fill="#cccccc" stroke="#cccccc" points="134.506,-22.6309 123.923,-22.1138 131.873,-29.1172 134.506,-22.6309"/>
</g>
<!-- SignedIntegerType&#45;&gt;Int32 -->
<g id="edge30" class="edge">
<path fill="none" stroke="#cccccc" d="M225.201,-57.9883C215.653,-49.8873 201.999,-38.3026 190.785,-28.7873"/>
<polygon fill="#cccccc" stroke="#cccccc" points="193.033,-26.1049 183.144,-22.3039 188.505,-31.4425 193.033,-26.1049"/>
</g>
<!-- SignedIntegerType&#45;&gt;Int64 -->
<g id="edge31" class="edge">
<path fill="none" stroke="#cccccc" d="M238.073,-57.9883C238.831,-50.9098 239.874,-41.1714 240.806,-32.4779"/>
<polygon fill="#cccccc" stroke="#cccccc" points="244.311,-32.6199 241.896,-22.3039 237.351,-31.8741 244.311,-32.6199"/>
</g>
<!-- SignedIntegerType&#45;&gt;Int8 -->
<g id="edge32" class="edge">
<path fill="none" stroke="#cccccc" d="M250.945,-57.9883C262.519,-49.6784 279.2,-37.7028 292.637,-28.0554"/>
<polygon fill="#cccccc" stroke="#cccccc" points="294.831,-30.7891 300.913,-22.1138 290.748,-25.1028 294.831,-30.7891"/>
</g>
<!-- Strideable -->
<g id="node16" class="node">
<g id="a_node16"><a xlink:href="/v2.1/protocol/Strideable/" target="_top">
<path fill="#999999" stroke="#999999" d="M1454.69,-254C1454.69,-254 1405.31,-254 1405.31,-254 1401.64,-254 1397.97,-250.333 1397.97,-246.667 1397.97,-246.667 1397.97,-239.333 1397.97,-239.333 1397.97,-235.667 1401.64,-232 1405.31,-232 1405.31,-232 1454.69,-232 1454.69,-232 1458.36,-232 1462.03,-235.667 1462.03,-239.333 1462.03,-239.333 1462.03,-246.667 1462.03,-246.667 1462.03,-250.333 1458.36,-254 1454.69,-254"/>
<text text-anchor="middle" x="1430" y="-239.4" font-family="Helvetica,sans-Serif" font-size="12.00" fill="white">Strideable</text>
</a>
</g>
</g>
<!-- Strideable&#45;&gt;Double -->
<g id="edge2" class="edge">
<path fill="none" stroke="#cccccc" d="M1424.56,-231.774C1411.59,-206.757 1379.11,-140.114 1368,-80 1366.22,-70.3851 1364.12,-66.9733 1368,-58 1373.09,-46.2394 1382.83,-36.1033 1392.3,-28.3623"/>
<polygon fill="#cccccc" stroke="#cccccc" points="1394.57,-31.0302 1400.42,-22.1957 1390.34,-25.4549 1394.57,-31.0302"/>
</g>
<!-- Strideable&#45;&gt;Float -->
<g id="edge3" class="edge">
<path fill="none" stroke="#cccccc" d="M1435.44,-231.774C1448.41,-206.757 1480.89,-140.114 1492,-80 1494.92,-64.2037 1493.89,-46.0095 1492.29,-32.418"/>
<polygon fill="#cccccc" stroke="#cccccc" points="1495.72,-31.6624 1490.88,-22.2374 1488.78,-32.6232 1495.72,-31.6624"/>
</g>
<!-- Strideable&#45;&gt;Float80 -->
<g id="edge4" class="edge">
<path fill="none" stroke="#cccccc" d="M1440.96,-231.78C1450.05,-222.916 1462.9,-209.431 1472,-196 1509.69,-140.349 1540.33,-66.3241 1553.72,-31.5777"/>
<polygon fill="#cccccc" stroke="#cccccc" points="1557.03,-32.7104 1557.31,-22.1192 1550.49,-30.226 1557.03,-32.7104"/>
</g>
<!-- Strideable&#45;&gt;FloatingPointType -->
<g id="edge5" class="edge">
<path fill="none" stroke="#cccccc" d="M1430,-231.756C1430,-204.097 1430,-127.509 1430,-90.5186"/>
<polygon fill="#cccccc" stroke="#cccccc" points="1433.5,-90.408 1430,-80.4081 1426.5,-90.4081 1433.5,-90.408"/>
</g>
<!-- Strideable&#45;&gt;RandomAccessIndexType -->
<g id="edge6" class="edge">
<path fill="none" stroke="#cccccc" d="M1397.76,-239.787C1280.78,-231.759 876.255,-203.998 698.688,-191.812"/>
<polygon fill="#cccccc" stroke="#cccccc" points="698.823,-188.313 688.607,-191.12 698.344,-195.297 698.823,-188.313"/>
</g>
<!-- UnsignedIntegerType&#45;&gt;UInt -->
<g id="edge33" class="edge">
<path fill="none" stroke="#cccccc" d="M512.379,-57.9883C503.068,-49.966 489.791,-38.5272 478.808,-29.065"/>
<polygon fill="#cccccc" stroke="#cccccc" points="480.82,-26.1794 470.96,-22.3039 476.251,-31.4826 480.82,-26.1794"/>
</g>
<!-- UnsignedIntegerType&#45;&gt;UInt16 -->
<g id="edge34" class="edge">
<path fill="none" stroke="#cccccc" d="M525.251,-57.9883C526.136,-50.9098 527.354,-41.1714 528.44,-32.4779"/>
<polygon fill="#cccccc" stroke="#cccccc" points="531.945,-32.6608 529.712,-22.3039 524.999,-31.7925 531.945,-32.6608"/>
</g>
<!-- UnsignedIntegerType&#45;&gt;UInt32 -->
<g id="edge35" class="edge">
<path fill="none" stroke="#cccccc" d="M538.124,-57.9883C549.847,-49.6784 566.741,-37.7028 580.35,-28.0554"/>
<polygon fill="#cccccc" stroke="#cccccc" points="582.598,-30.7523 588.732,-22.1138 578.55,-25.0415 582.598,-30.7523"/>
</g>
<!-- UnsignedIntegerType&#45;&gt;UInt64 -->
<g id="edge36" class="edge">
<path fill="none" stroke="#cccccc" d="M550.996,-57.9883C575.399,-48.9381 611.526,-35.5399 638.499,-25.5367"/>
<polygon fill="#cccccc" stroke="#cccccc" points="639.825,-28.7781 647.984,-22.0192 637.391,-22.2149 639.825,-28.7781"/>
</g>
<!-- UnsignedIntegerType&#45;&gt;UInt8 -->
<g id="edge37" class="edge">
<path fill="none" stroke="#cccccc" d="M499.507,-57.9883C477.725,-49.0849 445.649,-35.9733 421.313,-26.0259"/>
<polygon fill="#cccccc" stroke="#cccccc" points="422.324,-22.6578 411.743,-22.1138 419.675,-29.1374 422.324,-22.6578"/>
</g>
<!-- _Strideable -->
<g id="node25" class="node">
<g id="a_node25"><a xlink:href="/v2.1/protocol/_Strideable/" target="_top">
<path fill="#ee543d" stroke="#ee543d" d="M1457.7,-312C1457.7,-312 1402.3,-312 1402.3,-312 1398.63,-312 1394.97,-308.333 1394.97,-304.667 1394.97,-304.667 1394.97,-297.333 1394.97,-297.333 1394.97,-293.667 1398.63,-290 1402.3,-290 1402.3,-290 1457.7,-290 1457.7,-290 1461.37,-290 1465.03,-293.667 1465.03,-297.333 1465.03,-297.333 1465.03,-304.667 1465.03,-304.667 1465.03,-308.333 1461.37,-312 1457.7,-312"/>
<text text-anchor="middle" x="1430" y="-297.4" font-family="Helvetica,sans-Serif" font-size="12.00" fill="white">_Strideable</text>
</a>
</g>
</g>
<!-- _Strideable&#45;&gt;Strideable -->
<g id="edge1" class="edge">
<path fill="none" stroke="#cccccc" d="M1430,-289.988C1430,-282.91 1430,-273.171 1430,-264.478"/>
<polygon fill="#cccccc" stroke="#cccccc" points="1433.5,-264.304 1430,-254.304 1426.5,-264.304 1433.5,-264.304"/>
</g>
</g>
</svg>
