<?xml version="1.0" encoding="UTF-8" standalone="no"?>
<!DOCTYPE svg PUBLIC "-//W3C//DTD SVG 1.1//EN"
 "http://www.w3.org/Graphics/SVG/1.1/DTD/svg11.dtd">
<!-- Generated by graphviz version 2.36.0 (20140111.2315)
 -->
<!-- Title: UInt64 &#45; Type Hierarchy &#45; SwiftDoc.org Pages: 1 -->
<svg width="1328pt" height="543pt"
 viewBox="0.00 0.00 1327.73 543.20" xmlns="http://www.w3.org/2000/svg" xmlns:xlink="http://www.w3.org/1999/xlink">
<g id="graph0" class="graph" transform="scale(1 1) rotate(0) translate(7.2 485.6)">
<g transform="translate(0 -485.6)">
<g>
    <path fill="#666666" d="M13.846,10.832c-0.336-0.464-0.792-0.844-1.368-1.14s-1.224-0.444-1.944-0.444
        c-0.384,0-0.772,0.052-1.164,0.156C8.977,9.509,8.622,9.677,8.301,9.908c-0.32,0.232-0.58,0.52-0.78,0.864
        c-0.2,0.344-0.3,0.756-0.3,1.236c0,0.464,0.092,0.852,0.276,1.164c0.184,0.312,0.432,0.576,0.744,0.792s0.68,0.4,1.104,0.552
        c0.423,0.152,0.876,0.309,1.356,0.468c0.576,0.177,1.16,0.376,1.752,0.601c0.592,0.224,1.128,0.52,1.608,0.888
        s0.872,0.828,1.176,1.38s0.456,1.252,0.456,2.101c0,0.88-0.164,1.644-0.492,2.292c-0.328,0.647-0.765,1.184-1.308,1.607
        c-0.544,0.424-1.172,0.74-1.884,0.948s-1.444,0.312-2.196,0.312c-1.072,0-2.108-0.208-3.108-0.624
        c-1-0.415-1.828-1.031-2.484-1.848l1.848-1.56c0.4,0.592,0.936,1.071,1.608,1.439c0.672,0.368,1.399,0.552,2.184,0.552
        c0.4,0,0.8-0.056,1.2-0.168c0.4-0.111,0.764-0.288,1.092-0.527c0.328-0.24,0.596-0.54,0.804-0.9
        c0.208-0.36,0.312-0.796,0.312-1.308s-0.108-0.94-0.324-1.284c-0.216-0.344-0.508-0.636-0.876-0.876s-0.796-0.444-1.284-0.612
        c-0.488-0.168-1.004-0.34-1.548-0.516c-0.544-0.16-1.08-0.356-1.608-0.588c-0.528-0.232-1-0.528-1.416-0.889
        c-0.416-0.359-0.752-0.804-1.008-1.332c-0.256-0.527-0.384-1.184-0.384-1.968c0-0.848,0.172-1.576,0.516-2.184
        c0.344-0.608,0.792-1.112,1.344-1.512c0.552-0.4,1.176-0.692,1.872-0.876c0.696-0.184,1.396-0.276,2.1-0.276
        c0.992,0,1.92,0.176,2.784,0.528c0.864,0.352,1.56,0.824,2.088,1.416L13.846,10.832z"/>
    <path fill="#666666" d="M18.813,13.304l2.568,8.688h0.048l2.712-8.688h2.376l2.76,8.688h0.048l2.568-8.688h2.376L30.501,24.68
        h-2.352l-2.808-8.544h-0.048l-2.784,8.544h-2.352l-3.792-11.376H18.813z"/>
    <path fill="#666666" d="M38.685,9.2c0,0.416-0.147,0.76-0.44,1.032c-0.294,0.272-0.647,0.408-1.06,0.408s-0.762-0.14-1.047-0.42
        c-0.286-0.28-0.429-0.62-0.429-1.02c0-0.416,0.143-0.764,0.429-1.044c0.286-0.28,0.635-0.42,1.047-0.42s0.766,0.14,1.06,0.42
        C38.538,8.437,38.685,8.784,38.685,9.2z M38.325,24.68h-2.256V13.304h2.256V24.68z"/>
    <path fill="#666666" d="M47.613,15.152h-2.64v9.528h-2.256v-9.528h-2.256v-1.848h2.256v-2.376c0-0.672,0.076-1.292,0.228-1.86
        c0.152-0.568,0.4-1.06,0.744-1.476c0.344-0.416,0.784-0.744,1.32-0.984c0.536-0.24,1.188-0.36,1.956-0.36
        c0.544,0,1.016,0.056,1.416,0.168l-0.264,1.944c-0.176-0.048-0.352-0.088-0.528-0.12c-0.176-0.032-0.376-0.048-0.6-0.048
        c-0.432,0-0.78,0.076-1.044,0.228c-0.264,0.152-0.468,0.356-0.612,0.612s-0.24,0.548-0.288,0.876
        c-0.048,0.328-0.072,0.668-0.072,1.02v2.376h2.64V15.152z"/>
    <path fill="#666666" d="M54.909,15.152h-3.024v5.91c0,0.687,0.128,1.177,0.384,1.472c0.256,0.295,0.664,0.442,1.224,0.442
        c0.208,0,0.432-0.021,0.672-0.065c0.24-0.044,0.456-0.11,0.648-0.198l0.072,1.848c-0.272,0.096-0.572,0.172-0.9,0.229
        c-0.328,0.056-0.668,0.084-1.02,0.084c-1.072,0-1.892-0.296-2.46-0.889c-0.568-0.592-0.852-1.479-0.852-2.664v-6.168h-2.184
        v-1.848h2.184V10.04h2.232v3.264h3.024V15.152z"/>
    <path fill="#666666" d="M57.356,7.688h5.832c1.088,0,2.176,0.16,3.264,0.48c1.088,0.32,2.072,0.824,2.952,1.512
        s1.592,1.568,2.136,2.64c0.544,1.072,0.816,2.36,0.816,3.864c0,1.456-0.272,2.716-0.816,3.78s-1.256,1.943-2.136,2.64
        s-1.864,1.216-2.952,1.561c-1.088,0.344-2.176,0.516-3.264,0.516h-5.832V7.688z M59.732,22.593h2.976
        c1.024,0,1.972-0.145,2.844-0.432c0.872-0.288,1.624-0.704,2.256-1.248c0.632-0.544,1.124-1.216,1.476-2.017
        c0.352-0.8,0.528-1.704,0.528-2.712c0-1.056-0.176-1.983-0.528-2.784c-0.353-0.8-0.844-1.468-1.476-2.004
        c-0.632-0.536-1.384-0.944-2.256-1.224s-1.82-0.42-2.844-0.42h-2.976V22.593z"/>
    <path fill="#666666" d="M86.06,18.969c0,0.88-0.156,1.688-0.468,2.424c-0.312,0.736-0.744,1.372-1.296,1.908
        c-0.552,0.536-1.204,0.952-1.956,1.248c-0.752,0.296-1.56,0.443-2.424,0.443c-0.864,0-1.672-0.147-2.424-0.443
        c-0.752-0.296-1.4-0.712-1.944-1.248c-0.544-0.536-0.972-1.172-1.284-1.908c-0.312-0.735-0.468-1.544-0.468-2.424
        s0.156-1.684,0.468-2.412c0.312-0.728,0.74-1.356,1.284-1.884c0.543-0.528,1.191-0.939,1.944-1.236
        c0.752-0.296,1.56-0.444,2.424-0.444c0.864,0,1.672,0.148,2.424,0.444c0.752,0.297,1.404,0.708,1.956,1.236
        c0.552,0.527,0.984,1.156,1.296,1.884C85.904,17.285,86.06,18.089,86.06,18.969z M83.708,18.98c0-0.542-0.084-1.061-0.252-1.556
        c-0.169-0.494-0.414-0.929-0.734-1.304s-0.718-0.674-1.192-0.897s-1.015-0.335-1.625-0.335c-0.61,0-1.152,0.111-1.625,0.335
        c-0.474,0.224-0.871,0.522-1.191,0.897c-0.321,0.375-0.566,0.81-0.734,1.304C76.184,17.92,76.1,18.438,76.1,18.98
        c0,0.543,0.084,1.062,0.253,1.556c0.168,0.495,0.413,0.934,0.734,1.316c0.321,0.383,0.718,0.686,1.191,0.909
        c0.473,0.224,1.015,0.335,1.625,0.335c0.61,0,1.151-0.111,1.625-0.335s0.871-0.526,1.192-0.909s0.565-0.821,0.734-1.316
        C83.624,20.042,83.708,19.523,83.708,18.98z"/>
    <path fill="#666666" d="M96.428,16.184c-0.24-0.368-0.6-0.676-1.08-0.924s-0.992-0.372-1.536-0.372
        c-0.592,0-1.116,0.112-1.572,0.336c-0.456,0.225-0.844,0.524-1.164,0.9c-0.32,0.376-0.564,0.812-0.732,1.308
        s-0.252,1.017-0.252,1.56c0,0.545,0.084,1.064,0.252,1.561s0.412,0.933,0.732,1.308c0.32,0.376,0.712,0.677,1.176,0.9
        c0.464,0.225,0.992,0.336,1.584,0.336c0.576,0,1.1-0.111,1.572-0.336c0.472-0.224,0.86-0.528,1.164-0.912l1.512,1.368
        c-0.48,0.561-1.08,0.996-1.8,1.308c-0.72,0.312-1.536,0.468-2.448,0.468c-0.88,0-1.692-0.144-2.436-0.432
        c-0.744-0.288-1.388-0.691-1.932-1.212c-0.544-0.52-0.972-1.147-1.284-1.884s-0.468-1.561-0.468-2.473
        c0-0.896,0.152-1.711,0.456-2.447c0.304-0.736,0.728-1.368,1.272-1.896c0.543-0.527,1.188-0.936,1.932-1.224
        c0.744-0.288,1.548-0.433,2.412-0.433c0.8,0,1.596,0.16,2.388,0.48s1.419,0.784,1.884,1.392L96.428,16.184z"/>
    <path fill="#666666" d="M103.1,23.24c0,0.417-0.152,0.784-0.456,1.104c-0.304,0.32-0.688,0.479-1.152,0.479
        c-0.448,0-0.828-0.155-1.14-0.468c-0.312-0.312-0.468-0.676-0.468-1.092c0-0.432,0.152-0.804,0.456-1.116
        c0.304-0.312,0.688-0.468,1.152-0.468c0.464,0,0.848,0.152,1.152,0.456C102.947,22.44,103.1,22.808,103.1,23.24z"/>
    <path fill="#666666" d="M116.635,18.969c0,0.88-0.156,1.688-0.468,2.424c-0.312,0.736-0.744,1.372-1.296,1.908
        c-0.552,0.536-1.204,0.952-1.956,1.248c-0.752,0.296-1.56,0.443-2.424,0.443c-0.864,0-1.672-0.147-2.424-0.443
        c-0.752-0.296-1.4-0.712-1.944-1.248c-0.544-0.536-0.972-1.172-1.284-1.908c-0.312-0.735-0.468-1.544-0.468-2.424
        s0.156-1.684,0.468-2.412c0.312-0.728,0.74-1.356,1.284-1.884c0.543-0.528,1.191-0.939,1.944-1.236
        c0.752-0.296,1.56-0.444,2.424-0.444c0.864,0,1.672,0.148,2.424,0.444c0.752,0.297,1.404,0.708,1.956,1.236
        c0.552,0.527,0.984,1.156,1.296,1.884C116.479,17.285,116.635,18.089,116.635,18.969z M114.283,18.98
        c0-0.542-0.084-1.061-0.252-1.556c-0.169-0.494-0.414-0.929-0.734-1.304s-0.718-0.674-1.192-0.897s-1.015-0.335-1.625-0.335
        c-0.61,0-1.152,0.111-1.625,0.335c-0.474,0.224-0.871,0.522-1.191,0.897c-0.321,0.375-0.566,0.81-0.734,1.304
        c-0.169,0.495-0.253,1.014-0.253,1.556c0,0.543,0.084,1.062,0.253,1.556c0.168,0.495,0.413,0.934,0.734,1.316
        c0.321,0.383,0.718,0.686,1.191,0.909c0.473,0.224,1.015,0.335,1.625,0.335c0.61,0,1.151-0.111,1.625-0.335
        s0.871-0.526,1.192-0.909s0.565-0.821,0.734-1.316C114.199,20.042,114.283,19.523,114.283,18.98z"/>
    <path fill="#666666" d="M119.251,14.577c-0.016-0.48-0.04-0.904-0.072-1.272h2.136c0.032,0.288,0.056,0.62,0.072,0.996
        c0.016,0.376,0.024,0.684,0.024,0.924h0.072c0.32-0.672,0.788-1.212,1.404-1.62c0.616-0.408,1.308-0.612,2.076-0.612
        c0.352,0,0.648,0.033,0.888,0.097l-0.096,2.088c-0.32-0.08-0.664-0.12-1.032-0.12c-0.544,0-1.016,0.101-1.416,0.3
        c-0.4,0.2-0.732,0.468-0.996,0.805c-0.264,0.336-0.46,0.724-0.588,1.163c-0.128,0.44-0.192,0.9-0.192,1.381v5.976h-2.256v-8.928
        C119.275,15.449,119.267,15.056,119.251,14.577z"/>
    <path fill="#666666" d="M128.419,26.625c0.496,0.56,1.116,1.008,1.86,1.344c0.744,0.336,1.508,0.504,2.292,0.504
        c0.752,0,1.384-0.108,1.896-0.324s0.924-0.512,1.236-0.888s0.536-0.82,0.672-1.332c0.136-0.513,0.204-1.064,0.204-1.656v-1.464
        h-0.048c-0.416,0.641-0.984,1.128-1.704,1.464c-0.72,0.336-1.488,0.504-2.304,0.504c-0.864,0-1.652-0.151-2.364-0.456
        c-0.712-0.304-1.316-0.72-1.812-1.248c-0.496-0.527-0.88-1.147-1.152-1.859s-0.408-1.477-0.408-2.292
        c0-0.816,0.136-1.584,0.408-2.305c0.272-0.72,0.656-1.348,1.152-1.884c0.496-0.535,1.096-0.96,1.8-1.271
        c0.704-0.312,1.488-0.469,2.352-0.469c0.816,0,1.596,0.177,2.34,0.528c0.744,0.353,1.332,0.888,1.764,1.608h0.048v-1.824h2.184
        v10.8c0,0.832-0.104,1.628-0.312,2.388c-0.208,0.76-0.56,1.433-1.056,2.017s-1.144,1.052-1.944,1.404
        c-0.8,0.352-1.792,0.527-2.976,0.527c-0.992,0-1.988-0.18-2.988-0.54c-1-0.359-1.86-0.868-2.58-1.523L128.419,26.625z
         M129.091,18.873c0,0.527,0.084,1.031,0.253,1.512c0.168,0.479,0.417,0.904,0.746,1.271c0.329,0.369,0.726,0.664,1.192,0.889
        c0.465,0.224,0.995,0.336,1.589,0.336c0.577,0,1.107-0.104,1.589-0.312c0.481-0.207,0.891-0.491,1.228-0.852
        s0.598-0.784,0.782-1.272c0.185-0.487,0.277-1.012,0.277-1.571c0-0.544-0.093-1.057-0.277-1.536
        c-0.185-0.48-0.449-0.904-0.794-1.272c-0.345-0.367-0.755-0.66-1.228-0.876c-0.474-0.216-1-0.324-1.577-0.324
        c-0.594,0-1.124,0.108-1.589,0.324c-0.466,0.216-0.863,0.504-1.192,0.864s-0.578,0.784-0.746,1.271
        C129.175,17.812,129.091,18.329,129.091,18.873z"/>
</g>
<g><a xlink:href="/" pointer-events="all" target="_top"><polygon fill="none" points="0,0 145,0 145,35 0,35 0,0"/></a></g>

</g>


<!-- BidirectionalIndexType -->
<g id="node1" class="node">
<g id="a_node1"><a xlink:href="/v2.1/protocol/BidirectionalIndexType/" target="_top">
<path fill="#999999" stroke="#999999" d="M887.057,-254C887.057,-254 771.607,-254 771.607,-254 767.94,-254 764.273,-250.333 764.273,-246.667 764.273,-246.667 764.273,-239.333 764.273,-239.333 764.273,-235.667 767.94,-232 771.607,-232 771.607,-232 887.057,-232 887.057,-232 890.724,-232 894.391,-235.667 894.391,-239.333 894.391,-239.333 894.391,-246.667 894.391,-246.667 894.391,-250.333 890.724,-254 887.057,-254"/>
<text text-anchor="middle" x="829.332" y="-239.4" font-family="Helvetica,sans-Serif" font-size="12.00" fill="white">BidirectionalIndexType</text>
</a>
</g>
</g>
<!-- RandomAccessIndexType -->
<g id="node12" class="node">
<g id="a_node12"><a xlink:href="/v2.1/protocol/RandomAccessIndexType/" target="_top">
<path fill="#999999" stroke="#999999" d="M896.557,-196C896.557,-196 762.107,-196 762.107,-196 758.44,-196 754.773,-192.333 754.773,-188.667 754.773,-188.667 754.773,-181.333 754.773,-181.333 754.773,-177.667 758.44,-174 762.107,-174 762.107,-174 896.557,-174 896.557,-174 900.224,-174 903.891,-177.667 903.891,-181.333 903.891,-181.333 903.891,-188.667 903.891,-188.667 903.891,-192.333 900.224,-196 896.557,-196"/>
<text text-anchor="middle" x="829.332" y="-181.4" font-family="Helvetica,sans-Serif" font-size="12.00" fill="white">RandomAccessIndexType</text>
</a>
</g>
</g>
<!-- BidirectionalIndexType&#45;&gt;RandomAccessIndexType -->
<g id="edge27" class="edge">
<path fill="none" stroke="#cccccc" d="M829.332,-231.988C829.332,-224.91 829.332,-215.171 829.332,-206.478"/>
<polygon fill="#cccccc" stroke="#cccccc" points="832.832,-206.304 829.332,-196.304 825.832,-206.304 832.832,-206.304"/>
</g>
<!-- BitwiseOperationsType -->
<g id="node2" class="node">
<g id="a_node2"><a xlink:href="/v2.1/protocol/BitwiseOperationsType/" target="_top">
<path fill="#999999" stroke="#999999" d="M154.047,-254C154.047,-254 36.6168,-254 36.6168,-254 32.9501,-254 29.2834,-250.333 29.2834,-246.667 29.2834,-246.667 29.2834,-239.333 29.2834,-239.333 29.2834,-235.667 32.9501,-232 36.6168,-232 36.6168,-232 154.047,-232 154.047,-232 157.714,-232 161.38,-235.667 161.38,-239.333 161.38,-239.333 161.38,-246.667 161.38,-246.667 161.38,-250.333 157.714,-254 154.047,-254"/>
<text text-anchor="middle" x="95.3319" y="-239.4" font-family="Helvetica,sans-Serif" font-size="12.00" fill="white">BitwiseOperationsType</text>
</a>
</g>
</g>
<!-- UInt64 -->
<g id="node14" class="node">
<g id="a_node14"><a xlink:href="/v2.1/type/UInt64/" target="_top">
<polygon fill="#ee543d" stroke="#ee543d" points="927.332,-22 873.332,-22 873.332,-0 927.332,-0 927.332,-22"/>
<text text-anchor="middle" x="900.332" y="-7.4" font-family="Helvetica,sans-Serif" font-size="12.00" fill="white">UInt64</text>
</a>
</g>
</g>
<!-- BitwiseOperationsType&#45;&gt;UInt64 -->
<g id="edge7" class="edge">
<path fill="none" stroke="#cccccc" d="M118.266,-231.952C189.321,-201.213 412.669,-107.536 606.332,-58 697.082,-34.7876 806.763,-21.3809 863.035,-15.5341"/>
<polygon fill="#cccccc" stroke="#cccccc" points="863.636,-18.9911 873.23,-14.4972 862.928,-12.0271 863.636,-18.9911"/>
</g>
<!-- _IntegerType -->
<g id="node20" class="node">
<g id="a_node20"><a xlink:href="/v2.1/protocol/_IntegerType/" target="_top">
<path fill="#999999" stroke="#999999" d="M605.04,-196C605.04,-196 539.624,-196 539.624,-196 535.958,-196 532.291,-192.333 532.291,-188.667 532.291,-188.667 532.291,-181.333 532.291,-181.333 532.291,-177.667 535.958,-174 539.624,-174 539.624,-174 605.04,-174 605.04,-174 608.706,-174 612.373,-177.667 612.373,-181.333 612.373,-181.333 612.373,-188.667 612.373,-188.667 612.373,-192.333 608.706,-196 605.04,-196"/>
<text text-anchor="middle" x="572.332" y="-181.4" font-family="Helvetica,sans-Serif" font-size="12.00" fill="white">_IntegerType</text>
</a>
</g>
</g>
<!-- BitwiseOperationsType&#45;&gt;_IntegerType -->
<g id="edge18" class="edge">
<path fill="none" stroke="#cccccc" d="M161.577,-233.099C164.535,-232.723 167.464,-232.355 170.332,-232 296.672,-216.35 445.596,-199.805 521.814,-191.475"/>
<polygon fill="#cccccc" stroke="#cccccc" points="522.515,-194.92 532.076,-190.355 521.755,-187.961 522.515,-194.92"/>
</g>
<!-- CVarArgType -->
<g id="node3" class="node">
<g id="a_node3"><a xlink:href="/v2.1/protocol/CVarArgType/" target="_top">
<path fill="#999999" stroke="#999999" d="M1172.36,-138C1172.36,-138 1106.3,-138 1106.3,-138 1102.64,-138 1098.97,-134.333 1098.97,-130.667 1098.97,-130.667 1098.97,-123.333 1098.97,-123.333 1098.97,-119.667 1102.64,-116 1106.3,-116 1106.3,-116 1172.36,-116 1172.36,-116 1176.03,-116 1179.69,-119.667 1179.69,-123.333 1179.69,-123.333 1179.69,-130.667 1179.69,-130.667 1179.69,-134.333 1176.03,-138 1172.36,-138"/>
<text text-anchor="middle" x="1139.33" y="-123.4" font-family="Helvetica,sans-Serif" font-size="12.00" fill="white">CVarArgType</text>
</a>
</g>
</g>
<!-- CVarArgType&#45;&gt;UInt64 -->
<g id="edge9" class="edge">
<path fill="none" stroke="#cccccc" d="M1126.63,-115.778C1108.14,-101.293 1072.28,-74.7016 1038.33,-58 1005.54,-41.8671 965.715,-29.2734 937.295,-21.3733"/>
<polygon fill="#cccccc" stroke="#cccccc" points="937.942,-17.9223 927.374,-18.6773 936.107,-24.6773 937.942,-17.9223"/>
</g>
<!-- _CVarArgAlignedType -->
<g id="node16" class="node">
<g id="a_node16"><a xlink:href="/v2.1/protocol/_CVarArgAlignedType/" target="_top">
<path fill="#999999" stroke="#999999" d="M1210.39,-80C1210.39,-80 1098.27,-80 1098.27,-80 1094.61,-80 1090.94,-76.3333 1090.94,-72.6667 1090.94,-72.6667 1090.94,-65.3333 1090.94,-65.3333 1090.94,-61.6667 1094.61,-58 1098.27,-58 1098.27,-58 1210.39,-58 1210.39,-58 1214.06,-58 1217.72,-61.6667 1217.72,-65.3333 1217.72,-65.3333 1217.72,-72.6667 1217.72,-72.6667 1217.72,-76.3333 1214.06,-80 1210.39,-80"/>
<text text-anchor="middle" x="1154.33" y="-65.4" font-family="Helvetica,sans-Serif" font-size="12.00" fill="white">_CVarArgAlignedType</text>
</a>
</g>
</g>
<!-- CVarArgType&#45;&gt;_CVarArgAlignedType -->
<g id="edge34" class="edge">
<path fill="none" stroke="#cccccc" d="M1142.01,-115.988C1143.93,-108.831 1146.58,-98.9547 1148.92,-90.1885"/>
<polygon fill="#cccccc" stroke="#cccccc" points="1152.37,-90.869 1151.57,-80.3039 1145.6,-89.0578 1152.37,-90.869"/>
</g>
<!-- Comparable -->
<g id="node4" class="node">
<g id="a_node4"><a xlink:href="/v2.1/protocol/Comparable/" target="_top">
<path fill="#999999" stroke="#999999" d="M618.523,-312C618.523,-312 558.141,-312 558.141,-312 554.474,-312 550.807,-308.333 550.807,-304.667 550.807,-304.667 550.807,-297.333 550.807,-297.333 550.807,-293.667 554.474,-290 558.141,-290 558.141,-290 618.523,-290 618.523,-290 622.19,-290 625.857,-293.667 625.857,-297.333 625.857,-297.333 625.857,-304.667 625.857,-304.667 625.857,-308.333 622.19,-312 618.523,-312"/>
<text text-anchor="middle" x="588.332" y="-297.4" font-family="Helvetica,sans-Serif" font-size="12.00" fill="white">Comparable</text>
</a>
</g>
</g>
<!-- IntegerArithmeticType -->
<g id="node9" class="node">
<g id="a_node9"><a xlink:href="/v2.1/protocol/IntegerArithmeticType/" target="_top">
<path fill="#999999" stroke="#999999" d="M619.043,-254C619.043,-254 507.621,-254 507.621,-254 503.954,-254 500.288,-250.333 500.288,-246.667 500.288,-246.667 500.288,-239.333 500.288,-239.333 500.288,-235.667 503.954,-232 507.621,-232 507.621,-232 619.043,-232 619.043,-232 622.709,-232 626.376,-235.667 626.376,-239.333 626.376,-239.333 626.376,-246.667 626.376,-246.667 626.376,-250.333 622.709,-254 619.043,-254"/>
<text text-anchor="middle" x="563.332" y="-239.4" font-family="Helvetica,sans-Serif" font-size="12.00" fill="white">IntegerArithmeticType</text>
</a>
</g>
</g>
<!-- Comparable&#45;&gt;IntegerArithmeticType -->
<g id="edge22" class="edge">
<path fill="none" stroke="#cccccc" d="M583.862,-289.988C580.597,-282.674 576.064,-272.519 572.087,-263.612"/>
<polygon fill="#cccccc" stroke="#cccccc" points="575.204,-262.008 567.932,-254.304 568.812,-264.862 575.204,-262.008"/>
</g>
<!-- Strideable -->
<g id="node13" class="node">
<g id="a_node13"><a xlink:href="/v2.1/protocol/Strideable/" target="_top">
<path fill="#999999" stroke="#999999" d="M739.025,-254C739.025,-254 689.639,-254 689.639,-254 685.972,-254 682.306,-250.333 682.306,-246.667 682.306,-246.667 682.306,-239.333 682.306,-239.333 682.306,-235.667 685.972,-232 689.639,-232 689.639,-232 739.025,-232 739.025,-232 742.692,-232 746.358,-235.667 746.358,-239.333 746.358,-239.333 746.358,-246.667 746.358,-246.667 746.358,-250.333 742.692,-254 739.025,-254"/>
<text text-anchor="middle" x="714.332" y="-239.4" font-family="Helvetica,sans-Serif" font-size="12.00" fill="white">Strideable</text>
</a>
</g>
</g>
<!-- Comparable&#45;&gt;Strideable -->
<g id="edge32" class="edge">
<path fill="none" stroke="#cccccc" d="M610.858,-289.988C630.713,-281.164 659.868,-268.206 682.175,-258.292"/>
<polygon fill="#cccccc" stroke="#cccccc" points="683.859,-261.374 691.576,-254.114 681.016,-254.977 683.859,-261.374"/>
</g>
<!-- Comparable&#45;&gt;UInt64 -->
<g id="edge2" class="edge">
<path fill="none" stroke="#cccccc" d="M550.961,-291.553C547.714,-290.97 544.471,-290.44 541.332,-290 483.867,-281.942 65.3182,-290.652 20.3319,-254 -3.99576,-234.179 1.33192,-217.38 1.33192,-186 1.33192,-186 1.33192,-186 1.33192,-126 1.33192,-37.7256 692.315,-16.6107 862.703,-12.7459"/>
<polygon fill="#cccccc" stroke="#cccccc" points="863.015,-16.2399 872.936,-12.5205 862.861,-9.24164 863.015,-16.2399"/>
</g>
<!-- CustomStringConvertible -->
<g id="node5" class="node">
<g id="a_node5"><a xlink:href="/v2.1/protocol/CustomStringConvertible/" target="_top">
<path fill="#999999" stroke="#999999" d="M315.54,-254C315.54,-254 187.124,-254 187.124,-254 183.457,-254 179.791,-250.333 179.791,-246.667 179.791,-246.667 179.791,-239.333 179.791,-239.333 179.791,-235.667 183.457,-232 187.124,-232 187.124,-232 315.54,-232 315.54,-232 319.206,-232 322.873,-235.667 322.873,-239.333 322.873,-239.333 322.873,-246.667 322.873,-246.667 322.873,-250.333 319.206,-254 315.54,-254"/>
<text text-anchor="middle" x="251.332" y="-239.4" font-family="Helvetica,sans-Serif" font-size="12.00" fill="white">CustomStringConvertible</text>
</a>
</g>
</g>
<!-- CustomStringConvertible&#45;&gt;UInt64 -->
<g id="edge5" class="edge">
<path fill="none" stroke="#cccccc" d="M270.357,-231.847C313.055,-209.285 420.076,-153.979 513.332,-116 588.047,-85.5715 607.538,-79.3631 685.332,-58 747.05,-41.0514 820.155,-26.5708 863.253,-18.5962"/>
<polygon fill="#cccccc" stroke="#cccccc" points="864.073,-22.0042 873.278,-16.7586 862.811,-15.1189 864.073,-22.0042"/>
</g>
<!-- CustomStringConvertible&#45;&gt;_IntegerType -->
<g id="edge15" class="edge">
<path fill="none" stroke="#cccccc" d="M308.72,-231.988C369.453,-221.393 464.344,-204.839 522.18,-194.749"/>
<polygon fill="#cccccc" stroke="#cccccc" points="522.932,-198.171 532.182,-193.004 521.729,-191.275 522.932,-198.171"/>
</g>
<!-- Equatable -->
<g id="node6" class="node">
<g id="a_node6"><a xlink:href="/v2.1/protocol/Equatable/" target="_top">
<path fill="#999999" stroke="#999999" d="M903.034,-428C903.034,-428 853.63,-428 853.63,-428 849.963,-428 846.297,-424.333 846.297,-420.667 846.297,-420.667 846.297,-413.333 846.297,-413.333 846.297,-409.667 849.963,-406 853.63,-406 853.63,-406 903.034,-406 903.034,-406 906.7,-406 910.367,-409.667 910.367,-413.333 910.367,-413.333 910.367,-420.667 910.367,-420.667 910.367,-424.333 906.7,-428 903.034,-428"/>
<text text-anchor="middle" x="878.332" y="-413.4" font-family="Helvetica,sans-Serif" font-size="12.00" fill="white">Equatable</text>
</a>
</g>
</g>
<!-- Equatable&#45;&gt;Comparable -->
<g id="edge23" class="edge">
<path fill="none" stroke="#cccccc" d="M852.851,-405.983C800.873,-385.551 682.545,-339.036 623.377,-315.776"/>
<polygon fill="#cccccc" stroke="#cccccc" points="624.654,-312.518 614.067,-312.117 622.093,-319.032 624.654,-312.518"/>
</g>
<!-- Hashable -->
<g id="node8" class="node">
<g id="a_node8"><a xlink:href="/v2.1/protocol/Hashable/" target="_top">
<path fill="#999999" stroke="#999999" d="M966.026,-254C966.026,-254 920.638,-254 920.638,-254 916.971,-254 913.304,-250.333 913.304,-246.667 913.304,-246.667 913.304,-239.333 913.304,-239.333 913.304,-235.667 916.971,-232 920.638,-232 920.638,-232 966.026,-232 966.026,-232 969.693,-232 973.359,-235.667 973.359,-239.333 973.359,-239.333 973.359,-246.667 973.359,-246.667 973.359,-250.333 969.693,-254 966.026,-254"/>
<text text-anchor="middle" x="943.332" y="-239.4" font-family="Helvetica,sans-Serif" font-size="12.00" fill="white">Hashable</text>
</a>
</g>
</g>
<!-- Equatable&#45;&gt;Hashable -->
<g id="edge20" class="edge">
<path fill="none" stroke="#cccccc" d="M882.203,-405.756C892.701,-377.978 921.849,-300.848 935.758,-264.042"/>
<polygon fill="#cccccc" stroke="#cccccc" points="939.138,-265 939.399,-254.408 932.589,-262.525 939.138,-265"/>
</g>
<!-- Equatable&#45;&gt;UInt64 -->
<g id="edge3" class="edge">
<path fill="none" stroke="#cccccc" d="M910.457,-408.265C970.911,-391.776 1100.27,-346.849 1153.33,-254 1184.94,-198.698 995.209,-71.7394 925.379,-27.5243"/>
<polygon fill="#cccccc" stroke="#cccccc" points="927.057,-24.4452 916.729,-22.0831 923.33,-30.3704 927.057,-24.4452"/>
</g>
<!-- _Incrementable -->
<g id="node18" class="node">
<g id="a_node18"><a xlink:href="/v2.1/protocol/_Incrementable/" target="_top">
<path fill="#999999" stroke="#999999" d="M868.037,-370C868.037,-370 790.627,-370 790.627,-370 786.96,-370 783.293,-366.333 783.293,-362.667 783.293,-362.667 783.293,-355.333 783.293,-355.333 783.293,-351.667 786.96,-348 790.627,-348 790.627,-348 868.037,-348 868.037,-348 871.704,-348 875.37,-351.667 875.37,-355.333 875.37,-355.333 875.37,-362.667 875.37,-362.667 875.37,-366.333 871.704,-370 868.037,-370"/>
<text text-anchor="middle" x="829.332" y="-355.4" font-family="Helvetica,sans-Serif" font-size="12.00" fill="white">_Incrementable</text>
</a>
</g>
</g>
<!-- Equatable&#45;&gt;_Incrementable -->
<g id="edge24" class="edge">
<path fill="none" stroke="#cccccc" d="M869.572,-405.988C862.759,-398.202 853.129,-387.197 844.999,-377.905"/>
<polygon fill="#cccccc" stroke="#cccccc" points="847.567,-375.525 838.348,-370.304 842.299,-380.134 847.567,-375.525"/>
</g>
<!-- ForwardIndexType -->
<g id="node7" class="node">
<g id="a_node7"><a xlink:href="/v2.1/protocol/ForwardIndexType/" target="_top">
<path fill="#999999" stroke="#999999" d="M876.538,-312C876.538,-312 782.126,-312 782.126,-312 778.459,-312 774.792,-308.333 774.792,-304.667 774.792,-304.667 774.792,-297.333 774.792,-297.333 774.792,-293.667 778.459,-290 782.126,-290 782.126,-290 876.538,-290 876.538,-290 880.205,-290 883.871,-293.667 883.871,-297.333 883.871,-297.333 883.871,-304.667 883.871,-304.667 883.871,-308.333 880.205,-312 876.538,-312"/>
<text text-anchor="middle" x="829.332" y="-297.4" font-family="Helvetica,sans-Serif" font-size="12.00" fill="white">ForwardIndexType</text>
</a>
</g>
</g>
<!-- ForwardIndexType&#45;&gt;BidirectionalIndexType -->
<g id="edge30" class="edge">
<path fill="none" stroke="#cccccc" d="M829.332,-289.988C829.332,-282.91 829.332,-273.171 829.332,-264.478"/>
<polygon fill="#cccccc" stroke="#cccccc" points="832.832,-264.304 829.332,-254.304 825.832,-264.304 832.832,-264.304"/>
</g>
<!-- Hashable&#45;&gt;UInt64 -->
<g id="edge4" class="edge">
<path fill="none" stroke="#cccccc" d="M941.429,-231.82C934.838,-196.568 912.91,-79.2764 904.072,-32.0032"/>
<polygon fill="#cccccc" stroke="#cccccc" points="907.491,-31.2485 902.213,-22.062 900.61,-32.5349 907.491,-31.2485"/>
</g>
<!-- Hashable&#45;&gt;_IntegerType -->
<g id="edge16" class="edge">
<path fill="none" stroke="#cccccc" d="M913.268,-234.118C909.927,-233.351 906.564,-232.627 903.332,-232 804.529,-212.841 687.644,-198.525 622.549,-191.286"/>
<polygon fill="#cccccc" stroke="#cccccc" points="622.88,-187.802 612.557,-190.186 622.113,-194.76 622.88,-187.802"/>
</g>
<!-- IntegerArithmeticType&#45;&gt;_IntegerType -->
<g id="edge17" class="edge">
<path fill="none" stroke="#cccccc" d="M564.941,-231.988C566.091,-224.831 567.678,-214.955 569.087,-206.189"/>
<polygon fill="#cccccc" stroke="#cccccc" points="572.545,-206.733 570.676,-196.304 565.633,-205.622 572.545,-206.733"/>
</g>
<!-- IntegerLiteralConvertible -->
<g id="node10" class="node">
<g id="a_node10"><a xlink:href="/v2.1/protocol/IntegerLiteralConvertible/" target="_top">
<path fill="#999999" stroke="#999999" d="M474.054,-254C474.054,-254 348.609,-254 348.609,-254 344.943,-254 341.276,-250.333 341.276,-246.667 341.276,-246.667 341.276,-239.333 341.276,-239.333 341.276,-235.667 344.943,-232 348.609,-232 348.609,-232 474.054,-232 474.054,-232 477.721,-232 481.388,-235.667 481.388,-239.333 481.388,-239.333 481.388,-246.667 481.388,-246.667 481.388,-250.333 477.721,-254 474.054,-254"/>
<text text-anchor="middle" x="411.332" y="-239.4" font-family="Helvetica,sans-Serif" font-size="12.00" fill="white">IntegerLiteralConvertible</text>
</a>
</g>
</g>
<!-- IntegerLiteralConvertible&#45;&gt;_IntegerType -->
<g id="edge14" class="edge">
<path fill="none" stroke="#cccccc" d="M440.115,-231.988C466.249,-222.898 504.993,-209.422 533.792,-199.405"/>
<polygon fill="#cccccc" stroke="#cccccc" points="535.231,-202.61 543.527,-196.019 532.932,-195.999 535.231,-202.61"/>
</g>
<!-- IntegerType -->
<g id="node11" class="node">
<g id="a_node11"><a xlink:href="/v2.1/protocol/IntegerType/" target="_top">
<path fill="#999999" stroke="#999999" d="M785.533,-138C785.533,-138 727.13,-138 727.13,-138 723.464,-138 719.797,-134.333 719.797,-130.667 719.797,-130.667 719.797,-123.333 719.797,-123.333 719.797,-119.667 723.464,-116 727.13,-116 727.13,-116 785.533,-116 785.533,-116 789.2,-116 792.867,-119.667 792.867,-123.333 792.867,-123.333 792.867,-130.667 792.867,-130.667 792.867,-134.333 789.2,-138 785.533,-138"/>
<text text-anchor="middle" x="756.332" y="-123.4" font-family="Helvetica,sans-Serif" font-size="12.00" fill="white">IntegerType</text>
</a>
</g>
</g>
<!-- UnsignedIntegerType -->
<g id="node15" class="node">
<g id="a_node15"><a xlink:href="/v2.1/protocol/UnsignedIntegerType/" target="_top">
<path fill="#999999" stroke="#999999" d="M811.06,-80C811.06,-80 701.604,-80 701.604,-80 697.937,-80 694.27,-76.3333 694.27,-72.6667 694.27,-72.6667 694.27,-65.3333 694.27,-65.3333 694.27,-61.6667 697.937,-58 701.604,-58 701.604,-58 811.06,-58 811.06,-58 814.727,-58 818.393,-61.6667 818.393,-65.3333 818.393,-65.3333 818.393,-72.6667 818.393,-72.6667 818.393,-76.3333 814.727,-80 811.06,-80"/>
<text text-anchor="middle" x="756.332" y="-65.4" font-family="Helvetica,sans-Serif" font-size="12.00" fill="white">UnsignedIntegerType</text>
</a>
</g>
</g>
<!-- IntegerType&#45;&gt;UnsignedIntegerType -->
<g id="edge12" class="edge">
<path fill="none" stroke="#cccccc" d="M756.332,-115.988C756.332,-108.91 756.332,-99.1714 756.332,-90.4779"/>
<polygon fill="#cccccc" stroke="#cccccc" points="759.832,-90.3038 756.332,-80.3039 752.832,-90.3039 759.832,-90.3038"/>
</g>
<!-- RandomAccessIndexType&#45;&gt;IntegerType -->
<g id="edge26" class="edge">
<path fill="none" stroke="#cccccc" d="M816.281,-173.988C805.618,-165.809 790.326,-154.077 777.855,-144.511"/>
<polygon fill="#cccccc" stroke="#cccccc" points="779.828,-141.613 769.764,-138.304 775.568,-147.168 779.828,-141.613"/>
</g>
<!-- RandomAccessIndexType&#45;&gt;UInt64 -->
<g id="edge6" class="edge">
<path fill="none" stroke="#cccccc" d="M833.561,-173.756C845.027,-145.978 876.866,-68.848 892.059,-32.0425"/>
<polygon fill="#cccccc" stroke="#cccccc" points="895.455,-32.987 896.036,-22.4081 888.985,-30.316 895.455,-32.987"/>
</g>
<!-- Strideable&#45;&gt;RandomAccessIndexType -->
<g id="edge28" class="edge">
<path fill="none" stroke="#cccccc" d="M734.892,-231.988C752.85,-223.243 779.146,-210.438 799.433,-200.559"/>
<polygon fill="#cccccc" stroke="#cccccc" points="801.104,-203.639 808.562,-196.114 798.039,-197.345 801.104,-203.639"/>
</g>
<!-- UnsignedIntegerType&#45;&gt;UInt64 -->
<g id="edge1" class="edge">
<path fill="none" stroke="#cccccc" d="M782.076,-57.9883C805.174,-49.0057 839.287,-35.7398 864.945,-25.7614"/>
<polygon fill="#cccccc" stroke="#cccccc" points="866.274,-29.0004 874.325,-22.1138 863.736,-22.4763 866.274,-29.0004"/>
</g>
<!-- _CVarArgAlignedType&#45;&gt;UInt64 -->
<g id="edge10" class="edge">
<path fill="none" stroke="#cccccc" d="M1108.92,-57.9883C1059.94,-47.1893 982.879,-30.1994 937.406,-20.1738"/>
<polygon fill="#cccccc" stroke="#cccccc" points="937.902,-16.6991 927.383,-17.964 936.395,-23.535 937.902,-16.6991"/>
</g>
<!-- _DisallowMixedSignArithmetic -->
<g id="node17" class="node">
<g id="a_node17"><a xlink:href="/v2.1/protocol/_DisallowMixedSignArithmetic/" target="_top">
<path fill="#999999" stroke="#999999" d="M685.041,-138C685.041,-138 529.623,-138 529.623,-138 525.956,-138 522.289,-134.333 522.289,-130.667 522.289,-130.667 522.289,-123.333 522.289,-123.333 522.289,-119.667 525.956,-116 529.623,-116 529.623,-116 685.041,-116 685.041,-116 688.708,-116 692.374,-119.667 692.374,-123.333 692.374,-123.333 692.374,-130.667 692.374,-130.667 692.374,-134.333 688.708,-138 685.041,-138"/>
<text text-anchor="middle" x="607.332" y="-123.4" font-family="Helvetica,sans-Serif" font-size="12.00" fill="white">_DisallowMixedSignArithmetic</text>
</a>
</g>
</g>
<!-- _DisallowMixedSignArithmetic&#45;&gt;UnsignedIntegerType -->
<g id="edge11" class="edge">
<path fill="none" stroke="#cccccc" d="M633.97,-115.988C657.944,-106.978 693.386,-93.6574 719.964,-83.6685"/>
<polygon fill="#cccccc" stroke="#cccccc" points="721.544,-86.8137 729.674,-80.0192 719.081,-80.2612 721.544,-86.8137"/>
</g>
<!-- _Incrementable&#45;&gt;ForwardIndexType -->
<g id="edge31" class="edge">
<path fill="none" stroke="#cccccc" d="M829.332,-347.988C829.332,-340.91 829.332,-331.171 829.332,-322.478"/>
<polygon fill="#cccccc" stroke="#cccccc" points="832.832,-322.304 829.332,-312.304 825.832,-322.304 832.832,-322.304"/>
</g>
<!-- _Incrementable&#45;&gt;_IntegerType -->
<g id="edge19" class="edge">
<path fill="none" stroke="#cccccc" d="M783.278,-354.406C749.425,-349.587 704.138,-338.321 673.332,-312 643.405,-286.43 660.442,-262.314 635.332,-232 625.321,-219.915 611.466,-209.346 599.297,-201.396"/>
<polygon fill="#cccccc" stroke="#cccccc" points="601.147,-198.425 590.813,-196.086 597.433,-204.358 601.147,-198.425"/>
</g>
<!-- _IntegerArithmeticType -->
<g id="node19" class="node">
<g id="a_node19"><a xlink:href="/v2.1/protocol/_IntegerArithmeticType/" target="_top">
<path fill="#999999" stroke="#999999" d="M525.547,-312C525.547,-312 407.117,-312 407.117,-312 403.45,-312 399.784,-308.333 399.784,-304.667 399.784,-304.667 399.784,-297.333 399.784,-297.333 399.784,-293.667 403.45,-290 407.117,-290 407.117,-290 525.547,-290 525.547,-290 529.214,-290 532.88,-293.667 532.88,-297.333 532.88,-297.333 532.88,-304.667 532.88,-304.667 532.88,-308.333 529.214,-312 525.547,-312"/>
<text text-anchor="middle" x="466.332" y="-297.4" font-family="Helvetica,sans-Serif" font-size="12.00" fill="white">_IntegerArithmeticType</text>
</a>
</g>
</g>
<!-- _IntegerArithmeticType&#45;&gt;IntegerArithmeticType -->
<g id="edge21" class="edge">
<path fill="none" stroke="#cccccc" d="M483.674,-289.988C498.479,-281.441 520.002,-269.015 536.944,-259.234"/>
<polygon fill="#cccccc" stroke="#cccccc" points="538.903,-262.145 545.813,-254.114 535.403,-256.083 538.903,-262.145"/>
</g>
<!-- _IntegerType&#45;&gt;IntegerType -->
<g id="edge25" class="edge">
<path fill="none" stroke="#cccccc" d="M605.227,-173.988C635.485,-164.779 680.535,-151.068 713.574,-141.013"/>
<polygon fill="#cccccc" stroke="#cccccc" points="714.864,-144.279 723.412,-138.019 712.826,-137.583 714.864,-144.279"/>
</g>
<!-- _IntegerType&#45;&gt;_DisallowMixedSignArithmetic -->
<g id="edge13" class="edge">
<path fill="none" stroke="#cccccc" d="M578.589,-173.988C583.259,-166.517 589.781,-156.081 595.432,-147.039"/>
<polygon fill="#cccccc" stroke="#cccccc" points="598.56,-148.639 600.892,-138.304 592.624,-144.929 598.56,-148.639"/>
</g>
<!-- _RandomAccessAmbiguity -->
<g id="node21" class="node">
<g id="a_node21"><a xlink:href="/v2.1/protocol/_RandomAccessAmbiguity/" target="_top">
<path fill="#999999" stroke="#999999" d="M1137.55,-254C1137.55,-254 999.118,-254 999.118,-254 995.452,-254 991.785,-250.333 991.785,-246.667 991.785,-246.667 991.785,-239.333 991.785,-239.333 991.785,-235.667 995.452,-232 999.118,-232 999.118,-232 1137.55,-232 1137.55,-232 1141.21,-232 1144.88,-235.667 1144.88,-239.333 1144.88,-239.333 1144.88,-246.667 1144.88,-246.667 1144.88,-250.333 1141.21,-254 1137.55,-254"/>
<text text-anchor="middle" x="1068.33" y="-239.4" font-family="Helvetica,sans-Serif" font-size="12.00" fill="white">_RandomAccessAmbiguity</text>
</a>
</g>
</g>
<!-- _RandomAccessAmbiguity&#45;&gt;RandomAccessIndexType -->
<g id="edge29" class="edge">
<path fill="none" stroke="#cccccc" d="M1025.6,-231.988C985.369,-222.561 925,-208.416 881.846,-198.305"/>
<polygon fill="#cccccc" stroke="#cccccc" points="882.627,-194.893 872.093,-196.019 881.03,-201.708 882.627,-194.893"/>
</g>
<!-- _Reflectable -->
<g id="node22" class="node">
<g id="a_node22"><a xlink:href="/v2.1/protocol/_Reflectable/" target="_top">
<path fill="#999999" stroke="#999999" d="M1305.03,-80C1305.03,-80 1243.63,-80 1243.63,-80 1239.97,-80 1236.3,-76.3333 1236.3,-72.6667 1236.3,-72.6667 1236.3,-65.3333 1236.3,-65.3333 1236.3,-61.6667 1239.97,-58 1243.63,-58 1243.63,-58 1305.03,-58 1305.03,-58 1308.7,-58 1312.36,-61.6667 1312.36,-65.3333 1312.36,-65.3333 1312.36,-72.6667 1312.36,-72.6667 1312.36,-76.3333 1308.7,-80 1305.03,-80"/>
<text text-anchor="middle" x="1274.33" y="-65.4" font-family="Helvetica,sans-Serif" font-size="12.00" fill="white">_Reflectable</text>
</a>
</g>
</g>
<!-- _Reflectable&#45;&gt;UInt64 -->
<g id="edge8" class="edge">
<path fill="none" stroke="#cccccc" d="M1236.12,-59.8054C1232.82,-59.1675 1229.52,-58.5561 1226.33,-58 1122.22,-39.8299 998.44,-23.9105 937.712,-16.4693"/>
<polygon fill="#cccccc" stroke="#cccccc" points="937.824,-12.957 927.474,-15.222 936.977,-19.9057 937.824,-12.957"/>
</g>
<!-- _Strideable -->
<g id="node23" class="node">
<g id="a_node23"><a xlink:href="/v2.1/protocol/_Strideable/" target="_top">
<path fill="#999999" stroke="#999999" d="M745.032,-312C745.032,-312 689.632,-312 689.632,-312 685.966,-312 682.299,-308.333 682.299,-304.667 682.299,-304.667 682.299,-297.333 682.299,-297.333 682.299,-293.667 685.966,-290 689.632,-290 689.632,-290 745.032,-290 745.032,-290 748.698,-290 752.365,-293.667 752.365,-297.333 752.365,-297.333 752.365,-304.667 752.365,-304.667 752.365,-308.333 748.698,-312 745.032,-312"/>
<text text-anchor="middle" x="717.332" y="-297.4" font-family="Helvetica,sans-Serif" font-size="12.00" fill="white">_Strideable</text>
</a>
</g>
</g>
<!-- _Strideable&#45;&gt;Strideable -->
<g id="edge33" class="edge">
<path fill="none" stroke="#cccccc" d="M716.796,-289.988C716.416,-282.91 715.895,-273.171 715.429,-264.478"/>
<polygon fill="#cccccc" stroke="#cccccc" points="718.914,-264.102 714.884,-254.304 711.924,-264.477 718.914,-264.102"/>
</g>
</g>
</svg>
