<?xml version="1.0" encoding="UTF-8" standalone="no"?>
<!DOCTYPE svg PUBLIC "-//W3C//DTD SVG 1.1//EN"
 "http://www.w3.org/Graphics/SVG/1.1/DTD/svg11.dtd">
<!-- Generated by graphviz version 2.36.0 (20140111.2315)
 -->
<!-- Title: _ArrayType &#45; Type Hierarchy &#45; SwiftDoc.org Pages: 1 -->
<svg width="433pt" height="427pt"
 viewBox="0.00 0.00 433.40 427.20" xmlns="http://www.w3.org/2000/svg" xmlns:xlink="http://www.w3.org/1999/xlink">
<g id="graph0" class="graph" transform="scale(1 1) rotate(0) translate(7.2 369.6)">
<g transform="translate(0 -369.6)">
<g>
    <path fill="#666666" d="M13.846,10.832c-0.336-0.464-0.792-0.844-1.368-1.14s-1.224-0.444-1.944-0.444
        c-0.384,0-0.772,0.052-1.164,0.156C8.977,9.509,8.622,9.677,8.301,9.908c-0.32,0.232-0.58,0.52-0.78,0.864
        c-0.2,0.344-0.3,0.756-0.3,1.236c0,0.464,0.092,0.852,0.276,1.164c0.184,0.312,0.432,0.576,0.744,0.792s0.68,0.4,1.104,0.552
        c0.423,0.152,0.876,0.309,1.356,0.468c0.576,0.177,1.16,0.376,1.752,0.601c0.592,0.224,1.128,0.52,1.608,0.888
        s0.872,0.828,1.176,1.38s0.456,1.252,0.456,2.101c0,0.88-0.164,1.644-0.492,2.292c-0.328,0.647-0.765,1.184-1.308,1.607
        c-0.544,0.424-1.172,0.74-1.884,0.948s-1.444,0.312-2.196,0.312c-1.072,0-2.108-0.208-3.108-0.624
        c-1-0.415-1.828-1.031-2.484-1.848l1.848-1.56c0.4,0.592,0.936,1.071,1.608,1.439c0.672,0.368,1.399,0.552,2.184,0.552
        c0.4,0,0.8-0.056,1.2-0.168c0.4-0.111,0.764-0.288,1.092-0.527c0.328-0.24,0.596-0.54,0.804-0.9
        c0.208-0.36,0.312-0.796,0.312-1.308s-0.108-0.94-0.324-1.284c-0.216-0.344-0.508-0.636-0.876-0.876s-0.796-0.444-1.284-0.612
        c-0.488-0.168-1.004-0.34-1.548-0.516c-0.544-0.16-1.08-0.356-1.608-0.588c-0.528-0.232-1-0.528-1.416-0.889
        c-0.416-0.359-0.752-0.804-1.008-1.332c-0.256-0.527-0.384-1.184-0.384-1.968c0-0.848,0.172-1.576,0.516-2.184
        c0.344-0.608,0.792-1.112,1.344-1.512c0.552-0.4,1.176-0.692,1.872-0.876c0.696-0.184,1.396-0.276,2.1-0.276
        c0.992,0,1.92,0.176,2.784,0.528c0.864,0.352,1.56,0.824,2.088,1.416L13.846,10.832z"/>
    <path fill="#666666" d="M18.813,13.304l2.568,8.688h0.048l2.712-8.688h2.376l2.76,8.688h0.048l2.568-8.688h2.376L30.501,24.68
        h-2.352l-2.808-8.544h-0.048l-2.784,8.544h-2.352l-3.792-11.376H18.813z"/>
    <path fill="#666666" d="M38.685,9.2c0,0.416-0.147,0.76-0.44,1.032c-0.294,0.272-0.647,0.408-1.06,0.408s-0.762-0.14-1.047-0.42
        c-0.286-0.28-0.429-0.62-0.429-1.02c0-0.416,0.143-0.764,0.429-1.044c0.286-0.28,0.635-0.42,1.047-0.42s0.766,0.14,1.06,0.42
        C38.538,8.437,38.685,8.784,38.685,9.2z M38.325,24.68h-2.256V13.304h2.256V24.68z"/>
    <path fill="#666666" d="M47.613,15.152h-2.64v9.528h-2.256v-9.528h-2.256v-1.848h2.256v-2.376c0-0.672,0.076-1.292,0.228-1.86
        c0.152-0.568,0.4-1.06,0.744-1.476c0.344-0.416,0.784-0.744,1.32-0.984c0.536-0.24,1.188-0.36,1.956-0.36
        c0.544,0,1.016,0.056,1.416,0.168l-0.264,1.944c-0.176-0.048-0.352-0.088-0.528-0.12c-0.176-0.032-0.376-0.048-0.6-0.048
        c-0.432,0-0.78,0.076-1.044,0.228c-0.264,0.152-0.468,0.356-0.612,0.612s-0.24,0.548-0.288,0.876
        c-0.048,0.328-0.072,0.668-0.072,1.02v2.376h2.64V15.152z"/>
    <path fill="#666666" d="M54.909,15.152h-3.024v5.91c0,0.687,0.128,1.177,0.384,1.472c0.256,0.295,0.664,0.442,1.224,0.442
        c0.208,0,0.432-0.021,0.672-0.065c0.24-0.044,0.456-0.11,0.648-0.198l0.072,1.848c-0.272,0.096-0.572,0.172-0.9,0.229
        c-0.328,0.056-0.668,0.084-1.02,0.084c-1.072,0-1.892-0.296-2.46-0.889c-0.568-0.592-0.852-1.479-0.852-2.664v-6.168h-2.184
        v-1.848h2.184V10.04h2.232v3.264h3.024V15.152z"/>
    <path fill="#666666" d="M57.356,7.688h5.832c1.088,0,2.176,0.16,3.264,0.48c1.088,0.32,2.072,0.824,2.952,1.512
        s1.592,1.568,2.136,2.64c0.544,1.072,0.816,2.36,0.816,3.864c0,1.456-0.272,2.716-0.816,3.78s-1.256,1.943-2.136,2.64
        s-1.864,1.216-2.952,1.561c-1.088,0.344-2.176,0.516-3.264,0.516h-5.832V7.688z M59.732,22.593h2.976
        c1.024,0,1.972-0.145,2.844-0.432c0.872-0.288,1.624-0.704,2.256-1.248c0.632-0.544,1.124-1.216,1.476-2.017
        c0.352-0.8,0.528-1.704,0.528-2.712c0-1.056-0.176-1.983-0.528-2.784c-0.353-0.8-0.844-1.468-1.476-2.004
        c-0.632-0.536-1.384-0.944-2.256-1.224s-1.82-0.42-2.844-0.42h-2.976V22.593z"/>
    <path fill="#666666" d="M86.06,18.969c0,0.88-0.156,1.688-0.468,2.424c-0.312,0.736-0.744,1.372-1.296,1.908
        c-0.552,0.536-1.204,0.952-1.956,1.248c-0.752,0.296-1.56,0.443-2.424,0.443c-0.864,0-1.672-0.147-2.424-0.443
        c-0.752-0.296-1.4-0.712-1.944-1.248c-0.544-0.536-0.972-1.172-1.284-1.908c-0.312-0.735-0.468-1.544-0.468-2.424
        s0.156-1.684,0.468-2.412c0.312-0.728,0.74-1.356,1.284-1.884c0.543-0.528,1.191-0.939,1.944-1.236
        c0.752-0.296,1.56-0.444,2.424-0.444c0.864,0,1.672,0.148,2.424,0.444c0.752,0.297,1.404,0.708,1.956,1.236
        c0.552,0.527,0.984,1.156,1.296,1.884C85.904,17.285,86.06,18.089,86.06,18.969z M83.708,18.98c0-0.542-0.084-1.061-0.252-1.556
        c-0.169-0.494-0.414-0.929-0.734-1.304s-0.718-0.674-1.192-0.897s-1.015-0.335-1.625-0.335c-0.61,0-1.152,0.111-1.625,0.335
        c-0.474,0.224-0.871,0.522-1.191,0.897c-0.321,0.375-0.566,0.81-0.734,1.304C76.184,17.92,76.1,18.438,76.1,18.98
        c0,0.543,0.084,1.062,0.253,1.556c0.168,0.495,0.413,0.934,0.734,1.316c0.321,0.383,0.718,0.686,1.191,0.909
        c0.473,0.224,1.015,0.335,1.625,0.335c0.61,0,1.151-0.111,1.625-0.335s0.871-0.526,1.192-0.909s0.565-0.821,0.734-1.316
        C83.624,20.042,83.708,19.523,83.708,18.98z"/>
    <path fill="#666666" d="M96.428,16.184c-0.24-0.368-0.6-0.676-1.08-0.924s-0.992-0.372-1.536-0.372
        c-0.592,0-1.116,0.112-1.572,0.336c-0.456,0.225-0.844,0.524-1.164,0.9c-0.32,0.376-0.564,0.812-0.732,1.308
        s-0.252,1.017-0.252,1.56c0,0.545,0.084,1.064,0.252,1.561s0.412,0.933,0.732,1.308c0.32,0.376,0.712,0.677,1.176,0.9
        c0.464,0.225,0.992,0.336,1.584,0.336c0.576,0,1.1-0.111,1.572-0.336c0.472-0.224,0.86-0.528,1.164-0.912l1.512,1.368
        c-0.48,0.561-1.08,0.996-1.8,1.308c-0.72,0.312-1.536,0.468-2.448,0.468c-0.88,0-1.692-0.144-2.436-0.432
        c-0.744-0.288-1.388-0.691-1.932-1.212c-0.544-0.52-0.972-1.147-1.284-1.884s-0.468-1.561-0.468-2.473
        c0-0.896,0.152-1.711,0.456-2.447c0.304-0.736,0.728-1.368,1.272-1.896c0.543-0.527,1.188-0.936,1.932-1.224
        c0.744-0.288,1.548-0.433,2.412-0.433c0.8,0,1.596,0.16,2.388,0.48s1.419,0.784,1.884,1.392L96.428,16.184z"/>
    <path fill="#666666" d="M103.1,23.24c0,0.417-0.152,0.784-0.456,1.104c-0.304,0.32-0.688,0.479-1.152,0.479
        c-0.448,0-0.828-0.155-1.14-0.468c-0.312-0.312-0.468-0.676-0.468-1.092c0-0.432,0.152-0.804,0.456-1.116
        c0.304-0.312,0.688-0.468,1.152-0.468c0.464,0,0.848,0.152,1.152,0.456C102.947,22.44,103.1,22.808,103.1,23.24z"/>
    <path fill="#666666" d="M116.635,18.969c0,0.88-0.156,1.688-0.468,2.424c-0.312,0.736-0.744,1.372-1.296,1.908
        c-0.552,0.536-1.204,0.952-1.956,1.248c-0.752,0.296-1.56,0.443-2.424,0.443c-0.864,0-1.672-0.147-2.424-0.443
        c-0.752-0.296-1.4-0.712-1.944-1.248c-0.544-0.536-0.972-1.172-1.284-1.908c-0.312-0.735-0.468-1.544-0.468-2.424
        s0.156-1.684,0.468-2.412c0.312-0.728,0.74-1.356,1.284-1.884c0.543-0.528,1.191-0.939,1.944-1.236
        c0.752-0.296,1.56-0.444,2.424-0.444c0.864,0,1.672,0.148,2.424,0.444c0.752,0.297,1.404,0.708,1.956,1.236
        c0.552,0.527,0.984,1.156,1.296,1.884C116.479,17.285,116.635,18.089,116.635,18.969z M114.283,18.98
        c0-0.542-0.084-1.061-0.252-1.556c-0.169-0.494-0.414-0.929-0.734-1.304s-0.718-0.674-1.192-0.897s-1.015-0.335-1.625-0.335
        c-0.61,0-1.152,0.111-1.625,0.335c-0.474,0.224-0.871,0.522-1.191,0.897c-0.321,0.375-0.566,0.81-0.734,1.304
        c-0.169,0.495-0.253,1.014-0.253,1.556c0,0.543,0.084,1.062,0.253,1.556c0.168,0.495,0.413,0.934,0.734,1.316
        c0.321,0.383,0.718,0.686,1.191,0.909c0.473,0.224,1.015,0.335,1.625,0.335c0.61,0,1.151-0.111,1.625-0.335
        s0.871-0.526,1.192-0.909s0.565-0.821,0.734-1.316C114.199,20.042,114.283,19.523,114.283,18.98z"/>
    <path fill="#666666" d="M119.251,14.577c-0.016-0.48-0.04-0.904-0.072-1.272h2.136c0.032,0.288,0.056,0.62,0.072,0.996
        c0.016,0.376,0.024,0.684,0.024,0.924h0.072c0.32-0.672,0.788-1.212,1.404-1.62c0.616-0.408,1.308-0.612,2.076-0.612
        c0.352,0,0.648,0.033,0.888,0.097l-0.096,2.088c-0.32-0.08-0.664-0.12-1.032-0.12c-0.544,0-1.016,0.101-1.416,0.3
        c-0.4,0.2-0.732,0.468-0.996,0.805c-0.264,0.336-0.46,0.724-0.588,1.163c-0.128,0.44-0.192,0.9-0.192,1.381v5.976h-2.256v-8.928
        C119.275,15.449,119.267,15.056,119.251,14.577z"/>
    <path fill="#666666" d="M128.419,26.625c0.496,0.56,1.116,1.008,1.86,1.344c0.744,0.336,1.508,0.504,2.292,0.504
        c0.752,0,1.384-0.108,1.896-0.324s0.924-0.512,1.236-0.888s0.536-0.82,0.672-1.332c0.136-0.513,0.204-1.064,0.204-1.656v-1.464
        h-0.048c-0.416,0.641-0.984,1.128-1.704,1.464c-0.72,0.336-1.488,0.504-2.304,0.504c-0.864,0-1.652-0.151-2.364-0.456
        c-0.712-0.304-1.316-0.72-1.812-1.248c-0.496-0.527-0.88-1.147-1.152-1.859s-0.408-1.477-0.408-2.292
        c0-0.816,0.136-1.584,0.408-2.305c0.272-0.72,0.656-1.348,1.152-1.884c0.496-0.535,1.096-0.96,1.8-1.271
        c0.704-0.312,1.488-0.469,2.352-0.469c0.816,0,1.596,0.177,2.34,0.528c0.744,0.353,1.332,0.888,1.764,1.608h0.048v-1.824h2.184
        v10.8c0,0.832-0.104,1.628-0.312,2.388c-0.208,0.76-0.56,1.433-1.056,2.017s-1.144,1.052-1.944,1.404
        c-0.8,0.352-1.792,0.527-2.976,0.527c-0.992,0-1.988-0.18-2.988-0.54c-1-0.359-1.86-0.868-2.58-1.523L128.419,26.625z
         M129.091,18.873c0,0.527,0.084,1.031,0.253,1.512c0.168,0.479,0.417,0.904,0.746,1.271c0.329,0.369,0.726,0.664,1.192,0.889
        c0.465,0.224,0.995,0.336,1.589,0.336c0.577,0,1.107-0.104,1.589-0.312c0.481-0.207,0.891-0.491,1.228-0.852
        s0.598-0.784,0.782-1.272c0.185-0.487,0.277-1.012,0.277-1.571c0-0.544-0.093-1.057-0.277-1.536
        c-0.185-0.48-0.449-0.904-0.794-1.272c-0.345-0.367-0.755-0.66-1.228-0.876c-0.474-0.216-1-0.324-1.577-0.324
        c-0.594,0-1.124,0.108-1.589,0.324c-0.466,0.216-0.863,0.504-1.192,0.864s-0.578,0.784-0.746,1.271
        C129.175,17.812,129.091,18.329,129.091,18.873z"/>
</g>
<g><a xlink:href="/" pointer-events="all" target="_top"><polygon fill="none" points="0,0 145,0 145,35 0,35 0,0"/></a></g>

</g>


<!-- Array -->
<g id="node1" class="node">
<g id="a_node1"><a xlink:href="/v2.1/type/Array/" target="_top">
<polygon fill="#999999" stroke="#999999" points="151,-22 97,-22 97,-0 151,-0 151,-22"/>
<text text-anchor="middle" x="124" y="-7.4" font-family="Helvetica,sans-Serif" font-size="12.00" fill="white">Array</text>
</a>
</g>
</g>
<!-- ArrayLiteralConvertible -->
<g id="node2" class="node">
<g id="a_node2"><a xlink:href="/v2.1/protocol/ArrayLiteralConvertible/" target="_top">
<path fill="#999999" stroke="#999999" d="M124.705,-138C124.705,-138 7.29524,-138 7.29524,-138 3.62858,-138 -0.0380908,-134.333 -0.0380908,-130.667 -0.0380908,-130.667 -0.0380908,-123.333 -0.0380908,-123.333 -0.0380908,-119.667 3.62858,-116 7.29524,-116 7.29524,-116 124.705,-116 124.705,-116 128.371,-116 132.038,-119.667 132.038,-123.333 132.038,-123.333 132.038,-130.667 132.038,-130.667 132.038,-134.333 128.371,-138 124.705,-138"/>
<text text-anchor="middle" x="66" y="-123.4" font-family="Helvetica,sans-Serif" font-size="12.00" fill="white">ArrayLiteralConvertible</text>
</a>
</g>
</g>
<!-- _ArrayType -->
<g id="node12" class="node">
<g id="a_node12"><a xlink:href="/v2.1/protocol/_ArrayType/" target="_top">
<path fill="#ee543d" stroke="#ee543d" d="M229.19,-80C229.19,-80 172.81,-80 172.81,-80 169.144,-80 165.477,-76.3333 165.477,-72.6667 165.477,-72.6667 165.477,-65.3333 165.477,-65.3333 165.477,-61.6667 169.144,-58 172.81,-58 172.81,-58 229.19,-58 229.19,-58 232.856,-58 236.523,-61.6667 236.523,-65.3333 236.523,-65.3333 236.523,-72.6667 236.523,-72.6667 236.523,-76.3333 232.856,-80 229.19,-80"/>
<text text-anchor="middle" x="201" y="-65.4" font-family="Helvetica,sans-Serif" font-size="12.00" fill="white">_ArrayType</text>
</a>
</g>
</g>
<!-- ArrayLiteralConvertible&#45;&gt;_ArrayType -->
<g id="edge6" class="edge">
<path fill="none" stroke="#cccccc" d="M90.1353,-115.988C111.599,-107.085 143.207,-93.9733 167.188,-84.0259"/>
<polygon fill="#cccccc" stroke="#cccccc" points="168.723,-87.1783 176.618,-80.1138 166.041,-80.7126 168.723,-87.1783"/>
</g>
<!-- ArraySlice -->
<g id="node3" class="node">
<g id="a_node3"><a xlink:href="/v2.1/type/ArraySlice/" target="_top">
<polygon fill="#999999" stroke="#999999" points="233.011,-22 168.989,-22 168.989,-0 233.011,-0 233.011,-22"/>
<text text-anchor="middle" x="201" y="-7.4" font-family="Helvetica,sans-Serif" font-size="12.00" fill="white">ArraySlice</text>
</a>
</g>
</g>
<!-- CollectionType -->
<g id="node4" class="node">
<g id="a_node4"><a xlink:href="/v2.1/protocol/CollectionType/" target="_top">
<path fill="#999999" stroke="#999999" d="M248.704,-254C248.704,-254 175.296,-254 175.296,-254 171.63,-254 167.963,-250.333 167.963,-246.667 167.963,-246.667 167.963,-239.333 167.963,-239.333 167.963,-235.667 171.63,-232 175.296,-232 175.296,-232 248.704,-232 248.704,-232 252.37,-232 256.037,-235.667 256.037,-239.333 256.037,-239.333 256.037,-246.667 256.037,-246.667 256.037,-250.333 252.37,-254 248.704,-254"/>
<text text-anchor="middle" x="212" y="-239.4" font-family="Helvetica,sans-Serif" font-size="12.00" fill="white">CollectionType</text>
</a>
</g>
</g>
<!-- MutableCollectionType -->
<g id="node7" class="node">
<g id="a_node7"><a xlink:href="/v2.1/protocol/MutableCollectionType/" target="_top">
<path fill="#999999" stroke="#999999" d="M165.221,-196C165.221,-196 48.7791,-196 48.7791,-196 45.1124,-196 41.4458,-192.333 41.4458,-188.667 41.4458,-188.667 41.4458,-181.333 41.4458,-181.333 41.4458,-177.667 45.1124,-174 48.7791,-174 48.7791,-174 165.221,-174 165.221,-174 168.888,-174 172.554,-177.667 172.554,-181.333 172.554,-181.333 172.554,-188.667 172.554,-188.667 172.554,-192.333 168.888,-196 165.221,-196"/>
<text text-anchor="middle" x="107" y="-181.4" font-family="Helvetica,sans-Serif" font-size="12.00" fill="white">MutableCollectionType</text>
</a>
</g>
</g>
<!-- CollectionType&#45;&gt;MutableCollectionType -->
<g id="edge13" class="edge">
<path fill="none" stroke="#cccccc" d="M193.228,-231.988C176.979,-223.322 153.255,-210.67 134.803,-200.828"/>
<polygon fill="#cccccc" stroke="#cccccc" points="136.434,-197.732 125.963,-196.114 133.14,-203.908 136.434,-197.732"/>
</g>
<!-- MutableSliceable -->
<g id="node9" class="node">
<g id="a_node9"><a xlink:href="/v2.1/protocol/MutableSliceable/" target="_top">
<path fill="#999999" stroke="#999999" d="M244.208,-138C244.208,-138 157.792,-138 157.792,-138 154.126,-138 150.459,-134.333 150.459,-130.667 150.459,-130.667 150.459,-123.333 150.459,-123.333 150.459,-119.667 154.126,-116 157.792,-116 157.792,-116 244.208,-116 244.208,-116 247.874,-116 251.541,-119.667 251.541,-123.333 251.541,-123.333 251.541,-130.667 251.541,-130.667 251.541,-134.333 247.874,-138 244.208,-138"/>
<text text-anchor="middle" x="201" y="-123.4" font-family="Helvetica,sans-Serif" font-size="12.00" fill="white">MutableSliceable</text>
</a>
</g>
</g>
<!-- CollectionType&#45;&gt;MutableSliceable -->
<g id="edge10" class="edge">
<path fill="none" stroke="#cccccc" d="M211.024,-231.883C209.218,-213.17 205.325,-172.827 202.957,-148.287"/>
<polygon fill="#cccccc" stroke="#cccccc" points="206.434,-147.876 201.99,-138.258 199.467,-148.548 206.434,-147.876"/>
</g>
<!-- RangeReplaceableCollectionType -->
<g id="node10" class="node">
<g id="a_node10"><a xlink:href="/v2.1/protocol/RangeReplaceableCollectionType/" target="_top">
<path fill="#999999" stroke="#999999" d="M411.76,-196C411.76,-196 236.24,-196 236.24,-196 232.573,-196 228.906,-192.333 228.906,-188.667 228.906,-188.667 228.906,-181.333 228.906,-181.333 228.906,-177.667 232.573,-174 236.24,-174 236.24,-174 411.76,-174 411.76,-174 415.427,-174 419.094,-177.667 419.094,-181.333 419.094,-181.333 419.094,-188.667 419.094,-188.667 419.094,-192.333 415.427,-196 411.76,-196"/>
<text text-anchor="middle" x="324" y="-181.4" font-family="Helvetica,sans-Serif" font-size="12.00" fill="white">RangeReplaceableCollectionType</text>
</a>
</g>
</g>
<!-- CollectionType&#45;&gt;RangeReplaceableCollectionType -->
<g id="edge7" class="edge">
<path fill="none" stroke="#cccccc" d="M232.023,-231.988C249.435,-223.283 274.892,-210.554 294.613,-200.694"/>
<polygon fill="#cccccc" stroke="#cccccc" points="296.393,-203.717 303.772,-196.114 293.263,-197.456 296.393,-203.717"/>
</g>
<!-- ContiguousArray -->
<g id="node5" class="node">
<g id="a_node5"><a xlink:href="/v2.1/type/ContiguousArray/" target="_top">
<polygon fill="#999999" stroke="#999999" points="350.534,-22 251.466,-22 251.466,-0 350.534,-0 350.534,-22"/>
<text text-anchor="middle" x="301" y="-7.4" font-family="Helvetica,sans-Serif" font-size="12.00" fill="white">ContiguousArray</text>
</a>
</g>
</g>
<!-- Indexable -->
<g id="node6" class="node">
<g id="a_node6"><a xlink:href="/v2.1/protocol/Indexable/" target="_top">
<path fill="#999999" stroke="#999999" d="M188.699,-312C188.699,-312 141.301,-312 141.301,-312 137.634,-312 133.968,-308.333 133.968,-304.667 133.968,-304.667 133.968,-297.333 133.968,-297.333 133.968,-293.667 137.634,-290 141.301,-290 141.301,-290 188.699,-290 188.699,-290 192.366,-290 196.032,-293.667 196.032,-297.333 196.032,-297.333 196.032,-304.667 196.032,-304.667 196.032,-308.333 192.366,-312 188.699,-312"/>
<text text-anchor="middle" x="165" y="-297.4" font-family="Helvetica,sans-Serif" font-size="12.00" fill="white">Indexable</text>
</a>
</g>
</g>
<!-- Indexable&#45;&gt;CollectionType -->
<g id="edge8" class="edge">
<path fill="none" stroke="#cccccc" d="M173.403,-289.988C179.872,-282.281 188.988,-271.419 196.736,-262.187"/>
<polygon fill="#cccccc" stroke="#cccccc" points="199.604,-264.214 203.352,-254.304 194.242,-259.714 199.604,-264.214"/>
</g>
<!-- MutableCollectionType&#45;&gt;MutableSliceable -->
<g id="edge11" class="edge">
<path fill="none" stroke="#cccccc" d="M123.805,-173.988C138.153,-165.441 159.01,-153.015 175.428,-143.234"/>
<polygon fill="#cccccc" stroke="#cccccc" points="177.224,-146.239 184.023,-138.114 173.641,-140.225 177.224,-146.239"/>
</g>
<!-- MutableIndexable -->
<g id="node8" class="node">
<g id="a_node8"><a xlink:href="/v2.1/protocol/MutableIndexable/" target="_top">
<path fill="#999999" stroke="#999999" d="M141.718,-254C141.718,-254 52.2818,-254 52.2818,-254 48.6151,-254 44.9484,-250.333 44.9484,-246.667 44.9484,-246.667 44.9484,-239.333 44.9484,-239.333 44.9484,-235.667 48.6151,-232 52.2818,-232 52.2818,-232 141.718,-232 141.718,-232 145.385,-232 149.052,-235.667 149.052,-239.333 149.052,-239.333 149.052,-246.667 149.052,-246.667 149.052,-250.333 145.385,-254 141.718,-254"/>
<text text-anchor="middle" x="97" y="-239.4" font-family="Helvetica,sans-Serif" font-size="12.00" fill="white">MutableIndexable</text>
</a>
</g>
</g>
<!-- MutableIndexable&#45;&gt;MutableCollectionType -->
<g id="edge12" class="edge">
<path fill="none" stroke="#cccccc" d="M98.7878,-231.988C100.066,-224.831 101.83,-214.955 103.395,-206.189"/>
<polygon fill="#cccccc" stroke="#cccccc" points="106.848,-206.763 105.16,-196.304 99.9565,-205.533 106.848,-206.763"/>
</g>
<!-- MutableSliceable&#45;&gt;_ArrayType -->
<g id="edge5" class="edge">
<path fill="none" stroke="#cccccc" d="M201,-115.988C201,-108.91 201,-99.1714 201,-90.4779"/>
<polygon fill="#cccccc" stroke="#cccccc" points="204.5,-90.3038 201,-80.3039 197.5,-90.3039 204.5,-90.3038"/>
</g>
<!-- RangeReplaceableCollectionType&#45;&gt;_ArrayType -->
<g id="edge4" class="edge">
<path fill="none" stroke="#cccccc" d="M315.335,-173.859C303.432,-160.152 281.091,-135.217 260,-116 248.371,-105.404 234.539,-94.5372 223.191,-86.0278"/>
<polygon fill="#cccccc" stroke="#cccccc" points="225.196,-83.1575 215.075,-80.0236 221.033,-88.7848 225.196,-83.1575"/>
</g>
<!-- SequenceType -->
<g id="node11" class="node">
<g id="a_node11"><a xlink:href="/v2.1/protocol/SequenceType/" target="_top">
<path fill="#999999" stroke="#999999" d="M296.718,-312C296.718,-312 221.282,-312 221.282,-312 217.615,-312 213.949,-308.333 213.949,-304.667 213.949,-304.667 213.949,-297.333 213.949,-297.333 213.949,-293.667 217.615,-290 221.282,-290 221.282,-290 296.718,-290 296.718,-290 300.385,-290 304.051,-293.667 304.051,-297.333 304.051,-297.333 304.051,-304.667 304.051,-304.667 304.051,-308.333 300.385,-312 296.718,-312"/>
<text text-anchor="middle" x="259" y="-297.4" font-family="Helvetica,sans-Serif" font-size="12.00" fill="white">SequenceType</text>
</a>
</g>
</g>
<!-- SequenceType&#45;&gt;CollectionType -->
<g id="edge9" class="edge">
<path fill="none" stroke="#cccccc" d="M250.597,-289.988C244.128,-282.281 235.012,-271.419 227.264,-262.187"/>
<polygon fill="#cccccc" stroke="#cccccc" points="229.758,-259.714 220.648,-254.304 224.396,-264.214 229.758,-259.714"/>
</g>
<!-- _ArrayType&#45;&gt;Array -->
<g id="edge1" class="edge">
<path fill="none" stroke="#cccccc" d="M187.234,-57.9883C175.808,-49.6784 159.341,-37.7028 146.076,-28.0554"/>
<polygon fill="#cccccc" stroke="#cccccc" points="148.052,-25.165 137.906,-22.1138 143.935,-30.8262 148.052,-25.165"/>
</g>
<!-- _ArrayType&#45;&gt;ArraySlice -->
<g id="edge2" class="edge">
<path fill="none" stroke="#cccccc" d="M201,-57.9883C201,-50.9098 201,-41.1714 201,-32.4779"/>
<polygon fill="#cccccc" stroke="#cccccc" points="204.5,-32.3038 201,-22.3039 197.5,-32.3039 204.5,-32.3038"/>
</g>
<!-- _ArrayType&#45;&gt;ContiguousArray -->
<g id="edge3" class="edge">
<path fill="none" stroke="#cccccc" d="M218.878,-57.9883C234.141,-49.441 256.33,-37.0155 273.796,-27.2343"/>
<polygon fill="#cccccc" stroke="#cccccc" points="275.925,-30.0537 282.94,-22.1138 272.504,-23.9461 275.925,-30.0537"/>
</g>
</g>
</svg>
