<?xml version="1.0" encoding="UTF-8" standalone="no"?>
<!DOCTYPE svg PUBLIC "-//W3C//DTD SVG 1.1//EN"
 "http://www.w3.org/Graphics/SVG/1.1/DTD/svg11.dtd">
<!-- Generated by graphviz version 2.36.0 (20140111.2315)
 -->
<!-- Title: IntegerType &#45; Type Hierarchy &#45; SwiftDoc.org Pages: 1 -->
<svg width="880pt" height="543pt"
 viewBox="0.00 0.00 879.77 543.20" xmlns="http://www.w3.org/2000/svg" xmlns:xlink="http://www.w3.org/1999/xlink">
<g id="graph0" class="graph" transform="scale(1 1) rotate(0) translate(7.2 485.6)">
<g transform="translate(0 -485.6)">
<g>
    <path fill="#666666" d="M13.846,10.832c-0.336-0.464-0.792-0.844-1.368-1.14s-1.224-0.444-1.944-0.444
        c-0.384,0-0.772,0.052-1.164,0.156C8.977,9.509,8.622,9.677,8.301,9.908c-0.32,0.232-0.58,0.52-0.78,0.864
        c-0.2,0.344-0.3,0.756-0.3,1.236c0,0.464,0.092,0.852,0.276,1.164c0.184,0.312,0.432,0.576,0.744,0.792s0.68,0.4,1.104,0.552
        c0.423,0.152,0.876,0.309,1.356,0.468c0.576,0.177,1.16,0.376,1.752,0.601c0.592,0.224,1.128,0.52,1.608,0.888
        s0.872,0.828,1.176,1.38s0.456,1.252,0.456,2.101c0,0.88-0.164,1.644-0.492,2.292c-0.328,0.647-0.765,1.184-1.308,1.607
        c-0.544,0.424-1.172,0.74-1.884,0.948s-1.444,0.312-2.196,0.312c-1.072,0-2.108-0.208-3.108-0.624
        c-1-0.415-1.828-1.031-2.484-1.848l1.848-1.56c0.4,0.592,0.936,1.071,1.608,1.439c0.672,0.368,1.399,0.552,2.184,0.552
        c0.4,0,0.8-0.056,1.2-0.168c0.4-0.111,0.764-0.288,1.092-0.527c0.328-0.24,0.596-0.54,0.804-0.9
        c0.208-0.36,0.312-0.796,0.312-1.308s-0.108-0.94-0.324-1.284c-0.216-0.344-0.508-0.636-0.876-0.876s-0.796-0.444-1.284-0.612
        c-0.488-0.168-1.004-0.34-1.548-0.516c-0.544-0.16-1.08-0.356-1.608-0.588c-0.528-0.232-1-0.528-1.416-0.889
        c-0.416-0.359-0.752-0.804-1.008-1.332c-0.256-0.527-0.384-1.184-0.384-1.968c0-0.848,0.172-1.576,0.516-2.184
        c0.344-0.608,0.792-1.112,1.344-1.512c0.552-0.4,1.176-0.692,1.872-0.876c0.696-0.184,1.396-0.276,2.1-0.276
        c0.992,0,1.92,0.176,2.784,0.528c0.864,0.352,1.56,0.824,2.088,1.416L13.846,10.832z"/>
    <path fill="#666666" d="M18.813,13.304l2.568,8.688h0.048l2.712-8.688h2.376l2.76,8.688h0.048l2.568-8.688h2.376L30.501,24.68
        h-2.352l-2.808-8.544h-0.048l-2.784,8.544h-2.352l-3.792-11.376H18.813z"/>
    <path fill="#666666" d="M38.685,9.2c0,0.416-0.147,0.76-0.44,1.032c-0.294,0.272-0.647,0.408-1.06,0.408s-0.762-0.14-1.047-0.42
        c-0.286-0.28-0.429-0.62-0.429-1.02c0-0.416,0.143-0.764,0.429-1.044c0.286-0.28,0.635-0.42,1.047-0.42s0.766,0.14,1.06,0.42
        C38.538,8.437,38.685,8.784,38.685,9.2z M38.325,24.68h-2.256V13.304h2.256V24.68z"/>
    <path fill="#666666" d="M47.613,15.152h-2.64v9.528h-2.256v-9.528h-2.256v-1.848h2.256v-2.376c0-0.672,0.076-1.292,0.228-1.86
        c0.152-0.568,0.4-1.06,0.744-1.476c0.344-0.416,0.784-0.744,1.32-0.984c0.536-0.24,1.188-0.36,1.956-0.36
        c0.544,0,1.016,0.056,1.416,0.168l-0.264,1.944c-0.176-0.048-0.352-0.088-0.528-0.12c-0.176-0.032-0.376-0.048-0.6-0.048
        c-0.432,0-0.78,0.076-1.044,0.228c-0.264,0.152-0.468,0.356-0.612,0.612s-0.24,0.548-0.288,0.876
        c-0.048,0.328-0.072,0.668-0.072,1.02v2.376h2.64V15.152z"/>
    <path fill="#666666" d="M54.909,15.152h-3.024v5.91c0,0.687,0.128,1.177,0.384,1.472c0.256,0.295,0.664,0.442,1.224,0.442
        c0.208,0,0.432-0.021,0.672-0.065c0.24-0.044,0.456-0.11,0.648-0.198l0.072,1.848c-0.272,0.096-0.572,0.172-0.9,0.229
        c-0.328,0.056-0.668,0.084-1.02,0.084c-1.072,0-1.892-0.296-2.46-0.889c-0.568-0.592-0.852-1.479-0.852-2.664v-6.168h-2.184
        v-1.848h2.184V10.04h2.232v3.264h3.024V15.152z"/>
    <path fill="#666666" d="M57.356,7.688h5.832c1.088,0,2.176,0.16,3.264,0.48c1.088,0.32,2.072,0.824,2.952,1.512
        s1.592,1.568,2.136,2.64c0.544,1.072,0.816,2.36,0.816,3.864c0,1.456-0.272,2.716-0.816,3.78s-1.256,1.943-2.136,2.64
        s-1.864,1.216-2.952,1.561c-1.088,0.344-2.176,0.516-3.264,0.516h-5.832V7.688z M59.732,22.593h2.976
        c1.024,0,1.972-0.145,2.844-0.432c0.872-0.288,1.624-0.704,2.256-1.248c0.632-0.544,1.124-1.216,1.476-2.017
        c0.352-0.8,0.528-1.704,0.528-2.712c0-1.056-0.176-1.983-0.528-2.784c-0.353-0.8-0.844-1.468-1.476-2.004
        c-0.632-0.536-1.384-0.944-2.256-1.224s-1.82-0.42-2.844-0.42h-2.976V22.593z"/>
    <path fill="#666666" d="M86.06,18.969c0,0.88-0.156,1.688-0.468,2.424c-0.312,0.736-0.744,1.372-1.296,1.908
        c-0.552,0.536-1.204,0.952-1.956,1.248c-0.752,0.296-1.56,0.443-2.424,0.443c-0.864,0-1.672-0.147-2.424-0.443
        c-0.752-0.296-1.4-0.712-1.944-1.248c-0.544-0.536-0.972-1.172-1.284-1.908c-0.312-0.735-0.468-1.544-0.468-2.424
        s0.156-1.684,0.468-2.412c0.312-0.728,0.74-1.356,1.284-1.884c0.543-0.528,1.191-0.939,1.944-1.236
        c0.752-0.296,1.56-0.444,2.424-0.444c0.864,0,1.672,0.148,2.424,0.444c0.752,0.297,1.404,0.708,1.956,1.236
        c0.552,0.527,0.984,1.156,1.296,1.884C85.904,17.285,86.06,18.089,86.06,18.969z M83.708,18.98c0-0.542-0.084-1.061-0.252-1.556
        c-0.169-0.494-0.414-0.929-0.734-1.304s-0.718-0.674-1.192-0.897s-1.015-0.335-1.625-0.335c-0.61,0-1.152,0.111-1.625,0.335
        c-0.474,0.224-0.871,0.522-1.191,0.897c-0.321,0.375-0.566,0.81-0.734,1.304C76.184,17.92,76.1,18.438,76.1,18.98
        c0,0.543,0.084,1.062,0.253,1.556c0.168,0.495,0.413,0.934,0.734,1.316c0.321,0.383,0.718,0.686,1.191,0.909
        c0.473,0.224,1.015,0.335,1.625,0.335c0.61,0,1.151-0.111,1.625-0.335s0.871-0.526,1.192-0.909s0.565-0.821,0.734-1.316
        C83.624,20.042,83.708,19.523,83.708,18.98z"/>
    <path fill="#666666" d="M96.428,16.184c-0.24-0.368-0.6-0.676-1.08-0.924s-0.992-0.372-1.536-0.372
        c-0.592,0-1.116,0.112-1.572,0.336c-0.456,0.225-0.844,0.524-1.164,0.9c-0.32,0.376-0.564,0.812-0.732,1.308
        s-0.252,1.017-0.252,1.56c0,0.545,0.084,1.064,0.252,1.561s0.412,0.933,0.732,1.308c0.32,0.376,0.712,0.677,1.176,0.9
        c0.464,0.225,0.992,0.336,1.584,0.336c0.576,0,1.1-0.111,1.572-0.336c0.472-0.224,0.86-0.528,1.164-0.912l1.512,1.368
        c-0.48,0.561-1.08,0.996-1.8,1.308c-0.72,0.312-1.536,0.468-2.448,0.468c-0.88,0-1.692-0.144-2.436-0.432
        c-0.744-0.288-1.388-0.691-1.932-1.212c-0.544-0.52-0.972-1.147-1.284-1.884s-0.468-1.561-0.468-2.473
        c0-0.896,0.152-1.711,0.456-2.447c0.304-0.736,0.728-1.368,1.272-1.896c0.543-0.527,1.188-0.936,1.932-1.224
        c0.744-0.288,1.548-0.433,2.412-0.433c0.8,0,1.596,0.16,2.388,0.48s1.419,0.784,1.884,1.392L96.428,16.184z"/>
    <path fill="#666666" d="M103.1,23.24c0,0.417-0.152,0.784-0.456,1.104c-0.304,0.32-0.688,0.479-1.152,0.479
        c-0.448,0-0.828-0.155-1.14-0.468c-0.312-0.312-0.468-0.676-0.468-1.092c0-0.432,0.152-0.804,0.456-1.116
        c0.304-0.312,0.688-0.468,1.152-0.468c0.464,0,0.848,0.152,1.152,0.456C102.947,22.44,103.1,22.808,103.1,23.24z"/>
    <path fill="#666666" d="M116.635,18.969c0,0.88-0.156,1.688-0.468,2.424c-0.312,0.736-0.744,1.372-1.296,1.908
        c-0.552,0.536-1.204,0.952-1.956,1.248c-0.752,0.296-1.56,0.443-2.424,0.443c-0.864,0-1.672-0.147-2.424-0.443
        c-0.752-0.296-1.4-0.712-1.944-1.248c-0.544-0.536-0.972-1.172-1.284-1.908c-0.312-0.735-0.468-1.544-0.468-2.424
        s0.156-1.684,0.468-2.412c0.312-0.728,0.74-1.356,1.284-1.884c0.543-0.528,1.191-0.939,1.944-1.236
        c0.752-0.296,1.56-0.444,2.424-0.444c0.864,0,1.672,0.148,2.424,0.444c0.752,0.297,1.404,0.708,1.956,1.236
        c0.552,0.527,0.984,1.156,1.296,1.884C116.479,17.285,116.635,18.089,116.635,18.969z M114.283,18.98
        c0-0.542-0.084-1.061-0.252-1.556c-0.169-0.494-0.414-0.929-0.734-1.304s-0.718-0.674-1.192-0.897s-1.015-0.335-1.625-0.335
        c-0.61,0-1.152,0.111-1.625,0.335c-0.474,0.224-0.871,0.522-1.191,0.897c-0.321,0.375-0.566,0.81-0.734,1.304
        c-0.169,0.495-0.253,1.014-0.253,1.556c0,0.543,0.084,1.062,0.253,1.556c0.168,0.495,0.413,0.934,0.734,1.316
        c0.321,0.383,0.718,0.686,1.191,0.909c0.473,0.224,1.015,0.335,1.625,0.335c0.61,0,1.151-0.111,1.625-0.335
        s0.871-0.526,1.192-0.909s0.565-0.821,0.734-1.316C114.199,20.042,114.283,19.523,114.283,18.98z"/>
    <path fill="#666666" d="M119.251,14.577c-0.016-0.48-0.04-0.904-0.072-1.272h2.136c0.032,0.288,0.056,0.62,0.072,0.996
        c0.016,0.376,0.024,0.684,0.024,0.924h0.072c0.32-0.672,0.788-1.212,1.404-1.62c0.616-0.408,1.308-0.612,2.076-0.612
        c0.352,0,0.648,0.033,0.888,0.097l-0.096,2.088c-0.32-0.08-0.664-0.12-1.032-0.12c-0.544,0-1.016,0.101-1.416,0.3
        c-0.4,0.2-0.732,0.468-0.996,0.805c-0.264,0.336-0.46,0.724-0.588,1.163c-0.128,0.44-0.192,0.9-0.192,1.381v5.976h-2.256v-8.928
        C119.275,15.449,119.267,15.056,119.251,14.577z"/>
    <path fill="#666666" d="M128.419,26.625c0.496,0.56,1.116,1.008,1.86,1.344c0.744,0.336,1.508,0.504,2.292,0.504
        c0.752,0,1.384-0.108,1.896-0.324s0.924-0.512,1.236-0.888s0.536-0.82,0.672-1.332c0.136-0.513,0.204-1.064,0.204-1.656v-1.464
        h-0.048c-0.416,0.641-0.984,1.128-1.704,1.464c-0.72,0.336-1.488,0.504-2.304,0.504c-0.864,0-1.652-0.151-2.364-0.456
        c-0.712-0.304-1.316-0.72-1.812-1.248c-0.496-0.527-0.88-1.147-1.152-1.859s-0.408-1.477-0.408-2.292
        c0-0.816,0.136-1.584,0.408-2.305c0.272-0.72,0.656-1.348,1.152-1.884c0.496-0.535,1.096-0.96,1.8-1.271
        c0.704-0.312,1.488-0.469,2.352-0.469c0.816,0,1.596,0.177,2.34,0.528c0.744,0.353,1.332,0.888,1.764,1.608h0.048v-1.824h2.184
        v10.8c0,0.832-0.104,1.628-0.312,2.388c-0.208,0.76-0.56,1.433-1.056,2.017s-1.144,1.052-1.944,1.404
        c-0.8,0.352-1.792,0.527-2.976,0.527c-0.992,0-1.988-0.18-2.988-0.54c-1-0.359-1.86-0.868-2.58-1.523L128.419,26.625z
         M129.091,18.873c0,0.527,0.084,1.031,0.253,1.512c0.168,0.479,0.417,0.904,0.746,1.271c0.329,0.369,0.726,0.664,1.192,0.889
        c0.465,0.224,0.995,0.336,1.589,0.336c0.577,0,1.107-0.104,1.589-0.312c0.481-0.207,0.891-0.491,1.228-0.852
        s0.598-0.784,0.782-1.272c0.185-0.487,0.277-1.012,0.277-1.571c0-0.544-0.093-1.057-0.277-1.536
        c-0.185-0.48-0.449-0.904-0.794-1.272c-0.345-0.367-0.755-0.66-1.228-0.876c-0.474-0.216-1-0.324-1.577-0.324
        c-0.594,0-1.124,0.108-1.589,0.324c-0.466,0.216-0.863,0.504-1.192,0.864s-0.578,0.784-0.746,1.271
        C129.175,17.812,129.091,18.329,129.091,18.873z"/>
</g>
<g><a xlink:href="/" pointer-events="all" target="_top"><polygon fill="none" points="0,0 145,0 145,35 0,35 0,0"/></a></g>

</g>


<!-- BidirectionalIndexType -->
<g id="node1" class="node">
<g id="a_node1"><a xlink:href="/swift-2/protocol/BidirectionalIndexType/" target="_top">
<path fill="#999999" stroke="#999999" d="M622.099,-254C622.099,-254 506.648,-254 506.648,-254 502.981,-254 499.315,-250.333 499.315,-246.667 499.315,-246.667 499.315,-239.333 499.315,-239.333 499.315,-235.667 502.981,-232 506.648,-232 506.648,-232 622.099,-232 622.099,-232 625.766,-232 629.432,-235.667 629.432,-239.333 629.432,-239.333 629.432,-246.667 629.432,-246.667 629.432,-250.333 625.766,-254 622.099,-254"/>
<text text-anchor="middle" x="564.373" y="-239.4" font-family="Helvetica,sans-Serif" font-size="12.00" fill="white">BidirectionalIndexType</text>
</a>
</g>
</g>
<!-- RandomAccessIndexType -->
<g id="node17" class="node">
<g id="a_node17"><a xlink:href="/swift-2/protocol/RandomAccessIndexType/" target="_top">
<path fill="#999999" stroke="#999999" d="M711.599,-196C711.599,-196 577.148,-196 577.148,-196 573.481,-196 569.815,-192.333 569.815,-188.667 569.815,-188.667 569.815,-181.333 569.815,-181.333 569.815,-177.667 573.481,-174 577.148,-174 577.148,-174 711.599,-174 711.599,-174 715.265,-174 718.932,-177.667 718.932,-181.333 718.932,-181.333 718.932,-188.667 718.932,-188.667 718.932,-192.333 715.265,-196 711.599,-196"/>
<text text-anchor="middle" x="644.373" y="-181.4" font-family="Helvetica,sans-Serif" font-size="12.00" fill="white">RandomAccessIndexType</text>
</a>
</g>
</g>
<!-- BidirectionalIndexType&#45;&gt;RandomAccessIndexType -->
<g id="edge37" class="edge">
<path fill="none" stroke="#cccccc" d="M578.676,-231.988C590.547,-223.678 607.655,-211.703 621.437,-202.055"/>
<polygon fill="#cccccc" stroke="#cccccc" points="623.74,-204.716 629.925,-196.114 619.726,-198.981 623.74,-204.716"/>
</g>
<!-- Bit -->
<g id="node2" class="node">
<g id="a_node2"><a xlink:href="/swift-2/type/Bit/" target="_top">
<polygon fill="#999999" stroke="#999999" points="196.373,-22 142.373,-22 142.373,-0 196.373,-0 196.373,-22"/>
<text text-anchor="middle" x="169.373" y="-7.4" font-family="Helvetica,sans-Serif" font-size="12.00" fill="white">Bit</text>
</a>
</g>
</g>
<!-- BitwiseOperationsType -->
<g id="node3" class="node">
<g id="a_node3"><a xlink:href="/swift-2/protocol/BitwiseOperationsType/" target="_top">
<path fill="#999999" stroke="#999999" d="M142.089,-312C142.089,-312 24.6583,-312 24.6583,-312 20.9916,-312 17.325,-308.333 17.325,-304.667 17.325,-304.667 17.325,-297.333 17.325,-297.333 17.325,-293.667 20.9916,-290 24.6583,-290 24.6583,-290 142.089,-290 142.089,-290 145.755,-290 149.422,-293.667 149.422,-297.333 149.422,-297.333 149.422,-304.667 149.422,-304.667 149.422,-308.333 145.755,-312 142.089,-312"/>
<text text-anchor="middle" x="83.3735" y="-297.4" font-family="Helvetica,sans-Serif" font-size="12.00" fill="white">BitwiseOperationsType</text>
</a>
</g>
</g>
<!-- _IntegerType -->
<g id="node28" class="node">
<g id="a_node28"><a xlink:href="/swift-2/protocol/_IntegerType/" target="_top">
<path fill="#999999" stroke="#999999" d="M310.081,-254C310.081,-254 244.666,-254 244.666,-254 240.999,-254 237.332,-250.333 237.332,-246.667 237.332,-246.667 237.332,-239.333 237.332,-239.333 237.332,-235.667 240.999,-232 244.666,-232 244.666,-232 310.081,-232 310.081,-232 313.748,-232 317.415,-235.667 317.415,-239.333 317.415,-239.333 317.415,-246.667 317.415,-246.667 317.415,-250.333 313.748,-254 310.081,-254"/>
<text text-anchor="middle" x="277.373" y="-239.4" font-family="Helvetica,sans-Serif" font-size="12.00" fill="white">_IntegerType</text>
</a>
</g>
</g>
<!-- BitwiseOperationsType&#45;&gt;_IntegerType -->
<g id="edge30" class="edge">
<path fill="none" stroke="#cccccc" d="M118.057,-289.988C150.097,-280.74 197.867,-266.95 232.741,-256.884"/>
<polygon fill="#cccccc" stroke="#cccccc" points="234.027,-260.155 242.664,-254.019 232.085,-253.43 234.027,-260.155"/>
</g>
<!-- Comparable -->
<g id="node4" class="node">
<g id="a_node4"><a xlink:href="/swift-2/protocol/Comparable/" target="_top">
<path fill="#999999" stroke="#999999" d="M757.565,-370C757.565,-370 697.182,-370 697.182,-370 693.516,-370 689.849,-366.333 689.849,-362.667 689.849,-362.667 689.849,-355.333 689.849,-355.333 689.849,-351.667 693.516,-348 697.182,-348 697.182,-348 757.565,-348 757.565,-348 761.231,-348 764.898,-351.667 764.898,-355.333 764.898,-355.333 764.898,-362.667 764.898,-362.667 764.898,-366.333 761.231,-370 757.565,-370"/>
<text text-anchor="middle" x="727.373" y="-355.4" font-family="Helvetica,sans-Serif" font-size="12.00" fill="white">Comparable</text>
</a>
</g>
</g>
<!-- IntegerArithmeticType -->
<g id="node14" class="node">
<g id="a_node14"><a xlink:href="/swift-2/protocol/IntegerArithmeticType/" target="_top">
<path fill="#999999" stroke="#999999" d="M772.084,-312C772.084,-312 660.663,-312 660.663,-312 656.996,-312 653.329,-308.333 653.329,-304.667 653.329,-304.667 653.329,-297.333 653.329,-297.333 653.329,-293.667 656.996,-290 660.663,-290 660.663,-290 772.084,-290 772.084,-290 775.751,-290 779.418,-293.667 779.418,-297.333 779.418,-297.333 779.418,-304.667 779.418,-304.667 779.418,-308.333 775.751,-312 772.084,-312"/>
<text text-anchor="middle" x="716.373" y="-297.4" font-family="Helvetica,sans-Serif" font-size="12.00" fill="white">IntegerArithmeticType</text>
</a>
</g>
</g>
<!-- Comparable&#45;&gt;IntegerArithmeticType -->
<g id="edge34" class="edge">
<path fill="none" stroke="#cccccc" d="M725.407,-347.988C724.001,-340.831 722.061,-330.955 720.339,-322.189"/>
<polygon fill="#cccccc" stroke="#cccccc" points="723.759,-321.442 718.397,-312.304 716.891,-322.791 723.759,-321.442"/>
</g>
<!-- Strideable -->
<g id="node19" class="node">
<g id="a_node19"><a xlink:href="/swift-2/protocol/Strideable/" target="_top">
<path fill="#999999" stroke="#999999" d="M854.067,-312C854.067,-312 804.68,-312 804.68,-312 801.014,-312 797.347,-308.333 797.347,-304.667 797.347,-304.667 797.347,-297.333 797.347,-297.333 797.347,-293.667 801.014,-290 804.68,-290 804.68,-290 854.067,-290 854.067,-290 857.733,-290 861.4,-293.667 861.4,-297.333 861.4,-297.333 861.4,-304.667 861.4,-304.667 861.4,-308.333 857.733,-312 854.067,-312"/>
<text text-anchor="middle" x="829.373" y="-297.4" font-family="Helvetica,sans-Serif" font-size="12.00" fill="white">Strideable</text>
</a>
</g>
</g>
<!-- Comparable&#45;&gt;Strideable -->
<g id="edge42" class="edge">
<path fill="none" stroke="#cccccc" d="M745.609,-347.988C761.322,-339.362 784.229,-326.785 802.119,-316.963"/>
<polygon fill="#cccccc" stroke="#cccccc" points="803.871,-319.994 810.952,-312.114 800.502,-313.858 803.871,-319.994"/>
</g>
<!-- CustomStringConvertible -->
<g id="node5" class="node">
<g id="a_node5"><a xlink:href="/swift-2/protocol/CustomStringConvertible/" target="_top">
<path fill="#999999" stroke="#999999" d="M341.581,-312C341.581,-312 213.166,-312 213.166,-312 209.499,-312 205.832,-308.333 205.832,-304.667 205.832,-304.667 205.832,-297.333 205.832,-297.333 205.832,-293.667 209.499,-290 213.166,-290 213.166,-290 341.581,-290 341.581,-290 345.248,-290 348.915,-293.667 348.915,-297.333 348.915,-297.333 348.915,-304.667 348.915,-304.667 348.915,-308.333 345.248,-312 341.581,-312"/>
<text text-anchor="middle" x="277.373" y="-297.4" font-family="Helvetica,sans-Serif" font-size="12.00" fill="white">CustomStringConvertible</text>
</a>
</g>
</g>
<!-- CustomStringConvertible&#45;&gt;_IntegerType -->
<g id="edge27" class="edge">
<path fill="none" stroke="#cccccc" d="M277.373,-289.988C277.373,-282.91 277.373,-273.171 277.373,-264.478"/>
<polygon fill="#cccccc" stroke="#cccccc" points="280.874,-264.304 277.373,-254.304 273.874,-264.304 280.874,-264.304"/>
</g>
<!-- Equatable -->
<g id="node6" class="node">
<g id="a_node6"><a xlink:href="/swift-2/protocol/Equatable/" target="_top">
<path fill="#999999" stroke="#999999" d="M350.075,-428C350.075,-428 300.672,-428 300.672,-428 297.005,-428 293.338,-424.333 293.338,-420.667 293.338,-420.667 293.338,-413.333 293.338,-413.333 293.338,-409.667 297.005,-406 300.672,-406 300.672,-406 350.075,-406 350.075,-406 353.742,-406 357.409,-409.667 357.409,-413.333 357.409,-413.333 357.409,-420.667 357.409,-420.667 357.409,-424.333 353.742,-428 350.075,-428"/>
<text text-anchor="middle" x="325.373" y="-413.4" font-family="Helvetica,sans-Serif" font-size="12.00" fill="white">Equatable</text>
</a>
</g>
</g>
<!-- Equatable&#45;&gt;Comparable -->
<g id="edge35" class="edge">
<path fill="none" stroke="#cccccc" d="M357.81,-412.684C418.758,-406.263 554.724,-391.035 679.832,-369.967"/>
<polygon fill="#cccccc" stroke="#cccccc" points="680.699,-373.37 689.971,-368.243 679.525,-366.469 680.699,-373.37"/>
</g>
<!-- Hashable -->
<g id="node8" class="node">
<g id="a_node8"><a xlink:href="/swift-2/protocol/Hashable/" target="_top">
<path fill="#999999" stroke="#999999" d="M207.068,-370C207.068,-370 161.679,-370 161.679,-370 158.013,-370 154.346,-366.333 154.346,-362.667 154.346,-362.667 154.346,-355.333 154.346,-355.333 154.346,-351.667 158.013,-348 161.679,-348 161.679,-348 207.068,-348 207.068,-348 210.734,-348 214.401,-351.667 214.401,-355.333 214.401,-355.333 214.401,-362.667 214.401,-362.667 214.401,-366.333 210.734,-370 207.068,-370"/>
<text text-anchor="middle" x="184.373" y="-355.4" font-family="Helvetica,sans-Serif" font-size="12.00" fill="white">Hashable</text>
</a>
</g>
</g>
<!-- Equatable&#45;&gt;Hashable -->
<g id="edge32" class="edge">
<path fill="none" stroke="#cccccc" d="M300.166,-405.988C277.648,-397.045 244.441,-383.857 219.355,-373.893"/>
<polygon fill="#cccccc" stroke="#cccccc" points="220.424,-370.552 209.839,-370.114 217.841,-377.058 220.424,-370.552"/>
</g>
<!-- _Incrementable -->
<g id="node26" class="node">
<g id="a_node26"><a xlink:href="/swift-2/protocol/_Incrementable/" target="_top">
<path fill="#999999" stroke="#999999" d="M364.079,-370C364.079,-370 286.668,-370 286.668,-370 283.002,-370 279.335,-366.333 279.335,-362.667 279.335,-362.667 279.335,-355.333 279.335,-355.333 279.335,-351.667 283.002,-348 286.668,-348 286.668,-348 364.079,-348 364.079,-348 367.745,-348 371.412,-351.667 371.412,-355.333 371.412,-355.333 371.412,-362.667 371.412,-362.667 371.412,-366.333 367.745,-370 364.079,-370"/>
<text text-anchor="middle" x="325.373" y="-355.4" font-family="Helvetica,sans-Serif" font-size="12.00" fill="white">_Incrementable</text>
</a>
</g>
</g>
<!-- Equatable&#45;&gt;_Incrementable -->
<g id="edge36" class="edge">
<path fill="none" stroke="#cccccc" d="M325.373,-405.988C325.373,-398.91 325.373,-389.171 325.373,-380.478"/>
<polygon fill="#cccccc" stroke="#cccccc" points="328.874,-380.304 325.373,-370.304 321.874,-380.304 328.874,-380.304"/>
</g>
<!-- ForwardIndexType -->
<g id="node7" class="node">
<g id="a_node7"><a xlink:href="/swift-2/protocol/ForwardIndexType/" target="_top">
<path fill="#999999" stroke="#999999" d="M627.58,-312C627.58,-312 533.167,-312 533.167,-312 529.501,-312 525.834,-308.333 525.834,-304.667 525.834,-304.667 525.834,-297.333 525.834,-297.333 525.834,-293.667 529.501,-290 533.167,-290 533.167,-290 627.58,-290 627.58,-290 631.246,-290 634.913,-293.667 634.913,-297.333 634.913,-297.333 634.913,-304.667 634.913,-304.667 634.913,-308.333 631.246,-312 627.58,-312"/>
<text text-anchor="middle" x="580.373" y="-297.4" font-family="Helvetica,sans-Serif" font-size="12.00" fill="white">ForwardIndexType</text>
</a>
</g>
</g>
<!-- ForwardIndexType&#45;&gt;BidirectionalIndexType -->
<g id="edge40" class="edge">
<path fill="none" stroke="#cccccc" d="M577.513,-289.988C575.468,-282.831 572.646,-272.955 570.142,-264.189"/>
<polygon fill="#cccccc" stroke="#cccccc" points="573.43,-262.958 567.317,-254.304 566.699,-264.881 573.43,-262.958"/>
</g>
<!-- Hashable&#45;&gt;_IntegerType -->
<g id="edge28" class="edge">
<path fill="none" stroke="#cccccc" d="M154.007,-356.689C93.4185,-353.004 -33.2339,-339.326 8.37348,-290 35.7596,-257.533 156.736,-247.98 226.772,-245.17"/>
<polygon fill="#cccccc" stroke="#cccccc" points="227.271,-248.654 237.136,-244.789 227.014,-241.659 227.271,-248.654"/>
</g>
<!-- Int -->
<g id="node9" class="node">
<g id="a_node9"><a xlink:href="/swift-2/type/Int/" target="_top">
<polygon fill="#999999" stroke="#999999" points="124.373,-22 70.3735,-22 70.3735,-0 124.373,-0 124.373,-22"/>
<text text-anchor="middle" x="97.3735" y="-7.4" font-family="Helvetica,sans-Serif" font-size="12.00" fill="white">Int</text>
</a>
</g>
</g>
<!-- Int&#45;&gt;Bit -->
<g id="edge13" class="edge">
<path fill="none" stroke="#cccccc" d="M124.655,-11C127.111,-11 129.568,-11 132.024,-11"/>
<polygon fill="#cccccc" stroke="#cccccc" points="132.123,-14.5001 142.123,-11 132.123,-7.5001 132.123,-14.5001"/>
</g>
<!-- Int16 -->
<g id="node10" class="node">
<g id="a_node10"><a xlink:href="/swift-2/type/Int16/" target="_top">
<polygon fill="#999999" stroke="#999999" points="268.373,-22 214.373,-22 214.373,-0 268.373,-0 268.373,-22"/>
<text text-anchor="middle" x="241.373" y="-7.4" font-family="Helvetica,sans-Serif" font-size="12.00" fill="white">Int16</text>
</a>
</g>
</g>
<!-- Int32 -->
<g id="node11" class="node">
<g id="a_node11"><a xlink:href="/swift-2/type/Int32/" target="_top">
<polygon fill="#999999" stroke="#999999" points="340.373,-22 286.373,-22 286.373,-0 340.373,-0 340.373,-22"/>
<text text-anchor="middle" x="313.373" y="-7.4" font-family="Helvetica,sans-Serif" font-size="12.00" fill="white">Int32</text>
</a>
</g>
</g>
<!-- Int64 -->
<g id="node12" class="node">
<g id="a_node12"><a xlink:href="/swift-2/type/Int64/" target="_top">
<polygon fill="#999999" stroke="#999999" points="412.373,-22 358.373,-22 358.373,-0 412.373,-0 412.373,-22"/>
<text text-anchor="middle" x="385.373" y="-7.4" font-family="Helvetica,sans-Serif" font-size="12.00" fill="white">Int64</text>
</a>
</g>
</g>
<!-- Int8 -->
<g id="node13" class="node">
<g id="a_node13"><a xlink:href="/swift-2/type/Int8/" target="_top">
<polygon fill="#999999" stroke="#999999" points="484.373,-22 430.373,-22 430.373,-0 484.373,-0 484.373,-22"/>
<text text-anchor="middle" x="457.373" y="-7.4" font-family="Helvetica,sans-Serif" font-size="12.00" fill="white">Int8</text>
</a>
</g>
</g>
<!-- IntegerArithmeticType&#45;&gt;_IntegerType -->
<g id="edge29" class="edge">
<path fill="none" stroke="#cccccc" d="M653.071,-291.285C649.792,-290.847 646.544,-290.416 643.373,-290 530.504,-275.177 397.915,-258.76 327.411,-250.11"/>
<polygon fill="#cccccc" stroke="#cccccc" points="327.821,-246.634 317.469,-248.891 326.969,-253.582 327.821,-246.634"/>
</g>
<!-- IntegerLiteralConvertible -->
<g id="node15" class="node">
<g id="a_node15"><a xlink:href="/swift-2/protocol/IntegerLiteralConvertible/" target="_top">
<path fill="#999999" stroke="#999999" d="M500.096,-312C500.096,-312 374.651,-312 374.651,-312 370.984,-312 367.318,-308.333 367.318,-304.667 367.318,-304.667 367.318,-297.333 367.318,-297.333 367.318,-293.667 370.984,-290 374.651,-290 374.651,-290 500.096,-290 500.096,-290 503.763,-290 507.429,-293.667 507.429,-297.333 507.429,-297.333 507.429,-304.667 507.429,-304.667 507.429,-308.333 503.763,-312 500.096,-312"/>
<text text-anchor="middle" x="437.373" y="-297.4" font-family="Helvetica,sans-Serif" font-size="12.00" fill="white">IntegerLiteralConvertible</text>
</a>
</g>
</g>
<!-- IntegerLiteralConvertible&#45;&gt;_IntegerType -->
<g id="edge26" class="edge">
<path fill="none" stroke="#cccccc" d="M408.769,-289.988C382.798,-280.898 344.294,-267.422 315.674,-257.405"/>
<polygon fill="#cccccc" stroke="#cccccc" points="316.595,-254.019 306,-254.019 314.282,-260.626 316.595,-254.019"/>
</g>
<!-- IntegerType -->
<g id="node16" class="node">
<g id="a_node16"><a xlink:href="/swift-2/protocol/IntegerType/" target="_top">
<path fill="#ee543d" stroke="#ee543d" d="M521.575,-138C521.575,-138 463.172,-138 463.172,-138 459.505,-138 455.839,-134.333 455.839,-130.667 455.839,-130.667 455.839,-123.333 455.839,-123.333 455.839,-119.667 459.505,-116 463.172,-116 463.172,-116 521.575,-116 521.575,-116 525.242,-116 528.908,-119.667 528.908,-123.333 528.908,-123.333 528.908,-130.667 528.908,-130.667 528.908,-134.333 525.242,-138 521.575,-138"/>
<text text-anchor="middle" x="492.373" y="-123.4" font-family="Helvetica,sans-Serif" font-size="12.00" fill="white">IntegerType</text>
</a>
</g>
</g>
<!-- IntegerType&#45;&gt;Int -->
<g id="edge1" class="edge">
<path fill="none" stroke="#cccccc" d="M455.804,-121.323C408.909,-114.77 325.4,-101.225 256.373,-80 209.562,-65.6058 157.849,-41.9455 126.487,-26.6725"/>
<polygon fill="#cccccc" stroke="#cccccc" points="127.954,-23.4935 117.436,-22.2215 124.865,-29.7751 127.954,-23.4935"/>
</g>
<!-- IntegerType&#45;&gt;Int16 -->
<g id="edge2" class="edge">
<path fill="none" stroke="#cccccc" d="M455.918,-126.899C410.309,-126.205 331.837,-118.813 279.373,-80 263.296,-68.106 253.114,-47.2637 247.38,-31.7794"/>
<polygon fill="#cccccc" stroke="#cccccc" points="250.623,-30.4429 244.103,-22.0913 243.992,-32.6856 250.623,-30.4429"/>
</g>
<!-- IntegerType&#45;&gt;Int32 -->
<g id="edge3" class="edge">
<path fill="none" stroke="#cccccc" d="M455.827,-123.118C402.892,-118.099 308.95,-105.733 288.373,-80 276.685,-65.3826 287.03,-44.7847 297.744,-30.0967"/>
<polygon fill="#cccccc" stroke="#cccccc" points="300.505,-32.2472 303.931,-22.2214 295.001,-27.9227 300.505,-32.2472"/>
</g>
<!-- IntegerType&#45;&gt;Int64 -->
<g id="edge4" class="edge">
<path fill="none" stroke="#cccccc" d="M482.878,-115.883C464.681,-96.4959 424.692,-53.8909 401.984,-29.6969"/>
<polygon fill="#cccccc" stroke="#cccccc" points="404.397,-27.1541 395.002,-22.2579 399.293,-31.9446 404.397,-27.1541"/>
</g>
<!-- IntegerType&#45;&gt;Int8 -->
<g id="edge5" class="edge">
<path fill="none" stroke="#cccccc" d="M489.267,-115.883C483.496,-97.086 471.024,-56.4627 463.5,-31.9559"/>
<polygon fill="#cccccc" stroke="#cccccc" points="466.804,-30.7903 460.523,-22.2579 460.112,-32.8448 466.804,-30.7903"/>
</g>
<!-- SignedIntegerType -->
<g id="node18" class="node">
<g id="a_node18"><a xlink:href="/swift-2/protocol/SignedIntegerType/" target="_top">
<path fill="#999999" stroke="#999999" d="M400.1,-80C400.1,-80 304.647,-80 304.647,-80 300.98,-80 297.313,-76.3333 297.313,-72.6667 297.313,-72.6667 297.313,-65.3333 297.313,-65.3333 297.313,-61.6667 300.98,-58 304.647,-58 304.647,-58 400.1,-58 400.1,-58 403.767,-58 407.434,-61.6667 407.434,-65.3333 407.434,-65.3333 407.434,-72.6667 407.434,-72.6667 407.434,-76.3333 403.767,-80 400.1,-80"/>
<text text-anchor="middle" x="352.373" y="-65.4" font-family="Helvetica,sans-Serif" font-size="12.00" fill="white">SignedIntegerType</text>
</a>
</g>
</g>
<!-- IntegerType&#45;&gt;SignedIntegerType -->
<g id="edge6" class="edge">
<path fill="none" stroke="#cccccc" d="M467.344,-115.988C444.987,-107.045 412.015,-93.8566 387.107,-83.8935"/>
<polygon fill="#cccccc" stroke="#cccccc" points="388.243,-80.5781 377.658,-80.1138 385.643,-87.0775 388.243,-80.5781"/>
</g>
<!-- UInt -->
<g id="node20" class="node">
<g id="a_node20"><a xlink:href="/swift-2/type/UInt/" target="_top">
<polygon fill="#999999" stroke="#999999" points="556.373,-22 502.373,-22 502.373,-0 556.373,-0 556.373,-22"/>
<text text-anchor="middle" x="529.373" y="-7.4" font-family="Helvetica,sans-Serif" font-size="12.00" fill="white">UInt</text>
</a>
</g>
</g>
<!-- IntegerType&#45;&gt;UInt -->
<g id="edge7" class="edge">
<path fill="none" stroke="#cccccc" d="M495.657,-115.883C501.758,-97.086 514.943,-56.4627 522.897,-31.9559"/>
<polygon fill="#cccccc" stroke="#cccccc" points="526.286,-32.85 526.044,-22.2579 519.628,-30.689 526.286,-32.85"/>
</g>
<!-- UInt16 -->
<g id="node21" class="node">
<g id="a_node21"><a xlink:href="/swift-2/type/UInt16/" target="_top">
<polygon fill="#999999" stroke="#999999" points="628.373,-22 574.373,-22 574.373,-0 628.373,-0 628.373,-22"/>
<text text-anchor="middle" x="601.373" y="-7.4" font-family="Helvetica,sans-Serif" font-size="12.00" fill="white">UInt16</text>
</a>
</g>
</g>
<!-- IntegerType&#45;&gt;UInt16 -->
<g id="edge8" class="edge">
<path fill="none" stroke="#cccccc" d="M502.046,-115.883C520.584,-96.4959 561.32,-53.8909 584.453,-29.6969"/>
<polygon fill="#cccccc" stroke="#cccccc" points="587.184,-31.9045 591.565,-22.2579 582.125,-27.067 587.184,-31.9045"/>
</g>
<!-- UInt32 -->
<g id="node22" class="node">
<g id="a_node22"><a xlink:href="/swift-2/type/UInt32/" target="_top">
<polygon fill="#999999" stroke="#999999" points="700.373,-22 646.373,-22 646.373,-0 700.373,-0 700.373,-22"/>
<text text-anchor="middle" x="673.373" y="-7.4" font-family="Helvetica,sans-Serif" font-size="12.00" fill="white">UInt32</text>
</a>
</g>
</g>
<!-- IntegerType&#45;&gt;UInt32 -->
<g id="edge9" class="edge">
<path fill="none" stroke="#cccccc" d="M508.436,-115.883C540.1,-95.9399 610.773,-51.4281 648.507,-27.6618"/>
<polygon fill="#cccccc" stroke="#cccccc" points="650.751,-30.385 657.347,-22.0941 647.02,-24.4619 650.751,-30.385"/>
</g>
<!-- UInt64 -->
<g id="node23" class="node">
<g id="a_node23"><a xlink:href="/swift-2/type/UInt64/" target="_top">
<polygon fill="#999999" stroke="#999999" points="772.373,-22 718.373,-22 718.373,-0 772.373,-0 772.373,-22"/>
<text text-anchor="middle" x="745.373" y="-7.4" font-family="Helvetica,sans-Serif" font-size="12.00" fill="white">UInt64</text>
</a>
</g>
</g>
<!-- IntegerType&#45;&gt;UInt64 -->
<g id="edge10" class="edge">
<path fill="none" stroke="#cccccc" d="M528.907,-124.976C592.831,-122.331 720.816,-112.95 748.373,-80 759.354,-66.8703 756.949,-46.8296 752.79,-31.9014"/>
<polygon fill="#cccccc" stroke="#cccccc" points="756.029,-30.542 749.618,-22.1069 749.369,-32.6988 756.029,-30.542"/>
</g>
<!-- UInt8 -->
<g id="node24" class="node">
<g id="a_node24"><a xlink:href="/swift-2/type/UInt8/" target="_top">
<polygon fill="#999999" stroke="#999999" points="844.373,-22 790.373,-22 790.373,-0 844.373,-0 844.373,-22"/>
<text text-anchor="middle" x="817.373" y="-7.4" font-family="Helvetica,sans-Serif" font-size="12.00" fill="white">UInt8</text>
</a>
</g>
</g>
<!-- IntegerType&#45;&gt;UInt8 -->
<g id="edge11" class="edge">
<path fill="none" stroke="#cccccc" d="M528.786,-123.242C593.869,-117.769 727.026,-103.952 766.373,-80 785.476,-68.3716 799.835,-46.6808 808.371,-30.9162"/>
<polygon fill="#cccccc" stroke="#cccccc" points="811.489,-32.5064 812.925,-22.0092 805.256,-29.32 811.489,-32.5064"/>
</g>
<!-- UnsignedIntegerType -->
<g id="node25" class="node">
<g id="a_node25"><a xlink:href="/swift-2/protocol/UnsignedIntegerType/" target="_top">
<path fill="#999999" stroke="#999999" d="M732.102,-80C732.102,-80 622.645,-80 622.645,-80 618.979,-80 615.312,-76.3333 615.312,-72.6667 615.312,-72.6667 615.312,-65.3333 615.312,-65.3333 615.312,-61.6667 618.979,-58 622.645,-58 622.645,-58 732.102,-58 732.102,-58 735.768,-58 739.435,-61.6667 739.435,-65.3333 739.435,-65.3333 739.435,-72.6667 739.435,-72.6667 739.435,-76.3333 735.768,-80 732.102,-80"/>
<text text-anchor="middle" x="677.373" y="-65.4" font-family="Helvetica,sans-Serif" font-size="12.00" fill="white">UnsignedIntegerType</text>
</a>
</g>
</g>
<!-- IntegerType&#45;&gt;UnsignedIntegerType -->
<g id="edge12" class="edge">
<path fill="none" stroke="#cccccc" d="M525.448,-115.988C555.87,-106.779 601.165,-93.0685 634.383,-83.0134"/>
<polygon fill="#cccccc" stroke="#cccccc" points="635.717,-86.2664 644.274,-80.0192 633.689,-79.5666 635.717,-86.2664"/>
</g>
<!-- RandomAccessIndexType&#45;&gt;IntegerType -->
<g id="edge25" class="edge">
<path fill="none" stroke="#cccccc" d="M617.199,-173.988C592.634,-164.938 556.268,-151.54 529.116,-141.537"/>
<polygon fill="#cccccc" stroke="#cccccc" points="530.162,-138.192 519.569,-138.019 527.742,-144.761 530.162,-138.192"/>
</g>
<!-- SignedIntegerType&#45;&gt;Int -->
<g id="edge14" class="edge">
<path fill="none" stroke="#cccccc" d="M299.948,-57.9668C257.709,-49.6613 196.587,-37.1463 134.433,-22.1494"/>
<polygon fill="#cccccc" stroke="#cccccc" points="134.996,-18.6843 124.452,-19.7215 133.341,-25.4859 134.996,-18.6843"/>
</g>
<!-- SignedIntegerType&#45;&gt;Int16 -->
<g id="edge15" class="edge">
<path fill="none" stroke="#cccccc" d="M332.529,-57.9883C315.273,-49.2827 290.043,-36.5539 270.498,-26.6937"/>
<polygon fill="#cccccc" stroke="#cccccc" points="271.925,-23.4933 261.42,-22.1138 268.772,-29.743 271.925,-23.4933"/>
</g>
<!-- SignedIntegerType&#45;&gt;Int32 -->
<g id="edge16" class="edge">
<path fill="none" stroke="#cccccc" d="M345.401,-57.9883C340.143,-50.4379 332.777,-39.8611 326.434,-30.7543"/>
<polygon fill="#cccccc" stroke="#cccccc" points="329.136,-28.5097 320.549,-22.3039 323.392,-32.5102 329.136,-28.5097"/>
</g>
<!-- SignedIntegerType&#45;&gt;Int64 -->
<g id="edge17" class="edge">
<path fill="none" stroke="#cccccc" d="M358.273,-57.9883C362.676,-50.5165 368.826,-40.0812 374.154,-31.0393"/>
<polygon fill="#cccccc" stroke="#cccccc" points="377.24,-32.6962 379.302,-22.3039 371.209,-29.1423 377.24,-32.6962"/>
</g>
<!-- SignedIntegerType&#45;&gt;Int8 -->
<g id="edge18" class="edge">
<path fill="none" stroke="#cccccc" d="M371.145,-57.9883C387.394,-49.3223 411.118,-36.6696 429.57,-26.8283"/>
<polygon fill="#cccccc" stroke="#cccccc" points="431.234,-29.908 438.41,-22.1138 427.939,-23.7315 431.234,-29.908"/>
</g>
<!-- Strideable&#45;&gt;RandomAccessIndexType -->
<g id="edge38" class="edge">
<path fill="none" stroke="#cccccc" d="M829.302,-289.691C828.626,-274.852 825.146,-247.551 809.373,-232 787.968,-210.895 757.741,-199.285 728.998,-192.963"/>
<polygon fill="#cccccc" stroke="#cccccc" points="729.402,-189.474 718.909,-190.94 728.026,-196.337 729.402,-189.474"/>
</g>
<!-- UnsignedIntegerType&#45;&gt;UInt -->
<g id="edge19" class="edge">
<path fill="none" stroke="#cccccc" d="M650.914,-57.9883C627.174,-49.0057 592.114,-35.7398 565.743,-25.7614"/>
<polygon fill="#cccccc" stroke="#cccccc" points="566.694,-22.3793 556.103,-22.1138 564.217,-28.9263 566.694,-22.3793"/>
</g>
<!-- UnsignedIntegerType&#45;&gt;UInt16 -->
<g id="edge20" class="edge">
<path fill="none" stroke="#cccccc" d="M663.786,-57.9883C652.508,-49.6784 636.256,-37.7028 623.163,-28.0554"/>
<polygon fill="#cccccc" stroke="#cccccc" points="625.226,-25.2281 615.099,-22.1138 621.074,-30.8635 625.226,-25.2281"/>
</g>
<!-- UnsignedIntegerType&#45;&gt;UInt32 -->
<g id="edge21" class="edge">
<path fill="none" stroke="#cccccc" d="M676.658,-57.9883C676.153,-50.9098 675.457,-41.1714 674.836,-32.4779"/>
<polygon fill="#cccccc" stroke="#cccccc" points="678.313,-32.0291 674.109,-22.3039 671.331,-32.5279 678.313,-32.0291"/>
</g>
<!-- UnsignedIntegerType&#45;&gt;UInt64 -->
<g id="edge22" class="edge">
<path fill="none" stroke="#cccccc" d="M689.531,-57.9883C699.367,-49.8873 713.435,-38.3026 724.989,-28.7873"/>
<polygon fill="#cccccc" stroke="#cccccc" points="727.367,-31.3627 732.862,-22.3039 722.917,-25.9592 727.367,-31.3627"/>
</g>
<!-- UnsignedIntegerType&#45;&gt;UInt8 -->
<g id="edge23" class="edge">
<path fill="none" stroke="#cccccc" d="M702.403,-57.9883C724.76,-49.0453 757.732,-35.8566 782.64,-25.8935"/>
<polygon fill="#cccccc" stroke="#cccccc" points="784.104,-29.0775 792.089,-22.1138 781.504,-22.5781 784.104,-29.0775"/>
</g>
<!-- _Incrementable&#45;&gt;ForwardIndexType -->
<g id="edge41" class="edge">
<path fill="none" stroke="#cccccc" d="M370.962,-347.988C414.071,-338.521 478.844,-324.297 524.924,-314.177"/>
<polygon fill="#cccccc" stroke="#cccccc" points="525.734,-317.583 534.75,-312.019 524.232,-310.746 525.734,-317.583"/>
</g>
<!-- _Incrementable&#45;&gt;_IntegerType -->
<g id="edge31" class="edge">
<path fill="none" stroke="#cccccc" d="M279.196,-354.574C250.25,-349.759 215.008,-338.428 196.373,-312 180.594,-289.62 210.691,-270.237 238.567,-257.955"/>
<polygon fill="#cccccc" stroke="#cccccc" points="239.99,-261.154 247.866,-254.068 237.29,-254.695 239.99,-261.154"/>
</g>
<!-- _IntegerArithmeticType -->
<g id="node27" class="node">
<g id="a_node27"><a xlink:href="/swift-2/protocol/_IntegerArithmeticType/" target="_top">
<path fill="#999999" stroke="#999999" d="M664.589,-370C664.589,-370 546.158,-370 546.158,-370 542.492,-370 538.825,-366.333 538.825,-362.667 538.825,-362.667 538.825,-355.333 538.825,-355.333 538.825,-351.667 542.492,-348 546.158,-348 546.158,-348 664.589,-348 664.589,-348 668.255,-348 671.922,-351.667 671.922,-355.333 671.922,-355.333 671.922,-362.667 671.922,-362.667 671.922,-366.333 668.255,-370 664.589,-370"/>
<text text-anchor="middle" x="605.373" y="-355.4" font-family="Helvetica,sans-Serif" font-size="12.00" fill="white">_IntegerArithmeticType</text>
</a>
</g>
</g>
<!-- _IntegerArithmeticType&#45;&gt;IntegerArithmeticType -->
<g id="edge33" class="edge">
<path fill="none" stroke="#cccccc" d="M625.218,-347.988C642.474,-339.283 667.704,-326.554 687.249,-316.694"/>
<polygon fill="#cccccc" stroke="#cccccc" points="688.975,-319.743 696.326,-312.114 685.822,-313.493 688.975,-319.743"/>
</g>
<!-- _IntegerType&#45;&gt;IntegerType -->
<g id="edge24" class="edge">
<path fill="none" stroke="#cccccc" d="M296.453,-231.883C334.464,-211.729 419.797,-166.482 464.247,-142.914"/>
<polygon fill="#cccccc" stroke="#cccccc" points="466.141,-145.871 473.336,-138.094 462.862,-139.686 466.141,-145.871"/>
</g>
<!-- _RandomAccessAmbiguity -->
<g id="node29" class="node">
<g id="a_node29"><a xlink:href="/swift-2/protocol/_RandomAccessAmbiguity/" target="_top">
<path fill="#999999" stroke="#999999" d="M793.587,-254C793.587,-254 655.16,-254 655.16,-254 651.493,-254 647.827,-250.333 647.827,-246.667 647.827,-246.667 647.827,-239.333 647.827,-239.333 647.827,-235.667 651.493,-232 655.16,-232 655.16,-232 793.587,-232 793.587,-232 797.254,-232 800.92,-235.667 800.92,-239.333 800.92,-239.333 800.92,-246.667 800.92,-246.667 800.92,-250.333 797.254,-254 793.587,-254"/>
<text text-anchor="middle" x="724.373" y="-239.4" font-family="Helvetica,sans-Serif" font-size="12.00" fill="white">_RandomAccessAmbiguity</text>
</a>
</g>
</g>
<!-- _RandomAccessAmbiguity&#45;&gt;RandomAccessIndexType -->
<g id="edge39" class="edge">
<path fill="none" stroke="#cccccc" d="M710.071,-231.988C698.2,-223.678 681.092,-211.703 667.31,-202.055"/>
<polygon fill="#cccccc" stroke="#cccccc" points="669.021,-198.981 658.822,-196.114 665.007,-204.716 669.021,-198.981"/>
</g>
<!-- _Strideable -->
<g id="node30" class="node">
<g id="a_node30"><a xlink:href="/swift-2/protocol/_Strideable/" target="_top">
<path fill="#999999" stroke="#999999" d="M857.073,-370C857.073,-370 801.674,-370 801.674,-370 798.007,-370 794.34,-366.333 794.34,-362.667 794.34,-362.667 794.34,-355.333 794.34,-355.333 794.34,-351.667 798.007,-348 801.674,-348 801.674,-348 857.073,-348 857.073,-348 860.74,-348 864.407,-351.667 864.407,-355.333 864.407,-355.333 864.407,-362.667 864.407,-362.667 864.407,-366.333 860.74,-370 857.073,-370"/>
<text text-anchor="middle" x="829.373" y="-355.4" font-family="Helvetica,sans-Serif" font-size="12.00" fill="white">_Strideable</text>
</a>
</g>
</g>
<!-- _Strideable&#45;&gt;Strideable -->
<g id="edge43" class="edge">
<path fill="none" stroke="#cccccc" d="M829.373,-347.988C829.373,-340.91 829.373,-331.171 829.373,-322.478"/>
<polygon fill="#cccccc" stroke="#cccccc" points="832.874,-322.304 829.373,-312.304 825.874,-322.304 832.874,-322.304"/>
</g>
</g>
</svg>
