<?xml version="1.0" encoding="UTF-8" standalone="no"?>
<!DOCTYPE svg PUBLIC "-//W3C//DTD SVG 1.1//EN"
 "http://www.w3.org/Graphics/SVG/1.1/DTD/svg11.dtd">
<!-- Generated by graphviz version 2.36.0 (20140111.2315)
 -->
<!-- Title: Int &#45; Type Hierarchy &#45; SwiftDoc.org Pages: 1 -->
<svg width="1374pt" height="543pt"
 viewBox="0.00 0.00 1374.40 543.20" xmlns="http://www.w3.org/2000/svg" xmlns:xlink="http://www.w3.org/1999/xlink">
<g id="graph0" class="graph" transform="scale(1 1) rotate(0) translate(7.2 485.6)">
<g transform="translate(0 -485.6)">
<g>
    <path fill="#666666" d="M13.846,10.832c-0.336-0.464-0.792-0.844-1.368-1.14s-1.224-0.444-1.944-0.444
        c-0.384,0-0.772,0.052-1.164,0.156C8.977,9.509,8.622,9.677,8.301,9.908c-0.32,0.232-0.58,0.52-0.78,0.864
        c-0.2,0.344-0.3,0.756-0.3,1.236c0,0.464,0.092,0.852,0.276,1.164c0.184,0.312,0.432,0.576,0.744,0.792s0.68,0.4,1.104,0.552
        c0.423,0.152,0.876,0.309,1.356,0.468c0.576,0.177,1.16,0.376,1.752,0.601c0.592,0.224,1.128,0.52,1.608,0.888
        s0.872,0.828,1.176,1.38s0.456,1.252,0.456,2.101c0,0.88-0.164,1.644-0.492,2.292c-0.328,0.647-0.765,1.184-1.308,1.607
        c-0.544,0.424-1.172,0.74-1.884,0.948s-1.444,0.312-2.196,0.312c-1.072,0-2.108-0.208-3.108-0.624
        c-1-0.415-1.828-1.031-2.484-1.848l1.848-1.56c0.4,0.592,0.936,1.071,1.608,1.439c0.672,0.368,1.399,0.552,2.184,0.552
        c0.4,0,0.8-0.056,1.2-0.168c0.4-0.111,0.764-0.288,1.092-0.527c0.328-0.24,0.596-0.54,0.804-0.9
        c0.208-0.36,0.312-0.796,0.312-1.308s-0.108-0.94-0.324-1.284c-0.216-0.344-0.508-0.636-0.876-0.876s-0.796-0.444-1.284-0.612
        c-0.488-0.168-1.004-0.34-1.548-0.516c-0.544-0.16-1.08-0.356-1.608-0.588c-0.528-0.232-1-0.528-1.416-0.889
        c-0.416-0.359-0.752-0.804-1.008-1.332c-0.256-0.527-0.384-1.184-0.384-1.968c0-0.848,0.172-1.576,0.516-2.184
        c0.344-0.608,0.792-1.112,1.344-1.512c0.552-0.4,1.176-0.692,1.872-0.876c0.696-0.184,1.396-0.276,2.1-0.276
        c0.992,0,1.92,0.176,2.784,0.528c0.864,0.352,1.56,0.824,2.088,1.416L13.846,10.832z"/>
    <path fill="#666666" d="M18.813,13.304l2.568,8.688h0.048l2.712-8.688h2.376l2.76,8.688h0.048l2.568-8.688h2.376L30.501,24.68
        h-2.352l-2.808-8.544h-0.048l-2.784,8.544h-2.352l-3.792-11.376H18.813z"/>
    <path fill="#666666" d="M38.685,9.2c0,0.416-0.147,0.76-0.44,1.032c-0.294,0.272-0.647,0.408-1.06,0.408s-0.762-0.14-1.047-0.42
        c-0.286-0.28-0.429-0.62-0.429-1.02c0-0.416,0.143-0.764,0.429-1.044c0.286-0.28,0.635-0.42,1.047-0.42s0.766,0.14,1.06,0.42
        C38.538,8.437,38.685,8.784,38.685,9.2z M38.325,24.68h-2.256V13.304h2.256V24.68z"/>
    <path fill="#666666" d="M47.613,15.152h-2.64v9.528h-2.256v-9.528h-2.256v-1.848h2.256v-2.376c0-0.672,0.076-1.292,0.228-1.86
        c0.152-0.568,0.4-1.06,0.744-1.476c0.344-0.416,0.784-0.744,1.32-0.984c0.536-0.24,1.188-0.36,1.956-0.36
        c0.544,0,1.016,0.056,1.416,0.168l-0.264,1.944c-0.176-0.048-0.352-0.088-0.528-0.12c-0.176-0.032-0.376-0.048-0.6-0.048
        c-0.432,0-0.78,0.076-1.044,0.228c-0.264,0.152-0.468,0.356-0.612,0.612s-0.24,0.548-0.288,0.876
        c-0.048,0.328-0.072,0.668-0.072,1.02v2.376h2.64V15.152z"/>
    <path fill="#666666" d="M54.909,15.152h-3.024v5.91c0,0.687,0.128,1.177,0.384,1.472c0.256,0.295,0.664,0.442,1.224,0.442
        c0.208,0,0.432-0.021,0.672-0.065c0.24-0.044,0.456-0.11,0.648-0.198l0.072,1.848c-0.272,0.096-0.572,0.172-0.9,0.229
        c-0.328,0.056-0.668,0.084-1.02,0.084c-1.072,0-1.892-0.296-2.46-0.889c-0.568-0.592-0.852-1.479-0.852-2.664v-6.168h-2.184
        v-1.848h2.184V10.04h2.232v3.264h3.024V15.152z"/>
    <path fill="#666666" d="M57.356,7.688h5.832c1.088,0,2.176,0.16,3.264,0.48c1.088,0.32,2.072,0.824,2.952,1.512
        s1.592,1.568,2.136,2.64c0.544,1.072,0.816,2.36,0.816,3.864c0,1.456-0.272,2.716-0.816,3.78s-1.256,1.943-2.136,2.64
        s-1.864,1.216-2.952,1.561c-1.088,0.344-2.176,0.516-3.264,0.516h-5.832V7.688z M59.732,22.593h2.976
        c1.024,0,1.972-0.145,2.844-0.432c0.872-0.288,1.624-0.704,2.256-1.248c0.632-0.544,1.124-1.216,1.476-2.017
        c0.352-0.8,0.528-1.704,0.528-2.712c0-1.056-0.176-1.983-0.528-2.784c-0.353-0.8-0.844-1.468-1.476-2.004
        c-0.632-0.536-1.384-0.944-2.256-1.224s-1.82-0.42-2.844-0.42h-2.976V22.593z"/>
    <path fill="#666666" d="M86.06,18.969c0,0.88-0.156,1.688-0.468,2.424c-0.312,0.736-0.744,1.372-1.296,1.908
        c-0.552,0.536-1.204,0.952-1.956,1.248c-0.752,0.296-1.56,0.443-2.424,0.443c-0.864,0-1.672-0.147-2.424-0.443
        c-0.752-0.296-1.4-0.712-1.944-1.248c-0.544-0.536-0.972-1.172-1.284-1.908c-0.312-0.735-0.468-1.544-0.468-2.424
        s0.156-1.684,0.468-2.412c0.312-0.728,0.74-1.356,1.284-1.884c0.543-0.528,1.191-0.939,1.944-1.236
        c0.752-0.296,1.56-0.444,2.424-0.444c0.864,0,1.672,0.148,2.424,0.444c0.752,0.297,1.404,0.708,1.956,1.236
        c0.552,0.527,0.984,1.156,1.296,1.884C85.904,17.285,86.06,18.089,86.06,18.969z M83.708,18.98c0-0.542-0.084-1.061-0.252-1.556
        c-0.169-0.494-0.414-0.929-0.734-1.304s-0.718-0.674-1.192-0.897s-1.015-0.335-1.625-0.335c-0.61,0-1.152,0.111-1.625,0.335
        c-0.474,0.224-0.871,0.522-1.191,0.897c-0.321,0.375-0.566,0.81-0.734,1.304C76.184,17.92,76.1,18.438,76.1,18.98
        c0,0.543,0.084,1.062,0.253,1.556c0.168,0.495,0.413,0.934,0.734,1.316c0.321,0.383,0.718,0.686,1.191,0.909
        c0.473,0.224,1.015,0.335,1.625,0.335c0.61,0,1.151-0.111,1.625-0.335s0.871-0.526,1.192-0.909s0.565-0.821,0.734-1.316
        C83.624,20.042,83.708,19.523,83.708,18.98z"/>
    <path fill="#666666" d="M96.428,16.184c-0.24-0.368-0.6-0.676-1.08-0.924s-0.992-0.372-1.536-0.372
        c-0.592,0-1.116,0.112-1.572,0.336c-0.456,0.225-0.844,0.524-1.164,0.9c-0.32,0.376-0.564,0.812-0.732,1.308
        s-0.252,1.017-0.252,1.56c0,0.545,0.084,1.064,0.252,1.561s0.412,0.933,0.732,1.308c0.32,0.376,0.712,0.677,1.176,0.9
        c0.464,0.225,0.992,0.336,1.584,0.336c0.576,0,1.1-0.111,1.572-0.336c0.472-0.224,0.86-0.528,1.164-0.912l1.512,1.368
        c-0.48,0.561-1.08,0.996-1.8,1.308c-0.72,0.312-1.536,0.468-2.448,0.468c-0.88,0-1.692-0.144-2.436-0.432
        c-0.744-0.288-1.388-0.691-1.932-1.212c-0.544-0.52-0.972-1.147-1.284-1.884s-0.468-1.561-0.468-2.473
        c0-0.896,0.152-1.711,0.456-2.447c0.304-0.736,0.728-1.368,1.272-1.896c0.543-0.527,1.188-0.936,1.932-1.224
        c0.744-0.288,1.548-0.433,2.412-0.433c0.8,0,1.596,0.16,2.388,0.48s1.419,0.784,1.884,1.392L96.428,16.184z"/>
    <path fill="#666666" d="M103.1,23.24c0,0.417-0.152,0.784-0.456,1.104c-0.304,0.32-0.688,0.479-1.152,0.479
        c-0.448,0-0.828-0.155-1.14-0.468c-0.312-0.312-0.468-0.676-0.468-1.092c0-0.432,0.152-0.804,0.456-1.116
        c0.304-0.312,0.688-0.468,1.152-0.468c0.464,0,0.848,0.152,1.152,0.456C102.947,22.44,103.1,22.808,103.1,23.24z"/>
    <path fill="#666666" d="M116.635,18.969c0,0.88-0.156,1.688-0.468,2.424c-0.312,0.736-0.744,1.372-1.296,1.908
        c-0.552,0.536-1.204,0.952-1.956,1.248c-0.752,0.296-1.56,0.443-2.424,0.443c-0.864,0-1.672-0.147-2.424-0.443
        c-0.752-0.296-1.4-0.712-1.944-1.248c-0.544-0.536-0.972-1.172-1.284-1.908c-0.312-0.735-0.468-1.544-0.468-2.424
        s0.156-1.684,0.468-2.412c0.312-0.728,0.74-1.356,1.284-1.884c0.543-0.528,1.191-0.939,1.944-1.236
        c0.752-0.296,1.56-0.444,2.424-0.444c0.864,0,1.672,0.148,2.424,0.444c0.752,0.297,1.404,0.708,1.956,1.236
        c0.552,0.527,0.984,1.156,1.296,1.884C116.479,17.285,116.635,18.089,116.635,18.969z M114.283,18.98
        c0-0.542-0.084-1.061-0.252-1.556c-0.169-0.494-0.414-0.929-0.734-1.304s-0.718-0.674-1.192-0.897s-1.015-0.335-1.625-0.335
        c-0.61,0-1.152,0.111-1.625,0.335c-0.474,0.224-0.871,0.522-1.191,0.897c-0.321,0.375-0.566,0.81-0.734,1.304
        c-0.169,0.495-0.253,1.014-0.253,1.556c0,0.543,0.084,1.062,0.253,1.556c0.168,0.495,0.413,0.934,0.734,1.316
        c0.321,0.383,0.718,0.686,1.191,0.909c0.473,0.224,1.015,0.335,1.625,0.335c0.61,0,1.151-0.111,1.625-0.335
        s0.871-0.526,1.192-0.909s0.565-0.821,0.734-1.316C114.199,20.042,114.283,19.523,114.283,18.98z"/>
    <path fill="#666666" d="M119.251,14.577c-0.016-0.48-0.04-0.904-0.072-1.272h2.136c0.032,0.288,0.056,0.62,0.072,0.996
        c0.016,0.376,0.024,0.684,0.024,0.924h0.072c0.32-0.672,0.788-1.212,1.404-1.62c0.616-0.408,1.308-0.612,2.076-0.612
        c0.352,0,0.648,0.033,0.888,0.097l-0.096,2.088c-0.32-0.08-0.664-0.12-1.032-0.12c-0.544,0-1.016,0.101-1.416,0.3
        c-0.4,0.2-0.732,0.468-0.996,0.805c-0.264,0.336-0.46,0.724-0.588,1.163c-0.128,0.44-0.192,0.9-0.192,1.381v5.976h-2.256v-8.928
        C119.275,15.449,119.267,15.056,119.251,14.577z"/>
    <path fill="#666666" d="M128.419,26.625c0.496,0.56,1.116,1.008,1.86,1.344c0.744,0.336,1.508,0.504,2.292,0.504
        c0.752,0,1.384-0.108,1.896-0.324s0.924-0.512,1.236-0.888s0.536-0.82,0.672-1.332c0.136-0.513,0.204-1.064,0.204-1.656v-1.464
        h-0.048c-0.416,0.641-0.984,1.128-1.704,1.464c-0.72,0.336-1.488,0.504-2.304,0.504c-0.864,0-1.652-0.151-2.364-0.456
        c-0.712-0.304-1.316-0.72-1.812-1.248c-0.496-0.527-0.88-1.147-1.152-1.859s-0.408-1.477-0.408-2.292
        c0-0.816,0.136-1.584,0.408-2.305c0.272-0.72,0.656-1.348,1.152-1.884c0.496-0.535,1.096-0.96,1.8-1.271
        c0.704-0.312,1.488-0.469,2.352-0.469c0.816,0,1.596,0.177,2.34,0.528c0.744,0.353,1.332,0.888,1.764,1.608h0.048v-1.824h2.184
        v10.8c0,0.832-0.104,1.628-0.312,2.388c-0.208,0.76-0.56,1.433-1.056,2.017s-1.144,1.052-1.944,1.404
        c-0.8,0.352-1.792,0.527-2.976,0.527c-0.992,0-1.988-0.18-2.988-0.54c-1-0.359-1.86-0.868-2.58-1.523L128.419,26.625z
         M129.091,18.873c0,0.527,0.084,1.031,0.253,1.512c0.168,0.479,0.417,0.904,0.746,1.271c0.329,0.369,0.726,0.664,1.192,0.889
        c0.465,0.224,0.995,0.336,1.589,0.336c0.577,0,1.107-0.104,1.589-0.312c0.481-0.207,0.891-0.491,1.228-0.852
        s0.598-0.784,0.782-1.272c0.185-0.487,0.277-1.012,0.277-1.571c0-0.544-0.093-1.057-0.277-1.536
        c-0.185-0.48-0.449-0.904-0.794-1.272c-0.345-0.367-0.755-0.66-1.228-0.876c-0.474-0.216-1-0.324-1.577-0.324
        c-0.594,0-1.124,0.108-1.589,0.324c-0.466,0.216-0.863,0.504-1.192,0.864s-0.578,0.784-0.746,1.271
        C129.175,17.812,129.091,18.329,129.091,18.873z"/>
</g>
<g><a xlink:href="/" pointer-events="all" target="_top"><polygon fill="none" points="0,0 145,0 145,35 0,35 0,0"/></a></g>

</g>


<!-- BidirectionalIndexType -->
<g id="node1" class="node">
<g id="a_node1"><a xlink:href="/swift-2/protocol/BidirectionalIndexType/" target="_top">
<path fill="#999999" stroke="#999999" d="M1324.73,-254C1324.73,-254 1209.27,-254 1209.27,-254 1205.61,-254 1201.94,-250.333 1201.94,-246.667 1201.94,-246.667 1201.94,-239.333 1201.94,-239.333 1201.94,-235.667 1205.61,-232 1209.27,-232 1209.27,-232 1324.73,-232 1324.73,-232 1328.39,-232 1332.06,-235.667 1332.06,-239.333 1332.06,-239.333 1332.06,-246.667 1332.06,-246.667 1332.06,-250.333 1328.39,-254 1324.73,-254"/>
<text text-anchor="middle" x="1267" y="-239.4" font-family="Helvetica,sans-Serif" font-size="12.00" fill="white">BidirectionalIndexType</text>
</a>
</g>
</g>
<!-- Int -->
<g id="node10" class="node">
<g id="a_node10"><a xlink:href="/swift-2/type/Int/" target="_top">
<polygon fill="#ee543d" stroke="#ee543d" points="721,-22 667,-22 667,-0 721,-0 721,-22"/>
<text text-anchor="middle" x="694" y="-7.4" font-family="Helvetica,sans-Serif" font-size="12.00" fill="white">Int</text>
</a>
</g>
</g>
<!-- BidirectionalIndexType&#45;&gt;Int -->
<g id="edge13" class="edge">
<path fill="none" stroke="#cccccc" d="M1272.7,-231.966C1289.3,-201.269 1333.59,-107.698 1287,-58 1246.28,-14.5661 826.799,-30.8889 731.559,-21.5443"/>
<polygon fill="#cccccc" stroke="#cccccc" points="731.751,-18.0402 721.386,-20.2349 730.857,-24.9829 731.751,-18.0402"/>
</g>
<!-- RandomAccessIndexType -->
<g id="node15" class="node">
<g id="a_node15"><a xlink:href="/swift-2/protocol/RandomAccessIndexType/" target="_top">
<path fill="#999999" stroke="#999999" d="M1052.23,-196C1052.23,-196 917.775,-196 917.775,-196 914.108,-196 910.441,-192.333 910.441,-188.667 910.441,-188.667 910.441,-181.333 910.441,-181.333 910.441,-177.667 914.108,-174 917.775,-174 917.775,-174 1052.23,-174 1052.23,-174 1055.89,-174 1059.56,-177.667 1059.56,-181.333 1059.56,-181.333 1059.56,-188.667 1059.56,-188.667 1059.56,-192.333 1055.89,-196 1052.23,-196"/>
<text text-anchor="middle" x="985" y="-181.4" font-family="Helvetica,sans-Serif" font-size="12.00" fill="white">RandomAccessIndexType</text>
</a>
</g>
</g>
<!-- BidirectionalIndexType&#45;&gt;RandomAccessIndexType -->
<g id="edge42" class="edge">
<path fill="none" stroke="#cccccc" d="M1216.58,-231.988C1168.61,-222.462 1096.38,-208.118 1045.36,-197.987"/>
<polygon fill="#cccccc" stroke="#cccccc" points="1045.94,-194.534 1035.45,-196.019 1044.58,-201.4 1045.94,-194.534"/>
</g>
<!-- Bit -->
<g id="node2" class="node">
<g id="a_node2"><a xlink:href="/swift-2/type/Bit/" target="_top">
<polygon fill="#999999" stroke="#999999" points="793,-22 739,-22 739,-0 793,-0 793,-22"/>
<text text-anchor="middle" x="766" y="-7.4" font-family="Helvetica,sans-Serif" font-size="12.00" fill="white">Bit</text>
</a>
</g>
</g>
<!-- BitwiseOperationsType -->
<g id="node3" class="node">
<g id="a_node3"><a xlink:href="/swift-2/protocol/BitwiseOperationsType/" target="_top">
<path fill="#999999" stroke="#999999" d="M152.715,-254C152.715,-254 35.2848,-254 35.2848,-254 31.6182,-254 27.9515,-250.333 27.9515,-246.667 27.9515,-246.667 27.9515,-239.333 27.9515,-239.333 27.9515,-235.667 31.6182,-232 35.2848,-232 35.2848,-232 152.715,-232 152.715,-232 156.382,-232 160.048,-235.667 160.048,-239.333 160.048,-239.333 160.048,-246.667 160.048,-246.667 160.048,-250.333 156.382,-254 152.715,-254"/>
<text text-anchor="middle" x="94" y="-239.4" font-family="Helvetica,sans-Serif" font-size="12.00" fill="white">BitwiseOperationsType</text>
</a>
</g>
</g>
<!-- BitwiseOperationsType&#45;&gt;Int -->
<g id="edge21" class="edge">
<path fill="none" stroke="#cccccc" d="M90.4529,-231.882C80.3203,-200.941 54.892,-106.742 102,-58 140.548,-18.1152 532.721,-12.7811 656.666,-12.0937"/>
<polygon fill="#cccccc" stroke="#cccccc" points="656.821,-15.5931 666.804,-12.0447 656.787,-8.59315 656.821,-15.5931"/>
</g>
<!-- _IntegerType -->
<g id="node21" class="node">
<g id="a_node21"><a xlink:href="/swift-2/protocol/_IntegerType/" target="_top">
<path fill="#999999" stroke="#999999" d="M450.708,-196C450.708,-196 385.292,-196 385.292,-196 381.626,-196 377.959,-192.333 377.959,-188.667 377.959,-188.667 377.959,-181.333 377.959,-181.333 377.959,-177.667 381.626,-174 385.292,-174 385.292,-174 450.708,-174 450.708,-174 454.374,-174 458.041,-177.667 458.041,-181.333 458.041,-181.333 458.041,-188.667 458.041,-188.667 458.041,-192.333 454.374,-196 450.708,-196"/>
<text text-anchor="middle" x="418" y="-181.4" font-family="Helvetica,sans-Serif" font-size="12.00" fill="white">_IntegerType</text>
</a>
</g>
</g>
<!-- BitwiseOperationsType&#45;&gt;_IntegerType -->
<g id="edge31" class="edge">
<path fill="none" stroke="#cccccc" d="M151.925,-231.988C213.397,-221.364 309.54,-204.746 367.869,-194.665"/>
<polygon fill="#cccccc" stroke="#cccccc" points="368.694,-198.074 377.951,-192.922 367.501,-191.176 368.694,-198.074"/>
</g>
<!-- CVarArgType -->
<g id="node4" class="node">
<g id="a_node4"><a xlink:href="/swift-2/protocol/CVarArgType/" target="_top">
<path fill="#999999" stroke="#999999" d="M185.029,-80C185.029,-80 118.971,-80 118.971,-80 115.304,-80 111.638,-76.3333 111.638,-72.6667 111.638,-72.6667 111.638,-65.3333 111.638,-65.3333 111.638,-61.6667 115.304,-58 118.971,-58 118.971,-58 185.029,-58 185.029,-58 188.696,-58 192.362,-61.6667 192.362,-65.3333 192.362,-65.3333 192.362,-72.6667 192.362,-72.6667 192.362,-76.3333 188.696,-80 185.029,-80"/>
<text text-anchor="middle" x="152" y="-65.4" font-family="Helvetica,sans-Serif" font-size="12.00" fill="white">CVarArgType</text>
</a>
</g>
</g>
<!-- CVarArgType&#45;&gt;Int -->
<g id="edge24" class="edge">
<path fill="none" stroke="#cccccc" d="M192.486,-60.2329C197.366,-59.4168 202.289,-58.6495 207,-58 374.067,-34.965 574.987,-19.9874 656.709,-14.4276"/>
<polygon fill="#cccccc" stroke="#cccccc" points="657.239,-17.8999 666.981,-13.7359 656.769,-10.9158 657.239,-17.8999"/>
</g>
<!-- Comparable -->
<g id="node5" class="node">
<g id="a_node5"><a xlink:href="/swift-2/protocol/Comparable/" target="_top">
<path fill="#999999" stroke="#999999" d="M692.191,-312C692.191,-312 631.809,-312 631.809,-312 628.142,-312 624.475,-308.333 624.475,-304.667 624.475,-304.667 624.475,-297.333 624.475,-297.333 624.475,-293.667 628.142,-290 631.809,-290 631.809,-290 692.191,-290 692.191,-290 695.858,-290 699.525,-293.667 699.525,-297.333 699.525,-297.333 699.525,-304.667 699.525,-304.667 699.525,-308.333 695.858,-312 692.191,-312"/>
<text text-anchor="middle" x="662" y="-297.4" font-family="Helvetica,sans-Serif" font-size="12.00" fill="white">Comparable</text>
</a>
</g>
</g>
<!-- Comparable&#45;&gt;Int -->
<g id="edge4" class="edge">
<path fill="none" stroke="#cccccc" d="M624.435,-299.03C520.481,-295.96 234.819,-284.774 207,-254 133.8,-173.026 258.078,-108.211 355,-58 407.005,-31.0589 580.085,-18.3268 656.82,-13.9005"/>
<polygon fill="#cccccc" stroke="#cccccc" points="657.197,-17.385 666.985,-13.3305 656.805,-10.396 657.197,-17.385"/>
</g>
<!-- IntegerArithmeticType -->
<g id="node11" class="node">
<g id="a_node11"><a xlink:href="/swift-2/protocol/IntegerArithmeticType/" target="_top">
<path fill="#999999" stroke="#999999" d="M808.711,-254C808.711,-254 697.289,-254 697.289,-254 693.623,-254 689.956,-250.333 689.956,-246.667 689.956,-246.667 689.956,-239.333 689.956,-239.333 689.956,-235.667 693.623,-232 697.289,-232 697.289,-232 808.711,-232 808.711,-232 812.377,-232 816.044,-235.667 816.044,-239.333 816.044,-239.333 816.044,-246.667 816.044,-246.667 816.044,-250.333 812.377,-254 808.711,-254"/>
<text text-anchor="middle" x="753" y="-239.4" font-family="Helvetica,sans-Serif" font-size="12.00" fill="white">IntegerArithmeticType</text>
</a>
</g>
</g>
<!-- Comparable&#45;&gt;IntegerArithmeticType -->
<g id="edge35" class="edge">
<path fill="none" stroke="#cccccc" d="M678.269,-289.988C692.03,-281.52 711.977,-269.245 727.802,-259.507"/>
<polygon fill="#cccccc" stroke="#cccccc" points="729.883,-262.336 736.565,-254.114 726.214,-256.374 729.883,-262.336"/>
</g>
<!-- SignedNumberType -->
<g id="node17" class="node">
<g id="a_node17"><a xlink:href="/swift-2/protocol/SignedNumberType/" target="_top">
<path fill="#999999" stroke="#999999" d="M584.716,-196C584.716,-196 483.284,-196 483.284,-196 479.617,-196 475.95,-192.333 475.95,-188.667 475.95,-188.667 475.95,-181.333 475.95,-181.333 475.95,-177.667 479.617,-174 483.284,-174 483.284,-174 584.716,-174 584.716,-174 588.383,-174 592.05,-177.667 592.05,-181.333 592.05,-181.333 592.05,-188.667 592.05,-188.667 592.05,-192.333 588.383,-196 584.716,-196"/>
<text text-anchor="middle" x="534" y="-181.4" font-family="Helvetica,sans-Serif" font-size="12.00" fill="white">SignedNumberType</text>
</a>
</g>
</g>
<!-- Comparable&#45;&gt;SignedNumberType -->
<g id="edge38" class="edge">
<path fill="none" stroke="#cccccc" d="M661.826,-289.957C661.051,-275.45 657.581,-248.559 643,-232 629.476,-216.641 609.969,-206.27 591.184,-199.33"/>
<polygon fill="#cccccc" stroke="#cccccc" points="592.056,-195.93 581.462,-196.006 589.792,-202.553 592.056,-195.93"/>
</g>
<!-- Strideable -->
<g id="node18" class="node">
<g id="a_node18"><a xlink:href="/swift-2/protocol/Strideable/" target="_top">
<path fill="#999999" stroke="#999999" d="M928.693,-254C928.693,-254 879.307,-254 879.307,-254 875.64,-254 871.974,-250.333 871.974,-246.667 871.974,-246.667 871.974,-239.333 871.974,-239.333 871.974,-235.667 875.64,-232 879.307,-232 879.307,-232 928.693,-232 928.693,-232 932.36,-232 936.026,-235.667 936.026,-239.333 936.026,-239.333 936.026,-246.667 936.026,-246.667 936.026,-250.333 932.36,-254 928.693,-254"/>
<text text-anchor="middle" x="904" y="-239.4" font-family="Helvetica,sans-Serif" font-size="12.00" fill="white">Strideable</text>
</a>
</g>
</g>
<!-- Comparable&#45;&gt;Strideable -->
<g id="edge47" class="edge">
<path fill="none" stroke="#cccccc" d="M699.547,-291.311C743.487,-281.144 816.052,-264.352 861.874,-253.748"/>
<polygon fill="#cccccc" stroke="#cccccc" points="862.835,-257.118 871.788,-251.454 861.256,-250.299 862.835,-257.118"/>
</g>
<!-- CustomStringConvertible -->
<g id="node6" class="node">
<g id="a_node6"><a xlink:href="/swift-2/protocol/CustomStringConvertible/" target="_top">
<path fill="#999999" stroke="#999999" d="M430.208,-254C430.208,-254 301.792,-254 301.792,-254 298.126,-254 294.459,-250.333 294.459,-246.667 294.459,-246.667 294.459,-239.333 294.459,-239.333 294.459,-235.667 298.126,-232 301.792,-232 301.792,-232 430.208,-232 430.208,-232 433.874,-232 437.541,-235.667 437.541,-239.333 437.541,-239.333 437.541,-246.667 437.541,-246.667 437.541,-250.333 433.874,-254 430.208,-254"/>
<text text-anchor="middle" x="366" y="-239.4" font-family="Helvetica,sans-Serif" font-size="12.00" fill="white">CustomStringConvertible</text>
</a>
</g>
</g>
<!-- CustomStringConvertible&#45;&gt;Int -->
<g id="edge18" class="edge">
<path fill="none" stroke="#cccccc" d="M364.706,-231.977C361.269,-200.49 355.529,-102.982 409,-58 445.861,-26.9915 588.043,-16.6148 656.605,-13.3689"/>
<polygon fill="#cccccc" stroke="#cccccc" points="657.115,-16.8497 666.949,-12.9072 656.803,-9.85671 657.115,-16.8497"/>
</g>
<!-- CustomStringConvertible&#45;&gt;_IntegerType -->
<g id="edge28" class="edge">
<path fill="none" stroke="#cccccc" d="M375.297,-231.988C382.527,-224.202 392.746,-213.197 401.374,-203.905"/>
<polygon fill="#cccccc" stroke="#cccccc" points="404.192,-206.013 408.432,-196.304 399.063,-201.25 404.192,-206.013"/>
</g>
<!-- Equatable -->
<g id="node7" class="node">
<g id="a_node7"><a xlink:href="/swift-2/protocol/Equatable/" target="_top">
<path fill="#999999" stroke="#999999" d="M390.702,-428C390.702,-428 341.298,-428 341.298,-428 337.632,-428 333.965,-424.333 333.965,-420.667 333.965,-420.667 333.965,-413.333 333.965,-413.333 333.965,-409.667 337.632,-406 341.298,-406 341.298,-406 390.702,-406 390.702,-406 394.368,-406 398.035,-409.667 398.035,-413.333 398.035,-413.333 398.035,-420.667 398.035,-420.667 398.035,-424.333 394.368,-428 390.702,-428"/>
<text text-anchor="middle" x="366" y="-413.4" font-family="Helvetica,sans-Serif" font-size="12.00" fill="white">Equatable</text>
</a>
</g>
</g>
<!-- Equatable&#45;&gt;Comparable -->
<g id="edge36" class="edge">
<path fill="none" stroke="#cccccc" d="M392.009,-405.983C445.061,-385.551 565.838,-339.036 626.23,-315.776"/>
<polygon fill="#cccccc" stroke="#cccccc" points="627.659,-318.977 635.732,-312.117 625.143,-312.444 627.659,-318.977"/>
</g>
<!-- Hashable -->
<g id="node9" class="node">
<g id="a_node9"><a xlink:href="/swift-2/protocol/Hashable/" target="_top">
<path fill="#999999" stroke="#999999" d="M268.694,-254C268.694,-254 223.306,-254 223.306,-254 219.639,-254 215.973,-250.333 215.973,-246.667 215.973,-246.667 215.973,-239.333 215.973,-239.333 215.973,-235.667 219.639,-232 223.306,-232 223.306,-232 268.694,-232 268.694,-232 272.361,-232 276.027,-235.667 276.027,-239.333 276.027,-239.333 276.027,-246.667 276.027,-246.667 276.027,-250.333 272.361,-254 268.694,-254"/>
<text text-anchor="middle" x="246" y="-239.4" font-family="Helvetica,sans-Serif" font-size="12.00" fill="white">Hashable</text>
</a>
</g>
</g>
<!-- Equatable&#45;&gt;Hashable -->
<g id="edge33" class="edge">
<path fill="none" stroke="#cccccc" d="M358.853,-405.756C339.224,-377.621 284.27,-298.854 259.005,-262.641"/>
<polygon fill="#cccccc" stroke="#cccccc" points="261.854,-260.607 253.261,-254.408 256.113,-264.612 261.854,-260.607"/>
</g>
<!-- Equatable&#45;&gt;Int -->
<g id="edge2" class="edge">
<path fill="none" stroke="#cccccc" d="M333.841,-412.95C244.53,-403.597 0,-371.631 0,-302 0,-302 0,-302 0,-126 0,-78.3117 38.7271,-75.7224 83,-58 188.106,-15.9262 540.833,-12.0168 656.741,-11.8941"/>
<polygon fill="#cccccc" stroke="#cccccc" points="656.89,-15.3942 666.89,-11.8927 656.889,-8.39423 656.89,-15.3942"/>
</g>
<!-- _Incrementable -->
<g id="node19" class="node">
<g id="a_node19"><a xlink:href="/swift-2/protocol/_Incrementable/" target="_top">
<path fill="#999999" stroke="#999999" d="M639.705,-370C639.705,-370 562.295,-370 562.295,-370 558.628,-370 554.961,-366.333 554.961,-362.667 554.961,-362.667 554.961,-355.333 554.961,-355.333 554.961,-351.667 558.628,-348 562.295,-348 562.295,-348 639.705,-348 639.705,-348 643.372,-348 647.039,-351.667 647.039,-355.333 647.039,-355.333 647.039,-362.667 647.039,-362.667 647.039,-366.333 643.372,-370 639.705,-370"/>
<text text-anchor="middle" x="601" y="-355.4" font-family="Helvetica,sans-Serif" font-size="12.00" fill="white">_Incrementable</text>
</a>
</g>
</g>
<!-- Equatable&#45;&gt;_Incrementable -->
<g id="edge37" class="edge">
<path fill="none" stroke="#cccccc" d="M398.183,-408.331C437.064,-399.066 502.986,-383.357 549.088,-372.37"/>
<polygon fill="#cccccc" stroke="#cccccc" points="549.981,-375.756 558.898,-370.033 548.359,-368.946 549.981,-375.756"/>
</g>
<!-- ForwardIndexType -->
<g id="node8" class="node">
<g id="a_node8"><a xlink:href="/swift-2/protocol/ForwardIndexType/" target="_top">
<path fill="#999999" stroke="#999999" d="M1314.21,-312C1314.21,-312 1219.79,-312 1219.79,-312 1216.13,-312 1212.46,-308.333 1212.46,-304.667 1212.46,-304.667 1212.46,-297.333 1212.46,-297.333 1212.46,-293.667 1216.13,-290 1219.79,-290 1219.79,-290 1314.21,-290 1314.21,-290 1317.87,-290 1321.54,-293.667 1321.54,-297.333 1321.54,-297.333 1321.54,-304.667 1321.54,-304.667 1321.54,-308.333 1317.87,-312 1314.21,-312"/>
<text text-anchor="middle" x="1267" y="-297.4" font-family="Helvetica,sans-Serif" font-size="12.00" fill="white">ForwardIndexType</text>
</a>
</g>
</g>
<!-- ForwardIndexType&#45;&gt;BidirectionalIndexType -->
<g id="edge45" class="edge">
<path fill="none" stroke="#cccccc" d="M1267,-289.988C1267,-282.91 1267,-273.171 1267,-264.478"/>
<polygon fill="#cccccc" stroke="#cccccc" points="1270.5,-264.304 1267,-254.304 1263.5,-264.304 1270.5,-264.304"/>
</g>
<!-- ForwardIndexType&#45;&gt;Int -->
<g id="edge10" class="edge">
<path fill="none" stroke="#cccccc" d="M1292.76,-289.834C1308.84,-282.236 1328.75,-270.337 1341,-254 1359.83,-228.897 1360,-217.38 1360,-186 1360,-186 1360,-186 1360,-126 1360,-87.9539 1341.57,-75.9081 1308,-58 1197.23,1.09622 873.26,-41.1597 731.666,-21.8125"/>
<polygon fill="#cccccc" stroke="#cccccc" points="731.798,-18.2922 721.384,-20.2417 730.741,-25.2119 731.798,-18.2922"/>
</g>
<!-- Hashable&#45;&gt;Int -->
<g id="edge17" class="edge">
<path fill="none" stroke="#cccccc" d="M250.348,-231.856C264.584,-200.007 313.161,-101.545 387,-58 431.928,-31.5043 584.427,-18.7777 656.141,-14.1459"/>
<polygon fill="#cccccc" stroke="#cccccc" points="656.759,-17.6141 666.521,-13.4958 656.322,-10.6278 656.759,-17.6141"/>
</g>
<!-- Hashable&#45;&gt;_IntegerType -->
<g id="edge29" class="edge">
<path fill="none" stroke="#cccccc" d="M276.354,-232.117C304.463,-222.966 346.47,-209.289 377.443,-199.205"/>
<polygon fill="#cccccc" stroke="#cccccc" points="378.655,-202.491 387.08,-196.067 376.488,-195.835 378.655,-202.491"/>
</g>
<!-- Int&#45;&gt;Bit -->
<g id="edge1" class="edge">
<path fill="none" stroke="#cccccc" d="M721.281,-11C723.738,-11 726.194,-11 728.651,-11"/>
<polygon fill="#cccccc" stroke="#cccccc" points="728.75,-14.5001 738.75,-11 728.749,-7.5001 728.75,-14.5001"/>
</g>
<!-- IntegerArithmeticType&#45;&gt;Int -->
<g id="edge6" class="edge">
<path fill="none" stroke="#cccccc" d="M757.296,-231.615C768.736,-202.223 796.956,-116.781 765,-58 757.476,-44.1607 743.795,-33.8436 730.436,-26.5264"/>
<polygon fill="#cccccc" stroke="#cccccc" points="731.824,-23.3067 721.319,-21.9335 728.675,-29.5583 731.824,-23.3067"/>
</g>
<!-- IntegerArithmeticType&#45;&gt;_IntegerType -->
<g id="edge30" class="edge">
<path fill="none" stroke="#cccccc" d="M689.822,-232.615C634.051,-224.153 550.294,-211.016 468.099,-196.145"/>
<polygon fill="#cccccc" stroke="#cccccc" points="468.55,-192.669 458.085,-194.323 467.297,-199.556 468.55,-192.669"/>
</g>
<!-- IntegerLiteralConvertible -->
<g id="node12" class="node">
<g id="a_node12"><a xlink:href="/swift-2/protocol/IntegerLiteralConvertible/" target="_top">
<path fill="#999999" stroke="#999999" d="M626.722,-254C626.722,-254 501.278,-254 501.278,-254 497.611,-254 493.944,-250.333 493.944,-246.667 493.944,-246.667 493.944,-239.333 493.944,-239.333 493.944,-235.667 497.611,-232 501.278,-232 501.278,-232 626.722,-232 626.722,-232 630.389,-232 634.056,-235.667 634.056,-239.333 634.056,-239.333 634.056,-246.667 634.056,-246.667 634.056,-250.333 630.389,-254 626.722,-254"/>
<text text-anchor="middle" x="564" y="-239.4" font-family="Helvetica,sans-Serif" font-size="12.00" fill="white">IntegerLiteralConvertible</text>
</a>
</g>
</g>
<!-- IntegerLiteralConvertible&#45;&gt;Int -->
<g id="edge20" class="edge">
<path fill="none" stroke="#cccccc" d="M574.175,-231.91C582.497,-223.126 593.996,-209.685 601,-196 629.983,-139.37 604.591,-111.507 639,-58 646.65,-46.1034 658.345,-35.7054 668.986,-27.8192"/>
<polygon fill="#cccccc" stroke="#cccccc" points="671.025,-30.6641 677.197,-22.0526 667.002,-24.9357 671.025,-30.6641"/>
</g>
<!-- IntegerLiteralConvertible&#45;&gt;SignedNumberType -->
<g id="edge39" class="edge">
<path fill="none" stroke="#cccccc" d="M558.637,-231.988C554.676,-224.595 549.161,-214.301 544.353,-205.325"/>
<polygon fill="#cccccc" stroke="#cccccc" points="547.327,-203.466 539.52,-196.304 541.157,-206.771 547.327,-203.466"/>
</g>
<!-- IntegerLiteralConvertible&#45;&gt;_IntegerType -->
<g id="edge27" class="edge">
<path fill="none" stroke="#cccccc" d="M537.898,-231.988C514.479,-223.006 479.893,-209.74 453.878,-199.761"/>
<polygon fill="#cccccc" stroke="#cccccc" points="454.958,-196.427 444.368,-196.114 452.451,-202.963 454.958,-196.427"/>
</g>
<!-- IntegerType -->
<g id="node13" class="node">
<g id="a_node13"><a xlink:href="/swift-2/protocol/IntegerType/" target="_top">
<path fill="#999999" stroke="#999999" d="M742.202,-138C742.202,-138 683.798,-138 683.798,-138 680.132,-138 676.465,-134.333 676.465,-130.667 676.465,-130.667 676.465,-123.333 676.465,-123.333 676.465,-119.667 680.132,-116 683.798,-116 683.798,-116 742.202,-116 742.202,-116 745.868,-116 749.535,-119.667 749.535,-123.333 749.535,-123.333 749.535,-130.667 749.535,-130.667 749.535,-134.333 745.868,-138 742.202,-138"/>
<text text-anchor="middle" x="713" y="-123.4" font-family="Helvetica,sans-Serif" font-size="12.00" fill="white">IntegerType</text>
</a>
</g>
</g>
<!-- IntegerType&#45;&gt;Int -->
<g id="edge8" class="edge">
<path fill="none" stroke="#cccccc" d="M725.226,-115.564C739.132,-102.356 758.727,-78.8152 749,-58 743.178,-45.5419 732.14,-35.27 721.47,-27.6173"/>
<polygon fill="#cccccc" stroke="#cccccc" points="723.364,-24.6737 713.1,-22.0499 719.488,-30.5022 723.364,-24.6737"/>
</g>
<!-- SignedIntegerType -->
<g id="node16" class="node">
<g id="a_node16"><a xlink:href="/swift-2/protocol/SignedIntegerType/" target="_top">
<path fill="#999999" stroke="#999999" d="M546.727,-80C546.727,-80 451.273,-80 451.273,-80 447.606,-80 443.94,-76.3333 443.94,-72.6667 443.94,-72.6667 443.94,-65.3333 443.94,-65.3333 443.94,-61.6667 447.606,-58 451.273,-58 451.273,-58 546.727,-58 546.727,-58 550.394,-58 554.06,-61.6667 554.06,-65.3333 554.06,-65.3333 554.06,-72.6667 554.06,-72.6667 554.06,-76.3333 550.394,-80 546.727,-80"/>
<text text-anchor="middle" x="499" y="-65.4" font-family="Helvetica,sans-Serif" font-size="12.00" fill="white">SignedIntegerType</text>
</a>
</g>
</g>
<!-- IntegerType&#45;&gt;SignedIntegerType -->
<g id="edge50" class="edge">
<path fill="none" stroke="#cccccc" d="M676.212,-116.373C640.669,-107.072 586.62,-92.9287 547.56,-82.7073"/>
<polygon fill="#cccccc" stroke="#cccccc" points="548.032,-79.2129 537.471,-80.0673 546.259,-85.9849 548.032,-79.2129"/>
</g>
<!-- MirrorPathType -->
<g id="node14" class="node">
<g id="a_node14"><a xlink:href="/swift-2/protocol/MirrorPathType/" target="_top">
<path fill="#999999" stroke="#999999" d="M732.69,-80C732.69,-80 655.31,-80 655.31,-80 651.643,-80 647.977,-76.3333 647.977,-72.6667 647.977,-72.6667 647.977,-65.3333 647.977,-65.3333 647.977,-61.6667 651.643,-58 655.31,-58 655.31,-58 732.69,-58 732.69,-58 736.357,-58 740.023,-61.6667 740.023,-65.3333 740.023,-65.3333 740.023,-72.6667 740.023,-72.6667 740.023,-76.3333 736.357,-80 732.69,-80"/>
<text text-anchor="middle" x="694" y="-65.4" font-family="Helvetica,sans-Serif" font-size="12.00" fill="white">MirrorPathType</text>
</a>
</g>
</g>
<!-- MirrorPathType&#45;&gt;Int -->
<g id="edge23" class="edge">
<path fill="none" stroke="#cccccc" d="M694,-57.9883C694,-50.9098 694,-41.1714 694,-32.4779"/>
<polygon fill="#cccccc" stroke="#cccccc" points="697.5,-32.3038 694,-22.3039 690.5,-32.3039 697.5,-32.3038"/>
</g>
<!-- RandomAccessIndexType&#45;&gt;Int -->
<g id="edge12" class="edge">
<path fill="none" stroke="#cccccc" d="M980.965,-173.893C970.735,-149.654 941.336,-88.0074 896,-58 835.63,-18.0414 805.785,-38.2696 730.939,-21.9981"/>
<polygon fill="#cccccc" stroke="#cccccc" points="731.616,-18.5621 721.083,-19.7024 730.028,-25.3796 731.616,-18.5621"/>
</g>
<!-- RandomAccessIndexType&#45;&gt;IntegerType -->
<g id="edge41" class="edge">
<path fill="none" stroke="#cccccc" d="M936.372,-173.988C886.299,-163.679 808.822,-147.728 759.531,-137.58"/>
<polygon fill="#cccccc" stroke="#cccccc" points="759.961,-134.095 749.46,-135.507 758.549,-140.951 759.961,-134.095"/>
</g>
<!-- SignedIntegerType&#45;&gt;Int -->
<g id="edge9" class="edge">
<path fill="none" stroke="#cccccc" d="M533.862,-57.9883C568.56,-48.0238 621.612,-32.7884 657.031,-22.6169"/>
<polygon fill="#cccccc" stroke="#cccccc" points="658.324,-25.887 666.969,-19.7627 656.392,-19.1589 658.324,-25.887"/>
</g>
<!-- SignedNumberType&#45;&gt;Int -->
<g id="edge19" class="edge">
<path fill="none" stroke="#cccccc" d="M537.491,-173.916C545.942,-150.771 569.527,-93.1313 606,-58 620.531,-44.0038 640.167,-33.191 657.204,-25.5759"/>
<polygon fill="#cccccc" stroke="#cccccc" points="659.044,-28.5967 666.877,-21.4619 656.304,-22.1552 659.044,-28.5967"/>
</g>
<!-- _SignedIntegerType -->
<g id="node24" class="node">
<g id="a_node24"><a xlink:href="/swift-2/protocol/_SignedIntegerType/" target="_top">
<path fill="#999999" stroke="#999999" d="M531.231,-138C531.231,-138 428.769,-138 428.769,-138 425.102,-138 421.436,-134.333 421.436,-130.667 421.436,-130.667 421.436,-123.333 421.436,-123.333 421.436,-119.667 425.102,-116 428.769,-116 428.769,-116 531.231,-116 531.231,-116 534.898,-116 538.564,-119.667 538.564,-123.333 538.564,-123.333 538.564,-130.667 538.564,-130.667 538.564,-134.333 534.898,-138 531.231,-138"/>
<text text-anchor="middle" x="480" y="-123.4" font-family="Helvetica,sans-Serif" font-size="12.00" fill="white">_SignedIntegerType</text>
</a>
</g>
</g>
<!-- SignedNumberType&#45;&gt;_SignedIntegerType -->
<g id="edge26" class="edge">
<path fill="none" stroke="#cccccc" d="M524.346,-173.988C516.762,-166.123 506.011,-154.974 496.994,-145.624"/>
<polygon fill="#cccccc" stroke="#cccccc" points="499.397,-143.073 489.936,-138.304 494.358,-147.932 499.397,-143.073"/>
</g>
<!-- Strideable&#45;&gt;Int -->
<g id="edge14" class="edge">
<path fill="none" stroke="#cccccc" d="M902.797,-231.795C898.493,-196.961 882.785,-83.5015 858,-58 857.714,-57.7061 779.086,-35.7343 730.82,-22.267"/>
<polygon fill="#cccccc" stroke="#cccccc" points="731.593,-18.8491 721.02,-19.5332 729.712,-25.5917 731.593,-18.8491"/>
</g>
<!-- Strideable&#45;&gt;RandomAccessIndexType -->
<g id="edge43" class="edge">
<path fill="none" stroke="#cccccc" d="M918.481,-231.988C930.501,-223.678 947.823,-211.703 961.777,-202.055"/>
<polygon fill="#cccccc" stroke="#cccccc" points="964.136,-204.68 970.371,-196.114 960.155,-198.922 964.136,-204.68"/>
</g>
<!-- _Incrementable&#45;&gt;ForwardIndexType -->
<g id="edge46" class="edge">
<path fill="none" stroke="#cccccc" d="M647.043,-354.837C744.882,-348.005 980.688,-330.945 1178,-312 1185.92,-311.239 1194.24,-310.383 1202.46,-309.5"/>
<polygon fill="#cccccc" stroke="#cccccc" points="1202.87,-312.977 1212.43,-308.414 1202.11,-306.018 1202.87,-312.977"/>
</g>
<!-- _Incrementable&#45;&gt;Int -->
<g id="edge11" class="edge">
<path fill="none" stroke="#cccccc" d="M647.278,-356.409C717.783,-351.239 844,-329.976 844,-244 844,-244 844,-244 844,-126 844,-85.695 815.837,-82.7167 784,-58 767.393,-45.1071 746.617,-34.2065 729.212,-26.2575"/>
<polygon fill="#cccccc" stroke="#cccccc" points="730.498,-22.9992 719.937,-22.1511 727.664,-29.3999 730.498,-22.9992"/>
</g>
<!-- _Incrementable&#45;&gt;_IntegerType -->
<g id="edge32" class="edge">
<path fill="none" stroke="#cccccc" d="M589.26,-347.9C568.071,-329.578 522.184,-289.473 485,-254 467.558,-237.36 448.307,-217.677 434.933,-203.781"/>
<polygon fill="#cccccc" stroke="#cccccc" points="437.243,-201.132 427.796,-196.334 432.189,-205.975 437.243,-201.132"/>
</g>
<!-- _IntegerArithmeticType -->
<g id="node20" class="node">
<g id="a_node20"><a xlink:href="/swift-2/protocol/_IntegerArithmeticType/" target="_top">
<path fill="#999999" stroke="#999999" d="M1023.22,-312C1023.22,-312 904.785,-312 904.785,-312 901.118,-312 897.452,-308.333 897.452,-304.667 897.452,-304.667 897.452,-297.333 897.452,-297.333 897.452,-293.667 901.118,-290 904.785,-290 904.785,-290 1023.22,-290 1023.22,-290 1026.88,-290 1030.55,-293.667 1030.55,-297.333 1030.55,-297.333 1030.55,-304.667 1030.55,-304.667 1030.55,-308.333 1026.88,-312 1023.22,-312"/>
<text text-anchor="middle" x="964" y="-297.4" font-family="Helvetica,sans-Serif" font-size="12.00" fill="white">_IntegerArithmeticType</text>
</a>
</g>
</g>
<!-- _IntegerArithmeticType&#45;&gt;Int -->
<g id="edge7" class="edge">
<path fill="none" stroke="#cccccc" d="M1030.45,-294.145C1060.15,-288.276 1093.47,-276.703 1116,-254 1138.19,-231.638 1136,-217.502 1136,-186 1136,-186 1136,-186 1136,-126 1136,-54.438 800.184,-29.963 731.285,-21.4252"/>
<polygon fill="#cccccc" stroke="#cccccc" points="731.453,-17.911 721.042,-19.8773 730.407,-24.8324 731.453,-17.911"/>
</g>
<!-- _IntegerArithmeticType&#45;&gt;IntegerArithmeticType -->
<g id="edge34" class="edge">
<path fill="none" stroke="#cccccc" d="M926.277,-289.988C891.131,-280.66 838.58,-266.713 800.57,-256.625"/>
<polygon fill="#cccccc" stroke="#cccccc" points="801.314,-253.202 790.751,-254.019 799.519,-259.967 801.314,-253.202"/>
</g>
<!-- _IntegerType&#45;&gt;Int -->
<g id="edge5" class="edge">
<path fill="none" stroke="#cccccc" d="M414.786,-173.912C407.78,-149.715 394.249,-88.1556 427,-58 459.86,-27.7438 590.924,-17.0626 656.39,-13.5645"/>
<polygon fill="#cccccc" stroke="#cccccc" points="656.874,-17.0446 666.685,-13.045 656.521,-10.0535 656.874,-17.0446"/>
</g>
<!-- _IntegerType&#45;&gt;IntegerType -->
<g id="edge40" class="edge">
<path fill="none" stroke="#cccccc" d="M458.101,-175.76C461.111,-175.159 464.103,-174.566 467,-174 536.269,-160.456 616.682,-145.579 666.204,-136.514"/>
<polygon fill="#cccccc" stroke="#cccccc" points="667.08,-139.912 676.288,-134.67 665.821,-133.026 667.08,-139.912"/>
</g>
<!-- _IntegerType&#45;&gt;_SignedIntegerType -->
<g id="edge25" class="edge">
<path fill="none" stroke="#cccccc" d="M429.084,-173.988C437.966,-165.966 450.631,-154.527 461.107,-145.065"/>
<polygon fill="#cccccc" stroke="#cccccc" points="463.517,-147.604 468.592,-138.304 458.825,-142.409 463.517,-147.604"/>
</g>
<!-- _RandomAccessAmbiguity -->
<g id="node22" class="node">
<g id="a_node22"><a xlink:href="/swift-2/protocol/_RandomAccessAmbiguity/" target="_top">
<path fill="#999999" stroke="#999999" d="M1100.21,-254C1100.21,-254 961.786,-254 961.786,-254 958.12,-254 954.453,-250.333 954.453,-246.667 954.453,-246.667 954.453,-239.333 954.453,-239.333 954.453,-235.667 958.12,-232 961.786,-232 961.786,-232 1100.21,-232 1100.21,-232 1103.88,-232 1107.55,-235.667 1107.55,-239.333 1107.55,-239.333 1107.55,-246.667 1107.55,-246.667 1107.55,-250.333 1103.88,-254 1100.21,-254"/>
<text text-anchor="middle" x="1031" y="-239.4" font-family="Helvetica,sans-Serif" font-size="12.00" fill="white">_RandomAccessAmbiguity</text>
</a>
</g>
</g>
<!-- _RandomAccessAmbiguity&#45;&gt;Int -->
<g id="edge16" class="edge">
<path fill="none" stroke="#cccccc" d="M1043.57,-231.57C1057.87,-218.369 1078.01,-194.835 1068,-174 1032.25,-99.6162 998.031,-92.3721 923,-58 846.537,-22.9718 817.143,-40.321 730.996,-22.0029"/>
<polygon fill="#cccccc" stroke="#cccccc" points="731.585,-18.5483 721.062,-19.7878 730.061,-25.3805 731.585,-18.5483"/>
</g>
<!-- _RandomAccessAmbiguity&#45;&gt;RandomAccessIndexType -->
<g id="edge44" class="edge">
<path fill="none" stroke="#cccccc" d="M1022.78,-231.988C1016.44,-224.281 1007.52,-213.419 999.939,-204.187"/>
<polygon fill="#cccccc" stroke="#cccccc" points="1002.52,-201.81 993.464,-196.304 997.107,-206.253 1002.52,-201.81"/>
</g>
<!-- _Reflectable -->
<g id="node23" class="node">
<g id="a_node23"><a xlink:href="/swift-2/protocol/_Reflectable/" target="_top">
<path fill="#999999" stroke="#999999" d="M1270.7,-80C1270.7,-80 1209.3,-80 1209.3,-80 1205.63,-80 1201.97,-76.3333 1201.97,-72.6667 1201.97,-72.6667 1201.97,-65.3333 1201.97,-65.3333 1201.97,-61.6667 1205.63,-58 1209.3,-58 1209.3,-58 1270.7,-58 1270.7,-58 1274.37,-58 1278.03,-61.6667 1278.03,-65.3333 1278.03,-65.3333 1278.03,-72.6667 1278.03,-72.6667 1278.03,-76.3333 1274.37,-80 1270.7,-80"/>
<text text-anchor="middle" x="1240" y="-65.4" font-family="Helvetica,sans-Serif" font-size="12.00" fill="white">_Reflectable</text>
</a>
</g>
</g>
<!-- _Reflectable&#45;&gt;Int -->
<g id="edge22" class="edge">
<path fill="none" stroke="#cccccc" d="M1201.74,-60.1412C1197.12,-59.3412 1192.46,-58.6028 1188,-58 988.913,-31.118 932.873,-56.6385 731.409,-21.9481"/>
<polygon fill="#cccccc" stroke="#cccccc" points="731.846,-18.4715 721.393,-20.1947 730.639,-25.3666 731.846,-18.4715"/>
</g>
<!-- _SignedIntegerType&#45;&gt;Int -->
<g id="edge3" class="edge">
<path fill="none" stroke="#cccccc" d="M464.874,-115.823C446.267,-102.076 418.997,-77.0963 435,-58 462.856,-24.7603 591.938,-15.5225 656.713,-12.9683"/>
<polygon fill="#cccccc" stroke="#cccccc" points="657.038,-16.459 666.905,-12.6009 656.785,-9.46352 657.038,-16.459"/>
</g>
<!-- _SignedIntegerType&#45;&gt;SignedIntegerType -->
<g id="edge49" class="edge">
<path fill="none" stroke="#cccccc" d="M483.397,-115.988C485.852,-108.752 489.25,-98.7373 492.248,-89.9"/>
<polygon fill="#cccccc" stroke="#cccccc" points="495.605,-90.8982 495.504,-80.3039 488.977,-88.6491 495.605,-90.8982"/>
</g>
<!-- _Strideable -->
<g id="node25" class="node">
<g id="a_node25"><a xlink:href="/swift-2/protocol/_Strideable/" target="_top">
<path fill="#999999" stroke="#999999" d="M1161.7,-312C1161.7,-312 1106.3,-312 1106.3,-312 1102.63,-312 1098.97,-308.333 1098.97,-304.667 1098.97,-304.667 1098.97,-297.333 1098.97,-297.333 1098.97,-293.667 1102.63,-290 1106.3,-290 1106.3,-290 1161.7,-290 1161.7,-290 1165.37,-290 1169.03,-293.667 1169.03,-297.333 1169.03,-297.333 1169.03,-304.667 1169.03,-304.667 1169.03,-308.333 1165.37,-312 1161.7,-312"/>
<text text-anchor="middle" x="1134" y="-297.4" font-family="Helvetica,sans-Serif" font-size="12.00" fill="white">_Strideable</text>
</a>
</g>
</g>
<!-- _Strideable&#45;&gt;Int -->
<g id="edge15" class="edge">
<path fill="none" stroke="#cccccc" d="M1140.25,-289.738C1151.5,-270.261 1174,-226.271 1174,-186 1174,-186 1174,-186 1174,-126 1174,-67.0043 1115.94,-76.7399 1060,-58 923.247,-12.1878 876.966,-48.1399 731.221,-21.9186"/>
<polygon fill="#cccccc" stroke="#cccccc" points="731.488,-18.4079 721.015,-20.0109 730.202,-25.2888 731.488,-18.4079"/>
</g>
<!-- _Strideable&#45;&gt;Strideable -->
<g id="edge48" class="edge">
<path fill="none" stroke="#cccccc" d="M1098.82,-291.442C1062.86,-282.696 1005.14,-268.651 946.098,-254.267"/>
<polygon fill="#cccccc" stroke="#cccccc" points="946.773,-250.829 936.229,-251.862 945.116,-257.63 946.773,-250.829"/>
</g>
</g>
</svg>
