<?xml version="1.0" encoding="UTF-8" standalone="no"?>
<!DOCTYPE svg PUBLIC "-//W3C//DTD SVG 1.1//EN"
 "http://www.w3.org/Graphics/SVG/1.1/DTD/svg11.dtd">
<!-- Generated by graphviz version 2.36.0 (20140111.2315)
 -->
<!-- Title: RandomAccessIndexType &#45; Type Hierarchy &#45; SwiftDoc.org Pages: 1 -->
<svg width="1387pt" height="543pt"
 viewBox="0.00 0.00 1387.40 543.20" xmlns="http://www.w3.org/2000/svg" xmlns:xlink="http://www.w3.org/1999/xlink">
<g id="graph0" class="graph" transform="scale(1 1) rotate(0) translate(7.2 485.6)">
<g transform="translate(0 -485.6)">
<g>
    <path fill="#666666" d="M13.846,10.832c-0.336-0.464-0.792-0.844-1.368-1.14s-1.224-0.444-1.944-0.444
        c-0.384,0-0.772,0.052-1.164,0.156C8.977,9.509,8.622,9.677,8.301,9.908c-0.32,0.232-0.58,0.52-0.78,0.864
        c-0.2,0.344-0.3,0.756-0.3,1.236c0,0.464,0.092,0.852,0.276,1.164c0.184,0.312,0.432,0.576,0.744,0.792s0.68,0.4,1.104,0.552
        c0.423,0.152,0.876,0.309,1.356,0.468c0.576,0.177,1.16,0.376,1.752,0.601c0.592,0.224,1.128,0.52,1.608,0.888
        s0.872,0.828,1.176,1.38s0.456,1.252,0.456,2.101c0,0.88-0.164,1.644-0.492,2.292c-0.328,0.647-0.765,1.184-1.308,1.607
        c-0.544,0.424-1.172,0.74-1.884,0.948s-1.444,0.312-2.196,0.312c-1.072,0-2.108-0.208-3.108-0.624
        c-1-0.415-1.828-1.031-2.484-1.848l1.848-1.56c0.4,0.592,0.936,1.071,1.608,1.439c0.672,0.368,1.399,0.552,2.184,0.552
        c0.4,0,0.8-0.056,1.2-0.168c0.4-0.111,0.764-0.288,1.092-0.527c0.328-0.24,0.596-0.54,0.804-0.9
        c0.208-0.36,0.312-0.796,0.312-1.308s-0.108-0.94-0.324-1.284c-0.216-0.344-0.508-0.636-0.876-0.876s-0.796-0.444-1.284-0.612
        c-0.488-0.168-1.004-0.34-1.548-0.516c-0.544-0.16-1.08-0.356-1.608-0.588c-0.528-0.232-1-0.528-1.416-0.889
        c-0.416-0.359-0.752-0.804-1.008-1.332c-0.256-0.527-0.384-1.184-0.384-1.968c0-0.848,0.172-1.576,0.516-2.184
        c0.344-0.608,0.792-1.112,1.344-1.512c0.552-0.4,1.176-0.692,1.872-0.876c0.696-0.184,1.396-0.276,2.1-0.276
        c0.992,0,1.92,0.176,2.784,0.528c0.864,0.352,1.56,0.824,2.088,1.416L13.846,10.832z"/>
    <path fill="#666666" d="M18.813,13.304l2.568,8.688h0.048l2.712-8.688h2.376l2.76,8.688h0.048l2.568-8.688h2.376L30.501,24.68
        h-2.352l-2.808-8.544h-0.048l-2.784,8.544h-2.352l-3.792-11.376H18.813z"/>
    <path fill="#666666" d="M38.685,9.2c0,0.416-0.147,0.76-0.44,1.032c-0.294,0.272-0.647,0.408-1.06,0.408s-0.762-0.14-1.047-0.42
        c-0.286-0.28-0.429-0.62-0.429-1.02c0-0.416,0.143-0.764,0.429-1.044c0.286-0.28,0.635-0.42,1.047-0.42s0.766,0.14,1.06,0.42
        C38.538,8.437,38.685,8.784,38.685,9.2z M38.325,24.68h-2.256V13.304h2.256V24.68z"/>
    <path fill="#666666" d="M47.613,15.152h-2.64v9.528h-2.256v-9.528h-2.256v-1.848h2.256v-2.376c0-0.672,0.076-1.292,0.228-1.86
        c0.152-0.568,0.4-1.06,0.744-1.476c0.344-0.416,0.784-0.744,1.32-0.984c0.536-0.24,1.188-0.36,1.956-0.36
        c0.544,0,1.016,0.056,1.416,0.168l-0.264,1.944c-0.176-0.048-0.352-0.088-0.528-0.12c-0.176-0.032-0.376-0.048-0.6-0.048
        c-0.432,0-0.78,0.076-1.044,0.228c-0.264,0.152-0.468,0.356-0.612,0.612s-0.24,0.548-0.288,0.876
        c-0.048,0.328-0.072,0.668-0.072,1.02v2.376h2.64V15.152z"/>
    <path fill="#666666" d="M54.909,15.152h-3.024v5.91c0,0.687,0.128,1.177,0.384,1.472c0.256,0.295,0.664,0.442,1.224,0.442
        c0.208,0,0.432-0.021,0.672-0.065c0.24-0.044,0.456-0.11,0.648-0.198l0.072,1.848c-0.272,0.096-0.572,0.172-0.9,0.229
        c-0.328,0.056-0.668,0.084-1.02,0.084c-1.072,0-1.892-0.296-2.46-0.889c-0.568-0.592-0.852-1.479-0.852-2.664v-6.168h-2.184
        v-1.848h2.184V10.04h2.232v3.264h3.024V15.152z"/>
    <path fill="#666666" d="M57.356,7.688h5.832c1.088,0,2.176,0.16,3.264,0.48c1.088,0.32,2.072,0.824,2.952,1.512
        s1.592,1.568,2.136,2.64c0.544,1.072,0.816,2.36,0.816,3.864c0,1.456-0.272,2.716-0.816,3.78s-1.256,1.943-2.136,2.64
        s-1.864,1.216-2.952,1.561c-1.088,0.344-2.176,0.516-3.264,0.516h-5.832V7.688z M59.732,22.593h2.976
        c1.024,0,1.972-0.145,2.844-0.432c0.872-0.288,1.624-0.704,2.256-1.248c0.632-0.544,1.124-1.216,1.476-2.017
        c0.352-0.8,0.528-1.704,0.528-2.712c0-1.056-0.176-1.983-0.528-2.784c-0.353-0.8-0.844-1.468-1.476-2.004
        c-0.632-0.536-1.384-0.944-2.256-1.224s-1.82-0.42-2.844-0.42h-2.976V22.593z"/>
    <path fill="#666666" d="M86.06,18.969c0,0.88-0.156,1.688-0.468,2.424c-0.312,0.736-0.744,1.372-1.296,1.908
        c-0.552,0.536-1.204,0.952-1.956,1.248c-0.752,0.296-1.56,0.443-2.424,0.443c-0.864,0-1.672-0.147-2.424-0.443
        c-0.752-0.296-1.4-0.712-1.944-1.248c-0.544-0.536-0.972-1.172-1.284-1.908c-0.312-0.735-0.468-1.544-0.468-2.424
        s0.156-1.684,0.468-2.412c0.312-0.728,0.74-1.356,1.284-1.884c0.543-0.528,1.191-0.939,1.944-1.236
        c0.752-0.296,1.56-0.444,2.424-0.444c0.864,0,1.672,0.148,2.424,0.444c0.752,0.297,1.404,0.708,1.956,1.236
        c0.552,0.527,0.984,1.156,1.296,1.884C85.904,17.285,86.06,18.089,86.06,18.969z M83.708,18.98c0-0.542-0.084-1.061-0.252-1.556
        c-0.169-0.494-0.414-0.929-0.734-1.304s-0.718-0.674-1.192-0.897s-1.015-0.335-1.625-0.335c-0.61,0-1.152,0.111-1.625,0.335
        c-0.474,0.224-0.871,0.522-1.191,0.897c-0.321,0.375-0.566,0.81-0.734,1.304C76.184,17.92,76.1,18.438,76.1,18.98
        c0,0.543,0.084,1.062,0.253,1.556c0.168,0.495,0.413,0.934,0.734,1.316c0.321,0.383,0.718,0.686,1.191,0.909
        c0.473,0.224,1.015,0.335,1.625,0.335c0.61,0,1.151-0.111,1.625-0.335s0.871-0.526,1.192-0.909s0.565-0.821,0.734-1.316
        C83.624,20.042,83.708,19.523,83.708,18.98z"/>
    <path fill="#666666" d="M96.428,16.184c-0.24-0.368-0.6-0.676-1.08-0.924s-0.992-0.372-1.536-0.372
        c-0.592,0-1.116,0.112-1.572,0.336c-0.456,0.225-0.844,0.524-1.164,0.9c-0.32,0.376-0.564,0.812-0.732,1.308
        s-0.252,1.017-0.252,1.56c0,0.545,0.084,1.064,0.252,1.561s0.412,0.933,0.732,1.308c0.32,0.376,0.712,0.677,1.176,0.9
        c0.464,0.225,0.992,0.336,1.584,0.336c0.576,0,1.1-0.111,1.572-0.336c0.472-0.224,0.86-0.528,1.164-0.912l1.512,1.368
        c-0.48,0.561-1.08,0.996-1.8,1.308c-0.72,0.312-1.536,0.468-2.448,0.468c-0.88,0-1.692-0.144-2.436-0.432
        c-0.744-0.288-1.388-0.691-1.932-1.212c-0.544-0.52-0.972-1.147-1.284-1.884s-0.468-1.561-0.468-2.473
        c0-0.896,0.152-1.711,0.456-2.447c0.304-0.736,0.728-1.368,1.272-1.896c0.543-0.527,1.188-0.936,1.932-1.224
        c0.744-0.288,1.548-0.433,2.412-0.433c0.8,0,1.596,0.16,2.388,0.48s1.419,0.784,1.884,1.392L96.428,16.184z"/>
    <path fill="#666666" d="M103.1,23.24c0,0.417-0.152,0.784-0.456,1.104c-0.304,0.32-0.688,0.479-1.152,0.479
        c-0.448,0-0.828-0.155-1.14-0.468c-0.312-0.312-0.468-0.676-0.468-1.092c0-0.432,0.152-0.804,0.456-1.116
        c0.304-0.312,0.688-0.468,1.152-0.468c0.464,0,0.848,0.152,1.152,0.456C102.947,22.44,103.1,22.808,103.1,23.24z"/>
    <path fill="#666666" d="M116.635,18.969c0,0.88-0.156,1.688-0.468,2.424c-0.312,0.736-0.744,1.372-1.296,1.908
        c-0.552,0.536-1.204,0.952-1.956,1.248c-0.752,0.296-1.56,0.443-2.424,0.443c-0.864,0-1.672-0.147-2.424-0.443
        c-0.752-0.296-1.4-0.712-1.944-1.248c-0.544-0.536-0.972-1.172-1.284-1.908c-0.312-0.735-0.468-1.544-0.468-2.424
        s0.156-1.684,0.468-2.412c0.312-0.728,0.74-1.356,1.284-1.884c0.543-0.528,1.191-0.939,1.944-1.236
        c0.752-0.296,1.56-0.444,2.424-0.444c0.864,0,1.672,0.148,2.424,0.444c0.752,0.297,1.404,0.708,1.956,1.236
        c0.552,0.527,0.984,1.156,1.296,1.884C116.479,17.285,116.635,18.089,116.635,18.969z M114.283,18.98
        c0-0.542-0.084-1.061-0.252-1.556c-0.169-0.494-0.414-0.929-0.734-1.304s-0.718-0.674-1.192-0.897s-1.015-0.335-1.625-0.335
        c-0.61,0-1.152,0.111-1.625,0.335c-0.474,0.224-0.871,0.522-1.191,0.897c-0.321,0.375-0.566,0.81-0.734,1.304
        c-0.169,0.495-0.253,1.014-0.253,1.556c0,0.543,0.084,1.062,0.253,1.556c0.168,0.495,0.413,0.934,0.734,1.316
        c0.321,0.383,0.718,0.686,1.191,0.909c0.473,0.224,1.015,0.335,1.625,0.335c0.61,0,1.151-0.111,1.625-0.335
        s0.871-0.526,1.192-0.909s0.565-0.821,0.734-1.316C114.199,20.042,114.283,19.523,114.283,18.98z"/>
    <path fill="#666666" d="M119.251,14.577c-0.016-0.48-0.04-0.904-0.072-1.272h2.136c0.032,0.288,0.056,0.62,0.072,0.996
        c0.016,0.376,0.024,0.684,0.024,0.924h0.072c0.32-0.672,0.788-1.212,1.404-1.62c0.616-0.408,1.308-0.612,2.076-0.612
        c0.352,0,0.648,0.033,0.888,0.097l-0.096,2.088c-0.32-0.08-0.664-0.12-1.032-0.12c-0.544,0-1.016,0.101-1.416,0.3
        c-0.4,0.2-0.732,0.468-0.996,0.805c-0.264,0.336-0.46,0.724-0.588,1.163c-0.128,0.44-0.192,0.9-0.192,1.381v5.976h-2.256v-8.928
        C119.275,15.449,119.267,15.056,119.251,14.577z"/>
    <path fill="#666666" d="M128.419,26.625c0.496,0.56,1.116,1.008,1.86,1.344c0.744,0.336,1.508,0.504,2.292,0.504
        c0.752,0,1.384-0.108,1.896-0.324s0.924-0.512,1.236-0.888s0.536-0.82,0.672-1.332c0.136-0.513,0.204-1.064,0.204-1.656v-1.464
        h-0.048c-0.416,0.641-0.984,1.128-1.704,1.464c-0.72,0.336-1.488,0.504-2.304,0.504c-0.864,0-1.652-0.151-2.364-0.456
        c-0.712-0.304-1.316-0.72-1.812-1.248c-0.496-0.527-0.88-1.147-1.152-1.859s-0.408-1.477-0.408-2.292
        c0-0.816,0.136-1.584,0.408-2.305c0.272-0.72,0.656-1.348,1.152-1.884c0.496-0.535,1.096-0.96,1.8-1.271
        c0.704-0.312,1.488-0.469,2.352-0.469c0.816,0,1.596,0.177,2.34,0.528c0.744,0.353,1.332,0.888,1.764,1.608h0.048v-1.824h2.184
        v10.8c0,0.832-0.104,1.628-0.312,2.388c-0.208,0.76-0.56,1.433-1.056,2.017s-1.144,1.052-1.944,1.404
        c-0.8,0.352-1.792,0.527-2.976,0.527c-0.992,0-1.988-0.18-2.988-0.54c-1-0.359-1.86-0.868-2.58-1.523L128.419,26.625z
         M129.091,18.873c0,0.527,0.084,1.031,0.253,1.512c0.168,0.479,0.417,0.904,0.746,1.271c0.329,0.369,0.726,0.664,1.192,0.889
        c0.465,0.224,0.995,0.336,1.589,0.336c0.577,0,1.107-0.104,1.589-0.312c0.481-0.207,0.891-0.491,1.228-0.852
        s0.598-0.784,0.782-1.272c0.185-0.487,0.277-1.012,0.277-1.571c0-0.544-0.093-1.057-0.277-1.536
        c-0.185-0.48-0.449-0.904-0.794-1.272c-0.345-0.367-0.755-0.66-1.228-0.876c-0.474-0.216-1-0.324-1.577-0.324
        c-0.594,0-1.124,0.108-1.589,0.324c-0.466,0.216-0.863,0.504-1.192,0.864s-0.578,0.784-0.746,1.271
        C129.175,17.812,129.091,18.329,129.091,18.873z"/>
</g>
<g><a xlink:href="/" pointer-events="all" target="_top"><polygon fill="none" points="0,0 145,0 145,35 0,35 0,0"/></a></g>

</g>


<!-- AnyRandomAccessIndex -->
<g id="node1" class="node">
<g id="a_node1"><a xlink:href="/v2.1/type/AnyRandomAccessIndex/" target="_top">
<polygon fill="#999999" stroke="#999999" points="144.051,-22 -0.0512776,-22 -0.0512776,-0 144.051,-0 144.051,-22"/>
<text text-anchor="middle" x="72" y="-7.4" font-family="Helvetica,sans-Serif" font-size="12.00" fill="white">AnyRandomAccessIndex</text>
</a>
</g>
</g>
<!-- BidirectionalIndexType -->
<g id="node2" class="node">
<g id="a_node2"><a xlink:href="/v2.1/protocol/BidirectionalIndexType/" target="_top">
<path fill="#999999" stroke="#999999" d="M656.725,-254C656.725,-254 541.275,-254 541.275,-254 537.608,-254 533.941,-250.333 533.941,-246.667 533.941,-246.667 533.941,-239.333 533.941,-239.333 533.941,-235.667 537.608,-232 541.275,-232 541.275,-232 656.725,-232 656.725,-232 660.392,-232 664.059,-235.667 664.059,-239.333 664.059,-239.333 664.059,-246.667 664.059,-246.667 664.059,-250.333 660.392,-254 656.725,-254"/>
<text text-anchor="middle" x="599" y="-239.4" font-family="Helvetica,sans-Serif" font-size="12.00" fill="white">BidirectionalIndexType</text>
</a>
</g>
</g>
<!-- RandomAccessIndexType -->
<g id="node13" class="node">
<g id="a_node13"><a xlink:href="/v2.1/protocol/RandomAccessIndexType/" target="_top">
<path fill="#ee543d" stroke="#ee543d" d="M666.225,-196C666.225,-196 531.775,-196 531.775,-196 528.108,-196 524.441,-192.333 524.441,-188.667 524.441,-188.667 524.441,-181.333 524.441,-181.333 524.441,-177.667 528.108,-174 531.775,-174 531.775,-174 666.225,-174 666.225,-174 669.892,-174 673.559,-177.667 673.559,-181.333 673.559,-181.333 673.559,-188.667 673.559,-188.667 673.559,-192.333 669.892,-196 666.225,-196"/>
<text text-anchor="middle" x="599" y="-181.4" font-family="Helvetica,sans-Serif" font-size="12.00" fill="white">RandomAccessIndexType</text>
</a>
</g>
</g>
<!-- BidirectionalIndexType&#45;&gt;RandomAccessIndexType -->
<g id="edge30" class="edge">
<path fill="none" stroke="#cccccc" d="M599,-231.988C599,-224.91 599,-215.171 599,-206.478"/>
<polygon fill="#cccccc" stroke="#cccccc" points="602.5,-206.304 599,-196.304 595.5,-206.304 602.5,-206.304"/>
</g>
<!-- Bit -->
<g id="node3" class="node">
<g id="a_node3"><a xlink:href="/v2.1/type/Bit/" target="_top">
<polygon fill="#999999" stroke="#999999" points="288,-22 234,-22 234,-0 288,-0 288,-22"/>
<text text-anchor="middle" x="261" y="-7.4" font-family="Helvetica,sans-Serif" font-size="12.00" fill="white">Bit</text>
</a>
</g>
</g>
<!-- Comparable -->
<g id="node4" class="node">
<g id="a_node4"><a xlink:href="/v2.1/protocol/Comparable/" target="_top">
<path fill="#999999" stroke="#999999" d="M441.191,-370C441.191,-370 380.809,-370 380.809,-370 377.142,-370 373.475,-366.333 373.475,-362.667 373.475,-362.667 373.475,-355.333 373.475,-355.333 373.475,-351.667 377.142,-348 380.809,-348 380.809,-348 441.191,-348 441.191,-348 444.858,-348 448.525,-351.667 448.525,-355.333 448.525,-355.333 448.525,-362.667 448.525,-362.667 448.525,-366.333 444.858,-370 441.191,-370"/>
<text text-anchor="middle" x="411" y="-355.4" font-family="Helvetica,sans-Serif" font-size="12.00" fill="white">Comparable</text>
</a>
</g>
</g>
<!-- Strideable -->
<g id="node16" class="node">
<g id="a_node16"><a xlink:href="/v2.1/protocol/Strideable/" target="_top">
<path fill="#999999" stroke="#999999" d="M521.693,-312C521.693,-312 472.307,-312 472.307,-312 468.64,-312 464.974,-308.333 464.974,-304.667 464.974,-304.667 464.974,-297.333 464.974,-297.333 464.974,-293.667 468.64,-290 472.307,-290 472.307,-290 521.693,-290 521.693,-290 525.36,-290 529.026,-293.667 529.026,-297.333 529.026,-297.333 529.026,-304.667 529.026,-304.667 529.026,-308.333 525.36,-312 521.693,-312"/>
<text text-anchor="middle" x="497" y="-297.4" font-family="Helvetica,sans-Serif" font-size="12.00" fill="white">Strideable</text>
</a>
</g>
</g>
<!-- Comparable&#45;&gt;Strideable -->
<g id="edge36" class="edge">
<path fill="none" stroke="#cccccc" d="M426.375,-347.988C439.258,-339.599 457.879,-327.474 472.766,-317.78"/>
<polygon fill="#cccccc" stroke="#cccccc" points="474.998,-320.504 481.468,-312.114 471.178,-314.638 474.998,-320.504"/>
</g>
<!-- Equatable -->
<g id="node5" class="node">
<g id="a_node5"><a xlink:href="/v2.1/protocol/Equatable/" target="_top">
<path fill="#999999" stroke="#999999" d="M530.702,-428C530.702,-428 481.298,-428 481.298,-428 477.632,-428 473.965,-424.333 473.965,-420.667 473.965,-420.667 473.965,-413.333 473.965,-413.333 473.965,-409.667 477.632,-406 481.298,-406 481.298,-406 530.702,-406 530.702,-406 534.368,-406 538.035,-409.667 538.035,-413.333 538.035,-413.333 538.035,-420.667 538.035,-420.667 538.035,-424.333 534.368,-428 530.702,-428"/>
<text text-anchor="middle" x="506" y="-413.4" font-family="Helvetica,sans-Serif" font-size="12.00" fill="white">Equatable</text>
</a>
</g>
</g>
<!-- Equatable&#45;&gt;Comparable -->
<g id="edge38" class="edge">
<path fill="none" stroke="#cccccc" d="M489.016,-405.988C474.516,-397.441 453.437,-385.015 436.844,-375.234"/>
<polygon fill="#cccccc" stroke="#cccccc" points="438.549,-372.177 428.157,-370.114 434.995,-378.207 438.549,-372.177"/>
</g>
<!-- _Incrementable -->
<g id="node25" class="node">
<g id="a_node25"><a xlink:href="/v2.1/protocol/_Incrementable/" target="_top">
<path fill="#999999" stroke="#999999" d="M640.705,-370C640.705,-370 563.295,-370 563.295,-370 559.628,-370 555.961,-366.333 555.961,-362.667 555.961,-362.667 555.961,-355.333 555.961,-355.333 555.961,-351.667 559.628,-348 563.295,-348 563.295,-348 640.705,-348 640.705,-348 644.372,-348 648.039,-351.667 648.039,-355.333 648.039,-355.333 648.039,-362.667 648.039,-362.667 648.039,-366.333 644.372,-370 640.705,-370"/>
<text text-anchor="middle" x="602" y="-355.4" font-family="Helvetica,sans-Serif" font-size="12.00" fill="white">_Incrementable</text>
</a>
</g>
</g>
<!-- Equatable&#45;&gt;_Incrementable -->
<g id="edge35" class="edge">
<path fill="none" stroke="#cccccc" d="M523.163,-405.988C537.815,-397.441 559.116,-385.015 575.884,-375.234"/>
<polygon fill="#cccccc" stroke="#cccccc" points="577.788,-378.176 584.662,-370.114 574.261,-372.129 577.788,-378.176"/>
</g>
<!-- ForwardIndexType -->
<g id="node6" class="node">
<g id="a_node6"><a xlink:href="/v2.1/protocol/ForwardIndexType/" target="_top">
<path fill="#999999" stroke="#999999" d="M649.206,-312C649.206,-312 554.794,-312 554.794,-312 551.127,-312 547.461,-308.333 547.461,-304.667 547.461,-304.667 547.461,-297.333 547.461,-297.333 547.461,-293.667 551.127,-290 554.794,-290 554.794,-290 649.206,-290 649.206,-290 652.873,-290 656.539,-293.667 656.539,-297.333 656.539,-297.333 656.539,-304.667 656.539,-304.667 656.539,-308.333 652.873,-312 649.206,-312"/>
<text text-anchor="middle" x="602" y="-297.4" font-family="Helvetica,sans-Serif" font-size="12.00" fill="white">ForwardIndexType</text>
</a>
</g>
</g>
<!-- ForwardIndexType&#45;&gt;BidirectionalIndexType -->
<g id="edge33" class="edge">
<path fill="none" stroke="#cccccc" d="M601.464,-289.988C601.084,-282.91 600.563,-273.171 600.097,-264.478"/>
<polygon fill="#cccccc" stroke="#cccccc" points="603.582,-264.102 599.552,-254.304 596.592,-264.477 603.582,-264.102"/>
</g>
<!-- Int -->
<g id="node7" class="node">
<g id="a_node7"><a xlink:href="/v2.1/type/Int/" target="_top">
<polygon fill="#999999" stroke="#999999" points="216,-22 162,-22 162,-0 216,-0 216,-22"/>
<text text-anchor="middle" x="189" y="-7.4" font-family="Helvetica,sans-Serif" font-size="12.00" fill="white">Int</text>
</a>
</g>
</g>
<!-- Int&#45;&gt;Bit -->
<g id="edge17" class="edge">
<path fill="none" stroke="#cccccc" d="M216.281,-11C218.738,-11 221.194,-11 223.651,-11"/>
<polygon fill="#cccccc" stroke="#cccccc" points="223.75,-14.5001 233.75,-11 223.749,-7.5001 223.75,-14.5001"/>
</g>
<!-- Int16 -->
<g id="node8" class="node">
<g id="a_node8"><a xlink:href="/v2.1/type/Int16/" target="_top">
<polygon fill="#999999" stroke="#999999" points="360,-22 306,-22 306,-0 360,-0 360,-22"/>
<text text-anchor="middle" x="333" y="-7.4" font-family="Helvetica,sans-Serif" font-size="12.00" fill="white">Int16</text>
</a>
</g>
</g>
<!-- Int32 -->
<g id="node9" class="node">
<g id="a_node9"><a xlink:href="/v2.1/type/Int32/" target="_top">
<polygon fill="#999999" stroke="#999999" points="432,-22 378,-22 378,-0 432,-0 432,-22"/>
<text text-anchor="middle" x="405" y="-7.4" font-family="Helvetica,sans-Serif" font-size="12.00" fill="white">Int32</text>
</a>
</g>
</g>
<!-- Int64 -->
<g id="node10" class="node">
<g id="a_node10"><a xlink:href="/v2.1/type/Int64/" target="_top">
<polygon fill="#999999" stroke="#999999" points="504,-22 450,-22 450,-0 504,-0 504,-22"/>
<text text-anchor="middle" x="477" y="-7.4" font-family="Helvetica,sans-Serif" font-size="12.00" fill="white">Int64</text>
</a>
</g>
</g>
<!-- Int8 -->
<g id="node11" class="node">
<g id="a_node11"><a xlink:href="/v2.1/type/Int8/" target="_top">
<polygon fill="#999999" stroke="#999999" points="576,-22 522,-22 522,-0 576,-0 576,-22"/>
<text text-anchor="middle" x="549" y="-7.4" font-family="Helvetica,sans-Serif" font-size="12.00" fill="white">Int8</text>
</a>
</g>
</g>
<!-- IntegerType -->
<g id="node12" class="node">
<g id="a_node12"><a xlink:href="/v2.1/protocol/IntegerType/" target="_top">
<path fill="#999999" stroke="#999999" d="M544.202,-138C544.202,-138 485.798,-138 485.798,-138 482.132,-138 478.465,-134.333 478.465,-130.667 478.465,-130.667 478.465,-123.333 478.465,-123.333 478.465,-119.667 482.132,-116 485.798,-116 485.798,-116 544.202,-116 544.202,-116 547.868,-116 551.535,-119.667 551.535,-123.333 551.535,-123.333 551.535,-130.667 551.535,-130.667 551.535,-134.333 547.868,-138 544.202,-138"/>
<text text-anchor="middle" x="515" y="-123.4" font-family="Helvetica,sans-Serif" font-size="12.00" fill="white">IntegerType</text>
</a>
</g>
</g>
<!-- SignedIntegerType -->
<g id="node15" class="node">
<g id="a_node15"><a xlink:href="/v2.1/protocol/SignedIntegerType/" target="_top">
<path fill="#999999" stroke="#999999" d="M467.727,-80C467.727,-80 372.273,-80 372.273,-80 368.606,-80 364.94,-76.3333 364.94,-72.6667 364.94,-72.6667 364.94,-65.3333 364.94,-65.3333 364.94,-61.6667 368.606,-58 372.273,-58 372.273,-58 467.727,-58 467.727,-58 471.394,-58 475.06,-61.6667 475.06,-65.3333 475.06,-65.3333 475.06,-72.6667 475.06,-72.6667 475.06,-76.3333 471.394,-80 467.727,-80"/>
<text text-anchor="middle" x="420" y="-65.4" font-family="Helvetica,sans-Serif" font-size="12.00" fill="white">SignedIntegerType</text>
</a>
</g>
</g>
<!-- IntegerType&#45;&gt;SignedIntegerType -->
<g id="edge18" class="edge">
<path fill="none" stroke="#cccccc" d="M498.016,-115.988C483.516,-107.441 462.437,-95.0155 445.844,-85.2343"/>
<polygon fill="#cccccc" stroke="#cccccc" points="447.549,-82.1768 437.157,-80.1138 443.995,-88.2071 447.549,-82.1768"/>
</g>
<!-- UnsignedIntegerType -->
<g id="node24" class="node">
<g id="a_node24"><a xlink:href="/v2.1/protocol/UnsignedIntegerType/" target="_top">
<path fill="#999999" stroke="#999999" d="M800.728,-80C800.728,-80 691.272,-80 691.272,-80 687.605,-80 683.938,-76.3333 683.938,-72.6667 683.938,-72.6667 683.938,-65.3333 683.938,-65.3333 683.938,-61.6667 687.605,-58 691.272,-58 691.272,-58 800.728,-58 800.728,-58 804.395,-58 808.062,-61.6667 808.062,-65.3333 808.062,-65.3333 808.062,-72.6667 808.062,-72.6667 808.062,-76.3333 804.395,-80 800.728,-80"/>
<text text-anchor="middle" x="746" y="-65.4" font-family="Helvetica,sans-Serif" font-size="12.00" fill="white">UnsignedIntegerType</text>
</a>
</g>
</g>
<!-- IntegerType&#45;&gt;UnsignedIntegerType -->
<g id="edge19" class="edge">
<path fill="none" stroke="#cccccc" d="M551.348,-117.188C589.893,-107.844 651.099,-93.0064 694.579,-82.4657"/>
<polygon fill="#cccccc" stroke="#cccccc" points="695.504,-85.8429 704.398,-80.0853 693.855,-79.0399 695.504,-85.8429"/>
</g>
<!-- RandomAccessIndexType&#45;&gt;AnyRandomAccessIndex -->
<g id="edge1" class="edge">
<path fill="none" stroke="#cccccc" d="M524.593,-180.566C461.252,-175.841 368.616,-164.623 292,-138 213.864,-110.849 131.886,-55.6574 93.8164,-28.2276"/>
<polygon fill="#cccccc" stroke="#cccccc" points="95.6758,-25.2519 85.5317,-22.1945 91.5551,-30.9106 95.6758,-25.2519"/>
</g>
<!-- RandomAccessIndexType&#45;&gt;Bit -->
<g id="edge2" class="edge">
<path fill="none" stroke="#cccccc" d="M524.482,-182.811C474.985,-178.982 410.29,-167.911 361,-138 317.645,-111.691 285.481,-59.308 270.446,-31.0791"/>
<polygon fill="#cccccc" stroke="#cccccc" points="273.55,-29.4627 265.852,-22.1838 267.331,-32.6749 273.55,-29.4627"/>
</g>
<!-- RandomAccessIndexType&#45;&gt;Int -->
<g id="edge3" class="edge">
<path fill="none" stroke="#cccccc" d="M524.584,-182.287C468.617,-178.447 391.348,-167.583 330,-138 275.6,-111.767 226.57,-58.1679 203.286,-30.0821"/>
<polygon fill="#cccccc" stroke="#cccccc" points="205.935,-27.792 196.909,-22.2435 200.505,-32.2095 205.935,-27.792"/>
</g>
<!-- RandomAccessIndexType&#45;&gt;Int16 -->
<g id="edge4" class="edge">
<path fill="none" stroke="#cccccc" d="M524.622,-182.284C480.576,-177.992 425.625,-166.607 385,-138 350.154,-113.462 338.601,-61.0914 334.813,-32.1918"/>
<polygon fill="#cccccc" stroke="#cccccc" points="338.268,-31.5932 333.679,-22.0438 331.312,-32.3707 338.268,-31.5932"/>
</g>
<!-- RandomAccessIndexType&#45;&gt;Int32 -->
<g id="edge5" class="edge">
<path fill="none" stroke="#cccccc" d="M524.589,-175.303C466.79,-164.083 390.804,-138.454 356,-80 344.996,-61.5192 363.035,-41.7098 380.247,-28.2672"/>
<polygon fill="#cccccc" stroke="#cccccc" points="382.507,-30.9504 388.499,-22.2132 378.366,-25.3063 382.507,-30.9504"/>
</g>
<!-- RandomAccessIndexType&#45;&gt;Int64 -->
<g id="edge6" class="edge">
<path fill="none" stroke="#cccccc" d="M524.317,-174.128C502.969,-167.46 481.99,-156.376 469,-138 463.356,-130.016 467.082,-125.588 469,-116 472.399,-99.0033 480.601,-96.9967 484,-80 485.918,-70.4121 484.738,-67.7499 484,-58 483.355,-49.4717 482.046,-40.1296 480.733,-32.1055"/>
<polygon fill="#cccccc" stroke="#cccccc" points="484.168,-31.4304 479.001,-22.1807 477.272,-32.6335 484.168,-31.4304"/>
</g>
<!-- RandomAccessIndexType&#45;&gt;Int8 -->
<g id="edge7" class="edge">
<path fill="none" stroke="#cccccc" d="M596.022,-173.756C587.947,-145.978 565.526,-68.848 554.826,-32.0425"/>
<polygon fill="#cccccc" stroke="#cccccc" points="558.178,-31.0336 552.026,-22.4081 551.456,-32.9876 558.178,-31.0336"/>
</g>
<!-- RandomAccessIndexType&#45;&gt;IntegerType -->
<g id="edge8" class="edge">
<path fill="none" stroke="#cccccc" d="M583.982,-173.988C571.399,-165.599 553.211,-153.474 538.671,-143.78"/>
<polygon fill="#cccccc" stroke="#cccccc" points="540.433,-140.749 530.171,-138.114 536.55,-146.573 540.433,-140.749"/>
</g>
<!-- ReverseRandomAccessIndex -->
<g id="node14" class="node">
<g id="a_node14"><a xlink:href="/v2.1/type/ReverseRandomAccessIndex/" target="_top">
<polygon fill="#999999" stroke="#999999" points="1122.06,-22 953.944,-22 953.944,-0 1122.06,-0 1122.06,-22"/>
<text text-anchor="middle" x="1038" y="-7.4" font-family="Helvetica,sans-Serif" font-size="12.00" fill="white">ReverseRandomAccessIndex</text>
</a>
</g>
</g>
<!-- RandomAccessIndexType&#45;&gt;ReverseRandomAccessIndex -->
<g id="edge9" class="edge">
<path fill="none" stroke="#cccccc" d="M673.367,-177.403C722.564,-171.248 787.755,-159.617 842,-138 912.027,-110.094 983.96,-56.0515 1017.92,-28.7094"/>
<polygon fill="#cccccc" stroke="#cccccc" points="1020.54,-31.0864 1026.08,-22.0567 1016.12,-25.6595 1020.54,-31.0864"/>
</g>
<!-- UInt -->
<g id="node17" class="node">
<g id="a_node17"><a xlink:href="/v2.1/type/UInt/" target="_top">
<polygon fill="#999999" stroke="#999999" points="648,-22 594,-22 594,-0 648,-0 648,-22"/>
<text text-anchor="middle" x="621" y="-7.4" font-family="Helvetica,sans-Serif" font-size="12.00" fill="white">UInt</text>
</a>
</g>
</g>
<!-- RandomAccessIndexType&#45;&gt;UInt -->
<g id="edge10" class="edge">
<path fill="none" stroke="#cccccc" d="M600.31,-173.756C603.848,-146.097 613.644,-69.5091 618.376,-32.5186"/>
<polygon fill="#cccccc" stroke="#cccccc" points="621.872,-32.7714 619.669,-22.4081 614.928,-31.8832 621.872,-32.7714"/>
</g>
<!-- UInt16 -->
<g id="node18" class="node">
<g id="a_node18"><a xlink:href="/v2.1/type/UInt16/" target="_top">
<polygon fill="#999999" stroke="#999999" points="720,-22 666,-22 666,-0 720,-0 720,-22"/>
<text text-anchor="middle" x="693" y="-7.4" font-family="Helvetica,sans-Serif" font-size="12.00" fill="white">UInt16</text>
</a>
</g>
</g>
<!-- RandomAccessIndexType&#45;&gt;UInt16 -->
<g id="edge11" class="edge">
<path fill="none" stroke="#cccccc" d="M604.599,-173.756C619.845,-145.859 662.294,-68.185 682.304,-31.5708"/>
<polygon fill="#cccccc" stroke="#cccccc" points="685.587,-32.8616 687.312,-22.4081 679.445,-29.5046 685.587,-32.8616"/>
</g>
<!-- UInt32 -->
<g id="node19" class="node">
<g id="a_node19"><a xlink:href="/v2.1/type/UInt32/" target="_top">
<polygon fill="#999999" stroke="#999999" points="792,-22 738,-22 738,-0 792,-0 792,-22"/>
<text text-anchor="middle" x="765" y="-7.4" font-family="Helvetica,sans-Serif" font-size="12.00" fill="white">UInt32</text>
</a>
</g>
</g>
<!-- RandomAccessIndexType&#45;&gt;UInt32 -->
<g id="edge12" class="edge">
<path fill="none" stroke="#cccccc" d="M657.327,-173.998C709.248,-161.672 782.207,-135.148 817,-80 828.828,-61.2521 809.221,-41.2668 790.794,-27.8503"/>
<polygon fill="#cccccc" stroke="#cccccc" points="792.753,-24.9499 782.527,-22.1763 788.791,-30.7212 792.753,-24.9499"/>
</g>
<!-- UInt64 -->
<g id="node20" class="node">
<g id="a_node20"><a xlink:href="/v2.1/type/UInt64/" target="_top">
<polygon fill="#999999" stroke="#999999" points="864,-22 810,-22 810,-0 864,-0 864,-22"/>
<text text-anchor="middle" x="837" y="-7.4" font-family="Helvetica,sans-Serif" font-size="12.00" fill="white">UInt64</text>
</a>
</g>
</g>
<!-- RandomAccessIndexType&#45;&gt;UInt64 -->
<g id="edge13" class="edge">
<path fill="none" stroke="#cccccc" d="M673.448,-176.593C709.291,-170.383 751.622,-158.97 785,-138 813.333,-120.199 820.743,-111.135 833,-80 839.016,-64.7183 839.682,-46.0052 839.032,-32.0809"/>
<polygon fill="#cccccc" stroke="#cccccc" points="842.522,-31.8172 838.306,-22.0976 835.541,-32.3252 842.522,-31.8172"/>
</g>
<!-- UInt8 -->
<g id="node21" class="node">
<g id="a_node21"><a xlink:href="/v2.1/type/UInt8/" target="_top">
<polygon fill="#999999" stroke="#999999" points="936,-22 882,-22 882,-0 936,-0 936,-22"/>
<text text-anchor="middle" x="909" y="-7.4" font-family="Helvetica,sans-Serif" font-size="12.00" fill="white">UInt8</text>
</a>
</g>
</g>
<!-- RandomAccessIndexType&#45;&gt;UInt8 -->
<g id="edge14" class="edge">
<path fill="none" stroke="#cccccc" d="M673.576,-180.932C717.374,-176.13 772.163,-164.685 814,-138 855.76,-111.365 885.918,-59.5058 900.033,-31.336"/>
<polygon fill="#cccccc" stroke="#cccccc" points="903.288,-32.6454 904.5,-22.1201 896.989,-29.5927 903.288,-32.6454"/>
</g>
<!-- UnsafeMutablePointer -->
<g id="node22" class="node">
<g id="a_node22"><a xlink:href="/v2.1/type/UnsafeMutablePointer/" target="_top">
<polygon fill="#999999" stroke="#999999" points="1268.05,-22 1139.95,-22 1139.95,-0 1268.05,-0 1268.05,-22"/>
<text text-anchor="middle" x="1204" y="-7.4" font-family="Helvetica,sans-Serif" font-size="12.00" fill="white">UnsafeMutablePointer</text>
</a>
</g>
</g>
<!-- RandomAccessIndexType&#45;&gt;UnsafeMutablePointer -->
<g id="edge15" class="edge">
<path fill="none" stroke="#cccccc" d="M673.589,-176.011C730.524,-168.892 810.563,-156.671 879,-138 990.482,-107.585 1116.48,-52.4396 1173.31,-26.3794"/>
<polygon fill="#cccccc" stroke="#cccccc" points="1174.84,-29.5249 1182.46,-22.159 1171.91,-23.1682 1174.84,-29.5249"/>
</g>
<!-- UnsafePointer -->
<g id="node23" class="node">
<g id="a_node23"><a xlink:href="/v2.1/type/UnsafePointer/" target="_top">
<polygon fill="#999999" stroke="#999999" points="1372.03,-22 1285.97,-22 1285.97,-0 1372.03,-0 1372.03,-22"/>
<text text-anchor="middle" x="1329" y="-7.4" font-family="Helvetica,sans-Serif" font-size="12.00" fill="white">UnsafePointer</text>
</a>
</g>
</g>
<!-- RandomAccessIndexType&#45;&gt;UnsafePointer -->
<g id="edge16" class="edge">
<path fill="none" stroke="#cccccc" d="M673.651,-177.007C740.338,-169.93 840.426,-157.261 926,-138 1063.69,-107.009 1222.22,-51.3651 1292.36,-25.6793"/>
<polygon fill="#cccccc" stroke="#cccccc" points="1293.88,-28.8505 1302.05,-22.1135 1291.46,-22.2808 1293.88,-28.8505"/>
</g>
<!-- SignedIntegerType&#45;&gt;Int -->
<g id="edge20" class="edge">
<path fill="none" stroke="#cccccc" d="M375.346,-57.9911C337.908,-49.4817 282.812,-36.6854 225.975,-22.1831"/>
<polygon fill="#cccccc" stroke="#cccccc" points="226.652,-18.7436 216.096,-19.6495 224.913,-25.5241 226.652,-18.7436"/>
</g>
<!-- SignedIntegerType&#45;&gt;Int16 -->
<g id="edge21" class="edge">
<path fill="none" stroke="#cccccc" d="M404.446,-57.9883C391.413,-49.5993 372.576,-37.4743 357.516,-27.7804"/>
<polygon fill="#cccccc" stroke="#cccccc" points="359.016,-24.5833 348.713,-22.1138 355.227,-30.4693 359.016,-24.5833"/>
</g>
<!-- SignedIntegerType&#45;&gt;Int32 -->
<g id="edge22" class="edge">
<path fill="none" stroke="#cccccc" d="M417.318,-57.9883C415.401,-50.8311 412.756,-40.9547 410.408,-32.1885"/>
<polygon fill="#cccccc" stroke="#cccccc" points="413.728,-31.0578 407.76,-22.3039 406.967,-32.869 413.728,-31.0578"/>
</g>
<!-- SignedIntegerType&#45;&gt;Int64 -->
<g id="edge23" class="edge">
<path fill="none" stroke="#cccccc" d="M430.19,-57.9883C438.276,-50.0446 449.771,-38.7512 459.346,-29.3439"/>
<polygon fill="#cccccc" stroke="#cccccc" points="461.832,-31.8088 466.512,-22.3039 456.926,-26.8154 461.832,-31.8088"/>
</g>
<!-- SignedIntegerType&#45;&gt;Int8 -->
<g id="edge24" class="edge">
<path fill="none" stroke="#cccccc" d="M443.063,-57.9883C463.481,-49.1244 493.508,-36.0897 516.384,-26.1587"/>
<polygon fill="#cccccc" stroke="#cccccc" points="517.923,-29.3065 525.702,-22.1138 515.135,-22.8854 517.923,-29.3065"/>
</g>
<!-- Strideable&#45;&gt;RandomAccessIndexType -->
<g id="edge31" class="edge">
<path fill="none" stroke="#cccccc" d="M499.124,-289.739C502.514,-275.444 510.314,-249.343 525,-232 536.066,-218.932 551.815,-208.426 565.942,-200.772"/>
<polygon fill="#cccccc" stroke="#cccccc" points="567.631,-203.839 574.926,-196.156 564.431,-197.613 567.631,-203.839"/>
</g>
<!-- UnsignedIntegerType&#45;&gt;UInt -->
<g id="edge25" class="edge">
<path fill="none" stroke="#cccccc" d="M723.653,-57.9883C703.955,-49.164 675.031,-36.206 652.902,-26.2919"/>
<polygon fill="#cccccc" stroke="#cccccc" points="654.132,-23.0082 643.575,-22.1138 651.271,-29.3964 654.132,-23.0082"/>
</g>
<!-- UnsignedIntegerType&#45;&gt;UInt16 -->
<g id="edge26" class="edge">
<path fill="none" stroke="#cccccc" d="M736.525,-57.9883C729.081,-50.1233 718.529,-38.9745 709.68,-29.6239"/>
<polygon fill="#cccccc" stroke="#cccccc" points="712.168,-27.161 702.752,-22.3039 707.084,-31.9727 712.168,-27.161"/>
</g>
<!-- UnsignedIntegerType&#45;&gt;UInt32 -->
<g id="edge27" class="edge">
<path fill="none" stroke="#cccccc" d="M749.397,-57.9883C751.852,-50.7525 755.25,-40.7373 758.248,-31.9"/>
<polygon fill="#cccccc" stroke="#cccccc" points="761.605,-32.8982 761.504,-22.3039 754.977,-30.6491 761.605,-32.8982"/>
</g>
<!-- UnsignedIntegerType&#45;&gt;UInt64 -->
<g id="edge28" class="edge">
<path fill="none" stroke="#cccccc" d="M762.269,-57.9883C776.03,-49.5201 795.977,-37.2452 811.802,-27.5067"/>
<polygon fill="#cccccc" stroke="#cccccc" points="813.883,-30.3356 820.565,-22.1138 810.214,-24.374 813.883,-30.3356"/>
</g>
<!-- UnsignedIntegerType&#45;&gt;UInt8 -->
<g id="edge29" class="edge">
<path fill="none" stroke="#cccccc" d="M775.141,-57.9883C802.291,-48.6609 842.883,-34.715 872.246,-24.6272"/>
<polygon fill="#cccccc" stroke="#cccccc" points="873.417,-27.9256 881.738,-21.3662 871.143,-21.3054 873.417,-27.9256"/>
</g>
<!-- _Incrementable&#45;&gt;ForwardIndexType -->
<g id="edge34" class="edge">
<path fill="none" stroke="#cccccc" d="M602,-347.988C602,-340.91 602,-331.171 602,-322.478"/>
<polygon fill="#cccccc" stroke="#cccccc" points="605.5,-322.304 602,-312.304 598.5,-322.304 605.5,-322.304"/>
</g>
<!-- _RandomAccessAmbiguity -->
<g id="node26" class="node">
<g id="a_node26"><a xlink:href="/v2.1/protocol/_RandomAccessAmbiguity/" target="_top">
<path fill="#999999" stroke="#999999" d="M828.214,-254C828.214,-254 689.786,-254 689.786,-254 686.12,-254 682.453,-250.333 682.453,-246.667 682.453,-246.667 682.453,-239.333 682.453,-239.333 682.453,-235.667 686.12,-232 689.786,-232 689.786,-232 828.214,-232 828.214,-232 831.88,-232 835.547,-235.667 835.547,-239.333 835.547,-239.333 835.547,-246.667 835.547,-246.667 835.547,-250.333 831.88,-254 828.214,-254"/>
<text text-anchor="middle" x="759" y="-239.4" font-family="Helvetica,sans-Serif" font-size="12.00" fill="white">_RandomAccessAmbiguity</text>
</a>
</g>
</g>
<!-- _RandomAccessAmbiguity&#45;&gt;RandomAccessIndexType -->
<g id="edge32" class="edge">
<path fill="none" stroke="#cccccc" d="M730.395,-231.988C704.424,-222.898 665.921,-209.422 637.301,-199.405"/>
<polygon fill="#cccccc" stroke="#cccccc" points="638.221,-196.019 627.626,-196.019 635.909,-202.626 638.221,-196.019"/>
</g>
<!-- _Strideable -->
<g id="node27" class="node">
<g id="a_node27"><a xlink:href="/v2.1/protocol/_Strideable/" target="_top">
<path fill="#999999" stroke="#999999" d="M529.7,-370C529.7,-370 474.3,-370 474.3,-370 470.634,-370 466.967,-366.333 466.967,-362.667 466.967,-362.667 466.967,-355.333 466.967,-355.333 466.967,-351.667 470.634,-348 474.3,-348 474.3,-348 529.7,-348 529.7,-348 533.366,-348 537.033,-351.667 537.033,-355.333 537.033,-355.333 537.033,-362.667 537.033,-362.667 537.033,-366.333 533.366,-370 529.7,-370"/>
<text text-anchor="middle" x="502" y="-355.4" font-family="Helvetica,sans-Serif" font-size="12.00" fill="white">_Strideable</text>
</a>
</g>
</g>
<!-- _Strideable&#45;&gt;Strideable -->
<g id="edge37" class="edge">
<path fill="none" stroke="#cccccc" d="M501.106,-347.988C500.474,-340.91 499.605,-331.171 498.828,-322.478"/>
<polygon fill="#cccccc" stroke="#cccccc" points="502.296,-321.953 497.92,-312.304 495.323,-322.576 502.296,-321.953"/>
</g>
</g>
</svg>
