<?xml version="1.0" encoding="UTF-8" standalone="no"?>
<!DOCTYPE svg PUBLIC "-//W3C//DTD SVG 1.1//EN"
 "http://www.w3.org/Graphics/SVG/1.1/DTD/svg11.dtd">
<!-- Generated by graphviz version 2.36.0 (20140111.2315)
 -->
<!-- Title: CustomStringConvertible &#45; Type Hierarchy &#45; SwiftDoc.org Pages: 1 -->
<svg width="2653pt" height="369pt"
 viewBox="0.00 0.00 2653.40 369.20" xmlns="http://www.w3.org/2000/svg" xmlns:xlink="http://www.w3.org/1999/xlink">
<g id="graph0" class="graph" transform="scale(1 1) rotate(0) translate(7.2 311.6)">
<g transform="translate(0 -311.6)">
<g>
    <path fill="#666666" d="M13.846,10.832c-0.336-0.464-0.792-0.844-1.368-1.14s-1.224-0.444-1.944-0.444
        c-0.384,0-0.772,0.052-1.164,0.156C8.977,9.509,8.622,9.677,8.301,9.908c-0.32,0.232-0.58,0.52-0.78,0.864
        c-0.2,0.344-0.3,0.756-0.3,1.236c0,0.464,0.092,0.852,0.276,1.164c0.184,0.312,0.432,0.576,0.744,0.792s0.68,0.4,1.104,0.552
        c0.423,0.152,0.876,0.309,1.356,0.468c0.576,0.177,1.16,0.376,1.752,0.601c0.592,0.224,1.128,0.52,1.608,0.888
        s0.872,0.828,1.176,1.38s0.456,1.252,0.456,2.101c0,0.88-0.164,1.644-0.492,2.292c-0.328,0.647-0.765,1.184-1.308,1.607
        c-0.544,0.424-1.172,0.74-1.884,0.948s-1.444,0.312-2.196,0.312c-1.072,0-2.108-0.208-3.108-0.624
        c-1-0.415-1.828-1.031-2.484-1.848l1.848-1.56c0.4,0.592,0.936,1.071,1.608,1.439c0.672,0.368,1.399,0.552,2.184,0.552
        c0.4,0,0.8-0.056,1.2-0.168c0.4-0.111,0.764-0.288,1.092-0.527c0.328-0.24,0.596-0.54,0.804-0.9
        c0.208-0.36,0.312-0.796,0.312-1.308s-0.108-0.94-0.324-1.284c-0.216-0.344-0.508-0.636-0.876-0.876s-0.796-0.444-1.284-0.612
        c-0.488-0.168-1.004-0.34-1.548-0.516c-0.544-0.16-1.08-0.356-1.608-0.588c-0.528-0.232-1-0.528-1.416-0.889
        c-0.416-0.359-0.752-0.804-1.008-1.332c-0.256-0.527-0.384-1.184-0.384-1.968c0-0.848,0.172-1.576,0.516-2.184
        c0.344-0.608,0.792-1.112,1.344-1.512c0.552-0.4,1.176-0.692,1.872-0.876c0.696-0.184,1.396-0.276,2.1-0.276
        c0.992,0,1.92,0.176,2.784,0.528c0.864,0.352,1.56,0.824,2.088,1.416L13.846,10.832z"/>
    <path fill="#666666" d="M18.813,13.304l2.568,8.688h0.048l2.712-8.688h2.376l2.76,8.688h0.048l2.568-8.688h2.376L30.501,24.68
        h-2.352l-2.808-8.544h-0.048l-2.784,8.544h-2.352l-3.792-11.376H18.813z"/>
    <path fill="#666666" d="M38.685,9.2c0,0.416-0.147,0.76-0.44,1.032c-0.294,0.272-0.647,0.408-1.06,0.408s-0.762-0.14-1.047-0.42
        c-0.286-0.28-0.429-0.62-0.429-1.02c0-0.416,0.143-0.764,0.429-1.044c0.286-0.28,0.635-0.42,1.047-0.42s0.766,0.14,1.06,0.42
        C38.538,8.437,38.685,8.784,38.685,9.2z M38.325,24.68h-2.256V13.304h2.256V24.68z"/>
    <path fill="#666666" d="M47.613,15.152h-2.64v9.528h-2.256v-9.528h-2.256v-1.848h2.256v-2.376c0-0.672,0.076-1.292,0.228-1.86
        c0.152-0.568,0.4-1.06,0.744-1.476c0.344-0.416,0.784-0.744,1.32-0.984c0.536-0.24,1.188-0.36,1.956-0.36
        c0.544,0,1.016,0.056,1.416,0.168l-0.264,1.944c-0.176-0.048-0.352-0.088-0.528-0.12c-0.176-0.032-0.376-0.048-0.6-0.048
        c-0.432,0-0.78,0.076-1.044,0.228c-0.264,0.152-0.468,0.356-0.612,0.612s-0.24,0.548-0.288,0.876
        c-0.048,0.328-0.072,0.668-0.072,1.02v2.376h2.64V15.152z"/>
    <path fill="#666666" d="M54.909,15.152h-3.024v5.91c0,0.687,0.128,1.177,0.384,1.472c0.256,0.295,0.664,0.442,1.224,0.442
        c0.208,0,0.432-0.021,0.672-0.065c0.24-0.044,0.456-0.11,0.648-0.198l0.072,1.848c-0.272,0.096-0.572,0.172-0.9,0.229
        c-0.328,0.056-0.668,0.084-1.02,0.084c-1.072,0-1.892-0.296-2.46-0.889c-0.568-0.592-0.852-1.479-0.852-2.664v-6.168h-2.184
        v-1.848h2.184V10.04h2.232v3.264h3.024V15.152z"/>
    <path fill="#666666" d="M57.356,7.688h5.832c1.088,0,2.176,0.16,3.264,0.48c1.088,0.32,2.072,0.824,2.952,1.512
        s1.592,1.568,2.136,2.64c0.544,1.072,0.816,2.36,0.816,3.864c0,1.456-0.272,2.716-0.816,3.78s-1.256,1.943-2.136,2.64
        s-1.864,1.216-2.952,1.561c-1.088,0.344-2.176,0.516-3.264,0.516h-5.832V7.688z M59.732,22.593h2.976
        c1.024,0,1.972-0.145,2.844-0.432c0.872-0.288,1.624-0.704,2.256-1.248c0.632-0.544,1.124-1.216,1.476-2.017
        c0.352-0.8,0.528-1.704,0.528-2.712c0-1.056-0.176-1.983-0.528-2.784c-0.353-0.8-0.844-1.468-1.476-2.004
        c-0.632-0.536-1.384-0.944-2.256-1.224s-1.82-0.42-2.844-0.42h-2.976V22.593z"/>
    <path fill="#666666" d="M86.06,18.969c0,0.88-0.156,1.688-0.468,2.424c-0.312,0.736-0.744,1.372-1.296,1.908
        c-0.552,0.536-1.204,0.952-1.956,1.248c-0.752,0.296-1.56,0.443-2.424,0.443c-0.864,0-1.672-0.147-2.424-0.443
        c-0.752-0.296-1.4-0.712-1.944-1.248c-0.544-0.536-0.972-1.172-1.284-1.908c-0.312-0.735-0.468-1.544-0.468-2.424
        s0.156-1.684,0.468-2.412c0.312-0.728,0.74-1.356,1.284-1.884c0.543-0.528,1.191-0.939,1.944-1.236
        c0.752-0.296,1.56-0.444,2.424-0.444c0.864,0,1.672,0.148,2.424,0.444c0.752,0.297,1.404,0.708,1.956,1.236
        c0.552,0.527,0.984,1.156,1.296,1.884C85.904,17.285,86.06,18.089,86.06,18.969z M83.708,18.98c0-0.542-0.084-1.061-0.252-1.556
        c-0.169-0.494-0.414-0.929-0.734-1.304s-0.718-0.674-1.192-0.897s-1.015-0.335-1.625-0.335c-0.61,0-1.152,0.111-1.625,0.335
        c-0.474,0.224-0.871,0.522-1.191,0.897c-0.321,0.375-0.566,0.81-0.734,1.304C76.184,17.92,76.1,18.438,76.1,18.98
        c0,0.543,0.084,1.062,0.253,1.556c0.168,0.495,0.413,0.934,0.734,1.316c0.321,0.383,0.718,0.686,1.191,0.909
        c0.473,0.224,1.015,0.335,1.625,0.335c0.61,0,1.151-0.111,1.625-0.335s0.871-0.526,1.192-0.909s0.565-0.821,0.734-1.316
        C83.624,20.042,83.708,19.523,83.708,18.98z"/>
    <path fill="#666666" d="M96.428,16.184c-0.24-0.368-0.6-0.676-1.08-0.924s-0.992-0.372-1.536-0.372
        c-0.592,0-1.116,0.112-1.572,0.336c-0.456,0.225-0.844,0.524-1.164,0.9c-0.32,0.376-0.564,0.812-0.732,1.308
        s-0.252,1.017-0.252,1.56c0,0.545,0.084,1.064,0.252,1.561s0.412,0.933,0.732,1.308c0.32,0.376,0.712,0.677,1.176,0.9
        c0.464,0.225,0.992,0.336,1.584,0.336c0.576,0,1.1-0.111,1.572-0.336c0.472-0.224,0.86-0.528,1.164-0.912l1.512,1.368
        c-0.48,0.561-1.08,0.996-1.8,1.308c-0.72,0.312-1.536,0.468-2.448,0.468c-0.88,0-1.692-0.144-2.436-0.432
        c-0.744-0.288-1.388-0.691-1.932-1.212c-0.544-0.52-0.972-1.147-1.284-1.884s-0.468-1.561-0.468-2.473
        c0-0.896,0.152-1.711,0.456-2.447c0.304-0.736,0.728-1.368,1.272-1.896c0.543-0.527,1.188-0.936,1.932-1.224
        c0.744-0.288,1.548-0.433,2.412-0.433c0.8,0,1.596,0.16,2.388,0.48s1.419,0.784,1.884,1.392L96.428,16.184z"/>
    <path fill="#666666" d="M103.1,23.24c0,0.417-0.152,0.784-0.456,1.104c-0.304,0.32-0.688,0.479-1.152,0.479
        c-0.448,0-0.828-0.155-1.14-0.468c-0.312-0.312-0.468-0.676-0.468-1.092c0-0.432,0.152-0.804,0.456-1.116
        c0.304-0.312,0.688-0.468,1.152-0.468c0.464,0,0.848,0.152,1.152,0.456C102.947,22.44,103.1,22.808,103.1,23.24z"/>
    <path fill="#666666" d="M116.635,18.969c0,0.88-0.156,1.688-0.468,2.424c-0.312,0.736-0.744,1.372-1.296,1.908
        c-0.552,0.536-1.204,0.952-1.956,1.248c-0.752,0.296-1.56,0.443-2.424,0.443c-0.864,0-1.672-0.147-2.424-0.443
        c-0.752-0.296-1.4-0.712-1.944-1.248c-0.544-0.536-0.972-1.172-1.284-1.908c-0.312-0.735-0.468-1.544-0.468-2.424
        s0.156-1.684,0.468-2.412c0.312-0.728,0.74-1.356,1.284-1.884c0.543-0.528,1.191-0.939,1.944-1.236
        c0.752-0.296,1.56-0.444,2.424-0.444c0.864,0,1.672,0.148,2.424,0.444c0.752,0.297,1.404,0.708,1.956,1.236
        c0.552,0.527,0.984,1.156,1.296,1.884C116.479,17.285,116.635,18.089,116.635,18.969z M114.283,18.98
        c0-0.542-0.084-1.061-0.252-1.556c-0.169-0.494-0.414-0.929-0.734-1.304s-0.718-0.674-1.192-0.897s-1.015-0.335-1.625-0.335
        c-0.61,0-1.152,0.111-1.625,0.335c-0.474,0.224-0.871,0.522-1.191,0.897c-0.321,0.375-0.566,0.81-0.734,1.304
        c-0.169,0.495-0.253,1.014-0.253,1.556c0,0.543,0.084,1.062,0.253,1.556c0.168,0.495,0.413,0.934,0.734,1.316
        c0.321,0.383,0.718,0.686,1.191,0.909c0.473,0.224,1.015,0.335,1.625,0.335c0.61,0,1.151-0.111,1.625-0.335
        s0.871-0.526,1.192-0.909s0.565-0.821,0.734-1.316C114.199,20.042,114.283,19.523,114.283,18.98z"/>
    <path fill="#666666" d="M119.251,14.577c-0.016-0.48-0.04-0.904-0.072-1.272h2.136c0.032,0.288,0.056,0.62,0.072,0.996
        c0.016,0.376,0.024,0.684,0.024,0.924h0.072c0.32-0.672,0.788-1.212,1.404-1.62c0.616-0.408,1.308-0.612,2.076-0.612
        c0.352,0,0.648,0.033,0.888,0.097l-0.096,2.088c-0.32-0.08-0.664-0.12-1.032-0.12c-0.544,0-1.016,0.101-1.416,0.3
        c-0.4,0.2-0.732,0.468-0.996,0.805c-0.264,0.336-0.46,0.724-0.588,1.163c-0.128,0.44-0.192,0.9-0.192,1.381v5.976h-2.256v-8.928
        C119.275,15.449,119.267,15.056,119.251,14.577z"/>
    <path fill="#666666" d="M128.419,26.625c0.496,0.56,1.116,1.008,1.86,1.344c0.744,0.336,1.508,0.504,2.292,0.504
        c0.752,0,1.384-0.108,1.896-0.324s0.924-0.512,1.236-0.888s0.536-0.82,0.672-1.332c0.136-0.513,0.204-1.064,0.204-1.656v-1.464
        h-0.048c-0.416,0.641-0.984,1.128-1.704,1.464c-0.72,0.336-1.488,0.504-2.304,0.504c-0.864,0-1.652-0.151-2.364-0.456
        c-0.712-0.304-1.316-0.72-1.812-1.248c-0.496-0.527-0.88-1.147-1.152-1.859s-0.408-1.477-0.408-2.292
        c0-0.816,0.136-1.584,0.408-2.305c0.272-0.72,0.656-1.348,1.152-1.884c0.496-0.535,1.096-0.96,1.8-1.271
        c0.704-0.312,1.488-0.469,2.352-0.469c0.816,0,1.596,0.177,2.34,0.528c0.744,0.353,1.332,0.888,1.764,1.608h0.048v-1.824h2.184
        v10.8c0,0.832-0.104,1.628-0.312,2.388c-0.208,0.76-0.56,1.433-1.056,2.017s-1.144,1.052-1.944,1.404
        c-0.8,0.352-1.792,0.527-2.976,0.527c-0.992,0-1.988-0.18-2.988-0.54c-1-0.359-1.86-0.868-2.58-1.523L128.419,26.625z
         M129.091,18.873c0,0.527,0.084,1.031,0.253,1.512c0.168,0.479,0.417,0.904,0.746,1.271c0.329,0.369,0.726,0.664,1.192,0.889
        c0.465,0.224,0.995,0.336,1.589,0.336c0.577,0,1.107-0.104,1.589-0.312c0.481-0.207,0.891-0.491,1.228-0.852
        s0.598-0.784,0.782-1.272c0.185-0.487,0.277-1.012,0.277-1.571c0-0.544-0.093-1.057-0.277-1.536
        c-0.185-0.48-0.449-0.904-0.794-1.272c-0.345-0.367-0.755-0.66-1.228-0.876c-0.474-0.216-1-0.324-1.577-0.324
        c-0.594,0-1.124,0.108-1.589,0.324c-0.466,0.216-0.863,0.504-1.192,0.864s-0.578,0.784-0.746,1.271
        C129.175,17.812,129.091,18.329,129.091,18.873z"/>
</g>
<g><a xlink:href="/" pointer-events="all" target="_top"><polygon fill="none" points="0,0 145,0 145,35 0,35 0,0"/></a></g>

</g>


<!-- Array -->
<g id="node1" class="node">
<g id="a_node1"><a xlink:href="/v2.1/type/Array/" target="_top">
<polygon fill="#999999" stroke="#999999" points="54,-22 0,-22 0,-0 54,-0 54,-22"/>
<text text-anchor="middle" x="27" y="-7.4" font-family="Helvetica,sans-Serif" font-size="12.00" fill="white">Array</text>
</a>
</g>
</g>
<!-- ArraySlice -->
<g id="node2" class="node">
<g id="a_node2"><a xlink:href="/v2.1/type/ArraySlice/" target="_top">
<polygon fill="#999999" stroke="#999999" points="136.011,-22 71.9886,-22 71.9886,-0 136.011,-0 136.011,-22"/>
<text text-anchor="middle" x="104" y="-7.4" font-family="Helvetica,sans-Serif" font-size="12.00" fill="white">ArraySlice</text>
</a>
</g>
</g>
<!-- Bit -->
<g id="node3" class="node">
<g id="a_node3"><a xlink:href="/v2.1/type/Bit/" target="_top">
<polygon fill="#999999" stroke="#999999" points="1169,-22 1115,-22 1115,-0 1169,-0 1169,-22"/>
<text text-anchor="middle" x="1142" y="-7.4" font-family="Helvetica,sans-Serif" font-size="12.00" fill="white">Bit</text>
</a>
</g>
</g>
<!-- Bool -->
<g id="node4" class="node">
<g id="a_node4"><a xlink:href="/v2.1/type/Bool/" target="_top">
<polygon fill="#999999" stroke="#999999" points="208,-22 154,-22 154,-0 208,-0 208,-22"/>
<text text-anchor="middle" x="181" y="-7.4" font-family="Helvetica,sans-Serif" font-size="12.00" fill="white">Bool</text>
</a>
</g>
</g>
<!-- ClosedInterval -->
<g id="node5" class="node">
<g id="a_node5"><a xlink:href="/v2.1/type/ClosedInterval/" target="_top">
<polygon fill="#999999" stroke="#999999" points="312.03,-22 225.97,-22 225.97,-0 312.03,-0 312.03,-22"/>
<text text-anchor="middle" x="269" y="-7.4" font-family="Helvetica,sans-Serif" font-size="12.00" fill="white">ClosedInterval</text>
</a>
</g>
</g>
<!-- ContiguousArray -->
<g id="node6" class="node">
<g id="a_node6"><a xlink:href="/v2.1/type/ContiguousArray/" target="_top">
<polygon fill="#999999" stroke="#999999" points="429.534,-22 330.466,-22 330.466,-0 429.534,-0 429.534,-22"/>
<text text-anchor="middle" x="380" y="-7.4" font-family="Helvetica,sans-Serif" font-size="12.00" fill="white">ContiguousArray</text>
</a>
</g>
</g>
<!-- CustomStringConvertible -->
<g id="node7" class="node">
<g id="a_node7"><a xlink:href="/v2.1/protocol/CustomStringConvertible/" target="_top">
<path fill="#ee543d" stroke="#ee543d" d="M1264.21,-254C1264.21,-254 1135.79,-254 1135.79,-254 1132.13,-254 1128.46,-250.333 1128.46,-246.667 1128.46,-246.667 1128.46,-239.333 1128.46,-239.333 1128.46,-235.667 1132.13,-232 1135.79,-232 1135.79,-232 1264.21,-232 1264.21,-232 1267.87,-232 1271.54,-235.667 1271.54,-239.333 1271.54,-239.333 1271.54,-246.667 1271.54,-246.667 1271.54,-250.333 1267.87,-254 1264.21,-254"/>
<text text-anchor="middle" x="1200" y="-239.4" font-family="Helvetica,sans-Serif" font-size="12.00" fill="white">CustomStringConvertible</text>
</a>
</g>
</g>
<!-- CustomStringConvertible&#45;&gt;Array -->
<g id="edge1" class="edge">
<path fill="none" stroke="#cccccc" d="M1128.55,-239.954C973.498,-235.092 610.426,-221.321 490,-196 416.388,-180.522 401.094,-165.296 331,-138 231.561,-99.2765 115.392,-49.9834 59.8437,-26.1592"/>
<polygon fill="#cccccc" stroke="#cccccc" points="61.0801,-22.8812 50.5104,-22.1512 58.3179,-29.3132 61.0801,-22.8812"/>
</g>
<!-- CustomStringConvertible&#45;&gt;ArraySlice -->
<g id="edge2" class="edge">
<path fill="none" stroke="#cccccc" d="M1128.62,-239.426C987.729,-233.905 678.588,-219.485 575,-196 400.421,-156.42 205.13,-63.1548 132.883,-26.8383"/>
<polygon fill="#cccccc" stroke="#cccccc" points="134.023,-23.4931 123.52,-22.1034 130.864,-29.7397 134.023,-23.4931"/>
</g>
<!-- CustomStringConvertible&#45;&gt;Bool -->
<g id="edge3" class="edge">
<path fill="none" stroke="#cccccc" d="M1128.32,-241.87C1022.96,-240.357 820.633,-232.405 653,-196 578.267,-179.77 562.439,-165.293 491,-138 389.633,-99.2733 271.155,-49.9816 214.499,-26.1585"/>
<polygon fill="#cccccc" stroke="#cccccc" points="215.555,-22.8053 204.98,-22.1507 212.838,-29.2568 215.555,-22.8053"/>
</g>
<!-- CustomStringConvertible&#45;&gt;ClosedInterval -->
<g id="edge4" class="edge">
<path fill="none" stroke="#cccccc" d="M1128.33,-241.268C1035.09,-238.899 867.697,-229.784 729,-196 558.993,-154.589 368.701,-62.8013 297.718,-26.8511"/>
<polygon fill="#cccccc" stroke="#cccccc" points="299.008,-23.5801 288.508,-22.16 295.831,-29.8176 299.008,-23.5801"/>
</g>
<!-- CustomStringConvertible&#45;&gt;ContiguousArray -->
<g id="edge5" class="edge">
<path fill="none" stroke="#cccccc" d="M1128.6,-240.293C1046.4,-236.875 907.918,-226.634 793,-196 730.295,-179.284 718.351,-164.245 659,-138 568.812,-98.1197 462.798,-49.8604 411.274,-26.3168"/>
<polygon fill="#cccccc" stroke="#cccccc" points="412.56,-23.0562 402.01,-22.0816 409.649,-29.4225 412.56,-23.0562"/>
</g>
<!-- Dictionary -->
<g id="node8" class="node">
<g id="a_node8"><a xlink:href="/v2.1/type/Dictionary/" target="_top">
<polygon fill="#999999" stroke="#999999" points="510.511,-22 447.489,-22 447.489,-0 510.511,-0 510.511,-22"/>
<text text-anchor="middle" x="479" y="-7.4" font-family="Helvetica,sans-Serif" font-size="12.00" fill="white">Dictionary</text>
</a>
</g>
</g>
<!-- CustomStringConvertible&#45;&gt;Dictionary -->
<g id="edge6" class="edge">
<path fill="none" stroke="#cccccc" d="M1128.38,-238.795C1058.06,-234.165 948.335,-222.955 857,-196 715.467,-154.231 561.716,-63.6684 503.327,-27.4379"/>
<polygon fill="#cccccc" stroke="#cccccc" points="505.127,-24.4354 494.791,-22.1055 501.418,-30.3722 505.127,-24.4354"/>
</g>
<!-- Double -->
<g id="node9" class="node">
<g id="a_node9"><a xlink:href="/v2.1/type/Double/" target="_top">
<polygon fill="#999999" stroke="#999999" points="583,-22 529,-22 529,-0 583,-0 583,-22"/>
<text text-anchor="middle" x="556" y="-7.4" font-family="Helvetica,sans-Serif" font-size="12.00" fill="white">Double</text>
</a>
</g>
</g>
<!-- CustomStringConvertible&#45;&gt;Double -->
<g id="edge7" class="edge">
<path fill="none" stroke="#cccccc" d="M1128.55,-236.154C1070.73,-230.049 987.734,-218.154 918,-196 782.749,-153.032 636.38,-63.8735 579.999,-27.7299"/>
<polygon fill="#cccccc" stroke="#cccccc" points="581.737,-24.6859 571.437,-22.2036 577.941,-30.5672 581.737,-24.6859"/>
</g>
<!-- Float -->
<g id="node10" class="node">
<g id="a_node10"><a xlink:href="/v2.1/type/Float/" target="_top">
<polygon fill="#999999" stroke="#999999" points="655,-22 601,-22 601,-0 655,-0 655,-22"/>
<text text-anchor="middle" x="628" y="-7.4" font-family="Helvetica,sans-Serif" font-size="12.00" fill="white">Float</text>
</a>
</g>
</g>
<!-- CustomStringConvertible&#45;&gt;Float -->
<g id="edge8" class="edge">
<path fill="none" stroke="#cccccc" d="M1128.59,-232.389C1084.15,-225.162 1026.28,-213.465 977,-196 847.618,-150.141 706.927,-63.321 651.923,-27.7753"/>
<polygon fill="#cccccc" stroke="#cccccc" points="653.547,-24.6566 643.256,-22.1389 649.731,-30.5249 653.547,-24.6566"/>
</g>
<!-- Float80 -->
<g id="node11" class="node">
<g id="a_node11"><a xlink:href="/v2.1/type/Float80/" target="_top">
<polygon fill="#999999" stroke="#999999" points="727,-22 673,-22 673,-0 727,-0 727,-22"/>
<text text-anchor="middle" x="700" y="-7.4" font-family="Helvetica,sans-Serif" font-size="12.00" fill="white">Float80</text>
</a>
</g>
</g>
<!-- CustomStringConvertible&#45;&gt;Float80 -->
<g id="edge9" class="edge">
<path fill="none" stroke="#cccccc" d="M1148.94,-231.987C1113.9,-224.26 1066.73,-212.155 1027,-196 906.603,-147.043 775.246,-62.6311 723.146,-27.7676"/>
<polygon fill="#cccccc" stroke="#cccccc" points="724.888,-24.7216 714.638,-22.0421 720.98,-30.529 724.888,-24.7216"/>
</g>
<!-- HalfOpenInterval -->
<g id="node12" class="node">
<g id="a_node12"><a xlink:href="/v2.1/type/HalfOpenInterval/" target="_top">
<polygon fill="#999999" stroke="#999999" points="845.035,-22 744.965,-22 744.965,-0 845.035,-0 845.035,-22"/>
<text text-anchor="middle" x="795" y="-7.4" font-family="Helvetica,sans-Serif" font-size="12.00" fill="white">HalfOpenInterval</text>
</a>
</g>
</g>
<!-- CustomStringConvertible&#45;&gt;HalfOpenInterval -->
<g id="edge10" class="edge">
<path fill="none" stroke="#cccccc" d="M1164.26,-231.996C1137.58,-223.903 1100.6,-211.348 1070,-196 968.428,-145.056 859.631,-62.98 815.421,-28.3009"/>
<polygon fill="#cccccc" stroke="#cccccc" points="817.48,-25.4671 807.461,-22.0203 813.144,-30.9624 817.48,-25.4671"/>
</g>
<!-- ImplicitlyUnwrappedOptional -->
<g id="node13" class="node">
<g id="a_node13"><a xlink:href="/v2.1/type/ImplicitlyUnwrappedOptional/" target="_top">
<polygon fill="#999999" stroke="#999999" points="1025.05,-22 862.949,-22 862.949,-0 1025.05,-0 1025.05,-22"/>
<text text-anchor="middle" x="944" y="-7.4" font-family="Helvetica,sans-Serif" font-size="12.00" fill="white">ImplicitlyUnwrappedOptional</text>
</a>
</g>
</g>
<!-- CustomStringConvertible&#45;&gt;ImplicitlyUnwrappedOptional -->
<g id="edge11" class="edge">
<path fill="none" stroke="#cccccc" d="M1168.12,-231.846C1146.93,-224.124 1119.21,-212.081 1098,-196 1033.71,-147.248 978.546,-66.9365 955.502,-30.7302"/>
<polygon fill="#cccccc" stroke="#cccccc" points="958.389,-28.746 950.11,-22.1345 952.459,-32.4657 958.389,-28.746"/>
</g>
<!-- Int -->
<g id="node14" class="node">
<g id="a_node14"><a xlink:href="/v2.1/type/Int/" target="_top">
<polygon fill="#999999" stroke="#999999" points="1097,-22 1043,-22 1043,-0 1097,-0 1097,-22"/>
<text text-anchor="middle" x="1070" y="-7.4" font-family="Helvetica,sans-Serif" font-size="12.00" fill="white">Int</text>
</a>
</g>
</g>
<!-- CustomStringConvertible&#45;&gt;Int -->
<g id="edge12" class="edge">
<path fill="none" stroke="#cccccc" d="M1167.76,-231.921C1149.7,-224.682 1128.22,-213.135 1115,-196 1076.93,-146.668 1070.56,-69.5535 1069.82,-32.8151"/>
<polygon fill="#cccccc" stroke="#cccccc" points="1073.32,-32.3668 1069.75,-22.3921 1066.32,-32.417 1073.32,-32.3668"/>
</g>
<!-- Int16 -->
<g id="node15" class="node">
<g id="a_node15"><a xlink:href="/v2.1/type/Int16/" target="_top">
<polygon fill="#999999" stroke="#999999" points="1241,-22 1187,-22 1187,-0 1241,-0 1241,-22"/>
<text text-anchor="middle" x="1214" y="-7.4" font-family="Helvetica,sans-Serif" font-size="12.00" fill="white">Int16</text>
</a>
</g>
</g>
<!-- CustomStringConvertible&#45;&gt;Int16 -->
<g id="edge13" class="edge">
<path fill="none" stroke="#cccccc" d="M1172.32,-231.899C1156.57,-224.553 1138.19,-212.904 1129,-196 1099.71,-142.115 1097.6,-110.689 1129,-58 1134.88,-48.125 1158.82,-35.6435 1179.8,-26.1744"/>
<polygon fill="#cccccc" stroke="#cccccc" points="1181.41,-29.2886 1189.15,-22.0558 1178.59,-22.882 1181.41,-29.2886"/>
</g>
<!-- Int32 -->
<g id="node16" class="node">
<g id="a_node16"><a xlink:href="/v2.1/type/Int32/" target="_top">
<polygon fill="#999999" stroke="#999999" points="1313,-22 1259,-22 1259,-0 1313,-0 1313,-22"/>
<text text-anchor="middle" x="1286" y="-7.4" font-family="Helvetica,sans-Serif" font-size="12.00" fill="white">Int32</text>
</a>
</g>
</g>
<!-- CustomStringConvertible&#45;&gt;Int32 -->
<g id="edge14" class="edge">
<path fill="none" stroke="#cccccc" d="M1189.71,-231.741C1181.79,-223.059 1171.45,-209.848 1167,-196 1148.22,-137.612 1132.32,-108.587 1167,-58 1171.94,-50.7981 1215.94,-35.0154 1249.01,-23.9553"/>
<polygon fill="#cccccc" stroke="#cccccc" points="1250.48,-27.157 1258.87,-20.6893 1248.28,-20.5123 1250.48,-27.157"/>
</g>
<!-- Int64 -->
<g id="node17" class="node">
<g id="a_node17"><a xlink:href="/v2.1/type/Int64/" target="_top">
<polygon fill="#999999" stroke="#999999" points="1385,-22 1331,-22 1331,-0 1385,-0 1385,-22"/>
<text text-anchor="middle" x="1358" y="-7.4" font-family="Helvetica,sans-Serif" font-size="12.00" fill="white">Int64</text>
</a>
</g>
</g>
<!-- CustomStringConvertible&#45;&gt;Int64 -->
<g id="edge15" class="edge">
<path fill="none" stroke="#cccccc" d="M1196.94,-231.789C1188.5,-201.377 1168.26,-110.278 1211,-58 1214.61,-53.5796 1278.85,-34.5799 1321.2,-22.4238"/>
<polygon fill="#cccccc" stroke="#cccccc" points="1322.27,-25.7583 1330.92,-19.6431 1320.34,-19.0282 1322.27,-25.7583"/>
</g>
<!-- Int8 -->
<g id="node18" class="node">
<g id="a_node18"><a xlink:href="/v2.1/type/Int8/" target="_top">
<polygon fill="#999999" stroke="#999999" points="1457,-22 1403,-22 1403,-0 1457,-0 1457,-22"/>
<text text-anchor="middle" x="1430" y="-7.4" font-family="Helvetica,sans-Serif" font-size="12.00" fill="white">Int8</text>
</a>
</g>
</g>
<!-- CustomStringConvertible&#45;&gt;Int8 -->
<g id="edge16" class="edge">
<path fill="none" stroke="#cccccc" d="M1200.12,-231.658C1200.97,-207.97 1206.34,-149.267 1238,-116 1270.85,-81.4794 1297,-102.515 1339,-80 1365.74,-65.6666 1393.2,-44.0061 1410.86,-28.9994"/>
<polygon fill="#cccccc" stroke="#cccccc" points="1413.42,-31.4145 1418.7,-22.2282 1408.84,-26.1178 1413.42,-31.4145"/>
</g>
<!-- Mirror -->
<g id="node20" class="node">
<g id="a_node20"><a xlink:href="/v2.1/type/Mirror/" target="_top">
<polygon fill="#999999" stroke="#999999" points="1889,-22 1835,-22 1835,-0 1889,-0 1889,-22"/>
<text text-anchor="middle" x="1862" y="-7.4" font-family="Helvetica,sans-Serif" font-size="12.00" fill="white">Mirror</text>
</a>
</g>
</g>
<!-- CustomStringConvertible&#45;&gt;Mirror -->
<g id="edge17" class="edge">
<path fill="none" stroke="#cccccc" d="M1271.61,-242.51C1396.15,-242.288 1646.65,-236.604 1723,-196 1792.11,-159.246 1836.74,-71.2979 1853.97,-31.7985"/>
<polygon fill="#cccccc" stroke="#cccccc" points="1857.25,-33.0144 1857.93,-22.441 1850.8,-30.2865 1857.25,-33.0144"/>
</g>
<!-- Range -->
<g id="node21" class="node">
<g id="a_node21"><a xlink:href="/v2.1/type/Range/" target="_top">
<polygon fill="#999999" stroke="#999999" points="1961,-22 1907,-22 1907,-0 1961,-0 1961,-22"/>
<text text-anchor="middle" x="1934" y="-7.4" font-family="Helvetica,sans-Serif" font-size="12.00" fill="white">Range</text>
</a>
</g>
</g>
<!-- CustomStringConvertible&#45;&gt;Range -->
<g id="edge18" class="edge">
<path fill="none" stroke="#cccccc" d="M1271.37,-241.968C1400.87,-240.946 1668.93,-234.12 1753,-196 1833.51,-159.492 1897.42,-69.9804 1922.51,-30.8383"/>
<polygon fill="#cccccc" stroke="#cccccc" points="1925.68,-32.3652 1928.04,-22.035 1919.75,-28.643 1925.68,-32.3652"/>
</g>
<!-- Set -->
<g id="node22" class="node">
<g id="a_node22"><a xlink:href="/v2.1/type/Set/" target="_top">
<polygon fill="#999999" stroke="#999999" points="2033,-22 1979,-22 1979,-0 2033,-0 2033,-22"/>
<text text-anchor="middle" x="2006" y="-7.4" font-family="Helvetica,sans-Serif" font-size="12.00" fill="white">Set</text>
</a>
</g>
</g>
<!-- CustomStringConvertible&#45;&gt;Set -->
<g id="edge19" class="edge">
<path fill="none" stroke="#cccccc" d="M1271.5,-241.413C1406.54,-239.483 1693.83,-231.229 1786,-196 1878.53,-160.63 1960.12,-69.1042 1991.88,-30.0696"/>
<polygon fill="#cccccc" stroke="#cccccc" points="1994.69,-32.1536 1998.22,-22.1607 1989.23,-27.7772 1994.69,-32.1536"/>
</g>
<!-- StaticString -->
<g id="node24" class="node">
<g id="a_node24"><a xlink:href="/v2.1/type/StaticString/" target="_top">
<polygon fill="#999999" stroke="#999999" points="2122.52,-22 2051.48,-22 2051.48,-0 2122.52,-0 2122.52,-22"/>
<text text-anchor="middle" x="2087" y="-7.4" font-family="Helvetica,sans-Serif" font-size="12.00" fill="white">StaticString</text>
</a>
</g>
</g>
<!-- CustomStringConvertible&#45;&gt;StaticString -->
<g id="edge20" class="edge">
<path fill="none" stroke="#cccccc" d="M1271.52,-241.129C1412.61,-238.69 1721.76,-229.568 1822,-196 1928.33,-160.392 2030.43,-67.9417 2069.88,-29.3356"/>
<polygon fill="#cccccc" stroke="#cccccc" points="2072.48,-31.6841 2077.12,-22.1594 2067.55,-26.7116 2072.48,-31.6841"/>
</g>
<!-- String.UTF16View -->
<g id="node25" class="node">
<g id="a_node25"><a xlink:href="/v2.1/type/String.UTF16View/" target="_top">
<polygon fill="#999999" stroke="#999999" points="2247.37,-22 2140.63,-22 2140.63,-0 2247.37,-0 2247.37,-22"/>
<text text-anchor="middle" x="2194" y="-7.4" font-family="Helvetica,sans-Serif" font-size="12.00" fill="white">String.UTF16View</text>
</a>
</g>
</g>
<!-- CustomStringConvertible&#45;&gt;String.UTF16View -->
<g id="edge29" class="edge">
<path fill="none" stroke="#cccccc" d="M1271.54,-240.88C1419.03,-237.941 1752.2,-227.886 1861,-196 1988.96,-158.5 2122.19,-65.7196 2172.8,-28.166"/>
<polygon fill="#cccccc" stroke="#cccccc" points="2175.1,-30.8184 2181,-22.0229 2170.9,-25.2152 2175.1,-30.8184"/>
</g>
<!-- String.UTF8View -->
<g id="node26" class="node">
<g id="a_node26"><a xlink:href="/v2.1/type/String.UTF8View/" target="_top">
<polygon fill="#999999" stroke="#999999" points="2366.36,-22 2265.64,-22 2265.64,-0 2366.36,-0 2366.36,-22"/>
<text text-anchor="middle" x="2316" y="-7.4" font-family="Helvetica,sans-Serif" font-size="12.00" fill="white">String.UTF8View</text>
</a>
</g>
</g>
<!-- CustomStringConvertible&#45;&gt;String.UTF8View -->
<g id="edge30" class="edge">
<path fill="none" stroke="#cccccc" d="M1271.38,-240.549C1425.79,-236.89 1786.47,-225.389 1905,-196 2059.1,-157.793 2227.34,-64.4175 2290.32,-27.4421"/>
<polygon fill="#cccccc" stroke="#cccccc" points="2292.35,-30.3112 2299.17,-22.2087 2288.78,-24.2857 2292.35,-30.3112"/>
</g>
<!-- String.UnicodeScalarView -->
<g id="node27" class="node">
<g id="a_node27"><a xlink:href="/v2.1/type/String.UnicodeScalarView/" target="_top">
<polygon fill="#999999" stroke="#999999" points="2532.89,-22 2385.11,-22 2385.11,-0 2532.89,-0 2532.89,-22"/>
<text text-anchor="middle" x="2459" y="-7.4" font-family="Helvetica,sans-Serif" font-size="12.00" fill="white">String.UnicodeScalarView</text>
</a>
</g>
</g>
<!-- CustomStringConvertible&#45;&gt;String.UnicodeScalarView -->
<g id="edge28" class="edge">
<path fill="none" stroke="#cccccc" d="M1271.38,-240.279C1433.56,-235.943 1825.72,-222.941 1955,-196 2141.7,-157.093 2352.15,-62.7252 2428.93,-26.496"/>
<polygon fill="#cccccc" stroke="#cccccc" points="2430.5,-29.6241 2438.04,-22.1754 2427.5,-23.2999 2430.5,-29.6241"/>
</g>
<!-- UInt -->
<g id="node28" class="node">
<g id="a_node28"><a xlink:href="/v2.1/type/UInt/" target="_top">
<polygon fill="#999999" stroke="#999999" points="1529,-22 1475,-22 1475,-0 1529,-0 1529,-22"/>
<text text-anchor="middle" x="1502" y="-7.4" font-family="Helvetica,sans-Serif" font-size="12.00" fill="white">UInt</text>
</a>
</g>
</g>
<!-- CustomStringConvertible&#45;&gt;UInt -->
<g id="edge21" class="edge">
<path fill="none" stroke="#cccccc" d="M1271.42,-237.073C1313.95,-231.614 1367.69,-220.132 1410,-196 1440.59,-178.549 1446.46,-168.542 1464,-138 1483.72,-103.654 1494.16,-58.049 1498.84,-32.1809"/>
<polygon fill="#cccccc" stroke="#cccccc" points="1502.33,-32.5386 1500.55,-22.0939 1495.43,-31.3671 1502.33,-32.5386"/>
</g>
<!-- UInt16 -->
<g id="node29" class="node">
<g id="a_node29"><a xlink:href="/v2.1/type/UInt16/" target="_top">
<polygon fill="#999999" stroke="#999999" points="1601,-22 1547,-22 1547,-0 1601,-0 1601,-22"/>
<text text-anchor="middle" x="1574" y="-7.4" font-family="Helvetica,sans-Serif" font-size="12.00" fill="white">UInt16</text>
</a>
</g>
</g>
<!-- CustomStringConvertible&#45;&gt;UInt16 -->
<g id="edge22" class="edge">
<path fill="none" stroke="#cccccc" d="M1271.77,-237.669C1395.25,-228.545 1639.58,-202.595 1691,-138 1707.97,-116.685 1681.85,-72.965 1668,-58 1652.66,-41.42 1630.05,-30.0947 1610.85,-22.8307"/>
<polygon fill="#cccccc" stroke="#cccccc" points="1611.77,-19.4437 1601.17,-19.396 1609.43,-26.0403 1611.77,-19.4437"/>
</g>
<!-- UInt32 -->
<g id="node30" class="node">
<g id="a_node30"><a xlink:href="/v2.1/type/UInt32/" target="_top">
<polygon fill="#999999" stroke="#999999" points="1673,-22 1619,-22 1619,-0 1673,-0 1673,-22"/>
<text text-anchor="middle" x="1646" y="-7.4" font-family="Helvetica,sans-Serif" font-size="12.00" fill="white">UInt32</text>
</a>
</g>
</g>
<!-- CustomStringConvertible&#45;&gt;UInt32 -->
<g id="edge23" class="edge">
<path fill="none" stroke="#cccccc" d="M1271.53,-237.849C1372.79,-231.328 1552.46,-217.198 1614,-196 1660.41,-180.011 1684.08,-180.868 1708,-138 1729.21,-99.9915 1690.68,-53.7163 1665.42,-29.19"/>
<polygon fill="#cccccc" stroke="#cccccc" points="1667.78,-26.6001 1658.09,-22.3098 1662.99,-31.7048 1667.78,-26.6001"/>
</g>
<!-- UInt64 -->
<g id="node31" class="node">
<g id="a_node31"><a xlink:href="/v2.1/type/UInt64/" target="_top">
<polygon fill="#999999" stroke="#999999" points="1745,-22 1691,-22 1691,-0 1745,-0 1745,-22"/>
<text text-anchor="middle" x="1718" y="-7.4" font-family="Helvetica,sans-Serif" font-size="12.00" fill="white">UInt64</text>
</a>
</g>
</g>
<!-- CustomStringConvertible&#45;&gt;UInt64 -->
<g id="edge24" class="edge">
<path fill="none" stroke="#cccccc" d="M1271.54,-240.079C1382.69,-236.218 1591.15,-225.226 1659,-196 1695.17,-180.42 1709.63,-173.822 1726,-138 1741.86,-103.286 1732.45,-57.5029 1724.8,-31.7684"/>
<polygon fill="#cccccc" stroke="#cccccc" points="1728.08,-30.5256 1721.71,-22.0575 1721.41,-32.648 1728.08,-30.5256"/>
</g>
<!-- UInt8 -->
<g id="node32" class="node">
<g id="a_node32"><a xlink:href="/v2.1/type/UInt8/" target="_top">
<polygon fill="#999999" stroke="#999999" points="1817,-22 1763,-22 1763,-0 1817,-0 1817,-22"/>
<text text-anchor="middle" x="1790" y="-7.4" font-family="Helvetica,sans-Serif" font-size="12.00" fill="white">UInt8</text>
</a>
</g>
</g>
<!-- CustomStringConvertible&#45;&gt;UInt8 -->
<g id="edge25" class="edge">
<path fill="none" stroke="#cccccc" d="M1271.76,-241.831C1390.59,-240.482 1622.23,-233.009 1694,-196 1756.64,-163.698 1779.6,-73.3321 1786.95,-32.4947"/>
<polygon fill="#cccccc" stroke="#cccccc" points="1790.45,-32.8173 1788.63,-22.3793 1783.54,-31.6715 1790.45,-32.8173"/>
</g>
<!-- UnicodeScalar -->
<g id="node33" class="node">
<g id="a_node33"><a xlink:href="/v2.1/type/UnicodeScalar/" target="_top">
<polygon fill="#999999" stroke="#999999" points="2639.03,-22 2550.97,-22 2550.97,-0 2639.03,-0 2639.03,-22"/>
<text text-anchor="middle" x="2595" y="-7.4" font-family="Helvetica,sans-Serif" font-size="12.00" fill="white">UnicodeScalar</text>
</a>
</g>
</g>
<!-- CustomStringConvertible&#45;&gt;UnicodeScalar -->
<g id="edge26" class="edge">
<path fill="none" stroke="#cccccc" d="M1271.64,-240.189C1442.79,-235.499 1871.7,-221.512 2013,-196 2098.63,-180.538 2116.99,-164.111 2200,-138 2329.52,-97.2575 2482.62,-48.1481 2554.24,-25.1214"/>
<polygon fill="#cccccc" stroke="#cccccc" points="2555.34,-28.4426 2563.79,-22.049 2553.2,-21.7788 2555.34,-28.4426"/>
</g>
<!-- _IntegerType -->
<g id="node36" class="node">
<g id="a_node36"><a xlink:href="/v2.1/protocol/_IntegerType/" target="_top">
<path fill="#999999" stroke="#999999" d="M1393.71,-196C1393.71,-196 1328.29,-196 1328.29,-196 1324.63,-196 1320.96,-192.333 1320.96,-188.667 1320.96,-188.667 1320.96,-181.333 1320.96,-181.333 1320.96,-177.667 1324.63,-174 1328.29,-174 1328.29,-174 1393.71,-174 1393.71,-174 1397.37,-174 1401.04,-177.667 1401.04,-181.333 1401.04,-181.333 1401.04,-188.667 1401.04,-188.667 1401.04,-192.333 1397.37,-196 1393.71,-196"/>
<text text-anchor="middle" x="1361" y="-181.4" font-family="Helvetica,sans-Serif" font-size="12.00" fill="white">_IntegerType</text>
</a>
</g>
</g>
<!-- CustomStringConvertible&#45;&gt;_IntegerType -->
<g id="edge27" class="edge">
<path fill="none" stroke="#cccccc" d="M1228.78,-231.988C1254.92,-222.898 1293.66,-209.422 1322.46,-199.405"/>
<polygon fill="#cccccc" stroke="#cccccc" points="1323.9,-202.61 1332.19,-196.019 1321.6,-195.999 1323.9,-202.61"/>
</g>
<!-- Int&#45;&gt;Bit -->
<g id="edge31" class="edge">
<path fill="none" stroke="#cccccc" d="M1097.28,-11C1099.74,-11 1102.19,-11 1104.65,-11"/>
<polygon fill="#cccccc" stroke="#cccccc" points="1104.75,-14.5001 1114.75,-11 1104.75,-7.5001 1104.75,-14.5001"/>
</g>
<!-- IntegerType -->
<g id="node19" class="node">
<g id="a_node19"><a xlink:href="/v2.1/protocol/IntegerType/" target="_top">
<path fill="#999999" stroke="#999999" d="M1448.2,-138C1448.2,-138 1389.8,-138 1389.8,-138 1386.13,-138 1382.47,-134.333 1382.47,-130.667 1382.47,-130.667 1382.47,-123.333 1382.47,-123.333 1382.47,-119.667 1386.13,-116 1389.8,-116 1389.8,-116 1448.2,-116 1448.2,-116 1451.87,-116 1455.53,-119.667 1455.53,-123.333 1455.53,-123.333 1455.53,-130.667 1455.53,-130.667 1455.53,-134.333 1451.87,-138 1448.2,-138"/>
<text text-anchor="middle" x="1419" y="-123.4" font-family="Helvetica,sans-Serif" font-size="12.00" fill="white">IntegerType</text>
</a>
</g>
</g>
<!-- SignedIntegerType -->
<g id="node23" class="node">
<g id="a_node23"><a xlink:href="/v2.1/protocol/SignedIntegerType/" target="_top">
<path fill="#999999" stroke="#999999" d="M1322.73,-80C1322.73,-80 1227.27,-80 1227.27,-80 1223.61,-80 1219.94,-76.3333 1219.94,-72.6667 1219.94,-72.6667 1219.94,-65.3333 1219.94,-65.3333 1219.94,-61.6667 1223.61,-58 1227.27,-58 1227.27,-58 1322.73,-58 1322.73,-58 1326.39,-58 1330.06,-61.6667 1330.06,-65.3333 1330.06,-65.3333 1330.06,-72.6667 1330.06,-72.6667 1330.06,-76.3333 1326.39,-80 1322.73,-80"/>
<text text-anchor="middle" x="1275" y="-65.4" font-family="Helvetica,sans-Serif" font-size="12.00" fill="white">SignedIntegerType</text>
</a>
</g>
</g>
<!-- IntegerType&#45;&gt;SignedIntegerType -->
<g id="edge35" class="edge">
<path fill="none" stroke="#cccccc" d="M1393.26,-115.988C1370.16,-107.006 1336.05,-93.7398 1310.39,-83.7614"/>
<polygon fill="#cccccc" stroke="#cccccc" points="1311.6,-80.4763 1301.01,-80.1138 1309.06,-87.0004 1311.6,-80.4763"/>
</g>
<!-- UnsignedIntegerType -->
<g id="node34" class="node">
<g id="a_node34"><a xlink:href="/v2.1/protocol/UnsignedIntegerType/" target="_top">
<path fill="#999999" stroke="#999999" d="M1651.73,-80C1651.73,-80 1542.27,-80 1542.27,-80 1538.61,-80 1534.94,-76.3333 1534.94,-72.6667 1534.94,-72.6667 1534.94,-65.3333 1534.94,-65.3333 1534.94,-61.6667 1538.61,-58 1542.27,-58 1542.27,-58 1651.73,-58 1651.73,-58 1655.39,-58 1659.06,-61.6667 1659.06,-65.3333 1659.06,-65.3333 1659.06,-72.6667 1659.06,-72.6667 1659.06,-76.3333 1655.39,-80 1651.73,-80"/>
<text text-anchor="middle" x="1597" y="-65.4" font-family="Helvetica,sans-Serif" font-size="12.00" fill="white">UnsignedIntegerType</text>
</a>
</g>
</g>
<!-- IntegerType&#45;&gt;UnsignedIntegerType -->
<g id="edge36" class="edge">
<path fill="none" stroke="#cccccc" d="M1450.82,-115.988C1479.97,-106.819 1523.3,-93.1866 1555.22,-83.1436"/>
<polygon fill="#cccccc" stroke="#cccccc" points="1556.66,-86.359 1565.15,-80.0192 1554.56,-79.6817 1556.66,-86.359"/>
</g>
<!-- SignedIntegerType&#45;&gt;Int -->
<g id="edge37" class="edge">
<path fill="none" stroke="#cccccc" d="M1237.73,-57.9149C1205.55,-49.1941 1157.55,-36.1549 1106.94,-22.2489"/>
<polygon fill="#cccccc" stroke="#cccccc" points="1107.69,-18.8267 1097.12,-19.5503 1105.84,-25.5762 1107.69,-18.8267"/>
</g>
<!-- SignedIntegerType&#45;&gt;Int16 -->
<g id="edge38" class="edge">
<path fill="none" stroke="#cccccc" d="M1264.09,-57.9883C1255.44,-50.0446 1243.14,-38.7512 1232.89,-29.3439"/>
<polygon fill="#cccccc" stroke="#cccccc" points="1234.96,-26.4883 1225.22,-22.3039 1230.22,-31.6449 1234.96,-26.4883"/>
</g>
<!-- SignedIntegerType&#45;&gt;Int32 -->
<g id="edge39" class="edge">
<path fill="none" stroke="#cccccc" d="M1276.97,-57.9883C1278.37,-50.8311 1280.31,-40.9547 1282.03,-32.1885"/>
<polygon fill="#cccccc" stroke="#cccccc" points="1285.48,-32.791 1283.98,-22.3039 1278.61,-31.4417 1285.48,-32.791"/>
</g>
<!-- SignedIntegerType&#45;&gt;Int64 -->
<g id="edge40" class="edge">
<path fill="none" stroke="#cccccc" d="M1289.84,-57.9883C1302.27,-49.5993 1320.24,-37.4743 1334.61,-27.7804"/>
<polygon fill="#cccccc" stroke="#cccccc" points="1336.68,-30.6083 1343.01,-22.1138 1332.76,-24.8055 1336.68,-30.6083"/>
</g>
<!-- SignedIntegerType&#45;&gt;Int8 -->
<g id="edge41" class="edge">
<path fill="none" stroke="#cccccc" d="M1302.71,-57.9883C1327.92,-48.8821 1365.3,-35.3739 1393.05,-25.3513"/>
<polygon fill="#cccccc" stroke="#cccccc" points="1394.57,-28.5208 1402.79,-21.8311 1392.19,-21.9373 1394.57,-28.5208"/>
</g>
<!-- UnsignedIntegerType&#45;&gt;UInt -->
<g id="edge42" class="edge">
<path fill="none" stroke="#cccccc" d="M1580.02,-57.9883C1565.52,-49.441 1544.44,-37.0155 1527.84,-27.2343"/>
<polygon fill="#cccccc" stroke="#cccccc" points="1529.55,-24.1768 1519.16,-22.1138 1525.99,-30.2071 1529.55,-24.1768"/>
</g>
<!-- UnsignedIntegerType&#45;&gt;UInt16 -->
<g id="edge43" class="edge">
<path fill="none" stroke="#cccccc" d="M1592.89,-57.9883C1589.88,-50.6738 1585.71,-40.5192 1582.06,-31.6122"/>
<polygon fill="#cccccc" stroke="#cccccc" points="1585.27,-30.2243 1578.23,-22.3039 1578.79,-32.8838 1585.27,-30.2243"/>
</g>
<!-- UnsignedIntegerType&#45;&gt;UInt32 -->
<g id="edge44" class="edge">
<path fill="none" stroke="#cccccc" d="M1605.76,-57.9883C1612.57,-50.2019 1622.2,-39.1971 1630.33,-29.9049"/>
<polygon fill="#cccccc" stroke="#cccccc" points="1633.03,-32.1344 1636.98,-22.3039 1627.77,-27.5249 1633.03,-32.1344"/>
</g>
<!-- UnsignedIntegerType&#45;&gt;UInt64 -->
<g id="edge45" class="edge">
<path fill="none" stroke="#cccccc" d="M1618.63,-57.9883C1637.61,-49.2036 1665.45,-36.3222 1686.83,-26.4255"/>
<polygon fill="#cccccc" stroke="#cccccc" points="1688.54,-29.4903 1696.15,-22.1138 1685.6,-23.1376 1688.54,-29.4903"/>
</g>
<!-- UnsignedIntegerType&#45;&gt;UInt8 -->
<g id="edge46" class="edge">
<path fill="none" stroke="#cccccc" d="M1631.5,-57.9883C1665.75,-48.0525 1718.05,-32.8759 1753.11,-22.7047"/>
<polygon fill="#cccccc" stroke="#cccccc" points="1754.32,-25.9968 1762.95,-19.8488 1752.37,-19.2741 1754.32,-25.9968"/>
</g>
<!-- _DisallowMixedSignArithmetic -->
<g id="node35" class="node">
<g id="a_node35"><a xlink:href="/v2.1/protocol/_DisallowMixedSignArithmetic/" target="_top">
<path fill="#999999" stroke="#999999" d="M1674.71,-138C1674.71,-138 1519.29,-138 1519.29,-138 1515.62,-138 1511.96,-134.333 1511.96,-130.667 1511.96,-130.667 1511.96,-123.333 1511.96,-123.333 1511.96,-119.667 1515.62,-116 1519.29,-116 1519.29,-116 1674.71,-116 1674.71,-116 1678.38,-116 1682.04,-119.667 1682.04,-123.333 1682.04,-123.333 1682.04,-130.667 1682.04,-130.667 1682.04,-134.333 1678.38,-138 1674.71,-138"/>
<text text-anchor="middle" x="1597" y="-123.4" font-family="Helvetica,sans-Serif" font-size="12.00" fill="white">_DisallowMixedSignArithmetic</text>
</a>
</g>
</g>
<!-- _DisallowMixedSignArithmetic&#45;&gt;UnsignedIntegerType -->
<g id="edge47" class="edge">
<path fill="none" stroke="#cccccc" d="M1597,-115.988C1597,-108.91 1597,-99.1714 1597,-90.4779"/>
<polygon fill="#cccccc" stroke="#cccccc" points="1600.5,-90.3038 1597,-80.3039 1593.5,-90.3039 1600.5,-90.3038"/>
</g>
<!-- _IntegerType&#45;&gt;IntegerType -->
<g id="edge32" class="edge">
<path fill="none" stroke="#cccccc" d="M1371.37,-173.988C1379.6,-166.045 1391.29,-154.751 1401.04,-145.344"/>
<polygon fill="#cccccc" stroke="#cccccc" points="1403.57,-147.768 1408.33,-138.304 1398.7,-142.732 1403.57,-147.768"/>
</g>
<!-- _IntegerType&#45;&gt;_DisallowMixedSignArithmetic -->
<g id="edge33" class="edge">
<path fill="none" stroke="#cccccc" d="M1401.03,-174.5C1440.69,-165.092 1501.6,-150.638 1544.98,-140.345"/>
<polygon fill="#cccccc" stroke="#cccccc" points="1545.85,-143.734 1554.78,-138.019 1544.24,-136.923 1545.85,-143.734"/>
</g>
<!-- _SignedIntegerType -->
<g id="node37" class="node">
<g id="a_node37"><a xlink:href="/v2.1/protocol/_SignedIntegerType/" target="_top">
<path fill="#999999" stroke="#999999" d="M1357.23,-138C1357.23,-138 1254.77,-138 1254.77,-138 1251.1,-138 1247.44,-134.333 1247.44,-130.667 1247.44,-130.667 1247.44,-123.333 1247.44,-123.333 1247.44,-119.667 1251.1,-116 1254.77,-116 1254.77,-116 1357.23,-116 1357.23,-116 1360.9,-116 1364.56,-119.667 1364.56,-123.333 1364.56,-123.333 1364.56,-130.667 1364.56,-130.667 1364.56,-134.333 1360.9,-138 1357.23,-138"/>
<text text-anchor="middle" x="1306" y="-123.4" font-family="Helvetica,sans-Serif" font-size="12.00" fill="white">_SignedIntegerType</text>
</a>
</g>
</g>
<!-- _IntegerType&#45;&gt;_SignedIntegerType -->
<g id="edge34" class="edge">
<path fill="none" stroke="#cccccc" d="M1351.17,-173.988C1343.44,-166.123 1332.49,-154.974 1323.31,-145.624"/>
<polygon fill="#cccccc" stroke="#cccccc" points="1325.62,-142.986 1316.12,-138.304 1320.63,-147.891 1325.62,-142.986"/>
</g>
<!-- _SignedIntegerType&#45;&gt;SignedIntegerType -->
<g id="edge48" class="edge">
<path fill="none" stroke="#cccccc" d="M1300.46,-115.988C1296.37,-108.595 1290.67,-98.3005 1285.7,-89.3253"/>
<polygon fill="#cccccc" stroke="#cccccc" points="1288.61,-87.3577 1280.7,-80.3039 1282.49,-90.7479 1288.61,-87.3577"/>
</g>
</g>
</svg>
