<?xml version="1.0" encoding="UTF-8" standalone="no"?>
<!DOCTYPE svg PUBLIC "-//W3C//DTD SVG 1.1//EN"
 "http://www.w3.org/Graphics/SVG/1.1/DTD/svg11.dtd">
<!-- Generated by graphviz version 2.36.0 (20140111.2315)
 -->
<!-- Title: ReverseRandomAccessIndex&lt;Base : RandomAccessIndexType&gt; &#45; Type Hierarchy &#45; SwiftDoc.org Pages: 1 -->
<svg width="564pt" height="427pt"
 viewBox="0.00 0.00 563.70 427.20" xmlns="http://www.w3.org/2000/svg" xmlns:xlink="http://www.w3.org/1999/xlink">
<g id="graph0" class="graph" transform="scale(1 1) rotate(0) translate(7.2 369.6)">
<g transform="translate(0 -369.6)">
<g>
    <path fill="#666666" d="M13.846,10.832c-0.336-0.464-0.792-0.844-1.368-1.14s-1.224-0.444-1.944-0.444
        c-0.384,0-0.772,0.052-1.164,0.156C8.977,9.509,8.622,9.677,8.301,9.908c-0.32,0.232-0.58,0.52-0.78,0.864
        c-0.2,0.344-0.3,0.756-0.3,1.236c0,0.464,0.092,0.852,0.276,1.164c0.184,0.312,0.432,0.576,0.744,0.792s0.68,0.4,1.104,0.552
        c0.423,0.152,0.876,0.309,1.356,0.468c0.576,0.177,1.16,0.376,1.752,0.601c0.592,0.224,1.128,0.52,1.608,0.888
        s0.872,0.828,1.176,1.38s0.456,1.252,0.456,2.101c0,0.88-0.164,1.644-0.492,2.292c-0.328,0.647-0.765,1.184-1.308,1.607
        c-0.544,0.424-1.172,0.74-1.884,0.948s-1.444,0.312-2.196,0.312c-1.072,0-2.108-0.208-3.108-0.624
        c-1-0.415-1.828-1.031-2.484-1.848l1.848-1.56c0.4,0.592,0.936,1.071,1.608,1.439c0.672,0.368,1.399,0.552,2.184,0.552
        c0.4,0,0.8-0.056,1.2-0.168c0.4-0.111,0.764-0.288,1.092-0.527c0.328-0.24,0.596-0.54,0.804-0.9
        c0.208-0.36,0.312-0.796,0.312-1.308s-0.108-0.94-0.324-1.284c-0.216-0.344-0.508-0.636-0.876-0.876s-0.796-0.444-1.284-0.612
        c-0.488-0.168-1.004-0.34-1.548-0.516c-0.544-0.16-1.08-0.356-1.608-0.588c-0.528-0.232-1-0.528-1.416-0.889
        c-0.416-0.359-0.752-0.804-1.008-1.332c-0.256-0.527-0.384-1.184-0.384-1.968c0-0.848,0.172-1.576,0.516-2.184
        c0.344-0.608,0.792-1.112,1.344-1.512c0.552-0.4,1.176-0.692,1.872-0.876c0.696-0.184,1.396-0.276,2.1-0.276
        c0.992,0,1.92,0.176,2.784,0.528c0.864,0.352,1.56,0.824,2.088,1.416L13.846,10.832z"/>
    <path fill="#666666" d="M18.813,13.304l2.568,8.688h0.048l2.712-8.688h2.376l2.76,8.688h0.048l2.568-8.688h2.376L30.501,24.68
        h-2.352l-2.808-8.544h-0.048l-2.784,8.544h-2.352l-3.792-11.376H18.813z"/>
    <path fill="#666666" d="M38.685,9.2c0,0.416-0.147,0.76-0.44,1.032c-0.294,0.272-0.647,0.408-1.06,0.408s-0.762-0.14-1.047-0.42
        c-0.286-0.28-0.429-0.62-0.429-1.02c0-0.416,0.143-0.764,0.429-1.044c0.286-0.28,0.635-0.42,1.047-0.42s0.766,0.14,1.06,0.42
        C38.538,8.437,38.685,8.784,38.685,9.2z M38.325,24.68h-2.256V13.304h2.256V24.68z"/>
    <path fill="#666666" d="M47.613,15.152h-2.64v9.528h-2.256v-9.528h-2.256v-1.848h2.256v-2.376c0-0.672,0.076-1.292,0.228-1.86
        c0.152-0.568,0.4-1.06,0.744-1.476c0.344-0.416,0.784-0.744,1.32-0.984c0.536-0.24,1.188-0.36,1.956-0.36
        c0.544,0,1.016,0.056,1.416,0.168l-0.264,1.944c-0.176-0.048-0.352-0.088-0.528-0.12c-0.176-0.032-0.376-0.048-0.6-0.048
        c-0.432,0-0.78,0.076-1.044,0.228c-0.264,0.152-0.468,0.356-0.612,0.612s-0.24,0.548-0.288,0.876
        c-0.048,0.328-0.072,0.668-0.072,1.02v2.376h2.64V15.152z"/>
    <path fill="#666666" d="M54.909,15.152h-3.024v5.91c0,0.687,0.128,1.177,0.384,1.472c0.256,0.295,0.664,0.442,1.224,0.442
        c0.208,0,0.432-0.021,0.672-0.065c0.24-0.044,0.456-0.11,0.648-0.198l0.072,1.848c-0.272,0.096-0.572,0.172-0.9,0.229
        c-0.328,0.056-0.668,0.084-1.02,0.084c-1.072,0-1.892-0.296-2.46-0.889c-0.568-0.592-0.852-1.479-0.852-2.664v-6.168h-2.184
        v-1.848h2.184V10.04h2.232v3.264h3.024V15.152z"/>
    <path fill="#666666" d="M57.356,7.688h5.832c1.088,0,2.176,0.16,3.264,0.48c1.088,0.32,2.072,0.824,2.952,1.512
        s1.592,1.568,2.136,2.64c0.544,1.072,0.816,2.36,0.816,3.864c0,1.456-0.272,2.716-0.816,3.78s-1.256,1.943-2.136,2.64
        s-1.864,1.216-2.952,1.561c-1.088,0.344-2.176,0.516-3.264,0.516h-5.832V7.688z M59.732,22.593h2.976
        c1.024,0,1.972-0.145,2.844-0.432c0.872-0.288,1.624-0.704,2.256-1.248c0.632-0.544,1.124-1.216,1.476-2.017
        c0.352-0.8,0.528-1.704,0.528-2.712c0-1.056-0.176-1.983-0.528-2.784c-0.353-0.8-0.844-1.468-1.476-2.004
        c-0.632-0.536-1.384-0.944-2.256-1.224s-1.82-0.42-2.844-0.42h-2.976V22.593z"/>
    <path fill="#666666" d="M86.06,18.969c0,0.88-0.156,1.688-0.468,2.424c-0.312,0.736-0.744,1.372-1.296,1.908
        c-0.552,0.536-1.204,0.952-1.956,1.248c-0.752,0.296-1.56,0.443-2.424,0.443c-0.864,0-1.672-0.147-2.424-0.443
        c-0.752-0.296-1.4-0.712-1.944-1.248c-0.544-0.536-0.972-1.172-1.284-1.908c-0.312-0.735-0.468-1.544-0.468-2.424
        s0.156-1.684,0.468-2.412c0.312-0.728,0.74-1.356,1.284-1.884c0.543-0.528,1.191-0.939,1.944-1.236
        c0.752-0.296,1.56-0.444,2.424-0.444c0.864,0,1.672,0.148,2.424,0.444c0.752,0.297,1.404,0.708,1.956,1.236
        c0.552,0.527,0.984,1.156,1.296,1.884C85.904,17.285,86.06,18.089,86.06,18.969z M83.708,18.98c0-0.542-0.084-1.061-0.252-1.556
        c-0.169-0.494-0.414-0.929-0.734-1.304s-0.718-0.674-1.192-0.897s-1.015-0.335-1.625-0.335c-0.61,0-1.152,0.111-1.625,0.335
        c-0.474,0.224-0.871,0.522-1.191,0.897c-0.321,0.375-0.566,0.81-0.734,1.304C76.184,17.92,76.1,18.438,76.1,18.98
        c0,0.543,0.084,1.062,0.253,1.556c0.168,0.495,0.413,0.934,0.734,1.316c0.321,0.383,0.718,0.686,1.191,0.909
        c0.473,0.224,1.015,0.335,1.625,0.335c0.61,0,1.151-0.111,1.625-0.335s0.871-0.526,1.192-0.909s0.565-0.821,0.734-1.316
        C83.624,20.042,83.708,19.523,83.708,18.98z"/>
    <path fill="#666666" d="M96.428,16.184c-0.24-0.368-0.6-0.676-1.08-0.924s-0.992-0.372-1.536-0.372
        c-0.592,0-1.116,0.112-1.572,0.336c-0.456,0.225-0.844,0.524-1.164,0.9c-0.32,0.376-0.564,0.812-0.732,1.308
        s-0.252,1.017-0.252,1.56c0,0.545,0.084,1.064,0.252,1.561s0.412,0.933,0.732,1.308c0.32,0.376,0.712,0.677,1.176,0.9
        c0.464,0.225,0.992,0.336,1.584,0.336c0.576,0,1.1-0.111,1.572-0.336c0.472-0.224,0.86-0.528,1.164-0.912l1.512,1.368
        c-0.48,0.561-1.08,0.996-1.8,1.308c-0.72,0.312-1.536,0.468-2.448,0.468c-0.88,0-1.692-0.144-2.436-0.432
        c-0.744-0.288-1.388-0.691-1.932-1.212c-0.544-0.52-0.972-1.147-1.284-1.884s-0.468-1.561-0.468-2.473
        c0-0.896,0.152-1.711,0.456-2.447c0.304-0.736,0.728-1.368,1.272-1.896c0.543-0.527,1.188-0.936,1.932-1.224
        c0.744-0.288,1.548-0.433,2.412-0.433c0.8,0,1.596,0.16,2.388,0.48s1.419,0.784,1.884,1.392L96.428,16.184z"/>
    <path fill="#666666" d="M103.1,23.24c0,0.417-0.152,0.784-0.456,1.104c-0.304,0.32-0.688,0.479-1.152,0.479
        c-0.448,0-0.828-0.155-1.14-0.468c-0.312-0.312-0.468-0.676-0.468-1.092c0-0.432,0.152-0.804,0.456-1.116
        c0.304-0.312,0.688-0.468,1.152-0.468c0.464,0,0.848,0.152,1.152,0.456C102.947,22.44,103.1,22.808,103.1,23.24z"/>
    <path fill="#666666" d="M116.635,18.969c0,0.88-0.156,1.688-0.468,2.424c-0.312,0.736-0.744,1.372-1.296,1.908
        c-0.552,0.536-1.204,0.952-1.956,1.248c-0.752,0.296-1.56,0.443-2.424,0.443c-0.864,0-1.672-0.147-2.424-0.443
        c-0.752-0.296-1.4-0.712-1.944-1.248c-0.544-0.536-0.972-1.172-1.284-1.908c-0.312-0.735-0.468-1.544-0.468-2.424
        s0.156-1.684,0.468-2.412c0.312-0.728,0.74-1.356,1.284-1.884c0.543-0.528,1.191-0.939,1.944-1.236
        c0.752-0.296,1.56-0.444,2.424-0.444c0.864,0,1.672,0.148,2.424,0.444c0.752,0.297,1.404,0.708,1.956,1.236
        c0.552,0.527,0.984,1.156,1.296,1.884C116.479,17.285,116.635,18.089,116.635,18.969z M114.283,18.98
        c0-0.542-0.084-1.061-0.252-1.556c-0.169-0.494-0.414-0.929-0.734-1.304s-0.718-0.674-1.192-0.897s-1.015-0.335-1.625-0.335
        c-0.61,0-1.152,0.111-1.625,0.335c-0.474,0.224-0.871,0.522-1.191,0.897c-0.321,0.375-0.566,0.81-0.734,1.304
        c-0.169,0.495-0.253,1.014-0.253,1.556c0,0.543,0.084,1.062,0.253,1.556c0.168,0.495,0.413,0.934,0.734,1.316
        c0.321,0.383,0.718,0.686,1.191,0.909c0.473,0.224,1.015,0.335,1.625,0.335c0.61,0,1.151-0.111,1.625-0.335
        s0.871-0.526,1.192-0.909s0.565-0.821,0.734-1.316C114.199,20.042,114.283,19.523,114.283,18.98z"/>
    <path fill="#666666" d="M119.251,14.577c-0.016-0.48-0.04-0.904-0.072-1.272h2.136c0.032,0.288,0.056,0.62,0.072,0.996
        c0.016,0.376,0.024,0.684,0.024,0.924h0.072c0.32-0.672,0.788-1.212,1.404-1.62c0.616-0.408,1.308-0.612,2.076-0.612
        c0.352,0,0.648,0.033,0.888,0.097l-0.096,2.088c-0.32-0.08-0.664-0.12-1.032-0.12c-0.544,0-1.016,0.101-1.416,0.3
        c-0.4,0.2-0.732,0.468-0.996,0.805c-0.264,0.336-0.46,0.724-0.588,1.163c-0.128,0.44-0.192,0.9-0.192,1.381v5.976h-2.256v-8.928
        C119.275,15.449,119.267,15.056,119.251,14.577z"/>
    <path fill="#666666" d="M128.419,26.625c0.496,0.56,1.116,1.008,1.86,1.344c0.744,0.336,1.508,0.504,2.292,0.504
        c0.752,0,1.384-0.108,1.896-0.324s0.924-0.512,1.236-0.888s0.536-0.82,0.672-1.332c0.136-0.513,0.204-1.064,0.204-1.656v-1.464
        h-0.048c-0.416,0.641-0.984,1.128-1.704,1.464c-0.72,0.336-1.488,0.504-2.304,0.504c-0.864,0-1.652-0.151-2.364-0.456
        c-0.712-0.304-1.316-0.72-1.812-1.248c-0.496-0.527-0.88-1.147-1.152-1.859s-0.408-1.477-0.408-2.292
        c0-0.816,0.136-1.584,0.408-2.305c0.272-0.72,0.656-1.348,1.152-1.884c0.496-0.535,1.096-0.96,1.8-1.271
        c0.704-0.312,1.488-0.469,2.352-0.469c0.816,0,1.596,0.177,2.34,0.528c0.744,0.353,1.332,0.888,1.764,1.608h0.048v-1.824h2.184
        v10.8c0,0.832-0.104,1.628-0.312,2.388c-0.208,0.76-0.56,1.433-1.056,2.017s-1.144,1.052-1.944,1.404
        c-0.8,0.352-1.792,0.527-2.976,0.527c-0.992,0-1.988-0.18-2.988-0.54c-1-0.359-1.86-0.868-2.58-1.523L128.419,26.625z
         M129.091,18.873c0,0.527,0.084,1.031,0.253,1.512c0.168,0.479,0.417,0.904,0.746,1.271c0.329,0.369,0.726,0.664,1.192,0.889
        c0.465,0.224,0.995,0.336,1.589,0.336c0.577,0,1.107-0.104,1.589-0.312c0.481-0.207,0.891-0.491,1.228-0.852
        s0.598-0.784,0.782-1.272c0.185-0.487,0.277-1.012,0.277-1.571c0-0.544-0.093-1.057-0.277-1.536
        c-0.185-0.48-0.449-0.904-0.794-1.272c-0.345-0.367-0.755-0.66-1.228-0.876c-0.474-0.216-1-0.324-1.577-0.324
        c-0.594,0-1.124,0.108-1.589,0.324c-0.466,0.216-0.863,0.504-1.192,0.864s-0.578,0.784-0.746,1.271
        C129.175,17.812,129.091,18.329,129.091,18.873z"/>
</g>
<g><a xlink:href="/" pointer-events="all" target="_top"><polygon fill="none" points="0,0 145,0 145,35 0,35 0,0"/></a></g>

</g>


<!-- BidirectionalIndexType -->
<g id="node1" class="node">
<g id="a_node1"><a xlink:href="/v2.0/protocol/BidirectionalIndexType/" target="_top">
<path fill="#999999" stroke="#999999" d="M176.03,-138C176.03,-138 60.5789,-138 60.5789,-138 56.9122,-138 53.2455,-134.333 53.2455,-130.667 53.2455,-130.667 53.2455,-123.333 53.2455,-123.333 53.2455,-119.667 56.9122,-116 60.5789,-116 60.5789,-116 176.03,-116 176.03,-116 179.696,-116 183.363,-119.667 183.363,-123.333 183.363,-123.333 183.363,-130.667 183.363,-130.667 183.363,-134.333 179.696,-138 176.03,-138"/>
<text text-anchor="middle" x="118.304" y="-123.4" font-family="Helvetica,sans-Serif" font-size="12.00" fill="white">BidirectionalIndexType</text>
</a>
</g>
</g>
<!-- RandomAccessIndexType -->
<g id="node5" class="node">
<g id="a_node5"><a xlink:href="/v2.0/protocol/RandomAccessIndexType/" target="_top">
<path fill="#999999" stroke="#999999" d="M427.53,-80C427.53,-80 293.079,-80 293.079,-80 289.412,-80 285.746,-76.3333 285.746,-72.6667 285.746,-72.6667 285.746,-65.3333 285.746,-65.3333 285.746,-61.6667 289.412,-58 293.079,-58 293.079,-58 427.53,-58 427.53,-58 431.196,-58 434.863,-61.6667 434.863,-65.3333 434.863,-65.3333 434.863,-72.6667 434.863,-72.6667 434.863,-76.3333 431.196,-80 427.53,-80"/>
<text text-anchor="middle" x="360.304" y="-65.4" font-family="Helvetica,sans-Serif" font-size="12.00" fill="white">RandomAccessIndexType</text>
</a>
</g>
</g>
<!-- BidirectionalIndexType&#45;&gt;RandomAccessIndexType -->
<g id="edge15" class="edge">
<path fill="none" stroke="#cccccc" d="M161.569,-115.988C202.308,-106.561 263.436,-92.4159 307.131,-82.3045"/>
<polygon fill="#cccccc" stroke="#cccccc" points="308.053,-85.6837 317.007,-80.0192 306.475,-78.8639 308.053,-85.6837"/>
</g>
<!-- ReverseIndexType -->
<g id="node6" class="node">
<g id="a_node6"><a xlink:href="/v2.0/protocol/ReverseIndexType/" target="_top">
<path fill="#999999" stroke="#999999" d="M146.016,-80C146.016,-80 50.5922,-80 50.5922,-80 46.9255,-80 43.2588,-76.3333 43.2588,-72.6667 43.2588,-72.6667 43.2588,-65.3333 43.2588,-65.3333 43.2588,-61.6667 46.9255,-58 50.5922,-58 50.5922,-58 146.016,-58 146.016,-58 149.683,-58 153.35,-61.6667 153.35,-65.3333 153.35,-65.3333 153.35,-72.6667 153.35,-72.6667 153.35,-76.3333 149.683,-80 146.016,-80"/>
<text text-anchor="middle" x="98.3043" y="-65.4" font-family="Helvetica,sans-Serif" font-size="12.00" fill="white">ReverseIndexType</text>
</a>
</g>
</g>
<!-- BidirectionalIndexType&#45;&gt;ReverseIndexType -->
<g id="edge13" class="edge">
<path fill="none" stroke="#cccccc" d="M114.729,-115.988C112.144,-108.752 108.568,-98.7373 105.411,-89.9"/>
<polygon fill="#cccccc" stroke="#cccccc" points="108.644,-88.5441 101.984,-80.3039 102.052,-90.8985 108.644,-88.5441"/>
</g>
<!-- ReverseRandomAccessIndex&lt;Base : RandomAccessIndexType&gt; -->
<g id="node7" class="node">
<g id="a_node7"><a xlink:href="/v2.0/type/ReverseRandomAccessIndex/" target="_top">
<polygon fill="#ee543d" stroke="#ee543d" points="417.446,-22 59.1625,-22 59.1625,-0 417.446,-0 417.446,-22"/>
<text text-anchor="middle" x="238.304" y="-7.4" font-family="Helvetica,sans-Serif" font-size="12.00" fill="white">ReverseRandomAccessIndex&lt;Base : RandomAccessIndexType&gt;</text>
</a>
</g>
</g>
<!-- BidirectionalIndexType&#45;&gt;ReverseRandomAccessIndex&lt;Base : RandomAccessIndexType&gt; -->
<g id="edge6" class="edge">
<path fill="none" stroke="#cccccc" d="M128.953,-115.883C149.45,-96.4116 194.599,-53.52 220.007,-29.3824"/>
<polygon fill="#cccccc" stroke="#cccccc" points="222.667,-31.683 227.506,-22.2579 217.846,-26.608 222.667,-31.683"/>
</g>
<!-- Comparable -->
<g id="node2" class="node">
<g id="a_node2"><a xlink:href="/v2.0/protocol/Comparable/" target="_top">
<path fill="#999999" stroke="#999999" d="M266.496,-196C266.496,-196 206.113,-196 206.113,-196 202.446,-196 198.78,-192.333 198.78,-188.667 198.78,-188.667 198.78,-181.333 198.78,-181.333 198.78,-177.667 202.446,-174 206.113,-174 206.113,-174 266.496,-174 266.496,-174 270.162,-174 273.829,-177.667 273.829,-181.333 273.829,-181.333 273.829,-188.667 273.829,-188.667 273.829,-192.333 270.162,-196 266.496,-196"/>
<text text-anchor="middle" x="236.304" y="-181.4" font-family="Helvetica,sans-Serif" font-size="12.00" fill="white">Comparable</text>
</a>
</g>
</g>
<!-- Comparable&#45;&gt;ReverseRandomAccessIndex&lt;Base : RandomAccessIndexType&gt; -->
<g id="edge9" class="edge">
<path fill="none" stroke="#cccccc" d="M236.423,-173.756C236.745,-146.097 237.636,-69.5091 238.066,-32.5186"/>
<polygon fill="#cccccc" stroke="#cccccc" points="241.567,-32.4481 238.183,-22.4081 234.567,-32.3667 241.567,-32.4481"/>
</g>
<!-- Strideable -->
<g id="node8" class="node">
<g id="a_node8"><a xlink:href="/v2.0/protocol/Strideable/" target="_top">
<path fill="#999999" stroke="#999999" d="M303.997,-138C303.997,-138 254.611,-138 254.611,-138 250.945,-138 247.278,-134.333 247.278,-130.667 247.278,-130.667 247.278,-123.333 247.278,-123.333 247.278,-119.667 250.945,-116 254.611,-116 254.611,-116 303.997,-116 303.997,-116 307.664,-116 311.331,-119.667 311.331,-123.333 311.331,-123.333 311.331,-130.667 311.331,-130.667 311.331,-134.333 307.664,-138 303.997,-138"/>
<text text-anchor="middle" x="279.304" y="-123.4" font-family="Helvetica,sans-Serif" font-size="12.00" fill="white">Strideable</text>
</a>
</g>
</g>
<!-- Comparable&#45;&gt;Strideable -->
<g id="edge18" class="edge">
<path fill="none" stroke="#cccccc" d="M243.992,-173.988C249.85,-166.359 258.08,-155.64 265.122,-146.47"/>
<polygon fill="#cccccc" stroke="#cccccc" points="268.078,-148.367 271.392,-138.304 262.526,-144.104 268.078,-148.367"/>
</g>
<!-- Equatable -->
<g id="node3" class="node">
<g id="a_node3"><a xlink:href="/v2.0/protocol/Equatable/" target="_top">
<path fill="#999999" stroke="#999999" d="M261.006,-312C261.006,-312 211.602,-312 211.602,-312 207.936,-312 204.269,-308.333 204.269,-304.667 204.269,-304.667 204.269,-297.333 204.269,-297.333 204.269,-293.667 207.936,-290 211.602,-290 211.602,-290 261.006,-290 261.006,-290 264.673,-290 268.339,-293.667 268.339,-297.333 268.339,-297.333 268.339,-304.667 268.339,-304.667 268.339,-308.333 264.673,-312 261.006,-312"/>
<text text-anchor="middle" x="236.304" y="-297.4" font-family="Helvetica,sans-Serif" font-size="12.00" fill="white">Equatable</text>
</a>
</g>
</g>
<!-- Equatable&#45;&gt;Comparable -->
<g id="edge20" class="edge">
<path fill="none" stroke="#cccccc" d="M236.304,-289.883C236.304,-271.17 236.304,-230.827 236.304,-206.287"/>
<polygon fill="#cccccc" stroke="#cccccc" points="239.804,-206.258 236.304,-196.258 232.804,-206.258 239.804,-206.258"/>
</g>
<!-- Equatable&#45;&gt;ReverseRandomAccessIndex&lt;Base : RandomAccessIndexType&gt; -->
<g id="edge3" class="edge">
<path fill="none" stroke="#cccccc" d="M268.33,-295.333C348.103,-282.812 549.304,-245.35 549.304,-186 549.304,-186 549.304,-186 549.304,-126 549.304,-83.8832 520.407,-77.9311 483.304,-58 452.595,-41.5031 416.955,-30.8335 382.528,-23.9573"/>
<polygon fill="#cccccc" stroke="#cccccc" points="382.852,-20.4563 372.375,-22.0299 381.547,-27.3335 382.852,-20.4563"/>
</g>
<!-- _Incrementable -->
<g id="node9" class="node">
<g id="a_node9"><a xlink:href="/v2.0/protocol/_Incrementable/" target="_top">
<path fill="#999999" stroke="#999999" d="M140.009,-254C140.009,-254 62.599,-254 62.599,-254 58.9323,-254 55.2657,-250.333 55.2657,-246.667 55.2657,-246.667 55.2657,-239.333 55.2657,-239.333 55.2657,-235.667 58.9323,-232 62.599,-232 62.599,-232 140.009,-232 140.009,-232 143.676,-232 147.343,-235.667 147.343,-239.333 147.343,-239.333 147.343,-246.667 147.343,-246.667 147.343,-250.333 143.676,-254 140.009,-254"/>
<text text-anchor="middle" x="101.304" y="-239.4" font-family="Helvetica,sans-Serif" font-size="12.00" fill="white">_Incrementable</text>
</a>
</g>
</g>
<!-- Equatable&#45;&gt;_Incrementable -->
<g id="edge12" class="edge">
<path fill="none" stroke="#cccccc" d="M212.169,-289.988C190.705,-281.085 159.097,-267.973 135.117,-258.026"/>
<polygon fill="#cccccc" stroke="#cccccc" points="136.264,-254.713 125.686,-254.114 133.582,-261.178 136.264,-254.713"/>
</g>
<!-- ForwardIndexType -->
<g id="node4" class="node">
<g id="a_node4"><a xlink:href="/v2.0/protocol/ForwardIndexType/" target="_top">
<path fill="#999999" stroke="#999999" d="M148.51,-196C148.51,-196 54.0981,-196 54.0981,-196 50.4314,-196 46.7648,-192.333 46.7648,-188.667 46.7648,-188.667 46.7648,-181.333 46.7648,-181.333 46.7648,-177.667 50.4314,-174 54.0981,-174 54.0981,-174 148.51,-174 148.51,-174 152.177,-174 155.844,-177.667 155.844,-181.333 155.844,-181.333 155.844,-188.667 155.844,-188.667 155.844,-192.333 152.177,-196 148.51,-196"/>
<text text-anchor="middle" x="101.304" y="-181.4" font-family="Helvetica,sans-Serif" font-size="12.00" fill="white">ForwardIndexType</text>
</a>
</g>
</g>
<!-- ForwardIndexType&#45;&gt;BidirectionalIndexType -->
<g id="edge14" class="edge">
<path fill="none" stroke="#cccccc" d="M104.344,-173.988C106.54,-166.752 109.58,-156.737 112.263,-147.9"/>
<polygon fill="#cccccc" stroke="#cccccc" points="115.62,-148.889 115.176,-138.304 108.922,-146.856 115.62,-148.889"/>
</g>
<!-- ForwardIndexType&#45;&gt;ReverseRandomAccessIndex&lt;Base : RandomAccessIndexType&gt; -->
<g id="edge1" class="edge">
<path fill="none" stroke="#cccccc" d="M82.6304,-173.85C69.757,-165.843 53.388,-153.459 44.3043,-138 26.1508,-107.107 11.9266,-85.9855 34.3043,-58 47.3722,-41.6572 90.0327,-30.7055 132.987,-23.6034"/>
<polygon fill="#cccccc" stroke="#cccccc" points="133.687,-27.0361 143.016,-22.0131 132.591,-20.1225 133.687,-27.0361"/>
</g>
<!-- RandomAccessIndexType&#45;&gt;ReverseRandomAccessIndex&lt;Base : RandomAccessIndexType&gt; -->
<g id="edge7" class="edge">
<path fill="none" stroke="#cccccc" d="M338.493,-57.9883C319.269,-49.164 291.039,-36.206 269.44,-26.2919"/>
<polygon fill="#cccccc" stroke="#cccccc" points="270.886,-23.1046 260.338,-22.1138 267.966,-29.4665 270.886,-23.1046"/>
</g>
<!-- ReverseIndexType&#45;&gt;ReverseRandomAccessIndex&lt;Base : RandomAccessIndexType&gt; -->
<g id="edge5" class="edge">
<path fill="none" stroke="#cccccc" d="M123.333,-57.9883C145.691,-49.0453 178.663,-35.8566 203.571,-25.8935"/>
<polygon fill="#cccccc" stroke="#cccccc" points="205.035,-29.0775 213.02,-22.1138 202.435,-22.5781 205.035,-29.0775"/>
</g>
<!-- Strideable&#45;&gt;RandomAccessIndexType -->
<g id="edge16" class="edge">
<path fill="none" stroke="#cccccc" d="M293.785,-115.988C305.805,-107.678 323.127,-95.7028 337.081,-86.0554"/>
<polygon fill="#cccccc" stroke="#cccccc" points="339.44,-88.6796 345.675,-80.1138 335.459,-82.9217 339.44,-88.6796"/>
</g>
<!-- Strideable&#45;&gt;ReverseRandomAccessIndex&lt;Base : RandomAccessIndexType&gt; -->
<g id="edge8" class="edge">
<path fill="none" stroke="#cccccc" d="M275.666,-115.883C268.905,-97.086 254.295,-56.4627 245.481,-31.9559"/>
<polygon fill="#cccccc" stroke="#cccccc" points="248.671,-30.4834 241.994,-22.2579 242.084,-32.8524 248.671,-30.4834"/>
</g>
<!-- _Incrementable&#45;&gt;ForwardIndexType -->
<g id="edge11" class="edge">
<path fill="none" stroke="#cccccc" d="M101.304,-231.988C101.304,-224.91 101.304,-215.171 101.304,-206.478"/>
<polygon fill="#cccccc" stroke="#cccccc" points="104.804,-206.304 101.304,-196.304 97.8044,-206.304 104.804,-206.304"/>
</g>
<!-- _Incrementable&#45;&gt;ReverseRandomAccessIndex&lt;Base : RandomAccessIndexType&gt; -->
<g id="edge2" class="edge">
<path fill="none" stroke="#cccccc" d="M79.3455,-231.946C65.0122,-224.201 47.1866,-212.091 37.3043,-196 4.96318,-143.341 -18.6214,-105.996 20.3043,-58 33.8103,-41.3467 76.5036,-30.4902 120.571,-23.533"/>
<polygon fill="#cccccc" stroke="#cccccc" points="121.216,-26.9753 130.581,-22.0206 120.17,-20.0539 121.216,-26.9753"/>
</g>
<!-- _RandomAccessAmbiguity -->
<g id="node10" class="node">
<g id="a_node10"><a xlink:href="/v2.0/protocol/_RandomAccessAmbiguity/" target="_top">
<path fill="#999999" stroke="#999999" d="M475.518,-138C475.518,-138 337.091,-138 337.091,-138 333.424,-138 329.757,-134.333 329.757,-130.667 329.757,-130.667 329.757,-123.333 329.757,-123.333 329.757,-119.667 333.424,-116 337.091,-116 337.091,-116 475.518,-116 475.518,-116 479.185,-116 482.851,-119.667 482.851,-123.333 482.851,-123.333 482.851,-130.667 482.851,-130.667 482.851,-134.333 479.185,-138 475.518,-138"/>
<text text-anchor="middle" x="406.304" y="-123.4" font-family="Helvetica,sans-Serif" font-size="12.00" fill="white">_RandomAccessAmbiguity</text>
</a>
</g>
</g>
<!-- _RandomAccessAmbiguity&#45;&gt;RandomAccessIndexType -->
<g id="edge17" class="edge">
<path fill="none" stroke="#cccccc" d="M398.08,-115.988C391.749,-108.281 382.827,-97.4191 375.244,-88.187"/>
<polygon fill="#cccccc" stroke="#cccccc" points="377.82,-85.8096 368.768,-80.3039 372.411,-90.2528 377.82,-85.8096"/>
</g>
<!-- _RandomAccessAmbiguity&#45;&gt;ReverseRandomAccessIndex&lt;Base : RandomAccessIndexType&gt; -->
<g id="edge10" class="edge">
<path fill="none" stroke="#cccccc" d="M418.947,-115.875C434.792,-101.969 458.17,-76.5716 443.304,-58 430.22,-41.6539 387.641,-30.7175 344.654,-23.6263"/>
<polygon fill="#cccccc" stroke="#cccccc" points="345.039,-20.1438 334.615,-22.0384 343.946,-27.0578 345.039,-20.1438"/>
</g>
<!-- _Strideable -->
<g id="node11" class="node">
<g id="a_node11"><a xlink:href="/v2.0/protocol/_Strideable/" target="_top">
<path fill="#999999" stroke="#999999" d="M443.004,-196C443.004,-196 387.605,-196 387.605,-196 383.938,-196 380.271,-192.333 380.271,-188.667 380.271,-188.667 380.271,-181.333 380.271,-181.333 380.271,-177.667 383.938,-174 387.605,-174 387.605,-174 443.004,-174 443.004,-174 446.671,-174 450.337,-177.667 450.337,-181.333 450.337,-181.333 450.337,-188.667 450.337,-188.667 450.337,-192.333 446.671,-196 443.004,-196"/>
<text text-anchor="middle" x="415.304" y="-181.4" font-family="Helvetica,sans-Serif" font-size="12.00" fill="white">_Strideable</text>
</a>
</g>
</g>
<!-- _Strideable&#45;&gt;ReverseRandomAccessIndex&lt;Base : RandomAccessIndexType&gt; -->
<g id="edge4" class="edge">
<path fill="none" stroke="#cccccc" d="M446.034,-173.898C462.611,-166.698 481.611,-155.198 491.304,-138 507.68,-108.946 463.315,-60.2518 460.304,-58 439.988,-42.8064 383.843,-31.2506 333.103,-23.5214"/>
<polygon fill="#cccccc" stroke="#cccccc" points="333.445,-20.0338 323.04,-22.0266 332.417,-26.9579 333.445,-20.0338"/>
</g>
<!-- _Strideable&#45;&gt;Strideable -->
<g id="edge19" class="edge">
<path fill="none" stroke="#cccccc" d="M390.99,-173.988C369.367,-165.085 337.525,-151.973 313.367,-142.026"/>
<polygon fill="#cccccc" stroke="#cccccc" points="314.446,-138.685 303.866,-138.114 311.781,-145.158 314.446,-138.685"/>
</g>
</g>
</svg>
