<?xml version="1.0" encoding="UTF-8" standalone="no"?>
<!DOCTYPE svg PUBLIC "-//W3C//DTD SVG 1.1//EN"
 "http://www.w3.org/Graphics/SVG/1.1/DTD/svg11.dtd">
<!-- Generated by graphviz version 2.36.0 (20140111.2315)
 -->
<!-- Title: CollectionType &#45; Type Hierarchy &#45; SwiftDoc.org Pages: 1 -->
<svg width="3574pt" height="427pt"
 viewBox="0.00 0.00 3574.40 427.20" xmlns="http://www.w3.org/2000/svg" xmlns:xlink="http://www.w3.org/1999/xlink">
<g id="graph0" class="graph" transform="scale(1 1) rotate(0) translate(7.2 369.6)">
<g transform="translate(0 -369.6)">
<g>
    <path fill="#666666" d="M13.846,10.832c-0.336-0.464-0.792-0.844-1.368-1.14s-1.224-0.444-1.944-0.444
        c-0.384,0-0.772,0.052-1.164,0.156C8.977,9.509,8.622,9.677,8.301,9.908c-0.32,0.232-0.58,0.52-0.78,0.864
        c-0.2,0.344-0.3,0.756-0.3,1.236c0,0.464,0.092,0.852,0.276,1.164c0.184,0.312,0.432,0.576,0.744,0.792s0.68,0.4,1.104,0.552
        c0.423,0.152,0.876,0.309,1.356,0.468c0.576,0.177,1.16,0.376,1.752,0.601c0.592,0.224,1.128,0.52,1.608,0.888
        s0.872,0.828,1.176,1.38s0.456,1.252,0.456,2.101c0,0.88-0.164,1.644-0.492,2.292c-0.328,0.647-0.765,1.184-1.308,1.607
        c-0.544,0.424-1.172,0.74-1.884,0.948s-1.444,0.312-2.196,0.312c-1.072,0-2.108-0.208-3.108-0.624
        c-1-0.415-1.828-1.031-2.484-1.848l1.848-1.56c0.4,0.592,0.936,1.071,1.608,1.439c0.672,0.368,1.399,0.552,2.184,0.552
        c0.4,0,0.8-0.056,1.2-0.168c0.4-0.111,0.764-0.288,1.092-0.527c0.328-0.24,0.596-0.54,0.804-0.9
        c0.208-0.36,0.312-0.796,0.312-1.308s-0.108-0.94-0.324-1.284c-0.216-0.344-0.508-0.636-0.876-0.876s-0.796-0.444-1.284-0.612
        c-0.488-0.168-1.004-0.34-1.548-0.516c-0.544-0.16-1.08-0.356-1.608-0.588c-0.528-0.232-1-0.528-1.416-0.889
        c-0.416-0.359-0.752-0.804-1.008-1.332c-0.256-0.527-0.384-1.184-0.384-1.968c0-0.848,0.172-1.576,0.516-2.184
        c0.344-0.608,0.792-1.112,1.344-1.512c0.552-0.4,1.176-0.692,1.872-0.876c0.696-0.184,1.396-0.276,2.1-0.276
        c0.992,0,1.92,0.176,2.784,0.528c0.864,0.352,1.56,0.824,2.088,1.416L13.846,10.832z"/>
    <path fill="#666666" d="M18.813,13.304l2.568,8.688h0.048l2.712-8.688h2.376l2.76,8.688h0.048l2.568-8.688h2.376L30.501,24.68
        h-2.352l-2.808-8.544h-0.048l-2.784,8.544h-2.352l-3.792-11.376H18.813z"/>
    <path fill="#666666" d="M38.685,9.2c0,0.416-0.147,0.76-0.44,1.032c-0.294,0.272-0.647,0.408-1.06,0.408s-0.762-0.14-1.047-0.42
        c-0.286-0.28-0.429-0.62-0.429-1.02c0-0.416,0.143-0.764,0.429-1.044c0.286-0.28,0.635-0.42,1.047-0.42s0.766,0.14,1.06,0.42
        C38.538,8.437,38.685,8.784,38.685,9.2z M38.325,24.68h-2.256V13.304h2.256V24.68z"/>
    <path fill="#666666" d="M47.613,15.152h-2.64v9.528h-2.256v-9.528h-2.256v-1.848h2.256v-2.376c0-0.672,0.076-1.292,0.228-1.86
        c0.152-0.568,0.4-1.06,0.744-1.476c0.344-0.416,0.784-0.744,1.32-0.984c0.536-0.24,1.188-0.36,1.956-0.36
        c0.544,0,1.016,0.056,1.416,0.168l-0.264,1.944c-0.176-0.048-0.352-0.088-0.528-0.12c-0.176-0.032-0.376-0.048-0.6-0.048
        c-0.432,0-0.78,0.076-1.044,0.228c-0.264,0.152-0.468,0.356-0.612,0.612s-0.24,0.548-0.288,0.876
        c-0.048,0.328-0.072,0.668-0.072,1.02v2.376h2.64V15.152z"/>
    <path fill="#666666" d="M54.909,15.152h-3.024v5.91c0,0.687,0.128,1.177,0.384,1.472c0.256,0.295,0.664,0.442,1.224,0.442
        c0.208,0,0.432-0.021,0.672-0.065c0.24-0.044,0.456-0.11,0.648-0.198l0.072,1.848c-0.272,0.096-0.572,0.172-0.9,0.229
        c-0.328,0.056-0.668,0.084-1.02,0.084c-1.072,0-1.892-0.296-2.46-0.889c-0.568-0.592-0.852-1.479-0.852-2.664v-6.168h-2.184
        v-1.848h2.184V10.04h2.232v3.264h3.024V15.152z"/>
    <path fill="#666666" d="M57.356,7.688h5.832c1.088,0,2.176,0.16,3.264,0.48c1.088,0.32,2.072,0.824,2.952,1.512
        s1.592,1.568,2.136,2.64c0.544,1.072,0.816,2.36,0.816,3.864c0,1.456-0.272,2.716-0.816,3.78s-1.256,1.943-2.136,2.64
        s-1.864,1.216-2.952,1.561c-1.088,0.344-2.176,0.516-3.264,0.516h-5.832V7.688z M59.732,22.593h2.976
        c1.024,0,1.972-0.145,2.844-0.432c0.872-0.288,1.624-0.704,2.256-1.248c0.632-0.544,1.124-1.216,1.476-2.017
        c0.352-0.8,0.528-1.704,0.528-2.712c0-1.056-0.176-1.983-0.528-2.784c-0.353-0.8-0.844-1.468-1.476-2.004
        c-0.632-0.536-1.384-0.944-2.256-1.224s-1.82-0.42-2.844-0.42h-2.976V22.593z"/>
    <path fill="#666666" d="M86.06,18.969c0,0.88-0.156,1.688-0.468,2.424c-0.312,0.736-0.744,1.372-1.296,1.908
        c-0.552,0.536-1.204,0.952-1.956,1.248c-0.752,0.296-1.56,0.443-2.424,0.443c-0.864,0-1.672-0.147-2.424-0.443
        c-0.752-0.296-1.4-0.712-1.944-1.248c-0.544-0.536-0.972-1.172-1.284-1.908c-0.312-0.735-0.468-1.544-0.468-2.424
        s0.156-1.684,0.468-2.412c0.312-0.728,0.74-1.356,1.284-1.884c0.543-0.528,1.191-0.939,1.944-1.236
        c0.752-0.296,1.56-0.444,2.424-0.444c0.864,0,1.672,0.148,2.424,0.444c0.752,0.297,1.404,0.708,1.956,1.236
        c0.552,0.527,0.984,1.156,1.296,1.884C85.904,17.285,86.06,18.089,86.06,18.969z M83.708,18.98c0-0.542-0.084-1.061-0.252-1.556
        c-0.169-0.494-0.414-0.929-0.734-1.304s-0.718-0.674-1.192-0.897s-1.015-0.335-1.625-0.335c-0.61,0-1.152,0.111-1.625,0.335
        c-0.474,0.224-0.871,0.522-1.191,0.897c-0.321,0.375-0.566,0.81-0.734,1.304C76.184,17.92,76.1,18.438,76.1,18.98
        c0,0.543,0.084,1.062,0.253,1.556c0.168,0.495,0.413,0.934,0.734,1.316c0.321,0.383,0.718,0.686,1.191,0.909
        c0.473,0.224,1.015,0.335,1.625,0.335c0.61,0,1.151-0.111,1.625-0.335s0.871-0.526,1.192-0.909s0.565-0.821,0.734-1.316
        C83.624,20.042,83.708,19.523,83.708,18.98z"/>
    <path fill="#666666" d="M96.428,16.184c-0.24-0.368-0.6-0.676-1.08-0.924s-0.992-0.372-1.536-0.372
        c-0.592,0-1.116,0.112-1.572,0.336c-0.456,0.225-0.844,0.524-1.164,0.9c-0.32,0.376-0.564,0.812-0.732,1.308
        s-0.252,1.017-0.252,1.56c0,0.545,0.084,1.064,0.252,1.561s0.412,0.933,0.732,1.308c0.32,0.376,0.712,0.677,1.176,0.9
        c0.464,0.225,0.992,0.336,1.584,0.336c0.576,0,1.1-0.111,1.572-0.336c0.472-0.224,0.86-0.528,1.164-0.912l1.512,1.368
        c-0.48,0.561-1.08,0.996-1.8,1.308c-0.72,0.312-1.536,0.468-2.448,0.468c-0.88,0-1.692-0.144-2.436-0.432
        c-0.744-0.288-1.388-0.691-1.932-1.212c-0.544-0.52-0.972-1.147-1.284-1.884s-0.468-1.561-0.468-2.473
        c0-0.896,0.152-1.711,0.456-2.447c0.304-0.736,0.728-1.368,1.272-1.896c0.543-0.527,1.188-0.936,1.932-1.224
        c0.744-0.288,1.548-0.433,2.412-0.433c0.8,0,1.596,0.16,2.388,0.48s1.419,0.784,1.884,1.392L96.428,16.184z"/>
    <path fill="#666666" d="M103.1,23.24c0,0.417-0.152,0.784-0.456,1.104c-0.304,0.32-0.688,0.479-1.152,0.479
        c-0.448,0-0.828-0.155-1.14-0.468c-0.312-0.312-0.468-0.676-0.468-1.092c0-0.432,0.152-0.804,0.456-1.116
        c0.304-0.312,0.688-0.468,1.152-0.468c0.464,0,0.848,0.152,1.152,0.456C102.947,22.44,103.1,22.808,103.1,23.24z"/>
    <path fill="#666666" d="M116.635,18.969c0,0.88-0.156,1.688-0.468,2.424c-0.312,0.736-0.744,1.372-1.296,1.908
        c-0.552,0.536-1.204,0.952-1.956,1.248c-0.752,0.296-1.56,0.443-2.424,0.443c-0.864,0-1.672-0.147-2.424-0.443
        c-0.752-0.296-1.4-0.712-1.944-1.248c-0.544-0.536-0.972-1.172-1.284-1.908c-0.312-0.735-0.468-1.544-0.468-2.424
        s0.156-1.684,0.468-2.412c0.312-0.728,0.74-1.356,1.284-1.884c0.543-0.528,1.191-0.939,1.944-1.236
        c0.752-0.296,1.56-0.444,2.424-0.444c0.864,0,1.672,0.148,2.424,0.444c0.752,0.297,1.404,0.708,1.956,1.236
        c0.552,0.527,0.984,1.156,1.296,1.884C116.479,17.285,116.635,18.089,116.635,18.969z M114.283,18.98
        c0-0.542-0.084-1.061-0.252-1.556c-0.169-0.494-0.414-0.929-0.734-1.304s-0.718-0.674-1.192-0.897s-1.015-0.335-1.625-0.335
        c-0.61,0-1.152,0.111-1.625,0.335c-0.474,0.224-0.871,0.522-1.191,0.897c-0.321,0.375-0.566,0.81-0.734,1.304
        c-0.169,0.495-0.253,1.014-0.253,1.556c0,0.543,0.084,1.062,0.253,1.556c0.168,0.495,0.413,0.934,0.734,1.316
        c0.321,0.383,0.718,0.686,1.191,0.909c0.473,0.224,1.015,0.335,1.625,0.335c0.61,0,1.151-0.111,1.625-0.335
        s0.871-0.526,1.192-0.909s0.565-0.821,0.734-1.316C114.199,20.042,114.283,19.523,114.283,18.98z"/>
    <path fill="#666666" d="M119.251,14.577c-0.016-0.48-0.04-0.904-0.072-1.272h2.136c0.032,0.288,0.056,0.62,0.072,0.996
        c0.016,0.376,0.024,0.684,0.024,0.924h0.072c0.32-0.672,0.788-1.212,1.404-1.62c0.616-0.408,1.308-0.612,2.076-0.612
        c0.352,0,0.648,0.033,0.888,0.097l-0.096,2.088c-0.32-0.08-0.664-0.12-1.032-0.12c-0.544,0-1.016,0.101-1.416,0.3
        c-0.4,0.2-0.732,0.468-0.996,0.805c-0.264,0.336-0.46,0.724-0.588,1.163c-0.128,0.44-0.192,0.9-0.192,1.381v5.976h-2.256v-8.928
        C119.275,15.449,119.267,15.056,119.251,14.577z"/>
    <path fill="#666666" d="M128.419,26.625c0.496,0.56,1.116,1.008,1.86,1.344c0.744,0.336,1.508,0.504,2.292,0.504
        c0.752,0,1.384-0.108,1.896-0.324s0.924-0.512,1.236-0.888s0.536-0.82,0.672-1.332c0.136-0.513,0.204-1.064,0.204-1.656v-1.464
        h-0.048c-0.416,0.641-0.984,1.128-1.704,1.464c-0.72,0.336-1.488,0.504-2.304,0.504c-0.864,0-1.652-0.151-2.364-0.456
        c-0.712-0.304-1.316-0.72-1.812-1.248c-0.496-0.527-0.88-1.147-1.152-1.859s-0.408-1.477-0.408-2.292
        c0-0.816,0.136-1.584,0.408-2.305c0.272-0.72,0.656-1.348,1.152-1.884c0.496-0.535,1.096-0.96,1.8-1.271
        c0.704-0.312,1.488-0.469,2.352-0.469c0.816,0,1.596,0.177,2.34,0.528c0.744,0.353,1.332,0.888,1.764,1.608h0.048v-1.824h2.184
        v10.8c0,0.832-0.104,1.628-0.312,2.388c-0.208,0.76-0.56,1.433-1.056,2.017s-1.144,1.052-1.944,1.404
        c-0.8,0.352-1.792,0.527-2.976,0.527c-0.992,0-1.988-0.18-2.988-0.54c-1-0.359-1.86-0.868-2.58-1.523L128.419,26.625z
         M129.091,18.873c0,0.527,0.084,1.031,0.253,1.512c0.168,0.479,0.417,0.904,0.746,1.271c0.329,0.369,0.726,0.664,1.192,0.889
        c0.465,0.224,0.995,0.336,1.589,0.336c0.577,0,1.107-0.104,1.589-0.312c0.481-0.207,0.891-0.491,1.228-0.852
        s0.598-0.784,0.782-1.272c0.185-0.487,0.277-1.012,0.277-1.571c0-0.544-0.093-1.057-0.277-1.536
        c-0.185-0.48-0.449-0.904-0.794-1.272c-0.345-0.367-0.755-0.66-1.228-0.876c-0.474-0.216-1-0.324-1.577-0.324
        c-0.594,0-1.124,0.108-1.589,0.324c-0.466,0.216-0.863,0.504-1.192,0.864s-0.578,0.784-0.746,1.271
        C129.175,17.812,129.091,18.329,129.091,18.873z"/>
</g>
<g><a xlink:href="/" pointer-events="all" target="_top"><polygon fill="none" points="0,0 145,0 145,35 0,35 0,0"/></a></g>

</g>


<!-- AnyBidirectionalCollection -->
<g id="node1" class="node">
<g id="a_node1"><a xlink:href="/swift-2/type/AnyBidirectionalCollection/" target="_top">
<polygon fill="#999999" stroke="#999999" points="148.054,-22 -0.054265,-22 -0.054265,-0 148.054,-0 148.054,-22"/>
<text text-anchor="middle" x="74" y="-7.4" font-family="Helvetica,sans-Serif" font-size="12.00" fill="white">AnyBidirectionalCollection</text>
</a>
</g>
</g>
<!-- AnyCollectionType -->
<g id="node2" class="node">
<g id="a_node2"><a xlink:href="/swift-2/protocol/AnyCollectionType/" target="_top">
<path fill="#999999" stroke="#999999" d="M282.211,-80C282.211,-80 187.789,-80 187.789,-80 184.123,-80 180.456,-76.3333 180.456,-72.6667 180.456,-72.6667 180.456,-65.3333 180.456,-65.3333 180.456,-61.6667 184.123,-58 187.789,-58 187.789,-58 282.211,-58 282.211,-58 285.877,-58 289.544,-61.6667 289.544,-65.3333 289.544,-65.3333 289.544,-72.6667 289.544,-72.6667 289.544,-76.3333 285.877,-80 282.211,-80"/>
<text text-anchor="middle" x="235" y="-65.4" font-family="Helvetica,sans-Serif" font-size="12.00" fill="white">AnyCollectionType</text>
</a>
</g>
</g>
<!-- AnyCollectionType&#45;&gt;AnyBidirectionalCollection -->
<g id="edge33" class="edge">
<path fill="none" stroke="#cccccc" d="M206.216,-57.9883C180.083,-48.8984 141.339,-35.4223 112.54,-25.4053"/>
<polygon fill="#cccccc" stroke="#cccccc" points="113.4,-21.9988 102.805,-22.0192 111.1,-28.6103 113.4,-21.9988"/>
</g>
<!-- AnyForwardCollection -->
<g id="node3" class="node">
<g id="a_node3"><a xlink:href="/swift-2/type/AnyForwardCollection/" target="_top">
<polygon fill="#999999" stroke="#999999" points="293.535,-22 166.465,-22 166.465,-0 293.535,-0 293.535,-22"/>
<text text-anchor="middle" x="230" y="-7.4" font-family="Helvetica,sans-Serif" font-size="12.00" fill="white">AnyForwardCollection</text>
</a>
</g>
</g>
<!-- AnyCollectionType&#45;&gt;AnyForwardCollection -->
<g id="edge34" class="edge">
<path fill="none" stroke="#cccccc" d="M234.106,-57.9883C233.474,-50.9098 232.605,-41.1714 231.828,-32.4779"/>
<polygon fill="#cccccc" stroke="#cccccc" points="235.296,-31.953 230.92,-22.3039 228.323,-32.5755 235.296,-31.953"/>
</g>
<!-- AnyRandomAccessCollection -->
<g id="node4" class="node">
<g id="a_node4"><a xlink:href="/swift-2/type/AnyRandomAccessCollection/" target="_top">
<polygon fill="#999999" stroke="#999999" points="478.554,-22 311.446,-22 311.446,-0 478.554,-0 478.554,-22"/>
<text text-anchor="middle" x="395" y="-7.4" font-family="Helvetica,sans-Serif" font-size="12.00" fill="white">AnyRandomAccessCollection</text>
</a>
</g>
</g>
<!-- AnyCollectionType&#45;&gt;AnyRandomAccessCollection -->
<g id="edge35" class="edge">
<path fill="none" stroke="#cccccc" d="M263.605,-57.9883C289.576,-48.8984 328.079,-35.4223 356.699,-25.4053"/>
<polygon fill="#cccccc" stroke="#cccccc" points="358.091,-28.6263 366.374,-22.0192 355.779,-22.0193 358.091,-28.6263"/>
</g>
<!-- Array -->
<g id="node5" class="node">
<g id="a_node5"><a xlink:href="/swift-2/type/Array/" target="_top">
<polygon fill="#999999" stroke="#999999" points="633,-22 579,-22 579,-0 633,-0 633,-22"/>
<text text-anchor="middle" x="606" y="-7.4" font-family="Helvetica,sans-Serif" font-size="12.00" fill="white">Array</text>
</a>
</g>
</g>
<!-- ArraySlice -->
<g id="node6" class="node">
<g id="a_node6"><a xlink:href="/swift-2/type/ArraySlice/" target="_top">
<polygon fill="#999999" stroke="#999999" points="561.011,-22 496.989,-22 496.989,-0 561.011,-0 561.011,-22"/>
<text text-anchor="middle" x="529" y="-7.4" font-family="Helvetica,sans-Serif" font-size="12.00" fill="white">ArraySlice</text>
</a>
</g>
</g>
<!-- CollectionOfOne -->
<g id="node7" class="node">
<g id="a_node7"><a xlink:href="/swift-2/type/CollectionOfOne/" target="_top">
<polygon fill="#999999" stroke="#999999" points="1353.03,-22 1254.97,-22 1254.97,-0 1353.03,-0 1353.03,-22"/>
<text text-anchor="middle" x="1304" y="-7.4" font-family="Helvetica,sans-Serif" font-size="12.00" fill="white">CollectionOfOne</text>
</a>
</g>
</g>
<!-- CollectionType -->
<g id="node8" class="node">
<g id="a_node8"><a xlink:href="/swift-2/protocol/CollectionType/" target="_top">
<path fill="#ee543d" stroke="#ee543d" d="M1594.7,-254C1594.7,-254 1521.3,-254 1521.3,-254 1517.63,-254 1513.96,-250.333 1513.96,-246.667 1513.96,-246.667 1513.96,-239.333 1513.96,-239.333 1513.96,-235.667 1517.63,-232 1521.3,-232 1521.3,-232 1594.7,-232 1594.7,-232 1598.37,-232 1602.04,-235.667 1602.04,-239.333 1602.04,-239.333 1602.04,-246.667 1602.04,-246.667 1602.04,-250.333 1598.37,-254 1594.7,-254"/>
<text text-anchor="middle" x="1558" y="-239.4" font-family="Helvetica,sans-Serif" font-size="12.00" fill="white">CollectionType</text>
</a>
</g>
</g>
<!-- CollectionType&#45;&gt;AnyBidirectionalCollection -->
<g id="edge1" class="edge">
<path fill="none" stroke="#cccccc" d="M1513.81,-242.134C1302.78,-242.54 402.987,-241.566 287,-196 196.892,-160.601 118.683,-69.792 87.9237,-30.5371"/>
<polygon fill="#cccccc" stroke="#cccccc" points="90.3343,-27.9312 81.4589,-22.1452 84.7889,-32.2031 90.3343,-27.9312"/>
</g>
<!-- CollectionType&#45;&gt;AnyCollectionType -->
<g id="edge2" class="edge">
<path fill="none" stroke="#cccccc" d="M1513.8,-241.492C1298.88,-238.876 371.092,-225.885 318,-196 276.527,-172.655 252.115,-118.981 241.437,-89.7863"/>
<polygon fill="#cccccc" stroke="#cccccc" points="244.708,-88.5359 238.119,-80.2397 238.096,-90.8345 244.708,-88.5359"/>
</g>
<!-- CollectionType&#45;&gt;AnyForwardCollection -->
<g id="edge3" class="edge">
<path fill="none" stroke="#cccccc" d="M1513.94,-241.427C1327.57,-238.82 609.192,-226.839 513,-196 498.409,-191.322 318.743,-71.4585 253.488,-27.7544"/>
<polygon fill="#cccccc" stroke="#cccccc" points="255.325,-24.7718 245.069,-22.1129 251.428,-30.5871 255.325,-24.7718"/>
</g>
<!-- CollectionType&#45;&gt;AnyRandomAccessCollection -->
<g id="edge4" class="edge">
<path fill="none" stroke="#cccccc" d="M1513.69,-242.057C1330.41,-242.012 637.149,-238.98 550,-196 476.254,-159.631 424.269,-70.3876 404.186,-31.0975"/>
<polygon fill="#cccccc" stroke="#cccccc" points="407.266,-29.4302 399.674,-22.0404 401.001,-32.5518 407.266,-29.4302"/>
</g>
<!-- CollectionType&#45;&gt;Array -->
<g id="edge5" class="edge">
<path fill="none" stroke="#cccccc" d="M1513.84,-242.363C1356.03,-243.256 820.706,-242.692 657,-196 605.732,-181.377 579.092,-183.916 552,-138 530.392,-101.379 565.247,-54.5027 588.277,-29.5228"/>
<polygon fill="#cccccc" stroke="#cccccc" points="590.875,-31.8707 595.253,-22.2226 585.814,-27.0347 590.875,-31.8707"/>
</g>
<!-- CollectionType&#45;&gt;ArraySlice -->
<g id="edge6" class="edge">
<path fill="none" stroke="#cccccc" d="M1513.77,-242.205C1334.04,-242.731 664.068,-241.59 582,-196 531.26,-167.813 531.593,-137.246 522,-80 519.334,-64.0889 521.473,-45.9018 524.066,-32.3422"/>
<polygon fill="#cccccc" stroke="#cccccc" points="527.568,-32.7053 526.255,-22.1922 520.725,-31.2294 527.568,-32.7053"/>
</g>
<!-- CollectionType&#45;&gt;CollectionOfOne -->
<g id="edge7" class="edge">
<path fill="none" stroke="#cccccc" d="M1546.76,-231.82C1506.92,-195.75 1372.24,-73.7883 1322.58,-28.827"/>
<polygon fill="#cccccc" stroke="#cccccc" points="1324.87,-26.1798 1315.11,-22.062 1320.18,-31.3687 1324.87,-26.1798"/>
</g>
<!-- ContiguousArray -->
<g id="node9" class="node">
<g id="a_node9"><a xlink:href="/swift-2/type/ContiguousArray/" target="_top">
<polygon fill="#999999" stroke="#999999" points="750.534,-22 651.466,-22 651.466,-0 750.534,-0 750.534,-22"/>
<text text-anchor="middle" x="701" y="-7.4" font-family="Helvetica,sans-Serif" font-size="12.00" fill="white">ContiguousArray</text>
</a>
</g>
</g>
<!-- CollectionType&#45;&gt;ContiguousArray -->
<g id="edge8" class="edge">
<path fill="none" stroke="#cccccc" d="M1513.61,-235.208C1467.11,-227.602 1392.19,-213.948 1329,-196 1159.37,-147.821 1127.12,-104.443 957,-58 947.548,-55.4195 833.211,-35.1888 760.574,-22.4304"/>
<polygon fill="#cccccc" stroke="#cccccc" points="761.071,-18.9642 750.616,-20.6824 759.861,-25.8588 761.071,-18.9642"/>
</g>
<!-- Dictionary -->
<g id="node10" class="node">
<g id="a_node10"><a xlink:href="/swift-2/type/Dictionary/" target="_top">
<polygon fill="#999999" stroke="#999999" points="1434.51,-22 1371.49,-22 1371.49,-0 1434.51,-0 1434.51,-22"/>
<text text-anchor="middle" x="1403" y="-7.4" font-family="Helvetica,sans-Serif" font-size="12.00" fill="white">Dictionary</text>
</a>
</g>
</g>
<!-- CollectionType&#45;&gt;Dictionary -->
<g id="edge9" class="edge">
<path fill="none" stroke="#cccccc" d="M1551.14,-231.82C1527.13,-196.196 1446.66,-76.7927 1415.49,-30.5307"/>
<polygon fill="#cccccc" stroke="#cccccc" points="1418.27,-28.3987 1409.78,-22.062 1412.47,-32.3107 1418.27,-28.3987"/>
</g>
<!-- DictionaryLiteral -->
<g id="node11" class="node">
<g id="a_node11"><a xlink:href="/swift-2/type/DictionaryLiteral/" target="_top">
<polygon fill="#999999" stroke="#999999" points="1549.02,-22 1452.98,-22 1452.98,-0 1549.02,-0 1549.02,-22"/>
<text text-anchor="middle" x="1501" y="-7.4" font-family="Helvetica,sans-Serif" font-size="12.00" fill="white">DictionaryLiteral</text>
</a>
</g>
</g>
<!-- CollectionType&#45;&gt;DictionaryLiteral -->
<g id="edge10" class="edge">
<path fill="none" stroke="#cccccc" d="M1555.48,-231.82C1546.74,-196.568 1517.67,-79.2764 1505.96,-32.0032"/>
<polygon fill="#cccccc" stroke="#cccccc" points="1509.3,-30.9265 1503.49,-22.062 1502.5,-32.6103 1509.3,-30.9265"/>
</g>
<!-- EmptyCollection -->
<g id="node12" class="node">
<g id="a_node12"><a xlink:href="/swift-2/type/EmptyCollection/" target="_top">
<polygon fill="#999999" stroke="#999999" points="1663.03,-22 1566.97,-22 1566.97,-0 1663.03,-0 1663.03,-22"/>
<text text-anchor="middle" x="1615" y="-7.4" font-family="Helvetica,sans-Serif" font-size="12.00" fill="white">EmptyCollection</text>
</a>
</g>
</g>
<!-- CollectionType&#45;&gt;EmptyCollection -->
<g id="edge11" class="edge">
<path fill="none" stroke="#cccccc" d="M1560.52,-231.82C1569.26,-196.568 1598.33,-79.2764 1610.04,-32.0032"/>
<polygon fill="#cccccc" stroke="#cccccc" points="1613.5,-32.6103 1612.51,-22.062 1606.7,-30.9265 1613.5,-32.6103"/>
</g>
<!-- FilterCollection -->
<g id="node13" class="node">
<g id="a_node13"><a xlink:href="/swift-2/type/FilterCollection/" target="_top">
<polygon fill="#999999" stroke="#999999" points="1770.52,-22 1681.48,-22 1681.48,-0 1770.52,-0 1770.52,-22"/>
<text text-anchor="middle" x="1726" y="-7.4" font-family="Helvetica,sans-Serif" font-size="12.00" fill="white">FilterCollection</text>
</a>
</g>
</g>
<!-- CollectionType&#45;&gt;FilterCollection -->
<g id="edge12" class="edge">
<path fill="none" stroke="#cccccc" d="M1565.44,-231.82C1591.51,-196.122 1679.04,-76.2938 1712.68,-30.2419"/>
<polygon fill="#cccccc" stroke="#cccccc" points="1715.58,-32.2017 1718.65,-22.062 1709.93,-28.0728 1715.58,-32.2017"/>
</g>
<!-- LazyBidirectionalCollection -->
<g id="node15" class="node">
<g id="a_node15"><a xlink:href="/swift-2/type/LazyBidirectionalCollection/" target="_top">
<polygon fill="#999999" stroke="#999999" points="1941.56,-22 1788.44,-22 1788.44,-0 1941.56,-0 1941.56,-22"/>
<text text-anchor="middle" x="1865" y="-7.4" font-family="Helvetica,sans-Serif" font-size="12.00" fill="white">LazyBidirectionalCollection</text>
</a>
</g>
</g>
<!-- CollectionType&#45;&gt;LazyBidirectionalCollection -->
<g id="edge13" class="edge">
<path fill="none" stroke="#cccccc" d="M1571.59,-231.82C1619.93,-195.601 1783.87,-72.781 1843.28,-28.2747"/>
<polygon fill="#cccccc" stroke="#cccccc" points="1845.66,-30.859 1851.57,-22.062 1841.47,-25.2568 1845.66,-30.859"/>
</g>
<!-- LazyForwardCollection -->
<g id="node16" class="node">
<g id="a_node16"><a xlink:href="/swift-2/type/LazyForwardCollection/" target="_top">
<polygon fill="#999999" stroke="#999999" points="2092.04,-22 1959.96,-22 1959.96,-0 2092.04,-0 2092.04,-22"/>
<text text-anchor="middle" x="2026" y="-7.4" font-family="Helvetica,sans-Serif" font-size="12.00" fill="white">LazyForwardCollection</text>
</a>
</g>
</g>
<!-- CollectionType&#45;&gt;LazyForwardCollection -->
<g id="edge14" class="edge">
<path fill="none" stroke="#cccccc" d="M1578.41,-231.969C1652.68,-195.467 1908.79,-69.6051 1996.36,-26.5656"/>
<polygon fill="#cccccc" stroke="#cccccc" points="1998.05,-29.6354 2005.48,-22.0835 1994.96,-23.3531 1998.05,-29.6354"/>
</g>
<!-- LazyRandomAccessCollection -->
<g id="node17" class="node">
<g id="a_node17"><a xlink:href="/swift-2/type/LazyRandomAccessCollection/" target="_top">
<polygon fill="#999999" stroke="#999999" points="2282.06,-22 2109.94,-22 2109.94,-0 2282.06,-0 2282.06,-22"/>
<text text-anchor="middle" x="2196" y="-7.4" font-family="Helvetica,sans-Serif" font-size="12.00" fill="white">LazyRandomAccessCollection</text>
</a>
</g>
</g>
<!-- CollectionType&#45;&gt;LazyRandomAccessCollection -->
<g id="edge15" class="edge">
<path fill="none" stroke="#cccccc" d="M1586.68,-231.92C1613.04,-222.641 1653.18,-208.468 1688,-196 1864.51,-132.804 2075.07,-56.1259 2158.91,-25.5417"/>
<polygon fill="#cccccc" stroke="#cccccc" points="2160.3,-28.76 2168.49,-22.0444 2157.9,-22.184 2160.3,-28.76"/>
</g>
<!-- MapCollection -->
<g id="node18" class="node">
<g id="a_node18"><a xlink:href="/swift-2/type/MapCollection/" target="_top">
<polygon fill="#999999" stroke="#999999" points="2386.03,-22 2299.97,-22 2299.97,-0 2386.03,-0 2386.03,-22"/>
<text text-anchor="middle" x="2343" y="-7.4" font-family="Helvetica,sans-Serif" font-size="12.00" fill="white">MapCollection</text>
</a>
</g>
</g>
<!-- CollectionType&#45;&gt;MapCollection -->
<g id="edge16" class="edge">
<path fill="none" stroke="#cccccc" d="M1596.46,-231.988C1631.17,-222.872 1683.61,-208.904 1729,-196 1944.77,-134.662 2201.43,-55.8375 2300.8,-25.0952"/>
<polygon fill="#cccccc" stroke="#cccccc" points="2301.96,-28.4012 2310.48,-22.1006 2299.89,-21.7142 2301.96,-28.4012"/>
</g>
<!-- MutableCollectionType -->
<g id="node19" class="node">
<g id="a_node19"><a xlink:href="/swift-2/protocol/MutableCollectionType/" target="_top">
<path fill="#999999" stroke="#999999" d="M829.221,-196C829.221,-196 712.779,-196 712.779,-196 709.112,-196 705.446,-192.333 705.446,-188.667 705.446,-188.667 705.446,-181.333 705.446,-181.333 705.446,-177.667 709.112,-174 712.779,-174 712.779,-174 829.221,-174 829.221,-174 832.888,-174 836.554,-177.667 836.554,-181.333 836.554,-181.333 836.554,-188.667 836.554,-188.667 836.554,-192.333 832.888,-196 829.221,-196"/>
<text text-anchor="middle" x="771" y="-181.4" font-family="Helvetica,sans-Serif" font-size="12.00" fill="white">MutableCollectionType</text>
</a>
</g>
</g>
<!-- CollectionType&#45;&gt;MutableCollectionType -->
<g id="edge17" class="edge">
<path fill="none" stroke="#cccccc" d="M1513.72,-238.849C1384.83,-229.678 1008.79,-202.92 846.743,-191.39"/>
<polygon fill="#cccccc" stroke="#cccccc" points="846.607,-187.871 836.384,-190.652 846.11,-194.854 846.607,-187.871"/>
</g>
<!-- MutableSliceable -->
<g id="node20" class="node">
<g id="a_node20"><a xlink:href="/swift-2/protocol/MutableSliceable/" target="_top">
<path fill="#999999" stroke="#999999" d="M655.208,-138C655.208,-138 568.792,-138 568.792,-138 565.126,-138 561.459,-134.333 561.459,-130.667 561.459,-130.667 561.459,-123.333 561.459,-123.333 561.459,-119.667 565.126,-116 568.792,-116 568.792,-116 655.208,-116 655.208,-116 658.874,-116 662.541,-119.667 662.541,-123.333 662.541,-123.333 662.541,-130.667 662.541,-130.667 662.541,-134.333 658.874,-138 655.208,-138"/>
<text text-anchor="middle" x="612" y="-123.4" font-family="Helvetica,sans-Serif" font-size="12.00" fill="white">MutableSliceable</text>
</a>
</g>
</g>
<!-- CollectionType&#45;&gt;MutableSliceable -->
<g id="edge18" class="edge">
<path fill="none" stroke="#cccccc" d="M1513.7,-241.234C1348.32,-238.158 772.546,-225.418 696,-196 668.306,-185.357 642.776,-161.918 627.302,-145.551"/>
<polygon fill="#cccccc" stroke="#cccccc" points="629.882,-143.186 620.549,-138.172 624.718,-147.912 629.882,-143.186"/>
</g>
<!-- Range -->
<g id="node21" class="node">
<g id="a_node21"><a xlink:href="/swift-2/type/Range/" target="_top">
<polygon fill="#999999" stroke="#999999" points="2458,-22 2404,-22 2404,-0 2458,-0 2458,-22"/>
<text text-anchor="middle" x="2431" y="-7.4" font-family="Helvetica,sans-Serif" font-size="12.00" fill="white">Range</text>
</a>
</g>
</g>
<!-- CollectionType&#45;&gt;Range -->
<g id="edge19" class="edge">
<path fill="none" stroke="#cccccc" d="M1602.22,-233.859C1647.36,-225.317 1719.37,-211.059 1781,-196 2016.48,-138.464 2295.42,-53.8949 2394.15,-23.448"/>
<polygon fill="#cccccc" stroke="#cccccc" points="2395.42,-26.7179 2403.94,-20.4224 2393.35,-20.0297 2395.42,-26.7179"/>
</g>
<!-- RangeReplaceableCollectionType -->
<g id="node22" class="node">
<g id="a_node22"><a xlink:href="/swift-2/protocol/RangeReplaceableCollectionType/" target="_top">
<path fill="#999999" stroke="#999999" d="M1023.76,-138C1023.76,-138 848.24,-138 848.24,-138 844.573,-138 840.906,-134.333 840.906,-130.667 840.906,-130.667 840.906,-123.333 840.906,-123.333 840.906,-119.667 844.573,-116 848.24,-116 848.24,-116 1023.76,-116 1023.76,-116 1027.43,-116 1031.09,-119.667 1031.09,-123.333 1031.09,-123.333 1031.09,-130.667 1031.09,-130.667 1031.09,-134.333 1027.43,-138 1023.76,-138"/>
<text text-anchor="middle" x="936" y="-123.4" font-family="Helvetica,sans-Serif" font-size="12.00" fill="white">RangeReplaceableCollectionType</text>
</a>
</g>
</g>
<!-- CollectionType&#45;&gt;RangeReplaceableCollectionType -->
<g id="edge20" class="edge">
<path fill="none" stroke="#cccccc" d="M1513.9,-242.62C1428.93,-242.751 1237.32,-237.865 1083,-196 1038.38,-183.896 990.441,-159.291 961.849,-143.235"/>
<polygon fill="#cccccc" stroke="#cccccc" points="963.348,-140.061 952.928,-138.148 959.881,-146.142 963.348,-140.061"/>
</g>
<!-- Repeat -->
<g id="node23" class="node">
<g id="a_node23"><a xlink:href="/swift-2/type/Repeat/" target="_top">
<polygon fill="#999999" stroke="#999999" points="2530,-22 2476,-22 2476,-0 2530,-0 2530,-22"/>
<text text-anchor="middle" x="2503" y="-7.4" font-family="Helvetica,sans-Serif" font-size="12.00" fill="white">Repeat</text>
</a>
</g>
</g>
<!-- CollectionType&#45;&gt;Repeat -->
<g id="edge21" class="edge">
<path fill="none" stroke="#cccccc" d="M1602.36,-235.873C1657.26,-228.008 1753.45,-213.293 1835,-196 2079.03,-144.251 2366.05,-55.5993 2466.27,-23.7909"/>
<polygon fill="#cccccc" stroke="#cccccc" points="2467.46,-27.086 2475.93,-20.7186 2465.34,-20.4155 2467.46,-27.086"/>
</g>
<!-- ReverseCollection -->
<g id="node24" class="node">
<g id="a_node24"><a xlink:href="/swift-2/type/ReverseCollection/" target="_top">
<polygon fill="#999999" stroke="#999999" points="2655.53,-22 2548.47,-22 2548.47,-0 2655.53,-0 2655.53,-22"/>
<text text-anchor="middle" x="2602" y="-7.4" font-family="Helvetica,sans-Serif" font-size="12.00" fill="white">ReverseCollection</text>
</a>
</g>
</g>
<!-- CollectionType&#45;&gt;ReverseCollection -->
<g id="edge22" class="edge">
<path fill="none" stroke="#cccccc" d="M1602.13,-237.477C1666.74,-230.516 1790.74,-215.871 1895,-196 2150.83,-147.243 2451.12,-58.3215 2559.95,-25.037"/>
<polygon fill="#cccccc" stroke="#cccccc" points="2561.04,-28.3633 2569.58,-22.0853 2558.99,-21.6709 2561.04,-28.3633"/>
</g>
<!-- ReverseRandomAccessCollection -->
<g id="node25" class="node">
<g id="a_node25"><a xlink:href="/swift-2/type/ReverseRandomAccessCollection/" target="_top">
<polygon fill="#999999" stroke="#999999" points="2864.56,-22 2673.44,-22 2673.44,-0 2864.56,-0 2864.56,-22"/>
<text text-anchor="middle" x="2769" y="-7.4" font-family="Helvetica,sans-Serif" font-size="12.00" fill="white">ReverseRandomAccessCollection</text>
</a>
</g>
</g>
<!-- CollectionType&#45;&gt;ReverseRandomAccessCollection -->
<g id="edge23" class="edge">
<path fill="none" stroke="#cccccc" d="M1602.32,-238.487C1676.34,-232.267 1829.66,-217.872 1958,-196 2250.79,-146.103 2596.71,-57.5818 2721.31,-24.7325"/>
<polygon fill="#cccccc" stroke="#cccccc" points="2722.52,-28.0348 2731.29,-22.0962 2720.73,-21.267 2722.52,-28.0348"/>
</g>
<!-- Set -->
<g id="node27" class="node">
<g id="a_node27"><a xlink:href="/swift-2/type/Set/" target="_top">
<polygon fill="#999999" stroke="#999999" points="2937,-22 2883,-22 2883,-0 2937,-0 2937,-22"/>
<text text-anchor="middle" x="2910" y="-7.4" font-family="Helvetica,sans-Serif" font-size="12.00" fill="white">Set</text>
</a>
</g>
</g>
<!-- CollectionType&#45;&gt;Set -->
<g id="edge24" class="edge">
<path fill="none" stroke="#cccccc" d="M1602.25,-239.189C1685.79,-233.545 1872.32,-219.341 2028,-196 2126.13,-181.288 2704.77,-62.1505 2873,-22 2873.1,-21.9759 2873.2,-21.9516 2873.3,-21.9274"/>
<polygon fill="#cccccc" stroke="#cccccc" points="2874.12,-25.331 2882.97,-19.5042 2872.42,-18.5411 2874.12,-25.331"/>
</g>
<!-- Slice -->
<g id="node28" class="node">
<g id="a_node28"><a xlink:href="/swift-2/type/Slice/" target="_top">
<polygon fill="#999999" stroke="#999999" points="3009,-22 2955,-22 2955,-0 3009,-0 3009,-22"/>
<text text-anchor="middle" x="2982" y="-7.4" font-family="Helvetica,sans-Serif" font-size="12.00" fill="white">Slice</text>
</a>
</g>
</g>
<!-- CollectionType&#45;&gt;Slice -->
<g id="edge25" class="edge">
<path fill="none" stroke="#cccccc" d="M1602.25,-239.898C1695.18,-235.125 1917.31,-221.824 2102,-196 2359.76,-159.958 2421.38,-133.91 2676,-80 2792.91,-55.2476 2825.13,-51.5136 2944.99,-22.151"/>
<polygon fill="#cccccc" stroke="#cccccc" points="2946.04,-25.495 2954.92,-19.7081 2944.37,-18.6975 2946.04,-25.495"/>
</g>
<!-- String.CharacterView -->
<g id="node29" class="node">
<g id="a_node29"><a xlink:href="/swift-2/type/String.CharacterView/" target="_top">
<polygon fill="#999999" stroke="#999999" points="891.376,-22 768.624,-22 768.624,-0 891.376,-0 891.376,-22"/>
<text text-anchor="middle" x="830" y="-7.4" font-family="Helvetica,sans-Serif" font-size="12.00" fill="white">String.CharacterView</text>
</a>
</g>
</g>
<!-- CollectionType&#45;&gt;String.CharacterView -->
<g id="edge29" class="edge">
<path fill="none" stroke="#cccccc" d="M1513.7,-232.535C1478.74,-224.483 1429.04,-211.734 1387,-196 1276.79,-154.751 1252.87,-135.292 1149,-80 1131.77,-70.8302 1129.37,-64.5729 1111,-58 1091.59,-51.0585 978.231,-33.6408 901.555,-22.3412"/>
<polygon fill="#cccccc" stroke="#cccccc" points="901.864,-18.8491 891.461,-20.8578 900.846,-25.7747 901.864,-18.8491"/>
</g>
<!-- String.UTF16View -->
<g id="node30" class="node">
<g id="a_node30"><a xlink:href="/swift-2/type/String.UTF16View/" target="_top">
<polygon fill="#999999" stroke="#999999" points="3134.37,-22 3027.63,-22 3027.63,-0 3134.37,-0 3134.37,-22"/>
<text text-anchor="middle" x="3081" y="-7.4" font-family="Helvetica,sans-Serif" font-size="12.00" fill="white">String.UTF16View</text>
</a>
</g>
</g>
<!-- CollectionType&#45;&gt;String.UTF16View -->
<g id="edge31" class="edge">
<path fill="none" stroke="#cccccc" d="M1602.42,-240.601C1705.52,-236.951 1968.88,-225.308 2187,-196 2319.43,-178.206 2351.06,-164.642 2482,-138 2681.74,-97.3578 2918.44,-46.8827 3024.58,-24.1263"/>
<polygon fill="#cccccc" stroke="#cccccc" points="3025.4,-27.5312 3034.44,-22.0119 3023.93,-20.6869 3025.4,-27.5312"/>
</g>
<!-- String.UTF8View -->
<g id="node31" class="node">
<g id="a_node31"><a xlink:href="/swift-2/type/String.UTF8View/" target="_top">
<polygon fill="#999999" stroke="#999999" points="3253.36,-22 3152.64,-22 3152.64,-0 3253.36,-0 3253.36,-22"/>
<text text-anchor="middle" x="3203" y="-7.4" font-family="Helvetica,sans-Serif" font-size="12.00" fill="white">String.UTF8View</text>
</a>
</g>
</g>
<!-- CollectionType&#45;&gt;String.UTF8View -->
<g id="edge32" class="edge">
<path fill="none" stroke="#cccccc" d="M1602.1,-241.11C1713.71,-238.431 2016.21,-228.502 2266,-196 2607.21,-151.602 3011.07,-58.2461 3151.69,-24.5036"/>
<polygon fill="#cccccc" stroke="#cccccc" points="3152.85,-27.8259 3161.75,-22.0841 3151.21,-21.0201 3152.85,-27.8259"/>
</g>
<!-- String.UnicodeScalarView -->
<g id="node32" class="node">
<g id="a_node32"><a xlink:href="/swift-2/type/String.UnicodeScalarView/" target="_top">
<polygon fill="#999999" stroke="#999999" points="1057.89,-22 910.108,-22 910.108,-0 1057.89,-0 1057.89,-22"/>
<text text-anchor="middle" x="984" y="-7.4" font-family="Helvetica,sans-Serif" font-size="12.00" fill="white">String.UnicodeScalarView</text>
</a>
</g>
</g>
<!-- CollectionType&#45;&gt;String.UnicodeScalarView -->
<g id="edge30" class="edge">
<path fill="none" stroke="#cccccc" d="M1529.62,-231.844C1505.14,-222.913 1468.95,-209.299 1438,-196 1307.22,-139.815 1282.28,-107.967 1149,-58 1112.66,-44.3764 1070.49,-32.6889 1037.88,-24.5038"/>
<polygon fill="#cccccc" stroke="#cccccc" points="1038.64,-21.0843 1028.09,-22.0778 1036.95,-27.879 1038.64,-21.0843"/>
</g>
<!-- UnicodeScalar.UTF16View -->
<g id="node33" class="node">
<g id="a_node33"><a xlink:href="/swift-2/type/UnicodeScalar.UTF16View/" target="_top">
<polygon fill="#999999" stroke="#999999" points="3424.39,-22 3271.61,-22 3271.61,-0 3424.39,-0 3424.39,-22"/>
<text text-anchor="middle" x="3348" y="-7.4" font-family="Helvetica,sans-Serif" font-size="12.00" fill="white">UnicodeScalar.UTF16View</text>
</a>
</g>
</g>
<!-- CollectionType&#45;&gt;UnicodeScalar.UTF16View -->
<g id="edge26" class="edge">
<path fill="none" stroke="#cccccc" d="M1602.05,-241.187C1722.5,-238.587 2067.35,-228.635 2352,-196 2502.99,-178.689 2539.47,-165.161 2689,-138 2909.55,-97.9397 3170.91,-46.9065 3287.09,-24.0354"/>
<polygon fill="#cccccc" stroke="#cccccc" points="3288.07,-27.4092 3297.21,-22.0427 3286.72,-20.5412 3288.07,-27.4092"/>
</g>
<!-- UnsafeBufferPointer -->
<g id="node34" class="node">
<g id="a_node34"><a xlink:href="/swift-2/type/UnsafeBufferPointer/" target="_top">
<polygon fill="#999999" stroke="#999999" points="3560.39,-22 3443.61,-22 3443.61,-0 3560.39,-0 3560.39,-22"/>
<text text-anchor="middle" x="3502" y="-7.4" font-family="Helvetica,sans-Serif" font-size="12.00" fill="white">UnsafeBufferPointer</text>
</a>
</g>
</g>
<!-- CollectionType&#45;&gt;UnsafeBufferPointer -->
<g id="edge27" class="edge">
<path fill="none" stroke="#cccccc" d="M1602.3,-241.57C1731.89,-239.909 2121.29,-232.048 2442,-196 2829.08,-152.491 3288.95,-57.7625 3446.14,-24.1383"/>
<polygon fill="#cccccc" stroke="#cccccc" points="3447.01,-27.5318 3456.05,-22.0131 3445.54,-20.6874 3447.01,-27.5318"/>
</g>
<!-- UnsafeMutableBufferPointer -->
<g id="node35" class="node">
<g id="a_node35"><a xlink:href="/swift-2/type/UnsafeMutableBufferPointer/" target="_top">
<polygon fill="#999999" stroke="#999999" points="1236.91,-22 1077.09,-22 1077.09,-0 1236.91,-0 1236.91,-22"/>
<text text-anchor="middle" x="1157" y="-7.4" font-family="Helvetica,sans-Serif" font-size="12.00" fill="white">UnsafeMutableBufferPointer</text>
</a>
</g>
</g>
<!-- CollectionType&#45;&gt;UnsafeMutableBufferPointer -->
<g id="edge28" class="edge">
<path fill="none" stroke="#cccccc" d="M1540.51,-231.969C1477.19,-195.652 1259.65,-70.878 1183.55,-27.226"/>
<polygon fill="#cccccc" stroke="#cccccc" points="1185,-24.0229 1174.58,-22.0835 1181.51,-30.095 1185,-24.0229"/>
</g>
<!-- Indexable -->
<g id="node14" class="node">
<g id="a_node14"><a xlink:href="/swift-2/protocol/Indexable/" target="_top">
<path fill="#999999" stroke="#999999" d="M1534.7,-312C1534.7,-312 1487.3,-312 1487.3,-312 1483.63,-312 1479.97,-308.333 1479.97,-304.667 1479.97,-304.667 1479.97,-297.333 1479.97,-297.333 1479.97,-293.667 1483.63,-290 1487.3,-290 1487.3,-290 1534.7,-290 1534.7,-290 1538.37,-290 1542.03,-293.667 1542.03,-297.333 1542.03,-297.333 1542.03,-304.667 1542.03,-304.667 1542.03,-308.333 1538.37,-312 1534.7,-312"/>
<text text-anchor="middle" x="1511" y="-297.4" font-family="Helvetica,sans-Serif" font-size="12.00" fill="white">Indexable</text>
</a>
</g>
</g>
<!-- Indexable&#45;&gt;CollectionType -->
<g id="edge55" class="edge">
<path fill="none" stroke="#cccccc" d="M1519.4,-289.988C1525.87,-282.281 1534.99,-271.419 1542.74,-262.187"/>
<polygon fill="#cccccc" stroke="#cccccc" points="1545.6,-264.214 1549.35,-254.304 1540.24,-259.714 1545.6,-264.214"/>
</g>
<!-- MutableCollectionType&#45;&gt;Array -->
<g id="edge36" class="edge">
<path fill="none" stroke="#cccccc" d="M748.966,-173.965C735.005,-166.294 718.105,-154.264 710,-138 705.639,-129.249 706.525,-125.14 710,-116 717.608,-95.9902 734.392,-100.01 742,-80 745.475,-70.8605 747.7,-65.9447 742,-58 738.968,-53.7732 682.039,-35.4925 642.808,-23.2881"/>
<polygon fill="#cccccc" stroke="#cccccc" points="643.6,-19.8695 633.012,-20.2524 641.528,-26.5558 643.6,-19.8695"/>
</g>
<!-- MutableCollectionType&#45;&gt;ArraySlice -->
<g id="edge37" class="edge">
<path fill="none" stroke="#cccccc" d="M705.442,-178.242C648.859,-171.884 573.007,-159.57 552,-138 524.457,-109.717 524.055,-60.0626 526.395,-32.2822"/>
<polygon fill="#cccccc" stroke="#cccccc" points="529.895,-32.4685 527.455,-22.1584 522.933,-31.7395 529.895,-32.4685"/>
</g>
<!-- MutableCollectionType&#45;&gt;ContiguousArray -->
<g id="edge38" class="edge">
<path fill="none" stroke="#cccccc" d="M836.363,-182.167C907.471,-178.633 1014.45,-168.285 1040,-138 1046.3,-130.526 1045.55,-124.047 1040,-116 998.685,-56.1539 956.422,-79.6573 887,-58 844.477,-44.7342 795.547,-32.7602 758.548,-24.3564"/>
<polygon fill="#cccccc" stroke="#cccccc" points="758.969,-20.8636 748.444,-22.0826 757.432,-27.6928 758.969,-20.8636"/>
</g>
<!-- MutableCollectionType&#45;&gt;MutableSliceable -->
<g id="edge39" class="edge">
<path fill="none" stroke="#cccccc" d="M742.574,-173.988C716.765,-164.898 678.503,-151.422 650.061,-141.405"/>
<polygon fill="#cccccc" stroke="#cccccc" points="651.042,-138.04 640.448,-138.019 648.717,-144.643 651.042,-138.04"/>
</g>
<!-- MutableCollectionType&#45;&gt;UnsafeMutableBufferPointer -->
<g id="edge40" class="edge">
<path fill="none" stroke="#cccccc" d="M836.552,-178.968C909.1,-172.446 1020.6,-159.313 1057,-138 1100.76,-112.376 1132.76,-59.7062 1147.66,-31.2527"/>
<polygon fill="#cccccc" stroke="#cccccc" points="1150.81,-32.784 1152.21,-22.2822 1144.56,-29.6178 1150.81,-32.784"/>
</g>
<!-- _ArrayBufferType -->
<g id="node36" class="node">
<g id="a_node36"><a xlink:href="/swift-2/protocol/_ArrayBufferType/" target="_top">
<path fill="#999999" stroke="#999999" d="M815.044,-138C815.044,-138 726.956,-138 726.956,-138 723.29,-138 719.623,-134.333 719.623,-130.667 719.623,-130.667 719.623,-123.333 719.623,-123.333 719.623,-119.667 723.29,-116 726.956,-116 726.956,-116 815.044,-116 815.044,-116 818.71,-116 822.377,-119.667 822.377,-123.333 822.377,-123.333 822.377,-130.667 822.377,-130.667 822.377,-134.333 818.71,-138 815.044,-138"/>
<text text-anchor="middle" x="771" y="-123.4" font-family="Helvetica,sans-Serif" font-size="12.00" fill="white">_ArrayBufferType</text>
</a>
</g>
</g>
<!-- MutableCollectionType&#45;&gt;_ArrayBufferType -->
<g id="edge41" class="edge">
<path fill="none" stroke="#cccccc" d="M771,-173.988C771,-166.91 771,-157.171 771,-148.478"/>
<polygon fill="#cccccc" stroke="#cccccc" points="774.5,-148.304 771,-138.304 767.5,-148.304 774.5,-148.304"/>
</g>
<!-- MutableSliceable&#45;&gt;Array -->
<g id="edge42" class="edge">
<path fill="none" stroke="#cccccc" d="M611.468,-115.883C610.483,-97.1703 608.359,-56.8266 607.068,-32.2866"/>
<polygon fill="#cccccc" stroke="#cccccc" points="610.561,-32.0601 606.54,-22.2579 603.57,-32.4281 610.561,-32.0601"/>
</g>
<!-- MutableSliceable&#45;&gt;ArraySlice -->
<g id="edge43" class="edge">
<path fill="none" stroke="#cccccc" d="M604.634,-115.883C590.703,-96.7488 560.306,-54.9984 542.581,-30.6529"/>
<polygon fill="#cccccc" stroke="#cccccc" points="545.184,-28.2822 536.469,-22.2579 539.525,-32.4023 545.184,-28.2822"/>
</g>
<!-- MutableSliceable&#45;&gt;ContiguousArray -->
<g id="edge44" class="edge">
<path fill="none" stroke="#cccccc" d="M662.42,-122.009C690.792,-116.879 724.034,-105.414 742,-80 753.859,-63.2248 738.017,-42.9371 722.707,-28.9108"/>
<polygon fill="#cccccc" stroke="#cccccc" points="724.764,-26.0633 714.899,-22.1986 720.201,-31.3715 724.764,-26.0633"/>
</g>
<!-- _ArrayType -->
<g id="node37" class="node">
<g id="a_node37"><a xlink:href="/swift-2/protocol/_ArrayType/" target="_top">
<path fill="#999999" stroke="#999999" d="M726.19,-80C726.19,-80 669.81,-80 669.81,-80 666.144,-80 662.477,-76.3333 662.477,-72.6667 662.477,-72.6667 662.477,-65.3333 662.477,-65.3333 662.477,-61.6667 666.144,-58 669.81,-58 669.81,-58 726.19,-58 726.19,-58 729.856,-58 733.523,-61.6667 733.523,-65.3333 733.523,-65.3333 733.523,-72.6667 733.523,-72.6667 733.523,-76.3333 729.856,-80 726.19,-80"/>
<text text-anchor="middle" x="698" y="-65.4" font-family="Helvetica,sans-Serif" font-size="12.00" fill="white">_ArrayType</text>
</a>
</g>
</g>
<!-- MutableSliceable&#45;&gt;_ArrayType -->
<g id="edge45" class="edge">
<path fill="none" stroke="#cccccc" d="M627.375,-115.988C640.258,-107.599 658.879,-95.4743 673.766,-85.7804"/>
<polygon fill="#cccccc" stroke="#cccccc" points="675.998,-88.5036 682.468,-80.1138 672.178,-82.6376 675.998,-88.5036"/>
</g>
<!-- RangeReplaceableCollectionType&#45;&gt;Array -->
<g id="edge49" class="edge">
<path fill="none" stroke="#cccccc" d="M918.496,-115.858C887.42,-97.9096 824.847,-62.0507 814,-58 743.835,-31.7974 719.854,-39.721 643.209,-22.1259"/>
<polygon fill="#cccccc" stroke="#cccccc" points="643.615,-18.6253 633.078,-19.7236 642,-25.4365 643.615,-18.6253"/>
</g>
<!-- RangeReplaceableCollectionType&#45;&gt;ArraySlice -->
<g id="edge50" class="edge">
<path fill="none" stroke="#cccccc" d="M855.302,-115.985C785.22,-106.721 689.419,-92.5303 653,-80 615.532,-67.109 576.026,-43.4474 551.941,-27.7178"/>
<polygon fill="#cccccc" stroke="#cccccc" points="553.769,-24.7303 543.501,-22.1166 549.898,-30.5627 553.769,-24.7303"/>
</g>
<!-- RangeReplaceableCollectionType&#45;&gt;ContiguousArray -->
<g id="edge51" class="edge">
<path fill="none" stroke="#cccccc" d="M926.81,-115.698C913.041,-100.869 885.606,-73.5802 857,-58 827.036,-41.6799 790.601,-30.5175 760.48,-23.2801"/>
<polygon fill="#cccccc" stroke="#cccccc" points="761.058,-19.8213 750.526,-20.9743 759.478,-26.6407 761.058,-19.8213"/>
</g>
<!-- RangeReplaceableCollectionType&#45;&gt;String.CharacterView -->
<g id="edge53" class="edge">
<path fill="none" stroke="#cccccc" d="M932.101,-115.847C926.293,-101.68 914.282,-75.731 898,-58 886.721,-45.717 871.548,-35.053 858.396,-27.0939"/>
<polygon fill="#cccccc" stroke="#cccccc" points="860.091,-24.0306 849.687,-22.0292 856.572,-30.0819 860.091,-24.0306"/>
</g>
<!-- RangeReplaceableCollectionType&#45;&gt;String.UnicodeScalarView -->
<g id="edge54" class="edge">
<path fill="none" stroke="#cccccc" d="M940.26,-115.883C948.21,-97.0017 965.432,-56.098 975.736,-31.6272"/>
<polygon fill="#cccccc" stroke="#cccccc" points="979.026,-32.8325 979.681,-22.2579 972.575,-30.1161 979.026,-32.8325"/>
</g>
<!-- RangeReplaceableCollectionType&#45;&gt;_ArrayType -->
<g id="edge52" class="edge">
<path fill="none" stroke="#cccccc" d="M893.45,-115.988C851.241,-106.057 786.777,-90.8887 743.549,-80.7175"/>
<polygon fill="#cccccc" stroke="#cccccc" points="744.121,-77.2564 733.585,-78.3729 742.517,-84.0703 744.121,-77.2564"/>
</g>
<!-- SequenceType -->
<g id="node26" class="node">
<g id="a_node26"><a xlink:href="/swift-2/protocol/SequenceType/" target="_top">
<path fill="#999999" stroke="#999999" d="M1642.72,-312C1642.72,-312 1567.28,-312 1567.28,-312 1563.62,-312 1559.95,-308.333 1559.95,-304.667 1559.95,-304.667 1559.95,-297.333 1559.95,-297.333 1559.95,-293.667 1563.62,-290 1567.28,-290 1567.28,-290 1642.72,-290 1642.72,-290 1646.38,-290 1650.05,-293.667 1650.05,-297.333 1650.05,-297.333 1650.05,-304.667 1650.05,-304.667 1650.05,-308.333 1646.38,-312 1642.72,-312"/>
<text text-anchor="middle" x="1605" y="-297.4" font-family="Helvetica,sans-Serif" font-size="12.00" fill="white">SequenceType</text>
</a>
</g>
</g>
<!-- SequenceType&#45;&gt;CollectionType -->
<g id="edge56" class="edge">
<path fill="none" stroke="#cccccc" d="M1596.6,-289.988C1590.13,-282.281 1581.01,-271.419 1573.26,-262.187"/>
<polygon fill="#cccccc" stroke="#cccccc" points="1575.76,-259.714 1566.65,-254.304 1570.4,-264.214 1575.76,-259.714"/>
</g>
<!-- _ArrayType&#45;&gt;Array -->
<g id="edge46" class="edge">
<path fill="none" stroke="#cccccc" d="M681.552,-57.9883C667.64,-49.5201 647.474,-37.2452 631.475,-27.5067"/>
<polygon fill="#cccccc" stroke="#cccccc" points="632.977,-24.3236 622.616,-22.1138 629.338,-30.303 632.977,-24.3236"/>
</g>
<!-- _ArrayType&#45;&gt;ArraySlice -->
<g id="edge47" class="edge">
<path fill="none" stroke="#cccccc" d="M667.786,-57.9883C640.234,-48.8587 599.33,-35.3046 569.06,-25.2743"/>
<polygon fill="#cccccc" stroke="#cccccc" points="569.83,-21.8424 559.237,-22.0192 567.628,-28.4871 569.83,-21.8424"/>
</g>
<!-- _ArrayType&#45;&gt;ContiguousArray -->
<g id="edge48" class="edge">
<path fill="none" stroke="#cccccc" d="M698.536,-57.9883C698.916,-50.9098 699.437,-41.1714 699.903,-32.4779"/>
<polygon fill="#cccccc" stroke="#cccccc" points="703.408,-32.4768 700.448,-22.3039 696.418,-32.1023 703.408,-32.4768"/>
</g>
</g>
</svg>
