<?xml version="1.0" encoding="UTF-8" standalone="no"?>
<!DOCTYPE svg PUBLIC "-//W3C//DTD SVG 1.1//EN"
 "http://www.w3.org/Graphics/SVG/1.1/DTD/svg11.dtd">
<!-- Generated by graphviz version 2.36.0 (20140111.2315)
 -->
<!-- Title: Int64 &#45; Type Hierarchy &#45; SwiftDoc.org Pages: 1 -->
<svg width="1374pt" height="543pt"
 viewBox="0.00 0.00 1374.40 543.20" xmlns="http://www.w3.org/2000/svg" xmlns:xlink="http://www.w3.org/1999/xlink">
<g id="graph0" class="graph" transform="scale(1 1) rotate(0) translate(7.2 485.6)">
<g transform="translate(0 -485.6)">
<g>
    <path fill="#666666" d="M13.846,10.832c-0.336-0.464-0.792-0.844-1.368-1.14s-1.224-0.444-1.944-0.444
        c-0.384,0-0.772,0.052-1.164,0.156C8.977,9.509,8.622,9.677,8.301,9.908c-0.32,0.232-0.58,0.52-0.78,0.864
        c-0.2,0.344-0.3,0.756-0.3,1.236c0,0.464,0.092,0.852,0.276,1.164c0.184,0.312,0.432,0.576,0.744,0.792s0.68,0.4,1.104,0.552
        c0.423,0.152,0.876,0.309,1.356,0.468c0.576,0.177,1.16,0.376,1.752,0.601c0.592,0.224,1.128,0.52,1.608,0.888
        s0.872,0.828,1.176,1.38s0.456,1.252,0.456,2.101c0,0.88-0.164,1.644-0.492,2.292c-0.328,0.647-0.765,1.184-1.308,1.607
        c-0.544,0.424-1.172,0.74-1.884,0.948s-1.444,0.312-2.196,0.312c-1.072,0-2.108-0.208-3.108-0.624
        c-1-0.415-1.828-1.031-2.484-1.848l1.848-1.56c0.4,0.592,0.936,1.071,1.608,1.439c0.672,0.368,1.399,0.552,2.184,0.552
        c0.4,0,0.8-0.056,1.2-0.168c0.4-0.111,0.764-0.288,1.092-0.527c0.328-0.24,0.596-0.54,0.804-0.9
        c0.208-0.36,0.312-0.796,0.312-1.308s-0.108-0.94-0.324-1.284c-0.216-0.344-0.508-0.636-0.876-0.876s-0.796-0.444-1.284-0.612
        c-0.488-0.168-1.004-0.34-1.548-0.516c-0.544-0.16-1.08-0.356-1.608-0.588c-0.528-0.232-1-0.528-1.416-0.889
        c-0.416-0.359-0.752-0.804-1.008-1.332c-0.256-0.527-0.384-1.184-0.384-1.968c0-0.848,0.172-1.576,0.516-2.184
        c0.344-0.608,0.792-1.112,1.344-1.512c0.552-0.4,1.176-0.692,1.872-0.876c0.696-0.184,1.396-0.276,2.1-0.276
        c0.992,0,1.92,0.176,2.784,0.528c0.864,0.352,1.56,0.824,2.088,1.416L13.846,10.832z"/>
    <path fill="#666666" d="M18.813,13.304l2.568,8.688h0.048l2.712-8.688h2.376l2.76,8.688h0.048l2.568-8.688h2.376L30.501,24.68
        h-2.352l-2.808-8.544h-0.048l-2.784,8.544h-2.352l-3.792-11.376H18.813z"/>
    <path fill="#666666" d="M38.685,9.2c0,0.416-0.147,0.76-0.44,1.032c-0.294,0.272-0.647,0.408-1.06,0.408s-0.762-0.14-1.047-0.42
        c-0.286-0.28-0.429-0.62-0.429-1.02c0-0.416,0.143-0.764,0.429-1.044c0.286-0.28,0.635-0.42,1.047-0.42s0.766,0.14,1.06,0.42
        C38.538,8.437,38.685,8.784,38.685,9.2z M38.325,24.68h-2.256V13.304h2.256V24.68z"/>
    <path fill="#666666" d="M47.613,15.152h-2.64v9.528h-2.256v-9.528h-2.256v-1.848h2.256v-2.376c0-0.672,0.076-1.292,0.228-1.86
        c0.152-0.568,0.4-1.06,0.744-1.476c0.344-0.416,0.784-0.744,1.32-0.984c0.536-0.24,1.188-0.36,1.956-0.36
        c0.544,0,1.016,0.056,1.416,0.168l-0.264,1.944c-0.176-0.048-0.352-0.088-0.528-0.12c-0.176-0.032-0.376-0.048-0.6-0.048
        c-0.432,0-0.78,0.076-1.044,0.228c-0.264,0.152-0.468,0.356-0.612,0.612s-0.24,0.548-0.288,0.876
        c-0.048,0.328-0.072,0.668-0.072,1.02v2.376h2.64V15.152z"/>
    <path fill="#666666" d="M54.909,15.152h-3.024v5.91c0,0.687,0.128,1.177,0.384,1.472c0.256,0.295,0.664,0.442,1.224,0.442
        c0.208,0,0.432-0.021,0.672-0.065c0.24-0.044,0.456-0.11,0.648-0.198l0.072,1.848c-0.272,0.096-0.572,0.172-0.9,0.229
        c-0.328,0.056-0.668,0.084-1.02,0.084c-1.072,0-1.892-0.296-2.46-0.889c-0.568-0.592-0.852-1.479-0.852-2.664v-6.168h-2.184
        v-1.848h2.184V10.04h2.232v3.264h3.024V15.152z"/>
    <path fill="#666666" d="M57.356,7.688h5.832c1.088,0,2.176,0.16,3.264,0.48c1.088,0.32,2.072,0.824,2.952,1.512
        s1.592,1.568,2.136,2.64c0.544,1.072,0.816,2.36,0.816,3.864c0,1.456-0.272,2.716-0.816,3.78s-1.256,1.943-2.136,2.64
        s-1.864,1.216-2.952,1.561c-1.088,0.344-2.176,0.516-3.264,0.516h-5.832V7.688z M59.732,22.593h2.976
        c1.024,0,1.972-0.145,2.844-0.432c0.872-0.288,1.624-0.704,2.256-1.248c0.632-0.544,1.124-1.216,1.476-2.017
        c0.352-0.8,0.528-1.704,0.528-2.712c0-1.056-0.176-1.983-0.528-2.784c-0.353-0.8-0.844-1.468-1.476-2.004
        c-0.632-0.536-1.384-0.944-2.256-1.224s-1.82-0.42-2.844-0.42h-2.976V22.593z"/>
    <path fill="#666666" d="M86.06,18.969c0,0.88-0.156,1.688-0.468,2.424c-0.312,0.736-0.744,1.372-1.296,1.908
        c-0.552,0.536-1.204,0.952-1.956,1.248c-0.752,0.296-1.56,0.443-2.424,0.443c-0.864,0-1.672-0.147-2.424-0.443
        c-0.752-0.296-1.4-0.712-1.944-1.248c-0.544-0.536-0.972-1.172-1.284-1.908c-0.312-0.735-0.468-1.544-0.468-2.424
        s0.156-1.684,0.468-2.412c0.312-0.728,0.74-1.356,1.284-1.884c0.543-0.528,1.191-0.939,1.944-1.236
        c0.752-0.296,1.56-0.444,2.424-0.444c0.864,0,1.672,0.148,2.424,0.444c0.752,0.297,1.404,0.708,1.956,1.236
        c0.552,0.527,0.984,1.156,1.296,1.884C85.904,17.285,86.06,18.089,86.06,18.969z M83.708,18.98c0-0.542-0.084-1.061-0.252-1.556
        c-0.169-0.494-0.414-0.929-0.734-1.304s-0.718-0.674-1.192-0.897s-1.015-0.335-1.625-0.335c-0.61,0-1.152,0.111-1.625,0.335
        c-0.474,0.224-0.871,0.522-1.191,0.897c-0.321,0.375-0.566,0.81-0.734,1.304C76.184,17.92,76.1,18.438,76.1,18.98
        c0,0.543,0.084,1.062,0.253,1.556c0.168,0.495,0.413,0.934,0.734,1.316c0.321,0.383,0.718,0.686,1.191,0.909
        c0.473,0.224,1.015,0.335,1.625,0.335c0.61,0,1.151-0.111,1.625-0.335s0.871-0.526,1.192-0.909s0.565-0.821,0.734-1.316
        C83.624,20.042,83.708,19.523,83.708,18.98z"/>
    <path fill="#666666" d="M96.428,16.184c-0.24-0.368-0.6-0.676-1.08-0.924s-0.992-0.372-1.536-0.372
        c-0.592,0-1.116,0.112-1.572,0.336c-0.456,0.225-0.844,0.524-1.164,0.9c-0.32,0.376-0.564,0.812-0.732,1.308
        s-0.252,1.017-0.252,1.56c0,0.545,0.084,1.064,0.252,1.561s0.412,0.933,0.732,1.308c0.32,0.376,0.712,0.677,1.176,0.9
        c0.464,0.225,0.992,0.336,1.584,0.336c0.576,0,1.1-0.111,1.572-0.336c0.472-0.224,0.86-0.528,1.164-0.912l1.512,1.368
        c-0.48,0.561-1.08,0.996-1.8,1.308c-0.72,0.312-1.536,0.468-2.448,0.468c-0.88,0-1.692-0.144-2.436-0.432
        c-0.744-0.288-1.388-0.691-1.932-1.212c-0.544-0.52-0.972-1.147-1.284-1.884s-0.468-1.561-0.468-2.473
        c0-0.896,0.152-1.711,0.456-2.447c0.304-0.736,0.728-1.368,1.272-1.896c0.543-0.527,1.188-0.936,1.932-1.224
        c0.744-0.288,1.548-0.433,2.412-0.433c0.8,0,1.596,0.16,2.388,0.48s1.419,0.784,1.884,1.392L96.428,16.184z"/>
    <path fill="#666666" d="M103.1,23.24c0,0.417-0.152,0.784-0.456,1.104c-0.304,0.32-0.688,0.479-1.152,0.479
        c-0.448,0-0.828-0.155-1.14-0.468c-0.312-0.312-0.468-0.676-0.468-1.092c0-0.432,0.152-0.804,0.456-1.116
        c0.304-0.312,0.688-0.468,1.152-0.468c0.464,0,0.848,0.152,1.152,0.456C102.947,22.44,103.1,22.808,103.1,23.24z"/>
    <path fill="#666666" d="M116.635,18.969c0,0.88-0.156,1.688-0.468,2.424c-0.312,0.736-0.744,1.372-1.296,1.908
        c-0.552,0.536-1.204,0.952-1.956,1.248c-0.752,0.296-1.56,0.443-2.424,0.443c-0.864,0-1.672-0.147-2.424-0.443
        c-0.752-0.296-1.4-0.712-1.944-1.248c-0.544-0.536-0.972-1.172-1.284-1.908c-0.312-0.735-0.468-1.544-0.468-2.424
        s0.156-1.684,0.468-2.412c0.312-0.728,0.74-1.356,1.284-1.884c0.543-0.528,1.191-0.939,1.944-1.236
        c0.752-0.296,1.56-0.444,2.424-0.444c0.864,0,1.672,0.148,2.424,0.444c0.752,0.297,1.404,0.708,1.956,1.236
        c0.552,0.527,0.984,1.156,1.296,1.884C116.479,17.285,116.635,18.089,116.635,18.969z M114.283,18.98
        c0-0.542-0.084-1.061-0.252-1.556c-0.169-0.494-0.414-0.929-0.734-1.304s-0.718-0.674-1.192-0.897s-1.015-0.335-1.625-0.335
        c-0.61,0-1.152,0.111-1.625,0.335c-0.474,0.224-0.871,0.522-1.191,0.897c-0.321,0.375-0.566,0.81-0.734,1.304
        c-0.169,0.495-0.253,1.014-0.253,1.556c0,0.543,0.084,1.062,0.253,1.556c0.168,0.495,0.413,0.934,0.734,1.316
        c0.321,0.383,0.718,0.686,1.191,0.909c0.473,0.224,1.015,0.335,1.625,0.335c0.61,0,1.151-0.111,1.625-0.335
        s0.871-0.526,1.192-0.909s0.565-0.821,0.734-1.316C114.199,20.042,114.283,19.523,114.283,18.98z"/>
    <path fill="#666666" d="M119.251,14.577c-0.016-0.48-0.04-0.904-0.072-1.272h2.136c0.032,0.288,0.056,0.62,0.072,0.996
        c0.016,0.376,0.024,0.684,0.024,0.924h0.072c0.32-0.672,0.788-1.212,1.404-1.62c0.616-0.408,1.308-0.612,2.076-0.612
        c0.352,0,0.648,0.033,0.888,0.097l-0.096,2.088c-0.32-0.08-0.664-0.12-1.032-0.12c-0.544,0-1.016,0.101-1.416,0.3
        c-0.4,0.2-0.732,0.468-0.996,0.805c-0.264,0.336-0.46,0.724-0.588,1.163c-0.128,0.44-0.192,0.9-0.192,1.381v5.976h-2.256v-8.928
        C119.275,15.449,119.267,15.056,119.251,14.577z"/>
    <path fill="#666666" d="M128.419,26.625c0.496,0.56,1.116,1.008,1.86,1.344c0.744,0.336,1.508,0.504,2.292,0.504
        c0.752,0,1.384-0.108,1.896-0.324s0.924-0.512,1.236-0.888s0.536-0.82,0.672-1.332c0.136-0.513,0.204-1.064,0.204-1.656v-1.464
        h-0.048c-0.416,0.641-0.984,1.128-1.704,1.464c-0.72,0.336-1.488,0.504-2.304,0.504c-0.864,0-1.652-0.151-2.364-0.456
        c-0.712-0.304-1.316-0.72-1.812-1.248c-0.496-0.527-0.88-1.147-1.152-1.859s-0.408-1.477-0.408-2.292
        c0-0.816,0.136-1.584,0.408-2.305c0.272-0.72,0.656-1.348,1.152-1.884c0.496-0.535,1.096-0.96,1.8-1.271
        c0.704-0.312,1.488-0.469,2.352-0.469c0.816,0,1.596,0.177,2.34,0.528c0.744,0.353,1.332,0.888,1.764,1.608h0.048v-1.824h2.184
        v10.8c0,0.832-0.104,1.628-0.312,2.388c-0.208,0.76-0.56,1.433-1.056,2.017s-1.144,1.052-1.944,1.404
        c-0.8,0.352-1.792,0.527-2.976,0.527c-0.992,0-1.988-0.18-2.988-0.54c-1-0.359-1.86-0.868-2.58-1.523L128.419,26.625z
         M129.091,18.873c0,0.527,0.084,1.031,0.253,1.512c0.168,0.479,0.417,0.904,0.746,1.271c0.329,0.369,0.726,0.664,1.192,0.889
        c0.465,0.224,0.995,0.336,1.589,0.336c0.577,0,1.107-0.104,1.589-0.312c0.481-0.207,0.891-0.491,1.228-0.852
        s0.598-0.784,0.782-1.272c0.185-0.487,0.277-1.012,0.277-1.571c0-0.544-0.093-1.057-0.277-1.536
        c-0.185-0.48-0.449-0.904-0.794-1.272c-0.345-0.367-0.755-0.66-1.228-0.876c-0.474-0.216-1-0.324-1.577-0.324
        c-0.594,0-1.124,0.108-1.589,0.324c-0.466,0.216-0.863,0.504-1.192,0.864s-0.578,0.784-0.746,1.271
        C129.175,17.812,129.091,18.329,129.091,18.873z"/>
</g>
<g><a xlink:href="/" pointer-events="all" target="_top"><polygon fill="none" points="0,0 145,0 145,35 0,35 0,0"/></a></g>

</g>


<!-- BidirectionalIndexType -->
<g id="node1" class="node">
<g id="a_node1"><a xlink:href="/v2.0/protocol/BidirectionalIndexType/" target="_top">
<path fill="#999999" stroke="#999999" d="M1324.73,-254C1324.73,-254 1209.27,-254 1209.27,-254 1205.61,-254 1201.94,-250.333 1201.94,-246.667 1201.94,-246.667 1201.94,-239.333 1201.94,-239.333 1201.94,-235.667 1205.61,-232 1209.27,-232 1209.27,-232 1324.73,-232 1324.73,-232 1328.39,-232 1332.06,-235.667 1332.06,-239.333 1332.06,-239.333 1332.06,-246.667 1332.06,-246.667 1332.06,-250.333 1328.39,-254 1324.73,-254"/>
<text text-anchor="middle" x="1267" y="-239.4" font-family="Helvetica,sans-Serif" font-size="12.00" fill="white">BidirectionalIndexType</text>
</a>
</g>
</g>
<!-- Int64 -->
<g id="node9" class="node">
<g id="a_node9"><a xlink:href="/v2.0/type/Int64/" target="_top">
<polygon fill="#ee543d" stroke="#ee543d" points="727,-22 673,-22 673,-0 727,-0 727,-22"/>
<text text-anchor="middle" x="700" y="-7.4" font-family="Helvetica,sans-Serif" font-size="12.00" fill="white">Int64</text>
</a>
</g>
</g>
<!-- BidirectionalIndexType&#45;&gt;Int64 -->
<g id="edge13" class="edge">
<path fill="none" stroke="#cccccc" d="M1272.67,-231.994C1289.18,-201.378 1333.25,-108.015 1287,-58 1249.66,-17.6167 860.197,-12.6223 737.086,-12.0557"/>
<polygon fill="#cccccc" stroke="#cccccc" points="737.029,-8.55559 727.016,-12.0167 737.002,-15.5555 737.029,-8.55559"/>
</g>
<!-- RandomAccessIndexType -->
<g id="node14" class="node">
<g id="a_node14"><a xlink:href="/v2.0/protocol/RandomAccessIndexType/" target="_top">
<path fill="#999999" stroke="#999999" d="M1021.23,-196C1021.23,-196 886.775,-196 886.775,-196 883.108,-196 879.441,-192.333 879.441,-188.667 879.441,-188.667 879.441,-181.333 879.441,-181.333 879.441,-177.667 883.108,-174 886.775,-174 886.775,-174 1021.23,-174 1021.23,-174 1024.89,-174 1028.56,-177.667 1028.56,-181.333 1028.56,-181.333 1028.56,-188.667 1028.56,-188.667 1028.56,-192.333 1024.89,-196 1021.23,-196"/>
<text text-anchor="middle" x="954" y="-181.4" font-family="Helvetica,sans-Serif" font-size="12.00" fill="white">RandomAccessIndexType</text>
</a>
</g>
</g>
<!-- BidirectionalIndexType&#45;&gt;RandomAccessIndexType -->
<g id="edge42" class="edge">
<path fill="none" stroke="#cccccc" d="M1211.04,-231.988C1157.46,-222.402 1076.62,-207.938 1019.94,-197.797"/>
<polygon fill="#cccccc" stroke="#cccccc" points="1020.46,-194.335 1010,-196.019 1019.23,-201.226 1020.46,-194.335"/>
</g>
<!-- BitwiseOperationsType -->
<g id="node2" class="node">
<g id="a_node2"><a xlink:href="/v2.0/protocol/BitwiseOperationsType/" target="_top">
<path fill="#999999" stroke="#999999" d="M268.715,-254C268.715,-254 151.285,-254 151.285,-254 147.618,-254 143.952,-250.333 143.952,-246.667 143.952,-246.667 143.952,-239.333 143.952,-239.333 143.952,-235.667 147.618,-232 151.285,-232 151.285,-232 268.715,-232 268.715,-232 272.382,-232 276.048,-235.667 276.048,-239.333 276.048,-239.333 276.048,-246.667 276.048,-246.667 276.048,-250.333 272.382,-254 268.715,-254"/>
<text text-anchor="middle" x="210" y="-239.4" font-family="Helvetica,sans-Serif" font-size="12.00" fill="white">BitwiseOperationsType</text>
</a>
</g>
</g>
<!-- BitwiseOperationsType&#45;&gt;Int64 -->
<g id="edge20" class="edge">
<path fill="none" stroke="#cccccc" d="M216.866,-231.851C239.037,-199.988 312.393,-101.487 400,-58 445.566,-35.3816 593.063,-20.714 662.807,-14.8708"/>
<polygon fill="#cccccc" stroke="#cccccc" points="663.229,-18.3481 672.908,-14.0409 662.655,-11.3716 663.229,-18.3481"/>
</g>
<!-- _IntegerType -->
<g id="node21" class="node">
<g id="a_node21"><a xlink:href="/v2.0/protocol/_IntegerType/" target="_top">
<path fill="#999999" stroke="#999999" d="M498.708,-196C498.708,-196 433.292,-196 433.292,-196 429.626,-196 425.959,-192.333 425.959,-188.667 425.959,-188.667 425.959,-181.333 425.959,-181.333 425.959,-177.667 429.626,-174 433.292,-174 433.292,-174 498.708,-174 498.708,-174 502.374,-174 506.041,-177.667 506.041,-181.333 506.041,-181.333 506.041,-188.667 506.041,-188.667 506.041,-192.333 502.374,-196 498.708,-196"/>
<text text-anchor="middle" x="466" y="-181.4" font-family="Helvetica,sans-Serif" font-size="12.00" fill="white">_IntegerType</text>
</a>
</g>
</g>
<!-- BitwiseOperationsType&#45;&gt;_IntegerType -->
<g id="edge31" class="edge">
<path fill="none" stroke="#cccccc" d="M255.768,-231.988C300.787,-222.14 369.342,-207.144 415.825,-196.976"/>
<polygon fill="#cccccc" stroke="#cccccc" points="416.662,-200.376 425.683,-194.819 415.166,-193.537 416.662,-200.376"/>
</g>
<!-- CVarArgType -->
<g id="node3" class="node">
<g id="a_node3"><a xlink:href="/v2.0/protocol/CVarArgType/" target="_top">
<path fill="#999999" stroke="#999999" d="M204.029,-138C204.029,-138 137.971,-138 137.971,-138 134.304,-138 130.638,-134.333 130.638,-130.667 130.638,-130.667 130.638,-123.333 130.638,-123.333 130.638,-119.667 134.304,-116 137.971,-116 137.971,-116 204.029,-116 204.029,-116 207.696,-116 211.362,-119.667 211.362,-123.333 211.362,-123.333 211.362,-130.667 211.362,-130.667 211.362,-134.333 207.696,-138 204.029,-138"/>
<text text-anchor="middle" x="171" y="-123.4" font-family="Helvetica,sans-Serif" font-size="12.00" fill="white">CVarArgType</text>
</a>
</g>
</g>
<!-- CVarArgType&#45;&gt;Int64 -->
<g id="edge23" class="edge">
<path fill="none" stroke="#cccccc" d="M180.12,-115.766C194.652,-100.232 224.734,-71.122 257,-58 330.365,-28.1635 569.987,-16.6224 662.804,-13.2018"/>
<polygon fill="#cccccc" stroke="#cccccc" points="662.995,-16.6973 672.864,-12.8419 662.745,-9.70181 662.995,-16.6973"/>
</g>
<!-- _CVarArgAlignedType -->
<g id="node18" class="node">
<g id="a_node18"><a xlink:href="/v2.0/protocol/_CVarArgAlignedType/" target="_top">
<path fill="#999999" stroke="#999999" d="M197.059,-80C197.059,-80 84.9411,-80 84.9411,-80 81.2745,-80 77.6078,-76.3333 77.6078,-72.6667 77.6078,-72.6667 77.6078,-65.3333 77.6078,-65.3333 77.6078,-61.6667 81.2745,-58 84.9411,-58 84.9411,-58 197.059,-58 197.059,-58 200.726,-58 204.392,-61.6667 204.392,-65.3333 204.392,-65.3333 204.392,-72.6667 204.392,-72.6667 204.392,-76.3333 200.726,-80 197.059,-80"/>
<text text-anchor="middle" x="141" y="-65.4" font-family="Helvetica,sans-Serif" font-size="12.00" fill="white">_CVarArgAlignedType</text>
</a>
</g>
</g>
<!-- CVarArgType&#45;&gt;_CVarArgAlignedType -->
<g id="edge51" class="edge">
<path fill="none" stroke="#cccccc" d="M165.637,-115.988C161.676,-108.595 156.161,-98.3005 151.353,-89.3253"/>
<polygon fill="#cccccc" stroke="#cccccc" points="154.327,-87.4659 146.52,-80.3039 148.157,-90.7715 154.327,-87.4659"/>
</g>
<!-- Comparable -->
<g id="node4" class="node">
<g id="a_node4"><a xlink:href="/v2.0/protocol/Comparable/" target="_top">
<path fill="#999999" stroke="#999999" d="M692.191,-312C692.191,-312 631.809,-312 631.809,-312 628.142,-312 624.475,-308.333 624.475,-304.667 624.475,-304.667 624.475,-297.333 624.475,-297.333 624.475,-293.667 628.142,-290 631.809,-290 631.809,-290 692.191,-290 692.191,-290 695.858,-290 699.525,-293.667 699.525,-297.333 699.525,-297.333 699.525,-304.667 699.525,-304.667 699.525,-308.333 695.858,-312 692.191,-312"/>
<text text-anchor="middle" x="662" y="-297.4" font-family="Helvetica,sans-Serif" font-size="12.00" fill="white">Comparable</text>
</a>
</g>
</g>
<!-- Comparable&#45;&gt;Int64 -->
<g id="edge2" class="edge">
<path fill="none" stroke="#cccccc" d="M624.378,-299.582C509.322,-297.919 167.966,-289.969 135,-254 128.394,-246.792 130.673,-240.768 135,-232 163.126,-175.003 303.326,-82.4362 362,-58 415.78,-35.6019 586.537,-20.4614 662.702,-14.6525"/>
<polygon fill="#cccccc" stroke="#cccccc" points="663.09,-18.1334 672.8,-13.895 662.566,-11.153 663.09,-18.1334"/>
</g>
<!-- IntegerArithmeticType -->
<g id="node10" class="node">
<g id="a_node10"><a xlink:href="/v2.0/protocol/IntegerArithmeticType/" target="_top">
<path fill="#999999" stroke="#999999" d="M808.711,-254C808.711,-254 697.289,-254 697.289,-254 693.623,-254 689.956,-250.333 689.956,-246.667 689.956,-246.667 689.956,-239.333 689.956,-239.333 689.956,-235.667 693.623,-232 697.289,-232 697.289,-232 808.711,-232 808.711,-232 812.377,-232 816.044,-235.667 816.044,-239.333 816.044,-239.333 816.044,-246.667 816.044,-246.667 816.044,-250.333 812.377,-254 808.711,-254"/>
<text text-anchor="middle" x="753" y="-239.4" font-family="Helvetica,sans-Serif" font-size="12.00" fill="white">IntegerArithmeticType</text>
</a>
</g>
</g>
<!-- Comparable&#45;&gt;IntegerArithmeticType -->
<g id="edge35" class="edge">
<path fill="none" stroke="#cccccc" d="M678.269,-289.988C692.03,-281.52 711.977,-269.245 727.802,-259.507"/>
<polygon fill="#cccccc" stroke="#cccccc" points="729.883,-262.336 736.565,-254.114 726.214,-256.374 729.883,-262.336"/>
</g>
<!-- SignedNumberType -->
<g id="node16" class="node">
<g id="a_node16"><a xlink:href="/v2.0/protocol/SignedNumberType/" target="_top">
<path fill="#999999" stroke="#999999" d="M637.716,-196C637.716,-196 536.284,-196 536.284,-196 532.617,-196 528.95,-192.333 528.95,-188.667 528.95,-188.667 528.95,-181.333 528.95,-181.333 528.95,-177.667 532.617,-174 536.284,-174 536.284,-174 637.716,-174 637.716,-174 641.383,-174 645.05,-177.667 645.05,-181.333 645.05,-181.333 645.05,-188.667 645.05,-188.667 645.05,-192.333 641.383,-196 637.716,-196"/>
<text text-anchor="middle" x="587" y="-181.4" font-family="Helvetica,sans-Serif" font-size="12.00" fill="white">SignedNumberType</text>
</a>
</g>
</g>
<!-- Comparable&#45;&gt;SignedNumberType -->
<g id="edge38" class="edge">
<path fill="none" stroke="#cccccc" d="M661.102,-289.999C659.448,-276.013 654.917,-250.277 643,-232 635.246,-220.108 623.448,-209.762 612.677,-201.911"/>
<polygon fill="#cccccc" stroke="#cccccc" points="614.575,-198.967 604.357,-196.166 610.598,-204.728 614.575,-198.967"/>
</g>
<!-- Strideable -->
<g id="node17" class="node">
<g id="a_node17"><a xlink:href="/v2.0/protocol/Strideable/" target="_top">
<path fill="#999999" stroke="#999999" d="M890.693,-254C890.693,-254 841.307,-254 841.307,-254 837.64,-254 833.974,-250.333 833.974,-246.667 833.974,-246.667 833.974,-239.333 833.974,-239.333 833.974,-235.667 837.64,-232 841.307,-232 841.307,-232 890.693,-232 890.693,-232 894.36,-232 898.026,-235.667 898.026,-239.333 898.026,-239.333 898.026,-246.667 898.026,-246.667 898.026,-250.333 894.36,-254 890.693,-254"/>
<text text-anchor="middle" x="866" y="-239.4" font-family="Helvetica,sans-Serif" font-size="12.00" fill="white">Strideable</text>
</a>
</g>
</g>
<!-- Comparable&#45;&gt;Strideable -->
<g id="edge47" class="edge">
<path fill="none" stroke="#cccccc" d="M698.471,-289.988C733.669,-280.326 786.921,-265.708 823.902,-255.556"/>
<polygon fill="#cccccc" stroke="#cccccc" points="825.156,-258.842 833.872,-252.819 823.303,-252.091 825.156,-258.842"/>
</g>
<!-- CustomStringConvertible -->
<g id="node5" class="node">
<g id="a_node5"><a xlink:href="/v2.0/protocol/CustomStringConvertible/" target="_top">
<path fill="#999999" stroke="#999999" d="M430.208,-254C430.208,-254 301.792,-254 301.792,-254 298.126,-254 294.459,-250.333 294.459,-246.667 294.459,-246.667 294.459,-239.333 294.459,-239.333 294.459,-235.667 298.126,-232 301.792,-232 301.792,-232 430.208,-232 430.208,-232 433.874,-232 437.541,-235.667 437.541,-239.333 437.541,-239.333 437.541,-246.667 437.541,-246.667 437.541,-250.333 433.874,-254 430.208,-254"/>
<text text-anchor="middle" x="366" y="-239.4" font-family="Helvetica,sans-Serif" font-size="12.00" fill="white">CustomStringConvertible</text>
</a>
</g>
</g>
<!-- CustomStringConvertible&#45;&gt;Int64 -->
<g id="edge10" class="edge">
<path fill="none" stroke="#cccccc" d="M365.676,-231.697C365.296,-200.225 368.765,-104.66 422,-58 457.183,-27.1629 594.977,-16.727 662.413,-13.4211"/>
<polygon fill="#cccccc" stroke="#cccccc" points="662.778,-16.908 672.605,-12.9497 662.454,-9.9155 662.778,-16.908"/>
</g>
<!-- CustomStringConvertible&#45;&gt;_IntegerType -->
<g id="edge28" class="edge">
<path fill="none" stroke="#cccccc" d="M383.878,-231.988C399.141,-223.441 421.33,-211.015 438.796,-201.234"/>
<polygon fill="#cccccc" stroke="#cccccc" points="440.925,-204.054 447.94,-196.114 437.504,-197.946 440.925,-204.054"/>
</g>
<!-- Equatable -->
<g id="node6" class="node">
<g id="a_node6"><a xlink:href="/v2.0/protocol/Equatable/" target="_top">
<path fill="#999999" stroke="#999999" d="M272.702,-428C272.702,-428 223.298,-428 223.298,-428 219.632,-428 215.965,-424.333 215.965,-420.667 215.965,-420.667 215.965,-413.333 215.965,-413.333 215.965,-409.667 219.632,-406 223.298,-406 223.298,-406 272.702,-406 272.702,-406 276.368,-406 280.035,-409.667 280.035,-413.333 280.035,-413.333 280.035,-420.667 280.035,-420.667 280.035,-424.333 276.368,-428 272.702,-428"/>
<text text-anchor="middle" x="248" y="-413.4" font-family="Helvetica,sans-Serif" font-size="12.00" fill="white">Equatable</text>
</a>
</g>
</g>
<!-- Equatable&#45;&gt;Comparable -->
<g id="edge36" class="edge">
<path fill="none" stroke="#cccccc" d="M280.141,-407.149C352.983,-387.092 530.87,-338.108 615.625,-314.77"/>
<polygon fill="#cccccc" stroke="#cccccc" points="616.775,-318.084 625.487,-312.054 614.916,-311.335 616.775,-318.084"/>
</g>
<!-- Hashable -->
<g id="node8" class="node">
<g id="a_node8"><a xlink:href="/v2.0/protocol/Hashable/" target="_top">
<path fill="#999999" stroke="#999999" d="M80.6941,-254C80.6941,-254 35.3059,-254 35.3059,-254 31.6392,-254 27.9725,-250.333 27.9725,-246.667 27.9725,-246.667 27.9725,-239.333 27.9725,-239.333 27.9725,-235.667 31.6392,-232 35.3059,-232 35.3059,-232 80.6941,-232 80.6941,-232 84.3608,-232 88.0275,-235.667 88.0275,-239.333 88.0275,-239.333 88.0275,-246.667 88.0275,-246.667 88.0275,-250.333 84.3608,-254 80.6941,-254"/>
<text text-anchor="middle" x="58" y="-239.4" font-family="Helvetica,sans-Serif" font-size="12.00" fill="white">Hashable</text>
</a>
</g>
</g>
<!-- Equatable&#45;&gt;Hashable -->
<g id="edge33" class="edge">
<path fill="none" stroke="#cccccc" d="M236.684,-405.756C205.209,-377.263 116.373,-296.843 77.0894,-261.281"/>
<polygon fill="#cccccc" stroke="#cccccc" points="79.2598,-258.525 69.4973,-254.408 74.5619,-263.714 79.2598,-258.525"/>
</g>
<!-- Equatable&#45;&gt;Int64 -->
<g id="edge3" class="edge">
<path fill="none" stroke="#cccccc" d="M215.833,-415.556C148.73,-412.753 0,-395.944 0,-302 0,-302 0,-302 0,-126 0,-88.7488 16.4613,-76.1353 49,-58 102.606,-28.1228 531.765,-15.869 662.401,-12.8084"/>
<polygon fill="#cccccc" stroke="#cccccc" points="662.779,-16.3007 672.696,-12.5719 662.618,-9.30257 662.779,-16.3007"/>
</g>
<!-- _Incrementable -->
<g id="node19" class="node">
<g id="a_node19"><a xlink:href="/v2.0/protocol/_Incrementable/" target="_top">
<path fill="#999999" stroke="#999999" d="M639.705,-370C639.705,-370 562.295,-370 562.295,-370 558.628,-370 554.961,-366.333 554.961,-362.667 554.961,-362.667 554.961,-355.333 554.961,-355.333 554.961,-351.667 558.628,-348 562.295,-348 562.295,-348 639.705,-348 639.705,-348 643.372,-348 647.039,-351.667 647.039,-355.333 647.039,-355.333 647.039,-362.667 647.039,-362.667 647.039,-366.333 643.372,-370 639.705,-370"/>
<text text-anchor="middle" x="601" y="-355.4" font-family="Helvetica,sans-Serif" font-size="12.00" fill="white">_Incrementable</text>
</a>
</g>
</g>
<!-- Equatable&#45;&gt;_Incrementable -->
<g id="edge37" class="edge">
<path fill="none" stroke="#cccccc" d="M280.262,-410.882C340.326,-401.353 469.967,-380.787 544.736,-368.926"/>
<polygon fill="#cccccc" stroke="#cccccc" points="545.581,-372.336 554.909,-367.312 544.484,-365.422 545.581,-372.336"/>
</g>
<!-- ForwardIndexType -->
<g id="node7" class="node">
<g id="a_node7"><a xlink:href="/v2.0/protocol/ForwardIndexType/" target="_top">
<path fill="#999999" stroke="#999999" d="M1314.21,-312C1314.21,-312 1219.79,-312 1219.79,-312 1216.13,-312 1212.46,-308.333 1212.46,-304.667 1212.46,-304.667 1212.46,-297.333 1212.46,-297.333 1212.46,-293.667 1216.13,-290 1219.79,-290 1219.79,-290 1314.21,-290 1314.21,-290 1317.87,-290 1321.54,-293.667 1321.54,-297.333 1321.54,-297.333 1321.54,-304.667 1321.54,-304.667 1321.54,-308.333 1317.87,-312 1314.21,-312"/>
<text text-anchor="middle" x="1267" y="-297.4" font-family="Helvetica,sans-Serif" font-size="12.00" fill="white">ForwardIndexType</text>
</a>
</g>
</g>
<!-- ForwardIndexType&#45;&gt;BidirectionalIndexType -->
<g id="edge45" class="edge">
<path fill="none" stroke="#cccccc" d="M1267,-289.988C1267,-282.91 1267,-273.171 1267,-264.478"/>
<polygon fill="#cccccc" stroke="#cccccc" points="1270.5,-264.304 1267,-254.304 1263.5,-264.304 1270.5,-264.304"/>
</g>
<!-- ForwardIndexType&#45;&gt;Int64 -->
<g id="edge14" class="edge">
<path fill="none" stroke="#cccccc" d="M1292.76,-289.834C1308.84,-282.236 1328.75,-270.337 1341,-254 1359.83,-228.897 1360,-217.38 1360,-186 1360,-186 1360,-186 1360,-126 1360,-87.9539 1341.45,-76.1311 1308,-58 1257.93,-30.8562 862.298,-16.8396 737.545,-13.0633"/>
<polygon fill="#cccccc" stroke="#cccccc" points="737.443,-9.55875 727.343,-12.7591 737.234,-16.5556 737.443,-9.55875"/>
</g>
<!-- Hashable&#45;&gt;Int64 -->
<g id="edge9" class="edge">
<path fill="none" stroke="#cccccc" d="M54.5737,-231.851C44.8087,-200.822 20.4848,-106.396 68,-58 109.746,-15.4798 533.511,-11.9832 662.769,-11.9127"/>
<polygon fill="#cccccc" stroke="#cccccc" points="662.956,-15.4126 672.957,-11.914 662.957,-8.41258 662.956,-15.4126"/>
</g>
<!-- Hashable&#45;&gt;_IntegerType -->
<g id="edge29" class="edge">
<path fill="none" stroke="#cccccc" d="M88.333,-237.837C157.988,-228.276 329.965,-204.671 415.713,-192.902"/>
<polygon fill="#cccccc" stroke="#cccccc" points="416.298,-196.355 425.73,-191.527 415.346,-189.42 416.298,-196.355"/>
</g>
<!-- IntegerArithmeticType&#45;&gt;Int64 -->
<g id="edge5" class="edge">
<path fill="none" stroke="#cccccc" d="M764.203,-231.923C772.84,-223.346 784.108,-210.189 789,-196 808.992,-138.016 820.895,-110.388 789,-58 777.601,-39.2762 755.854,-27.8393 736.712,-21.0525"/>
<polygon fill="#cccccc" stroke="#cccccc" points="737.6,-17.6611 727.008,-17.9133 735.445,-24.3213 737.6,-17.6611"/>
</g>
<!-- IntegerArithmeticType&#45;&gt;_IntegerType -->
<g id="edge30" class="edge">
<path fill="none" stroke="#cccccc" d="M701.69,-231.988C649.239,-221.754 568.292,-205.959 516.234,-195.802"/>
<polygon fill="#cccccc" stroke="#cccccc" points="516.71,-192.329 506.225,-193.849 515.369,-199.199 516.71,-192.329"/>
</g>
<!-- IntegerLiteralConvertible -->
<g id="node11" class="node">
<g id="a_node11"><a xlink:href="/v2.0/protocol/IntegerLiteralConvertible/" target="_top">
<path fill="#999999" stroke="#999999" d="M626.722,-254C626.722,-254 501.278,-254 501.278,-254 497.611,-254 493.944,-250.333 493.944,-246.667 493.944,-246.667 493.944,-239.333 493.944,-239.333 493.944,-235.667 497.611,-232 501.278,-232 501.278,-232 626.722,-232 626.722,-232 630.389,-232 634.056,-235.667 634.056,-239.333 634.056,-239.333 634.056,-246.667 634.056,-246.667 634.056,-250.333 630.389,-254 626.722,-254"/>
<text text-anchor="middle" x="564" y="-239.4" font-family="Helvetica,sans-Serif" font-size="12.00" fill="white">IntegerLiteralConvertible</text>
</a>
</g>
</g>
<!-- IntegerLiteralConvertible&#45;&gt;Int64 -->
<g id="edge19" class="edge">
<path fill="none" stroke="#cccccc" d="M596.372,-231.912C635.301,-217.848 698.908,-188.25 727,-138 744.416,-106.846 745.168,-91.8991 734,-58 730.587,-47.6394 723.843,-37.7009 717.255,-29.7297"/>
<polygon fill="#cccccc" stroke="#cccccc" points="719.84,-27.3697 710.592,-22.1998 714.598,-32.0083 719.84,-27.3697"/>
</g>
<!-- IntegerLiteralConvertible&#45;&gt;SignedNumberType -->
<g id="edge39" class="edge">
<path fill="none" stroke="#cccccc" d="M568.112,-231.988C571.116,-224.674 575.287,-214.519 578.945,-205.612"/>
<polygon fill="#cccccc" stroke="#cccccc" points="582.206,-206.884 582.768,-196.304 575.731,-204.224 582.206,-206.884"/>
</g>
<!-- IntegerLiteralConvertible&#45;&gt;_IntegerType -->
<g id="edge27" class="edge">
<path fill="none" stroke="#cccccc" d="M546.48,-231.988C531.522,-223.441 509.777,-211.015 492.66,-201.234"/>
<polygon fill="#cccccc" stroke="#cccccc" points="494.118,-198.036 483.699,-196.114 490.645,-204.114 494.118,-198.036"/>
</g>
<!-- IntegerType -->
<g id="node12" class="node">
<g id="a_node12"><a xlink:href="/v2.0/protocol/IntegerType/" target="_top">
<path fill="#999999" stroke="#999999" d="M711.202,-138C711.202,-138 652.798,-138 652.798,-138 649.132,-138 645.465,-134.333 645.465,-130.667 645.465,-130.667 645.465,-123.333 645.465,-123.333 645.465,-119.667 649.132,-116 652.798,-116 652.798,-116 711.202,-116 711.202,-116 714.868,-116 718.535,-119.667 718.535,-123.333 718.535,-123.333 718.535,-130.667 718.535,-130.667 718.535,-134.333 714.868,-138 711.202,-138"/>
<text text-anchor="middle" x="682" y="-123.4" font-family="Helvetica,sans-Serif" font-size="12.00" fill="white">IntegerType</text>
</a>
</g>
</g>
<!-- IntegerType&#45;&gt;Int64 -->
<g id="edge7" class="edge">
<path fill="none" stroke="#cccccc" d="M693.203,-115.923C701.84,-107.346 713.108,-94.189 718,-80 723.574,-63.8349 717.666,-45.0109 711.169,-31.2721"/>
<polygon fill="#cccccc" stroke="#cccccc" points="714.209,-29.5335 706.489,-22.2776 708,-32.7643 714.209,-29.5335"/>
</g>
<!-- SignedIntegerType -->
<g id="node15" class="node">
<g id="a_node15"><a xlink:href="/v2.0/protocol/SignedIntegerType/" target="_top">
<path fill="#999999" stroke="#999999" d="M553.727,-80C553.727,-80 458.273,-80 458.273,-80 454.606,-80 450.94,-76.3333 450.94,-72.6667 450.94,-72.6667 450.94,-65.3333 450.94,-65.3333 450.94,-61.6667 454.606,-58 458.273,-58 458.273,-58 553.727,-58 553.727,-58 557.394,-58 561.06,-61.6667 561.06,-65.3333 561.06,-65.3333 561.06,-72.6667 561.06,-72.6667 561.06,-76.3333 557.394,-80 553.727,-80"/>
<text text-anchor="middle" x="506" y="-65.4" font-family="Helvetica,sans-Serif" font-size="12.00" fill="white">SignedIntegerType</text>
</a>
</g>
</g>
<!-- IntegerType&#45;&gt;SignedIntegerType -->
<g id="edge50" class="edge">
<path fill="none" stroke="#cccccc" d="M650.535,-115.988C621.717,-106.819 578.872,-93.1866 547.309,-83.1436"/>
<polygon fill="#cccccc" stroke="#cccccc" points="548.08,-79.7161 537.489,-80.0192 545.957,-86.3866 548.08,-79.7161"/>
</g>
<!-- MirrorPathType -->
<g id="node13" class="node">
<g id="a_node13"><a xlink:href="/v2.0/protocol/MirrorPathType/" target="_top">
<path fill="#999999" stroke="#999999" d="M701.69,-80C701.69,-80 624.31,-80 624.31,-80 620.643,-80 616.977,-76.3333 616.977,-72.6667 616.977,-72.6667 616.977,-65.3333 616.977,-65.3333 616.977,-61.6667 620.643,-58 624.31,-58 624.31,-58 701.69,-58 701.69,-58 705.357,-58 709.023,-61.6667 709.023,-65.3333 709.023,-65.3333 709.023,-72.6667 709.023,-72.6667 709.023,-76.3333 705.357,-80 701.69,-80"/>
<text text-anchor="middle" x="663" y="-65.4" font-family="Helvetica,sans-Serif" font-size="12.00" fill="white">MirrorPathType</text>
</a>
</g>
</g>
<!-- MirrorPathType&#45;&gt;Int64 -->
<g id="edge22" class="edge">
<path fill="none" stroke="#cccccc" d="M669.615,-57.9883C674.604,-50.4379 681.592,-39.8611 687.609,-30.7543"/>
<polygon fill="#cccccc" stroke="#cccccc" points="690.6,-32.5767 693.192,-22.3039 684.759,-28.7178 690.6,-32.5767"/>
</g>
<!-- RandomAccessIndexType&#45;&gt;Int64 -->
<g id="edge12" class="edge">
<path fill="none" stroke="#cccccc" d="M949.694,-173.706C939.07,-149.597 909.222,-89.1622 865,-58 826.613,-30.9499 772.802,-19.7683 737.201,-15.171"/>
<polygon fill="#cccccc" stroke="#cccccc" points="737.564,-11.6896 727.223,-13.9931 736.744,-18.6414 737.564,-11.6896"/>
</g>
<!-- RandomAccessIndexType&#45;&gt;IntegerType -->
<g id="edge41" class="edge">
<path fill="none" stroke="#cccccc" d="M905.372,-173.988C855.299,-163.679 777.822,-147.728 728.531,-137.58"/>
<polygon fill="#cccccc" stroke="#cccccc" points="728.961,-134.095 718.46,-135.507 727.549,-140.951 728.961,-134.095"/>
</g>
<!-- SignedIntegerType&#45;&gt;Int64 -->
<g id="edge8" class="edge">
<path fill="none" stroke="#cccccc" d="M540.683,-57.9883C575.104,-48.0525 627.68,-32.8759 662.916,-22.7047"/>
<polygon fill="#cccccc" stroke="#cccccc" points="664.173,-25.9849 672.81,-19.8488 662.231,-19.2595 664.173,-25.9849"/>
</g>
<!-- SignedNumberType&#45;&gt;Int64 -->
<g id="edge18" class="edge">
<path fill="none" stroke="#cccccc" d="M585.792,-173.672C583.654,-150.513 581.65,-93.6775 608,-58 621.341,-39.9362 643.775,-28.5193 663.15,-21.5779"/>
<polygon fill="#cccccc" stroke="#cccccc" points="664.256,-24.8985 672.649,-18.4324 662.056,-18.2533 664.256,-24.8985"/>
</g>
<!-- _SignedIntegerType -->
<g id="node24" class="node">
<g id="a_node24"><a xlink:href="/v2.0/protocol/_SignedIntegerType/" target="_top">
<path fill="#999999" stroke="#999999" d="M539.231,-138C539.231,-138 436.769,-138 436.769,-138 433.102,-138 429.436,-134.333 429.436,-130.667 429.436,-130.667 429.436,-123.333 429.436,-123.333 429.436,-119.667 433.102,-116 436.769,-116 436.769,-116 539.231,-116 539.231,-116 542.898,-116 546.564,-119.667 546.564,-123.333 546.564,-123.333 546.564,-130.667 546.564,-130.667 546.564,-134.333 542.898,-138 539.231,-138"/>
<text text-anchor="middle" x="488" y="-123.4" font-family="Helvetica,sans-Serif" font-size="12.00" fill="white">_SignedIntegerType</text>
</a>
</g>
</g>
<!-- SignedNumberType&#45;&gt;_SignedIntegerType -->
<g id="edge26" class="edge">
<path fill="none" stroke="#cccccc" d="M569.301,-173.988C554.19,-165.441 532.224,-153.015 514.932,-143.234"/>
<polygon fill="#cccccc" stroke="#cccccc" points="516.307,-139.991 505.88,-138.114 512.861,-146.084 516.307,-139.991"/>
</g>
<!-- Strideable&#45;&gt;Int64 -->
<g id="edge15" class="edge">
<path fill="none" stroke="#cccccc" d="M865.726,-231.791C864.375,-201.385 856.367,-110.302 809,-58 790.18,-37.219 760.44,-25.5209 736.776,-19.1278"/>
<polygon fill="#cccccc" stroke="#cccccc" points="737.606,-15.7277 727.056,-16.7017 735.911,-22.5193 737.606,-15.7277"/>
</g>
<!-- Strideable&#45;&gt;RandomAccessIndexType -->
<g id="edge43" class="edge">
<path fill="none" stroke="#cccccc" d="M881.733,-231.988C895.04,-223.52 914.329,-211.245 929.632,-201.507"/>
<polygon fill="#cccccc" stroke="#cccccc" points="931.549,-204.435 938.107,-196.114 927.791,-198.53 931.549,-204.435"/>
</g>
<!-- _CVarArgAlignedType&#45;&gt;Int64 -->
<g id="edge24" class="edge">
<path fill="none" stroke="#cccccc" d="M204.408,-59.6976C209.343,-59.1043 214.251,-58.5313 219,-58 384.156,-39.5206 581.744,-22.095 662.666,-15.1585"/>
<polygon fill="#cccccc" stroke="#cccccc" points="663.181,-18.6273 672.847,-14.2884 662.585,-11.6527 663.181,-18.6273"/>
</g>
<!-- _Incrementable&#45;&gt;ForwardIndexType -->
<g id="edge46" class="edge">
<path fill="none" stroke="#cccccc" d="M647.11,-355.138C746.227,-348.82 986.908,-332.595 1188,-312 1192.74,-311.515 1197.63,-310.979 1202.55,-310.416"/>
<polygon fill="#cccccc" stroke="#cccccc" points="1203.12,-313.873 1212.64,-309.227 1202.3,-306.921 1203.12,-313.873"/>
</g>
<!-- _Incrementable&#45;&gt;Int64 -->
<g id="edge11" class="edge">
<path fill="none" stroke="#cccccc" d="M647.045,-357.627C755.193,-356.141 1022.37,-348.746 1103,-312 1142.76,-293.881 1174,-287.694 1174,-244 1174,-244 1174,-244 1174,-126 1174,-78.9959 1136.16,-76.626 1093,-58 1029.43,-30.562 822.276,-17.8122 737.095,-13.6321"/>
<polygon fill="#cccccc" stroke="#cccccc" points="737.248,-10.1356 727.092,-13.1534 736.913,-17.1275 737.248,-10.1356"/>
</g>
<!-- _Incrementable&#45;&gt;_IntegerType -->
<g id="edge32" class="edge">
<path fill="none" stroke="#cccccc" d="M584.869,-347.978C559.705,-331.502 511.275,-296.267 485,-254 476.013,-239.543 471.185,-220.76 468.649,-206.599"/>
<polygon fill="#cccccc" stroke="#cccccc" points="472.059,-205.75 467.07,-196.404 465.141,-206.822 472.059,-205.75"/>
</g>
<!-- _IntegerArithmeticType -->
<g id="node20" class="node">
<g id="a_node20"><a xlink:href="/v2.0/protocol/_IntegerArithmeticType/" target="_top">
<path fill="#999999" stroke="#999999" d="M895.215,-312C895.215,-312 776.785,-312 776.785,-312 773.118,-312 769.452,-308.333 769.452,-304.667 769.452,-304.667 769.452,-297.333 769.452,-297.333 769.452,-293.667 773.118,-290 776.785,-290 776.785,-290 895.215,-290 895.215,-290 898.882,-290 902.548,-293.667 902.548,-297.333 902.548,-297.333 902.548,-304.667 902.548,-304.667 902.548,-308.333 898.882,-312 895.215,-312"/>
<text text-anchor="middle" x="836" y="-297.4" font-family="Helvetica,sans-Serif" font-size="12.00" fill="white">_IntegerArithmeticType</text>
</a>
</g>
</g>
<!-- _IntegerArithmeticType&#45;&gt;Int64 -->
<g id="edge6" class="edge">
<path fill="none" stroke="#cccccc" d="M902.463,-295.082C965.006,-289.124 1052.73,-276.904 1078,-254 1101.34,-232.845 1098,-217.502 1098,-186 1098,-186 1098,-186 1098,-126 1098,-51.3632 836.059,-22.7978 737.182,-14.6737"/>
<polygon fill="#cccccc" stroke="#cccccc" points="737.29,-11.1713 727.043,-13.8659 736.734,-18.1492 737.29,-11.1713"/>
</g>
<!-- _IntegerArithmeticType&#45;&gt;IntegerArithmeticType -->
<g id="edge34" class="edge">
<path fill="none" stroke="#cccccc" d="M821.161,-289.988C808.728,-281.599 790.757,-269.474 776.389,-259.78"/>
<polygon fill="#cccccc" stroke="#cccccc" points="778.237,-256.805 767.99,-254.114 774.322,-262.608 778.237,-256.805"/>
</g>
<!-- _IntegerType&#45;&gt;Int64 -->
<g id="edge4" class="edge">
<path fill="none" stroke="#cccccc" d="M450.864,-173.918C440,-165.702 426.224,-153.025 420,-138 410.727,-115.614 429.812,-61.9215 434,-58 466.485,-27.579 597.18,-16.9775 662.48,-13.5316"/>
<polygon fill="#cccccc" stroke="#cccccc" points="662.936,-17.0133 672.75,-13.0204 662.588,-10.022 662.936,-17.0133"/>
</g>
<!-- _IntegerType&#45;&gt;IntegerType -->
<g id="edge40" class="edge">
<path fill="none" stroke="#cccccc" d="M504.616,-173.988C541.264,-164.487 596.397,-150.193 635.456,-140.067"/>
<polygon fill="#cccccc" stroke="#cccccc" points="636.715,-143.356 645.517,-137.459 634.959,-136.58 636.715,-143.356"/>
</g>
<!-- _IntegerType&#45;&gt;_SignedIntegerType -->
<g id="edge25" class="edge">
<path fill="none" stroke="#cccccc" d="M469.933,-173.988C472.807,-166.674 476.796,-156.519 480.295,-147.612"/>
<polygon fill="#cccccc" stroke="#cccccc" points="483.553,-148.891 483.952,-138.304 477.038,-146.332 483.553,-148.891"/>
</g>
<!-- _RandomAccessAmbiguity -->
<g id="node22" class="node">
<g id="a_node22"><a xlink:href="/v2.0/protocol/_RandomAccessAmbiguity/" target="_top">
<path fill="#999999" stroke="#999999" d="M1062.21,-254C1062.21,-254 923.786,-254 923.786,-254 920.12,-254 916.453,-250.333 916.453,-246.667 916.453,-246.667 916.453,-239.333 916.453,-239.333 916.453,-235.667 920.12,-232 923.786,-232 923.786,-232 1062.21,-232 1062.21,-232 1065.88,-232 1069.55,-235.667 1069.55,-239.333 1069.55,-239.333 1069.55,-246.667 1069.55,-246.667 1069.55,-250.333 1065.88,-254 1062.21,-254"/>
<text text-anchor="middle" x="993" y="-239.4" font-family="Helvetica,sans-Serif" font-size="12.00" fill="white">_RandomAccessAmbiguity</text>
</a>
</g>
</g>
<!-- _RandomAccessAmbiguity&#45;&gt;Int64 -->
<g id="edge17" class="edge">
<path fill="none" stroke="#cccccc" d="M1007.49,-231.882C1024.01,-219.002 1047.48,-195.799 1037,-174 1001.25,-99.6162 966.135,-94.2644 892,-58 841.548,-33.3204 777.021,-21.3884 737.107,-15.9963"/>
<polygon fill="#cccccc" stroke="#cccccc" points="737.388,-12.5038 727.024,-14.703 736.498,-19.4469 737.388,-12.5038"/>
</g>
<!-- _RandomAccessAmbiguity&#45;&gt;RandomAccessIndexType -->
<g id="edge44" class="edge">
<path fill="none" stroke="#cccccc" d="M986.028,-231.988C980.769,-224.438 973.403,-213.861 967.061,-204.754"/>
<polygon fill="#cccccc" stroke="#cccccc" points="969.763,-202.51 961.176,-196.304 964.019,-206.51 969.763,-202.51"/>
</g>
<!-- _Reflectable -->
<g id="node23" class="node">
<g id="a_node23"><a xlink:href="/v2.0/protocol/_Reflectable/" target="_top">
<path fill="#999999" stroke="#999999" d="M1270.7,-80C1270.7,-80 1209.3,-80 1209.3,-80 1205.63,-80 1201.97,-76.3333 1201.97,-72.6667 1201.97,-72.6667 1201.97,-65.3333 1201.97,-65.3333 1201.97,-61.6667 1205.63,-58 1209.3,-58 1209.3,-58 1270.7,-58 1270.7,-58 1274.37,-58 1278.03,-61.6667 1278.03,-65.3333 1278.03,-65.3333 1278.03,-72.6667 1278.03,-72.6667 1278.03,-76.3333 1274.37,-80 1270.7,-80"/>
<text text-anchor="middle" x="1240" y="-65.4" font-family="Helvetica,sans-Serif" font-size="12.00" fill="white">_Reflectable</text>
</a>
</g>
</g>
<!-- _Reflectable&#45;&gt;Int64 -->
<g id="edge21" class="edge">
<path fill="none" stroke="#cccccc" d="M1201.73,-60.2092C1197.12,-59.3972 1192.46,-58.6375 1188,-58 1020.54,-34.0618 818.9,-19.5636 737.136,-14.2788"/>
<polygon fill="#cccccc" stroke="#cccccc" points="737.291,-10.7817 727.088,-13.637 736.844,-17.7674 737.291,-10.7817"/>
</g>
<!-- _SignedIntegerType&#45;&gt;Int64 -->
<g id="edge1" class="edge">
<path fill="none" stroke="#cccccc" d="M472.612,-115.863C453.676,-102.161 425.894,-77.2319 442,-58 469.672,-24.9581 597.687,-15.6285 662.372,-13.0108"/>
<polygon fill="#cccccc" stroke="#cccccc" points="662.694,-16.5014 672.558,-12.6331 662.435,-9.50617 662.694,-16.5014"/>
</g>
<!-- _SignedIntegerType&#45;&gt;SignedIntegerType -->
<g id="edge49" class="edge">
<path fill="none" stroke="#cccccc" d="M491.218,-115.988C493.544,-108.752 496.763,-98.7373 499.604,-89.9"/>
<polygon fill="#cccccc" stroke="#cccccc" points="502.96,-90.8952 502.688,-80.3039 496.296,-88.7531 502.96,-90.8952"/>
</g>
<!-- _Strideable -->
<g id="node25" class="node">
<g id="a_node25"><a xlink:href="/v2.0/protocol/_Strideable/" target="_top">
<path fill="#999999" stroke="#999999" d="M1086.7,-312C1086.7,-312 1031.3,-312 1031.3,-312 1027.63,-312 1023.97,-308.333 1023.97,-304.667 1023.97,-304.667 1023.97,-297.333 1023.97,-297.333 1023.97,-293.667 1027.63,-290 1031.3,-290 1031.3,-290 1086.7,-290 1086.7,-290 1090.37,-290 1094.03,-293.667 1094.03,-297.333 1094.03,-297.333 1094.03,-304.667 1094.03,-304.667 1094.03,-308.333 1090.37,-312 1086.7,-312"/>
<text text-anchor="middle" x="1059" y="-297.4" font-family="Helvetica,sans-Serif" font-size="12.00" fill="white">_Strideable</text>
</a>
</g>
</g>
<!-- _Strideable&#45;&gt;Int64 -->
<g id="edge16" class="edge">
<path fill="none" stroke="#cccccc" d="M1072.06,-289.937C1094.03,-271.764 1136,-231.14 1136,-186 1136,-186 1136,-186 1136,-126 1136,-76.9236 1094.25,-76.9863 1049,-58 993.292,-34.6283 815.483,-19.9207 737.388,-14.434"/>
<polygon fill="#cccccc" stroke="#cccccc" points="737.27,-10.9177 727.053,-13.7211 736.788,-17.9011 737.27,-10.9177"/>
</g>
<!-- _Strideable&#45;&gt;Strideable -->
<g id="edge48" class="edge">
<path fill="none" stroke="#cccccc" d="M1024.5,-289.988C991.93,-280.539 943.029,-266.35 908.165,-256.234"/>
<polygon fill="#cccccc" stroke="#cccccc" points="908.859,-252.792 898.28,-253.366 906.909,-259.514 908.859,-252.792"/>
</g>
</g>
</svg>
