<?xml version="1.0" encoding="UTF-8" standalone="no"?>
<!DOCTYPE svg PUBLIC "-//W3C//DTD SVG 1.1//EN"
 "http://www.w3.org/Graphics/SVG/1.1/DTD/svg11.dtd">
<!-- Generated by graphviz version 2.36.0 (20140111.2315)
 -->
<!-- Title: Comparable &#45; Type Hierarchy &#45; SwiftDoc.org Pages: 1 -->
<svg width="5371pt" height="485pt"
 viewBox="0.00 0.00 5371.40 485.20" xmlns="http://www.w3.org/2000/svg" xmlns:xlink="http://www.w3.org/1999/xlink">
<g id="graph0" class="graph" transform="scale(1 1) rotate(0) translate(7.2 427.6)">
<g transform="translate(0 -427.6)">
<g>
    <path fill="#666666" d="M13.846,10.832c-0.336-0.464-0.792-0.844-1.368-1.14s-1.224-0.444-1.944-0.444
        c-0.384,0-0.772,0.052-1.164,0.156C8.977,9.509,8.622,9.677,8.301,9.908c-0.32,0.232-0.58,0.52-0.78,0.864
        c-0.2,0.344-0.3,0.756-0.3,1.236c0,0.464,0.092,0.852,0.276,1.164c0.184,0.312,0.432,0.576,0.744,0.792s0.68,0.4,1.104,0.552
        c0.423,0.152,0.876,0.309,1.356,0.468c0.576,0.177,1.16,0.376,1.752,0.601c0.592,0.224,1.128,0.52,1.608,0.888
        s0.872,0.828,1.176,1.38s0.456,1.252,0.456,2.101c0,0.88-0.164,1.644-0.492,2.292c-0.328,0.647-0.765,1.184-1.308,1.607
        c-0.544,0.424-1.172,0.74-1.884,0.948s-1.444,0.312-2.196,0.312c-1.072,0-2.108-0.208-3.108-0.624
        c-1-0.415-1.828-1.031-2.484-1.848l1.848-1.56c0.4,0.592,0.936,1.071,1.608,1.439c0.672,0.368,1.399,0.552,2.184,0.552
        c0.4,0,0.8-0.056,1.2-0.168c0.4-0.111,0.764-0.288,1.092-0.527c0.328-0.24,0.596-0.54,0.804-0.9
        c0.208-0.36,0.312-0.796,0.312-1.308s-0.108-0.94-0.324-1.284c-0.216-0.344-0.508-0.636-0.876-0.876s-0.796-0.444-1.284-0.612
        c-0.488-0.168-1.004-0.34-1.548-0.516c-0.544-0.16-1.08-0.356-1.608-0.588c-0.528-0.232-1-0.528-1.416-0.889
        c-0.416-0.359-0.752-0.804-1.008-1.332c-0.256-0.527-0.384-1.184-0.384-1.968c0-0.848,0.172-1.576,0.516-2.184
        c0.344-0.608,0.792-1.112,1.344-1.512c0.552-0.4,1.176-0.692,1.872-0.876c0.696-0.184,1.396-0.276,2.1-0.276
        c0.992,0,1.92,0.176,2.784,0.528c0.864,0.352,1.56,0.824,2.088,1.416L13.846,10.832z"/>
    <path fill="#666666" d="M18.813,13.304l2.568,8.688h0.048l2.712-8.688h2.376l2.76,8.688h0.048l2.568-8.688h2.376L30.501,24.68
        h-2.352l-2.808-8.544h-0.048l-2.784,8.544h-2.352l-3.792-11.376H18.813z"/>
    <path fill="#666666" d="M38.685,9.2c0,0.416-0.147,0.76-0.44,1.032c-0.294,0.272-0.647,0.408-1.06,0.408s-0.762-0.14-1.047-0.42
        c-0.286-0.28-0.429-0.62-0.429-1.02c0-0.416,0.143-0.764,0.429-1.044c0.286-0.28,0.635-0.42,1.047-0.42s0.766,0.14,1.06,0.42
        C38.538,8.437,38.685,8.784,38.685,9.2z M38.325,24.68h-2.256V13.304h2.256V24.68z"/>
    <path fill="#666666" d="M47.613,15.152h-2.64v9.528h-2.256v-9.528h-2.256v-1.848h2.256v-2.376c0-0.672,0.076-1.292,0.228-1.86
        c0.152-0.568,0.4-1.06,0.744-1.476c0.344-0.416,0.784-0.744,1.32-0.984c0.536-0.24,1.188-0.36,1.956-0.36
        c0.544,0,1.016,0.056,1.416,0.168l-0.264,1.944c-0.176-0.048-0.352-0.088-0.528-0.12c-0.176-0.032-0.376-0.048-0.6-0.048
        c-0.432,0-0.78,0.076-1.044,0.228c-0.264,0.152-0.468,0.356-0.612,0.612s-0.24,0.548-0.288,0.876
        c-0.048,0.328-0.072,0.668-0.072,1.02v2.376h2.64V15.152z"/>
    <path fill="#666666" d="M54.909,15.152h-3.024v5.91c0,0.687,0.128,1.177,0.384,1.472c0.256,0.295,0.664,0.442,1.224,0.442
        c0.208,0,0.432-0.021,0.672-0.065c0.24-0.044,0.456-0.11,0.648-0.198l0.072,1.848c-0.272,0.096-0.572,0.172-0.9,0.229
        c-0.328,0.056-0.668,0.084-1.02,0.084c-1.072,0-1.892-0.296-2.46-0.889c-0.568-0.592-0.852-1.479-0.852-2.664v-6.168h-2.184
        v-1.848h2.184V10.04h2.232v3.264h3.024V15.152z"/>
    <path fill="#666666" d="M57.356,7.688h5.832c1.088,0,2.176,0.16,3.264,0.48c1.088,0.32,2.072,0.824,2.952,1.512
        s1.592,1.568,2.136,2.64c0.544,1.072,0.816,2.36,0.816,3.864c0,1.456-0.272,2.716-0.816,3.78s-1.256,1.943-2.136,2.64
        s-1.864,1.216-2.952,1.561c-1.088,0.344-2.176,0.516-3.264,0.516h-5.832V7.688z M59.732,22.593h2.976
        c1.024,0,1.972-0.145,2.844-0.432c0.872-0.288,1.624-0.704,2.256-1.248c0.632-0.544,1.124-1.216,1.476-2.017
        c0.352-0.8,0.528-1.704,0.528-2.712c0-1.056-0.176-1.983-0.528-2.784c-0.353-0.8-0.844-1.468-1.476-2.004
        c-0.632-0.536-1.384-0.944-2.256-1.224s-1.82-0.42-2.844-0.42h-2.976V22.593z"/>
    <path fill="#666666" d="M86.06,18.969c0,0.88-0.156,1.688-0.468,2.424c-0.312,0.736-0.744,1.372-1.296,1.908
        c-0.552,0.536-1.204,0.952-1.956,1.248c-0.752,0.296-1.56,0.443-2.424,0.443c-0.864,0-1.672-0.147-2.424-0.443
        c-0.752-0.296-1.4-0.712-1.944-1.248c-0.544-0.536-0.972-1.172-1.284-1.908c-0.312-0.735-0.468-1.544-0.468-2.424
        s0.156-1.684,0.468-2.412c0.312-0.728,0.74-1.356,1.284-1.884c0.543-0.528,1.191-0.939,1.944-1.236
        c0.752-0.296,1.56-0.444,2.424-0.444c0.864,0,1.672,0.148,2.424,0.444c0.752,0.297,1.404,0.708,1.956,1.236
        c0.552,0.527,0.984,1.156,1.296,1.884C85.904,17.285,86.06,18.089,86.06,18.969z M83.708,18.98c0-0.542-0.084-1.061-0.252-1.556
        c-0.169-0.494-0.414-0.929-0.734-1.304s-0.718-0.674-1.192-0.897s-1.015-0.335-1.625-0.335c-0.61,0-1.152,0.111-1.625,0.335
        c-0.474,0.224-0.871,0.522-1.191,0.897c-0.321,0.375-0.566,0.81-0.734,1.304C76.184,17.92,76.1,18.438,76.1,18.98
        c0,0.543,0.084,1.062,0.253,1.556c0.168,0.495,0.413,0.934,0.734,1.316c0.321,0.383,0.718,0.686,1.191,0.909
        c0.473,0.224,1.015,0.335,1.625,0.335c0.61,0,1.151-0.111,1.625-0.335s0.871-0.526,1.192-0.909s0.565-0.821,0.734-1.316
        C83.624,20.042,83.708,19.523,83.708,18.98z"/>
    <path fill="#666666" d="M96.428,16.184c-0.24-0.368-0.6-0.676-1.08-0.924s-0.992-0.372-1.536-0.372
        c-0.592,0-1.116,0.112-1.572,0.336c-0.456,0.225-0.844,0.524-1.164,0.9c-0.32,0.376-0.564,0.812-0.732,1.308
        s-0.252,1.017-0.252,1.56c0,0.545,0.084,1.064,0.252,1.561s0.412,0.933,0.732,1.308c0.32,0.376,0.712,0.677,1.176,0.9
        c0.464,0.225,0.992,0.336,1.584,0.336c0.576,0,1.1-0.111,1.572-0.336c0.472-0.224,0.86-0.528,1.164-0.912l1.512,1.368
        c-0.48,0.561-1.08,0.996-1.8,1.308c-0.72,0.312-1.536,0.468-2.448,0.468c-0.88,0-1.692-0.144-2.436-0.432
        c-0.744-0.288-1.388-0.691-1.932-1.212c-0.544-0.52-0.972-1.147-1.284-1.884s-0.468-1.561-0.468-2.473
        c0-0.896,0.152-1.711,0.456-2.447c0.304-0.736,0.728-1.368,1.272-1.896c0.543-0.527,1.188-0.936,1.932-1.224
        c0.744-0.288,1.548-0.433,2.412-0.433c0.8,0,1.596,0.16,2.388,0.48s1.419,0.784,1.884,1.392L96.428,16.184z"/>
    <path fill="#666666" d="M103.1,23.24c0,0.417-0.152,0.784-0.456,1.104c-0.304,0.32-0.688,0.479-1.152,0.479
        c-0.448,0-0.828-0.155-1.14-0.468c-0.312-0.312-0.468-0.676-0.468-1.092c0-0.432,0.152-0.804,0.456-1.116
        c0.304-0.312,0.688-0.468,1.152-0.468c0.464,0,0.848,0.152,1.152,0.456C102.947,22.44,103.1,22.808,103.1,23.24z"/>
    <path fill="#666666" d="M116.635,18.969c0,0.88-0.156,1.688-0.468,2.424c-0.312,0.736-0.744,1.372-1.296,1.908
        c-0.552,0.536-1.204,0.952-1.956,1.248c-0.752,0.296-1.56,0.443-2.424,0.443c-0.864,0-1.672-0.147-2.424-0.443
        c-0.752-0.296-1.4-0.712-1.944-1.248c-0.544-0.536-0.972-1.172-1.284-1.908c-0.312-0.735-0.468-1.544-0.468-2.424
        s0.156-1.684,0.468-2.412c0.312-0.728,0.74-1.356,1.284-1.884c0.543-0.528,1.191-0.939,1.944-1.236
        c0.752-0.296,1.56-0.444,2.424-0.444c0.864,0,1.672,0.148,2.424,0.444c0.752,0.297,1.404,0.708,1.956,1.236
        c0.552,0.527,0.984,1.156,1.296,1.884C116.479,17.285,116.635,18.089,116.635,18.969z M114.283,18.98
        c0-0.542-0.084-1.061-0.252-1.556c-0.169-0.494-0.414-0.929-0.734-1.304s-0.718-0.674-1.192-0.897s-1.015-0.335-1.625-0.335
        c-0.61,0-1.152,0.111-1.625,0.335c-0.474,0.224-0.871,0.522-1.191,0.897c-0.321,0.375-0.566,0.81-0.734,1.304
        c-0.169,0.495-0.253,1.014-0.253,1.556c0,0.543,0.084,1.062,0.253,1.556c0.168,0.495,0.413,0.934,0.734,1.316
        c0.321,0.383,0.718,0.686,1.191,0.909c0.473,0.224,1.015,0.335,1.625,0.335c0.61,0,1.151-0.111,1.625-0.335
        s0.871-0.526,1.192-0.909s0.565-0.821,0.734-1.316C114.199,20.042,114.283,19.523,114.283,18.98z"/>
    <path fill="#666666" d="M119.251,14.577c-0.016-0.48-0.04-0.904-0.072-1.272h2.136c0.032,0.288,0.056,0.62,0.072,0.996
        c0.016,0.376,0.024,0.684,0.024,0.924h0.072c0.32-0.672,0.788-1.212,1.404-1.62c0.616-0.408,1.308-0.612,2.076-0.612
        c0.352,0,0.648,0.033,0.888,0.097l-0.096,2.088c-0.32-0.08-0.664-0.12-1.032-0.12c-0.544,0-1.016,0.101-1.416,0.3
        c-0.4,0.2-0.732,0.468-0.996,0.805c-0.264,0.336-0.46,0.724-0.588,1.163c-0.128,0.44-0.192,0.9-0.192,1.381v5.976h-2.256v-8.928
        C119.275,15.449,119.267,15.056,119.251,14.577z"/>
    <path fill="#666666" d="M128.419,26.625c0.496,0.56,1.116,1.008,1.86,1.344c0.744,0.336,1.508,0.504,2.292,0.504
        c0.752,0,1.384-0.108,1.896-0.324s0.924-0.512,1.236-0.888s0.536-0.82,0.672-1.332c0.136-0.513,0.204-1.064,0.204-1.656v-1.464
        h-0.048c-0.416,0.641-0.984,1.128-1.704,1.464c-0.72,0.336-1.488,0.504-2.304,0.504c-0.864,0-1.652-0.151-2.364-0.456
        c-0.712-0.304-1.316-0.72-1.812-1.248c-0.496-0.527-0.88-1.147-1.152-1.859s-0.408-1.477-0.408-2.292
        c0-0.816,0.136-1.584,0.408-2.305c0.272-0.72,0.656-1.348,1.152-1.884c0.496-0.535,1.096-0.96,1.8-1.271
        c0.704-0.312,1.488-0.469,2.352-0.469c0.816,0,1.596,0.177,2.34,0.528c0.744,0.353,1.332,0.888,1.764,1.608h0.048v-1.824h2.184
        v10.8c0,0.832-0.104,1.628-0.312,2.388c-0.208,0.76-0.56,1.433-1.056,2.017s-1.144,1.052-1.944,1.404
        c-0.8,0.352-1.792,0.527-2.976,0.527c-0.992,0-1.988-0.18-2.988-0.54c-1-0.359-1.86-0.868-2.58-1.523L128.419,26.625z
         M129.091,18.873c0,0.527,0.084,1.031,0.253,1.512c0.168,0.479,0.417,0.904,0.746,1.271c0.329,0.369,0.726,0.664,1.192,0.889
        c0.465,0.224,0.995,0.336,1.589,0.336c0.577,0,1.107-0.104,1.589-0.312c0.481-0.207,0.891-0.491,1.228-0.852
        s0.598-0.784,0.782-1.272c0.185-0.487,0.277-1.012,0.277-1.571c0-0.544-0.093-1.057-0.277-1.536
        c-0.185-0.48-0.449-0.904-0.794-1.272c-0.345-0.367-0.755-0.66-1.228-0.876c-0.474-0.216-1-0.324-1.577-0.324
        c-0.594,0-1.124,0.108-1.589,0.324c-0.466,0.216-0.863,0.504-1.192,0.864s-0.578,0.784-0.746,1.271
        C129.175,17.812,129.091,18.329,129.091,18.873z"/>
</g>
<g><a xlink:href="/" pointer-events="all" target="_top"><polygon fill="none" points="0,0 145,0 145,35 0,35 0,0"/></a></g>

</g>


<!-- AbsoluteValuable -->
<g id="node1" class="node">
<g id="a_node1"><a xlink:href="/swift-2/protocol/AbsoluteValuable/" target="_top">
<path fill="#999999" stroke="#999999" d="M389.558,-138C389.558,-138 302.442,-138 302.442,-138 298.775,-138 295.109,-134.333 295.109,-130.667 295.109,-130.667 295.109,-123.333 295.109,-123.333 295.109,-119.667 298.775,-116 302.442,-116 302.442,-116 389.558,-116 389.558,-116 393.225,-116 396.891,-119.667 396.891,-123.333 396.891,-123.333 396.891,-130.667 396.891,-130.667 396.891,-134.333 393.225,-138 389.558,-138"/>
<text text-anchor="middle" x="346" y="-123.4" font-family="Helvetica,sans-Serif" font-size="12.00" fill="white">AbsoluteValuable</text>
</a>
</g>
</g>
<!-- Double -->
<g id="node7" class="node">
<g id="a_node7"><a xlink:href="/swift-2/type/Double/" target="_top">
<polygon fill="#999999" stroke="#999999" points="255,-22 201,-22 201,-0 255,-0 255,-22"/>
<text text-anchor="middle" x="228" y="-7.4" font-family="Helvetica,sans-Serif" font-size="12.00" fill="white">Double</text>
</a>
</g>
</g>
<!-- AbsoluteValuable&#45;&gt;Double -->
<g id="edge101" class="edge">
<path fill="none" stroke="#cccccc" d="M330.706,-115.919C317.889,-107.139 299.426,-93.7016 285,-80 268.72,-64.5381 252.502,-44.6404 241.552,-30.3698"/>
<polygon fill="#cccccc" stroke="#cccccc" points="244.279,-28.174 235.461,-22.3015 238.692,-32.3915 244.279,-28.174"/>
</g>
<!-- Float -->
<g id="node9" class="node">
<g id="a_node9"><a xlink:href="/swift-2/type/Float/" target="_top">
<polygon fill="#999999" stroke="#999999" points="493,-22 439,-22 439,-0 493,-0 493,-22"/>
<text text-anchor="middle" x="466" y="-7.4" font-family="Helvetica,sans-Serif" font-size="12.00" fill="white">Float</text>
</a>
</g>
</g>
<!-- AbsoluteValuable&#45;&gt;Float -->
<g id="edge102" class="edge">
<path fill="none" stroke="#cccccc" d="M362.093,-115.833C375.338,-107.105 394.262,-93.783 409,-80 425.398,-64.6642 441.601,-44.7491 452.515,-30.44"/>
<polygon fill="#cccccc" stroke="#cccccc" points="455.384,-32.4471 458.581,-22.3461 449.783,-28.2488 455.384,-32.4471"/>
</g>
<!-- Float80 -->
<g id="node10" class="node">
<g id="a_node10"><a xlink:href="/swift-2/type/Float80/" target="_top">
<polygon fill="#999999" stroke="#999999" points="103,-22 49,-22 49,-0 103,-0 103,-22"/>
<text text-anchor="middle" x="76" y="-7.4" font-family="Helvetica,sans-Serif" font-size="12.00" fill="white">Float80</text>
</a>
</g>
</g>
<!-- AbsoluteValuable&#45;&gt;Float80 -->
<g id="edge103" class="edge">
<path fill="none" stroke="#cccccc" d="M322.039,-115.883C273.704,-95.4751 164.437,-49.3401 109.24,-26.0345"/>
<polygon fill="#cccccc" stroke="#cccccc" points="110.481,-22.7595 99.907,-22.0941 107.758,-29.2082 110.481,-22.7595"/>
</g>
<!-- AnyRandomAccessIndex -->
<g id="node2" class="node">
<g id="a_node2"><a xlink:href="/swift-2/type/AnyRandomAccessIndex/" target="_top">
<polygon fill="#999999" stroke="#999999" points="3940.05,-22 3795.95,-22 3795.95,-0 3940.05,-0 3940.05,-22"/>
<text text-anchor="middle" x="3868" y="-7.4" font-family="Helvetica,sans-Serif" font-size="12.00" fill="white">AnyRandomAccessIndex</text>
</a>
</g>
</g>
<!-- Bit -->
<g id="node3" class="node">
<g id="a_node3"><a xlink:href="/swift-2/type/Bit/" target="_top">
<polygon fill="#999999" stroke="#999999" points="3674,-22 3620,-22 3620,-0 3674,-0 3674,-22"/>
<text text-anchor="middle" x="3647" y="-7.4" font-family="Helvetica,sans-Serif" font-size="12.00" fill="white">Bit</text>
</a>
</g>
</g>
<!-- Character -->
<g id="node4" class="node">
<g id="a_node4"><a xlink:href="/swift-2/type/Character/" target="_top">
<polygon fill="#999999" stroke="#999999" points="4353.02,-22 4290.98,-22 4290.98,-0 4353.02,-0 4353.02,-22"/>
<text text-anchor="middle" x="4322" y="-7.4" font-family="Helvetica,sans-Serif" font-size="12.00" fill="white">Character</text>
</a>
</g>
</g>
<!-- Comparable -->
<g id="node5" class="node">
<g id="a_node5"><a xlink:href="/swift-2/protocol/Comparable/" target="_top">
<path fill="#ee543d" stroke="#ee543d" d="M3882.19,-312C3882.19,-312 3821.81,-312 3821.81,-312 3818.14,-312 3814.48,-308.333 3814.48,-304.667 3814.48,-304.667 3814.48,-297.333 3814.48,-297.333 3814.48,-293.667 3818.14,-290 3821.81,-290 3821.81,-290 3882.19,-290 3882.19,-290 3885.86,-290 3889.52,-293.667 3889.52,-297.333 3889.52,-297.333 3889.52,-304.667 3889.52,-304.667 3889.52,-308.333 3885.86,-312 3882.19,-312"/>
<text text-anchor="middle" x="3852" y="-297.4" font-family="Helvetica,sans-Serif" font-size="12.00" fill="white">Comparable</text>
</a>
</g>
</g>
<!-- Comparable&#45;&gt;AnyRandomAccessIndex -->
<g id="edge1" class="edge">
<path fill="none" stroke="#cccccc" d="M3889.58,-294.061C3970.92,-280.146 4156,-242.296 4156,-186 4156,-186 4156,-186 4156,-126 4156,-78.2176 4017.21,-41.8385 3932.33,-24.0571"/>
<polygon fill="#cccccc" stroke="#cccccc" points="3933.01,-20.6245 3922.51,-22.0329 3931.6,-27.4803 3933.01,-20.6245"/>
</g>
<!-- Comparable&#45;&gt;Bit -->
<g id="edge2" class="edge">
<path fill="none" stroke="#cccccc" d="M3869.83,-289.873C3881.95,-281.876 3897.02,-269.495 3904,-254 3918.6,-221.582 3914.17,-208.071 3904,-174 3886.38,-114.938 3878.27,-93.6654 3828,-58 3776.38,-21.3781 3749.77,-37.204 3684.09,-22.0812"/>
<polygon fill="#cccccc" stroke="#cccccc" points="3684.65,-18.6156 3674.11,-19.6154 3682.97,-25.4113 3684.65,-18.6156"/>
</g>
<!-- Comparable&#45;&gt;Character -->
<g id="edge3" class="edge">
<path fill="none" stroke="#cccccc" d="M3889.67,-298.912C4001.2,-294.681 4322,-274.791 4322,-186 4322,-186 4322,-186 4322,-126 4322,-93.1536 4322,-54.9837 4322,-32.197"/>
<polygon fill="#cccccc" stroke="#cccccc" points="4325.5,-32.0648 4322,-22.0648 4318.5,-32.0648 4325.5,-32.0648"/>
</g>
<!-- DictionaryIndex -->
<g id="node6" class="node">
<g id="a_node6"><a xlink:href="/swift-2/type/DictionaryIndex/" target="_top">
<polygon fill="#999999" stroke="#999999" points="4464.03,-22 4371.97,-22 4371.97,-0 4464.03,-0 4464.03,-22"/>
<text text-anchor="middle" x="4418" y="-7.4" font-family="Helvetica,sans-Serif" font-size="12.00" fill="white">DictionaryIndex</text>
</a>
</g>
</g>
<!-- Comparable&#45;&gt;DictionaryIndex -->
<g id="edge4" class="edge">
<path fill="none" stroke="#cccccc" d="M3889.58,-300.451C4015.99,-300.973 4418,-294.131 4418,-186 4418,-186 4418,-186 4418,-126 4418,-93.1536 4418,-54.9837 4418,-32.197"/>
<polygon fill="#cccccc" stroke="#cccccc" points="4421.5,-32.0648 4418,-22.0648 4414.5,-32.0648 4421.5,-32.0648"/>
</g>
<!-- Comparable&#45;&gt;Double -->
<g id="edge5" class="edge">
<path fill="none" stroke="#cccccc" d="M3814.39,-300.077C3497.1,-300.633 1262.74,-302.761 592,-254 476.646,-245.614 76,-301.658 76,-186 76,-186 76,-186 76,-126 76,-68.6531 146.1,-36.6203 191.09,-21.9673"/>
<polygon fill="#cccccc" stroke="#cccccc" points="192.317,-25.2509 200.825,-18.9374 190.237,-18.5671 192.317,-25.2509"/>
</g>
<!-- Comparable&#45;&gt;Float -->
<g id="edge6" class="edge">
<path fill="none" stroke="#cccccc" d="M3814.4,-299.904C3458.57,-298.94 695.752,-290.298 620,-254 595.375,-242.201 505.413,-118.985 486,-80 478.382,-64.7023 473.144,-45.9906 469.945,-32.0709"/>
<polygon fill="#cccccc" stroke="#cccccc" points="473.325,-31.1383 467.81,-22.0916 466.48,-32.6026 473.325,-31.1383"/>
</g>
<!-- Comparable&#45;&gt;Float80 -->
<g id="edge7" class="edge">
<path fill="none" stroke="#cccccc" d="M3814.41,-299.825C3428.6,-297.999 200.751,-281.895 107,-254 52.9936,-237.931 0,-242.346 0,-186 0,-186 0,-186 0,-126 0,-85.9604 32.8584,-49.2878 55.3644,-28.8653"/>
<polygon fill="#cccccc" stroke="#cccccc" points="57.8796,-31.3155 63.1076,-22.1004 53.2741,-26.044 57.8796,-31.3155"/>
</g>
<!-- Int -->
<g id="node12" class="node">
<g id="a_node12"><a xlink:href="/swift-2/type/Int/" target="_top">
<polygon fill="#999999" stroke="#999999" points="835,-22 781,-22 781,-0 835,-0 835,-22"/>
<text text-anchor="middle" x="808" y="-7.4" font-family="Helvetica,sans-Serif" font-size="12.00" fill="white">Int</text>
</a>
</g>
</g>
<!-- Comparable&#45;&gt;Int -->
<g id="edge8" class="edge">
<path fill="none" stroke="#cccccc" d="M3814.51,-299.81C3472.38,-298.035 900.517,-283.726 742,-254 669.297,-240.366 628.219,-256.739 586,-196 548.125,-141.511 585.845,-91.7178 643,-58 683.041,-34.3784 735.708,-22.4527 770.65,-16.7471"/>
<polygon fill="#cccccc" stroke="#cccccc" points="771.54,-20.1513 780.891,-15.17 770.475,-13.2328 771.54,-20.1513"/>
</g>
<!-- Int16 -->
<g id="node13" class="node">
<g id="a_node13"><a xlink:href="/swift-2/type/Int16/" target="_top">
<polygon fill="#999999" stroke="#999999" points="987,-22 933,-22 933,-0 987,-0 987,-22"/>
<text text-anchor="middle" x="960" y="-7.4" font-family="Helvetica,sans-Serif" font-size="12.00" fill="white">Int16</text>
</a>
</g>
</g>
<!-- Comparable&#45;&gt;Int16 -->
<g id="edge9" class="edge">
<path fill="none" stroke="#cccccc" d="M3814.62,-299.825C3506.89,-298.329 1395.85,-286.907 1116,-254 976.774,-237.628 808,-326.185 808,-186 808,-186 808,-186 808,-126 808,-68.6531 878.1,-36.6203 923.09,-21.9673"/>
<polygon fill="#cccccc" stroke="#cccccc" points="924.317,-25.2509 932.825,-18.9374 922.237,-18.5671 924.317,-25.2509"/>
</g>
<!-- Int32 -->
<g id="node14" class="node">
<g id="a_node14"><a xlink:href="/swift-2/type/Int32/" target="_top">
<polygon fill="#999999" stroke="#999999" points="1367,-22 1313,-22 1313,-0 1367,-0 1367,-22"/>
<text text-anchor="middle" x="1340" y="-7.4" font-family="Helvetica,sans-Serif" font-size="12.00" fill="white">Int32</text>
</a>
</g>
</g>
<!-- Comparable&#45;&gt;Int32 -->
<g id="edge10" class="edge">
<path fill="none" stroke="#cccccc" d="M3814.46,-299.863C3556.78,-298.83 2046.21,-291.246 1588,-254 1375,-236.686 1112,-399.703 1112,-186 1112,-186 1112,-186 1112,-126 1112,-41.7373 1238.12,-19.7547 1302.76,-14.0216"/>
<polygon fill="#cccccc" stroke="#cccccc" points="1303.26,-17.4928 1312.95,-13.2073 1302.7,-10.515 1303.26,-17.4928"/>
</g>
<!-- Int64 -->
<g id="node15" class="node">
<g id="a_node15"><a xlink:href="/swift-2/type/Int64/" target="_top">
<polygon fill="#999999" stroke="#999999" points="1647,-22 1593,-22 1593,-0 1647,-0 1647,-22"/>
<text text-anchor="middle" x="1620" y="-7.4" font-family="Helvetica,sans-Serif" font-size="12.00" fill="white">Int64</text>
</a>
</g>
</g>
<!-- Comparable&#45;&gt;Int64 -->
<g id="edge11" class="edge">
<path fill="none" stroke="#cccccc" d="M3814.31,-300.097C3576.91,-300.562 2285.85,-300.868 1894,-254 1753.08,-237.145 1582,-327.922 1582,-186 1582,-186 1582,-186 1582,-126 1582,-91.2644 1598.07,-53.4893 1609.31,-31.3219"/>
<polygon fill="#cccccc" stroke="#cccccc" points="1612.5,-32.7812 1614.06,-22.3021 1606.31,-29.5201 1612.5,-32.7812"/>
</g>
<!-- Int8 -->
<g id="node16" class="node">
<g id="a_node16"><a xlink:href="/swift-2/type/Int8/" target="_top">
<polygon fill="#999999" stroke="#999999" points="1951,-22 1897,-22 1897,-0 1951,-0 1951,-22"/>
<text text-anchor="middle" x="1924" y="-7.4" font-family="Helvetica,sans-Serif" font-size="12.00" fill="white">Int8</text>
</a>
</g>
</g>
<!-- Comparable&#45;&gt;Int8 -->
<g id="edge12" class="edge">
<path fill="none" stroke="#cccccc" d="M3814.34,-299.986C3597.93,-299.751 2510.62,-296.441 2179,-254 2046.4,-237.029 1886,-319.683 1886,-186 1886,-186 1886,-186 1886,-126 1886,-91.2644 1902.07,-53.4893 1913.31,-31.3219"/>
<polygon fill="#cccccc" stroke="#cccccc" points="1916.5,-32.7812 1918.06,-22.3021 1910.31,-29.5201 1916.5,-32.7812"/>
</g>
<!-- IntegerArithmeticType -->
<g id="node17" class="node">
<g id="a_node17"><a xlink:href="/swift-2/protocol/IntegerArithmeticType/" target="_top">
<path fill="#999999" stroke="#999999" d="M2306.71,-254C2306.71,-254 2195.29,-254 2195.29,-254 2191.62,-254 2187.96,-250.333 2187.96,-246.667 2187.96,-246.667 2187.96,-239.333 2187.96,-239.333 2187.96,-235.667 2191.62,-232 2195.29,-232 2195.29,-232 2306.71,-232 2306.71,-232 2310.38,-232 2314.04,-235.667 2314.04,-239.333 2314.04,-239.333 2314.04,-246.667 2314.04,-246.667 2314.04,-250.333 2310.38,-254 2306.71,-254"/>
<text text-anchor="middle" x="2251" y="-239.4" font-family="Helvetica,sans-Serif" font-size="12.00" fill="white">IntegerArithmeticType</text>
</a>
</g>
</g>
<!-- Comparable&#45;&gt;IntegerArithmeticType -->
<g id="edge13" class="edge">
<path fill="none" stroke="#cccccc" d="M3814.51,-300.234C3643.38,-301.015 2919.39,-301.21 2328,-254 2326.89,-253.912 2325.77,-253.818 2324.65,-253.721"/>
<polygon fill="#cccccc" stroke="#cccccc" points="2324.69,-250.208 2314.4,-252.738 2324.02,-257.176 2324.69,-250.208"/>
</g>
<!-- ObjectIdentifier -->
<g id="node19" class="node">
<g id="a_node19"><a xlink:href="/swift-2/type/ObjectIdentifier/" target="_top">
<polygon fill="#999999" stroke="#999999" points="4573.03,-22 4482.97,-22 4482.97,-0 4573.03,-0 4573.03,-22"/>
<text text-anchor="middle" x="4528" y="-7.4" font-family="Helvetica,sans-Serif" font-size="12.00" fill="white">ObjectIdentifier</text>
</a>
</g>
</g>
<!-- Comparable&#45;&gt;ObjectIdentifier -->
<g id="edge14" class="edge">
<path fill="none" stroke="#cccccc" d="M3889.68,-298.357C3994.09,-293.544 4285.45,-278.266 4378,-254 4448.8,-235.435 4528,-259.197 4528,-186 4528,-186 4528,-186 4528,-126 4528,-93.1536 4528,-54.9837 4528,-32.197"/>
<polygon fill="#cccccc" stroke="#cccccc" points="4531.5,-32.0648 4528,-22.0648 4524.5,-32.0648 4531.5,-32.0648"/>
</g>
<!-- ReverseRandomAccessIndex -->
<g id="node21" class="node">
<g id="a_node21"><a xlink:href="/swift-2/type/ReverseRandomAccessIndex/" target="_top">
<polygon fill="#999999" stroke="#999999" points="4126.06,-22 3957.94,-22 3957.94,-0 4126.06,-0 4126.06,-22"/>
<text text-anchor="middle" x="4042" y="-7.4" font-family="Helvetica,sans-Serif" font-size="12.00" fill="white">ReverseRandomAccessIndex</text>
</a>
</g>
</g>
<!-- Comparable&#45;&gt;ReverseRandomAccessIndex -->
<g id="edge15" class="edge">
<path fill="none" stroke="#cccccc" d="M3889.45,-298.552C3940.1,-295.413 4032.33,-285.473 4104,-254 4149.9,-233.842 4194,-236.134 4194,-186 4194,-186 4194,-186 4194,-126 4194,-72.6814 4133.4,-41.2454 4088.73,-25.3151"/>
<polygon fill="#cccccc" stroke="#cccccc" points="4089.78,-21.9748 4079.18,-22.0564 4087.52,-28.5994 4089.78,-21.9748"/>
</g>
<!-- SetIndex -->
<g id="node22" class="node">
<g id="a_node22"><a xlink:href="/swift-2/type/SetIndex/" target="_top">
<polygon fill="#999999" stroke="#999999" points="4648.52,-22 4591.48,-22 4591.48,-0 4648.52,-0 4648.52,-22"/>
<text text-anchor="middle" x="4620" y="-7.4" font-family="Helvetica,sans-Serif" font-size="12.00" fill="white">SetIndex</text>
</a>
</g>
</g>
<!-- Comparable&#45;&gt;SetIndex -->
<g id="edge16" class="edge">
<path fill="none" stroke="#cccccc" d="M3889.72,-298.673C4004.25,-294.399 4346.73,-279.754 4455,-254 4532.16,-235.645 4620,-265.317 4620,-186 4620,-186 4620,-186 4620,-126 4620,-93.1536 4620,-54.9837 4620,-32.197"/>
<polygon fill="#cccccc" stroke="#cccccc" points="4623.5,-32.0648 4620,-22.0648 4616.5,-32.0648 4623.5,-32.0648"/>
</g>
<!-- SignedNumberType -->
<g id="node24" class="node">
<g id="a_node24"><a xlink:href="/swift-2/protocol/SignedNumberType/" target="_top">
<path fill="#999999" stroke="#999999" d="M734.716,-196C734.716,-196 633.284,-196 633.284,-196 629.617,-196 625.95,-192.333 625.95,-188.667 625.95,-188.667 625.95,-181.333 625.95,-181.333 625.95,-177.667 629.617,-174 633.284,-174 633.284,-174 734.716,-174 734.716,-174 738.383,-174 742.05,-177.667 742.05,-181.333 742.05,-181.333 742.05,-188.667 742.05,-188.667 742.05,-192.333 738.383,-196 734.716,-196"/>
<text text-anchor="middle" x="684" y="-181.4" font-family="Helvetica,sans-Serif" font-size="12.00" fill="white">SignedNumberType</text>
</a>
</g>
</g>
<!-- Comparable&#45;&gt;SignedNumberType -->
<g id="edge17" class="edge">
<path fill="none" stroke="#cccccc" d="M3814.56,-300.007C3475.59,-300.001 946.135,-298.467 794,-254 758.96,-243.758 724.056,-219.095 703.251,-202.461"/>
<polygon fill="#cccccc" stroke="#cccccc" points="705.443,-199.733 695.49,-196.101 701.007,-205.147 705.443,-199.733"/>
</g>
<!-- Strideable -->
<g id="node25" class="node">
<g id="a_node25"><a xlink:href="/swift-2/protocol/Strideable/" target="_top">
<path fill="#999999" stroke="#999999" d="M2594.69,-254C2594.69,-254 2545.31,-254 2545.31,-254 2541.64,-254 2537.97,-250.333 2537.97,-246.667 2537.97,-246.667 2537.97,-239.333 2537.97,-239.333 2537.97,-235.667 2541.64,-232 2545.31,-232 2545.31,-232 2594.69,-232 2594.69,-232 2598.36,-232 2602.03,-235.667 2602.03,-239.333 2602.03,-239.333 2602.03,-246.667 2602.03,-246.667 2602.03,-250.333 2598.36,-254 2594.69,-254"/>
<text text-anchor="middle" x="2570" y="-239.4" font-family="Helvetica,sans-Serif" font-size="12.00" fill="white">Strideable</text>
</a>
</g>
</g>
<!-- Comparable&#45;&gt;Strideable -->
<g id="edge18" class="edge">
<path fill="none" stroke="#cccccc" d="M3814.34,-298.545C3674.87,-293.129 3174.44,-273.443 2762,-254 2710.65,-251.579 2651.59,-248.452 2612.68,-246.344"/>
<polygon fill="#cccccc" stroke="#cccccc" points="2612.44,-242.826 2602.27,-245.778 2612.06,-249.815 2612.44,-242.826"/>
</g>
<!-- String -->
<g id="node26" class="node">
<g id="a_node26"><a xlink:href="/swift-2/type/String/" target="_top">
<polygon fill="#999999" stroke="#999999" points="4721,-22 4667,-22 4667,-0 4721,-0 4721,-22"/>
<text text-anchor="middle" x="4694" y="-7.4" font-family="Helvetica,sans-Serif" font-size="12.00" fill="white">String</text>
</a>
</g>
</g>
<!-- Comparable&#45;&gt;String -->
<g id="edge19" class="edge">
<path fill="none" stroke="#cccccc" d="M3889.73,-299.219C4014.95,-296.356 4415.89,-284.94 4541,-254 4613.24,-236.135 4694,-260.414 4694,-186 4694,-186 4694,-186 4694,-126 4694,-93.1536 4694,-54.9837 4694,-32.197"/>
<polygon fill="#cccccc" stroke="#cccccc" points="4697.5,-32.0648 4694,-22.0648 4690.5,-32.0648 4697.5,-32.0648"/>
</g>
<!-- String.CharacterView.Index -->
<g id="node27" class="node">
<g id="a_node27"><a xlink:href="/swift-2/type/String.CharacterView.Index/" target="_top">
<polygon fill="#999999" stroke="#999999" points="4894.4,-22 4739.6,-22 4739.6,-0 4894.4,-0 4894.4,-22"/>
<text text-anchor="middle" x="4817" y="-7.4" font-family="Helvetica,sans-Serif" font-size="12.00" fill="white">String.CharacterView.Index</text>
</a>
</g>
</g>
<!-- Comparable&#45;&gt;String.CharacterView.Index -->
<g id="edge28" class="edge">
<path fill="none" stroke="#cccccc" d="M3889.53,-299.585C4067.41,-297.133 4817,-281.157 4817,-186 4817,-186 4817,-186 4817,-126 4817,-93.1536 4817,-54.9837 4817,-32.197"/>
<polygon fill="#cccccc" stroke="#cccccc" points="4820.5,-32.0648 4817,-22.0648 4813.5,-32.0648 4820.5,-32.0648"/>
</g>
<!-- String.UTF16View.Index -->
<g id="node28" class="node">
<g id="a_node28"><a xlink:href="/swift-2/type/String.UTF16View.Index/" target="_top">
<polygon fill="#999999" stroke="#999999" points="5051.39,-22 4912.61,-22 4912.61,-0 5051.39,-0 5051.39,-22"/>
<text text-anchor="middle" x="4982" y="-7.4" font-family="Helvetica,sans-Serif" font-size="12.00" fill="white">String.UTF16View.Index</text>
</a>
</g>
</g>
<!-- Comparable&#45;&gt;String.UTF16View.Index -->
<g id="edge30" class="edge">
<path fill="none" stroke="#cccccc" d="M3889.6,-300.241C4085.67,-301.012 4982,-298.391 4982,-186 4982,-186 4982,-186 4982,-126 4982,-93.1536 4982,-54.9837 4982,-32.197"/>
<polygon fill="#cccccc" stroke="#cccccc" points="4985.5,-32.0648 4982,-22.0648 4978.5,-32.0648 4985.5,-32.0648"/>
</g>
<!-- String.UnicodeScalarView.Index -->
<g id="node29" class="node">
<g id="a_node29"><a xlink:href="/swift-2/type/String.UnicodeScalarView.Index/" target="_top">
<polygon fill="#999999" stroke="#999999" points="5249.92,-22 5070.08,-22 5070.08,-0 5249.92,-0 5249.92,-22"/>
<text text-anchor="middle" x="5160" y="-7.4" font-family="Helvetica,sans-Serif" font-size="12.00" fill="white">String.UnicodeScalarView.Index</text>
</a>
</g>
</g>
<!-- Comparable&#45;&gt;String.UnicodeScalarView.Index -->
<g id="edge29" class="edge">
<path fill="none" stroke="#cccccc" d="M3889.58,-299.342C4051.38,-296.351 4689.47,-282.925 4888,-254 5011.31,-236.035 5160,-310.609 5160,-186 5160,-186 5160,-186 5160,-126 5160,-93.1536 5160,-54.9837 5160,-32.197"/>
<polygon fill="#cccccc" stroke="#cccccc" points="5163.5,-32.0648 5160,-22.0648 5156.5,-32.0648 5163.5,-32.0648"/>
</g>
<!-- UInt -->
<g id="node30" class="node">
<g id="a_node30"><a xlink:href="/swift-2/type/UInt/" target="_top">
<polygon fill="#999999" stroke="#999999" points="2673,-22 2619,-22 2619,-0 2673,-0 2673,-22"/>
<text text-anchor="middle" x="2646" y="-7.4" font-family="Helvetica,sans-Serif" font-size="12.00" fill="white">UInt</text>
</a>
</g>
</g>
<!-- Comparable&#45;&gt;UInt -->
<g id="edge20" class="edge">
<path fill="none" stroke="#cccccc" d="M3814.62,-297.93C3644.73,-288.003 2945.38,-241.439 2756,-138 2709.72,-112.723 2673.75,-59.9082 2656.75,-31.3407"/>
<polygon fill="#cccccc" stroke="#cccccc" points="2659.58,-29.2375 2651.54,-22.3322 2653.52,-32.7413 2659.58,-29.2375"/>
</g>
<!-- UInt16 -->
<g id="node31" class="node">
<g id="a_node31"><a xlink:href="/swift-2/type/UInt16/" target="_top">
<polygon fill="#999999" stroke="#999999" points="2426,-22 2372,-22 2372,-0 2426,-0 2426,-22"/>
<text text-anchor="middle" x="2399" y="-7.4" font-family="Helvetica,sans-Serif" font-size="12.00" fill="white">UInt16</text>
</a>
</g>
</g>
<!-- Comparable&#45;&gt;UInt16 -->
<g id="edge21" class="edge">
<path fill="none" stroke="#cccccc" d="M3814.46,-300.279C3626.32,-301.435 2784.93,-303.689 2529,-254 2442.19,-237.145 2342,-274.436 2342,-186 2342,-186 2342,-186 2342,-126 2342,-88.8539 2366.51,-51.4043 2383.39,-30.0221"/>
<polygon fill="#cccccc" stroke="#cccccc" points="2386.21,-32.0955 2389.84,-22.142 2380.8,-27.6591 2386.21,-32.0955"/>
</g>
<!-- UInt32 -->
<g id="node32" class="node">
<g id="a_node32"><a xlink:href="/swift-2/type/UInt32/" target="_top">
<polygon fill="#999999" stroke="#999999" points="3176,-22 3122,-22 3122,-0 3176,-0 3176,-22"/>
<text text-anchor="middle" x="3149" y="-7.4" font-family="Helvetica,sans-Serif" font-size="12.00" fill="white">UInt32</text>
</a>
</g>
</g>
<!-- Comparable&#45;&gt;UInt32 -->
<g id="edge22" class="edge">
<path fill="none" stroke="#cccccc" d="M3846.62,-289.97C3833.52,-266.432 3797.65,-207.142 3752,-174 3570.06,-41.9146 3287.11,-17.5197 3186.26,-13.0176"/>
<polygon fill="#cccccc" stroke="#cccccc" points="3186.38,-9.51984 3176.25,-12.6105 3186.1,-16.5141 3186.38,-9.51984"/>
</g>
<!-- UInt64 -->
<g id="node33" class="node">
<g id="a_node33"><a xlink:href="/swift-2/type/UInt64/" target="_top">
<polygon fill="#999999" stroke="#999999" points="3480,-22 3426,-22 3426,-0 3480,-0 3480,-22"/>
<text text-anchor="middle" x="3453" y="-7.4" font-family="Helvetica,sans-Serif" font-size="12.00" fill="white">UInt64</text>
</a>
</g>
</g>
<!-- Comparable&#45;&gt;UInt64 -->
<g id="edge23" class="edge">
<path fill="none" stroke="#cccccc" d="M3852.02,-289.88C3851.66,-267.618 3848.56,-213.256 3828,-174 3794.46,-109.966 3777.97,-91.6533 3714,-58 3641.43,-19.823 3543.4,-12.5074 3490.54,-11.5862"/>
<polygon fill="#cccccc" stroke="#cccccc" points="3490.32,-8.08378 3480.28,-11.4789 3490.24,-15.0834 3490.32,-8.08378"/>
</g>
<!-- UInt8 -->
<g id="node34" class="node">
<g id="a_node34"><a xlink:href="/swift-2/type/UInt8/" target="_top">
<polygon fill="#999999" stroke="#999999" points="3024,-22 2970,-22 2970,-0 3024,-0 3024,-22"/>
<text text-anchor="middle" x="2997" y="-7.4" font-family="Helvetica,sans-Serif" font-size="12.00" fill="white">UInt8</text>
</a>
</g>
</g>
<!-- Comparable&#45;&gt;UInt8 -->
<g id="edge24" class="edge">
<path fill="none" stroke="#cccccc" d="M3830.91,-289.899C3753.92,-253.399 3480.04,-126.871 3242,-58 3169.77,-37.101 3082.72,-23.3809 3034.25,-16.722"/>
<polygon fill="#cccccc" stroke="#cccccc" points="3034.6,-13.2378 3024.22,-15.3702 3033.67,-20.175 3034.6,-13.2378"/>
</g>
<!-- UnicodeScalar -->
<g id="node35" class="node">
<g id="a_node35"><a xlink:href="/swift-2/type/UnicodeScalar/" target="_top">
<polygon fill="#999999" stroke="#999999" points="5356.03,-22 5267.97,-22 5267.97,-0 5356.03,-0 5356.03,-22"/>
<text text-anchor="middle" x="5312" y="-7.4" font-family="Helvetica,sans-Serif" font-size="12.00" fill="white">UnicodeScalar</text>
</a>
</g>
</g>
<!-- Comparable&#45;&gt;UnicodeScalar -->
<g id="edge25" class="edge">
<path fill="none" stroke="#cccccc" d="M3889.38,-299.545C4064.33,-297.264 4803.44,-285.884 5032,-254 5158.83,-236.307 5312,-314.062 5312,-186 5312,-186 5312,-186 5312,-126 5312,-93.1536 5312,-54.9837 5312,-32.197"/>
<polygon fill="#cccccc" stroke="#cccccc" points="5315.5,-32.0648 5312,-22.0648 5308.5,-32.0648 5315.5,-32.0648"/>
</g>
<!-- UnsafeMutablePointer -->
<g id="node36" class="node">
<g id="a_node36"><a xlink:href="/swift-2/type/UnsafeMutablePointer/" target="_top">
<polygon fill="#999999" stroke="#999999" points="4272.05,-22 4143.95,-22 4143.95,-0 4272.05,-0 4272.05,-22"/>
<text text-anchor="middle" x="4208" y="-7.4" font-family="Helvetica,sans-Serif" font-size="12.00" fill="white">UnsafeMutablePointer</text>
</a>
</g>
</g>
<!-- Comparable&#45;&gt;UnsafeMutablePointer -->
<g id="edge26" class="edge">
<path fill="none" stroke="#cccccc" d="M3889.46,-297.807C3992.06,-290.783 4270,-264.511 4270,-186 4270,-186 4270,-186 4270,-126 4270,-88.2105 4243.38,-51.0008 4225.03,-29.8342"/>
<polygon fill="#cccccc" stroke="#cccccc" points="4227.53,-27.3805 4218.24,-22.2892 4222.33,-32.0635 4227.53,-27.3805"/>
</g>
<!-- UnsafePointer -->
<g id="node37" class="node">
<g id="a_node37"><a xlink:href="/swift-2/type/UnsafePointer/" target="_top">
<polygon fill="#999999" stroke="#999999" points="3778.03,-22 3691.97,-22 3691.97,-0 3778.03,-0 3778.03,-22"/>
<text text-anchor="middle" x="3735" y="-7.4" font-family="Helvetica,sans-Serif" font-size="12.00" fill="white">UnsafePointer</text>
</a>
</g>
</g>
<!-- Comparable&#45;&gt;UnsafePointer -->
<g id="edge27" class="edge">
<path fill="none" stroke="#cccccc" d="M3889.54,-294.65C3944.91,-284.402 4042,-256.397 4042,-186 4042,-186 4042,-186 4042,-126 4042,-72.2535 3991.34,-79.3214 3942,-58 3927.93,-51.9209 3844.6,-34.2904 3788.05,-22.7063"/>
<polygon fill="#cccccc" stroke="#cccccc" points="3788.67,-19.2614 3778.18,-20.6889 3787.27,-26.1197 3788.67,-19.2614"/>
</g>
<!-- Equatable -->
<g id="node8" class="node">
<g id="a_node8"><a xlink:href="/swift-2/protocol/Equatable/" target="_top">
<path fill="#999999" stroke="#999999" d="M3876.7,-370C3876.7,-370 3827.3,-370 3827.3,-370 3823.63,-370 3819.96,-366.333 3819.96,-362.667 3819.96,-362.667 3819.96,-355.333 3819.96,-355.333 3819.96,-351.667 3823.63,-348 3827.3,-348 3827.3,-348 3876.7,-348 3876.7,-348 3880.37,-348 3884.04,-351.667 3884.04,-355.333 3884.04,-355.333 3884.04,-362.667 3884.04,-362.667 3884.04,-366.333 3880.37,-370 3876.7,-370"/>
<text text-anchor="middle" x="3852" y="-355.4" font-family="Helvetica,sans-Serif" font-size="12.00" fill="white">Equatable</text>
</a>
</g>
</g>
<!-- Equatable&#45;&gt;Comparable -->
<g id="edge142" class="edge">
<path fill="none" stroke="#cccccc" d="M3852,-347.988C3852,-340.91 3852,-331.171 3852,-322.478"/>
<polygon fill="#cccccc" stroke="#cccccc" points="3855.5,-322.304 3852,-312.304 3848.5,-322.304 3855.5,-322.304"/>
</g>
<!-- FloatingPointType -->
<g id="node11" class="node">
<g id="a_node11"><a xlink:href="/swift-2/protocol/FloatingPointType/" target="_top">
<path fill="#999999" stroke="#999999" d="M392.715,-80C392.715,-80 301.285,-80 301.285,-80 297.618,-80 293.952,-76.3333 293.952,-72.6667 293.952,-72.6667 293.952,-65.3333 293.952,-65.3333 293.952,-61.6667 297.618,-58 301.285,-58 301.285,-58 392.715,-58 392.715,-58 396.382,-58 400.048,-61.6667 400.048,-65.3333 400.048,-65.3333 400.048,-72.6667 400.048,-72.6667 400.048,-76.3333 396.382,-80 392.715,-80"/>
<text text-anchor="middle" x="347" y="-65.4" font-family="Helvetica,sans-Serif" font-size="12.00" fill="white">FloatingPointType</text>
</a>
</g>
</g>
<!-- FloatingPointType&#45;&gt;Double -->
<g id="edge124" class="edge">
<path fill="none" stroke="#cccccc" d="M325.725,-57.9883C307.058,-49.2036 279.685,-36.3222 258.654,-26.4255"/>
<polygon fill="#cccccc" stroke="#cccccc" points="260.03,-23.205 249.492,-22.1138 257.05,-29.5387 260.03,-23.205"/>
</g>
<!-- FloatingPointType&#45;&gt;Float -->
<g id="edge125" class="edge">
<path fill="none" stroke="#cccccc" d="M368.275,-57.9883C386.942,-49.2036 414.315,-36.3222 435.346,-26.4255"/>
<polygon fill="#cccccc" stroke="#cccccc" points="436.95,-29.5387 444.508,-22.1138 433.97,-23.205 436.95,-29.5387"/>
</g>
<!-- Int&#45;&gt;Bit -->
<g id="edge31" class="edge">
<path fill="none" stroke="#cccccc" d="M835.486,-19.2844C860.604,-26.3961 898.915,-36.0979 933,-40 1073.58,-56.0938 3339.02,-52.1496 3480,-40 3525.17,-36.1073 3576.45,-26.397 3610.14,-19.281"/>
<polygon fill="#cccccc" stroke="#cccccc" points="3610.95,-22.6852 3620,-17.1652 3609.49,-15.8409 3610.95,-22.6852"/>
</g>
<!-- IntegerArithmeticType&#45;&gt;Bit -->
<g id="edge32" class="edge">
<path fill="none" stroke="#cccccc" d="M2314.32,-239.208C2481.14,-231.736 2930,-210.843 3078,-196 3256.3,-178.117 3306.71,-193.804 3477,-138 3529.15,-120.911 3542.79,-113.832 3586,-80 3604.41,-65.5872 3621.84,-45.2268 3633.32,-30.5467"/>
<polygon fill="#cccccc" stroke="#cccccc" points="3636.37,-32.3179 3639.65,-22.2443 3630.8,-28.0725 3636.37,-32.3179"/>
</g>
<!-- IntegerArithmeticType&#45;&gt;Int -->
<g id="edge33" class="edge">
<path fill="none" stroke="#cccccc" d="M2187.64,-241.413C1890.1,-238.51 644.866,-224.661 617,-196 581.871,-159.868 535.838,-177.664 667,-58 695.711,-31.8057 739.582,-20.5088 770.755,-15.6482"/>
<polygon fill="#cccccc" stroke="#cccccc" points="771.385,-19.0941 780.8,-14.2343 770.409,-12.1624 771.385,-19.0941"/>
</g>
<!-- IntegerArithmeticType&#45;&gt;Int16 -->
<g id="edge34" class="edge">
<path fill="none" stroke="#cccccc" d="M2187.7,-242.355C1951.39,-243.312 1128.88,-243.187 1022,-196 955.873,-166.806 935.372,-146.902 908,-80 904.298,-70.9503 903.984,-66.9149 908,-58 913.454,-45.8944 923.842,-35.6897 933.909,-27.9913"/>
<polygon fill="#cccccc" stroke="#cccccc" points="936.043,-30.7685 942.173,-22.1275 931.992,-25.0595 936.043,-30.7685"/>
</g>
<!-- IntegerArithmeticType&#45;&gt;Int32 -->
<g id="edge35" class="edge">
<path fill="none" stroke="#cccccc" d="M2187.69,-241.058C1973.52,-237.617 1287.37,-224.413 1250,-196 1199.36,-157.497 1175.41,-110.037 1212,-58 1232.35,-29.0586 1272.73,-18.2375 1302.72,-14.2397"/>
<polygon fill="#cccccc" stroke="#cccccc" points="1303.3,-17.6962 1312.84,-13.0916 1302.51,-10.7407 1303.3,-17.6962"/>
</g>
<!-- IntegerArithmeticType&#45;&gt;Int64 -->
<g id="edge36" class="edge">
<path fill="none" stroke="#cccccc" d="M2187.48,-239.85C2055.01,-234.886 1758.32,-221.09 1720,-196 1660.9,-157.309 1633.91,-71.3713 1624.33,-32.182"/>
<polygon fill="#cccccc" stroke="#cccccc" points="1627.69,-31.1945 1622.03,-22.2395 1620.87,-32.7708 1627.69,-31.1945"/>
</g>
<!-- IntegerArithmeticType&#45;&gt;Int8 -->
<g id="edge37" class="edge">
<path fill="none" stroke="#cccccc" d="M2187.62,-241.045C2108.73,-238.438 1980.39,-229.073 1948,-196 1904.7,-151.779 1912.87,-70.2977 1919.65,-32.3898"/>
<polygon fill="#cccccc" stroke="#cccccc" points="1923.17,-32.5981 1921.65,-22.1137 1916.3,-31.2611 1923.17,-32.5981"/>
</g>
<!-- IntegerArithmeticType&#45;&gt;UInt -->
<g id="edge38" class="edge">
<path fill="none" stroke="#cccccc" d="M2268.23,-231.969C2330.6,-195.652 2544.88,-70.878 2619.85,-27.226"/>
<polygon fill="#cccccc" stroke="#cccccc" points="2621.8,-30.1401 2628.68,-22.0835 2618.28,-24.0909 2621.8,-30.1401"/>
</g>
<!-- IntegerArithmeticType&#45;&gt;UInt16 -->
<g id="edge39" class="edge">
<path fill="none" stroke="#cccccc" d="M2253.05,-231.717C2259.43,-201.869 2281.37,-113.801 2328,-58 2338.71,-45.1802 2353.92,-34.6711 2367.52,-26.9502"/>
<polygon fill="#cccccc" stroke="#cccccc" points="2369.46,-29.882 2376.6,-22.0563 2366.14,-23.72 2369.46,-29.882"/>
</g>
<!-- IntegerArithmeticType&#45;&gt;UInt32 -->
<g id="edge40" class="edge">
<path fill="none" stroke="#cccccc" d="M2314.09,-238.952C2446.16,-232.275 2747.89,-215.396 2849,-196 2934.04,-179.687 2962.04,-184.642 3035,-138 3079.91,-109.288 3118.22,-58.3338 3136.87,-30.8407"/>
<polygon fill="#cccccc" stroke="#cccccc" points="3140.01,-32.4367 3142.62,-22.1694 3134.18,-28.5654 3140.01,-32.4367"/>
</g>
<!-- IntegerArithmeticType&#45;&gt;UInt64 -->
<g id="edge41" class="edge">
<path fill="none" stroke="#cccccc" d="M2314.38,-238.189C2553.48,-223.586 3389.59,-170.398 3436,-138 3467.01,-116.352 3469.81,-95.5122 3465,-58 3463.88,-49.2343 3461.59,-39.7537 3459.32,-31.6898"/>
<polygon fill="#cccccc" stroke="#cccccc" points="3462.66,-30.6522 3456.43,-22.0844 3455.96,-32.6688 3462.66,-30.6522"/>
</g>
<!-- IntegerArithmeticType&#45;&gt;UInt8 -->
<g id="edge42" class="edge">
<path fill="none" stroke="#cccccc" d="M2314.35,-237.801C2488.46,-225.652 2964.59,-188.114 3013,-138 3037.94,-112.187 3033.41,-92.6336 3024,-58 3021.38,-48.3659 3016.18,-38.6879 3011.04,-30.7116"/>
<polygon fill="#cccccc" stroke="#cccccc" points="3013.74,-28.4735 3005.18,-22.2345 3007.98,-32.4517 3013.74,-28.4735"/>
</g>
<!-- _IntegerType -->
<g id="node40" class="node">
<g id="a_node40"><a xlink:href="/swift-2/protocol/_IntegerType/" target="_top">
<path fill="#999999" stroke="#999999" d="M2196.71,-196C2196.71,-196 2131.29,-196 2131.29,-196 2127.63,-196 2123.96,-192.333 2123.96,-188.667 2123.96,-188.667 2123.96,-181.333 2123.96,-181.333 2123.96,-177.667 2127.63,-174 2131.29,-174 2131.29,-174 2196.71,-174 2196.71,-174 2200.37,-174 2204.04,-177.667 2204.04,-181.333 2204.04,-181.333 2204.04,-188.667 2204.04,-188.667 2204.04,-192.333 2200.37,-196 2196.71,-196"/>
<text text-anchor="middle" x="2164" y="-181.4" font-family="Helvetica,sans-Serif" font-size="12.00" fill="white">_IntegerType</text>
</a>
</g>
</g>
<!-- IntegerArithmeticType&#45;&gt;_IntegerType -->
<g id="edge43" class="edge">
<path fill="none" stroke="#cccccc" d="M2235.45,-231.988C2222.41,-223.599 2203.58,-211.474 2188.52,-201.78"/>
<polygon fill="#cccccc" stroke="#cccccc" points="2190.02,-198.583 2179.71,-196.114 2186.23,-204.469 2190.02,-198.583"/>
</g>
<!-- IntegerType -->
<g id="node18" class="node">
<g id="a_node18"><a xlink:href="/swift-2/protocol/IntegerType/" target="_top">
<path fill="#999999" stroke="#999999" d="M2246.2,-138C2246.2,-138 2187.8,-138 2187.8,-138 2184.13,-138 2180.47,-134.333 2180.47,-130.667 2180.47,-130.667 2180.47,-123.333 2180.47,-123.333 2180.47,-119.667 2184.13,-116 2187.8,-116 2187.8,-116 2246.2,-116 2246.2,-116 2249.87,-116 2253.53,-119.667 2253.53,-123.333 2253.53,-123.333 2253.53,-130.667 2253.53,-130.667 2253.53,-134.333 2249.87,-138 2246.2,-138"/>
<text text-anchor="middle" x="2217" y="-123.4" font-family="Helvetica,sans-Serif" font-size="12.00" fill="white">IntegerType</text>
</a>
</g>
</g>
<!-- IntegerType&#45;&gt;Int -->
<g id="edge57" class="edge">
<path fill="none" stroke="#cccccc" d="M2180.3,-125.67C2051.63,-124.215 1609.11,-116.682 1246,-80 1096.46,-64.8935 920.15,-33.2562 844.961,-19.1054"/>
<polygon fill="#cccccc" stroke="#cccccc" points="845.513,-15.6477 835.036,-17.2283 844.212,-22.5258 845.513,-15.6477"/>
</g>
<!-- IntegerType&#45;&gt;Int16 -->
<g id="edge58" class="edge">
<path fill="none" stroke="#cccccc" d="M2180.45,-125.938C2061.57,-125.333 1675.31,-120.184 1359,-80 1309.97,-73.7717 1298.64,-66.762 1250,-58 1159.51,-41.6981 1052.57,-25.532 997.279,-17.4033"/>
<polygon fill="#cccccc" stroke="#cccccc" points="997.653,-13.9208 987.252,-15.9339 996.638,-20.8469 997.653,-13.9208"/>
</g>
<!-- IntegerType&#45;&gt;Int32 -->
<g id="edge59" class="edge">
<path fill="none" stroke="#cccccc" d="M2180.43,-120.972C2097.04,-109.534 1886.37,-80.791 1710,-58 1588.43,-42.2908 1444.26,-24.6518 1377.44,-16.5339"/>
<polygon fill="#cccccc" stroke="#cccccc" points="1377.75,-13.0453 1367.4,-15.3145 1376.9,-19.9943 1377.75,-13.0453"/>
</g>
<!-- IntegerType&#45;&gt;Int64 -->
<g id="edge60" class="edge">
<path fill="none" stroke="#cccccc" d="M2197.81,-115.967C2167.66,-100.701 2106.96,-71.945 2052,-58 1909.33,-21.7986 1733.13,-14.0592 1657.43,-12.4253"/>
<polygon fill="#cccccc" stroke="#cccccc" points="1657.08,-8.91793 1647.01,-12.2259 1656.94,-15.9166 1657.08,-8.91793"/>
</g>
<!-- IntegerType&#45;&gt;Int8 -->
<g id="edge61" class="edge">
<path fill="none" stroke="#cccccc" d="M2212.39,-115.801C2204.95,-100.585 2188.79,-72.211 2166,-58 2132.37,-37.0266 2020.55,-22.3081 1961.42,-15.7829"/>
<polygon fill="#cccccc" stroke="#cccccc" points="1961.68,-12.2912 1951.36,-14.6966 1960.93,-19.2507 1961.68,-12.2912"/>
</g>
<!-- SignedIntegerType -->
<g id="node23" class="node">
<g id="a_node23"><a xlink:href="/swift-2/protocol/SignedIntegerType/" target="_top">
<path fill="#999999" stroke="#999999" d="M1470.73,-80C1470.73,-80 1375.27,-80 1375.27,-80 1371.61,-80 1367.94,-76.3333 1367.94,-72.6667 1367.94,-72.6667 1367.94,-65.3333 1367.94,-65.3333 1367.94,-61.6667 1371.61,-58 1375.27,-58 1375.27,-58 1470.73,-58 1470.73,-58 1474.39,-58 1478.06,-61.6667 1478.06,-65.3333 1478.06,-65.3333 1478.06,-72.6667 1478.06,-72.6667 1478.06,-76.3333 1474.39,-80 1470.73,-80"/>
<text text-anchor="middle" x="1423" y="-65.4" font-family="Helvetica,sans-Serif" font-size="12.00" fill="white">SignedIntegerType</text>
</a>
</g>
</g>
<!-- IntegerType&#45;&gt;SignedIntegerType -->
<g id="edge62" class="edge">
<path fill="none" stroke="#cccccc" d="M2180.56,-123.43C2056.36,-114.67 1648.51,-85.9051 1488.37,-74.6107"/>
<polygon fill="#cccccc" stroke="#cccccc" points="1488.41,-71.1048 1478.19,-73.8925 1487.92,-78.0874 1488.41,-71.1048"/>
</g>
<!-- IntegerType&#45;&gt;UInt -->
<g id="edge63" class="edge">
<path fill="none" stroke="#cccccc" d="M2240.81,-115.937C2275.95,-101.406 2344.04,-74.4842 2404,-58 2475.46,-38.3542 2561.06,-24.2281 2608.91,-17.1506"/>
<polygon fill="#cccccc" stroke="#cccccc" points="2609.43,-20.6128 2618.82,-15.7071 2608.42,-13.686 2609.43,-20.6128"/>
</g>
<!-- IntegerType&#45;&gt;UInt16 -->
<g id="edge64" class="edge">
<path fill="none" stroke="#cccccc" d="M2219.59,-115.647C2223.84,-100.753 2233.71,-73.3849 2252,-58 2283.3,-31.6715 2329.67,-20.3834 2361.93,-15.5618"/>
<polygon fill="#cccccc" stroke="#cccccc" points="2362.43,-19.0256 2371.87,-14.2127 2361.49,-12.0892 2362.43,-19.0256"/>
</g>
<!-- IntegerType&#45;&gt;UInt32 -->
<g id="edge65" class="edge">
<path fill="none" stroke="#cccccc" d="M2253.62,-126.487C2358.51,-127.266 2668.73,-125.266 2921,-80 2990.36,-67.5543 3068.53,-41.4984 3112.96,-25.4988"/>
<polygon fill="#cccccc" stroke="#cccccc" points="3114.25,-28.757 3122.45,-22.0514 3111.85,-22.178 3114.25,-28.757"/>
</g>
<!-- IntegerType&#45;&gt;UInt64 -->
<g id="edge66" class="edge">
<path fill="none" stroke="#cccccc" d="M2253.62,-124.866C2363.73,-121.224 2701.43,-108.372 2980,-80 3143.11,-63.387 3336.27,-31.899 3415.88,-18.403"/>
<polygon fill="#cccccc" stroke="#cccccc" points="3416.63,-21.8254 3425.9,-16.6969 3415.46,-14.9246 3416.63,-21.8254"/>
</g>
<!-- IntegerType&#45;&gt;UInt8 -->
<g id="edge67" class="edge">
<path fill="none" stroke="#cccccc" d="M2253.57,-120.654C2384.36,-101.539 2828.06,-36.6912 2959.82,-17.4346"/>
<polygon fill="#cccccc" stroke="#cccccc" points="2960.43,-20.8818 2969.82,-15.9723 2959.42,-13.9553 2960.43,-20.8818"/>
</g>
<!-- UnsignedIntegerType -->
<g id="node38" class="node">
<g id="a_node38"><a xlink:href="/swift-2/protocol/UnsignedIntegerType/" target="_top">
<path fill="#999999" stroke="#999999" d="M2904.73,-80C2904.73,-80 2795.27,-80 2795.27,-80 2791.61,-80 2787.94,-76.3333 2787.94,-72.6667 2787.94,-72.6667 2787.94,-65.3333 2787.94,-65.3333 2787.94,-61.6667 2791.61,-58 2795.27,-58 2795.27,-58 2904.73,-58 2904.73,-58 2908.39,-58 2912.06,-61.6667 2912.06,-65.3333 2912.06,-65.3333 2912.06,-72.6667 2912.06,-72.6667 2912.06,-76.3333 2908.39,-80 2904.73,-80"/>
<text text-anchor="middle" x="2850" y="-65.4" font-family="Helvetica,sans-Serif" font-size="12.00" fill="white">UnsignedIntegerType</text>
</a>
</g>
</g>
<!-- IntegerType&#45;&gt;UnsignedIntegerType -->
<g id="edge68" class="edge">
<path fill="none" stroke="#cccccc" d="M2253.77,-122.747C2355.48,-113.749 2641.98,-88.4035 2777.38,-76.4245"/>
<polygon fill="#cccccc" stroke="#cccccc" points="2778,-79.8837 2787.65,-75.516 2777.38,-72.911 2778,-79.8837"/>
</g>
<!-- RandomAccessIndexType -->
<g id="node20" class="node">
<g id="a_node20"><a xlink:href="/swift-2/protocol/RandomAccessIndexType/" target="_top">
<path fill="#999999" stroke="#999999" d="M2740.23,-196C2740.23,-196 2605.77,-196 2605.77,-196 2602.11,-196 2598.44,-192.333 2598.44,-188.667 2598.44,-188.667 2598.44,-181.333 2598.44,-181.333 2598.44,-177.667 2602.11,-174 2605.77,-174 2605.77,-174 2740.23,-174 2740.23,-174 2743.89,-174 2747.56,-177.667 2747.56,-181.333 2747.56,-181.333 2747.56,-188.667 2747.56,-188.667 2747.56,-192.333 2743.89,-196 2740.23,-196"/>
<text text-anchor="middle" x="2673" y="-181.4" font-family="Helvetica,sans-Serif" font-size="12.00" fill="white">RandomAccessIndexType</text>
</a>
</g>
</g>
<!-- RandomAccessIndexType&#45;&gt;AnyRandomAccessIndex -->
<g id="edge126" class="edge">
<path fill="none" stroke="#cccccc" d="M2747.66,-182.786C2926.57,-179.421 3375.87,-168.149 3523,-138 3644.01,-113.204 3779.43,-53.7867 3838.16,-26.3426"/>
<polygon fill="#cccccc" stroke="#cccccc" points="3839.68,-29.494 3847.24,-22.0679 3836.7,-23.1607 3839.68,-29.494"/>
</g>
<!-- RandomAccessIndexType&#45;&gt;Bit -->
<g id="edge127" class="edge">
<path fill="none" stroke="#cccccc" d="M2747.42,-183.98C2913.34,-183.216 3308.95,-177.198 3436,-138 3512.67,-114.344 3590.56,-57.4462 3626.51,-28.9134"/>
<polygon fill="#cccccc" stroke="#cccccc" points="3629.12,-31.3043 3634.71,-22.3079 3624.73,-25.8509 3629.12,-31.3043"/>
</g>
<!-- RandomAccessIndexType&#45;&gt;Int -->
<g id="edge128" class="edge">
<path fill="none" stroke="#cccccc" d="M2598.46,-182.305C2323.51,-175.957 1375.12,-153.176 1240,-138 1105.48,-122.892 1068.97,-124.135 941,-80 901.479,-66.3697 858.994,-42.9419 832.948,-27.4603"/>
<polygon fill="#cccccc" stroke="#cccccc" points="834.503,-24.3115 824.132,-22.1489 830.891,-30.3074 834.503,-24.3115"/>
</g>
<!-- RandomAccessIndexType&#45;&gt;Int16 -->
<g id="edge129" class="edge">
<path fill="none" stroke="#cccccc" d="M2598.41,-182.092C2323.87,-174.986 1382.14,-149.864 1319,-138 1254.23,-125.829 1072.32,-56.0798 995.232,-25.9064"/>
<polygon fill="#cccccc" stroke="#cccccc" points="996.09,-22.4835 985.502,-22.0904 993.534,-29.0002 996.09,-22.4835"/>
</g>
<!-- RandomAccessIndexType&#45;&gt;Int32 -->
<g id="edge130" class="edge">
<path fill="none" stroke="#cccccc" d="M2598.47,-181.238C2435.58,-174.053 2036.34,-150.179 1710,-80 1673.53,-72.157 1665.47,-65.8321 1629,-58 1539.4,-38.76 1432.59,-23.7961 1377.3,-16.6341"/>
<polygon fill="#cccccc" stroke="#cccccc" points="1377.64,-13.1484 1367.27,-15.3475 1376.75,-20.0915 1377.64,-13.1484"/>
</g>
<!-- RandomAccessIndexType&#45;&gt;Int64 -->
<g id="edge131" class="edge">
<path fill="none" stroke="#cccccc" d="M2598.61,-180.292C2500.27,-174.682 2321.81,-162.043 2171,-138 2145.05,-133.862 1776.58,-48.3926 1657.11,-20.6284"/>
<polygon fill="#cccccc" stroke="#cccccc" points="1657.84,-17.206 1647.31,-18.3513 1656.26,-24.0243 1657.84,-17.206"/>
</g>
<!-- RandomAccessIndexType&#45;&gt;Int8 -->
<g id="edge132" class="edge">
<path fill="none" stroke="#cccccc" d="M2638.83,-173.963C2560.4,-151.16 2361.17,-94.6035 2192,-58 2110.2,-40.3003 2013.17,-25.0544 1961.23,-17.3523"/>
<polygon fill="#cccccc" stroke="#cccccc" points="1961.56,-13.8633 1951.16,-15.8695 1960.54,-20.7887 1961.56,-13.8633"/>
</g>
<!-- RandomAccessIndexType&#45;&gt;IntegerType -->
<g id="edge133" class="edge">
<path fill="none" stroke="#cccccc" d="M2598.47,-174.847C2503.61,-163.198 2342.61,-143.426 2263.58,-133.72"/>
<polygon fill="#cccccc" stroke="#cccccc" points="2263.8,-130.221 2253.44,-132.475 2262.94,-137.168 2263.8,-130.221"/>
</g>
<!-- RandomAccessIndexType&#45;&gt;ReverseRandomAccessIndex -->
<g id="edge134" class="edge">
<path fill="none" stroke="#cccccc" d="M2747.56,-182.279C2934.51,-177.632 3419.58,-163.435 3579,-138 3739.81,-112.343 3924.99,-52.4053 4003.56,-25.497"/>
<polygon fill="#cccccc" stroke="#cccccc" points="4005.17,-28.6438 4013.49,-22.0784 4002.89,-22.0252 4005.17,-28.6438"/>
</g>
<!-- RandomAccessIndexType&#45;&gt;UInt -->
<g id="edge135" class="edge">
<path fill="none" stroke="#cccccc" d="M2671.39,-173.756C2667.05,-146.097 2655.03,-69.5091 2649.22,-32.5186"/>
<polygon fill="#cccccc" stroke="#cccccc" points="2652.64,-31.7443 2647.63,-22.4081 2645.73,-32.8299 2652.64,-31.7443"/>
</g>
<!-- RandomAccessIndexType&#45;&gt;UInt16 -->
<g id="edge136" class="edge">
<path fill="none" stroke="#cccccc" d="M2656.68,-173.756C2610.61,-144.837 2479.33,-62.4264 2424.04,-27.7162"/>
<polygon fill="#cccccc" stroke="#cccccc" points="2425.56,-24.543 2415.23,-22.1906 2421.84,-30.4716 2425.56,-24.543"/>
</g>
<!-- RandomAccessIndexType&#45;&gt;UInt32 -->
<g id="edge137" class="edge">
<path fill="none" stroke="#cccccc" d="M2747.42,-181.998C2873.33,-177.85 3117.35,-166.231 3144,-138 3170.8,-109.61 3162.69,-59.6318 3155.3,-31.9181"/>
<polygon fill="#cccccc" stroke="#cccccc" points="3158.62,-30.7957 3152.48,-22.1611 3151.89,-32.7398 3158.62,-30.7957"/>
</g>
<!-- RandomAccessIndexType&#45;&gt;UInt64 -->
<g id="edge138" class="edge">
<path fill="none" stroke="#cccccc" d="M2747.46,-183.106C2923.28,-180.464 3353.75,-170.698 3410,-138 3436.64,-122.512 3438.11,-109.188 3448,-80 3453.16,-64.7596 3454.25,-46.5309 3454.14,-32.7848"/>
<polygon fill="#cccccc" stroke="#cccccc" points="3457.63,-32.3448 3453.82,-22.4564 3450.63,-32.5587 3457.63,-32.3448"/>
</g>
<!-- RandomAccessIndexType&#45;&gt;UInt8 -->
<g id="edge139" class="edge">
<path fill="none" stroke="#cccccc" d="M2747.52,-183.841C2831.46,-181.917 2960.34,-173.119 2992,-138 3018.14,-109.003 3010.29,-59.2635 3003.12,-31.7505"/>
<polygon fill="#cccccc" stroke="#cccccc" points="3006.47,-30.7391 3000.38,-22.0694 2999.73,-32.6445 3006.47,-30.7391"/>
</g>
<!-- RandomAccessIndexType&#45;&gt;UnsafeMutablePointer -->
<g id="edge140" class="edge">
<path fill="none" stroke="#cccccc" d="M2747.46,-182.175C2944.26,-177.082 3475.01,-161.525 3649,-138 3843.28,-111.731 4069.71,-51.2387 4163.66,-24.7805"/>
<polygon fill="#cccccc" stroke="#cccccc" points="4164.72,-28.1168 4173.39,-22.0272 4162.82,-21.3811 4164.72,-28.1168"/>
</g>
<!-- RandomAccessIndexType&#45;&gt;UnsafePointer -->
<g id="edge141" class="edge">
<path fill="none" stroke="#cccccc" d="M2747.63,-183.484C2919.82,-181.69 3340.55,-173.675 3477,-138 3569.07,-113.927 3667.31,-55.6805 3711.31,-27.6216"/>
<polygon fill="#cccccc" stroke="#cccccc" points="3713.34,-30.4747 3719.85,-22.1155 3709.55,-24.5908 3713.34,-30.4747"/>
</g>
<!-- SignedIntegerType&#45;&gt;Int -->
<g id="edge69" class="edge">
<path fill="none" stroke="#cccccc" d="M1367.88,-62.9811C1244.6,-51.7556 949.261,-24.8628 845.119,-15.38"/>
<polygon fill="#cccccc" stroke="#cccccc" points="845.357,-11.8872 835.081,-14.4659 844.722,-18.8584 845.357,-11.8872"/>
</g>
<!-- SignedIntegerType&#45;&gt;Int16 -->
<g id="edge70" class="edge">
<path fill="none" stroke="#cccccc" d="M1367.61,-61.3007C1272.05,-49.7425 1078.64,-26.35 997.339,-16.5162"/>
<polygon fill="#cccccc" stroke="#cccccc" points="997.433,-13.0021 987.085,-15.276 996.593,-19.9515 997.433,-13.0021"/>
</g>
<!-- SignedIntegerType&#45;&gt;Int32 -->
<g id="edge71" class="edge">
<path fill="none" stroke="#cccccc" d="M1408.16,-57.9883C1395.73,-49.5993 1377.76,-37.4743 1363.39,-27.7804"/>
<polygon fill="#cccccc" stroke="#cccccc" points="1365.24,-24.8055 1354.99,-22.1138 1361.32,-30.6083 1365.24,-24.8055"/>
</g>
<!-- SignedIntegerType&#45;&gt;Int64 -->
<g id="edge72" class="edge">
<path fill="none" stroke="#cccccc" d="M1458.22,-57.9883C1493.37,-47.9952 1547.18,-32.7008 1582.96,-22.5293"/>
<polygon fill="#cccccc" stroke="#cccccc" points="1584.33,-25.7779 1592.99,-19.6769 1582.42,-19.0447 1584.33,-25.7779"/>
</g>
<!-- SignedIntegerType&#45;&gt;Int8 -->
<g id="edge73" class="edge">
<path fill="none" stroke="#cccccc" d="M1478.53,-61.7931C1581.6,-50.2725 1799.91,-25.8705 1887,-16.1361"/>
<polygon fill="#cccccc" stroke="#cccccc" points="1887.4,-19.6128 1896.95,-15.0235 1886.62,-12.6561 1887.4,-19.6128"/>
</g>
<!-- SignedNumberType&#45;&gt;AbsoluteValuable -->
<g id="edge91" class="edge">
<path fill="none" stroke="#cccccc" d="M625.896,-174.373C564.837,-164.257 469.202,-148.412 407.056,-138.116"/>
<polygon fill="#cccccc" stroke="#cccccc" points="407.438,-134.631 397,-136.45 406.294,-141.537 407.438,-134.631"/>
</g>
<!-- SignedNumberType&#45;&gt;Double -->
<g id="edge92" class="edge">
<path fill="none" stroke="#cccccc" d="M625.663,-180.406C521.751,-173.547 312.927,-157.519 286,-138 251.058,-112.671 236.614,-61.0574 231.093,-32.3724"/>
<polygon fill="#cccccc" stroke="#cccccc" points="234.499,-31.5296 229.339,-22.2764 227.603,-32.7279 234.499,-31.5296"/>
</g>
<!-- SignedNumberType&#45;&gt;Float -->
<g id="edge93" class="edge">
<path fill="none" stroke="#cccccc" d="M671.016,-173.756C634.666,-145.076 531.634,-63.7849 487.022,-28.5865"/>
<polygon fill="#cccccc" stroke="#cccccc" points="488.935,-25.637 478.916,-22.1906 484.599,-31.1325 488.935,-25.637"/>
</g>
<!-- SignedNumberType&#45;&gt;Float80 -->
<g id="edge94" class="edge">
<path fill="none" stroke="#cccccc" d="M625.847,-181.131C526.234,-175.641 327.374,-162.011 262,-138 193.438,-112.818 125.654,-57.0548 94.1978,-28.926"/>
<polygon fill="#cccccc" stroke="#cccccc" points="96.4186,-26.2151 86.6604,-22.0887 91.7155,-31.3998 96.4186,-26.2151"/>
</g>
<!-- SignedNumberType&#45;&gt;Int -->
<g id="edge95" class="edge">
<path fill="none" stroke="#cccccc" d="M679.895,-173.69C671.425,-150.569 654.821,-93.8049 680,-58 700.353,-29.0586 740.729,-18.2375 770.718,-14.2397"/>
<polygon fill="#cccccc" stroke="#cccccc" points="771.3,-17.6962 780.842,-13.0916 770.511,-10.7407 771.3,-17.6962"/>
</g>
<!-- SignedNumberType&#45;&gt;Int16 -->
<g id="edge96" class="edge">
<path fill="none" stroke="#cccccc" d="M689.992,-173.717C704.568,-149.631 744.356,-89.2428 794,-58 833.853,-32.9192 887.48,-21.289 922.861,-16.0516"/>
<polygon fill="#cccccc" stroke="#cccccc" points="923.348,-19.5177 932.775,-14.6807 922.389,-12.5837 923.348,-19.5177"/>
</g>
<!-- SignedNumberType&#45;&gt;Int32 -->
<g id="edge97" class="edge">
<path fill="none" stroke="#cccccc" d="M713.064,-173.97C780.206,-151.061 951.558,-94.0916 1098,-58 1169.8,-40.3035 1255.02,-25.5258 1302.77,-17.7981"/>
<polygon fill="#cccccc" stroke="#cccccc" points="1303.62,-21.2068 1312.94,-16.1675 1302.51,-14.2951 1303.62,-21.2068"/>
</g>
<!-- SignedNumberType&#45;&gt;Int64 -->
<g id="edge98" class="edge">
<path fill="none" stroke="#cccccc" d="M742.062,-182.475C909.893,-177.797 1387.91,-162.461 1454,-138 1486.67,-125.909 1564.11,-60.7167 1600.49,-29.1496"/>
<polygon fill="#cccccc" stroke="#cccccc" points="1603.17,-31.4604 1608.4,-22.2505 1598.57,-26.1844 1603.17,-31.4604"/>
</g>
<!-- SignedNumberType&#45;&gt;Int8 -->
<g id="edge99" class="edge">
<path fill="none" stroke="#cccccc" d="M742.143,-182.357C901.621,-177.58 1343.59,-162.466 1487,-138 1638.65,-112.129 1812.59,-52.6537 1887.05,-25.7104"/>
<polygon fill="#cccccc" stroke="#cccccc" points="1888.69,-28.8404 1896.89,-22.1313 1886.29,-22.2625 1888.69,-28.8404"/>
</g>
<!-- _SignedIntegerType -->
<g id="node41" class="node">
<g id="a_node41"><a xlink:href="/swift-2/protocol/_SignedIntegerType/" target="_top">
<path fill="#999999" stroke="#999999" d="M1438.23,-138C1438.23,-138 1335.77,-138 1335.77,-138 1332.1,-138 1328.44,-134.333 1328.44,-130.667 1328.44,-130.667 1328.44,-123.333 1328.44,-123.333 1328.44,-119.667 1332.1,-116 1335.77,-116 1335.77,-116 1438.23,-116 1438.23,-116 1441.9,-116 1445.56,-119.667 1445.56,-123.333 1445.56,-123.333 1445.56,-130.667 1445.56,-130.667 1445.56,-134.333 1441.9,-138 1438.23,-138"/>
<text text-anchor="middle" x="1387" y="-123.4" font-family="Helvetica,sans-Serif" font-size="12.00" fill="white">_SignedIntegerType</text>
</a>
</g>
</g>
<!-- SignedNumberType&#45;&gt;_SignedIntegerType -->
<g id="edge100" class="edge">
<path fill="none" stroke="#cccccc" d="M742.128,-179.37C870.982,-169.105 1180.11,-144.481 1318.26,-133.475"/>
<polygon fill="#cccccc" stroke="#cccccc" points="1318.62,-136.958 1328.31,-132.675 1318.06,-129.98 1318.62,-136.958"/>
</g>
<!-- Strideable&#45;&gt;AnyRandomAccessIndex -->
<g id="edge104" class="edge">
<path fill="none" stroke="#cccccc" d="M2602.24,-241.469C2783.63,-238.389 3670.75,-222.032 3722,-196 3793.42,-159.722 3841.2,-70.7726 3859.57,-31.3506"/>
<polygon fill="#cccccc" stroke="#cccccc" points="3862.85,-32.595 3863.78,-22.0416 3856.47,-29.7078 3862.85,-32.595"/>
</g>
<!-- Strideable&#45;&gt;Bit -->
<g id="edge105" class="edge">
<path fill="none" stroke="#cccccc" d="M2602.16,-241.901C2780.16,-241.2 3637.86,-235.764 3676,-196 3718.46,-151.739 3693.02,-116.924 3676,-58 3673.14,-48.1154 3667.46,-38.31 3661.88,-30.3078"/>
<polygon fill="#cccccc" stroke="#cccccc" points="3664.56,-28.0502 3655.78,-22.1313 3658.96,-32.2381 3664.56,-28.0502"/>
</g>
<!-- Strideable&#45;&gt;Double -->
<g id="edge106" class="edge">
<path fill="none" stroke="#cccccc" d="M2537.64,-240.48C2490.46,-238.311 2400,-234.334 2323,-232 1925.99,-219.966 930.325,-243.637 536,-196 521.361,-194.232 289.362,-146.038 277,-138 250.098,-120.506 245.394,-109.998 234,-80 228.214,-64.7661 226.912,-46.2797 226.947,-32.4294"/>
<polygon fill="#cccccc" stroke="#cccccc" points="230.456,-32.1479 227.222,-22.0588 223.458,-31.9626 230.456,-32.1479"/>
</g>
<!-- Strideable&#45;&gt;Float -->
<g id="edge107" class="edge">
<path fill="none" stroke="#cccccc" d="M2537.64,-240.49C2490.45,-238.333 2400,-234.371 2323,-232 2228.25,-229.082 702.264,-237.434 617,-196 543.83,-160.443 493.9,-70.7628 474.737,-31.2275"/>
<polygon fill="#cccccc" stroke="#cccccc" points="477.869,-29.6627 470.437,-22.1117 471.538,-32.6492 477.869,-29.6627"/>
</g>
<!-- Strideable&#45;&gt;Float80 -->
<g id="edge108" class="edge">
<path fill="none" stroke="#cccccc" d="M2537.64,-240.468C2490.46,-238.285 2400,-234.29 2323,-232 2112.39,-225.738 634.802,-230.851 427,-196 286.015,-172.355 237.512,-170.68 127,-80 110.342,-66.3319 96.0953,-46.1334 86.9281,-31.3007"/>
<polygon fill="#cccccc" stroke="#cccccc" points="89.784,-29.2556 81.6632,-22.4509 83.7681,-32.8346 89.784,-29.2556"/>
</g>
<!-- Strideable&#45;&gt;FloatingPointType -->
<g id="edge109" class="edge">
<path fill="none" stroke="#cccccc" d="M2537.64,-240.486C2490.46,-238.324 2400,-234.355 2323,-232 2129.83,-226.091 772.382,-239.162 584,-196 561.125,-190.759 558.512,-180.629 536,-174 482.158,-158.144 322.752,-180.423 286,-138 270.048,-119.587 295.203,-98.7879 317.876,-85.0957"/>
<polygon fill="#cccccc" stroke="#cccccc" points="319.745,-88.0582 326.672,-80.041 316.258,-81.9889 319.745,-88.0582"/>
</g>
<!-- Strideable&#45;&gt;Int -->
<g id="edge110" class="edge">
<path fill="none" stroke="#cccccc" d="M2537.64,-240.631C2490.44,-238.649 2399.98,-234.898 2323,-232 1863.49,-214.699 1747.1,-235.878 1289,-196 1103.46,-179.849 1035.66,-230.468 874,-138 835.035,-115.713 818.129,-61.5476 811.601,-32.0127"/>
<polygon fill="#cccccc" stroke="#cccccc" points="814.992,-31.1265 809.583,-22.017 808.131,-32.5119 814.992,-31.1265"/>
</g>
<!-- Strideable&#45;&gt;Int16 -->
<g id="edge111" class="edge">
<path fill="none" stroke="#cccccc" d="M2537.86,-240.687C2367.38,-233.708 1574.69,-201.096 1523,-196 1354.29,-179.366 1307.63,-189.14 1146,-138 1090.67,-120.492 1076.26,-113.683 1029,-80 1008.62,-65.4762 988.62,-44.863 975.444,-30.1459"/>
<polygon fill="#cccccc" stroke="#cccccc" points="977.748,-27.4643 968.523,-22.2526 972.484,-32.0792 977.748,-27.4643"/>
</g>
<!-- Strideable&#45;&gt;Int32 -->
<g id="edge112" class="edge">
<path fill="none" stroke="#cccccc" d="M2537.76,-240.544C2345.91,-231.733 1361.56,-184.353 1319,-138 1292.02,-108.612 1313.33,-58.3019 1328.38,-30.9898"/>
<polygon fill="#cccccc" stroke="#cccccc" points="1331.58,-32.4595 1333.55,-22.0493 1325.52,-28.9592 1331.58,-32.4595"/>
</g>
<!-- Strideable&#45;&gt;Int64 -->
<g id="edge113" class="edge">
<path fill="none" stroke="#cccccc" d="M2537.9,-240.261C2442.52,-234.901 2161.92,-217.673 2073,-196 1905.23,-155.11 1718.04,-63.0154 1648.24,-26.917"/>
<polygon fill="#cccccc" stroke="#cccccc" points="1649.67,-23.7161 1639.18,-22.2062 1646.44,-29.9261 1649.67,-23.7161"/>
</g>
<!-- Strideable&#45;&gt;Int8 -->
<g id="edge114" class="edge">
<path fill="none" stroke="#cccccc" d="M2537.89,-241.458C2447.13,-239.504 2190.47,-230.953 2115,-196 2032.61,-157.842 1963.82,-69.2959 1936.56,-30.6278"/>
<polygon fill="#cccccc" stroke="#cccccc" points="1939.4,-28.5684 1930.82,-22.3413 1933.64,-32.5546 1939.4,-28.5684"/>
</g>
<!-- Strideable&#45;&gt;RandomAccessIndexType -->
<g id="edge115" class="edge">
<path fill="none" stroke="#cccccc" d="M2588.41,-231.988C2604.28,-223.362 2627.41,-210.785 2645.48,-200.963"/>
<polygon fill="#cccccc" stroke="#cccccc" points="2647.28,-203.965 2654.4,-196.114 2643.94,-197.816 2647.28,-203.965"/>
</g>
<!-- Strideable&#45;&gt;ReverseRandomAccessIndex -->
<g id="edge116" class="edge">
<path fill="none" stroke="#cccccc" d="M2602.08,-241.752C2779.88,-240.242 3640.5,-231.158 3753,-196 3867.14,-160.33 3980.24,-67.2058 4023.54,-28.8668"/>
<polygon fill="#cccccc" stroke="#cccccc" points="4025.91,-31.4446 4031.03,-22.1668 4021.24,-26.2292 4025.91,-31.4446"/>
</g>
<!-- Strideable&#45;&gt;UInt -->
<g id="edge117" class="edge">
<path fill="none" stroke="#cccccc" d="M2572.63,-231.8C2576.11,-218.446 2582.59,-194.342 2589,-174 2605.36,-122.11 2627.36,-61.8808 2638.65,-31.5682"/>
<polygon fill="#cccccc" stroke="#cccccc" points="2641.94,-32.7491 2642.16,-22.1566 2635.38,-30.2978 2641.94,-32.7491"/>
</g>
<!-- Strideable&#45;&gt;UInt16 -->
<g id="edge118" class="edge">
<path fill="none" stroke="#cccccc" d="M2562.43,-231.82C2535.89,-196.122 2446.8,-76.2938 2412.56,-30.2419"/>
<polygon fill="#cccccc" stroke="#cccccc" points="2415.26,-27.9988 2406.48,-22.062 2409.64,-32.1754 2415.26,-27.9988"/>
</g>
<!-- Strideable&#45;&gt;UInt32 -->
<g id="edge119" class="edge">
<path fill="none" stroke="#cccccc" d="M2602.19,-241.613C2761.02,-239.55 3454.92,-228.685 3486,-196 3530.6,-149.102 3584.46,-172.958 3410,-58 3373.86,-34.1882 3249.9,-20.5327 3186.7,-14.9651"/>
<polygon fill="#cccccc" stroke="#cccccc" points="3186.63,-11.4465 3176.37,-14.0796 3186.03,-18.421 3186.63,-11.4465"/>
</g>
<!-- Strideable&#45;&gt;UInt64 -->
<g id="edge120" class="edge">
<path fill="none" stroke="#cccccc" d="M2602.23,-241.561C2763.71,-239.217 3478.43,-227.113 3513,-196 3562.02,-151.886 3500.61,-67.2631 3469.28,-30.1736"/>
<polygon fill="#cccccc" stroke="#cccccc" points="3471.59,-27.4901 3462.4,-22.2152 3466.29,-32.0687 3471.59,-27.4901"/>
</g>
<!-- Strideable&#45;&gt;UInt8 -->
<g id="edge121" class="edge">
<path fill="none" stroke="#cccccc" d="M2602.43,-242.228C2728.03,-242.776 3177.58,-241.523 3220,-196 3261.81,-151.126 3258.74,-105.549 3220,-58 3197.02,-29.7989 3091.82,-18.3715 3034.5,-14.1756"/>
<polygon fill="#cccccc" stroke="#cccccc" points="3034.61,-10.6744 3024.39,-13.4738 3034.12,-17.6576 3034.61,-10.6744"/>
</g>
<!-- Strideable&#45;&gt;UnsafeMutablePointer -->
<g id="edge122" class="edge">
<path fill="none" stroke="#cccccc" d="M2602.22,-241.519C2783.75,-238.709 3675.02,-223.595 3794,-196 3949.96,-159.829 4119.64,-64.8508 4182.63,-27.4509"/>
<polygon fill="#cccccc" stroke="#cccccc" points="4184.68,-30.2998 4191.47,-22.1621 4181.09,-24.2929 4184.68,-30.2998"/>
</g>
<!-- Strideable&#45;&gt;UnsafePointer -->
<g id="edge123" class="edge">
<path fill="none" stroke="#cccccc" d="M2602.08,-241.784C2781.56,-240.438 3654.81,-232.049 3698,-196 3746.5,-155.522 3742.76,-70.8318 3738.09,-32.104"/>
<polygon fill="#cccccc" stroke="#cccccc" points="3741.54,-31.5047 3736.73,-22.0657 3734.6,-32.4453 3741.54,-31.5047"/>
</g>
<!-- UnsignedIntegerType&#45;&gt;UInt -->
<g id="edge74" class="edge">
<path fill="none" stroke="#cccccc" d="M2813.53,-57.9883C2776.65,-47.866 2719.97,-32.3046 2682.93,-22.1375"/>
<polygon fill="#cccccc" stroke="#cccccc" points="2683.61,-18.694 2673.04,-19.4219 2681.75,-25.4443 2683.61,-18.694"/>
</g>
<!-- UnsignedIntegerType&#45;&gt;UInt16 -->
<g id="edge75" class="edge">
<path fill="none" stroke="#cccccc" d="M2787.76,-60.2722C2692.56,-48.4514 2513.69,-26.2408 2436.28,-16.6287"/>
<polygon fill="#cccccc" stroke="#cccccc" points="2436.4,-13.1173 2426.05,-15.3584 2435.54,-20.064 2436.4,-13.1173"/>
</g>
<!-- UnsignedIntegerType&#45;&gt;UInt32 -->
<g id="edge76" class="edge">
<path fill="none" stroke="#cccccc" d="M2903.46,-57.9883C2963.61,-46.7217 3059.75,-28.7165 3112.1,-18.9117"/>
<polygon fill="#cccccc" stroke="#cccccc" points="3112.77,-22.3457 3121.96,-17.0645 3111.49,-15.4653 3112.77,-22.3457"/>
</g>
<!-- UnsignedIntegerType&#45;&gt;UInt64 -->
<g id="edge77" class="edge">
<path fill="none" stroke="#cccccc" d="M2912.26,-62.2179C3037.23,-50.6123 3315.24,-24.7935 3415.8,-15.4552"/>
<polygon fill="#cccccc" stroke="#cccccc" points="3416.16,-18.9368 3425.79,-14.527 3415.51,-11.9668 3416.16,-18.9368"/>
</g>
<!-- UnsignedIntegerType&#45;&gt;UInt8 -->
<g id="edge78" class="edge">
<path fill="none" stroke="#cccccc" d="M2876.28,-57.9883C2899.86,-49.0057 2934.68,-35.7398 2960.88,-25.7614"/>
<polygon fill="#cccccc" stroke="#cccccc" points="2962.35,-28.9445 2970.45,-22.1138 2959.86,-22.4031 2962.35,-28.9445"/>
</g>
<!-- _DisallowMixedSignArithmetic -->
<g id="node39" class="node">
<g id="a_node39"><a xlink:href="/swift-2/protocol/_DisallowMixedSignArithmetic/" target="_top">
<path fill="#999999" stroke="#999999" d="M2927.71,-138C2927.71,-138 2772.29,-138 2772.29,-138 2768.62,-138 2764.96,-134.333 2764.96,-130.667 2764.96,-130.667 2764.96,-123.333 2764.96,-123.333 2764.96,-119.667 2768.62,-116 2772.29,-116 2772.29,-116 2927.71,-116 2927.71,-116 2931.38,-116 2935.04,-119.667 2935.04,-123.333 2935.04,-123.333 2935.04,-130.667 2935.04,-130.667 2935.04,-134.333 2931.38,-138 2927.71,-138"/>
<text text-anchor="middle" x="2850" y="-123.4" font-family="Helvetica,sans-Serif" font-size="12.00" fill="white">_DisallowMixedSignArithmetic</text>
</a>
</g>
</g>
<!-- _DisallowMixedSignArithmetic&#45;&gt;UInt -->
<g id="edge79" class="edge">
<path fill="none" stroke="#cccccc" d="M2833.96,-115.979C2812.07,-102.409 2771.49,-77.6289 2736,-58 2716.18,-47.0371 2693.46,-35.4334 2675.81,-26.6229"/>
<polygon fill="#cccccc" stroke="#cccccc" points="2677.09,-23.3502 2666.57,-22.0374 2673.97,-29.6198 2677.09,-23.3502"/>
</g>
<!-- _DisallowMixedSignArithmetic&#45;&gt;UInt16 -->
<g id="edge80" class="edge">
<path fill="none" stroke="#cccccc" d="M2810.37,-115.983C2724.02,-94.1555 2519.91,-42.5614 2436,-21.3527"/>
<polygon fill="#cccccc" stroke="#cccccc" points="2436.7,-17.9192 2426.15,-18.8618 2434.98,-24.7058 2436.7,-17.9192"/>
</g>
<!-- _DisallowMixedSignArithmetic&#45;&gt;UInt32 -->
<g id="edge81" class="edge">
<path fill="none" stroke="#cccccc" d="M2935.18,-117.852C2976.81,-111.461 3026.7,-100.11 3068,-80 3093.58,-67.5413 3117.88,-45.2445 3133.07,-29.5881"/>
<polygon fill="#cccccc" stroke="#cccccc" points="3135.82,-31.7688 3140.14,-22.0934 3130.73,-26.9648 3135.82,-31.7688"/>
</g>
<!-- _DisallowMixedSignArithmetic&#45;&gt;UInt64 -->
<g id="edge82" class="edge">
<path fill="none" stroke="#cccccc" d="M2935.48,-122.214C3054.05,-116.221 3261.99,-102.826 3334,-80 3370.64,-68.3847 3408.43,-44.3484 3431.32,-28.194"/>
<polygon fill="#cccccc" stroke="#cccccc" points="3433.54,-30.908 3439.62,-22.225 3429.45,-25.2268 3433.54,-30.908"/>
</g>
<!-- _DisallowMixedSignArithmetic&#45;&gt;UInt8 -->
<g id="edge83" class="edge">
<path fill="none" stroke="#cccccc" d="M2867.14,-115.928C2881.84,-107.049 2903.38,-93.464 2921,-80 2941.89,-64.0385 2964.12,-43.7135 2979.1,-29.4582"/>
<polygon fill="#cccccc" stroke="#cccccc" points="2981.84,-31.6813 2986.63,-22.2293 2976.99,-26.6334 2981.84,-31.6813"/>
</g>
<!-- _DisallowMixedSignArithmetic&#45;&gt;UnsignedIntegerType -->
<g id="edge84" class="edge">
<path fill="none" stroke="#cccccc" d="M2850,-115.988C2850,-108.91 2850,-99.1714 2850,-90.4779"/>
<polygon fill="#cccccc" stroke="#cccccc" points="2853.5,-90.3038 2850,-80.3039 2846.5,-90.3039 2853.5,-90.3038"/>
</g>
<!-- _IntegerType&#45;&gt;Int -->
<g id="edge44" class="edge">
<path fill="none" stroke="#cccccc" d="M2123.86,-183.472C1915.37,-180.612 963.463,-166.053 908,-138 862.524,-114.998 831.068,-60.7653 816.753,-31.5139"/>
<polygon fill="#cccccc" stroke="#cccccc" points="819.84,-29.8537 812.409,-22.3014 813.508,-32.8391 819.84,-29.8537"/>
</g>
<!-- _IntegerType&#45;&gt;Int16 -->
<g id="edge45" class="edge">
<path fill="none" stroke="#cccccc" d="M2123.8,-184.258C1965.91,-184.935 1388.29,-184.135 1212,-138 1121.85,-114.406 1026.31,-56.1433 983.331,-27.8822"/>
<polygon fill="#cccccc" stroke="#cccccc" points="985.008,-24.7942 974.743,-22.1713 981.132,-30.6231 985.008,-24.7942"/>
</g>
<!-- _IntegerType&#45;&gt;Int32 -->
<g id="edge46" class="edge">
<path fill="none" stroke="#cccccc" d="M2123.98,-175.646C1983.41,-146.305 1513.46,-48.2067 1377.28,-19.7809"/>
<polygon fill="#cccccc" stroke="#cccccc" points="1377.83,-16.3208 1367.32,-17.7035 1376.4,-23.1731 1377.83,-16.3208"/>
</g>
<!-- _IntegerType&#45;&gt;Int64 -->
<g id="edge47" class="edge">
<path fill="none" stroke="#cccccc" d="M2132,-173.883C2037.1,-143.877 1757.55,-55.4889 1656.76,-23.6213"/>
<polygon fill="#cccccc" stroke="#cccccc" points="1657.61,-20.2202 1647.02,-20.5426 1655.5,-26.8945 1657.61,-20.2202"/>
</g>
<!-- _IntegerType&#45;&gt;Int8 -->
<g id="edge48" class="edge">
<path fill="none" stroke="#cccccc" d="M2153.74,-173.947C2130.35,-151.351 2070.69,-95.5935 2014,-58 1995.86,-45.9712 1974.17,-34.8003 1956.63,-26.4796"/>
<polygon fill="#cccccc" stroke="#cccccc" points="1957.91,-23.2117 1947.36,-22.1629 1954.95,-29.5574 1957.91,-23.2117"/>
</g>
<!-- _IntegerType&#45;&gt;IntegerType -->
<g id="edge49" class="edge">
<path fill="none" stroke="#cccccc" d="M2173.48,-173.988C2180.92,-166.123 2191.47,-154.974 2200.32,-145.624"/>
<polygon fill="#cccccc" stroke="#cccccc" points="2202.92,-147.973 2207.25,-138.304 2197.83,-143.161 2202.92,-147.973"/>
</g>
<!-- _IntegerType&#45;&gt;UInt -->
<g id="edge50" class="edge">
<path fill="none" stroke="#cccccc" d="M2186.68,-173.962C2238.15,-151.399 2368.06,-95.7031 2480,-58 2523.79,-43.2509 2575.19,-29.5482 2609.07,-21.0019"/>
<polygon fill="#cccccc" stroke="#cccccc" points="2610.14,-24.3421 2618.99,-18.5197 2608.44,-17.5514 2610.14,-24.3421"/>
</g>
<!-- _IntegerType&#45;&gt;UInt16 -->
<g id="edge51" class="edge">
<path fill="none" stroke="#cccccc" d="M2162.93,-173.721C2161.94,-159.858 2161.79,-134.748 2171,-116 2187.49,-82.4223 2199.43,-76.4091 2232,-58 2272.93,-34.8657 2326.14,-22.8322 2361.38,-16.9687"/>
<polygon fill="#cccccc" stroke="#cccccc" points="2362.37,-20.3558 2371.7,-15.3416 2361.28,-13.4411 2362.37,-20.3558"/>
</g>
<!-- _IntegerType&#45;&gt;UInt32 -->
<g id="edge52" class="edge">
<path fill="none" stroke="#cccccc" d="M2204.08,-183.619C2345.62,-181.979 2821.41,-173.862 2969,-138 3030.48,-123.062 3049.73,-119.694 3099,-80 3115.85,-66.4251 3129.89,-45.8876 3138.77,-30.9354"/>
<polygon fill="#cccccc" stroke="#cccccc" points="3141.92,-32.4677 3143.83,-22.0456 3135.84,-29.0049 3141.92,-32.4677"/>
</g>
<!-- _IntegerType&#45;&gt;UInt64 -->
<g id="edge53" class="edge">
<path fill="none" stroke="#cccccc" d="M2204.28,-183.406C2327.13,-181.258 2707.72,-172.114 3021,-138 3178.62,-120.836 3229.14,-146.658 3373,-80 3398.77,-68.0576 3422.81,-45.4568 3437.68,-29.5992"/>
<polygon fill="#cccccc" stroke="#cccccc" points="3440.44,-31.7667 3444.58,-22.0136 3435.26,-27.0571 3440.44,-31.7667"/>
</g>
<!-- _IntegerType&#45;&gt;UInt8 -->
<g id="edge54" class="edge">
<path fill="none" stroke="#cccccc" d="M2204.13,-182.805C2359.39,-178.032 2913.55,-159.546 2944,-138 2978.89,-113.315 2990.92,-61.0038 2994.99,-32.1528"/>
<polygon fill="#cccccc" stroke="#cccccc" points="2998.49,-32.3728 2996.22,-22.0231 2991.54,-31.5267 2998.49,-32.3728"/>
</g>
<!-- _IntegerType&#45;&gt;_DisallowMixedSignArithmetic -->
<g id="edge55" class="edge">
<path fill="none" stroke="#cccccc" d="M2204.1,-180.727C2310.48,-172.042 2602.14,-148.233 2754.49,-135.797"/>
<polygon fill="#cccccc" stroke="#cccccc" points="2755.08,-139.26 2764.76,-134.958 2754.51,-132.283 2755.08,-139.26"/>
</g>
<!-- _IntegerType&#45;&gt;_SignedIntegerType -->
<g id="edge56" class="edge">
<path fill="none" stroke="#cccccc" d="M2123.86,-181.107C1998.5,-172.072 1613.27,-144.308 1455.48,-132.935"/>
<polygon fill="#cccccc" stroke="#cccccc" points="1455.65,-129.438 1445.42,-132.21 1455.14,-136.42 1455.65,-129.438"/>
</g>
<!-- _SignedIntegerType&#45;&gt;Int -->
<g id="edge85" class="edge">
<path fill="none" stroke="#cccccc" d="M1328.6,-121.939C1256.06,-116.142 1128.82,-103.497 1022,-80 958.026,-65.928 885.838,-41.0333 843.78,-25.5857"/>
<polygon fill="#cccccc" stroke="#cccccc" points="844.859,-22.2529 834.266,-22.063 842.428,-28.8174 844.859,-22.2529"/>
</g>
<!-- _SignedIntegerType&#45;&gt;Int16 -->
<g id="edge86" class="edge">
<path fill="none" stroke="#cccccc" d="M1363.46,-115.924C1328.71,-101.374 1261.36,-74.4315 1202,-58 1130.58,-38.2304 1044.97,-24.1481 997.098,-17.1118"/>
<polygon fill="#cccccc" stroke="#cccccc" points="997.589,-13.6466 987.191,-15.6773 996.586,-20.5743 997.589,-13.6466"/>
</g>
<!-- _SignedIntegerType&#45;&gt;Int32 -->
<g id="edge87" class="edge">
<path fill="none" stroke="#cccccc" d="M1379.69,-115.847C1373.47,-106.808 1364.66,-93.0352 1359,-80 1352.3,-64.5628 1347.32,-46.1249 1344.14,-32.3452"/>
<polygon fill="#cccccc" stroke="#cccccc" points="1347.53,-31.4645 1341.98,-22.4391 1340.69,-32.9551 1347.53,-31.4645"/>
</g>
<!-- _SignedIntegerType&#45;&gt;Int64 -->
<g id="edge88" class="edge">
<path fill="none" stroke="#cccccc" d="M1409.76,-115.855C1430.12,-106.707 1460.7,-92.7708 1487,-80 1506.31,-70.6234 1510.89,-67.7739 1530,-58 1550.43,-47.5515 1573.48,-35.7733 1591.13,-26.7509"/>
<polygon fill="#cccccc" stroke="#cccccc" points="1593.02,-29.7151 1600.34,-22.048 1589.84,-23.4818 1593.02,-29.7151"/>
</g>
<!-- _SignedIntegerType&#45;&gt;Int8 -->
<g id="edge89" class="edge">
<path fill="none" stroke="#cccccc" d="M1434.18,-115.983C1539.4,-93.6478 1791.42,-40.1449 1886.68,-19.9226"/>
<polygon fill="#cccccc" stroke="#cccccc" points="1887.66,-23.2925 1896.72,-17.7921 1886.21,-16.4451 1887.66,-23.2925"/>
</g>
<!-- _SignedIntegerType&#45;&gt;SignedIntegerType -->
<g id="edge90" class="edge">
<path fill="none" stroke="#cccccc" d="M1393.44,-115.988C1398.29,-108.438 1405.09,-97.8611 1410.94,-88.7543"/>
<polygon fill="#cccccc" stroke="#cccccc" points="1413.91,-90.6083 1416.38,-80.3039 1408.02,-86.823 1413.91,-90.6083"/>
</g>
</g>
</svg>
