<?xml version="1.0" encoding="UTF-8" standalone="no"?>
<!DOCTYPE svg PUBLIC "-//W3C//DTD SVG 1.1//EN"
 "http://www.w3.org/Graphics/SVG/1.1/DTD/svg11.dtd">
<!-- Generated by graphviz version 2.36.0 (20140111.2315)
 -->
<!-- Title: Equatable &#45; Type Hierarchy &#45; SwiftDoc.org Pages: 1 -->
<svg width="4220pt" height="601pt"
 viewBox="0.00 0.00 4220.40 601.20" xmlns="http://www.w3.org/2000/svg" xmlns:xlink="http://www.w3.org/1999/xlink">
<g id="graph0" class="graph" transform="scale(1 1) rotate(0) translate(7.2 543.6)">
<g transform="translate(0 -543.6)">
<g>
    <path fill="#666666" d="M13.846,10.832c-0.336-0.464-0.792-0.844-1.368-1.14s-1.224-0.444-1.944-0.444
        c-0.384,0-0.772,0.052-1.164,0.156C8.977,9.509,8.622,9.677,8.301,9.908c-0.32,0.232-0.58,0.52-0.78,0.864
        c-0.2,0.344-0.3,0.756-0.3,1.236c0,0.464,0.092,0.852,0.276,1.164c0.184,0.312,0.432,0.576,0.744,0.792s0.68,0.4,1.104,0.552
        c0.423,0.152,0.876,0.309,1.356,0.468c0.576,0.177,1.16,0.376,1.752,0.601c0.592,0.224,1.128,0.52,1.608,0.888
        s0.872,0.828,1.176,1.38s0.456,1.252,0.456,2.101c0,0.88-0.164,1.644-0.492,2.292c-0.328,0.647-0.765,1.184-1.308,1.607
        c-0.544,0.424-1.172,0.74-1.884,0.948s-1.444,0.312-2.196,0.312c-1.072,0-2.108-0.208-3.108-0.624
        c-1-0.415-1.828-1.031-2.484-1.848l1.848-1.56c0.4,0.592,0.936,1.071,1.608,1.439c0.672,0.368,1.399,0.552,2.184,0.552
        c0.4,0,0.8-0.056,1.2-0.168c0.4-0.111,0.764-0.288,1.092-0.527c0.328-0.24,0.596-0.54,0.804-0.9
        c0.208-0.36,0.312-0.796,0.312-1.308s-0.108-0.94-0.324-1.284c-0.216-0.344-0.508-0.636-0.876-0.876s-0.796-0.444-1.284-0.612
        c-0.488-0.168-1.004-0.34-1.548-0.516c-0.544-0.16-1.08-0.356-1.608-0.588c-0.528-0.232-1-0.528-1.416-0.889
        c-0.416-0.359-0.752-0.804-1.008-1.332c-0.256-0.527-0.384-1.184-0.384-1.968c0-0.848,0.172-1.576,0.516-2.184
        c0.344-0.608,0.792-1.112,1.344-1.512c0.552-0.4,1.176-0.692,1.872-0.876c0.696-0.184,1.396-0.276,2.1-0.276
        c0.992,0,1.92,0.176,2.784,0.528c0.864,0.352,1.56,0.824,2.088,1.416L13.846,10.832z"/>
    <path fill="#666666" d="M18.813,13.304l2.568,8.688h0.048l2.712-8.688h2.376l2.76,8.688h0.048l2.568-8.688h2.376L30.501,24.68
        h-2.352l-2.808-8.544h-0.048l-2.784,8.544h-2.352l-3.792-11.376H18.813z"/>
    <path fill="#666666" d="M38.685,9.2c0,0.416-0.147,0.76-0.44,1.032c-0.294,0.272-0.647,0.408-1.06,0.408s-0.762-0.14-1.047-0.42
        c-0.286-0.28-0.429-0.62-0.429-1.02c0-0.416,0.143-0.764,0.429-1.044c0.286-0.28,0.635-0.42,1.047-0.42s0.766,0.14,1.06,0.42
        C38.538,8.437,38.685,8.784,38.685,9.2z M38.325,24.68h-2.256V13.304h2.256V24.68z"/>
    <path fill="#666666" d="M47.613,15.152h-2.64v9.528h-2.256v-9.528h-2.256v-1.848h2.256v-2.376c0-0.672,0.076-1.292,0.228-1.86
        c0.152-0.568,0.4-1.06,0.744-1.476c0.344-0.416,0.784-0.744,1.32-0.984c0.536-0.24,1.188-0.36,1.956-0.36
        c0.544,0,1.016,0.056,1.416,0.168l-0.264,1.944c-0.176-0.048-0.352-0.088-0.528-0.12c-0.176-0.032-0.376-0.048-0.6-0.048
        c-0.432,0-0.78,0.076-1.044,0.228c-0.264,0.152-0.468,0.356-0.612,0.612s-0.24,0.548-0.288,0.876
        c-0.048,0.328-0.072,0.668-0.072,1.02v2.376h2.64V15.152z"/>
    <path fill="#666666" d="M54.909,15.152h-3.024v5.91c0,0.687,0.128,1.177,0.384,1.472c0.256,0.295,0.664,0.442,1.224,0.442
        c0.208,0,0.432-0.021,0.672-0.065c0.24-0.044,0.456-0.11,0.648-0.198l0.072,1.848c-0.272,0.096-0.572,0.172-0.9,0.229
        c-0.328,0.056-0.668,0.084-1.02,0.084c-1.072,0-1.892-0.296-2.46-0.889c-0.568-0.592-0.852-1.479-0.852-2.664v-6.168h-2.184
        v-1.848h2.184V10.04h2.232v3.264h3.024V15.152z"/>
    <path fill="#666666" d="M57.356,7.688h5.832c1.088,0,2.176,0.16,3.264,0.48c1.088,0.32,2.072,0.824,2.952,1.512
        s1.592,1.568,2.136,2.64c0.544,1.072,0.816,2.36,0.816,3.864c0,1.456-0.272,2.716-0.816,3.78s-1.256,1.943-2.136,2.64
        s-1.864,1.216-2.952,1.561c-1.088,0.344-2.176,0.516-3.264,0.516h-5.832V7.688z M59.732,22.593h2.976
        c1.024,0,1.972-0.145,2.844-0.432c0.872-0.288,1.624-0.704,2.256-1.248c0.632-0.544,1.124-1.216,1.476-2.017
        c0.352-0.8,0.528-1.704,0.528-2.712c0-1.056-0.176-1.983-0.528-2.784c-0.353-0.8-0.844-1.468-1.476-2.004
        c-0.632-0.536-1.384-0.944-2.256-1.224s-1.82-0.42-2.844-0.42h-2.976V22.593z"/>
    <path fill="#666666" d="M86.06,18.969c0,0.88-0.156,1.688-0.468,2.424c-0.312,0.736-0.744,1.372-1.296,1.908
        c-0.552,0.536-1.204,0.952-1.956,1.248c-0.752,0.296-1.56,0.443-2.424,0.443c-0.864,0-1.672-0.147-2.424-0.443
        c-0.752-0.296-1.4-0.712-1.944-1.248c-0.544-0.536-0.972-1.172-1.284-1.908c-0.312-0.735-0.468-1.544-0.468-2.424
        s0.156-1.684,0.468-2.412c0.312-0.728,0.74-1.356,1.284-1.884c0.543-0.528,1.191-0.939,1.944-1.236
        c0.752-0.296,1.56-0.444,2.424-0.444c0.864,0,1.672,0.148,2.424,0.444c0.752,0.297,1.404,0.708,1.956,1.236
        c0.552,0.527,0.984,1.156,1.296,1.884C85.904,17.285,86.06,18.089,86.06,18.969z M83.708,18.98c0-0.542-0.084-1.061-0.252-1.556
        c-0.169-0.494-0.414-0.929-0.734-1.304s-0.718-0.674-1.192-0.897s-1.015-0.335-1.625-0.335c-0.61,0-1.152,0.111-1.625,0.335
        c-0.474,0.224-0.871,0.522-1.191,0.897c-0.321,0.375-0.566,0.81-0.734,1.304C76.184,17.92,76.1,18.438,76.1,18.98
        c0,0.543,0.084,1.062,0.253,1.556c0.168,0.495,0.413,0.934,0.734,1.316c0.321,0.383,0.718,0.686,1.191,0.909
        c0.473,0.224,1.015,0.335,1.625,0.335c0.61,0,1.151-0.111,1.625-0.335s0.871-0.526,1.192-0.909s0.565-0.821,0.734-1.316
        C83.624,20.042,83.708,19.523,83.708,18.98z"/>
    <path fill="#666666" d="M96.428,16.184c-0.24-0.368-0.6-0.676-1.08-0.924s-0.992-0.372-1.536-0.372
        c-0.592,0-1.116,0.112-1.572,0.336c-0.456,0.225-0.844,0.524-1.164,0.9c-0.32,0.376-0.564,0.812-0.732,1.308
        s-0.252,1.017-0.252,1.56c0,0.545,0.084,1.064,0.252,1.561s0.412,0.933,0.732,1.308c0.32,0.376,0.712,0.677,1.176,0.9
        c0.464,0.225,0.992,0.336,1.584,0.336c0.576,0,1.1-0.111,1.572-0.336c0.472-0.224,0.86-0.528,1.164-0.912l1.512,1.368
        c-0.48,0.561-1.08,0.996-1.8,1.308c-0.72,0.312-1.536,0.468-2.448,0.468c-0.88,0-1.692-0.144-2.436-0.432
        c-0.744-0.288-1.388-0.691-1.932-1.212c-0.544-0.52-0.972-1.147-1.284-1.884s-0.468-1.561-0.468-2.473
        c0-0.896,0.152-1.711,0.456-2.447c0.304-0.736,0.728-1.368,1.272-1.896c0.543-0.527,1.188-0.936,1.932-1.224
        c0.744-0.288,1.548-0.433,2.412-0.433c0.8,0,1.596,0.16,2.388,0.48s1.419,0.784,1.884,1.392L96.428,16.184z"/>
    <path fill="#666666" d="M103.1,23.24c0,0.417-0.152,0.784-0.456,1.104c-0.304,0.32-0.688,0.479-1.152,0.479
        c-0.448,0-0.828-0.155-1.14-0.468c-0.312-0.312-0.468-0.676-0.468-1.092c0-0.432,0.152-0.804,0.456-1.116
        c0.304-0.312,0.688-0.468,1.152-0.468c0.464,0,0.848,0.152,1.152,0.456C102.947,22.44,103.1,22.808,103.1,23.24z"/>
    <path fill="#666666" d="M116.635,18.969c0,0.88-0.156,1.688-0.468,2.424c-0.312,0.736-0.744,1.372-1.296,1.908
        c-0.552,0.536-1.204,0.952-1.956,1.248c-0.752,0.296-1.56,0.443-2.424,0.443c-0.864,0-1.672-0.147-2.424-0.443
        c-0.752-0.296-1.4-0.712-1.944-1.248c-0.544-0.536-0.972-1.172-1.284-1.908c-0.312-0.735-0.468-1.544-0.468-2.424
        s0.156-1.684,0.468-2.412c0.312-0.728,0.74-1.356,1.284-1.884c0.543-0.528,1.191-0.939,1.944-1.236
        c0.752-0.296,1.56-0.444,2.424-0.444c0.864,0,1.672,0.148,2.424,0.444c0.752,0.297,1.404,0.708,1.956,1.236
        c0.552,0.527,0.984,1.156,1.296,1.884C116.479,17.285,116.635,18.089,116.635,18.969z M114.283,18.98
        c0-0.542-0.084-1.061-0.252-1.556c-0.169-0.494-0.414-0.929-0.734-1.304s-0.718-0.674-1.192-0.897s-1.015-0.335-1.625-0.335
        c-0.61,0-1.152,0.111-1.625,0.335c-0.474,0.224-0.871,0.522-1.191,0.897c-0.321,0.375-0.566,0.81-0.734,1.304
        c-0.169,0.495-0.253,1.014-0.253,1.556c0,0.543,0.084,1.062,0.253,1.556c0.168,0.495,0.413,0.934,0.734,1.316
        c0.321,0.383,0.718,0.686,1.191,0.909c0.473,0.224,1.015,0.335,1.625,0.335c0.61,0,1.151-0.111,1.625-0.335
        s0.871-0.526,1.192-0.909s0.565-0.821,0.734-1.316C114.199,20.042,114.283,19.523,114.283,18.98z"/>
    <path fill="#666666" d="M119.251,14.577c-0.016-0.48-0.04-0.904-0.072-1.272h2.136c0.032,0.288,0.056,0.62,0.072,0.996
        c0.016,0.376,0.024,0.684,0.024,0.924h0.072c0.32-0.672,0.788-1.212,1.404-1.62c0.616-0.408,1.308-0.612,2.076-0.612
        c0.352,0,0.648,0.033,0.888,0.097l-0.096,2.088c-0.32-0.08-0.664-0.12-1.032-0.12c-0.544,0-1.016,0.101-1.416,0.3
        c-0.4,0.2-0.732,0.468-0.996,0.805c-0.264,0.336-0.46,0.724-0.588,1.163c-0.128,0.44-0.192,0.9-0.192,1.381v5.976h-2.256v-8.928
        C119.275,15.449,119.267,15.056,119.251,14.577z"/>
    <path fill="#666666" d="M128.419,26.625c0.496,0.56,1.116,1.008,1.86,1.344c0.744,0.336,1.508,0.504,2.292,0.504
        c0.752,0,1.384-0.108,1.896-0.324s0.924-0.512,1.236-0.888s0.536-0.82,0.672-1.332c0.136-0.513,0.204-1.064,0.204-1.656v-1.464
        h-0.048c-0.416,0.641-0.984,1.128-1.704,1.464c-0.72,0.336-1.488,0.504-2.304,0.504c-0.864,0-1.652-0.151-2.364-0.456
        c-0.712-0.304-1.316-0.72-1.812-1.248c-0.496-0.527-0.88-1.147-1.152-1.859s-0.408-1.477-0.408-2.292
        c0-0.816,0.136-1.584,0.408-2.305c0.272-0.72,0.656-1.348,1.152-1.884c0.496-0.535,1.096-0.96,1.8-1.271
        c0.704-0.312,1.488-0.469,2.352-0.469c0.816,0,1.596,0.177,2.34,0.528c0.744,0.353,1.332,0.888,1.764,1.608h0.048v-1.824h2.184
        v10.8c0,0.832-0.104,1.628-0.312,2.388c-0.208,0.76-0.56,1.433-1.056,2.017s-1.144,1.052-1.944,1.404
        c-0.8,0.352-1.792,0.527-2.976,0.527c-0.992,0-1.988-0.18-2.988-0.54c-1-0.359-1.86-0.868-2.58-1.523L128.419,26.625z
         M129.091,18.873c0,0.527,0.084,1.031,0.253,1.512c0.168,0.479,0.417,0.904,0.746,1.271c0.329,0.369,0.726,0.664,1.192,0.889
        c0.465,0.224,0.995,0.336,1.589,0.336c0.577,0,1.107-0.104,1.589-0.312c0.481-0.207,0.891-0.491,1.228-0.852
        s0.598-0.784,0.782-1.272c0.185-0.487,0.277-1.012,0.277-1.571c0-0.544-0.093-1.057-0.277-1.536
        c-0.185-0.48-0.449-0.904-0.794-1.272c-0.345-0.367-0.755-0.66-1.228-0.876c-0.474-0.216-1-0.324-1.577-0.324
        c-0.594,0-1.124,0.108-1.589,0.324c-0.466,0.216-0.863,0.504-1.192,0.864s-0.578,0.784-0.746,1.271
        C129.175,17.812,129.091,18.329,129.091,18.873z"/>
</g>
<g><a xlink:href="/" pointer-events="all" target="_top"><polygon fill="none" points="0,0 145,0 145,35 0,35 0,0"/></a></g>

</g>


<!-- AbsoluteValuable -->
<g id="node1" class="node">
<g id="a_node1"><a xlink:href="/v1.2/protocol/AbsoluteValuable/hierarchy/" target="_top">
<path fill="#999999" stroke="#999999" d="M1001.56,-138C1001.56,-138 914.442,-138 914.442,-138 910.775,-138 907.109,-134.333 907.109,-130.667 907.109,-130.667 907.109,-123.333 907.109,-123.333 907.109,-119.667 910.775,-116 914.442,-116 914.442,-116 1001.56,-116 1001.56,-116 1005.22,-116 1008.89,-119.667 1008.89,-123.333 1008.89,-123.333 1008.89,-130.667 1008.89,-130.667 1008.89,-134.333 1005.22,-138 1001.56,-138"/>
<text text-anchor="middle" x="958" y="-123.4" font-family="Helvetica,sans-Serif" font-size="12.00" fill="white">AbsoluteValuable</text>
</a>
</g>
</g>
<!-- Double -->
<g id="node12" class="node">
<g id="a_node12"><a xlink:href="/v1.2/type/Double/hierarchy/" target="_top">
<polygon fill="#999999" stroke="#999999" points="875,-22 821,-22 821,-0 875,-0 875,-22"/>
<text text-anchor="middle" x="848" y="-7.4" font-family="Helvetica,sans-Serif" font-size="12.00" fill="white">Double</text>
</a>
</g>
</g>
<!-- AbsoluteValuable&#45;&gt;Double -->
<g id="edge55" class="edge">
<path fill="none" stroke="#cccccc" d="M957.27,-115.607C955.752,-101.155 951.112,-74.8687 937,-58 923.534,-41.9038 902.992,-30.762 885.034,-23.48"/>
<polygon fill="#cccccc" stroke="#cccccc" points="885.976,-20.0943 875.385,-19.8247 883.497,-26.6404 885.976,-20.0943"/>
</g>
<!-- Float -->
<g id="node15" class="node">
<g id="a_node15"><a xlink:href="/v1.2/type/Float/hierarchy/" target="_top">
<polygon fill="#999999" stroke="#999999" points="803,-22 749,-22 749,-0 803,-0 803,-22"/>
<text text-anchor="middle" x="776" y="-7.4" font-family="Helvetica,sans-Serif" font-size="12.00" fill="white">Float</text>
</a>
</g>
</g>
<!-- AbsoluteValuable&#45;&gt;Float -->
<g id="edge56" class="edge">
<path fill="none" stroke="#cccccc" d="M906.758,-119.499C860.068,-112.432 796.018,-99.4739 780,-80 769.224,-66.8994 769.268,-47.1316 771.39,-32.2806"/>
<polygon fill="#cccccc" stroke="#cccccc" points="774.901,-32.5433 773.273,-22.0743 768.017,-31.2733 774.901,-32.5433"/>
</g>
<!-- Float80 -->
<g id="node16" class="node">
<g id="a_node16"><a xlink:href="/v1.2/type/Float80/hierarchy/" target="_top">
<polygon fill="#999999" stroke="#999999" points="947,-22 893,-22 893,-0 947,-0 947,-22"/>
<text text-anchor="middle" x="920" y="-7.4" font-family="Helvetica,sans-Serif" font-size="12.00" fill="white">Float80</text>
</a>
</g>
</g>
<!-- AbsoluteValuable&#45;&gt;Float80 -->
<g id="edge57" class="edge">
<path fill="none" stroke="#cccccc" d="M964.599,-115.913C972.632,-102.268 984.067,-77.4033 975,-58 969.178,-45.5419 958.14,-35.27 947.47,-27.6173"/>
<polygon fill="#cccccc" stroke="#cccccc" points="949.364,-24.6737 939.1,-22.0499 945.488,-30.5022 949.364,-24.6737"/>
</g>
<!-- AutoreleasingUnsafeMutablePointer -->
<g id="node2" class="node">
<g id="a_node2"><a xlink:href="/v1.2/type/AutoreleasingUnsafeMutablePointer/hierarchy/" target="_top">
<polygon fill="#999999" stroke="#999999" points="3510.09,-22 3307.91,-22 3307.91,-0 3510.09,-0 3510.09,-22"/>
<text text-anchor="middle" x="3409" y="-7.4" font-family="Helvetica,sans-Serif" font-size="12.00" fill="white">AutoreleasingUnsafeMutablePointer</text>
</a>
</g>
</g>
<!-- BidirectionalIndexType -->
<g id="node3" class="node">
<g id="a_node3"><a xlink:href="/v1.2/protocol/BidirectionalIndexType/hierarchy/" target="_top">
<path fill="#999999" stroke="#999999" d="M2590.73,-254C2590.73,-254 2475.27,-254 2475.27,-254 2471.61,-254 2467.94,-250.333 2467.94,-246.667 2467.94,-246.667 2467.94,-239.333 2467.94,-239.333 2467.94,-235.667 2471.61,-232 2475.27,-232 2475.27,-232 2590.73,-232 2590.73,-232 2594.39,-232 2598.06,-235.667 2598.06,-239.333 2598.06,-239.333 2598.06,-246.667 2598.06,-246.667 2598.06,-250.333 2594.39,-254 2590.73,-254"/>
<text text-anchor="middle" x="2533" y="-239.4" font-family="Helvetica,sans-Serif" font-size="12.00" fill="white">BidirectionalIndexType</text>
</a>
</g>
</g>
<!-- RandomAccessIndexType -->
<g id="node31" class="node">
<g id="a_node31"><a xlink:href="/v1.2/protocol/RandomAccessIndexType/hierarchy/" target="_top">
<path fill="#999999" stroke="#999999" d="M2144.23,-196C2144.23,-196 2009.77,-196 2009.77,-196 2006.11,-196 2002.44,-192.333 2002.44,-188.667 2002.44,-188.667 2002.44,-181.333 2002.44,-181.333 2002.44,-177.667 2006.11,-174 2009.77,-174 2009.77,-174 2144.23,-174 2144.23,-174 2147.89,-174 2151.56,-177.667 2151.56,-181.333 2151.56,-181.333 2151.56,-188.667 2151.56,-188.667 2151.56,-192.333 2147.89,-196 2144.23,-196"/>
<text text-anchor="middle" x="2077" y="-181.4" font-family="Helvetica,sans-Serif" font-size="12.00" fill="white">RandomAccessIndexType</text>
</a>
</g>
</g>
<!-- BidirectionalIndexType&#45;&gt;RandomAccessIndexType -->
<g id="edge81" class="edge">
<path fill="none" stroke="#cccccc" d="M2467.67,-233.977C2387.16,-224.09 2250.2,-207.27 2161.69,-196.401"/>
<polygon fill="#cccccc" stroke="#cccccc" points="2162.04,-192.917 2151.68,-195.172 2161.18,-199.864 2162.04,-192.917"/>
</g>
<!-- ReverseBidirectionalIndex -->
<g id="node34" class="node">
<g id="a_node34"><a xlink:href="/v1.2/type/ReverseBidirectionalIndex/hierarchy/" target="_top">
<polygon fill="#999999" stroke="#999999" points="2790.55,-22 2641.45,-22 2641.45,-0 2790.55,-0 2790.55,-22"/>
<text text-anchor="middle" x="2716" y="-7.4" font-family="Helvetica,sans-Serif" font-size="12.00" fill="white">ReverseBidirectionalIndex</text>
</a>
</g>
</g>
<!-- BidirectionalIndexType&#45;&gt;ReverseBidirectionalIndex -->
<g id="edge82" class="edge">
<path fill="none" stroke="#cccccc" d="M2541.1,-231.82C2569.56,-196.047 2665.24,-75.7942 2701.71,-29.9551"/>
<polygon fill="#cccccc" stroke="#cccccc" points="2704.51,-32.0665 2707.99,-22.062 2699.03,-27.7081 2704.51,-32.0665"/>
</g>
<!-- String.Index -->
<g id="node42" class="node">
<g id="a_node42"><a xlink:href="/v1.2/type/String.Index/hierarchy/" target="_top">
<polygon fill="#999999" stroke="#999999" points="2425.03,-22 2350.97,-22 2350.97,-0 2425.03,-0 2425.03,-22"/>
<text text-anchor="middle" x="2388" y="-7.4" font-family="Helvetica,sans-Serif" font-size="12.00" fill="white">String.Index</text>
</a>
</g>
</g>
<!-- BidirectionalIndexType&#45;&gt;String.Index -->
<g id="edge83" class="edge">
<path fill="none" stroke="#cccccc" d="M2526.58,-231.82C2504.12,-196.196 2428.85,-76.7927 2399.68,-30.5307"/>
<polygon fill="#cccccc" stroke="#cccccc" points="2402.64,-28.6547 2394.34,-22.062 2396.72,-32.3879 2402.64,-28.6547"/>
</g>
<!-- String.UnicodeScalarView.Index -->
<g id="node45" class="node">
<g id="a_node45"><a xlink:href="/v1.2/type/String.UnicodeScalarView.Index/hierarchy/" target="_top">
<polygon fill="#999999" stroke="#999999" points="2622.92,-22 2443.08,-22 2443.08,-0 2622.92,-0 2622.92,-22"/>
<text text-anchor="middle" x="2533" y="-7.4" font-family="Helvetica,sans-Serif" font-size="12.00" fill="white">String.UnicodeScalarView.Index</text>
</a>
</g>
</g>
<!-- BidirectionalIndexType&#45;&gt;String.UnicodeScalarView.Index -->
<g id="edge84" class="edge">
<path fill="none" stroke="#cccccc" d="M2533,-231.82C2533,-196.642 2533,-79.7709 2533,-32.3033"/>
<polygon fill="#cccccc" stroke="#cccccc" points="2536.5,-32.062 2533,-22.062 2529.5,-32.0621 2536.5,-32.062"/>
</g>
<!-- Bit -->
<g id="node4" class="node">
<g id="a_node4"><a xlink:href="/v1.2/type/Bit/hierarchy/" target="_top">
<polygon fill="#999999" stroke="#999999" points="1629,-22 1575,-22 1575,-0 1629,-0 1629,-22"/>
<text text-anchor="middle" x="1602" y="-7.4" font-family="Helvetica,sans-Serif" font-size="12.00" fill="white">Bit</text>
</a>
</g>
</g>
<!-- Bool -->
<g id="node5" class="node">
<g id="a_node5"><a xlink:href="/v1.2/type/Bool/hierarchy/" target="_top">
<polygon fill="#999999" stroke="#999999" points="134,-22 80,-22 80,-0 134,-0 134,-22"/>
<text text-anchor="middle" x="107" y="-7.4" font-family="Helvetica,sans-Serif" font-size="12.00" fill="white">Bool</text>
</a>
</g>
</g>
<!-- CFunctionPointer -->
<g id="node6" class="node">
<g id="a_node6"><a xlink:href="/v1.2/type/CFunctionPointer/hierarchy/" target="_top">
<polygon fill="#999999" stroke="#999999" points="363.036,-22 260.964,-22 260.964,-0 363.036,-0 363.036,-22"/>
<text text-anchor="middle" x="312" y="-7.4" font-family="Helvetica,sans-Serif" font-size="12.00" fill="white">CFunctionPointer</text>
</a>
</g>
</g>
<!-- COpaquePointer -->
<g id="node7" class="node">
<g id="a_node7"><a xlink:href="/v1.2/type/COpaquePointer/hierarchy/" target="_top">
<polygon fill="#999999" stroke="#999999" points="480.542,-22 381.458,-22 381.458,-0 480.542,-0 480.542,-22"/>
<text text-anchor="middle" x="431" y="-7.4" font-family="Helvetica,sans-Serif" font-size="12.00" fill="white">COpaquePointer</text>
</a>
</g>
</g>
<!-- Character -->
<g id="node8" class="node">
<g id="a_node8"><a xlink:href="/v1.2/type/Character/hierarchy/" target="_top">
<polygon fill="#999999" stroke="#999999" points="62.0173,-22 -0.0172526,-22 -0.0172526,-0 62.0173,-0 62.0173,-22"/>
<text text-anchor="middle" x="31" y="-7.4" font-family="Helvetica,sans-Serif" font-size="12.00" fill="white">Character</text>
</a>
</g>
</g>
<!-- ClosedInterval -->
<g id="node9" class="node">
<g id="a_node9"><a xlink:href="/v1.2/type/ClosedInterval/hierarchy/" target="_top">
<polygon fill="#999999" stroke="#999999" points="3614.03,-22 3527.97,-22 3527.97,-0 3614.03,-0 3614.03,-22"/>
<text text-anchor="middle" x="3571" y="-7.4" font-family="Helvetica,sans-Serif" font-size="12.00" fill="white">ClosedInterval</text>
</a>
</g>
</g>
<!-- Comparable -->
<g id="node10" class="node">
<g id="a_node10"><a xlink:href="/v1.2/protocol/Comparable/hierarchy/" target="_top">
<path fill="#999999" stroke="#999999" d="M1412.19,-370C1412.19,-370 1351.81,-370 1351.81,-370 1348.14,-370 1344.48,-366.333 1344.48,-362.667 1344.48,-362.667 1344.48,-355.333 1344.48,-355.333 1344.48,-351.667 1348.14,-348 1351.81,-348 1351.81,-348 1412.19,-348 1412.19,-348 1415.86,-348 1419.52,-351.667 1419.52,-355.333 1419.52,-355.333 1419.52,-362.667 1419.52,-362.667 1419.52,-366.333 1415.86,-370 1412.19,-370"/>
<text text-anchor="middle" x="1382" y="-355.4" font-family="Helvetica,sans-Serif" font-size="12.00" fill="white">Comparable</text>
</a>
</g>
</g>
<!-- Comparable&#45;&gt;Character -->
<g id="edge11" class="edge">
<path fill="none" stroke="#cccccc" d="M1344.43,-357.7C1175.84,-356.159 488.25,-347.761 276,-312 172.565,-294.573 50,-348.893 50,-244 50,-244 50,-244 50,-126 50,-92.7209 42.0246,-54.7115 36.4081,-32.0705"/>
<polygon fill="#cccccc" stroke="#cccccc" points="39.7696,-31.0891 33.8857,-22.2784 32.9909,-32.8354 39.7696,-31.0891"/>
</g>
<!-- DictionaryIndex -->
<g id="node11" class="node">
<g id="a_node11"><a xlink:href="/v1.2/type/DictionaryIndex/hierarchy/" target="_top">
<polygon fill="#999999" stroke="#999999" points="2901.03,-22 2808.97,-22 2808.97,-0 2901.03,-0 2901.03,-22"/>
<text text-anchor="middle" x="2855" y="-7.4" font-family="Helvetica,sans-Serif" font-size="12.00" fill="white">DictionaryIndex</text>
</a>
</g>
</g>
<!-- Comparable&#45;&gt;DictionaryIndex -->
<g id="edge12" class="edge">
<path fill="none" stroke="#cccccc" d="M1419.52,-358.338C1599.42,-359.692 2374.53,-362.441 2610,-312 2688.76,-295.128 2778,-324.551 2778,-244 2778,-244 2778,-244 2778,-126 2778,-85.7976 2811.29,-49.1762 2834.09,-28.808"/>
<polygon fill="#cccccc" stroke="#cccccc" points="2836.64,-31.2363 2841.94,-22.0628 2832.07,-25.9284 2836.64,-31.2363"/>
</g>
<!-- IntegerArithmeticType -->
<g id="node27" class="node">
<g id="a_node27"><a xlink:href="/v1.2/protocol/IntegerArithmeticType/hierarchy/" target="_top">
<path fill="#999999" stroke="#999999" d="M1493.71,-312C1493.71,-312 1382.29,-312 1382.29,-312 1378.62,-312 1374.96,-308.333 1374.96,-304.667 1374.96,-304.667 1374.96,-297.333 1374.96,-297.333 1374.96,-293.667 1378.62,-290 1382.29,-290 1382.29,-290 1493.71,-290 1493.71,-290 1497.38,-290 1501.04,-293.667 1501.04,-297.333 1501.04,-297.333 1501.04,-304.667 1501.04,-304.667 1501.04,-308.333 1497.38,-312 1493.71,-312"/>
<text text-anchor="middle" x="1438" y="-297.4" font-family="Helvetica,sans-Serif" font-size="12.00" fill="white">IntegerArithmeticType</text>
</a>
</g>
</g>
<!-- Comparable&#45;&gt;IntegerArithmeticType -->
<g id="edge13" class="edge">
<path fill="none" stroke="#cccccc" d="M1392.01,-347.988C1399.88,-340.123 1411.03,-328.974 1420.38,-319.624"/>
<polygon fill="#cccccc" stroke="#cccccc" points="1423.1,-321.85 1427.7,-312.304 1418.15,-316.9 1423.1,-321.85"/>
</g>
<!-- ObjectIdentifier -->
<g id="node30" class="node">
<g id="a_node30"><a xlink:href="/v1.2/type/ObjectIdentifier/hierarchy/" target="_top">
<polygon fill="#999999" stroke="#999999" points="242.031,-22 151.969,-22 151.969,-0 242.031,-0 242.031,-22"/>
<text text-anchor="middle" x="197" y="-7.4" font-family="Helvetica,sans-Serif" font-size="12.00" fill="white">ObjectIdentifier</text>
</a>
</g>
</g>
<!-- Comparable&#45;&gt;ObjectIdentifier -->
<g id="edge14" class="edge">
<path fill="none" stroke="#cccccc" d="M1344.56,-358.355C1145.15,-359.765 217,-360.091 217,-244 217,-244 217,-244 217,-126 217,-92.6723 208.605,-54.6773 202.693,-32.0524"/>
<polygon fill="#cccccc" stroke="#cccccc" points="206.034,-31.0024 200.038,-22.2681 199.279,-32.8357 206.034,-31.0024"/>
</g>
<!-- SetIndex -->
<g id="node37" class="node">
<g id="a_node37"><a xlink:href="/v1.2/type/SetIndex/hierarchy/" target="_top">
<polygon fill="#999999" stroke="#999999" points="2976.52,-22 2919.48,-22 2919.48,-0 2976.52,-0 2976.52,-22"/>
<text text-anchor="middle" x="2948" y="-7.4" font-family="Helvetica,sans-Serif" font-size="12.00" fill="white">SetIndex</text>
</a>
</g>
</g>
<!-- Comparable&#45;&gt;SetIndex -->
<g id="edge15" class="edge">
<path fill="none" stroke="#cccccc" d="M1419.61,-357.832C1621.47,-356.777 2572.03,-349.824 2697,-312 2834.96,-270.244 2916.7,-91.4956 2940.6,-31.6274"/>
<polygon fill="#cccccc" stroke="#cccccc" points="2943.91,-32.7731 2944.28,-22.1847 2937.39,-30.2311 2943.91,-32.7731"/>
</g>
<!-- Strideable -->
<g id="node40" class="node">
<g id="a_node40"><a xlink:href="/v1.2/protocol/Strideable/hierarchy/" target="_top">
<path fill="#999999" stroke="#999999" d="M1349.69,-312C1349.69,-312 1300.31,-312 1300.31,-312 1296.64,-312 1292.97,-308.333 1292.97,-304.667 1292.97,-304.667 1292.97,-297.333 1292.97,-297.333 1292.97,-293.667 1296.64,-290 1300.31,-290 1300.31,-290 1349.69,-290 1349.69,-290 1353.36,-290 1357.03,-293.667 1357.03,-297.333 1357.03,-297.333 1357.03,-304.667 1357.03,-304.667 1357.03,-308.333 1353.36,-312 1349.69,-312"/>
<text text-anchor="middle" x="1325" y="-297.4" font-family="Helvetica,sans-Serif" font-size="12.00" fill="white">Strideable</text>
</a>
</g>
</g>
<!-- Comparable&#45;&gt;Strideable -->
<g id="edge16" class="edge">
<path fill="none" stroke="#cccccc" d="M1371.81,-347.988C1363.72,-340.045 1352.23,-328.751 1342.65,-319.344"/>
<polygon fill="#cccccc" stroke="#cccccc" points="1345.07,-316.815 1335.49,-312.304 1340.17,-321.809 1345.07,-316.815"/>
</g>
<!-- String -->
<g id="node41" class="node">
<g id="a_node41"><a xlink:href="/v1.2/type/String/hierarchy/" target="_top">
<polygon fill="#999999" stroke="#999999" points="731,-22 677,-22 677,-0 731,-0 731,-22"/>
<text text-anchor="middle" x="704" y="-7.4" font-family="Helvetica,sans-Serif" font-size="12.00" fill="white">String</text>
</a>
</g>
</g>
<!-- Comparable&#45;&gt;String -->
<g id="edge17" class="edge">
<path fill="none" stroke="#cccccc" d="M1344.3,-354.836C1237.17,-345.194 933.656,-313.163 856,-254 823.891,-229.537 833.848,-208.566 813,-174 780.632,-120.335 738.168,-59.6932 717.071,-30.1389"/>
<polygon fill="#cccccc" stroke="#cccccc" points="719.914,-28.0973 711.244,-22.0071 714.223,-32.1744 719.914,-28.0973"/>
</g>
<!-- Comparable&#45;&gt;String.Index -->
<g id="edge20" class="edge">
<path fill="none" stroke="#cccccc" d="M1419.61,-357.415C1593.6,-354.222 2312,-335.5 2312,-244 2312,-244 2312,-244 2312,-126 2312,-85.9604 2344.86,-49.2878 2367.36,-28.8653"/>
<polygon fill="#cccccc" stroke="#cccccc" points="2369.88,-31.3155 2375.11,-22.1004 2365.27,-26.044 2369.88,-31.3155"/>
</g>
<!-- Comparable&#45;&gt;String.UnicodeScalarView.Index -->
<g id="edge21" class="edge">
<path fill="none" stroke="#cccccc" d="M1419.71,-357.723C1559.47,-356.41 2047.51,-349.203 2198,-312 2258.24,-297.108 2275.4,-291.286 2325,-254 2414.53,-186.701 2492.37,-74.7737 2521.15,-30.6757"/>
<polygon fill="#cccccc" stroke="#cccccc" points="2524.2,-32.4088 2526.68,-22.1086 2518.32,-28.6134 2524.2,-32.4088"/>
</g>
<!-- UnicodeScalar -->
<g id="node51" class="node">
<g id="a_node51"><a xlink:href="/v1.2/type/UnicodeScalar/hierarchy/" target="_top">
<polygon fill="#999999" stroke="#999999" points="659.031,-22 570.969,-22 570.969,-0 659.031,-0 659.031,-22"/>
<text text-anchor="middle" x="615" y="-7.4" font-family="Helvetica,sans-Serif" font-size="12.00" fill="white">UnicodeScalar</text>
</a>
</g>
</g>
<!-- Comparable&#45;&gt;UnicodeScalar -->
<g id="edge18" class="edge">
<path fill="none" stroke="#cccccc" d="M1344.59,-356.02C1252.06,-350.817 1014.48,-335.521 939,-312 783.355,-263.501 662.717,-88.5564 626.331,-30.7128"/>
<polygon fill="#cccccc" stroke="#cccccc" points="629.288,-28.8403 621.046,-22.1831 623.338,-32.5272 629.288,-28.8403"/>
</g>
<!-- _SignedNumberType -->
<g id="node62" class="node">
<g id="a_node62"><a xlink:href="/v1.2/protocol/_SignedNumberType/hierarchy/" target="_top">
<path fill="#999999" stroke="#999999" d="M979.723,-254C979.723,-254 872.277,-254 872.277,-254 868.611,-254 864.944,-250.333 864.944,-246.667 864.944,-246.667 864.944,-239.333 864.944,-239.333 864.944,-235.667 868.611,-232 872.277,-232 872.277,-232 979.723,-232 979.723,-232 983.389,-232 987.056,-235.667 987.056,-239.333 987.056,-239.333 987.056,-246.667 987.056,-246.667 987.056,-250.333 983.389,-254 979.723,-254"/>
<text text-anchor="middle" x="926" y="-239.4" font-family="Helvetica,sans-Serif" font-size="12.00" fill="white">_SignedNumberType</text>
</a>
</g>
</g>
<!-- Comparable&#45;&gt;_SignedNumberType -->
<g id="edge19" class="edge">
<path fill="none" stroke="#cccccc" d="M1344.3,-348.574C1262.34,-328.084 1067.93,-279.483 975.923,-256.481"/>
<polygon fill="#cccccc" stroke="#cccccc" points="976.568,-253.034 966.018,-254.004 974.87,-259.825 976.568,-253.034"/>
</g>
<!-- Equatable -->
<g id="node13" class="node">
<g id="a_node13"><a xlink:href="/v1.2/protocol/Equatable/" target="_top">
<path fill="#ee543d" stroke="#ee543d" d="M3663.7,-486C3663.7,-486 3614.3,-486 3614.3,-486 3610.63,-486 3606.96,-482.333 3606.96,-478.667 3606.96,-478.667 3606.96,-471.333 3606.96,-471.333 3606.96,-467.667 3610.63,-464 3614.3,-464 3614.3,-464 3663.7,-464 3663.7,-464 3667.37,-464 3671.04,-467.667 3671.04,-471.333 3671.04,-471.333 3671.04,-478.667 3671.04,-478.667 3671.04,-482.333 3667.37,-486 3663.7,-486"/>
<text text-anchor="middle" x="3639" y="-471.4" font-family="Helvetica,sans-Serif" font-size="12.00" fill="white">Equatable</text>
</a>
</g>
</g>
<!-- Equatable&#45;&gt;AutoreleasingUnsafeMutablePointer -->
<g id="edge1" class="edge">
<path fill="none" stroke="#cccccc" d="M3606.53,-472.507C3543.13,-467.665 3409,-447.127 3409,-360 3409,-360 3409,-360 3409,-126 3409,-93.1536 3409,-54.9837 3409,-32.197"/>
<polygon fill="#cccccc" stroke="#cccccc" points="3412.5,-32.0648 3409,-22.0648 3405.5,-32.0648 3412.5,-32.0648"/>
</g>
<!-- Equatable&#45;&gt;ClosedInterval -->
<g id="edge2" class="edge">
<path fill="none" stroke="#cccccc" d="M3627.77,-463.906C3608.46,-445.373 3571,-403.786 3571,-360 3571,-360 3571,-360 3571,-126 3571,-93.1536 3571,-54.9837 3571,-32.197"/>
<polygon fill="#cccccc" stroke="#cccccc" points="3574.5,-32.0648 3571,-22.0648 3567.5,-32.0648 3574.5,-32.0648"/>
</g>
<!-- Equatable&#45;&gt;Comparable -->
<g id="edge3" class="edge">
<path fill="none" stroke="#cccccc" d="M3606.61,-472.506C3484.71,-466.873 3041.88,-446.304 2677,-428 2189.44,-403.542 1598.75,-371.731 1429.42,-362.57"/>
<polygon fill="#cccccc" stroke="#cccccc" points="1429.52,-359.071 1419.34,-362.025 1429.14,-366.06 1429.52,-359.071"/>
</g>
<!-- FloatingPointClassification -->
<g id="node17" class="node">
<g id="a_node17"><a xlink:href="/v1.2/type/FloatingPointClassification/hierarchy/" target="_top">
<polygon fill="#999999" stroke="#999999" points="3783.05,-22 3632.95,-22 3632.95,-0 3783.05,-0 3783.05,-22"/>
<text text-anchor="middle" x="3708" y="-7.4" font-family="Helvetica,sans-Serif" font-size="12.00" fill="white">FloatingPointClassification</text>
</a>
</g>
</g>
<!-- Equatable&#45;&gt;FloatingPointClassification -->
<g id="edge4" class="edge">
<path fill="none" stroke="#cccccc" d="M3650.39,-463.94C3669.99,-445.461 3708,-403.956 3708,-360 3708,-360 3708,-360 3708,-126 3708,-93.1536 3708,-54.9837 3708,-32.197"/>
<polygon fill="#cccccc" stroke="#cccccc" points="3711.5,-32.0648 3708,-22.0648 3704.5,-32.0648 3711.5,-32.0648"/>
</g>
<!-- HalfOpenInterval -->
<g id="node20" class="node">
<g id="a_node20"><a xlink:href="/v1.2/type/HalfOpenInterval/hierarchy/" target="_top">
<polygon fill="#999999" stroke="#999999" points="3901.04,-22 3800.96,-22 3800.96,-0 3901.04,-0 3901.04,-22"/>
<text text-anchor="middle" x="3851" y="-7.4" font-family="Helvetica,sans-Serif" font-size="12.00" fill="white">HalfOpenInterval</text>
</a>
</g>
</g>
<!-- Equatable&#45;&gt;HalfOpenInterval -->
<g id="edge5" class="edge">
<path fill="none" stroke="#cccccc" d="M3671.2,-471.34C3730.5,-464.491 3851,-440.654 3851,-360 3851,-360 3851,-360 3851,-126 3851,-93.1536 3851,-54.9837 3851,-32.197"/>
<polygon fill="#cccccc" stroke="#cccccc" points="3854.5,-32.0648 3851,-22.0648 3847.5,-32.0648 3854.5,-32.0648"/>
</g>
<!-- Hashable -->
<g id="node21" class="node">
<g id="a_node21"><a xlink:href="/v1.2/protocol/Hashable/hierarchy/" target="_top">
<path fill="#999999" stroke="#999999" d="M631.694,-254C631.694,-254 586.306,-254 586.306,-254 582.639,-254 578.973,-250.333 578.973,-246.667 578.973,-246.667 578.973,-239.333 578.973,-239.333 578.973,-235.667 582.639,-232 586.306,-232 586.306,-232 631.694,-232 631.694,-232 635.361,-232 639.027,-235.667 639.027,-239.333 639.027,-239.333 639.027,-246.667 639.027,-246.667 639.027,-250.333 635.361,-254 631.694,-254"/>
<text text-anchor="middle" x="609" y="-239.4" font-family="Helvetica,sans-Serif" font-size="12.00" fill="white">Hashable</text>
</a>
</g>
</g>
<!-- Equatable&#45;&gt;Hashable -->
<g id="edge6" class="edge">
<path fill="none" stroke="#cccccc" d="M3606.79,-473.498C3402.04,-470.113 2261.14,-448.313 1335,-370 1090.07,-349.289 1023.94,-369.682 785,-312 731.964,-299.196 673.439,-274.269 639.018,-258.413"/>
<polygon fill="#cccccc" stroke="#cccccc" points="640.1,-255.056 629.557,-254.003 637.142,-261.4 640.1,-255.056"/>
</g>
<!-- ManagedBufferPointer -->
<g id="node29" class="node">
<g id="a_node29"><a xlink:href="/v1.2/type/ManagedBufferPointer/hierarchy/" target="_top">
<polygon fill="#999999" stroke="#999999" points="4048.4,-22 3919.6,-22 3919.6,-0 4048.4,-0 4048.4,-22"/>
<text text-anchor="middle" x="3984" y="-7.4" font-family="Helvetica,sans-Serif" font-size="12.00" fill="white">ManagedBufferPointer</text>
</a>
</g>
</g>
<!-- Equatable&#45;&gt;ManagedBufferPointer -->
<g id="edge7" class="edge">
<path fill="none" stroke="#cccccc" d="M3671.15,-470.361C3756.79,-459.777 3984,-425.525 3984,-360 3984,-360 3984,-360 3984,-126 3984,-93.1536 3984,-54.9837 3984,-32.197"/>
<polygon fill="#cccccc" stroke="#cccccc" points="3987.5,-32.0648 3984,-22.0648 3980.5,-32.0648 3987.5,-32.0648"/>
</g>
<!-- Range -->
<g id="node32" class="node">
<g id="a_node32"><a xlink:href="/v1.2/type/Range/hierarchy/" target="_top">
<polygon fill="#999999" stroke="#999999" points="4121,-22 4067,-22 4067,-0 4121,-0 4121,-22"/>
<text text-anchor="middle" x="4094" y="-7.4" font-family="Helvetica,sans-Serif" font-size="12.00" fill="white">Range</text>
</a>
</g>
</g>
<!-- Equatable&#45;&gt;Range -->
<g id="edge8" class="edge">
<path fill="none" stroke="#cccccc" d="M3671.18,-472.182C3769.3,-465.771 4058,-440.099 4058,-360 4058,-360 4058,-360 4058,-126 4058,-91.2628 4073.39,-53.2199 4084.04,-31.0413"/>
<polygon fill="#cccccc" stroke="#cccccc" points="4087.2,-32.5473 4088.53,-22.0363 4080.94,-29.4236 4087.2,-32.5473"/>
</g>
<!-- _Incrementable -->
<g id="node57" class="node">
<g id="a_node57"><a xlink:href="/v1.2/protocol/_Incrementable/hierarchy/" target="_top">
<path fill="#999999" stroke="#999999" d="M2770.71,-428C2770.71,-428 2693.29,-428 2693.29,-428 2689.63,-428 2685.96,-424.333 2685.96,-420.667 2685.96,-420.667 2685.96,-413.333 2685.96,-413.333 2685.96,-409.667 2689.63,-406 2693.29,-406 2693.29,-406 2770.71,-406 2770.71,-406 2774.37,-406 2778.04,-409.667 2778.04,-413.333 2778.04,-413.333 2778.04,-420.667 2778.04,-420.667 2778.04,-424.333 2774.37,-428 2770.71,-428"/>
<text text-anchor="middle" x="2732" y="-413.4" font-family="Helvetica,sans-Serif" font-size="12.00" fill="white">_Incrementable</text>
</a>
</g>
</g>
<!-- Equatable&#45;&gt;_Incrementable -->
<g id="edge9" class="edge">
<path fill="none" stroke="#cccccc" d="M3606.99,-472.023C3473.43,-463.778 2959.69,-432.058 2788.14,-421.466"/>
<polygon fill="#cccccc" stroke="#cccccc" points="2788.26,-417.967 2778.06,-420.844 2787.82,-424.953 2788.26,-417.967"/>
</g>
<!-- _RawOptionSetType -->
<g id="node60" class="node">
<g id="a_node60"><a xlink:href="/v1.2/protocol/_RawOptionSetType/hierarchy/" target="_top">
<path fill="#999999" stroke="#999999" d="M4198.72,-428C4198.72,-428 4093.28,-428 4093.28,-428 4089.62,-428 4085.95,-424.333 4085.95,-420.667 4085.95,-420.667 4085.95,-413.333 4085.95,-413.333 4085.95,-409.667 4089.62,-406 4093.28,-406 4093.28,-406 4198.72,-406 4198.72,-406 4202.38,-406 4206.05,-409.667 4206.05,-413.333 4206.05,-413.333 4206.05,-420.667 4206.05,-420.667 4206.05,-424.333 4202.38,-428 4198.72,-428"/>
<text text-anchor="middle" x="4146" y="-413.4" font-family="Helvetica,sans-Serif" font-size="12.00" fill="white">_RawOptionSetType</text>
</a>
</g>
</g>
<!-- Equatable&#45;&gt;_RawOptionSetType -->
<g id="edge10" class="edge">
<path fill="none" stroke="#cccccc" d="M3671.08,-470.907C3742.95,-463.911 3922.27,-446.066 4072,-428 4073.27,-427.847 4074.55,-427.691 4075.83,-427.533"/>
<polygon fill="#cccccc" stroke="#cccccc" points="4076.36,-430.995 4085.84,-426.275 4075.48,-424.049 4076.36,-430.995"/>
</g>
<!-- FilterCollectionViewIndex -->
<g id="node14" class="node">
<g id="a_node14"><a xlink:href="/v1.2/type/FilterCollectionViewIndex/hierarchy/" target="_top">
<polygon fill="#999999" stroke="#999999" points="3289.89,-22 3146.11,-22 3146.11,-0 3289.89,-0 3289.89,-22"/>
<text text-anchor="middle" x="3218" y="-7.4" font-family="Helvetica,sans-Serif" font-size="12.00" fill="white">FilterCollectionViewIndex</text>
</a>
</g>
</g>
<!-- FloatingPointType -->
<g id="node18" class="node">
<g id="a_node18"><a xlink:href="/v1.2/protocol/FloatingPointType/hierarchy/" target="_top">
<path fill="#999999" stroke="#999999" d="M887.715,-80C887.715,-80 796.285,-80 796.285,-80 792.618,-80 788.952,-76.3333 788.952,-72.6667 788.952,-72.6667 788.952,-65.3333 788.952,-65.3333 788.952,-61.6667 792.618,-58 796.285,-58 796.285,-58 887.715,-58 887.715,-58 891.382,-58 895.048,-61.6667 895.048,-65.3333 895.048,-65.3333 895.048,-72.6667 895.048,-72.6667 895.048,-76.3333 891.382,-80 887.715,-80"/>
<text text-anchor="middle" x="842" y="-65.4" font-family="Helvetica,sans-Serif" font-size="12.00" fill="white">FloatingPointType</text>
</a>
</g>
</g>
<!-- FloatingPointType&#45;&gt;Double -->
<g id="edge44" class="edge">
<path fill="none" stroke="#cccccc" d="M843.073,-57.9883C843.831,-50.9098 844.874,-41.1714 845.806,-32.4779"/>
<polygon fill="#cccccc" stroke="#cccccc" points="849.311,-32.6199 846.896,-22.3039 842.351,-31.8741 849.311,-32.6199"/>
</g>
<!-- FloatingPointType&#45;&gt;Float -->
<g id="edge45" class="edge">
<path fill="none" stroke="#cccccc" d="M830.201,-57.9883C820.653,-49.8873 806.999,-38.3026 795.785,-28.7873"/>
<polygon fill="#cccccc" stroke="#cccccc" points="798.033,-26.1049 788.144,-22.3039 793.505,-31.4425 798.033,-26.1049"/>
</g>
<!-- ForwardIndexType -->
<g id="node19" class="node">
<g id="a_node19"><a xlink:href="/v1.2/protocol/ForwardIndexType/hierarchy/" target="_top">
<path fill="#999999" stroke="#999999" d="M2978.21,-312C2978.21,-312 2883.79,-312 2883.79,-312 2880.13,-312 2876.46,-308.333 2876.46,-304.667 2876.46,-304.667 2876.46,-297.333 2876.46,-297.333 2876.46,-293.667 2880.13,-290 2883.79,-290 2883.79,-290 2978.21,-290 2978.21,-290 2981.87,-290 2985.54,-293.667 2985.54,-297.333 2985.54,-297.333 2985.54,-304.667 2985.54,-304.667 2985.54,-308.333 2981.87,-312 2978.21,-312"/>
<text text-anchor="middle" x="2931" y="-297.4" font-family="Helvetica,sans-Serif" font-size="12.00" fill="white">ForwardIndexType</text>
</a>
</g>
</g>
<!-- ForwardIndexType&#45;&gt;BidirectionalIndexType -->
<g id="edge76" class="edge">
<path fill="none" stroke="#cccccc" d="M2876.49,-292.331C2807.02,-282.555 2686.56,-265.606 2608.33,-254.599"/>
<polygon fill="#cccccc" stroke="#cccccc" points="2608.45,-251.082 2598.06,-253.154 2607.47,-258.013 2608.45,-251.082"/>
</g>
<!-- ForwardIndexType&#45;&gt;DictionaryIndex -->
<g id="edge77" class="edge">
<path fill="none" stroke="#cccccc" d="M2928.3,-289.75C2917.21,-247.758 2875.17,-88.4375 2860.27,-31.9816"/>
<polygon fill="#cccccc" stroke="#cccccc" points="2863.61,-30.9032 2857.67,-22.1273 2856.84,-32.6893 2863.61,-30.9032"/>
</g>
<!-- ForwardIndexType&#45;&gt;FilterCollectionViewIndex -->
<g id="edge78" class="edge">
<path fill="none" stroke="#cccccc" d="M2985.32,-289.932C3068.52,-272.941 3218,-235.525 3218,-186 3218,-186 3218,-186 3218,-126 3218,-93.1536 3218,-54.9837 3218,-32.197"/>
<polygon fill="#cccccc" stroke="#cccccc" points="3221.5,-32.0648 3218,-22.0648 3214.5,-32.0648 3221.5,-32.0648"/>
</g>
<!-- ForwardIndexType&#45;&gt;SetIndex -->
<g id="edge79" class="edge">
<path fill="none" stroke="#cccccc" d="M2932.33,-289.956C2934.83,-270.124 2940,-224.515 2940,-186 2940,-186 2940,-186 2940,-126 2940,-93.0728 2943.36,-54.9268 2945.73,-32.1671"/>
<polygon fill="#cccccc" stroke="#cccccc" points="2949.23,-32.3661 2946.82,-22.0482 2942.27,-31.6147 2949.23,-32.3661"/>
</g>
<!-- String.UTF8View.Index -->
<g id="node44" class="node">
<g id="a_node44"><a xlink:href="/v1.2/type/String.UTF8View.Index/hierarchy/" target="_top">
<polygon fill="#999999" stroke="#999999" points="3126.89,-22 2995.11,-22 2995.11,-0 3126.89,-0 3126.89,-22"/>
<text text-anchor="middle" x="3061" y="-7.4" font-family="Helvetica,sans-Serif" font-size="12.00" fill="white">String.UTF8View.Index</text>
</a>
</g>
</g>
<!-- ForwardIndexType&#45;&gt;String.UTF8View.Index -->
<g id="edge80" class="edge">
<path fill="none" stroke="#cccccc" d="M2958.89,-289.979C2997.09,-274.25 3061,-239.883 3061,-186 3061,-186 3061,-186 3061,-126 3061,-93.1536 3061,-54.9837 3061,-32.197"/>
<polygon fill="#cccccc" stroke="#cccccc" points="3064.5,-32.0648 3061,-22.0648 3057.5,-32.0648 3064.5,-32.0648"/>
</g>
<!-- Hashable&#45;&gt;Bool -->
<g id="edge58" class="edge">
<path fill="none" stroke="#cccccc" d="M578.876,-232.707C510.006,-210.885 336.68,-152.679 203,-80 175.147,-64.8567 145.775,-43.0766 126.968,-28.2758"/>
<polygon fill="#cccccc" stroke="#cccccc" points="129.115,-25.5113 119.113,-22.0155 124.752,-30.9853 129.115,-25.5113"/>
</g>
<!-- Hashable&#45;&gt;CFunctionPointer -->
<g id="edge59" class="edge">
<path fill="none" stroke="#cccccc" d="M595.855,-231.82C549.085,-195.601 390.487,-72.781 333.016,-28.2747"/>
<polygon fill="#cccccc" stroke="#cccccc" points="335.043,-25.4176 324.993,-22.062 330.757,-30.9521 335.043,-25.4176"/>
</g>
<!-- Hashable&#45;&gt;COpaquePointer -->
<g id="edge60" class="edge">
<path fill="none" stroke="#cccccc" d="M601.122,-231.82C573.494,-196.122 480.758,-76.2938 445.118,-30.2419"/>
<polygon fill="#cccccc" stroke="#cccccc" points="447.675,-27.8282 438.787,-22.062 442.14,-32.1125 447.675,-27.8282"/>
</g>
<!-- Hashable&#45;&gt;Character -->
<g id="edge61" class="edge">
<path fill="none" stroke="#cccccc" d="M583.792,-231.969C491.504,-195.246 171.91,-68.0715 65.6546,-25.7899"/>
<polygon fill="#cccccc" stroke="#cccccc" points="66.9258,-22.5289 56.3403,-22.0835 64.3377,-29.0328 66.9258,-22.5289"/>
</g>
<!-- Hashable&#45;&gt;Double -->
<g id="edge62" class="edge">
<path fill="none" stroke="#cccccc" d="M628.661,-231.905C693.364,-198.593 896.003,-93.5143 904,-80 915.601,-60.3943 894.742,-40.5818 875.27,-27.4411"/>
<polygon fill="#cccccc" stroke="#cccccc" points="877.142,-24.4837 866.826,-22.0678 873.384,-30.3894 877.142,-24.4837"/>
</g>
<!-- Hashable&#45;&gt;Float -->
<g id="edge63" class="edge">
<path fill="none" stroke="#cccccc" d="M616.391,-231.82C642.312,-196.122 729.317,-76.2938 762.755,-30.2419"/>
<polygon fill="#cccccc" stroke="#cccccc" points="765.651,-32.2104 768.694,-22.062 759.986,-28.0976 765.651,-32.2104"/>
</g>
<!-- Hashable&#45;&gt;Float80 -->
<g id="edge64" class="edge">
<path fill="none" stroke="#cccccc" d="M639.235,-234.835C732.848,-212.583 1012.01,-145.7 1018,-138 1036.06,-114.774 1003.39,-72.2483 991,-58 979.958,-45.3034 964.58,-34.7584 950.958,-26.9818"/>
<polygon fill="#cccccc" stroke="#cccccc" points="952.341,-23.7495 941.883,-22.048 948.997,-29.8994 952.341,-23.7495"/>
</g>
<!-- Hashable&#45;&gt;ObjectIdentifier -->
<g id="edge65" class="edge">
<path fill="none" stroke="#cccccc" d="M592.124,-231.909C544.683,-203.631 405.902,-121.534 288,-58 267.882,-47.1591 244.914,-35.5544 227.085,-26.7129"/>
<polygon fill="#cccccc" stroke="#cccccc" points="228.276,-23.3975 217.76,-22.1077 225.177,-29.6739 228.276,-23.3975"/>
</g>
<!-- Set -->
<g id="node36" class="node">
<g id="a_node36"><a xlink:href="/v1.2/type/Set/hierarchy/" target="_top">
<polygon fill="#999999" stroke="#999999" points="553,-22 499,-22 499,-0 553,-0 553,-22"/>
<text text-anchor="middle" x="526" y="-7.4" font-family="Helvetica,sans-Serif" font-size="12.00" fill="white">Set</text>
</a>
</g>
</g>
<!-- Hashable&#45;&gt;Set -->
<g id="edge66" class="edge">
<path fill="none" stroke="#cccccc" d="M604.023,-231.899C599.562,-222.665 592.972,-208.572 588,-196 564.73,-137.167 542.255,-65.6984 531.917,-31.7457"/>
<polygon fill="#cccccc" stroke="#cccccc" points="535.247,-30.6627 529.002,-22.1039 528.546,-32.6889 535.247,-30.6627"/>
</g>
<!-- Hashable&#45;&gt;String -->
<g id="edge67" class="edge">
<path fill="none" stroke="#cccccc" d="M611.349,-231.6C618.077,-202.867 639.018,-120.396 671,-58 676.004,-48.2367 682.919,-38.2418 689.126,-30.0736"/>
<polygon fill="#cccccc" stroke="#cccccc" points="692.026,-32.0476 695.46,-22.0246 686.526,-27.7186 692.026,-32.0476"/>
</g>
<!-- Hashable&#45;&gt;UnicodeScalar -->
<g id="edge68" class="edge">
<path fill="none" stroke="#cccccc" d="M605.005,-231.967C601.574,-222.779 596.892,-208.716 595,-196 585.973,-135.335 582.511,-118.048 595,-58 596.895,-48.888 600.694,-39.3668 604.476,-31.3663"/>
<polygon fill="#cccccc" stroke="#cccccc" points="607.727,-32.6943 609.114,-22.1907 601.479,-29.5365 607.727,-32.6943"/>
</g>
<!-- UnsafeMutablePointer -->
<g id="node52" class="node">
<g id="a_node52"><a xlink:href="/v1.2/type/UnsafeMutablePointer/hierarchy/" target="_top">
<polygon fill="#999999" stroke="#999999" points="1453.05,-22 1324.95,-22 1324.95,-0 1453.05,-0 1453.05,-22"/>
<text text-anchor="middle" x="1389" y="-7.4" font-family="Helvetica,sans-Serif" font-size="12.00" fill="white">UnsafeMutablePointer</text>
</a>
</g>
</g>
<!-- Hashable&#45;&gt;UnsafeMutablePointer -->
<g id="edge69" class="edge">
<path fill="none" stroke="#cccccc" d="M639.031,-240.768C750.111,-235.651 1136.07,-212.711 1229,-138 1260.63,-112.575 1242.57,-84.8404 1273,-58 1290.25,-42.784 1313.15,-32.2767 1334.04,-25.1896"/>
<polygon fill="#cccccc" stroke="#cccccc" points="1335.33,-28.4534 1343.79,-22.0747 1333.2,-21.7858 1335.33,-28.4534"/>
</g>
<!-- UnsafePointer -->
<g id="node53" class="node">
<g id="a_node53"><a xlink:href="/v1.2/type/UnsafePointer/hierarchy/" target="_top">
<polygon fill="#999999" stroke="#999999" points="1557.03,-22 1470.97,-22 1470.97,-0 1557.03,-0 1557.03,-22"/>
<text text-anchor="middle" x="1514" y="-7.4" font-family="Helvetica,sans-Serif" font-size="12.00" fill="white">UnsafePointer</text>
</a>
</g>
</g>
<!-- Hashable&#45;&gt;UnsafePointer -->
<g id="edge70" class="edge">
<path fill="none" stroke="#cccccc" d="M639.296,-240.56C734.697,-235.825 1028.02,-219.671 1120,-196 1182.06,-180.029 1193.78,-164.779 1252,-138 1336.94,-98.9286 1436.13,-50.4294 1484.48,-26.6031"/>
<polygon fill="#cccccc" stroke="#cccccc" points="1486.31,-29.6042 1493.73,-22.0411 1483.21,-23.3266 1486.31,-29.6042"/>
</g>
<!-- _IntegerType -->
<g id="node58" class="node">
<g id="a_node58"><a xlink:href="/v1.2/protocol/_IntegerType/hierarchy/" target="_top">
<path fill="#999999" stroke="#999999" d="M1470.71,-196C1470.71,-196 1405.29,-196 1405.29,-196 1401.63,-196 1397.96,-192.333 1397.96,-188.667 1397.96,-188.667 1397.96,-181.333 1397.96,-181.333 1397.96,-177.667 1401.63,-174 1405.29,-174 1405.29,-174 1470.71,-174 1470.71,-174 1474.37,-174 1478.04,-177.667 1478.04,-181.333 1478.04,-181.333 1478.04,-188.667 1478.04,-188.667 1478.04,-192.333 1474.37,-196 1470.71,-196"/>
<text text-anchor="middle" x="1438" y="-181.4" font-family="Helvetica,sans-Serif" font-size="12.00" fill="white">_IntegerType</text>
</a>
</g>
</g>
<!-- Hashable&#45;&gt;_IntegerType -->
<g id="edge71" class="edge">
<path fill="none" stroke="#cccccc" d="M639.358,-240.053C735.999,-233.838 1045.16,-213.84 1301,-196 1329.77,-193.994 1361.94,-191.651 1387.87,-189.738"/>
<polygon fill="#cccccc" stroke="#cccccc" points="1388.13,-193.228 1397.84,-189 1387.61,-186.247 1388.13,-193.228"/>
</g>
<!-- Int -->
<g id="node22" class="node">
<g id="a_node22"><a xlink:href="/v1.2/type/Int/hierarchy/" target="_top">
<polygon fill="#999999" stroke="#999999" points="1163,-22 1109,-22 1109,-0 1163,-0 1163,-22"/>
<text text-anchor="middle" x="1136" y="-7.4" font-family="Helvetica,sans-Serif" font-size="12.00" fill="white">Int</text>
</a>
</g>
</g>
<!-- Int&#45;&gt;Bit -->
<g id="edge33" class="edge">
<path fill="none" stroke="#cccccc" d="M1148.78,-22.0854C1157.28,-28.7029 1169.05,-36.4837 1181,-40 1261.16,-63.5909 1476.84,-63.5909 1557,-40 1565.4,-37.5276 1573.71,-32.9469 1580.86,-28.1447"/>
<polygon fill="#cccccc" stroke="#cccccc" points="1583.18,-30.7891 1589.22,-22.0854 1579.07,-25.122 1583.18,-30.7891"/>
</g>
<!-- Int16 -->
<g id="node23" class="node">
<g id="a_node23"><a xlink:href="/v1.2/type/Int16/hierarchy/" target="_top">
<polygon fill="#999999" stroke="#999999" points="1235,-22 1181,-22 1181,-0 1235,-0 1235,-22"/>
<text text-anchor="middle" x="1208" y="-7.4" font-family="Helvetica,sans-Serif" font-size="12.00" fill="white">Int16</text>
</a>
</g>
</g>
<!-- Int32 -->
<g id="node24" class="node">
<g id="a_node24"><a xlink:href="/v1.2/type/Int32/hierarchy/" target="_top">
<polygon fill="#999999" stroke="#999999" points="1307,-22 1253,-22 1253,-0 1307,-0 1307,-22"/>
<text text-anchor="middle" x="1280" y="-7.4" font-family="Helvetica,sans-Serif" font-size="12.00" fill="white">Int32</text>
</a>
</g>
</g>
<!-- Int64 -->
<g id="node25" class="node">
<g id="a_node25"><a xlink:href="/v1.2/type/Int64/hierarchy/" target="_top">
<polygon fill="#999999" stroke="#999999" points="1019,-22 965,-22 965,-0 1019,-0 1019,-22"/>
<text text-anchor="middle" x="992" y="-7.4" font-family="Helvetica,sans-Serif" font-size="12.00" fill="white">Int64</text>
</a>
</g>
</g>
<!-- Int8 -->
<g id="node26" class="node">
<g id="a_node26"><a xlink:href="/v1.2/type/Int8/hierarchy/" target="_top">
<polygon fill="#999999" stroke="#999999" points="1091,-22 1037,-22 1037,-0 1091,-0 1091,-22"/>
<text text-anchor="middle" x="1064" y="-7.4" font-family="Helvetica,sans-Serif" font-size="12.00" fill="white">Int8</text>
</a>
</g>
</g>
<!-- IntegerArithmeticType&#45;&gt;_IntegerType -->
<g id="edge22" class="edge">
<path fill="none" stroke="#cccccc" d="M1438,-289.883C1438,-271.17 1438,-230.827 1438,-206.287"/>
<polygon fill="#cccccc" stroke="#cccccc" points="1441.5,-206.258 1438,-196.258 1434.5,-206.258 1441.5,-206.258"/>
</g>
<!-- IntegerType -->
<g id="node28" class="node">
<g id="a_node28"><a xlink:href="/v1.2/protocol/IntegerType/hierarchy/" target="_top">
<path fill="#999999" stroke="#999999" d="M1587.2,-138C1587.2,-138 1528.8,-138 1528.8,-138 1525.13,-138 1521.47,-134.333 1521.47,-130.667 1521.47,-130.667 1521.47,-123.333 1521.47,-123.333 1521.47,-119.667 1525.13,-116 1528.8,-116 1528.8,-116 1587.2,-116 1587.2,-116 1590.87,-116 1594.53,-119.667 1594.53,-123.333 1594.53,-123.333 1594.53,-130.667 1594.53,-130.667 1594.53,-134.333 1590.87,-138 1587.2,-138"/>
<text text-anchor="middle" x="1558" y="-123.4" font-family="Helvetica,sans-Serif" font-size="12.00" fill="white">IntegerType</text>
</a>
</g>
</g>
<!-- SignedIntegerType -->
<g id="node38" class="node">
<g id="a_node38"><a xlink:href="/v1.2/protocol/SignedIntegerType/hierarchy/" target="_top">
<path fill="#999999" stroke="#999999" d="M1209.73,-80C1209.73,-80 1114.27,-80 1114.27,-80 1110.61,-80 1106.94,-76.3333 1106.94,-72.6667 1106.94,-72.6667 1106.94,-65.3333 1106.94,-65.3333 1106.94,-61.6667 1110.61,-58 1114.27,-58 1114.27,-58 1209.73,-58 1209.73,-58 1213.39,-58 1217.06,-61.6667 1217.06,-65.3333 1217.06,-65.3333 1217.06,-72.6667 1217.06,-72.6667 1217.06,-76.3333 1213.39,-80 1209.73,-80"/>
<text text-anchor="middle" x="1162" y="-65.4" font-family="Helvetica,sans-Serif" font-size="12.00" fill="white">SignedIntegerType</text>
</a>
</g>
</g>
<!-- IntegerType&#45;&gt;SignedIntegerType -->
<g id="edge26" class="edge">
<path fill="none" stroke="#cccccc" d="M1521.65,-117.804C1518.39,-117.159 1515.14,-116.547 1512,-116 1413.16,-98.7924 1297.61,-84.7824 1227.14,-76.9167"/>
<polygon fill="#cccccc" stroke="#cccccc" points="1227.4,-73.4243 1217.08,-75.8011 1226.63,-80.3817 1227.4,-73.4243"/>
</g>
<!-- UnsignedIntegerType -->
<g id="node54" class="node">
<g id="a_node54"><a xlink:href="/v1.2/protocol/UnsignedIntegerType/hierarchy/" target="_top">
<path fill="#999999" stroke="#999999" d="M1805.73,-80C1805.73,-80 1696.27,-80 1696.27,-80 1692.61,-80 1688.94,-76.3333 1688.94,-72.6667 1688.94,-72.6667 1688.94,-65.3333 1688.94,-65.3333 1688.94,-61.6667 1692.61,-58 1696.27,-58 1696.27,-58 1805.73,-58 1805.73,-58 1809.39,-58 1813.06,-61.6667 1813.06,-65.3333 1813.06,-65.3333 1813.06,-72.6667 1813.06,-72.6667 1813.06,-76.3333 1809.39,-80 1805.73,-80"/>
<text text-anchor="middle" x="1751" y="-65.4" font-family="Helvetica,sans-Serif" font-size="12.00" fill="white">UnsignedIntegerType</text>
</a>
</g>
</g>
<!-- IntegerType&#45;&gt;UnsignedIntegerType -->
<g id="edge27" class="edge">
<path fill="none" stroke="#cccccc" d="M1592.5,-115.988C1624.38,-106.74 1671.9,-92.9502 1706.6,-82.8836"/>
<polygon fill="#cccccc" stroke="#cccccc" points="1707.84,-86.1673 1716.47,-80.0192 1705.89,-79.4446 1707.84,-86.1673"/>
</g>
<!-- RandomAccessIndexType&#45;&gt;IntegerType -->
<g id="edge47" class="edge">
<path fill="none" stroke="#cccccc" d="M2002.57,-178.892C1910.01,-172.033 1747.33,-158.312 1609,-138 1607.52,-137.783 1606.02,-137.552 1604.51,-137.31"/>
<polygon fill="#cccccc" stroke="#cccccc" points="1604.87,-133.821 1594.42,-135.581 1603.69,-140.721 1604.87,-133.821"/>
</g>
<!-- ReverseRandomAccessIndex -->
<g id="node35" class="node">
<g id="a_node35"><a xlink:href="/v1.2/type/ReverseRandomAccessIndex/hierarchy/" target="_top">
<polygon fill="#999999" stroke="#999999" points="2333.06,-22 2164.94,-22 2164.94,-0 2333.06,-0 2333.06,-22"/>
<text text-anchor="middle" x="2249" y="-7.4" font-family="Helvetica,sans-Serif" font-size="12.00" fill="white">ReverseRandomAccessIndex</text>
</a>
</g>
</g>
<!-- RandomAccessIndexType&#45;&gt;ReverseRandomAccessIndex -->
<g id="edge48" class="edge">
<path fill="none" stroke="#cccccc" d="M2087.24,-173.756C2115.62,-145.382 2195.49,-65.5149 2231.27,-29.7296"/>
<polygon fill="#cccccc" stroke="#cccccc" points="2234,-31.9541 2238.59,-22.4081 2229.05,-27.0043 2234,-31.9541"/>
</g>
<!-- String.UTF16View.Index -->
<g id="node43" class="node">
<g id="a_node43"><a xlink:href="/v1.2/type/String.UTF16View.Index/hierarchy/" target="_top">
<polygon fill="#999999" stroke="#999999" points="2146.39,-22 2007.61,-22 2007.61,-0 2146.39,-0 2146.39,-22"/>
<text text-anchor="middle" x="2077" y="-7.4" font-family="Helvetica,sans-Serif" font-size="12.00" fill="white">String.UTF16View.Index</text>
</a>
</g>
</g>
<!-- RandomAccessIndexType&#45;&gt;String.UTF16View.Index -->
<g id="edge51" class="edge">
<path fill="none" stroke="#cccccc" d="M2077,-173.756C2077,-146.097 2077,-69.5091 2077,-32.5186"/>
<polygon fill="#cccccc" stroke="#cccccc" points="2080.5,-32.408 2077,-22.4081 2073.5,-32.4081 2080.5,-32.408"/>
</g>
<!-- RandomAccessIndexType&#45;&gt;UnsafeMutablePointer -->
<g id="edge49" class="edge">
<path fill="none" stroke="#cccccc" d="M2002.35,-174.996C1944.3,-167.273 1861.97,-154.738 1791,-138 1654.28,-105.757 1496.45,-50.977 1426.13,-25.622"/>
<polygon fill="#cccccc" stroke="#cccccc" points="1426.99,-22.2137 1416.4,-22.1008 1424.61,-28.7957 1426.99,-22.2137"/>
</g>
<!-- RandomAccessIndexType&#45;&gt;UnsafePointer -->
<g id="edge50" class="edge">
<path fill="none" stroke="#cccccc" d="M2024.17,-173.97C1947,-158.474 1799.65,-125.662 1680,-80 1659.94,-72.3462 1656.64,-66.6631 1637,-58 1609.5,-45.8706 1577.7,-34.0345 1553.33,-25.4064"/>
<polygon fill="#cccccc" stroke="#cccccc" points="1554.3,-22.0388 1543.71,-22.0305 1551.98,-28.644 1554.3,-22.0388"/>
</g>
<!-- RawOptionSetType -->
<g id="node33" class="node">
<g id="a_node33"><a xlink:href="/v1.2/protocol/RawOptionSetType/hierarchy/" target="_top">
<path fill="#999999" stroke="#999999" d="M4195.21,-370C4195.21,-370 4096.79,-370 4096.79,-370 4093.12,-370 4089.45,-366.333 4089.45,-362.667 4089.45,-362.667 4089.45,-355.333 4089.45,-355.333 4089.45,-351.667 4093.12,-348 4096.79,-348 4096.79,-348 4195.21,-348 4195.21,-348 4198.88,-348 4202.55,-351.667 4202.55,-355.333 4202.55,-355.333 4202.55,-362.667 4202.55,-362.667 4202.55,-366.333 4198.88,-370 4195.21,-370"/>
<text text-anchor="middle" x="4146" y="-355.4" font-family="Helvetica,sans-Serif" font-size="12.00" fill="white">RawOptionSetType</text>
</a>
</g>
</g>
<!-- SignedIntegerType&#45;&gt;Int -->
<g id="edge28" class="edge">
<path fill="none" stroke="#cccccc" d="M1157.35,-57.9883C1153.96,-50.6738 1149.24,-40.5192 1145.11,-31.6122"/>
<polygon fill="#cccccc" stroke="#cccccc" points="1148.17,-29.9001 1140.78,-22.3039 1141.82,-32.8479 1148.17,-29.9001"/>
</g>
<!-- SignedIntegerType&#45;&gt;Int16 -->
<g id="edge29" class="edge">
<path fill="none" stroke="#cccccc" d="M1170.22,-57.9883C1176.56,-50.2806 1185.48,-39.4191 1193.06,-30.187"/>
<polygon fill="#cccccc" stroke="#cccccc" points="1195.89,-32.2528 1199.54,-22.3039 1190.48,-27.8096 1195.89,-32.2528"/>
</g>
<!-- SignedIntegerType&#45;&gt;Int32 -->
<g id="edge30" class="edge">
<path fill="none" stroke="#cccccc" d="M1183.1,-57.9883C1201.61,-49.2036 1228.75,-36.3222 1249.6,-26.4255"/>
<polygon fill="#cccccc" stroke="#cccccc" points="1251.16,-29.5633 1258.69,-22.1138 1248.15,-23.2393 1251.16,-29.5633"/>
</g>
<!-- SignedIntegerType&#45;&gt;Int64 -->
<g id="edge31" class="edge">
<path fill="none" stroke="#cccccc" d="M1131.61,-57.9883C1102.74,-48.4784 1059.29,-34.1675 1028.55,-24.0396"/>
<polygon fill="#cccccc" stroke="#cccccc" points="1029.64,-20.7142 1019.05,-20.9096 1027.45,-27.3627 1029.64,-20.7142"/>
</g>
<!-- SignedIntegerType&#45;&gt;Int8 -->
<g id="edge32" class="edge">
<path fill="none" stroke="#cccccc" d="M1144.48,-57.9883C1129.52,-49.441 1107.78,-37.0155 1090.66,-27.2343"/>
<polygon fill="#cccccc" stroke="#cccccc" points="1092.12,-24.0364 1081.7,-22.1138 1088.65,-30.1141 1092.12,-24.0364"/>
</g>
<!-- SignedNumberType -->
<g id="node39" class="node">
<g id="a_node39"><a xlink:href="/v1.2/protocol/SignedNumberType/hierarchy/" target="_top">
<path fill="#999999" stroke="#999999" d="M1015.72,-196C1015.72,-196 914.284,-196 914.284,-196 910.617,-196 906.95,-192.333 906.95,-188.667 906.95,-188.667 906.95,-181.333 906.95,-181.333 906.95,-177.667 910.617,-174 914.284,-174 914.284,-174 1015.72,-174 1015.72,-174 1019.38,-174 1023.05,-177.667 1023.05,-181.333 1023.05,-181.333 1023.05,-188.667 1023.05,-188.667 1023.05,-192.333 1019.38,-196 1015.72,-196"/>
<text text-anchor="middle" x="965" y="-181.4" font-family="Helvetica,sans-Serif" font-size="12.00" fill="white">SignedNumberType</text>
</a>
</g>
</g>
<!-- SignedNumberType&#45;&gt;AbsoluteValuable -->
<g id="edge53" class="edge">
<path fill="none" stroke="#cccccc" d="M963.749,-173.988C962.864,-166.91 961.646,-157.171 960.56,-148.478"/>
<polygon fill="#cccccc" stroke="#cccccc" points="964.001,-147.793 959.288,-138.304 957.055,-148.661 964.001,-147.793"/>
</g>
<!-- _SignedIntegerType -->
<g id="node61" class="node">
<g id="a_node61"><a xlink:href="/v1.2/protocol/_SignedIntegerType/hierarchy/" target="_top">
<path fill="#999999" stroke="#999999" d="M1213.23,-138C1213.23,-138 1110.77,-138 1110.77,-138 1107.1,-138 1103.44,-134.333 1103.44,-130.667 1103.44,-130.667 1103.44,-123.333 1103.44,-123.333 1103.44,-119.667 1107.1,-116 1110.77,-116 1110.77,-116 1213.23,-116 1213.23,-116 1216.9,-116 1220.56,-119.667 1220.56,-123.333 1220.56,-123.333 1220.56,-130.667 1220.56,-130.667 1220.56,-134.333 1216.9,-138 1213.23,-138"/>
<text text-anchor="middle" x="1162" y="-123.4" font-family="Helvetica,sans-Serif" font-size="12.00" fill="white">_SignedIntegerType</text>
</a>
</g>
</g>
<!-- SignedNumberType&#45;&gt;_SignedIntegerType -->
<g id="edge54" class="edge">
<path fill="none" stroke="#cccccc" d="M1000.22,-173.988C1032.89,-164.7 1081.68,-150.832 1117.13,-140.754"/>
<polygon fill="#cccccc" stroke="#cccccc" points="1118.09,-144.12 1126.75,-138.019 1116.18,-137.387 1118.09,-144.12"/>
</g>
<!-- Strideable&#45;&gt;Float80 -->
<g id="edge41" class="edge">
<path fill="none" stroke="#cccccc" d="M1308.62,-289.91C1269.79,-265.708 1169.77,-201.629 1094,-138 1055.49,-105.665 1054.92,-87.2265 1014,-58 996.079,-45.1993 974.054,-34.2076 955.83,-26.1818"/>
<polygon fill="#cccccc" stroke="#cccccc" points="956.989,-22.8704 946.418,-22.1485 954.231,-29.3045 956.989,-22.8704"/>
</g>
<!-- Strideable&#45;&gt;FloatingPointType -->
<g id="edge42" class="edge">
<path fill="none" stroke="#cccccc" d="M1292.92,-293.881C1198.94,-275.72 928.893,-221.797 898,-196 865.233,-168.639 850.943,-118.256 845.288,-90.2022"/>
<polygon fill="#cccccc" stroke="#cccccc" points="848.721,-89.5184 843.469,-80.3167 841.837,-90.7849 848.721,-89.5184"/>
</g>
<!-- _RandomAccessIndexType -->
<g id="node59" class="node">
<g id="a_node59"><a xlink:href="/v1.2/protocol/_RandomAccessIndexType/hierarchy/" target="_top">
<path fill="#999999" stroke="#999999" d="M2276.73,-254C2276.73,-254 2135.27,-254 2135.27,-254 2131.6,-254 2127.94,-250.333 2127.94,-246.667 2127.94,-246.667 2127.94,-239.333 2127.94,-239.333 2127.94,-235.667 2131.6,-232 2135.27,-232 2135.27,-232 2276.73,-232 2276.73,-232 2280.4,-232 2284.06,-235.667 2284.06,-239.333 2284.06,-239.333 2284.06,-246.667 2284.06,-246.667 2284.06,-250.333 2280.4,-254 2276.73,-254"/>
<text text-anchor="middle" x="2206" y="-239.4" font-family="Helvetica,sans-Serif" font-size="12.00" fill="white">_RandomAccessIndexType</text>
</a>
</g>
</g>
<!-- Strideable&#45;&gt;_RandomAccessIndexType -->
<g id="edge43" class="edge">
<path fill="none" stroke="#cccccc" d="M1357.12,-291.573C1360.11,-290.968 1363.1,-290.429 1366,-290 1637.87,-249.753 1963.93,-243.82 2117.61,-243.501"/>
<polygon fill="#cccccc" stroke="#cccccc" points="2117.93,-247 2127.93,-243.487 2117.92,-240 2117.93,-247"/>
</g>
<!-- UInt -->
<g id="node46" class="node">
<g id="a_node46"><a xlink:href="/v1.2/type/UInt/hierarchy/" target="_top">
<polygon fill="#999999" stroke="#999999" points="1989,-22 1935,-22 1935,-0 1989,-0 1989,-22"/>
<text text-anchor="middle" x="1962" y="-7.4" font-family="Helvetica,sans-Serif" font-size="12.00" fill="white">UInt</text>
</a>
</g>
</g>
<!-- UInt16 -->
<g id="node47" class="node">
<g id="a_node47"><a xlink:href="/v1.2/type/UInt16/hierarchy/" target="_top">
<polygon fill="#999999" stroke="#999999" points="1701,-22 1647,-22 1647,-0 1701,-0 1701,-22"/>
<text text-anchor="middle" x="1674" y="-7.4" font-family="Helvetica,sans-Serif" font-size="12.00" fill="white">UInt16</text>
</a>
</g>
</g>
<!-- UInt32 -->
<g id="node48" class="node">
<g id="a_node48"><a xlink:href="/v1.2/type/UInt32/hierarchy/" target="_top">
<polygon fill="#999999" stroke="#999999" points="1773,-22 1719,-22 1719,-0 1773,-0 1773,-22"/>
<text text-anchor="middle" x="1746" y="-7.4" font-family="Helvetica,sans-Serif" font-size="12.00" fill="white">UInt32</text>
</a>
</g>
</g>
<!-- UInt64 -->
<g id="node49" class="node">
<g id="a_node49"><a xlink:href="/v1.2/type/UInt64/hierarchy/" target="_top">
<polygon fill="#999999" stroke="#999999" points="1845,-22 1791,-22 1791,-0 1845,-0 1845,-22"/>
<text text-anchor="middle" x="1818" y="-7.4" font-family="Helvetica,sans-Serif" font-size="12.00" fill="white">UInt64</text>
</a>
</g>
</g>
<!-- UInt8 -->
<g id="node50" class="node">
<g id="a_node50"><a xlink:href="/v1.2/type/UInt8/hierarchy/" target="_top">
<polygon fill="#999999" stroke="#999999" points="1917,-22 1863,-22 1863,-0 1917,-0 1917,-22"/>
<text text-anchor="middle" x="1890" y="-7.4" font-family="Helvetica,sans-Serif" font-size="12.00" fill="white">UInt8</text>
</a>
</g>
</g>
<!-- UnsignedIntegerType&#45;&gt;UInt -->
<g id="edge34" class="edge">
<path fill="none" stroke="#cccccc" d="M1789.96,-57.9235C1823.38,-49.2459 1873.05,-36.2571 1925.13,-22.21"/>
<polygon fill="#cccccc" stroke="#cccccc" points="1926.14,-25.563 1934.88,-19.5756 1924.32,-18.8054 1926.14,-25.563"/>
</g>
<!-- UnsignedIntegerType&#45;&gt;UInt16 -->
<g id="edge35" class="edge">
<path fill="none" stroke="#cccccc" d="M1737.23,-57.9883C1725.81,-49.6784 1709.34,-37.7028 1696.08,-28.0554"/>
<polygon fill="#cccccc" stroke="#cccccc" points="1698.05,-25.165 1687.91,-22.1138 1693.94,-30.8262 1698.05,-25.165"/>
</g>
<!-- UnsignedIntegerType&#45;&gt;UInt32 -->
<g id="edge36" class="edge">
<path fill="none" stroke="#cccccc" d="M1750.11,-57.9883C1749.47,-50.9098 1748.6,-41.1714 1747.83,-32.4779"/>
<polygon fill="#cccccc" stroke="#cccccc" points="1751.3,-31.953 1746.92,-22.3039 1744.32,-32.5755 1751.3,-31.953"/>
</g>
<!-- UnsignedIntegerType&#45;&gt;UInt64 -->
<g id="edge37" class="edge">
<path fill="none" stroke="#cccccc" d="M1762.98,-57.9883C1772.67,-49.8873 1786.53,-38.3026 1797.92,-28.7873"/>
<polygon fill="#cccccc" stroke="#cccccc" points="1800.24,-31.4025 1805.67,-22.3039 1795.75,-26.0315 1800.24,-31.4025"/>
</g>
<!-- UnsignedIntegerType&#45;&gt;UInt8 -->
<g id="edge38" class="edge">
<path fill="none" stroke="#cccccc" d="M1775.85,-57.9883C1798.05,-49.0453 1830.78,-35.8566 1855.51,-25.8935"/>
<polygon fill="#cccccc" stroke="#cccccc" points="1856.93,-29.0972 1864.9,-22.1138 1854.31,-22.6043 1856.93,-29.0972"/>
</g>
<!-- _BidirectionalIndexType -->
<g id="node55" class="node">
<g id="a_node55"><a xlink:href="/v1.2/protocol/_BidirectionalIndexType/hierarchy/" target="_top">
<path fill="#999999" stroke="#999999" d="M2594.23,-312C2594.23,-312 2471.77,-312 2471.77,-312 2468.1,-312 2464.44,-308.333 2464.44,-304.667 2464.44,-304.667 2464.44,-297.333 2464.44,-297.333 2464.44,-293.667 2468.1,-290 2471.77,-290 2471.77,-290 2594.23,-290 2594.23,-290 2597.9,-290 2601.56,-293.667 2601.56,-297.333 2601.56,-297.333 2601.56,-304.667 2601.56,-304.667 2601.56,-308.333 2597.9,-312 2594.23,-312"/>
<text text-anchor="middle" x="2533" y="-297.4" font-family="Helvetica,sans-Serif" font-size="12.00" fill="white">_BidirectionalIndexType</text>
</a>
</g>
</g>
<!-- _BidirectionalIndexType&#45;&gt;BidirectionalIndexType -->
<g id="edge85" class="edge">
<path fill="none" stroke="#cccccc" d="M2533,-289.988C2533,-282.91 2533,-273.171 2533,-264.478"/>
<polygon fill="#cccccc" stroke="#cccccc" points="2536.5,-264.304 2533,-254.304 2529.5,-264.304 2536.5,-264.304"/>
</g>
<!-- _BidirectionalIndexType&#45;&gt;_RandomAccessIndexType -->
<g id="edge86" class="edge">
<path fill="none" stroke="#cccccc" d="M2474.54,-289.988C2418.45,-280.382 2333.75,-265.878 2274.52,-255.734"/>
<polygon fill="#cccccc" stroke="#cccccc" points="2274.95,-252.258 2264.51,-254.019 2273.77,-259.157 2274.95,-252.258"/>
</g>
<!-- _ForwardIndexType -->
<g id="node56" class="node">
<g id="a_node56"><a xlink:href="/v1.2/protocol/_ForwardIndexType/hierarchy/" target="_top">
<path fill="#999999" stroke="#999999" d="M2782.71,-370C2782.71,-370 2681.29,-370 2681.29,-370 2677.62,-370 2673.95,-366.333 2673.95,-362.667 2673.95,-362.667 2673.95,-355.333 2673.95,-355.333 2673.95,-351.667 2677.62,-348 2681.29,-348 2681.29,-348 2782.71,-348 2782.71,-348 2786.38,-348 2790.05,-351.667 2790.05,-355.333 2790.05,-355.333 2790.05,-362.667 2790.05,-362.667 2790.05,-366.333 2786.38,-370 2782.71,-370"/>
<text text-anchor="middle" x="2732" y="-355.4" font-family="Helvetica,sans-Serif" font-size="12.00" fill="white">_ForwardIndexType</text>
</a>
</g>
</g>
<!-- _ForwardIndexType&#45;&gt;ForwardIndexType -->
<g id="edge74" class="edge">
<path fill="none" stroke="#cccccc" d="M2767.58,-347.988C2800.58,-338.7 2849.87,-324.832 2885.68,-314.754"/>
<polygon fill="#cccccc" stroke="#cccccc" points="2886.72,-318.097 2895.4,-312.019 2884.82,-311.359 2886.72,-318.097"/>
</g>
<!-- _ForwardIndexType&#45;&gt;_BidirectionalIndexType -->
<g id="edge75" class="edge">
<path fill="none" stroke="#cccccc" d="M2696.42,-347.988C2663.42,-338.7 2614.13,-324.832 2578.32,-314.754"/>
<polygon fill="#cccccc" stroke="#cccccc" points="2579.18,-311.359 2568.6,-312.019 2577.28,-318.097 2579.18,-311.359"/>
</g>
<!-- _Incrementable&#45;&gt;_ForwardIndexType -->
<g id="edge72" class="edge">
<path fill="none" stroke="#cccccc" d="M2732,-405.988C2732,-398.91 2732,-389.171 2732,-380.478"/>
<polygon fill="#cccccc" stroke="#cccccc" points="2735.5,-380.304 2732,-370.304 2728.5,-380.304 2735.5,-380.304"/>
</g>
<!-- _Incrementable&#45;&gt;_IntegerType -->
<g id="edge73" class="edge">
<path fill="none" stroke="#cccccc" d="M2685.95,-407.814C2486.27,-372.323 1696.11,-231.878 1488.3,-194.94"/>
<polygon fill="#cccccc" stroke="#cccccc" points="1488.73,-191.463 1478.27,-193.159 1487.51,-198.355 1488.73,-191.463"/>
</g>
<!-- _IntegerType&#45;&gt;IntegerType -->
<g id="edge23" class="edge">
<path fill="none" stroke="#cccccc" d="M1459.45,-173.988C1478.28,-165.204 1505.88,-152.322 1527.09,-142.425"/>
<polygon fill="#cccccc" stroke="#cccccc" points="1528.75,-145.514 1536.33,-138.114 1525.79,-139.171 1528.75,-145.514"/>
</g>
<!-- _IntegerType&#45;&gt;_SignedIntegerType -->
<g id="edge24" class="edge">
<path fill="none" stroke="#cccccc" d="M1397.87,-175.857C1351.52,-166.453 1274.82,-150.891 1221.52,-140.076"/>
<polygon fill="#cccccc" stroke="#cccccc" points="1222.02,-136.606 1211.52,-138.048 1220.62,-143.466 1222.02,-136.606"/>
</g>
<!-- _UnsignedIntegerType -->
<g id="node63" class="node">
<g id="a_node63"><a xlink:href="/v1.2/protocol/_UnsignedIntegerType/hierarchy/" target="_top">
<path fill="#999999" stroke="#999999" d="M1495.73,-138C1495.73,-138 1380.27,-138 1380.27,-138 1376.6,-138 1372.93,-134.333 1372.93,-130.667 1372.93,-130.667 1372.93,-123.333 1372.93,-123.333 1372.93,-119.667 1376.6,-116 1380.27,-116 1380.27,-116 1495.73,-116 1495.73,-116 1499.4,-116 1503.07,-119.667 1503.07,-123.333 1503.07,-123.333 1503.07,-130.667 1503.07,-130.667 1503.07,-134.333 1499.4,-138 1495.73,-138"/>
<text text-anchor="middle" x="1438" y="-123.4" font-family="Helvetica,sans-Serif" font-size="12.00" fill="white">_UnsignedIntegerType</text>
</a>
</g>
</g>
<!-- _IntegerType&#45;&gt;_UnsignedIntegerType -->
<g id="edge25" class="edge">
<path fill="none" stroke="#cccccc" d="M1438,-173.988C1438,-166.91 1438,-157.171 1438,-148.478"/>
<polygon fill="#cccccc" stroke="#cccccc" points="1441.5,-148.304 1438,-138.304 1434.5,-148.304 1441.5,-148.304"/>
</g>
<!-- _RandomAccessIndexType&#45;&gt;RandomAccessIndexType -->
<g id="edge46" class="edge">
<path fill="none" stroke="#cccccc" d="M2182.94,-231.988C2162.52,-223.124 2132.49,-210.09 2109.62,-200.159"/>
<polygon fill="#cccccc" stroke="#cccccc" points="2110.86,-196.885 2100.3,-196.114 2108.08,-203.306 2110.86,-196.885"/>
</g>
<!-- _RawOptionSetType&#45;&gt;RawOptionSetType -->
<g id="edge87" class="edge">
<path fill="none" stroke="#cccccc" d="M4146,-405.988C4146,-398.91 4146,-389.171 4146,-380.478"/>
<polygon fill="#cccccc" stroke="#cccccc" points="4149.5,-380.304 4146,-370.304 4142.5,-380.304 4149.5,-380.304"/>
</g>
<!-- _SignedIntegerType&#45;&gt;SignedIntegerType -->
<g id="edge39" class="edge">
<path fill="none" stroke="#cccccc" d="M1162,-115.988C1162,-108.91 1162,-99.1714 1162,-90.4779"/>
<polygon fill="#cccccc" stroke="#cccccc" points="1165.5,-90.3038 1162,-80.3039 1158.5,-90.3039 1165.5,-90.3038"/>
</g>
<!-- _SignedNumberType&#45;&gt;SignedNumberType -->
<g id="edge52" class="edge">
<path fill="none" stroke="#cccccc" d="M932.972,-231.988C938.231,-224.438 945.597,-213.861 951.939,-204.754"/>
<polygon fill="#cccccc" stroke="#cccccc" points="954.981,-206.51 957.824,-196.304 949.237,-202.51 954.981,-206.51"/>
</g>
<!-- _UnsignedIntegerType&#45;&gt;UnsignedIntegerType -->
<g id="edge40" class="edge">
<path fill="none" stroke="#cccccc" d="M1493.96,-115.988C1547.54,-106.402 1628.38,-91.9381 1685.06,-81.7971"/>
<polygon fill="#cccccc" stroke="#cccccc" points="1685.77,-85.2258 1695,-80.0192 1684.54,-78.3352 1685.77,-85.2258"/>
</g>
</g>
</svg>
