<?xml version="1.0" encoding="UTF-8" standalone="no"?>
<!DOCTYPE svg PUBLIC "-//W3C//DTD SVG 1.1//EN"
 "http://www.w3.org/Graphics/SVG/1.1/DTD/svg11.dtd">
<!-- Generated by graphviz version 2.36.0 (20140111.2315)
 -->
<!-- Title: Equatable &#45; Type Hierarchy &#45; SwiftDoc.org Pages: 1 -->
<svg width="4822pt" height="543pt"
 viewBox="0.00 0.00 4822.40 543.20" xmlns="http://www.w3.org/2000/svg" xmlns:xlink="http://www.w3.org/1999/xlink">
<g id="graph0" class="graph" transform="scale(1 1) rotate(0) translate(7.2 485.6)">
<g transform="translate(0 -485.6)">
<g>
    <path fill="#666666" d="M13.846,10.832c-0.336-0.464-0.792-0.844-1.368-1.14s-1.224-0.444-1.944-0.444
        c-0.384,0-0.772,0.052-1.164,0.156C8.977,9.509,8.622,9.677,8.301,9.908c-0.32,0.232-0.58,0.52-0.78,0.864
        c-0.2,0.344-0.3,0.756-0.3,1.236c0,0.464,0.092,0.852,0.276,1.164c0.184,0.312,0.432,0.576,0.744,0.792s0.68,0.4,1.104,0.552
        c0.423,0.152,0.876,0.309,1.356,0.468c0.576,0.177,1.16,0.376,1.752,0.601c0.592,0.224,1.128,0.52,1.608,0.888
        s0.872,0.828,1.176,1.38s0.456,1.252,0.456,2.101c0,0.88-0.164,1.644-0.492,2.292c-0.328,0.647-0.765,1.184-1.308,1.607
        c-0.544,0.424-1.172,0.74-1.884,0.948s-1.444,0.312-2.196,0.312c-1.072,0-2.108-0.208-3.108-0.624
        c-1-0.415-1.828-1.031-2.484-1.848l1.848-1.56c0.4,0.592,0.936,1.071,1.608,1.439c0.672,0.368,1.399,0.552,2.184,0.552
        c0.4,0,0.8-0.056,1.2-0.168c0.4-0.111,0.764-0.288,1.092-0.527c0.328-0.24,0.596-0.54,0.804-0.9
        c0.208-0.36,0.312-0.796,0.312-1.308s-0.108-0.94-0.324-1.284c-0.216-0.344-0.508-0.636-0.876-0.876s-0.796-0.444-1.284-0.612
        c-0.488-0.168-1.004-0.34-1.548-0.516c-0.544-0.16-1.08-0.356-1.608-0.588c-0.528-0.232-1-0.528-1.416-0.889
        c-0.416-0.359-0.752-0.804-1.008-1.332c-0.256-0.527-0.384-1.184-0.384-1.968c0-0.848,0.172-1.576,0.516-2.184
        c0.344-0.608,0.792-1.112,1.344-1.512c0.552-0.4,1.176-0.692,1.872-0.876c0.696-0.184,1.396-0.276,2.1-0.276
        c0.992,0,1.92,0.176,2.784,0.528c0.864,0.352,1.56,0.824,2.088,1.416L13.846,10.832z"/>
    <path fill="#666666" d="M18.813,13.304l2.568,8.688h0.048l2.712-8.688h2.376l2.76,8.688h0.048l2.568-8.688h2.376L30.501,24.68
        h-2.352l-2.808-8.544h-0.048l-2.784,8.544h-2.352l-3.792-11.376H18.813z"/>
    <path fill="#666666" d="M38.685,9.2c0,0.416-0.147,0.76-0.44,1.032c-0.294,0.272-0.647,0.408-1.06,0.408s-0.762-0.14-1.047-0.42
        c-0.286-0.28-0.429-0.62-0.429-1.02c0-0.416,0.143-0.764,0.429-1.044c0.286-0.28,0.635-0.42,1.047-0.42s0.766,0.14,1.06,0.42
        C38.538,8.437,38.685,8.784,38.685,9.2z M38.325,24.68h-2.256V13.304h2.256V24.68z"/>
    <path fill="#666666" d="M47.613,15.152h-2.64v9.528h-2.256v-9.528h-2.256v-1.848h2.256v-2.376c0-0.672,0.076-1.292,0.228-1.86
        c0.152-0.568,0.4-1.06,0.744-1.476c0.344-0.416,0.784-0.744,1.32-0.984c0.536-0.24,1.188-0.36,1.956-0.36
        c0.544,0,1.016,0.056,1.416,0.168l-0.264,1.944c-0.176-0.048-0.352-0.088-0.528-0.12c-0.176-0.032-0.376-0.048-0.6-0.048
        c-0.432,0-0.78,0.076-1.044,0.228c-0.264,0.152-0.468,0.356-0.612,0.612s-0.24,0.548-0.288,0.876
        c-0.048,0.328-0.072,0.668-0.072,1.02v2.376h2.64V15.152z"/>
    <path fill="#666666" d="M54.909,15.152h-3.024v5.91c0,0.687,0.128,1.177,0.384,1.472c0.256,0.295,0.664,0.442,1.224,0.442
        c0.208,0,0.432-0.021,0.672-0.065c0.24-0.044,0.456-0.11,0.648-0.198l0.072,1.848c-0.272,0.096-0.572,0.172-0.9,0.229
        c-0.328,0.056-0.668,0.084-1.02,0.084c-1.072,0-1.892-0.296-2.46-0.889c-0.568-0.592-0.852-1.479-0.852-2.664v-6.168h-2.184
        v-1.848h2.184V10.04h2.232v3.264h3.024V15.152z"/>
    <path fill="#666666" d="M57.356,7.688h5.832c1.088,0,2.176,0.16,3.264,0.48c1.088,0.32,2.072,0.824,2.952,1.512
        s1.592,1.568,2.136,2.64c0.544,1.072,0.816,2.36,0.816,3.864c0,1.456-0.272,2.716-0.816,3.78s-1.256,1.943-2.136,2.64
        s-1.864,1.216-2.952,1.561c-1.088,0.344-2.176,0.516-3.264,0.516h-5.832V7.688z M59.732,22.593h2.976
        c1.024,0,1.972-0.145,2.844-0.432c0.872-0.288,1.624-0.704,2.256-1.248c0.632-0.544,1.124-1.216,1.476-2.017
        c0.352-0.8,0.528-1.704,0.528-2.712c0-1.056-0.176-1.983-0.528-2.784c-0.353-0.8-0.844-1.468-1.476-2.004
        c-0.632-0.536-1.384-0.944-2.256-1.224s-1.82-0.42-2.844-0.42h-2.976V22.593z"/>
    <path fill="#666666" d="M86.06,18.969c0,0.88-0.156,1.688-0.468,2.424c-0.312,0.736-0.744,1.372-1.296,1.908
        c-0.552,0.536-1.204,0.952-1.956,1.248c-0.752,0.296-1.56,0.443-2.424,0.443c-0.864,0-1.672-0.147-2.424-0.443
        c-0.752-0.296-1.4-0.712-1.944-1.248c-0.544-0.536-0.972-1.172-1.284-1.908c-0.312-0.735-0.468-1.544-0.468-2.424
        s0.156-1.684,0.468-2.412c0.312-0.728,0.74-1.356,1.284-1.884c0.543-0.528,1.191-0.939,1.944-1.236
        c0.752-0.296,1.56-0.444,2.424-0.444c0.864,0,1.672,0.148,2.424,0.444c0.752,0.297,1.404,0.708,1.956,1.236
        c0.552,0.527,0.984,1.156,1.296,1.884C85.904,17.285,86.06,18.089,86.06,18.969z M83.708,18.98c0-0.542-0.084-1.061-0.252-1.556
        c-0.169-0.494-0.414-0.929-0.734-1.304s-0.718-0.674-1.192-0.897s-1.015-0.335-1.625-0.335c-0.61,0-1.152,0.111-1.625,0.335
        c-0.474,0.224-0.871,0.522-1.191,0.897c-0.321,0.375-0.566,0.81-0.734,1.304C76.184,17.92,76.1,18.438,76.1,18.98
        c0,0.543,0.084,1.062,0.253,1.556c0.168,0.495,0.413,0.934,0.734,1.316c0.321,0.383,0.718,0.686,1.191,0.909
        c0.473,0.224,1.015,0.335,1.625,0.335c0.61,0,1.151-0.111,1.625-0.335s0.871-0.526,1.192-0.909s0.565-0.821,0.734-1.316
        C83.624,20.042,83.708,19.523,83.708,18.98z"/>
    <path fill="#666666" d="M96.428,16.184c-0.24-0.368-0.6-0.676-1.08-0.924s-0.992-0.372-1.536-0.372
        c-0.592,0-1.116,0.112-1.572,0.336c-0.456,0.225-0.844,0.524-1.164,0.9c-0.32,0.376-0.564,0.812-0.732,1.308
        s-0.252,1.017-0.252,1.56c0,0.545,0.084,1.064,0.252,1.561s0.412,0.933,0.732,1.308c0.32,0.376,0.712,0.677,1.176,0.9
        c0.464,0.225,0.992,0.336,1.584,0.336c0.576,0,1.1-0.111,1.572-0.336c0.472-0.224,0.86-0.528,1.164-0.912l1.512,1.368
        c-0.48,0.561-1.08,0.996-1.8,1.308c-0.72,0.312-1.536,0.468-2.448,0.468c-0.88,0-1.692-0.144-2.436-0.432
        c-0.744-0.288-1.388-0.691-1.932-1.212c-0.544-0.52-0.972-1.147-1.284-1.884s-0.468-1.561-0.468-2.473
        c0-0.896,0.152-1.711,0.456-2.447c0.304-0.736,0.728-1.368,1.272-1.896c0.543-0.527,1.188-0.936,1.932-1.224
        c0.744-0.288,1.548-0.433,2.412-0.433c0.8,0,1.596,0.16,2.388,0.48s1.419,0.784,1.884,1.392L96.428,16.184z"/>
    <path fill="#666666" d="M103.1,23.24c0,0.417-0.152,0.784-0.456,1.104c-0.304,0.32-0.688,0.479-1.152,0.479
        c-0.448,0-0.828-0.155-1.14-0.468c-0.312-0.312-0.468-0.676-0.468-1.092c0-0.432,0.152-0.804,0.456-1.116
        c0.304-0.312,0.688-0.468,1.152-0.468c0.464,0,0.848,0.152,1.152,0.456C102.947,22.44,103.1,22.808,103.1,23.24z"/>
    <path fill="#666666" d="M116.635,18.969c0,0.88-0.156,1.688-0.468,2.424c-0.312,0.736-0.744,1.372-1.296,1.908
        c-0.552,0.536-1.204,0.952-1.956,1.248c-0.752,0.296-1.56,0.443-2.424,0.443c-0.864,0-1.672-0.147-2.424-0.443
        c-0.752-0.296-1.4-0.712-1.944-1.248c-0.544-0.536-0.972-1.172-1.284-1.908c-0.312-0.735-0.468-1.544-0.468-2.424
        s0.156-1.684,0.468-2.412c0.312-0.728,0.74-1.356,1.284-1.884c0.543-0.528,1.191-0.939,1.944-1.236
        c0.752-0.296,1.56-0.444,2.424-0.444c0.864,0,1.672,0.148,2.424,0.444c0.752,0.297,1.404,0.708,1.956,1.236
        c0.552,0.527,0.984,1.156,1.296,1.884C116.479,17.285,116.635,18.089,116.635,18.969z M114.283,18.98
        c0-0.542-0.084-1.061-0.252-1.556c-0.169-0.494-0.414-0.929-0.734-1.304s-0.718-0.674-1.192-0.897s-1.015-0.335-1.625-0.335
        c-0.61,0-1.152,0.111-1.625,0.335c-0.474,0.224-0.871,0.522-1.191,0.897c-0.321,0.375-0.566,0.81-0.734,1.304
        c-0.169,0.495-0.253,1.014-0.253,1.556c0,0.543,0.084,1.062,0.253,1.556c0.168,0.495,0.413,0.934,0.734,1.316
        c0.321,0.383,0.718,0.686,1.191,0.909c0.473,0.224,1.015,0.335,1.625,0.335c0.61,0,1.151-0.111,1.625-0.335
        s0.871-0.526,1.192-0.909s0.565-0.821,0.734-1.316C114.199,20.042,114.283,19.523,114.283,18.98z"/>
    <path fill="#666666" d="M119.251,14.577c-0.016-0.48-0.04-0.904-0.072-1.272h2.136c0.032,0.288,0.056,0.62,0.072,0.996
        c0.016,0.376,0.024,0.684,0.024,0.924h0.072c0.32-0.672,0.788-1.212,1.404-1.62c0.616-0.408,1.308-0.612,2.076-0.612
        c0.352,0,0.648,0.033,0.888,0.097l-0.096,2.088c-0.32-0.08-0.664-0.12-1.032-0.12c-0.544,0-1.016,0.101-1.416,0.3
        c-0.4,0.2-0.732,0.468-0.996,0.805c-0.264,0.336-0.46,0.724-0.588,1.163c-0.128,0.44-0.192,0.9-0.192,1.381v5.976h-2.256v-8.928
        C119.275,15.449,119.267,15.056,119.251,14.577z"/>
    <path fill="#666666" d="M128.419,26.625c0.496,0.56,1.116,1.008,1.86,1.344c0.744,0.336,1.508,0.504,2.292,0.504
        c0.752,0,1.384-0.108,1.896-0.324s0.924-0.512,1.236-0.888s0.536-0.82,0.672-1.332c0.136-0.513,0.204-1.064,0.204-1.656v-1.464
        h-0.048c-0.416,0.641-0.984,1.128-1.704,1.464c-0.72,0.336-1.488,0.504-2.304,0.504c-0.864,0-1.652-0.151-2.364-0.456
        c-0.712-0.304-1.316-0.72-1.812-1.248c-0.496-0.527-0.88-1.147-1.152-1.859s-0.408-1.477-0.408-2.292
        c0-0.816,0.136-1.584,0.408-2.305c0.272-0.72,0.656-1.348,1.152-1.884c0.496-0.535,1.096-0.96,1.8-1.271
        c0.704-0.312,1.488-0.469,2.352-0.469c0.816,0,1.596,0.177,2.34,0.528c0.744,0.353,1.332,0.888,1.764,1.608h0.048v-1.824h2.184
        v10.8c0,0.832-0.104,1.628-0.312,2.388c-0.208,0.76-0.56,1.433-1.056,2.017s-1.144,1.052-1.944,1.404
        c-0.8,0.352-1.792,0.527-2.976,0.527c-0.992,0-1.988-0.18-2.988-0.54c-1-0.359-1.86-0.868-2.58-1.523L128.419,26.625z
         M129.091,18.873c0,0.527,0.084,1.031,0.253,1.512c0.168,0.479,0.417,0.904,0.746,1.271c0.329,0.369,0.726,0.664,1.192,0.889
        c0.465,0.224,0.995,0.336,1.589,0.336c0.577,0,1.107-0.104,1.589-0.312c0.481-0.207,0.891-0.491,1.228-0.852
        s0.598-0.784,0.782-1.272c0.185-0.487,0.277-1.012,0.277-1.571c0-0.544-0.093-1.057-0.277-1.536
        c-0.185-0.48-0.449-0.904-0.794-1.272c-0.345-0.367-0.755-0.66-1.228-0.876c-0.474-0.216-1-0.324-1.577-0.324
        c-0.594,0-1.124,0.108-1.589,0.324c-0.466,0.216-0.863,0.504-1.192,0.864s-0.578,0.784-0.746,1.271
        C129.175,17.812,129.091,18.329,129.091,18.873z"/>
</g>
<g><a xlink:href="/" pointer-events="all" target="_top"><polygon fill="none" points="0,0 145,0 145,35 0,35 0,0"/></a></g>

</g>


<!-- AbsoluteValuable -->
<g id="node1" class="node">
<g id="a_node1"><a xlink:href="/v2.0/protocol/AbsoluteValuable/" target="_top">
<path fill="#999999" stroke="#999999" d="M822.558,-138C822.558,-138 735.442,-138 735.442,-138 731.775,-138 728.109,-134.333 728.109,-130.667 728.109,-130.667 728.109,-123.333 728.109,-123.333 728.109,-119.667 731.775,-116 735.442,-116 735.442,-116 822.558,-116 822.558,-116 826.225,-116 829.891,-119.667 829.891,-123.333 829.891,-123.333 829.891,-130.667 829.891,-130.667 829.891,-134.333 826.225,-138 822.558,-138"/>
<text text-anchor="middle" x="779" y="-123.4" font-family="Helvetica,sans-Serif" font-size="12.00" fill="white">AbsoluteValuable</text>
</a>
</g>
</g>
<!-- Double -->
<g id="node14" class="node">
<g id="a_node14"><a xlink:href="/v2.0/type/Double/" target="_top">
<polygon fill="#999999" stroke="#999999" points="826,-22 772,-22 772,-0 826,-0 826,-22"/>
<text text-anchor="middle" x="799" y="-7.4" font-family="Helvetica,sans-Serif" font-size="12.00" fill="white">Double</text>
</a>
</g>
</g>
<!-- AbsoluteValuable&#45;&gt;Double -->
<g id="edge44" class="edge">
<path fill="none" stroke="#cccccc" d="M781.75,-115.833C784.184,-106.555 787.697,-92.4339 790,-80 792.948,-64.0826 795.303,-45.8959 796.864,-32.3381"/>
<polygon fill="#cccccc" stroke="#cccccc" points="800.365,-32.5132 797.983,-22.1897 793.408,-31.7457 800.365,-32.5132"/>
</g>
<!-- Float -->
<g id="node18" class="node">
<g id="a_node18"><a xlink:href="/v2.0/type/Float/" target="_top">
<polygon fill="#999999" stroke="#999999" points="754,-22 700,-22 700,-0 754,-0 754,-22"/>
<text text-anchor="middle" x="727" y="-7.4" font-family="Helvetica,sans-Serif" font-size="12.00" fill="white">Float</text>
</a>
</g>
</g>
<!-- AbsoluteValuable&#45;&gt;Float -->
<g id="edge45" class="edge">
<path fill="none" stroke="#cccccc" d="M775.349,-115.7C770.477,-102.237 761.372,-78.0163 752,-58 747.734,-48.8885 742.483,-39.0566 737.897,-30.8306"/>
<polygon fill="#cccccc" stroke="#cccccc" points="740.895,-29.0224 732.917,-22.0511 734.806,-32.4761 740.895,-29.0224"/>
</g>
<!-- Float80 -->
<g id="node19" class="node">
<g id="a_node19"><a xlink:href="/v2.0/type/Float80/" target="_top">
<polygon fill="#999999" stroke="#999999" points="682,-22 628,-22 628,-0 682,-0 682,-22"/>
<text text-anchor="middle" x="655" y="-7.4" font-family="Helvetica,sans-Serif" font-size="12.00" fill="white">Float80</text>
</a>
</g>
</g>
<!-- AbsoluteValuable&#45;&gt;Float80 -->
<g id="edge46" class="edge">
<path fill="none" stroke="#cccccc" d="M767.996,-115.883C746.724,-96.3273 699.758,-53.1482 673.567,-29.07"/>
<polygon fill="#cccccc" stroke="#cccccc" points="675.888,-26.4494 666.158,-22.2579 671.151,-31.6026 675.888,-26.4494"/>
</g>
<!-- AnyBidirectionalIndex -->
<g id="node2" class="node">
<g id="a_node2"><a xlink:href="/v2.0/type/AnyBidirectionalIndex/" target="_top">
<polygon fill="#999999" stroke="#999999" points="3100.55,-22 2975.45,-22 2975.45,-0 3100.55,-0 3100.55,-22"/>
<text text-anchor="middle" x="3038" y="-7.4" font-family="Helvetica,sans-Serif" font-size="12.00" fill="white">AnyBidirectionalIndex</text>
</a>
</g>
</g>
<!-- AnyForwardIndex -->
<g id="node3" class="node">
<g id="a_node3"><a xlink:href="/v2.0/type/AnyForwardIndex/" target="_top">
<polygon fill="#999999" stroke="#999999" points="3661.03,-22 3556.97,-22 3556.97,-0 3661.03,-0 3661.03,-22"/>
<text text-anchor="middle" x="3609" y="-7.4" font-family="Helvetica,sans-Serif" font-size="12.00" fill="white">AnyForwardIndex</text>
</a>
</g>
</g>
<!-- AnyRandomAccessIndex -->
<g id="node4" class="node">
<g id="a_node4"><a xlink:href="/v2.0/type/AnyRandomAccessIndex/" target="_top">
<polygon fill="#999999" stroke="#999999" points="2030.05,-22 1885.95,-22 1885.95,-0 2030.05,-0 2030.05,-22"/>
<text text-anchor="middle" x="1958" y="-7.4" font-family="Helvetica,sans-Serif" font-size="12.00" fill="white">AnyRandomAccessIndex</text>
</a>
</g>
</g>
<!-- AutoreleasingUnsafeMutablePointer -->
<g id="node5" class="node">
<g id="a_node5"><a xlink:href="/v2.0/type/AutoreleasingUnsafeMutablePointer/" target="_top">
<polygon fill="#999999" stroke="#999999" points="4137.09,-22 3934.91,-22 3934.91,-0 4137.09,-0 4137.09,-22"/>
<text text-anchor="middle" x="4036" y="-7.4" font-family="Helvetica,sans-Serif" font-size="12.00" fill="white">AutoreleasingUnsafeMutablePointer</text>
</a>
</g>
</g>
<!-- BidirectionalIndexType -->
<g id="node6" class="node">
<g id="a_node6"><a xlink:href="/v2.0/protocol/BidirectionalIndexType/" target="_top">
<path fill="#999999" stroke="#999999" d="M2734.73,-254C2734.73,-254 2619.27,-254 2619.27,-254 2615.61,-254 2611.94,-250.333 2611.94,-246.667 2611.94,-246.667 2611.94,-239.333 2611.94,-239.333 2611.94,-235.667 2615.61,-232 2619.27,-232 2619.27,-232 2734.73,-232 2734.73,-232 2738.39,-232 2742.06,-235.667 2742.06,-239.333 2742.06,-239.333 2742.06,-246.667 2742.06,-246.667 2742.06,-250.333 2738.39,-254 2734.73,-254"/>
<text text-anchor="middle" x="2677" y="-239.4" font-family="Helvetica,sans-Serif" font-size="12.00" fill="white">BidirectionalIndexType</text>
</a>
</g>
</g>
<!-- BidirectionalIndexType&#45;&gt;AnyBidirectionalIndex -->
<g id="edge80" class="edge">
<path fill="none" stroke="#cccccc" d="M2692.98,-231.82C2750.18,-195.378 2944.98,-71.2645 3013.73,-27.4612"/>
<polygon fill="#cccccc" stroke="#cccccc" points="3015.65,-30.3872 3022.21,-22.062 3011.89,-24.4836 3015.65,-30.3872"/>
</g>
<!-- FlattenBidirectionalCollectionIndex -->
<g id="node16" class="node">
<g id="a_node16"><a xlink:href="/v2.0/type/FlattenBidirectionalCollectionIndex/" target="_top">
<polygon fill="#999999" stroke="#999999" points="3313.08,-22 3118.92,-22 3118.92,-0 3313.08,-0 3313.08,-22"/>
<text text-anchor="middle" x="3216" y="-7.4" font-family="Helvetica,sans-Serif" font-size="12.00" fill="white">FlattenBidirectionalCollectionIndex</text>
</a>
</g>
</g>
<!-- BidirectionalIndexType&#45;&gt;FlattenBidirectionalCollectionIndex -->
<g id="edge81" class="edge">
<path fill="none" stroke="#cccccc" d="M2700.51,-231.969C2786.39,-195.319 3083.4,-68.5834 3183.08,-26.0464"/>
<polygon fill="#cccccc" stroke="#cccccc" points="3184.55,-29.2275 3192.37,-22.0835 3181.8,-22.7892 3184.55,-29.2275"/>
</g>
<!-- RandomAccessIndexType -->
<g id="node36" class="node">
<g id="a_node36"><a xlink:href="/v2.0/protocol/RandomAccessIndexType/" target="_top">
<path fill="#999999" stroke="#999999" d="M1627.23,-196C1627.23,-196 1492.77,-196 1492.77,-196 1489.11,-196 1485.44,-192.333 1485.44,-188.667 1485.44,-188.667 1485.44,-181.333 1485.44,-181.333 1485.44,-177.667 1489.11,-174 1492.77,-174 1492.77,-174 1627.23,-174 1627.23,-174 1630.89,-174 1634.56,-177.667 1634.56,-181.333 1634.56,-181.333 1634.56,-188.667 1634.56,-188.667 1634.56,-192.333 1630.89,-196 1627.23,-196"/>
<text text-anchor="middle" x="1560" y="-181.4" font-family="Helvetica,sans-Serif" font-size="12.00" fill="white">RandomAccessIndexType</text>
</a>
</g>
</g>
<!-- BidirectionalIndexType&#45;&gt;RandomAccessIndexType -->
<g id="edge82" class="edge">
<path fill="none" stroke="#cccccc" d="M2611.71,-238.727C2420.14,-229.123 1859.63,-201.022 1644.98,-190.261"/>
<polygon fill="#cccccc" stroke="#cccccc" points="1644.88,-186.751 1634.72,-189.746 1644.53,-193.742 1644.88,-186.751"/>
</g>
<!-- ReverseIndexType -->
<g id="node39" class="node">
<g id="a_node39"><a xlink:href="/v2.0/protocol/ReverseIndexType/" target="_top">
<path fill="#999999" stroke="#999999" d="M2818.71,-80C2818.71,-80 2723.29,-80 2723.29,-80 2719.62,-80 2715.95,-76.3333 2715.95,-72.6667 2715.95,-72.6667 2715.95,-65.3333 2715.95,-65.3333 2715.95,-61.6667 2719.62,-58 2723.29,-58 2723.29,-58 2818.71,-58 2818.71,-58 2822.38,-58 2826.05,-61.6667 2826.05,-65.3333 2826.05,-65.3333 2826.05,-72.6667 2826.05,-72.6667 2826.05,-76.3333 2822.38,-80 2818.71,-80"/>
<text text-anchor="middle" x="2771" y="-65.4" font-family="Helvetica,sans-Serif" font-size="12.00" fill="white">ReverseIndexType</text>
</a>
</g>
</g>
<!-- BidirectionalIndexType&#45;&gt;ReverseIndexType -->
<g id="edge83" class="edge">
<path fill="none" stroke="#cccccc" d="M2682.6,-231.756C2697.84,-203.859 2740.29,-126.185 2760.3,-89.5708"/>
<polygon fill="#cccccc" stroke="#cccccc" points="2763.59,-90.8616 2765.31,-80.4081 2757.44,-87.5046 2763.59,-90.8616"/>
</g>
<!-- String.CharacterView.Index -->
<g id="node48" class="node">
<g id="a_node48"><a xlink:href="/v2.0/type/String.CharacterView.Index/" target="_top">
<polygon fill="#999999" stroke="#999999" points="2313.4,-22 2158.6,-22 2158.6,-0 2313.4,-0 2313.4,-22"/>
<text text-anchor="middle" x="2236" y="-7.4" font-family="Helvetica,sans-Serif" font-size="12.00" fill="white">String.CharacterView.Index</text>
</a>
</g>
</g>
<!-- BidirectionalIndexType&#45;&gt;String.CharacterView.Index -->
<g id="edge84" class="edge">
<path fill="none" stroke="#cccccc" d="M2657.77,-231.969C2587.92,-195.541 2347.43,-70.1148 2264.43,-26.8282"/>
<polygon fill="#cccccc" stroke="#cccccc" points="2265.82,-23.6046 2255.33,-22.0835 2262.58,-29.8112 2265.82,-23.6046"/>
</g>
<!-- String.UTF16View.Index -->
<g id="node49" class="node">
<g id="a_node49"><a xlink:href="/v2.0/type/String.UTF16View.Index/" target="_top">
<polygon fill="#999999" stroke="#999999" points="2470.39,-22 2331.61,-22 2331.61,-0 2470.39,-0 2470.39,-22"/>
<text text-anchor="middle" x="2401" y="-7.4" font-family="Helvetica,sans-Serif" font-size="12.00" fill="white">String.UTF16View.Index</text>
</a>
</g>
</g>
<!-- BidirectionalIndexType&#45;&gt;String.UTF16View.Index -->
<g id="edge86" class="edge">
<path fill="none" stroke="#cccccc" d="M2664.78,-231.82C2621.41,-195.676 2474.54,-73.285 2420.86,-28.5499"/>
<polygon fill="#cccccc" stroke="#cccccc" points="2423,-25.7751 2413.07,-22.062 2418.52,-31.1527 2423,-25.7751"/>
</g>
<!-- String.UnicodeScalarView.Index -->
<g id="node51" class="node">
<g id="a_node51"><a xlink:href="/v2.0/type/String.UnicodeScalarView.Index/" target="_top">
<polygon fill="#999999" stroke="#999999" points="2668.92,-22 2489.08,-22 2489.08,-0 2668.92,-0 2668.92,-22"/>
<text text-anchor="middle" x="2579" y="-7.4" font-family="Helvetica,sans-Serif" font-size="12.00" fill="white">String.UnicodeScalarView.Index</text>
</a>
</g>
</g>
<!-- BidirectionalIndexType&#45;&gt;String.UnicodeScalarView.Index -->
<g id="edge85" class="edge">
<path fill="none" stroke="#cccccc" d="M2672.66,-231.82C2657.58,-196.419 2607.24,-78.2851 2587.27,-31.4085"/>
<polygon fill="#cccccc" stroke="#cccccc" points="2590.43,-29.8898 2583.29,-22.062 2583.99,-32.6337 2590.43,-29.8898"/>
</g>
<!-- Bit -->
<g id="node7" class="node">
<g id="a_node7"><a xlink:href="/v2.0/type/Bit/" target="_top">
<polygon fill="#999999" stroke="#999999" points="1508,-22 1454,-22 1454,-0 1508,-0 1508,-22"/>
<text text-anchor="middle" x="1481" y="-7.4" font-family="Helvetica,sans-Serif" font-size="12.00" fill="white">Bit</text>
</a>
</g>
</g>
<!-- Bool -->
<g id="node8" class="node">
<g id="a_node8"><a xlink:href="/v2.0/type/Bool/" target="_top">
<polygon fill="#999999" stroke="#999999" points="54,-22 0,-22 0,-0 54,-0 54,-22"/>
<text text-anchor="middle" x="27" y="-7.4" font-family="Helvetica,sans-Serif" font-size="12.00" fill="white">Bool</text>
</a>
</g>
</g>
<!-- COpaquePointer -->
<g id="node9" class="node">
<g id="a_node9"><a xlink:href="/v2.0/type/COpaquePointer/" target="_top">
<polygon fill="#999999" stroke="#999999" points="251.542,-22 152.458,-22 152.458,-0 251.542,-0 251.542,-22"/>
<text text-anchor="middle" x="202" y="-7.4" font-family="Helvetica,sans-Serif" font-size="12.00" fill="white">COpaquePointer</text>
</a>
</g>
</g>
<!-- Character -->
<g id="node10" class="node">
<g id="a_node10"><a xlink:href="/v2.0/type/Character/" target="_top">
<polygon fill="#999999" stroke="#999999" points="134.017,-22 71.9827,-22 71.9827,-0 134.017,-0 134.017,-22"/>
<text text-anchor="middle" x="103" y="-7.4" font-family="Helvetica,sans-Serif" font-size="12.00" fill="white">Character</text>
</a>
</g>
</g>
<!-- ClosedInterval -->
<g id="node11" class="node">
<g id="a_node11"><a xlink:href="/v2.0/type/ClosedInterval/" target="_top">
<polygon fill="#999999" stroke="#999999" points="4241.03,-22 4154.97,-22 4154.97,-0 4241.03,-0 4241.03,-22"/>
<text text-anchor="middle" x="4198" y="-7.4" font-family="Helvetica,sans-Serif" font-size="12.00" fill="white">ClosedInterval</text>
</a>
</g>
</g>
<!-- Comparable -->
<g id="node12" class="node">
<g id="a_node12"><a xlink:href="/v2.0/protocol/Comparable/" target="_top">
<path fill="#999999" stroke="#999999" d="M1347.19,-312C1347.19,-312 1286.81,-312 1286.81,-312 1283.14,-312 1279.48,-308.333 1279.48,-304.667 1279.48,-304.667 1279.48,-297.333 1279.48,-297.333 1279.48,-293.667 1283.14,-290 1286.81,-290 1286.81,-290 1347.19,-290 1347.19,-290 1350.86,-290 1354.52,-293.667 1354.52,-297.333 1354.52,-297.333 1354.52,-304.667 1354.52,-304.667 1354.52,-308.333 1350.86,-312 1347.19,-312"/>
<text text-anchor="middle" x="1317" y="-297.4" font-family="Helvetica,sans-Serif" font-size="12.00" fill="white">Comparable</text>
</a>
</g>
</g>
<!-- Comparable&#45;&gt;Character -->
<g id="edge11" class="edge">
<path fill="none" stroke="#cccccc" d="M1279.61,-300.414C1078.35,-302.164 133,-304.096 133,-186 133,-186 133,-186 133,-126 133,-91.9018 120.292,-53.8995 111.418,-31.5184"/>
<polygon fill="#cccccc" stroke="#cccccc" points="114.6,-30.0523 107.556,-22.1378 108.127,-32.7173 114.6,-30.0523"/>
</g>
<!-- DictionaryIndex -->
<g id="node13" class="node">
<g id="a_node13"><a xlink:href="/v2.0/type/DictionaryIndex/" target="_top">
<polygon fill="#999999" stroke="#999999" points="2140.03,-22 2047.97,-22 2047.97,-0 2140.03,-0 2140.03,-22"/>
<text text-anchor="middle" x="2094" y="-7.4" font-family="Helvetica,sans-Serif" font-size="12.00" fill="white">DictionaryIndex</text>
</a>
</g>
</g>
<!-- Comparable&#45;&gt;DictionaryIndex -->
<g id="edge12" class="edge">
<path fill="none" stroke="#cccccc" d="M1354.35,-298.14C1503.07,-290.248 2045,-256.641 2045,-186 2045,-186 2045,-186 2045,-126 2045,-89.8086 2066.1,-52.0227 2080.61,-30.3214"/>
<polygon fill="#cccccc" stroke="#cccccc" points="2083.52,-32.2687 2086.34,-22.0572 2077.77,-28.2786 2083.52,-32.2687"/>
</g>
<!-- IntegerArithmeticType -->
<g id="node30" class="node">
<g id="a_node30"><a xlink:href="/v2.0/protocol/IntegerArithmeticType/" target="_top">
<path fill="#999999" stroke="#999999" d="M1372.71,-254C1372.71,-254 1261.29,-254 1261.29,-254 1257.62,-254 1253.96,-250.333 1253.96,-246.667 1253.96,-246.667 1253.96,-239.333 1253.96,-239.333 1253.96,-235.667 1257.62,-232 1261.29,-232 1261.29,-232 1372.71,-232 1372.71,-232 1376.38,-232 1380.04,-235.667 1380.04,-239.333 1380.04,-239.333 1380.04,-246.667 1380.04,-246.667 1380.04,-250.333 1376.38,-254 1372.71,-254"/>
<text text-anchor="middle" x="1317" y="-239.4" font-family="Helvetica,sans-Serif" font-size="12.00" fill="white">IntegerArithmeticType</text>
</a>
</g>
</g>
<!-- Comparable&#45;&gt;IntegerArithmeticType -->
<g id="edge13" class="edge">
<path fill="none" stroke="#cccccc" d="M1317,-289.988C1317,-282.91 1317,-273.171 1317,-264.478"/>
<polygon fill="#cccccc" stroke="#cccccc" points="1320.5,-264.304 1317,-254.304 1313.5,-264.304 1320.5,-264.304"/>
</g>
<!-- ObjectIdentifier -->
<g id="node34" class="node">
<g id="a_node34"><a xlink:href="/v2.0/type/ObjectIdentifier/" target="_top">
<polygon fill="#999999" stroke="#999999" points="360.031,-22 269.969,-22 269.969,-0 360.031,-0 360.031,-22"/>
<text text-anchor="middle" x="315" y="-7.4" font-family="Helvetica,sans-Serif" font-size="12.00" fill="white">ObjectIdentifier</text>
</a>
</g>
</g>
<!-- Comparable&#45;&gt;ObjectIdentifier -->
<g id="edge14" class="edge">
<path fill="none" stroke="#cccccc" d="M1279.44,-299.729C1097.88,-297.932 320,-284.488 320,-186 320,-186 320,-186 320,-126 320,-93.122 317.899,-54.9615 316.42,-32.1853"/>
<polygon fill="#cccccc" stroke="#cccccc" points="319.903,-31.8002 315.738,-22.0583 312.918,-32.2711 319.903,-31.8002"/>
</g>
<!-- SetIndex -->
<g id="node43" class="node">
<g id="a_node43"><a xlink:href="/v2.0/type/SetIndex/" target="_top">
<polygon fill="#999999" stroke="#999999" points="3388.52,-22 3331.48,-22 3331.48,-0 3388.52,-0 3388.52,-22"/>
<text text-anchor="middle" x="3360" y="-7.4" font-family="Helvetica,sans-Serif" font-size="12.00" fill="white">SetIndex</text>
</a>
</g>
</g>
<!-- Comparable&#45;&gt;SetIndex -->
<g id="edge15" class="edge">
<path fill="none" stroke="#cccccc" d="M1354.54,-299.878C1628.31,-298.753 3307,-287.707 3307,-186 3307,-186 3307,-186 3307,-126 3307,-89.5232 3329.59,-52.0873 3345.27,-30.4905"/>
<polygon fill="#cccccc" stroke="#cccccc" points="3348.26,-32.3447 3351.48,-22.2535 3342.67,-28.1295 3348.26,-32.3447"/>
</g>
<!-- SignedNumberType -->
<g id="node45" class="node">
<g id="a_node45"><a xlink:href="/v2.0/protocol/SignedNumberType/" target="_top">
<path fill="#999999" stroke="#999999" d="M1129.72,-196C1129.72,-196 1028.28,-196 1028.28,-196 1024.62,-196 1020.95,-192.333 1020.95,-188.667 1020.95,-188.667 1020.95,-181.333 1020.95,-181.333 1020.95,-177.667 1024.62,-174 1028.28,-174 1028.28,-174 1129.72,-174 1129.72,-174 1133.38,-174 1137.05,-177.667 1137.05,-181.333 1137.05,-181.333 1137.05,-188.667 1137.05,-188.667 1137.05,-192.333 1133.38,-196 1129.72,-196"/>
<text text-anchor="middle" x="1079" y="-181.4" font-family="Helvetica,sans-Serif" font-size="12.00" fill="white">SignedNumberType</text>
</a>
</g>
</g>
<!-- Comparable&#45;&gt;SignedNumberType -->
<g id="edge16" class="edge">
<path fill="none" stroke="#cccccc" d="M1295.88,-289.883C1253.54,-269.602 1158.15,-223.912 1109.21,-200.471"/>
<polygon fill="#cccccc" stroke="#cccccc" points="1110.6,-197.257 1100.07,-196.094 1107.58,-203.571 1110.6,-197.257"/>
</g>
<!-- Strideable -->
<g id="node46" class="node">
<g id="a_node46"><a xlink:href="/v2.0/protocol/Strideable/" target="_top">
<path fill="#999999" stroke="#999999" d="M1049.69,-254C1049.69,-254 1000.31,-254 1000.31,-254 996.64,-254 992.974,-250.333 992.974,-246.667 992.974,-246.667 992.974,-239.333 992.974,-239.333 992.974,-235.667 996.64,-232 1000.31,-232 1000.31,-232 1049.69,-232 1049.69,-232 1053.36,-232 1057.03,-235.667 1057.03,-239.333 1057.03,-239.333 1057.03,-246.667 1057.03,-246.667 1057.03,-250.333 1053.36,-254 1049.69,-254"/>
<text text-anchor="middle" x="1025" y="-239.4" font-family="Helvetica,sans-Serif" font-size="12.00" fill="white">Strideable</text>
</a>
</g>
</g>
<!-- Comparable&#45;&gt;Strideable -->
<g id="edge17" class="edge">
<path fill="none" stroke="#cccccc" d="M1279.42,-292.794C1224.9,-282.337 1124.16,-263.017 1067.17,-252.087"/>
<polygon fill="#cccccc" stroke="#cccccc" points="1067.54,-248.594 1057.06,-250.148 1066.22,-255.469 1067.54,-248.594"/>
</g>
<!-- String -->
<g id="node47" class="node">
<g id="a_node47"><a xlink:href="/v2.0/type/String/" target="_top">
<polygon fill="#999999" stroke="#999999" points="504,-22 450,-22 450,-0 504,-0 504,-22"/>
<text text-anchor="middle" x="477" y="-7.4" font-family="Helvetica,sans-Serif" font-size="12.00" fill="white">String</text>
</a>
</g>
</g>
<!-- Comparable&#45;&gt;String -->
<g id="edge18" class="edge">
<path fill="none" stroke="#cccccc" d="M1279.47,-297.739C1185.39,-291.825 941.468,-274.9 863,-254 801.864,-237.716 787.86,-227.515 733,-196 639.758,-142.437 538.856,-62.717 496.968,-28.5349"/>
<polygon fill="#cccccc" stroke="#cccccc" points="499.124,-25.7769 489.172,-22.142 494.685,-31.1896 499.124,-25.7769"/>
</g>
<!-- Comparable&#45;&gt;String.CharacterView.Index -->
<g id="edge20" class="edge">
<path fill="none" stroke="#cccccc" d="M1354.59,-298.862C1516.73,-293.463 2148,-267.23 2148,-186 2148,-186 2148,-186 2148,-126 2148,-83.994 2185.9,-48.0232 2211.96,-28.2581"/>
<polygon fill="#cccccc" stroke="#cccccc" points="2214.25,-30.9145 2220.27,-22.1912 2210.13,-25.2609 2214.25,-30.9145"/>
</g>
<!-- Comparable&#45;&gt;String.UTF16View.Index -->
<g id="edge22" class="edge">
<path fill="none" stroke="#cccccc" d="M1354.69,-299.297C1482.7,-296.642 1900,-285.705 2030,-254 2186.4,-215.856 2335.1,-78.2652 2384.11,-29.3822"/>
<polygon fill="#cccccc" stroke="#cccccc" points="2386.8,-31.642 2391.35,-22.0755 2381.83,-26.7144 2386.8,-31.642"/>
</g>
<!-- Comparable&#45;&gt;String.UnicodeScalarView.Index -->
<g id="edge21" class="edge">
<path fill="none" stroke="#cccccc" d="M1354.75,-299.534C1488.07,-297.603 1936.21,-288.628 2075,-254 2135.21,-238.978 2145.89,-222.499 2202,-196 2332.29,-134.466 2486.36,-58.1459 2549.64,-26.6461"/>
<polygon fill="#cccccc" stroke="#cccccc" points="2551.26,-29.7487 2558.66,-22.1574 2548.14,-23.483 2551.26,-29.7487"/>
</g>
<!-- UnicodeScalar -->
<g id="node57" class="node">
<g id="a_node57"><a xlink:href="/v2.0/type/UnicodeScalar/" target="_top">
<polygon fill="#999999" stroke="#999999" points="610.031,-22 521.969,-22 521.969,-0 610.031,-0 610.031,-22"/>
<text text-anchor="middle" x="566" y="-7.4" font-family="Helvetica,sans-Serif" font-size="12.00" fill="white">UnicodeScalar</text>
</a>
</g>
</g>
<!-- Comparable&#45;&gt;UnicodeScalar -->
<g id="edge19" class="edge">
<path fill="none" stroke="#cccccc" d="M1279.53,-296.427C1217.6,-290.164 1090.2,-275.766 984,-254 888.305,-234.386 859.554,-239.32 772,-196 687.645,-154.263 611.553,-68.3725 580.635,-30.5619"/>
<polygon fill="#cccccc" stroke="#cccccc" points="583.091,-28.031 574.089,-22.4428 577.641,-32.4246 583.091,-28.031"/>
</g>
<!-- Equatable -->
<g id="node15" class="node">
<g id="a_node15"><a xlink:href="/v2.0/protocol/Equatable/" target="_top">
<path fill="#ee543d" stroke="#ee543d" d="M4290.7,-428C4290.7,-428 4241.3,-428 4241.3,-428 4237.63,-428 4233.96,-424.333 4233.96,-420.667 4233.96,-420.667 4233.96,-413.333 4233.96,-413.333 4233.96,-409.667 4237.63,-406 4241.3,-406 4241.3,-406 4290.7,-406 4290.7,-406 4294.37,-406 4298.04,-409.667 4298.04,-413.333 4298.04,-413.333 4298.04,-420.667 4298.04,-420.667 4298.04,-424.333 4294.37,-428 4290.7,-428"/>
<text text-anchor="middle" x="4266" y="-413.4" font-family="Helvetica,sans-Serif" font-size="12.00" fill="white">Equatable</text>
</a>
</g>
</g>
<!-- Equatable&#45;&gt;AutoreleasingUnsafeMutablePointer -->
<g id="edge1" class="edge">
<path fill="none" stroke="#cccccc" d="M4233.53,-414.507C4170.13,-409.665 4036,-389.127 4036,-302 4036,-302 4036,-302 4036,-126 4036,-93.1536 4036,-54.9837 4036,-32.197"/>
<polygon fill="#cccccc" stroke="#cccccc" points="4039.5,-32.0648 4036,-22.0648 4032.5,-32.0648 4039.5,-32.0648"/>
</g>
<!-- Equatable&#45;&gt;ClosedInterval -->
<g id="edge2" class="edge">
<path fill="none" stroke="#cccccc" d="M4254.77,-405.906C4235.46,-387.373 4198,-345.786 4198,-302 4198,-302 4198,-302 4198,-126 4198,-93.1536 4198,-54.9837 4198,-32.197"/>
<polygon fill="#cccccc" stroke="#cccccc" points="4201.5,-32.0648 4198,-22.0648 4194.5,-32.0648 4201.5,-32.0648"/>
</g>
<!-- Equatable&#45;&gt;Comparable -->
<g id="edge3" class="edge">
<path fill="none" stroke="#cccccc" d="M4233.89,-414.759C3939.97,-403.397 1719.65,-317.565 1364.77,-303.847"/>
<polygon fill="#cccccc" stroke="#cccccc" points="1364.71,-300.342 1354.58,-303.453 1364.44,-307.337 1364.71,-300.342"/>
</g>
<!-- FloatingPointClassification -->
<g id="node20" class="node">
<g id="a_node20"><a xlink:href="/v2.0/type/FloatingPointClassification/" target="_top">
<polygon fill="#999999" stroke="#999999" points="4410.05,-22 4259.95,-22 4259.95,-0 4410.05,-0 4410.05,-22"/>
<text text-anchor="middle" x="4335" y="-7.4" font-family="Helvetica,sans-Serif" font-size="12.00" fill="white">FloatingPointClassification</text>
</a>
</g>
</g>
<!-- Equatable&#45;&gt;FloatingPointClassification -->
<g id="edge4" class="edge">
<path fill="none" stroke="#cccccc" d="M4277.39,-405.94C4296.99,-387.461 4335,-345.956 4335,-302 4335,-302 4335,-302 4335,-126 4335,-93.1536 4335,-54.9837 4335,-32.197"/>
<polygon fill="#cccccc" stroke="#cccccc" points="4338.5,-32.0648 4335,-22.0648 4331.5,-32.0648 4338.5,-32.0648"/>
</g>
<!-- HalfOpenInterval -->
<g id="node23" class="node">
<g id="a_node23"><a xlink:href="/v2.0/type/HalfOpenInterval/" target="_top">
<polygon fill="#999999" stroke="#999999" points="4528.04,-22 4427.96,-22 4427.96,-0 4528.04,-0 4528.04,-22"/>
<text text-anchor="middle" x="4478" y="-7.4" font-family="Helvetica,sans-Serif" font-size="12.00" fill="white">HalfOpenInterval</text>
</a>
</g>
</g>
<!-- Equatable&#45;&gt;HalfOpenInterval -->
<g id="edge5" class="edge">
<path fill="none" stroke="#cccccc" d="M4298.2,-413.34C4357.5,-406.491 4478,-382.654 4478,-302 4478,-302 4478,-302 4478,-126 4478,-93.1536 4478,-54.9837 4478,-32.197"/>
<polygon fill="#cccccc" stroke="#cccccc" points="4481.5,-32.0648 4478,-22.0648 4474.5,-32.0648 4481.5,-32.0648"/>
</g>
<!-- Hashable -->
<g id="node24" class="node">
<g id="a_node24"><a xlink:href="/v2.0/protocol/Hashable/" target="_top">
<path fill="#999999" stroke="#999999" d="M560.694,-254C560.694,-254 515.306,-254 515.306,-254 511.639,-254 507.973,-250.333 507.973,-246.667 507.973,-246.667 507.973,-239.333 507.973,-239.333 507.973,-235.667 511.639,-232 515.306,-232 515.306,-232 560.694,-232 560.694,-232 564.361,-232 568.027,-235.667 568.027,-239.333 568.027,-239.333 568.027,-246.667 568.027,-246.667 568.027,-250.333 564.361,-254 560.694,-254"/>
<text text-anchor="middle" x="538" y="-239.4" font-family="Helvetica,sans-Serif" font-size="12.00" fill="white">Hashable</text>
</a>
</g>
</g>
<!-- Equatable&#45;&gt;Hashable -->
<g id="edge6" class="edge">
<path fill="none" stroke="#cccccc" d="M4233.84,-415.703C3996.42,-413.34 2490.86,-395.45 1270,-312 984.613,-292.493 913.628,-282.513 629,-254 612.395,-252.337 594.102,-250.355 578.3,-248.597"/>
<polygon fill="#cccccc" stroke="#cccccc" points="578.645,-245.114 568.318,-247.479 577.866,-252.07 578.645,-245.114"/>
</g>
<!-- ManagedBufferPointer -->
<g id="node33" class="node">
<g id="a_node33"><a xlink:href="/v2.0/type/ManagedBufferPointer/" target="_top">
<polygon fill="#999999" stroke="#999999" points="4675.4,-22 4546.6,-22 4546.6,-0 4675.4,-0 4675.4,-22"/>
<text text-anchor="middle" x="4611" y="-7.4" font-family="Helvetica,sans-Serif" font-size="12.00" fill="white">ManagedBufferPointer</text>
</a>
</g>
</g>
<!-- Equatable&#45;&gt;ManagedBufferPointer -->
<g id="edge7" class="edge">
<path fill="none" stroke="#cccccc" d="M4298.15,-412.361C4383.79,-401.777 4611,-367.525 4611,-302 4611,-302 4611,-302 4611,-126 4611,-93.1536 4611,-54.9837 4611,-32.197"/>
<polygon fill="#cccccc" stroke="#cccccc" points="4614.5,-32.0648 4611,-22.0648 4607.5,-32.0648 4614.5,-32.0648"/>
</g>
<!-- Range -->
<g id="node37" class="node">
<g id="a_node37"><a xlink:href="/v2.0/type/Range/" target="_top">
<polygon fill="#999999" stroke="#999999" points="4748,-22 4694,-22 4694,-0 4748,-0 4748,-22"/>
<text text-anchor="middle" x="4721" y="-7.4" font-family="Helvetica,sans-Serif" font-size="12.00" fill="white">Range</text>
</a>
</g>
</g>
<!-- Equatable&#45;&gt;Range -->
<g id="edge8" class="edge">
<path fill="none" stroke="#cccccc" d="M4298.18,-414.182C4396.3,-407.771 4685,-382.099 4685,-302 4685,-302 4685,-302 4685,-126 4685,-91.2628 4700.39,-53.2199 4711.04,-31.0413"/>
<polygon fill="#cccccc" stroke="#cccccc" points="4714.2,-32.5473 4715.53,-22.0363 4707.94,-29.4236 4714.2,-32.5473"/>
</g>
<!-- SetAlgebraType -->
<g id="node42" class="node">
<g id="a_node42"><a xlink:href="/v2.0/protocol/SetAlgebraType/" target="_top">
<path fill="#999999" stroke="#999999" d="M4801.21,-370C4801.21,-370 4720.79,-370 4720.79,-370 4717.12,-370 4713.45,-366.333 4713.45,-362.667 4713.45,-362.667 4713.45,-355.333 4713.45,-355.333 4713.45,-351.667 4717.12,-348 4720.79,-348 4720.79,-348 4801.21,-348 4801.21,-348 4804.88,-348 4808.55,-351.667 4808.55,-355.333 4808.55,-355.333 4808.55,-362.667 4808.55,-362.667 4808.55,-366.333 4804.88,-370 4801.21,-370"/>
<text text-anchor="middle" x="4761" y="-355.4" font-family="Helvetica,sans-Serif" font-size="12.00" fill="white">SetAlgebraType</text>
</a>
</g>
</g>
<!-- Equatable&#45;&gt;SetAlgebraType -->
<g id="edge9" class="edge">
<path fill="none" stroke="#cccccc" d="M4298.12,-413.187C4370.05,-406.756 4549.51,-389.981 4699,-370 4700.49,-369.801 4701.99,-369.595 4703.51,-369.383"/>
<polygon fill="#cccccc" stroke="#cccccc" points="4704.26,-372.811 4713.65,-367.908 4703.25,-365.884 4704.26,-372.811"/>
</g>
<!-- _Incrementable -->
<g id="node62" class="node">
<g id="a_node62"><a xlink:href="/v2.0/protocol/_Incrementable/" target="_top">
<path fill="#999999" stroke="#999999" d="M3511.71,-370C3511.71,-370 3434.29,-370 3434.29,-370 3430.63,-370 3426.96,-366.333 3426.96,-362.667 3426.96,-362.667 3426.96,-355.333 3426.96,-355.333 3426.96,-351.667 3430.63,-348 3434.29,-348 3434.29,-348 3511.71,-348 3511.71,-348 3515.37,-348 3519.04,-351.667 3519.04,-355.333 3519.04,-355.333 3519.04,-362.667 3519.04,-362.667 3519.04,-366.333 3515.37,-370 3511.71,-370"/>
<text text-anchor="middle" x="3473" y="-355.4" font-family="Helvetica,sans-Serif" font-size="12.00" fill="white">_Incrementable</text>
</a>
</g>
</g>
<!-- Equatable&#45;&gt;_Incrementable -->
<g id="edge10" class="edge">
<path fill="none" stroke="#cccccc" d="M4233.93,-413.735C4113.12,-405.204 3684.5,-374.936 3529.48,-363.988"/>
<polygon fill="#cccccc" stroke="#cccccc" points="3529.45,-360.478 3519.23,-363.265 3528.96,-367.461 3529.45,-360.478"/>
</g>
<!-- FlattenCollectionIndex -->
<g id="node17" class="node">
<g id="a_node17"><a xlink:href="/v2.0/type/FlattenCollectionIndex/" target="_top">
<polygon fill="#999999" stroke="#999999" points="3807.05,-22 3678.95,-22 3678.95,-0 3807.05,-0 3807.05,-22"/>
<text text-anchor="middle" x="3743" y="-7.4" font-family="Helvetica,sans-Serif" font-size="12.00" fill="white">FlattenCollectionIndex</text>
</a>
</g>
</g>
<!-- FloatingPointType -->
<g id="node21" class="node">
<g id="a_node21"><a xlink:href="/v2.0/protocol/FloatingPointType/" target="_top">
<path fill="#999999" stroke="#999999" d="M984.715,-80C984.715,-80 893.285,-80 893.285,-80 889.618,-80 885.952,-76.3333 885.952,-72.6667 885.952,-72.6667 885.952,-65.3333 885.952,-65.3333 885.952,-61.6667 889.618,-58 893.285,-58 893.285,-58 984.715,-58 984.715,-58 988.382,-58 992.048,-61.6667 992.048,-65.3333 992.048,-65.3333 992.048,-72.6667 992.048,-72.6667 992.048,-76.3333 988.382,-80 984.715,-80"/>
<text text-anchor="middle" x="939" y="-65.4" font-family="Helvetica,sans-Serif" font-size="12.00" fill="white">FloatingPointType</text>
</a>
</g>
</g>
<!-- FloatingPointType&#45;&gt;Double -->
<g id="edge50" class="edge">
<path fill="none" stroke="#cccccc" d="M913.971,-57.9883C891.613,-49.0453 858.642,-35.8566 833.734,-25.8935"/>
<polygon fill="#cccccc" stroke="#cccccc" points="834.869,-22.5781 824.285,-22.1138 832.269,-29.0775 834.869,-22.5781"/>
</g>
<!-- FloatingPointType&#45;&gt;Float -->
<g id="edge51" class="edge">
<path fill="none" stroke="#cccccc" d="M899.809,-57.94C866.203,-49.2729 816.243,-36.291 763.91,-22.2191"/>
<polygon fill="#cccccc" stroke="#cccccc" points="764.681,-18.8019 754.115,-19.5797 762.86,-25.5609 764.681,-18.8019"/>
</g>
<!-- ForwardIndexType -->
<g id="node22" class="node">
<g id="a_node22"><a xlink:href="/v2.0/protocol/ForwardIndexType/" target="_top">
<path fill="#999999" stroke="#999999" d="M3520.21,-312C3520.21,-312 3425.79,-312 3425.79,-312 3422.13,-312 3418.46,-308.333 3418.46,-304.667 3418.46,-304.667 3418.46,-297.333 3418.46,-297.333 3418.46,-293.667 3422.13,-290 3425.79,-290 3425.79,-290 3520.21,-290 3520.21,-290 3523.87,-290 3527.54,-293.667 3527.54,-297.333 3527.54,-297.333 3527.54,-304.667 3527.54,-304.667 3527.54,-308.333 3523.87,-312 3520.21,-312"/>
<text text-anchor="middle" x="3473" y="-297.4" font-family="Helvetica,sans-Serif" font-size="12.00" fill="white">ForwardIndexType</text>
</a>
</g>
</g>
<!-- ForwardIndexType&#45;&gt;AnyForwardIndex -->
<g id="edge73" class="edge">
<path fill="none" stroke="#cccccc" d="M3503.18,-289.973C3543.25,-274.533 3609,-240.84 3609,-186 3609,-186 3609,-186 3609,-126 3609,-93.1536 3609,-54.9837 3609,-32.197"/>
<polygon fill="#cccccc" stroke="#cccccc" points="3612.5,-32.0648 3609,-22.0648 3605.5,-32.0648 3612.5,-32.0648"/>
</g>
<!-- ForwardIndexType&#45;&gt;BidirectionalIndexType -->
<g id="edge74" class="edge">
<path fill="none" stroke="#cccccc" d="M3418.6,-296.173C3279.75,-286.405 2911.96,-260.53 2752.51,-249.312"/>
<polygon fill="#cccccc" stroke="#cccccc" points="2752.53,-245.805 2742.31,-248.595 2752.04,-252.788 2752.53,-245.805"/>
</g>
<!-- ForwardIndexType&#45;&gt;DictionaryIndex -->
<g id="edge75" class="edge">
<path fill="none" stroke="#cccccc" d="M3418.51,-299.883C3253.06,-299.092 2758.41,-293.404 2603,-254 2403.76,-203.482 2188.77,-72.9213 2118.04,-27.6969"/>
<polygon fill="#cccccc" stroke="#cccccc" points="2119.7,-24.6049 2109.39,-22.1365 2115.91,-30.4914 2119.7,-24.6049"/>
</g>
<!-- ForwardIndexType&#45;&gt;FlattenCollectionIndex -->
<g id="edge76" class="edge">
<path fill="none" stroke="#cccccc" d="M3527.64,-300.144C3606.53,-297.157 3743,-278.605 3743,-186 3743,-186 3743,-186 3743,-126 3743,-93.1536 3743,-54.9837 3743,-32.197"/>
<polygon fill="#cccccc" stroke="#cccccc" points="3746.5,-32.0648 3743,-22.0648 3739.5,-32.0648 3746.5,-32.0648"/>
</g>
<!-- LazyFilterIndex -->
<g id="node32" class="node">
<g id="a_node32"><a xlink:href="/v2.0/type/LazyFilterIndex/" target="_top">
<polygon fill="#999999" stroke="#999999" points="3916.53,-22 3825.47,-22 3825.47,-0 3916.53,-0 3916.53,-22"/>
<text text-anchor="middle" x="3871" y="-7.4" font-family="Helvetica,sans-Serif" font-size="12.00" fill="white">LazyFilterIndex</text>
</a>
</g>
</g>
<!-- ForwardIndexType&#45;&gt;LazyFilterIndex -->
<g id="edge77" class="edge">
<path fill="none" stroke="#cccccc" d="M3527.51,-295.832C3636.51,-285.992 3871,-256.618 3871,-186 3871,-186 3871,-186 3871,-126 3871,-93.1536 3871,-54.9837 3871,-32.197"/>
<polygon fill="#cccccc" stroke="#cccccc" points="3874.5,-32.0648 3871,-22.0648 3867.5,-32.0648 3874.5,-32.0648"/>
</g>
<!-- ForwardIndexType&#45;&gt;SetIndex -->
<g id="edge78" class="edge">
<path fill="none" stroke="#cccccc" d="M3460.28,-289.862C3438.88,-271.574 3398,-230.776 3398,-186 3398,-186 3398,-186 3398,-126 3398,-91.2644 3381.93,-53.4893 3370.69,-31.3219"/>
<polygon fill="#cccccc" stroke="#cccccc" points="3373.69,-29.5201 3365.94,-22.3021 3367.5,-32.7812 3373.69,-29.5201"/>
</g>
<!-- String.UTF8View.Index -->
<g id="node50" class="node">
<g id="a_node50"><a xlink:href="/v2.0/type/String.UTF8View.Index/" target="_top">
<polygon fill="#999999" stroke="#999999" points="3538.89,-22 3407.11,-22 3407.11,-0 3538.89,-0 3538.89,-22"/>
<text text-anchor="middle" x="3473" y="-7.4" font-family="Helvetica,sans-Serif" font-size="12.00" fill="white">String.UTF8View.Index</text>
</a>
</g>
</g>
<!-- ForwardIndexType&#45;&gt;String.UTF8View.Index -->
<g id="edge79" class="edge">
<path fill="none" stroke="#cccccc" d="M3473,-289.935C3473,-270.066 3473,-224.396 3473,-186 3473,-186 3473,-186 3473,-126 3473,-93.1536 3473,-54.9837 3473,-32.197"/>
<polygon fill="#cccccc" stroke="#cccccc" points="3476.5,-32.0648 3473,-22.0648 3469.5,-32.0648 3476.5,-32.0648"/>
</g>
<!-- Hashable&#45;&gt;Bool -->
<g id="edge57" class="edge">
<path fill="none" stroke="#cccccc" d="M507.913,-235.431C473.742,-227.6 416.558,-213.365 369,-196 253.941,-153.988 224.344,-142.5 119,-80 92.8706,-64.4977 65.1193,-43.2425 47.0138,-28.6446"/>
<polygon fill="#cccccc" stroke="#cccccc" points="48.9113,-25.6757 38.9499,-22.0675 44.487,-31.1002 48.9113,-25.6757"/>
</g>
<!-- Hashable&#45;&gt;COpaquePointer -->
<g id="edge58" class="edge">
<path fill="none" stroke="#cccccc" d="M507.746,-235.378C479.551,-228.358 437.014,-215.554 404,-196 324.272,-148.777 248.604,-66.4885 217.221,-30.1429"/>
<polygon fill="#cccccc" stroke="#cccccc" points="219.703,-27.6603 210.547,-22.3291 214.38,-32.2064 219.703,-27.6603"/>
</g>
<!-- Hashable&#45;&gt;Character -->
<g id="edge59" class="edge">
<path fill="none" stroke="#cccccc" d="M519.029,-231.969C450.203,-195.578 213.394,-70.3694 131.295,-26.9603"/>
<polygon fill="#cccccc" stroke="#cccccc" points="132.547,-23.6636 122.071,-22.0835 129.275,-29.8519 132.547,-23.6636"/>
</g>
<!-- Hashable&#45;&gt;Double -->
<g id="edge60" class="edge">
<path fill="none" stroke="#cccccc" d="M568.044,-242.121C630.89,-240.544 775.638,-226.93 839,-138 862.93,-104.413 833.56,-55.8996 813.924,-29.9606"/>
<polygon fill="#cccccc" stroke="#cccccc" points="816.662,-27.7801 807.728,-22.0835 811.159,-32.1075 816.662,-27.7801"/>
</g>
<!-- Hashable&#45;&gt;Float -->
<g id="edge61" class="edge">
<path fill="none" stroke="#cccccc" d="M547.806,-231.985C556.682,-222.81 570.011,-208.754 581,-196 631.61,-137.265 687.575,-64.284 713.026,-30.6133"/>
<polygon fill="#cccccc" stroke="#cccccc" points="716.141,-32.2956 719.366,-22.2034 710.551,-28.0819 716.141,-32.2956"/>
</g>
<!-- Hashable&#45;&gt;Float80 -->
<g id="edge62" class="edge">
<path fill="none" stroke="#cccccc" d="M543.178,-231.82C561.225,-196.345 621.534,-77.7884 645.277,-31.114"/>
<polygon fill="#cccccc" stroke="#cccccc" points="648.467,-32.562 649.881,-22.062 642.228,-29.3882 648.467,-32.562"/>
</g>
<!-- Hashable&#45;&gt;ObjectIdentifier -->
<g id="edge63" class="edge">
<path fill="none" stroke="#cccccc" d="M529.872,-231.921C506.622,-203.335 437.307,-119.81 372,-58 360.923,-47.5161 347.714,-36.7589 336.802,-28.2856"/>
<polygon fill="#cccccc" stroke="#cccccc" points="338.696,-25.3277 328.628,-22.0287 334.441,-30.8862 338.696,-25.3277"/>
</g>
<!-- Set -->
<g id="node41" class="node">
<g id="a_node41"><a xlink:href="/v2.0/type/Set/" target="_top">
<polygon fill="#999999" stroke="#999999" points="432,-22 378,-22 378,-0 432,-0 432,-22"/>
<text text-anchor="middle" x="405" y="-7.4" font-family="Helvetica,sans-Serif" font-size="12.00" fill="white">Set</text>
</a>
</g>
</g>
<!-- Hashable&#45;&gt;Set -->
<g id="edge64" class="edge">
<path fill="none" stroke="#cccccc" d="M507.96,-239.103C480.331,-234.713 440.622,-223.684 420,-196 383.389,-146.85 393.102,-68.4657 400.362,-31.9423"/>
<polygon fill="#cccccc" stroke="#cccccc" points="403.813,-32.5411 402.483,-22.0301 396.968,-31.0767 403.813,-32.5411"/>
</g>
<!-- Hashable&#45;&gt;String -->
<g id="edge65" class="edge">
<path fill="none" stroke="#cccccc" d="M535.3,-231.82C525.951,-196.568 494.843,-79.2764 482.305,-32.0032"/>
<polygon fill="#cccccc" stroke="#cccccc" points="485.615,-30.8306 479.669,-22.062 478.849,-32.6251 485.615,-30.8306"/>
</g>
<!-- Hashable&#45;&gt;UnicodeScalar -->
<g id="edge66" class="edge">
<path fill="none" stroke="#cccccc" d="M539.239,-231.82C543.531,-196.568 557.81,-79.2764 563.565,-32.0032"/>
<polygon fill="#cccccc" stroke="#cccccc" points="567.041,-32.4117 564.775,-22.062 560.092,-31.5657 567.041,-32.4117"/>
</g>
<!-- UnsafeMutablePointer -->
<g id="node58" class="node">
<g id="a_node58"><a xlink:href="/v2.0/type/UnsafeMutablePointer/" target="_top">
<polygon fill="#999999" stroke="#999999" points="1332.05,-22 1203.95,-22 1203.95,-0 1332.05,-0 1332.05,-22"/>
<text text-anchor="middle" x="1268" y="-7.4" font-family="Helvetica,sans-Serif" font-size="12.00" fill="white">UnsafeMutablePointer</text>
</a>
</g>
</g>
<!-- Hashable&#45;&gt;UnsafeMutablePointer -->
<g id="edge67" class="edge">
<path fill="none" stroke="#cccccc" d="M568.376,-241.663C685.075,-240.107 1100.37,-232.06 1146,-196 1196.51,-156.083 1149.86,-108.327 1190,-58 1200.78,-44.4903 1216.68,-34.1013 1231.32,-26.6438"/>
<polygon fill="#cccccc" stroke="#cccccc" points="1233.18,-29.6342 1240.69,-22.1631 1230.16,-23.3189 1233.18,-29.6342"/>
</g>
<!-- UnsafePointer -->
<g id="node59" class="node">
<g id="a_node59"><a xlink:href="/v2.0/type/UnsafePointer/" target="_top">
<polygon fill="#999999" stroke="#999999" points="1436.03,-22 1349.97,-22 1349.97,-0 1436.03,-0 1436.03,-22"/>
<text text-anchor="middle" x="1393" y="-7.4" font-family="Helvetica,sans-Serif" font-size="12.00" fill="white">UnsafePointer</text>
</a>
</g>
</g>
<!-- Hashable&#45;&gt;UnsafePointer -->
<g id="edge68" class="edge">
<path fill="none" stroke="#cccccc" d="M568.069,-241.358C686.609,-238.617 1117.65,-226.614 1170,-196 1206.82,-174.469 1192.3,-145.609 1223,-116 1264.6,-75.8704 1324.31,-43.8247 1360.77,-26.4031"/>
<polygon fill="#cccccc" stroke="#cccccc" points="1362.4,-29.5069 1369.96,-22.0877 1359.42,-23.1709 1362.4,-29.5069"/>
</g>
<!-- _IntegerType -->
<g id="node63" class="node">
<g id="a_node63"><a xlink:href="/v2.0/protocol/_IntegerType/" target="_top">
<path fill="#999999" stroke="#999999" d="M1349.71,-196C1349.71,-196 1284.29,-196 1284.29,-196 1280.63,-196 1276.96,-192.333 1276.96,-188.667 1276.96,-188.667 1276.96,-181.333 1276.96,-181.333 1276.96,-177.667 1280.63,-174 1284.29,-174 1284.29,-174 1349.71,-174 1349.71,-174 1353.37,-174 1357.04,-177.667 1357.04,-181.333 1357.04,-181.333 1357.04,-188.667 1357.04,-188.667 1357.04,-192.333 1353.37,-196 1349.71,-196"/>
<text text-anchor="middle" x="1317" y="-181.4" font-family="Helvetica,sans-Serif" font-size="12.00" fill="white">_IntegerType</text>
</a>
</g>
</g>
<!-- Hashable&#45;&gt;_IntegerType -->
<g id="edge69" class="edge">
<path fill="none" stroke="#cccccc" d="M568.189,-240.316C663.598,-234.916 967.153,-217.148 1218,-196 1233.82,-194.667 1251.03,-193.002 1266.6,-191.416"/>
<polygon fill="#cccccc" stroke="#cccccc" points="1266.98,-194.896 1276.57,-190.39 1266.26,-187.933 1266.98,-194.896"/>
</g>
<!-- Int -->
<g id="node25" class="node">
<g id="a_node25"><a xlink:href="/v2.0/type/Int/" target="_top">
<polygon fill="#999999" stroke="#999999" points="1114,-22 1060,-22 1060,-0 1114,-0 1114,-22"/>
<text text-anchor="middle" x="1087" y="-7.4" font-family="Helvetica,sans-Serif" font-size="12.00" fill="white">Int</text>
</a>
</g>
</g>
<!-- Int&#45;&gt;Bit -->
<g id="edge34" class="edge">
<path fill="none" stroke="#cccccc" d="M1099.78,-22.0854C1108.28,-28.7029 1120.05,-36.4837 1132,-40 1196.81,-59.0735 1371.19,-59.0735 1436,-40 1444.4,-37.5276 1452.71,-32.9469 1459.86,-28.1447"/>
<polygon fill="#cccccc" stroke="#cccccc" points="1462.18,-30.7891 1468.22,-22.0854 1458.07,-25.122 1462.18,-30.7891"/>
</g>
<!-- Int16 -->
<g id="node26" class="node">
<g id="a_node26"><a xlink:href="/v2.0/type/Int16/" target="_top">
<polygon fill="#999999" stroke="#999999" points="1186,-22 1132,-22 1132,-0 1186,-0 1186,-22"/>
<text text-anchor="middle" x="1159" y="-7.4" font-family="Helvetica,sans-Serif" font-size="12.00" fill="white">Int16</text>
</a>
</g>
</g>
<!-- Int32 -->
<g id="node27" class="node">
<g id="a_node27"><a xlink:href="/v2.0/type/Int32/" target="_top">
<polygon fill="#999999" stroke="#999999" points="898,-22 844,-22 844,-0 898,-0 898,-22"/>
<text text-anchor="middle" x="871" y="-7.4" font-family="Helvetica,sans-Serif" font-size="12.00" fill="white">Int32</text>
</a>
</g>
</g>
<!-- Int64 -->
<g id="node28" class="node">
<g id="a_node28"><a xlink:href="/v2.0/type/Int64/" target="_top">
<polygon fill="#999999" stroke="#999999" points="970,-22 916,-22 916,-0 970,-0 970,-22"/>
<text text-anchor="middle" x="943" y="-7.4" font-family="Helvetica,sans-Serif" font-size="12.00" fill="white">Int64</text>
</a>
</g>
</g>
<!-- Int8 -->
<g id="node29" class="node">
<g id="a_node29"><a xlink:href="/v2.0/type/Int8/" target="_top">
<polygon fill="#999999" stroke="#999999" points="1042,-22 988,-22 988,-0 1042,-0 1042,-22"/>
<text text-anchor="middle" x="1015" y="-7.4" font-family="Helvetica,sans-Serif" font-size="12.00" fill="white">Int8</text>
</a>
</g>
</g>
<!-- IntegerArithmeticType&#45;&gt;_IntegerType -->
<g id="edge23" class="edge">
<path fill="none" stroke="#cccccc" d="M1317,-231.988C1317,-224.91 1317,-215.171 1317,-206.478"/>
<polygon fill="#cccccc" stroke="#cccccc" points="1320.5,-206.304 1317,-196.304 1313.5,-206.304 1320.5,-206.304"/>
</g>
<!-- IntegerType -->
<g id="node31" class="node">
<g id="a_node31"><a xlink:href="/v2.0/protocol/IntegerType/" target="_top">
<path fill="#999999" stroke="#999999" d="M1486.2,-138C1486.2,-138 1427.8,-138 1427.8,-138 1424.13,-138 1420.47,-134.333 1420.47,-130.667 1420.47,-130.667 1420.47,-123.333 1420.47,-123.333 1420.47,-119.667 1424.13,-116 1427.8,-116 1427.8,-116 1486.2,-116 1486.2,-116 1489.87,-116 1493.53,-119.667 1493.53,-123.333 1493.53,-123.333 1493.53,-130.667 1493.53,-130.667 1493.53,-134.333 1489.87,-138 1486.2,-138"/>
<text text-anchor="middle" x="1457" y="-123.4" font-family="Helvetica,sans-Serif" font-size="12.00" fill="white">IntegerType</text>
</a>
</g>
</g>
<!-- SignedIntegerType -->
<g id="node44" class="node">
<g id="a_node44"><a xlink:href="/v2.0/protocol/SignedIntegerType/" target="_top">
<path fill="#999999" stroke="#999999" d="M1126.73,-80C1126.73,-80 1031.27,-80 1031.27,-80 1027.61,-80 1023.94,-76.3333 1023.94,-72.6667 1023.94,-72.6667 1023.94,-65.3333 1023.94,-65.3333 1023.94,-61.6667 1027.61,-58 1031.27,-58 1031.27,-58 1126.73,-58 1126.73,-58 1130.39,-58 1134.06,-61.6667 1134.06,-65.3333 1134.06,-65.3333 1134.06,-72.6667 1134.06,-72.6667 1134.06,-76.3333 1130.39,-80 1126.73,-80"/>
<text text-anchor="middle" x="1079" y="-65.4" font-family="Helvetica,sans-Serif" font-size="12.00" fill="white">SignedIntegerType</text>
</a>
</g>
</g>
<!-- IntegerType&#45;&gt;SignedIntegerType -->
<g id="edge27" class="edge">
<path fill="none" stroke="#cccccc" d="M1420.64,-117.828C1417.39,-117.178 1414.14,-116.558 1411,-116 1318.77,-99.6099 1211.25,-85.6428 1144.14,-77.5328"/>
<polygon fill="#cccccc" stroke="#cccccc" points="1144.48,-74.0484 1134.13,-76.3306 1143.64,-80.9984 1144.48,-74.0484"/>
</g>
<!-- UnsignedIntegerType -->
<g id="node60" class="node">
<g id="a_node60"><a xlink:href="/v2.0/protocol/UnsignedIntegerType/" target="_top">
<path fill="#999999" stroke="#999999" d="M1704.73,-80C1704.73,-80 1595.27,-80 1595.27,-80 1591.61,-80 1587.94,-76.3333 1587.94,-72.6667 1587.94,-72.6667 1587.94,-65.3333 1587.94,-65.3333 1587.94,-61.6667 1591.61,-58 1595.27,-58 1595.27,-58 1704.73,-58 1704.73,-58 1708.39,-58 1712.06,-61.6667 1712.06,-65.3333 1712.06,-65.3333 1712.06,-72.6667 1712.06,-72.6667 1712.06,-76.3333 1708.39,-80 1704.73,-80"/>
<text text-anchor="middle" x="1650" y="-65.4" font-family="Helvetica,sans-Serif" font-size="12.00" fill="white">UnsignedIntegerType</text>
</a>
</g>
</g>
<!-- IntegerType&#45;&gt;UnsignedIntegerType -->
<g id="edge28" class="edge">
<path fill="none" stroke="#cccccc" d="M1491.5,-115.988C1523.38,-106.74 1570.9,-92.9502 1605.6,-82.8836"/>
<polygon fill="#cccccc" stroke="#cccccc" points="1606.84,-86.1673 1615.47,-80.0192 1604.89,-79.4446 1606.84,-86.1673"/>
</g>
<!-- OptionSetType -->
<g id="node35" class="node">
<g id="a_node35"><a xlink:href="/v2.0/protocol/OptionSetType/" target="_top">
<path fill="#999999" stroke="#999999" d="M4798.21,-312C4798.21,-312 4723.79,-312 4723.79,-312 4720.13,-312 4716.46,-308.333 4716.46,-304.667 4716.46,-304.667 4716.46,-297.333 4716.46,-297.333 4716.46,-293.667 4720.13,-290 4723.79,-290 4723.79,-290 4798.21,-290 4798.21,-290 4801.87,-290 4805.54,-293.667 4805.54,-297.333 4805.54,-297.333 4805.54,-304.667 4805.54,-304.667 4805.54,-308.333 4801.87,-312 4798.21,-312"/>
<text text-anchor="middle" x="4761" y="-297.4" font-family="Helvetica,sans-Serif" font-size="12.00" fill="white">OptionSetType</text>
</a>
</g>
</g>
<!-- RandomAccessIndexType&#45;&gt;AnyRandomAccessIndex -->
<g id="edge52" class="edge">
<path fill="none" stroke="#cccccc" d="M1583.41,-173.883C1651.08,-144.637 1847.09,-59.9312 1925.26,-26.151"/>
<polygon fill="#cccccc" stroke="#cccccc" points="1926.83,-29.2844 1934.62,-22.1045 1924.05,-22.8588 1926.83,-29.2844"/>
</g>
<!-- RandomAccessIndexType&#45;&gt;IntegerType -->
<g id="edge53" class="edge">
<path fill="none" stroke="#cccccc" d="M1541.59,-173.988C1525.72,-165.362 1502.59,-152.785 1484.52,-142.963"/>
<polygon fill="#cccccc" stroke="#cccccc" points="1486.06,-139.816 1475.6,-138.114 1482.72,-145.965 1486.06,-139.816"/>
</g>
<!-- ReverseRandomAccessIndex -->
<g id="node40" class="node">
<g id="a_node40"><a xlink:href="/v2.0/type/ReverseRandomAccessIndex/" target="_top">
<polygon fill="#999999" stroke="#999999" points="2855.06,-22 2686.94,-22 2686.94,-0 2855.06,-0 2855.06,-22"/>
<text text-anchor="middle" x="2771" y="-7.4" font-family="Helvetica,sans-Serif" font-size="12.00" fill="white">ReverseRandomAccessIndex</text>
</a>
</g>
</g>
<!-- RandomAccessIndexType&#45;&gt;ReverseRandomAccessIndex -->
<g id="edge54" class="edge">
<path fill="none" stroke="#cccccc" d="M1630.79,-173.946C1842.04,-143.941 2467.16,-55.1552 2690.53,-23.4296"/>
<polygon fill="#cccccc" stroke="#cccccc" points="2691.13,-26.8791 2700.54,-22.0076 2690.15,-19.9487 2691.13,-26.8791"/>
</g>
<!-- RandomAccessIndexType&#45;&gt;UnsafeMutablePointer -->
<g id="edge55" class="edge">
<path fill="none" stroke="#cccccc" d="M1553.62,-173.997C1543.96,-159.54 1524.38,-132.711 1502,-116 1442.85,-71.8288 1361.98,-41.2023 1312.45,-25.1345"/>
<polygon fill="#cccccc" stroke="#cccccc" points="1313.27,-21.722 1302.68,-22.0212 1311.14,-28.3917 1313.27,-21.722"/>
</g>
<!-- RandomAccessIndexType&#45;&gt;UnsafePointer -->
<g id="edge56" class="edge">
<path fill="none" stroke="#cccccc" d="M1561.26,-173.695C1563.53,-150.085 1565.64,-91.535 1536,-58 1523.8,-44.203 1481.55,-31.6296 1446.11,-23.1285"/>
<polygon fill="#cccccc" stroke="#cccccc" points="1446.85,-19.7094 1436.32,-20.8411 1445.26,-26.5256 1446.85,-19.7094"/>
</g>
<!-- ReverseIndex -->
<g id="node38" class="node">
<g id="a_node38"><a xlink:href="/v2.0/type/ReverseIndex/" target="_top">
<polygon fill="#999999" stroke="#999999" points="2957.03,-22 2872.97,-22 2872.97,-0 2957.03,-0 2957.03,-22"/>
<text text-anchor="middle" x="2915" y="-7.4" font-family="Helvetica,sans-Serif" font-size="12.00" fill="white">ReverseIndex</text>
</a>
</g>
</g>
<!-- ReverseIndexType&#45;&gt;ReverseIndex -->
<g id="edge87" class="edge">
<path fill="none" stroke="#cccccc" d="M2796.74,-57.9883C2819.84,-49.0057 2853.95,-35.7398 2879.61,-25.7614"/>
<polygon fill="#cccccc" stroke="#cccccc" points="2880.94,-29.0004 2888.99,-22.1138 2878.4,-22.4763 2880.94,-29.0004"/>
</g>
<!-- ReverseIndexType&#45;&gt;ReverseRandomAccessIndex -->
<g id="edge88" class="edge">
<path fill="none" stroke="#cccccc" d="M2771,-57.9883C2771,-50.9098 2771,-41.1714 2771,-32.4779"/>
<polygon fill="#cccccc" stroke="#cccccc" points="2774.5,-32.3038 2771,-22.3039 2767.5,-32.3039 2774.5,-32.3038"/>
</g>
<!-- SetAlgebraType&#45;&gt;OptionSetType -->
<g id="edge70" class="edge">
<path fill="none" stroke="#cccccc" d="M4761,-347.988C4761,-340.91 4761,-331.171 4761,-322.478"/>
<polygon fill="#cccccc" stroke="#cccccc" points="4764.5,-322.304 4761,-312.304 4757.5,-322.304 4764.5,-322.304"/>
</g>
<!-- SignedIntegerType&#45;&gt;Int -->
<g id="edge29" class="edge">
<path fill="none" stroke="#cccccc" d="M1080.43,-57.9883C1081.44,-50.9098 1082.83,-41.1714 1084.07,-32.4779"/>
<polygon fill="#cccccc" stroke="#cccccc" points="1087.58,-32.6984 1085.53,-22.3039 1080.65,-31.7084 1087.58,-32.6984"/>
</g>
<!-- SignedIntegerType&#45;&gt;Int16 -->
<g id="edge30" class="edge">
<path fill="none" stroke="#cccccc" d="M1093.3,-57.9883C1105.17,-49.6784 1122.28,-37.7028 1136.06,-28.0554"/>
<polygon fill="#cccccc" stroke="#cccccc" points="1138.37,-30.7158 1144.55,-22.1138 1134.35,-24.9812 1138.37,-30.7158"/>
</g>
<!-- SignedIntegerType&#45;&gt;Int32 -->
<g id="edge31" class="edge">
<path fill="none" stroke="#cccccc" d="M1041.05,-57.964C1008.3,-49.2746 959.44,-36.2563 908.077,-22.2771"/>
<polygon fill="#cccccc" stroke="#cccccc" points="908.688,-18.8158 898.119,-19.5632 906.847,-25.5695 908.688,-18.8158"/>
</g>
<!-- SignedIntegerType&#45;&gt;Int64 -->
<g id="edge32" class="edge">
<path fill="none" stroke="#cccccc" d="M1054.69,-57.9883C1033.06,-49.0849 1001.22,-35.9733 977.063,-26.0259"/>
<polygon fill="#cccccc" stroke="#cccccc" points="978.142,-22.685 967.562,-22.1138 975.476,-29.1577 978.142,-22.685"/>
</g>
<!-- SignedIntegerType&#45;&gt;Int8 -->
<g id="edge33" class="edge">
<path fill="none" stroke="#cccccc" d="M1067.56,-57.9883C1058.39,-49.966 1045.32,-38.5272 1034.5,-29.065"/>
<polygon fill="#cccccc" stroke="#cccccc" points="1036.61,-26.2549 1026.78,-22.3039 1032,-31.523 1036.61,-26.2549"/>
</g>
<!-- SignedNumberType&#45;&gt;AbsoluteValuable -->
<g id="edge42" class="edge">
<path fill="none" stroke="#cccccc" d="M1025.37,-173.988C973.325,-164.274 894.448,-149.55 840.031,-139.392"/>
<polygon fill="#cccccc" stroke="#cccccc" points="840.64,-135.946 830.167,-137.551 839.355,-142.827 840.64,-135.946"/>
</g>
<!-- _SignedIntegerType -->
<g id="node64" class="node">
<g id="a_node64"><a xlink:href="/v2.0/protocol/_SignedIntegerType/" target="_top">
<path fill="#999999" stroke="#999999" d="M1130.23,-138C1130.23,-138 1027.77,-138 1027.77,-138 1024.1,-138 1020.44,-134.333 1020.44,-130.667 1020.44,-130.667 1020.44,-123.333 1020.44,-123.333 1020.44,-119.667 1024.1,-116 1027.77,-116 1027.77,-116 1130.23,-116 1130.23,-116 1133.9,-116 1137.56,-119.667 1137.56,-123.333 1137.56,-123.333 1137.56,-130.667 1137.56,-130.667 1137.56,-134.333 1133.9,-138 1130.23,-138"/>
<text text-anchor="middle" x="1079" y="-123.4" font-family="Helvetica,sans-Serif" font-size="12.00" fill="white">_SignedIntegerType</text>
</a>
</g>
</g>
<!-- SignedNumberType&#45;&gt;_SignedIntegerType -->
<g id="edge43" class="edge">
<path fill="none" stroke="#cccccc" d="M1079,-173.988C1079,-166.91 1079,-157.171 1079,-148.478"/>
<polygon fill="#cccccc" stroke="#cccccc" points="1082.5,-148.304 1079,-138.304 1075.5,-148.304 1082.5,-148.304"/>
</g>
<!-- Strideable&#45;&gt;Float80 -->
<g id="edge47" class="edge">
<path fill="none" stroke="#cccccc" d="M992.922,-239.037C932.51,-231.904 800.613,-208.75 719,-138 685.94,-109.341 667.883,-59.4684 659.97,-31.8437"/>
<polygon fill="#cccccc" stroke="#cccccc" points="663.33,-30.8615 657.343,-22.1204 656.572,-32.6872 663.33,-30.8615"/>
</g>
<!-- Strideable&#45;&gt;FloatingPointType -->
<g id="edge48" class="edge">
<path fill="none" stroke="#cccccc" d="M1019.88,-231.756C1005.93,-203.859 967.092,-126.185 948.785,-89.5708"/>
<polygon fill="#cccccc" stroke="#cccccc" points="951.807,-87.7871 944.204,-80.4081 945.546,-90.9176 951.807,-87.7871"/>
</g>
<!-- Strideable&#45;&gt;RandomAccessIndexType -->
<g id="edge49" class="edge">
<path fill="none" stroke="#cccccc" d="M1057.26,-238.623C1138.67,-230.101 1354.54,-207.506 1475.26,-194.87"/>
<polygon fill="#cccccc" stroke="#cccccc" points="1475.63,-198.351 1485.21,-193.829 1474.9,-191.389 1475.63,-198.351"/>
</g>
<!-- UInt -->
<g id="node52" class="node">
<g id="a_node52"><a xlink:href="/v2.0/type/UInt/" target="_top">
<polygon fill="#999999" stroke="#999999" points="1796,-22 1742,-22 1742,-0 1796,-0 1796,-22"/>
<text text-anchor="middle" x="1769" y="-7.4" font-family="Helvetica,sans-Serif" font-size="12.00" fill="white">UInt</text>
</a>
</g>
</g>
<!-- UInt16 -->
<g id="node53" class="node">
<g id="a_node53"><a xlink:href="/v2.0/type/UInt16/" target="_top">
<polygon fill="#999999" stroke="#999999" points="1868,-22 1814,-22 1814,-0 1868,-0 1868,-22"/>
<text text-anchor="middle" x="1841" y="-7.4" font-family="Helvetica,sans-Serif" font-size="12.00" fill="white">UInt16</text>
</a>
</g>
</g>
<!-- UInt32 -->
<g id="node54" class="node">
<g id="a_node54"><a xlink:href="/v2.0/type/UInt32/" target="_top">
<polygon fill="#999999" stroke="#999999" points="1580,-22 1526,-22 1526,-0 1580,-0 1580,-22"/>
<text text-anchor="middle" x="1553" y="-7.4" font-family="Helvetica,sans-Serif" font-size="12.00" fill="white">UInt32</text>
</a>
</g>
</g>
<!-- UInt64 -->
<g id="node55" class="node">
<g id="a_node55"><a xlink:href="/v2.0/type/UInt64/" target="_top">
<polygon fill="#999999" stroke="#999999" points="1652,-22 1598,-22 1598,-0 1652,-0 1652,-22"/>
<text text-anchor="middle" x="1625" y="-7.4" font-family="Helvetica,sans-Serif" font-size="12.00" fill="white">UInt64</text>
</a>
</g>
</g>
<!-- UInt8 -->
<g id="node56" class="node">
<g id="a_node56"><a xlink:href="/v2.0/type/UInt8/" target="_top">
<polygon fill="#999999" stroke="#999999" points="1724,-22 1670,-22 1670,-0 1724,-0 1724,-22"/>
<text text-anchor="middle" x="1697" y="-7.4" font-family="Helvetica,sans-Serif" font-size="12.00" fill="white">UInt8</text>
</a>
</g>
</g>
<!-- UnsignedIntegerType&#45;&gt;UInt -->
<g id="edge35" class="edge">
<path fill="none" stroke="#cccccc" d="M1671.27,-57.9883C1689.94,-49.2036 1717.32,-36.3222 1738.35,-26.4255"/>
<polygon fill="#cccccc" stroke="#cccccc" points="1739.95,-29.5387 1747.51,-22.1138 1736.97,-23.205 1739.95,-29.5387"/>
</g>
<!-- UnsignedIntegerType&#45;&gt;UInt16 -->
<g id="edge36" class="edge">
<path fill="none" stroke="#cccccc" d="M1684.15,-57.9883C1717.94,-48.0811 1769.5,-32.9634 1804.19,-22.7927"/>
<polygon fill="#cccccc" stroke="#cccccc" points="1805.32,-26.1074 1813.94,-19.9352 1803.35,-19.3902 1805.32,-26.1074"/>
</g>
<!-- UnsignedIntegerType&#45;&gt;UInt32 -->
<g id="edge37" class="edge">
<path fill="none" stroke="#cccccc" d="M1632.66,-57.9883C1617.85,-49.441 1596.33,-37.0155 1579.39,-27.2343"/>
<polygon fill="#cccccc" stroke="#cccccc" points="1580.93,-24.0825 1570.52,-22.1138 1577.43,-30.1448 1580.93,-24.0825"/>
</g>
<!-- UnsignedIntegerType&#45;&gt;UInt64 -->
<g id="edge38" class="edge">
<path fill="none" stroke="#cccccc" d="M1645.53,-57.9883C1642.27,-50.6738 1637.73,-40.5192 1633.76,-31.6122"/>
<polygon fill="#cccccc" stroke="#cccccc" points="1636.87,-30.0085 1629.6,-22.3039 1630.48,-32.8621 1636.87,-30.0085"/>
</g>
<!-- UnsignedIntegerType&#45;&gt;UInt8 -->
<g id="edge39" class="edge">
<path fill="none" stroke="#cccccc" d="M1658.4,-57.9883C1664.87,-50.2806 1673.99,-39.4191 1681.74,-30.187"/>
<polygon fill="#cccccc" stroke="#cccccc" points="1684.6,-32.2137 1688.35,-22.3039 1679.24,-27.7136 1684.6,-32.2137"/>
</g>
<!-- _DisallowMixedSignArithmetic -->
<g id="node61" class="node">
<g id="a_node61"><a xlink:href="/v2.0/protocol/_DisallowMixedSignArithmetic/" target="_top">
<path fill="#999999" stroke="#999999" d="M1394.71,-138C1394.71,-138 1239.29,-138 1239.29,-138 1235.62,-138 1231.96,-134.333 1231.96,-130.667 1231.96,-130.667 1231.96,-123.333 1231.96,-123.333 1231.96,-119.667 1235.62,-116 1239.29,-116 1239.29,-116 1394.71,-116 1394.71,-116 1398.38,-116 1402.04,-119.667 1402.04,-123.333 1402.04,-123.333 1402.04,-130.667 1402.04,-130.667 1402.04,-134.333 1398.38,-138 1394.71,-138"/>
<text text-anchor="middle" x="1317" y="-123.4" font-family="Helvetica,sans-Serif" font-size="12.00" fill="white">_DisallowMixedSignArithmetic</text>
</a>
</g>
</g>
<!-- _DisallowMixedSignArithmetic&#45;&gt;UnsignedIntegerType -->
<g id="edge40" class="edge">
<path fill="none" stroke="#cccccc" d="M1376.53,-115.988C1433.65,-106.382 1519.9,-91.8782 1580.22,-81.7342"/>
<polygon fill="#cccccc" stroke="#cccccc" points="1581.14,-85.1293 1590.42,-80.0192 1579.98,-78.2262 1581.14,-85.1293"/>
</g>
<!-- _Incrementable&#45;&gt;ForwardIndexType -->
<g id="edge71" class="edge">
<path fill="none" stroke="#cccccc" d="M3473,-347.988C3473,-340.91 3473,-331.171 3473,-322.478"/>
<polygon fill="#cccccc" stroke="#cccccc" points="3476.5,-322.304 3473,-312.304 3469.5,-322.304 3476.5,-322.304"/>
</g>
<!-- _Incrementable&#45;&gt;_IntegerType -->
<g id="edge72" class="edge">
<path fill="none" stroke="#cccccc" d="M3426.72,-354.308C3144.87,-331.822 1661.44,-213.479 1367.61,-190.037"/>
<polygon fill="#cccccc" stroke="#cccccc" points="1367.51,-186.518 1357.26,-189.212 1366.95,-193.496 1367.51,-186.518"/>
</g>
<!-- _IntegerType&#45;&gt;IntegerType -->
<g id="edge24" class="edge">
<path fill="none" stroke="#cccccc" d="M1342.03,-173.988C1364.39,-165.045 1397.36,-151.857 1422.27,-141.893"/>
<polygon fill="#cccccc" stroke="#cccccc" points="1423.73,-145.077 1431.72,-138.114 1421.13,-138.578 1423.73,-145.077"/>
</g>
<!-- _IntegerType&#45;&gt;_DisallowMixedSignArithmetic -->
<g id="edge25" class="edge">
<path fill="none" stroke="#cccccc" d="M1317,-173.988C1317,-166.91 1317,-157.171 1317,-148.478"/>
<polygon fill="#cccccc" stroke="#cccccc" points="1320.5,-148.304 1317,-138.304 1313.5,-148.304 1320.5,-148.304"/>
</g>
<!-- _IntegerType&#45;&gt;_SignedIntegerType -->
<g id="edge26" class="edge">
<path fill="none" stroke="#cccccc" d="M1276.9,-174.564C1236.95,-165.165 1175.42,-150.688 1131.59,-140.373"/>
<polygon fill="#cccccc" stroke="#cccccc" points="1132.22,-136.926 1121.68,-138.043 1130.61,-143.74 1132.22,-136.926"/>
</g>
<!-- _SignedIntegerType&#45;&gt;SignedIntegerType -->
<g id="edge41" class="edge">
<path fill="none" stroke="#cccccc" d="M1079,-115.988C1079,-108.91 1079,-99.1714 1079,-90.4779"/>
<polygon fill="#cccccc" stroke="#cccccc" points="1082.5,-90.3038 1079,-80.3039 1075.5,-90.3039 1082.5,-90.3038"/>
</g>
</g>
</svg>
