<?xml version="1.0" encoding="UTF-8" standalone="no"?>
<!DOCTYPE svg PUBLIC "-//W3C//DTD SVG 1.1//EN"
 "http://www.w3.org/Graphics/SVG/1.1/DTD/svg11.dtd">
<!-- Generated by graphviz version 2.36.0 (20140111.2315)
 -->
<!-- Title: Indexable &#45; Type Hierarchy &#45; SwiftDoc.org Pages: 1 -->
<svg width="3618pt" height="427pt"
 viewBox="0.00 0.00 3618.40 427.20" xmlns="http://www.w3.org/2000/svg" xmlns:xlink="http://www.w3.org/1999/xlink">
<g id="graph0" class="graph" transform="scale(1 1) rotate(0) translate(7.2 369.6)">
<g transform="translate(0 -369.6)">
<g>
    <path fill="#666666" d="M13.846,10.832c-0.336-0.464-0.792-0.844-1.368-1.14s-1.224-0.444-1.944-0.444
        c-0.384,0-0.772,0.052-1.164,0.156C8.977,9.509,8.622,9.677,8.301,9.908c-0.32,0.232-0.58,0.52-0.78,0.864
        c-0.2,0.344-0.3,0.756-0.3,1.236c0,0.464,0.092,0.852,0.276,1.164c0.184,0.312,0.432,0.576,0.744,0.792s0.68,0.4,1.104,0.552
        c0.423,0.152,0.876,0.309,1.356,0.468c0.576,0.177,1.16,0.376,1.752,0.601c0.592,0.224,1.128,0.52,1.608,0.888
        s0.872,0.828,1.176,1.38s0.456,1.252,0.456,2.101c0,0.88-0.164,1.644-0.492,2.292c-0.328,0.647-0.765,1.184-1.308,1.607
        c-0.544,0.424-1.172,0.74-1.884,0.948s-1.444,0.312-2.196,0.312c-1.072,0-2.108-0.208-3.108-0.624
        c-1-0.415-1.828-1.031-2.484-1.848l1.848-1.56c0.4,0.592,0.936,1.071,1.608,1.439c0.672,0.368,1.399,0.552,2.184,0.552
        c0.4,0,0.8-0.056,1.2-0.168c0.4-0.111,0.764-0.288,1.092-0.527c0.328-0.24,0.596-0.54,0.804-0.9
        c0.208-0.36,0.312-0.796,0.312-1.308s-0.108-0.94-0.324-1.284c-0.216-0.344-0.508-0.636-0.876-0.876s-0.796-0.444-1.284-0.612
        c-0.488-0.168-1.004-0.34-1.548-0.516c-0.544-0.16-1.08-0.356-1.608-0.588c-0.528-0.232-1-0.528-1.416-0.889
        c-0.416-0.359-0.752-0.804-1.008-1.332c-0.256-0.527-0.384-1.184-0.384-1.968c0-0.848,0.172-1.576,0.516-2.184
        c0.344-0.608,0.792-1.112,1.344-1.512c0.552-0.4,1.176-0.692,1.872-0.876c0.696-0.184,1.396-0.276,2.1-0.276
        c0.992,0,1.92,0.176,2.784,0.528c0.864,0.352,1.56,0.824,2.088,1.416L13.846,10.832z"/>
    <path fill="#666666" d="M18.813,13.304l2.568,8.688h0.048l2.712-8.688h2.376l2.76,8.688h0.048l2.568-8.688h2.376L30.501,24.68
        h-2.352l-2.808-8.544h-0.048l-2.784,8.544h-2.352l-3.792-11.376H18.813z"/>
    <path fill="#666666" d="M38.685,9.2c0,0.416-0.147,0.76-0.44,1.032c-0.294,0.272-0.647,0.408-1.06,0.408s-0.762-0.14-1.047-0.42
        c-0.286-0.28-0.429-0.62-0.429-1.02c0-0.416,0.143-0.764,0.429-1.044c0.286-0.28,0.635-0.42,1.047-0.42s0.766,0.14,1.06,0.42
        C38.538,8.437,38.685,8.784,38.685,9.2z M38.325,24.68h-2.256V13.304h2.256V24.68z"/>
    <path fill="#666666" d="M47.613,15.152h-2.64v9.528h-2.256v-9.528h-2.256v-1.848h2.256v-2.376c0-0.672,0.076-1.292,0.228-1.86
        c0.152-0.568,0.4-1.06,0.744-1.476c0.344-0.416,0.784-0.744,1.32-0.984c0.536-0.24,1.188-0.36,1.956-0.36
        c0.544,0,1.016,0.056,1.416,0.168l-0.264,1.944c-0.176-0.048-0.352-0.088-0.528-0.12c-0.176-0.032-0.376-0.048-0.6-0.048
        c-0.432,0-0.78,0.076-1.044,0.228c-0.264,0.152-0.468,0.356-0.612,0.612s-0.24,0.548-0.288,0.876
        c-0.048,0.328-0.072,0.668-0.072,1.02v2.376h2.64V15.152z"/>
    <path fill="#666666" d="M54.909,15.152h-3.024v5.91c0,0.687,0.128,1.177,0.384,1.472c0.256,0.295,0.664,0.442,1.224,0.442
        c0.208,0,0.432-0.021,0.672-0.065c0.24-0.044,0.456-0.11,0.648-0.198l0.072,1.848c-0.272,0.096-0.572,0.172-0.9,0.229
        c-0.328,0.056-0.668,0.084-1.02,0.084c-1.072,0-1.892-0.296-2.46-0.889c-0.568-0.592-0.852-1.479-0.852-2.664v-6.168h-2.184
        v-1.848h2.184V10.04h2.232v3.264h3.024V15.152z"/>
    <path fill="#666666" d="M57.356,7.688h5.832c1.088,0,2.176,0.16,3.264,0.48c1.088,0.32,2.072,0.824,2.952,1.512
        s1.592,1.568,2.136,2.64c0.544,1.072,0.816,2.36,0.816,3.864c0,1.456-0.272,2.716-0.816,3.78s-1.256,1.943-2.136,2.64
        s-1.864,1.216-2.952,1.561c-1.088,0.344-2.176,0.516-3.264,0.516h-5.832V7.688z M59.732,22.593h2.976
        c1.024,0,1.972-0.145,2.844-0.432c0.872-0.288,1.624-0.704,2.256-1.248c0.632-0.544,1.124-1.216,1.476-2.017
        c0.352-0.8,0.528-1.704,0.528-2.712c0-1.056-0.176-1.983-0.528-2.784c-0.353-0.8-0.844-1.468-1.476-2.004
        c-0.632-0.536-1.384-0.944-2.256-1.224s-1.82-0.42-2.844-0.42h-2.976V22.593z"/>
    <path fill="#666666" d="M86.06,18.969c0,0.88-0.156,1.688-0.468,2.424c-0.312,0.736-0.744,1.372-1.296,1.908
        c-0.552,0.536-1.204,0.952-1.956,1.248c-0.752,0.296-1.56,0.443-2.424,0.443c-0.864,0-1.672-0.147-2.424-0.443
        c-0.752-0.296-1.4-0.712-1.944-1.248c-0.544-0.536-0.972-1.172-1.284-1.908c-0.312-0.735-0.468-1.544-0.468-2.424
        s0.156-1.684,0.468-2.412c0.312-0.728,0.74-1.356,1.284-1.884c0.543-0.528,1.191-0.939,1.944-1.236
        c0.752-0.296,1.56-0.444,2.424-0.444c0.864,0,1.672,0.148,2.424,0.444c0.752,0.297,1.404,0.708,1.956,1.236
        c0.552,0.527,0.984,1.156,1.296,1.884C85.904,17.285,86.06,18.089,86.06,18.969z M83.708,18.98c0-0.542-0.084-1.061-0.252-1.556
        c-0.169-0.494-0.414-0.929-0.734-1.304s-0.718-0.674-1.192-0.897s-1.015-0.335-1.625-0.335c-0.61,0-1.152,0.111-1.625,0.335
        c-0.474,0.224-0.871,0.522-1.191,0.897c-0.321,0.375-0.566,0.81-0.734,1.304C76.184,17.92,76.1,18.438,76.1,18.98
        c0,0.543,0.084,1.062,0.253,1.556c0.168,0.495,0.413,0.934,0.734,1.316c0.321,0.383,0.718,0.686,1.191,0.909
        c0.473,0.224,1.015,0.335,1.625,0.335c0.61,0,1.151-0.111,1.625-0.335s0.871-0.526,1.192-0.909s0.565-0.821,0.734-1.316
        C83.624,20.042,83.708,19.523,83.708,18.98z"/>
    <path fill="#666666" d="M96.428,16.184c-0.24-0.368-0.6-0.676-1.08-0.924s-0.992-0.372-1.536-0.372
        c-0.592,0-1.116,0.112-1.572,0.336c-0.456,0.225-0.844,0.524-1.164,0.9c-0.32,0.376-0.564,0.812-0.732,1.308
        s-0.252,1.017-0.252,1.56c0,0.545,0.084,1.064,0.252,1.561s0.412,0.933,0.732,1.308c0.32,0.376,0.712,0.677,1.176,0.9
        c0.464,0.225,0.992,0.336,1.584,0.336c0.576,0,1.1-0.111,1.572-0.336c0.472-0.224,0.86-0.528,1.164-0.912l1.512,1.368
        c-0.48,0.561-1.08,0.996-1.8,1.308c-0.72,0.312-1.536,0.468-2.448,0.468c-0.88,0-1.692-0.144-2.436-0.432
        c-0.744-0.288-1.388-0.691-1.932-1.212c-0.544-0.52-0.972-1.147-1.284-1.884s-0.468-1.561-0.468-2.473
        c0-0.896,0.152-1.711,0.456-2.447c0.304-0.736,0.728-1.368,1.272-1.896c0.543-0.527,1.188-0.936,1.932-1.224
        c0.744-0.288,1.548-0.433,2.412-0.433c0.8,0,1.596,0.16,2.388,0.48s1.419,0.784,1.884,1.392L96.428,16.184z"/>
    <path fill="#666666" d="M103.1,23.24c0,0.417-0.152,0.784-0.456,1.104c-0.304,0.32-0.688,0.479-1.152,0.479
        c-0.448,0-0.828-0.155-1.14-0.468c-0.312-0.312-0.468-0.676-0.468-1.092c0-0.432,0.152-0.804,0.456-1.116
        c0.304-0.312,0.688-0.468,1.152-0.468c0.464,0,0.848,0.152,1.152,0.456C102.947,22.44,103.1,22.808,103.1,23.24z"/>
    <path fill="#666666" d="M116.635,18.969c0,0.88-0.156,1.688-0.468,2.424c-0.312,0.736-0.744,1.372-1.296,1.908
        c-0.552,0.536-1.204,0.952-1.956,1.248c-0.752,0.296-1.56,0.443-2.424,0.443c-0.864,0-1.672-0.147-2.424-0.443
        c-0.752-0.296-1.4-0.712-1.944-1.248c-0.544-0.536-0.972-1.172-1.284-1.908c-0.312-0.735-0.468-1.544-0.468-2.424
        s0.156-1.684,0.468-2.412c0.312-0.728,0.74-1.356,1.284-1.884c0.543-0.528,1.191-0.939,1.944-1.236
        c0.752-0.296,1.56-0.444,2.424-0.444c0.864,0,1.672,0.148,2.424,0.444c0.752,0.297,1.404,0.708,1.956,1.236
        c0.552,0.527,0.984,1.156,1.296,1.884C116.479,17.285,116.635,18.089,116.635,18.969z M114.283,18.98
        c0-0.542-0.084-1.061-0.252-1.556c-0.169-0.494-0.414-0.929-0.734-1.304s-0.718-0.674-1.192-0.897s-1.015-0.335-1.625-0.335
        c-0.61,0-1.152,0.111-1.625,0.335c-0.474,0.224-0.871,0.522-1.191,0.897c-0.321,0.375-0.566,0.81-0.734,1.304
        c-0.169,0.495-0.253,1.014-0.253,1.556c0,0.543,0.084,1.062,0.253,1.556c0.168,0.495,0.413,0.934,0.734,1.316
        c0.321,0.383,0.718,0.686,1.191,0.909c0.473,0.224,1.015,0.335,1.625,0.335c0.61,0,1.151-0.111,1.625-0.335
        s0.871-0.526,1.192-0.909s0.565-0.821,0.734-1.316C114.199,20.042,114.283,19.523,114.283,18.98z"/>
    <path fill="#666666" d="M119.251,14.577c-0.016-0.48-0.04-0.904-0.072-1.272h2.136c0.032,0.288,0.056,0.62,0.072,0.996
        c0.016,0.376,0.024,0.684,0.024,0.924h0.072c0.32-0.672,0.788-1.212,1.404-1.62c0.616-0.408,1.308-0.612,2.076-0.612
        c0.352,0,0.648,0.033,0.888,0.097l-0.096,2.088c-0.32-0.08-0.664-0.12-1.032-0.12c-0.544,0-1.016,0.101-1.416,0.3
        c-0.4,0.2-0.732,0.468-0.996,0.805c-0.264,0.336-0.46,0.724-0.588,1.163c-0.128,0.44-0.192,0.9-0.192,1.381v5.976h-2.256v-8.928
        C119.275,15.449,119.267,15.056,119.251,14.577z"/>
    <path fill="#666666" d="M128.419,26.625c0.496,0.56,1.116,1.008,1.86,1.344c0.744,0.336,1.508,0.504,2.292,0.504
        c0.752,0,1.384-0.108,1.896-0.324s0.924-0.512,1.236-0.888s0.536-0.82,0.672-1.332c0.136-0.513,0.204-1.064,0.204-1.656v-1.464
        h-0.048c-0.416,0.641-0.984,1.128-1.704,1.464c-0.72,0.336-1.488,0.504-2.304,0.504c-0.864,0-1.652-0.151-2.364-0.456
        c-0.712-0.304-1.316-0.72-1.812-1.248c-0.496-0.527-0.88-1.147-1.152-1.859s-0.408-1.477-0.408-2.292
        c0-0.816,0.136-1.584,0.408-2.305c0.272-0.72,0.656-1.348,1.152-1.884c0.496-0.535,1.096-0.96,1.8-1.271
        c0.704-0.312,1.488-0.469,2.352-0.469c0.816,0,1.596,0.177,2.34,0.528c0.744,0.353,1.332,0.888,1.764,1.608h0.048v-1.824h2.184
        v10.8c0,0.832-0.104,1.628-0.312,2.388c-0.208,0.76-0.56,1.433-1.056,2.017s-1.144,1.052-1.944,1.404
        c-0.8,0.352-1.792,0.527-2.976,0.527c-0.992,0-1.988-0.18-2.988-0.54c-1-0.359-1.86-0.868-2.58-1.523L128.419,26.625z
         M129.091,18.873c0,0.527,0.084,1.031,0.253,1.512c0.168,0.479,0.417,0.904,0.746,1.271c0.329,0.369,0.726,0.664,1.192,0.889
        c0.465,0.224,0.995,0.336,1.589,0.336c0.577,0,1.107-0.104,1.589-0.312c0.481-0.207,0.891-0.491,1.228-0.852
        s0.598-0.784,0.782-1.272c0.185-0.487,0.277-1.012,0.277-1.571c0-0.544-0.093-1.057-0.277-1.536
        c-0.185-0.48-0.449-0.904-0.794-1.272c-0.345-0.367-0.755-0.66-1.228-0.876c-0.474-0.216-1-0.324-1.577-0.324
        c-0.594,0-1.124,0.108-1.589,0.324c-0.466,0.216-0.863,0.504-1.192,0.864s-0.578,0.784-0.746,1.271
        C129.175,17.812,129.091,18.329,129.091,18.873z"/>
</g>
<g><a xlink:href="/" pointer-events="all" target="_top"><polygon fill="none" points="0,0 145,0 145,35 0,35 0,0"/></a></g>

</g>


<!-- AnyBidirectionalCollection -->
<g id="node1" class="node">
<g id="a_node1"><a xlink:href="/v2.1/type/AnyBidirectionalCollection/" target="_top">
<polygon fill="#999999" stroke="#999999" points="333.054,-22 184.946,-22 184.946,-0 333.054,-0 333.054,-22"/>
<text text-anchor="middle" x="259" y="-7.4" font-family="Helvetica,sans-Serif" font-size="12.00" fill="white">AnyBidirectionalCollection</text>
</a>
</g>
</g>
<!-- AnyCollectionType -->
<g id="node2" class="node">
<g id="a_node2"><a xlink:href="/v2.1/protocol/AnyCollectionType/" target="_top">
<path fill="#999999" stroke="#999999" d="M384.211,-80C384.211,-80 289.789,-80 289.789,-80 286.123,-80 282.456,-76.3333 282.456,-72.6667 282.456,-72.6667 282.456,-65.3333 282.456,-65.3333 282.456,-61.6667 286.123,-58 289.789,-58 289.789,-58 384.211,-58 384.211,-58 387.877,-58 391.544,-61.6667 391.544,-65.3333 391.544,-65.3333 391.544,-72.6667 391.544,-72.6667 391.544,-76.3333 387.877,-80 384.211,-80"/>
<text text-anchor="middle" x="337" y="-65.4" font-family="Helvetica,sans-Serif" font-size="12.00" fill="white">AnyCollectionType</text>
</a>
</g>
</g>
<!-- AnyCollectionType&#45;&gt;AnyBidirectionalCollection -->
<g id="edge29" class="edge">
<path fill="none" stroke="#cccccc" d="M323.055,-57.9883C311.481,-49.6784 294.8,-37.7028 281.363,-28.0554"/>
<polygon fill="#cccccc" stroke="#cccccc" points="283.252,-25.1028 273.087,-22.1138 279.169,-30.7891 283.252,-25.1028"/>
</g>
<!-- AnyForwardCollection -->
<g id="node3" class="node">
<g id="a_node3"><a xlink:href="/v2.1/type/AnyForwardCollection/" target="_top">
<polygon fill="#999999" stroke="#999999" points="478.535,-22 351.465,-22 351.465,-0 478.535,-0 478.535,-22"/>
<text text-anchor="middle" x="415" y="-7.4" font-family="Helvetica,sans-Serif" font-size="12.00" fill="white">AnyForwardCollection</text>
</a>
</g>
</g>
<!-- AnyCollectionType&#45;&gt;AnyForwardCollection -->
<g id="edge30" class="edge">
<path fill="none" stroke="#cccccc" d="M350.945,-57.9883C362.519,-49.6784 379.2,-37.7028 392.637,-28.0554"/>
<polygon fill="#cccccc" stroke="#cccccc" points="394.831,-30.7891 400.913,-22.1138 390.748,-25.1028 394.831,-30.7891"/>
</g>
<!-- AnyRandomAccessCollection -->
<g id="node4" class="node">
<g id="a_node4"><a xlink:href="/v2.1/type/AnyRandomAccessCollection/" target="_top">
<polygon fill="#999999" stroke="#999999" points="166.554,-22 -0.554326,-22 -0.554326,-0 166.554,-0 166.554,-22"/>
<text text-anchor="middle" x="83" y="-7.4" font-family="Helvetica,sans-Serif" font-size="12.00" fill="white">AnyRandomAccessCollection</text>
</a>
</g>
</g>
<!-- AnyCollectionType&#45;&gt;AnyRandomAccessCollection -->
<g id="edge31" class="edge">
<path fill="none" stroke="#cccccc" d="M291.59,-57.9883C248.65,-48.5213 184.131,-34.2967 138.232,-24.177"/>
<polygon fill="#cccccc" stroke="#cccccc" points="138.964,-20.7544 128.444,-22.0192 137.456,-27.5903 138.964,-20.7544"/>
</g>
<!-- Array -->
<g id="node5" class="node">
<g id="a_node5"><a xlink:href="/v2.1/type/Array/" target="_top">
<polygon fill="#999999" stroke="#999999" points="551,-22 497,-22 497,-0 551,-0 551,-22"/>
<text text-anchor="middle" x="524" y="-7.4" font-family="Helvetica,sans-Serif" font-size="12.00" fill="white">Array</text>
</a>
</g>
</g>
<!-- ArraySlice -->
<g id="node6" class="node">
<g id="a_node6"><a xlink:href="/v2.1/type/ArraySlice/" target="_top">
<polygon fill="#999999" stroke="#999999" points="1026.01,-22 961.989,-22 961.989,-0 1026.01,-0 1026.01,-22"/>
<text text-anchor="middle" x="994" y="-7.4" font-family="Helvetica,sans-Serif" font-size="12.00" fill="white">ArraySlice</text>
</a>
</g>
</g>
<!-- CollectionOfOne -->
<g id="node7" class="node">
<g id="a_node7"><a xlink:href="/v2.1/type/CollectionOfOne/" target="_top">
<polygon fill="#999999" stroke="#999999" points="1451.03,-22 1352.97,-22 1352.97,-0 1451.03,-0 1451.03,-22"/>
<text text-anchor="middle" x="1402" y="-7.4" font-family="Helvetica,sans-Serif" font-size="12.00" fill="white">CollectionOfOne</text>
</a>
</g>
</g>
<!-- CollectionType -->
<g id="node8" class="node">
<g id="a_node8"><a xlink:href="/v2.1/protocol/CollectionType/" target="_top">
<path fill="#999999" stroke="#999999" d="M1898.7,-254C1898.7,-254 1825.3,-254 1825.3,-254 1821.63,-254 1817.96,-250.333 1817.96,-246.667 1817.96,-246.667 1817.96,-239.333 1817.96,-239.333 1817.96,-235.667 1821.63,-232 1825.3,-232 1825.3,-232 1898.7,-232 1898.7,-232 1902.37,-232 1906.04,-235.667 1906.04,-239.333 1906.04,-239.333 1906.04,-246.667 1906.04,-246.667 1906.04,-250.333 1902.37,-254 1898.7,-254"/>
<text text-anchor="middle" x="1862" y="-239.4" font-family="Helvetica,sans-Serif" font-size="12.00" fill="white">CollectionType</text>
</a>
</g>
</g>
<!-- CollectionType&#45;&gt;AnyCollectionType -->
<g id="edge2" class="edge">
<path fill="none" stroke="#cccccc" d="M1817.9,-241.979C1599.86,-241.676 642.551,-237.949 517,-196 449.206,-173.349 384.219,-116.35 354.251,-87.4221"/>
<polygon fill="#cccccc" stroke="#cccccc" points="356.341,-84.5691 346.754,-80.0591 351.437,-89.5633 356.341,-84.5691"/>
</g>
<!-- CollectionType&#45;&gt;Array -->
<g id="edge3" class="edge">
<path fill="none" stroke="#cccccc" d="M1817.92,-242.105C1634.75,-242.253 933.298,-239.885 717,-196 645.323,-181.457 613.141,-191.245 563,-138 535.266,-108.55 527.237,-59.7432 524.925,-32.3196"/>
<polygon fill="#cccccc" stroke="#cccccc" points="528.415,-32.0538 524.257,-22.3087 521.43,-32.5193 528.415,-32.0538"/>
</g>
<!-- CollectionType&#45;&gt;ArraySlice -->
<g id="edge4" class="edge">
<path fill="none" stroke="#cccccc" d="M1817.9,-240.763C1676.7,-236.562 1241.67,-221.654 1184,-196 1162.42,-186.403 1052.85,-73.4342 1010.63,-29.4093"/>
<polygon fill="#cccccc" stroke="#cccccc" points="1013.01,-26.8336 1003.56,-22.0317 1007.95,-31.675 1013.01,-26.8336"/>
</g>
<!-- CollectionType&#45;&gt;CollectionOfOne -->
<g id="edge5" class="edge">
<path fill="none" stroke="#cccccc" d="M1833.46,-231.984C1809.31,-223.245 1773.94,-209.828 1744,-196 1622.78,-140.015 1484.44,-60.5331 1428.01,-27.4139"/>
<polygon fill="#cccccc" stroke="#cccccc" points="1429.45,-24.2014 1419.06,-22.145 1425.9,-30.234 1429.45,-24.2014"/>
</g>
<!-- ContiguousArray -->
<g id="node9" class="node">
<g id="a_node9"><a xlink:href="/v2.1/type/ContiguousArray/" target="_top">
<polygon fill="#999999" stroke="#999999" points="943.534,-22 844.466,-22 844.466,-0 943.534,-0 943.534,-22"/>
<text text-anchor="middle" x="894" y="-7.4" font-family="Helvetica,sans-Serif" font-size="12.00" fill="white">ContiguousArray</text>
</a>
</g>
</g>
<!-- CollectionType&#45;&gt;ContiguousArray -->
<g id="edge6" class="edge">
<path fill="none" stroke="#cccccc" d="M1817.76,-242.406C1668.71,-243.328 1186,-242.559 1039,-196 992.561,-181.291 977.467,-175.186 946,-138 919.249,-106.386 904.772,-59.1147 898.289,-32.3655"/>
<polygon fill="#cccccc" stroke="#cccccc" points="901.621,-31.2362 895.987,-22.2635 894.796,-32.7911 901.621,-31.2362"/>
</g>
<!-- Dictionary -->
<g id="node10" class="node">
<g id="a_node10"><a xlink:href="/v2.1/type/Dictionary/" target="_top">
<polygon fill="#999999" stroke="#999999" points="1532.51,-22 1469.49,-22 1469.49,-0 1532.51,-0 1532.51,-22"/>
<text text-anchor="middle" x="1501" y="-7.4" font-family="Helvetica,sans-Serif" font-size="12.00" fill="white">Dictionary</text>
</a>
</g>
</g>
<!-- CollectionType&#45;&gt;Dictionary -->
<g id="edge7" class="edge">
<path fill="none" stroke="#cccccc" d="M1843.71,-231.883C1827.38,-222.754 1802.89,-208.829 1782,-196 1684.67,-136.221 1571.77,-60.1998 1524.11,-27.7885"/>
<polygon fill="#cccccc" stroke="#cccccc" points="1525.97,-24.8171 1515.73,-22.0813 1522.03,-30.6029 1525.97,-24.8171"/>
</g>
<!-- DictionaryLiteral -->
<g id="node11" class="node">
<g id="a_node11"><a xlink:href="/v2.1/type/DictionaryLiteral/" target="_top">
<polygon fill="#999999" stroke="#999999" points="1647.02,-22 1550.98,-22 1550.98,-0 1647.02,-0 1647.02,-22"/>
<text text-anchor="middle" x="1599" y="-7.4" font-family="Helvetica,sans-Serif" font-size="12.00" fill="white">DictionaryLiteral</text>
</a>
</g>
</g>
<!-- CollectionType&#45;&gt;DictionaryLiteral -->
<g id="edge8" class="edge">
<path fill="none" stroke="#cccccc" d="M1850.36,-231.82C1809.11,-195.75 1669.65,-73.7883 1618.24,-28.827"/>
<polygon fill="#cccccc" stroke="#cccccc" points="1620.34,-26.0104 1610.51,-22.062 1615.73,-31.2797 1620.34,-26.0104"/>
</g>
<!-- EmptyCollection -->
<g id="node12" class="node">
<g id="a_node12"><a xlink:href="/v2.1/type/EmptyCollection/" target="_top">
<polygon fill="#999999" stroke="#999999" points="1761.03,-22 1664.97,-22 1664.97,-0 1761.03,-0 1761.03,-22"/>
<text text-anchor="middle" x="1713" y="-7.4" font-family="Helvetica,sans-Serif" font-size="12.00" fill="white">EmptyCollection</text>
</a>
</g>
</g>
<!-- CollectionType&#45;&gt;EmptyCollection -->
<g id="edge9" class="edge">
<path fill="none" stroke="#cccccc" d="M1855.41,-231.82C1832.33,-196.196 1754.97,-76.7927 1725,-30.5307"/>
<polygon fill="#cccccc" stroke="#cccccc" points="1727.89,-28.5518 1719.52,-22.062 1722.02,-32.3578 1727.89,-28.5518"/>
</g>
<!-- FlattenBidirectionalCollection -->
<g id="node13" class="node">
<g id="a_node13"><a xlink:href="/v2.1/type/FlattenBidirectionalCollection/" target="_top">
<polygon fill="#999999" stroke="#999999" points="1944.06,-22 1779.94,-22 1779.94,-0 1944.06,-0 1944.06,-22"/>
<text text-anchor="middle" x="1862" y="-7.4" font-family="Helvetica,sans-Serif" font-size="12.00" fill="white">FlattenBidirectionalCollection</text>
</a>
</g>
</g>
<!-- CollectionType&#45;&gt;FlattenBidirectionalCollection -->
<g id="edge10" class="edge">
<path fill="none" stroke="#cccccc" d="M1862,-231.82C1862,-196.642 1862,-79.7709 1862,-32.3033"/>
<polygon fill="#cccccc" stroke="#cccccc" points="1865.5,-32.062 1862,-22.062 1858.5,-32.0621 1865.5,-32.062"/>
</g>
<!-- FlattenCollection -->
<g id="node14" class="node">
<g id="a_node14"><a xlink:href="/v2.1/type/FlattenCollection/" target="_top">
<polygon fill="#999999" stroke="#999999" points="2061.53,-22 1962.47,-22 1962.47,-0 2061.53,-0 2061.53,-22"/>
<text text-anchor="middle" x="2012" y="-7.4" font-family="Helvetica,sans-Serif" font-size="12.00" fill="white">FlattenCollection</text>
</a>
</g>
</g>
<!-- CollectionType&#45;&gt;FlattenCollection -->
<g id="edge11" class="edge">
<path fill="none" stroke="#cccccc" d="M1868.64,-231.82C1891.87,-196.196 1969.74,-76.7927 1999.91,-30.5307"/>
<polygon fill="#cccccc" stroke="#cccccc" points="2002.91,-32.3501 2005.44,-22.062 1997.04,-28.5262 2002.91,-32.3501"/>
</g>
<!-- LazyCollection -->
<g id="node16" class="node">
<g id="a_node16"><a xlink:href="/v2.1/type/LazyCollection/" target="_top">
<polygon fill="#999999" stroke="#999999" points="2168.03,-22 2079.97,-22 2079.97,-0 2168.03,-0 2168.03,-22"/>
<text text-anchor="middle" x="2124" y="-7.4" font-family="Helvetica,sans-Serif" font-size="12.00" fill="white">LazyCollection</text>
</a>
</g>
</g>
<!-- CollectionType&#45;&gt;LazyCollection -->
<g id="edge12" class="edge">
<path fill="none" stroke="#cccccc" d="M1873.6,-231.82C1914.68,-195.75 2053.62,-73.7883 2104.83,-28.827"/>
<polygon fill="#cccccc" stroke="#cccccc" points="2107.33,-31.2896 2112.54,-22.062 2102.71,-26.029 2107.33,-31.2896"/>
</g>
<!-- LazyCollectionType -->
<g id="node17" class="node">
<g id="a_node17"><a xlink:href="/v2.1/protocol/LazyCollectionType/" target="_top">
<path fill="#999999" stroke="#999999" d="M2256.71,-80C2256.71,-80 2157.29,-80 2157.29,-80 2153.62,-80 2149.95,-76.3333 2149.95,-72.6667 2149.95,-72.6667 2149.95,-65.3333 2149.95,-65.3333 2149.95,-61.6667 2153.62,-58 2157.29,-58 2157.29,-58 2256.71,-58 2256.71,-58 2260.38,-58 2264.05,-61.6667 2264.05,-65.3333 2264.05,-65.3333 2264.05,-72.6667 2264.05,-72.6667 2264.05,-76.3333 2260.38,-80 2256.71,-80"/>
<text text-anchor="middle" x="2207" y="-65.4" font-family="Helvetica,sans-Serif" font-size="12.00" fill="white">LazyCollectionType</text>
</a>
</g>
</g>
<!-- CollectionType&#45;&gt;LazyCollectionType -->
<g id="edge13" class="edge">
<path fill="none" stroke="#cccccc" d="M1906.06,-242.154C1956.48,-240.464 2039.96,-231.827 2101,-196 2145.77,-169.723 2180.36,-117.327 2196.69,-89.0873"/>
<polygon fill="#cccccc" stroke="#cccccc" points="2199.84,-90.621 2201.69,-80.1885 2193.74,-87.1921 2199.84,-90.621"/>
</g>
<!-- MutableCollectionType -->
<g id="node20" class="node">
<g id="a_node20"><a xlink:href="/v2.1/protocol/MutableCollectionType/" target="_top">
<path fill="#999999" stroke="#999999" d="M850.221,-196C850.221,-196 733.779,-196 733.779,-196 730.112,-196 726.446,-192.333 726.446,-188.667 726.446,-188.667 726.446,-181.333 726.446,-181.333 726.446,-177.667 730.112,-174 733.779,-174 733.779,-174 850.221,-174 850.221,-174 853.888,-174 857.554,-177.667 857.554,-181.333 857.554,-181.333 857.554,-188.667 857.554,-188.667 857.554,-192.333 853.888,-196 850.221,-196"/>
<text text-anchor="middle" x="792" y="-181.4" font-family="Helvetica,sans-Serif" font-size="12.00" fill="white">MutableCollectionType</text>
</a>
</g>
</g>
<!-- CollectionType&#45;&gt;MutableCollectionType -->
<g id="edge14" class="edge">
<path fill="none" stroke="#cccccc" d="M1817.66,-241.092C1678.52,-237.995 1238.26,-226.307 875,-196 872.62,-195.801 870.204,-195.587 867.765,-195.36"/>
<polygon fill="#cccccc" stroke="#cccccc" points="867.945,-191.861 857.649,-194.36 867.256,-198.827 867.945,-191.861"/>
</g>
<!-- MutableSliceable -->
<g id="node22" class="node">
<g id="a_node22"><a xlink:href="/v2.1/protocol/MutableSliceable/" target="_top">
<path fill="#999999" stroke="#999999" d="M1049.21,-138C1049.21,-138 962.792,-138 962.792,-138 959.126,-138 955.459,-134.333 955.459,-130.667 955.459,-130.667 955.459,-123.333 955.459,-123.333 955.459,-119.667 959.126,-116 962.792,-116 962.792,-116 1049.21,-116 1049.21,-116 1052.87,-116 1056.54,-119.667 1056.54,-123.333 1056.54,-123.333 1056.54,-130.667 1056.54,-130.667 1056.54,-134.333 1052.87,-138 1049.21,-138"/>
<text text-anchor="middle" x="1006" y="-123.4" font-family="Helvetica,sans-Serif" font-size="12.00" fill="white">MutableSliceable</text>
</a>
</g>
</g>
<!-- CollectionType&#45;&gt;MutableSliceable -->
<g id="edge15" class="edge">
<path fill="none" stroke="#cccccc" d="M1817.78,-241.312C1661.19,-238.619 1138.82,-227.35 1071,-196 1048.2,-185.459 1029.33,-163.037 1017.9,-146.816"/>
<polygon fill="#cccccc" stroke="#cccccc" points="1020.54,-144.468 1012.06,-138.119 1014.73,-148.371 1020.54,-144.468"/>
</g>
<!-- Range -->
<g id="node23" class="node">
<g id="a_node23"><a xlink:href="/v2.1/type/Range/" target="_top">
<polygon fill="#999999" stroke="#999999" points="2502,-22 2448,-22 2448,-0 2502,-0 2502,-22"/>
<text text-anchor="middle" x="2475" y="-7.4" font-family="Helvetica,sans-Serif" font-size="12.00" fill="white">Range</text>
</a>
</g>
</g>
<!-- CollectionType&#45;&gt;Range -->
<g id="edge16" class="edge">
<path fill="none" stroke="#cccccc" d="M1906.23,-238.761C1960.26,-233.825 2053.85,-222.08 2130,-196 2259,-151.817 2397.98,-63.6794 2451.85,-27.7728"/>
<polygon fill="#cccccc" stroke="#cccccc" points="2453.97,-30.5631 2460.32,-22.0841 2450.07,-24.7508 2453.97,-30.5631"/>
</g>
<!-- RangeReplaceableCollectionType -->
<g id="node24" class="node">
<g id="a_node24"><a xlink:href="/v2.1/protocol/RangeReplaceableCollectionType/" target="_top">
<path fill="#999999" stroke="#999999" d="M1333.76,-138C1333.76,-138 1158.24,-138 1158.24,-138 1154.57,-138 1150.91,-134.333 1150.91,-130.667 1150.91,-130.667 1150.91,-123.333 1150.91,-123.333 1150.91,-119.667 1154.57,-116 1158.24,-116 1158.24,-116 1333.76,-116 1333.76,-116 1337.43,-116 1341.09,-119.667 1341.09,-123.333 1341.09,-123.333 1341.09,-130.667 1341.09,-130.667 1341.09,-134.333 1337.43,-138 1333.76,-138"/>
<text text-anchor="middle" x="1246" y="-123.4" font-family="Helvetica,sans-Serif" font-size="12.00" fill="white">RangeReplaceableCollectionType</text>
</a>
</g>
</g>
<!-- CollectionType&#45;&gt;RangeReplaceableCollectionType -->
<g id="edge17" class="edge">
<path fill="none" stroke="#cccccc" d="M1817.93,-240.617C1711,-236.845 1440.35,-224.676 1355,-196 1320.96,-184.563 1286.62,-160.616 1265.83,-144.418"/>
<polygon fill="#cccccc" stroke="#cccccc" points="1267.79,-141.504 1257.78,-138.009 1263.42,-146.978 1267.79,-141.504"/>
</g>
<!-- Repeat -->
<g id="node25" class="node">
<g id="a_node25"><a xlink:href="/v2.1/type/Repeat/" target="_top">
<polygon fill="#999999" stroke="#999999" points="2574,-22 2520,-22 2520,-0 2574,-0 2574,-22"/>
<text text-anchor="middle" x="2547" y="-7.4" font-family="Helvetica,sans-Serif" font-size="12.00" fill="white">Repeat</text>
</a>
</g>
</g>
<!-- CollectionType&#45;&gt;Repeat -->
<g id="edge18" class="edge">
<path fill="none" stroke="#cccccc" d="M1906.22,-239.354C1967.13,-234.832 2079.79,-223.302 2172,-196 2312.59,-154.374 2465.02,-63.7285 2522.89,-27.4569"/>
<polygon fill="#cccccc" stroke="#cccccc" points="2524.76,-30.4148 2531.35,-22.1182 2521.03,-24.4949 2524.76,-30.4148"/>
</g>
<!-- ReverseCollection -->
<g id="node26" class="node">
<g id="a_node26"><a xlink:href="/v2.1/type/ReverseCollection/" target="_top">
<polygon fill="#999999" stroke="#999999" points="2699.53,-22 2592.47,-22 2592.47,-0 2699.53,-0 2699.53,-22"/>
<text text-anchor="middle" x="2646" y="-7.4" font-family="Helvetica,sans-Serif" font-size="12.00" fill="white">ReverseCollection</text>
</a>
</g>
</g>
<!-- CollectionType&#45;&gt;ReverseCollection -->
<g id="edge19" class="edge">
<path fill="none" stroke="#cccccc" d="M1906.28,-239.852C1973.99,-235.765 2106.88,-224.567 2216,-196 2282.75,-178.525 2296.42,-164.801 2360,-138 2453.19,-98.7149 2562.3,-49.8385 2614.74,-26.1652"/>
<polygon fill="#cccccc" stroke="#cccccc" points="2616.18,-29.3536 2623.85,-22.0462 2613.3,-22.9746 2616.18,-29.3536"/>
</g>
<!-- Set -->
<g id="node28" class="node">
<g id="a_node28"><a xlink:href="/v2.1/type/Set/" target="_top">
<polygon fill="#999999" stroke="#999999" points="2981,-22 2927,-22 2927,-0 2981,-0 2981,-22"/>
<text text-anchor="middle" x="2954" y="-7.4" font-family="Helvetica,sans-Serif" font-size="12.00" fill="white">Set</text>
</a>
</g>
</g>
<!-- CollectionType&#45;&gt;Set -->
<g id="edge20" class="edge">
<path fill="none" stroke="#cccccc" d="M1906.44,-241.746C2046.39,-240.558 2476.54,-233.843 2610,-196 2741.82,-158.624 2880.12,-65.4198 2932.34,-27.9601"/>
<polygon fill="#cccccc" stroke="#cccccc" points="2934.47,-30.7379 2940.52,-22.0401 2930.37,-25.0668 2934.47,-30.7379"/>
</g>
<!-- Slice -->
<g id="node29" class="node">
<g id="a_node29"><a xlink:href="/v2.1/type/Slice/" target="_top">
<polygon fill="#999999" stroke="#999999" points="3053,-22 2999,-22 2999,-0 3053,-0 3053,-22"/>
<text text-anchor="middle" x="3026" y="-7.4" font-family="Helvetica,sans-Serif" font-size="12.00" fill="white">Slice</text>
</a>
</g>
</g>
<!-- CollectionType&#45;&gt;Slice -->
<g id="edge21" class="edge">
<path fill="none" stroke="#cccccc" d="M1906.16,-241.449C2051.06,-239.325 2510.97,-230.007 2655,-196 2797.18,-162.431 2947.38,-66.2357 3003.3,-27.9751"/>
<polygon fill="#cccccc" stroke="#cccccc" points="3005.5,-30.7064 3011.74,-22.1447 3001.53,-24.9458 3005.5,-30.7064"/>
</g>
<!-- String.CharacterView -->
<g id="node30" class="node">
<g id="a_node30"><a xlink:href="/v2.1/type/String.CharacterView/" target="_top">
<polygon fill="#999999" stroke="#999999" points="1334.38,-22 1211.62,-22 1211.62,-0 1334.38,-0 1334.38,-22"/>
<text text-anchor="middle" x="1273" y="-7.4" font-family="Helvetica,sans-Serif" font-size="12.00" fill="white">String.CharacterView</text>
</a>
</g>
</g>
<!-- CollectionType&#45;&gt;String.CharacterView -->
<g id="edge25" class="edge">
<path fill="none" stroke="#cccccc" d="M1820.4,-231.99C1786.96,-223.548 1738.97,-210.538 1698,-196 1545.97,-142.049 1371.2,-59.6465 1302.71,-26.5266"/>
<polygon fill="#cccccc" stroke="#cccccc" points="1303.91,-23.2218 1293.39,-22.0069 1300.86,-29.5201 1303.91,-23.2218"/>
</g>
<!-- String.UTF16View -->
<g id="node31" class="node">
<g id="a_node31"><a xlink:href="/v2.1/type/String.UTF16View/" target="_top">
<polygon fill="#999999" stroke="#999999" points="3178.37,-22 3071.63,-22 3071.63,-0 3178.37,-0 3178.37,-22"/>
<text text-anchor="middle" x="3125" y="-7.4" font-family="Helvetica,sans-Serif" font-size="12.00" fill="white">String.UTF16View</text>
</a>
</g>
</g>
<!-- CollectionType&#45;&gt;String.UTF16View -->
<g id="edge27" class="edge">
<path fill="none" stroke="#cccccc" d="M1906.26,-241.508C2057.15,-239.529 2550.6,-230.512 2705,-196 2771.93,-181.038 2784.99,-165.093 2848,-138 2938.28,-99.1783 3043.61,-50.25 3094.45,-26.3985"/>
<polygon fill="#cccccc" stroke="#cccccc" points="3096.02,-29.5282 3103.59,-22.1088 3093.05,-23.1922 3096.02,-29.5282"/>
</g>
<!-- String.UTF8View -->
<g id="node32" class="node">
<g id="a_node32"><a xlink:href="/v2.1/type/String.UTF8View/" target="_top">
<polygon fill="#999999" stroke="#999999" points="3297.36,-22 3196.64,-22 3196.64,-0 3297.36,-0 3297.36,-22"/>
<text text-anchor="middle" x="3247" y="-7.4" font-family="Helvetica,sans-Serif" font-size="12.00" fill="white">String.UTF8View</text>
</a>
</g>
</g>
<!-- CollectionType&#45;&gt;String.UTF8View -->
<g id="edge28" class="edge">
<path fill="none" stroke="#cccccc" d="M1906.28,-241.494C2062.65,-239.429 2588.43,-230.058 2753,-196 2936.55,-158.015 3142.59,-63.0422 3217.65,-26.5754"/>
<polygon fill="#cccccc" stroke="#cccccc" points="3219.51,-29.5633 3226.96,-22.0279 3216.44,-23.2742 3219.51,-29.5633"/>
</g>
<!-- String.UnicodeScalarView -->
<g id="node33" class="node">
<g id="a_node33"><a xlink:href="/v2.1/type/String.UnicodeScalarView/" target="_top">
<polygon fill="#999999" stroke="#999999" points="1192.89,-22 1045.11,-22 1045.11,-0 1192.89,-0 1192.89,-22"/>
<text text-anchor="middle" x="1119" y="-7.4" font-family="Helvetica,sans-Serif" font-size="12.00" fill="white">String.UnicodeScalarView</text>
</a>
</g>
</g>
<!-- CollectionType&#45;&gt;String.UnicodeScalarView -->
<g id="edge26" class="edge">
<path fill="none" stroke="#cccccc" d="M1817.91,-242.14C1723.26,-241.616 1493.98,-235.923 1307,-196 1230.98,-179.769 1192.47,-197.118 1142,-138 1116.61,-108.257 1115.25,-59.9113 1116.89,-32.5619"/>
<polygon fill="#cccccc" stroke="#cccccc" points="1120.4,-32.4884 1117.71,-22.2416 1113.43,-31.9314 1120.4,-32.4884"/>
</g>
<!-- UnicodeScalar.UTF16View -->
<g id="node34" class="node">
<g id="a_node34"><a xlink:href="/v2.1/type/UnicodeScalar.UTF16View/" target="_top">
<polygon fill="#999999" stroke="#999999" points="3468.39,-22 3315.61,-22 3315.61,-0 3468.39,-0 3468.39,-22"/>
<text text-anchor="middle" x="3392" y="-7.4" font-family="Helvetica,sans-Serif" font-size="12.00" fill="white">UnicodeScalar.UTF16View</text>
</a>
</g>
</g>
<!-- CollectionType&#45;&gt;UnicodeScalar.UTF16View -->
<g id="edge22" class="edge">
<path fill="none" stroke="#cccccc" d="M1906.21,-241.332C2068.75,-238.647 2632.92,-227.239 2810,-196 2895.69,-180.882 2913.99,-164.111 2997,-138 3126.52,-97.2575 3279.62,-48.1481 3351.24,-25.1214"/>
<polygon fill="#cccccc" stroke="#cccccc" points="3352.34,-28.4426 3360.79,-22.049 3350.2,-21.7788 3352.34,-28.4426"/>
</g>
<!-- UnsafeBufferPointer -->
<g id="node35" class="node">
<g id="a_node35"><a xlink:href="/v2.1/type/UnsafeBufferPointer/" target="_top">
<polygon fill="#999999" stroke="#999999" points="3604.39,-22 3487.61,-22 3487.61,-0 3604.39,-0 3604.39,-22"/>
<text text-anchor="middle" x="3546" y="-7.4" font-family="Helvetica,sans-Serif" font-size="12.00" fill="white">UnsafeBufferPointer</text>
</a>
</g>
</g>
<!-- CollectionType&#45;&gt;UnsafeBufferPointer -->
<g id="edge23" class="edge">
<path fill="none" stroke="#cccccc" d="M1906.2,-241.263C2074.83,-238.252 2677.72,-225.612 2867,-196 3116.61,-156.95 3406.18,-60.8662 3508.14,-25.419"/>
<polygon fill="#cccccc" stroke="#cccccc" points="3509.41,-28.6842 3517.7,-22.0839 3507.1,-22.0753 3509.41,-28.6842"/>
</g>
<!-- _ReverseCollectionType -->
<g id="node39" class="node">
<g id="a_node39"><a xlink:href="/v2.1/protocol/_ReverseCollectionType/" target="_top">
<path fill="#999999" stroke="#999999" d="M2728.72,-80C2728.72,-80 2603.28,-80 2603.28,-80 2599.61,-80 2595.95,-76.3333 2595.95,-72.6667 2595.95,-72.6667 2595.95,-65.3333 2595.95,-65.3333 2595.95,-61.6667 2599.61,-58 2603.28,-58 2603.28,-58 2728.72,-58 2728.72,-58 2732.39,-58 2736.05,-61.6667 2736.05,-65.3333 2736.05,-65.3333 2736.05,-72.6667 2736.05,-72.6667 2736.05,-76.3333 2732.39,-80 2728.72,-80"/>
<text text-anchor="middle" x="2666" y="-65.4" font-family="Helvetica,sans-Serif" font-size="12.00" fill="white">_ReverseCollectionType</text>
</a>
</g>
</g>
<!-- CollectionType&#45;&gt;_ReverseCollectionType -->
<g id="edge24" class="edge">
<path fill="none" stroke="#cccccc" d="M1906.23,-241.439C2053.84,-239.256 2523.58,-229.703 2582,-196 2623.37,-172.129 2648.33,-118.675 2659.33,-89.6535"/>
<polygon fill="#cccccc" stroke="#cccccc" points="2662.66,-90.7609 2662.76,-80.1666 2656.07,-88.3827 2662.66,-90.7609"/>
</g>
<!-- Indexable -->
<g id="node15" class="node">
<g id="a_node15"><a xlink:href="/v2.1/protocol/Indexable/" target="_top">
<path fill="#ee543d" stroke="#ee543d" d="M1885.7,-312C1885.7,-312 1838.3,-312 1838.3,-312 1834.63,-312 1830.97,-308.333 1830.97,-304.667 1830.97,-304.667 1830.97,-297.333 1830.97,-297.333 1830.97,-293.667 1834.63,-290 1838.3,-290 1838.3,-290 1885.7,-290 1885.7,-290 1889.37,-290 1893.03,-293.667 1893.03,-297.333 1893.03,-297.333 1893.03,-304.667 1893.03,-304.667 1893.03,-308.333 1889.37,-312 1885.7,-312"/>
<text text-anchor="middle" x="1862" y="-297.4" font-family="Helvetica,sans-Serif" font-size="12.00" fill="white">Indexable</text>
</a>
</g>
</g>
<!-- Indexable&#45;&gt;CollectionType -->
<g id="edge1" class="edge">
<path fill="none" stroke="#cccccc" d="M1862,-289.988C1862,-282.91 1862,-273.171 1862,-264.478"/>
<polygon fill="#cccccc" stroke="#cccccc" points="1865.5,-264.304 1862,-254.304 1858.5,-264.304 1865.5,-264.304"/>
</g>
<!-- LazyCollectionType&#45;&gt;LazyCollection -->
<g id="edge32" class="edge">
<path fill="none" stroke="#cccccc" d="M2192.16,-57.9883C2179.73,-49.5993 2161.76,-37.4743 2147.39,-27.7804"/>
<polygon fill="#cccccc" stroke="#cccccc" points="2149.24,-24.8055 2138.99,-22.1138 2145.32,-30.6083 2149.24,-24.8055"/>
</g>
<!-- LazyFilterCollection -->
<g id="node18" class="node">
<g id="a_node18"><a xlink:href="/v2.1/type/LazyFilterCollection/" target="_top">
<polygon fill="#999999" stroke="#999999" points="2430.03,-22 2315.97,-22 2315.97,-0 2430.03,-0 2430.03,-22"/>
<text text-anchor="middle" x="2373" y="-7.4" font-family="Helvetica,sans-Serif" font-size="12.00" fill="white">LazyFilterCollection</text>
</a>
</g>
</g>
<!-- LazyCollectionType&#45;&gt;LazyFilterCollection -->
<g id="edge33" class="edge">
<path fill="none" stroke="#cccccc" d="M2236.68,-57.9883C2263.74,-48.8587 2303.92,-35.3046 2333.65,-25.2743"/>
<polygon fill="#cccccc" stroke="#cccccc" points="2334.94,-28.5322 2343.3,-22.0192 2332.71,-21.8994 2334.94,-28.5322"/>
</g>
<!-- LazyMapCollection -->
<g id="node19" class="node">
<g id="a_node19"><a xlink:href="/v2.1/type/LazyMapCollection/" target="_top">
<polygon fill="#999999" stroke="#999999" points="2297.54,-22 2186.46,-22 2186.46,-0 2297.54,-0 2297.54,-22"/>
<text text-anchor="middle" x="2242" y="-7.4" font-family="Helvetica,sans-Serif" font-size="12.00" fill="white">LazyMapCollection</text>
</a>
</g>
</g>
<!-- LazyCollectionType&#45;&gt;LazyMapCollection -->
<g id="edge34" class="edge">
<path fill="none" stroke="#cccccc" d="M2213.26,-57.9883C2217.93,-50.5165 2224.45,-40.0812 2230.1,-31.0393"/>
<polygon fill="#cccccc" stroke="#cccccc" points="2233.23,-32.6389 2235.56,-22.3039 2227.29,-28.9289 2233.23,-32.6389"/>
</g>
<!-- MutableCollectionType&#45;&gt;Array -->
<g id="edge35" class="edge">
<path fill="none" stroke="#cccccc" d="M776.038,-173.756C730.978,-144.837 602.571,-62.4264 548.488,-27.7162"/>
<polygon fill="#cccccc" stroke="#cccccc" points="550.185,-24.6463 539.878,-22.1906 546.404,-30.5374 550.185,-24.6463"/>
</g>
<!-- MutableCollectionType&#45;&gt;ArraySlice -->
<g id="edge36" class="edge">
<path fill="none" stroke="#cccccc" d="M804.031,-173.756C837.643,-145.136 932.785,-64.1234 974.261,-28.8071"/>
<polygon fill="#cccccc" stroke="#cccccc" points="976.687,-31.3385 982.032,-22.1906 972.149,-26.0088 976.687,-31.3385"/>
</g>
<!-- MutableCollectionType&#45;&gt;ContiguousArray -->
<g id="edge37" class="edge">
<path fill="none" stroke="#cccccc" d="M798.075,-173.756C814.689,-145.74 861.075,-67.5202 882.671,-31.1037"/>
<polygon fill="#cccccc" stroke="#cccccc" points="885.737,-32.7947 887.828,-22.4081 879.716,-29.2241 885.737,-32.7947"/>
</g>
<!-- MutableSlice -->
<g id="node21" class="node">
<g id="a_node21"><a xlink:href="/v2.1/type/MutableSlice/" target="_top">
<polygon fill="#999999" stroke="#999999" points="826.027,-22 747.973,-22 747.973,-0 826.027,-0 826.027,-22"/>
<text text-anchor="middle" x="787" y="-7.4" font-family="Helvetica,sans-Serif" font-size="12.00" fill="white">MutableSlice</text>
</a>
</g>
</g>
<!-- MutableCollectionType&#45;&gt;MutableSlice -->
<g id="edge38" class="edge">
<path fill="none" stroke="#cccccc" d="M791.702,-173.756C790.898,-146.097 788.672,-69.5091 787.596,-32.5186"/>
<polygon fill="#cccccc" stroke="#cccccc" points="791.092,-32.3021 787.303,-22.4081 784.095,-32.5056 791.092,-32.3021"/>
</g>
<!-- MutableCollectionType&#45;&gt;MutableSliceable -->
<g id="edge39" class="edge">
<path fill="none" stroke="#cccccc" d="M830.259,-173.988C865.905,-164.66 919.203,-150.713 957.754,-140.625"/>
<polygon fill="#cccccc" stroke="#cccccc" points="958.924,-143.937 967.712,-138.019 957.152,-137.165 958.924,-143.937"/>
</g>
<!-- UnsafeMutableBufferPointer -->
<g id="node36" class="node">
<g id="a_node36"><a xlink:href="/v2.1/type/UnsafeMutableBufferPointer/" target="_top">
<polygon fill="#999999" stroke="#999999" points="728.905,-22 569.095,-22 569.095,-0 728.905,-0 728.905,-22"/>
<text text-anchor="middle" x="649" y="-7.4" font-family="Helvetica,sans-Serif" font-size="12.00" fill="white">UnsafeMutableBufferPointer</text>
</a>
</g>
</g>
<!-- MutableCollectionType&#45;&gt;UnsafeMutableBufferPointer -->
<g id="edge40" class="edge">
<path fill="none" stroke="#cccccc" d="M787.928,-173.845C778.409,-151.041 752.84,-94.8839 718,-58 706.433,-45.7546 691.027,-35.0939 677.706,-27.1271"/>
<polygon fill="#cccccc" stroke="#cccccc" points="679.304,-24.0084 668.89,-22.0558 675.813,-30.0761 679.304,-24.0084"/>
</g>
<!-- _ArrayBufferType -->
<g id="node37" class="node">
<g id="a_node37"><a xlink:href="/v2.1/protocol/_ArrayBufferType/" target="_top">
<path fill="#999999" stroke="#999999" d="M668.044,-138C668.044,-138 579.956,-138 579.956,-138 576.29,-138 572.623,-134.333 572.623,-130.667 572.623,-130.667 572.623,-123.333 572.623,-123.333 572.623,-119.667 576.29,-116 579.956,-116 579.956,-116 668.044,-116 668.044,-116 671.71,-116 675.377,-119.667 675.377,-123.333 675.377,-123.333 675.377,-130.667 675.377,-130.667 675.377,-134.333 671.71,-138 668.044,-138"/>
<text text-anchor="middle" x="624" y="-123.4" font-family="Helvetica,sans-Serif" font-size="12.00" fill="white">_ArrayBufferType</text>
</a>
</g>
</g>
<!-- MutableCollectionType&#45;&gt;_ArrayBufferType -->
<g id="edge41" class="edge">
<path fill="none" stroke="#cccccc" d="M761.965,-173.988C734.576,-164.859 693.914,-151.305 663.823,-141.274"/>
<polygon fill="#cccccc" stroke="#cccccc" points="664.651,-137.861 654.058,-138.019 662.438,-144.502 664.651,-137.861"/>
</g>
<!-- _ArrayType -->
<g id="node38" class="node">
<g id="a_node38"><a xlink:href="/v2.1/protocol/_ArrayType/" target="_top">
<path fill="#999999" stroke="#999999" d="M1022.19,-80C1022.19,-80 965.81,-80 965.81,-80 962.144,-80 958.477,-76.3333 958.477,-72.6667 958.477,-72.6667 958.477,-65.3333 958.477,-65.3333 958.477,-61.6667 962.144,-58 965.81,-58 965.81,-58 1022.19,-58 1022.19,-58 1025.86,-58 1029.52,-61.6667 1029.52,-65.3333 1029.52,-65.3333 1029.52,-72.6667 1029.52,-72.6667 1029.52,-76.3333 1025.86,-80 1022.19,-80"/>
<text text-anchor="middle" x="994" y="-65.4" font-family="Helvetica,sans-Serif" font-size="12.00" fill="white">_ArrayType</text>
</a>
</g>
</g>
<!-- MutableSliceable&#45;&gt;_ArrayType -->
<g id="edge42" class="edge">
<path fill="none" stroke="#cccccc" d="M1003.85,-115.988C1002.32,-108.831 1000.2,-98.9547 998.326,-90.1885"/>
<polygon fill="#cccccc" stroke="#cccccc" points="1001.73,-89.3485 996.208,-80.3039 994.881,-90.8153 1001.73,-89.3485"/>
</g>
<!-- RangeReplaceableCollectionType&#45;&gt;String.CharacterView -->
<g id="edge47" class="edge">
<path fill="none" stroke="#cccccc" d="M1248.4,-115.883C1252.83,-97.1703 1262.38,-56.8266 1268.2,-32.2866"/>
<polygon fill="#cccccc" stroke="#cccccc" points="1271.67,-32.7954 1270.57,-22.2579 1264.86,-31.1821 1271.67,-32.7954"/>
</g>
<!-- RangeReplaceableCollectionType&#45;&gt;String.UnicodeScalarView -->
<g id="edge48" class="edge">
<path fill="none" stroke="#cccccc" d="M1234.73,-115.883C1212.94,-96.3273 1164.84,-53.1482 1138.02,-29.07"/>
<polygon fill="#cccccc" stroke="#cccccc" points="1140.21,-26.3333 1130.43,-22.2579 1135.53,-31.5425 1140.21,-26.3333"/>
</g>
<!-- RangeReplaceableCollectionType&#45;&gt;_ArrayType -->
<g id="edge46" class="edge">
<path fill="none" stroke="#cccccc" d="M1200.95,-115.988C1155.41,-105.868 1085.4,-90.3121 1039.65,-80.1449"/>
<polygon fill="#cccccc" stroke="#cccccc" points="1040.23,-76.6879 1029.71,-77.9352 1038.71,-83.5213 1040.23,-76.6879"/>
</g>
<!-- ReverseRandomAccessCollection -->
<g id="node27" class="node">
<g id="a_node27"><a xlink:href="/v2.1/type/ReverseRandomAccessCollection/" target="_top">
<polygon fill="#999999" stroke="#999999" points="2908.56,-22 2717.44,-22 2717.44,-0 2908.56,-0 2908.56,-22"/>
<text text-anchor="middle" x="2813" y="-7.4" font-family="Helvetica,sans-Serif" font-size="12.00" fill="white">ReverseRandomAccessCollection</text>
</a>
</g>
</g>
<!-- _ArrayType&#45;&gt;Array -->
<g id="edge43" class="edge">
<path fill="none" stroke="#cccccc" d="M958.55,-66.2321C885.739,-62.1754 714.03,-50.4211 561.061,-21.9215"/>
<polygon fill="#cccccc" stroke="#cccccc" points="561.49,-18.4407 551.013,-20.02 560.188,-25.3186 561.49,-18.4407"/>
</g>
<!-- _ArrayType&#45;&gt;ArraySlice -->
<g id="edge44" class="edge">
<path fill="none" stroke="#cccccc" d="M994,-57.9883C994,-50.9098 994,-41.1714 994,-32.4779"/>
<polygon fill="#cccccc" stroke="#cccccc" points="997.5,-32.3038 994,-22.3039 990.5,-32.3039 997.5,-32.3038"/>
</g>
<!-- _ArrayType&#45;&gt;ContiguousArray -->
<g id="edge45" class="edge">
<path fill="none" stroke="#cccccc" d="M976.122,-57.9883C960.859,-49.441 938.67,-37.0155 921.204,-27.2343"/>
<polygon fill="#cccccc" stroke="#cccccc" points="922.496,-23.9461 912.06,-22.1138 919.075,-30.0537 922.496,-23.9461"/>
</g>
<!-- _ReverseCollectionType&#45;&gt;ReverseCollection -->
<g id="edge49" class="edge">
<path fill="none" stroke="#cccccc" d="M2662.42,-57.9883C2659.84,-50.7525 2656.26,-40.7373 2653.11,-31.9"/>
<polygon fill="#cccccc" stroke="#cccccc" points="2656.34,-30.5441 2649.68,-22.3039 2649.75,-32.8985 2656.34,-30.5441"/>
</g>
<!-- _ReverseCollectionType&#45;&gt;ReverseRandomAccessCollection -->
<g id="edge50" class="edge">
<path fill="none" stroke="#cccccc" d="M2692.28,-57.9883C2715.86,-49.0057 2750.68,-35.7398 2776.88,-25.7614"/>
<polygon fill="#cccccc" stroke="#cccccc" points="2778.35,-28.9445 2786.45,-22.1138 2775.86,-22.4031 2778.35,-28.9445"/>
</g>
</g>
</svg>
