<?xml version="1.0" encoding="UTF-8" standalone="no"?>
<!DOCTYPE svg PUBLIC "-//W3C//DTD SVG 1.1//EN"
 "http://www.w3.org/Graphics/SVG/1.1/DTD/svg11.dtd">
<!-- Generated by graphviz version 2.36.0 (20140111.2315)
 -->
<!-- Title: MutableCollectionType &#45; Type Hierarchy &#45; SwiftDoc.org Pages: 1 -->
<svg width="545pt" height="427pt"
 viewBox="0.00 0.00 545.40 427.20" xmlns="http://www.w3.org/2000/svg" xmlns:xlink="http://www.w3.org/1999/xlink">
<g id="graph0" class="graph" transform="scale(1 1) rotate(0) translate(7.2 369.6)">
<g transform="translate(0 -369.6)">
<g>
    <path fill="#666666" d="M13.846,10.832c-0.336-0.464-0.792-0.844-1.368-1.14s-1.224-0.444-1.944-0.444
        c-0.384,0-0.772,0.052-1.164,0.156C8.977,9.509,8.622,9.677,8.301,9.908c-0.32,0.232-0.58,0.52-0.78,0.864
        c-0.2,0.344-0.3,0.756-0.3,1.236c0,0.464,0.092,0.852,0.276,1.164c0.184,0.312,0.432,0.576,0.744,0.792s0.68,0.4,1.104,0.552
        c0.423,0.152,0.876,0.309,1.356,0.468c0.576,0.177,1.16,0.376,1.752,0.601c0.592,0.224,1.128,0.52,1.608,0.888
        s0.872,0.828,1.176,1.38s0.456,1.252,0.456,2.101c0,0.88-0.164,1.644-0.492,2.292c-0.328,0.647-0.765,1.184-1.308,1.607
        c-0.544,0.424-1.172,0.74-1.884,0.948s-1.444,0.312-2.196,0.312c-1.072,0-2.108-0.208-3.108-0.624
        c-1-0.415-1.828-1.031-2.484-1.848l1.848-1.56c0.4,0.592,0.936,1.071,1.608,1.439c0.672,0.368,1.399,0.552,2.184,0.552
        c0.4,0,0.8-0.056,1.2-0.168c0.4-0.111,0.764-0.288,1.092-0.527c0.328-0.24,0.596-0.54,0.804-0.9
        c0.208-0.36,0.312-0.796,0.312-1.308s-0.108-0.94-0.324-1.284c-0.216-0.344-0.508-0.636-0.876-0.876s-0.796-0.444-1.284-0.612
        c-0.488-0.168-1.004-0.34-1.548-0.516c-0.544-0.16-1.08-0.356-1.608-0.588c-0.528-0.232-1-0.528-1.416-0.889
        c-0.416-0.359-0.752-0.804-1.008-1.332c-0.256-0.527-0.384-1.184-0.384-1.968c0-0.848,0.172-1.576,0.516-2.184
        c0.344-0.608,0.792-1.112,1.344-1.512c0.552-0.4,1.176-0.692,1.872-0.876c0.696-0.184,1.396-0.276,2.1-0.276
        c0.992,0,1.92,0.176,2.784,0.528c0.864,0.352,1.56,0.824,2.088,1.416L13.846,10.832z"/>
    <path fill="#666666" d="M18.813,13.304l2.568,8.688h0.048l2.712-8.688h2.376l2.76,8.688h0.048l2.568-8.688h2.376L30.501,24.68
        h-2.352l-2.808-8.544h-0.048l-2.784,8.544h-2.352l-3.792-11.376H18.813z"/>
    <path fill="#666666" d="M38.685,9.2c0,0.416-0.147,0.76-0.44,1.032c-0.294,0.272-0.647,0.408-1.06,0.408s-0.762-0.14-1.047-0.42
        c-0.286-0.28-0.429-0.62-0.429-1.02c0-0.416,0.143-0.764,0.429-1.044c0.286-0.28,0.635-0.42,1.047-0.42s0.766,0.14,1.06,0.42
        C38.538,8.437,38.685,8.784,38.685,9.2z M38.325,24.68h-2.256V13.304h2.256V24.68z"/>
    <path fill="#666666" d="M47.613,15.152h-2.64v9.528h-2.256v-9.528h-2.256v-1.848h2.256v-2.376c0-0.672,0.076-1.292,0.228-1.86
        c0.152-0.568,0.4-1.06,0.744-1.476c0.344-0.416,0.784-0.744,1.32-0.984c0.536-0.24,1.188-0.36,1.956-0.36
        c0.544,0,1.016,0.056,1.416,0.168l-0.264,1.944c-0.176-0.048-0.352-0.088-0.528-0.12c-0.176-0.032-0.376-0.048-0.6-0.048
        c-0.432,0-0.78,0.076-1.044,0.228c-0.264,0.152-0.468,0.356-0.612,0.612s-0.24,0.548-0.288,0.876
        c-0.048,0.328-0.072,0.668-0.072,1.02v2.376h2.64V15.152z"/>
    <path fill="#666666" d="M54.909,15.152h-3.024v5.91c0,0.687,0.128,1.177,0.384,1.472c0.256,0.295,0.664,0.442,1.224,0.442
        c0.208,0,0.432-0.021,0.672-0.065c0.24-0.044,0.456-0.11,0.648-0.198l0.072,1.848c-0.272,0.096-0.572,0.172-0.9,0.229
        c-0.328,0.056-0.668,0.084-1.02,0.084c-1.072,0-1.892-0.296-2.46-0.889c-0.568-0.592-0.852-1.479-0.852-2.664v-6.168h-2.184
        v-1.848h2.184V10.04h2.232v3.264h3.024V15.152z"/>
    <path fill="#666666" d="M57.356,7.688h5.832c1.088,0,2.176,0.16,3.264,0.48c1.088,0.32,2.072,0.824,2.952,1.512
        s1.592,1.568,2.136,2.64c0.544,1.072,0.816,2.36,0.816,3.864c0,1.456-0.272,2.716-0.816,3.78s-1.256,1.943-2.136,2.64
        s-1.864,1.216-2.952,1.561c-1.088,0.344-2.176,0.516-3.264,0.516h-5.832V7.688z M59.732,22.593h2.976
        c1.024,0,1.972-0.145,2.844-0.432c0.872-0.288,1.624-0.704,2.256-1.248c0.632-0.544,1.124-1.216,1.476-2.017
        c0.352-0.8,0.528-1.704,0.528-2.712c0-1.056-0.176-1.983-0.528-2.784c-0.353-0.8-0.844-1.468-1.476-2.004
        c-0.632-0.536-1.384-0.944-2.256-1.224s-1.82-0.42-2.844-0.42h-2.976V22.593z"/>
    <path fill="#666666" d="M86.06,18.969c0,0.88-0.156,1.688-0.468,2.424c-0.312,0.736-0.744,1.372-1.296,1.908
        c-0.552,0.536-1.204,0.952-1.956,1.248c-0.752,0.296-1.56,0.443-2.424,0.443c-0.864,0-1.672-0.147-2.424-0.443
        c-0.752-0.296-1.4-0.712-1.944-1.248c-0.544-0.536-0.972-1.172-1.284-1.908c-0.312-0.735-0.468-1.544-0.468-2.424
        s0.156-1.684,0.468-2.412c0.312-0.728,0.74-1.356,1.284-1.884c0.543-0.528,1.191-0.939,1.944-1.236
        c0.752-0.296,1.56-0.444,2.424-0.444c0.864,0,1.672,0.148,2.424,0.444c0.752,0.297,1.404,0.708,1.956,1.236
        c0.552,0.527,0.984,1.156,1.296,1.884C85.904,17.285,86.06,18.089,86.06,18.969z M83.708,18.98c0-0.542-0.084-1.061-0.252-1.556
        c-0.169-0.494-0.414-0.929-0.734-1.304s-0.718-0.674-1.192-0.897s-1.015-0.335-1.625-0.335c-0.61,0-1.152,0.111-1.625,0.335
        c-0.474,0.224-0.871,0.522-1.191,0.897c-0.321,0.375-0.566,0.81-0.734,1.304C76.184,17.92,76.1,18.438,76.1,18.98
        c0,0.543,0.084,1.062,0.253,1.556c0.168,0.495,0.413,0.934,0.734,1.316c0.321,0.383,0.718,0.686,1.191,0.909
        c0.473,0.224,1.015,0.335,1.625,0.335c0.61,0,1.151-0.111,1.625-0.335s0.871-0.526,1.192-0.909s0.565-0.821,0.734-1.316
        C83.624,20.042,83.708,19.523,83.708,18.98z"/>
    <path fill="#666666" d="M96.428,16.184c-0.24-0.368-0.6-0.676-1.08-0.924s-0.992-0.372-1.536-0.372
        c-0.592,0-1.116,0.112-1.572,0.336c-0.456,0.225-0.844,0.524-1.164,0.9c-0.32,0.376-0.564,0.812-0.732,1.308
        s-0.252,1.017-0.252,1.56c0,0.545,0.084,1.064,0.252,1.561s0.412,0.933,0.732,1.308c0.32,0.376,0.712,0.677,1.176,0.9
        c0.464,0.225,0.992,0.336,1.584,0.336c0.576,0,1.1-0.111,1.572-0.336c0.472-0.224,0.86-0.528,1.164-0.912l1.512,1.368
        c-0.48,0.561-1.08,0.996-1.8,1.308c-0.72,0.312-1.536,0.468-2.448,0.468c-0.88,0-1.692-0.144-2.436-0.432
        c-0.744-0.288-1.388-0.691-1.932-1.212c-0.544-0.52-0.972-1.147-1.284-1.884s-0.468-1.561-0.468-2.473
        c0-0.896,0.152-1.711,0.456-2.447c0.304-0.736,0.728-1.368,1.272-1.896c0.543-0.527,1.188-0.936,1.932-1.224
        c0.744-0.288,1.548-0.433,2.412-0.433c0.8,0,1.596,0.16,2.388,0.48s1.419,0.784,1.884,1.392L96.428,16.184z"/>
    <path fill="#666666" d="M103.1,23.24c0,0.417-0.152,0.784-0.456,1.104c-0.304,0.32-0.688,0.479-1.152,0.479
        c-0.448,0-0.828-0.155-1.14-0.468c-0.312-0.312-0.468-0.676-0.468-1.092c0-0.432,0.152-0.804,0.456-1.116
        c0.304-0.312,0.688-0.468,1.152-0.468c0.464,0,0.848,0.152,1.152,0.456C102.947,22.44,103.1,22.808,103.1,23.24z"/>
    <path fill="#666666" d="M116.635,18.969c0,0.88-0.156,1.688-0.468,2.424c-0.312,0.736-0.744,1.372-1.296,1.908
        c-0.552,0.536-1.204,0.952-1.956,1.248c-0.752,0.296-1.56,0.443-2.424,0.443c-0.864,0-1.672-0.147-2.424-0.443
        c-0.752-0.296-1.4-0.712-1.944-1.248c-0.544-0.536-0.972-1.172-1.284-1.908c-0.312-0.735-0.468-1.544-0.468-2.424
        s0.156-1.684,0.468-2.412c0.312-0.728,0.74-1.356,1.284-1.884c0.543-0.528,1.191-0.939,1.944-1.236
        c0.752-0.296,1.56-0.444,2.424-0.444c0.864,0,1.672,0.148,2.424,0.444c0.752,0.297,1.404,0.708,1.956,1.236
        c0.552,0.527,0.984,1.156,1.296,1.884C116.479,17.285,116.635,18.089,116.635,18.969z M114.283,18.98
        c0-0.542-0.084-1.061-0.252-1.556c-0.169-0.494-0.414-0.929-0.734-1.304s-0.718-0.674-1.192-0.897s-1.015-0.335-1.625-0.335
        c-0.61,0-1.152,0.111-1.625,0.335c-0.474,0.224-0.871,0.522-1.191,0.897c-0.321,0.375-0.566,0.81-0.734,1.304
        c-0.169,0.495-0.253,1.014-0.253,1.556c0,0.543,0.084,1.062,0.253,1.556c0.168,0.495,0.413,0.934,0.734,1.316
        c0.321,0.383,0.718,0.686,1.191,0.909c0.473,0.224,1.015,0.335,1.625,0.335c0.61,0,1.151-0.111,1.625-0.335
        s0.871-0.526,1.192-0.909s0.565-0.821,0.734-1.316C114.199,20.042,114.283,19.523,114.283,18.98z"/>
    <path fill="#666666" d="M119.251,14.577c-0.016-0.48-0.04-0.904-0.072-1.272h2.136c0.032,0.288,0.056,0.62,0.072,0.996
        c0.016,0.376,0.024,0.684,0.024,0.924h0.072c0.32-0.672,0.788-1.212,1.404-1.62c0.616-0.408,1.308-0.612,2.076-0.612
        c0.352,0,0.648,0.033,0.888,0.097l-0.096,2.088c-0.32-0.08-0.664-0.12-1.032-0.12c-0.544,0-1.016,0.101-1.416,0.3
        c-0.4,0.2-0.732,0.468-0.996,0.805c-0.264,0.336-0.46,0.724-0.588,1.163c-0.128,0.44-0.192,0.9-0.192,1.381v5.976h-2.256v-8.928
        C119.275,15.449,119.267,15.056,119.251,14.577z"/>
    <path fill="#666666" d="M128.419,26.625c0.496,0.56,1.116,1.008,1.86,1.344c0.744,0.336,1.508,0.504,2.292,0.504
        c0.752,0,1.384-0.108,1.896-0.324s0.924-0.512,1.236-0.888s0.536-0.82,0.672-1.332c0.136-0.513,0.204-1.064,0.204-1.656v-1.464
        h-0.048c-0.416,0.641-0.984,1.128-1.704,1.464c-0.72,0.336-1.488,0.504-2.304,0.504c-0.864,0-1.652-0.151-2.364-0.456
        c-0.712-0.304-1.316-0.72-1.812-1.248c-0.496-0.527-0.88-1.147-1.152-1.859s-0.408-1.477-0.408-2.292
        c0-0.816,0.136-1.584,0.408-2.305c0.272-0.72,0.656-1.348,1.152-1.884c0.496-0.535,1.096-0.96,1.8-1.271
        c0.704-0.312,1.488-0.469,2.352-0.469c0.816,0,1.596,0.177,2.34,0.528c0.744,0.353,1.332,0.888,1.764,1.608h0.048v-1.824h2.184
        v10.8c0,0.832-0.104,1.628-0.312,2.388c-0.208,0.76-0.56,1.433-1.056,2.017s-1.144,1.052-1.944,1.404
        c-0.8,0.352-1.792,0.527-2.976,0.527c-0.992,0-1.988-0.18-2.988-0.54c-1-0.359-1.86-0.868-2.58-1.523L128.419,26.625z
         M129.091,18.873c0,0.527,0.084,1.031,0.253,1.512c0.168,0.479,0.417,0.904,0.746,1.271c0.329,0.369,0.726,0.664,1.192,0.889
        c0.465,0.224,0.995,0.336,1.589,0.336c0.577,0,1.107-0.104,1.589-0.312c0.481-0.207,0.891-0.491,1.228-0.852
        s0.598-0.784,0.782-1.272c0.185-0.487,0.277-1.012,0.277-1.571c0-0.544-0.093-1.057-0.277-1.536
        c-0.185-0.48-0.449-0.904-0.794-1.272c-0.345-0.367-0.755-0.66-1.228-0.876c-0.474-0.216-1-0.324-1.577-0.324
        c-0.594,0-1.124,0.108-1.589,0.324c-0.466,0.216-0.863,0.504-1.192,0.864s-0.578,0.784-0.746,1.271
        C129.175,17.812,129.091,18.329,129.091,18.873z"/>
</g>
<g><a xlink:href="/" pointer-events="all" target="_top"><polygon fill="none" points="0,0 145,0 145,35 0,35 0,0"/></a></g>

</g>


<!-- Array -->
<g id="node1" class="node">
<g id="a_node1"><a xlink:href="/swift-2/type/Array/" target="_top">
<polygon fill="#999999" stroke="#999999" points="54,-22 0,-22 0,-0 54,-0 54,-22"/>
<text text-anchor="middle" x="27" y="-7.4" font-family="Helvetica,sans-Serif" font-size="12.00" fill="white">Array</text>
</a>
</g>
</g>
<!-- ArraySlice -->
<g id="node2" class="node">
<g id="a_node2"><a xlink:href="/swift-2/type/ArraySlice/" target="_top">
<polygon fill="#999999" stroke="#999999" points="136.011,-22 71.9886,-22 71.9886,-0 136.011,-0 136.011,-22"/>
<text text-anchor="middle" x="104" y="-7.4" font-family="Helvetica,sans-Serif" font-size="12.00" fill="white">ArraySlice</text>
</a>
</g>
</g>
<!-- CollectionType -->
<g id="node3" class="node">
<g id="a_node3"><a xlink:href="/swift-2/protocol/CollectionType/" target="_top">
<path fill="#999999" stroke="#999999" d="M238.704,-254C238.704,-254 165.296,-254 165.296,-254 161.63,-254 157.963,-250.333 157.963,-246.667 157.963,-246.667 157.963,-239.333 157.963,-239.333 157.963,-235.667 161.63,-232 165.296,-232 165.296,-232 238.704,-232 238.704,-232 242.37,-232 246.037,-235.667 246.037,-239.333 246.037,-239.333 246.037,-246.667 246.037,-246.667 246.037,-250.333 242.37,-254 238.704,-254"/>
<text text-anchor="middle" x="202" y="-239.4" font-family="Helvetica,sans-Serif" font-size="12.00" fill="white">CollectionType</text>
</a>
</g>
</g>
<!-- MutableCollectionType -->
<g id="node6" class="node">
<g id="a_node6"><a xlink:href="/swift-2/protocol/MutableCollectionType/" target="_top">
<path fill="#ee543d" stroke="#ee543d" d="M317.221,-196C317.221,-196 200.779,-196 200.779,-196 197.112,-196 193.446,-192.333 193.446,-188.667 193.446,-188.667 193.446,-181.333 193.446,-181.333 193.446,-177.667 197.112,-174 200.779,-174 200.779,-174 317.221,-174 317.221,-174 320.888,-174 324.554,-177.667 324.554,-181.333 324.554,-181.333 324.554,-188.667 324.554,-188.667 324.554,-192.333 320.888,-196 317.221,-196"/>
<text text-anchor="middle" x="259" y="-181.4" font-family="Helvetica,sans-Serif" font-size="12.00" fill="white">MutableCollectionType</text>
</a>
</g>
</g>
<!-- CollectionType&#45;&gt;MutableCollectionType -->
<g id="edge16" class="edge">
<path fill="none" stroke="#cccccc" d="M212.19,-231.988C220.276,-224.045 231.771,-212.751 241.346,-203.344"/>
<polygon fill="#cccccc" stroke="#cccccc" points="243.832,-205.809 248.512,-196.304 238.926,-200.815 243.832,-205.809"/>
</g>
<!-- ContiguousArray -->
<g id="node4" class="node">
<g id="a_node4"><a xlink:href="/swift-2/type/ContiguousArray/" target="_top">
<polygon fill="#999999" stroke="#999999" points="253.534,-22 154.466,-22 154.466,-0 253.534,-0 253.534,-22"/>
<text text-anchor="middle" x="204" y="-7.4" font-family="Helvetica,sans-Serif" font-size="12.00" fill="white">ContiguousArray</text>
</a>
</g>
</g>
<!-- Indexable -->
<g id="node5" class="node">
<g id="a_node5"><a xlink:href="/swift-2/protocol/Indexable/" target="_top">
<path fill="#999999" stroke="#999999" d="M178.699,-312C178.699,-312 131.301,-312 131.301,-312 127.634,-312 123.968,-308.333 123.968,-304.667 123.968,-304.667 123.968,-297.333 123.968,-297.333 123.968,-293.667 127.634,-290 131.301,-290 131.301,-290 178.699,-290 178.699,-290 182.366,-290 186.032,-293.667 186.032,-297.333 186.032,-297.333 186.032,-304.667 186.032,-304.667 186.032,-308.333 182.366,-312 178.699,-312"/>
<text text-anchor="middle" x="155" y="-297.4" font-family="Helvetica,sans-Serif" font-size="12.00" fill="white">Indexable</text>
</a>
</g>
</g>
<!-- Indexable&#45;&gt;CollectionType -->
<g id="edge17" class="edge">
<path fill="none" stroke="#cccccc" d="M163.403,-289.988C169.872,-282.281 178.988,-271.419 186.736,-262.187"/>
<polygon fill="#cccccc" stroke="#cccccc" points="189.604,-264.214 193.352,-254.304 184.242,-259.714 189.604,-264.214"/>
</g>
<!-- MutableCollectionType&#45;&gt;Array -->
<g id="edge1" class="edge">
<path fill="none" stroke="#cccccc" d="M193.361,-179.145C159.067,-173.646 118.267,-162.101 89,-138 55.4385,-110.363 38.5494,-60.0889 31.3904,-32.1261"/>
<polygon fill="#cccccc" stroke="#cccccc" points="34.765,-31.1884 29.0376,-22.275 27.9565,-32.8145 34.765,-31.1884"/>
</g>
<!-- MutableCollectionType&#45;&gt;ArraySlice -->
<g id="edge2" class="edge">
<path fill="none" stroke="#cccccc" d="M205.923,-173.961C178.545,-166.996 145.617,-155.702 120,-138 92.7043,-119.138 84.0806,-111.274 73,-80 66.8864,-62.7449 76.9284,-43.8541 87.1749,-30.3721"/>
<polygon fill="#cccccc" stroke="#cccccc" points="90.1139,-32.3091 93.7701,-22.3651 84.7108,-27.8586 90.1139,-32.3091"/>
</g>
<!-- MutableCollectionType&#45;&gt;ContiguousArray -->
<g id="edge3" class="edge">
<path fill="none" stroke="#cccccc" d="M256.14,-173.825C252.363,-160.497 245.437,-136.421 239,-116 229.734,-86.6025 218.2,-52.8219 210.966,-31.9415"/>
<polygon fill="#cccccc" stroke="#cccccc" points="214.2,-30.5855 207.61,-22.2898 207.588,-32.8846 214.2,-30.5855"/>
</g>
<!-- MutableSlice -->
<g id="node8" class="node">
<g id="a_node8"><a xlink:href="/swift-2/type/MutableSlice/" target="_top">
<polygon fill="#999999" stroke="#999999" points="350.027,-22 271.973,-22 271.973,-0 350.027,-0 350.027,-22"/>
<text text-anchor="middle" x="311" y="-7.4" font-family="Helvetica,sans-Serif" font-size="12.00" fill="white">MutableSlice</text>
</a>
</g>
</g>
<!-- MutableCollectionType&#45;&gt;MutableSlice -->
<g id="edge4" class="edge">
<path fill="none" stroke="#cccccc" d="M262.121,-173.771C264.963,-164.451 269.272,-150.303 273,-138 284.369,-100.476 297.571,-56.6412 305.04,-31.8179"/>
<polygon fill="#cccccc" stroke="#cccccc" points="308.426,-32.713 307.955,-22.1287 301.722,-30.6965 308.426,-32.713"/>
</g>
<!-- MutableSliceable -->
<g id="node9" class="node">
<g id="a_node9"><a xlink:href="/swift-2/protocol/MutableSliceable/" target="_top">
<path fill="#999999" stroke="#999999" d="M223.208,-138C223.208,-138 136.792,-138 136.792,-138 133.126,-138 129.459,-134.333 129.459,-130.667 129.459,-130.667 129.459,-123.333 129.459,-123.333 129.459,-119.667 133.126,-116 136.792,-116 136.792,-116 223.208,-116 223.208,-116 226.874,-116 230.541,-119.667 230.541,-123.333 230.541,-123.333 230.541,-130.667 230.541,-130.667 230.541,-134.333 226.874,-138 223.208,-138"/>
<text text-anchor="middle" x="180" y="-123.4" font-family="Helvetica,sans-Serif" font-size="12.00" fill="white">MutableSliceable</text>
</a>
</g>
</g>
<!-- MutableCollectionType&#45;&gt;MutableSliceable -->
<g id="edge5" class="edge">
<path fill="none" stroke="#cccccc" d="M244.876,-173.988C233.153,-165.678 216.259,-153.703 202.65,-144.055"/>
<polygon fill="#cccccc" stroke="#cccccc" points="204.45,-141.042 194.268,-138.114 200.402,-146.752 204.45,-141.042"/>
</g>
<!-- UnsafeMutableBufferPointer -->
<g id="node11" class="node">
<g id="a_node11"><a xlink:href="/swift-2/type/UnsafeMutableBufferPointer/" target="_top">
<polygon fill="#999999" stroke="#999999" points="528.905,-22 369.095,-22 369.095,-0 528.905,-0 528.905,-22"/>
<text text-anchor="middle" x="449" y="-7.4" font-family="Helvetica,sans-Serif" font-size="12.00" fill="white">UnsafeMutableBufferPointer</text>
</a>
</g>
</g>
<!-- MutableCollectionType&#45;&gt;UnsafeMutableBufferPointer -->
<g id="edge6" class="edge">
<path fill="none" stroke="#cccccc" d="M270.316,-173.756C301.791,-145.263 390.627,-64.8429 429.911,-29.2809"/>
<polygon fill="#cccccc" stroke="#cccccc" points="432.438,-31.714 437.503,-22.4081 427.74,-26.5245 432.438,-31.714"/>
</g>
<!-- _ArrayBufferType -->
<g id="node12" class="node">
<g id="a_node12"><a xlink:href="/swift-2/protocol/_ArrayBufferType/" target="_top">
<path fill="#999999" stroke="#999999" d="M523.044,-138C523.044,-138 434.956,-138 434.956,-138 431.29,-138 427.623,-134.333 427.623,-130.667 427.623,-130.667 427.623,-123.333 427.623,-123.333 427.623,-119.667 431.29,-116 434.956,-116 434.956,-116 523.044,-116 523.044,-116 526.71,-116 530.377,-119.667 530.377,-123.333 530.377,-123.333 530.377,-130.667 530.377,-130.667 530.377,-134.333 526.71,-138 523.044,-138"/>
<text text-anchor="middle" x="479" y="-123.4" font-family="Helvetica,sans-Serif" font-size="12.00" fill="white">_ArrayBufferType</text>
</a>
</g>
</g>
<!-- MutableCollectionType&#45;&gt;_ArrayBufferType -->
<g id="edge7" class="edge">
<path fill="none" stroke="#cccccc" d="M298.332,-173.988C335.133,-164.621 390.236,-150.594 429.906,-140.497"/>
<polygon fill="#cccccc" stroke="#cccccc" points="430.811,-143.878 439.639,-138.019 429.084,-137.094 430.811,-143.878"/>
</g>
<!-- MutableIndexable -->
<g id="node7" class="node">
<g id="a_node7"><a xlink:href="/swift-2/protocol/MutableIndexable/" target="_top">
<path fill="#999999" stroke="#999999" d="M361.718,-254C361.718,-254 272.282,-254 272.282,-254 268.615,-254 264.948,-250.333 264.948,-246.667 264.948,-246.667 264.948,-239.333 264.948,-239.333 264.948,-235.667 268.615,-232 272.282,-232 272.282,-232 361.718,-232 361.718,-232 365.385,-232 369.052,-235.667 369.052,-239.333 369.052,-239.333 369.052,-246.667 369.052,-246.667 369.052,-250.333 365.385,-254 361.718,-254"/>
<text text-anchor="middle" x="317" y="-239.4" font-family="Helvetica,sans-Serif" font-size="12.00" fill="white">MutableIndexable</text>
</a>
</g>
</g>
<!-- MutableIndexable&#45;&gt;MutableCollectionType -->
<g id="edge15" class="edge">
<path fill="none" stroke="#cccccc" d="M306.631,-231.988C298.403,-224.045 286.707,-212.751 276.963,-203.344"/>
<polygon fill="#cccccc" stroke="#cccccc" points="279.297,-200.732 269.672,-196.304 274.435,-205.768 279.297,-200.732"/>
</g>
<!-- MutableSliceable&#45;&gt;Array -->
<g id="edge8" class="edge">
<path fill="none" stroke="#cccccc" d="M143.232,-115.967C121.162,-108.621 93.4898,-96.9464 73,-80 56.937,-66.7148 44.2141,-46.4158 36.2576,-31.4526"/>
<polygon fill="#cccccc" stroke="#cccccc" points="39.1635,-29.443 31.5282,-22.0978 32.9165,-32.6013 39.1635,-29.443"/>
</g>
<!-- MutableSliceable&#45;&gt;ArraySlice -->
<g id="edge9" class="edge">
<path fill="none" stroke="#cccccc" d="M179.321,-115.974C177.956,-101.959 173.904,-76.1884 162,-58 154.114,-45.951 142.02,-35.6373 130.913,-27.8479"/>
<polygon fill="#cccccc" stroke="#cccccc" points="132.586,-24.7583 122.316,-22.1574 128.723,-30.5955 132.586,-24.7583"/>
</g>
<!-- MutableSliceable&#45;&gt;ContiguousArray -->
<g id="edge10" class="edge">
<path fill="none" stroke="#cccccc" d="M184.207,-115.955C187.886,-106.759 193.083,-92.6904 196,-80 199.62,-64.2518 201.651,-46.0546 202.76,-32.4497"/>
<polygon fill="#cccccc" stroke="#cccccc" points="206.267,-32.4807 203.49,-22.2563 199.285,-31.981 206.267,-32.4807"/>
</g>
<!-- _ArrayType -->
<g id="node13" class="node">
<g id="a_node13"><a xlink:href="/swift-2/protocol/_ArrayType/" target="_top">
<path fill="#999999" stroke="#999999" d="M146.19,-80C146.19,-80 89.8102,-80 89.8102,-80 86.1436,-80 82.4769,-76.3333 82.4769,-72.6667 82.4769,-72.6667 82.4769,-65.3333 82.4769,-65.3333 82.4769,-61.6667 86.1436,-58 89.8102,-58 89.8102,-58 146.19,-58 146.19,-58 149.856,-58 153.523,-61.6667 153.523,-65.3333 153.523,-65.3333 153.523,-72.6667 153.523,-72.6667 153.523,-76.3333 149.856,-80 146.19,-80"/>
<text text-anchor="middle" x="118" y="-65.4" font-family="Helvetica,sans-Serif" font-size="12.00" fill="white">_ArrayType</text>
</a>
</g>
</g>
<!-- MutableSliceable&#45;&gt;_ArrayType -->
<g id="edge11" class="edge">
<path fill="none" stroke="#cccccc" d="M168.916,-115.988C160.034,-107.966 147.369,-96.5272 136.893,-87.065"/>
<polygon fill="#cccccc" stroke="#cccccc" points="139.175,-84.4094 129.408,-80.3039 134.483,-89.6041 139.175,-84.4094"/>
</g>
<!-- SequenceType -->
<g id="node10" class="node">
<g id="a_node10"><a xlink:href="/swift-2/protocol/SequenceType/" target="_top">
<path fill="#999999" stroke="#999999" d="M286.718,-312C286.718,-312 211.282,-312 211.282,-312 207.615,-312 203.949,-308.333 203.949,-304.667 203.949,-304.667 203.949,-297.333 203.949,-297.333 203.949,-293.667 207.615,-290 211.282,-290 211.282,-290 286.718,-290 286.718,-290 290.385,-290 294.051,-293.667 294.051,-297.333 294.051,-297.333 294.051,-304.667 294.051,-304.667 294.051,-308.333 290.385,-312 286.718,-312"/>
<text text-anchor="middle" x="249" y="-297.4" font-family="Helvetica,sans-Serif" font-size="12.00" fill="white">SequenceType</text>
</a>
</g>
</g>
<!-- SequenceType&#45;&gt;CollectionType -->
<g id="edge18" class="edge">
<path fill="none" stroke="#cccccc" d="M240.597,-289.988C234.128,-282.281 225.012,-271.419 217.264,-262.187"/>
<polygon fill="#cccccc" stroke="#cccccc" points="219.758,-259.714 210.648,-254.304 214.396,-264.214 219.758,-259.714"/>
</g>
<!-- _ArrayType&#45;&gt;Array -->
<g id="edge12" class="edge">
<path fill="none" stroke="#cccccc" d="M101.731,-57.9883C87.9702,-49.5201 68.0235,-37.2452 52.1984,-27.5067"/>
<polygon fill="#cccccc" stroke="#cccccc" points="53.7859,-24.374 43.4349,-22.1138 50.1172,-30.3356 53.7859,-24.374"/>
</g>
<!-- _ArrayType&#45;&gt;ArraySlice -->
<g id="edge13" class="edge">
<path fill="none" stroke="#cccccc" d="M115.497,-57.9883C113.708,-50.8311 111.239,-40.9547 109.047,-32.1885"/>
<polygon fill="#cccccc" stroke="#cccccc" points="112.397,-31.1564 106.576,-22.3039 105.606,-32.8542 112.397,-31.1564"/>
</g>
<!-- _ArrayType&#45;&gt;ContiguousArray -->
<g id="edge14" class="edge">
<path fill="none" stroke="#cccccc" d="M133.375,-57.9883C146.258,-49.5993 164.879,-37.4743 179.766,-27.7804"/>
<polygon fill="#cccccc" stroke="#cccccc" points="181.998,-30.5036 188.468,-22.1138 178.178,-24.6376 181.998,-30.5036"/>
</g>
</g>
</svg>
