<?xml version="1.0" encoding="UTF-8" standalone="no"?>
<!DOCTYPE svg PUBLIC "-//W3C//DTD SVG 1.1//EN"
 "http://www.w3.org/Graphics/SVG/1.1/DTD/svg11.dtd">
<!-- Generated by graphviz version 2.36.0 (20140111.2315)
 -->
<!-- Title: ForwardIndexType &#45; Type Hierarchy &#45; SwiftDoc.org Pages: 1 -->
<svg width="4027pt" height="543pt"
 viewBox="0.00 0.00 4027.40 543.20" xmlns="http://www.w3.org/2000/svg" xmlns:xlink="http://www.w3.org/1999/xlink">
<g id="graph0" class="graph" transform="scale(1 1) rotate(0) translate(7.2 485.6)">
<g transform="translate(0 -485.6)">
<g>
    <path fill="#666666" d="M13.846,10.832c-0.336-0.464-0.792-0.844-1.368-1.14s-1.224-0.444-1.944-0.444
        c-0.384,0-0.772,0.052-1.164,0.156C8.977,9.509,8.622,9.677,8.301,9.908c-0.32,0.232-0.58,0.52-0.78,0.864
        c-0.2,0.344-0.3,0.756-0.3,1.236c0,0.464,0.092,0.852,0.276,1.164c0.184,0.312,0.432,0.576,0.744,0.792s0.68,0.4,1.104,0.552
        c0.423,0.152,0.876,0.309,1.356,0.468c0.576,0.177,1.16,0.376,1.752,0.601c0.592,0.224,1.128,0.52,1.608,0.888
        s0.872,0.828,1.176,1.38s0.456,1.252,0.456,2.101c0,0.88-0.164,1.644-0.492,2.292c-0.328,0.647-0.765,1.184-1.308,1.607
        c-0.544,0.424-1.172,0.74-1.884,0.948s-1.444,0.312-2.196,0.312c-1.072,0-2.108-0.208-3.108-0.624
        c-1-0.415-1.828-1.031-2.484-1.848l1.848-1.56c0.4,0.592,0.936,1.071,1.608,1.439c0.672,0.368,1.399,0.552,2.184,0.552
        c0.4,0,0.8-0.056,1.2-0.168c0.4-0.111,0.764-0.288,1.092-0.527c0.328-0.24,0.596-0.54,0.804-0.9
        c0.208-0.36,0.312-0.796,0.312-1.308s-0.108-0.94-0.324-1.284c-0.216-0.344-0.508-0.636-0.876-0.876s-0.796-0.444-1.284-0.612
        c-0.488-0.168-1.004-0.34-1.548-0.516c-0.544-0.16-1.08-0.356-1.608-0.588c-0.528-0.232-1-0.528-1.416-0.889
        c-0.416-0.359-0.752-0.804-1.008-1.332c-0.256-0.527-0.384-1.184-0.384-1.968c0-0.848,0.172-1.576,0.516-2.184
        c0.344-0.608,0.792-1.112,1.344-1.512c0.552-0.4,1.176-0.692,1.872-0.876c0.696-0.184,1.396-0.276,2.1-0.276
        c0.992,0,1.92,0.176,2.784,0.528c0.864,0.352,1.56,0.824,2.088,1.416L13.846,10.832z"/>
    <path fill="#666666" d="M18.813,13.304l2.568,8.688h0.048l2.712-8.688h2.376l2.76,8.688h0.048l2.568-8.688h2.376L30.501,24.68
        h-2.352l-2.808-8.544h-0.048l-2.784,8.544h-2.352l-3.792-11.376H18.813z"/>
    <path fill="#666666" d="M38.685,9.2c0,0.416-0.147,0.76-0.44,1.032c-0.294,0.272-0.647,0.408-1.06,0.408s-0.762-0.14-1.047-0.42
        c-0.286-0.28-0.429-0.62-0.429-1.02c0-0.416,0.143-0.764,0.429-1.044c0.286-0.28,0.635-0.42,1.047-0.42s0.766,0.14,1.06,0.42
        C38.538,8.437,38.685,8.784,38.685,9.2z M38.325,24.68h-2.256V13.304h2.256V24.68z"/>
    <path fill="#666666" d="M47.613,15.152h-2.64v9.528h-2.256v-9.528h-2.256v-1.848h2.256v-2.376c0-0.672,0.076-1.292,0.228-1.86
        c0.152-0.568,0.4-1.06,0.744-1.476c0.344-0.416,0.784-0.744,1.32-0.984c0.536-0.24,1.188-0.36,1.956-0.36
        c0.544,0,1.016,0.056,1.416,0.168l-0.264,1.944c-0.176-0.048-0.352-0.088-0.528-0.12c-0.176-0.032-0.376-0.048-0.6-0.048
        c-0.432,0-0.78,0.076-1.044,0.228c-0.264,0.152-0.468,0.356-0.612,0.612s-0.24,0.548-0.288,0.876
        c-0.048,0.328-0.072,0.668-0.072,1.02v2.376h2.64V15.152z"/>
    <path fill="#666666" d="M54.909,15.152h-3.024v5.91c0,0.687,0.128,1.177,0.384,1.472c0.256,0.295,0.664,0.442,1.224,0.442
        c0.208,0,0.432-0.021,0.672-0.065c0.24-0.044,0.456-0.11,0.648-0.198l0.072,1.848c-0.272,0.096-0.572,0.172-0.9,0.229
        c-0.328,0.056-0.668,0.084-1.02,0.084c-1.072,0-1.892-0.296-2.46-0.889c-0.568-0.592-0.852-1.479-0.852-2.664v-6.168h-2.184
        v-1.848h2.184V10.04h2.232v3.264h3.024V15.152z"/>
    <path fill="#666666" d="M57.356,7.688h5.832c1.088,0,2.176,0.16,3.264,0.48c1.088,0.32,2.072,0.824,2.952,1.512
        s1.592,1.568,2.136,2.64c0.544,1.072,0.816,2.36,0.816,3.864c0,1.456-0.272,2.716-0.816,3.78s-1.256,1.943-2.136,2.64
        s-1.864,1.216-2.952,1.561c-1.088,0.344-2.176,0.516-3.264,0.516h-5.832V7.688z M59.732,22.593h2.976
        c1.024,0,1.972-0.145,2.844-0.432c0.872-0.288,1.624-0.704,2.256-1.248c0.632-0.544,1.124-1.216,1.476-2.017
        c0.352-0.8,0.528-1.704,0.528-2.712c0-1.056-0.176-1.983-0.528-2.784c-0.353-0.8-0.844-1.468-1.476-2.004
        c-0.632-0.536-1.384-0.944-2.256-1.224s-1.82-0.42-2.844-0.42h-2.976V22.593z"/>
    <path fill="#666666" d="M86.06,18.969c0,0.88-0.156,1.688-0.468,2.424c-0.312,0.736-0.744,1.372-1.296,1.908
        c-0.552,0.536-1.204,0.952-1.956,1.248c-0.752,0.296-1.56,0.443-2.424,0.443c-0.864,0-1.672-0.147-2.424-0.443
        c-0.752-0.296-1.4-0.712-1.944-1.248c-0.544-0.536-0.972-1.172-1.284-1.908c-0.312-0.735-0.468-1.544-0.468-2.424
        s0.156-1.684,0.468-2.412c0.312-0.728,0.74-1.356,1.284-1.884c0.543-0.528,1.191-0.939,1.944-1.236
        c0.752-0.296,1.56-0.444,2.424-0.444c0.864,0,1.672,0.148,2.424,0.444c0.752,0.297,1.404,0.708,1.956,1.236
        c0.552,0.527,0.984,1.156,1.296,1.884C85.904,17.285,86.06,18.089,86.06,18.969z M83.708,18.98c0-0.542-0.084-1.061-0.252-1.556
        c-0.169-0.494-0.414-0.929-0.734-1.304s-0.718-0.674-1.192-0.897s-1.015-0.335-1.625-0.335c-0.61,0-1.152,0.111-1.625,0.335
        c-0.474,0.224-0.871,0.522-1.191,0.897c-0.321,0.375-0.566,0.81-0.734,1.304C76.184,17.92,76.1,18.438,76.1,18.98
        c0,0.543,0.084,1.062,0.253,1.556c0.168,0.495,0.413,0.934,0.734,1.316c0.321,0.383,0.718,0.686,1.191,0.909
        c0.473,0.224,1.015,0.335,1.625,0.335c0.61,0,1.151-0.111,1.625-0.335s0.871-0.526,1.192-0.909s0.565-0.821,0.734-1.316
        C83.624,20.042,83.708,19.523,83.708,18.98z"/>
    <path fill="#666666" d="M96.428,16.184c-0.24-0.368-0.6-0.676-1.08-0.924s-0.992-0.372-1.536-0.372
        c-0.592,0-1.116,0.112-1.572,0.336c-0.456,0.225-0.844,0.524-1.164,0.9c-0.32,0.376-0.564,0.812-0.732,1.308
        s-0.252,1.017-0.252,1.56c0,0.545,0.084,1.064,0.252,1.561s0.412,0.933,0.732,1.308c0.32,0.376,0.712,0.677,1.176,0.9
        c0.464,0.225,0.992,0.336,1.584,0.336c0.576,0,1.1-0.111,1.572-0.336c0.472-0.224,0.86-0.528,1.164-0.912l1.512,1.368
        c-0.48,0.561-1.08,0.996-1.8,1.308c-0.72,0.312-1.536,0.468-2.448,0.468c-0.88,0-1.692-0.144-2.436-0.432
        c-0.744-0.288-1.388-0.691-1.932-1.212c-0.544-0.52-0.972-1.147-1.284-1.884s-0.468-1.561-0.468-2.473
        c0-0.896,0.152-1.711,0.456-2.447c0.304-0.736,0.728-1.368,1.272-1.896c0.543-0.527,1.188-0.936,1.932-1.224
        c0.744-0.288,1.548-0.433,2.412-0.433c0.8,0,1.596,0.16,2.388,0.48s1.419,0.784,1.884,1.392L96.428,16.184z"/>
    <path fill="#666666" d="M103.1,23.24c0,0.417-0.152,0.784-0.456,1.104c-0.304,0.32-0.688,0.479-1.152,0.479
        c-0.448,0-0.828-0.155-1.14-0.468c-0.312-0.312-0.468-0.676-0.468-1.092c0-0.432,0.152-0.804,0.456-1.116
        c0.304-0.312,0.688-0.468,1.152-0.468c0.464,0,0.848,0.152,1.152,0.456C102.947,22.44,103.1,22.808,103.1,23.24z"/>
    <path fill="#666666" d="M116.635,18.969c0,0.88-0.156,1.688-0.468,2.424c-0.312,0.736-0.744,1.372-1.296,1.908
        c-0.552,0.536-1.204,0.952-1.956,1.248c-0.752,0.296-1.56,0.443-2.424,0.443c-0.864,0-1.672-0.147-2.424-0.443
        c-0.752-0.296-1.4-0.712-1.944-1.248c-0.544-0.536-0.972-1.172-1.284-1.908c-0.312-0.735-0.468-1.544-0.468-2.424
        s0.156-1.684,0.468-2.412c0.312-0.728,0.74-1.356,1.284-1.884c0.543-0.528,1.191-0.939,1.944-1.236
        c0.752-0.296,1.56-0.444,2.424-0.444c0.864,0,1.672,0.148,2.424,0.444c0.752,0.297,1.404,0.708,1.956,1.236
        c0.552,0.527,0.984,1.156,1.296,1.884C116.479,17.285,116.635,18.089,116.635,18.969z M114.283,18.98
        c0-0.542-0.084-1.061-0.252-1.556c-0.169-0.494-0.414-0.929-0.734-1.304s-0.718-0.674-1.192-0.897s-1.015-0.335-1.625-0.335
        c-0.61,0-1.152,0.111-1.625,0.335c-0.474,0.224-0.871,0.522-1.191,0.897c-0.321,0.375-0.566,0.81-0.734,1.304
        c-0.169,0.495-0.253,1.014-0.253,1.556c0,0.543,0.084,1.062,0.253,1.556c0.168,0.495,0.413,0.934,0.734,1.316
        c0.321,0.383,0.718,0.686,1.191,0.909c0.473,0.224,1.015,0.335,1.625,0.335c0.61,0,1.151-0.111,1.625-0.335
        s0.871-0.526,1.192-0.909s0.565-0.821,0.734-1.316C114.199,20.042,114.283,19.523,114.283,18.98z"/>
    <path fill="#666666" d="M119.251,14.577c-0.016-0.48-0.04-0.904-0.072-1.272h2.136c0.032,0.288,0.056,0.62,0.072,0.996
        c0.016,0.376,0.024,0.684,0.024,0.924h0.072c0.32-0.672,0.788-1.212,1.404-1.62c0.616-0.408,1.308-0.612,2.076-0.612
        c0.352,0,0.648,0.033,0.888,0.097l-0.096,2.088c-0.32-0.08-0.664-0.12-1.032-0.12c-0.544,0-1.016,0.101-1.416,0.3
        c-0.4,0.2-0.732,0.468-0.996,0.805c-0.264,0.336-0.46,0.724-0.588,1.163c-0.128,0.44-0.192,0.9-0.192,1.381v5.976h-2.256v-8.928
        C119.275,15.449,119.267,15.056,119.251,14.577z"/>
    <path fill="#666666" d="M128.419,26.625c0.496,0.56,1.116,1.008,1.86,1.344c0.744,0.336,1.508,0.504,2.292,0.504
        c0.752,0,1.384-0.108,1.896-0.324s0.924-0.512,1.236-0.888s0.536-0.82,0.672-1.332c0.136-0.513,0.204-1.064,0.204-1.656v-1.464
        h-0.048c-0.416,0.641-0.984,1.128-1.704,1.464c-0.72,0.336-1.488,0.504-2.304,0.504c-0.864,0-1.652-0.151-2.364-0.456
        c-0.712-0.304-1.316-0.72-1.812-1.248c-0.496-0.527-0.88-1.147-1.152-1.859s-0.408-1.477-0.408-2.292
        c0-0.816,0.136-1.584,0.408-2.305c0.272-0.72,0.656-1.348,1.152-1.884c0.496-0.535,1.096-0.96,1.8-1.271
        c0.704-0.312,1.488-0.469,2.352-0.469c0.816,0,1.596,0.177,2.34,0.528c0.744,0.353,1.332,0.888,1.764,1.608h0.048v-1.824h2.184
        v10.8c0,0.832-0.104,1.628-0.312,2.388c-0.208,0.76-0.56,1.433-1.056,2.017s-1.144,1.052-1.944,1.404
        c-0.8,0.352-1.792,0.527-2.976,0.527c-0.992,0-1.988-0.18-2.988-0.54c-1-0.359-1.86-0.868-2.58-1.523L128.419,26.625z
         M129.091,18.873c0,0.527,0.084,1.031,0.253,1.512c0.168,0.479,0.417,0.904,0.746,1.271c0.329,0.369,0.726,0.664,1.192,0.889
        c0.465,0.224,0.995,0.336,1.589,0.336c0.577,0,1.107-0.104,1.589-0.312c0.481-0.207,0.891-0.491,1.228-0.852
        s0.598-0.784,0.782-1.272c0.185-0.487,0.277-1.012,0.277-1.571c0-0.544-0.093-1.057-0.277-1.536
        c-0.185-0.48-0.449-0.904-0.794-1.272c-0.345-0.367-0.755-0.66-1.228-0.876c-0.474-0.216-1-0.324-1.577-0.324
        c-0.594,0-1.124,0.108-1.589,0.324c-0.466,0.216-0.863,0.504-1.192,0.864s-0.578,0.784-0.746,1.271
        C129.175,17.812,129.091,18.329,129.091,18.873z"/>
</g>
<g><a xlink:href="/" pointer-events="all" target="_top"><polygon fill="none" points="0,0 145,0 145,35 0,35 0,0"/></a></g>

</g>


<!-- AnyBidirectionalIndex -->
<g id="node1" class="node">
<g id="a_node1"><a xlink:href="/v2.0/type/AnyBidirectionalIndex/" target="_top">
<polygon fill="#999999" stroke="#999999" points="247.55,-22 122.45,-22 122.45,-0 247.55,-0 247.55,-22"/>
<text text-anchor="middle" x="185" y="-7.4" font-family="Helvetica,sans-Serif" font-size="12.00" fill="white">AnyBidirectionalIndex</text>
</a>
</g>
</g>
<!-- AnyForwardIndex -->
<g id="node2" class="node">
<g id="a_node2"><a xlink:href="/v2.0/type/AnyForwardIndex/" target="_top">
<polygon fill="#999999" stroke="#999999" points="104.032,-22 -0.032231,-22 -0.032231,-0 104.032,-0 104.032,-22"/>
<text text-anchor="middle" x="52" y="-7.4" font-family="Helvetica,sans-Serif" font-size="12.00" fill="white">AnyForwardIndex</text>
</a>
</g>
</g>
<!-- AnyRandomAccessIndex -->
<g id="node3" class="node">
<g id="a_node3"><a xlink:href="/v2.0/type/AnyRandomAccessIndex/" target="_top">
<polygon fill="#999999" stroke="#999999" points="410.051,-22 265.949,-22 265.949,-0 410.051,-0 410.051,-22"/>
<text text-anchor="middle" x="338" y="-7.4" font-family="Helvetica,sans-Serif" font-size="12.00" fill="white">AnyRandomAccessIndex</text>
</a>
</g>
</g>
<!-- BidirectionalIndexType -->
<g id="node4" class="node">
<g id="a_node4"><a xlink:href="/v2.0/protocol/BidirectionalIndexType/" target="_top">
<path fill="#999999" stroke="#999999" d="M2108.73,-254C2108.73,-254 1993.27,-254 1993.27,-254 1989.61,-254 1985.94,-250.333 1985.94,-246.667 1985.94,-246.667 1985.94,-239.333 1985.94,-239.333 1985.94,-235.667 1989.61,-232 1993.27,-232 1993.27,-232 2108.73,-232 2108.73,-232 2112.39,-232 2116.06,-235.667 2116.06,-239.333 2116.06,-239.333 2116.06,-246.667 2116.06,-246.667 2116.06,-250.333 2112.39,-254 2108.73,-254"/>
<text text-anchor="middle" x="2051" y="-239.4" font-family="Helvetica,sans-Serif" font-size="12.00" fill="white">BidirectionalIndexType</text>
</a>
</g>
</g>
<!-- BidirectionalIndexType&#45;&gt;AnyBidirectionalIndex -->
<g id="edge29" class="edge">
<path fill="none" stroke="#cccccc" d="M1985.6,-241.096C1728.74,-237.374 796.839,-222.177 667,-196 487.174,-159.745 286.582,-63.7337 213.544,-26.7829"/>
<polygon fill="#cccccc" stroke="#cccccc" points="214.991,-23.5919 204.491,-22.1738 211.815,-29.83 214.991,-23.5919"/>
</g>
<!-- BidirectionalIndexType&#45;&gt;AnyRandomAccessIndex -->
<g id="edge30" class="edge">
<path fill="none" stroke="#cccccc" d="M1985.69,-241.205C1737.74,-237.98 862.473,-224.661 741,-196 588.627,-160.049 423.781,-64.9409 362.629,-27.4786"/>
<polygon fill="#cccccc" stroke="#cccccc" points="364.395,-24.4554 354.047,-22.1808 360.718,-30.4119 364.395,-24.4554"/>
</g>
<!-- Bit -->
<g id="node5" class="node">
<g id="a_node5"><a xlink:href="/v2.0/type/Bit/" target="_top">
<polygon fill="#999999" stroke="#999999" points="2678,-22 2624,-22 2624,-0 2678,-0 2678,-22"/>
<text text-anchor="middle" x="2651" y="-7.4" font-family="Helvetica,sans-Serif" font-size="12.00" fill="white">Bit</text>
</a>
</g>
</g>
<!-- BidirectionalIndexType&#45;&gt;Bit -->
<g id="edge31" class="edge">
<path fill="none" stroke="#cccccc" d="M2116.27,-234.845C2165.96,-228.162 2235.54,-216.122 2294,-196 2426.4,-150.428 2570.76,-63.1265 2626.85,-27.6088"/>
<polygon fill="#cccccc" stroke="#cccccc" points="2628.82,-30.5002 2635.37,-22.1746 2625.06,-24.5968 2628.82,-30.5002"/>
</g>
<!-- FlattenBidirectionalCollectionIndex -->
<g id="node8" class="node">
<g id="a_node8"><a xlink:href="/v2.0/type/FlattenBidirectionalCollectionIndex/" target="_top">
<polygon fill="#999999" stroke="#999999" points="3221.08,-22 3026.92,-22 3026.92,-0 3221.08,-0 3221.08,-22"/>
<text text-anchor="middle" x="3124" y="-7.4" font-family="Helvetica,sans-Serif" font-size="12.00" fill="white">FlattenBidirectionalCollectionIndex</text>
</a>
</g>
</g>
<!-- BidirectionalIndexType&#45;&gt;FlattenBidirectionalCollectionIndex -->
<g id="edge32" class="edge">
<path fill="none" stroke="#cccccc" d="M2116.42,-240.08C2212.64,-236.338 2397.6,-225.636 2552,-196 2641.22,-178.876 2661.36,-165.326 2748,-138 2871.91,-98.9193 3017.46,-48.9846 3085.41,-25.4366"/>
<polygon fill="#cccccc" stroke="#cccccc" points="3086.56,-28.7424 3094.86,-22.1582 3084.27,-22.129 3086.56,-28.7424"/>
</g>
<!-- Int -->
<g id="node11" class="node">
<g id="a_node11"><a xlink:href="/v2.0/type/Int/" target="_top">
<polygon fill="#999999" stroke="#999999" points="501,-22 447,-22 447,-0 501,-0 501,-22"/>
<text text-anchor="middle" x="474" y="-7.4" font-family="Helvetica,sans-Serif" font-size="12.00" fill="white">Int</text>
</a>
</g>
</g>
<!-- BidirectionalIndexType&#45;&gt;Int -->
<g id="edge33" class="edge">
<path fill="none" stroke="#cccccc" d="M1985.7,-241.036C1747.77,-237.323 935.31,-222.79 822,-196 700.832,-167.352 674.481,-142.85 567,-80 540.588,-64.5555 512.535,-43.289 494.232,-28.6727"/>
<polygon fill="#cccccc" stroke="#cccccc" points="496.058,-25.6485 486.08,-22.0862 491.659,-31.0934 496.058,-25.6485"/>
</g>
<!-- Int16 -->
<g id="node12" class="node">
<g id="a_node12"><a xlink:href="/v2.0/type/Int16/" target="_top">
<polygon fill="#999999" stroke="#999999" points="582,-22 528,-22 528,-0 582,-0 582,-22"/>
<text text-anchor="middle" x="555" y="-7.4" font-family="Helvetica,sans-Serif" font-size="12.00" fill="white">Int16</text>
</a>
</g>
</g>
<!-- BidirectionalIndexType&#45;&gt;Int16 -->
<g id="edge34" class="edge">
<path fill="none" stroke="#cccccc" d="M1985.74,-240.835C1758.22,-236.573 1008.21,-220.777 903,-196 781.413,-167.366 754.621,-143.413 647,-80 620.824,-64.5765 593.082,-43.3059 574.991,-28.6829"/>
<polygon fill="#cccccc" stroke="#cccccc" points="576.891,-25.7153 566.935,-22.093 572.459,-31.1336 576.891,-25.7153"/>
</g>
<!-- Int32 -->
<g id="node13" class="node">
<g id="a_node13"><a xlink:href="/v2.0/type/Int32/" target="_top">
<polygon fill="#999999" stroke="#999999" points="734,-22 680,-22 680,-0 734,-0 734,-22"/>
<text text-anchor="middle" x="707" y="-7.4" font-family="Helvetica,sans-Serif" font-size="12.00" fill="white">Int32</text>
</a>
</g>
</g>
<!-- BidirectionalIndexType&#45;&gt;Int32 -->
<g id="edge35" class="edge">
<path fill="none" stroke="#cccccc" d="M1985.73,-242.527C1843.45,-242.784 1494.98,-238.565 1207,-196 991.593,-164.162 892.492,-226.062 731,-80 717.551,-67.8363 711.638,-47.6685 709.038,-32.4478"/>
<polygon fill="#cccccc" stroke="#cccccc" points="712.491,-31.8593 707.671,-22.4243 705.555,-32.8057 712.491,-31.8593"/>
</g>
<!-- Int64 -->
<g id="node14" class="node">
<g id="a_node14"><a xlink:href="/v2.0/type/Int64/" target="_top">
<polygon fill="#999999" stroke="#999999" points="1014,-22 960,-22 960,-0 1014,-0 1014,-22"/>
<text text-anchor="middle" x="987" y="-7.4" font-family="Helvetica,sans-Serif" font-size="12.00" fill="white">Int64</text>
</a>
</g>
</g>
<!-- BidirectionalIndexType&#45;&gt;Int64 -->
<g id="edge36" class="edge">
<path fill="none" stroke="#cccccc" d="M1985.9,-241.456C1825.36,-239.579 1414.02,-231.36 1282,-196 1170.64,-166.174 1142.22,-149.178 1050,-80 1030.84,-65.6302 1012.67,-44.992 1000.81,-30.2269"/>
<polygon fill="#cccccc" stroke="#cccccc" points="1003.52,-28.0131 994.6,-22.3039 998.016,-32.3327 1003.52,-28.0131"/>
</g>
<!-- Int8 -->
<g id="node15" class="node">
<g id="a_node15"><a xlink:href="/v2.0/type/Int8/" target="_top">
<polygon fill="#999999" stroke="#999999" points="1128,-22 1074,-22 1074,-0 1128,-0 1128,-22"/>
<text text-anchor="middle" x="1101" y="-7.4" font-family="Helvetica,sans-Serif" font-size="12.00" fill="white">Int8</text>
</a>
</g>
</g>
<!-- BidirectionalIndexType&#45;&gt;Int8 -->
<g id="edge37" class="edge">
<path fill="none" stroke="#cccccc" d="M1985.75,-241.486C1808.99,-238.953 1325.49,-224.124 1196,-138 1154.76,-110.569 1124.39,-59.0386 1110.1,-31.1301"/>
<polygon fill="#cccccc" stroke="#cccccc" points="1113.15,-29.4089 1105.58,-22.0053 1106.88,-32.5191 1113.15,-29.4089"/>
</g>
<!-- RandomAccessIndexType -->
<g id="node18" class="node">
<g id="a_node18"><a xlink:href="/v2.0/protocol/RandomAccessIndexType/" target="_top">
<path fill="#999999" stroke="#999999" d="M1575.23,-196C1575.23,-196 1440.77,-196 1440.77,-196 1437.11,-196 1433.44,-192.333 1433.44,-188.667 1433.44,-188.667 1433.44,-181.333 1433.44,-181.333 1433.44,-177.667 1437.11,-174 1440.77,-174 1440.77,-174 1575.23,-174 1575.23,-174 1578.89,-174 1582.56,-177.667 1582.56,-181.333 1582.56,-181.333 1582.56,-188.667 1582.56,-188.667 1582.56,-192.333 1578.89,-196 1575.23,-196"/>
<text text-anchor="middle" x="1508" y="-181.4" font-family="Helvetica,sans-Serif" font-size="12.00" fill="white">RandomAccessIndexType</text>
</a>
</g>
</g>
<!-- BidirectionalIndexType&#45;&gt;RandomAccessIndexType -->
<g id="edge38" class="edge">
<path fill="none" stroke="#cccccc" d="M1985.57,-235.597C1897.31,-226.908 1735.25,-210.77 1597,-196 1595.7,-195.861 1594.38,-195.72 1593.06,-195.577"/>
<polygon fill="#cccccc" stroke="#cccccc" points="1593.09,-192.061 1582.78,-194.462 1592.34,-199.02 1593.09,-192.061"/>
</g>
<!-- ReverseIndex -->
<g id="node19" class="node">
<g id="a_node19"><a xlink:href="/v2.0/type/ReverseIndex/" target="_top">
<polygon fill="#999999" stroke="#999999" points="2170.03,-22 2085.97,-22 2085.97,-0 2170.03,-0 2170.03,-22"/>
<text text-anchor="middle" x="2128" y="-7.4" font-family="Helvetica,sans-Serif" font-size="12.00" fill="white">ReverseIndex</text>
</a>
</g>
</g>
<!-- BidirectionalIndexType&#45;&gt;ReverseIndex -->
<g id="edge39" class="edge">
<path fill="none" stroke="#cccccc" d="M2058.35,-231.864C2064.6,-222.836 2073.42,-209.069 2079,-196 2103.26,-139.185 2118.21,-67.2694 2124.52,-32.5745"/>
<polygon fill="#cccccc" stroke="#cccccc" points="2128.04,-32.7665 2126.33,-22.3109 2121.14,-31.5519 2128.04,-32.7665"/>
</g>
<!-- ReverseIndexType -->
<g id="node20" class="node">
<g id="a_node20"><a xlink:href="/v2.0/protocol/ReverseIndexType/" target="_top">
<path fill="#999999" stroke="#999999" d="M2285.71,-80C2285.71,-80 2190.29,-80 2190.29,-80 2186.62,-80 2182.95,-76.3333 2182.95,-72.6667 2182.95,-72.6667 2182.95,-65.3333 2182.95,-65.3333 2182.95,-61.6667 2186.62,-58 2190.29,-58 2190.29,-58 2285.71,-58 2285.71,-58 2289.38,-58 2293.05,-61.6667 2293.05,-65.3333 2293.05,-65.3333 2293.05,-72.6667 2293.05,-72.6667 2293.05,-76.3333 2289.38,-80 2285.71,-80"/>
<text text-anchor="middle" x="2238" y="-65.4" font-family="Helvetica,sans-Serif" font-size="12.00" fill="white">ReverseIndexType</text>
</a>
</g>
</g>
<!-- BidirectionalIndexType&#45;&gt;ReverseIndexType -->
<g id="edge40" class="edge">
<path fill="none" stroke="#cccccc" d="M2073.01,-231.939C2089.85,-223.648 2113.15,-210.864 2131,-196 2170.46,-163.148 2207.02,-114.676 2225.47,-88.4604"/>
<polygon fill="#cccccc" stroke="#cccccc" points="2228.39,-90.39 2231.21,-80.178 2222.64,-86.401 2228.39,-90.39"/>
</g>
<!-- ReverseRandomAccessIndex -->
<g id="node21" class="node">
<g id="a_node21"><a xlink:href="/v2.0/type/ReverseRandomAccessIndex/" target="_top">
<polygon fill="#999999" stroke="#999999" points="2356.06,-22 2187.94,-22 2187.94,-0 2356.06,-0 2356.06,-22"/>
<text text-anchor="middle" x="2272" y="-7.4" font-family="Helvetica,sans-Serif" font-size="12.00" fill="white">ReverseRandomAccessIndex</text>
</a>
</g>
</g>
<!-- BidirectionalIndexType&#45;&gt;ReverseRandomAccessIndex -->
<g id="edge41" class="edge">
<path fill="none" stroke="#cccccc" d="M2091.57,-231.953C2154.51,-213.86 2273.21,-169.097 2319,-80 2328.61,-61.3043 2311.84,-41.7422 2295.73,-28.425"/>
<polygon fill="#cccccc" stroke="#cccccc" points="2297.56,-25.4163 2287.5,-22.068 2293.27,-30.9539 2297.56,-25.4163"/>
</g>
<!-- String.CharacterView.Index -->
<g id="node24" class="node">
<g id="a_node24"><a xlink:href="/v2.0/type/String.CharacterView.Index/" target="_top">
<polygon fill="#999999" stroke="#999999" points="2851.4,-22 2696.6,-22 2696.6,-0 2851.4,-0 2851.4,-22"/>
<text text-anchor="middle" x="2774" y="-7.4" font-family="Helvetica,sans-Serif" font-size="12.00" fill="white">String.CharacterView.Index</text>
</a>
</g>
</g>
<!-- BidirectionalIndexType&#45;&gt;String.CharacterView.Index -->
<g id="edge49" class="edge">
<path fill="none" stroke="#cccccc" d="M2116.14,-233.651C2174.36,-225.683 2261.84,-212.469 2337,-196 2524.49,-154.917 2615.42,-213.838 2753,-80 2765.7,-67.6422 2770.76,-47.7848 2772.76,-32.7114"/>
<polygon fill="#cccccc" stroke="#cccccc" points="2776.28,-32.6108 2773.76,-22.3207 2769.32,-31.9381 2776.28,-32.6108"/>
</g>
<!-- String.UTF16View.Index -->
<g id="node25" class="node">
<g id="a_node25"><a xlink:href="/v2.0/type/String.UTF16View.Index/" target="_top">
<polygon fill="#999999" stroke="#999999" points="3008.39,-22 2869.61,-22 2869.61,-0 3008.39,-0 3008.39,-22"/>
<text text-anchor="middle" x="2939" y="-7.4" font-family="Helvetica,sans-Serif" font-size="12.00" fill="white">String.UTF16View.Index</text>
</a>
</g>
</g>
<!-- BidirectionalIndexType&#45;&gt;String.UTF16View.Index -->
<g id="edge51" class="edge">
<path fill="none" stroke="#cccccc" d="M2116.3,-239.415C2236.59,-232.979 2499.87,-211.033 2708,-138 2789.18,-109.514 2875.94,-54.7488 2916.13,-27.7864"/>
<polygon fill="#cccccc" stroke="#cccccc" points="2918.33,-30.5223 2924.65,-22.0174 2914.41,-24.726 2918.33,-30.5223"/>
</g>
<!-- String.UnicodeScalarView.Index -->
<g id="node27" class="node">
<g id="a_node27"><a xlink:href="/v2.0/type/String.UnicodeScalarView.Index/" target="_top">
<polygon fill="#999999" stroke="#999999" points="3418.92,-22 3239.08,-22 3239.08,-0 3418.92,-0 3418.92,-22"/>
<text text-anchor="middle" x="3329" y="-7.4" font-family="Helvetica,sans-Serif" font-size="12.00" fill="white">String.UnicodeScalarView.Index</text>
</a>
</g>
</g>
<!-- BidirectionalIndexType&#45;&gt;String.UnicodeScalarView.Index -->
<g id="edge50" class="edge">
<path fill="none" stroke="#cccccc" d="M2116.11,-240.216C2220.98,-236.546 2433.51,-225.813 2611,-196 2872.81,-152.024 3178.96,-59.426 3287.94,-25.1356"/>
<polygon fill="#cccccc" stroke="#cccccc" points="3289.08,-28.4459 3297.56,-22.0978 3286.97,-21.7706 3289.08,-28.4459"/>
</g>
<!-- UInt -->
<g id="node28" class="node">
<g id="a_node28"><a xlink:href="/v2.0/type/UInt/" target="_top">
<polygon fill="#999999" stroke="#999999" points="1470,-22 1416,-22 1416,-0 1470,-0 1470,-22"/>
<text text-anchor="middle" x="1443" y="-7.4" font-family="Helvetica,sans-Serif" font-size="12.00" fill="white">UInt</text>
</a>
</g>
</g>
<!-- BidirectionalIndexType&#45;&gt;UInt -->
<g id="edge42" class="edge">
<path fill="none" stroke="#cccccc" d="M2016.09,-231.979C1936.62,-208.763 1736.66,-148.05 1576,-80 1538.14,-63.9653 1496.17,-41.7129 1469.7,-27.0927"/>
<polygon fill="#cccccc" stroke="#cccccc" points="1471.12,-23.8799 1460.68,-22.0773 1467.72,-29.9972 1471.12,-23.8799"/>
</g>
<!-- UInt16 -->
<g id="node29" class="node">
<g id="a_node29"><a xlink:href="/v2.0/type/UInt16/" target="_top">
<polygon fill="#999999" stroke="#999999" points="1764,-22 1710,-22 1710,-0 1764,-0 1764,-22"/>
<text text-anchor="middle" x="1737" y="-7.4" font-family="Helvetica,sans-Serif" font-size="12.00" fill="white">UInt16</text>
</a>
</g>
</g>
<!-- BidirectionalIndexType&#45;&gt;UInt16 -->
<g id="edge43" class="edge">
<path fill="none" stroke="#cccccc" d="M2037.1,-231.82C1987.55,-195.527 1819.29,-72.2762 1758.85,-28.0016"/>
<polygon fill="#cccccc" stroke="#cccccc" points="1760.87,-25.1477 1750.74,-22.062 1756.74,-30.7948 1760.87,-25.1477"/>
</g>
<!-- UInt32 -->
<g id="node30" class="node">
<g id="a_node30"><a xlink:href="/v2.0/type/UInt32/" target="_top">
<polygon fill="#999999" stroke="#999999" points="1878,-22 1824,-22 1824,-0 1878,-0 1878,-22"/>
<text text-anchor="middle" x="1851" y="-7.4" font-family="Helvetica,sans-Serif" font-size="12.00" fill="white">UInt32</text>
</a>
</g>
</g>
<!-- BidirectionalIndexType&#45;&gt;UInt32 -->
<g id="edge44" class="edge">
<path fill="none" stroke="#cccccc" d="M2047.31,-231.916C2035.89,-201.862 1998.34,-111.657 1941,-58 1925.76,-43.7359 1905.24,-32.795 1887.65,-25.1692"/>
<polygon fill="#cccccc" stroke="#cccccc" points="1888.81,-21.8604 1878.23,-21.2736 1886.13,-28.3292 1888.81,-21.8604"/>
</g>
<!-- UInt64 -->
<g id="node31" class="node">
<g id="a_node31"><a xlink:href="/v2.0/type/UInt64/" target="_top">
<polygon fill="#999999" stroke="#999999" points="2030,-22 1976,-22 1976,-0 2030,-0 2030,-22"/>
<text text-anchor="middle" x="2003" y="-7.4" font-family="Helvetica,sans-Serif" font-size="12.00" fill="white">UInt64</text>
</a>
</g>
</g>
<!-- BidirectionalIndexType&#45;&gt;UInt64 -->
<g id="edge45" class="edge">
<path fill="none" stroke="#cccccc" d="M2054.13,-231.828C2062.41,-202.996 2082.43,-118.886 2055,-58 2049.55,-45.8944 2039.16,-35.6897 2029.09,-27.9913"/>
<polygon fill="#cccccc" stroke="#cccccc" points="2031.01,-25.0595 2020.83,-22.1275 2026.96,-30.7685 2031.01,-25.0595"/>
</g>
<!-- UInt8 -->
<g id="node32" class="node">
<g id="a_node32"><a xlink:href="/v2.0/type/UInt8/" target="_top">
<polygon fill="#999999" stroke="#999999" points="1356,-22 1302,-22 1302,-0 1356,-0 1356,-22"/>
<text text-anchor="middle" x="1329" y="-7.4" font-family="Helvetica,sans-Serif" font-size="12.00" fill="white">UInt8</text>
</a>
</g>
</g>
<!-- BidirectionalIndexType&#45;&gt;UInt8 -->
<g id="edge46" class="edge">
<path fill="none" stroke="#cccccc" d="M1990.83,-231.922C1945.64,-223.791 1882.44,-211.222 1828,-196 1648.07,-145.69 1440.83,-59.957 1361.86,-26.2297"/>
<polygon fill="#cccccc" stroke="#cccccc" points="1363.01,-22.9165 1352.44,-22.1945 1360.26,-29.3506 1363.01,-22.9165"/>
</g>
<!-- UnsafeMutablePointer -->
<g id="node33" class="node">
<g id="a_node33"><a xlink:href="/v2.0/type/UnsafeMutablePointer/" target="_top">
<polygon fill="#999999" stroke="#999999" points="2502.05,-22 2373.95,-22 2373.95,-0 2502.05,-0 2502.05,-22"/>
<text text-anchor="middle" x="2438" y="-7.4" font-family="Helvetica,sans-Serif" font-size="12.00" fill="white">UnsafeMutablePointer</text>
</a>
</g>
</g>
<!-- BidirectionalIndexType&#45;&gt;UnsafeMutablePointer -->
<g id="edge47" class="edge">
<path fill="none" stroke="#cccccc" d="M2114,-231.991C2147.42,-225 2188.4,-213.673 2222,-196 2307.57,-150.996 2388.89,-66.8477 2422.18,-30.0282"/>
<polygon fill="#cccccc" stroke="#cccccc" points="2425.19,-31.9187 2429.24,-22.13 2419.97,-27.2542 2425.19,-31.9187"/>
</g>
<!-- UnsafePointer -->
<g id="node34" class="node">
<g id="a_node34"><a xlink:href="/v2.0/type/UnsafePointer/" target="_top">
<polygon fill="#999999" stroke="#999999" points="2606.03,-22 2519.97,-22 2519.97,-0 2606.03,-0 2606.03,-22"/>
<text text-anchor="middle" x="2563" y="-7.4" font-family="Helvetica,sans-Serif" font-size="12.00" fill="white">UnsafePointer</text>
</a>
</g>
</g>
<!-- BidirectionalIndexType&#45;&gt;UnsafePointer -->
<g id="edge48" class="edge">
<path fill="none" stroke="#cccccc" d="M2116.43,-232.675C2157.25,-225.545 2210.33,-213.85 2255,-196 2370.44,-149.873 2493.08,-63.8362 2541.53,-28.1519"/>
<polygon fill="#cccccc" stroke="#cccccc" points="2543.75,-30.8642 2549.7,-22.0959 2539.58,-25.2418 2543.75,-30.8642"/>
</g>
<!-- DictionaryIndex -->
<g id="node6" class="node">
<g id="a_node6"><a xlink:href="/v2.0/type/DictionaryIndex/" target="_top">
<polygon fill="#999999" stroke="#999999" points="3530.03,-22 3437.97,-22 3437.97,-0 3530.03,-0 3530.03,-22"/>
<text text-anchor="middle" x="3484" y="-7.4" font-family="Helvetica,sans-Serif" font-size="12.00" fill="white">DictionaryIndex</text>
</a>
</g>
</g>
<!-- Equatable -->
<g id="node7" class="node">
<g id="a_node7"><a xlink:href="/v2.0/protocol/Equatable/" target="_top">
<path fill="#999999" stroke="#999999" d="M2300.7,-428C2300.7,-428 2251.3,-428 2251.3,-428 2247.63,-428 2243.96,-424.333 2243.96,-420.667 2243.96,-420.667 2243.96,-413.333 2243.96,-413.333 2243.96,-409.667 2247.63,-406 2251.3,-406 2251.3,-406 2300.7,-406 2300.7,-406 2304.37,-406 2308.04,-409.667 2308.04,-413.333 2308.04,-413.333 2308.04,-420.667 2308.04,-420.667 2308.04,-424.333 2304.37,-428 2300.7,-428"/>
<text text-anchor="middle" x="2276" y="-413.4" font-family="Helvetica,sans-Serif" font-size="12.00" fill="white">Equatable</text>
</a>
</g>
</g>
<!-- _Incrementable -->
<g id="node36" class="node">
<g id="a_node36"><a xlink:href="/v2.0/protocol/_Incrementable/" target="_top">
<path fill="#999999" stroke="#999999" d="M2314.71,-370C2314.71,-370 2237.29,-370 2237.29,-370 2233.63,-370 2229.96,-366.333 2229.96,-362.667 2229.96,-362.667 2229.96,-355.333 2229.96,-355.333 2229.96,-351.667 2233.63,-348 2237.29,-348 2237.29,-348 2314.71,-348 2314.71,-348 2318.37,-348 2322.04,-351.667 2322.04,-355.333 2322.04,-355.333 2322.04,-362.667 2322.04,-362.667 2322.04,-366.333 2318.37,-370 2314.71,-370"/>
<text text-anchor="middle" x="2276" y="-355.4" font-family="Helvetica,sans-Serif" font-size="12.00" fill="white">_Incrementable</text>
</a>
</g>
</g>
<!-- Equatable&#45;&gt;_Incrementable -->
<g id="edge94" class="edge">
<path fill="none" stroke="#cccccc" d="M2276,-405.988C2276,-398.91 2276,-389.171 2276,-380.478"/>
<polygon fill="#cccccc" stroke="#cccccc" points="2279.5,-380.304 2276,-370.304 2272.5,-380.304 2279.5,-380.304"/>
</g>
<!-- FlattenCollectionIndex -->
<g id="node9" class="node">
<g id="a_node9"><a xlink:href="/v2.0/type/FlattenCollectionIndex/" target="_top">
<polygon fill="#999999" stroke="#999999" points="3677.05,-22 3548.95,-22 3548.95,-0 3677.05,-0 3677.05,-22"/>
<text text-anchor="middle" x="3613" y="-7.4" font-family="Helvetica,sans-Serif" font-size="12.00" fill="white">FlattenCollectionIndex</text>
</a>
</g>
</g>
<!-- ForwardIndexType -->
<g id="node10" class="node">
<g id="a_node10"><a xlink:href="/v2.0/protocol/ForwardIndexType/" target="_top">
<path fill="#ee543d" stroke="#ee543d" d="M2323.21,-312C2323.21,-312 2228.79,-312 2228.79,-312 2225.13,-312 2221.46,-308.333 2221.46,-304.667 2221.46,-304.667 2221.46,-297.333 2221.46,-297.333 2221.46,-293.667 2225.13,-290 2228.79,-290 2228.79,-290 2323.21,-290 2323.21,-290 2326.87,-290 2330.54,-293.667 2330.54,-297.333 2330.54,-297.333 2330.54,-304.667 2330.54,-304.667 2330.54,-308.333 2326.87,-312 2323.21,-312"/>
<text text-anchor="middle" x="2276" y="-297.4" font-family="Helvetica,sans-Serif" font-size="12.00" fill="white">ForwardIndexType</text>
</a>
</g>
</g>
<!-- ForwardIndexType&#45;&gt;AnyBidirectionalIndex -->
<g id="edge1" class="edge">
<path fill="none" stroke="#cccccc" d="M2221.53,-300.003C1906.38,-299.866 327.552,-297.027 235,-254 198.452,-237.009 175,-226.305 175,-186 175,-186 175,-186 175,-126 175,-93.0274 179.203,-54.8949 182.159,-32.1502"/>
<polygon fill="#cccccc" stroke="#cccccc" points="185.655,-32.4173 183.524,-22.0389 178.718,-31.4805 185.655,-32.4173"/>
</g>
<!-- ForwardIndexType&#45;&gt;AnyForwardIndex -->
<g id="edge2" class="edge">
<path fill="none" stroke="#cccccc" d="M2221.64,-300.187C1913.62,-301.061 394.157,-302.853 192,-254 124.762,-237.751 52,-255.174 52,-186 52,-186 52,-186 52,-126 52,-93.1536 52,-54.9837 52,-32.197"/>
<polygon fill="#cccccc" stroke="#cccccc" points="55.5001,-32.0648 52,-22.0648 48.5001,-32.0648 55.5001,-32.0648"/>
</g>
<!-- ForwardIndexType&#45;&gt;AnyRandomAccessIndex -->
<g id="edge3" class="edge">
<path fill="none" stroke="#cccccc" d="M2221.34,-300.159C1926.35,-300.819 530.821,-301.4 345,-254 281.054,-237.688 213,-251.994 213,-186 213,-186 213,-186 213,-126 213,-77.3341 265.365,-43.9084 302.309,-26.3819"/>
<polygon fill="#cccccc" stroke="#cccccc" points="304.144,-29.3925 311.796,-22.0646 301.244,-23.0212 304.144,-29.3925"/>
</g>
<!-- ForwardIndexType&#45;&gt;BidirectionalIndexType -->
<g id="edge4" class="edge">
<path fill="none" stroke="#cccccc" d="M2235.77,-289.988C2198.14,-280.621 2141.78,-266.594 2101.21,-256.497"/>
<polygon fill="#cccccc" stroke="#cccccc" points="2101.81,-253.038 2091.26,-254.019 2100.11,-259.831 2101.81,-253.038"/>
</g>
<!-- ForwardIndexType&#45;&gt;Bit -->
<g id="edge5" class="edge">
<path fill="none" stroke="#cccccc" d="M2330.65,-299.915C2467.68,-298.233 2815,-284.277 2815,-186 2815,-186 2815,-186 2815,-126 2815,-94.1273 2730.43,-49.2435 2682.75,-26.4713"/>
<polygon fill="#cccccc" stroke="#cccccc" points="2684,-23.1903 2673.46,-22.091 2681.01,-29.5217 2684,-23.1903"/>
</g>
<!-- ForwardIndexType&#45;&gt;DictionaryIndex -->
<g id="edge6" class="edge">
<path fill="none" stroke="#cccccc" d="M2330.36,-299.616C2465.78,-298.106 2828.87,-290.666 3129,-254 3288.46,-234.519 3484,-346.646 3484,-186 3484,-186 3484,-186 3484,-126 3484,-93.1536 3484,-54.9837 3484,-32.197"/>
<polygon fill="#cccccc" stroke="#cccccc" points="3487.5,-32.0648 3484,-22.0648 3480.5,-32.0648 3487.5,-32.0648"/>
</g>
<!-- ForwardIndexType&#45;&gt;FlattenBidirectionalCollectionIndex -->
<g id="edge7" class="edge">
<path fill="none" stroke="#cccccc" d="M2330.45,-298.227C2514.35,-291.526 3101,-264.033 3101,-186 3101,-186 3101,-186 3101,-126 3101,-92.5122 3110.65,-54.5646 3117.45,-31.9929"/>
<polygon fill="#cccccc" stroke="#cccccc" points="3120.86,-32.8232 3120.51,-22.2343 3114.18,-30.7328 3120.86,-32.8232"/>
</g>
<!-- ForwardIndexType&#45;&gt;FlattenCollectionIndex -->
<g id="edge8" class="edge">
<path fill="none" stroke="#cccccc" d="M2330.45,-298.901C2516.1,-294.948 3123.51,-280.278 3317,-254 3450.75,-235.835 3613,-320.982 3613,-186 3613,-186 3613,-186 3613,-126 3613,-93.1536 3613,-54.9837 3613,-32.197"/>
<polygon fill="#cccccc" stroke="#cccccc" points="3616.5,-32.0648 3613,-22.0648 3609.5,-32.0648 3616.5,-32.0648"/>
</g>
<!-- ForwardIndexType&#45;&gt;Int -->
<g id="edge9" class="edge">
<path fill="none" stroke="#cccccc" d="M2221.19,-299.728C1940.46,-298.18 670.044,-289.265 498,-254 417.877,-237.577 327,-267.789 327,-186 327,-186 327,-186 327,-126 327,-70.4205 393.431,-38.049 436.978,-22.7996"/>
<polygon fill="#cccccc" stroke="#cccccc" points="438.324,-26.0398 446.695,-19.5449 436.101,-19.4022 438.324,-26.0398"/>
</g>
<!-- ForwardIndexType&#45;&gt;Int16 -->
<g id="edge10" class="edge">
<path fill="none" stroke="#cccccc" d="M2221.59,-299.681C1955.22,-297.96 795.257,-288.523 638,-254 562.93,-237.52 479,-262.858 479,-186 479,-186 479,-186 479,-126 479,-85.9604 511.858,-49.2878 534.364,-28.8653"/>
<polygon fill="#cccccc" stroke="#cccccc" points="536.88,-31.3155 542.108,-22.1004 532.274,-26.044 536.88,-31.3155"/>
</g>
<!-- ForwardIndexType&#45;&gt;Int32 -->
<g id="edge11" class="edge">
<path fill="none" stroke="#cccccc" d="M2221.35,-299.244C2006.64,-296.092 1220.61,-282.796 973,-254 819.062,-236.097 631,-340.975 631,-186 631,-186 631,-186 631,-126 631,-85.9604 663.858,-49.2878 686.364,-28.8653"/>
<polygon fill="#cccccc" stroke="#cccccc" points="688.88,-31.3155 694.108,-22.1004 684.274,-26.044 688.88,-31.3155"/>
</g>
<!-- ForwardIndexType&#45;&gt;Int64 -->
<g id="edge12" class="edge">
<path fill="none" stroke="#cccccc" d="M2221.53,-299.427C2001.09,-296.905 1181.54,-285.478 1070,-254 1010.63,-237.245 949,-247.688 949,-186 949,-186 949,-186 949,-126 949,-91.2644 965.074,-53.4893 976.314,-31.3219"/>
<polygon fill="#cccccc" stroke="#cccccc" points="979.501,-32.7812 981.062,-22.3021 973.307,-29.5201 979.501,-32.7812"/>
</g>
<!-- ForwardIndexType&#45;&gt;Int8 -->
<g id="edge13" class="edge">
<path fill="none" stroke="#cccccc" d="M2221.38,-298.691C2048.08,-294.322 1511.86,-279.081 1340,-254 1214.56,-235.694 1063,-312.766 1063,-186 1063,-186 1063,-186 1063,-126 1063,-91.2644 1079.07,-53.4893 1090.31,-31.3219"/>
<polygon fill="#cccccc" stroke="#cccccc" points="1093.5,-32.7812 1095.06,-22.3021 1087.31,-29.5201 1093.5,-32.7812"/>
</g>
<!-- LazyFilterIndex -->
<g id="node17" class="node">
<g id="a_node17"><a xlink:href="/v2.0/type/LazyFilterIndex/" target="_top">
<polygon fill="#999999" stroke="#999999" points="3786.53,-22 3695.47,-22 3695.47,-0 3786.53,-0 3786.53,-22"/>
<text text-anchor="middle" x="3741" y="-7.4" font-family="Helvetica,sans-Serif" font-size="12.00" fill="white">LazyFilterIndex</text>
</a>
</g>
</g>
<!-- ForwardIndexType&#45;&gt;LazyFilterIndex -->
<g id="edge14" class="edge">
<path fill="none" stroke="#cccccc" d="M2330.4,-299.435C2533.71,-297.086 3248.7,-286.642 3474,-254 3595.19,-236.442 3741,-308.455 3741,-186 3741,-186 3741,-186 3741,-126 3741,-93.1536 3741,-54.9837 3741,-32.197"/>
<polygon fill="#cccccc" stroke="#cccccc" points="3744.5,-32.0648 3741,-22.0648 3737.5,-32.0648 3744.5,-32.0648"/>
</g>
<!-- ForwardIndexType&#45;&gt;ReverseIndex -->
<g id="edge15" class="edge">
<path fill="none" stroke="#cccccc" d="M2300.78,-289.965C2336.18,-273.792 2397,-238.384 2397,-186 2397,-186 2397,-186 2397,-126 2397,-79.3991 2258.41,-40.9633 2180.18,-22.98"/>
<polygon fill="#cccccc" stroke="#cccccc" points="2180.56,-19.4758 2170.03,-20.6825 2179.01,-26.3032 2180.56,-19.4758"/>
</g>
<!-- ForwardIndexType&#45;&gt;ReverseRandomAccessIndex -->
<g id="edge16" class="edge">
<path fill="none" stroke="#cccccc" d="M2330.5,-296.941C2399.93,-289.763 2511,-265.809 2511,-186 2511,-186 2511,-186 2511,-126 2511,-84.3194 2391.09,-44.4888 2321.14,-24.7997"/>
<polygon fill="#cccccc" stroke="#cccccc" points="2321.77,-21.3435 2311.2,-22.0431 2319.9,-28.0888 2321.77,-21.3435"/>
</g>
<!-- SetIndex -->
<g id="node22" class="node">
<g id="a_node22"><a xlink:href="/v2.0/type/SetIndex/" target="_top">
<polygon fill="#999999" stroke="#999999" points="3861.52,-22 3804.48,-22 3804.48,-0 3861.52,-0 3861.52,-22"/>
<text text-anchor="middle" x="3833" y="-7.4" font-family="Helvetica,sans-Serif" font-size="12.00" fill="white">SetIndex</text>
</a>
</g>
</g>
<!-- ForwardIndexType&#45;&gt;SetIndex -->
<g id="edge17" class="edge">
<path fill="none" stroke="#cccccc" d="M2330.4,-300.071C2548.74,-300.054 3361.75,-297.042 3615,-254 3715.06,-236.994 3833,-287.493 3833,-186 3833,-186 3833,-186 3833,-126 3833,-93.1536 3833,-54.9837 3833,-32.197"/>
<polygon fill="#cccccc" stroke="#cccccc" points="3836.5,-32.0648 3833,-22.0648 3829.5,-32.0648 3836.5,-32.0648"/>
</g>
<!-- ForwardIndexType&#45;&gt;String.CharacterView.Index -->
<g id="edge25" class="edge">
<path fill="none" stroke="#cccccc" d="M2330.37,-297.864C2441.47,-293.027 2690.87,-279.613 2772,-254 2830.09,-235.661 2891,-246.915 2891,-186 2891,-186 2891,-186 2891,-126 2891,-78.8199 2841.59,-44.8175 2806.99,-26.7898"/>
<polygon fill="#cccccc" stroke="#cccccc" points="2808.19,-23.4746 2797.68,-22.131 2805.05,-29.735 2808.19,-23.4746"/>
</g>
<!-- ForwardIndexType&#45;&gt;String.UTF16View.Index -->
<g id="edge27" class="edge">
<path fill="none" stroke="#cccccc" d="M2330.79,-298.13C2451.86,-293.566 2738.77,-280.262 2832,-254 2896.67,-235.784 2967,-253.182 2967,-186 2967,-186 2967,-186 2967,-126 2967,-92.0444 2955.14,-53.9991 2946.86,-31.5706"/>
<polygon fill="#cccccc" stroke="#cccccc" points="2950.1,-30.2524 2943.25,-22.1678 2943.56,-32.7581 2950.1,-30.2524"/>
</g>
<!-- String.UTF8View.Index -->
<g id="node26" class="node">
<g id="a_node26"><a xlink:href="/v2.0/type/String.UTF8View.Index/" target="_top">
<polygon fill="#999999" stroke="#999999" points="4011.89,-22 3880.11,-22 3880.11,-0 4011.89,-0 4011.89,-22"/>
<text text-anchor="middle" x="3946" y="-7.4" font-family="Helvetica,sans-Serif" font-size="12.00" fill="white">String.UTF8View.Index</text>
</a>
</g>
</g>
<!-- ForwardIndexType&#45;&gt;String.UTF8View.Index -->
<g id="edge28" class="edge">
<path fill="none" stroke="#cccccc" d="M2330.37,-300.273C2560.35,-301.123 3454,-301.254 3731,-254 3829.79,-237.147 3946,-286.221 3946,-186 3946,-186 3946,-186 3946,-126 3946,-93.1536 3946,-54.9837 3946,-32.197"/>
<polygon fill="#cccccc" stroke="#cccccc" points="3949.5,-32.0648 3946,-22.0648 3942.5,-32.0648 3949.5,-32.0648"/>
</g>
<!-- ForwardIndexType&#45;&gt;String.UnicodeScalarView.Index -->
<g id="edge26" class="edge">
<path fill="none" stroke="#cccccc" d="M2330.36,-299.303C2533.45,-295.991 3236,-277.891 3236,-186 3236,-186 3236,-186 3236,-126 3236,-83.1312 3275.97,-47.4729 3303.51,-27.9966"/>
<polygon fill="#cccccc" stroke="#cccccc" points="3305.65,-30.7741 3311.94,-22.2531 3301.71,-24.9879 3305.65,-30.7741"/>
</g>
<!-- ForwardIndexType&#45;&gt;UInt -->
<g id="edge18" class="edge">
<path fill="none" stroke="#cccccc" d="M2221.52,-298.629C2030.83,-293.119 1405,-268.734 1405,-186 1405,-186 1405,-186 1405,-126 1405,-91.2644 1421.07,-53.4893 1432.31,-31.3219"/>
<polygon fill="#cccccc" stroke="#cccccc" points="1435.5,-32.7812 1437.06,-22.3021 1429.31,-29.5201 1435.5,-32.7812"/>
</g>
<!-- ForwardIndexType&#45;&gt;UInt16 -->
<g id="edge19" class="edge">
<path fill="none" stroke="#cccccc" d="M2221.43,-299.035C2091.58,-295.264 1775,-276.764 1775,-186 1775,-186 1775,-186 1775,-126 1775,-91.2644 1758.93,-53.4893 1747.69,-31.3219"/>
<polygon fill="#cccccc" stroke="#cccccc" points="1750.69,-29.5201 1742.94,-22.3021 1744.5,-32.7812 1750.69,-29.5201"/>
</g>
<!-- ForwardIndexType&#45;&gt;UInt32 -->
<g id="edge20" class="edge">
<path fill="none" stroke="#cccccc" d="M2221.38,-299.706C2159.67,-297.565 2057.36,-288.477 1977,-254 1931.58,-234.512 1889,-235.427 1889,-186 1889,-186 1889,-186 1889,-126 1889,-91.2644 1872.93,-53.4893 1861.69,-31.3219"/>
<polygon fill="#cccccc" stroke="#cccccc" points="1864.69,-29.5201 1856.94,-22.3021 1858.5,-32.7812 1864.69,-29.5201"/>
</g>
<!-- ForwardIndexType&#45;&gt;UInt64 -->
<g id="edge21" class="edge">
<path fill="none" stroke="#cccccc" d="M2251.22,-289.965C2215.82,-273.792 2155,-238.384 2155,-186 2155,-186 2155,-186 2155,-126 2155,-68.6531 2084.9,-36.6203 2039.91,-21.9673"/>
<polygon fill="#cccccc" stroke="#cccccc" points="2040.76,-18.5671 2030.17,-18.9374 2038.68,-25.2509 2040.76,-18.5671"/>
</g>
<!-- ForwardIndexType&#45;&gt;UInt8 -->
<g id="edge22" class="edge">
<path fill="none" stroke="#cccccc" d="M2221.6,-299.029C2067.73,-295.929 1631.5,-284.617 1492,-254 1353.99,-223.709 1275.62,-254.725 1196,-138 1163.65,-90.5808 1243.01,-47.4012 1292.65,-26.0493"/>
<polygon fill="#cccccc" stroke="#cccccc" points="1294.27,-29.1661 1302.14,-22.0751 1291.57,-22.7093 1294.27,-29.1661"/>
</g>
<!-- ForwardIndexType&#45;&gt;UnsafeMutablePointer -->
<g id="edge23" class="edge">
<path fill="none" stroke="#cccccc" d="M2330.53,-293.661C2428.69,-280.721 2625,-247.191 2625,-186 2625,-186 2625,-186 2625,-126 2625,-68.1918 2559.04,-38.8385 2505.47,-24.5313"/>
<polygon fill="#cccccc" stroke="#cccccc" points="2506.19,-21.1015 2495.63,-22.0314 2504.46,-27.886 2506.19,-21.1015"/>
</g>
<!-- ForwardIndexType&#45;&gt;UnsafePointer -->
<g id="edge24" class="edge">
<path fill="none" stroke="#cccccc" d="M2330.47,-298.018C2452.86,-292.083 2739,-269.3 2739,-186 2739,-186 2739,-186 2739,-126 2739,-66.661 2667.65,-36.6702 2615.81,-22.7108"/>
<polygon fill="#cccccc" stroke="#cccccc" points="2616.61,-19.3028 2606.05,-20.208 2614.87,-26.0832 2616.61,-19.3028"/>
</g>
<!-- Int&#45;&gt;Bit -->
<g id="edge52" class="edge">
<path fill="none" stroke="#cccccc" d="M489.681,-22.1113C500.024,-28.7391 514.171,-36.5217 528,-40 583.979,-54.0803 2550.63,-56.2971 2606,-40 2614.4,-37.5276 2622.71,-32.9469 2629.86,-28.1447"/>
<polygon fill="#cccccc" stroke="#cccccc" points="2632.18,-30.7891 2638.22,-22.0854 2628.07,-25.122 2632.18,-30.7891"/>
</g>
<!-- IntegerType -->
<g id="node16" class="node">
<g id="a_node16"><a xlink:href="/v2.0/protocol/IntegerType/" target="_top">
<path fill="#999999" stroke="#999999" d="M1271.2,-138C1271.2,-138 1212.8,-138 1212.8,-138 1209.13,-138 1205.47,-134.333 1205.47,-130.667 1205.47,-130.667 1205.47,-123.333 1205.47,-123.333 1205.47,-119.667 1209.13,-116 1212.8,-116 1212.8,-116 1271.2,-116 1271.2,-116 1274.87,-116 1278.53,-119.667 1278.53,-123.333 1278.53,-123.333 1278.53,-130.667 1278.53,-130.667 1278.53,-134.333 1274.87,-138 1271.2,-138"/>
<text text-anchor="middle" x="1242" y="-123.4" font-family="Helvetica,sans-Serif" font-size="12.00" fill="white">IntegerType</text>
</a>
</g>
</g>
<!-- IntegerType&#45;&gt;Int -->
<g id="edge69" class="edge">
<path fill="none" stroke="#cccccc" d="M1205.48,-126.092C1114.85,-125.663 872.752,-120.479 676,-80 614.855,-67.4202 546.575,-41.8897 507.117,-25.9405"/>
<polygon fill="#cccccc" stroke="#cccccc" points="508.31,-22.6469 497.729,-22.1058 505.663,-29.1272 508.31,-22.6469"/>
</g>
<!-- IntegerType&#45;&gt;Int16 -->
<g id="edge70" class="edge">
<path fill="none" stroke="#cccccc" d="M1205.52,-125.339C1124.4,-123.258 923.206,-114.716 759,-80 697.549,-67.0082 628.76,-41.723 588.819,-25.9141"/>
<polygon fill="#cccccc" stroke="#cccccc" points="589.893,-22.5741 579.308,-22.1123 587.294,-29.0741 589.893,-22.5741"/>
</g>
<!-- IntegerType&#45;&gt;Int32 -->
<g id="edge71" class="edge">
<path fill="none" stroke="#cccccc" d="M1205.33,-124.576C1113.48,-120.627 875.603,-107.932 802,-80 771.906,-68.5796 742.616,-45.1872 724.698,-29.0544"/>
<polygon fill="#cccccc" stroke="#cccccc" points="727.023,-26.4378 717.303,-22.222 722.273,-31.5791 727.023,-26.4378"/>
</g>
<!-- IntegerType&#45;&gt;Int64 -->
<g id="edge72" class="edge">
<path fill="none" stroke="#cccccc" d="M1219.37,-115.883C1173.82,-95.5174 1070.95,-49.531 1018.72,-26.1796"/>
<polygon fill="#cccccc" stroke="#cccccc" points="1020.14,-22.9802 1009.58,-22.0941 1017.28,-29.3707 1020.14,-22.9802"/>
</g>
<!-- IntegerType&#45;&gt;Int8 -->
<g id="edge73" class="edge">
<path fill="none" stroke="#cccccc" d="M1229.49,-115.883C1205.2,-96.243 1151.43,-52.7755 1121.73,-28.7597"/>
<polygon fill="#cccccc" stroke="#cccccc" points="1123.66,-25.8235 1113.69,-22.2579 1119.26,-31.2669 1123.66,-25.8235"/>
</g>
<!-- SignedIntegerType -->
<g id="node23" class="node">
<g id="a_node23"><a xlink:href="/v2.0/protocol/SignedIntegerType/" target="_top">
<path fill="#999999" stroke="#999999" d="M913.727,-80C913.727,-80 818.273,-80 818.273,-80 814.606,-80 810.94,-76.3333 810.94,-72.6667 810.94,-72.6667 810.94,-65.3333 810.94,-65.3333 810.94,-61.6667 814.606,-58 818.273,-58 818.273,-58 913.727,-58 913.727,-58 917.394,-58 921.06,-61.6667 921.06,-65.3333 921.06,-65.3333 921.06,-72.6667 921.06,-72.6667 921.06,-76.3333 917.394,-80 913.727,-80"/>
<text text-anchor="middle" x="866" y="-65.4" font-family="Helvetica,sans-Serif" font-size="12.00" fill="white">SignedIntegerType</text>
</a>
</g>
</g>
<!-- IntegerType&#45;&gt;SignedIntegerType -->
<g id="edge74" class="edge">
<path fill="none" stroke="#cccccc" d="M1205.61,-120.58C1142.16,-111.13 1010.49,-91.5192 931.028,-79.6851"/>
<polygon fill="#cccccc" stroke="#cccccc" points="931.536,-76.2221 921.129,-78.2107 930.504,-83.1457 931.536,-76.2221"/>
</g>
<!-- IntegerType&#45;&gt;UInt -->
<g id="edge75" class="edge">
<path fill="none" stroke="#cccccc" d="M1259.84,-115.883C1295.3,-95.7709 1374.82,-50.6719 1416.44,-27.0621"/>
<polygon fill="#cccccc" stroke="#cccccc" points="1418.23,-30.072 1425.2,-22.0941 1414.78,-23.9831 1418.23,-30.072"/>
</g>
<!-- IntegerType&#45;&gt;UInt16 -->
<g id="edge76" class="edge">
<path fill="none" stroke="#cccccc" d="M1278.4,-117.617C1369.77,-96.5749 1608.05,-41.6973 1700.03,-20.5144"/>
<polygon fill="#cccccc" stroke="#cccccc" points="1701.04,-23.8744 1710,-18.2193 1699.46,-17.0529 1701.04,-23.8744"/>
</g>
<!-- IntegerType&#45;&gt;UInt32 -->
<g id="edge77" class="edge">
<path fill="none" stroke="#cccccc" d="M1278.58,-124.24C1375.21,-119.308 1635.52,-104.117 1718,-80 1758.57,-68.1372 1801.39,-43.8168 1827.15,-27.7097"/>
<polygon fill="#cccccc" stroke="#cccccc" points="1829.28,-30.5061 1835.84,-22.1854 1825.52,-24.6 1829.28,-30.5061"/>
</g>
<!-- IntegerType&#45;&gt;UInt64 -->
<g id="edge78" class="edge">
<path fill="none" stroke="#cccccc" d="M1278.35,-125.05C1363.18,-122.336 1580.59,-112.514 1759,-80 1833.92,-66.3456 1919.14,-40.0459 1966.44,-24.4585"/>
<polygon fill="#cccccc" stroke="#cccccc" points="1967.55,-27.777 1975.94,-21.3033 1965.34,-21.1339 1967.55,-27.777"/>
</g>
<!-- IntegerType&#45;&gt;UInt8 -->
<g id="edge79" class="edge">
<path fill="none" stroke="#cccccc" d="M1249.72,-115.883C1264.39,-96.6645 1296.47,-54.6301 1315.01,-30.3322"/>
<polygon fill="#cccccc" stroke="#cccccc" points="1317.89,-32.3308 1321.17,-22.2579 1312.32,-28.0841 1317.89,-32.3308"/>
</g>
<!-- UnsignedIntegerType -->
<g id="node35" class="node">
<g id="a_node35"><a xlink:href="/v2.0/protocol/UnsignedIntegerType/" target="_top">
<path fill="#999999" stroke="#999999" d="M1701.73,-80C1701.73,-80 1592.27,-80 1592.27,-80 1588.61,-80 1584.94,-76.3333 1584.94,-72.6667 1584.94,-72.6667 1584.94,-65.3333 1584.94,-65.3333 1584.94,-61.6667 1588.61,-58 1592.27,-58 1592.27,-58 1701.73,-58 1701.73,-58 1705.39,-58 1709.06,-61.6667 1709.06,-65.3333 1709.06,-65.3333 1709.06,-72.6667 1709.06,-72.6667 1709.06,-76.3333 1705.39,-80 1701.73,-80"/>
<text text-anchor="middle" x="1647" y="-65.4" font-family="Helvetica,sans-Serif" font-size="12.00" fill="white">UnsignedIntegerType</text>
</a>
</g>
</g>
<!-- IntegerType&#45;&gt;UnsignedIntegerType -->
<g id="edge80" class="edge">
<path fill="none" stroke="#cccccc" d="M1278.66,-120.932C1345.43,-111.699 1487.99,-91.9862 1574.87,-79.9737"/>
<polygon fill="#cccccc" stroke="#cccccc" points="1575.49,-83.4209 1584.92,-78.5842 1574.53,-76.4869 1575.49,-83.4209"/>
</g>
<!-- RandomAccessIndexType&#45;&gt;AnyRandomAccessIndex -->
<g id="edge53" class="edge">
<path fill="none" stroke="#cccccc" d="M1433.59,-182.305C1262.41,-177.988 844.811,-164.962 707,-138 578.04,-112.769 432.49,-53.3563 369.656,-26.1061"/>
<polygon fill="#cccccc" stroke="#cccccc" points="370.862,-22.8136 360.297,-22.0189 368.061,-29.2286 370.862,-22.8136"/>
</g>
<!-- RandomAccessIndexType&#45;&gt;Bit -->
<g id="edge54" class="edge">
<path fill="none" stroke="#cccccc" d="M1582.58,-181.791C1745.91,-176.57 2130.86,-162.065 2259,-138 2342.02,-122.408 2359.58,-105.845 2440,-80 2501.06,-60.3779 2572.03,-37.4882 2614.14,-23.8994"/>
<polygon fill="#cccccc" stroke="#cccccc" points="2615.25,-27.2193 2623.69,-20.8169 2613.1,-20.5576 2615.25,-27.2193"/>
</g>
<!-- RandomAccessIndexType&#45;&gt;Int -->
<g id="edge55" class="edge">
<path fill="none" stroke="#cccccc" d="M1433.49,-182.266C1274.69,-178.081 907.553,-165.657 786,-138 676.34,-113.049 555.166,-54.3677 501.812,-26.7987"/>
<polygon fill="#cccccc" stroke="#cccccc" points="503.143,-23.5455 492.657,-22.0282 499.908,-29.7532 503.143,-23.5455"/>
</g>
<!-- RandomAccessIndexType&#45;&gt;Int16 -->
<g id="edge56" class="edge">
<path fill="none" stroke="#cccccc" d="M1433.42,-181.604C1287.91,-176.446 971.141,-162.711 865,-138 756.336,-112.702 636.248,-54.4506 583.029,-26.9251"/>
<polygon fill="#cccccc" stroke="#cccccc" points="584.373,-23.6787 573.888,-22.1579 581.136,-29.8854 584.373,-23.6787"/>
</g>
<!-- RandomAccessIndexType&#45;&gt;Int32 -->
<g id="edge57" class="edge">
<path fill="none" stroke="#cccccc" d="M1433.63,-180.902C1267.56,-172.846 872.279,-147.001 759,-80 739.614,-68.5341 724.958,-46.8134 716.225,-30.9973"/>
<polygon fill="#cccccc" stroke="#cccccc" points="719.29,-29.306 711.563,-22.0571 713.083,-32.5423 719.29,-29.306"/>
</g>
<!-- RandomAccessIndexType&#45;&gt;Int64 -->
<g id="edge58" class="edge">
<path fill="none" stroke="#cccccc" d="M1433.53,-180.267C1369.25,-175.35 1274.62,-164.019 1196,-138 1144.28,-120.881 1134.66,-108.138 1088,-80 1060.25,-63.263 1029.51,-42.1843 1009.32,-27.9671"/>
<polygon fill="#cccccc" stroke="#cccccc" points="1011.28,-25.0637 1001.09,-22.1424 1007.23,-30.777 1011.28,-25.0637"/>
</g>
<!-- RandomAccessIndexType&#45;&gt;Int8 -->
<g id="edge59" class="edge">
<path fill="none" stroke="#cccccc" d="M1484.06,-173.883C1414.86,-144.637 1214.42,-59.9312 1134.49,-26.151"/>
<polygon fill="#cccccc" stroke="#cccccc" points="1135.48,-22.7733 1124.91,-22.1045 1132.76,-29.2212 1135.48,-22.7733"/>
</g>
<!-- RandomAccessIndexType&#45;&gt;IntegerType -->
<g id="edge60" class="edge">
<path fill="none" stroke="#cccccc" d="M1460.44,-173.988C1411.75,-163.738 1336.57,-147.91 1288.33,-137.754"/>
<polygon fill="#cccccc" stroke="#cccccc" points="1288.97,-134.312 1278.47,-135.677 1287.53,-141.162 1288.97,-134.312"/>
</g>
<!-- RandomAccessIndexType&#45;&gt;ReverseRandomAccessIndex -->
<g id="edge61" class="edge">
<path fill="none" stroke="#cccccc" d="M1582.66,-179.744C1771.19,-168.238 2254.86,-133.716 2302,-80 2314.78,-65.4341 2302.24,-44.5546 2289.69,-29.7828"/>
<polygon fill="#cccccc" stroke="#cccccc" points="2292.19,-27.3316 2282.88,-22.2835 2287.01,-32.0387 2292.19,-27.3316"/>
</g>
<!-- RandomAccessIndexType&#45;&gt;UInt -->
<g id="edge62" class="edge">
<path fill="none" stroke="#cccccc" d="M1504.13,-173.756C1493.63,-145.978 1464.48,-68.848 1450.57,-32.0425"/>
<polygon fill="#cccccc" stroke="#cccccc" points="1453.74,-30.5251 1446.93,-22.4081 1447.19,-32.9997 1453.74,-30.5251"/>
</g>
<!-- RandomAccessIndexType&#45;&gt;UInt16 -->
<g id="edge63" class="edge">
<path fill="none" stroke="#cccccc" d="M1551.21,-173.883C1598.96,-160.471 1674.79,-132.17 1718,-80 1729.09,-66.6095 1733.72,-47.1816 1735.65,-32.5176"/>
<polygon fill="#cccccc" stroke="#cccccc" points="1739.15,-32.7096 1736.66,-22.4115 1732.18,-32.0146 1739.15,-32.7096"/>
</g>
<!-- RandomAccessIndexType&#45;&gt;UInt32 -->
<g id="edge64" class="edge">
<path fill="none" stroke="#cccccc" d="M1561.89,-173.975C1595.42,-166.578 1638.89,-154.848 1675,-138 1716.11,-118.818 1722.09,-106.376 1759,-80 1783.41,-62.5557 1811.05,-42.0188 1829.61,-28.1145"/>
<polygon fill="#cccccc" stroke="#cccccc" points="1831.8,-30.8489 1837.69,-22.0461 1827.59,-25.2508 1831.8,-30.8489"/>
</g>
<!-- RandomAccessIndexType&#45;&gt;UInt64 -->
<g id="edge65" class="edge">
<path fill="none" stroke="#cccccc" d="M1563.47,-173.995C1604.02,-166.02 1660.06,-153.613 1708,-138 1808.2,-105.365 1921.45,-52.1349 1973.71,-26.5856"/>
<polygon fill="#cccccc" stroke="#cccccc" points="1975.31,-29.6992 1982.74,-22.1483 1972.22,-23.4164 1975.31,-29.6992"/>
</g>
<!-- RandomAccessIndexType&#45;&gt;UInt8 -->
<g id="edge66" class="edge">
<path fill="none" stroke="#cccccc" d="M1497.34,-173.756C1467.81,-145.382 1384.69,-65.5149 1347.45,-29.7296"/>
<polygon fill="#cccccc" stroke="#cccccc" points="1349.47,-26.813 1339.83,-22.4081 1344.62,-31.8605 1349.47,-26.813"/>
</g>
<!-- RandomAccessIndexType&#45;&gt;UnsafeMutablePointer -->
<g id="edge67" class="edge">
<path fill="none" stroke="#cccccc" d="M1582.6,-184.5C1702.08,-183.985 1943.22,-177.527 2143,-138 2223.79,-122.015 2243.76,-113.489 2319,-80 2353.35,-64.7108 2390.64,-42.3868 2414.15,-27.5385"/>
<polygon fill="#cccccc" stroke="#cccccc" points="2416.19,-30.3842 2422.74,-22.0545 2412.43,-24.4832 2416.19,-30.3842"/>
</g>
<!-- RandomAccessIndexType&#45;&gt;UnsafePointer -->
<g id="edge68" class="edge">
<path fill="none" stroke="#cccccc" d="M1582.62,-181.578C1736.53,-176.168 2084.54,-161.682 2201,-138 2327.27,-112.322 2469.64,-53.3987 2531.5,-26.2159"/>
<polygon fill="#cccccc" stroke="#cccccc" points="2533,-29.3823 2540.73,-22.1358 2530.16,-22.9808 2533,-29.3823"/>
</g>
<!-- ReverseIndexType&#45;&gt;ReverseIndex -->
<g id="edge91" class="edge">
<path fill="none" stroke="#cccccc" d="M2218.33,-57.9883C2201.23,-49.2827 2176.23,-36.5539 2156.86,-26.6937"/>
<polygon fill="#cccccc" stroke="#cccccc" points="2158.37,-23.5316 2147.87,-22.1138 2155.19,-29.7698 2158.37,-23.5316"/>
</g>
<!-- ReverseIndexType&#45;&gt;ReverseRandomAccessIndex -->
<g id="edge92" class="edge">
<path fill="none" stroke="#cccccc" d="M2244.08,-57.9883C2248.61,-50.5165 2254.95,-40.0812 2260.44,-31.0393"/>
<polygon fill="#cccccc" stroke="#cccccc" points="2263.55,-32.6682 2265.74,-22.3039 2257.56,-29.0353 2263.55,-32.6682"/>
</g>
<!-- SignedIntegerType&#45;&gt;Int -->
<g id="edge81" class="edge">
<path fill="none" stroke="#cccccc" d="M810.782,-62.1789C742.128,-54.5971 621.475,-40.1431 519,-22 516.358,-21.5322 513.635,-21.0153 510.9,-20.4703"/>
<polygon fill="#cccccc" stroke="#cccccc" points="511.556,-17.032 501.051,-18.4108 510.123,-23.8837 511.556,-17.032"/>
</g>
<!-- SignedIntegerType&#45;&gt;Int16 -->
<g id="edge82" class="edge">
<path fill="none" stroke="#cccccc" d="M810.758,-58.0529C747.789,-46.7145 646.585,-28.4911 592.286,-18.7139"/>
<polygon fill="#cccccc" stroke="#cccccc" points="592.857,-15.2604 582.395,-16.9328 591.616,-22.1496 592.857,-15.2604"/>
</g>
<!-- SignedIntegerType&#45;&gt;Int32 -->
<g id="edge83" class="edge">
<path fill="none" stroke="#cccccc" d="M837.574,-57.9883C811.366,-48.7577 772.315,-35.0041 743.748,-24.9426"/>
<polygon fill="#cccccc" stroke="#cccccc" points="744.713,-21.572 734.119,-21.5512 742.388,-28.1745 744.713,-21.572"/>
</g>
<!-- SignedIntegerType&#45;&gt;Int64 -->
<g id="edge84" class="edge">
<path fill="none" stroke="#cccccc" d="M887.632,-57.9883C906.614,-49.2036 934.447,-36.3222 955.831,-26.4255"/>
<polygon fill="#cccccc" stroke="#cccccc" points="957.542,-29.4903 965.147,-22.1138 954.602,-23.1376 957.542,-29.4903"/>
</g>
<!-- SignedIntegerType&#45;&gt;Int8 -->
<g id="edge85" class="edge">
<path fill="none" stroke="#cccccc" d="M908.013,-57.9883C952.408,-47.4091 1021.74,-30.8887 1064.09,-20.7947"/>
<polygon fill="#cccccc" stroke="#cccccc" points="1065.08,-24.1587 1073.99,-18.4359 1063.45,-17.3493 1065.08,-24.1587"/>
</g>
<!-- UnsignedIntegerType&#45;&gt;UInt -->
<g id="edge86" class="edge">
<path fill="none" stroke="#cccccc" d="M1610.53,-57.9883C1573.65,-47.866 1516.97,-32.3046 1479.93,-22.1375"/>
<polygon fill="#cccccc" stroke="#cccccc" points="1480.61,-18.694 1470.04,-19.4219 1478.75,-25.4443 1480.61,-18.694"/>
</g>
<!-- UnsignedIntegerType&#45;&gt;UInt16 -->
<g id="edge87" class="edge">
<path fill="none" stroke="#cccccc" d="M1663.09,-57.9883C1676.7,-49.5201 1696.43,-37.2452 1712.08,-27.5067"/>
<polygon fill="#cccccc" stroke="#cccccc" points="1714.1,-30.3686 1720.75,-22.1138 1710.41,-24.4252 1714.1,-30.3686"/>
</g>
<!-- UnsignedIntegerType&#45;&gt;UInt32 -->
<g id="edge88" class="edge">
<path fill="none" stroke="#cccccc" d="M1683.47,-57.9883C1720.35,-47.866 1777.03,-32.3046 1814.07,-22.1375"/>
<polygon fill="#cccccc" stroke="#cccccc" points="1815.25,-25.4443 1823.96,-19.4219 1813.39,-18.694 1815.25,-25.4443"/>
</g>
<!-- UnsignedIntegerType&#45;&gt;UInt64 -->
<g id="edge89" class="edge">
<path fill="none" stroke="#cccccc" d="M1709.42,-58.1815C1783.69,-46.4982 1905.26,-27.3746 1966.01,-17.8181"/>
<polygon fill="#cccccc" stroke="#cccccc" points="1966.59,-21.2703 1975.93,-16.2588 1965.5,-14.3554 1966.59,-21.2703"/>
</g>
<!-- UnsignedIntegerType&#45;&gt;UInt8 -->
<g id="edge90" class="edge">
<path fill="none" stroke="#cccccc" d="M1590.15,-57.9883C1525.36,-46.58 1421.35,-28.2626 1366.17,-18.5457"/>
<polygon fill="#cccccc" stroke="#cccccc" points="1366.59,-15.0657 1356.13,-16.7783 1365.38,-21.9597 1366.59,-15.0657"/>
</g>
<!-- _Incrementable&#45;&gt;ForwardIndexType -->
<g id="edge93" class="edge">
<path fill="none" stroke="#cccccc" d="M2276,-347.988C2276,-340.91 2276,-331.171 2276,-322.478"/>
<polygon fill="#cccccc" stroke="#cccccc" points="2279.5,-322.304 2276,-312.304 2272.5,-322.304 2279.5,-322.304"/>
</g>
</g>
</svg>
