<?xml version="1.0" encoding="UTF-8" standalone="no"?>
<!DOCTYPE svg PUBLIC "-//W3C//DTD SVG 1.1//EN"
 "http://www.w3.org/Graphics/SVG/1.1/DTD/svg11.dtd">
<!-- Generated by graphviz version 2.36.0 (20140111.2315)
 -->
<!-- Title: Bit &#45; Type Hierarchy &#45; SwiftDoc.org Pages: 1 -->
<svg width="1707pt" height="543pt"
 viewBox="0.00 0.00 1707.40 543.20" xmlns="http://www.w3.org/2000/svg" xmlns:xlink="http://www.w3.org/1999/xlink">
<g id="graph0" class="graph" transform="scale(1 1) rotate(0) translate(7.2 485.6)">
<g transform="translate(0 -485.6)">
<g>
    <path fill="#666666" d="M13.846,10.832c-0.336-0.464-0.792-0.844-1.368-1.14s-1.224-0.444-1.944-0.444
        c-0.384,0-0.772,0.052-1.164,0.156C8.977,9.509,8.622,9.677,8.301,9.908c-0.32,0.232-0.58,0.52-0.78,0.864
        c-0.2,0.344-0.3,0.756-0.3,1.236c0,0.464,0.092,0.852,0.276,1.164c0.184,0.312,0.432,0.576,0.744,0.792s0.68,0.4,1.104,0.552
        c0.423,0.152,0.876,0.309,1.356,0.468c0.576,0.177,1.16,0.376,1.752,0.601c0.592,0.224,1.128,0.52,1.608,0.888
        s0.872,0.828,1.176,1.38s0.456,1.252,0.456,2.101c0,0.88-0.164,1.644-0.492,2.292c-0.328,0.647-0.765,1.184-1.308,1.607
        c-0.544,0.424-1.172,0.74-1.884,0.948s-1.444,0.312-2.196,0.312c-1.072,0-2.108-0.208-3.108-0.624
        c-1-0.415-1.828-1.031-2.484-1.848l1.848-1.56c0.4,0.592,0.936,1.071,1.608,1.439c0.672,0.368,1.399,0.552,2.184,0.552
        c0.4,0,0.8-0.056,1.2-0.168c0.4-0.111,0.764-0.288,1.092-0.527c0.328-0.24,0.596-0.54,0.804-0.9
        c0.208-0.36,0.312-0.796,0.312-1.308s-0.108-0.94-0.324-1.284c-0.216-0.344-0.508-0.636-0.876-0.876s-0.796-0.444-1.284-0.612
        c-0.488-0.168-1.004-0.34-1.548-0.516c-0.544-0.16-1.08-0.356-1.608-0.588c-0.528-0.232-1-0.528-1.416-0.889
        c-0.416-0.359-0.752-0.804-1.008-1.332c-0.256-0.527-0.384-1.184-0.384-1.968c0-0.848,0.172-1.576,0.516-2.184
        c0.344-0.608,0.792-1.112,1.344-1.512c0.552-0.4,1.176-0.692,1.872-0.876c0.696-0.184,1.396-0.276,2.1-0.276
        c0.992,0,1.92,0.176,2.784,0.528c0.864,0.352,1.56,0.824,2.088,1.416L13.846,10.832z"/>
    <path fill="#666666" d="M18.813,13.304l2.568,8.688h0.048l2.712-8.688h2.376l2.76,8.688h0.048l2.568-8.688h2.376L30.501,24.68
        h-2.352l-2.808-8.544h-0.048l-2.784,8.544h-2.352l-3.792-11.376H18.813z"/>
    <path fill="#666666" d="M38.685,9.2c0,0.416-0.147,0.76-0.44,1.032c-0.294,0.272-0.647,0.408-1.06,0.408s-0.762-0.14-1.047-0.42
        c-0.286-0.28-0.429-0.62-0.429-1.02c0-0.416,0.143-0.764,0.429-1.044c0.286-0.28,0.635-0.42,1.047-0.42s0.766,0.14,1.06,0.42
        C38.538,8.437,38.685,8.784,38.685,9.2z M38.325,24.68h-2.256V13.304h2.256V24.68z"/>
    <path fill="#666666" d="M47.613,15.152h-2.64v9.528h-2.256v-9.528h-2.256v-1.848h2.256v-2.376c0-0.672,0.076-1.292,0.228-1.86
        c0.152-0.568,0.4-1.06,0.744-1.476c0.344-0.416,0.784-0.744,1.32-0.984c0.536-0.24,1.188-0.36,1.956-0.36
        c0.544,0,1.016,0.056,1.416,0.168l-0.264,1.944c-0.176-0.048-0.352-0.088-0.528-0.12c-0.176-0.032-0.376-0.048-0.6-0.048
        c-0.432,0-0.78,0.076-1.044,0.228c-0.264,0.152-0.468,0.356-0.612,0.612s-0.24,0.548-0.288,0.876
        c-0.048,0.328-0.072,0.668-0.072,1.02v2.376h2.64V15.152z"/>
    <path fill="#666666" d="M54.909,15.152h-3.024v5.91c0,0.687,0.128,1.177,0.384,1.472c0.256,0.295,0.664,0.442,1.224,0.442
        c0.208,0,0.432-0.021,0.672-0.065c0.24-0.044,0.456-0.11,0.648-0.198l0.072,1.848c-0.272,0.096-0.572,0.172-0.9,0.229
        c-0.328,0.056-0.668,0.084-1.02,0.084c-1.072,0-1.892-0.296-2.46-0.889c-0.568-0.592-0.852-1.479-0.852-2.664v-6.168h-2.184
        v-1.848h2.184V10.04h2.232v3.264h3.024V15.152z"/>
    <path fill="#666666" d="M57.356,7.688h5.832c1.088,0,2.176,0.16,3.264,0.48c1.088,0.32,2.072,0.824,2.952,1.512
        s1.592,1.568,2.136,2.64c0.544,1.072,0.816,2.36,0.816,3.864c0,1.456-0.272,2.716-0.816,3.78s-1.256,1.943-2.136,2.64
        s-1.864,1.216-2.952,1.561c-1.088,0.344-2.176,0.516-3.264,0.516h-5.832V7.688z M59.732,22.593h2.976
        c1.024,0,1.972-0.145,2.844-0.432c0.872-0.288,1.624-0.704,2.256-1.248c0.632-0.544,1.124-1.216,1.476-2.017
        c0.352-0.8,0.528-1.704,0.528-2.712c0-1.056-0.176-1.983-0.528-2.784c-0.353-0.8-0.844-1.468-1.476-2.004
        c-0.632-0.536-1.384-0.944-2.256-1.224s-1.82-0.42-2.844-0.42h-2.976V22.593z"/>
    <path fill="#666666" d="M86.06,18.969c0,0.88-0.156,1.688-0.468,2.424c-0.312,0.736-0.744,1.372-1.296,1.908
        c-0.552,0.536-1.204,0.952-1.956,1.248c-0.752,0.296-1.56,0.443-2.424,0.443c-0.864,0-1.672-0.147-2.424-0.443
        c-0.752-0.296-1.4-0.712-1.944-1.248c-0.544-0.536-0.972-1.172-1.284-1.908c-0.312-0.735-0.468-1.544-0.468-2.424
        s0.156-1.684,0.468-2.412c0.312-0.728,0.74-1.356,1.284-1.884c0.543-0.528,1.191-0.939,1.944-1.236
        c0.752-0.296,1.56-0.444,2.424-0.444c0.864,0,1.672,0.148,2.424,0.444c0.752,0.297,1.404,0.708,1.956,1.236
        c0.552,0.527,0.984,1.156,1.296,1.884C85.904,17.285,86.06,18.089,86.06,18.969z M83.708,18.98c0-0.542-0.084-1.061-0.252-1.556
        c-0.169-0.494-0.414-0.929-0.734-1.304s-0.718-0.674-1.192-0.897s-1.015-0.335-1.625-0.335c-0.61,0-1.152,0.111-1.625,0.335
        c-0.474,0.224-0.871,0.522-1.191,0.897c-0.321,0.375-0.566,0.81-0.734,1.304C76.184,17.92,76.1,18.438,76.1,18.98
        c0,0.543,0.084,1.062,0.253,1.556c0.168,0.495,0.413,0.934,0.734,1.316c0.321,0.383,0.718,0.686,1.191,0.909
        c0.473,0.224,1.015,0.335,1.625,0.335c0.61,0,1.151-0.111,1.625-0.335s0.871-0.526,1.192-0.909s0.565-0.821,0.734-1.316
        C83.624,20.042,83.708,19.523,83.708,18.98z"/>
    <path fill="#666666" d="M96.428,16.184c-0.24-0.368-0.6-0.676-1.08-0.924s-0.992-0.372-1.536-0.372
        c-0.592,0-1.116,0.112-1.572,0.336c-0.456,0.225-0.844,0.524-1.164,0.9c-0.32,0.376-0.564,0.812-0.732,1.308
        s-0.252,1.017-0.252,1.56c0,0.545,0.084,1.064,0.252,1.561s0.412,0.933,0.732,1.308c0.32,0.376,0.712,0.677,1.176,0.9
        c0.464,0.225,0.992,0.336,1.584,0.336c0.576,0,1.1-0.111,1.572-0.336c0.472-0.224,0.86-0.528,1.164-0.912l1.512,1.368
        c-0.48,0.561-1.08,0.996-1.8,1.308c-0.72,0.312-1.536,0.468-2.448,0.468c-0.88,0-1.692-0.144-2.436-0.432
        c-0.744-0.288-1.388-0.691-1.932-1.212c-0.544-0.52-0.972-1.147-1.284-1.884s-0.468-1.561-0.468-2.473
        c0-0.896,0.152-1.711,0.456-2.447c0.304-0.736,0.728-1.368,1.272-1.896c0.543-0.527,1.188-0.936,1.932-1.224
        c0.744-0.288,1.548-0.433,2.412-0.433c0.8,0,1.596,0.16,2.388,0.48s1.419,0.784,1.884,1.392L96.428,16.184z"/>
    <path fill="#666666" d="M103.1,23.24c0,0.417-0.152,0.784-0.456,1.104c-0.304,0.32-0.688,0.479-1.152,0.479
        c-0.448,0-0.828-0.155-1.14-0.468c-0.312-0.312-0.468-0.676-0.468-1.092c0-0.432,0.152-0.804,0.456-1.116
        c0.304-0.312,0.688-0.468,1.152-0.468c0.464,0,0.848,0.152,1.152,0.456C102.947,22.44,103.1,22.808,103.1,23.24z"/>
    <path fill="#666666" d="M116.635,18.969c0,0.88-0.156,1.688-0.468,2.424c-0.312,0.736-0.744,1.372-1.296,1.908
        c-0.552,0.536-1.204,0.952-1.956,1.248c-0.752,0.296-1.56,0.443-2.424,0.443c-0.864,0-1.672-0.147-2.424-0.443
        c-0.752-0.296-1.4-0.712-1.944-1.248c-0.544-0.536-0.972-1.172-1.284-1.908c-0.312-0.735-0.468-1.544-0.468-2.424
        s0.156-1.684,0.468-2.412c0.312-0.728,0.74-1.356,1.284-1.884c0.543-0.528,1.191-0.939,1.944-1.236
        c0.752-0.296,1.56-0.444,2.424-0.444c0.864,0,1.672,0.148,2.424,0.444c0.752,0.297,1.404,0.708,1.956,1.236
        c0.552,0.527,0.984,1.156,1.296,1.884C116.479,17.285,116.635,18.089,116.635,18.969z M114.283,18.98
        c0-0.542-0.084-1.061-0.252-1.556c-0.169-0.494-0.414-0.929-0.734-1.304s-0.718-0.674-1.192-0.897s-1.015-0.335-1.625-0.335
        c-0.61,0-1.152,0.111-1.625,0.335c-0.474,0.224-0.871,0.522-1.191,0.897c-0.321,0.375-0.566,0.81-0.734,1.304
        c-0.169,0.495-0.253,1.014-0.253,1.556c0,0.543,0.084,1.062,0.253,1.556c0.168,0.495,0.413,0.934,0.734,1.316
        c0.321,0.383,0.718,0.686,1.191,0.909c0.473,0.224,1.015,0.335,1.625,0.335c0.61,0,1.151-0.111,1.625-0.335
        s0.871-0.526,1.192-0.909s0.565-0.821,0.734-1.316C114.199,20.042,114.283,19.523,114.283,18.98z"/>
    <path fill="#666666" d="M119.251,14.577c-0.016-0.48-0.04-0.904-0.072-1.272h2.136c0.032,0.288,0.056,0.62,0.072,0.996
        c0.016,0.376,0.024,0.684,0.024,0.924h0.072c0.32-0.672,0.788-1.212,1.404-1.62c0.616-0.408,1.308-0.612,2.076-0.612
        c0.352,0,0.648,0.033,0.888,0.097l-0.096,2.088c-0.32-0.08-0.664-0.12-1.032-0.12c-0.544,0-1.016,0.101-1.416,0.3
        c-0.4,0.2-0.732,0.468-0.996,0.805c-0.264,0.336-0.46,0.724-0.588,1.163c-0.128,0.44-0.192,0.9-0.192,1.381v5.976h-2.256v-8.928
        C119.275,15.449,119.267,15.056,119.251,14.577z"/>
    <path fill="#666666" d="M128.419,26.625c0.496,0.56,1.116,1.008,1.86,1.344c0.744,0.336,1.508,0.504,2.292,0.504
        c0.752,0,1.384-0.108,1.896-0.324s0.924-0.512,1.236-0.888s0.536-0.82,0.672-1.332c0.136-0.513,0.204-1.064,0.204-1.656v-1.464
        h-0.048c-0.416,0.641-0.984,1.128-1.704,1.464c-0.72,0.336-1.488,0.504-2.304,0.504c-0.864,0-1.652-0.151-2.364-0.456
        c-0.712-0.304-1.316-0.72-1.812-1.248c-0.496-0.527-0.88-1.147-1.152-1.859s-0.408-1.477-0.408-2.292
        c0-0.816,0.136-1.584,0.408-2.305c0.272-0.72,0.656-1.348,1.152-1.884c0.496-0.535,1.096-0.96,1.8-1.271
        c0.704-0.312,1.488-0.469,2.352-0.469c0.816,0,1.596,0.177,2.34,0.528c0.744,0.353,1.332,0.888,1.764,1.608h0.048v-1.824h2.184
        v10.8c0,0.832-0.104,1.628-0.312,2.388c-0.208,0.76-0.56,1.433-1.056,2.017s-1.144,1.052-1.944,1.404
        c-0.8,0.352-1.792,0.527-2.976,0.527c-0.992,0-1.988-0.18-2.988-0.54c-1-0.359-1.86-0.868-2.58-1.523L128.419,26.625z
         M129.091,18.873c0,0.527,0.084,1.031,0.253,1.512c0.168,0.479,0.417,0.904,0.746,1.271c0.329,0.369,0.726,0.664,1.192,0.889
        c0.465,0.224,0.995,0.336,1.589,0.336c0.577,0,1.107-0.104,1.589-0.312c0.481-0.207,0.891-0.491,1.228-0.852
        s0.598-0.784,0.782-1.272c0.185-0.487,0.277-1.012,0.277-1.571c0-0.544-0.093-1.057-0.277-1.536
        c-0.185-0.48-0.449-0.904-0.794-1.272c-0.345-0.367-0.755-0.66-1.228-0.876c-0.474-0.216-1-0.324-1.577-0.324
        c-0.594,0-1.124,0.108-1.589,0.324c-0.466,0.216-0.863,0.504-1.192,0.864s-0.578,0.784-0.746,1.271
        C129.175,17.812,129.091,18.329,129.091,18.873z"/>
</g>
<g><a xlink:href="/" pointer-events="all" target="_top"><polygon fill="none" points="0,0 145,0 145,35 0,35 0,0"/></a></g>

</g>


<!-- BidirectionalIndexType -->
<g id="node1" class="node">
<g id="a_node1"><a xlink:href="/swift-2/protocol/BidirectionalIndexType/" target="_top">
<path fill="#999999" stroke="#999999" d="M1151.73,-254C1151.73,-254 1036.27,-254 1036.27,-254 1032.61,-254 1028.94,-250.333 1028.94,-246.667 1028.94,-246.667 1028.94,-239.333 1028.94,-239.333 1028.94,-235.667 1032.61,-232 1036.27,-232 1036.27,-232 1151.73,-232 1151.73,-232 1155.39,-232 1159.06,-235.667 1159.06,-239.333 1159.06,-239.333 1159.06,-246.667 1159.06,-246.667 1159.06,-250.333 1155.39,-254 1151.73,-254"/>
<text text-anchor="middle" x="1094" y="-239.4" font-family="Helvetica,sans-Serif" font-size="12.00" fill="white">BidirectionalIndexType</text>
</a>
</g>
</g>
<!-- Bit -->
<g id="node2" class="node">
<g id="a_node2"><a xlink:href="/swift-2/type/Bit/" target="_top">
<polygon fill="#ee543d" stroke="#ee543d" points="1530,-22 1476,-22 1476,-0 1530,-0 1530,-22"/>
<text text-anchor="middle" x="1503" y="-7.4" font-family="Helvetica,sans-Serif" font-size="12.00" fill="white">Bit</text>
</a>
</g>
</g>
<!-- BidirectionalIndexType&#45;&gt;Bit -->
<g id="edge5" class="edge">
<path fill="none" stroke="#cccccc" d="M1141.87,-231.933C1174.11,-224.249 1217.13,-212.216 1253,-196 1340.41,-156.491 1360.2,-140.047 1435,-80 1454.15,-64.6232 1473.75,-44.4611 1486.96,-30.0928"/>
<polygon fill="#cccccc" stroke="#cccccc" points="1489.82,-32.1436 1493.94,-22.3824 1484.63,-27.4441 1489.82,-32.1436"/>
</g>
<!-- Int -->
<g id="node10" class="node">
<g id="a_node10"><a xlink:href="/swift-2/type/Int/" target="_top">
<polygon fill="#999999" stroke="#999999" points="732,-22 678,-22 678,-0 732,-0 732,-22"/>
<text text-anchor="middle" x="705" y="-7.4" font-family="Helvetica,sans-Serif" font-size="12.00" fill="white">Int</text>
</a>
</g>
</g>
<!-- BidirectionalIndexType&#45;&gt;Int -->
<g id="edge24" class="edge">
<path fill="none" stroke="#cccccc" d="M1092.14,-231.832C1085.33,-194.98 1061.38,-69.9615 1048,-58 1003.47,-18.1884 821.217,-12.4696 742.024,-11.9011"/>
<polygon fill="#cccccc" stroke="#cccccc" points="742.019,-8.40112 732.002,-11.853 741.986,-15.401 742.019,-8.40112"/>
</g>
<!-- RandomAccessIndexType -->
<g id="node15" class="node">
<g id="a_node15"><a xlink:href="/swift-2/protocol/RandomAccessIndexType/" target="_top">
<path fill="#999999" stroke="#999999" d="M1237.23,-196C1237.23,-196 1102.77,-196 1102.77,-196 1099.11,-196 1095.44,-192.333 1095.44,-188.667 1095.44,-188.667 1095.44,-181.333 1095.44,-181.333 1095.44,-177.667 1099.11,-174 1102.77,-174 1102.77,-174 1237.23,-174 1237.23,-174 1240.89,-174 1244.56,-177.667 1244.56,-181.333 1244.56,-181.333 1244.56,-188.667 1244.56,-188.667 1244.56,-192.333 1240.89,-196 1237.23,-196"/>
<text text-anchor="middle" x="1170" y="-181.4" font-family="Helvetica,sans-Serif" font-size="12.00" fill="white">RandomAccessIndexType</text>
</a>
</g>
</g>
<!-- BidirectionalIndexType&#45;&gt;RandomAccessIndexType -->
<g id="edge53" class="edge">
<path fill="none" stroke="#cccccc" d="M1107.59,-231.988C1118.86,-223.678 1135.12,-211.703 1148.21,-202.055"/>
<polygon fill="#cccccc" stroke="#cccccc" points="1150.3,-204.864 1156.27,-196.114 1146.15,-199.228 1150.3,-204.864"/>
</g>
<!-- BitwiseOperationsType -->
<g id="node3" class="node">
<g id="a_node3"><a xlink:href="/swift-2/protocol/BitwiseOperationsType/" target="_top">
<path fill="#999999" stroke="#999999" d="M152.715,-254C152.715,-254 35.2848,-254 35.2848,-254 31.6182,-254 27.9515,-250.333 27.9515,-246.667 27.9515,-246.667 27.9515,-239.333 27.9515,-239.333 27.9515,-235.667 31.6182,-232 35.2848,-232 35.2848,-232 152.715,-232 152.715,-232 156.382,-232 160.048,-235.667 160.048,-239.333 160.048,-239.333 160.048,-246.667 160.048,-246.667 160.048,-250.333 156.382,-254 152.715,-254"/>
<text text-anchor="middle" x="94" y="-239.4" font-family="Helvetica,sans-Serif" font-size="12.00" fill="white">BitwiseOperationsType</text>
</a>
</g>
</g>
<!-- BitwiseOperationsType&#45;&gt;Int -->
<g id="edge32" class="edge">
<path fill="none" stroke="#cccccc" d="M101.04,-231.693C123.778,-199.362 199.017,-99.6232 289,-58 356.016,-27.0003 578.819,-16.2292 667.812,-13.1061"/>
<polygon fill="#cccccc" stroke="#cccccc" points="668.106,-16.5983 677.982,-12.7623 667.87,-9.60226 668.106,-16.5983"/>
</g>
<!-- _IntegerType -->
<g id="node21" class="node">
<g id="a_node21"><a xlink:href="/swift-2/protocol/_IntegerType/" target="_top">
<path fill="#999999" stroke="#999999" d="M395.708,-196C395.708,-196 330.292,-196 330.292,-196 326.626,-196 322.959,-192.333 322.959,-188.667 322.959,-188.667 322.959,-181.333 322.959,-181.333 322.959,-177.667 326.626,-174 330.292,-174 330.292,-174 395.708,-174 395.708,-174 399.374,-174 403.041,-177.667 403.041,-181.333 403.041,-181.333 403.041,-188.667 403.041,-188.667 403.041,-192.333 399.374,-196 395.708,-196"/>
<text text-anchor="middle" x="363" y="-181.4" font-family="Helvetica,sans-Serif" font-size="12.00" fill="white">_IntegerType</text>
</a>
</g>
</g>
<!-- BitwiseOperationsType&#45;&gt;_IntegerType -->
<g id="edge42" class="edge">
<path fill="none" stroke="#cccccc" d="M142.092,-231.988C190.202,-221.973 263.891,-206.632 312.749,-196.461"/>
<polygon fill="#cccccc" stroke="#cccccc" points="313.703,-199.838 322.78,-194.373 312.277,-192.985 313.703,-199.838"/>
</g>
<!-- CVarArgType -->
<g id="node4" class="node">
<g id="a_node4"><a xlink:href="/swift-2/protocol/CVarArgType/" target="_top">
<path fill="#999999" stroke="#999999" d="M921.029,-80C921.029,-80 854.971,-80 854.971,-80 851.304,-80 847.638,-76.3333 847.638,-72.6667 847.638,-72.6667 847.638,-65.3333 847.638,-65.3333 847.638,-61.6667 851.304,-58 854.971,-58 854.971,-58 921.029,-58 921.029,-58 924.696,-58 928.362,-61.6667 928.362,-65.3333 928.362,-65.3333 928.362,-72.6667 928.362,-72.6667 928.362,-76.3333 924.696,-80 921.029,-80"/>
<text text-anchor="middle" x="888" y="-65.4" font-family="Helvetica,sans-Serif" font-size="12.00" fill="white">CVarArgType</text>
</a>
</g>
</g>
<!-- CVarArgType&#45;&gt;Int -->
<g id="edge35" class="edge">
<path fill="none" stroke="#cccccc" d="M855.283,-57.9883C823.419,-48.2376 775.062,-33.4399 741.857,-23.2786"/>
<polygon fill="#cccccc" stroke="#cccccc" points="742.66,-19.8641 732.073,-20.2846 740.611,-26.5577 742.66,-19.8641"/>
</g>
<!-- Comparable -->
<g id="node5" class="node">
<g id="a_node5"><a xlink:href="/swift-2/protocol/Comparable/" target="_top">
<path fill="#999999" stroke="#999999" d="M738.191,-312C738.191,-312 677.809,-312 677.809,-312 674.142,-312 670.475,-308.333 670.475,-304.667 670.475,-304.667 670.475,-297.333 670.475,-297.333 670.475,-293.667 674.142,-290 677.809,-290 677.809,-290 738.191,-290 738.191,-290 741.858,-290 745.525,-293.667 745.525,-297.333 745.525,-297.333 745.525,-304.667 745.525,-304.667 745.525,-308.333 741.858,-312 738.191,-312"/>
<text text-anchor="middle" x="708" y="-297.4" font-family="Helvetica,sans-Serif" font-size="12.00" fill="white">Comparable</text>
</a>
</g>
</g>
<!-- Comparable&#45;&gt;Bit -->
<g id="edge3" class="edge">
<path fill="none" stroke="#cccccc" d="M745.411,-298.88C907.498,-293.542 1541,-267.467 1541,-186 1541,-186 1541,-186 1541,-126 1541,-91.2644 1524.93,-53.4893 1513.69,-31.3219"/>
<polygon fill="#cccccc" stroke="#cccccc" points="1516.69,-29.5201 1508.94,-22.3021 1510.5,-32.7812 1516.69,-29.5201"/>
</g>
<!-- Comparable&#45;&gt;Int -->
<g id="edge15" class="edge">
<path fill="none" stroke="#cccccc" d="M699.82,-289.766C693.287,-280.893 684.643,-267.404 681,-254 678.435,-244.565 680.469,-241.763 681,-232 685.026,-157.975 696.617,-70.5569 702.083,-31.9887"/>
<polygon fill="#cccccc" stroke="#cccccc" points="705.552,-32.451 703.509,-22.0551 698.623,-31.4562 705.552,-32.451"/>
</g>
<!-- IntegerArithmeticType -->
<g id="node11" class="node">
<g id="a_node11"><a xlink:href="/swift-2/protocol/IntegerArithmeticType/" target="_top">
<path fill="#999999" stroke="#999999" d="M808.711,-254C808.711,-254 697.289,-254 697.289,-254 693.623,-254 689.956,-250.333 689.956,-246.667 689.956,-246.667 689.956,-239.333 689.956,-239.333 689.956,-235.667 693.623,-232 697.289,-232 697.289,-232 808.711,-232 808.711,-232 812.377,-232 816.044,-235.667 816.044,-239.333 816.044,-239.333 816.044,-246.667 816.044,-246.667 816.044,-250.333 812.377,-254 808.711,-254"/>
<text text-anchor="middle" x="753" y="-239.4" font-family="Helvetica,sans-Serif" font-size="12.00" fill="white">IntegerArithmeticType</text>
</a>
</g>
</g>
<!-- Comparable&#45;&gt;IntegerArithmeticType -->
<g id="edge46" class="edge">
<path fill="none" stroke="#cccccc" d="M716.045,-289.988C722.239,-282.281 730.967,-271.419 738.385,-262.187"/>
<polygon fill="#cccccc" stroke="#cccccc" points="741.184,-264.291 744.72,-254.304 735.728,-259.907 741.184,-264.291"/>
</g>
<!-- SignedNumberType -->
<g id="node17" class="node">
<g id="a_node17"><a xlink:href="/swift-2/protocol/SignedNumberType/" target="_top">
<path fill="#999999" stroke="#999999" d="M602.716,-196C602.716,-196 501.284,-196 501.284,-196 497.617,-196 493.95,-192.333 493.95,-188.667 493.95,-188.667 493.95,-181.333 493.95,-181.333 493.95,-177.667 497.617,-174 501.284,-174 501.284,-174 602.716,-174 602.716,-174 606.383,-174 610.05,-177.667 610.05,-181.333 610.05,-181.333 610.05,-188.667 610.05,-188.667 610.05,-192.333 606.383,-196 602.716,-196"/>
<text text-anchor="middle" x="552" y="-181.4" font-family="Helvetica,sans-Serif" font-size="12.00" fill="white">SignedNumberType</text>
</a>
</g>
</g>
<!-- Comparable&#45;&gt;SignedNumberType -->
<g id="edge49" class="edge">
<path fill="none" stroke="#cccccc" d="M694.156,-289.883C667.165,-270.159 607.287,-226.402 574.513,-202.452"/>
<polygon fill="#cccccc" stroke="#cccccc" points="576.176,-199.332 566.037,-196.258 572.046,-204.984 576.176,-199.332"/>
</g>
<!-- Strideable -->
<g id="node18" class="node">
<g id="a_node18"><a xlink:href="/swift-2/protocol/Strideable/" target="_top">
<path fill="#999999" stroke="#999999" d="M1003.69,-254C1003.69,-254 954.307,-254 954.307,-254 950.64,-254 946.974,-250.333 946.974,-246.667 946.974,-246.667 946.974,-239.333 946.974,-239.333 946.974,-235.667 950.64,-232 954.307,-232 954.307,-232 1003.69,-232 1003.69,-232 1007.36,-232 1011.03,-235.667 1011.03,-239.333 1011.03,-239.333 1011.03,-246.667 1011.03,-246.667 1011.03,-250.333 1007.36,-254 1003.69,-254"/>
<text text-anchor="middle" x="979" y="-239.4" font-family="Helvetica,sans-Serif" font-size="12.00" fill="white">Strideable</text>
</a>
</g>
</g>
<!-- Comparable&#45;&gt;Strideable -->
<g id="edge58" class="edge">
<path fill="none" stroke="#cccccc" d="M745.397,-292.272C795.491,-281.921 884.142,-263.602 936.643,-252.753"/>
<polygon fill="#cccccc" stroke="#cccccc" points="937.554,-256.138 946.639,-250.687 936.138,-249.283 937.554,-256.138"/>
</g>
<!-- CustomStringConvertible -->
<g id="node6" class="node">
<g id="a_node6"><a xlink:href="/swift-2/protocol/CustomStringConvertible/" target="_top">
<path fill="#999999" stroke="#999999" d="M314.208,-254C314.208,-254 185.792,-254 185.792,-254 182.126,-254 178.459,-250.333 178.459,-246.667 178.459,-246.667 178.459,-239.333 178.459,-239.333 178.459,-235.667 182.126,-232 185.792,-232 185.792,-232 314.208,-232 314.208,-232 317.874,-232 321.541,-235.667 321.541,-239.333 321.541,-239.333 321.541,-246.667 321.541,-246.667 321.541,-250.333 317.874,-254 314.208,-254"/>
<text text-anchor="middle" x="250" y="-239.4" font-family="Helvetica,sans-Serif" font-size="12.00" fill="white">CustomStringConvertible</text>
</a>
</g>
</g>
<!-- CustomStringConvertible&#45;&gt;Int -->
<g id="edge29" class="edge">
<path fill="none" stroke="#cccccc" d="M249.881,-231.843C250.118,-199.955 255.643,-101.389 313,-58 368.279,-16.1824 581.007,-11.7311 667.802,-11.7033"/>
<polygon fill="#cccccc" stroke="#cccccc" points="667.979,-15.2035 677.985,-11.7205 667.991,-8.20347 667.979,-15.2035"/>
</g>
<!-- CustomStringConvertible&#45;&gt;_IntegerType -->
<g id="edge39" class="edge">
<path fill="none" stroke="#cccccc" d="M270.202,-231.988C287.849,-223.243 313.687,-210.438 333.621,-200.559"/>
<polygon fill="#cccccc" stroke="#cccccc" points="335.186,-203.69 342.592,-196.114 332.078,-197.418 335.186,-203.69"/>
</g>
<!-- Equatable -->
<g id="node7" class="node">
<g id="a_node7"><a xlink:href="/swift-2/protocol/Equatable/" target="_top">
<path fill="#999999" stroke="#999999" d="M495.702,-428C495.702,-428 446.298,-428 446.298,-428 442.632,-428 438.965,-424.333 438.965,-420.667 438.965,-420.667 438.965,-413.333 438.965,-413.333 438.965,-409.667 442.632,-406 446.298,-406 446.298,-406 495.702,-406 495.702,-406 499.368,-406 503.035,-409.667 503.035,-413.333 503.035,-413.333 503.035,-420.667 503.035,-420.667 503.035,-424.333 499.368,-428 495.702,-428"/>
<text text-anchor="middle" x="471" y="-413.4" font-family="Helvetica,sans-Serif" font-size="12.00" fill="white">Equatable</text>
</a>
</g>
</g>
<!-- Equatable&#45;&gt;Comparable -->
<g id="edge47" class="edge">
<path fill="none" stroke="#cccccc" d="M492.032,-405.883C534.196,-385.602 629.183,-339.912 677.915,-316.471"/>
<polygon fill="#cccccc" stroke="#cccccc" points="679.52,-319.583 687.015,-312.094 676.486,-313.275 679.52,-319.583"/>
</g>
<!-- Hashable -->
<g id="node9" class="node">
<g id="a_node9"><a xlink:href="/swift-2/protocol/Hashable/" target="_top">
<path fill="#999999" stroke="#999999" d="M392.694,-254C392.694,-254 347.306,-254 347.306,-254 343.639,-254 339.973,-250.333 339.973,-246.667 339.973,-246.667 339.973,-239.333 339.973,-239.333 339.973,-235.667 343.639,-232 347.306,-232 347.306,-232 392.694,-232 392.694,-232 396.361,-232 400.027,-235.667 400.027,-239.333 400.027,-239.333 400.027,-246.667 400.027,-246.667 400.027,-250.333 396.361,-254 392.694,-254"/>
<text text-anchor="middle" x="370" y="-239.4" font-family="Helvetica,sans-Serif" font-size="12.00" fill="white">Hashable</text>
</a>
</g>
</g>
<!-- Equatable&#45;&gt;Hashable -->
<g id="edge44" class="edge">
<path fill="none" stroke="#cccccc" d="M464.984,-405.756C448.533,-377.74 402.602,-299.52 381.218,-263.104"/>
<polygon fill="#cccccc" stroke="#cccccc" points="384.194,-261.259 376.112,-254.408 378.157,-264.804 384.194,-261.259"/>
</g>
<!-- Equatable&#45;&gt;Int -->
<g id="edge13" class="edge">
<path fill="none" stroke="#cccccc" d="M438.626,-415.124C332.214,-411.378 0,-392.442 0,-302 0,-302 0,-302 0,-126 0,-57.7339 521.79,-22.5528 667.571,-14.0559"/>
<polygon fill="#cccccc" stroke="#cccccc" points="668.013,-17.5363 677.795,-13.468 667.611,-10.5479 668.013,-17.5363"/>
</g>
<!-- _Incrementable -->
<g id="node19" class="node">
<g id="a_node19"><a xlink:href="/swift-2/protocol/_Incrementable/" target="_top">
<path fill="#999999" stroke="#999999" d="M882.705,-370C882.705,-370 805.295,-370 805.295,-370 801.628,-370 797.961,-366.333 797.961,-362.667 797.961,-362.667 797.961,-355.333 797.961,-355.333 797.961,-351.667 801.628,-348 805.295,-348 805.295,-348 882.705,-348 882.705,-348 886.372,-348 890.039,-351.667 890.039,-355.333 890.039,-355.333 890.039,-362.667 890.039,-362.667 890.039,-366.333 886.372,-370 882.705,-370"/>
<text text-anchor="middle" x="844" y="-355.4" font-family="Helvetica,sans-Serif" font-size="12.00" fill="white">_Incrementable</text>
</a>
</g>
</g>
<!-- Equatable&#45;&gt;_Incrementable -->
<g id="edge48" class="edge">
<path fill="none" stroke="#cccccc" d="M503.125,-411.177C566.459,-401.668 708.16,-380.394 787.476,-368.486"/>
<polygon fill="#cccccc" stroke="#cccccc" points="788.4,-371.887 797.77,-366.941 787.361,-364.964 788.4,-371.887"/>
</g>
<!-- ForwardIndexType -->
<g id="node8" class="node">
<g id="a_node8"><a xlink:href="/swift-2/protocol/ForwardIndexType/" target="_top">
<path fill="#999999" stroke="#999999" d="M1058.21,-312C1058.21,-312 963.794,-312 963.794,-312 960.127,-312 956.461,-308.333 956.461,-304.667 956.461,-304.667 956.461,-297.333 956.461,-297.333 956.461,-293.667 960.127,-290 963.794,-290 963.794,-290 1058.21,-290 1058.21,-290 1061.87,-290 1065.54,-293.667 1065.54,-297.333 1065.54,-297.333 1065.54,-304.667 1065.54,-304.667 1065.54,-308.333 1061.87,-312 1058.21,-312"/>
<text text-anchor="middle" x="1011" y="-297.4" font-family="Helvetica,sans-Serif" font-size="12.00" fill="white">ForwardIndexType</text>
</a>
</g>
</g>
<!-- ForwardIndexType&#45;&gt;BidirectionalIndexType -->
<g id="edge56" class="edge">
<path fill="none" stroke="#cccccc" d="M1025.84,-289.988C1038.27,-281.599 1056.24,-269.474 1070.61,-259.78"/>
<polygon fill="#cccccc" stroke="#cccccc" points="1072.68,-262.608 1079.01,-254.114 1068.76,-256.805 1072.68,-262.608"/>
</g>
<!-- ForwardIndexType&#45;&gt;Bit -->
<g id="edge6" class="edge">
<path fill="none" stroke="#cccccc" d="M1065.37,-296.991C1199.32,-289.365 1535.81,-268.833 1555,-254 1580.36,-234.402 1579,-218.049 1579,-186 1579,-186 1579,-186 1579,-126 1579,-93.9507 1572.91,-84.5789 1555,-58 1547.32,-46.5985 1536.16,-36.2251 1526.15,-28.227"/>
<polygon fill="#cccccc" stroke="#cccccc" points="1528.18,-25.3769 1518.11,-22.0969 1523.94,-30.9435 1528.18,-25.3769"/>
</g>
<!-- ForwardIndexType&#45;&gt;Int -->
<g id="edge21" class="edge">
<path fill="none" stroke="#cccccc" d="M992.087,-289.916C976.781,-281.335 955.046,-268.176 938,-254 846.833,-178.183 841.736,-140.943 757,-58 746.771,-47.9879 734.843,-37.3664 724.993,-28.8552"/>
<polygon fill="#cccccc" stroke="#cccccc" points="727.164,-26.106 717.291,-22.2619 722.612,-31.4238 727.164,-26.106"/>
</g>
<!-- Hashable&#45;&gt;Int -->
<g id="edge28" class="edge">
<path fill="none" stroke="#cccccc" d="M350.284,-231.865C337.341,-224.014 321.474,-211.811 314,-196 295.452,-156.761 267.614,-122.182 336,-58 383.287,-13.6199 583.621,-10.5668 667.657,-11.3081"/>
<polygon fill="#cccccc" stroke="#cccccc" points="667.741,-14.8092 677.78,-11.4211 667.82,-7.80961 667.741,-14.8092"/>
</g>
<!-- Hashable&#45;&gt;_IntegerType -->
<g id="edge40" class="edge">
<path fill="none" stroke="#cccccc" d="M368.749,-231.988C367.864,-224.91 366.646,-215.171 365.56,-206.478"/>
<polygon fill="#cccccc" stroke="#cccccc" points="369.001,-205.793 364.288,-196.304 362.055,-206.661 369.001,-205.793"/>
</g>
<!-- Int&#45;&gt;Bit -->
<g id="edge1" class="edge">
<path fill="none" stroke="#cccccc" d="M732.275,-11C976.763,-11 1221.25,-11 1465.74,-11"/>
<polygon fill="#cccccc" stroke="#cccccc" points="1465.9,-14.5001 1475.9,-11 1465.9,-7.5001 1465.9,-14.5001"/>
</g>
<!-- IntegerArithmeticType&#45;&gt;Bit -->
<g id="edge11" class="edge">
<path fill="none" stroke="#cccccc" d="M784.543,-231.958C854.824,-209.736 1029.77,-155.262 1178,-116 1245.95,-98.0026 1267.5,-107.942 1332,-80 1348.17,-72.9927 1349.17,-65.7445 1365,-58 1397.83,-41.9418 1437.65,-29.3383 1466.06,-21.4157"/>
<polygon fill="#cccccc" stroke="#cccccc" points="1467.25,-24.7191 1475.97,-18.7109 1465.41,-17.9658 1467.25,-24.7191"/>
</g>
<!-- IntegerArithmeticType&#45;&gt;Int -->
<g id="edge17" class="edge">
<path fill="none" stroke="#cccccc" d="M750.876,-231.82C743.519,-196.568 719.04,-79.2764 709.175,-32.0032"/>
<polygon fill="#cccccc" stroke="#cccccc" points="712.569,-31.1361 707.1,-22.062 705.717,-32.5662 712.569,-31.1361"/>
</g>
<!-- IntegerArithmeticType&#45;&gt;_IntegerType -->
<g id="edge41" class="edge">
<path fill="none" stroke="#cccccc" d="M689.906,-232.94C612.75,-221.861 483.725,-203.335 413.047,-193.186"/>
<polygon fill="#cccccc" stroke="#cccccc" points="413.452,-189.709 403.056,-191.752 412.457,-196.637 413.452,-189.709"/>
</g>
<!-- IntegerLiteralConvertible -->
<g id="node12" class="node">
<g id="a_node12"><a xlink:href="/swift-2/protocol/IntegerLiteralConvertible/" target="_top">
<path fill="#999999" stroke="#999999" d="M588.722,-254C588.722,-254 463.278,-254 463.278,-254 459.611,-254 455.944,-250.333 455.944,-246.667 455.944,-246.667 455.944,-239.333 455.944,-239.333 455.944,-235.667 459.611,-232 463.278,-232 463.278,-232 588.722,-232 588.722,-232 592.389,-232 596.056,-235.667 596.056,-239.333 596.056,-239.333 596.056,-246.667 596.056,-246.667 596.056,-250.333 592.389,-254 588.722,-254"/>
<text text-anchor="middle" x="526" y="-239.4" font-family="Helvetica,sans-Serif" font-size="12.00" fill="white">IntegerLiteralConvertible</text>
</a>
</g>
</g>
<!-- IntegerLiteralConvertible&#45;&gt;Int -->
<g id="edge31" class="edge">
<path fill="none" stroke="#cccccc" d="M508.366,-231.957C473.223,-211.529 396.651,-164.808 383,-138 378.563,-129.287 379.595,-125.166 383,-116 394.853,-84.0967 403.354,-74.7166 433,-58 472.518,-35.7169 602.513,-21.222 667.427,-15.1919"/>
<polygon fill="#cccccc" stroke="#cccccc" points="667.994,-18.6548 677.636,-14.2636 667.36,-11.6836 667.994,-18.6548"/>
</g>
<!-- IntegerLiteralConvertible&#45;&gt;SignedNumberType -->
<g id="edge50" class="edge">
<path fill="none" stroke="#cccccc" d="M530.648,-231.988C534.044,-224.674 538.759,-214.519 542.894,-205.612"/>
<polygon fill="#cccccc" stroke="#cccccc" points="546.179,-206.848 547.216,-196.304 539.83,-203.9 546.179,-206.848"/>
</g>
<!-- IntegerLiteralConvertible&#45;&gt;_IntegerType -->
<g id="edge38" class="edge">
<path fill="none" stroke="#cccccc" d="M496.859,-231.988C470.285,-222.859 430.833,-209.305 401.638,-199.274"/>
<polygon fill="#cccccc" stroke="#cccccc" points="402.758,-195.958 392.163,-196.019 400.483,-202.579 402.758,-195.958"/>
</g>
<!-- IntegerType -->
<g id="node13" class="node">
<g id="a_node13"><a xlink:href="/swift-2/protocol/IntegerType/" target="_top">
<path fill="#999999" stroke="#999999" d="M593.202,-138C593.202,-138 534.798,-138 534.798,-138 531.132,-138 527.465,-134.333 527.465,-130.667 527.465,-130.667 527.465,-123.333 527.465,-123.333 527.465,-119.667 531.132,-116 534.798,-116 534.798,-116 593.202,-116 593.202,-116 596.868,-116 600.535,-119.667 600.535,-123.333 600.535,-123.333 600.535,-130.667 600.535,-130.667 600.535,-134.333 596.868,-138 593.202,-138"/>
<text text-anchor="middle" x="564" y="-123.4" font-family="Helvetica,sans-Serif" font-size="12.00" fill="white">IntegerType</text>
</a>
</g>
</g>
<!-- IntegerType&#45;&gt;Int -->
<g id="edge19" class="edge">
<path fill="none" stroke="#cccccc" d="M569.723,-115.621C578.1,-101.186 594.908,-74.9198 615,-58 630.855,-44.6482 651.241,-33.8241 668.6,-26.0378"/>
<polygon fill="#cccccc" stroke="#cccccc" points="670.092,-29.206 677.884,-22.0278 667.316,-22.7797 670.092,-29.206"/>
</g>
<!-- SignedIntegerType -->
<g id="node16" class="node">
<g id="a_node16"><a xlink:href="/swift-2/protocol/SignedIntegerType/" target="_top">
<path fill="#999999" stroke="#999999" d="M555.727,-80C555.727,-80 460.273,-80 460.273,-80 456.606,-80 452.94,-76.3333 452.94,-72.6667 452.94,-72.6667 452.94,-65.3333 452.94,-65.3333 452.94,-61.6667 456.606,-58 460.273,-58 460.273,-58 555.727,-58 555.727,-58 559.394,-58 563.06,-61.6667 563.06,-65.3333 563.06,-65.3333 563.06,-72.6667 563.06,-72.6667 563.06,-76.3333 559.394,-80 555.727,-80"/>
<text text-anchor="middle" x="508" y="-65.4" font-family="Helvetica,sans-Serif" font-size="12.00" fill="white">SignedIntegerType</text>
</a>
</g>
</g>
<!-- IntegerType&#45;&gt;SignedIntegerType -->
<g id="edge61" class="edge">
<path fill="none" stroke="#cccccc" d="M553.988,-115.988C546.123,-108.123 534.974,-96.9745 525.624,-87.6239"/>
<polygon fill="#cccccc" stroke="#cccccc" points="527.85,-84.9001 518.304,-80.3039 522.9,-89.8499 527.85,-84.9001"/>
</g>
<!-- MirrorPathType -->
<g id="node14" class="node">
<g id="a_node14"><a xlink:href="/swift-2/protocol/MirrorPathType/" target="_top">
<path fill="#999999" stroke="#999999" d="M1031.69,-80C1031.69,-80 954.31,-80 954.31,-80 950.643,-80 946.977,-76.3333 946.977,-72.6667 946.977,-72.6667 946.977,-65.3333 946.977,-65.3333 946.977,-61.6667 950.643,-58 954.31,-58 954.31,-58 1031.69,-58 1031.69,-58 1035.36,-58 1039.02,-61.6667 1039.02,-65.3333 1039.02,-65.3333 1039.02,-72.6667 1039.02,-72.6667 1039.02,-76.3333 1035.36,-80 1031.69,-80"/>
<text text-anchor="middle" x="993" y="-65.4" font-family="Helvetica,sans-Serif" font-size="12.00" fill="white">MirrorPathType</text>
</a>
</g>
</g>
<!-- MirrorPathType&#45;&gt;Int -->
<g id="edge34" class="edge">
<path fill="none" stroke="#cccccc" d="M946.728,-59.0026C889.784,-47.9302 794.235,-29.3513 741.947,-19.1841"/>
<polygon fill="#cccccc" stroke="#cccccc" points="742.575,-15.7407 732.09,-17.2676 741.238,-22.612 742.575,-15.7407"/>
</g>
<!-- RandomAccessIndexType&#45;&gt;Bit -->
<g id="edge4" class="edge">
<path fill="none" stroke="#cccccc" d="M1196.59,-173.923C1240.64,-156.839 1331.03,-120.115 1403,-80 1431.31,-64.222 1461.83,-42.7486 1481.61,-28.1844"/>
<polygon fill="#cccccc" stroke="#cccccc" points="1483.96,-30.7998 1489.9,-22.0242 1479.78,-25.1825 1483.96,-30.7998"/>
</g>
<!-- RandomAccessIndexType&#45;&gt;Int -->
<g id="edge23" class="edge">
<path fill="none" stroke="#cccccc" d="M1166.28,-173.986C1156.57,-149.399 1127.89,-86.0324 1081,-58 1024.36,-24.1444 825.49,-15.1008 742.166,-12.7731"/>
<polygon fill="#cccccc" stroke="#cccccc" points="742.218,-9.27333 732.129,-12.5099 742.034,-16.2709 742.218,-9.27333"/>
</g>
<!-- RandomAccessIndexType&#45;&gt;IntegerType -->
<g id="edge52" class="edge">
<path fill="none" stroke="#cccccc" d="M1095.39,-177.105C968.763,-165.404 715.37,-141.988 610.793,-132.324"/>
<polygon fill="#cccccc" stroke="#cccccc" points="610.836,-128.813 600.557,-131.378 610.192,-135.784 610.836,-128.813"/>
</g>
<!-- SignedIntegerType&#45;&gt;Int -->
<g id="edge20" class="edge">
<path fill="none" stroke="#cccccc" d="M543.22,-57.9883C578.374,-47.9952 632.177,-32.7008 667.959,-22.5293"/>
<polygon fill="#cccccc" stroke="#cccccc" points="669.332,-25.7779 677.994,-19.6769 667.418,-19.0447 669.332,-25.7779"/>
</g>
<!-- SignedNumberType&#45;&gt;Int -->
<g id="edge30" class="edge">
<path fill="none" stroke="#cccccc" d="M567.672,-173.877C579.983,-165.37 596.996,-152.329 609,-138 635.058,-106.894 627.652,-89.6877 653,-58 661.706,-47.117 673.155,-36.681 683.094,-28.5083"/>
<polygon fill="#cccccc" stroke="#cccccc" points="685.353,-31.1837 690.994,-22.2154 680.991,-25.7084 685.353,-31.1837"/>
</g>
<!-- _SignedIntegerType -->
<g id="node24" class="node">
<g id="a_node24"><a xlink:href="/swift-2/protocol/_SignedIntegerType/" target="_top">
<path fill="#999999" stroke="#999999" d="M502.231,-138C502.231,-138 399.769,-138 399.769,-138 396.102,-138 392.436,-134.333 392.436,-130.667 392.436,-130.667 392.436,-123.333 392.436,-123.333 392.436,-119.667 396.102,-116 399.769,-116 399.769,-116 502.231,-116 502.231,-116 505.898,-116 509.564,-119.667 509.564,-123.333 509.564,-123.333 509.564,-130.667 509.564,-130.667 509.564,-134.333 505.898,-138 502.231,-138"/>
<text text-anchor="middle" x="451" y="-123.4" font-family="Helvetica,sans-Serif" font-size="12.00" fill="white">_SignedIntegerType</text>
</a>
</g>
</g>
<!-- SignedNumberType&#45;&gt;_SignedIntegerType -->
<g id="edge37" class="edge">
<path fill="none" stroke="#cccccc" d="M533.943,-173.988C518.385,-165.362 495.702,-152.785 477.987,-142.963"/>
<polygon fill="#cccccc" stroke="#cccccc" points="479.684,-139.902 469.241,-138.114 476.289,-146.024 479.684,-139.902"/>
</g>
<!-- Strideable&#45;&gt;Bit -->
<g id="edge7" class="edge">
<path fill="none" stroke="#cccccc" d="M992.568,-231.853C1012.3,-217.46 1050.45,-190.979 1086,-174 1204.07,-117.61 1245.79,-133.938 1365,-80 1382.78,-71.9556 1385.67,-66.9765 1403,-58 1425.02,-46.5935 1450.41,-34.9314 1470.1,-26.2037"/>
<polygon fill="#cccccc" stroke="#cccccc" points="1471.52,-29.4011 1479.26,-22.1688 1468.7,-22.9943 1471.52,-29.4011"/>
</g>
<!-- Strideable&#45;&gt;Int -->
<g id="edge25" class="edge">
<path fill="none" stroke="#cccccc" d="M970.743,-231.718C946.386,-201.873 871.716,-113.812 795,-58 777.64,-45.3703 756.317,-34.3061 738.784,-26.1956"/>
<polygon fill="#cccccc" stroke="#cccccc" points="740.038,-22.9216 729.483,-22.0025 737.161,-29.3031 740.038,-22.9216"/>
</g>
<!-- Strideable&#45;&gt;RandomAccessIndexType -->
<g id="edge54" class="edge">
<path fill="none" stroke="#cccccc" d="M1011.4,-232.5C1042.88,-223.27 1090.93,-209.184 1125.89,-198.934"/>
<polygon fill="#cccccc" stroke="#cccccc" points="1127.22,-202.191 1135.83,-196.019 1125.25,-195.474 1127.22,-202.191"/>
</g>
<!-- _Incrementable&#45;&gt;Bit -->
<g id="edge2" class="edge">
<path fill="none" stroke="#cccccc" d="M890.249,-356.705C1067.42,-351.139 1693,-325.702 1693,-244 1693,-244 1693,-244 1693,-126 1693,-91.16 1681.25,-79.7139 1654,-58 1621.03,-31.7227 1573.15,-20.4155 1540.19,-15.5757"/>
<polygon fill="#cccccc" stroke="#cccccc" points="1540.43,-12.0763 1530.05,-14.2209 1539.5,-19.0146 1540.43,-12.0763"/>
</g>
<!-- _Incrementable&#45;&gt;ForwardIndexType -->
<g id="edge57" class="edge">
<path fill="none" stroke="#cccccc" d="M873.856,-347.988C901.082,-338.859 941.502,-325.305 971.414,-315.274"/>
<polygon fill="#cccccc" stroke="#cccccc" points="972.753,-318.517 981.121,-312.019 970.527,-311.88 972.753,-318.517"/>
</g>
<!-- _Incrementable&#45;&gt;Int -->
<g id="edge22" class="edge">
<path fill="none" stroke="#cccccc" d="M843.667,-347.921C842.694,-326.186 838.966,-273.516 825,-232 798.145,-152.169 743.282,-67.2657 718.129,-30.615"/>
<polygon fill="#cccccc" stroke="#cccccc" points="720.985,-28.5913 712.409,-22.3692 715.233,-32.5809 720.985,-28.5913"/>
</g>
<!-- _Incrementable&#45;&gt;_IntegerType -->
<g id="edge43" class="edge">
<path fill="none" stroke="#cccccc" d="M797.96,-352.498C721.523,-341.965 565.156,-314.406 447,-254 421.392,-240.909 396.336,-219.116 380.35,-203.735"/>
<polygon fill="#cccccc" stroke="#cccccc" points="382.443,-200.883 372.863,-196.356 377.529,-205.868 382.443,-200.883"/>
</g>
<!-- _IntegerArithmeticType -->
<g id="node20" class="node">
<g id="a_node20"><a xlink:href="/swift-2/protocol/_IntegerArithmeticType/" target="_top">
<path fill="#999999" stroke="#999999" d="M1377.22,-312C1377.22,-312 1258.78,-312 1258.78,-312 1255.12,-312 1251.45,-308.333 1251.45,-304.667 1251.45,-304.667 1251.45,-297.333 1251.45,-297.333 1251.45,-293.667 1255.12,-290 1258.78,-290 1258.78,-290 1377.22,-290 1377.22,-290 1380.88,-290 1384.55,-293.667 1384.55,-297.333 1384.55,-297.333 1384.55,-304.667 1384.55,-304.667 1384.55,-308.333 1380.88,-312 1377.22,-312"/>
<text text-anchor="middle" x="1318" y="-297.4" font-family="Helvetica,sans-Serif" font-size="12.00" fill="white">_IntegerArithmeticType</text>
</a>
</g>
</g>
<!-- _IntegerArithmeticType&#45;&gt;Bit -->
<g id="edge12" class="edge">
<path fill="none" stroke="#cccccc" d="M1384.48,-290.604C1463.28,-279.212 1585.02,-260.703 1593,-254 1617.54,-233.387 1617,-218.049 1617,-186 1617,-186 1617,-186 1617,-126 1617,-93.9507 1614.1,-82.1203 1593,-58 1578.9,-41.88 1557.78,-30.6744 1539.55,-23.3616"/>
<polygon fill="#cccccc" stroke="#cccccc" points="1540.64,-20.035 1530.05,-19.79 1538.18,-26.5868 1540.64,-20.035"/>
</g>
<!-- _IntegerArithmeticType&#45;&gt;Int -->
<g id="edge18" class="edge">
<path fill="none" stroke="#cccccc" d="M1325.4,-289.736C1334.13,-276.313 1346.54,-252.134 1339,-232 1298.74,-124.455 1256.34,-96.0747 1148,-58 1073.28,-31.7399 834.472,-18.0514 742.034,-13.6301"/>
<polygon fill="#cccccc" stroke="#cccccc" points="742.169,-10.1327 732.016,-13.16 741.841,-17.125 742.169,-10.1327"/>
</g>
<!-- _IntegerArithmeticType&#45;&gt;IntegerArithmeticType -->
<g id="edge45" class="edge">
<path fill="none" stroke="#cccccc" d="M1251.53,-293.411C1145.02,-282.855 936.914,-262.229 826.263,-251.261"/>
<polygon fill="#cccccc" stroke="#cccccc" points="826.487,-247.767 816.191,-250.263 825.797,-254.733 826.487,-247.767"/>
</g>
<!-- _IntegerType&#45;&gt;Int -->
<g id="edge16" class="edge">
<path fill="none" stroke="#cccccc" d="M357.417,-173.649C345.477,-149.942 320.822,-91.2032 350,-58 370.774,-34.3607 580.913,-19.3319 667.755,-14.0868"/>
<polygon fill="#cccccc" stroke="#cccccc" points="668.18,-17.5679 677.955,-13.4817 667.765,-10.5802 668.18,-17.5679"/>
</g>
<!-- _IntegerType&#45;&gt;IntegerType -->
<g id="edge51" class="edge">
<path fill="none" stroke="#cccccc" d="M398.935,-173.988C432.273,-164.7 482.05,-150.832 518.222,-140.754"/>
<polygon fill="#cccccc" stroke="#cccccc" points="519.344,-144.075 528.038,-138.019 517.466,-137.332 519.344,-144.075"/>
</g>
<!-- _IntegerType&#45;&gt;_SignedIntegerType -->
<g id="edge36" class="edge">
<path fill="none" stroke="#cccccc" d="M378.733,-173.988C392.04,-165.52 411.329,-153.245 426.632,-143.507"/>
<polygon fill="#cccccc" stroke="#cccccc" points="428.549,-146.435 435.107,-138.114 424.791,-140.53 428.549,-146.435"/>
</g>
<!-- _RandomAccessAmbiguity -->
<g id="node22" class="node">
<g id="a_node22"><a xlink:href="/swift-2/protocol/_RandomAccessAmbiguity/" target="_top">
<path fill="#999999" stroke="#999999" d="M1323.21,-254C1323.21,-254 1184.79,-254 1184.79,-254 1181.12,-254 1177.45,-250.333 1177.45,-246.667 1177.45,-246.667 1177.45,-239.333 1177.45,-239.333 1177.45,-235.667 1181.12,-232 1184.79,-232 1184.79,-232 1323.21,-232 1323.21,-232 1326.88,-232 1330.55,-235.667 1330.55,-239.333 1330.55,-239.333 1330.55,-246.667 1330.55,-246.667 1330.55,-250.333 1326.88,-254 1323.21,-254"/>
<text text-anchor="middle" x="1254" y="-239.4" font-family="Helvetica,sans-Serif" font-size="12.00" fill="white">_RandomAccessAmbiguity</text>
</a>
</g>
</g>
<!-- _RandomAccessAmbiguity&#45;&gt;Bit -->
<g id="edge9" class="edge">
<path fill="none" stroke="#cccccc" d="M1292.74,-231.964C1338.59,-218.172 1414.33,-189.066 1459,-138 1485.83,-107.327 1496.56,-59.3291 1500.65,-32.2885"/>
<polygon fill="#cccccc" stroke="#cccccc" points="1504.16,-32.4723 1502.03,-22.0944 1497.22,-31.5373 1504.16,-32.4723"/>
</g>
<!-- _RandomAccessAmbiguity&#45;&gt;Int -->
<g id="edge27" class="edge">
<path fill="none" stroke="#cccccc" d="M1256.45,-231.696C1259.18,-217.805 1262.14,-192.662 1253,-174 1216.7,-99.8811 1184.2,-89.6967 1108,-58 1042.31,-30.674 829.229,-17.8263 742.371,-13.626"/>
<polygon fill="#cccccc" stroke="#cccccc" points="742.335,-10.1205 732.181,-13.1452 742.005,-17.1128 742.335,-10.1205"/>
</g>
<!-- _RandomAccessAmbiguity&#45;&gt;RandomAccessIndexType -->
<g id="edge55" class="edge">
<path fill="none" stroke="#cccccc" d="M1238.98,-231.988C1226.4,-223.599 1208.21,-211.474 1193.67,-201.78"/>
<polygon fill="#cccccc" stroke="#cccccc" points="1195.43,-198.749 1185.17,-196.114 1191.55,-204.573 1195.43,-198.749"/>
</g>
<!-- _Reflectable -->
<g id="node23" class="node">
<g id="a_node23"><a xlink:href="/swift-2/protocol/_Reflectable/" target="_top">
<path fill="#999999" stroke="#999999" d="M1315.7,-80C1315.7,-80 1254.3,-80 1254.3,-80 1250.63,-80 1246.97,-76.3333 1246.97,-72.6667 1246.97,-72.6667 1246.97,-65.3333 1246.97,-65.3333 1246.97,-61.6667 1250.63,-58 1254.3,-58 1254.3,-58 1315.7,-58 1315.7,-58 1319.37,-58 1323.03,-61.6667 1323.03,-65.3333 1323.03,-65.3333 1323.03,-72.6667 1323.03,-72.6667 1323.03,-76.3333 1319.37,-80 1315.7,-80"/>
<text text-anchor="middle" x="1285" y="-65.4" font-family="Helvetica,sans-Serif" font-size="12.00" fill="white">_Reflectable</text>
</a>
</g>
</g>
<!-- _Reflectable&#45;&gt;Bit -->
<g id="edge10" class="edge">
<path fill="none" stroke="#cccccc" d="M1323.22,-58.1815C1363.44,-47.8509 1426.3,-31.703 1466.03,-21.4956"/>
<polygon fill="#cccccc" stroke="#cccccc" points="1467.04,-24.8509 1475.86,-18.9728 1465.3,-18.071 1467.04,-24.8509"/>
</g>
<!-- _Reflectable&#45;&gt;Int -->
<g id="edge33" class="edge">
<path fill="none" stroke="#cccccc" d="M1246.74,-60.1782C1242.12,-59.3717 1237.46,-58.6217 1233,-58 1049.72,-32.4624 828.548,-18.6599 742.132,-13.9152"/>
<polygon fill="#cccccc" stroke="#cccccc" points="742.21,-10.4144 732.035,-13.3686 741.831,-17.4041 742.21,-10.4144"/>
</g>
<!-- _SignedIntegerType&#45;&gt;Int -->
<g id="edge14" class="edge">
<path fill="none" stroke="#cccccc" d="M445.885,-115.906C439.307,-101.334 430.268,-74.3639 444,-58 472.087,-24.53 602.157,-15.4036 667.428,-12.9223"/>
<polygon fill="#cccccc" stroke="#cccccc" points="667.825,-16.4107 677.698,-12.5666 667.583,-9.41491 667.825,-16.4107"/>
</g>
<!-- _SignedIntegerType&#45;&gt;SignedIntegerType -->
<g id="edge60" class="edge">
<path fill="none" stroke="#cccccc" d="M461.19,-115.988C469.276,-108.045 480.771,-96.7512 490.346,-87.3439"/>
<polygon fill="#cccccc" stroke="#cccccc" points="492.832,-89.8088 497.512,-80.3039 487.926,-84.8154 492.832,-89.8088"/>
</g>
<!-- _Strideable -->
<g id="node25" class="node">
<g id="a_node25"><a xlink:href="/swift-2/protocol/_Strideable/" target="_top">
<path fill="#999999" stroke="#999999" d="M1465.7,-312C1465.7,-312 1410.3,-312 1410.3,-312 1406.63,-312 1402.97,-308.333 1402.97,-304.667 1402.97,-304.667 1402.97,-297.333 1402.97,-297.333 1402.97,-293.667 1406.63,-290 1410.3,-290 1410.3,-290 1465.7,-290 1465.7,-290 1469.37,-290 1473.03,-293.667 1473.03,-297.333 1473.03,-297.333 1473.03,-304.667 1473.03,-304.667 1473.03,-308.333 1469.37,-312 1465.7,-312"/>
<text text-anchor="middle" x="1438" y="-297.4" font-family="Helvetica,sans-Serif" font-size="12.00" fill="white">_Strideable</text>
</a>
</g>
</g>
<!-- _Strideable&#45;&gt;Bit -->
<g id="edge8" class="edge">
<path fill="none" stroke="#cccccc" d="M1473.25,-295.672C1522.38,-288.975 1608.02,-274.679 1631,-254 1654.82,-232.562 1655,-218.049 1655,-186 1655,-186 1655,-186 1655,-126 1655,-93.9507 1653.6,-80.7269 1631,-58 1606.68,-33.5419 1568.44,-22.0186 1540.09,-16.6321"/>
<polygon fill="#cccccc" stroke="#cccccc" points="1540.58,-13.1656 1530.13,-14.9126 1539.39,-20.0635 1540.58,-13.1656"/>
</g>
<!-- _Strideable&#45;&gt;Int -->
<g id="edge26" class="edge">
<path fill="none" stroke="#cccccc" d="M1431.78,-289.727C1413.34,-259.906 1356.17,-171.903 1291,-116 1271.36,-99.1489 1214.66,-65.8442 1190,-58 1106.59,-31.4741 841.066,-17.7731 742.394,-13.4972"/>
<polygon fill="#cccccc" stroke="#cccccc" points="742.429,-9.99563 732.289,-13.0672 742.131,-16.9893 742.429,-9.99563"/>
</g>
<!-- _Strideable&#45;&gt;Strideable -->
<g id="edge59" class="edge">
<path fill="none" stroke="#cccccc" d="M1402.71,-291.728C1399.43,-291.091 1396.16,-290.502 1393,-290 1231.72,-264.396 1185.99,-281.12 1021.13,-253.974"/>
<polygon fill="#cccccc" stroke="#cccccc" points="1021.58,-250.5 1011.14,-252.299 1020.42,-257.404 1021.58,-250.5"/>
</g>
</g>
</svg>
