<?xml version="1.0" encoding="UTF-8" standalone="no"?>
<!DOCTYPE svg PUBLIC "-//W3C//DTD SVG 1.1//EN"
 "http://www.w3.org/Graphics/SVG/1.1/DTD/svg11.dtd">
<!-- Generated by graphviz version 2.36.0 (20140111.2315)
 -->
<!-- Title: _Comparable &#45; Type Hierarchy &#45; SwiftDoc.org Pages: 1 -->
<svg width="2442pt" height="543pt"
 viewBox="0.00 0.00 2442.40 543.20" xmlns="http://www.w3.org/2000/svg" xmlns:xlink="http://www.w3.org/1999/xlink">
<g id="graph0" class="graph" transform="scale(1 1) rotate(0) translate(7.2 485.6)">
<g transform="translate(0 -485.6)">
<g>
    <path fill="#666666" d="M13.846,10.832c-0.336-0.464-0.792-0.844-1.368-1.14s-1.224-0.444-1.944-0.444
        c-0.384,0-0.772,0.052-1.164,0.156C8.977,9.509,8.622,9.677,8.301,9.908c-0.32,0.232-0.58,0.52-0.78,0.864
        c-0.2,0.344-0.3,0.756-0.3,1.236c0,0.464,0.092,0.852,0.276,1.164c0.184,0.312,0.432,0.576,0.744,0.792s0.68,0.4,1.104,0.552
        c0.423,0.152,0.876,0.309,1.356,0.468c0.576,0.177,1.16,0.376,1.752,0.601c0.592,0.224,1.128,0.52,1.608,0.888
        s0.872,0.828,1.176,1.38s0.456,1.252,0.456,2.101c0,0.88-0.164,1.644-0.492,2.292c-0.328,0.647-0.765,1.184-1.308,1.607
        c-0.544,0.424-1.172,0.74-1.884,0.948s-1.444,0.312-2.196,0.312c-1.072,0-2.108-0.208-3.108-0.624
        c-1-0.415-1.828-1.031-2.484-1.848l1.848-1.56c0.4,0.592,0.936,1.071,1.608,1.439c0.672,0.368,1.399,0.552,2.184,0.552
        c0.4,0,0.8-0.056,1.2-0.168c0.4-0.111,0.764-0.288,1.092-0.527c0.328-0.24,0.596-0.54,0.804-0.9
        c0.208-0.36,0.312-0.796,0.312-1.308s-0.108-0.94-0.324-1.284c-0.216-0.344-0.508-0.636-0.876-0.876s-0.796-0.444-1.284-0.612
        c-0.488-0.168-1.004-0.34-1.548-0.516c-0.544-0.16-1.08-0.356-1.608-0.588c-0.528-0.232-1-0.528-1.416-0.889
        c-0.416-0.359-0.752-0.804-1.008-1.332c-0.256-0.527-0.384-1.184-0.384-1.968c0-0.848,0.172-1.576,0.516-2.184
        c0.344-0.608,0.792-1.112,1.344-1.512c0.552-0.4,1.176-0.692,1.872-0.876c0.696-0.184,1.396-0.276,2.1-0.276
        c0.992,0,1.92,0.176,2.784,0.528c0.864,0.352,1.56,0.824,2.088,1.416L13.846,10.832z"/>
    <path fill="#666666" d="M18.813,13.304l2.568,8.688h0.048l2.712-8.688h2.376l2.76,8.688h0.048l2.568-8.688h2.376L30.501,24.68
        h-2.352l-2.808-8.544h-0.048l-2.784,8.544h-2.352l-3.792-11.376H18.813z"/>
    <path fill="#666666" d="M38.685,9.2c0,0.416-0.147,0.76-0.44,1.032c-0.294,0.272-0.647,0.408-1.06,0.408s-0.762-0.14-1.047-0.42
        c-0.286-0.28-0.429-0.62-0.429-1.02c0-0.416,0.143-0.764,0.429-1.044c0.286-0.28,0.635-0.42,1.047-0.42s0.766,0.14,1.06,0.42
        C38.538,8.437,38.685,8.784,38.685,9.2z M38.325,24.68h-2.256V13.304h2.256V24.68z"/>
    <path fill="#666666" d="M47.613,15.152h-2.64v9.528h-2.256v-9.528h-2.256v-1.848h2.256v-2.376c0-0.672,0.076-1.292,0.228-1.86
        c0.152-0.568,0.4-1.06,0.744-1.476c0.344-0.416,0.784-0.744,1.32-0.984c0.536-0.24,1.188-0.36,1.956-0.36
        c0.544,0,1.016,0.056,1.416,0.168l-0.264,1.944c-0.176-0.048-0.352-0.088-0.528-0.12c-0.176-0.032-0.376-0.048-0.6-0.048
        c-0.432,0-0.78,0.076-1.044,0.228c-0.264,0.152-0.468,0.356-0.612,0.612s-0.24,0.548-0.288,0.876
        c-0.048,0.328-0.072,0.668-0.072,1.02v2.376h2.64V15.152z"/>
    <path fill="#666666" d="M54.909,15.152h-3.024v5.91c0,0.687,0.128,1.177,0.384,1.472c0.256,0.295,0.664,0.442,1.224,0.442
        c0.208,0,0.432-0.021,0.672-0.065c0.24-0.044,0.456-0.11,0.648-0.198l0.072,1.848c-0.272,0.096-0.572,0.172-0.9,0.229
        c-0.328,0.056-0.668,0.084-1.02,0.084c-1.072,0-1.892-0.296-2.46-0.889c-0.568-0.592-0.852-1.479-0.852-2.664v-6.168h-2.184
        v-1.848h2.184V10.04h2.232v3.264h3.024V15.152z"/>
    <path fill="#666666" d="M57.356,7.688h5.832c1.088,0,2.176,0.16,3.264,0.48c1.088,0.32,2.072,0.824,2.952,1.512
        s1.592,1.568,2.136,2.64c0.544,1.072,0.816,2.36,0.816,3.864c0,1.456-0.272,2.716-0.816,3.78s-1.256,1.943-2.136,2.64
        s-1.864,1.216-2.952,1.561c-1.088,0.344-2.176,0.516-3.264,0.516h-5.832V7.688z M59.732,22.593h2.976
        c1.024,0,1.972-0.145,2.844-0.432c0.872-0.288,1.624-0.704,2.256-1.248c0.632-0.544,1.124-1.216,1.476-2.017
        c0.352-0.8,0.528-1.704,0.528-2.712c0-1.056-0.176-1.983-0.528-2.784c-0.353-0.8-0.844-1.468-1.476-2.004
        c-0.632-0.536-1.384-0.944-2.256-1.224s-1.82-0.42-2.844-0.42h-2.976V22.593z"/>
    <path fill="#666666" d="M86.06,18.969c0,0.88-0.156,1.688-0.468,2.424c-0.312,0.736-0.744,1.372-1.296,1.908
        c-0.552,0.536-1.204,0.952-1.956,1.248c-0.752,0.296-1.56,0.443-2.424,0.443c-0.864,0-1.672-0.147-2.424-0.443
        c-0.752-0.296-1.4-0.712-1.944-1.248c-0.544-0.536-0.972-1.172-1.284-1.908c-0.312-0.735-0.468-1.544-0.468-2.424
        s0.156-1.684,0.468-2.412c0.312-0.728,0.74-1.356,1.284-1.884c0.543-0.528,1.191-0.939,1.944-1.236
        c0.752-0.296,1.56-0.444,2.424-0.444c0.864,0,1.672,0.148,2.424,0.444c0.752,0.297,1.404,0.708,1.956,1.236
        c0.552,0.527,0.984,1.156,1.296,1.884C85.904,17.285,86.06,18.089,86.06,18.969z M83.708,18.98c0-0.542-0.084-1.061-0.252-1.556
        c-0.169-0.494-0.414-0.929-0.734-1.304s-0.718-0.674-1.192-0.897s-1.015-0.335-1.625-0.335c-0.61,0-1.152,0.111-1.625,0.335
        c-0.474,0.224-0.871,0.522-1.191,0.897c-0.321,0.375-0.566,0.81-0.734,1.304C76.184,17.92,76.1,18.438,76.1,18.98
        c0,0.543,0.084,1.062,0.253,1.556c0.168,0.495,0.413,0.934,0.734,1.316c0.321,0.383,0.718,0.686,1.191,0.909
        c0.473,0.224,1.015,0.335,1.625,0.335c0.61,0,1.151-0.111,1.625-0.335s0.871-0.526,1.192-0.909s0.565-0.821,0.734-1.316
        C83.624,20.042,83.708,19.523,83.708,18.98z"/>
    <path fill="#666666" d="M96.428,16.184c-0.24-0.368-0.6-0.676-1.08-0.924s-0.992-0.372-1.536-0.372
        c-0.592,0-1.116,0.112-1.572,0.336c-0.456,0.225-0.844,0.524-1.164,0.9c-0.32,0.376-0.564,0.812-0.732,1.308
        s-0.252,1.017-0.252,1.56c0,0.545,0.084,1.064,0.252,1.561s0.412,0.933,0.732,1.308c0.32,0.376,0.712,0.677,1.176,0.9
        c0.464,0.225,0.992,0.336,1.584,0.336c0.576,0,1.1-0.111,1.572-0.336c0.472-0.224,0.86-0.528,1.164-0.912l1.512,1.368
        c-0.48,0.561-1.08,0.996-1.8,1.308c-0.72,0.312-1.536,0.468-2.448,0.468c-0.88,0-1.692-0.144-2.436-0.432
        c-0.744-0.288-1.388-0.691-1.932-1.212c-0.544-0.52-0.972-1.147-1.284-1.884s-0.468-1.561-0.468-2.473
        c0-0.896,0.152-1.711,0.456-2.447c0.304-0.736,0.728-1.368,1.272-1.896c0.543-0.527,1.188-0.936,1.932-1.224
        c0.744-0.288,1.548-0.433,2.412-0.433c0.8,0,1.596,0.16,2.388,0.48s1.419,0.784,1.884,1.392L96.428,16.184z"/>
    <path fill="#666666" d="M103.1,23.24c0,0.417-0.152,0.784-0.456,1.104c-0.304,0.32-0.688,0.479-1.152,0.479
        c-0.448,0-0.828-0.155-1.14-0.468c-0.312-0.312-0.468-0.676-0.468-1.092c0-0.432,0.152-0.804,0.456-1.116
        c0.304-0.312,0.688-0.468,1.152-0.468c0.464,0,0.848,0.152,1.152,0.456C102.947,22.44,103.1,22.808,103.1,23.24z"/>
    <path fill="#666666" d="M116.635,18.969c0,0.88-0.156,1.688-0.468,2.424c-0.312,0.736-0.744,1.372-1.296,1.908
        c-0.552,0.536-1.204,0.952-1.956,1.248c-0.752,0.296-1.56,0.443-2.424,0.443c-0.864,0-1.672-0.147-2.424-0.443
        c-0.752-0.296-1.4-0.712-1.944-1.248c-0.544-0.536-0.972-1.172-1.284-1.908c-0.312-0.735-0.468-1.544-0.468-2.424
        s0.156-1.684,0.468-2.412c0.312-0.728,0.74-1.356,1.284-1.884c0.543-0.528,1.191-0.939,1.944-1.236
        c0.752-0.296,1.56-0.444,2.424-0.444c0.864,0,1.672,0.148,2.424,0.444c0.752,0.297,1.404,0.708,1.956,1.236
        c0.552,0.527,0.984,1.156,1.296,1.884C116.479,17.285,116.635,18.089,116.635,18.969z M114.283,18.98
        c0-0.542-0.084-1.061-0.252-1.556c-0.169-0.494-0.414-0.929-0.734-1.304s-0.718-0.674-1.192-0.897s-1.015-0.335-1.625-0.335
        c-0.61,0-1.152,0.111-1.625,0.335c-0.474,0.224-0.871,0.522-1.191,0.897c-0.321,0.375-0.566,0.81-0.734,1.304
        c-0.169,0.495-0.253,1.014-0.253,1.556c0,0.543,0.084,1.062,0.253,1.556c0.168,0.495,0.413,0.934,0.734,1.316
        c0.321,0.383,0.718,0.686,1.191,0.909c0.473,0.224,1.015,0.335,1.625,0.335c0.61,0,1.151-0.111,1.625-0.335
        s0.871-0.526,1.192-0.909s0.565-0.821,0.734-1.316C114.199,20.042,114.283,19.523,114.283,18.98z"/>
    <path fill="#666666" d="M119.251,14.577c-0.016-0.48-0.04-0.904-0.072-1.272h2.136c0.032,0.288,0.056,0.62,0.072,0.996
        c0.016,0.376,0.024,0.684,0.024,0.924h0.072c0.32-0.672,0.788-1.212,1.404-1.62c0.616-0.408,1.308-0.612,2.076-0.612
        c0.352,0,0.648,0.033,0.888,0.097l-0.096,2.088c-0.32-0.08-0.664-0.12-1.032-0.12c-0.544,0-1.016,0.101-1.416,0.3
        c-0.4,0.2-0.732,0.468-0.996,0.805c-0.264,0.336-0.46,0.724-0.588,1.163c-0.128,0.44-0.192,0.9-0.192,1.381v5.976h-2.256v-8.928
        C119.275,15.449,119.267,15.056,119.251,14.577z"/>
    <path fill="#666666" d="M128.419,26.625c0.496,0.56,1.116,1.008,1.86,1.344c0.744,0.336,1.508,0.504,2.292,0.504
        c0.752,0,1.384-0.108,1.896-0.324s0.924-0.512,1.236-0.888s0.536-0.82,0.672-1.332c0.136-0.513,0.204-1.064,0.204-1.656v-1.464
        h-0.048c-0.416,0.641-0.984,1.128-1.704,1.464c-0.72,0.336-1.488,0.504-2.304,0.504c-0.864,0-1.652-0.151-2.364-0.456
        c-0.712-0.304-1.316-0.72-1.812-1.248c-0.496-0.527-0.88-1.147-1.152-1.859s-0.408-1.477-0.408-2.292
        c0-0.816,0.136-1.584,0.408-2.305c0.272-0.72,0.656-1.348,1.152-1.884c0.496-0.535,1.096-0.96,1.8-1.271
        c0.704-0.312,1.488-0.469,2.352-0.469c0.816,0,1.596,0.177,2.34,0.528c0.744,0.353,1.332,0.888,1.764,1.608h0.048v-1.824h2.184
        v10.8c0,0.832-0.104,1.628-0.312,2.388c-0.208,0.76-0.56,1.433-1.056,2.017s-1.144,1.052-1.944,1.404
        c-0.8,0.352-1.792,0.527-2.976,0.527c-0.992,0-1.988-0.18-2.988-0.54c-1-0.359-1.86-0.868-2.58-1.523L128.419,26.625z
         M129.091,18.873c0,0.527,0.084,1.031,0.253,1.512c0.168,0.479,0.417,0.904,0.746,1.271c0.329,0.369,0.726,0.664,1.192,0.889
        c0.465,0.224,0.995,0.336,1.589,0.336c0.577,0,1.107-0.104,1.589-0.312c0.481-0.207,0.891-0.491,1.228-0.852
        s0.598-0.784,0.782-1.272c0.185-0.487,0.277-1.012,0.277-1.571c0-0.544-0.093-1.057-0.277-1.536
        c-0.185-0.48-0.449-0.904-0.794-1.272c-0.345-0.367-0.755-0.66-1.228-0.876c-0.474-0.216-1-0.324-1.577-0.324
        c-0.594,0-1.124,0.108-1.589,0.324c-0.466,0.216-0.863,0.504-1.192,0.864s-0.578,0.784-0.746,1.271
        C129.175,17.812,129.091,18.329,129.091,18.873z"/>
</g>
<g><a xlink:href="/" pointer-events="all" target="_top"><polygon fill="none" points="0,0 145,0 145,35 0,35 0,0"/></a></g>

</g>


<!-- AbsoluteValuable -->
<g id="node1" class="node">
<g id="a_node1"><a xlink:href="/v1.2/protocol/AbsoluteValuable/hierarchy/" target="_top">
<path fill="#999999" stroke="#999999" d="M769.558,-138C769.558,-138 682.442,-138 682.442,-138 678.775,-138 675.109,-134.333 675.109,-130.667 675.109,-130.667 675.109,-123.333 675.109,-123.333 675.109,-119.667 678.775,-116 682.442,-116 682.442,-116 769.558,-116 769.558,-116 773.225,-116 776.891,-119.667 776.891,-123.333 776.891,-123.333 776.891,-130.667 776.891,-130.667 776.891,-134.333 773.225,-138 769.558,-138"/>
<text text-anchor="middle" x="726" y="-123.4" font-family="Helvetica,sans-Serif" font-size="12.00" fill="white">AbsoluteValuable</text>
</a>
</g>
</g>
<!-- Double -->
<g id="node6" class="node">
<g id="a_node6"><a xlink:href="/v1.2/type/Double/hierarchy/" target="_top">
<polygon fill="#999999" stroke="#999999" points="648,-22 594,-22 594,-0 648,-0 648,-22"/>
<text text-anchor="middle" x="621" y="-7.4" font-family="Helvetica,sans-Serif" font-size="12.00" fill="white">Double</text>
</a>
</g>
</g>
<!-- AbsoluteValuable&#45;&gt;Double -->
<g id="edge46" class="edge">
<path fill="none" stroke="#cccccc" d="M674.96,-123.895C643.224,-119.621 604.652,-108.398 584,-80 572.262,-63.8585 586.592,-43.5623 600.697,-29.363"/>
<polygon fill="#cccccc" stroke="#cccccc" points="603.459,-31.5692 608.343,-22.1668 598.662,-26.4718 603.459,-31.5692"/>
</g>
<!-- Float -->
<g id="node7" class="node">
<g id="a_node7"><a xlink:href="/v1.2/type/Float/hierarchy/" target="_top">
<polygon fill="#999999" stroke="#999999" points="720,-22 666,-22 666,-0 720,-0 720,-22"/>
<text text-anchor="middle" x="693" y="-7.4" font-family="Helvetica,sans-Serif" font-size="12.00" fill="white">Float</text>
</a>
</g>
</g>
<!-- AbsoluteValuable&#45;&gt;Float -->
<g id="edge47" class="edge">
<path fill="none" stroke="#cccccc" d="M723.494,-115.812C720.169,-102.47 714.015,-78.3801 708,-58 705.454,-49.3733 702.413,-39.9155 699.738,-31.831"/>
<polygon fill="#cccccc" stroke="#cccccc" points="702.999,-30.5487 696.502,-22.1797 696.362,-32.7736 702.999,-30.5487"/>
</g>
<!-- Float80 -->
<g id="node8" class="node">
<g id="a_node8"><a xlink:href="/v1.2/type/Float80/hierarchy/" target="_top">
<polygon fill="#999999" stroke="#999999" points="792,-22 738,-22 738,-0 792,-0 792,-22"/>
<text text-anchor="middle" x="765" y="-7.4" font-family="Helvetica,sans-Serif" font-size="12.00" fill="white">Float80</text>
</a>
</g>
</g>
<!-- AbsoluteValuable&#45;&gt;Float80 -->
<g id="edge48" class="edge">
<path fill="none" stroke="#cccccc" d="M729.461,-115.883C735.892,-97.086 749.789,-56.4627 758.173,-31.9559"/>
<polygon fill="#cccccc" stroke="#cccccc" points="761.565,-32.8525 761.491,-22.2579 754.942,-30.5867 761.565,-32.8525"/>
</g>
<!-- Bit -->
<g id="node2" class="node">
<g id="a_node2"><a xlink:href="/v1.2/type/Bit/hierarchy/" target="_top">
<polygon fill="#999999" stroke="#999999" points="1224,-22 1170,-22 1170,-0 1224,-0 1224,-22"/>
<text text-anchor="middle" x="1197" y="-7.4" font-family="Helvetica,sans-Serif" font-size="12.00" fill="white">Bit</text>
</a>
</g>
</g>
<!-- Character -->
<g id="node3" class="node">
<g id="a_node3"><a xlink:href="/v1.2/type/Character/hierarchy/" target="_top">
<polygon fill="#999999" stroke="#999999" points="1664.02,-22 1601.98,-22 1601.98,-0 1664.02,-0 1664.02,-22"/>
<text text-anchor="middle" x="1633" y="-7.4" font-family="Helvetica,sans-Serif" font-size="12.00" fill="white">Character</text>
</a>
</g>
</g>
<!-- Comparable -->
<g id="node4" class="node">
<g id="a_node4"><a xlink:href="/v1.2/protocol/Comparable/hierarchy/" target="_top">
<path fill="#999999" stroke="#999999" d="M1869.19,-370C1869.19,-370 1808.81,-370 1808.81,-370 1805.14,-370 1801.48,-366.333 1801.48,-362.667 1801.48,-362.667 1801.48,-355.333 1801.48,-355.333 1801.48,-351.667 1805.14,-348 1808.81,-348 1808.81,-348 1869.19,-348 1869.19,-348 1872.86,-348 1876.52,-351.667 1876.52,-355.333 1876.52,-355.333 1876.52,-362.667 1876.52,-362.667 1876.52,-366.333 1872.86,-370 1869.19,-370"/>
<text text-anchor="middle" x="1839" y="-355.4" font-family="Helvetica,sans-Serif" font-size="12.00" fill="white">Comparable</text>
</a>
</g>
</g>
<!-- Comparable&#45;&gt;Character -->
<g id="edge2" class="edge">
<path fill="none" stroke="#cccccc" d="M1801.22,-354.144C1741.75,-345.757 1633,-320.028 1633,-244 1633,-244 1633,-244 1633,-126 1633,-93.1536 1633,-54.9837 1633,-32.197"/>
<polygon fill="#cccccc" stroke="#cccccc" points="1636.5,-32.0648 1633,-22.0648 1629.5,-32.0648 1636.5,-32.0648"/>
</g>
<!-- DictionaryIndex -->
<g id="node5" class="node">
<g id="a_node5"><a xlink:href="/v1.2/type/DictionaryIndex/hierarchy/" target="_top">
<polygon fill="#999999" stroke="#999999" points="1775.03,-22 1682.97,-22 1682.97,-0 1775.03,-0 1775.03,-22"/>
<text text-anchor="middle" x="1729" y="-7.4" font-family="Helvetica,sans-Serif" font-size="12.00" fill="white">DictionaryIndex</text>
</a>
</g>
</g>
<!-- Comparable&#45;&gt;DictionaryIndex -->
<g id="edge3" class="edge">
<path fill="none" stroke="#cccccc" d="M1817.53,-347.892C1785.52,-331.158 1729,-294.468 1729,-244 1729,-244 1729,-244 1729,-126 1729,-93.1536 1729,-54.9837 1729,-32.197"/>
<polygon fill="#cccccc" stroke="#cccccc" points="1732.5,-32.0648 1729,-22.0648 1725.5,-32.0648 1732.5,-32.0648"/>
</g>
<!-- IntegerArithmeticType -->
<g id="node15" class="node">
<g id="a_node15"><a xlink:href="/v1.2/protocol/IntegerArithmeticType/hierarchy/" target="_top">
<path fill="#999999" stroke="#999999" d="M1499.71,-254C1499.71,-254 1388.29,-254 1388.29,-254 1384.62,-254 1380.96,-250.333 1380.96,-246.667 1380.96,-246.667 1380.96,-239.333 1380.96,-239.333 1380.96,-235.667 1384.62,-232 1388.29,-232 1388.29,-232 1499.71,-232 1499.71,-232 1503.38,-232 1507.04,-235.667 1507.04,-239.333 1507.04,-239.333 1507.04,-246.667 1507.04,-246.667 1507.04,-250.333 1503.38,-254 1499.71,-254"/>
<text text-anchor="middle" x="1444" y="-239.4" font-family="Helvetica,sans-Serif" font-size="12.00" fill="white">IntegerArithmeticType</text>
</a>
</g>
</g>
<!-- Comparable&#45;&gt;IntegerArithmeticType -->
<g id="edge4" class="edge">
<path fill="none" stroke="#cccccc" d="M1801.56,-352.105C1757.4,-344.711 1682.03,-330.698 1619,-312 1567.81,-296.814 1510.47,-273.216 1475.81,-258.192"/>
<polygon fill="#cccccc" stroke="#cccccc" points="1476.81,-254.806 1466.24,-254.009 1474,-261.221 1476.81,-254.806"/>
</g>
<!-- ObjectIdentifier -->
<g id="node17" class="node">
<g id="a_node17"><a xlink:href="/v1.2/type/ObjectIdentifier/hierarchy/" target="_top">
<polygon fill="#999999" stroke="#999999" points="1884.03,-22 1793.97,-22 1793.97,-0 1884.03,-0 1884.03,-22"/>
<text text-anchor="middle" x="1839" y="-7.4" font-family="Helvetica,sans-Serif" font-size="12.00" fill="white">ObjectIdentifier</text>
</a>
</g>
</g>
<!-- Comparable&#45;&gt;ObjectIdentifier -->
<g id="edge5" class="edge">
<path fill="none" stroke="#cccccc" d="M1839,-347.935C1839,-328.066 1839,-282.396 1839,-244 1839,-244 1839,-244 1839,-126 1839,-93.1536 1839,-54.9837 1839,-32.197"/>
<polygon fill="#cccccc" stroke="#cccccc" points="1842.5,-32.0648 1839,-22.0648 1835.5,-32.0648 1842.5,-32.0648"/>
</g>
<!-- SetIndex -->
<g id="node20" class="node">
<g id="a_node20"><a xlink:href="/v1.2/type/SetIndex/hierarchy/" target="_top">
<polygon fill="#999999" stroke="#999999" points="1959.52,-22 1902.48,-22 1902.48,-0 1959.52,-0 1959.52,-22"/>
<text text-anchor="middle" x="1931" y="-7.4" font-family="Helvetica,sans-Serif" font-size="12.00" fill="white">SetIndex</text>
</a>
</g>
</g>
<!-- Comparable&#45;&gt;SetIndex -->
<g id="edge6" class="edge">
<path fill="none" stroke="#cccccc" d="M1855.45,-347.984C1881.91,-330.466 1931,-291.559 1931,-244 1931,-244 1931,-244 1931,-126 1931,-93.1536 1931,-54.9837 1931,-32.197"/>
<polygon fill="#cccccc" stroke="#cccccc" points="1934.5,-32.0648 1931,-22.0648 1927.5,-32.0648 1934.5,-32.0648"/>
</g>
<!-- Strideable -->
<g id="node23" class="node">
<g id="a_node23"><a xlink:href="/v1.2/protocol/Strideable/hierarchy/" target="_top">
<path fill="#999999" stroke="#999999" d="M750.693,-312C750.693,-312 701.307,-312 701.307,-312 697.64,-312 693.974,-308.333 693.974,-304.667 693.974,-304.667 693.974,-297.333 693.974,-297.333 693.974,-293.667 697.64,-290 701.307,-290 701.307,-290 750.693,-290 750.693,-290 754.36,-290 758.026,-293.667 758.026,-297.333 758.026,-297.333 758.026,-304.667 758.026,-304.667 758.026,-308.333 754.36,-312 750.693,-312"/>
<text text-anchor="middle" x="726" y="-297.4" font-family="Helvetica,sans-Serif" font-size="12.00" fill="white">Strideable</text>
</a>
</g>
</g>
<!-- Comparable&#45;&gt;Strideable -->
<g id="edge7" class="edge">
<path fill="none" stroke="#cccccc" d="M1801.65,-356.121C1633.37,-347.654 946.126,-313.076 768.214,-304.124"/>
<polygon fill="#cccccc" stroke="#cccccc" points="768.36,-300.627 758.197,-303.62 768.008,-307.618 768.36,-300.627"/>
</g>
<!-- String -->
<g id="node24" class="node">
<g id="a_node24"><a xlink:href="/v1.2/type/String/hierarchy/" target="_top">
<polygon fill="#999999" stroke="#999999" points="2032,-22 1978,-22 1978,-0 2032,-0 2032,-22"/>
<text text-anchor="middle" x="2005" y="-7.4" font-family="Helvetica,sans-Serif" font-size="12.00" fill="white">String</text>
</a>
</g>
</g>
<!-- Comparable&#45;&gt;String -->
<g id="edge8" class="edge">
<path fill="none" stroke="#cccccc" d="M1876.67,-349.81C1925.64,-336.689 2005,-305.881 2005,-244 2005,-244 2005,-244 2005,-126 2005,-93.1536 2005,-54.9837 2005,-32.197"/>
<polygon fill="#cccccc" stroke="#cccccc" points="2008.5,-32.0648 2005,-22.0648 2001.5,-32.0648 2008.5,-32.0648"/>
</g>
<!-- String.Index -->
<g id="node25" class="node">
<g id="a_node25"><a xlink:href="/v1.2/type/String.Index/hierarchy/" target="_top">
<polygon fill="#999999" stroke="#999999" points="2124.03,-22 2049.97,-22 2049.97,-0 2124.03,-0 2124.03,-22"/>
<text text-anchor="middle" x="2087" y="-7.4" font-family="Helvetica,sans-Serif" font-size="12.00" fill="white">String.Index</text>
</a>
</g>
</g>
<!-- Comparable&#45;&gt;String.Index -->
<g id="edge11" class="edge">
<path fill="none" stroke="#cccccc" d="M1876.4,-357.316C1945.68,-353.856 2087,-335.575 2087,-244 2087,-244 2087,-244 2087,-126 2087,-93.1536 2087,-54.9837 2087,-32.197"/>
<polygon fill="#cccccc" stroke="#cccccc" points="2090.5,-32.0648 2087,-22.0648 2083.5,-32.0648 2090.5,-32.0648"/>
</g>
<!-- String.UnicodeScalarView.Index -->
<g id="node27" class="node">
<g id="a_node27"><a xlink:href="/v1.2/type/String.UnicodeScalarView.Index/hierarchy/" target="_top">
<polygon fill="#999999" stroke="#999999" points="2321.92,-22 2142.08,-22 2142.08,-0 2321.92,-0 2321.92,-22"/>
<text text-anchor="middle" x="2232" y="-7.4" font-family="Helvetica,sans-Serif" font-size="12.00" fill="white">String.UnicodeScalarView.Index</text>
</a>
</g>
</g>
<!-- Comparable&#45;&gt;String.UnicodeScalarView.Index -->
<g id="edge12" class="edge">
<path fill="none" stroke="#cccccc" d="M1876.68,-355.151C1975.05,-346.683 2232,-317.528 2232,-244 2232,-244 2232,-244 2232,-126 2232,-93.1536 2232,-54.9837 2232,-32.197"/>
<polygon fill="#cccccc" stroke="#cccccc" points="2235.5,-32.0648 2232,-22.0648 2228.5,-32.0648 2235.5,-32.0648"/>
</g>
<!-- UnicodeScalar -->
<g id="node33" class="node">
<g id="a_node33"><a xlink:href="/v1.2/type/UnicodeScalar/hierarchy/" target="_top">
<polygon fill="#999999" stroke="#999999" points="2428.03,-22 2339.97,-22 2339.97,-0 2428.03,-0 2428.03,-22"/>
<text text-anchor="middle" x="2384" y="-7.4" font-family="Helvetica,sans-Serif" font-size="12.00" fill="white">UnicodeScalar</text>
</a>
</g>
</g>
<!-- Comparable&#45;&gt;UnicodeScalar -->
<g id="edge9" class="edge">
<path fill="none" stroke="#cccccc" d="M1876.46,-358.161C1999.59,-357.694 2384,-347.916 2384,-244 2384,-244 2384,-244 2384,-126 2384,-93.1536 2384,-54.9837 2384,-32.197"/>
<polygon fill="#cccccc" stroke="#cccccc" points="2387.5,-32.0648 2384,-22.0648 2380.5,-32.0648 2387.5,-32.0648"/>
</g>
<!-- _SignedNumberType -->
<g id="node41" class="node">
<g id="a_node41"><a xlink:href="/v1.2/protocol/_SignedNumberType/hierarchy/" target="_top">
<path fill="#999999" stroke="#999999" d="M1310.72,-312C1310.72,-312 1203.28,-312 1203.28,-312 1199.61,-312 1195.94,-308.333 1195.94,-304.667 1195.94,-304.667 1195.94,-297.333 1195.94,-297.333 1195.94,-293.667 1199.61,-290 1203.28,-290 1203.28,-290 1310.72,-290 1310.72,-290 1314.39,-290 1318.06,-293.667 1318.06,-297.333 1318.06,-297.333 1318.06,-304.667 1318.06,-304.667 1318.06,-308.333 1314.39,-312 1310.72,-312"/>
<text text-anchor="middle" x="1257" y="-297.4" font-family="Helvetica,sans-Serif" font-size="12.00" fill="white">_SignedNumberType</text>
</a>
</g>
</g>
<!-- Comparable&#45;&gt;_SignedNumberType -->
<g id="edge10" class="edge">
<path fill="none" stroke="#cccccc" d="M1801.26,-354.369C1705.71,-345.175 1452.99,-320.858 1328.44,-308.874"/>
<polygon fill="#cccccc" stroke="#cccccc" points="1328.54,-305.367 1318.25,-307.893 1327.87,-312.335 1328.54,-305.367"/>
</g>
<!-- FloatingPointType -->
<g id="node9" class="node">
<g id="a_node9"><a xlink:href="/v1.2/protocol/FloatingPointType/hierarchy/" target="_top">
<path fill="#999999" stroke="#999999" d="M691.715,-80C691.715,-80 600.285,-80 600.285,-80 596.618,-80 592.952,-76.3333 592.952,-72.6667 592.952,-72.6667 592.952,-65.3333 592.952,-65.3333 592.952,-61.6667 596.618,-58 600.285,-58 600.285,-58 691.715,-58 691.715,-58 695.382,-58 699.048,-61.6667 699.048,-65.3333 699.048,-65.3333 699.048,-72.6667 699.048,-72.6667 699.048,-76.3333 695.382,-80 691.715,-80"/>
<text text-anchor="middle" x="646" y="-65.4" font-family="Helvetica,sans-Serif" font-size="12.00" fill="white">FloatingPointType</text>
</a>
</g>
</g>
<!-- FloatingPointType&#45;&gt;Double -->
<g id="edge35" class="edge">
<path fill="none" stroke="#cccccc" d="M641.531,-57.9883C638.265,-50.6738 633.732,-40.5192 629.755,-31.6122"/>
<polygon fill="#cccccc" stroke="#cccccc" points="632.872,-30.0085 625.6,-22.3039 626.481,-32.8621 632.872,-30.0085"/>
</g>
<!-- FloatingPointType&#45;&gt;Float -->
<g id="edge36" class="edge">
<path fill="none" stroke="#cccccc" d="M654.403,-57.9883C660.872,-50.2806 669.988,-39.4191 677.736,-30.187"/>
<polygon fill="#cccccc" stroke="#cccccc" points="680.604,-32.2137 684.352,-22.3039 675.242,-27.7136 680.604,-32.2137"/>
</g>
<!-- Int -->
<g id="node10" class="node">
<g id="a_node10"><a xlink:href="/v1.2/type/Int/hierarchy/" target="_top">
<polygon fill="#999999" stroke="#999999" points="1008,-22 954,-22 954,-0 1008,-0 1008,-22"/>
<text text-anchor="middle" x="981" y="-7.4" font-family="Helvetica,sans-Serif" font-size="12.00" fill="white">Int</text>
</a>
</g>
</g>
<!-- Int&#45;&gt;Bit -->
<g id="edge24" class="edge">
<path fill="none" stroke="#cccccc" d="M993.779,-22.0854C1002.28,-28.7029 1014.05,-36.4837 1026,-40 1079.72,-55.8109 1098.28,-55.8109 1152,-40 1160.4,-37.5276 1168.71,-32.9469 1175.86,-28.1447"/>
<polygon fill="#cccccc" stroke="#cccccc" points="1178.18,-30.7891 1184.22,-22.0854 1174.07,-25.122 1178.18,-30.7891"/>
</g>
<!-- Int16 -->
<g id="node11" class="node">
<g id="a_node11"><a xlink:href="/v1.2/type/Int16/hierarchy/" target="_top">
<polygon fill="#999999" stroke="#999999" points="1080,-22 1026,-22 1026,-0 1080,-0 1080,-22"/>
<text text-anchor="middle" x="1053" y="-7.4" font-family="Helvetica,sans-Serif" font-size="12.00" fill="white">Int16</text>
</a>
</g>
</g>
<!-- Int32 -->
<g id="node12" class="node">
<g id="a_node12"><a xlink:href="/v1.2/type/Int32/hierarchy/" target="_top">
<polygon fill="#999999" stroke="#999999" points="1152,-22 1098,-22 1098,-0 1152,-0 1152,-22"/>
<text text-anchor="middle" x="1125" y="-7.4" font-family="Helvetica,sans-Serif" font-size="12.00" fill="white">Int32</text>
</a>
</g>
</g>
<!-- Int64 -->
<g id="node13" class="node">
<g id="a_node13"><a xlink:href="/v1.2/type/Int64/hierarchy/" target="_top">
<polygon fill="#999999" stroke="#999999" points="864,-22 810,-22 810,-0 864,-0 864,-22"/>
<text text-anchor="middle" x="837" y="-7.4" font-family="Helvetica,sans-Serif" font-size="12.00" fill="white">Int64</text>
</a>
</g>
</g>
<!-- Int8 -->
<g id="node14" class="node">
<g id="a_node14"><a xlink:href="/v1.2/type/Int8/hierarchy/" target="_top">
<polygon fill="#999999" stroke="#999999" points="936,-22 882,-22 882,-0 936,-0 936,-22"/>
<text text-anchor="middle" x="909" y="-7.4" font-family="Helvetica,sans-Serif" font-size="12.00" fill="white">Int8</text>
</a>
</g>
</g>
<!-- _IntegerType -->
<g id="node38" class="node">
<g id="a_node38"><a xlink:href="/v1.2/protocol/_IntegerType/hierarchy/" target="_top">
<path fill="#999999" stroke="#999999" d="M1279.71,-196C1279.71,-196 1214.29,-196 1214.29,-196 1210.63,-196 1206.96,-192.333 1206.96,-188.667 1206.96,-188.667 1206.96,-181.333 1206.96,-181.333 1206.96,-177.667 1210.63,-174 1214.29,-174 1214.29,-174 1279.71,-174 1279.71,-174 1283.37,-174 1287.04,-177.667 1287.04,-181.333 1287.04,-181.333 1287.04,-188.667 1287.04,-188.667 1287.04,-192.333 1283.37,-196 1279.71,-196"/>
<text text-anchor="middle" x="1247" y="-181.4" font-family="Helvetica,sans-Serif" font-size="12.00" fill="white">_IntegerType</text>
</a>
</g>
</g>
<!-- IntegerArithmeticType&#45;&gt;_IntegerType -->
<g id="edge13" class="edge">
<path fill="none" stroke="#cccccc" d="M1408.78,-231.988C1376.11,-222.7 1327.32,-208.832 1291.87,-198.754"/>
<polygon fill="#cccccc" stroke="#cccccc" points="1292.82,-195.387 1282.25,-196.019 1290.91,-202.12 1292.82,-195.387"/>
</g>
<!-- IntegerType -->
<g id="node16" class="node">
<g id="a_node16"><a xlink:href="/v1.2/protocol/IntegerType/hierarchy/" target="_top">
<path fill="#999999" stroke="#999999" d="M1209.2,-138C1209.2,-138 1150.8,-138 1150.8,-138 1147.13,-138 1143.47,-134.333 1143.47,-130.667 1143.47,-130.667 1143.47,-123.333 1143.47,-123.333 1143.47,-119.667 1147.13,-116 1150.8,-116 1150.8,-116 1209.2,-116 1209.2,-116 1212.87,-116 1216.53,-119.667 1216.53,-123.333 1216.53,-123.333 1216.53,-130.667 1216.53,-130.667 1216.53,-134.333 1212.87,-138 1209.2,-138"/>
<text text-anchor="middle" x="1180" y="-123.4" font-family="Helvetica,sans-Serif" font-size="12.00" fill="white">IntegerType</text>
</a>
</g>
</g>
<!-- SignedIntegerType -->
<g id="node21" class="node">
<g id="a_node21"><a xlink:href="/v1.2/protocol/SignedIntegerType/hierarchy/" target="_top">
<path fill="#999999" stroke="#999999" d="M1100.73,-80C1100.73,-80 1005.27,-80 1005.27,-80 1001.61,-80 997.94,-76.3333 997.94,-72.6667 997.94,-72.6667 997.94,-65.3333 997.94,-65.3333 997.94,-61.6667 1001.61,-58 1005.27,-58 1005.27,-58 1100.73,-58 1100.73,-58 1104.39,-58 1108.06,-61.6667 1108.06,-65.3333 1108.06,-65.3333 1108.06,-72.6667 1108.06,-72.6667 1108.06,-76.3333 1104.39,-80 1100.73,-80"/>
<text text-anchor="middle" x="1053" y="-65.4" font-family="Helvetica,sans-Serif" font-size="12.00" fill="white">SignedIntegerType</text>
</a>
</g>
</g>
<!-- IntegerType&#45;&gt;SignedIntegerType -->
<g id="edge17" class="edge">
<path fill="none" stroke="#cccccc" d="M1157.29,-115.988C1137.19,-107.124 1107.63,-94.0897 1085.11,-84.1587"/>
<polygon fill="#cccccc" stroke="#cccccc" points="1086.5,-80.946 1075.94,-80.1138 1083.67,-87.351 1086.5,-80.946"/>
</g>
<!-- UnsignedIntegerType -->
<g id="node36" class="node">
<g id="a_node36"><a xlink:href="/v1.2/protocol/UnsignedIntegerType/hierarchy/" target="_top">
<path fill="#999999" stroke="#999999" d="M1395.73,-80C1395.73,-80 1286.27,-80 1286.27,-80 1282.61,-80 1278.94,-76.3333 1278.94,-72.6667 1278.94,-72.6667 1278.94,-65.3333 1278.94,-65.3333 1278.94,-61.6667 1282.61,-58 1286.27,-58 1286.27,-58 1395.73,-58 1395.73,-58 1399.39,-58 1403.06,-61.6667 1403.06,-65.3333 1403.06,-65.3333 1403.06,-72.6667 1403.06,-72.6667 1403.06,-76.3333 1399.39,-80 1395.73,-80"/>
<text text-anchor="middle" x="1341" y="-65.4" font-family="Helvetica,sans-Serif" font-size="12.00" fill="white">UnsignedIntegerType</text>
</a>
</g>
</g>
<!-- IntegerType&#45;&gt;UnsignedIntegerType -->
<g id="edge18" class="edge">
<path fill="none" stroke="#cccccc" d="M1208.78,-115.988C1234.92,-106.898 1273.66,-93.4223 1302.46,-83.4053"/>
<polygon fill="#cccccc" stroke="#cccccc" points="1303.9,-86.6103 1312.19,-80.0192 1301.6,-79.9988 1303.9,-86.6103"/>
</g>
<!-- RandomAccessIndexType -->
<g id="node18" class="node">
<g id="a_node18"><a xlink:href="/v1.2/protocol/RandomAccessIndexType/hierarchy/" target="_top">
<path fill="#999999" stroke="#999999" d="M461.225,-196C461.225,-196 326.775,-196 326.775,-196 323.108,-196 319.441,-192.333 319.441,-188.667 319.441,-188.667 319.441,-181.333 319.441,-181.333 319.441,-177.667 323.108,-174 326.775,-174 326.775,-174 461.225,-174 461.225,-174 464.892,-174 468.559,-177.667 468.559,-181.333 468.559,-181.333 468.559,-188.667 468.559,-188.667 468.559,-192.333 464.892,-196 461.225,-196"/>
<text text-anchor="middle" x="394" y="-181.4" font-family="Helvetica,sans-Serif" font-size="12.00" fill="white">RandomAccessIndexType</text>
</a>
</g>
</g>
<!-- RandomAccessIndexType&#45;&gt;IntegerType -->
<g id="edge38" class="edge">
<path fill="none" stroke="#cccccc" d="M468.416,-182.371C601.173,-178.79 887.404,-168.004 1127,-138 1129.19,-137.726 1131.42,-137.417 1133.68,-137.083"/>
<polygon fill="#cccccc" stroke="#cccccc" points="1134.29,-140.531 1143.6,-135.482 1133.17,-133.62 1134.29,-140.531"/>
</g>
<!-- ReverseRandomAccessIndex -->
<g id="node19" class="node">
<g id="a_node19"><a xlink:href="/v1.2/type/ReverseRandomAccessIndex/hierarchy/" target="_top">
<polygon fill="#999999" stroke="#999999" points="430.056,-22 261.944,-22 261.944,-0 430.056,-0 430.056,-22"/>
<text text-anchor="middle" x="346" y="-7.4" font-family="Helvetica,sans-Serif" font-size="12.00" fill="white">ReverseRandomAccessIndex</text>
</a>
</g>
</g>
<!-- RandomAccessIndexType&#45;&gt;ReverseRandomAccessIndex -->
<g id="edge39" class="edge">
<path fill="none" stroke="#cccccc" d="M391.141,-173.756C383.389,-145.978 361.865,-68.848 351.593,-32.0425"/>
<polygon fill="#cccccc" stroke="#cccccc" points="354.964,-31.0992 348.905,-22.4081 348.221,-32.9809 354.964,-31.0992"/>
</g>
<!-- String.UTF16View.Index -->
<g id="node26" class="node">
<g id="a_node26"><a xlink:href="/v1.2/type/String.UTF16View.Index/hierarchy/" target="_top">
<polygon fill="#999999" stroke="#999999" points="243.39,-22 104.61,-22 104.61,-0 243.39,-0 243.39,-22"/>
<text text-anchor="middle" x="174" y="-7.4" font-family="Helvetica,sans-Serif" font-size="12.00" fill="white">String.UTF16View.Index</text>
</a>
</g>
</g>
<!-- RandomAccessIndexType&#45;&gt;String.UTF16View.Index -->
<g id="edge42" class="edge">
<path fill="none" stroke="#cccccc" d="M380.897,-173.756C344.137,-145.016 239.803,-63.446 194.935,-28.3671"/>
<polygon fill="#cccccc" stroke="#cccccc" points="197.068,-25.5925 187.034,-22.1906 192.757,-31.1072 197.068,-25.5925"/>
</g>
<!-- UnsafeMutablePointer -->
<g id="node34" class="node">
<g id="a_node34"><a xlink:href="/v1.2/type/UnsafeMutablePointer/hierarchy/" target="_top">
<polygon fill="#999999" stroke="#999999" points="576.051,-22 447.949,-22 447.949,-0 576.051,-0 576.051,-22"/>
<text text-anchor="middle" x="512" y="-7.4" font-family="Helvetica,sans-Serif" font-size="12.00" fill="white">UnsafeMutablePointer</text>
</a>
</g>
</g>
<!-- RandomAccessIndexType&#45;&gt;UnsafeMutablePointer -->
<g id="edge40" class="edge">
<path fill="none" stroke="#cccccc" d="M401.028,-173.756C420.248,-145.74 473.911,-67.5202 498.894,-31.1037"/>
<polygon fill="#cccccc" stroke="#cccccc" points="502.088,-32.6341 504.86,-22.4081 496.316,-28.6741 502.088,-32.6341"/>
</g>
<!-- UnsafePointer -->
<g id="node35" class="node">
<g id="a_node35"><a xlink:href="/v1.2/type/UnsafePointer/hierarchy/" target="_top">
<polygon fill="#999999" stroke="#999999" points="86.0322,-22 -0.0322319,-22 -0.0322319,-0 86.0322,-0 86.0322,-22"/>
<text text-anchor="middle" x="43" y="-7.4" font-family="Helvetica,sans-Serif" font-size="12.00" fill="white">UnsafePointer</text>
</a>
</g>
</g>
<!-- RandomAccessIndexType&#45;&gt;UnsafePointer -->
<g id="edge41" class="edge">
<path fill="none" stroke="#cccccc" d="M373.354,-173.883C313.986,-144.791 142.625,-60.8189 72.9721,-26.6872"/>
<polygon fill="#cccccc" stroke="#cccccc" points="74.361,-23.4702 63.8411,-22.2127 71.2807,-29.7561 74.361,-23.4702"/>
</g>
<!-- SignedIntegerType&#45;&gt;Int -->
<g id="edge19" class="edge">
<path fill="none" stroke="#cccccc" d="M1040.13,-57.9883C1029.61,-49.8087 1014.53,-38.0773 1002.23,-28.5108"/>
<polygon fill="#cccccc" stroke="#cccccc" points="1004.29,-25.6806 994.248,-22.3039 999.993,-31.2061 1004.29,-25.6806"/>
</g>
<!-- SignedIntegerType&#45;&gt;Int16 -->
<g id="edge20" class="edge">
<path fill="none" stroke="#cccccc" d="M1053,-57.9883C1053,-50.9098 1053,-41.1714 1053,-32.4779"/>
<polygon fill="#cccccc" stroke="#cccccc" points="1056.5,-32.3038 1053,-22.3039 1049.5,-32.3039 1056.5,-32.3038"/>
</g>
<!-- SignedIntegerType&#45;&gt;Int32 -->
<g id="edge21" class="edge">
<path fill="none" stroke="#cccccc" d="M1065.87,-57.9883C1076.39,-49.8087 1091.47,-38.0773 1103.77,-28.5108"/>
<polygon fill="#cccccc" stroke="#cccccc" points="1106.01,-31.2061 1111.75,-22.3039 1101.71,-25.6806 1106.01,-31.2061"/>
</g>
<!-- SignedIntegerType&#45;&gt;Int64 -->
<g id="edge22" class="edge">
<path fill="none" stroke="#cccccc" d="M1012.55,-57.9168C978.164,-49.2898 927.242,-36.3793 874.063,-22.2477"/>
<polygon fill="#cccccc" stroke="#cccccc" points="874.674,-18.7885 864.11,-19.5955 872.872,-25.5525 874.674,-18.7885"/>
</g>
<!-- SignedIntegerType&#45;&gt;Int8 -->
<g id="edge23" class="edge">
<path fill="none" stroke="#cccccc" d="M1027.26,-57.9883C1004.16,-49.0057 970.045,-35.7398 944.386,-25.7614"/>
<polygon fill="#cccccc" stroke="#cccccc" points="945.596,-22.4763 935.007,-22.1138 943.058,-29.0004 945.596,-22.4763"/>
</g>
<!-- SignedNumberType -->
<g id="node22" class="node">
<g id="a_node22"><a xlink:href="/v1.2/protocol/SignedNumberType/hierarchy/" target="_top">
<path fill="#999999" stroke="#999999" d="M1110.72,-196C1110.72,-196 1009.28,-196 1009.28,-196 1005.62,-196 1001.95,-192.333 1001.95,-188.667 1001.95,-188.667 1001.95,-181.333 1001.95,-181.333 1001.95,-177.667 1005.62,-174 1009.28,-174 1009.28,-174 1110.72,-174 1110.72,-174 1114.38,-174 1118.05,-177.667 1118.05,-181.333 1118.05,-181.333 1118.05,-188.667 1118.05,-188.667 1118.05,-192.333 1114.38,-196 1110.72,-196"/>
<text text-anchor="middle" x="1060" y="-181.4" font-family="Helvetica,sans-Serif" font-size="12.00" fill="white">SignedNumberType</text>
</a>
</g>
</g>
<!-- SignedNumberType&#45;&gt;AbsoluteValuable -->
<g id="edge44" class="edge">
<path fill="none" stroke="#cccccc" d="M1001.82,-174.246C941.626,-164.153 848.021,-148.459 786.857,-138.203"/>
<polygon fill="#cccccc" stroke="#cccccc" points="787.396,-134.745 776.955,-136.543 786.238,-141.649 787.396,-134.745"/>
</g>
<!-- _SignedIntegerType -->
<g id="node40" class="node">
<g id="a_node40"><a xlink:href="/v1.2/protocol/_SignedIntegerType/hierarchy/" target="_top">
<path fill="#999999" stroke="#999999" d="M1111.23,-138C1111.23,-138 1008.77,-138 1008.77,-138 1005.1,-138 1001.44,-134.333 1001.44,-130.667 1001.44,-130.667 1001.44,-123.333 1001.44,-123.333 1001.44,-119.667 1005.1,-116 1008.77,-116 1008.77,-116 1111.23,-116 1111.23,-116 1114.9,-116 1118.56,-119.667 1118.56,-123.333 1118.56,-123.333 1118.56,-130.667 1118.56,-130.667 1118.56,-134.333 1114.9,-138 1111.23,-138"/>
<text text-anchor="middle" x="1060" y="-123.4" font-family="Helvetica,sans-Serif" font-size="12.00" fill="white">_SignedIntegerType</text>
</a>
</g>
</g>
<!-- SignedNumberType&#45;&gt;_SignedIntegerType -->
<g id="edge45" class="edge">
<path fill="none" stroke="#cccccc" d="M1060,-173.988C1060,-166.91 1060,-157.171 1060,-148.478"/>
<polygon fill="#cccccc" stroke="#cccccc" points="1063.5,-148.304 1060,-138.304 1056.5,-148.304 1063.5,-148.304"/>
</g>
<!-- Strideable&#45;&gt;Float80 -->
<g id="edge32" class="edge">
<path fill="none" stroke="#cccccc" d="M739.761,-289.725C762.395,-271.53 805,-231.269 805,-186 805,-186 805,-186 805,-126 805,-91.0772 788.08,-53.3584 776.249,-31.2532"/>
<polygon fill="#cccccc" stroke="#cccccc" points="779.168,-29.3012 771.25,-22.2616 773.05,-32.7025 779.168,-29.3012"/>
</g>
<!-- Strideable&#45;&gt;FloatingPointType -->
<g id="edge33" class="edge">
<path fill="none" stroke="#cccccc" d="M721.964,-289.851C711.928,-264.463 685.268,-196.071 666,-138 660.679,-121.965 655.313,-103.57 651.481,-89.9593"/>
<polygon fill="#cccccc" stroke="#cccccc" points="654.819,-88.9011 648.766,-80.2057 648.075,-90.778 654.819,-88.9011"/>
</g>
<!-- _RandomAccessIndexType -->
<g id="node39" class="node">
<g id="a_node39"><a xlink:href="/v1.2/protocol/_RandomAccessIndexType/hierarchy/" target="_top">
<path fill="#999999" stroke="#999999" d="M513.731,-254C513.731,-254 372.269,-254 372.269,-254 368.602,-254 364.936,-250.333 364.936,-246.667 364.936,-246.667 364.936,-239.333 364.936,-239.333 364.936,-235.667 368.602,-232 372.269,-232 372.269,-232 513.731,-232 513.731,-232 517.398,-232 521.064,-235.667 521.064,-239.333 521.064,-239.333 521.064,-246.667 521.064,-246.667 521.064,-250.333 517.398,-254 513.731,-254"/>
<text text-anchor="middle" x="443" y="-239.4" font-family="Helvetica,sans-Serif" font-size="12.00" fill="white">_RandomAccessIndexType</text>
</a>
</g>
</g>
<!-- Strideable&#45;&gt;_RandomAccessIndexType -->
<g id="edge34" class="edge">
<path fill="none" stroke="#cccccc" d="M693.812,-293.631C647.66,-284.498 561.84,-267.516 503.583,-255.988"/>
<polygon fill="#cccccc" stroke="#cccccc" points="504.252,-252.553 493.763,-254.045 502.893,-259.42 504.252,-252.553"/>
</g>
<!-- UInt -->
<g id="node28" class="node">
<g id="a_node28"><a xlink:href="/v1.2/type/UInt/hierarchy/" target="_top">
<polygon fill="#999999" stroke="#999999" points="1512,-22 1458,-22 1458,-0 1512,-0 1512,-22"/>
<text text-anchor="middle" x="1485" y="-7.4" font-family="Helvetica,sans-Serif" font-size="12.00" fill="white">UInt</text>
</a>
</g>
</g>
<!-- UInt16 -->
<g id="node29" class="node">
<g id="a_node29"><a xlink:href="/v1.2/type/UInt16/hierarchy/" target="_top">
<polygon fill="#999999" stroke="#999999" points="1584,-22 1530,-22 1530,-0 1584,-0 1584,-22"/>
<text text-anchor="middle" x="1557" y="-7.4" font-family="Helvetica,sans-Serif" font-size="12.00" fill="white">UInt16</text>
</a>
</g>
</g>
<!-- UInt32 -->
<g id="node30" class="node">
<g id="a_node30"><a xlink:href="/v1.2/type/UInt32/hierarchy/" target="_top">
<polygon fill="#999999" stroke="#999999" points="1296,-22 1242,-22 1242,-0 1296,-0 1296,-22"/>
<text text-anchor="middle" x="1269" y="-7.4" font-family="Helvetica,sans-Serif" font-size="12.00" fill="white">UInt32</text>
</a>
</g>
</g>
<!-- UInt64 -->
<g id="node31" class="node">
<g id="a_node31"><a xlink:href="/v1.2/type/UInt64/hierarchy/" target="_top">
<polygon fill="#999999" stroke="#999999" points="1368,-22 1314,-22 1314,-0 1368,-0 1368,-22"/>
<text text-anchor="middle" x="1341" y="-7.4" font-family="Helvetica,sans-Serif" font-size="12.00" fill="white">UInt64</text>
</a>
</g>
</g>
<!-- UInt8 -->
<g id="node32" class="node">
<g id="a_node32"><a xlink:href="/v1.2/type/UInt8/hierarchy/" target="_top">
<polygon fill="#999999" stroke="#999999" points="1440,-22 1386,-22 1386,-0 1440,-0 1440,-22"/>
<text text-anchor="middle" x="1413" y="-7.4" font-family="Helvetica,sans-Serif" font-size="12.00" fill="white">UInt8</text>
</a>
</g>
</g>
<!-- UnsignedIntegerType&#45;&gt;UInt -->
<g id="edge25" class="edge">
<path fill="none" stroke="#cccccc" d="M1366.74,-57.9883C1389.84,-49.0057 1423.95,-35.7398 1449.61,-25.7614"/>
<polygon fill="#cccccc" stroke="#cccccc" points="1450.94,-29.0004 1458.99,-22.1138 1448.4,-22.4763 1450.94,-29.0004"/>
</g>
<!-- UnsignedIntegerType&#45;&gt;UInt16 -->
<g id="edge26" class="edge">
<path fill="none" stroke="#cccccc" d="M1381.45,-57.9168C1415.84,-49.2898 1466.76,-36.3793 1519.94,-22.2477"/>
<polygon fill="#cccccc" stroke="#cccccc" points="1521.13,-25.5525 1529.89,-19.5955 1519.33,-18.7885 1521.13,-25.5525"/>
</g>
<!-- UnsignedIntegerType&#45;&gt;UInt32 -->
<g id="edge27" class="edge">
<path fill="none" stroke="#cccccc" d="M1328.13,-57.9883C1317.61,-49.8087 1302.53,-38.0773 1290.23,-28.5108"/>
<polygon fill="#cccccc" stroke="#cccccc" points="1292.29,-25.6806 1282.25,-22.3039 1287.99,-31.2061 1292.29,-25.6806"/>
</g>
<!-- UnsignedIntegerType&#45;&gt;UInt64 -->
<g id="edge28" class="edge">
<path fill="none" stroke="#cccccc" d="M1341,-57.9883C1341,-50.9098 1341,-41.1714 1341,-32.4779"/>
<polygon fill="#cccccc" stroke="#cccccc" points="1344.5,-32.3038 1341,-22.3039 1337.5,-32.3039 1344.5,-32.3038"/>
</g>
<!-- UnsignedIntegerType&#45;&gt;UInt8 -->
<g id="edge29" class="edge">
<path fill="none" stroke="#cccccc" d="M1353.87,-57.9883C1364.39,-49.8087 1379.47,-38.0773 1391.77,-28.5108"/>
<polygon fill="#cccccc" stroke="#cccccc" points="1394.01,-31.2061 1399.75,-22.3039 1389.71,-25.6806 1394.01,-31.2061"/>
</g>
<!-- _Comparable -->
<g id="node37" class="node">
<g id="a_node37"><a xlink:href="/v1.2/protocol/_Comparable/" target="_top">
<path fill="#ee543d" stroke="#ee543d" d="M1872.7,-428C1872.7,-428 1805.3,-428 1805.3,-428 1801.64,-428 1797.97,-424.333 1797.97,-420.667 1797.97,-420.667 1797.97,-413.333 1797.97,-413.333 1797.97,-409.667 1801.64,-406 1805.3,-406 1805.3,-406 1872.7,-406 1872.7,-406 1876.36,-406 1880.03,-409.667 1880.03,-413.333 1880.03,-413.333 1880.03,-420.667 1880.03,-420.667 1880.03,-424.333 1876.36,-428 1872.7,-428"/>
<text text-anchor="middle" x="1839" y="-413.4" font-family="Helvetica,sans-Serif" font-size="12.00" fill="white">_Comparable</text>
</a>
</g>
</g>
<!-- _Comparable&#45;&gt;Comparable -->
<g id="edge1" class="edge">
<path fill="none" stroke="#cccccc" d="M1839,-405.988C1839,-398.91 1839,-389.171 1839,-380.478"/>
<polygon fill="#cccccc" stroke="#cccccc" points="1842.5,-380.304 1839,-370.304 1835.5,-380.304 1842.5,-380.304"/>
</g>
<!-- _IntegerType&#45;&gt;IntegerType -->
<g id="edge14" class="edge">
<path fill="none" stroke="#cccccc" d="M1235.02,-173.988C1225.33,-165.887 1211.47,-154.303 1200.08,-144.787"/>
<polygon fill="#cccccc" stroke="#cccccc" points="1202.25,-142.032 1192.33,-138.304 1197.76,-147.403 1202.25,-142.032"/>
</g>
<!-- _IntegerType&#45;&gt;_SignedIntegerType -->
<g id="edge15" class="edge">
<path fill="none" stroke="#cccccc" d="M1213.57,-173.988C1182.82,-164.779 1137.03,-151.068 1103.46,-141.013"/>
<polygon fill="#cccccc" stroke="#cccccc" points="1104.04,-137.535 1093.46,-138.019 1102.03,-144.241 1104.04,-137.535"/>
</g>
<!-- _UnsignedIntegerType -->
<g id="node42" class="node">
<g id="a_node42"><a xlink:href="/v1.2/protocol/_UnsignedIntegerType/hierarchy/" target="_top">
<path fill="#999999" stroke="#999999" d="M1371.73,-138C1371.73,-138 1256.27,-138 1256.27,-138 1252.6,-138 1248.93,-134.333 1248.93,-130.667 1248.93,-130.667 1248.93,-123.333 1248.93,-123.333 1248.93,-119.667 1252.6,-116 1256.27,-116 1256.27,-116 1371.73,-116 1371.73,-116 1375.4,-116 1379.07,-119.667 1379.07,-123.333 1379.07,-123.333 1379.07,-130.667 1379.07,-130.667 1379.07,-134.333 1375.4,-138 1371.73,-138"/>
<text text-anchor="middle" x="1314" y="-123.4" font-family="Helvetica,sans-Serif" font-size="12.00" fill="white">_UnsignedIntegerType</text>
</a>
</g>
</g>
<!-- _IntegerType&#45;&gt;_UnsignedIntegerType -->
<g id="edge16" class="edge">
<path fill="none" stroke="#cccccc" d="M1258.98,-173.988C1268.67,-165.887 1282.53,-154.303 1293.92,-144.787"/>
<polygon fill="#cccccc" stroke="#cccccc" points="1296.24,-147.403 1301.67,-138.304 1291.75,-142.032 1296.24,-147.403"/>
</g>
<!-- _RandomAccessIndexType&#45;&gt;RandomAccessIndexType -->
<g id="edge37" class="edge">
<path fill="none" stroke="#cccccc" d="M434.24,-231.988C427.427,-224.202 417.797,-213.197 409.667,-203.905"/>
<polygon fill="#cccccc" stroke="#cccccc" points="412.235,-201.525 403.016,-196.304 406.967,-206.134 412.235,-201.525"/>
</g>
<!-- _SignedIntegerType&#45;&gt;SignedIntegerType -->
<g id="edge30" class="edge">
<path fill="none" stroke="#cccccc" d="M1058.75,-115.988C1057.86,-108.91 1056.65,-99.1714 1055.56,-90.4779"/>
<polygon fill="#cccccc" stroke="#cccccc" points="1059,-89.7925 1054.29,-80.3039 1052.06,-90.6608 1059,-89.7925"/>
</g>
<!-- _SignedNumberType&#45;&gt;SignedNumberType -->
<g id="edge43" class="edge">
<path fill="none" stroke="#cccccc" d="M1239.52,-289.883C1204.84,-269.813 1127.16,-224.861 1086.29,-201.211"/>
<polygon fill="#cccccc" stroke="#cccccc" points="1087.85,-198.073 1077.44,-196.094 1084.35,-204.132 1087.85,-198.073"/>
</g>
<!-- _UnsignedIntegerType&#45;&gt;UnsignedIntegerType -->
<g id="edge31" class="edge">
<path fill="none" stroke="#cccccc" d="M1318.83,-115.988C1322.39,-108.595 1327.36,-98.3005 1331.68,-89.3253"/>
<polygon fill="#cccccc" stroke="#cccccc" points="1334.84,-90.8316 1336.03,-80.3039 1328.54,-87.7915 1334.84,-90.8316"/>
</g>
</g>
</svg>
