<?xml version="1.0" encoding="UTF-8" standalone="no"?>
<!DOCTYPE svg PUBLIC "-//W3C//DTD SVG 1.1//EN"
 "http://www.w3.org/Graphics/SVG/1.1/DTD/svg11.dtd">
<!-- Generated by graphviz version 2.36.0 (20140111.2315)
 -->
<!-- Title: UInt64 &#45; Type Hierarchy &#45; SwiftDoc.org Pages: 1 -->
<svg width="1337pt" height="543pt"
 viewBox="0.00 0.00 1337.40 543.20" xmlns="http://www.w3.org/2000/svg" xmlns:xlink="http://www.w3.org/1999/xlink">
<g id="graph0" class="graph" transform="scale(1 1) rotate(0) translate(7.2 485.6)">
<g transform="translate(0 -485.6)">
<g>
    <path fill="#666666" d="M13.846,10.832c-0.336-0.464-0.792-0.844-1.368-1.14s-1.224-0.444-1.944-0.444
        c-0.384,0-0.772,0.052-1.164,0.156C8.977,9.509,8.622,9.677,8.301,9.908c-0.32,0.232-0.58,0.52-0.78,0.864
        c-0.2,0.344-0.3,0.756-0.3,1.236c0,0.464,0.092,0.852,0.276,1.164c0.184,0.312,0.432,0.576,0.744,0.792s0.68,0.4,1.104,0.552
        c0.423,0.152,0.876,0.309,1.356,0.468c0.576,0.177,1.16,0.376,1.752,0.601c0.592,0.224,1.128,0.52,1.608,0.888
        s0.872,0.828,1.176,1.38s0.456,1.252,0.456,2.101c0,0.88-0.164,1.644-0.492,2.292c-0.328,0.647-0.765,1.184-1.308,1.607
        c-0.544,0.424-1.172,0.74-1.884,0.948s-1.444,0.312-2.196,0.312c-1.072,0-2.108-0.208-3.108-0.624
        c-1-0.415-1.828-1.031-2.484-1.848l1.848-1.56c0.4,0.592,0.936,1.071,1.608,1.439c0.672,0.368,1.399,0.552,2.184,0.552
        c0.4,0,0.8-0.056,1.2-0.168c0.4-0.111,0.764-0.288,1.092-0.527c0.328-0.24,0.596-0.54,0.804-0.9
        c0.208-0.36,0.312-0.796,0.312-1.308s-0.108-0.94-0.324-1.284c-0.216-0.344-0.508-0.636-0.876-0.876s-0.796-0.444-1.284-0.612
        c-0.488-0.168-1.004-0.34-1.548-0.516c-0.544-0.16-1.08-0.356-1.608-0.588c-0.528-0.232-1-0.528-1.416-0.889
        c-0.416-0.359-0.752-0.804-1.008-1.332c-0.256-0.527-0.384-1.184-0.384-1.968c0-0.848,0.172-1.576,0.516-2.184
        c0.344-0.608,0.792-1.112,1.344-1.512c0.552-0.4,1.176-0.692,1.872-0.876c0.696-0.184,1.396-0.276,2.1-0.276
        c0.992,0,1.92,0.176,2.784,0.528c0.864,0.352,1.56,0.824,2.088,1.416L13.846,10.832z"/>
    <path fill="#666666" d="M18.813,13.304l2.568,8.688h0.048l2.712-8.688h2.376l2.76,8.688h0.048l2.568-8.688h2.376L30.501,24.68
        h-2.352l-2.808-8.544h-0.048l-2.784,8.544h-2.352l-3.792-11.376H18.813z"/>
    <path fill="#666666" d="M38.685,9.2c0,0.416-0.147,0.76-0.44,1.032c-0.294,0.272-0.647,0.408-1.06,0.408s-0.762-0.14-1.047-0.42
        c-0.286-0.28-0.429-0.62-0.429-1.02c0-0.416,0.143-0.764,0.429-1.044c0.286-0.28,0.635-0.42,1.047-0.42s0.766,0.14,1.06,0.42
        C38.538,8.437,38.685,8.784,38.685,9.2z M38.325,24.68h-2.256V13.304h2.256V24.68z"/>
    <path fill="#666666" d="M47.613,15.152h-2.64v9.528h-2.256v-9.528h-2.256v-1.848h2.256v-2.376c0-0.672,0.076-1.292,0.228-1.86
        c0.152-0.568,0.4-1.06,0.744-1.476c0.344-0.416,0.784-0.744,1.32-0.984c0.536-0.24,1.188-0.36,1.956-0.36
        c0.544,0,1.016,0.056,1.416,0.168l-0.264,1.944c-0.176-0.048-0.352-0.088-0.528-0.12c-0.176-0.032-0.376-0.048-0.6-0.048
        c-0.432,0-0.78,0.076-1.044,0.228c-0.264,0.152-0.468,0.356-0.612,0.612s-0.24,0.548-0.288,0.876
        c-0.048,0.328-0.072,0.668-0.072,1.02v2.376h2.64V15.152z"/>
    <path fill="#666666" d="M54.909,15.152h-3.024v5.91c0,0.687,0.128,1.177,0.384,1.472c0.256,0.295,0.664,0.442,1.224,0.442
        c0.208,0,0.432-0.021,0.672-0.065c0.24-0.044,0.456-0.11,0.648-0.198l0.072,1.848c-0.272,0.096-0.572,0.172-0.9,0.229
        c-0.328,0.056-0.668,0.084-1.02,0.084c-1.072,0-1.892-0.296-2.46-0.889c-0.568-0.592-0.852-1.479-0.852-2.664v-6.168h-2.184
        v-1.848h2.184V10.04h2.232v3.264h3.024V15.152z"/>
    <path fill="#666666" d="M57.356,7.688h5.832c1.088,0,2.176,0.16,3.264,0.48c1.088,0.32,2.072,0.824,2.952,1.512
        s1.592,1.568,2.136,2.64c0.544,1.072,0.816,2.36,0.816,3.864c0,1.456-0.272,2.716-0.816,3.78s-1.256,1.943-2.136,2.64
        s-1.864,1.216-2.952,1.561c-1.088,0.344-2.176,0.516-3.264,0.516h-5.832V7.688z M59.732,22.593h2.976
        c1.024,0,1.972-0.145,2.844-0.432c0.872-0.288,1.624-0.704,2.256-1.248c0.632-0.544,1.124-1.216,1.476-2.017
        c0.352-0.8,0.528-1.704,0.528-2.712c0-1.056-0.176-1.983-0.528-2.784c-0.353-0.8-0.844-1.468-1.476-2.004
        c-0.632-0.536-1.384-0.944-2.256-1.224s-1.82-0.42-2.844-0.42h-2.976V22.593z"/>
    <path fill="#666666" d="M86.06,18.969c0,0.88-0.156,1.688-0.468,2.424c-0.312,0.736-0.744,1.372-1.296,1.908
        c-0.552,0.536-1.204,0.952-1.956,1.248c-0.752,0.296-1.56,0.443-2.424,0.443c-0.864,0-1.672-0.147-2.424-0.443
        c-0.752-0.296-1.4-0.712-1.944-1.248c-0.544-0.536-0.972-1.172-1.284-1.908c-0.312-0.735-0.468-1.544-0.468-2.424
        s0.156-1.684,0.468-2.412c0.312-0.728,0.74-1.356,1.284-1.884c0.543-0.528,1.191-0.939,1.944-1.236
        c0.752-0.296,1.56-0.444,2.424-0.444c0.864,0,1.672,0.148,2.424,0.444c0.752,0.297,1.404,0.708,1.956,1.236
        c0.552,0.527,0.984,1.156,1.296,1.884C85.904,17.285,86.06,18.089,86.06,18.969z M83.708,18.98c0-0.542-0.084-1.061-0.252-1.556
        c-0.169-0.494-0.414-0.929-0.734-1.304s-0.718-0.674-1.192-0.897s-1.015-0.335-1.625-0.335c-0.61,0-1.152,0.111-1.625,0.335
        c-0.474,0.224-0.871,0.522-1.191,0.897c-0.321,0.375-0.566,0.81-0.734,1.304C76.184,17.92,76.1,18.438,76.1,18.98
        c0,0.543,0.084,1.062,0.253,1.556c0.168,0.495,0.413,0.934,0.734,1.316c0.321,0.383,0.718,0.686,1.191,0.909
        c0.473,0.224,1.015,0.335,1.625,0.335c0.61,0,1.151-0.111,1.625-0.335s0.871-0.526,1.192-0.909s0.565-0.821,0.734-1.316
        C83.624,20.042,83.708,19.523,83.708,18.98z"/>
    <path fill="#666666" d="M96.428,16.184c-0.24-0.368-0.6-0.676-1.08-0.924s-0.992-0.372-1.536-0.372
        c-0.592,0-1.116,0.112-1.572,0.336c-0.456,0.225-0.844,0.524-1.164,0.9c-0.32,0.376-0.564,0.812-0.732,1.308
        s-0.252,1.017-0.252,1.56c0,0.545,0.084,1.064,0.252,1.561s0.412,0.933,0.732,1.308c0.32,0.376,0.712,0.677,1.176,0.9
        c0.464,0.225,0.992,0.336,1.584,0.336c0.576,0,1.1-0.111,1.572-0.336c0.472-0.224,0.86-0.528,1.164-0.912l1.512,1.368
        c-0.48,0.561-1.08,0.996-1.8,1.308c-0.72,0.312-1.536,0.468-2.448,0.468c-0.88,0-1.692-0.144-2.436-0.432
        c-0.744-0.288-1.388-0.691-1.932-1.212c-0.544-0.52-0.972-1.147-1.284-1.884s-0.468-1.561-0.468-2.473
        c0-0.896,0.152-1.711,0.456-2.447c0.304-0.736,0.728-1.368,1.272-1.896c0.543-0.527,1.188-0.936,1.932-1.224
        c0.744-0.288,1.548-0.433,2.412-0.433c0.8,0,1.596,0.16,2.388,0.48s1.419,0.784,1.884,1.392L96.428,16.184z"/>
    <path fill="#666666" d="M103.1,23.24c0,0.417-0.152,0.784-0.456,1.104c-0.304,0.32-0.688,0.479-1.152,0.479
        c-0.448,0-0.828-0.155-1.14-0.468c-0.312-0.312-0.468-0.676-0.468-1.092c0-0.432,0.152-0.804,0.456-1.116
        c0.304-0.312,0.688-0.468,1.152-0.468c0.464,0,0.848,0.152,1.152,0.456C102.947,22.44,103.1,22.808,103.1,23.24z"/>
    <path fill="#666666" d="M116.635,18.969c0,0.88-0.156,1.688-0.468,2.424c-0.312,0.736-0.744,1.372-1.296,1.908
        c-0.552,0.536-1.204,0.952-1.956,1.248c-0.752,0.296-1.56,0.443-2.424,0.443c-0.864,0-1.672-0.147-2.424-0.443
        c-0.752-0.296-1.4-0.712-1.944-1.248c-0.544-0.536-0.972-1.172-1.284-1.908c-0.312-0.735-0.468-1.544-0.468-2.424
        s0.156-1.684,0.468-2.412c0.312-0.728,0.74-1.356,1.284-1.884c0.543-0.528,1.191-0.939,1.944-1.236
        c0.752-0.296,1.56-0.444,2.424-0.444c0.864,0,1.672,0.148,2.424,0.444c0.752,0.297,1.404,0.708,1.956,1.236
        c0.552,0.527,0.984,1.156,1.296,1.884C116.479,17.285,116.635,18.089,116.635,18.969z M114.283,18.98
        c0-0.542-0.084-1.061-0.252-1.556c-0.169-0.494-0.414-0.929-0.734-1.304s-0.718-0.674-1.192-0.897s-1.015-0.335-1.625-0.335
        c-0.61,0-1.152,0.111-1.625,0.335c-0.474,0.224-0.871,0.522-1.191,0.897c-0.321,0.375-0.566,0.81-0.734,1.304
        c-0.169,0.495-0.253,1.014-0.253,1.556c0,0.543,0.084,1.062,0.253,1.556c0.168,0.495,0.413,0.934,0.734,1.316
        c0.321,0.383,0.718,0.686,1.191,0.909c0.473,0.224,1.015,0.335,1.625,0.335c0.61,0,1.151-0.111,1.625-0.335
        s0.871-0.526,1.192-0.909s0.565-0.821,0.734-1.316C114.199,20.042,114.283,19.523,114.283,18.98z"/>
    <path fill="#666666" d="M119.251,14.577c-0.016-0.48-0.04-0.904-0.072-1.272h2.136c0.032,0.288,0.056,0.62,0.072,0.996
        c0.016,0.376,0.024,0.684,0.024,0.924h0.072c0.32-0.672,0.788-1.212,1.404-1.62c0.616-0.408,1.308-0.612,2.076-0.612
        c0.352,0,0.648,0.033,0.888,0.097l-0.096,2.088c-0.32-0.08-0.664-0.12-1.032-0.12c-0.544,0-1.016,0.101-1.416,0.3
        c-0.4,0.2-0.732,0.468-0.996,0.805c-0.264,0.336-0.46,0.724-0.588,1.163c-0.128,0.44-0.192,0.9-0.192,1.381v5.976h-2.256v-8.928
        C119.275,15.449,119.267,15.056,119.251,14.577z"/>
    <path fill="#666666" d="M128.419,26.625c0.496,0.56,1.116,1.008,1.86,1.344c0.744,0.336,1.508,0.504,2.292,0.504
        c0.752,0,1.384-0.108,1.896-0.324s0.924-0.512,1.236-0.888s0.536-0.82,0.672-1.332c0.136-0.513,0.204-1.064,0.204-1.656v-1.464
        h-0.048c-0.416,0.641-0.984,1.128-1.704,1.464c-0.72,0.336-1.488,0.504-2.304,0.504c-0.864,0-1.652-0.151-2.364-0.456
        c-0.712-0.304-1.316-0.72-1.812-1.248c-0.496-0.527-0.88-1.147-1.152-1.859s-0.408-1.477-0.408-2.292
        c0-0.816,0.136-1.584,0.408-2.305c0.272-0.72,0.656-1.348,1.152-1.884c0.496-0.535,1.096-0.96,1.8-1.271
        c0.704-0.312,1.488-0.469,2.352-0.469c0.816,0,1.596,0.177,2.34,0.528c0.744,0.353,1.332,0.888,1.764,1.608h0.048v-1.824h2.184
        v10.8c0,0.832-0.104,1.628-0.312,2.388c-0.208,0.76-0.56,1.433-1.056,2.017s-1.144,1.052-1.944,1.404
        c-0.8,0.352-1.792,0.527-2.976,0.527c-0.992,0-1.988-0.18-2.988-0.54c-1-0.359-1.86-0.868-2.58-1.523L128.419,26.625z
         M129.091,18.873c0,0.527,0.084,1.031,0.253,1.512c0.168,0.479,0.417,0.904,0.746,1.271c0.329,0.369,0.726,0.664,1.192,0.889
        c0.465,0.224,0.995,0.336,1.589,0.336c0.577,0,1.107-0.104,1.589-0.312c0.481-0.207,0.891-0.491,1.228-0.852
        s0.598-0.784,0.782-1.272c0.185-0.487,0.277-1.012,0.277-1.571c0-0.544-0.093-1.057-0.277-1.536
        c-0.185-0.48-0.449-0.904-0.794-1.272c-0.345-0.367-0.755-0.66-1.228-0.876c-0.474-0.216-1-0.324-1.577-0.324
        c-0.594,0-1.124,0.108-1.589,0.324c-0.466,0.216-0.863,0.504-1.192,0.864s-0.578,0.784-0.746,1.271
        C129.175,17.812,129.091,18.329,129.091,18.873z"/>
</g>
<g><a xlink:href="/" pointer-events="all" target="_top"><polygon fill="none" points="0,0 145,0 145,35 0,35 0,0"/></a></g>

</g>


<!-- BidirectionalIndexType -->
<g id="node1" class="node">
<g id="a_node1"><a xlink:href="/swift-2/protocol/BidirectionalIndexType/" target="_top">
<path fill="#999999" stroke="#999999" d="M1287.73,-254C1287.73,-254 1172.27,-254 1172.27,-254 1168.61,-254 1164.94,-250.333 1164.94,-246.667 1164.94,-246.667 1164.94,-239.333 1164.94,-239.333 1164.94,-235.667 1168.61,-232 1172.27,-232 1172.27,-232 1287.73,-232 1287.73,-232 1291.39,-232 1295.06,-235.667 1295.06,-239.333 1295.06,-239.333 1295.06,-246.667 1295.06,-246.667 1295.06,-250.333 1291.39,-254 1287.73,-254"/>
<text text-anchor="middle" x="1230" y="-239.4" font-family="Helvetica,sans-Serif" font-size="12.00" fill="white">BidirectionalIndexType</text>
</a>
</g>
</g>
<!-- RandomAccessIndexType -->
<g id="node12" class="node">
<g id="a_node12"><a xlink:href="/swift-2/protocol/RandomAccessIndexType/" target="_top">
<path fill="#999999" stroke="#999999" d="M987.225,-196C987.225,-196 852.775,-196 852.775,-196 849.108,-196 845.441,-192.333 845.441,-188.667 845.441,-188.667 845.441,-181.333 845.441,-181.333 845.441,-177.667 849.108,-174 852.775,-174 852.775,-174 987.225,-174 987.225,-174 990.892,-174 994.559,-177.667 994.559,-181.333 994.559,-181.333 994.559,-188.667 994.559,-188.667 994.559,-192.333 990.892,-196 987.225,-196"/>
<text text-anchor="middle" x="920" y="-181.4" font-family="Helvetica,sans-Serif" font-size="12.00" fill="white">RandomAccessIndexType</text>
</a>
</g>
</g>
<!-- BidirectionalIndexType&#45;&gt;RandomAccessIndexType -->
<g id="edge37" class="edge">
<path fill="none" stroke="#cccccc" d="M1174.58,-231.988C1121.51,-222.402 1041.44,-207.938 985.306,-197.797"/>
<polygon fill="#cccccc" stroke="#cccccc" points="985.927,-194.353 975.464,-196.019 984.682,-201.241 985.927,-194.353"/>
</g>
<!-- UInt64 -->
<g id="node14" class="node">
<g id="a_node14"><a xlink:href="/swift-2/type/UInt64/" target="_top">
<polygon fill="#ee543d" stroke="#ee543d" points="749,-22 695,-22 695,-0 749,-0 749,-22"/>
<text text-anchor="middle" x="722" y="-7.4" font-family="Helvetica,sans-Serif" font-size="12.00" fill="white">UInt64</text>
</a>
</g>
</g>
<!-- BidirectionalIndexType&#45;&gt;UInt64 -->
<g id="edge14" class="edge">
<path fill="none" stroke="#cccccc" d="M1229.1,-231.893C1225.7,-200.155 1210.57,-101.985 1151,-58 1089.28,-12.425 851.63,-10.3338 759.137,-11.3173"/>
<polygon fill="#cccccc" stroke="#cccccc" points="759.064,-7.8178 749.108,-11.4424 759.151,-14.8173 759.064,-7.8178"/>
</g>
<!-- BitwiseOperationsType -->
<g id="node2" class="node">
<g id="a_node2"><a xlink:href="/swift-2/protocol/BitwiseOperationsType/" target="_top">
<path fill="#999999" stroke="#999999" d="M190.715,-254C190.715,-254 73.2848,-254 73.2848,-254 69.6182,-254 65.9515,-250.333 65.9515,-246.667 65.9515,-246.667 65.9515,-239.333 65.9515,-239.333 65.9515,-235.667 69.6182,-232 73.2848,-232 73.2848,-232 190.715,-232 190.715,-232 194.382,-232 198.048,-235.667 198.048,-239.333 198.048,-239.333 198.048,-246.667 198.048,-246.667 198.048,-250.333 194.382,-254 190.715,-254"/>
<text text-anchor="middle" x="132" y="-239.4" font-family="Helvetica,sans-Serif" font-size="12.00" fill="white">BitwiseOperationsType</text>
</a>
</g>
</g>
<!-- BitwiseOperationsType&#45;&gt;UInt64 -->
<g id="edge19" class="edge">
<path fill="none" stroke="#cccccc" d="M143.683,-231.941C181.09,-200.344 302.398,-102.547 421,-58 511.614,-23.9648 626.591,-15.0841 684.723,-12.7863"/>
<polygon fill="#cccccc" stroke="#cccccc" points="685.026,-16.2779 694.897,-12.4292 684.781,-9.2822 685.026,-16.2779"/>
</g>
<!-- _IntegerType -->
<g id="node20" class="node">
<g id="a_node20"><a xlink:href="/swift-2/protocol/_IntegerType/" target="_top">
<path fill="#999999" stroke="#999999" d="M498.708,-196C498.708,-196 433.292,-196 433.292,-196 429.626,-196 425.959,-192.333 425.959,-188.667 425.959,-188.667 425.959,-181.333 425.959,-181.333 425.959,-177.667 429.626,-174 433.292,-174 433.292,-174 498.708,-174 498.708,-174 502.374,-174 506.041,-177.667 506.041,-181.333 506.041,-181.333 506.041,-188.667 506.041,-188.667 506.041,-192.333 502.374,-196 498.708,-196"/>
<text text-anchor="middle" x="466" y="-181.4" font-family="Helvetica,sans-Serif" font-size="12.00" fill="white">_IntegerType</text>
</a>
</g>
</g>
<!-- BitwiseOperationsType&#45;&gt;_IntegerType -->
<g id="edge29" class="edge">
<path fill="none" stroke="#cccccc" d="M191.713,-231.988C255.568,-221.282 355.715,-204.491 415.699,-194.434"/>
<polygon fill="#cccccc" stroke="#cccccc" points="416.407,-197.864 425.691,-192.758 415.25,-190.96 416.407,-197.864"/>
</g>
<!-- CVarArgType -->
<g id="node3" class="node">
<g id="a_node3"><a xlink:href="/swift-2/protocol/CVarArgType/" target="_top">
<path fill="#999999" stroke="#999999" d="M242.029,-138C242.029,-138 175.971,-138 175.971,-138 172.304,-138 168.638,-134.333 168.638,-130.667 168.638,-130.667 168.638,-123.333 168.638,-123.333 168.638,-119.667 172.304,-116 175.971,-116 175.971,-116 242.029,-116 242.029,-116 245.696,-116 249.362,-119.667 249.362,-123.333 249.362,-123.333 249.362,-130.667 249.362,-130.667 249.362,-134.333 245.696,-138 242.029,-138"/>
<text text-anchor="middle" x="209" y="-123.4" font-family="Helvetica,sans-Serif" font-size="12.00" fill="white">CVarArgType</text>
</a>
</g>
</g>
<!-- CVarArgType&#45;&gt;UInt64 -->
<g id="edge21" class="edge">
<path fill="none" stroke="#cccccc" d="M218.126,-115.782C232.667,-100.267 262.759,-71.1841 295,-58 365.368,-29.2245 594.58,-17.1041 684.918,-13.3638"/>
<polygon fill="#cccccc" stroke="#cccccc" points="685.126,-16.8583 694.977,-12.9584 684.844,-9.86401 685.126,-16.8583"/>
</g>
<!-- _CVarArgAlignedType -->
<g id="node16" class="node">
<g id="a_node16"><a xlink:href="/swift-2/protocol/_CVarArgAlignedType/" target="_top">
<path fill="#999999" stroke="#999999" d="M235.059,-80C235.059,-80 122.941,-80 122.941,-80 119.274,-80 115.608,-76.3333 115.608,-72.6667 115.608,-72.6667 115.608,-65.3333 115.608,-65.3333 115.608,-61.6667 119.274,-58 122.941,-58 122.941,-58 235.059,-58 235.059,-58 238.726,-58 242.392,-61.6667 242.392,-65.3333 242.392,-65.3333 242.392,-72.6667 242.392,-72.6667 242.392,-76.3333 238.726,-80 235.059,-80"/>
<text text-anchor="middle" x="179" y="-65.4" font-family="Helvetica,sans-Serif" font-size="12.00" fill="white">_CVarArgAlignedType</text>
</a>
</g>
</g>
<!-- CVarArgType&#45;&gt;_CVarArgAlignedType -->
<g id="edge46" class="edge">
<path fill="none" stroke="#cccccc" d="M203.637,-115.988C199.676,-108.595 194.161,-98.3005 189.353,-89.3253"/>
<polygon fill="#cccccc" stroke="#cccccc" points="192.327,-87.4659 184.52,-80.3039 186.157,-90.7715 192.327,-87.4659"/>
</g>
<!-- Comparable -->
<g id="node4" class="node">
<g id="a_node4"><a xlink:href="/swift-2/protocol/Comparable/" target="_top">
<path fill="#999999" stroke="#999999" d="M430.191,-312C430.191,-312 369.809,-312 369.809,-312 366.142,-312 362.475,-308.333 362.475,-304.667 362.475,-304.667 362.475,-297.333 362.475,-297.333 362.475,-293.667 366.142,-290 369.809,-290 369.809,-290 430.191,-290 430.191,-290 433.858,-290 437.525,-293.667 437.525,-297.333 437.525,-297.333 437.525,-304.667 437.525,-304.667 437.525,-308.333 433.858,-312 430.191,-312"/>
<text text-anchor="middle" x="400" y="-297.4" font-family="Helvetica,sans-Serif" font-size="12.00" fill="white">Comparable</text>
</a>
</g>
</g>
<!-- IntegerArithmeticType -->
<g id="node9" class="node">
<g id="a_node9"><a xlink:href="/swift-2/protocol/IntegerArithmeticType/" target="_top">
<path fill="#999999" stroke="#999999" d="M612.711,-254C612.711,-254 501.289,-254 501.289,-254 497.623,-254 493.956,-250.333 493.956,-246.667 493.956,-246.667 493.956,-239.333 493.956,-239.333 493.956,-235.667 497.623,-232 501.289,-232 501.289,-232 612.711,-232 612.711,-232 616.377,-232 620.044,-235.667 620.044,-239.333 620.044,-239.333 620.044,-246.667 620.044,-246.667 620.044,-250.333 616.377,-254 612.711,-254"/>
<text text-anchor="middle" x="557" y="-239.4" font-family="Helvetica,sans-Serif" font-size="12.00" fill="white">IntegerArithmeticType</text>
</a>
</g>
</g>
<!-- Comparable&#45;&gt;IntegerArithmeticType -->
<g id="edge33" class="edge">
<path fill="none" stroke="#cccccc" d="M428.068,-289.988C453.553,-280.898 491.334,-267.422 519.417,-257.405"/>
<polygon fill="#cccccc" stroke="#cccccc" points="520.667,-260.675 528.91,-254.019 518.316,-254.082 520.667,-260.675"/>
</g>
<!-- Strideable -->
<g id="node13" class="node">
<g id="a_node13"><a xlink:href="/swift-2/protocol/Strideable/" target="_top">
<path fill="#999999" stroke="#999999" d="M853.693,-254C853.693,-254 804.307,-254 804.307,-254 800.64,-254 796.974,-250.333 796.974,-246.667 796.974,-246.667 796.974,-239.333 796.974,-239.333 796.974,-235.667 800.64,-232 804.307,-232 804.307,-232 853.693,-232 853.693,-232 857.36,-232 861.026,-235.667 861.026,-239.333 861.026,-239.333 861.026,-246.667 861.026,-246.667 861.026,-250.333 857.36,-254 853.693,-254"/>
<text text-anchor="middle" x="829" y="-239.4" font-family="Helvetica,sans-Serif" font-size="12.00" fill="white">Strideable</text>
</a>
</g>
</g>
<!-- Comparable&#45;&gt;Strideable -->
<g id="edge42" class="edge">
<path fill="none" stroke="#cccccc" d="M437.407,-297.084C505.175,-291.473 652.89,-277.742 786.822,-254.031"/>
<polygon fill="#cccccc" stroke="#cccccc" points="787.625,-257.443 796.85,-252.232 786.389,-250.553 787.625,-257.443"/>
</g>
<!-- Comparable&#45;&gt;UInt64 -->
<g id="edge2" class="edge">
<path fill="none" stroke="#cccccc" d="M362.371,-300C282.978,-299.22 101.938,-293.083 57,-254 33.3223,-233.407 38,-217.38 38,-186 38,-186 38,-186 38,-126 38,-83.2593 67.1496,-75.8161 106,-58 209.865,-10.3695 567.645,-10.1616 684.648,-11.4296"/>
<polygon fill="#cccccc" stroke="#cccccc" points="684.846,-14.9321 694.887,-11.5513 684.929,-7.93259 684.846,-14.9321"/>
</g>
<!-- CustomStringConvertible -->
<g id="node5" class="node">
<g id="a_node5"><a xlink:href="/swift-2/protocol/CustomStringConvertible/" target="_top">
<path fill="#999999" stroke="#999999" d="M352.208,-254C352.208,-254 223.792,-254 223.792,-254 220.126,-254 216.459,-250.333 216.459,-246.667 216.459,-246.667 216.459,-239.333 216.459,-239.333 216.459,-235.667 220.126,-232 223.792,-232 223.792,-232 352.208,-232 352.208,-232 355.874,-232 359.541,-235.667 359.541,-239.333 359.541,-239.333 359.541,-246.667 359.541,-246.667 359.541,-250.333 355.874,-254 352.208,-254"/>
<text text-anchor="middle" x="288" y="-239.4" font-family="Helvetica,sans-Serif" font-size="12.00" fill="white">CustomStringConvertible</text>
</a>
</g>
</g>
<!-- CustomStringConvertible&#45;&gt;UInt64 -->
<g id="edge11" class="edge">
<path fill="none" stroke="#cccccc" d="M296.089,-231.786C325.49,-194.774 426.009,-69.2667 446,-58 486.188,-35.3507 618.66,-20.9893 684.365,-15.0847"/>
<polygon fill="#cccccc" stroke="#cccccc" points="685.035,-18.5394 694.69,-14.1773 684.422,-11.5663 685.035,-18.5394"/>
</g>
<!-- CustomStringConvertible&#45;&gt;_IntegerType -->
<g id="edge26" class="edge">
<path fill="none" stroke="#cccccc" d="M319.823,-231.988C348.968,-222.819 392.3,-209.187 424.222,-199.144"/>
<polygon fill="#cccccc" stroke="#cccccc" points="425.664,-202.359 434.153,-196.019 423.564,-195.682 425.664,-202.359"/>
</g>
<!-- Equatable -->
<g id="node6" class="node">
<g id="a_node6"><a xlink:href="/swift-2/protocol/Equatable/" target="_top">
<path fill="#999999" stroke="#999999" d="M386.702,-428C386.702,-428 337.298,-428 337.298,-428 333.632,-428 329.965,-424.333 329.965,-420.667 329.965,-420.667 329.965,-413.333 329.965,-413.333 329.965,-409.667 333.632,-406 337.298,-406 337.298,-406 386.702,-406 386.702,-406 390.368,-406 394.035,-409.667 394.035,-413.333 394.035,-413.333 394.035,-420.667 394.035,-420.667 394.035,-424.333 390.368,-428 386.702,-428"/>
<text text-anchor="middle" x="362" y="-413.4" font-family="Helvetica,sans-Serif" font-size="12.00" fill="white">Equatable</text>
</a>
</g>
</g>
<!-- Equatable&#45;&gt;Comparable -->
<g id="edge23" class="edge">
<path fill="none" stroke="#cccccc" d="M365.372,-405.883C371.638,-387.086 385.179,-346.463 393.348,-321.956"/>
<polygon fill="#cccccc" stroke="#cccccc" points="396.739,-322.852 396.581,-312.258 390.098,-320.638 396.739,-322.852"/>
</g>
<!-- Hashable -->
<g id="node8" class="node">
<g id="a_node8"><a xlink:href="/swift-2/protocol/Hashable/" target="_top">
<path fill="#999999" stroke="#999999" d="M430.694,-254C430.694,-254 385.306,-254 385.306,-254 381.639,-254 377.973,-250.333 377.973,-246.667 377.973,-246.667 377.973,-239.333 377.973,-239.333 377.973,-235.667 381.639,-232 385.306,-232 385.306,-232 430.694,-232 430.694,-232 434.361,-232 438.027,-235.667 438.027,-239.333 438.027,-239.333 438.027,-246.667 438.027,-246.667 438.027,-250.333 434.361,-254 430.694,-254"/>
<text text-anchor="middle" x="408" y="-239.4" font-family="Helvetica,sans-Serif" font-size="12.00" fill="white">Hashable</text>
</a>
</g>
</g>
<!-- Equatable&#45;&gt;Hashable -->
<g id="edge31" class="edge">
<path fill="none" stroke="#cccccc" d="M358.112,-405.922C350.211,-383.744 334.524,-329.538 353,-290 358.822,-277.542 369.86,-267.27 380.53,-259.617"/>
<polygon fill="#cccccc" stroke="#cccccc" points="382.512,-262.502 388.9,-254.05 378.636,-256.674 382.512,-262.502"/>
</g>
<!-- Equatable&#45;&gt;UInt64 -->
<g id="edge3" class="edge">
<path fill="none" stroke="#cccccc" d="M329.875,-412.846C241.28,-403.266 0,-370.855 0,-302 0,-302 0,-302 0,-126 0,-85.9877 23.1951,-75.8604 59,-58 115.043,-30.0442 552.93,-16.4199 684.645,-12.9263"/>
<polygon fill="#cccccc" stroke="#cccccc" points="684.754,-16.4248 694.659,-12.6647 684.571,-9.42717 684.754,-16.4248"/>
</g>
<!-- _Incrementable -->
<g id="node18" class="node">
<g id="a_node18"><a xlink:href="/swift-2/protocol/_Incrementable/" target="_top">
<path fill="#999999" stroke="#999999" d="M513.705,-370C513.705,-370 436.295,-370 436.295,-370 432.628,-370 428.961,-366.333 428.961,-362.667 428.961,-362.667 428.961,-355.333 428.961,-355.333 428.961,-351.667 432.628,-348 436.295,-348 436.295,-348 513.705,-348 513.705,-348 517.372,-348 521.039,-351.667 521.039,-355.333 521.039,-355.333 521.039,-362.667 521.039,-362.667 521.039,-366.333 517.372,-370 513.705,-370"/>
<text text-anchor="middle" x="475" y="-355.4" font-family="Helvetica,sans-Serif" font-size="12.00" fill="white">_Incrementable</text>
</a>
</g>
</g>
<!-- Equatable&#45;&gt;_Incrementable -->
<g id="edge34" class="edge">
<path fill="none" stroke="#cccccc" d="M382.202,-405.988C399.849,-397.243 425.687,-384.438 445.621,-374.559"/>
<polygon fill="#cccccc" stroke="#cccccc" points="447.186,-377.69 454.592,-370.114 444.078,-371.418 447.186,-377.69"/>
</g>
<!-- ForwardIndexType -->
<g id="node7" class="node">
<g id="a_node7"><a xlink:href="/swift-2/protocol/ForwardIndexType/" target="_top">
<path fill="#999999" stroke="#999999" d="M1277.21,-312C1277.21,-312 1182.79,-312 1182.79,-312 1179.13,-312 1175.46,-308.333 1175.46,-304.667 1175.46,-304.667 1175.46,-297.333 1175.46,-297.333 1175.46,-293.667 1179.13,-290 1182.79,-290 1182.79,-290 1277.21,-290 1277.21,-290 1280.87,-290 1284.54,-293.667 1284.54,-297.333 1284.54,-297.333 1284.54,-304.667 1284.54,-304.667 1284.54,-308.333 1280.87,-312 1277.21,-312"/>
<text text-anchor="middle" x="1230" y="-297.4" font-family="Helvetica,sans-Serif" font-size="12.00" fill="white">ForwardIndexType</text>
</a>
</g>
</g>
<!-- ForwardIndexType&#45;&gt;BidirectionalIndexType -->
<g id="edge40" class="edge">
<path fill="none" stroke="#cccccc" d="M1230,-289.988C1230,-282.91 1230,-273.171 1230,-264.478"/>
<polygon fill="#cccccc" stroke="#cccccc" points="1233.5,-264.304 1230,-254.304 1226.5,-264.304 1233.5,-264.304"/>
</g>
<!-- ForwardIndexType&#45;&gt;UInt64 -->
<g id="edge15" class="edge">
<path fill="none" stroke="#cccccc" d="M1255.76,-289.834C1271.84,-282.236 1291.75,-270.337 1304,-254 1322.83,-228.897 1323,-217.38 1323,-186 1323,-186 1323,-186 1323,-126 1323,-92.0094 1316.28,-76.8622 1288,-58 1244.11,-28.7252 877.95,-16.2469 759.095,-12.9429"/>
<polygon fill="#cccccc" stroke="#cccccc" points="759.117,-9.44226 749.026,-12.6686 758.926,-16.4397 759.117,-9.44226"/>
</g>
<!-- Hashable&#45;&gt;UInt64 -->
<g id="edge10" class="edge">
<path fill="none" stroke="#cccccc" d="M407.752,-231.575C407.618,-198.893 412.238,-98.2274 472,-58 506.262,-34.9376 624.065,-21.0088 684.933,-15.1862"/>
<polygon fill="#cccccc" stroke="#cccccc" points="685.266,-18.6704 694.898,-14.2568 684.616,-11.7006 685.266,-18.6704"/>
</g>
<!-- Hashable&#45;&gt;_IntegerType -->
<g id="edge27" class="edge">
<path fill="none" stroke="#cccccc" d="M418.369,-231.988C426.597,-224.045 438.293,-212.751 448.037,-203.344"/>
<polygon fill="#cccccc" stroke="#cccccc" points="450.565,-205.768 455.328,-196.304 445.703,-200.732 450.565,-205.768"/>
</g>
<!-- IntegerArithmeticType&#45;&gt;UInt64 -->
<g id="edge6" class="edge">
<path fill="none" stroke="#cccccc" d="M589.979,-231.888C629.244,-217.875 693.017,-188.405 721,-138 739.488,-104.697 733.289,-58.4051 727.432,-32.2012"/>
<polygon fill="#cccccc" stroke="#cccccc" points="730.786,-31.1829 725.016,-22.2973 723.986,-32.8419 730.786,-31.1829"/>
</g>
<!-- IntegerArithmeticType&#45;&gt;_IntegerType -->
<g id="edge28" class="edge">
<path fill="none" stroke="#cccccc" d="M540.731,-231.988C526.97,-223.52 507.023,-211.245 491.198,-201.507"/>
<polygon fill="#cccccc" stroke="#cccccc" points="492.786,-198.374 482.435,-196.114 489.117,-204.336 492.786,-198.374"/>
</g>
<!-- IntegerLiteralConvertible -->
<g id="node10" class="node">
<g id="a_node10"><a xlink:href="/swift-2/protocol/IntegerLiteralConvertible/" target="_top">
<path fill="#999999" stroke="#999999" d="M771.722,-254C771.722,-254 646.278,-254 646.278,-254 642.611,-254 638.944,-250.333 638.944,-246.667 638.944,-246.667 638.944,-239.333 638.944,-239.333 638.944,-235.667 642.611,-232 646.278,-232 646.278,-232 771.722,-232 771.722,-232 775.389,-232 779.056,-235.667 779.056,-239.333 779.056,-239.333 779.056,-246.667 779.056,-246.667 779.056,-250.333 775.389,-254 771.722,-254"/>
<text text-anchor="middle" x="709" y="-239.4" font-family="Helvetica,sans-Serif" font-size="12.00" fill="white">IntegerLiteralConvertible</text>
</a>
</g>
</g>
<!-- IntegerLiteralConvertible&#45;&gt;UInt64 -->
<g id="edge7" class="edge">
<path fill="none" stroke="#cccccc" d="M724.136,-231.918C735,-223.702 748.776,-211.025 755,-196 778.471,-139.335 773.778,-116.388 755,-58 751.73,-47.8305 745.288,-38.0046 738.957,-30.0635"/>
<polygon fill="#cccccc" stroke="#cccccc" points="741.444,-27.5868 732.286,-22.2594 736.123,-32.1351 741.444,-27.5868"/>
</g>
<!-- IntegerLiteralConvertible&#45;&gt;_IntegerType -->
<g id="edge25" class="edge">
<path fill="none" stroke="#cccccc" d="M665.556,-231.988C623.636,-222.328 560.216,-207.712 516.166,-197.561"/>
<polygon fill="#cccccc" stroke="#cccccc" points="516.774,-194.109 506.244,-195.274 515.202,-200.931 516.774,-194.109"/>
</g>
<!-- IntegerType -->
<g id="node11" class="node">
<g id="a_node11"><a xlink:href="/swift-2/protocol/IntegerType/" target="_top">
<path fill="#999999" stroke="#999999" d="M705.202,-138C705.202,-138 646.798,-138 646.798,-138 643.132,-138 639.465,-134.333 639.465,-130.667 639.465,-130.667 639.465,-123.333 639.465,-123.333 639.465,-119.667 643.132,-116 646.798,-116 646.798,-116 705.202,-116 705.202,-116 708.868,-116 712.535,-119.667 712.535,-123.333 712.535,-123.333 712.535,-130.667 712.535,-130.667 712.535,-134.333 708.868,-138 705.202,-138"/>
<text text-anchor="middle" x="676" y="-123.4" font-family="Helvetica,sans-Serif" font-size="12.00" fill="white">IntegerType</text>
</a>
</g>
</g>
<!-- IntegerType&#45;&gt;UInt64 -->
<g id="edge8" class="edge">
<path fill="none" stroke="#cccccc" d="M680.082,-115.883C687.701,-97.0017 704.206,-56.098 714.08,-31.6272"/>
<polygon fill="#cccccc" stroke="#cccccc" points="717.365,-32.8412 717.861,-22.2579 710.873,-30.2218 717.365,-32.8412"/>
</g>
<!-- UnsignedIntegerType -->
<g id="node15" class="node">
<g id="a_node15"><a xlink:href="/swift-2/protocol/UnsignedIntegerType/" target="_top">
<path fill="#999999" stroke="#999999" d="M667.728,-80C667.728,-80 558.272,-80 558.272,-80 554.605,-80 550.938,-76.3333 550.938,-72.6667 550.938,-72.6667 550.938,-65.3333 550.938,-65.3333 550.938,-61.6667 554.605,-58 558.272,-58 558.272,-58 667.728,-58 667.728,-58 671.395,-58 675.062,-61.6667 675.062,-65.3333 675.062,-65.3333 675.062,-72.6667 675.062,-72.6667 675.062,-76.3333 671.395,-80 667.728,-80"/>
<text text-anchor="middle" x="613" y="-65.4" font-family="Helvetica,sans-Serif" font-size="12.00" fill="white">UnsignedIntegerType</text>
</a>
</g>
</g>
<!-- IntegerType&#45;&gt;UnsignedIntegerType -->
<g id="edge45" class="edge">
<path fill="none" stroke="#cccccc" d="M664.737,-115.988C655.712,-107.966 642.843,-96.5272 632.198,-87.065"/>
<polygon fill="#cccccc" stroke="#cccccc" points="634.391,-84.3316 624.592,-80.3039 629.741,-89.5635 634.391,-84.3316"/>
</g>
<!-- RandomAccessIndexType&#45;&gt;IntegerType -->
<g id="edge36" class="edge">
<path fill="none" stroke="#cccccc" d="M876.378,-173.988C833.013,-164.036 766.736,-148.825 722.418,-138.653"/>
<polygon fill="#cccccc" stroke="#cccccc" points="723.011,-135.199 712.482,-136.373 721.446,-142.021 723.011,-135.199"/>
</g>
<!-- RandomAccessIndexType&#45;&gt;UInt64 -->
<g id="edge13" class="edge">
<path fill="none" stroke="#cccccc" d="M915.249,-173.724C903.887,-150.176 872.939,-91.7474 831,-58 809.812,-40.9506 781.383,-29.2321 758.871,-21.891"/>
<polygon fill="#cccccc" stroke="#cccccc" points="759.897,-18.5447 749.309,-18.9164 757.818,-25.2288 759.897,-18.5447"/>
</g>
<!-- Strideable&#45;&gt;RandomAccessIndexType -->
<g id="edge38" class="edge">
<path fill="none" stroke="#cccccc" d="M845.269,-231.988C859.03,-223.52 878.977,-211.245 894.802,-201.507"/>
<polygon fill="#cccccc" stroke="#cccccc" points="896.883,-204.336 903.565,-196.114 893.214,-198.374 896.883,-204.336"/>
</g>
<!-- Strideable&#45;&gt;UInt64 -->
<g id="edge16" class="edge">
<path fill="none" stroke="#cccccc" d="M827.816,-231.627C824.07,-202.266 810.434,-116.898 773,-58 765.705,-46.5217 754.786,-36.14 744.921,-28.1562"/>
<polygon fill="#cccccc" stroke="#cccccc" points="747.042,-25.3726 736.984,-22.0425 742.77,-30.9179 747.042,-25.3726"/>
</g>
<!-- UnsignedIntegerType&#45;&gt;UInt64 -->
<g id="edge9" class="edge">
<path fill="none" stroke="#cccccc" d="M632.487,-57.9883C649.432,-49.2827 674.208,-36.5539 693.4,-26.6937"/>
<polygon fill="#cccccc" stroke="#cccccc" points="695.019,-29.7968 702.314,-22.1138 691.82,-23.5705 695.019,-29.7968"/>
</g>
<!-- _CVarArgAlignedType&#45;&gt;UInt64 -->
<g id="edge22" class="edge">
<path fill="none" stroke="#cccccc" d="M242.41,-59.7149C247.345,-59.1177 252.252,-58.5391 257,-58 415.78,-39.9719 605.527,-22.452 684.573,-15.3325"/>
<polygon fill="#cccccc" stroke="#cccccc" points="685.331,-18.7786 694.977,-14.3979 684.704,-11.8067 685.331,-18.7786"/>
</g>
<!-- _DisallowMixedSignArithmetic -->
<g id="node17" class="node">
<g id="a_node17"><a xlink:href="/swift-2/protocol/_DisallowMixedSignArithmetic/" target="_top">
<path fill="#999999" stroke="#999999" d="M613.709,-138C613.709,-138 458.291,-138 458.291,-138 454.624,-138 450.957,-134.333 450.957,-130.667 450.957,-130.667 450.957,-123.333 450.957,-123.333 450.957,-119.667 454.624,-116 458.291,-116 458.291,-116 613.709,-116 613.709,-116 617.376,-116 621.043,-119.667 621.043,-123.333 621.043,-123.333 621.043,-130.667 621.043,-130.667 621.043,-134.333 617.376,-138 613.709,-138"/>
<text text-anchor="middle" x="536" y="-123.4" font-family="Helvetica,sans-Serif" font-size="12.00" fill="white">_DisallowMixedSignArithmetic</text>
</a>
</g>
</g>
<!-- _DisallowMixedSignArithmetic&#45;&gt;UInt64 -->
<g id="edge4" class="edge">
<path fill="none" stroke="#cccccc" d="M533.62,-115.877C530.832,-101.271 528.187,-74.2568 542,-58 560.251,-36.5195 637.485,-22.9281 684.654,-16.4661"/>
<polygon fill="#cccccc" stroke="#cccccc" points="685.348,-19.9048 694.802,-15.1219 684.429,-12.9654 685.348,-19.9048"/>
</g>
<!-- _DisallowMixedSignArithmetic&#45;&gt;UnsignedIntegerType -->
<g id="edge44" class="edge">
<path fill="none" stroke="#cccccc" d="M549.766,-115.988C561.192,-107.678 577.659,-95.7028 590.924,-86.0554"/>
<polygon fill="#cccccc" stroke="#cccccc" points="593.065,-88.8262 599.094,-80.1138 588.948,-83.165 593.065,-88.8262"/>
</g>
<!-- _Incrementable&#45;&gt;ForwardIndexType -->
<g id="edge41" class="edge">
<path fill="none" stroke="#cccccc" d="M521.383,-355.772C631.038,-350.304 914.79,-334.967 1151,-312 1155.74,-311.539 1160.63,-311.022 1165.55,-310.47"/>
<polygon fill="#cccccc" stroke="#cccccc" points="1166.12,-313.928 1175.65,-309.3 1165.31,-306.975 1166.12,-313.928"/>
</g>
<!-- _Incrementable&#45;&gt;UInt64 -->
<g id="edge12" class="edge">
<path fill="none" stroke="#cccccc" d="M521.228,-356.027C631.289,-350.99 906.28,-336.308 995,-312 1062.49,-293.51 1137,-313.974 1137,-244 1137,-244 1137,-244 1137,-126 1137,-78.3117 1097.7,-77.0978 1054,-58 1001.72,-35.1505 834.714,-20.3148 759.431,-14.6235"/>
<polygon fill="#cccccc" stroke="#cccccc" points="759.245,-11.1001 749.013,-13.8502 758.727,-18.0809 759.245,-11.1001"/>
</g>
<!-- _Incrementable&#45;&gt;_IntegerType -->
<g id="edge30" class="edge">
<path fill="none" stroke="#cccccc" d="M474.464,-347.756C473.017,-320.097 469.009,-243.509 467.074,-206.519"/>
<polygon fill="#cccccc" stroke="#cccccc" points="470.562,-206.211 466.545,-196.408 463.572,-206.577 470.562,-206.211"/>
</g>
<!-- _IntegerArithmeticType -->
<g id="node19" class="node">
<g id="a_node19"><a xlink:href="/swift-2/protocol/_IntegerArithmeticType/" target="_top">
<path fill="#999999" stroke="#999999" d="M694.215,-312C694.215,-312 575.785,-312 575.785,-312 572.118,-312 568.452,-308.333 568.452,-304.667 568.452,-304.667 568.452,-297.333 568.452,-297.333 568.452,-293.667 572.118,-290 575.785,-290 575.785,-290 694.215,-290 694.215,-290 697.882,-290 701.548,-293.667 701.548,-297.333 701.548,-297.333 701.548,-304.667 701.548,-304.667 701.548,-308.333 697.882,-312 694.215,-312"/>
<text text-anchor="middle" x="635" y="-297.4" font-family="Helvetica,sans-Serif" font-size="12.00" fill="white">_IntegerArithmeticType</text>
</a>
</g>
</g>
<!-- _IntegerArithmeticType&#45;&gt;IntegerArithmeticType -->
<g id="edge32" class="edge">
<path fill="none" stroke="#cccccc" d="M621.055,-289.988C609.481,-281.678 592.8,-269.703 579.363,-260.055"/>
<polygon fill="#cccccc" stroke="#cccccc" points="581.252,-257.103 571.087,-254.114 577.169,-262.789 581.252,-257.103"/>
</g>
<!-- _IntegerArithmeticType&#45;&gt;UInt64 -->
<g id="edge1" class="edge">
<path fill="none" stroke="#cccccc" d="M701.616,-296.451C810.129,-290.084 1015.58,-275.362 1041,-254 1065.12,-233.735 1061,-217.502 1061,-186 1061,-186 1061,-186 1061,-126 1061,-62.9018 847.336,-28.1393 759.264,-16.4905"/>
<polygon fill="#cccccc" stroke="#cccccc" points="759.535,-12.9965 749.169,-15.1841 758.637,-19.9386 759.535,-12.9965"/>
</g>
<!-- _IntegerType&#45;&gt;IntegerType -->
<g id="edge35" class="edge">
<path fill="none" stroke="#cccccc" d="M503.544,-173.988C538.849,-164.574 591.799,-150.454 629.706,-140.345"/>
<polygon fill="#cccccc" stroke="#cccccc" points="630.724,-143.696 639.485,-137.737 628.92,-136.932 630.724,-143.696"/>
</g>
<!-- _IntegerType&#45;&gt;UInt64 -->
<g id="edge5" class="edge">
<path fill="none" stroke="#cccccc" d="M457.388,-173.92C446.846,-160.282 431.603,-135.427 442,-116 463.928,-75.0272 486.398,-76.5662 529,-58 580.596,-35.5138 644.955,-22.9922 684.764,-16.8756"/>
<polygon fill="#cccccc" stroke="#cccccc" points="685.441,-20.3135 694.821,-15.3868 684.416,-13.389 685.441,-20.3135"/>
</g>
<!-- _IntegerType&#45;&gt;_DisallowMixedSignArithmetic -->
<g id="edge24" class="edge">
<path fill="none" stroke="#cccccc" d="M478.515,-173.988C488.641,-165.887 503.122,-154.303 515.016,-144.787"/>
<polygon fill="#cccccc" stroke="#cccccc" points="517.498,-147.284 523.12,-138.304 513.125,-141.818 517.498,-147.284"/>
</g>
<!-- _RandomAccessAmbiguity -->
<g id="node21" class="node">
<g id="a_node21"><a xlink:href="/swift-2/protocol/_RandomAccessAmbiguity/" target="_top">
<path fill="#999999" stroke="#999999" d="M1025.21,-254C1025.21,-254 886.786,-254 886.786,-254 883.12,-254 879.453,-250.333 879.453,-246.667 879.453,-246.667 879.453,-239.333 879.453,-239.333 879.453,-235.667 883.12,-232 886.786,-232 886.786,-232 1025.21,-232 1025.21,-232 1028.88,-232 1032.55,-235.667 1032.55,-239.333 1032.55,-239.333 1032.55,-246.667 1032.55,-246.667 1032.55,-250.333 1028.88,-254 1025.21,-254"/>
<text text-anchor="middle" x="956" y="-239.4" font-family="Helvetica,sans-Serif" font-size="12.00" fill="white">_RandomAccessAmbiguity</text>
</a>
</g>
</g>
<!-- _RandomAccessAmbiguity&#45;&gt;RandomAccessIndexType -->
<g id="edge39" class="edge">
<path fill="none" stroke="#cccccc" d="M949.564,-231.988C944.71,-224.438 937.911,-213.861 932.056,-204.754"/>
<polygon fill="#cccccc" stroke="#cccccc" points="934.976,-202.823 926.624,-196.304 929.087,-206.608 934.976,-202.823"/>
</g>
<!-- _RandomAccessAmbiguity&#45;&gt;UInt64 -->
<g id="edge18" class="edge">
<path fill="none" stroke="#cccccc" d="M971.644,-231.792C989.138,-219.005 1013.7,-196.083 1003,-174 956.369,-77.8025 824.367,-35.191 759.256,-19.5917"/>
<polygon fill="#cccccc" stroke="#cccccc" points="759.935,-16.1565 749.404,-17.316 758.36,-22.9769 759.935,-16.1565"/>
</g>
<!-- _Reflectable -->
<g id="node22" class="node">
<g id="a_node22"><a xlink:href="/swift-2/protocol/_Reflectable/" target="_top">
<path fill="#999999" stroke="#999999" d="M1271.7,-80C1271.7,-80 1210.3,-80 1210.3,-80 1206.63,-80 1202.97,-76.3333 1202.97,-72.6667 1202.97,-72.6667 1202.97,-65.3333 1202.97,-65.3333 1202.97,-61.6667 1206.63,-58 1210.3,-58 1210.3,-58 1271.7,-58 1271.7,-58 1275.37,-58 1279.03,-61.6667 1279.03,-65.3333 1279.03,-65.3333 1279.03,-72.6667 1279.03,-72.6667 1279.03,-76.3333 1275.37,-80 1271.7,-80"/>
<text text-anchor="middle" x="1241" y="-65.4" font-family="Helvetica,sans-Serif" font-size="12.00" fill="white">_Reflectable</text>
</a>
</g>
</g>
<!-- _Reflectable&#45;&gt;UInt64 -->
<g id="edge20" class="edge">
<path fill="none" stroke="#cccccc" d="M1202.73,-60.2276C1198.11,-59.4124 1193.46,-58.6468 1189,-58 1029.86,-34.9097 838.49,-20.0792 759.204,-14.4986"/>
<polygon fill="#cccccc" stroke="#cccccc" points="759.435,-11.0063 749.215,-13.803 758.948,-17.9894 759.435,-11.0063"/>
</g>
<!-- _Strideable -->
<g id="node23" class="node">
<g id="a_node23"><a xlink:href="/swift-2/protocol/_Strideable/" target="_top">
<path fill="#999999" stroke="#999999" d="M978.7,-312C978.7,-312 923.3,-312 923.3,-312 919.634,-312 915.967,-308.333 915.967,-304.667 915.967,-304.667 915.967,-297.333 915.967,-297.333 915.967,-293.667 919.634,-290 923.3,-290 923.3,-290 978.7,-290 978.7,-290 982.366,-290 986.033,-293.667 986.033,-297.333 986.033,-297.333 986.033,-304.667 986.033,-304.667 986.033,-308.333 982.366,-312 978.7,-312"/>
<text text-anchor="middle" x="951" y="-297.4" font-family="Helvetica,sans-Serif" font-size="12.00" fill="white">_Strideable</text>
</a>
</g>
</g>
<!-- _Strideable&#45;&gt;Strideable -->
<g id="edge43" class="edge">
<path fill="none" stroke="#cccccc" d="M929.189,-289.988C909.964,-281.164 881.735,-268.206 860.136,-258.292"/>
<polygon fill="#cccccc" stroke="#cccccc" points="861.582,-255.105 851.034,-254.114 858.662,-261.466 861.582,-255.105"/>
</g>
<!-- _Strideable&#45;&gt;UInt64 -->
<g id="edge17" class="edge">
<path fill="none" stroke="#cccccc" d="M986.102,-292.555C1010.38,-285.898 1042.12,-274.018 1064,-254 1089.08,-231.055 1099,-219.991 1099,-186 1099,-186 1099,-186 1099,-126 1099,-75.8664 1055.12,-77.6608 1009,-58 924.834,-22.1184 815.922,-13.9887 759.538,-12.2992"/>
<polygon fill="#cccccc" stroke="#cccccc" points="759.395,-8.79468 749.312,-12.0471 759.222,-15.7926 759.395,-8.79468"/>
</g>
</g>
</svg>
