<?xml version="1.0" encoding="UTF-8" standalone="no"?>
<!DOCTYPE svg PUBLIC "-//W3C//DTD SVG 1.1//EN"
 "http://www.w3.org/Graphics/SVG/1.1/DTD/svg11.dtd">
<!-- Generated by graphviz version 2.36.0 (20140111.2315)
 -->
<!-- Title: UnsafeMutablePointer&lt;Memory&gt; &#45; Type Hierarchy &#45; SwiftDoc.org Pages: 1 -->
<svg width="1108pt" height="427pt"
 viewBox="0.00 0.00 1107.78 427.20" xmlns="http://www.w3.org/2000/svg" xmlns:xlink="http://www.w3.org/1999/xlink">
<g id="graph0" class="graph" transform="scale(1 1) rotate(0) translate(7.2 369.6)">
<g transform="translate(0 -369.6)">
<g>
    <path fill="#666666" d="M13.846,10.832c-0.336-0.464-0.792-0.844-1.368-1.14s-1.224-0.444-1.944-0.444
        c-0.384,0-0.772,0.052-1.164,0.156C8.977,9.509,8.622,9.677,8.301,9.908c-0.32,0.232-0.58,0.52-0.78,0.864
        c-0.2,0.344-0.3,0.756-0.3,1.236c0,0.464,0.092,0.852,0.276,1.164c0.184,0.312,0.432,0.576,0.744,0.792s0.68,0.4,1.104,0.552
        c0.423,0.152,0.876,0.309,1.356,0.468c0.576,0.177,1.16,0.376,1.752,0.601c0.592,0.224,1.128,0.52,1.608,0.888
        s0.872,0.828,1.176,1.38s0.456,1.252,0.456,2.101c0,0.88-0.164,1.644-0.492,2.292c-0.328,0.647-0.765,1.184-1.308,1.607
        c-0.544,0.424-1.172,0.74-1.884,0.948s-1.444,0.312-2.196,0.312c-1.072,0-2.108-0.208-3.108-0.624
        c-1-0.415-1.828-1.031-2.484-1.848l1.848-1.56c0.4,0.592,0.936,1.071,1.608,1.439c0.672,0.368,1.399,0.552,2.184,0.552
        c0.4,0,0.8-0.056,1.2-0.168c0.4-0.111,0.764-0.288,1.092-0.527c0.328-0.24,0.596-0.54,0.804-0.9
        c0.208-0.36,0.312-0.796,0.312-1.308s-0.108-0.94-0.324-1.284c-0.216-0.344-0.508-0.636-0.876-0.876s-0.796-0.444-1.284-0.612
        c-0.488-0.168-1.004-0.34-1.548-0.516c-0.544-0.16-1.08-0.356-1.608-0.588c-0.528-0.232-1-0.528-1.416-0.889
        c-0.416-0.359-0.752-0.804-1.008-1.332c-0.256-0.527-0.384-1.184-0.384-1.968c0-0.848,0.172-1.576,0.516-2.184
        c0.344-0.608,0.792-1.112,1.344-1.512c0.552-0.4,1.176-0.692,1.872-0.876c0.696-0.184,1.396-0.276,2.1-0.276
        c0.992,0,1.92,0.176,2.784,0.528c0.864,0.352,1.56,0.824,2.088,1.416L13.846,10.832z"/>
    <path fill="#666666" d="M18.813,13.304l2.568,8.688h0.048l2.712-8.688h2.376l2.76,8.688h0.048l2.568-8.688h2.376L30.501,24.68
        h-2.352l-2.808-8.544h-0.048l-2.784,8.544h-2.352l-3.792-11.376H18.813z"/>
    <path fill="#666666" d="M38.685,9.2c0,0.416-0.147,0.76-0.44,1.032c-0.294,0.272-0.647,0.408-1.06,0.408s-0.762-0.14-1.047-0.42
        c-0.286-0.28-0.429-0.62-0.429-1.02c0-0.416,0.143-0.764,0.429-1.044c0.286-0.28,0.635-0.42,1.047-0.42s0.766,0.14,1.06,0.42
        C38.538,8.437,38.685,8.784,38.685,9.2z M38.325,24.68h-2.256V13.304h2.256V24.68z"/>
    <path fill="#666666" d="M47.613,15.152h-2.64v9.528h-2.256v-9.528h-2.256v-1.848h2.256v-2.376c0-0.672,0.076-1.292,0.228-1.86
        c0.152-0.568,0.4-1.06,0.744-1.476c0.344-0.416,0.784-0.744,1.32-0.984c0.536-0.24,1.188-0.36,1.956-0.36
        c0.544,0,1.016,0.056,1.416,0.168l-0.264,1.944c-0.176-0.048-0.352-0.088-0.528-0.12c-0.176-0.032-0.376-0.048-0.6-0.048
        c-0.432,0-0.78,0.076-1.044,0.228c-0.264,0.152-0.468,0.356-0.612,0.612s-0.24,0.548-0.288,0.876
        c-0.048,0.328-0.072,0.668-0.072,1.02v2.376h2.64V15.152z"/>
    <path fill="#666666" d="M54.909,15.152h-3.024v5.91c0,0.687,0.128,1.177,0.384,1.472c0.256,0.295,0.664,0.442,1.224,0.442
        c0.208,0,0.432-0.021,0.672-0.065c0.24-0.044,0.456-0.11,0.648-0.198l0.072,1.848c-0.272,0.096-0.572,0.172-0.9,0.229
        c-0.328,0.056-0.668,0.084-1.02,0.084c-1.072,0-1.892-0.296-2.46-0.889c-0.568-0.592-0.852-1.479-0.852-2.664v-6.168h-2.184
        v-1.848h2.184V10.04h2.232v3.264h3.024V15.152z"/>
    <path fill="#666666" d="M57.356,7.688h5.832c1.088,0,2.176,0.16,3.264,0.48c1.088,0.32,2.072,0.824,2.952,1.512
        s1.592,1.568,2.136,2.64c0.544,1.072,0.816,2.36,0.816,3.864c0,1.456-0.272,2.716-0.816,3.78s-1.256,1.943-2.136,2.64
        s-1.864,1.216-2.952,1.561c-1.088,0.344-2.176,0.516-3.264,0.516h-5.832V7.688z M59.732,22.593h2.976
        c1.024,0,1.972-0.145,2.844-0.432c0.872-0.288,1.624-0.704,2.256-1.248c0.632-0.544,1.124-1.216,1.476-2.017
        c0.352-0.8,0.528-1.704,0.528-2.712c0-1.056-0.176-1.983-0.528-2.784c-0.353-0.8-0.844-1.468-1.476-2.004
        c-0.632-0.536-1.384-0.944-2.256-1.224s-1.82-0.42-2.844-0.42h-2.976V22.593z"/>
    <path fill="#666666" d="M86.06,18.969c0,0.88-0.156,1.688-0.468,2.424c-0.312,0.736-0.744,1.372-1.296,1.908
        c-0.552,0.536-1.204,0.952-1.956,1.248c-0.752,0.296-1.56,0.443-2.424,0.443c-0.864,0-1.672-0.147-2.424-0.443
        c-0.752-0.296-1.4-0.712-1.944-1.248c-0.544-0.536-0.972-1.172-1.284-1.908c-0.312-0.735-0.468-1.544-0.468-2.424
        s0.156-1.684,0.468-2.412c0.312-0.728,0.74-1.356,1.284-1.884c0.543-0.528,1.191-0.939,1.944-1.236
        c0.752-0.296,1.56-0.444,2.424-0.444c0.864,0,1.672,0.148,2.424,0.444c0.752,0.297,1.404,0.708,1.956,1.236
        c0.552,0.527,0.984,1.156,1.296,1.884C85.904,17.285,86.06,18.089,86.06,18.969z M83.708,18.98c0-0.542-0.084-1.061-0.252-1.556
        c-0.169-0.494-0.414-0.929-0.734-1.304s-0.718-0.674-1.192-0.897s-1.015-0.335-1.625-0.335c-0.61,0-1.152,0.111-1.625,0.335
        c-0.474,0.224-0.871,0.522-1.191,0.897c-0.321,0.375-0.566,0.81-0.734,1.304C76.184,17.92,76.1,18.438,76.1,18.98
        c0,0.543,0.084,1.062,0.253,1.556c0.168,0.495,0.413,0.934,0.734,1.316c0.321,0.383,0.718,0.686,1.191,0.909
        c0.473,0.224,1.015,0.335,1.625,0.335c0.61,0,1.151-0.111,1.625-0.335s0.871-0.526,1.192-0.909s0.565-0.821,0.734-1.316
        C83.624,20.042,83.708,19.523,83.708,18.98z"/>
    <path fill="#666666" d="M96.428,16.184c-0.24-0.368-0.6-0.676-1.08-0.924s-0.992-0.372-1.536-0.372
        c-0.592,0-1.116,0.112-1.572,0.336c-0.456,0.225-0.844,0.524-1.164,0.9c-0.32,0.376-0.564,0.812-0.732,1.308
        s-0.252,1.017-0.252,1.56c0,0.545,0.084,1.064,0.252,1.561s0.412,0.933,0.732,1.308c0.32,0.376,0.712,0.677,1.176,0.9
        c0.464,0.225,0.992,0.336,1.584,0.336c0.576,0,1.1-0.111,1.572-0.336c0.472-0.224,0.86-0.528,1.164-0.912l1.512,1.368
        c-0.48,0.561-1.08,0.996-1.8,1.308c-0.72,0.312-1.536,0.468-2.448,0.468c-0.88,0-1.692-0.144-2.436-0.432
        c-0.744-0.288-1.388-0.691-1.932-1.212c-0.544-0.52-0.972-1.147-1.284-1.884s-0.468-1.561-0.468-2.473
        c0-0.896,0.152-1.711,0.456-2.447c0.304-0.736,0.728-1.368,1.272-1.896c0.543-0.527,1.188-0.936,1.932-1.224
        c0.744-0.288,1.548-0.433,2.412-0.433c0.8,0,1.596,0.16,2.388,0.48s1.419,0.784,1.884,1.392L96.428,16.184z"/>
    <path fill="#666666" d="M103.1,23.24c0,0.417-0.152,0.784-0.456,1.104c-0.304,0.32-0.688,0.479-1.152,0.479
        c-0.448,0-0.828-0.155-1.14-0.468c-0.312-0.312-0.468-0.676-0.468-1.092c0-0.432,0.152-0.804,0.456-1.116
        c0.304-0.312,0.688-0.468,1.152-0.468c0.464,0,0.848,0.152,1.152,0.456C102.947,22.44,103.1,22.808,103.1,23.24z"/>
    <path fill="#666666" d="M116.635,18.969c0,0.88-0.156,1.688-0.468,2.424c-0.312,0.736-0.744,1.372-1.296,1.908
        c-0.552,0.536-1.204,0.952-1.956,1.248c-0.752,0.296-1.56,0.443-2.424,0.443c-0.864,0-1.672-0.147-2.424-0.443
        c-0.752-0.296-1.4-0.712-1.944-1.248c-0.544-0.536-0.972-1.172-1.284-1.908c-0.312-0.735-0.468-1.544-0.468-2.424
        s0.156-1.684,0.468-2.412c0.312-0.728,0.74-1.356,1.284-1.884c0.543-0.528,1.191-0.939,1.944-1.236
        c0.752-0.296,1.56-0.444,2.424-0.444c0.864,0,1.672,0.148,2.424,0.444c0.752,0.297,1.404,0.708,1.956,1.236
        c0.552,0.527,0.984,1.156,1.296,1.884C116.479,17.285,116.635,18.089,116.635,18.969z M114.283,18.98
        c0-0.542-0.084-1.061-0.252-1.556c-0.169-0.494-0.414-0.929-0.734-1.304s-0.718-0.674-1.192-0.897s-1.015-0.335-1.625-0.335
        c-0.61,0-1.152,0.111-1.625,0.335c-0.474,0.224-0.871,0.522-1.191,0.897c-0.321,0.375-0.566,0.81-0.734,1.304
        c-0.169,0.495-0.253,1.014-0.253,1.556c0,0.543,0.084,1.062,0.253,1.556c0.168,0.495,0.413,0.934,0.734,1.316
        c0.321,0.383,0.718,0.686,1.191,0.909c0.473,0.224,1.015,0.335,1.625,0.335c0.61,0,1.151-0.111,1.625-0.335
        s0.871-0.526,1.192-0.909s0.565-0.821,0.734-1.316C114.199,20.042,114.283,19.523,114.283,18.98z"/>
    <path fill="#666666" d="M119.251,14.577c-0.016-0.48-0.04-0.904-0.072-1.272h2.136c0.032,0.288,0.056,0.62,0.072,0.996
        c0.016,0.376,0.024,0.684,0.024,0.924h0.072c0.32-0.672,0.788-1.212,1.404-1.62c0.616-0.408,1.308-0.612,2.076-0.612
        c0.352,0,0.648,0.033,0.888,0.097l-0.096,2.088c-0.32-0.08-0.664-0.12-1.032-0.12c-0.544,0-1.016,0.101-1.416,0.3
        c-0.4,0.2-0.732,0.468-0.996,0.805c-0.264,0.336-0.46,0.724-0.588,1.163c-0.128,0.44-0.192,0.9-0.192,1.381v5.976h-2.256v-8.928
        C119.275,15.449,119.267,15.056,119.251,14.577z"/>
    <path fill="#666666" d="M128.419,26.625c0.496,0.56,1.116,1.008,1.86,1.344c0.744,0.336,1.508,0.504,2.292,0.504
        c0.752,0,1.384-0.108,1.896-0.324s0.924-0.512,1.236-0.888s0.536-0.82,0.672-1.332c0.136-0.513,0.204-1.064,0.204-1.656v-1.464
        h-0.048c-0.416,0.641-0.984,1.128-1.704,1.464c-0.72,0.336-1.488,0.504-2.304,0.504c-0.864,0-1.652-0.151-2.364-0.456
        c-0.712-0.304-1.316-0.72-1.812-1.248c-0.496-0.527-0.88-1.147-1.152-1.859s-0.408-1.477-0.408-2.292
        c0-0.816,0.136-1.584,0.408-2.305c0.272-0.72,0.656-1.348,1.152-1.884c0.496-0.535,1.096-0.96,1.8-1.271
        c0.704-0.312,1.488-0.469,2.352-0.469c0.816,0,1.596,0.177,2.34,0.528c0.744,0.353,1.332,0.888,1.764,1.608h0.048v-1.824h2.184
        v10.8c0,0.832-0.104,1.628-0.312,2.388c-0.208,0.76-0.56,1.433-1.056,2.017s-1.144,1.052-1.944,1.404
        c-0.8,0.352-1.792,0.527-2.976,0.527c-0.992,0-1.988-0.18-2.988-0.54c-1-0.359-1.86-0.868-2.58-1.523L128.419,26.625z
         M129.091,18.873c0,0.527,0.084,1.031,0.253,1.512c0.168,0.479,0.417,0.904,0.746,1.271c0.329,0.369,0.726,0.664,1.192,0.889
        c0.465,0.224,0.995,0.336,1.589,0.336c0.577,0,1.107-0.104,1.589-0.312c0.481-0.207,0.891-0.491,1.228-0.852
        s0.598-0.784,0.782-1.272c0.185-0.487,0.277-1.012,0.277-1.571c0-0.544-0.093-1.057-0.277-1.536
        c-0.185-0.48-0.449-0.904-0.794-1.272c-0.345-0.367-0.755-0.66-1.228-0.876c-0.474-0.216-1-0.324-1.577-0.324
        c-0.594,0-1.124,0.108-1.589,0.324c-0.466,0.216-0.863,0.504-1.192,0.864s-0.578,0.784-0.746,1.271
        C129.175,17.812,129.091,18.329,129.091,18.873z"/>
</g>
<g><a xlink:href="/" pointer-events="all" target="_top"><polygon fill="none" points="0,0 145,0 145,35 0,35 0,0"/></a></g>

</g>


<!-- BidirectionalIndexType -->
<g id="node1" class="node">
<g id="a_node1"><a xlink:href="/swift-2/protocol/BidirectionalIndexType/" target="_top">
<path fill="#999999" stroke="#999999" d="M496.008,-138C496.008,-138 380.557,-138 380.557,-138 376.89,-138 373.224,-134.333 373.224,-130.667 373.224,-130.667 373.224,-123.333 373.224,-123.333 373.224,-119.667 376.89,-116 380.557,-116 380.557,-116 496.008,-116 496.008,-116 499.674,-116 503.341,-119.667 503.341,-123.333 503.341,-123.333 503.341,-130.667 503.341,-130.667 503.341,-134.333 499.674,-138 496.008,-138"/>
<text text-anchor="middle" x="438.282" y="-123.4" font-family="Helvetica,sans-Serif" font-size="12.00" fill="white">BidirectionalIndexType</text>
</a>
</g>
</g>
<!-- RandomAccessIndexType -->
<g id="node9" class="node">
<g id="a_node9"><a xlink:href="/swift-2/protocol/RandomAccessIndexType/" target="_top">
<path fill="#999999" stroke="#999999" d="M754.508,-80C754.508,-80 620.057,-80 620.057,-80 616.39,-80 612.724,-76.3333 612.724,-72.6667 612.724,-72.6667 612.724,-65.3333 612.724,-65.3333 612.724,-61.6667 616.39,-58 620.057,-58 620.057,-58 754.508,-58 754.508,-58 758.174,-58 761.841,-61.6667 761.841,-65.3333 761.841,-65.3333 761.841,-72.6667 761.841,-72.6667 761.841,-76.3333 758.174,-80 754.508,-80"/>
<text text-anchor="middle" x="687.282" y="-65.4" font-family="Helvetica,sans-Serif" font-size="12.00" fill="white">RandomAccessIndexType</text>
</a>
</g>
</g>
<!-- BidirectionalIndexType&#45;&gt;RandomAccessIndexType -->
<g id="edge20" class="edge">
<path fill="none" stroke="#cccccc" d="M482.798,-115.988C524.804,-106.541 587.877,-92.3563 632.855,-82.2407"/>
<polygon fill="#cccccc" stroke="#cccccc" points="633.744,-85.6282 642.732,-80.0192 632.208,-78.7988 633.744,-85.6282"/>
</g>
<!-- UnsafeMutablePointer&lt;Memory&gt; -->
<g id="node11" class="node">
<g id="a_node11"><a xlink:href="/swift-2/type/UnsafeMutablePointer/" target="_top">
<polygon fill="#ee543d" stroke="#ee543d" points="629.347,-22 443.218,-22 443.218,-0 629.347,-0 629.347,-22"/>
<text text-anchor="middle" x="536.282" y="-7.4" font-family="Helvetica,sans-Serif" font-size="12.00" fill="white">UnsafeMutablePointer&lt;Memory&gt;</text>
</a>
</g>
</g>
<!-- BidirectionalIndexType&#45;&gt;UnsafeMutablePointer&lt;Memory&gt; -->
<g id="edge5" class="edge">
<path fill="none" stroke="#cccccc" d="M434.447,-115.835C429.797,-101.655 423.901,-75.6894 435.282,-58 445.043,-42.8293 461.173,-32.6025 477.709,-25.7325"/>
<polygon fill="#cccccc" stroke="#cccccc" points="479.322,-28.8647 487.446,-22.0635 476.854,-22.3143 479.322,-28.8647"/>
</g>
<!-- CVarArgType -->
<g id="node2" class="node">
<g id="a_node2"><a xlink:href="/swift-2/protocol/CVarArgType/" target="_top">
<path fill="#999999" stroke="#999999" d="M103.311,-80C103.311,-80 37.2532,-80 37.2532,-80 33.5865,-80 29.9199,-76.3333 29.9199,-72.6667 29.9199,-72.6667 29.9199,-65.3333 29.9199,-65.3333 29.9199,-61.6667 33.5865,-58 37.2532,-58 37.2532,-58 103.311,-58 103.311,-58 106.978,-58 110.645,-61.6667 110.645,-65.3333 110.645,-65.3333 110.645,-72.6667 110.645,-72.6667 110.645,-76.3333 106.978,-80 103.311,-80"/>
<text text-anchor="middle" x="70.2823" y="-65.4" font-family="Helvetica,sans-Serif" font-size="12.00" fill="white">CVarArgType</text>
</a>
</g>
</g>
<!-- CVarArgType&#45;&gt;UnsafeMutablePointer&lt;Memory&gt; -->
<g id="edge15" class="edge">
<path fill="none" stroke="#cccccc" d="M110.78,-60.3127C115.658,-59.4826 120.577,-58.6902 125.282,-58 229.727,-42.6785 349.765,-29.7833 433.037,-21.5811"/>
<polygon fill="#cccccc" stroke="#cccccc" points="433.395,-25.0628 443.006,-20.6042 432.713,-18.0962 433.395,-25.0628"/>
</g>
<!-- Comparable -->
<g id="node3" class="node">
<g id="a_node3"><a xlink:href="/swift-2/protocol/Comparable/" target="_top">
<path fill="#999999" stroke="#999999" d="M561.474,-196C561.474,-196 501.091,-196 501.091,-196 497.424,-196 493.758,-192.333 493.758,-188.667 493.758,-188.667 493.758,-181.333 493.758,-181.333 493.758,-177.667 497.424,-174 501.091,-174 501.091,-174 561.474,-174 561.474,-174 565.14,-174 568.807,-177.667 568.807,-181.333 568.807,-181.333 568.807,-188.667 568.807,-188.667 568.807,-192.333 565.14,-196 561.474,-196"/>
<text text-anchor="middle" x="531.282" y="-181.4" font-family="Helvetica,sans-Serif" font-size="12.00" fill="white">Comparable</text>
</a>
</g>
</g>
<!-- Strideable -->
<g id="node10" class="node">
<g id="a_node10"><a xlink:href="/swift-2/protocol/Strideable/" target="_top">
<path fill="#999999" stroke="#999999" d="M715.975,-138C715.975,-138 666.589,-138 666.589,-138 662.923,-138 659.256,-134.333 659.256,-130.667 659.256,-130.667 659.256,-123.333 659.256,-123.333 659.256,-119.667 662.923,-116 666.589,-116 666.589,-116 715.975,-116 715.975,-116 719.642,-116 723.309,-119.667 723.309,-123.333 723.309,-123.333 723.309,-130.667 723.309,-130.667 723.309,-134.333 719.642,-138 715.975,-138"/>
<text text-anchor="middle" x="691.282" y="-123.4" font-family="Helvetica,sans-Serif" font-size="12.00" fill="white">Strideable</text>
</a>
</g>
</g>
<!-- Comparable&#45;&gt;Strideable -->
<g id="edge23" class="edge">
<path fill="none" stroke="#cccccc" d="M559.887,-173.988C585.858,-164.898 624.361,-151.422 652.981,-141.405"/>
<polygon fill="#cccccc" stroke="#cccccc" points="654.373,-144.626 662.656,-138.019 652.061,-138.019 654.373,-144.626"/>
</g>
<!-- Comparable&#45;&gt;UnsafeMutablePointer&lt;Memory&gt; -->
<g id="edge10" class="edge">
<path fill="none" stroke="#cccccc" d="M530.389,-173.996C528.741,-160.006 524.217,-134.265 512.282,-116 498.461,-94.848 479.102,-102.833 468.282,-80 464.095,-71.1641 463.698,-66.6364 468.282,-58 475.435,-44.5266 488.491,-34.279 501.266,-26.9148"/>
<polygon fill="#cccccc" stroke="#cccccc" points="503.233,-29.8333 510.429,-22.0572 499.954,-23.6486 503.233,-29.8333"/>
</g>
<!-- CustomDebugStringConvertible -->
<g id="node4" class="node">
<g id="a_node4"><a xlink:href="/swift-2/protocol/CustomDebugStringConvertible/" target="_top">
<path fill="#999999" stroke="#999999" d="M338.012,-80C338.012,-80 174.553,-80 174.553,-80 170.886,-80 167.219,-76.3333 167.219,-72.6667 167.219,-72.6667 167.219,-65.3333 167.219,-65.3333 167.219,-61.6667 170.886,-58 174.553,-58 174.553,-58 338.012,-58 338.012,-58 341.679,-58 345.345,-61.6667 345.345,-65.3333 345.345,-65.3333 345.345,-72.6667 345.345,-72.6667 345.345,-76.3333 341.679,-80 338.012,-80"/>
<text text-anchor="middle" x="256.282" y="-65.4" font-family="Helvetica,sans-Serif" font-size="12.00" fill="white">CustomDebugStringConvertible</text>
</a>
</g>
</g>
<!-- CustomDebugStringConvertible&#45;&gt;UnsafeMutablePointer&lt;Memory&gt; -->
<g id="edge13" class="edge">
<path fill="none" stroke="#cccccc" d="M306.341,-57.9883C353.973,-48.4618 425.694,-34.1176 476.349,-23.9866"/>
<polygon fill="#cccccc" stroke="#cccccc" points="477.067,-27.4125 486.186,-22.0192 475.694,-20.5485 477.067,-27.4125"/>
</g>
<!-- Equatable -->
<g id="node5" class="node">
<g id="a_node5"><a xlink:href="/swift-2/protocol/Equatable/" target="_top">
<path fill="#999999" stroke="#999999" d="M462.984,-312C462.984,-312 413.58,-312 413.58,-312 409.914,-312 406.247,-308.333 406.247,-304.667 406.247,-304.667 406.247,-297.333 406.247,-297.333 406.247,-293.667 409.914,-290 413.58,-290 413.58,-290 462.984,-290 462.984,-290 466.651,-290 470.317,-293.667 470.317,-297.333 470.317,-297.333 470.317,-304.667 470.317,-304.667 470.317,-308.333 466.651,-312 462.984,-312"/>
<text text-anchor="middle" x="438.282" y="-297.4" font-family="Helvetica,sans-Serif" font-size="12.00" fill="white">Equatable</text>
</a>
</g>
</g>
<!-- Equatable&#45;&gt;Comparable -->
<g id="edge25" class="edge">
<path fill="none" stroke="#cccccc" d="M446.535,-289.883C462.283,-270.58 496.806,-228.261 516.587,-204.014"/>
<polygon fill="#cccccc" stroke="#cccccc" points="519.305,-206.219 522.914,-196.258 513.881,-201.794 519.305,-206.219"/>
</g>
<!-- Hashable -->
<g id="node7" class="node">
<g id="a_node7"><a xlink:href="/swift-2/protocol/Hashable/" target="_top">
<path fill="#999999" stroke="#999999" d="M859.976,-254C859.976,-254 814.588,-254 814.588,-254 810.921,-254 807.255,-250.333 807.255,-246.667 807.255,-246.667 807.255,-239.333 807.255,-239.333 807.255,-235.667 810.921,-232 814.588,-232 814.588,-232 859.976,-232 859.976,-232 863.643,-232 867.31,-235.667 867.31,-239.333 867.31,-239.333 867.31,-246.667 867.31,-246.667 867.31,-250.333 863.643,-254 859.976,-254"/>
<text text-anchor="middle" x="837.282" y="-239.4" font-family="Helvetica,sans-Serif" font-size="12.00" fill="white">Hashable</text>
</a>
</g>
</g>
<!-- Equatable&#45;&gt;Hashable -->
<g id="edge16" class="edge">
<path fill="none" stroke="#cccccc" d="M470.596,-295.465C542.949,-285.31 717.826,-260.766 797.064,-249.645"/>
<polygon fill="#cccccc" stroke="#cccccc" points="797.724,-253.086 807.14,-248.23 796.751,-246.154 797.724,-253.086"/>
</g>
<!-- Equatable&#45;&gt;UnsafeMutablePointer&lt;Memory&gt; -->
<g id="edge1" class="edge">
<path fill="none" stroke="#cccccc" d="M406.149,-298.538C305.229,-293.081 1.28225,-269.7 1.28225,-186 1.28225,-186 1.28225,-186 1.28225,-126 1.28225,-94.6202 -3.84676,-78.0619 20.2823,-58 51.2644,-32.24 291.71,-20.0041 433.19,-14.9808"/>
<polygon fill="#cccccc" stroke="#cccccc" points="433.329,-18.4782 443.201,-14.6315 433.085,-11.4825 433.329,-18.4782"/>
</g>
<!-- _Incrementable -->
<g id="node12" class="node">
<g id="a_node12"><a xlink:href="/swift-2/protocol/_Incrementable/" target="_top">
<path fill="#999999" stroke="#999999" d="M421.987,-254C421.987,-254 344.577,-254 344.577,-254 340.91,-254 337.244,-250.333 337.244,-246.667 337.244,-246.667 337.244,-239.333 337.244,-239.333 337.244,-235.667 340.91,-232 344.577,-232 344.577,-232 421.987,-232 421.987,-232 425.654,-232 429.321,-235.667 429.321,-239.333 429.321,-239.333 429.321,-246.667 429.321,-246.667 429.321,-250.333 425.654,-254 421.987,-254"/>
<text text-anchor="middle" x="383.282" y="-239.4" font-family="Helvetica,sans-Serif" font-size="12.00" fill="white">_Incrementable</text>
</a>
</g>
</g>
<!-- Equatable&#45;&gt;_Incrementable -->
<g id="edge19" class="edge">
<path fill="none" stroke="#cccccc" d="M428.449,-289.988C420.725,-282.123 409.775,-270.974 400.591,-261.624"/>
<polygon fill="#cccccc" stroke="#cccccc" points="402.906,-258.986 393.402,-254.304 397.912,-263.891 402.906,-258.986"/>
</g>
<!-- ForwardIndexType -->
<g id="node6" class="node">
<g id="a_node6"><a xlink:href="/swift-2/protocol/ForwardIndexType/" target="_top">
<path fill="#999999" stroke="#999999" d="M430.488,-196C430.488,-196 336.076,-196 336.076,-196 332.409,-196 328.743,-192.333 328.743,-188.667 328.743,-188.667 328.743,-181.333 328.743,-181.333 328.743,-177.667 332.409,-174 336.076,-174 336.076,-174 430.488,-174 430.488,-174 434.155,-174 437.822,-177.667 437.822,-181.333 437.822,-181.333 437.822,-188.667 437.822,-188.667 437.822,-192.333 434.155,-196 430.488,-196"/>
<text text-anchor="middle" x="383.282" y="-181.4" font-family="Helvetica,sans-Serif" font-size="12.00" fill="white">ForwardIndexType</text>
</a>
</g>
</g>
<!-- ForwardIndexType&#45;&gt;BidirectionalIndexType -->
<g id="edge17" class="edge">
<path fill="none" stroke="#cccccc" d="M393.115,-173.988C400.84,-166.123 411.789,-154.974 420.973,-145.624"/>
<polygon fill="#cccccc" stroke="#cccccc" points="423.652,-147.891 428.162,-138.304 418.658,-142.986 423.652,-147.891"/>
</g>
<!-- ForwardIndexType&#45;&gt;UnsafeMutablePointer&lt;Memory&gt; -->
<g id="edge6" class="edge">
<path fill="none" stroke="#cccccc" d="M376.094,-173.572C367.672,-159.971 355.873,-135.6 364.282,-116 385.344,-66.9111 442.716,-39.3429 485.444,-25.1103"/>
<polygon fill="#cccccc" stroke="#cccccc" points="486.672,-28.3926 495.139,-22.0233 484.548,-21.7226 486.672,-28.3926"/>
</g>
<!-- Hashable&#45;&gt;UnsafeMutablePointer&lt;Memory&gt; -->
<g id="edge2" class="edge">
<path fill="none" stroke="#cccccc" d="M867.509,-233.416C947.04,-209.457 1151.07,-138.328 1077.28,-58 1048.34,-26.4873 788.28,-16.5356 639.524,-13.4127"/>
<polygon fill="#cccccc" stroke="#cccccc" points="639.52,-9.91203 629.451,-13.2081 639.378,-16.9106 639.52,-9.91203"/>
</g>
<!-- NilLiteralConvertible -->
<g id="node8" class="node">
<g id="a_node8"><a xlink:href="/swift-2/protocol/NilLiteralConvertible/" target="_top">
<path fill="#999999" stroke="#999999" d="M587.483,-80C587.483,-80 485.082,-80 485.082,-80 481.415,-80 477.749,-76.3333 477.749,-72.6667 477.749,-72.6667 477.749,-65.3333 477.749,-65.3333 477.749,-61.6667 481.415,-58 485.082,-58 485.082,-58 587.483,-58 587.483,-58 591.149,-58 594.816,-61.6667 594.816,-65.3333 594.816,-65.3333 594.816,-72.6667 594.816,-72.6667 594.816,-76.3333 591.149,-80 587.483,-80"/>
<text text-anchor="middle" x="536.282" y="-65.4" font-family="Helvetica,sans-Serif" font-size="12.00" fill="white">NilLiteralConvertible</text>
</a>
</g>
</g>
<!-- NilLiteralConvertible&#45;&gt;UnsafeMutablePointer&lt;Memory&gt; -->
<g id="edge3" class="edge">
<path fill="none" stroke="#cccccc" d="M536.282,-57.9883C536.282,-50.9098 536.282,-41.1714 536.282,-32.4779"/>
<polygon fill="#cccccc" stroke="#cccccc" points="539.782,-32.3038 536.282,-22.3039 532.782,-32.3039 539.782,-32.3038"/>
</g>
<!-- RandomAccessIndexType&#45;&gt;UnsafeMutablePointer&lt;Memory&gt; -->
<g id="edge8" class="edge">
<path fill="none" stroke="#cccccc" d="M660.286,-57.9883C635.883,-48.9381 599.756,-35.5399 572.783,-25.5367"/>
<polygon fill="#cccccc" stroke="#cccccc" points="573.891,-22.2149 563.298,-22.0192 571.457,-28.7781 573.891,-22.2149"/>
</g>
<!-- Strideable&#45;&gt;RandomAccessIndexType -->
<g id="edge21" class="edge">
<path fill="none" stroke="#cccccc" d="M690.567,-115.988C690.062,-108.91 689.366,-99.1714 688.745,-90.4779"/>
<polygon fill="#cccccc" stroke="#cccccc" points="692.222,-90.0291 688.018,-80.3039 685.24,-90.5279 692.222,-90.0291"/>
</g>
<!-- Strideable&#45;&gt;UnsafeMutablePointer&lt;Memory&gt; -->
<g id="edge9" class="edge">
<path fill="none" stroke="#cccccc" d="M719.184,-115.961C749.059,-103.688 789.71,-81.6191 770.282,-58 753.352,-37.4181 694.274,-25.9038 639.72,-19.5421"/>
<polygon fill="#cccccc" stroke="#cccccc" points="639.924,-16.0432 629.597,-18.4132 639.148,-23.0001 639.924,-16.0432"/>
</g>
<!-- _Incrementable&#45;&gt;ForwardIndexType -->
<g id="edge18" class="edge">
<path fill="none" stroke="#cccccc" d="M383.282,-231.988C383.282,-224.91 383.282,-215.171 383.282,-206.478"/>
<polygon fill="#cccccc" stroke="#cccccc" points="386.782,-206.304 383.282,-196.304 379.782,-206.304 386.782,-206.304"/>
</g>
<!-- _Incrementable&#45;&gt;UnsafeMutablePointer&lt;Memory&gt; -->
<g id="edge7" class="edge">
<path fill="none" stroke="#cccccc" d="M351.039,-231.942C273.882,-206.322 89.9466,-135.156 158.282,-58 176.302,-37.6543 327.146,-24.4662 432.736,-17.6355"/>
<polygon fill="#cccccc" stroke="#cccccc" points="433.05,-21.1227 442.807,-16.9942 432.605,-14.1368 433.05,-21.1227"/>
</g>
<!-- _PointerType -->
<g id="node13" class="node">
<g id="a_node13"><a xlink:href="/swift-2/protocol/_PointerType/" target="_top">
<path fill="#999999" stroke="#999999" d="M928.988,-80C928.988,-80 863.577,-80 863.577,-80 859.91,-80 856.244,-76.3333 856.244,-72.6667 856.244,-72.6667 856.244,-65.3333 856.244,-65.3333 856.244,-61.6667 859.91,-58 863.577,-58 863.577,-58 928.988,-58 928.988,-58 932.654,-58 936.321,-61.6667 936.321,-65.3333 936.321,-65.3333 936.321,-72.6667 936.321,-72.6667 936.321,-76.3333 932.654,-80 928.988,-80"/>
<text text-anchor="middle" x="896.282" y="-65.4" font-family="Helvetica,sans-Serif" font-size="12.00" fill="white">_PointerType</text>
</a>
</g>
</g>
<!-- _PointerType&#45;&gt;UnsafeMutablePointer&lt;Memory&gt; -->
<g id="edge4" class="edge">
<path fill="none" stroke="#cccccc" d="M856.204,-60.4219C851.515,-59.5816 846.796,-58.7569 842.282,-58 766.247,-45.2485 679.298,-32.3377 617.565,-23.4535"/>
<polygon fill="#cccccc" stroke="#cccccc" points="617.892,-19.9646 607.496,-22.008 616.897,-26.8936 617.892,-19.9646"/>
</g>
<!-- _RandomAccessAmbiguity -->
<g id="node14" class="node">
<g id="a_node14"><a xlink:href="/swift-2/protocol/_RandomAccessAmbiguity/" target="_top">
<path fill="#999999" stroke="#999999" d="M894.496,-138C894.496,-138 756.069,-138 756.069,-138 752.402,-138 748.735,-134.333 748.735,-130.667 748.735,-130.667 748.735,-123.333 748.735,-123.333 748.735,-119.667 752.402,-116 756.069,-116 756.069,-116 894.496,-116 894.496,-116 898.163,-116 901.829,-119.667 901.829,-123.333 901.829,-123.333 901.829,-130.667 901.829,-130.667 901.829,-134.333 898.163,-138 894.496,-138"/>
<text text-anchor="middle" x="825.282" y="-123.4" font-family="Helvetica,sans-Serif" font-size="12.00" fill="white">_RandomAccessAmbiguity</text>
</a>
</g>
</g>
<!-- _RandomAccessAmbiguity&#45;&gt;RandomAccessIndexType -->
<g id="edge22" class="edge">
<path fill="none" stroke="#cccccc" d="M800.611,-115.988C778.572,-107.045 746.072,-93.8566 721.52,-83.8935"/>
<polygon fill="#cccccc" stroke="#cccccc" points="722.788,-80.6309 712.206,-80.1138 720.156,-87.1172 722.788,-80.6309"/>
</g>
<!-- _RandomAccessAmbiguity&#45;&gt;UnsafeMutablePointer&lt;Memory&gt; -->
<g id="edge12" class="edge">
<path fill="none" stroke="#cccccc" d="M822.61,-115.83C818.06,-100.652 807.297,-72.3259 787.282,-58 763.572,-41.0287 697.881,-29.3482 639.651,-22.0047"/>
<polygon fill="#cccccc" stroke="#cccccc" points="639.981,-18.5191 629.629,-20.7736 639.128,-25.4669 639.981,-18.5191"/>
</g>
<!-- _Reflectable -->
<g id="node15" class="node">
<g id="a_node15"><a xlink:href="/swift-2/protocol/_Reflectable/" target="_top">
<path fill="#999999" stroke="#999999" d="M1060.98,-80C1060.98,-80 999.583,-80 999.583,-80 995.916,-80 992.249,-76.3333 992.249,-72.6667 992.249,-72.6667 992.249,-65.3333 992.249,-65.3333 992.249,-61.6667 995.916,-58 999.583,-58 999.583,-58 1060.98,-58 1060.98,-58 1064.65,-58 1068.32,-61.6667 1068.32,-65.3333 1068.32,-65.3333 1068.32,-72.6667 1068.32,-72.6667 1068.32,-76.3333 1064.65,-80 1060.98,-80"/>
<text text-anchor="middle" x="1030.28" y="-65.4" font-family="Helvetica,sans-Serif" font-size="12.00" fill="white">_Reflectable</text>
</a>
</g>
</g>
<!-- _Reflectable&#45;&gt;UnsafeMutablePointer&lt;Memory&gt; -->
<g id="edge14" class="edge">
<path fill="none" stroke="#cccccc" d="M992.009,-60.2517C987.394,-59.4323 982.738,-58.6591 978.282,-58 862.906,-40.9349 729.661,-27.9835 639.885,-20.2382"/>
<polygon fill="#cccccc" stroke="#cccccc" points="639.965,-16.7323 629.703,-19.3659 639.368,-23.7067 639.965,-16.7323"/>
</g>
<!-- _Strideable -->
<g id="node16" class="node">
<g id="a_node16"><a xlink:href="/swift-2/protocol/_Strideable/" target="_top">
<path fill="#999999" stroke="#999999" d="M856.982,-196C856.982,-196 801.583,-196 801.583,-196 797.916,-196 794.249,-192.333 794.249,-188.667 794.249,-188.667 794.249,-181.333 794.249,-181.333 794.249,-177.667 797.916,-174 801.583,-174 801.583,-174 856.982,-174 856.982,-174 860.649,-174 864.315,-177.667 864.315,-181.333 864.315,-181.333 864.315,-188.667 864.315,-188.667 864.315,-192.333 860.649,-196 856.982,-196"/>
<text text-anchor="middle" x="829.282" y="-181.4" font-family="Helvetica,sans-Serif" font-size="12.00" fill="white">_Strideable</text>
</a>
</g>
</g>
<!-- _Strideable&#45;&gt;Strideable -->
<g id="edge24" class="edge">
<path fill="none" stroke="#cccccc" d="M804.611,-173.988C782.572,-165.045 750.072,-151.857 725.52,-141.893"/>
<polygon fill="#cccccc" stroke="#cccccc" points="726.788,-138.631 716.206,-138.114 724.156,-145.117 726.788,-138.631"/>
</g>
<!-- _Strideable&#45;&gt;UnsafeMutablePointer&lt;Memory&gt; -->
<g id="edge11" class="edge">
<path fill="none" stroke="#cccccc" d="M851.147,-173.966C894.583,-152.745 984.318,-101.672 945.282,-58 925.204,-35.5367 754.054,-22.7058 639.608,-16.5654"/>
<polygon fill="#cccccc" stroke="#cccccc" points="639.577,-13.059 629.406,-16.0277 639.208,-20.0493 639.577,-13.059"/>
</g>
</g>
</svg>
