<?xml version="1.0" encoding="UTF-8" standalone="no"?>
<!DOCTYPE svg PUBLIC "-//W3C//DTD SVG 1.1//EN"
 "http://www.w3.org/Graphics/SVG/1.1/DTD/svg11.dtd">
<!-- Generated by graphviz version 2.36.0 (20140111.2315)
 -->
<!-- Title: BidirectionalIndexType &#45; Type Hierarchy &#45; SwiftDoc.org Pages: 1 -->
<svg width="2373pt" height="543pt"
 viewBox="0.00 0.00 2373.40 543.20" xmlns="http://www.w3.org/2000/svg" xmlns:xlink="http://www.w3.org/1999/xlink">
<g id="graph0" class="graph" transform="scale(1 1) rotate(0) translate(7.2 485.6)">
<g transform="translate(0 -485.6)">
<g>
    <path fill="#666666" d="M13.846,10.832c-0.336-0.464-0.792-0.844-1.368-1.14s-1.224-0.444-1.944-0.444
        c-0.384,0-0.772,0.052-1.164,0.156C8.977,9.509,8.622,9.677,8.301,9.908c-0.32,0.232-0.58,0.52-0.78,0.864
        c-0.2,0.344-0.3,0.756-0.3,1.236c0,0.464,0.092,0.852,0.276,1.164c0.184,0.312,0.432,0.576,0.744,0.792s0.68,0.4,1.104,0.552
        c0.423,0.152,0.876,0.309,1.356,0.468c0.576,0.177,1.16,0.376,1.752,0.601c0.592,0.224,1.128,0.52,1.608,0.888
        s0.872,0.828,1.176,1.38s0.456,1.252,0.456,2.101c0,0.88-0.164,1.644-0.492,2.292c-0.328,0.647-0.765,1.184-1.308,1.607
        c-0.544,0.424-1.172,0.74-1.884,0.948s-1.444,0.312-2.196,0.312c-1.072,0-2.108-0.208-3.108-0.624
        c-1-0.415-1.828-1.031-2.484-1.848l1.848-1.56c0.4,0.592,0.936,1.071,1.608,1.439c0.672,0.368,1.399,0.552,2.184,0.552
        c0.4,0,0.8-0.056,1.2-0.168c0.4-0.111,0.764-0.288,1.092-0.527c0.328-0.24,0.596-0.54,0.804-0.9
        c0.208-0.36,0.312-0.796,0.312-1.308s-0.108-0.94-0.324-1.284c-0.216-0.344-0.508-0.636-0.876-0.876s-0.796-0.444-1.284-0.612
        c-0.488-0.168-1.004-0.34-1.548-0.516c-0.544-0.16-1.08-0.356-1.608-0.588c-0.528-0.232-1-0.528-1.416-0.889
        c-0.416-0.359-0.752-0.804-1.008-1.332c-0.256-0.527-0.384-1.184-0.384-1.968c0-0.848,0.172-1.576,0.516-2.184
        c0.344-0.608,0.792-1.112,1.344-1.512c0.552-0.4,1.176-0.692,1.872-0.876c0.696-0.184,1.396-0.276,2.1-0.276
        c0.992,0,1.92,0.176,2.784,0.528c0.864,0.352,1.56,0.824,2.088,1.416L13.846,10.832z"/>
    <path fill="#666666" d="M18.813,13.304l2.568,8.688h0.048l2.712-8.688h2.376l2.76,8.688h0.048l2.568-8.688h2.376L30.501,24.68
        h-2.352l-2.808-8.544h-0.048l-2.784,8.544h-2.352l-3.792-11.376H18.813z"/>
    <path fill="#666666" d="M38.685,9.2c0,0.416-0.147,0.76-0.44,1.032c-0.294,0.272-0.647,0.408-1.06,0.408s-0.762-0.14-1.047-0.42
        c-0.286-0.28-0.429-0.62-0.429-1.02c0-0.416,0.143-0.764,0.429-1.044c0.286-0.28,0.635-0.42,1.047-0.42s0.766,0.14,1.06,0.42
        C38.538,8.437,38.685,8.784,38.685,9.2z M38.325,24.68h-2.256V13.304h2.256V24.68z"/>
    <path fill="#666666" d="M47.613,15.152h-2.64v9.528h-2.256v-9.528h-2.256v-1.848h2.256v-2.376c0-0.672,0.076-1.292,0.228-1.86
        c0.152-0.568,0.4-1.06,0.744-1.476c0.344-0.416,0.784-0.744,1.32-0.984c0.536-0.24,1.188-0.36,1.956-0.36
        c0.544,0,1.016,0.056,1.416,0.168l-0.264,1.944c-0.176-0.048-0.352-0.088-0.528-0.12c-0.176-0.032-0.376-0.048-0.6-0.048
        c-0.432,0-0.78,0.076-1.044,0.228c-0.264,0.152-0.468,0.356-0.612,0.612s-0.24,0.548-0.288,0.876
        c-0.048,0.328-0.072,0.668-0.072,1.02v2.376h2.64V15.152z"/>
    <path fill="#666666" d="M54.909,15.152h-3.024v5.91c0,0.687,0.128,1.177,0.384,1.472c0.256,0.295,0.664,0.442,1.224,0.442
        c0.208,0,0.432-0.021,0.672-0.065c0.24-0.044,0.456-0.11,0.648-0.198l0.072,1.848c-0.272,0.096-0.572,0.172-0.9,0.229
        c-0.328,0.056-0.668,0.084-1.02,0.084c-1.072,0-1.892-0.296-2.46-0.889c-0.568-0.592-0.852-1.479-0.852-2.664v-6.168h-2.184
        v-1.848h2.184V10.04h2.232v3.264h3.024V15.152z"/>
    <path fill="#666666" d="M57.356,7.688h5.832c1.088,0,2.176,0.16,3.264,0.48c1.088,0.32,2.072,0.824,2.952,1.512
        s1.592,1.568,2.136,2.64c0.544,1.072,0.816,2.36,0.816,3.864c0,1.456-0.272,2.716-0.816,3.78s-1.256,1.943-2.136,2.64
        s-1.864,1.216-2.952,1.561c-1.088,0.344-2.176,0.516-3.264,0.516h-5.832V7.688z M59.732,22.593h2.976
        c1.024,0,1.972-0.145,2.844-0.432c0.872-0.288,1.624-0.704,2.256-1.248c0.632-0.544,1.124-1.216,1.476-2.017
        c0.352-0.8,0.528-1.704,0.528-2.712c0-1.056-0.176-1.983-0.528-2.784c-0.353-0.8-0.844-1.468-1.476-2.004
        c-0.632-0.536-1.384-0.944-2.256-1.224s-1.82-0.42-2.844-0.42h-2.976V22.593z"/>
    <path fill="#666666" d="M86.06,18.969c0,0.88-0.156,1.688-0.468,2.424c-0.312,0.736-0.744,1.372-1.296,1.908
        c-0.552,0.536-1.204,0.952-1.956,1.248c-0.752,0.296-1.56,0.443-2.424,0.443c-0.864,0-1.672-0.147-2.424-0.443
        c-0.752-0.296-1.4-0.712-1.944-1.248c-0.544-0.536-0.972-1.172-1.284-1.908c-0.312-0.735-0.468-1.544-0.468-2.424
        s0.156-1.684,0.468-2.412c0.312-0.728,0.74-1.356,1.284-1.884c0.543-0.528,1.191-0.939,1.944-1.236
        c0.752-0.296,1.56-0.444,2.424-0.444c0.864,0,1.672,0.148,2.424,0.444c0.752,0.297,1.404,0.708,1.956,1.236
        c0.552,0.527,0.984,1.156,1.296,1.884C85.904,17.285,86.06,18.089,86.06,18.969z M83.708,18.98c0-0.542-0.084-1.061-0.252-1.556
        c-0.169-0.494-0.414-0.929-0.734-1.304s-0.718-0.674-1.192-0.897s-1.015-0.335-1.625-0.335c-0.61,0-1.152,0.111-1.625,0.335
        c-0.474,0.224-0.871,0.522-1.191,0.897c-0.321,0.375-0.566,0.81-0.734,1.304C76.184,17.92,76.1,18.438,76.1,18.98
        c0,0.543,0.084,1.062,0.253,1.556c0.168,0.495,0.413,0.934,0.734,1.316c0.321,0.383,0.718,0.686,1.191,0.909
        c0.473,0.224,1.015,0.335,1.625,0.335c0.61,0,1.151-0.111,1.625-0.335s0.871-0.526,1.192-0.909s0.565-0.821,0.734-1.316
        C83.624,20.042,83.708,19.523,83.708,18.98z"/>
    <path fill="#666666" d="M96.428,16.184c-0.24-0.368-0.6-0.676-1.08-0.924s-0.992-0.372-1.536-0.372
        c-0.592,0-1.116,0.112-1.572,0.336c-0.456,0.225-0.844,0.524-1.164,0.9c-0.32,0.376-0.564,0.812-0.732,1.308
        s-0.252,1.017-0.252,1.56c0,0.545,0.084,1.064,0.252,1.561s0.412,0.933,0.732,1.308c0.32,0.376,0.712,0.677,1.176,0.9
        c0.464,0.225,0.992,0.336,1.584,0.336c0.576,0,1.1-0.111,1.572-0.336c0.472-0.224,0.86-0.528,1.164-0.912l1.512,1.368
        c-0.48,0.561-1.08,0.996-1.8,1.308c-0.72,0.312-1.536,0.468-2.448,0.468c-0.88,0-1.692-0.144-2.436-0.432
        c-0.744-0.288-1.388-0.691-1.932-1.212c-0.544-0.52-0.972-1.147-1.284-1.884s-0.468-1.561-0.468-2.473
        c0-0.896,0.152-1.711,0.456-2.447c0.304-0.736,0.728-1.368,1.272-1.896c0.543-0.527,1.188-0.936,1.932-1.224
        c0.744-0.288,1.548-0.433,2.412-0.433c0.8,0,1.596,0.16,2.388,0.48s1.419,0.784,1.884,1.392L96.428,16.184z"/>
    <path fill="#666666" d="M103.1,23.24c0,0.417-0.152,0.784-0.456,1.104c-0.304,0.32-0.688,0.479-1.152,0.479
        c-0.448,0-0.828-0.155-1.14-0.468c-0.312-0.312-0.468-0.676-0.468-1.092c0-0.432,0.152-0.804,0.456-1.116
        c0.304-0.312,0.688-0.468,1.152-0.468c0.464,0,0.848,0.152,1.152,0.456C102.947,22.44,103.1,22.808,103.1,23.24z"/>
    <path fill="#666666" d="M116.635,18.969c0,0.88-0.156,1.688-0.468,2.424c-0.312,0.736-0.744,1.372-1.296,1.908
        c-0.552,0.536-1.204,0.952-1.956,1.248c-0.752,0.296-1.56,0.443-2.424,0.443c-0.864,0-1.672-0.147-2.424-0.443
        c-0.752-0.296-1.4-0.712-1.944-1.248c-0.544-0.536-0.972-1.172-1.284-1.908c-0.312-0.735-0.468-1.544-0.468-2.424
        s0.156-1.684,0.468-2.412c0.312-0.728,0.74-1.356,1.284-1.884c0.543-0.528,1.191-0.939,1.944-1.236
        c0.752-0.296,1.56-0.444,2.424-0.444c0.864,0,1.672,0.148,2.424,0.444c0.752,0.297,1.404,0.708,1.956,1.236
        c0.552,0.527,0.984,1.156,1.296,1.884C116.479,17.285,116.635,18.089,116.635,18.969z M114.283,18.98
        c0-0.542-0.084-1.061-0.252-1.556c-0.169-0.494-0.414-0.929-0.734-1.304s-0.718-0.674-1.192-0.897s-1.015-0.335-1.625-0.335
        c-0.61,0-1.152,0.111-1.625,0.335c-0.474,0.224-0.871,0.522-1.191,0.897c-0.321,0.375-0.566,0.81-0.734,1.304
        c-0.169,0.495-0.253,1.014-0.253,1.556c0,0.543,0.084,1.062,0.253,1.556c0.168,0.495,0.413,0.934,0.734,1.316
        c0.321,0.383,0.718,0.686,1.191,0.909c0.473,0.224,1.015,0.335,1.625,0.335c0.61,0,1.151-0.111,1.625-0.335
        s0.871-0.526,1.192-0.909s0.565-0.821,0.734-1.316C114.199,20.042,114.283,19.523,114.283,18.98z"/>
    <path fill="#666666" d="M119.251,14.577c-0.016-0.48-0.04-0.904-0.072-1.272h2.136c0.032,0.288,0.056,0.62,0.072,0.996
        c0.016,0.376,0.024,0.684,0.024,0.924h0.072c0.32-0.672,0.788-1.212,1.404-1.62c0.616-0.408,1.308-0.612,2.076-0.612
        c0.352,0,0.648,0.033,0.888,0.097l-0.096,2.088c-0.32-0.08-0.664-0.12-1.032-0.12c-0.544,0-1.016,0.101-1.416,0.3
        c-0.4,0.2-0.732,0.468-0.996,0.805c-0.264,0.336-0.46,0.724-0.588,1.163c-0.128,0.44-0.192,0.9-0.192,1.381v5.976h-2.256v-8.928
        C119.275,15.449,119.267,15.056,119.251,14.577z"/>
    <path fill="#666666" d="M128.419,26.625c0.496,0.56,1.116,1.008,1.86,1.344c0.744,0.336,1.508,0.504,2.292,0.504
        c0.752,0,1.384-0.108,1.896-0.324s0.924-0.512,1.236-0.888s0.536-0.82,0.672-1.332c0.136-0.513,0.204-1.064,0.204-1.656v-1.464
        h-0.048c-0.416,0.641-0.984,1.128-1.704,1.464c-0.72,0.336-1.488,0.504-2.304,0.504c-0.864,0-1.652-0.151-2.364-0.456
        c-0.712-0.304-1.316-0.72-1.812-1.248c-0.496-0.527-0.88-1.147-1.152-1.859s-0.408-1.477-0.408-2.292
        c0-0.816,0.136-1.584,0.408-2.305c0.272-0.72,0.656-1.348,1.152-1.884c0.496-0.535,1.096-0.96,1.8-1.271
        c0.704-0.312,1.488-0.469,2.352-0.469c0.816,0,1.596,0.177,2.34,0.528c0.744,0.353,1.332,0.888,1.764,1.608h0.048v-1.824h2.184
        v10.8c0,0.832-0.104,1.628-0.312,2.388c-0.208,0.76-0.56,1.433-1.056,2.017s-1.144,1.052-1.944,1.404
        c-0.8,0.352-1.792,0.527-2.976,0.527c-0.992,0-1.988-0.18-2.988-0.54c-1-0.359-1.86-0.868-2.58-1.523L128.419,26.625z
         M129.091,18.873c0,0.527,0.084,1.031,0.253,1.512c0.168,0.479,0.417,0.904,0.746,1.271c0.329,0.369,0.726,0.664,1.192,0.889
        c0.465,0.224,0.995,0.336,1.589,0.336c0.577,0,1.107-0.104,1.589-0.312c0.481-0.207,0.891-0.491,1.228-0.852
        s0.598-0.784,0.782-1.272c0.185-0.487,0.277-1.012,0.277-1.571c0-0.544-0.093-1.057-0.277-1.536
        c-0.185-0.48-0.449-0.904-0.794-1.272c-0.345-0.367-0.755-0.66-1.228-0.876c-0.474-0.216-1-0.324-1.577-0.324
        c-0.594,0-1.124,0.108-1.589,0.324c-0.466,0.216-0.863,0.504-1.192,0.864s-0.578,0.784-0.746,1.271
        C129.175,17.812,129.091,18.329,129.091,18.873z"/>
</g>
<g><a xlink:href="/" pointer-events="all" target="_top"><polygon fill="none" points="0,0 145,0 145,35 0,35 0,0"/></a></g>

</g>


<!-- AnyBidirectionalIndex -->
<g id="node1" class="node">
<g id="a_node1"><a xlink:href="/v2.1/type/AnyBidirectionalIndex/" target="_top">
<polygon fill="#999999" stroke="#999999" points="124.55,-22 -0.549813,-22 -0.549813,-0 124.55,-0 124.55,-22"/>
<text text-anchor="middle" x="62" y="-7.4" font-family="Helvetica,sans-Serif" font-size="12.00" fill="white">AnyBidirectionalIndex</text>
</a>
</g>
</g>
<!-- AnyRandomAccessIndex -->
<g id="node2" class="node">
<g id="a_node2"><a xlink:href="/v2.1/type/AnyRandomAccessIndex/" target="_top">
<polygon fill="#999999" stroke="#999999" points="1469.05,-22 1324.95,-22 1324.95,-0 1469.05,-0 1469.05,-22"/>
<text text-anchor="middle" x="1397" y="-7.4" font-family="Helvetica,sans-Serif" font-size="12.00" fill="white">AnyRandomAccessIndex</text>
</a>
</g>
</g>
<!-- BidirectionalIndexType -->
<g id="node3" class="node">
<g id="a_node3"><a xlink:href="/v2.1/protocol/BidirectionalIndexType/" target="_top">
<path fill="#ee543d" stroke="#ee543d" d="M1813.73,-254C1813.73,-254 1698.27,-254 1698.27,-254 1694.61,-254 1690.94,-250.333 1690.94,-246.667 1690.94,-246.667 1690.94,-239.333 1690.94,-239.333 1690.94,-235.667 1694.61,-232 1698.27,-232 1698.27,-232 1813.73,-232 1813.73,-232 1817.39,-232 1821.06,-235.667 1821.06,-239.333 1821.06,-239.333 1821.06,-246.667 1821.06,-246.667 1821.06,-250.333 1817.39,-254 1813.73,-254"/>
<text text-anchor="middle" x="1756" y="-239.4" font-family="Helvetica,sans-Serif" font-size="12.00" fill="white">BidirectionalIndexType</text>
</a>
</g>
</g>
<!-- BidirectionalIndexType&#45;&gt;AnyBidirectionalIndex -->
<g id="edge1" class="edge">
<path fill="none" stroke="#cccccc" d="M1690.91,-241.127C1482.81,-238.055 835.275,-226.252 628,-196 524.536,-180.899 499.799,-169.196 400,-138 286.758,-102.602 156.011,-50.5896 95.6886,-25.9403"/>
<polygon fill="#cccccc" stroke="#cccccc" points="96.8644,-22.6397 86.284,-22.0857 94.2096,-29.1168 96.8644,-22.6397"/>
</g>
<!-- FlattenBidirectionalCollectionIndex -->
<g id="node6" class="node">
<g id="a_node6"><a xlink:href="/v2.1/type/FlattenBidirectionalCollectionIndex/" target="_top">
<polygon fill="#999999" stroke="#999999" points="337.076,-22 142.924,-22 142.924,-0 337.076,-0 337.076,-22"/>
<text text-anchor="middle" x="240" y="-7.4" font-family="Helvetica,sans-Serif" font-size="12.00" fill="white">FlattenBidirectionalCollectionIndex</text>
</a>
</g>
</g>
<!-- BidirectionalIndexType&#45;&gt;FlattenBidirectionalCollectionIndex -->
<g id="edge2" class="edge">
<path fill="none" stroke="#cccccc" d="M1690.86,-241.03C1460.9,-236.95 688.44,-217.504 456,-138 378.802,-111.595 298.54,-56.0539 261.317,-28.3857"/>
<polygon fill="#cccccc" stroke="#cccccc" points="263.315,-25.5089 253.219,-22.2981 259.109,-31.1044 263.315,-25.5089"/>
</g>
<!-- RandomAccessIndexType -->
<g id="node14" class="node">
<g id="a_node14"><a xlink:href="/v2.1/protocol/RandomAccessIndexType/" target="_top">
<path fill="#999999" stroke="#999999" d="M1047.23,-196C1047.23,-196 912.775,-196 912.775,-196 909.108,-196 905.441,-192.333 905.441,-188.667 905.441,-188.667 905.441,-181.333 905.441,-181.333 905.441,-177.667 909.108,-174 912.775,-174 912.775,-174 1047.23,-174 1047.23,-174 1050.89,-174 1054.56,-177.667 1054.56,-181.333 1054.56,-181.333 1054.56,-188.667 1054.56,-188.667 1054.56,-192.333 1050.89,-196 1047.23,-196"/>
<text text-anchor="middle" x="980" y="-181.4" font-family="Helvetica,sans-Serif" font-size="12.00" fill="white">RandomAccessIndexType</text>
</a>
</g>
</g>
<!-- BidirectionalIndexType&#45;&gt;RandomAccessIndexType -->
<g id="edge3" class="edge">
<path fill="none" stroke="#cccccc" d="M1690.84,-237.298C1550.63,-227.18 1220.41,-203.349 1064.42,-192.092"/>
<polygon fill="#cccccc" stroke="#cccccc" points="1064.63,-188.598 1054.4,-191.369 1064.12,-195.58 1064.63,-188.598"/>
</g>
<!-- ReverseIndex -->
<g id="node15" class="node">
<g id="a_node15"><a xlink:href="/v2.1/type/ReverseIndex/" target="_top">
<polygon fill="#999999" stroke="#999999" points="1829.03,-22 1744.97,-22 1744.97,-0 1829.03,-0 1829.03,-22"/>
<text text-anchor="middle" x="1787" y="-7.4" font-family="Helvetica,sans-Serif" font-size="12.00" fill="white">ReverseIndex</text>
</a>
</g>
</g>
<!-- BidirectionalIndexType&#45;&gt;ReverseIndex -->
<g id="edge4" class="edge">
<path fill="none" stroke="#cccccc" d="M1757.37,-231.82C1762.12,-196.568 1777.93,-79.2764 1784.3,-32.0032"/>
<polygon fill="#cccccc" stroke="#cccccc" points="1787.78,-32.44 1785.64,-22.062 1780.84,-31.5049 1787.78,-32.44"/>
</g>
<!-- ReverseIndexType -->
<g id="node16" class="node">
<g id="a_node16"><a xlink:href="/v2.1/protocol/ReverseIndexType/" target="_top">
<path fill="#999999" stroke="#999999" d="M1751.71,-80C1751.71,-80 1656.29,-80 1656.29,-80 1652.62,-80 1648.95,-76.3333 1648.95,-72.6667 1648.95,-72.6667 1648.95,-65.3333 1648.95,-65.3333 1648.95,-61.6667 1652.62,-58 1656.29,-58 1656.29,-58 1751.71,-58 1751.71,-58 1755.38,-58 1759.05,-61.6667 1759.05,-65.3333 1759.05,-65.3333 1759.05,-72.6667 1759.05,-72.6667 1759.05,-76.3333 1755.38,-80 1751.71,-80"/>
<text text-anchor="middle" x="1704" y="-65.4" font-family="Helvetica,sans-Serif" font-size="12.00" fill="white">ReverseIndexType</text>
</a>
</g>
</g>
<!-- BidirectionalIndexType&#45;&gt;ReverseIndexType -->
<g id="edge5" class="edge">
<path fill="none" stroke="#cccccc" d="M1752.9,-231.756C1744.51,-203.978 1721.19,-126.848 1710.06,-90.0425"/>
<polygon fill="#cccccc" stroke="#cccccc" points="1713.39,-88.9673 1707.15,-80.4081 1706.69,-90.9931 1713.39,-88.9673"/>
</g>
<!-- String.CharacterView.Index -->
<g id="node19" class="node">
<g id="a_node19"><a xlink:href="/v2.1/type/String.CharacterView.Index/" target="_top">
<polygon fill="#999999" stroke="#999999" points="2002.4,-22 1847.6,-22 1847.6,-0 2002.4,-0 2002.4,-22"/>
<text text-anchor="middle" x="1925" y="-7.4" font-family="Helvetica,sans-Serif" font-size="12.00" fill="white">String.CharacterView.Index</text>
</a>
</g>
</g>
<!-- BidirectionalIndexType&#45;&gt;String.CharacterView.Index -->
<g id="edge6" class="edge">
<path fill="none" stroke="#cccccc" d="M1763.48,-231.82C1789.71,-196.122 1877.76,-76.2938 1911.6,-30.2419"/>
<polygon fill="#cccccc" stroke="#cccccc" points="1914.51,-32.193 1917.61,-22.062 1908.86,-28.0481 1914.51,-32.193"/>
</g>
<!-- String.UTF16View.Index -->
<g id="node20" class="node">
<g id="a_node20"><a xlink:href="/v2.1/type/String.UTF16View.Index/" target="_top">
<polygon fill="#999999" stroke="#999999" points="2159.39,-22 2020.61,-22 2020.61,-0 2159.39,-0 2159.39,-22"/>
<text text-anchor="middle" x="2090" y="-7.4" font-family="Helvetica,sans-Serif" font-size="12.00" fill="white">String.UTF16View.Index</text>
</a>
</g>
</g>
<!-- BidirectionalIndexType&#45;&gt;String.UTF16View.Index -->
<g id="edge8" class="edge">
<path fill="none" stroke="#cccccc" d="M1770.78,-231.82C1823.49,-195.527 2002.47,-72.2762 2066.76,-28.0016"/>
<polygon fill="#cccccc" stroke="#cccccc" points="2069.14,-30.6163 2075.39,-22.062 2065.17,-24.851 2069.14,-30.6163"/>
</g>
<!-- String.UnicodeScalarView.Index -->
<g id="node21" class="node">
<g id="a_node21"><a xlink:href="/v2.1/type/String.UnicodeScalarView.Index/" target="_top">
<polygon fill="#999999" stroke="#999999" points="2357.92,-22 2178.08,-22 2178.08,-0 2357.92,-0 2357.92,-22"/>
<text text-anchor="middle" x="2268" y="-7.4" font-family="Helvetica,sans-Serif" font-size="12.00" fill="white">String.UnicodeScalarView.Index</text>
</a>
</g>
</g>
<!-- BidirectionalIndexType&#45;&gt;String.UnicodeScalarView.Index -->
<g id="edge7" class="edge">
<path fill="none" stroke="#cccccc" d="M1778.33,-231.969C1859.75,-195.393 2140.9,-69.0946 2236.16,-26.305"/>
<polygon fill="#cccccc" stroke="#cccccc" points="2237.87,-29.374 2245.55,-22.0835 2235,-22.9886 2237.87,-29.374"/>
</g>
<!-- Bit -->
<g id="node4" class="node">
<g id="a_node4"><a xlink:href="/v2.1/type/Bit/" target="_top">
<polygon fill="#999999" stroke="#999999" points="1541,-22 1487,-22 1487,-0 1541,-0 1541,-22"/>
<text text-anchor="middle" x="1514" y="-7.4" font-family="Helvetica,sans-Serif" font-size="12.00" fill="white">Bit</text>
</a>
</g>
</g>
<!-- Equatable -->
<g id="node5" class="node">
<g id="a_node5"><a xlink:href="/v2.1/protocol/Equatable/" target="_top">
<path fill="#999999" stroke="#999999" d="M1780.7,-428C1780.7,-428 1731.3,-428 1731.3,-428 1727.63,-428 1723.96,-424.333 1723.96,-420.667 1723.96,-420.667 1723.96,-413.333 1723.96,-413.333 1723.96,-409.667 1727.63,-406 1731.3,-406 1731.3,-406 1780.7,-406 1780.7,-406 1784.37,-406 1788.04,-409.667 1788.04,-413.333 1788.04,-413.333 1788.04,-420.667 1788.04,-420.667 1788.04,-424.333 1784.37,-428 1780.7,-428"/>
<text text-anchor="middle" x="1756" y="-413.4" font-family="Helvetica,sans-Serif" font-size="12.00" fill="white">Equatable</text>
</a>
</g>
</g>
<!-- _Incrementable -->
<g id="node30" class="node">
<g id="a_node30"><a xlink:href="/v2.1/protocol/_Incrementable/" target="_top">
<path fill="#999999" stroke="#999999" d="M1794.71,-370C1794.71,-370 1717.29,-370 1717.29,-370 1713.63,-370 1709.96,-366.333 1709.96,-362.667 1709.96,-362.667 1709.96,-355.333 1709.96,-355.333 1709.96,-351.667 1713.63,-348 1717.29,-348 1717.29,-348 1794.71,-348 1794.71,-348 1798.37,-348 1802.04,-351.667 1802.04,-355.333 1802.04,-355.333 1802.04,-362.667 1802.04,-362.667 1802.04,-366.333 1798.37,-370 1794.71,-370"/>
<text text-anchor="middle" x="1756" y="-355.4" font-family="Helvetica,sans-Serif" font-size="12.00" fill="white">_Incrementable</text>
</a>
</g>
</g>
<!-- Equatable&#45;&gt;_Incrementable -->
<g id="edge42" class="edge">
<path fill="none" stroke="#cccccc" d="M1756,-405.988C1756,-398.91 1756,-389.171 1756,-380.478"/>
<polygon fill="#cccccc" stroke="#cccccc" points="1759.5,-380.304 1756,-370.304 1752.5,-380.304 1759.5,-380.304"/>
</g>
<!-- ForwardIndexType -->
<g id="node7" class="node">
<g id="a_node7"><a xlink:href="/v2.1/protocol/ForwardIndexType/" target="_top">
<path fill="#999999" stroke="#999999" d="M1803.21,-312C1803.21,-312 1708.79,-312 1708.79,-312 1705.13,-312 1701.46,-308.333 1701.46,-304.667 1701.46,-304.667 1701.46,-297.333 1701.46,-297.333 1701.46,-293.667 1705.13,-290 1708.79,-290 1708.79,-290 1803.21,-290 1803.21,-290 1806.87,-290 1810.54,-293.667 1810.54,-297.333 1810.54,-297.333 1810.54,-304.667 1810.54,-304.667 1810.54,-308.333 1806.87,-312 1803.21,-312"/>
<text text-anchor="middle" x="1756" y="-297.4" font-family="Helvetica,sans-Serif" font-size="12.00" fill="white">ForwardIndexType</text>
</a>
</g>
</g>
<!-- ForwardIndexType&#45;&gt;BidirectionalIndexType -->
<g id="edge40" class="edge">
<path fill="none" stroke="#cccccc" d="M1756,-289.988C1756,-282.91 1756,-273.171 1756,-264.478"/>
<polygon fill="#cccccc" stroke="#cccccc" points="1759.5,-264.304 1756,-254.304 1752.5,-264.304 1759.5,-264.304"/>
</g>
<!-- Int -->
<g id="node8" class="node">
<g id="a_node8"><a xlink:href="/v2.1/type/Int/" target="_top">
<polygon fill="#999999" stroke="#999999" points="769,-22 715,-22 715,-0 769,-0 769,-22"/>
<text text-anchor="middle" x="742" y="-7.4" font-family="Helvetica,sans-Serif" font-size="12.00" fill="white">Int</text>
</a>
</g>
</g>
<!-- Int&#45;&gt;Bit -->
<g id="edge25" class="edge">
<path fill="none" stroke="#cccccc" d="M754.779,-22.0854C763.283,-28.7029 775.052,-36.4837 787,-40 859.695,-61.3949 1396.31,-61.3949 1469,-40 1477.4,-37.5276 1485.71,-32.9469 1492.86,-28.1447"/>
<polygon fill="#cccccc" stroke="#cccccc" points="1495.18,-30.7891 1501.22,-22.0854 1491.07,-25.122 1495.18,-30.7891"/>
</g>
<!-- Int16 -->
<g id="node9" class="node">
<g id="a_node9"><a xlink:href="/v2.1/type/Int16/" target="_top">
<polygon fill="#999999" stroke="#999999" points="841,-22 787,-22 787,-0 841,-0 841,-22"/>
<text text-anchor="middle" x="814" y="-7.4" font-family="Helvetica,sans-Serif" font-size="12.00" fill="white">Int16</text>
</a>
</g>
</g>
<!-- Int32 -->
<g id="node10" class="node">
<g id="a_node10"><a xlink:href="/v2.1/type/Int32/" target="_top">
<polygon fill="#999999" stroke="#999999" points="913,-22 859,-22 859,-0 913,-0 913,-22"/>
<text text-anchor="middle" x="886" y="-7.4" font-family="Helvetica,sans-Serif" font-size="12.00" fill="white">Int32</text>
</a>
</g>
</g>
<!-- Int64 -->
<g id="node11" class="node">
<g id="a_node11"><a xlink:href="/v2.1/type/Int64/" target="_top">
<polygon fill="#999999" stroke="#999999" points="985,-22 931,-22 931,-0 985,-0 985,-22"/>
<text text-anchor="middle" x="958" y="-7.4" font-family="Helvetica,sans-Serif" font-size="12.00" fill="white">Int64</text>
</a>
</g>
</g>
<!-- Int8 -->
<g id="node12" class="node">
<g id="a_node12"><a xlink:href="/v2.1/type/Int8/" target="_top">
<polygon fill="#999999" stroke="#999999" points="1057,-22 1003,-22 1003,-0 1057,-0 1057,-22"/>
<text text-anchor="middle" x="1030" y="-7.4" font-family="Helvetica,sans-Serif" font-size="12.00" fill="white">Int8</text>
</a>
</g>
</g>
<!-- IntegerType -->
<g id="node13" class="node">
<g id="a_node13"><a xlink:href="/v2.1/protocol/IntegerType/" target="_top">
<path fill="#999999" stroke="#999999" d="M702.202,-138C702.202,-138 643.798,-138 643.798,-138 640.132,-138 636.465,-134.333 636.465,-130.667 636.465,-130.667 636.465,-123.333 636.465,-123.333 636.465,-119.667 640.132,-116 643.798,-116 643.798,-116 702.202,-116 702.202,-116 705.868,-116 709.535,-119.667 709.535,-123.333 709.535,-123.333 709.535,-130.667 709.535,-130.667 709.535,-134.333 705.868,-138 702.202,-138"/>
<text text-anchor="middle" x="673" y="-123.4" font-family="Helvetica,sans-Serif" font-size="12.00" fill="white">IntegerType</text>
</a>
</g>
</g>
<!-- SignedIntegerType -->
<g id="node18" class="node">
<g id="a_node18"><a xlink:href="/v2.1/protocol/SignedIntegerType/" target="_top">
<path fill="#999999" stroke="#999999" d="M944.727,-80C944.727,-80 849.273,-80 849.273,-80 845.606,-80 841.94,-76.3333 841.94,-72.6667 841.94,-72.6667 841.94,-65.3333 841.94,-65.3333 841.94,-61.6667 845.606,-58 849.273,-58 849.273,-58 944.727,-58 944.727,-58 948.394,-58 952.06,-61.6667 952.06,-65.3333 952.06,-65.3333 952.06,-72.6667 952.06,-72.6667 952.06,-76.3333 948.394,-80 944.727,-80"/>
<text text-anchor="middle" x="897" y="-65.4" font-family="Helvetica,sans-Serif" font-size="12.00" fill="white">SignedIntegerType</text>
</a>
</g>
</g>
<!-- IntegerType&#45;&gt;SignedIntegerType -->
<g id="edge26" class="edge">
<path fill="none" stroke="#cccccc" d="M709.488,-116.878C746.824,-107.544 805.116,-92.971 846.792,-82.552"/>
<polygon fill="#cccccc" stroke="#cccccc" points="847.889,-85.8857 856.741,-80.0647 846.191,-79.0947 847.889,-85.8857"/>
</g>
<!-- UnsignedIntegerType -->
<g id="node29" class="node">
<g id="a_node29"><a xlink:href="/v2.1/protocol/UnsignedIntegerType/" target="_top">
<path fill="#999999" stroke="#999999" d="M602.728,-80C602.728,-80 493.272,-80 493.272,-80 489.605,-80 485.938,-76.3333 485.938,-72.6667 485.938,-72.6667 485.938,-65.3333 485.938,-65.3333 485.938,-61.6667 489.605,-58 493.272,-58 493.272,-58 602.728,-58 602.728,-58 606.395,-58 610.062,-61.6667 610.062,-65.3333 610.062,-65.3333 610.062,-72.6667 610.062,-72.6667 610.062,-76.3333 606.395,-80 602.728,-80"/>
<text text-anchor="middle" x="548" y="-65.4" font-family="Helvetica,sans-Serif" font-size="12.00" fill="white">UnsignedIntegerType</text>
</a>
</g>
</g>
<!-- IntegerType&#45;&gt;UnsignedIntegerType -->
<g id="edge27" class="edge">
<path fill="none" stroke="#cccccc" d="M650.653,-115.988C630.955,-107.164 602.031,-94.206 579.902,-84.2919"/>
<polygon fill="#cccccc" stroke="#cccccc" points="581.132,-81.0082 570.575,-80.1138 578.271,-87.3964 581.132,-81.0082"/>
</g>
<!-- RandomAccessIndexType&#45;&gt;AnyRandomAccessIndex -->
<g id="edge9" class="edge">
<path fill="none" stroke="#cccccc" d="M1004.53,-173.883C1075.58,-144.578 1281.63,-59.5859 1363.19,-25.9453"/>
<polygon fill="#cccccc" stroke="#cccccc" points="1364.59,-29.1532 1372.5,-22.1045 1361.92,-22.6821 1364.59,-29.1532"/>
</g>
<!-- RandomAccessIndexType&#45;&gt;Bit -->
<g id="edge10" class="edge">
<path fill="none" stroke="#cccccc" d="M1014.41,-173.945C1045.48,-164.8 1092.4,-150.815 1133,-138 1259.7,-98.0098 1409.07,-47.6761 1477.02,-24.6031"/>
<polygon fill="#cccccc" stroke="#cccccc" points="1478.48,-27.8021 1486.83,-21.2704 1476.23,-21.1744 1478.48,-27.8021"/>
</g>
<!-- RandomAccessIndexType&#45;&gt;Int -->
<g id="edge11" class="edge">
<path fill="none" stroke="#cccccc" d="M944.174,-173.946C920.481,-166.301 889.406,-154.305 865,-138 819.097,-107.333 776.749,-57.2333 755.783,-30.3771"/>
<polygon fill="#cccccc" stroke="#cccccc" points="758.385,-28.0199 749.518,-22.2221 752.834,-32.2844 758.385,-28.0199"/>
</g>
<!-- RandomAccessIndexType&#45;&gt;Int16 -->
<g id="edge12" class="edge">
<path fill="none" stroke="#cccccc" d="M957.123,-173.979C924.587,-158.547 865.32,-125.874 833,-80 823.084,-65.9259 818.33,-46.8264 816.058,-32.4523"/>
<polygon fill="#cccccc" stroke="#cccccc" points="819.475,-31.59 814.717,-22.1239 812.534,-32.4913 819.475,-31.59"/>
</g>
<!-- RandomAccessIndexType&#45;&gt;Int32 -->
<g id="edge13" class="edge">
<path fill="none" stroke="#cccccc" d="M981.178,-173.845C983.288,-151.041 985.437,-94.8836 961,-58 951.726,-44.003 936.589,-33.5452 922.333,-26.1678"/>
<polygon fill="#cccccc" stroke="#cccccc" points="923.692,-22.9376 913.163,-21.7584 920.658,-29.2462 923.692,-22.9376"/>
</g>
<!-- RandomAccessIndexType&#45;&gt;Int64 -->
<g id="edge14" class="edge">
<path fill="none" stroke="#cccccc" d="M984.018,-173.872C992.062,-152.042 1008.2,-99.199 994,-58 990.369,-47.4691 983.226,-37.5064 976.254,-29.5631"/>
<polygon fill="#cccccc" stroke="#cccccc" points="978.607,-26.9574 969.203,-22.0772 973.512,-31.7566 978.607,-26.9574"/>
</g>
<!-- RandomAccessIndexType&#45;&gt;Int8 -->
<g id="edge15" class="edge">
<path fill="none" stroke="#cccccc" d="M988.847,-173.795C996.016,-164.94 1005.76,-151.461 1011,-138 1024.78,-102.604 1028.62,-58.0072 1029.66,-32.4748"/>
<polygon fill="#cccccc" stroke="#cccccc" points="1033.17,-32.2859 1029.96,-22.1869 1026.17,-32.0791 1033.17,-32.2859"/>
</g>
<!-- RandomAccessIndexType&#45;&gt;IntegerType -->
<g id="edge16" class="edge">
<path fill="none" stroke="#cccccc" d="M922.76,-173.982C870.847,-164.833 792.234,-150.819 724,-138 722.531,-137.724 721.039,-137.442 719.533,-137.156"/>
<polygon fill="#cccccc" stroke="#cccccc" points="719.962,-133.674 709.481,-135.226 718.642,-140.549 719.962,-133.674"/>
</g>
<!-- ReverseRandomAccessIndex -->
<g id="node17" class="node">
<g id="a_node17"><a xlink:href="/v2.1/type/ReverseRandomAccessIndex/" target="_top">
<polygon fill="#999999" stroke="#999999" points="1727.06,-22 1558.94,-22 1558.94,-0 1727.06,-0 1727.06,-22"/>
<text text-anchor="middle" x="1643" y="-7.4" font-family="Helvetica,sans-Serif" font-size="12.00" fill="white">ReverseRandomAccessIndex</text>
</a>
</g>
</g>
<!-- RandomAccessIndexType&#45;&gt;ReverseRandomAccessIndex -->
<g id="edge17" class="edge">
<path fill="none" stroke="#cccccc" d="M1026.43,-173.944C1067.26,-164.967 1128.22,-151.231 1181,-138 1334.86,-99.4307 1516,-48.3653 1598.29,-24.8532"/>
<polygon fill="#cccccc" stroke="#cccccc" points="1599.41,-28.1731 1608.07,-22.0579 1597.49,-21.443 1599.41,-28.1731"/>
</g>
<!-- UInt -->
<g id="node22" class="node">
<g id="a_node22"><a xlink:href="/v2.1/type/UInt/" target="_top">
<polygon fill="#999999" stroke="#999999" points="409,-22 355,-22 355,-0 409,-0 409,-22"/>
<text text-anchor="middle" x="382" y="-7.4" font-family="Helvetica,sans-Serif" font-size="12.00" fill="white">UInt</text>
</a>
</g>
</g>
<!-- RandomAccessIndexType&#45;&gt;UInt -->
<g id="edge18" class="edge">
<path fill="none" stroke="#cccccc" d="M905.644,-183.703C787.085,-182.123 561.402,-174.268 491,-138 444.078,-113.828 408.665,-60.0929 392.195,-31.2243"/>
<polygon fill="#cccccc" stroke="#cccccc" points="395.074,-29.1971 387.172,-22.1394 388.948,-32.5843 395.074,-29.1971"/>
</g>
<!-- UInt16 -->
<g id="node23" class="node">
<g id="a_node23"><a xlink:href="/v2.1/type/UInt16/" target="_top">
<polygon fill="#999999" stroke="#999999" points="481,-22 427,-22 427,-0 481,-0 481,-22"/>
<text text-anchor="middle" x="454" y="-7.4" font-family="Helvetica,sans-Serif" font-size="12.00" fill="white">UInt16</text>
</a>
</g>
</g>
<!-- RandomAccessIndexType&#45;&gt;UInt16 -->
<g id="edge19" class="edge">
<path fill="none" stroke="#cccccc" d="M905.24,-182.424C794.492,-179.081 592.926,-168.837 528,-138 495.07,-122.36 487.741,-111.847 470,-80 461.804,-65.2862 457.791,-46.5249 455.836,-32.4376"/>
<polygon fill="#cccccc" stroke="#cccccc" points="459.29,-31.8416 454.668,-22.3084 452.336,-32.6436 459.29,-31.8416"/>
</g>
<!-- UInt32 -->
<g id="node24" class="node">
<g id="a_node24"><a xlink:href="/v2.1/type/UInt32/" target="_top">
<polygon fill="#999999" stroke="#999999" points="553,-22 499,-22 499,-0 553,-0 553,-22"/>
<text text-anchor="middle" x="526" y="-7.4" font-family="Helvetica,sans-Serif" font-size="12.00" fill="white">UInt32</text>
</a>
</g>
</g>
<!-- RandomAccessIndexType&#45;&gt;UInt32 -->
<g id="edge20" class="edge">
<path fill="none" stroke="#cccccc" d="M905.491,-180.878C777.148,-173.642 523.605,-150.542 477,-80 465.075,-61.9499 483.527,-41.9306 501.095,-28.3171"/>
<polygon fill="#cccccc" stroke="#cccccc" points="503.49,-30.9027 509.512,-22.1854 499.368,-25.245 503.49,-30.9027"/>
</g>
<!-- UInt64 -->
<g id="node25" class="node">
<g id="a_node25"><a xlink:href="/v2.1/type/UInt64/" target="_top">
<polygon fill="#999999" stroke="#999999" points="625,-22 571,-22 571,-0 625,-0 625,-22"/>
<text text-anchor="middle" x="598" y="-7.4" font-family="Helvetica,sans-Serif" font-size="12.00" fill="white">UInt64</text>
</a>
</g>
</g>
<!-- RandomAccessIndexType&#45;&gt;UInt64 -->
<g id="edge21" class="edge">
<path fill="none" stroke="#cccccc" d="M905.28,-184.734C813.208,-183.926 664.34,-176.474 627,-138 602.114,-112.358 628.323,-92.4952 619,-58 616.525,-48.8418 612.397,-39.2189 608.454,-31.1553"/>
<polygon fill="#cccccc" stroke="#cccccc" points="611.547,-29.5176 603.858,-22.229 605.324,-32.722 611.547,-29.5176"/>
</g>
<!-- UInt8 -->
<g id="node26" class="node">
<g id="a_node26"><a xlink:href="/v2.1/type/UInt8/" target="_top">
<polygon fill="#999999" stroke="#999999" points="697,-22 643,-22 643,-0 697,-0 697,-22"/>
<text text-anchor="middle" x="670" y="-7.4" font-family="Helvetica,sans-Serif" font-size="12.00" fill="white">UInt8</text>
</a>
</g>
</g>
<!-- RandomAccessIndexType&#45;&gt;UInt8 -->
<g id="edge22" class="edge">
<path fill="none" stroke="#cccccc" d="M934.308,-173.992C904.681,-166.458 865.82,-154.572 834,-138 775.742,-107.658 716.998,-56.3368 688.213,-29.5153"/>
<polygon fill="#cccccc" stroke="#cccccc" points="690.271,-26.6454 680.593,-22.3324 685.469,-31.7388 690.271,-26.6454"/>
</g>
<!-- UnsafeMutablePointer -->
<g id="node27" class="node">
<g id="a_node27"><a xlink:href="/v2.1/type/UnsafeMutablePointer/" target="_top">
<polygon fill="#999999" stroke="#999999" points="1203.05,-22 1074.95,-22 1074.95,-0 1203.05,-0 1203.05,-22"/>
<text text-anchor="middle" x="1139" y="-7.4" font-family="Helvetica,sans-Serif" font-size="12.00" fill="white">UnsafeMutablePointer</text>
</a>
</g>
</g>
<!-- RandomAccessIndexType&#45;&gt;UnsafeMutablePointer -->
<g id="edge23" class="edge">
<path fill="none" stroke="#cccccc" d="M991.594,-173.713C1001.72,-164.589 1016.69,-150.765 1029,-138 1064.7,-100.981 1103.66,-54.8733 1124.27,-29.973"/>
<polygon fill="#cccccc" stroke="#cccccc" points="1127.1,-32.0417 1130.77,-22.0996 1121.7,-27.5885 1127.1,-32.0417"/>
</g>
<!-- UnsafePointer -->
<g id="node28" class="node">
<g id="a_node28"><a xlink:href="/v2.1/type/UnsafePointer/" target="_top">
<polygon fill="#999999" stroke="#999999" points="1307.03,-22 1220.97,-22 1220.97,-0 1307.03,-0 1307.03,-22"/>
<text text-anchor="middle" x="1264" y="-7.4" font-family="Helvetica,sans-Serif" font-size="12.00" fill="white">UnsafePointer</text>
</a>
</g>
</g>
<!-- RandomAccessIndexType&#45;&gt;UnsafePointer -->
<g id="edge24" class="edge">
<path fill="none" stroke="#cccccc" d="M996.915,-173.756C1044.76,-144.777 1181.3,-62.0856 1238.4,-27.5016"/>
<polygon fill="#cccccc" stroke="#cccccc" points="1240.43,-30.3648 1247.17,-22.1906 1236.81,-24.3772 1240.43,-30.3648"/>
</g>
<!-- ReverseIndexType&#45;&gt;ReverseIndex -->
<g id="edge38" class="edge">
<path fill="none" stroke="#cccccc" d="M1718.84,-57.9883C1731.27,-49.5993 1749.24,-37.4743 1763.61,-27.7804"/>
<polygon fill="#cccccc" stroke="#cccccc" points="1765.68,-30.6083 1772.01,-22.1138 1761.76,-24.8055 1765.68,-30.6083"/>
</g>
<!-- ReverseIndexType&#45;&gt;ReverseRandomAccessIndex -->
<g id="edge39" class="edge">
<path fill="none" stroke="#cccccc" d="M1693.09,-57.9883C1684.44,-50.0446 1672.14,-38.7512 1661.89,-29.3439"/>
<polygon fill="#cccccc" stroke="#cccccc" points="1663.96,-26.4883 1654.22,-22.3039 1659.22,-31.6449 1663.96,-26.4883"/>
</g>
<!-- SignedIntegerType&#45;&gt;Int -->
<g id="edge28" class="edge">
<path fill="none" stroke="#cccccc" d="M869.289,-57.9883C844.084,-48.8821 806.696,-35.3739 778.954,-25.3513"/>
<polygon fill="#cccccc" stroke="#cccccc" points="779.805,-21.9373 769.211,-21.8311 777.427,-28.5208 779.805,-21.9373"/>
</g>
<!-- SignedIntegerType&#45;&gt;Int16 -->
<g id="edge29" class="edge">
<path fill="none" stroke="#cccccc" d="M882.161,-57.9883C869.728,-49.5993 851.757,-37.4743 837.389,-27.7804"/>
<polygon fill="#cccccc" stroke="#cccccc" points="839.237,-24.8055 828.99,-22.1138 835.322,-30.6083 839.237,-24.8055"/>
</g>
<!-- SignedIntegerType&#45;&gt;Int32 -->
<g id="edge30" class="edge">
<path fill="none" stroke="#cccccc" d="M895.033,-57.9883C893.628,-50.8311 891.688,-40.9547 889.966,-32.1885"/>
<polygon fill="#cccccc" stroke="#cccccc" points="893.386,-31.4417 888.024,-22.3039 886.517,-32.791 893.386,-31.4417"/>
</g>
<!-- SignedIntegerType&#45;&gt;Int64 -->
<g id="edge31" class="edge">
<path fill="none" stroke="#cccccc" d="M907.906,-57.9883C916.559,-50.0446 928.86,-38.7512 939.108,-29.3439"/>
<polygon fill="#cccccc" stroke="#cccccc" points="941.777,-31.6449 946.776,-22.3039 937.043,-26.4883 941.777,-31.6449"/>
</g>
<!-- SignedIntegerType&#45;&gt;Int8 -->
<g id="edge32" class="edge">
<path fill="none" stroke="#cccccc" d="M920.778,-57.9883C941.923,-49.0849 973.064,-35.9733 996.688,-26.0259"/>
<polygon fill="#cccccc" stroke="#cccccc" points="998.122,-29.2202 1005.98,-22.1138 995.405,-22.7687 998.122,-29.2202"/>
</g>
<!-- UnsignedIntegerType&#45;&gt;UInt -->
<g id="edge33" class="edge">
<path fill="none" stroke="#cccccc" d="M518.323,-57.9883C490.506,-48.6044 448.832,-34.5458 418.888,-24.4442"/>
<polygon fill="#cccccc" stroke="#cccccc" points="419.814,-21.0628 409.22,-21.1826 417.576,-27.6955 419.814,-21.0628"/>
</g>
<!-- UnsignedIntegerType&#45;&gt;UInt16 -->
<g id="edge34" class="edge">
<path fill="none" stroke="#cccccc" d="M531.195,-57.9883C516.847,-49.441 495.99,-37.0155 479.572,-27.2343"/>
<polygon fill="#cccccc" stroke="#cccccc" points="481.359,-24.2251 470.977,-22.1138 477.776,-30.2388 481.359,-24.2251"/>
</g>
<!-- UnsignedIntegerType&#45;&gt;UInt32 -->
<g id="edge35" class="edge">
<path fill="none" stroke="#cccccc" d="M544.067,-57.9883C541.193,-50.6738 537.204,-40.5192 533.705,-31.6122"/>
<polygon fill="#cccccc" stroke="#cccccc" points="536.962,-30.3316 530.048,-22.3039 530.447,-32.8912 536.962,-30.3316"/>
</g>
<!-- UnsignedIntegerType&#45;&gt;UInt64 -->
<g id="edge36" class="edge">
<path fill="none" stroke="#cccccc" d="M556.939,-57.9883C563.891,-50.2019 573.717,-39.1971 582.013,-29.9049"/>
<polygon fill="#cccccc" stroke="#cccccc" points="584.751,-32.0943 588.8,-22.3039 579.529,-27.4322 584.751,-32.0943"/>
</g>
<!-- UnsignedIntegerType&#45;&gt;UInt8 -->
<g id="edge37" class="edge">
<path fill="none" stroke="#cccccc" d="M569.811,-57.9883C589.036,-49.164 617.265,-36.206 638.864,-26.2919"/>
<polygon fill="#cccccc" stroke="#cccccc" points="640.338,-29.4665 647.966,-22.1138 637.418,-23.1046 640.338,-29.4665"/>
</g>
<!-- _Incrementable&#45;&gt;ForwardIndexType -->
<g id="edge41" class="edge">
<path fill="none" stroke="#cccccc" d="M1756,-347.988C1756,-340.91 1756,-331.171 1756,-322.478"/>
<polygon fill="#cccccc" stroke="#cccccc" points="1759.5,-322.304 1756,-312.304 1752.5,-322.304 1759.5,-322.304"/>
</g>
</g>
</svg>
