<?xml version="1.0" encoding="UTF-8" standalone="no"?>
<!DOCTYPE svg PUBLIC "-//W3C//DTD SVG 1.1//EN"
 "http://www.w3.org/Graphics/SVG/1.1/DTD/svg11.dtd">
<!-- Generated by graphviz version 2.36.0 (20140111.2315)
 -->
<!-- Title: BidirectionalIndexType &#45; Type Hierarchy &#45; SwiftDoc.org Pages: 1 -->
<svg width="2373pt" height="543pt"
 viewBox="0.00 0.00 2373.40 543.20" xmlns="http://www.w3.org/2000/svg" xmlns:xlink="http://www.w3.org/1999/xlink">
<g id="graph0" class="graph" transform="scale(1 1) rotate(0) translate(7.2 485.6)">
<g transform="translate(0 -485.6)">
<g>
    <path fill="#666666" d="M13.846,10.832c-0.336-0.464-0.792-0.844-1.368-1.14s-1.224-0.444-1.944-0.444
        c-0.384,0-0.772,0.052-1.164,0.156C8.977,9.509,8.622,9.677,8.301,9.908c-0.32,0.232-0.58,0.52-0.78,0.864
        c-0.2,0.344-0.3,0.756-0.3,1.236c0,0.464,0.092,0.852,0.276,1.164c0.184,0.312,0.432,0.576,0.744,0.792s0.68,0.4,1.104,0.552
        c0.423,0.152,0.876,0.309,1.356,0.468c0.576,0.177,1.16,0.376,1.752,0.601c0.592,0.224,1.128,0.52,1.608,0.888
        s0.872,0.828,1.176,1.38s0.456,1.252,0.456,2.101c0,0.88-0.164,1.644-0.492,2.292c-0.328,0.647-0.765,1.184-1.308,1.607
        c-0.544,0.424-1.172,0.74-1.884,0.948s-1.444,0.312-2.196,0.312c-1.072,0-2.108-0.208-3.108-0.624
        c-1-0.415-1.828-1.031-2.484-1.848l1.848-1.56c0.4,0.592,0.936,1.071,1.608,1.439c0.672,0.368,1.399,0.552,2.184,0.552
        c0.4,0,0.8-0.056,1.2-0.168c0.4-0.111,0.764-0.288,1.092-0.527c0.328-0.24,0.596-0.54,0.804-0.9
        c0.208-0.36,0.312-0.796,0.312-1.308s-0.108-0.94-0.324-1.284c-0.216-0.344-0.508-0.636-0.876-0.876s-0.796-0.444-1.284-0.612
        c-0.488-0.168-1.004-0.34-1.548-0.516c-0.544-0.16-1.08-0.356-1.608-0.588c-0.528-0.232-1-0.528-1.416-0.889
        c-0.416-0.359-0.752-0.804-1.008-1.332c-0.256-0.527-0.384-1.184-0.384-1.968c0-0.848,0.172-1.576,0.516-2.184
        c0.344-0.608,0.792-1.112,1.344-1.512c0.552-0.4,1.176-0.692,1.872-0.876c0.696-0.184,1.396-0.276,2.1-0.276
        c0.992,0,1.92,0.176,2.784,0.528c0.864,0.352,1.56,0.824,2.088,1.416L13.846,10.832z"/>
    <path fill="#666666" d="M18.813,13.304l2.568,8.688h0.048l2.712-8.688h2.376l2.76,8.688h0.048l2.568-8.688h2.376L30.501,24.68
        h-2.352l-2.808-8.544h-0.048l-2.784,8.544h-2.352l-3.792-11.376H18.813z"/>
    <path fill="#666666" d="M38.685,9.2c0,0.416-0.147,0.76-0.44,1.032c-0.294,0.272-0.647,0.408-1.06,0.408s-0.762-0.14-1.047-0.42
        c-0.286-0.28-0.429-0.62-0.429-1.02c0-0.416,0.143-0.764,0.429-1.044c0.286-0.28,0.635-0.42,1.047-0.42s0.766,0.14,1.06,0.42
        C38.538,8.437,38.685,8.784,38.685,9.2z M38.325,24.68h-2.256V13.304h2.256V24.68z"/>
    <path fill="#666666" d="M47.613,15.152h-2.64v9.528h-2.256v-9.528h-2.256v-1.848h2.256v-2.376c0-0.672,0.076-1.292,0.228-1.86
        c0.152-0.568,0.4-1.06,0.744-1.476c0.344-0.416,0.784-0.744,1.32-0.984c0.536-0.24,1.188-0.36,1.956-0.36
        c0.544,0,1.016,0.056,1.416,0.168l-0.264,1.944c-0.176-0.048-0.352-0.088-0.528-0.12c-0.176-0.032-0.376-0.048-0.6-0.048
        c-0.432,0-0.78,0.076-1.044,0.228c-0.264,0.152-0.468,0.356-0.612,0.612s-0.24,0.548-0.288,0.876
        c-0.048,0.328-0.072,0.668-0.072,1.02v2.376h2.64V15.152z"/>
    <path fill="#666666" d="M54.909,15.152h-3.024v5.91c0,0.687,0.128,1.177,0.384,1.472c0.256,0.295,0.664,0.442,1.224,0.442
        c0.208,0,0.432-0.021,0.672-0.065c0.24-0.044,0.456-0.11,0.648-0.198l0.072,1.848c-0.272,0.096-0.572,0.172-0.9,0.229
        c-0.328,0.056-0.668,0.084-1.02,0.084c-1.072,0-1.892-0.296-2.46-0.889c-0.568-0.592-0.852-1.479-0.852-2.664v-6.168h-2.184
        v-1.848h2.184V10.04h2.232v3.264h3.024V15.152z"/>
    <path fill="#666666" d="M57.356,7.688h5.832c1.088,0,2.176,0.16,3.264,0.48c1.088,0.32,2.072,0.824,2.952,1.512
        s1.592,1.568,2.136,2.64c0.544,1.072,0.816,2.36,0.816,3.864c0,1.456-0.272,2.716-0.816,3.78s-1.256,1.943-2.136,2.64
        s-1.864,1.216-2.952,1.561c-1.088,0.344-2.176,0.516-3.264,0.516h-5.832V7.688z M59.732,22.593h2.976
        c1.024,0,1.972-0.145,2.844-0.432c0.872-0.288,1.624-0.704,2.256-1.248c0.632-0.544,1.124-1.216,1.476-2.017
        c0.352-0.8,0.528-1.704,0.528-2.712c0-1.056-0.176-1.983-0.528-2.784c-0.353-0.8-0.844-1.468-1.476-2.004
        c-0.632-0.536-1.384-0.944-2.256-1.224s-1.82-0.42-2.844-0.42h-2.976V22.593z"/>
    <path fill="#666666" d="M86.06,18.969c0,0.88-0.156,1.688-0.468,2.424c-0.312,0.736-0.744,1.372-1.296,1.908
        c-0.552,0.536-1.204,0.952-1.956,1.248c-0.752,0.296-1.56,0.443-2.424,0.443c-0.864,0-1.672-0.147-2.424-0.443
        c-0.752-0.296-1.4-0.712-1.944-1.248c-0.544-0.536-0.972-1.172-1.284-1.908c-0.312-0.735-0.468-1.544-0.468-2.424
        s0.156-1.684,0.468-2.412c0.312-0.728,0.74-1.356,1.284-1.884c0.543-0.528,1.191-0.939,1.944-1.236
        c0.752-0.296,1.56-0.444,2.424-0.444c0.864,0,1.672,0.148,2.424,0.444c0.752,0.297,1.404,0.708,1.956,1.236
        c0.552,0.527,0.984,1.156,1.296,1.884C85.904,17.285,86.06,18.089,86.06,18.969z M83.708,18.98c0-0.542-0.084-1.061-0.252-1.556
        c-0.169-0.494-0.414-0.929-0.734-1.304s-0.718-0.674-1.192-0.897s-1.015-0.335-1.625-0.335c-0.61,0-1.152,0.111-1.625,0.335
        c-0.474,0.224-0.871,0.522-1.191,0.897c-0.321,0.375-0.566,0.81-0.734,1.304C76.184,17.92,76.1,18.438,76.1,18.98
        c0,0.543,0.084,1.062,0.253,1.556c0.168,0.495,0.413,0.934,0.734,1.316c0.321,0.383,0.718,0.686,1.191,0.909
        c0.473,0.224,1.015,0.335,1.625,0.335c0.61,0,1.151-0.111,1.625-0.335s0.871-0.526,1.192-0.909s0.565-0.821,0.734-1.316
        C83.624,20.042,83.708,19.523,83.708,18.98z"/>
    <path fill="#666666" d="M96.428,16.184c-0.24-0.368-0.6-0.676-1.08-0.924s-0.992-0.372-1.536-0.372
        c-0.592,0-1.116,0.112-1.572,0.336c-0.456,0.225-0.844,0.524-1.164,0.9c-0.32,0.376-0.564,0.812-0.732,1.308
        s-0.252,1.017-0.252,1.56c0,0.545,0.084,1.064,0.252,1.561s0.412,0.933,0.732,1.308c0.32,0.376,0.712,0.677,1.176,0.9
        c0.464,0.225,0.992,0.336,1.584,0.336c0.576,0,1.1-0.111,1.572-0.336c0.472-0.224,0.86-0.528,1.164-0.912l1.512,1.368
        c-0.48,0.561-1.08,0.996-1.8,1.308c-0.72,0.312-1.536,0.468-2.448,0.468c-0.88,0-1.692-0.144-2.436-0.432
        c-0.744-0.288-1.388-0.691-1.932-1.212c-0.544-0.52-0.972-1.147-1.284-1.884s-0.468-1.561-0.468-2.473
        c0-0.896,0.152-1.711,0.456-2.447c0.304-0.736,0.728-1.368,1.272-1.896c0.543-0.527,1.188-0.936,1.932-1.224
        c0.744-0.288,1.548-0.433,2.412-0.433c0.8,0,1.596,0.16,2.388,0.48s1.419,0.784,1.884,1.392L96.428,16.184z"/>
    <path fill="#666666" d="M103.1,23.24c0,0.417-0.152,0.784-0.456,1.104c-0.304,0.32-0.688,0.479-1.152,0.479
        c-0.448,0-0.828-0.155-1.14-0.468c-0.312-0.312-0.468-0.676-0.468-1.092c0-0.432,0.152-0.804,0.456-1.116
        c0.304-0.312,0.688-0.468,1.152-0.468c0.464,0,0.848,0.152,1.152,0.456C102.947,22.44,103.1,22.808,103.1,23.24z"/>
    <path fill="#666666" d="M116.635,18.969c0,0.88-0.156,1.688-0.468,2.424c-0.312,0.736-0.744,1.372-1.296,1.908
        c-0.552,0.536-1.204,0.952-1.956,1.248c-0.752,0.296-1.56,0.443-2.424,0.443c-0.864,0-1.672-0.147-2.424-0.443
        c-0.752-0.296-1.4-0.712-1.944-1.248c-0.544-0.536-0.972-1.172-1.284-1.908c-0.312-0.735-0.468-1.544-0.468-2.424
        s0.156-1.684,0.468-2.412c0.312-0.728,0.74-1.356,1.284-1.884c0.543-0.528,1.191-0.939,1.944-1.236
        c0.752-0.296,1.56-0.444,2.424-0.444c0.864,0,1.672,0.148,2.424,0.444c0.752,0.297,1.404,0.708,1.956,1.236
        c0.552,0.527,0.984,1.156,1.296,1.884C116.479,17.285,116.635,18.089,116.635,18.969z M114.283,18.98
        c0-0.542-0.084-1.061-0.252-1.556c-0.169-0.494-0.414-0.929-0.734-1.304s-0.718-0.674-1.192-0.897s-1.015-0.335-1.625-0.335
        c-0.61,0-1.152,0.111-1.625,0.335c-0.474,0.224-0.871,0.522-1.191,0.897c-0.321,0.375-0.566,0.81-0.734,1.304
        c-0.169,0.495-0.253,1.014-0.253,1.556c0,0.543,0.084,1.062,0.253,1.556c0.168,0.495,0.413,0.934,0.734,1.316
        c0.321,0.383,0.718,0.686,1.191,0.909c0.473,0.224,1.015,0.335,1.625,0.335c0.61,0,1.151-0.111,1.625-0.335
        s0.871-0.526,1.192-0.909s0.565-0.821,0.734-1.316C114.199,20.042,114.283,19.523,114.283,18.98z"/>
    <path fill="#666666" d="M119.251,14.577c-0.016-0.48-0.04-0.904-0.072-1.272h2.136c0.032,0.288,0.056,0.62,0.072,0.996
        c0.016,0.376,0.024,0.684,0.024,0.924h0.072c0.32-0.672,0.788-1.212,1.404-1.62c0.616-0.408,1.308-0.612,2.076-0.612
        c0.352,0,0.648,0.033,0.888,0.097l-0.096,2.088c-0.32-0.08-0.664-0.12-1.032-0.12c-0.544,0-1.016,0.101-1.416,0.3
        c-0.4,0.2-0.732,0.468-0.996,0.805c-0.264,0.336-0.46,0.724-0.588,1.163c-0.128,0.44-0.192,0.9-0.192,1.381v5.976h-2.256v-8.928
        C119.275,15.449,119.267,15.056,119.251,14.577z"/>
    <path fill="#666666" d="M128.419,26.625c0.496,0.56,1.116,1.008,1.86,1.344c0.744,0.336,1.508,0.504,2.292,0.504
        c0.752,0,1.384-0.108,1.896-0.324s0.924-0.512,1.236-0.888s0.536-0.82,0.672-1.332c0.136-0.513,0.204-1.064,0.204-1.656v-1.464
        h-0.048c-0.416,0.641-0.984,1.128-1.704,1.464c-0.72,0.336-1.488,0.504-2.304,0.504c-0.864,0-1.652-0.151-2.364-0.456
        c-0.712-0.304-1.316-0.72-1.812-1.248c-0.496-0.527-0.88-1.147-1.152-1.859s-0.408-1.477-0.408-2.292
        c0-0.816,0.136-1.584,0.408-2.305c0.272-0.72,0.656-1.348,1.152-1.884c0.496-0.535,1.096-0.96,1.8-1.271
        c0.704-0.312,1.488-0.469,2.352-0.469c0.816,0,1.596,0.177,2.34,0.528c0.744,0.353,1.332,0.888,1.764,1.608h0.048v-1.824h2.184
        v10.8c0,0.832-0.104,1.628-0.312,2.388c-0.208,0.76-0.56,1.433-1.056,2.017s-1.144,1.052-1.944,1.404
        c-0.8,0.352-1.792,0.527-2.976,0.527c-0.992,0-1.988-0.18-2.988-0.54c-1-0.359-1.86-0.868-2.58-1.523L128.419,26.625z
         M129.091,18.873c0,0.527,0.084,1.031,0.253,1.512c0.168,0.479,0.417,0.904,0.746,1.271c0.329,0.369,0.726,0.664,1.192,0.889
        c0.465,0.224,0.995,0.336,1.589,0.336c0.577,0,1.107-0.104,1.589-0.312c0.481-0.207,0.891-0.491,1.228-0.852
        s0.598-0.784,0.782-1.272c0.185-0.487,0.277-1.012,0.277-1.571c0-0.544-0.093-1.057-0.277-1.536
        c-0.185-0.48-0.449-0.904-0.794-1.272c-0.345-0.367-0.755-0.66-1.228-0.876c-0.474-0.216-1-0.324-1.577-0.324
        c-0.594,0-1.124,0.108-1.589,0.324c-0.466,0.216-0.863,0.504-1.192,0.864s-0.578,0.784-0.746,1.271
        C129.175,17.812,129.091,18.329,129.091,18.873z"/>
</g>
<g><a xlink:href="/" pointer-events="all" target="_top"><polygon fill="none" points="0,0 145,0 145,35 0,35 0,0"/></a></g>

</g>


<!-- AnyBidirectionalIndex -->
<g id="node1" class="node">
<g id="a_node1"><a xlink:href="/v2.1/type/AnyBidirectionalIndex/hierarchy/" target="_top">
<polygon fill="#999999" stroke="#999999" points="124.55,-22 -0.549813,-22 -0.549813,-0 124.55,-0 124.55,-22"/>
<text text-anchor="middle" x="62" y="-7.4" font-family="Helvetica,sans-Serif" font-size="12.00" fill="white">AnyBidirectionalIndex</text>
</a>
</g>
</g>
<!-- AnyRandomAccessIndex -->
<g id="node2" class="node">
<g id="a_node2"><a xlink:href="/v2.1/type/AnyRandomAccessIndex/hierarchy/" target="_top">
<polygon fill="#999999" stroke="#999999" points="1541.05,-22 1396.95,-22 1396.95,-0 1541.05,-0 1541.05,-22"/>
<text text-anchor="middle" x="1469" y="-7.4" font-family="Helvetica,sans-Serif" font-size="12.00" fill="white">AnyRandomAccessIndex</text>
</a>
</g>
</g>
<!-- BidirectionalIndexType -->
<g id="node3" class="node">
<g id="a_node3"><a xlink:href="/v2.1/protocol/BidirectionalIndexType/" target="_top">
<path fill="#ee543d" stroke="#ee543d" d="M1754.73,-254C1754.73,-254 1639.27,-254 1639.27,-254 1635.61,-254 1631.94,-250.333 1631.94,-246.667 1631.94,-246.667 1631.94,-239.333 1631.94,-239.333 1631.94,-235.667 1635.61,-232 1639.27,-232 1639.27,-232 1754.73,-232 1754.73,-232 1758.39,-232 1762.06,-235.667 1762.06,-239.333 1762.06,-239.333 1762.06,-246.667 1762.06,-246.667 1762.06,-250.333 1758.39,-254 1754.73,-254"/>
<text text-anchor="middle" x="1697" y="-239.4" font-family="Helvetica,sans-Serif" font-size="12.00" fill="white">BidirectionalIndexType</text>
</a>
</g>
</g>
<!-- BidirectionalIndexType&#45;&gt;AnyBidirectionalIndex -->
<g id="edge1" class="edge">
<path fill="none" stroke="#cccccc" d="M1631.93,-239.193C1515.52,-233.761 1264.03,-220.168 1053,-196 888.937,-177.211 848.527,-167.238 686,-138 475.83,-100.191 227.447,-47.6782 118.26,-24.1955"/>
<polygon fill="#cccccc" stroke="#cccccc" points="118.959,-20.7658 108.446,-22.0824 117.486,-27.609 118.959,-20.7658"/>
</g>
<!-- FlattenBidirectionalCollectionIndex -->
<g id="node6" class="node">
<g id="a_node6"><a xlink:href="/v2.1/type/FlattenBidirectionalCollectionIndex/hierarchy/" target="_top">
<polygon fill="#999999" stroke="#999999" points="337.076,-22 142.924,-22 142.924,-0 337.076,-0 337.076,-22"/>
<text text-anchor="middle" x="240" y="-7.4" font-family="Helvetica,sans-Serif" font-size="12.00" fill="white">FlattenBidirectionalCollectionIndex</text>
</a>
</g>
</g>
<!-- BidirectionalIndexType&#45;&gt;FlattenBidirectionalCollectionIndex -->
<g id="edge2" class="edge">
<path fill="none" stroke="#cccccc" d="M1631.64,-236.974C1449.42,-222.157 920.846,-173.699 491,-80 417.13,-63.8976 332.498,-39.7638 282.794,-24.9966"/>
<polygon fill="#cccccc" stroke="#cccccc" points="283.616,-21.5897 273.033,-22.0836 281.614,-28.2973 283.616,-21.5897"/>
</g>
<!-- RandomAccessIndexType -->
<g id="node14" class="node">
<g id="a_node14"><a xlink:href="/v2.1/protocol/RandomAccessIndexType/hierarchy/" target="_top">
<path fill="#999999" stroke="#999999" d="M1470.23,-196C1470.23,-196 1335.77,-196 1335.77,-196 1332.11,-196 1328.44,-192.333 1328.44,-188.667 1328.44,-188.667 1328.44,-181.333 1328.44,-181.333 1328.44,-177.667 1332.11,-174 1335.77,-174 1335.77,-174 1470.23,-174 1470.23,-174 1473.89,-174 1477.56,-177.667 1477.56,-181.333 1477.56,-181.333 1477.56,-188.667 1477.56,-188.667 1477.56,-192.333 1473.89,-196 1470.23,-196"/>
<text text-anchor="middle" x="1403" y="-181.4" font-family="Helvetica,sans-Serif" font-size="12.00" fill="white">RandomAccessIndexType</text>
</a>
</g>
</g>
<!-- BidirectionalIndexType&#45;&gt;RandomAccessIndexType -->
<g id="edge3" class="edge">
<path fill="none" stroke="#cccccc" d="M1644.44,-231.988C1594.32,-222.442 1518.8,-208.058 1465.6,-197.923"/>
<polygon fill="#cccccc" stroke="#cccccc" points="1466.08,-194.452 1455.6,-196.019 1464.77,-201.329 1466.08,-194.452"/>
</g>
<!-- ReverseIndexType -->
<g id="node16" class="node">
<g id="a_node16"><a xlink:href="/v2.1/protocol/ReverseIndexType/hierarchy/" target="_top">
<path fill="#999999" stroke="#999999" d="M1744.71,-80C1744.71,-80 1649.29,-80 1649.29,-80 1645.62,-80 1641.95,-76.3333 1641.95,-72.6667 1641.95,-72.6667 1641.95,-65.3333 1641.95,-65.3333 1641.95,-61.6667 1645.62,-58 1649.29,-58 1649.29,-58 1744.71,-58 1744.71,-58 1748.38,-58 1752.05,-61.6667 1752.05,-65.3333 1752.05,-65.3333 1752.05,-72.6667 1752.05,-72.6667 1752.05,-76.3333 1748.38,-80 1744.71,-80"/>
<text text-anchor="middle" x="1697" y="-65.4" font-family="Helvetica,sans-Serif" font-size="12.00" fill="white">ReverseIndexType</text>
</a>
</g>
</g>
<!-- BidirectionalIndexType&#45;&gt;ReverseIndexType -->
<g id="edge4" class="edge">
<path fill="none" stroke="#cccccc" d="M1697,-231.756C1697,-204.097 1697,-127.509 1697,-90.5186"/>
<polygon fill="#cccccc" stroke="#cccccc" points="1700.5,-90.408 1697,-80.4081 1693.5,-90.4081 1700.5,-90.408"/>
</g>
<!-- String.CharacterView.Index -->
<g id="node19" class="node">
<g id="a_node19"><a xlink:href="/v2.1/type/String.CharacterView.Index/hierarchy/" target="_top">
<polygon fill="#999999" stroke="#999999" points="2002.4,-22 1847.6,-22 1847.6,-0 2002.4,-0 2002.4,-22"/>
<text text-anchor="middle" x="1925" y="-7.4" font-family="Helvetica,sans-Serif" font-size="12.00" fill="white">String.CharacterView.Index</text>
</a>
</g>
</g>
<!-- BidirectionalIndexType&#45;&gt;String.CharacterView.Index -->
<g id="edge5" class="edge">
<path fill="none" stroke="#cccccc" d="M1707.09,-231.82C1742.7,-195.899 1862.75,-74.7927 1907.76,-29.3871"/>
<polygon fill="#cccccc" stroke="#cccccc" points="1910.47,-31.628 1915.03,-22.062 1905.5,-26.6999 1910.47,-31.628"/>
</g>
<!-- String.UTF16View.Index -->
<g id="node20" class="node">
<g id="a_node20"><a xlink:href="/v2.1/type/String.UTF16View.Index/hierarchy/" target="_top">
<polygon fill="#999999" stroke="#999999" points="2159.39,-22 2020.61,-22 2020.61,-0 2159.39,-0 2159.39,-22"/>
<text text-anchor="middle" x="2090" y="-7.4" font-family="Helvetica,sans-Serif" font-size="12.00" fill="white">String.UTF16View.Index</text>
</a>
</g>
</g>
<!-- BidirectionalIndexType&#45;&gt;String.UTF16View.Index -->
<g id="edge7" class="edge">
<path fill="none" stroke="#cccccc" d="M1714.14,-231.969C1776.19,-195.652 1989.4,-70.878 2063.98,-27.226"/>
<polygon fill="#cccccc" stroke="#cccccc" points="2065.91,-30.1553 2072.77,-22.0835 2062.37,-24.1138 2065.91,-30.1553"/>
</g>
<!-- String.UnicodeScalarView.Index -->
<g id="node21" class="node">
<g id="a_node21"><a xlink:href="/v2.1/type/String.UnicodeScalarView.Index/hierarchy/" target="_top">
<polygon fill="#999999" stroke="#999999" points="2357.92,-22 2178.08,-22 2178.08,-0 2357.92,-0 2357.92,-22"/>
<text text-anchor="middle" x="2268" y="-7.4" font-family="Helvetica,sans-Serif" font-size="12.00" fill="white">String.UnicodeScalarView.Index</text>
</a>
</g>
</g>
<!-- BidirectionalIndexType&#45;&gt;String.UnicodeScalarView.Index -->
<g id="edge6" class="edge">
<path fill="none" stroke="#cccccc" d="M1721.9,-231.969C1812.98,-195.283 2128.16,-68.3276 2233.45,-25.9179"/>
<polygon fill="#cccccc" stroke="#cccccc" points="2235,-29.0664 2242.97,-22.0835 2232.38,-22.5734 2235,-29.0664"/>
</g>
<!-- Bit -->
<g id="node4" class="node">
<g id="a_node4"><a xlink:href="/v2.1/type/Bit/hierarchy/" target="_top">
<polygon fill="#999999" stroke="#999999" points="1129,-22 1075,-22 1075,-0 1129,-0 1129,-22"/>
<text text-anchor="middle" x="1102" y="-7.4" font-family="Helvetica,sans-Serif" font-size="12.00" fill="white">Bit</text>
</a>
</g>
</g>
<!-- Equatable -->
<g id="node5" class="node">
<g id="a_node5"><a xlink:href="/v2.1/protocol/Equatable/hierarchy/" target="_top">
<path fill="#999999" stroke="#999999" d="M1721.7,-428C1721.7,-428 1672.3,-428 1672.3,-428 1668.63,-428 1664.96,-424.333 1664.96,-420.667 1664.96,-420.667 1664.96,-413.333 1664.96,-413.333 1664.96,-409.667 1668.63,-406 1672.3,-406 1672.3,-406 1721.7,-406 1721.7,-406 1725.37,-406 1729.04,-409.667 1729.04,-413.333 1729.04,-413.333 1729.04,-420.667 1729.04,-420.667 1729.04,-424.333 1725.37,-428 1721.7,-428"/>
<text text-anchor="middle" x="1697" y="-413.4" font-family="Helvetica,sans-Serif" font-size="12.00" fill="white">Equatable</text>
</a>
</g>
</g>
<!-- _Incrementable -->
<g id="node30" class="node">
<g id="a_node30"><a xlink:href="/v2.1/protocol/_Incrementable/hierarchy/" target="_top">
<path fill="#999999" stroke="#999999" d="M1735.71,-370C1735.71,-370 1658.29,-370 1658.29,-370 1654.63,-370 1650.96,-366.333 1650.96,-362.667 1650.96,-362.667 1650.96,-355.333 1650.96,-355.333 1650.96,-351.667 1654.63,-348 1658.29,-348 1658.29,-348 1735.71,-348 1735.71,-348 1739.37,-348 1743.04,-351.667 1743.04,-355.333 1743.04,-355.333 1743.04,-362.667 1743.04,-362.667 1743.04,-366.333 1739.37,-370 1735.71,-370"/>
<text text-anchor="middle" x="1697" y="-355.4" font-family="Helvetica,sans-Serif" font-size="12.00" fill="white">_Incrementable</text>
</a>
</g>
</g>
<!-- Equatable&#45;&gt;_Incrementable -->
<g id="edge30" class="edge">
<path fill="none" stroke="#cccccc" d="M1697,-405.988C1697,-398.91 1697,-389.171 1697,-380.478"/>
<polygon fill="#cccccc" stroke="#cccccc" points="1700.5,-380.304 1697,-370.304 1693.5,-380.304 1700.5,-380.304"/>
</g>
<!-- ForwardIndexType -->
<g id="node7" class="node">
<g id="a_node7"><a xlink:href="/v2.1/protocol/ForwardIndexType/hierarchy/" target="_top">
<path fill="#999999" stroke="#999999" d="M1744.21,-312C1744.21,-312 1649.79,-312 1649.79,-312 1646.13,-312 1642.46,-308.333 1642.46,-304.667 1642.46,-304.667 1642.46,-297.333 1642.46,-297.333 1642.46,-293.667 1646.13,-290 1649.79,-290 1649.79,-290 1744.21,-290 1744.21,-290 1747.87,-290 1751.54,-293.667 1751.54,-297.333 1751.54,-297.333 1751.54,-304.667 1751.54,-304.667 1751.54,-308.333 1747.87,-312 1744.21,-312"/>
<text text-anchor="middle" x="1697" y="-297.4" font-family="Helvetica,sans-Serif" font-size="12.00" fill="white">ForwardIndexType</text>
</a>
</g>
</g>
<!-- ForwardIndexType&#45;&gt;BidirectionalIndexType -->
<g id="edge28" class="edge">
<path fill="none" stroke="#cccccc" d="M1697,-289.988C1697,-282.91 1697,-273.171 1697,-264.478"/>
<polygon fill="#cccccc" stroke="#cccccc" points="1700.5,-264.304 1697,-254.304 1693.5,-264.304 1700.5,-264.304"/>
</g>
<!-- Int -->
<g id="node8" class="node">
<g id="a_node8"><a xlink:href="/v2.1/type/Int/hierarchy/" target="_top">
<polygon fill="#999999" stroke="#999999" points="841,-22 787,-22 787,-0 841,-0 841,-22"/>
<text text-anchor="middle" x="814" y="-7.4" font-family="Helvetica,sans-Serif" font-size="12.00" fill="white">Int</text>
</a>
</g>
</g>
<!-- Int&#45;&gt;Bit -->
<g id="edge20" class="edge">
<path fill="none" stroke="#cccccc" d="M826.779,-22.0854C835.283,-28.7029 847.052,-36.4837 859,-40 901.21,-52.4229 1014.79,-52.4229 1057,-40 1065.4,-37.5276 1073.71,-32.9469 1080.86,-28.1447"/>
<polygon fill="#cccccc" stroke="#cccccc" points="1083.18,-30.7891 1089.22,-22.0854 1079.07,-25.122 1083.18,-30.7891"/>
</g>
<!-- Int16 -->
<g id="node9" class="node">
<g id="a_node9"><a xlink:href="/v2.1/type/Int16/hierarchy/" target="_top">
<polygon fill="#999999" stroke="#999999" points="913,-22 859,-22 859,-0 913,-0 913,-22"/>
<text text-anchor="middle" x="886" y="-7.4" font-family="Helvetica,sans-Serif" font-size="12.00" fill="white">Int16</text>
</a>
</g>
</g>
<!-- Int32 -->
<g id="node10" class="node">
<g id="a_node10"><a xlink:href="/v2.1/type/Int32/hierarchy/" target="_top">
<polygon fill="#999999" stroke="#999999" points="985,-22 931,-22 931,-0 985,-0 985,-22"/>
<text text-anchor="middle" x="958" y="-7.4" font-family="Helvetica,sans-Serif" font-size="12.00" fill="white">Int32</text>
</a>
</g>
</g>
<!-- Int64 -->
<g id="node11" class="node">
<g id="a_node11"><a xlink:href="/v2.1/type/Int64/hierarchy/" target="_top">
<polygon fill="#999999" stroke="#999999" points="1057,-22 1003,-22 1003,-0 1057,-0 1057,-22"/>
<text text-anchor="middle" x="1030" y="-7.4" font-family="Helvetica,sans-Serif" font-size="12.00" fill="white">Int64</text>
</a>
</g>
</g>
<!-- Int8 -->
<g id="node12" class="node">
<g id="a_node12"><a xlink:href="/v2.1/type/Int8/hierarchy/" target="_top">
<polygon fill="#999999" stroke="#999999" points="769,-22 715,-22 715,-0 769,-0 769,-22"/>
<text text-anchor="middle" x="742" y="-7.4" font-family="Helvetica,sans-Serif" font-size="12.00" fill="white">Int8</text>
</a>
</g>
</g>
<!-- IntegerType -->
<g id="node13" class="node">
<g id="a_node13"><a xlink:href="/v2.1/protocol/IntegerType/hierarchy/" target="_top">
<path fill="#999999" stroke="#999999" d="M915.202,-138C915.202,-138 856.798,-138 856.798,-138 853.132,-138 849.465,-134.333 849.465,-130.667 849.465,-130.667 849.465,-123.333 849.465,-123.333 849.465,-119.667 853.132,-116 856.798,-116 856.798,-116 915.202,-116 915.202,-116 918.868,-116 922.535,-119.667 922.535,-123.333 922.535,-123.333 922.535,-130.667 922.535,-130.667 922.535,-134.333 918.868,-138 915.202,-138"/>
<text text-anchor="middle" x="886" y="-123.4" font-family="Helvetica,sans-Serif" font-size="12.00" fill="white">IntegerType</text>
</a>
</g>
</g>
<!-- SignedIntegerType -->
<g id="node18" class="node">
<g id="a_node18"><a xlink:href="/v2.1/protocol/SignedIntegerType/hierarchy/" target="_top">
<path fill="#999999" stroke="#999999" d="M933.727,-80C933.727,-80 838.273,-80 838.273,-80 834.606,-80 830.94,-76.3333 830.94,-72.6667 830.94,-72.6667 830.94,-65.3333 830.94,-65.3333 830.94,-61.6667 834.606,-58 838.273,-58 838.273,-58 933.727,-58 933.727,-58 937.394,-58 941.06,-61.6667 941.06,-65.3333 941.06,-65.3333 941.06,-72.6667 941.06,-72.6667 941.06,-76.3333 937.394,-80 933.727,-80"/>
<text text-anchor="middle" x="886" y="-65.4" font-family="Helvetica,sans-Serif" font-size="12.00" fill="white">SignedIntegerType</text>
</a>
</g>
</g>
<!-- IntegerType&#45;&gt;SignedIntegerType -->
<g id="edge13" class="edge">
<path fill="none" stroke="#cccccc" d="M886,-115.988C886,-108.91 886,-99.1714 886,-90.4779"/>
<polygon fill="#cccccc" stroke="#cccccc" points="889.5,-90.3038 886,-80.3039 882.5,-90.3039 889.5,-90.3038"/>
</g>
<!-- UnsignedIntegerType -->
<g id="node29" class="node">
<g id="a_node29"><a xlink:href="/v2.1/protocol/UnsignedIntegerType/hierarchy/" target="_top">
<path fill="#999999" stroke="#999999" d="M616.728,-80C616.728,-80 507.272,-80 507.272,-80 503.605,-80 499.938,-76.3333 499.938,-72.6667 499.938,-72.6667 499.938,-65.3333 499.938,-65.3333 499.938,-61.6667 503.605,-58 507.272,-58 507.272,-58 616.728,-58 616.728,-58 620.395,-58 624.062,-61.6667 624.062,-65.3333 624.062,-65.3333 624.062,-72.6667 624.062,-72.6667 624.062,-76.3333 620.395,-80 616.728,-80"/>
<text text-anchor="middle" x="562" y="-65.4" font-family="Helvetica,sans-Serif" font-size="12.00" fill="white">UnsignedIntegerType</text>
</a>
</g>
</g>
<!-- IntegerType&#45;&gt;UnsignedIntegerType -->
<g id="edge14" class="edge">
<path fill="none" stroke="#cccccc" d="M849.463,-119.685C796.335,-110.502 696.821,-93.3024 629.975,-81.7487"/>
<polygon fill="#cccccc" stroke="#cccccc" points="630.399,-78.2702 619.949,-80.0158 629.207,-85.1679 630.399,-78.2702"/>
</g>
<!-- RandomAccessIndexType&#45;&gt;AnyRandomAccessIndex -->
<g id="edge8" class="edge">
<path fill="none" stroke="#cccccc" d="M1406.93,-173.756C1417.59,-145.978 1447.19,-68.848 1461.31,-32.0425"/>
<polygon fill="#cccccc" stroke="#cccccc" points="1464.69,-32.9982 1465.01,-22.4081 1458.16,-30.4904 1464.69,-32.9982"/>
</g>
<!-- RandomAccessIndexType&#45;&gt;IntegerType -->
<g id="edge9" class="edge">
<path fill="none" stroke="#cccccc" d="M1328.38,-175.917C1220.11,-164.19 1022.62,-142.798 932.758,-133.065"/>
<polygon fill="#cccccc" stroke="#cccccc" points="932.922,-129.562 922.603,-131.965 932.168,-136.521 932.922,-129.562"/>
</g>
<!-- ReverseRandomAccessIndex -->
<g id="node17" class="node">
<g id="a_node17"><a xlink:href="/v2.1/type/ReverseRandomAccessIndex/hierarchy/" target="_top">
<polygon fill="#999999" stroke="#999999" points="1727.06,-22 1558.94,-22 1558.94,-0 1727.06,-0 1727.06,-22"/>
<text text-anchor="middle" x="1643" y="-7.4" font-family="Helvetica,sans-Serif" font-size="12.00" fill="white">ReverseRandomAccessIndex</text>
</a>
</g>
</g>
<!-- RandomAccessIndexType&#45;&gt;ReverseRandomAccessIndex -->
<g id="edge10" class="edge">
<path fill="none" stroke="#cccccc" d="M1417.29,-173.756C1457.48,-144.956 1571.69,-63.1066 1620.47,-28.1489"/>
<polygon fill="#cccccc" stroke="#cccccc" points="1622.69,-30.8607 1628.78,-22.1906 1618.61,-25.171 1622.69,-30.8607"/>
</g>
<!-- UnsafeMutablePointer -->
<g id="node27" class="node">
<g id="a_node27"><a xlink:href="/v2.1/type/UnsafeMutablePointer/hierarchy/" target="_top">
<polygon fill="#999999" stroke="#999999" points="1275.05,-22 1146.95,-22 1146.95,-0 1275.05,-0 1275.05,-22"/>
<text text-anchor="middle" x="1211" y="-7.4" font-family="Helvetica,sans-Serif" font-size="12.00" fill="white">UnsafeMutablePointer</text>
</a>
</g>
</g>
<!-- RandomAccessIndexType&#45;&gt;UnsafeMutablePointer -->
<g id="edge11" class="edge">
<path fill="none" stroke="#cccccc" d="M1391.56,-173.756C1359.76,-145.263 1269.99,-64.8429 1230.29,-29.2809"/>
<polygon fill="#cccccc" stroke="#cccccc" points="1232.4,-26.4737 1222.62,-22.4081 1227.73,-31.6875 1232.4,-26.4737"/>
</g>
<!-- UnsafePointer -->
<g id="node28" class="node">
<g id="a_node28"><a xlink:href="/v2.1/type/UnsafePointer/hierarchy/" target="_top">
<polygon fill="#999999" stroke="#999999" points="1379.03,-22 1292.97,-22 1292.97,-0 1379.03,-0 1379.03,-22"/>
<text text-anchor="middle" x="1336" y="-7.4" font-family="Helvetica,sans-Serif" font-size="12.00" fill="white">UnsafePointer</text>
</a>
</g>
</g>
<!-- RandomAccessIndexType&#45;&gt;UnsafePointer -->
<g id="edge12" class="edge">
<path fill="none" stroke="#cccccc" d="M1399.01,-173.756C1388.19,-145.978 1358.14,-68.848 1343.81,-32.0425"/>
<polygon fill="#cccccc" stroke="#cccccc" points="1346.95,-30.4557 1340.05,-22.4081 1340.42,-32.9965 1346.95,-30.4557"/>
</g>
<!-- ReverseIndex -->
<g id="node15" class="node">
<g id="a_node15"><a xlink:href="/v2.1/type/ReverseIndex/hierarchy/" target="_top">
<polygon fill="#999999" stroke="#999999" points="1829.03,-22 1744.97,-22 1744.97,-0 1829.03,-0 1829.03,-22"/>
<text text-anchor="middle" x="1787" y="-7.4" font-family="Helvetica,sans-Serif" font-size="12.00" fill="white">ReverseIndex</text>
</a>
</g>
</g>
<!-- ReverseIndexType&#45;&gt;ReverseIndex -->
<g id="edge26" class="edge">
<path fill="none" stroke="#cccccc" d="M1713.09,-57.9883C1726.7,-49.5201 1746.43,-37.2452 1762.08,-27.5067"/>
<polygon fill="#cccccc" stroke="#cccccc" points="1764.1,-30.3686 1770.75,-22.1138 1760.41,-24.4252 1764.1,-30.3686"/>
</g>
<!-- ReverseIndexType&#45;&gt;ReverseRandomAccessIndex -->
<g id="edge27" class="edge">
<path fill="none" stroke="#cccccc" d="M1687.35,-57.9883C1679.76,-50.1233 1669.01,-38.9745 1659.99,-29.6239"/>
<polygon fill="#cccccc" stroke="#cccccc" points="1662.4,-27.0729 1652.94,-22.3039 1657.36,-31.9318 1662.4,-27.0729"/>
</g>
<!-- SignedIntegerType&#45;&gt;Int -->
<g id="edge15" class="edge">
<path fill="none" stroke="#cccccc" d="M873.128,-57.9883C862.611,-49.8087 847.528,-38.0773 835.228,-28.5108"/>
<polygon fill="#cccccc" stroke="#cccccc" points="837.29,-25.6806 827.248,-22.3039 832.993,-31.2061 837.29,-25.6806"/>
</g>
<!-- SignedIntegerType&#45;&gt;Int16 -->
<g id="edge16" class="edge">
<path fill="none" stroke="#cccccc" d="M886,-57.9883C886,-50.9098 886,-41.1714 886,-32.4779"/>
<polygon fill="#cccccc" stroke="#cccccc" points="889.5,-32.3038 886,-22.3039 882.5,-32.3039 889.5,-32.3038"/>
</g>
<!-- SignedIntegerType&#45;&gt;Int32 -->
<g id="edge17" class="edge">
<path fill="none" stroke="#cccccc" d="M898.872,-57.9883C909.389,-49.8087 924.472,-38.0773 936.772,-28.5108"/>
<polygon fill="#cccccc" stroke="#cccccc" points="939.007,-31.2061 944.752,-22.3039 934.71,-25.6806 939.007,-31.2061"/>
</g>
<!-- SignedIntegerType&#45;&gt;Int64 -->
<g id="edge18" class="edge">
<path fill="none" stroke="#cccccc" d="M911.744,-57.9883C934.842,-49.0057 968.955,-35.7398 994.614,-25.7614"/>
<polygon fill="#cccccc" stroke="#cccccc" points="995.942,-29.0004 1003.99,-22.1138 993.404,-22.4763 995.942,-29.0004"/>
</g>
<!-- SignedIntegerType&#45;&gt;Int8 -->
<g id="edge19" class="edge">
<path fill="none" stroke="#cccccc" d="M860.256,-57.9883C837.158,-49.0057 803.045,-35.7398 777.386,-25.7614"/>
<polygon fill="#cccccc" stroke="#cccccc" points="778.596,-22.4763 768.007,-22.1138 776.058,-29.0004 778.596,-22.4763"/>
</g>
<!-- UInt -->
<g id="node22" class="node">
<g id="a_node22"><a xlink:href="/v2.1/type/UInt/hierarchy/" target="_top">
<polygon fill="#999999" stroke="#999999" points="481,-22 427,-22 427,-0 481,-0 481,-22"/>
<text text-anchor="middle" x="454" y="-7.4" font-family="Helvetica,sans-Serif" font-size="12.00" fill="white">UInt</text>
</a>
</g>
</g>
<!-- UInt16 -->
<g id="node23" class="node">
<g id="a_node23"><a xlink:href="/v2.1/type/UInt16/hierarchy/" target="_top">
<polygon fill="#999999" stroke="#999999" points="553,-22 499,-22 499,-0 553,-0 553,-22"/>
<text text-anchor="middle" x="526" y="-7.4" font-family="Helvetica,sans-Serif" font-size="12.00" fill="white">UInt16</text>
</a>
</g>
</g>
<!-- UInt32 -->
<g id="node24" class="node">
<g id="a_node24"><a xlink:href="/v2.1/type/UInt32/hierarchy/" target="_top">
<polygon fill="#999999" stroke="#999999" points="625,-22 571,-22 571,-0 625,-0 625,-22"/>
<text text-anchor="middle" x="598" y="-7.4" font-family="Helvetica,sans-Serif" font-size="12.00" fill="white">UInt32</text>
</a>
</g>
</g>
<!-- UInt64 -->
<g id="node25" class="node">
<g id="a_node25"><a xlink:href="/v2.1/type/UInt64/hierarchy/" target="_top">
<polygon fill="#999999" stroke="#999999" points="697,-22 643,-22 643,-0 697,-0 697,-22"/>
<text text-anchor="middle" x="670" y="-7.4" font-family="Helvetica,sans-Serif" font-size="12.00" fill="white">UInt64</text>
</a>
</g>
</g>
<!-- UInt8 -->
<g id="node26" class="node">
<g id="a_node26"><a xlink:href="/v2.1/type/UInt8/hierarchy/" target="_top">
<polygon fill="#999999" stroke="#999999" points="409,-22 355,-22 355,-0 409,-0 409,-22"/>
<text text-anchor="middle" x="382" y="-7.4" font-family="Helvetica,sans-Serif" font-size="12.00" fill="white">UInt8</text>
</a>
</g>
</g>
<!-- UnsignedIntegerType&#45;&gt;UInt -->
<g id="edge21" class="edge">
<path fill="none" stroke="#cccccc" d="M542.692,-57.9883C525.979,-49.3223 501.577,-36.6696 482.597,-26.8283"/>
<polygon fill="#cccccc" stroke="#cccccc" points="483.994,-23.6099 473.505,-22.1138 480.772,-29.8242 483.994,-23.6099"/>
</g>
<!-- UnsignedIntegerType&#45;&gt;UInt16 -->
<g id="edge22" class="edge">
<path fill="none" stroke="#cccccc" d="M555.564,-57.9883C550.71,-50.4379 543.911,-39.8611 538.056,-30.7543"/>
<polygon fill="#cccccc" stroke="#cccccc" points="540.976,-28.823 532.624,-22.3039 535.087,-32.6083 540.976,-28.823"/>
</g>
<!-- UnsignedIntegerType&#45;&gt;UInt32 -->
<g id="edge23" class="edge">
<path fill="none" stroke="#cccccc" d="M568.436,-57.9883C573.29,-50.4379 580.089,-39.8611 585.944,-30.7543"/>
<polygon fill="#cccccc" stroke="#cccccc" points="588.913,-32.6083 591.376,-22.3039 583.024,-28.823 588.913,-32.6083"/>
</g>
<!-- UnsignedIntegerType&#45;&gt;UInt64 -->
<g id="edge24" class="edge">
<path fill="none" stroke="#cccccc" d="M581.308,-57.9883C598.021,-49.3223 622.423,-36.6696 641.403,-26.8283"/>
<polygon fill="#cccccc" stroke="#cccccc" points="643.228,-29.8242 650.495,-22.1138 640.006,-23.6099 643.228,-29.8242"/>
</g>
<!-- UnsignedIntegerType&#45;&gt;UInt8 -->
<g id="edge25" class="edge">
<path fill="none" stroke="#cccccc" d="M529.82,-57.9883C498.661,-48.2947 451.47,-33.6128 418.827,-23.4573"/>
<polygon fill="#cccccc" stroke="#cccccc" points="419.786,-20.0902 409.198,-20.4615 417.706,-26.7742 419.786,-20.0902"/>
</g>
<!-- _Incrementable&#45;&gt;ForwardIndexType -->
<g id="edge29" class="edge">
<path fill="none" stroke="#cccccc" d="M1697,-347.988C1697,-340.91 1697,-331.171 1697,-322.478"/>
<polygon fill="#cccccc" stroke="#cccccc" points="1700.5,-322.304 1697,-312.304 1693.5,-322.304 1700.5,-322.304"/>
</g>
</g>
</svg>
