<?xml version="1.0" encoding="UTF-8" standalone="no"?>
<!DOCTYPE svg PUBLIC "-//W3C//DTD SVG 1.1//EN"
 "http://www.w3.org/Graphics/SVG/1.1/DTD/svg11.dtd">
<!-- Generated by graphviz version 2.36.0 (20140111.2315)
 -->
<!-- Title: _Incrementable &#45; Type Hierarchy &#45; SwiftDoc.org Pages: 1 -->
<svg width="2340pt" height="601pt"
 viewBox="0.00 0.00 2340.40 601.20" xmlns="http://www.w3.org/2000/svg" xmlns:xlink="http://www.w3.org/1999/xlink">
<g id="graph0" class="graph" transform="scale(1 1) rotate(0) translate(7.2 543.6)">
<g transform="translate(0 -543.6)">
<g>
    <path fill="#666666" d="M13.846,10.832c-0.336-0.464-0.792-0.844-1.368-1.14s-1.224-0.444-1.944-0.444
        c-0.384,0-0.772,0.052-1.164,0.156C8.977,9.509,8.622,9.677,8.301,9.908c-0.32,0.232-0.58,0.52-0.78,0.864
        c-0.2,0.344-0.3,0.756-0.3,1.236c0,0.464,0.092,0.852,0.276,1.164c0.184,0.312,0.432,0.576,0.744,0.792s0.68,0.4,1.104,0.552
        c0.423,0.152,0.876,0.309,1.356,0.468c0.576,0.177,1.16,0.376,1.752,0.601c0.592,0.224,1.128,0.52,1.608,0.888
        s0.872,0.828,1.176,1.38s0.456,1.252,0.456,2.101c0,0.88-0.164,1.644-0.492,2.292c-0.328,0.647-0.765,1.184-1.308,1.607
        c-0.544,0.424-1.172,0.74-1.884,0.948s-1.444,0.312-2.196,0.312c-1.072,0-2.108-0.208-3.108-0.624
        c-1-0.415-1.828-1.031-2.484-1.848l1.848-1.56c0.4,0.592,0.936,1.071,1.608,1.439c0.672,0.368,1.399,0.552,2.184,0.552
        c0.4,0,0.8-0.056,1.2-0.168c0.4-0.111,0.764-0.288,1.092-0.527c0.328-0.24,0.596-0.54,0.804-0.9
        c0.208-0.36,0.312-0.796,0.312-1.308s-0.108-0.94-0.324-1.284c-0.216-0.344-0.508-0.636-0.876-0.876s-0.796-0.444-1.284-0.612
        c-0.488-0.168-1.004-0.34-1.548-0.516c-0.544-0.16-1.08-0.356-1.608-0.588c-0.528-0.232-1-0.528-1.416-0.889
        c-0.416-0.359-0.752-0.804-1.008-1.332c-0.256-0.527-0.384-1.184-0.384-1.968c0-0.848,0.172-1.576,0.516-2.184
        c0.344-0.608,0.792-1.112,1.344-1.512c0.552-0.4,1.176-0.692,1.872-0.876c0.696-0.184,1.396-0.276,2.1-0.276
        c0.992,0,1.92,0.176,2.784,0.528c0.864,0.352,1.56,0.824,2.088,1.416L13.846,10.832z"/>
    <path fill="#666666" d="M18.813,13.304l2.568,8.688h0.048l2.712-8.688h2.376l2.76,8.688h0.048l2.568-8.688h2.376L30.501,24.68
        h-2.352l-2.808-8.544h-0.048l-2.784,8.544h-2.352l-3.792-11.376H18.813z"/>
    <path fill="#666666" d="M38.685,9.2c0,0.416-0.147,0.76-0.44,1.032c-0.294,0.272-0.647,0.408-1.06,0.408s-0.762-0.14-1.047-0.42
        c-0.286-0.28-0.429-0.62-0.429-1.02c0-0.416,0.143-0.764,0.429-1.044c0.286-0.28,0.635-0.42,1.047-0.42s0.766,0.14,1.06,0.42
        C38.538,8.437,38.685,8.784,38.685,9.2z M38.325,24.68h-2.256V13.304h2.256V24.68z"/>
    <path fill="#666666" d="M47.613,15.152h-2.64v9.528h-2.256v-9.528h-2.256v-1.848h2.256v-2.376c0-0.672,0.076-1.292,0.228-1.86
        c0.152-0.568,0.4-1.06,0.744-1.476c0.344-0.416,0.784-0.744,1.32-0.984c0.536-0.24,1.188-0.36,1.956-0.36
        c0.544,0,1.016,0.056,1.416,0.168l-0.264,1.944c-0.176-0.048-0.352-0.088-0.528-0.12c-0.176-0.032-0.376-0.048-0.6-0.048
        c-0.432,0-0.78,0.076-1.044,0.228c-0.264,0.152-0.468,0.356-0.612,0.612s-0.24,0.548-0.288,0.876
        c-0.048,0.328-0.072,0.668-0.072,1.02v2.376h2.64V15.152z"/>
    <path fill="#666666" d="M54.909,15.152h-3.024v5.91c0,0.687,0.128,1.177,0.384,1.472c0.256,0.295,0.664,0.442,1.224,0.442
        c0.208,0,0.432-0.021,0.672-0.065c0.24-0.044,0.456-0.11,0.648-0.198l0.072,1.848c-0.272,0.096-0.572,0.172-0.9,0.229
        c-0.328,0.056-0.668,0.084-1.02,0.084c-1.072,0-1.892-0.296-2.46-0.889c-0.568-0.592-0.852-1.479-0.852-2.664v-6.168h-2.184
        v-1.848h2.184V10.04h2.232v3.264h3.024V15.152z"/>
    <path fill="#666666" d="M57.356,7.688h5.832c1.088,0,2.176,0.16,3.264,0.48c1.088,0.32,2.072,0.824,2.952,1.512
        s1.592,1.568,2.136,2.64c0.544,1.072,0.816,2.36,0.816,3.864c0,1.456-0.272,2.716-0.816,3.78s-1.256,1.943-2.136,2.64
        s-1.864,1.216-2.952,1.561c-1.088,0.344-2.176,0.516-3.264,0.516h-5.832V7.688z M59.732,22.593h2.976
        c1.024,0,1.972-0.145,2.844-0.432c0.872-0.288,1.624-0.704,2.256-1.248c0.632-0.544,1.124-1.216,1.476-2.017
        c0.352-0.8,0.528-1.704,0.528-2.712c0-1.056-0.176-1.983-0.528-2.784c-0.353-0.8-0.844-1.468-1.476-2.004
        c-0.632-0.536-1.384-0.944-2.256-1.224s-1.82-0.42-2.844-0.42h-2.976V22.593z"/>
    <path fill="#666666" d="M86.06,18.969c0,0.88-0.156,1.688-0.468,2.424c-0.312,0.736-0.744,1.372-1.296,1.908
        c-0.552,0.536-1.204,0.952-1.956,1.248c-0.752,0.296-1.56,0.443-2.424,0.443c-0.864,0-1.672-0.147-2.424-0.443
        c-0.752-0.296-1.4-0.712-1.944-1.248c-0.544-0.536-0.972-1.172-1.284-1.908c-0.312-0.735-0.468-1.544-0.468-2.424
        s0.156-1.684,0.468-2.412c0.312-0.728,0.74-1.356,1.284-1.884c0.543-0.528,1.191-0.939,1.944-1.236
        c0.752-0.296,1.56-0.444,2.424-0.444c0.864,0,1.672,0.148,2.424,0.444c0.752,0.297,1.404,0.708,1.956,1.236
        c0.552,0.527,0.984,1.156,1.296,1.884C85.904,17.285,86.06,18.089,86.06,18.969z M83.708,18.98c0-0.542-0.084-1.061-0.252-1.556
        c-0.169-0.494-0.414-0.929-0.734-1.304s-0.718-0.674-1.192-0.897s-1.015-0.335-1.625-0.335c-0.61,0-1.152,0.111-1.625,0.335
        c-0.474,0.224-0.871,0.522-1.191,0.897c-0.321,0.375-0.566,0.81-0.734,1.304C76.184,17.92,76.1,18.438,76.1,18.98
        c0,0.543,0.084,1.062,0.253,1.556c0.168,0.495,0.413,0.934,0.734,1.316c0.321,0.383,0.718,0.686,1.191,0.909
        c0.473,0.224,1.015,0.335,1.625,0.335c0.61,0,1.151-0.111,1.625-0.335s0.871-0.526,1.192-0.909s0.565-0.821,0.734-1.316
        C83.624,20.042,83.708,19.523,83.708,18.98z"/>
    <path fill="#666666" d="M96.428,16.184c-0.24-0.368-0.6-0.676-1.08-0.924s-0.992-0.372-1.536-0.372
        c-0.592,0-1.116,0.112-1.572,0.336c-0.456,0.225-0.844,0.524-1.164,0.9c-0.32,0.376-0.564,0.812-0.732,1.308
        s-0.252,1.017-0.252,1.56c0,0.545,0.084,1.064,0.252,1.561s0.412,0.933,0.732,1.308c0.32,0.376,0.712,0.677,1.176,0.9
        c0.464,0.225,0.992,0.336,1.584,0.336c0.576,0,1.1-0.111,1.572-0.336c0.472-0.224,0.86-0.528,1.164-0.912l1.512,1.368
        c-0.48,0.561-1.08,0.996-1.8,1.308c-0.72,0.312-1.536,0.468-2.448,0.468c-0.88,0-1.692-0.144-2.436-0.432
        c-0.744-0.288-1.388-0.691-1.932-1.212c-0.544-0.52-0.972-1.147-1.284-1.884s-0.468-1.561-0.468-2.473
        c0-0.896,0.152-1.711,0.456-2.447c0.304-0.736,0.728-1.368,1.272-1.896c0.543-0.527,1.188-0.936,1.932-1.224
        c0.744-0.288,1.548-0.433,2.412-0.433c0.8,0,1.596,0.16,2.388,0.48s1.419,0.784,1.884,1.392L96.428,16.184z"/>
    <path fill="#666666" d="M103.1,23.24c0,0.417-0.152,0.784-0.456,1.104c-0.304,0.32-0.688,0.479-1.152,0.479
        c-0.448,0-0.828-0.155-1.14-0.468c-0.312-0.312-0.468-0.676-0.468-1.092c0-0.432,0.152-0.804,0.456-1.116
        c0.304-0.312,0.688-0.468,1.152-0.468c0.464,0,0.848,0.152,1.152,0.456C102.947,22.44,103.1,22.808,103.1,23.24z"/>
    <path fill="#666666" d="M116.635,18.969c0,0.88-0.156,1.688-0.468,2.424c-0.312,0.736-0.744,1.372-1.296,1.908
        c-0.552,0.536-1.204,0.952-1.956,1.248c-0.752,0.296-1.56,0.443-2.424,0.443c-0.864,0-1.672-0.147-2.424-0.443
        c-0.752-0.296-1.4-0.712-1.944-1.248c-0.544-0.536-0.972-1.172-1.284-1.908c-0.312-0.735-0.468-1.544-0.468-2.424
        s0.156-1.684,0.468-2.412c0.312-0.728,0.74-1.356,1.284-1.884c0.543-0.528,1.191-0.939,1.944-1.236
        c0.752-0.296,1.56-0.444,2.424-0.444c0.864,0,1.672,0.148,2.424,0.444c0.752,0.297,1.404,0.708,1.956,1.236
        c0.552,0.527,0.984,1.156,1.296,1.884C116.479,17.285,116.635,18.089,116.635,18.969z M114.283,18.98
        c0-0.542-0.084-1.061-0.252-1.556c-0.169-0.494-0.414-0.929-0.734-1.304s-0.718-0.674-1.192-0.897s-1.015-0.335-1.625-0.335
        c-0.61,0-1.152,0.111-1.625,0.335c-0.474,0.224-0.871,0.522-1.191,0.897c-0.321,0.375-0.566,0.81-0.734,1.304
        c-0.169,0.495-0.253,1.014-0.253,1.556c0,0.543,0.084,1.062,0.253,1.556c0.168,0.495,0.413,0.934,0.734,1.316
        c0.321,0.383,0.718,0.686,1.191,0.909c0.473,0.224,1.015,0.335,1.625,0.335c0.61,0,1.151-0.111,1.625-0.335
        s0.871-0.526,1.192-0.909s0.565-0.821,0.734-1.316C114.199,20.042,114.283,19.523,114.283,18.98z"/>
    <path fill="#666666" d="M119.251,14.577c-0.016-0.48-0.04-0.904-0.072-1.272h2.136c0.032,0.288,0.056,0.62,0.072,0.996
        c0.016,0.376,0.024,0.684,0.024,0.924h0.072c0.32-0.672,0.788-1.212,1.404-1.62c0.616-0.408,1.308-0.612,2.076-0.612
        c0.352,0,0.648,0.033,0.888,0.097l-0.096,2.088c-0.32-0.08-0.664-0.12-1.032-0.12c-0.544,0-1.016,0.101-1.416,0.3
        c-0.4,0.2-0.732,0.468-0.996,0.805c-0.264,0.336-0.46,0.724-0.588,1.163c-0.128,0.44-0.192,0.9-0.192,1.381v5.976h-2.256v-8.928
        C119.275,15.449,119.267,15.056,119.251,14.577z"/>
    <path fill="#666666" d="M128.419,26.625c0.496,0.56,1.116,1.008,1.86,1.344c0.744,0.336,1.508,0.504,2.292,0.504
        c0.752,0,1.384-0.108,1.896-0.324s0.924-0.512,1.236-0.888s0.536-0.82,0.672-1.332c0.136-0.513,0.204-1.064,0.204-1.656v-1.464
        h-0.048c-0.416,0.641-0.984,1.128-1.704,1.464c-0.72,0.336-1.488,0.504-2.304,0.504c-0.864,0-1.652-0.151-2.364-0.456
        c-0.712-0.304-1.316-0.72-1.812-1.248c-0.496-0.527-0.88-1.147-1.152-1.859s-0.408-1.477-0.408-2.292
        c0-0.816,0.136-1.584,0.408-2.305c0.272-0.72,0.656-1.348,1.152-1.884c0.496-0.535,1.096-0.96,1.8-1.271
        c0.704-0.312,1.488-0.469,2.352-0.469c0.816,0,1.596,0.177,2.34,0.528c0.744,0.353,1.332,0.888,1.764,1.608h0.048v-1.824h2.184
        v10.8c0,0.832-0.104,1.628-0.312,2.388c-0.208,0.76-0.56,1.433-1.056,2.017s-1.144,1.052-1.944,1.404
        c-0.8,0.352-1.792,0.527-2.976,0.527c-0.992,0-1.988-0.18-2.988-0.54c-1-0.359-1.86-0.868-2.58-1.523L128.419,26.625z
         M129.091,18.873c0,0.527,0.084,1.031,0.253,1.512c0.168,0.479,0.417,0.904,0.746,1.271c0.329,0.369,0.726,0.664,1.192,0.889
        c0.465,0.224,0.995,0.336,1.589,0.336c0.577,0,1.107-0.104,1.589-0.312c0.481-0.207,0.891-0.491,1.228-0.852
        s0.598-0.784,0.782-1.272c0.185-0.487,0.277-1.012,0.277-1.571c0-0.544-0.093-1.057-0.277-1.536
        c-0.185-0.48-0.449-0.904-0.794-1.272c-0.345-0.367-0.755-0.66-1.228-0.876c-0.474-0.216-1-0.324-1.577-0.324
        c-0.594,0-1.124,0.108-1.589,0.324c-0.466,0.216-0.863,0.504-1.192,0.864s-0.578,0.784-0.746,1.271
        C129.175,17.812,129.091,18.329,129.091,18.873z"/>
</g>
<g><a xlink:href="/" pointer-events="all" target="_top"><polygon fill="none" points="0,0 145,0 145,35 0,35 0,0"/></a></g>

</g>


<!-- BidirectionalIndexType -->
<g id="node1" class="node">
<g id="a_node1"><a xlink:href="/v1.2/protocol/BidirectionalIndexType/hierarchy/" target="_top">
<path fill="#999999" stroke="#999999" d="M830.725,-254C830.725,-254 715.275,-254 715.275,-254 711.608,-254 707.941,-250.333 707.941,-246.667 707.941,-246.667 707.941,-239.333 707.941,-239.333 707.941,-235.667 711.608,-232 715.275,-232 715.275,-232 830.725,-232 830.725,-232 834.392,-232 838.059,-235.667 838.059,-239.333 838.059,-239.333 838.059,-246.667 838.059,-246.667 838.059,-250.333 834.392,-254 830.725,-254"/>
<text text-anchor="middle" x="773" y="-239.4" font-family="Helvetica,sans-Serif" font-size="12.00" fill="white">BidirectionalIndexType</text>
</a>
</g>
</g>
<!-- RandomAccessIndexType -->
<g id="node13" class="node">
<g id="a_node13"><a xlink:href="/v1.2/protocol/RandomAccessIndexType/hierarchy/" target="_top">
<path fill="#999999" stroke="#999999" d="M1214.23,-196C1214.23,-196 1079.77,-196 1079.77,-196 1076.11,-196 1072.44,-192.333 1072.44,-188.667 1072.44,-188.667 1072.44,-181.333 1072.44,-181.333 1072.44,-177.667 1076.11,-174 1079.77,-174 1079.77,-174 1214.23,-174 1214.23,-174 1217.89,-174 1221.56,-177.667 1221.56,-181.333 1221.56,-181.333 1221.56,-188.667 1221.56,-188.667 1221.56,-192.333 1217.89,-196 1214.23,-196"/>
<text text-anchor="middle" x="1147" y="-181.4" font-family="Helvetica,sans-Serif" font-size="12.00" fill="white">RandomAccessIndexType</text>
</a>
</g>
</g>
<!-- BidirectionalIndexType&#45;&gt;RandomAccessIndexType -->
<g id="edge10" class="edge">
<path fill="none" stroke="#cccccc" d="M838.146,-232.246C902.643,-222.588 1001.39,-207.802 1069.8,-197.56"/>
<polygon fill="#cccccc" stroke="#cccccc" points="1070.71,-200.962 1080.08,-196.02 1069.67,-194.039 1070.71,-200.962"/>
</g>
<!-- ReverseBidirectionalIndex -->
<g id="node14" class="node">
<g id="a_node14"><a xlink:href="/v1.2/type/ReverseBidirectionalIndex/hierarchy/" target="_top">
<polygon fill="#999999" stroke="#999999" points="939.554,-22 790.446,-22 790.446,-0 939.554,-0 939.554,-22"/>
<text text-anchor="middle" x="865" y="-7.4" font-family="Helvetica,sans-Serif" font-size="12.00" fill="white">ReverseBidirectionalIndex</text>
</a>
</g>
</g>
<!-- BidirectionalIndexType&#45;&gt;ReverseBidirectionalIndex -->
<g id="edge11" class="edge">
<path fill="none" stroke="#cccccc" d="M777.072,-231.82C791.232,-196.419 838.486,-78.2851 857.237,-31.4085"/>
<polygon fill="#cccccc" stroke="#cccccc" points="860.511,-32.6467 860.975,-22.062 854.012,-30.0469 860.511,-32.6467"/>
</g>
<!-- String.Index -->
<g id="node18" class="node">
<g id="a_node18"><a xlink:href="/v1.2/type/String.Index/hierarchy/" target="_top">
<polygon fill="#999999" stroke="#999999" points="574.028,-22 499.972,-22 499.972,-0 574.028,-0 574.028,-22"/>
<text text-anchor="middle" x="537" y="-7.4" font-family="Helvetica,sans-Serif" font-size="12.00" fill="white">String.Index</text>
</a>
</g>
</g>
<!-- BidirectionalIndexType&#45;&gt;String.Index -->
<g id="edge12" class="edge">
<path fill="none" stroke="#cccccc" d="M762.555,-231.82C725.62,-195.824 600.916,-74.2909 554.552,-29.1061"/>
<polygon fill="#cccccc" stroke="#cccccc" points="556.929,-26.535 547.325,-22.062 552.043,-31.548 556.929,-26.535"/>
</g>
<!-- String.UnicodeScalarView.Index -->
<g id="node21" class="node">
<g id="a_node21"><a xlink:href="/v1.2/type/String.UnicodeScalarView.Index/hierarchy/" target="_top">
<polygon fill="#999999" stroke="#999999" points="771.917,-22 592.083,-22 592.083,-0 771.917,-0 771.917,-22"/>
<text text-anchor="middle" x="682" y="-7.4" font-family="Helvetica,sans-Serif" font-size="12.00" fill="white">String.UnicodeScalarView.Index</text>
</a>
</g>
</g>
<!-- BidirectionalIndexType&#45;&gt;String.UnicodeScalarView.Index -->
<g id="edge13" class="edge">
<path fill="none" stroke="#cccccc" d="M768.972,-231.82C754.966,-196.419 708.226,-78.2851 689.679,-31.4085"/>
<polygon fill="#cccccc" stroke="#cccccc" points="692.915,-30.073 685.981,-22.062 686.406,-32.6484 692.915,-30.073"/>
</g>
<!-- Bit -->
<g id="node2" class="node">
<g id="a_node2"><a xlink:href="/v1.2/type/Bit/hierarchy/" target="_top">
<polygon fill="#999999" stroke="#999999" points="1966,-22 1912,-22 1912,-0 1966,-0 1966,-22"/>
<text text-anchor="middle" x="1939" y="-7.4" font-family="Helvetica,sans-Serif" font-size="12.00" fill="white">Bit</text>
</a>
</g>
</g>
<!-- DictionaryIndex -->
<g id="node3" class="node">
<g id="a_node3"><a xlink:href="/v1.2/type/DictionaryIndex/hierarchy/" target="_top">
<polygon fill="#999999" stroke="#999999" points="243.03,-22 150.97,-22 150.97,-0 243.03,-0 243.03,-22"/>
<text text-anchor="middle" x="197" y="-7.4" font-family="Helvetica,sans-Serif" font-size="12.00" fill="white">DictionaryIndex</text>
</a>
</g>
</g>
<!-- Equatable -->
<g id="node4" class="node">
<g id="a_node4"><a xlink:href="/v1.2/protocol/Equatable/hierarchy/" target="_top">
<path fill="#999999" stroke="#999999" d="M1194.7,-486C1194.7,-486 1145.3,-486 1145.3,-486 1141.63,-486 1137.96,-482.333 1137.96,-478.667 1137.96,-478.667 1137.96,-471.333 1137.96,-471.333 1137.96,-467.667 1141.63,-464 1145.3,-464 1145.3,-464 1194.7,-464 1194.7,-464 1198.37,-464 1202.04,-467.667 1202.04,-471.333 1202.04,-471.333 1202.04,-478.667 1202.04,-478.667 1202.04,-482.333 1198.37,-486 1194.7,-486"/>
<text text-anchor="middle" x="1170" y="-471.4" font-family="Helvetica,sans-Serif" font-size="12.00" fill="white">Equatable</text>
</a>
</g>
</g>
<!-- _Incrementable -->
<g id="node32" class="node">
<g id="a_node32"><a xlink:href="/v1.2/protocol/_Incrementable/" target="_top">
<path fill="#ee543d" stroke="#ee543d" d="M1208.71,-428C1208.71,-428 1131.29,-428 1131.29,-428 1127.63,-428 1123.96,-424.333 1123.96,-420.667 1123.96,-420.667 1123.96,-413.333 1123.96,-413.333 1123.96,-409.667 1127.63,-406 1131.29,-406 1131.29,-406 1208.71,-406 1208.71,-406 1212.37,-406 1216.04,-409.667 1216.04,-413.333 1216.04,-413.333 1216.04,-420.667 1216.04,-420.667 1216.04,-424.333 1212.37,-428 1208.71,-428"/>
<text text-anchor="middle" x="1170" y="-413.4" font-family="Helvetica,sans-Serif" font-size="12.00" fill="white">_Incrementable</text>
</a>
</g>
</g>
<!-- Equatable&#45;&gt;_Incrementable -->
<g id="edge40" class="edge">
<path fill="none" stroke="#cccccc" d="M1170,-463.988C1170,-456.91 1170,-447.171 1170,-438.478"/>
<polygon fill="#cccccc" stroke="#cccccc" points="1173.5,-438.304 1170,-428.304 1166.5,-438.304 1173.5,-438.304"/>
</g>
<!-- FilterCollectionViewIndex -->
<g id="node5" class="node">
<g id="a_node5"><a xlink:href="/v1.2/type/FilterCollectionViewIndex/hierarchy/" target="_top">
<polygon fill="#999999" stroke="#999999" points="405.887,-22 262.113,-22 262.113,-0 405.887,-0 405.887,-22"/>
<text text-anchor="middle" x="334" y="-7.4" font-family="Helvetica,sans-Serif" font-size="12.00" fill="white">FilterCollectionViewIndex</text>
</a>
</g>
</g>
<!-- ForwardIndexType -->
<g id="node6" class="node">
<g id="a_node6"><a xlink:href="/v1.2/protocol/ForwardIndexType/hierarchy/" target="_top">
<path fill="#999999" stroke="#999999" d="M440.206,-312C440.206,-312 345.794,-312 345.794,-312 342.127,-312 338.461,-308.333 338.461,-304.667 338.461,-304.667 338.461,-297.333 338.461,-297.333 338.461,-293.667 342.127,-290 345.794,-290 345.794,-290 440.206,-290 440.206,-290 443.873,-290 447.539,-293.667 447.539,-297.333 447.539,-297.333 447.539,-304.667 447.539,-304.667 447.539,-308.333 443.873,-312 440.206,-312"/>
<text text-anchor="middle" x="393" y="-297.4" font-family="Helvetica,sans-Serif" font-size="12.00" fill="white">ForwardIndexType</text>
</a>
</g>
</g>
<!-- ForwardIndexType&#45;&gt;BidirectionalIndexType -->
<g id="edge5" class="edge">
<path fill="none" stroke="#cccccc" d="M447.445,-291.977C513.106,-282.3 623.834,-265.982 697.663,-255.102"/>
<polygon fill="#cccccc" stroke="#cccccc" points="698.445,-258.525 707.828,-253.604 697.424,-251.6 698.445,-258.525"/>
</g>
<!-- ForwardIndexType&#45;&gt;DictionaryIndex -->
<g id="edge6" class="edge">
<path fill="none" stroke="#cccccc" d="M338.403,-292.081C280.408,-280.222 197,-251.739 197,-186 197,-186 197,-186 197,-126 197,-93.1536 197,-54.9837 197,-32.197"/>
<polygon fill="#cccccc" stroke="#cccccc" points="200.5,-32.0648 197,-22.0648 193.5,-32.0648 200.5,-32.0648"/>
</g>
<!-- ForwardIndexType&#45;&gt;FilterCollectionViewIndex -->
<g id="edge7" class="edge">
<path fill="none" stroke="#cccccc" d="M383.521,-289.916C366.843,-271.074 334,-228.565 334,-186 334,-186 334,-186 334,-126 334,-93.1536 334,-54.9837 334,-32.197"/>
<polygon fill="#cccccc" stroke="#cccccc" points="337.5,-32.0648 334,-22.0648 330.5,-32.0648 337.5,-32.0648"/>
</g>
<!-- SetIndex -->
<g id="node16" class="node">
<g id="a_node16"><a xlink:href="/v1.2/type/SetIndex/hierarchy/" target="_top">
<polygon fill="#999999" stroke="#999999" points="481.524,-22 424.476,-22 424.476,-0 481.524,-0 481.524,-22"/>
<text text-anchor="middle" x="453" y="-7.4" font-family="Helvetica,sans-Serif" font-size="12.00" fill="white">SetIndex</text>
</a>
</g>
</g>
<!-- ForwardIndexType&#45;&gt;SetIndex -->
<g id="edge8" class="edge">
<path fill="none" stroke="#cccccc" d="M402.64,-289.946C419.601,-271.152 453,-228.718 453,-186 453,-186 453,-186 453,-126 453,-93.1536 453,-54.9837 453,-32.197"/>
<polygon fill="#cccccc" stroke="#cccccc" points="456.5,-32.0648 453,-22.0648 449.5,-32.0648 456.5,-32.0648"/>
</g>
<!-- String.UTF8View.Index -->
<g id="node20" class="node">
<g id="a_node20"><a xlink:href="/v1.2/type/String.UTF8View.Index/hierarchy/" target="_top">
<polygon fill="#999999" stroke="#999999" points="131.887,-22 0.113387,-22 0.113387,-0 131.887,-0 131.887,-22"/>
<text text-anchor="middle" x="66" y="-7.4" font-family="Helvetica,sans-Serif" font-size="12.00" fill="white">String.UTF8View.Index</text>
</a>
</g>
</g>
<!-- ForwardIndexType&#45;&gt;String.UTF8View.Index -->
<g id="edge9" class="edge">
<path fill="none" stroke="#cccccc" d="M338.636,-292.508C245.652,-278.154 66,-243.041 66,-186 66,-186 66,-186 66,-126 66,-93.1536 66,-54.9837 66,-32.197"/>
<polygon fill="#cccccc" stroke="#cccccc" points="69.5001,-32.0648 66,-22.0648 62.5001,-32.0648 69.5001,-32.0648"/>
</g>
<!-- Int -->
<g id="node7" class="node">
<g id="a_node7"><a xlink:href="/v1.2/type/Int/hierarchy/" target="_top">
<polygon fill="#999999" stroke="#999999" points="1606,-22 1552,-22 1552,-0 1606,-0 1606,-22"/>
<text text-anchor="middle" x="1579" y="-7.4" font-family="Helvetica,sans-Serif" font-size="12.00" fill="white">Int</text>
</a>
</g>
</g>
<!-- Int&#45;&gt;Bit -->
<g id="edge26" class="edge">
<path fill="none" stroke="#cccccc" d="M1591.78,-22.0854C1600.28,-28.7029 1612.05,-36.4837 1624,-40 1681.56,-56.9403 1836.44,-56.9403 1894,-40 1902.4,-37.5276 1910.71,-32.9469 1917.86,-28.1447"/>
<polygon fill="#cccccc" stroke="#cccccc" points="1920.18,-30.7891 1926.22,-22.0854 1916.07,-25.122 1920.18,-30.7891"/>
</g>
<!-- Int16 -->
<g id="node8" class="node">
<g id="a_node8"><a xlink:href="/v1.2/type/Int16/hierarchy/" target="_top">
<polygon fill="#999999" stroke="#999999" points="1678,-22 1624,-22 1624,-0 1678,-0 1678,-22"/>
<text text-anchor="middle" x="1651" y="-7.4" font-family="Helvetica,sans-Serif" font-size="12.00" fill="white">Int16</text>
</a>
</g>
</g>
<!-- Int32 -->
<g id="node9" class="node">
<g id="a_node9"><a xlink:href="/v1.2/type/Int32/hierarchy/" target="_top">
<polygon fill="#999999" stroke="#999999" points="1750,-22 1696,-22 1696,-0 1750,-0 1750,-22"/>
<text text-anchor="middle" x="1723" y="-7.4" font-family="Helvetica,sans-Serif" font-size="12.00" fill="white">Int32</text>
</a>
</g>
</g>
<!-- Int64 -->
<g id="node10" class="node">
<g id="a_node10"><a xlink:href="/v1.2/type/Int64/hierarchy/" target="_top">
<polygon fill="#999999" stroke="#999999" points="1822,-22 1768,-22 1768,-0 1822,-0 1822,-22"/>
<text text-anchor="middle" x="1795" y="-7.4" font-family="Helvetica,sans-Serif" font-size="12.00" fill="white">Int64</text>
</a>
</g>
</g>
<!-- Int8 -->
<g id="node11" class="node">
<g id="a_node11"><a xlink:href="/v1.2/type/Int8/hierarchy/" target="_top">
<polygon fill="#999999" stroke="#999999" points="1894,-22 1840,-22 1840,-0 1894,-0 1894,-22"/>
<text text-anchor="middle" x="1867" y="-7.4" font-family="Helvetica,sans-Serif" font-size="12.00" fill="white">Int8</text>
</a>
</g>
</g>
<!-- IntegerType -->
<g id="node12" class="node">
<g id="a_node12"><a xlink:href="/v1.2/protocol/IntegerType/hierarchy/" target="_top">
<path fill="#999999" stroke="#999999" d="M1696.2,-138C1696.2,-138 1637.8,-138 1637.8,-138 1634.13,-138 1630.47,-134.333 1630.47,-130.667 1630.47,-130.667 1630.47,-123.333 1630.47,-123.333 1630.47,-119.667 1634.13,-116 1637.8,-116 1637.8,-116 1696.2,-116 1696.2,-116 1699.87,-116 1703.53,-119.667 1703.53,-123.333 1703.53,-123.333 1703.53,-130.667 1703.53,-130.667 1703.53,-134.333 1699.87,-138 1696.2,-138"/>
<text text-anchor="middle" x="1667" y="-123.4" font-family="Helvetica,sans-Serif" font-size="12.00" fill="white">IntegerType</text>
</a>
</g>
</g>
<!-- SignedIntegerType -->
<g id="node17" class="node">
<g id="a_node17"><a xlink:href="/v1.2/protocol/SignedIntegerType/hierarchy/" target="_top">
<path fill="#999999" stroke="#999999" d="M1770.73,-80C1770.73,-80 1675.27,-80 1675.27,-80 1671.61,-80 1667.94,-76.3333 1667.94,-72.6667 1667.94,-72.6667 1667.94,-65.3333 1667.94,-65.3333 1667.94,-61.6667 1671.61,-58 1675.27,-58 1675.27,-58 1770.73,-58 1770.73,-58 1774.39,-58 1778.06,-61.6667 1778.06,-65.3333 1778.06,-65.3333 1778.06,-72.6667 1778.06,-72.6667 1778.06,-76.3333 1774.39,-80 1770.73,-80"/>
<text text-anchor="middle" x="1723" y="-65.4" font-family="Helvetica,sans-Serif" font-size="12.00" fill="white">SignedIntegerType</text>
</a>
</g>
</g>
<!-- IntegerType&#45;&gt;SignedIntegerType -->
<g id="edge19" class="edge">
<path fill="none" stroke="#cccccc" d="M1677.01,-115.988C1684.88,-108.123 1696.03,-96.9745 1705.38,-87.6239"/>
<polygon fill="#cccccc" stroke="#cccccc" points="1708.1,-89.8499 1712.7,-80.3039 1703.15,-84.9001 1708.1,-89.8499"/>
</g>
<!-- UnsignedIntegerType -->
<g id="node29" class="node">
<g id="a_node29"><a xlink:href="/v1.2/protocol/UnsignedIntegerType/hierarchy/" target="_top">
<path fill="#999999" stroke="#999999" d="M2137.73,-80C2137.73,-80 2028.27,-80 2028.27,-80 2024.61,-80 2020.94,-76.3333 2020.94,-72.6667 2020.94,-72.6667 2020.94,-65.3333 2020.94,-65.3333 2020.94,-61.6667 2024.61,-58 2028.27,-58 2028.27,-58 2137.73,-58 2137.73,-58 2141.39,-58 2145.06,-61.6667 2145.06,-65.3333 2145.06,-65.3333 2145.06,-72.6667 2145.06,-72.6667 2145.06,-76.3333 2141.39,-80 2137.73,-80"/>
<text text-anchor="middle" x="2083" y="-65.4" font-family="Helvetica,sans-Serif" font-size="12.00" fill="white">UnsignedIntegerType</text>
</a>
</g>
</g>
<!-- IntegerType&#45;&gt;UnsignedIntegerType -->
<g id="edge20" class="edge">
<path fill="none" stroke="#cccccc" d="M1703.78,-117.527C1706.56,-116.98 1709.32,-116.463 1712,-116 1815.08,-98.1983 1935.41,-84.579 2010.42,-76.9317"/>
<polygon fill="#cccccc" stroke="#cccccc" points="2011.1,-80.3809 2020.7,-75.8924 2010.4,-73.4164 2011.1,-80.3809"/>
</g>
<!-- RandomAccessIndexType&#45;&gt;IntegerType -->
<g id="edge14" class="edge">
<path fill="none" stroke="#cccccc" d="M1221.5,-175.977C1330.37,-164.253 1529.76,-142.779 1620.2,-133.041"/>
<polygon fill="#cccccc" stroke="#cccccc" points="1620.84,-136.491 1630.41,-131.94 1620.09,-129.531 1620.84,-136.491"/>
</g>
<!-- ReverseRandomAccessIndex -->
<g id="node15" class="node">
<g id="a_node15"><a xlink:href="/v1.2/type/ReverseRandomAccessIndex/hierarchy/" target="_top">
<polygon fill="#999999" stroke="#999999" points="1376.06,-22 1207.94,-22 1207.94,-0 1376.06,-0 1376.06,-22"/>
<text text-anchor="middle" x="1292" y="-7.4" font-family="Helvetica,sans-Serif" font-size="12.00" fill="white">ReverseRandomAccessIndex</text>
</a>
</g>
</g>
<!-- RandomAccessIndexType&#45;&gt;ReverseRandomAccessIndex -->
<g id="edge15" class="edge">
<path fill="none" stroke="#cccccc" d="M1155.64,-173.756C1179.46,-145.501 1246.32,-66.1852 1276.67,-30.183"/>
<polygon fill="#cccccc" stroke="#cccccc" points="1279.46,-32.3097 1283.23,-22.4081 1274.1,-27.7978 1279.46,-32.3097"/>
</g>
<!-- String.UTF16View.Index -->
<g id="node19" class="node">
<g id="a_node19"><a xlink:href="/v1.2/type/String.UTF16View.Index/hierarchy/" target="_top">
<polygon fill="#999999" stroke="#999999" points="1533.39,-22 1394.61,-22 1394.61,-0 1533.39,-0 1533.39,-22"/>
<text text-anchor="middle" x="1464" y="-7.4" font-family="Helvetica,sans-Serif" font-size="12.00" fill="white">String.UTF16View.Index</text>
</a>
</g>
</g>
<!-- RandomAccessIndexType&#45;&gt;String.UTF16View.Index -->
<g id="edge18" class="edge">
<path fill="none" stroke="#cccccc" d="M1165.88,-173.756C1219.51,-144.658 1372.95,-61.4027 1436.21,-27.0763"/>
<polygon fill="#cccccc" stroke="#cccccc" points="1438.1,-30.0361 1445.22,-22.1906 1434.76,-23.8834 1438.1,-30.0361"/>
</g>
<!-- UnsafeMutablePointer -->
<g id="node27" class="node">
<g id="a_node27"><a xlink:href="/v1.2/type/UnsafeMutablePointer/hierarchy/" target="_top">
<polygon fill="#999999" stroke="#999999" points="1086.05,-22 957.949,-22 957.949,-0 1086.05,-0 1086.05,-22"/>
<text text-anchor="middle" x="1022" y="-7.4" font-family="Helvetica,sans-Serif" font-size="12.00" fill="white">UnsafeMutablePointer</text>
</a>
</g>
</g>
<!-- RandomAccessIndexType&#45;&gt;UnsafeMutablePointer -->
<g id="edge16" class="edge">
<path fill="none" stroke="#cccccc" d="M1139.56,-173.756C1119.11,-145.621 1061.86,-66.8536 1035.55,-30.6411"/>
<polygon fill="#cccccc" stroke="#cccccc" points="1038.27,-28.4399 1029.56,-22.4081 1032.61,-32.5551 1038.27,-28.4399"/>
</g>
<!-- UnsafePointer -->
<g id="node28" class="node">
<g id="a_node28"><a xlink:href="/v1.2/type/UnsafePointer/hierarchy/" target="_top">
<polygon fill="#999999" stroke="#999999" points="1190.03,-22 1103.97,-22 1103.97,-0 1190.03,-0 1190.03,-22"/>
<text text-anchor="middle" x="1147" y="-7.4" font-family="Helvetica,sans-Serif" font-size="12.00" fill="white">UnsafePointer</text>
</a>
</g>
</g>
<!-- RandomAccessIndexType&#45;&gt;UnsafePointer -->
<g id="edge17" class="edge">
<path fill="none" stroke="#cccccc" d="M1147,-173.756C1147,-146.097 1147,-69.5091 1147,-32.5186"/>
<polygon fill="#cccccc" stroke="#cccccc" points="1150.5,-32.408 1147,-22.4081 1143.5,-32.4081 1150.5,-32.408"/>
</g>
<!-- SignedIntegerType&#45;&gt;Int -->
<g id="edge21" class="edge">
<path fill="none" stroke="#cccccc" d="M1697.26,-57.9883C1674.16,-49.0057 1640.05,-35.7398 1614.39,-25.7614"/>
<polygon fill="#cccccc" stroke="#cccccc" points="1615.6,-22.4763 1605.01,-22.1138 1613.06,-29.0004 1615.6,-22.4763"/>
</g>
<!-- SignedIntegerType&#45;&gt;Int16 -->
<g id="edge22" class="edge">
<path fill="none" stroke="#cccccc" d="M1710.13,-57.9883C1699.61,-49.8087 1684.53,-38.0773 1672.23,-28.5108"/>
<polygon fill="#cccccc" stroke="#cccccc" points="1674.29,-25.6806 1664.25,-22.3039 1669.99,-31.2061 1674.29,-25.6806"/>
</g>
<!-- SignedIntegerType&#45;&gt;Int32 -->
<g id="edge23" class="edge">
<path fill="none" stroke="#cccccc" d="M1723,-57.9883C1723,-50.9098 1723,-41.1714 1723,-32.4779"/>
<polygon fill="#cccccc" stroke="#cccccc" points="1726.5,-32.3038 1723,-22.3039 1719.5,-32.3039 1726.5,-32.3038"/>
</g>
<!-- SignedIntegerType&#45;&gt;Int64 -->
<g id="edge24" class="edge">
<path fill="none" stroke="#cccccc" d="M1735.87,-57.9883C1746.39,-49.8087 1761.47,-38.0773 1773.77,-28.5108"/>
<polygon fill="#cccccc" stroke="#cccccc" points="1776.01,-31.2061 1781.75,-22.3039 1771.71,-25.6806 1776.01,-31.2061"/>
</g>
<!-- SignedIntegerType&#45;&gt;Int8 -->
<g id="edge25" class="edge">
<path fill="none" stroke="#cccccc" d="M1748.74,-57.9883C1771.84,-49.0057 1805.95,-35.7398 1831.61,-25.7614"/>
<polygon fill="#cccccc" stroke="#cccccc" points="1832.94,-29.0004 1840.99,-22.1138 1830.4,-22.4763 1832.94,-29.0004"/>
</g>
<!-- UInt -->
<g id="node22" class="node">
<g id="a_node22"><a xlink:href="/v1.2/type/UInt/hierarchy/" target="_top">
<polygon fill="#999999" stroke="#999999" points="2254,-22 2200,-22 2200,-0 2254,-0 2254,-22"/>
<text text-anchor="middle" x="2227" y="-7.4" font-family="Helvetica,sans-Serif" font-size="12.00" fill="white">UInt</text>
</a>
</g>
</g>
<!-- UInt16 -->
<g id="node23" class="node">
<g id="a_node23"><a xlink:href="/v1.2/type/UInt16/hierarchy/" target="_top">
<polygon fill="#999999" stroke="#999999" points="2326,-22 2272,-22 2272,-0 2326,-0 2326,-22"/>
<text text-anchor="middle" x="2299" y="-7.4" font-family="Helvetica,sans-Serif" font-size="12.00" fill="white">UInt16</text>
</a>
</g>
</g>
<!-- UInt32 -->
<g id="node24" class="node">
<g id="a_node24"><a xlink:href="/v1.2/type/UInt32/hierarchy/" target="_top">
<polygon fill="#999999" stroke="#999999" points="2038,-22 1984,-22 1984,-0 2038,-0 2038,-22"/>
<text text-anchor="middle" x="2011" y="-7.4" font-family="Helvetica,sans-Serif" font-size="12.00" fill="white">UInt32</text>
</a>
</g>
</g>
<!-- UInt64 -->
<g id="node25" class="node">
<g id="a_node25"><a xlink:href="/v1.2/type/UInt64/hierarchy/" target="_top">
<polygon fill="#999999" stroke="#999999" points="2110,-22 2056,-22 2056,-0 2110,-0 2110,-22"/>
<text text-anchor="middle" x="2083" y="-7.4" font-family="Helvetica,sans-Serif" font-size="12.00" fill="white">UInt64</text>
</a>
</g>
</g>
<!-- UInt8 -->
<g id="node26" class="node">
<g id="a_node26"><a xlink:href="/v1.2/type/UInt8/hierarchy/" target="_top">
<polygon fill="#999999" stroke="#999999" points="2182,-22 2128,-22 2128,-0 2182,-0 2182,-22"/>
<text text-anchor="middle" x="2155" y="-7.4" font-family="Helvetica,sans-Serif" font-size="12.00" fill="white">UInt8</text>
</a>
</g>
</g>
<!-- UnsignedIntegerType&#45;&gt;UInt -->
<g id="edge27" class="edge">
<path fill="none" stroke="#cccccc" d="M2108.74,-57.9883C2131.84,-49.0057 2165.95,-35.7398 2191.61,-25.7614"/>
<polygon fill="#cccccc" stroke="#cccccc" points="2192.94,-29.0004 2200.99,-22.1138 2190.4,-22.4763 2192.94,-29.0004"/>
</g>
<!-- UnsignedIntegerType&#45;&gt;UInt16 -->
<g id="edge28" class="edge">
<path fill="none" stroke="#cccccc" d="M2123.45,-57.9168C2157.84,-49.2898 2208.76,-36.3793 2261.94,-22.2477"/>
<polygon fill="#cccccc" stroke="#cccccc" points="2263.13,-25.5525 2271.89,-19.5955 2261.33,-18.7885 2263.13,-25.5525"/>
</g>
<!-- UnsignedIntegerType&#45;&gt;UInt32 -->
<g id="edge29" class="edge">
<path fill="none" stroke="#cccccc" d="M2070.13,-57.9883C2059.61,-49.8087 2044.53,-38.0773 2032.23,-28.5108"/>
<polygon fill="#cccccc" stroke="#cccccc" points="2034.29,-25.6806 2024.25,-22.3039 2029.99,-31.2061 2034.29,-25.6806"/>
</g>
<!-- UnsignedIntegerType&#45;&gt;UInt64 -->
<g id="edge30" class="edge">
<path fill="none" stroke="#cccccc" d="M2083,-57.9883C2083,-50.9098 2083,-41.1714 2083,-32.4779"/>
<polygon fill="#cccccc" stroke="#cccccc" points="2086.5,-32.3038 2083,-22.3039 2079.5,-32.3039 2086.5,-32.3038"/>
</g>
<!-- UnsignedIntegerType&#45;&gt;UInt8 -->
<g id="edge31" class="edge">
<path fill="none" stroke="#cccccc" d="M2095.87,-57.9883C2106.39,-49.8087 2121.47,-38.0773 2133.77,-28.5108"/>
<polygon fill="#cccccc" stroke="#cccccc" points="2136.01,-31.2061 2141.75,-22.3039 2131.71,-25.6806 2136.01,-31.2061"/>
</g>
<!-- _BidirectionalIndexType -->
<g id="node30" class="node">
<g id="a_node30"><a xlink:href="/v1.2/protocol/_BidirectionalIndexType/hierarchy/" target="_top">
<path fill="#999999" stroke="#999999" d="M968.23,-312C968.23,-312 845.77,-312 845.77,-312 842.104,-312 838.437,-308.333 838.437,-304.667 838.437,-304.667 838.437,-297.333 838.437,-297.333 838.437,-293.667 842.104,-290 845.77,-290 845.77,-290 968.23,-290 968.23,-290 971.896,-290 975.563,-293.667 975.563,-297.333 975.563,-297.333 975.563,-304.667 975.563,-304.667 975.563,-308.333 971.896,-312 968.23,-312"/>
<text text-anchor="middle" x="907" y="-297.4" font-family="Helvetica,sans-Serif" font-size="12.00" fill="white">_BidirectionalIndexType</text>
</a>
</g>
</g>
<!-- _BidirectionalIndexType&#45;&gt;BidirectionalIndexType -->
<g id="edge32" class="edge">
<path fill="none" stroke="#cccccc" d="M883.043,-289.988C861.739,-281.085 830.365,-267.973 806.562,-258.026"/>
<polygon fill="#cccccc" stroke="#cccccc" points="807.777,-254.74 797.201,-254.114 805.078,-261.199 807.777,-254.74"/>
</g>
<!-- _RandomAccessIndexType -->
<g id="node34" class="node">
<g id="a_node34"><a xlink:href="/v1.2/protocol/_RandomAccessIndexType/hierarchy/" target="_top">
<path fill="#999999" stroke="#999999" d="M1110.73,-254C1110.73,-254 969.269,-254 969.269,-254 965.602,-254 961.936,-250.333 961.936,-246.667 961.936,-246.667 961.936,-239.333 961.936,-239.333 961.936,-235.667 965.602,-232 969.269,-232 969.269,-232 1110.73,-232 1110.73,-232 1114.4,-232 1118.06,-235.667 1118.06,-239.333 1118.06,-239.333 1118.06,-246.667 1118.06,-246.667 1118.06,-250.333 1114.4,-254 1110.73,-254"/>
<text text-anchor="middle" x="1040" y="-239.4" font-family="Helvetica,sans-Serif" font-size="12.00" fill="white">_RandomAccessIndexType</text>
</a>
</g>
</g>
<!-- _BidirectionalIndexType&#45;&gt;_RandomAccessIndexType -->
<g id="edge33" class="edge">
<path fill="none" stroke="#cccccc" d="M930.778,-289.988C951.923,-281.085 983.064,-267.973 1006.69,-258.026"/>
<polygon fill="#cccccc" stroke="#cccccc" points="1008.12,-261.22 1015.98,-254.114 1005.41,-254.769 1008.12,-261.22"/>
</g>
<!-- _ForwardIndexType -->
<g id="node31" class="node">
<g id="a_node31"><a xlink:href="/v1.2/protocol/_ForwardIndexType/hierarchy/" target="_top">
<path fill="#999999" stroke="#999999" d="M957.712,-370C957.712,-370 856.288,-370 856.288,-370 852.621,-370 848.955,-366.333 848.955,-362.667 848.955,-362.667 848.955,-355.333 848.955,-355.333 848.955,-351.667 852.621,-348 856.288,-348 856.288,-348 957.712,-348 957.712,-348 961.379,-348 965.045,-351.667 965.045,-355.333 965.045,-355.333 965.045,-362.667 965.045,-362.667 965.045,-366.333 961.379,-370 957.712,-370"/>
<text text-anchor="middle" x="907" y="-355.4" font-family="Helvetica,sans-Serif" font-size="12.00" fill="white">_ForwardIndexType</text>
</a>
</g>
</g>
<!-- _ForwardIndexType&#45;&gt;ForwardIndexType -->
<g id="edge3" class="edge">
<path fill="none" stroke="#cccccc" d="M848.538,-351.631C751.617,-341.071 558.373,-320.017 457.567,-309.035"/>
<polygon fill="#cccccc" stroke="#cccccc" points="457.836,-305.543 447.516,-307.939 457.078,-312.502 457.836,-305.543"/>
</g>
<!-- _ForwardIndexType&#45;&gt;_BidirectionalIndexType -->
<g id="edge4" class="edge">
<path fill="none" stroke="#cccccc" d="M907,-347.988C907,-340.91 907,-331.171 907,-322.478"/>
<polygon fill="#cccccc" stroke="#cccccc" points="910.5,-322.304 907,-312.304 903.5,-322.304 910.5,-322.304"/>
</g>
<!-- _Incrementable&#45;&gt;_ForwardIndexType -->
<g id="edge1" class="edge">
<path fill="none" stroke="#cccccc" d="M1123.89,-406.181C1079.46,-396.722 1012.13,-382.386 964.29,-372.199"/>
<polygon fill="#cccccc" stroke="#cccccc" points="964.901,-368.75 954.391,-370.091 963.443,-375.597 964.901,-368.75"/>
</g>
<!-- _IntegerType -->
<g id="node33" class="node">
<g id="a_node33"><a xlink:href="/v1.2/protocol/_IntegerType/hierarchy/" target="_top">
<path fill="#999999" stroke="#999999" d="M1755.71,-196C1755.71,-196 1690.29,-196 1690.29,-196 1686.63,-196 1682.96,-192.333 1682.96,-188.667 1682.96,-188.667 1682.96,-181.333 1682.96,-181.333 1682.96,-177.667 1686.63,-174 1690.29,-174 1690.29,-174 1755.71,-174 1755.71,-174 1759.37,-174 1763.04,-177.667 1763.04,-181.333 1763.04,-181.333 1763.04,-188.667 1763.04,-188.667 1763.04,-192.333 1759.37,-196 1755.71,-196"/>
<text text-anchor="middle" x="1723" y="-181.4" font-family="Helvetica,sans-Serif" font-size="12.00" fill="white">_IntegerType</text>
</a>
</g>
</g>
<!-- _Incrementable&#45;&gt;_IntegerType -->
<g id="edge2" class="edge">
<path fill="none" stroke="#cccccc" d="M1194.12,-405.969C1282.24,-369.319 1586.95,-242.583 1689.23,-200.046"/>
<polygon fill="#cccccc" stroke="#cccccc" points="1690.87,-203.155 1698.76,-196.084 1688.18,-196.692 1690.87,-203.155"/>
</g>
<!-- _IntegerType&#45;&gt;IntegerType -->
<g id="edge35" class="edge">
<path fill="none" stroke="#cccccc" d="M1712.99,-173.988C1705.12,-166.123 1693.97,-154.974 1684.62,-145.624"/>
<polygon fill="#cccccc" stroke="#cccccc" points="1686.85,-142.9 1677.3,-138.304 1681.9,-147.85 1686.85,-142.9"/>
</g>
<!-- _SignedIntegerType -->
<g id="node35" class="node">
<g id="a_node35"><a xlink:href="/v1.2/protocol/_SignedIntegerType/hierarchy/" target="_top">
<path fill="#999999" stroke="#999999" d="M1831.23,-138C1831.23,-138 1728.77,-138 1728.77,-138 1725.1,-138 1721.44,-134.333 1721.44,-130.667 1721.44,-130.667 1721.44,-123.333 1721.44,-123.333 1721.44,-119.667 1725.1,-116 1728.77,-116 1728.77,-116 1831.23,-116 1831.23,-116 1834.9,-116 1838.56,-119.667 1838.56,-123.333 1838.56,-123.333 1838.56,-130.667 1838.56,-130.667 1838.56,-134.333 1834.9,-138 1831.23,-138"/>
<text text-anchor="middle" x="1780" y="-123.4" font-family="Helvetica,sans-Serif" font-size="12.00" fill="white">_SignedIntegerType</text>
</a>
</g>
</g>
<!-- _IntegerType&#45;&gt;_SignedIntegerType -->
<g id="edge36" class="edge">
<path fill="none" stroke="#cccccc" d="M1733.19,-173.988C1741.28,-166.045 1752.77,-154.751 1762.35,-145.344"/>
<polygon fill="#cccccc" stroke="#cccccc" points="1764.83,-147.809 1769.51,-138.304 1759.93,-142.815 1764.83,-147.809"/>
</g>
<!-- _UnsignedIntegerType -->
<g id="node36" class="node">
<g id="a_node36"><a xlink:href="/v1.2/protocol/_UnsignedIntegerType/hierarchy/" target="_top">
<path fill="#999999" stroke="#999999" d="M2059.73,-138C2059.73,-138 1944.27,-138 1944.27,-138 1940.6,-138 1936.93,-134.333 1936.93,-130.667 1936.93,-130.667 1936.93,-123.333 1936.93,-123.333 1936.93,-119.667 1940.6,-116 1944.27,-116 1944.27,-116 2059.73,-116 2059.73,-116 2063.4,-116 2067.07,-119.667 2067.07,-123.333 2067.07,-123.333 2067.07,-130.667 2067.07,-130.667 2067.07,-134.333 2063.4,-138 2059.73,-138"/>
<text text-anchor="middle" x="2002" y="-123.4" font-family="Helvetica,sans-Serif" font-size="12.00" fill="white">_UnsignedIntegerType</text>
</a>
</g>
</g>
<!-- _IntegerType&#45;&gt;_UnsignedIntegerType -->
<g id="edge37" class="edge">
<path fill="none" stroke="#cccccc" d="M1763.27,-175.917C1810.05,-166.527 1887.71,-150.94 1941.7,-140.104"/>
<polygon fill="#cccccc" stroke="#cccccc" points="1942.71,-143.47 1951.83,-138.071 1941.33,-136.607 1942.71,-143.47"/>
</g>
<!-- _RandomAccessIndexType&#45;&gt;RandomAccessIndexType -->
<g id="edge34" class="edge">
<path fill="none" stroke="#cccccc" d="M1059.13,-231.988C1075.69,-223.322 1099.86,-210.67 1118.67,-200.828"/>
<polygon fill="#cccccc" stroke="#cccccc" points="1120.44,-203.852 1127.68,-196.114 1117.19,-197.65 1120.44,-203.852"/>
</g>
<!-- _SignedIntegerType&#45;&gt;SignedIntegerType -->
<g id="edge38" class="edge">
<path fill="none" stroke="#cccccc" d="M1769.81,-115.988C1761.72,-108.045 1750.23,-96.7512 1740.65,-87.3439"/>
<polygon fill="#cccccc" stroke="#cccccc" points="1743.07,-84.8154 1733.49,-80.3039 1738.17,-89.8088 1743.07,-84.8154"/>
</g>
<!-- _UnsignedIntegerType&#45;&gt;UnsignedIntegerType -->
<g id="edge39" class="edge">
<path fill="none" stroke="#cccccc" d="M2016.48,-115.988C2028.5,-107.678 2045.82,-95.7028 2059.78,-86.0554"/>
<polygon fill="#cccccc" stroke="#cccccc" points="2062.14,-88.6796 2068.37,-80.1138 2058.16,-82.9217 2062.14,-88.6796"/>
</g>
</g>
</svg>
