<?xml version="1.0" encoding="UTF-8" standalone="no"?>
<!DOCTYPE svg PUBLIC "-//W3C//DTD SVG 1.1//EN"
 "http://www.w3.org/Graphics/SVG/1.1/DTD/svg11.dtd">
<!-- Generated by graphviz version 2.36.0 (20140111.2315)
 -->
<!-- Title: Int8 &#45; Type Hierarchy &#45; SwiftDoc.org Pages: 1 -->
<svg width="1374pt" height="543pt"
 viewBox="0.00 0.00 1374.40 543.20" xmlns="http://www.w3.org/2000/svg" xmlns:xlink="http://www.w3.org/1999/xlink">
<g id="graph0" class="graph" transform="scale(1 1) rotate(0) translate(7.2 485.6)">
<g transform="translate(0 -485.6)">
<g>
    <path fill="#666666" d="M13.846,10.832c-0.336-0.464-0.792-0.844-1.368-1.14s-1.224-0.444-1.944-0.444
        c-0.384,0-0.772,0.052-1.164,0.156C8.977,9.509,8.622,9.677,8.301,9.908c-0.32,0.232-0.58,0.52-0.78,0.864
        c-0.2,0.344-0.3,0.756-0.3,1.236c0,0.464,0.092,0.852,0.276,1.164c0.184,0.312,0.432,0.576,0.744,0.792s0.68,0.4,1.104,0.552
        c0.423,0.152,0.876,0.309,1.356,0.468c0.576,0.177,1.16,0.376,1.752,0.601c0.592,0.224,1.128,0.52,1.608,0.888
        s0.872,0.828,1.176,1.38s0.456,1.252,0.456,2.101c0,0.88-0.164,1.644-0.492,2.292c-0.328,0.647-0.765,1.184-1.308,1.607
        c-0.544,0.424-1.172,0.74-1.884,0.948s-1.444,0.312-2.196,0.312c-1.072,0-2.108-0.208-3.108-0.624
        c-1-0.415-1.828-1.031-2.484-1.848l1.848-1.56c0.4,0.592,0.936,1.071,1.608,1.439c0.672,0.368,1.399,0.552,2.184,0.552
        c0.4,0,0.8-0.056,1.2-0.168c0.4-0.111,0.764-0.288,1.092-0.527c0.328-0.24,0.596-0.54,0.804-0.9
        c0.208-0.36,0.312-0.796,0.312-1.308s-0.108-0.94-0.324-1.284c-0.216-0.344-0.508-0.636-0.876-0.876s-0.796-0.444-1.284-0.612
        c-0.488-0.168-1.004-0.34-1.548-0.516c-0.544-0.16-1.08-0.356-1.608-0.588c-0.528-0.232-1-0.528-1.416-0.889
        c-0.416-0.359-0.752-0.804-1.008-1.332c-0.256-0.527-0.384-1.184-0.384-1.968c0-0.848,0.172-1.576,0.516-2.184
        c0.344-0.608,0.792-1.112,1.344-1.512c0.552-0.4,1.176-0.692,1.872-0.876c0.696-0.184,1.396-0.276,2.1-0.276
        c0.992,0,1.92,0.176,2.784,0.528c0.864,0.352,1.56,0.824,2.088,1.416L13.846,10.832z"/>
    <path fill="#666666" d="M18.813,13.304l2.568,8.688h0.048l2.712-8.688h2.376l2.76,8.688h0.048l2.568-8.688h2.376L30.501,24.68
        h-2.352l-2.808-8.544h-0.048l-2.784,8.544h-2.352l-3.792-11.376H18.813z"/>
    <path fill="#666666" d="M38.685,9.2c0,0.416-0.147,0.76-0.44,1.032c-0.294,0.272-0.647,0.408-1.06,0.408s-0.762-0.14-1.047-0.42
        c-0.286-0.28-0.429-0.62-0.429-1.02c0-0.416,0.143-0.764,0.429-1.044c0.286-0.28,0.635-0.42,1.047-0.42s0.766,0.14,1.06,0.42
        C38.538,8.437,38.685,8.784,38.685,9.2z M38.325,24.68h-2.256V13.304h2.256V24.68z"/>
    <path fill="#666666" d="M47.613,15.152h-2.64v9.528h-2.256v-9.528h-2.256v-1.848h2.256v-2.376c0-0.672,0.076-1.292,0.228-1.86
        c0.152-0.568,0.4-1.06,0.744-1.476c0.344-0.416,0.784-0.744,1.32-0.984c0.536-0.24,1.188-0.36,1.956-0.36
        c0.544,0,1.016,0.056,1.416,0.168l-0.264,1.944c-0.176-0.048-0.352-0.088-0.528-0.12c-0.176-0.032-0.376-0.048-0.6-0.048
        c-0.432,0-0.78,0.076-1.044,0.228c-0.264,0.152-0.468,0.356-0.612,0.612s-0.24,0.548-0.288,0.876
        c-0.048,0.328-0.072,0.668-0.072,1.02v2.376h2.64V15.152z"/>
    <path fill="#666666" d="M54.909,15.152h-3.024v5.91c0,0.687,0.128,1.177,0.384,1.472c0.256,0.295,0.664,0.442,1.224,0.442
        c0.208,0,0.432-0.021,0.672-0.065c0.24-0.044,0.456-0.11,0.648-0.198l0.072,1.848c-0.272,0.096-0.572,0.172-0.9,0.229
        c-0.328,0.056-0.668,0.084-1.02,0.084c-1.072,0-1.892-0.296-2.46-0.889c-0.568-0.592-0.852-1.479-0.852-2.664v-6.168h-2.184
        v-1.848h2.184V10.04h2.232v3.264h3.024V15.152z"/>
    <path fill="#666666" d="M57.356,7.688h5.832c1.088,0,2.176,0.16,3.264,0.48c1.088,0.32,2.072,0.824,2.952,1.512
        s1.592,1.568,2.136,2.64c0.544,1.072,0.816,2.36,0.816,3.864c0,1.456-0.272,2.716-0.816,3.78s-1.256,1.943-2.136,2.64
        s-1.864,1.216-2.952,1.561c-1.088,0.344-2.176,0.516-3.264,0.516h-5.832V7.688z M59.732,22.593h2.976
        c1.024,0,1.972-0.145,2.844-0.432c0.872-0.288,1.624-0.704,2.256-1.248c0.632-0.544,1.124-1.216,1.476-2.017
        c0.352-0.8,0.528-1.704,0.528-2.712c0-1.056-0.176-1.983-0.528-2.784c-0.353-0.8-0.844-1.468-1.476-2.004
        c-0.632-0.536-1.384-0.944-2.256-1.224s-1.82-0.42-2.844-0.42h-2.976V22.593z"/>
    <path fill="#666666" d="M86.06,18.969c0,0.88-0.156,1.688-0.468,2.424c-0.312,0.736-0.744,1.372-1.296,1.908
        c-0.552,0.536-1.204,0.952-1.956,1.248c-0.752,0.296-1.56,0.443-2.424,0.443c-0.864,0-1.672-0.147-2.424-0.443
        c-0.752-0.296-1.4-0.712-1.944-1.248c-0.544-0.536-0.972-1.172-1.284-1.908c-0.312-0.735-0.468-1.544-0.468-2.424
        s0.156-1.684,0.468-2.412c0.312-0.728,0.74-1.356,1.284-1.884c0.543-0.528,1.191-0.939,1.944-1.236
        c0.752-0.296,1.56-0.444,2.424-0.444c0.864,0,1.672,0.148,2.424,0.444c0.752,0.297,1.404,0.708,1.956,1.236
        c0.552,0.527,0.984,1.156,1.296,1.884C85.904,17.285,86.06,18.089,86.06,18.969z M83.708,18.98c0-0.542-0.084-1.061-0.252-1.556
        c-0.169-0.494-0.414-0.929-0.734-1.304s-0.718-0.674-1.192-0.897s-1.015-0.335-1.625-0.335c-0.61,0-1.152,0.111-1.625,0.335
        c-0.474,0.224-0.871,0.522-1.191,0.897c-0.321,0.375-0.566,0.81-0.734,1.304C76.184,17.92,76.1,18.438,76.1,18.98
        c0,0.543,0.084,1.062,0.253,1.556c0.168,0.495,0.413,0.934,0.734,1.316c0.321,0.383,0.718,0.686,1.191,0.909
        c0.473,0.224,1.015,0.335,1.625,0.335c0.61,0,1.151-0.111,1.625-0.335s0.871-0.526,1.192-0.909s0.565-0.821,0.734-1.316
        C83.624,20.042,83.708,19.523,83.708,18.98z"/>
    <path fill="#666666" d="M96.428,16.184c-0.24-0.368-0.6-0.676-1.08-0.924s-0.992-0.372-1.536-0.372
        c-0.592,0-1.116,0.112-1.572,0.336c-0.456,0.225-0.844,0.524-1.164,0.9c-0.32,0.376-0.564,0.812-0.732,1.308
        s-0.252,1.017-0.252,1.56c0,0.545,0.084,1.064,0.252,1.561s0.412,0.933,0.732,1.308c0.32,0.376,0.712,0.677,1.176,0.9
        c0.464,0.225,0.992,0.336,1.584,0.336c0.576,0,1.1-0.111,1.572-0.336c0.472-0.224,0.86-0.528,1.164-0.912l1.512,1.368
        c-0.48,0.561-1.08,0.996-1.8,1.308c-0.72,0.312-1.536,0.468-2.448,0.468c-0.88,0-1.692-0.144-2.436-0.432
        c-0.744-0.288-1.388-0.691-1.932-1.212c-0.544-0.52-0.972-1.147-1.284-1.884s-0.468-1.561-0.468-2.473
        c0-0.896,0.152-1.711,0.456-2.447c0.304-0.736,0.728-1.368,1.272-1.896c0.543-0.527,1.188-0.936,1.932-1.224
        c0.744-0.288,1.548-0.433,2.412-0.433c0.8,0,1.596,0.16,2.388,0.48s1.419,0.784,1.884,1.392L96.428,16.184z"/>
    <path fill="#666666" d="M103.1,23.24c0,0.417-0.152,0.784-0.456,1.104c-0.304,0.32-0.688,0.479-1.152,0.479
        c-0.448,0-0.828-0.155-1.14-0.468c-0.312-0.312-0.468-0.676-0.468-1.092c0-0.432,0.152-0.804,0.456-1.116
        c0.304-0.312,0.688-0.468,1.152-0.468c0.464,0,0.848,0.152,1.152,0.456C102.947,22.44,103.1,22.808,103.1,23.24z"/>
    <path fill="#666666" d="M116.635,18.969c0,0.88-0.156,1.688-0.468,2.424c-0.312,0.736-0.744,1.372-1.296,1.908
        c-0.552,0.536-1.204,0.952-1.956,1.248c-0.752,0.296-1.56,0.443-2.424,0.443c-0.864,0-1.672-0.147-2.424-0.443
        c-0.752-0.296-1.4-0.712-1.944-1.248c-0.544-0.536-0.972-1.172-1.284-1.908c-0.312-0.735-0.468-1.544-0.468-2.424
        s0.156-1.684,0.468-2.412c0.312-0.728,0.74-1.356,1.284-1.884c0.543-0.528,1.191-0.939,1.944-1.236
        c0.752-0.296,1.56-0.444,2.424-0.444c0.864,0,1.672,0.148,2.424,0.444c0.752,0.297,1.404,0.708,1.956,1.236
        c0.552,0.527,0.984,1.156,1.296,1.884C116.479,17.285,116.635,18.089,116.635,18.969z M114.283,18.98
        c0-0.542-0.084-1.061-0.252-1.556c-0.169-0.494-0.414-0.929-0.734-1.304s-0.718-0.674-1.192-0.897s-1.015-0.335-1.625-0.335
        c-0.61,0-1.152,0.111-1.625,0.335c-0.474,0.224-0.871,0.522-1.191,0.897c-0.321,0.375-0.566,0.81-0.734,1.304
        c-0.169,0.495-0.253,1.014-0.253,1.556c0,0.543,0.084,1.062,0.253,1.556c0.168,0.495,0.413,0.934,0.734,1.316
        c0.321,0.383,0.718,0.686,1.191,0.909c0.473,0.224,1.015,0.335,1.625,0.335c0.61,0,1.151-0.111,1.625-0.335
        s0.871-0.526,1.192-0.909s0.565-0.821,0.734-1.316C114.199,20.042,114.283,19.523,114.283,18.98z"/>
    <path fill="#666666" d="M119.251,14.577c-0.016-0.48-0.04-0.904-0.072-1.272h2.136c0.032,0.288,0.056,0.62,0.072,0.996
        c0.016,0.376,0.024,0.684,0.024,0.924h0.072c0.32-0.672,0.788-1.212,1.404-1.62c0.616-0.408,1.308-0.612,2.076-0.612
        c0.352,0,0.648,0.033,0.888,0.097l-0.096,2.088c-0.32-0.08-0.664-0.12-1.032-0.12c-0.544,0-1.016,0.101-1.416,0.3
        c-0.4,0.2-0.732,0.468-0.996,0.805c-0.264,0.336-0.46,0.724-0.588,1.163c-0.128,0.44-0.192,0.9-0.192,1.381v5.976h-2.256v-8.928
        C119.275,15.449,119.267,15.056,119.251,14.577z"/>
    <path fill="#666666" d="M128.419,26.625c0.496,0.56,1.116,1.008,1.86,1.344c0.744,0.336,1.508,0.504,2.292,0.504
        c0.752,0,1.384-0.108,1.896-0.324s0.924-0.512,1.236-0.888s0.536-0.82,0.672-1.332c0.136-0.513,0.204-1.064,0.204-1.656v-1.464
        h-0.048c-0.416,0.641-0.984,1.128-1.704,1.464c-0.72,0.336-1.488,0.504-2.304,0.504c-0.864,0-1.652-0.151-2.364-0.456
        c-0.712-0.304-1.316-0.72-1.812-1.248c-0.496-0.527-0.88-1.147-1.152-1.859s-0.408-1.477-0.408-2.292
        c0-0.816,0.136-1.584,0.408-2.305c0.272-0.72,0.656-1.348,1.152-1.884c0.496-0.535,1.096-0.96,1.8-1.271
        c0.704-0.312,1.488-0.469,2.352-0.469c0.816,0,1.596,0.177,2.34,0.528c0.744,0.353,1.332,0.888,1.764,1.608h0.048v-1.824h2.184
        v10.8c0,0.832-0.104,1.628-0.312,2.388c-0.208,0.76-0.56,1.433-1.056,2.017s-1.144,1.052-1.944,1.404
        c-0.8,0.352-1.792,0.527-2.976,0.527c-0.992,0-1.988-0.18-2.988-0.54c-1-0.359-1.86-0.868-2.58-1.523L128.419,26.625z
         M129.091,18.873c0,0.527,0.084,1.031,0.253,1.512c0.168,0.479,0.417,0.904,0.746,1.271c0.329,0.369,0.726,0.664,1.192,0.889
        c0.465,0.224,0.995,0.336,1.589,0.336c0.577,0,1.107-0.104,1.589-0.312c0.481-0.207,0.891-0.491,1.228-0.852
        s0.598-0.784,0.782-1.272c0.185-0.487,0.277-1.012,0.277-1.571c0-0.544-0.093-1.057-0.277-1.536
        c-0.185-0.48-0.449-0.904-0.794-1.272c-0.345-0.367-0.755-0.66-1.228-0.876c-0.474-0.216-1-0.324-1.577-0.324
        c-0.594,0-1.124,0.108-1.589,0.324c-0.466,0.216-0.863,0.504-1.192,0.864s-0.578,0.784-0.746,1.271
        C129.175,17.812,129.091,18.329,129.091,18.873z"/>
</g>
<g><a xlink:href="/" pointer-events="all" target="_top"><polygon fill="none" points="0,0 145,0 145,35 0,35 0,0"/></a></g>

</g>


<!-- BidirectionalIndexType -->
<g id="node1" class="node">
<g id="a_node1"><a xlink:href="/swift-2/protocol/BidirectionalIndexType/" target="_top">
<path fill="#999999" stroke="#999999" d="M1324.73,-254C1324.73,-254 1209.27,-254 1209.27,-254 1205.61,-254 1201.94,-250.333 1201.94,-246.667 1201.94,-246.667 1201.94,-239.333 1201.94,-239.333 1201.94,-235.667 1205.61,-232 1209.27,-232 1209.27,-232 1324.73,-232 1324.73,-232 1328.39,-232 1332.06,-235.667 1332.06,-239.333 1332.06,-239.333 1332.06,-246.667 1332.06,-246.667 1332.06,-250.333 1328.39,-254 1324.73,-254"/>
<text text-anchor="middle" x="1267" y="-239.4" font-family="Helvetica,sans-Serif" font-size="12.00" fill="white">BidirectionalIndexType</text>
</a>
</g>
</g>
<!-- Int8 -->
<g id="node9" class="node">
<g id="a_node9"><a xlink:href="/swift-2/type/Int8/" target="_top">
<polygon fill="#ee543d" stroke="#ee543d" points="721,-22 667,-22 667,-0 721,-0 721,-22"/>
<text text-anchor="middle" x="694" y="-7.4" font-family="Helvetica,sans-Serif" font-size="12.00" fill="white">Int8</text>
</a>
</g>
</g>
<!-- BidirectionalIndexType&#45;&gt;Int8 -->
<g id="edge13" class="edge">
<path fill="none" stroke="#cccccc" d="M1272.67,-231.993C1289.19,-201.372 1333.27,-107.997 1287,-58 1249.26,-17.2213 855.83,-12.4963 731.464,-12.0257"/>
<polygon fill="#cccccc" stroke="#cccccc" points="731.302,-8.52524 721.291,-11.9946 731.28,-15.5252 731.302,-8.52524"/>
</g>
<!-- RandomAccessIndexType -->
<g id="node13" class="node">
<g id="a_node13"><a xlink:href="/swift-2/protocol/RandomAccessIndexType/" target="_top">
<path fill="#999999" stroke="#999999" d="M959.225,-196C959.225,-196 824.775,-196 824.775,-196 821.108,-196 817.441,-192.333 817.441,-188.667 817.441,-188.667 817.441,-181.333 817.441,-181.333 817.441,-177.667 821.108,-174 824.775,-174 824.775,-174 959.225,-174 959.225,-174 962.892,-174 966.559,-177.667 966.559,-181.333 966.559,-181.333 966.559,-188.667 966.559,-188.667 966.559,-192.333 962.892,-196 959.225,-196"/>
<text text-anchor="middle" x="892" y="-181.4" font-family="Helvetica,sans-Serif" font-size="12.00" fill="white">RandomAccessIndexType</text>
</a>
</g>
</g>
<!-- BidirectionalIndexType&#45;&gt;RandomAccessIndexType -->
<g id="edge40" class="edge">
<path fill="none" stroke="#cccccc" d="M1201.68,-232.246C1136.88,-222.568 1037.59,-207.741 968.988,-197.497"/>
<polygon fill="#cccccc" stroke="#cccccc" points="969.504,-194.035 959.097,-196.02 968.47,-200.958 969.504,-194.035"/>
</g>
<!-- BitwiseOperationsType -->
<g id="node2" class="node">
<g id="a_node2"><a xlink:href="/swift-2/protocol/BitwiseOperationsType/" target="_top">
<path fill="#999999" stroke="#999999" d="M268.715,-254C268.715,-254 151.285,-254 151.285,-254 147.618,-254 143.952,-250.333 143.952,-246.667 143.952,-246.667 143.952,-239.333 143.952,-239.333 143.952,-235.667 147.618,-232 151.285,-232 151.285,-232 268.715,-232 268.715,-232 272.382,-232 276.048,-235.667 276.048,-239.333 276.048,-239.333 276.048,-246.667 276.048,-246.667 276.048,-250.333 272.382,-254 268.715,-254"/>
<text text-anchor="middle" x="210" y="-239.4" font-family="Helvetica,sans-Serif" font-size="12.00" fill="white">BitwiseOperationsType</text>
</a>
</g>
</g>
<!-- BitwiseOperationsType&#45;&gt;Int8 -->
<g id="edge20" class="edge">
<path fill="none" stroke="#cccccc" d="M217.939,-231.919C243.494,-200.256 327.424,-102.287 421,-58 499.199,-20.9902 602.398,-13.2837 656.78,-11.9699"/>
<polygon fill="#cccccc" stroke="#cccccc" points="657.049,-15.4657 666.984,-11.7855 656.922,-8.46682 657.049,-15.4657"/>
</g>
<!-- _IntegerType -->
<g id="node19" class="node">
<g id="a_node19"><a xlink:href="/swift-2/protocol/_IntegerType/" target="_top">
<path fill="#999999" stroke="#999999" d="M498.708,-196C498.708,-196 433.292,-196 433.292,-196 429.626,-196 425.959,-192.333 425.959,-188.667 425.959,-188.667 425.959,-181.333 425.959,-181.333 425.959,-177.667 429.626,-174 433.292,-174 433.292,-174 498.708,-174 498.708,-174 502.374,-174 506.041,-177.667 506.041,-181.333 506.041,-181.333 506.041,-188.667 506.041,-188.667 506.041,-192.333 502.374,-196 498.708,-196"/>
<text text-anchor="middle" x="466" y="-181.4" font-family="Helvetica,sans-Serif" font-size="12.00" fill="white">_IntegerType</text>
</a>
</g>
</g>
<!-- BitwiseOperationsType&#45;&gt;_IntegerType -->
<g id="edge30" class="edge">
<path fill="none" stroke="#cccccc" d="M255.768,-231.988C300.787,-222.14 369.342,-207.144 415.825,-196.976"/>
<polygon fill="#cccccc" stroke="#cccccc" points="416.662,-200.376 425.683,-194.819 415.166,-193.537 416.662,-200.376"/>
</g>
<!-- CVarArgType -->
<g id="node3" class="node">
<g id="a_node3"><a xlink:href="/swift-2/protocol/CVarArgType/" target="_top">
<path fill="#999999" stroke="#999999" d="M150.029,-80C150.029,-80 83.9709,-80 83.9709,-80 80.3043,-80 76.6376,-76.3333 76.6376,-72.6667 76.6376,-72.6667 76.6376,-65.3333 76.6376,-65.3333 76.6376,-61.6667 80.3043,-58 83.9709,-58 83.9709,-58 150.029,-58 150.029,-58 153.696,-58 157.362,-61.6667 157.362,-65.3333 157.362,-65.3333 157.362,-72.6667 157.362,-72.6667 157.362,-76.3333 153.696,-80 150.029,-80"/>
<text text-anchor="middle" x="117" y="-65.4" font-family="Helvetica,sans-Serif" font-size="12.00" fill="white">CVarArgType</text>
</a>
</g>
</g>
<!-- CVarArgType&#45;&gt;Int8 -->
<g id="edge22" class="edge">
<path fill="none" stroke="#cccccc" d="M157.482,-60.2039C162.363,-59.3929 167.287,-58.6347 172,-58 352.894,-33.6372 570.868,-19.2077 656.694,-14.1056"/>
<polygon fill="#cccccc" stroke="#cccccc" points="656.953,-17.5965 666.731,-13.5159 656.543,-10.6086 656.953,-17.5965"/>
</g>
<!-- Comparable -->
<g id="node4" class="node">
<g id="a_node4"><a xlink:href="/swift-2/protocol/Comparable/" target="_top">
<path fill="#999999" stroke="#999999" d="M692.191,-312C692.191,-312 631.809,-312 631.809,-312 628.142,-312 624.475,-308.333 624.475,-304.667 624.475,-304.667 624.475,-297.333 624.475,-297.333 624.475,-293.667 628.142,-290 631.809,-290 631.809,-290 692.191,-290 692.191,-290 695.858,-290 699.525,-293.667 699.525,-297.333 699.525,-297.333 699.525,-304.667 699.525,-304.667 699.525,-308.333 695.858,-312 692.191,-312"/>
<text text-anchor="middle" x="662" y="-297.4" font-family="Helvetica,sans-Serif" font-size="12.00" fill="white">Comparable</text>
</a>
</g>
</g>
<!-- Comparable&#45;&gt;Int8 -->
<g id="edge2" class="edge">
<path fill="none" stroke="#cccccc" d="M624.378,-299.582C509.322,-297.919 167.966,-289.969 135,-254 -22.8903,-81.7277 508.275,-26.5512 656.596,-14.6767"/>
<polygon fill="#cccccc" stroke="#cccccc" points="657.297,-18.1327 666.995,-13.8654 656.753,-11.1539 657.297,-18.1327"/>
</g>
<!-- IntegerArithmeticType -->
<g id="node10" class="node">
<g id="a_node10"><a xlink:href="/swift-2/protocol/IntegerArithmeticType/" target="_top">
<path fill="#999999" stroke="#999999" d="M808.711,-254C808.711,-254 697.289,-254 697.289,-254 693.623,-254 689.956,-250.333 689.956,-246.667 689.956,-246.667 689.956,-239.333 689.956,-239.333 689.956,-235.667 693.623,-232 697.289,-232 697.289,-232 808.711,-232 808.711,-232 812.377,-232 816.044,-235.667 816.044,-239.333 816.044,-239.333 816.044,-246.667 816.044,-246.667 816.044,-250.333 812.377,-254 808.711,-254"/>
<text text-anchor="middle" x="753" y="-239.4" font-family="Helvetica,sans-Serif" font-size="12.00" fill="white">IntegerArithmeticType</text>
</a>
</g>
</g>
<!-- Comparable&#45;&gt;IntegerArithmeticType -->
<g id="edge34" class="edge">
<path fill="none" stroke="#cccccc" d="M678.269,-289.988C692.03,-281.52 711.977,-269.245 727.802,-259.507"/>
<polygon fill="#cccccc" stroke="#cccccc" points="729.883,-262.336 736.565,-254.114 726.214,-256.374 729.883,-262.336"/>
</g>
<!-- SignedNumberType -->
<g id="node15" class="node">
<g id="a_node15"><a xlink:href="/swift-2/protocol/SignedNumberType/" target="_top">
<path fill="#999999" stroke="#999999" d="M653.716,-196C653.716,-196 552.284,-196 552.284,-196 548.617,-196 544.95,-192.333 544.95,-188.667 544.95,-188.667 544.95,-181.333 544.95,-181.333 544.95,-177.667 548.617,-174 552.284,-174 552.284,-174 653.716,-174 653.716,-174 657.383,-174 661.05,-177.667 661.05,-181.333 661.05,-181.333 661.05,-188.667 661.05,-188.667 661.05,-192.333 657.383,-196 653.716,-196"/>
<text text-anchor="middle" x="603" y="-181.4" font-family="Helvetica,sans-Serif" font-size="12.00" fill="white">SignedNumberType</text>
</a>
</g>
</g>
<!-- Comparable&#45;&gt;SignedNumberType -->
<g id="edge36" class="edge">
<path fill="none" stroke="#cccccc" d="M660.591,-289.793C658.375,-276.011 653.231,-250.993 643,-232 637.429,-221.658 629.169,-211.636 621.599,-203.601"/>
<polygon fill="#cccccc" stroke="#cccccc" points="623.9,-200.95 614.385,-196.29 618.917,-205.867 623.9,-200.95"/>
</g>
<!-- Strideable -->
<g id="node16" class="node">
<g id="a_node16"><a xlink:href="/swift-2/protocol/Strideable/" target="_top">
<path fill="#999999" stroke="#999999" d="M890.693,-254C890.693,-254 841.307,-254 841.307,-254 837.64,-254 833.974,-250.333 833.974,-246.667 833.974,-246.667 833.974,-239.333 833.974,-239.333 833.974,-235.667 837.64,-232 841.307,-232 841.307,-232 890.693,-232 890.693,-232 894.36,-232 898.026,-235.667 898.026,-239.333 898.026,-239.333 898.026,-246.667 898.026,-246.667 898.026,-250.333 894.36,-254 890.693,-254"/>
<text text-anchor="middle" x="866" y="-239.4" font-family="Helvetica,sans-Serif" font-size="12.00" fill="white">Strideable</text>
</a>
</g>
</g>
<!-- Comparable&#45;&gt;Strideable -->
<g id="edge45" class="edge">
<path fill="none" stroke="#cccccc" d="M698.471,-289.988C733.669,-280.326 786.921,-265.708 823.902,-255.556"/>
<polygon fill="#cccccc" stroke="#cccccc" points="825.156,-258.842 833.872,-252.819 823.303,-252.091 825.156,-258.842"/>
</g>
<!-- CustomStringConvertible -->
<g id="node5" class="node">
<g id="a_node5"><a xlink:href="/swift-2/protocol/CustomStringConvertible/" target="_top">
<path fill="#999999" stroke="#999999" d="M430.208,-254C430.208,-254 301.792,-254 301.792,-254 298.126,-254 294.459,-250.333 294.459,-246.667 294.459,-246.667 294.459,-239.333 294.459,-239.333 294.459,-235.667 298.126,-232 301.792,-232 301.792,-232 430.208,-232 430.208,-232 433.874,-232 437.541,-235.667 437.541,-239.333 437.541,-239.333 437.541,-246.667 437.541,-246.667 437.541,-250.333 433.874,-254 430.208,-254"/>
<text text-anchor="middle" x="366" y="-239.4" font-family="Helvetica,sans-Serif" font-size="12.00" fill="white">CustomStringConvertible</text>
</a>
</g>
</g>
<!-- CustomStringConvertible&#45;&gt;Int8 -->
<g id="edge10" class="edge">
<path fill="none" stroke="#cccccc" d="M367.156,-231.636C371.272,-199.99 388.211,-103.975 446,-58 478.07,-32.4859 595.817,-19.6906 656.814,-14.6545"/>
<polygon fill="#cccccc" stroke="#cccccc" points="657.113,-18.1419 666.803,-13.8574 656.556,-11.1641 657.113,-18.1419"/>
</g>
<!-- CustomStringConvertible&#45;&gt;_IntegerType -->
<g id="edge27" class="edge">
<path fill="none" stroke="#cccccc" d="M383.878,-231.988C399.141,-223.441 421.33,-211.015 438.796,-201.234"/>
<polygon fill="#cccccc" stroke="#cccccc" points="440.925,-204.054 447.94,-196.114 437.504,-197.946 440.925,-204.054"/>
</g>
<!-- Equatable -->
<g id="node6" class="node">
<g id="a_node6"><a xlink:href="/swift-2/protocol/Equatable/" target="_top">
<path fill="#999999" stroke="#999999" d="M272.702,-428C272.702,-428 223.298,-428 223.298,-428 219.632,-428 215.965,-424.333 215.965,-420.667 215.965,-420.667 215.965,-413.333 215.965,-413.333 215.965,-409.667 219.632,-406 223.298,-406 223.298,-406 272.702,-406 272.702,-406 276.368,-406 280.035,-409.667 280.035,-413.333 280.035,-413.333 280.035,-420.667 280.035,-420.667 280.035,-424.333 276.368,-428 272.702,-428"/>
<text text-anchor="middle" x="248" y="-413.4" font-family="Helvetica,sans-Serif" font-size="12.00" fill="white">Equatable</text>
</a>
</g>
</g>
<!-- Equatable&#45;&gt;Comparable -->
<g id="edge23" class="edge">
<path fill="none" stroke="#cccccc" d="M280.141,-407.149C352.983,-387.092 530.87,-338.108 615.625,-314.77"/>
<polygon fill="#cccccc" stroke="#cccccc" points="616.775,-318.084 625.487,-312.054 614.916,-311.335 616.775,-318.084"/>
</g>
<!-- Hashable -->
<g id="node8" class="node">
<g id="a_node8"><a xlink:href="/swift-2/protocol/Hashable/" target="_top">
<path fill="#999999" stroke="#999999" d="M80.6941,-254C80.6941,-254 35.3059,-254 35.3059,-254 31.6392,-254 27.9725,-250.333 27.9725,-246.667 27.9725,-246.667 27.9725,-239.333 27.9725,-239.333 27.9725,-235.667 31.6392,-232 35.3059,-232 35.3059,-232 80.6941,-232 80.6941,-232 84.3608,-232 88.0275,-235.667 88.0275,-239.333 88.0275,-239.333 88.0275,-246.667 88.0275,-246.667 88.0275,-250.333 84.3608,-254 80.6941,-254"/>
<text text-anchor="middle" x="58" y="-239.4" font-family="Helvetica,sans-Serif" font-size="12.00" fill="white">Hashable</text>
</a>
</g>
</g>
<!-- Equatable&#45;&gt;Hashable -->
<g id="edge32" class="edge">
<path fill="none" stroke="#cccccc" d="M236.684,-405.756C205.209,-377.263 116.373,-296.843 77.0894,-261.281"/>
<polygon fill="#cccccc" stroke="#cccccc" points="79.2598,-258.525 69.4973,-254.408 74.5619,-263.714 79.2598,-258.525"/>
</g>
<!-- Equatable&#45;&gt;Int8 -->
<g id="edge3" class="edge">
<path fill="none" stroke="#cccccc" d="M215.833,-415.556C148.73,-412.753 0,-395.944 0,-302 0,-302 0,-302 0,-126 0,-89.0068 15.7798,-76.1757 48,-58 101.043,-28.0777 527.011,-15.8552 656.679,-12.8052"/>
<polygon fill="#cccccc" stroke="#cccccc" points="656.981,-16.2993 666.898,-12.5695 656.82,-9.30112 656.981,-16.2993"/>
</g>
<!-- _Incrementable -->
<g id="node17" class="node">
<g id="a_node17"><a xlink:href="/swift-2/protocol/_Incrementable/" target="_top">
<path fill="#999999" stroke="#999999" d="M639.705,-370C639.705,-370 562.295,-370 562.295,-370 558.628,-370 554.961,-366.333 554.961,-362.667 554.961,-362.667 554.961,-355.333 554.961,-355.333 554.961,-351.667 558.628,-348 562.295,-348 562.295,-348 639.705,-348 639.705,-348 643.372,-348 647.039,-351.667 647.039,-355.333 647.039,-355.333 647.039,-362.667 647.039,-362.667 647.039,-366.333 643.372,-370 639.705,-370"/>
<text text-anchor="middle" x="601" y="-355.4" font-family="Helvetica,sans-Serif" font-size="12.00" fill="white">_Incrementable</text>
</a>
</g>
</g>
<!-- Equatable&#45;&gt;_Incrementable -->
<g id="edge35" class="edge">
<path fill="none" stroke="#cccccc" d="M280.262,-410.882C340.326,-401.353 469.967,-380.787 544.736,-368.926"/>
<polygon fill="#cccccc" stroke="#cccccc" points="545.581,-372.336 554.909,-367.312 544.484,-365.422 545.581,-372.336"/>
</g>
<!-- ForwardIndexType -->
<g id="node7" class="node">
<g id="a_node7"><a xlink:href="/swift-2/protocol/ForwardIndexType/" target="_top">
<path fill="#999999" stroke="#999999" d="M1314.21,-312C1314.21,-312 1219.79,-312 1219.79,-312 1216.13,-312 1212.46,-308.333 1212.46,-304.667 1212.46,-304.667 1212.46,-297.333 1212.46,-297.333 1212.46,-293.667 1216.13,-290 1219.79,-290 1219.79,-290 1314.21,-290 1314.21,-290 1317.87,-290 1321.54,-293.667 1321.54,-297.333 1321.54,-297.333 1321.54,-304.667 1321.54,-304.667 1321.54,-308.333 1317.87,-312 1314.21,-312"/>
<text text-anchor="middle" x="1267" y="-297.4" font-family="Helvetica,sans-Serif" font-size="12.00" fill="white">ForwardIndexType</text>
</a>
</g>
</g>
<!-- ForwardIndexType&#45;&gt;BidirectionalIndexType -->
<g id="edge43" class="edge">
<path fill="none" stroke="#cccccc" d="M1267,-289.988C1267,-282.91 1267,-273.171 1267,-264.478"/>
<polygon fill="#cccccc" stroke="#cccccc" points="1270.5,-264.304 1267,-254.304 1263.5,-264.304 1270.5,-264.304"/>
</g>
<!-- ForwardIndexType&#45;&gt;Int8 -->
<g id="edge14" class="edge">
<path fill="none" stroke="#cccccc" d="M1292.76,-289.834C1308.84,-282.236 1328.75,-270.337 1341,-254 1359.83,-228.897 1360,-217.38 1360,-186 1360,-186 1360,-186 1360,-126 1360,-87.9539 1341.45,-76.1188 1308,-58 1257.37,-30.5775 856.995,-16.7294 731.49,-13.0319"/>
<polygon fill="#cccccc" stroke="#cccccc" points="731.329,-9.52583 721.232,-12.7344 731.126,-16.5229 731.329,-9.52583"/>
</g>
<!-- Hashable&#45;&gt;Int8 -->
<g id="edge9" class="edge">
<path fill="none" stroke="#cccccc" d="M54.5093,-231.862C44.5491,-200.866 19.6434,-106.524 67,-58 108.245,-15.7379 527.846,-12.0561 656.622,-11.928"/>
<polygon fill="#cccccc" stroke="#cccccc" points="656.779,-15.428 666.778,-11.9248 656.777,-8.42804 656.779,-15.428"/>
</g>
<!-- Hashable&#45;&gt;_IntegerType -->
<g id="edge28" class="edge">
<path fill="none" stroke="#cccccc" d="M88.333,-237.837C157.988,-228.276 329.965,-204.671 415.713,-192.902"/>
<polygon fill="#cccccc" stroke="#cccccc" points="416.298,-196.355 425.73,-191.527 415.346,-189.42 416.298,-196.355"/>
</g>
<!-- IntegerArithmeticType&#45;&gt;Int8 -->
<g id="edge6" class="edge">
<path fill="none" stroke="#cccccc" d="M753.23,-232C753.544,-203.619 752.094,-120.584 727,-58 722.971,-47.9509 716.299,-38.0328 710.005,-29.9937"/>
<polygon fill="#cccccc" stroke="#cccccc" points="712.537,-27.5642 703.466,-22.0905 707.144,-32.0265 712.537,-27.5642"/>
</g>
<!-- IntegerArithmeticType&#45;&gt;_IntegerType -->
<g id="edge29" class="edge">
<path fill="none" stroke="#cccccc" d="M701.69,-231.988C649.239,-221.754 568.292,-205.959 516.234,-195.802"/>
<polygon fill="#cccccc" stroke="#cccccc" points="516.71,-192.329 506.225,-193.849 515.369,-199.199 516.71,-192.329"/>
</g>
<!-- IntegerLiteralConvertible -->
<g id="node11" class="node">
<g id="a_node11"><a xlink:href="/swift-2/protocol/IntegerLiteralConvertible/" target="_top">
<path fill="#999999" stroke="#999999" d="M626.722,-254C626.722,-254 501.278,-254 501.278,-254 497.611,-254 493.944,-250.333 493.944,-246.667 493.944,-246.667 493.944,-239.333 493.944,-239.333 493.944,-235.667 497.611,-232 501.278,-232 501.278,-232 626.722,-232 626.722,-232 630.389,-232 634.056,-235.667 634.056,-239.333 634.056,-239.333 634.056,-246.667 634.056,-246.667 634.056,-250.333 630.389,-254 626.722,-254"/>
<text text-anchor="middle" x="564" y="-239.4" font-family="Helvetica,sans-Serif" font-size="12.00" fill="white">IntegerLiteralConvertible</text>
</a>
</g>
</g>
<!-- IntegerLiteralConvertible&#45;&gt;Int8 -->
<g id="edge19" class="edge">
<path fill="none" stroke="#cccccc" d="M610.456,-231.932C631.456,-225.118 654.895,-213.965 670,-196 709.642,-148.849 703.453,-69.4774 697.783,-32.3264"/>
<polygon fill="#cccccc" stroke="#cccccc" points="701.196,-31.5182 696.091,-22.2346 694.293,-32.6757 701.196,-31.5182"/>
</g>
<!-- IntegerLiteralConvertible&#45;&gt;SignedNumberType -->
<g id="edge37" class="edge">
<path fill="none" stroke="#cccccc" d="M570.972,-231.988C576.231,-224.438 583.597,-213.861 589.939,-204.754"/>
<polygon fill="#cccccc" stroke="#cccccc" points="592.981,-206.51 595.824,-196.304 587.237,-202.51 592.981,-206.51"/>
</g>
<!-- IntegerLiteralConvertible&#45;&gt;_IntegerType -->
<g id="edge26" class="edge">
<path fill="none" stroke="#cccccc" d="M546.48,-231.988C531.522,-223.441 509.777,-211.015 492.66,-201.234"/>
<polygon fill="#cccccc" stroke="#cccccc" points="494.118,-198.036 483.699,-196.114 490.645,-204.114 494.118,-198.036"/>
</g>
<!-- IntegerType -->
<g id="node12" class="node">
<g id="a_node12"><a xlink:href="/swift-2/protocol/IntegerType/" target="_top">
<path fill="#999999" stroke="#999999" d="M639.202,-138C639.202,-138 580.798,-138 580.798,-138 577.132,-138 573.465,-134.333 573.465,-130.667 573.465,-130.667 573.465,-123.333 573.465,-123.333 573.465,-119.667 577.132,-116 580.798,-116 580.798,-116 639.202,-116 639.202,-116 642.868,-116 646.535,-119.667 646.535,-123.333 646.535,-123.333 646.535,-130.667 646.535,-130.667 646.535,-134.333 642.868,-138 639.202,-138"/>
<text text-anchor="middle" x="610" y="-123.4" font-family="Helvetica,sans-Serif" font-size="12.00" fill="white">IntegerType</text>
</a>
</g>
</g>
<!-- IntegerType&#45;&gt;Int8 -->
<g id="edge7" class="edge">
<path fill="none" stroke="#cccccc" d="M617.454,-115.883C631.616,-96.6645 662.588,-54.6301 680.492,-30.3322"/>
<polygon fill="#cccccc" stroke="#cccccc" points="683.327,-32.3847 686.442,-22.2579 677.692,-28.2323 683.327,-32.3847"/>
</g>
<!-- SignedIntegerType -->
<g id="node14" class="node">
<g id="a_node14"><a xlink:href="/swift-2/protocol/SignedIntegerType/" target="_top">
<path fill="#999999" stroke="#999999" d="M601.727,-80C601.727,-80 506.273,-80 506.273,-80 502.606,-80 498.94,-76.3333 498.94,-72.6667 498.94,-72.6667 498.94,-65.3333 498.94,-65.3333 498.94,-61.6667 502.606,-58 506.273,-58 506.273,-58 601.727,-58 601.727,-58 605.394,-58 609.06,-61.6667 609.06,-65.3333 609.06,-65.3333 609.06,-72.6667 609.06,-72.6667 609.06,-76.3333 605.394,-80 601.727,-80"/>
<text text-anchor="middle" x="554" y="-65.4" font-family="Helvetica,sans-Serif" font-size="12.00" fill="white">SignedIntegerType</text>
</a>
</g>
</g>
<!-- IntegerType&#45;&gt;SignedIntegerType -->
<g id="edge48" class="edge">
<path fill="none" stroke="#cccccc" d="M599.988,-115.988C592.123,-108.123 580.974,-96.9745 571.624,-87.6239"/>
<polygon fill="#cccccc" stroke="#cccccc" points="573.85,-84.9001 564.304,-80.3039 568.9,-89.8499 573.85,-84.9001"/>
</g>
<!-- RandomAccessIndexType&#45;&gt;Int8 -->
<g id="edge12" class="edge">
<path fill="none" stroke="#cccccc" d="M887.249,-173.724C875.887,-150.176 844.939,-91.7474 803,-58 781.812,-40.9506 753.383,-29.2321 730.871,-21.891"/>
<polygon fill="#cccccc" stroke="#cccccc" points="731.897,-18.5447 721.309,-18.9164 729.818,-25.2288 731.897,-18.5447"/>
</g>
<!-- RandomAccessIndexType&#45;&gt;IntegerType -->
<g id="edge39" class="edge">
<path fill="none" stroke="#cccccc" d="M841.584,-173.988C789.117,-163.569 707.629,-147.387 656.618,-137.257"/>
<polygon fill="#cccccc" stroke="#cccccc" points="657.018,-133.769 646.528,-135.254 655.655,-140.635 657.018,-133.769"/>
</g>
<!-- SignedIntegerType&#45;&gt;Int8 -->
<g id="edge8" class="edge">
<path fill="none" stroke="#cccccc" d="M579.029,-57.9883C601.387,-49.0453 634.358,-35.8566 659.266,-25.8935"/>
<polygon fill="#cccccc" stroke="#cccccc" points="660.731,-29.0775 668.715,-22.1138 658.131,-22.5781 660.731,-29.0775"/>
</g>
<!-- SignedNumberType&#45;&gt;Int8 -->
<g id="edge18" class="edge">
<path fill="none" stroke="#cccccc" d="M618.744,-173.663C630.309,-165.313 645.585,-152.581 655,-138 676.533,-104.653 686.786,-58.694 691.163,-32.4932"/>
<polygon fill="#cccccc" stroke="#cccccc" points="694.675,-32.6805 692.737,-22.2645 687.757,-31.6156 694.675,-32.6805"/>
</g>
<!-- _SignedIntegerType -->
<g id="node22" class="node">
<g id="a_node22"><a xlink:href="/swift-2/protocol/_SignedIntegerType/" target="_top">
<path fill="#999999" stroke="#999999" d="M548.231,-138C548.231,-138 445.769,-138 445.769,-138 442.102,-138 438.436,-134.333 438.436,-130.667 438.436,-130.667 438.436,-123.333 438.436,-123.333 438.436,-119.667 442.102,-116 445.769,-116 445.769,-116 548.231,-116 548.231,-116 551.898,-116 555.564,-119.667 555.564,-123.333 555.564,-123.333 555.564,-130.667 555.564,-130.667 555.564,-134.333 551.898,-138 548.231,-138"/>
<text text-anchor="middle" x="497" y="-123.4" font-family="Helvetica,sans-Serif" font-size="12.00" fill="white">_SignedIntegerType</text>
</a>
</g>
</g>
<!-- SignedNumberType&#45;&gt;_SignedIntegerType -->
<g id="edge25" class="edge">
<path fill="none" stroke="#cccccc" d="M584.049,-173.988C567.646,-165.322 543.696,-152.67 525.068,-142.828"/>
<polygon fill="#cccccc" stroke="#cccccc" points="526.621,-139.69 516.144,-138.114 523.351,-145.88 526.621,-139.69"/>
</g>
<!-- Strideable&#45;&gt;Int8 -->
<g id="edge15" class="edge">
<path fill="none" stroke="#cccccc" d="M849.223,-231.831C836.57,-223.482 819.488,-210.673 808,-196 766.435,-142.914 784.862,-112.376 745,-58 736.849,-46.8809 725.657,-36.4221 715.834,-28.2953"/>
<polygon fill="#cccccc" stroke="#cccccc" points="718.003,-25.5486 708.001,-22.0541 713.641,-31.0232 718.003,-25.5486"/>
</g>
<!-- Strideable&#45;&gt;RandomAccessIndexType -->
<g id="edge41" class="edge">
<path fill="none" stroke="#cccccc" d="M870.648,-231.988C874.044,-224.674 878.759,-214.519 882.894,-205.612"/>
<polygon fill="#cccccc" stroke="#cccccc" points="886.179,-206.848 887.216,-196.304 879.83,-203.9 886.179,-206.848"/>
</g>
<!-- _Incrementable&#45;&gt;ForwardIndexType -->
<g id="edge44" class="edge">
<path fill="none" stroke="#cccccc" d="M647.11,-355.138C746.227,-348.82 986.908,-332.595 1188,-312 1192.74,-311.515 1197.63,-310.979 1202.55,-310.416"/>
<polygon fill="#cccccc" stroke="#cccccc" points="1203.12,-313.873 1212.64,-309.227 1202.3,-306.921 1203.12,-313.873"/>
</g>
<!-- _Incrementable&#45;&gt;Int8 -->
<g id="edge11" class="edge">
<path fill="none" stroke="#cccccc" d="M647.045,-357.627C755.193,-356.141 1022.37,-348.746 1103,-312 1142.76,-293.881 1174,-287.694 1174,-244 1174,-244 1174,-244 1174,-126 1174,-78.6547 1135.54,-76.5984 1092,-58 1027.45,-30.426 817.292,-17.7381 731.247,-13.6033"/>
<polygon fill="#cccccc" stroke="#cccccc" points="731.3,-10.1021 721.147,-13.1302 730.973,-17.0944 731.3,-10.1021"/>
</g>
<!-- _Incrementable&#45;&gt;_IntegerType -->
<g id="edge31" class="edge">
<path fill="none" stroke="#cccccc" d="M584.869,-347.978C559.705,-331.502 511.275,-296.267 485,-254 476.013,-239.543 471.185,-220.76 468.649,-206.599"/>
<polygon fill="#cccccc" stroke="#cccccc" points="472.059,-205.75 467.07,-196.404 465.141,-206.822 472.059,-205.75"/>
</g>
<!-- _IntegerArithmeticType -->
<g id="node18" class="node">
<g id="a_node18"><a xlink:href="/swift-2/protocol/_IntegerArithmeticType/" target="_top">
<path fill="#999999" stroke="#999999" d="M895.215,-312C895.215,-312 776.785,-312 776.785,-312 773.118,-312 769.452,-308.333 769.452,-304.667 769.452,-304.667 769.452,-297.333 769.452,-297.333 769.452,-293.667 773.118,-290 776.785,-290 776.785,-290 895.215,-290 895.215,-290 898.882,-290 902.548,-293.667 902.548,-297.333 902.548,-297.333 902.548,-304.667 902.548,-304.667 902.548,-308.333 898.882,-312 895.215,-312"/>
<text text-anchor="middle" x="836" y="-297.4" font-family="Helvetica,sans-Serif" font-size="12.00" fill="white">_IntegerArithmeticType</text>
</a>
</g>
</g>
<!-- _IntegerArithmeticType&#45;&gt;Int8 -->
<g id="edge1" class="edge">
<path fill="none" stroke="#cccccc" d="M902.463,-295.082C965.006,-289.124 1052.73,-276.904 1078,-254 1101.34,-232.845 1098,-217.502 1098,-186 1098,-186 1098,-186 1098,-126 1098,-50.2348 831.492,-22.3403 731.393,-14.5353"/>
<polygon fill="#cccccc" stroke="#cccccc" points="731.37,-11.0237 721.135,-13.7608 730.843,-18.0038 731.37,-11.0237"/>
</g>
<!-- _IntegerArithmeticType&#45;&gt;IntegerArithmeticType -->
<g id="edge33" class="edge">
<path fill="none" stroke="#cccccc" d="M821.161,-289.988C808.728,-281.599 790.757,-269.474 776.389,-259.78"/>
<polygon fill="#cccccc" stroke="#cccccc" points="778.237,-256.805 767.99,-254.114 774.322,-262.608 778.237,-256.805"/>
</g>
<!-- _IntegerType&#45;&gt;Int8 -->
<g id="edge5" class="edge">
<path fill="none" stroke="#cccccc" d="M454.029,-173.827C440.349,-160.891 420.843,-137.63 429,-116 441.112,-83.8821 450.394,-75.3716 480,-58 535.68,-25.3291 611.699,-15.7622 656.544,-13.0228"/>
<polygon fill="#cccccc" stroke="#cccccc" points="656.9,-16.509 666.702,-12.4872 656.531,-9.51872 656.9,-16.509"/>
</g>
<!-- _IntegerType&#45;&gt;IntegerType -->
<g id="edge38" class="edge">
<path fill="none" stroke="#cccccc" d="M491.744,-173.988C514.842,-165.006 548.955,-151.74 574.614,-141.761"/>
<polygon fill="#cccccc" stroke="#cccccc" points="575.942,-145 583.993,-138.114 573.404,-138.476 575.942,-145"/>
</g>
<!-- _IntegerType&#45;&gt;_SignedIntegerType -->
<g id="edge24" class="edge">
<path fill="none" stroke="#cccccc" d="M471.542,-173.988C475.635,-166.595 481.334,-156.301 486.302,-147.325"/>
<polygon fill="#cccccc" stroke="#cccccc" points="489.515,-148.748 491.296,-138.304 483.391,-145.358 489.515,-148.748"/>
</g>
<!-- _RandomAccessAmbiguity -->
<g id="node20" class="node">
<g id="a_node20"><a xlink:href="/swift-2/protocol/_RandomAccessAmbiguity/" target="_top">
<path fill="#999999" stroke="#999999" d="M1062.21,-254C1062.21,-254 923.786,-254 923.786,-254 920.12,-254 916.453,-250.333 916.453,-246.667 916.453,-246.667 916.453,-239.333 916.453,-239.333 916.453,-235.667 920.12,-232 923.786,-232 923.786,-232 1062.21,-232 1062.21,-232 1065.88,-232 1069.55,-235.667 1069.55,-239.333 1069.55,-239.333 1069.55,-246.667 1069.55,-246.667 1069.55,-250.333 1065.88,-254 1062.21,-254"/>
<text text-anchor="middle" x="993" y="-239.4" font-family="Helvetica,sans-Serif" font-size="12.00" fill="white">_RandomAccessAmbiguity</text>
</a>
</g>
</g>
<!-- _RandomAccessAmbiguity&#45;&gt;Int8 -->
<g id="edge17" class="edge">
<path fill="none" stroke="#cccccc" d="M992.327,-231.97C990.97,-217.95 986.926,-192.174 975,-174 929.339,-104.419 901.062,-97.8545 828,-58 796.942,-41.0581 758.482,-28.6325 730.743,-20.9966"/>
<polygon fill="#cccccc" stroke="#cccccc" points="731.607,-17.6047 721.042,-18.4006 729.797,-24.3667 731.607,-17.6047"/>
</g>
<!-- _RandomAccessAmbiguity&#45;&gt;RandomAccessIndexType -->
<g id="edge42" class="edge">
<path fill="none" stroke="#cccccc" d="M974.943,-231.988C959.385,-223.362 936.702,-210.785 918.987,-200.963"/>
<polygon fill="#cccccc" stroke="#cccccc" points="920.684,-197.902 910.241,-196.114 917.289,-204.024 920.684,-197.902"/>
</g>
<!-- _Reflectable -->
<g id="node21" class="node">
<g id="a_node21"><a xlink:href="/swift-2/protocol/_Reflectable/" target="_top">
<path fill="#999999" stroke="#999999" d="M1270.7,-80C1270.7,-80 1209.3,-80 1209.3,-80 1205.63,-80 1201.97,-76.3333 1201.97,-72.6667 1201.97,-72.6667 1201.97,-65.3333 1201.97,-65.3333 1201.97,-61.6667 1205.63,-58 1209.3,-58 1209.3,-58 1270.7,-58 1270.7,-58 1274.37,-58 1278.03,-61.6667 1278.03,-65.3333 1278.03,-65.3333 1278.03,-72.6667 1278.03,-72.6667 1278.03,-76.3333 1274.37,-80 1270.7,-80"/>
<text text-anchor="middle" x="1240" y="-65.4" font-family="Helvetica,sans-Serif" font-size="12.00" fill="white">_Reflectable</text>
</a>
</g>
</g>
<!-- _Reflectable&#45;&gt;Int8 -->
<g id="edge21" class="edge">
<path fill="none" stroke="#cccccc" d="M1201.73,-60.2042C1197.12,-59.3932 1192.46,-58.6349 1188,-58 1018.28,-33.8371 813.872,-19.4415 731.294,-14.2307"/>
<polygon fill="#cccccc" stroke="#cccccc" points="731.349,-10.7274 721.151,-13.5983 730.914,-17.7138 731.349,-10.7274"/>
</g>
<!-- _SignedIntegerType&#45;&gt;Int8 -->
<g id="edge4" class="edge">
<path fill="none" stroke="#cccccc" d="M491.988,-115.99C485.539,-101.524 476.659,-74.6843 490,-58 510.512,-32.3472 603.937,-19.9773 656.96,-14.9288"/>
<polygon fill="#cccccc" stroke="#cccccc" points="657.351,-18.4077 666.992,-14.0149 656.716,-11.4366 657.351,-18.4077"/>
</g>
<!-- _SignedIntegerType&#45;&gt;SignedIntegerType -->
<g id="edge47" class="edge">
<path fill="none" stroke="#cccccc" d="M507.19,-115.988C515.276,-108.045 526.771,-96.7512 536.346,-87.3439"/>
<polygon fill="#cccccc" stroke="#cccccc" points="538.832,-89.8088 543.512,-80.3039 533.926,-84.8154 538.832,-89.8088"/>
</g>
<!-- _Strideable -->
<g id="node23" class="node">
<g id="a_node23"><a xlink:href="/swift-2/protocol/_Strideable/" target="_top">
<path fill="#999999" stroke="#999999" d="M1086.7,-312C1086.7,-312 1031.3,-312 1031.3,-312 1027.63,-312 1023.97,-308.333 1023.97,-304.667 1023.97,-304.667 1023.97,-297.333 1023.97,-297.333 1023.97,-293.667 1027.63,-290 1031.3,-290 1031.3,-290 1086.7,-290 1086.7,-290 1090.37,-290 1094.03,-293.667 1094.03,-297.333 1094.03,-297.333 1094.03,-304.667 1094.03,-304.667 1094.03,-308.333 1090.37,-312 1086.7,-312"/>
<text text-anchor="middle" x="1059" y="-297.4" font-family="Helvetica,sans-Serif" font-size="12.00" fill="white">_Strideable</text>
</a>
</g>
</g>
<!-- _Strideable&#45;&gt;Int8 -->
<g id="edge16" class="edge">
<path fill="none" stroke="#cccccc" d="M1072.06,-289.937C1094.03,-271.764 1136,-231.14 1136,-186 1136,-186 1136,-186 1136,-126 1136,-76.5727 1093.65,-76.9541 1048,-58 991.352,-34.479 810.669,-19.8303 731.625,-14.3955"/>
<polygon fill="#cccccc" stroke="#cccccc" points="731.383,-10.8713 721.17,-13.6898 730.912,-17.8554 731.383,-10.8713"/>
</g>
<!-- _Strideable&#45;&gt;Strideable -->
<g id="edge46" class="edge">
<path fill="none" stroke="#cccccc" d="M1024.5,-289.988C991.93,-280.539 943.029,-266.35 908.165,-256.234"/>
<polygon fill="#cccccc" stroke="#cccccc" points="908.859,-252.792 898.28,-253.366 906.909,-259.514 908.859,-252.792"/>
</g>
</g>
</svg>
