<?xml version="1.0" encoding="UTF-8" standalone="no"?>
<!DOCTYPE svg PUBLIC "-//W3C//DTD SVG 1.1//EN"
 "http://www.w3.org/Graphics/SVG/1.1/DTD/svg11.dtd">
<!-- Generated by graphviz version 2.36.0 (20140111.2315)
 -->
<!-- Title: BidirectionalIndexType &#45; Type Hierarchy &#45; SwiftDoc.org Pages: 1 -->
<svg width="2876pt" height="543pt"
 viewBox="0.00 0.00 2876.40 543.20" xmlns="http://www.w3.org/2000/svg" xmlns:xlink="http://www.w3.org/1999/xlink">
<g id="graph0" class="graph" transform="scale(1 1) rotate(0) translate(7.2 485.6)">
<g transform="translate(0 -485.6)">
<g>
    <path fill="#666666" d="M13.846,10.832c-0.336-0.464-0.792-0.844-1.368-1.14s-1.224-0.444-1.944-0.444
        c-0.384,0-0.772,0.052-1.164,0.156C8.977,9.509,8.622,9.677,8.301,9.908c-0.32,0.232-0.58,0.52-0.78,0.864
        c-0.2,0.344-0.3,0.756-0.3,1.236c0,0.464,0.092,0.852,0.276,1.164c0.184,0.312,0.432,0.576,0.744,0.792s0.68,0.4,1.104,0.552
        c0.423,0.152,0.876,0.309,1.356,0.468c0.576,0.177,1.16,0.376,1.752,0.601c0.592,0.224,1.128,0.52,1.608,0.888
        s0.872,0.828,1.176,1.38s0.456,1.252,0.456,2.101c0,0.88-0.164,1.644-0.492,2.292c-0.328,0.647-0.765,1.184-1.308,1.607
        c-0.544,0.424-1.172,0.74-1.884,0.948s-1.444,0.312-2.196,0.312c-1.072,0-2.108-0.208-3.108-0.624
        c-1-0.415-1.828-1.031-2.484-1.848l1.848-1.56c0.4,0.592,0.936,1.071,1.608,1.439c0.672,0.368,1.399,0.552,2.184,0.552
        c0.4,0,0.8-0.056,1.2-0.168c0.4-0.111,0.764-0.288,1.092-0.527c0.328-0.24,0.596-0.54,0.804-0.9
        c0.208-0.36,0.312-0.796,0.312-1.308s-0.108-0.94-0.324-1.284c-0.216-0.344-0.508-0.636-0.876-0.876s-0.796-0.444-1.284-0.612
        c-0.488-0.168-1.004-0.34-1.548-0.516c-0.544-0.16-1.08-0.356-1.608-0.588c-0.528-0.232-1-0.528-1.416-0.889
        c-0.416-0.359-0.752-0.804-1.008-1.332c-0.256-0.527-0.384-1.184-0.384-1.968c0-0.848,0.172-1.576,0.516-2.184
        c0.344-0.608,0.792-1.112,1.344-1.512c0.552-0.4,1.176-0.692,1.872-0.876c0.696-0.184,1.396-0.276,2.1-0.276
        c0.992,0,1.92,0.176,2.784,0.528c0.864,0.352,1.56,0.824,2.088,1.416L13.846,10.832z"/>
    <path fill="#666666" d="M18.813,13.304l2.568,8.688h0.048l2.712-8.688h2.376l2.76,8.688h0.048l2.568-8.688h2.376L30.501,24.68
        h-2.352l-2.808-8.544h-0.048l-2.784,8.544h-2.352l-3.792-11.376H18.813z"/>
    <path fill="#666666" d="M38.685,9.2c0,0.416-0.147,0.76-0.44,1.032c-0.294,0.272-0.647,0.408-1.06,0.408s-0.762-0.14-1.047-0.42
        c-0.286-0.28-0.429-0.62-0.429-1.02c0-0.416,0.143-0.764,0.429-1.044c0.286-0.28,0.635-0.42,1.047-0.42s0.766,0.14,1.06,0.42
        C38.538,8.437,38.685,8.784,38.685,9.2z M38.325,24.68h-2.256V13.304h2.256V24.68z"/>
    <path fill="#666666" d="M47.613,15.152h-2.64v9.528h-2.256v-9.528h-2.256v-1.848h2.256v-2.376c0-0.672,0.076-1.292,0.228-1.86
        c0.152-0.568,0.4-1.06,0.744-1.476c0.344-0.416,0.784-0.744,1.32-0.984c0.536-0.24,1.188-0.36,1.956-0.36
        c0.544,0,1.016,0.056,1.416,0.168l-0.264,1.944c-0.176-0.048-0.352-0.088-0.528-0.12c-0.176-0.032-0.376-0.048-0.6-0.048
        c-0.432,0-0.78,0.076-1.044,0.228c-0.264,0.152-0.468,0.356-0.612,0.612s-0.24,0.548-0.288,0.876
        c-0.048,0.328-0.072,0.668-0.072,1.02v2.376h2.64V15.152z"/>
    <path fill="#666666" d="M54.909,15.152h-3.024v5.91c0,0.687,0.128,1.177,0.384,1.472c0.256,0.295,0.664,0.442,1.224,0.442
        c0.208,0,0.432-0.021,0.672-0.065c0.24-0.044,0.456-0.11,0.648-0.198l0.072,1.848c-0.272,0.096-0.572,0.172-0.9,0.229
        c-0.328,0.056-0.668,0.084-1.02,0.084c-1.072,0-1.892-0.296-2.46-0.889c-0.568-0.592-0.852-1.479-0.852-2.664v-6.168h-2.184
        v-1.848h2.184V10.04h2.232v3.264h3.024V15.152z"/>
    <path fill="#666666" d="M57.356,7.688h5.832c1.088,0,2.176,0.16,3.264,0.48c1.088,0.32,2.072,0.824,2.952,1.512
        s1.592,1.568,2.136,2.64c0.544,1.072,0.816,2.36,0.816,3.864c0,1.456-0.272,2.716-0.816,3.78s-1.256,1.943-2.136,2.64
        s-1.864,1.216-2.952,1.561c-1.088,0.344-2.176,0.516-3.264,0.516h-5.832V7.688z M59.732,22.593h2.976
        c1.024,0,1.972-0.145,2.844-0.432c0.872-0.288,1.624-0.704,2.256-1.248c0.632-0.544,1.124-1.216,1.476-2.017
        c0.352-0.8,0.528-1.704,0.528-2.712c0-1.056-0.176-1.983-0.528-2.784c-0.353-0.8-0.844-1.468-1.476-2.004
        c-0.632-0.536-1.384-0.944-2.256-1.224s-1.82-0.42-2.844-0.42h-2.976V22.593z"/>
    <path fill="#666666" d="M86.06,18.969c0,0.88-0.156,1.688-0.468,2.424c-0.312,0.736-0.744,1.372-1.296,1.908
        c-0.552,0.536-1.204,0.952-1.956,1.248c-0.752,0.296-1.56,0.443-2.424,0.443c-0.864,0-1.672-0.147-2.424-0.443
        c-0.752-0.296-1.4-0.712-1.944-1.248c-0.544-0.536-0.972-1.172-1.284-1.908c-0.312-0.735-0.468-1.544-0.468-2.424
        s0.156-1.684,0.468-2.412c0.312-0.728,0.74-1.356,1.284-1.884c0.543-0.528,1.191-0.939,1.944-1.236
        c0.752-0.296,1.56-0.444,2.424-0.444c0.864,0,1.672,0.148,2.424,0.444c0.752,0.297,1.404,0.708,1.956,1.236
        c0.552,0.527,0.984,1.156,1.296,1.884C85.904,17.285,86.06,18.089,86.06,18.969z M83.708,18.98c0-0.542-0.084-1.061-0.252-1.556
        c-0.169-0.494-0.414-0.929-0.734-1.304s-0.718-0.674-1.192-0.897s-1.015-0.335-1.625-0.335c-0.61,0-1.152,0.111-1.625,0.335
        c-0.474,0.224-0.871,0.522-1.191,0.897c-0.321,0.375-0.566,0.81-0.734,1.304C76.184,17.92,76.1,18.438,76.1,18.98
        c0,0.543,0.084,1.062,0.253,1.556c0.168,0.495,0.413,0.934,0.734,1.316c0.321,0.383,0.718,0.686,1.191,0.909
        c0.473,0.224,1.015,0.335,1.625,0.335c0.61,0,1.151-0.111,1.625-0.335s0.871-0.526,1.192-0.909s0.565-0.821,0.734-1.316
        C83.624,20.042,83.708,19.523,83.708,18.98z"/>
    <path fill="#666666" d="M96.428,16.184c-0.24-0.368-0.6-0.676-1.08-0.924s-0.992-0.372-1.536-0.372
        c-0.592,0-1.116,0.112-1.572,0.336c-0.456,0.225-0.844,0.524-1.164,0.9c-0.32,0.376-0.564,0.812-0.732,1.308
        s-0.252,1.017-0.252,1.56c0,0.545,0.084,1.064,0.252,1.561s0.412,0.933,0.732,1.308c0.32,0.376,0.712,0.677,1.176,0.9
        c0.464,0.225,0.992,0.336,1.584,0.336c0.576,0,1.1-0.111,1.572-0.336c0.472-0.224,0.86-0.528,1.164-0.912l1.512,1.368
        c-0.48,0.561-1.08,0.996-1.8,1.308c-0.72,0.312-1.536,0.468-2.448,0.468c-0.88,0-1.692-0.144-2.436-0.432
        c-0.744-0.288-1.388-0.691-1.932-1.212c-0.544-0.52-0.972-1.147-1.284-1.884s-0.468-1.561-0.468-2.473
        c0-0.896,0.152-1.711,0.456-2.447c0.304-0.736,0.728-1.368,1.272-1.896c0.543-0.527,1.188-0.936,1.932-1.224
        c0.744-0.288,1.548-0.433,2.412-0.433c0.8,0,1.596,0.16,2.388,0.48s1.419,0.784,1.884,1.392L96.428,16.184z"/>
    <path fill="#666666" d="M103.1,23.24c0,0.417-0.152,0.784-0.456,1.104c-0.304,0.32-0.688,0.479-1.152,0.479
        c-0.448,0-0.828-0.155-1.14-0.468c-0.312-0.312-0.468-0.676-0.468-1.092c0-0.432,0.152-0.804,0.456-1.116
        c0.304-0.312,0.688-0.468,1.152-0.468c0.464,0,0.848,0.152,1.152,0.456C102.947,22.44,103.1,22.808,103.1,23.24z"/>
    <path fill="#666666" d="M116.635,18.969c0,0.88-0.156,1.688-0.468,2.424c-0.312,0.736-0.744,1.372-1.296,1.908
        c-0.552,0.536-1.204,0.952-1.956,1.248c-0.752,0.296-1.56,0.443-2.424,0.443c-0.864,0-1.672-0.147-2.424-0.443
        c-0.752-0.296-1.4-0.712-1.944-1.248c-0.544-0.536-0.972-1.172-1.284-1.908c-0.312-0.735-0.468-1.544-0.468-2.424
        s0.156-1.684,0.468-2.412c0.312-0.728,0.74-1.356,1.284-1.884c0.543-0.528,1.191-0.939,1.944-1.236
        c0.752-0.296,1.56-0.444,2.424-0.444c0.864,0,1.672,0.148,2.424,0.444c0.752,0.297,1.404,0.708,1.956,1.236
        c0.552,0.527,0.984,1.156,1.296,1.884C116.479,17.285,116.635,18.089,116.635,18.969z M114.283,18.98
        c0-0.542-0.084-1.061-0.252-1.556c-0.169-0.494-0.414-0.929-0.734-1.304s-0.718-0.674-1.192-0.897s-1.015-0.335-1.625-0.335
        c-0.61,0-1.152,0.111-1.625,0.335c-0.474,0.224-0.871,0.522-1.191,0.897c-0.321,0.375-0.566,0.81-0.734,1.304
        c-0.169,0.495-0.253,1.014-0.253,1.556c0,0.543,0.084,1.062,0.253,1.556c0.168,0.495,0.413,0.934,0.734,1.316
        c0.321,0.383,0.718,0.686,1.191,0.909c0.473,0.224,1.015,0.335,1.625,0.335c0.61,0,1.151-0.111,1.625-0.335
        s0.871-0.526,1.192-0.909s0.565-0.821,0.734-1.316C114.199,20.042,114.283,19.523,114.283,18.98z"/>
    <path fill="#666666" d="M119.251,14.577c-0.016-0.48-0.04-0.904-0.072-1.272h2.136c0.032,0.288,0.056,0.62,0.072,0.996
        c0.016,0.376,0.024,0.684,0.024,0.924h0.072c0.32-0.672,0.788-1.212,1.404-1.62c0.616-0.408,1.308-0.612,2.076-0.612
        c0.352,0,0.648,0.033,0.888,0.097l-0.096,2.088c-0.32-0.08-0.664-0.12-1.032-0.12c-0.544,0-1.016,0.101-1.416,0.3
        c-0.4,0.2-0.732,0.468-0.996,0.805c-0.264,0.336-0.46,0.724-0.588,1.163c-0.128,0.44-0.192,0.9-0.192,1.381v5.976h-2.256v-8.928
        C119.275,15.449,119.267,15.056,119.251,14.577z"/>
    <path fill="#666666" d="M128.419,26.625c0.496,0.56,1.116,1.008,1.86,1.344c0.744,0.336,1.508,0.504,2.292,0.504
        c0.752,0,1.384-0.108,1.896-0.324s0.924-0.512,1.236-0.888s0.536-0.82,0.672-1.332c0.136-0.513,0.204-1.064,0.204-1.656v-1.464
        h-0.048c-0.416,0.641-0.984,1.128-1.704,1.464c-0.72,0.336-1.488,0.504-2.304,0.504c-0.864,0-1.652-0.151-2.364-0.456
        c-0.712-0.304-1.316-0.72-1.812-1.248c-0.496-0.527-0.88-1.147-1.152-1.859s-0.408-1.477-0.408-2.292
        c0-0.816,0.136-1.584,0.408-2.305c0.272-0.72,0.656-1.348,1.152-1.884c0.496-0.535,1.096-0.96,1.8-1.271
        c0.704-0.312,1.488-0.469,2.352-0.469c0.816,0,1.596,0.177,2.34,0.528c0.744,0.353,1.332,0.888,1.764,1.608h0.048v-1.824h2.184
        v10.8c0,0.832-0.104,1.628-0.312,2.388c-0.208,0.76-0.56,1.433-1.056,2.017s-1.144,1.052-1.944,1.404
        c-0.8,0.352-1.792,0.527-2.976,0.527c-0.992,0-1.988-0.18-2.988-0.54c-1-0.359-1.86-0.868-2.58-1.523L128.419,26.625z
         M129.091,18.873c0,0.527,0.084,1.031,0.253,1.512c0.168,0.479,0.417,0.904,0.746,1.271c0.329,0.369,0.726,0.664,1.192,0.889
        c0.465,0.224,0.995,0.336,1.589,0.336c0.577,0,1.107-0.104,1.589-0.312c0.481-0.207,0.891-0.491,1.228-0.852
        s0.598-0.784,0.782-1.272c0.185-0.487,0.277-1.012,0.277-1.571c0-0.544-0.093-1.057-0.277-1.536
        c-0.185-0.48-0.449-0.904-0.794-1.272c-0.345-0.367-0.755-0.66-1.228-0.876c-0.474-0.216-1-0.324-1.577-0.324
        c-0.594,0-1.124,0.108-1.589,0.324c-0.466,0.216-0.863,0.504-1.192,0.864s-0.578,0.784-0.746,1.271
        C129.175,17.812,129.091,18.329,129.091,18.873z"/>
</g>
<g><a xlink:href="/" pointer-events="all" target="_top"><polygon fill="none" points="0,0 145,0 145,35 0,35 0,0"/></a></g>

</g>


<!-- AnyBidirectionalIndex -->
<g id="node1" class="node">
<g id="a_node1"><a xlink:href="/v2.0/type/AnyBidirectionalIndex/" target="_top">
<polygon fill="#999999" stroke="#999999" points="124.55,-22 -0.549813,-22 -0.549813,-0 124.55,-0 124.55,-22"/>
<text text-anchor="middle" x="62" y="-7.4" font-family="Helvetica,sans-Serif" font-size="12.00" fill="white">AnyBidirectionalIndex</text>
</a>
</g>
</g>
<!-- AnyRandomAccessIndex -->
<g id="node2" class="node">
<g id="a_node2"><a xlink:href="/v2.0/type/AnyRandomAccessIndex/" target="_top">
<polygon fill="#999999" stroke="#999999" points="287.051,-22 142.949,-22 142.949,-0 287.051,-0 287.051,-22"/>
<text text-anchor="middle" x="215" y="-7.4" font-family="Helvetica,sans-Serif" font-size="12.00" fill="white">AnyRandomAccessIndex</text>
</a>
</g>
</g>
<!-- BidirectionalIndexType -->
<g id="node3" class="node">
<g id="a_node3"><a xlink:href="/v2.0/protocol/BidirectionalIndexType/" target="_top">
<path fill="#ee543d" stroke="#ee543d" d="M1426.73,-254C1426.73,-254 1311.27,-254 1311.27,-254 1307.61,-254 1303.94,-250.333 1303.94,-246.667 1303.94,-246.667 1303.94,-239.333 1303.94,-239.333 1303.94,-235.667 1307.61,-232 1311.27,-232 1311.27,-232 1426.73,-232 1426.73,-232 1430.39,-232 1434.06,-235.667 1434.06,-239.333 1434.06,-239.333 1434.06,-246.667 1434.06,-246.667 1434.06,-250.333 1430.39,-254 1426.73,-254"/>
<text text-anchor="middle" x="1369" y="-239.4" font-family="Helvetica,sans-Serif" font-size="12.00" fill="white">BidirectionalIndexType</text>
</a>
</g>
</g>
<!-- BidirectionalIndexType&#45;&gt;AnyBidirectionalIndex -->
<g id="edge1" class="edge">
<path fill="none" stroke="#cccccc" d="M1303.83,-241.198C1132.21,-238.648 670.743,-228.853 522,-196 350.338,-158.085 159.568,-63.4263 89.6217,-26.7985"/>
<polygon fill="#cccccc" stroke="#cccccc" points="91.0469,-23.5933 80.5685,-22.0272 87.7832,-29.7859 91.0469,-23.5933"/>
</g>
<!-- BidirectionalIndexType&#45;&gt;AnyRandomAccessIndex -->
<g id="edge2" class="edge">
<path fill="none" stroke="#cccccc" d="M1303.84,-241.425C1142.11,-239.473 725.73,-231.088 592,-196 449.195,-158.531 296.16,-65.0278 238.64,-27.7266"/>
<polygon fill="#cccccc" stroke="#cccccc" points="240.225,-24.5813 229.939,-22.0388 236.394,-30.4403 240.225,-24.5813"/>
</g>
<!-- Bit -->
<g id="node4" class="node">
<g id="a_node4"><a xlink:href="/v2.0/type/Bit/" target="_top">
<polygon fill="#999999" stroke="#999999" points="431,-22 377,-22 377,-0 431,-0 431,-22"/>
<text text-anchor="middle" x="404" y="-7.4" font-family="Helvetica,sans-Serif" font-size="12.00" fill="white">Bit</text>
</a>
</g>
</g>
<!-- BidirectionalIndexType&#45;&gt;Bit -->
<g id="edge3" class="edge">
<path fill="none" stroke="#cccccc" d="M1303.93,-240.473C1163.17,-236.66 834.443,-224.872 727,-196 613.359,-165.462 588.44,-142.917 489,-80 464.793,-64.6839 439.452,-43.6654 422.807,-29.0669"/>
<polygon fill="#cccccc" stroke="#cccccc" points="424.747,-26.1088 414.947,-22.0823 420.097,-31.3413 424.747,-26.1088"/>
</g>
<!-- FlattenBidirectionalCollectionIndex -->
<g id="node6" class="node">
<g id="a_node6"><a xlink:href="/v2.0/type/FlattenBidirectionalCollectionIndex/" target="_top">
<polygon fill="#999999" stroke="#999999" points="2332.08,-22 2137.92,-22 2137.92,-0 2332.08,-0 2332.08,-22"/>
<text text-anchor="middle" x="2235" y="-7.4" font-family="Helvetica,sans-Serif" font-size="12.00" fill="white">FlattenBidirectionalCollectionIndex</text>
</a>
</g>
</g>
<!-- BidirectionalIndexType&#45;&gt;FlattenBidirectionalCollectionIndex -->
<g id="edge4" class="edge">
<path fill="none" stroke="#cccccc" d="M1434.11,-239.941C1591.94,-234.611 1986.03,-219.139 2041,-196 2125.76,-160.318 2195.52,-69.6642 2222.73,-30.4938"/>
<polygon fill="#cccccc" stroke="#cccccc" points="2225.7,-32.3543 2228.44,-22.1206 2219.92,-28.4104 2225.7,-32.3543"/>
</g>
<!-- Int -->
<g id="node8" class="node">
<g id="a_node8"><a xlink:href="/v2.0/type/Int/" target="_top">
<polygon fill="#999999" stroke="#999999" points="359,-22 305,-22 305,-0 359,-0 359,-22"/>
<text text-anchor="middle" x="332" y="-7.4" font-family="Helvetica,sans-Serif" font-size="12.00" fill="white">Int</text>
</a>
</g>
</g>
<!-- BidirectionalIndexType&#45;&gt;Int -->
<g id="edge5" class="edge">
<path fill="none" stroke="#cccccc" d="M1303.7,-241.251C1151.14,-238.947 775.134,-229.9 654,-196 528.795,-160.961 400.764,-66.7145 352.268,-28.4672"/>
<polygon fill="#cccccc" stroke="#cccccc" points="354.159,-25.4986 344.157,-22.0041 349.797,-30.9732 354.159,-25.4986"/>
</g>
<!-- Int16 -->
<g id="node9" class="node">
<g id="a_node9"><a xlink:href="/v2.0/type/Int16/" target="_top">
<polygon fill="#999999" stroke="#999999" points="692,-22 638,-22 638,-0 692,-0 692,-22"/>
<text text-anchor="middle" x="665" y="-7.4" font-family="Helvetica,sans-Serif" font-size="12.00" fill="white">Int16</text>
</a>
</g>
</g>
<!-- BidirectionalIndexType&#45;&gt;Int16 -->
<g id="edge6" class="edge">
<path fill="none" stroke="#cccccc" d="M1303.61,-238.852C1187.11,-232.771 948.339,-218.033 868,-196 777.294,-171.124 741.122,-159.587 691,-80 681.554,-65.0004 674.654,-46.0263 670.346,-31.9346"/>
<polygon fill="#cccccc" stroke="#cccccc" points="673.689,-30.8969 667.557,-22.2569 666.963,-32.8351 673.689,-30.8969"/>
</g>
<!-- Int32 -->
<g id="node10" class="node">
<g id="a_node10"><a xlink:href="/v2.0/type/Int32/" target="_top">
<polygon fill="#999999" stroke="#999999" points="791,-22 737,-22 737,-0 791,-0 791,-22"/>
<text text-anchor="middle" x="764" y="-7.4" font-family="Helvetica,sans-Serif" font-size="12.00" fill="white">Int32</text>
</a>
</g>
</g>
<!-- BidirectionalIndexType&#45;&gt;Int32 -->
<g id="edge7" class="edge">
<path fill="none" stroke="#cccccc" d="M1303.66,-240.434C1224.89,-237.161 1089.09,-227.07 977,-196 856.235,-162.525 787.985,-185.275 720,-80 708.697,-62.4973 725.219,-42.4753 741.142,-28.7137"/>
<polygon fill="#cccccc" stroke="#cccccc" points="743.696,-31.1488 749.263,-22.1345 739.29,-25.7095 743.696,-31.1488"/>
</g>
<!-- Int64 -->
<g id="node11" class="node">
<g id="a_node11"><a xlink:href="/v2.0/type/Int64/" target="_top">
<polygon fill="#999999" stroke="#999999" points="1035,-22 981,-22 981,-0 1035,-0 1035,-22"/>
<text text-anchor="middle" x="1008" y="-7.4" font-family="Helvetica,sans-Serif" font-size="12.00" fill="white">Int64</text>
</a>
</g>
</g>
<!-- BidirectionalIndexType&#45;&gt;Int64 -->
<g id="edge8" class="edge">
<path fill="none" stroke="#cccccc" d="M1303.9,-242.63C1214.72,-241.996 1061.3,-235.052 1024,-196 981.265,-151.26 993.861,-69.4332 1002.66,-31.8425"/>
<polygon fill="#cccccc" stroke="#cccccc" points="1006.07,-32.6319 1005.09,-22.0818 999.276,-30.9361 1006.07,-32.6319"/>
</g>
<!-- Int8 -->
<g id="node12" class="node">
<g id="a_node12"><a xlink:href="/v2.0/type/Int8/" target="_top">
<polygon fill="#999999" stroke="#999999" points="921,-22 867,-22 867,-0 921,-0 921,-22"/>
<text text-anchor="middle" x="894" y="-7.4" font-family="Helvetica,sans-Serif" font-size="12.00" fill="white">Int8</text>
</a>
</g>
</g>
<!-- BidirectionalIndexType&#45;&gt;Int8 -->
<g id="edge9" class="edge">
<path fill="none" stroke="#cccccc" d="M1303.75,-240.484C1212.6,-237.25 1052.92,-227.178 1005,-196 944.118,-156.386 911.638,-70.601 899.574,-31.7865"/>
<polygon fill="#cccccc" stroke="#cccccc" points="902.916,-30.7457 896.706,-22.1617 896.207,-32.7448 902.916,-30.7457"/>
</g>
<!-- RandomAccessIndexType -->
<g id="node14" class="node">
<g id="a_node14"><a xlink:href="/v2.0/protocol/RandomAccessIndexType/" target="_top">
<path fill="#999999" stroke="#999999" d="M1175.23,-196C1175.23,-196 1040.77,-196 1040.77,-196 1037.11,-196 1033.44,-192.333 1033.44,-188.667 1033.44,-188.667 1033.44,-181.333 1033.44,-181.333 1033.44,-177.667 1037.11,-174 1040.77,-174 1040.77,-174 1175.23,-174 1175.23,-174 1178.89,-174 1182.56,-177.667 1182.56,-181.333 1182.56,-181.333 1182.56,-188.667 1182.56,-188.667 1182.56,-192.333 1178.89,-196 1175.23,-196"/>
<text text-anchor="middle" x="1108" y="-181.4" font-family="Helvetica,sans-Serif" font-size="12.00" fill="white">RandomAccessIndexType</text>
</a>
</g>
</g>
<!-- BidirectionalIndexType&#45;&gt;RandomAccessIndexType -->
<g id="edge10" class="edge">
<path fill="none" stroke="#cccccc" d="M1322.34,-231.988C1278.22,-222.521 1211.92,-208.297 1164.75,-198.177"/>
<polygon fill="#cccccc" stroke="#cccccc" points="1165.21,-194.695 1154.7,-196.019 1163.74,-201.539 1165.21,-194.695"/>
</g>
<!-- ReverseIndex -->
<g id="node15" class="node">
<g id="a_node15"><a xlink:href="/v2.0/type/ReverseIndex/" target="_top">
<polygon fill="#999999" stroke="#999999" points="2120.03,-22 2035.97,-22 2035.97,-0 2120.03,-0 2120.03,-22"/>
<text text-anchor="middle" x="2078" y="-7.4" font-family="Helvetica,sans-Serif" font-size="12.00" fill="white">ReverseIndex</text>
</a>
</g>
</g>
<!-- BidirectionalIndexType&#45;&gt;ReverseIndex -->
<g id="edge11" class="edge">
<path fill="none" stroke="#cccccc" d="M1434.31,-240.009C1586.63,-234.979 1956.35,-220.396 2007,-196 2070.19,-165.564 2088.47,-145.328 2114,-80 2120.93,-62.2784 2109,-43.226 2097.06,-29.81"/>
<polygon fill="#cccccc" stroke="#cccccc" points="2099.24,-27.0306 2089.79,-22.2472 2094.19,-31.8819 2099.24,-27.0306"/>
</g>
<!-- ReverseIndexType -->
<g id="node16" class="node">
<g id="a_node16"><a xlink:href="/v2.0/protocol/ReverseIndexType/" target="_top">
<path fill="#999999" stroke="#999999" d="M2097.71,-80C2097.71,-80 2002.29,-80 2002.29,-80 1998.62,-80 1994.95,-76.3333 1994.95,-72.6667 1994.95,-72.6667 1994.95,-65.3333 1994.95,-65.3333 1994.95,-61.6667 1998.62,-58 2002.29,-58 2002.29,-58 2097.71,-58 2097.71,-58 2101.38,-58 2105.05,-61.6667 2105.05,-65.3333 2105.05,-65.3333 2105.05,-72.6667 2105.05,-72.6667 2105.05,-76.3333 2101.38,-80 2097.71,-80"/>
<text text-anchor="middle" x="2050" y="-65.4" font-family="Helvetica,sans-Serif" font-size="12.00" fill="white">ReverseIndexType</text>
</a>
</g>
</g>
<!-- BidirectionalIndexType&#45;&gt;ReverseIndexType -->
<g id="edge12" class="edge">
<path fill="none" stroke="#cccccc" d="M1434.27,-240.586C1582.63,-236.878 1935.88,-225.073 1981,-196 2018.92,-171.564 2037.7,-118.75 2045.46,-89.8637"/>
<polygon fill="#cccccc" stroke="#cccccc" points="2048.88,-90.6236 2047.91,-80.0731 2042.09,-88.9245 2048.88,-90.6236"/>
</g>
<!-- ReverseRandomAccessIndex -->
<g id="node17" class="node">
<g id="a_node17"><a xlink:href="/v2.0/type/ReverseRandomAccessIndex/" target="_top">
<polygon fill="#999999" stroke="#999999" points="2018.06,-22 1849.94,-22 1849.94,-0 2018.06,-0 2018.06,-22"/>
<text text-anchor="middle" x="1934" y="-7.4" font-family="Helvetica,sans-Serif" font-size="12.00" fill="white">ReverseRandomAccessIndex</text>
</a>
</g>
</g>
<!-- BidirectionalIndexType&#45;&gt;ReverseRandomAccessIndex -->
<g id="edge13" class="edge">
<path fill="none" stroke="#cccccc" d="M1426.75,-231.999C1466.1,-224.31 1519.02,-212.246 1564,-196 1699.46,-147.078 1850.01,-61.7273 1908.67,-27.171"/>
<polygon fill="#cccccc" stroke="#cccccc" points="1910.46,-30.1803 1917.28,-22.0745 1906.9,-24.1566 1910.46,-30.1803"/>
</g>
<!-- String.CharacterView.Index -->
<g id="node19" class="node">
<g id="a_node19"><a xlink:href="/v2.0/type/String.CharacterView.Index/" target="_top">
<polygon fill="#999999" stroke="#999999" points="2505.4,-22 2350.6,-22 2350.6,-0 2505.4,-0 2505.4,-22"/>
<text text-anchor="middle" x="2428" y="-7.4" font-family="Helvetica,sans-Serif" font-size="12.00" fill="white">String.CharacterView.Index</text>
</a>
</g>
</g>
<!-- BidirectionalIndexType&#45;&gt;String.CharacterView.Index -->
<g id="edge21" class="edge">
<path fill="none" stroke="#cccccc" d="M1434.32,-241.18C1585.49,-238.729 1955.6,-229.402 2075,-196 2209.64,-158.334 2351.92,-65.298 2405.69,-27.9218"/>
<polygon fill="#cccccc" stroke="#cccccc" points="2407.94,-30.6219 2414.11,-22.0154 2403.92,-24.8902 2407.94,-30.6219"/>
</g>
<!-- String.UTF16View.Index -->
<g id="node20" class="node">
<g id="a_node20"><a xlink:href="/v2.0/type/String.UTF16View.Index/" target="_top">
<polygon fill="#999999" stroke="#999999" points="2662.39,-22 2523.61,-22 2523.61,-0 2662.39,-0 2662.39,-22"/>
<text text-anchor="middle" x="2593" y="-7.4" font-family="Helvetica,sans-Serif" font-size="12.00" fill="white">String.UTF16View.Index</text>
</a>
</g>
</g>
<!-- BidirectionalIndexType&#45;&gt;String.UTF16View.Index -->
<g id="edge23" class="edge">
<path fill="none" stroke="#cccccc" d="M1434.22,-240.602C1592.01,-236.803 1990.94,-224.594 2121,-196 2296.52,-157.414 2492.54,-63.2071 2564.52,-26.7477"/>
<polygon fill="#cccccc" stroke="#cccccc" points="2566.14,-29.8548 2573.46,-22.1963 2562.96,-23.6177 2566.14,-29.8548"/>
</g>
<!-- String.UnicodeScalarView.Index -->
<g id="node21" class="node">
<g id="a_node21"><a xlink:href="/v2.0/type/String.UnicodeScalarView.Index/" target="_top">
<polygon fill="#999999" stroke="#999999" points="2860.92,-22 2681.08,-22 2681.08,-0 2860.92,-0 2860.92,-22"/>
<text text-anchor="middle" x="2771" y="-7.4" font-family="Helvetica,sans-Serif" font-size="12.00" fill="white">String.UnicodeScalarView.Index</text>
</a>
</g>
</g>
<!-- BidirectionalIndexType&#45;&gt;String.UnicodeScalarView.Index -->
<g id="edge22" class="edge">
<path fill="none" stroke="#cccccc" d="M1434.25,-240.324C1600,-235.738 2034.1,-221.591 2176,-196 2395.23,-156.463 2646.97,-61.3892 2736.89,-25.7774"/>
<polygon fill="#cccccc" stroke="#cccccc" points="2738.32,-28.9781 2746.32,-22.0292 2735.73,-22.4739 2738.32,-28.9781"/>
</g>
<!-- UInt -->
<g id="node22" class="node">
<g id="a_node22"><a xlink:href="/v2.0/type/UInt/" target="_top">
<polygon fill="#999999" stroke="#999999" points="1227,-22 1173,-22 1173,-0 1227,-0 1227,-22"/>
<text text-anchor="middle" x="1200" y="-7.4" font-family="Helvetica,sans-Serif" font-size="12.00" fill="white">UInt</text>
</a>
</g>
</g>
<!-- BidirectionalIndexType&#45;&gt;UInt -->
<g id="edge14" class="edge">
<path fill="none" stroke="#cccccc" d="M1361.52,-231.82C1335.29,-196.122 1247.24,-76.2938 1213.4,-30.2419"/>
<polygon fill="#cccccc" stroke="#cccccc" points="1216.14,-28.0481 1207.39,-22.062 1210.49,-32.193 1216.14,-28.0481"/>
</g>
<!-- UInt16 -->
<g id="node23" class="node">
<g id="a_node23"><a xlink:href="/v2.0/type/UInt16/" target="_top">
<polygon fill="#999999" stroke="#999999" points="1633,-22 1579,-22 1579,-0 1633,-0 1633,-22"/>
<text text-anchor="middle" x="1606" y="-7.4" font-family="Helvetica,sans-Serif" font-size="12.00" fill="white">UInt16</text>
</a>
</g>
</g>
<!-- BidirectionalIndexType&#45;&gt;UInt16 -->
<g id="edge15" class="edge">
<path fill="none" stroke="#cccccc" d="M1398.83,-231.851C1420.2,-223.845 1449.12,-211.46 1472,-196 1535.45,-153.126 1579.62,-69.7302 1597.35,-31.7255"/>
<polygon fill="#cccccc" stroke="#cccccc" points="1600.69,-32.8334 1601.64,-22.2813 1594.31,-29.9375 1600.69,-32.8334"/>
</g>
<!-- UInt32 -->
<g id="node24" class="node">
<g id="a_node24"><a xlink:href="/v2.0/type/UInt32/" target="_top">
<polygon fill="#999999" stroke="#999999" points="1728,-22 1674,-22 1674,-0 1728,-0 1728,-22"/>
<text text-anchor="middle" x="1701" y="-7.4" font-family="Helvetica,sans-Serif" font-size="12.00" fill="white">UInt32</text>
</a>
</g>
</g>
<!-- BidirectionalIndexType&#45;&gt;UInt32 -->
<g id="edge16" class="edge">
<path fill="none" stroke="#cccccc" d="M1411.02,-231.921C1437.69,-224.418 1472.29,-212.592 1500,-196 1579.29,-148.528 1654.61,-66.3704 1685.85,-30.1009"/>
<polygon fill="#cccccc" stroke="#cccccc" points="1688.67,-32.1858 1692.49,-22.3042 1683.34,-27.6459 1688.67,-32.1858"/>
</g>
<!-- UInt64 -->
<g id="node25" class="node">
<g id="a_node25"><a xlink:href="/v2.0/type/UInt64/" target="_top">
<polygon fill="#999999" stroke="#999999" points="1320,-22 1266,-22 1266,-0 1320,-0 1320,-22"/>
<text text-anchor="middle" x="1293" y="-7.4" font-family="Helvetica,sans-Serif" font-size="12.00" fill="white">UInt64</text>
</a>
</g>
</g>
<!-- BidirectionalIndexType&#45;&gt;UInt64 -->
<g id="edge17" class="edge">
<path fill="none" stroke="#cccccc" d="M1365.64,-231.82C1353.96,-196.494 1315.07,-78.7811 1299.51,-31.7049"/>
<polygon fill="#cccccc" stroke="#cccccc" points="1302.79,-30.4589 1296.32,-22.062 1296.14,-32.6552 1302.79,-30.4589"/>
</g>
<!-- UInt8 -->
<g id="node26" class="node">
<g id="a_node26"><a xlink:href="/v2.0/type/UInt8/" target="_top">
<polygon fill="#999999" stroke="#999999" points="1533,-22 1479,-22 1479,-0 1533,-0 1533,-22"/>
<text text-anchor="middle" x="1506" y="-7.4" font-family="Helvetica,sans-Serif" font-size="12.00" fill="white">UInt8</text>
</a>
</g>
</g>
<!-- BidirectionalIndexType&#45;&gt;UInt8 -->
<g id="edge18" class="edge">
<path fill="none" stroke="#cccccc" d="M1388,-231.985C1426.7,-210.355 1513.8,-155.098 1547,-80 1555.09,-61.7019 1540.83,-42.2968 1526.96,-28.9204"/>
<polygon fill="#cccccc" stroke="#cccccc" points="1529.22,-26.2412 1519.44,-22.1545 1524.54,-31.445 1529.22,-26.2412"/>
</g>
<!-- UnsafeMutablePointer -->
<g id="node27" class="node">
<g id="a_node27"><a xlink:href="/v2.0/type/UnsafeMutablePointer/" target="_top">
<polygon fill="#999999" stroke="#999999" points="577.051,-22 448.949,-22 448.949,-0 577.051,-0 577.051,-22"/>
<text text-anchor="middle" x="513" y="-7.4" font-family="Helvetica,sans-Serif" font-size="12.00" fill="white">UnsafeMutablePointer</text>
</a>
</g>
</g>
<!-- BidirectionalIndexType&#45;&gt;UnsafeMutablePointer -->
<g id="edge19" class="edge">
<path fill="none" stroke="#cccccc" d="M1303.56,-240.185C1173.68,-236.025 887.825,-223.923 794,-196 690.683,-165.252 667.33,-144.551 581,-80 561.104,-65.1235 541.364,-44.5676 528.32,-29.9603"/>
<polygon fill="#cccccc" stroke="#cccccc" points="530.686,-27.3496 521.463,-22.1351 525.421,-31.9629 530.686,-27.3496"/>
</g>
<!-- UnsafePointer -->
<g id="node28" class="node">
<g id="a_node28"><a xlink:href="/v2.0/type/UnsafePointer/" target="_top">
<polygon fill="#999999" stroke="#999999" points="1832.03,-22 1745.97,-22 1745.97,-0 1832.03,-0 1832.03,-22"/>
<text text-anchor="middle" x="1789" y="-7.4" font-family="Helvetica,sans-Serif" font-size="12.00" fill="white">UnsafePointer</text>
</a>
</g>
</g>
<!-- BidirectionalIndexType&#45;&gt;UnsafePointer -->
<g id="edge20" class="edge">
<path fill="none" stroke="#cccccc" d="M1420.65,-231.945C1453.06,-224.509 1495.15,-212.747 1530,-196 1628.14,-148.837 1728.93,-65.0044 1769.93,-29.096"/>
<polygon fill="#cccccc" stroke="#cccccc" points="1772.35,-31.6266 1777.53,-22.3845 1767.72,-26.3789 1772.35,-31.6266"/>
</g>
<!-- Equatable -->
<g id="node5" class="node">
<g id="a_node5"><a xlink:href="/v2.0/protocol/Equatable/" target="_top">
<path fill="#999999" stroke="#999999" d="M1393.7,-428C1393.7,-428 1344.3,-428 1344.3,-428 1340.63,-428 1336.96,-424.333 1336.96,-420.667 1336.96,-420.667 1336.96,-413.333 1336.96,-413.333 1336.96,-409.667 1340.63,-406 1344.3,-406 1344.3,-406 1393.7,-406 1393.7,-406 1397.37,-406 1401.04,-409.667 1401.04,-413.333 1401.04,-413.333 1401.04,-420.667 1401.04,-420.667 1401.04,-424.333 1397.37,-428 1393.7,-428"/>
<text text-anchor="middle" x="1369" y="-413.4" font-family="Helvetica,sans-Serif" font-size="12.00" fill="white">Equatable</text>
</a>
</g>
</g>
<!-- _Incrementable -->
<g id="node30" class="node">
<g id="a_node30"><a xlink:href="/v2.0/protocol/_Incrementable/" target="_top">
<path fill="#999999" stroke="#999999" d="M1407.71,-370C1407.71,-370 1330.29,-370 1330.29,-370 1326.63,-370 1322.96,-366.333 1322.96,-362.667 1322.96,-362.667 1322.96,-355.333 1322.96,-355.333 1322.96,-351.667 1326.63,-348 1330.29,-348 1330.29,-348 1407.71,-348 1407.71,-348 1411.37,-348 1415.04,-351.667 1415.04,-355.333 1415.04,-355.333 1415.04,-362.667 1415.04,-362.667 1415.04,-366.333 1411.37,-370 1407.71,-370"/>
<text text-anchor="middle" x="1369" y="-355.4" font-family="Helvetica,sans-Serif" font-size="12.00" fill="white">_Incrementable</text>
</a>
</g>
</g>
<!-- Equatable&#45;&gt;_Incrementable -->
<g id="edge67" class="edge">
<path fill="none" stroke="#cccccc" d="M1369,-405.988C1369,-398.91 1369,-389.171 1369,-380.478"/>
<polygon fill="#cccccc" stroke="#cccccc" points="1372.5,-380.304 1369,-370.304 1365.5,-380.304 1372.5,-380.304"/>
</g>
<!-- ForwardIndexType -->
<g id="node7" class="node">
<g id="a_node7"><a xlink:href="/v2.0/protocol/ForwardIndexType/" target="_top">
<path fill="#999999" stroke="#999999" d="M1416.21,-312C1416.21,-312 1321.79,-312 1321.79,-312 1318.13,-312 1314.46,-308.333 1314.46,-304.667 1314.46,-304.667 1314.46,-297.333 1314.46,-297.333 1314.46,-293.667 1318.13,-290 1321.79,-290 1321.79,-290 1416.21,-290 1416.21,-290 1419.87,-290 1423.54,-293.667 1423.54,-297.333 1423.54,-297.333 1423.54,-304.667 1423.54,-304.667 1423.54,-308.333 1419.87,-312 1416.21,-312"/>
<text text-anchor="middle" x="1369" y="-297.4" font-family="Helvetica,sans-Serif" font-size="12.00" fill="white">ForwardIndexType</text>
</a>
</g>
</g>
<!-- ForwardIndexType&#45;&gt;BidirectionalIndexType -->
<g id="edge65" class="edge">
<path fill="none" stroke="#cccccc" d="M1369,-289.988C1369,-282.91 1369,-273.171 1369,-264.478"/>
<polygon fill="#cccccc" stroke="#cccccc" points="1372.5,-264.304 1369,-254.304 1365.5,-264.304 1372.5,-264.304"/>
</g>
<!-- Int&#45;&gt;Bit -->
<g id="edge24" class="edge">
<path fill="none" stroke="#cccccc" d="M359.281,-11C361.738,-11 364.194,-11 366.651,-11"/>
<polygon fill="#cccccc" stroke="#cccccc" points="366.75,-14.5001 376.75,-11 366.749,-7.5001 366.75,-14.5001"/>
</g>
<!-- IntegerType -->
<g id="node13" class="node">
<g id="a_node13"><a xlink:href="/v2.0/protocol/IntegerType/" target="_top">
<path fill="#999999" stroke="#999999" d="M1137.2,-138C1137.2,-138 1078.8,-138 1078.8,-138 1075.13,-138 1071.47,-134.333 1071.47,-130.667 1071.47,-130.667 1071.47,-123.333 1071.47,-123.333 1071.47,-119.667 1075.13,-116 1078.8,-116 1078.8,-116 1137.2,-116 1137.2,-116 1140.87,-116 1144.53,-119.667 1144.53,-123.333 1144.53,-123.333 1144.53,-130.667 1144.53,-130.667 1144.53,-134.333 1140.87,-138 1137.2,-138"/>
<text text-anchor="middle" x="1108" y="-123.4" font-family="Helvetica,sans-Serif" font-size="12.00" fill="white">IntegerType</text>
</a>
</g>
</g>
<!-- IntegerType&#45;&gt;Int -->
<g id="edge41" class="edge">
<path fill="none" stroke="#cccccc" d="M1071.42,-123.035C964.325,-113.897 642.322,-83.1547 369.16,-22.093"/>
<polygon fill="#cccccc" stroke="#cccccc" points="369.581,-18.6001 359.056,-19.8153 368.042,-25.4288 369.581,-18.6001"/>
</g>
<!-- IntegerType&#45;&gt;Int16 -->
<g id="edge42" class="edge">
<path fill="none" stroke="#cccccc" d="M1071.46,-124.76C988.317,-121.433 787.558,-110.404 728,-80 706.073,-68.8062 687.855,-46.7088 676.743,-30.7361"/>
<polygon fill="#cccccc" stroke="#cccccc" points="679.499,-28.5584 671.048,-22.1681 673.669,-32.4336 679.499,-28.5584"/>
</g>
<!-- IntegerType&#45;&gt;Int32 -->
<g id="edge43" class="edge">
<path fill="none" stroke="#cccccc" d="M1077.77,-115.983C1014.64,-95.0619 868.995,-46.7947 800.655,-24.1474"/>
<polygon fill="#cccccc" stroke="#cccccc" points="801.746,-20.8217 791.152,-20.9982 799.544,-27.4663 801.746,-20.8217"/>
</g>
<!-- IntegerType&#45;&gt;Int64 -->
<g id="edge44" class="edge">
<path fill="none" stroke="#cccccc" d="M1105.66,-115.777C1101.98,-101.527 1093.71,-75.4801 1079,-58 1068.24,-45.2166 1053.03,-34.7115 1039.44,-26.9839"/>
<polygon fill="#cccccc" stroke="#cccccc" points="1040.83,-23.7566 1030.37,-22.0839 1037.5,-29.9157 1040.83,-23.7566"/>
</g>
<!-- IntegerType&#45;&gt;Int8 -->
<g id="edge45" class="edge">
<path fill="none" stroke="#cccccc" d="M1089.01,-115.883C1051.17,-95.7287 966.239,-50.4823 921.996,-26.9136"/>
<polygon fill="#cccccc" stroke="#cccccc" points="923.42,-23.7067 912.949,-22.0941 920.129,-29.8848 923.42,-23.7067"/>
</g>
<!-- SignedIntegerType -->
<g id="node18" class="node">
<g id="a_node18"><a xlink:href="/v2.0/protocol/SignedIntegerType/" target="_top">
<path fill="#999999" stroke="#999999" d="M839.727,-80C839.727,-80 744.273,-80 744.273,-80 740.606,-80 736.94,-76.3333 736.94,-72.6667 736.94,-72.6667 736.94,-65.3333 736.94,-65.3333 736.94,-61.6667 740.606,-58 744.273,-58 744.273,-58 839.727,-58 839.727,-58 843.394,-58 847.06,-61.6667 847.06,-65.3333 847.06,-65.3333 847.06,-72.6667 847.06,-72.6667 847.06,-76.3333 843.394,-80 839.727,-80"/>
<text text-anchor="middle" x="792" y="-65.4" font-family="Helvetica,sans-Serif" font-size="12.00" fill="white">SignedIntegerType</text>
</a>
</g>
</g>
<!-- IntegerType&#45;&gt;SignedIntegerType -->
<g id="edge46" class="edge">
<path fill="none" stroke="#cccccc" d="M1071.44,-119.521C1019.16,-110.257 922.22,-93.0769 857.403,-81.5904"/>
<polygon fill="#cccccc" stroke="#cccccc" points="857.745,-78.0966 847.288,-79.7979 856.524,-84.9892 857.745,-78.0966"/>
</g>
<!-- IntegerType&#45;&gt;UInt -->
<g id="edge47" class="edge">
<path fill="none" stroke="#cccccc" d="M1116.16,-115.883C1131.67,-96.6645 1165.6,-54.6301 1185.21,-30.3322"/>
<polygon fill="#cccccc" stroke="#cccccc" points="1188.17,-32.238 1191.72,-22.2579 1182.72,-27.8419 1188.17,-32.238"/>
</g>
<!-- IntegerType&#45;&gt;UInt16 -->
<g id="edge48" class="edge">
<path fill="none" stroke="#cccccc" d="M1144.66,-124.865C1234.13,-121.642 1461.34,-110.6 1530,-80 1555.2,-68.7688 1577.88,-46.0134 1591.77,-29.9259"/>
<polygon fill="#cccccc" stroke="#cccccc" points="1594.49,-32.1385 1598.2,-22.2173 1589.11,-27.6548 1594.49,-32.1385"/>
</g>
<!-- IntegerType&#45;&gt;UInt32 -->
<g id="edge49" class="edge">
<path fill="none" stroke="#cccccc" d="M1144.63,-126.573C1222.74,-126.87 1410.81,-122.647 1561,-80 1603.55,-67.9173 1648.93,-43.4822 1676.12,-27.4328"/>
<polygon fill="#cccccc" stroke="#cccccc" points="1678.17,-30.2849 1684.94,-22.1396 1674.57,-24.2819 1678.17,-30.2849"/>
</g>
<!-- IntegerType&#45;&gt;UInt64 -->
<g id="edge50" class="edge">
<path fill="none" stroke="#cccccc" d="M1124.42,-115.883C1156.92,-95.8554 1229.63,-51.0505 1268.07,-27.3608"/>
<polygon fill="#cccccc" stroke="#cccccc" points="1269.94,-30.3199 1276.62,-22.0941 1266.27,-24.3605 1269.94,-30.3199"/>
</g>
<!-- IntegerType&#45;&gt;UInt8 -->
<g id="edge51" class="edge">
<path fill="none" stroke="#cccccc" d="M1142.97,-115.983C1217.76,-94.5601 1392.66,-44.4639 1469.12,-22.563"/>
<polygon fill="#cccccc" stroke="#cccccc" points="1470.16,-25.9071 1478.81,-19.7887 1468.23,-19.1777 1470.16,-25.9071"/>
</g>
<!-- UnsignedIntegerType -->
<g id="node29" class="node">
<g id="a_node29"><a xlink:href="/v2.0/protocol/UnsignedIntegerType/" target="_top">
<path fill="#999999" stroke="#999999" d="M1513.73,-80C1513.73,-80 1404.27,-80 1404.27,-80 1400.61,-80 1396.94,-76.3333 1396.94,-72.6667 1396.94,-72.6667 1396.94,-65.3333 1396.94,-65.3333 1396.94,-61.6667 1400.61,-58 1404.27,-58 1404.27,-58 1513.73,-58 1513.73,-58 1517.39,-58 1521.06,-61.6667 1521.06,-65.3333 1521.06,-65.3333 1521.06,-72.6667 1521.06,-72.6667 1521.06,-76.3333 1517.39,-80 1513.73,-80"/>
<text text-anchor="middle" x="1459" y="-65.4" font-family="Helvetica,sans-Serif" font-size="12.00" fill="white">UnsignedIntegerType</text>
</a>
</g>
</g>
<!-- IntegerType&#45;&gt;UnsignedIntegerType -->
<g id="edge52" class="edge">
<path fill="none" stroke="#cccccc" d="M1144.57,-120.165C1201.67,-111.055 1313.09,-93.2796 1386.78,-81.5218"/>
<polygon fill="#cccccc" stroke="#cccccc" points="1387.6,-84.9361 1396.92,-79.9042 1386.5,-78.0235 1387.6,-84.9361"/>
</g>
<!-- RandomAccessIndexType&#45;&gt;AnyRandomAccessIndex -->
<g id="edge25" class="edge">
<path fill="none" stroke="#cccccc" d="M1033.36,-184.028C926.851,-182.655 725.712,-174.816 559,-138 438.985,-111.496 304.145,-53.2103 245.247,-26.2258"/>
<polygon fill="#cccccc" stroke="#cccccc" points="246.678,-23.0317 236.132,-22.021 243.746,-29.388 246.678,-23.0317"/>
</g>
<!-- RandomAccessIndexType&#45;&gt;Bit -->
<g id="edge26" class="edge">
<path fill="none" stroke="#cccccc" d="M1033.5,-182.621C948.906,-179.497 807.4,-169.519 690,-138 589.818,-111.104 479.765,-54.1093 430.455,-26.9709"/>
<polygon fill="#cccccc" stroke="#cccccc" points="432.139,-23.9028 421.697,-22.1118 428.743,-30.0238 432.139,-23.9028"/>
</g>
<!-- RandomAccessIndexType&#45;&gt;Int -->
<g id="edge27" class="edge">
<path fill="none" stroke="#cccccc" d="M1033.64,-184.126C937.378,-182.669 765.128,-174.522 623,-138 560.147,-121.849 548.552,-105.785 489,-80 445.893,-61.3358 396.133,-39.782 364.389,-26.0309"/>
<polygon fill="#cccccc" stroke="#cccccc" points="365.71,-22.789 355.143,-22.0256 362.927,-29.2123 365.71,-22.789"/>
</g>
<!-- RandomAccessIndexType&#45;&gt;Int16 -->
<g id="edge28" class="edge">
<path fill="none" stroke="#cccccc" d="M1033.32,-178.492C951.742,-171.585 826.949,-158.148 784,-138 734.074,-114.578 694.64,-60.1095 676.265,-31.0548"/>
<polygon fill="#cccccc" stroke="#cccccc" points="679.076,-28.943 670.857,-22.2573 673.113,-32.6093 679.076,-28.943"/>
</g>
<!-- RandomAccessIndexType&#45;&gt;Int32 -->
<g id="edge29" class="edge">
<path fill="none" stroke="#cccccc" d="M1033.53,-174.335C933.743,-159.682 764.877,-128.326 728,-80 715.898,-64.1409 730.168,-43.6432 744.159,-29.3163"/>
<polygon fill="#cccccc" stroke="#cccccc" points="746.933,-31.5054 751.733,-22.0604 742.091,-26.4504 746.933,-31.5054"/>
</g>
<!-- RandomAccessIndexType&#45;&gt;Int64 -->
<g id="edge30" class="edge">
<path fill="none" stroke="#cccccc" d="M1095.35,-173.737C1085.28,-165.053 1071.37,-151.841 1062,-138 1038.77,-103.684 1022.16,-57.7576 1013.91,-31.8906"/>
<polygon fill="#cccccc" stroke="#cccccc" points="1017.19,-30.6459 1010.89,-22.1252 1010.5,-32.7128 1017.19,-30.6459"/>
</g>
<!-- RandomAccessIndexType&#45;&gt;Int8 -->
<g id="edge31" class="edge">
<path fill="none" stroke="#cccccc" d="M1094.05,-173.979C1081.38,-164.799 1062.24,-150.74 1046,-138 997.401,-99.8728 941.902,-52.9862 913.3,-28.5663"/>
<polygon fill="#cccccc" stroke="#cccccc" points="915.523,-25.8621 905.649,-22.0215 910.973,-31.1815 915.523,-25.8621"/>
</g>
<!-- RandomAccessIndexType&#45;&gt;IntegerType -->
<g id="edge32" class="edge">
<path fill="none" stroke="#cccccc" d="M1108,-173.988C1108,-166.91 1108,-157.171 1108,-148.478"/>
<polygon fill="#cccccc" stroke="#cccccc" points="1111.5,-148.304 1108,-138.304 1104.5,-148.304 1111.5,-148.304"/>
</g>
<!-- RandomAccessIndexType&#45;&gt;ReverseRandomAccessIndex -->
<g id="edge33" class="edge">
<path fill="none" stroke="#cccccc" d="M1182.38,-182.441C1276.48,-179.182 1443.03,-169.113 1582,-138 1704.1,-110.665 1841.91,-53.053 1902.53,-26.2607"/>
<polygon fill="#cccccc" stroke="#cccccc" points="1904.21,-29.3453 1911.92,-22.0831 1901.36,-22.9495 1904.21,-29.3453"/>
</g>
<!-- RandomAccessIndexType&#45;&gt;UInt -->
<g id="edge34" class="edge">
<path fill="none" stroke="#cccccc" d="M1120.54,-173.8C1130.48,-165.152 1144.14,-151.958 1153,-138 1174.79,-103.68 1188.68,-57.7549 1195.34,-31.8893"/>
<polygon fill="#cccccc" stroke="#cccccc" points="1198.75,-32.672 1197.75,-22.1245 1191.96,-30.9935 1198.75,-32.672"/>
</g>
<!-- RandomAccessIndexType&#45;&gt;UInt16 -->
<g id="edge35" class="edge">
<path fill="none" stroke="#cccccc" d="M1182.42,-182.141C1254.12,-178.509 1364.83,-168.015 1456,-138 1506.64,-121.328 1521.83,-116.162 1561,-80 1576.04,-66.1128 1588.45,-46.2137 1596.4,-31.5277"/>
<polygon fill="#cccccc" stroke="#cccccc" points="1599.67,-32.8199 1601.17,-22.3312 1593.46,-29.5978 1599.67,-32.8199"/>
</g>
<!-- RandomAccessIndexType&#45;&gt;UInt32 -->
<g id="edge36" class="edge">
<path fill="none" stroke="#cccccc" d="M1182.61,-183.797C1262.67,-181.624 1392.67,-172.402 1499,-138 1572.96,-114.071 1647.27,-57.3018 1681.5,-28.8559"/>
<polygon fill="#cccccc" stroke="#cccccc" points="1683.92,-31.3914 1689.31,-22.2713 1679.41,-26.0382 1683.92,-31.3914"/>
</g>
<!-- RandomAccessIndexType&#45;&gt;UInt64 -->
<g id="edge37" class="edge">
<path fill="none" stroke="#cccccc" d="M1124.13,-173.847C1137.69,-165.023 1157.31,-151.562 1173,-138 1213.86,-102.679 1256.18,-55.237 1277.99,-29.8323"/>
<polygon fill="#cccccc" stroke="#cccccc" points="1280.74,-31.9928 1284.57,-22.111 1275.42,-27.4531 1280.74,-31.9928"/>
</g>
<!-- RandomAccessIndexType&#45;&gt;UInt8 -->
<g id="edge38" class="edge">
<path fill="none" stroke="#cccccc" d="M1182.78,-176.503C1292.23,-163.813 1487.65,-134.051 1530,-80 1541.38,-65.4733 1531.7,-45.1302 1521.44,-30.4852"/>
<polygon fill="#cccccc" stroke="#cccccc" points="1523.99,-28.0569 1515.15,-22.206 1518.41,-32.288 1523.99,-28.0569"/>
</g>
<!-- RandomAccessIndexType&#45;&gt;UnsafeMutablePointer -->
<g id="edge39" class="edge">
<path fill="none" stroke="#cccccc" d="M1033.34,-182.421C959.114,-179.025 842.808,-168.726 747,-138 663.877,-111.342 575.812,-55.2695 535.509,-27.8184"/>
<polygon fill="#cccccc" stroke="#cccccc" points="537.429,-24.8911 527.207,-22.1062 533.461,-30.658 537.429,-24.8911"/>
</g>
<!-- RandomAccessIndexType&#45;&gt;UnsafePointer -->
<g id="edge40" class="edge">
<path fill="none" stroke="#cccccc" d="M1182.4,-184.106C1269.57,-182.405 1417.55,-173.79 1539,-138 1627.61,-111.888 1722.44,-55.1011 1765.42,-27.5773"/>
<polygon fill="#cccccc" stroke="#cccccc" points="1767.52,-30.3847 1774.02,-22.0149 1763.72,-24.5069 1767.52,-30.3847"/>
</g>
<!-- ReverseIndexType&#45;&gt;ReverseIndex -->
<g id="edge63" class="edge">
<path fill="none" stroke="#cccccc" d="M2055.01,-57.9883C2058.7,-50.5952 2063.85,-40.3005 2068.34,-31.3253"/>
<polygon fill="#cccccc" stroke="#cccccc" points="2071.51,-32.8134 2072.85,-22.3039 2065.25,-29.6829 2071.51,-32.8134"/>
</g>
<!-- ReverseIndexType&#45;&gt;ReverseRandomAccessIndex -->
<g id="edge64" class="edge">
<path fill="none" stroke="#cccccc" d="M2029.26,-57.9883C2011.15,-49.2431 1984.62,-36.4381 1964.16,-26.5594"/>
<polygon fill="#cccccc" stroke="#cccccc" points="1965.48,-23.3094 1954.95,-22.1138 1962.43,-29.6133 1965.48,-23.3094"/>
</g>
<!-- SignedIntegerType&#45;&gt;Int -->
<g id="edge53" class="edge">
<path fill="none" stroke="#cccccc" d="M736.689,-64.8828C657.243,-59.7712 506.184,-47.6901 368.876,-21.8938"/>
<polygon fill="#cccccc" stroke="#cccccc" points="369.494,-18.4486 359.015,-20.0127 368.182,-25.3246 369.494,-18.4486"/>
</g>
<!-- SignedIntegerType&#45;&gt;Int16 -->
<g id="edge54" class="edge">
<path fill="none" stroke="#cccccc" d="M769.295,-57.9883C749.193,-49.1244 719.632,-36.0897 697.11,-26.1587"/>
<polygon fill="#cccccc" stroke="#cccccc" points="698.499,-22.946 687.937,-22.1138 695.675,-29.351 698.499,-22.946"/>
</g>
<!-- SignedIntegerType&#45;&gt;Int32 -->
<g id="edge55" class="edge">
<path fill="none" stroke="#cccccc" d="M786.994,-57.9883C783.298,-50.5952 778.15,-40.3005 773.663,-31.3253"/>
<polygon fill="#cccccc" stroke="#cccccc" points="776.755,-29.6829 769.152,-22.3039 770.494,-32.8134 776.755,-29.6829"/>
</g>
<!-- SignedIntegerType&#45;&gt;Int64 -->
<g id="edge56" class="edge">
<path fill="none" stroke="#cccccc" d="M830.616,-57.9883C870.383,-47.6784 931.915,-31.7257 971.058,-21.5777"/>
<polygon fill="#cccccc" stroke="#cccccc" points="972.182,-24.902 980.983,-19.0044 970.425,-18.1261 972.182,-24.902"/>
</g>
<!-- SignedIntegerType&#45;&gt;Int8 -->
<g id="edge57" class="edge">
<path fill="none" stroke="#cccccc" d="M810.236,-57.9883C825.948,-49.3619 848.856,-36.785 866.745,-26.9633"/>
<polygon fill="#cccccc" stroke="#cccccc" points="868.497,-29.9945 875.578,-22.1138 865.128,-23.8584 868.497,-29.9945"/>
</g>
<!-- UnsignedIntegerType&#45;&gt;UInt -->
<g id="edge58" class="edge">
<path fill="none" stroke="#cccccc" d="M1412.7,-57.9883C1362.51,-47.1373 1283.42,-30.0357 1237.14,-20.0295"/>
<polygon fill="#cccccc" stroke="#cccccc" points="1237.74,-16.5792 1227.23,-17.8867 1236.26,-23.4211 1237.74,-16.5792"/>
</g>
<!-- UnsignedIntegerType&#45;&gt;UInt16 -->
<g id="edge59" class="edge">
<path fill="none" stroke="#cccccc" d="M1485.28,-57.9883C1508.86,-49.0057 1543.68,-35.7398 1569.88,-25.7614"/>
<polygon fill="#cccccc" stroke="#cccccc" points="1571.35,-28.9445 1579.45,-22.1138 1568.86,-22.4031 1571.35,-28.9445"/>
</g>
<!-- UnsignedIntegerType&#45;&gt;UInt32 -->
<g id="edge60" class="edge">
<path fill="none" stroke="#cccccc" d="M1502.26,-57.9883C1548.33,-47.3285 1620.46,-30.6365 1663.99,-20.565"/>
<polygon fill="#cccccc" stroke="#cccccc" points="1664.92,-23.9414 1673.87,-18.277 1663.34,-17.1216 1664.92,-23.9414"/>
</g>
<!-- UnsignedIntegerType&#45;&gt;UInt64 -->
<g id="edge61" class="edge">
<path fill="none" stroke="#cccccc" d="M1429.32,-57.9883C1401.51,-48.6044 1359.83,-34.5458 1329.89,-24.4442"/>
<polygon fill="#cccccc" stroke="#cccccc" points="1330.81,-21.0628 1320.22,-21.1826 1328.58,-27.6955 1330.81,-21.0628"/>
</g>
<!-- UnsignedIntegerType&#45;&gt;UInt8 -->
<g id="edge62" class="edge">
<path fill="none" stroke="#cccccc" d="M1467.4,-57.9883C1473.87,-50.2806 1482.99,-39.4191 1490.74,-30.187"/>
<polygon fill="#cccccc" stroke="#cccccc" points="1493.6,-32.2137 1497.35,-22.3039 1488.24,-27.7136 1493.6,-32.2137"/>
</g>
<!-- _Incrementable&#45;&gt;ForwardIndexType -->
<g id="edge66" class="edge">
<path fill="none" stroke="#cccccc" d="M1369,-347.988C1369,-340.91 1369,-331.171 1369,-322.478"/>
<polygon fill="#cccccc" stroke="#cccccc" points="1372.5,-322.304 1369,-312.304 1365.5,-322.304 1372.5,-322.304"/>
</g>
</g>
</svg>
