<?xml version="1.0" encoding="UTF-8" standalone="no"?>
<!DOCTYPE svg PUBLIC "-//W3C//DTD SVG 1.1//EN"
 "http://www.w3.org/Graphics/SVG/1.1/DTD/svg11.dtd">
<!-- Generated by graphviz version 2.36.0 (20140111.2315)
 -->
<!-- Title: Int32 &#45; Type Hierarchy &#45; SwiftDoc.org Pages: 1 -->
<svg width="1246pt" height="543pt"
 viewBox="0.00 0.00 1246.40 543.20" xmlns="http://www.w3.org/2000/svg" xmlns:xlink="http://www.w3.org/1999/xlink">
<g id="graph0" class="graph" transform="scale(1 1) rotate(0) translate(7.2 485.6)">
<g transform="translate(0 -485.6)">
<g>
    <path fill="#666666" d="M13.846,10.832c-0.336-0.464-0.792-0.844-1.368-1.14s-1.224-0.444-1.944-0.444
        c-0.384,0-0.772,0.052-1.164,0.156C8.977,9.509,8.622,9.677,8.301,9.908c-0.32,0.232-0.58,0.52-0.78,0.864
        c-0.2,0.344-0.3,0.756-0.3,1.236c0,0.464,0.092,0.852,0.276,1.164c0.184,0.312,0.432,0.576,0.744,0.792s0.68,0.4,1.104,0.552
        c0.423,0.152,0.876,0.309,1.356,0.468c0.576,0.177,1.16,0.376,1.752,0.601c0.592,0.224,1.128,0.52,1.608,0.888
        s0.872,0.828,1.176,1.38s0.456,1.252,0.456,2.101c0,0.88-0.164,1.644-0.492,2.292c-0.328,0.647-0.765,1.184-1.308,1.607
        c-0.544,0.424-1.172,0.74-1.884,0.948s-1.444,0.312-2.196,0.312c-1.072,0-2.108-0.208-3.108-0.624
        c-1-0.415-1.828-1.031-2.484-1.848l1.848-1.56c0.4,0.592,0.936,1.071,1.608,1.439c0.672,0.368,1.399,0.552,2.184,0.552
        c0.4,0,0.8-0.056,1.2-0.168c0.4-0.111,0.764-0.288,1.092-0.527c0.328-0.24,0.596-0.54,0.804-0.9
        c0.208-0.36,0.312-0.796,0.312-1.308s-0.108-0.94-0.324-1.284c-0.216-0.344-0.508-0.636-0.876-0.876s-0.796-0.444-1.284-0.612
        c-0.488-0.168-1.004-0.34-1.548-0.516c-0.544-0.16-1.08-0.356-1.608-0.588c-0.528-0.232-1-0.528-1.416-0.889
        c-0.416-0.359-0.752-0.804-1.008-1.332c-0.256-0.527-0.384-1.184-0.384-1.968c0-0.848,0.172-1.576,0.516-2.184
        c0.344-0.608,0.792-1.112,1.344-1.512c0.552-0.4,1.176-0.692,1.872-0.876c0.696-0.184,1.396-0.276,2.1-0.276
        c0.992,0,1.92,0.176,2.784,0.528c0.864,0.352,1.56,0.824,2.088,1.416L13.846,10.832z"/>
    <path fill="#666666" d="M18.813,13.304l2.568,8.688h0.048l2.712-8.688h2.376l2.76,8.688h0.048l2.568-8.688h2.376L30.501,24.68
        h-2.352l-2.808-8.544h-0.048l-2.784,8.544h-2.352l-3.792-11.376H18.813z"/>
    <path fill="#666666" d="M38.685,9.2c0,0.416-0.147,0.76-0.44,1.032c-0.294,0.272-0.647,0.408-1.06,0.408s-0.762-0.14-1.047-0.42
        c-0.286-0.28-0.429-0.62-0.429-1.02c0-0.416,0.143-0.764,0.429-1.044c0.286-0.28,0.635-0.42,1.047-0.42s0.766,0.14,1.06,0.42
        C38.538,8.437,38.685,8.784,38.685,9.2z M38.325,24.68h-2.256V13.304h2.256V24.68z"/>
    <path fill="#666666" d="M47.613,15.152h-2.64v9.528h-2.256v-9.528h-2.256v-1.848h2.256v-2.376c0-0.672,0.076-1.292,0.228-1.86
        c0.152-0.568,0.4-1.06,0.744-1.476c0.344-0.416,0.784-0.744,1.32-0.984c0.536-0.24,1.188-0.36,1.956-0.36
        c0.544,0,1.016,0.056,1.416,0.168l-0.264,1.944c-0.176-0.048-0.352-0.088-0.528-0.12c-0.176-0.032-0.376-0.048-0.6-0.048
        c-0.432,0-0.78,0.076-1.044,0.228c-0.264,0.152-0.468,0.356-0.612,0.612s-0.24,0.548-0.288,0.876
        c-0.048,0.328-0.072,0.668-0.072,1.02v2.376h2.64V15.152z"/>
    <path fill="#666666" d="M54.909,15.152h-3.024v5.91c0,0.687,0.128,1.177,0.384,1.472c0.256,0.295,0.664,0.442,1.224,0.442
        c0.208,0,0.432-0.021,0.672-0.065c0.24-0.044,0.456-0.11,0.648-0.198l0.072,1.848c-0.272,0.096-0.572,0.172-0.9,0.229
        c-0.328,0.056-0.668,0.084-1.02,0.084c-1.072,0-1.892-0.296-2.46-0.889c-0.568-0.592-0.852-1.479-0.852-2.664v-6.168h-2.184
        v-1.848h2.184V10.04h2.232v3.264h3.024V15.152z"/>
    <path fill="#666666" d="M57.356,7.688h5.832c1.088,0,2.176,0.16,3.264,0.48c1.088,0.32,2.072,0.824,2.952,1.512
        s1.592,1.568,2.136,2.64c0.544,1.072,0.816,2.36,0.816,3.864c0,1.456-0.272,2.716-0.816,3.78s-1.256,1.943-2.136,2.64
        s-1.864,1.216-2.952,1.561c-1.088,0.344-2.176,0.516-3.264,0.516h-5.832V7.688z M59.732,22.593h2.976
        c1.024,0,1.972-0.145,2.844-0.432c0.872-0.288,1.624-0.704,2.256-1.248c0.632-0.544,1.124-1.216,1.476-2.017
        c0.352-0.8,0.528-1.704,0.528-2.712c0-1.056-0.176-1.983-0.528-2.784c-0.353-0.8-0.844-1.468-1.476-2.004
        c-0.632-0.536-1.384-0.944-2.256-1.224s-1.82-0.42-2.844-0.42h-2.976V22.593z"/>
    <path fill="#666666" d="M86.06,18.969c0,0.88-0.156,1.688-0.468,2.424c-0.312,0.736-0.744,1.372-1.296,1.908
        c-0.552,0.536-1.204,0.952-1.956,1.248c-0.752,0.296-1.56,0.443-2.424,0.443c-0.864,0-1.672-0.147-2.424-0.443
        c-0.752-0.296-1.4-0.712-1.944-1.248c-0.544-0.536-0.972-1.172-1.284-1.908c-0.312-0.735-0.468-1.544-0.468-2.424
        s0.156-1.684,0.468-2.412c0.312-0.728,0.74-1.356,1.284-1.884c0.543-0.528,1.191-0.939,1.944-1.236
        c0.752-0.296,1.56-0.444,2.424-0.444c0.864,0,1.672,0.148,2.424,0.444c0.752,0.297,1.404,0.708,1.956,1.236
        c0.552,0.527,0.984,1.156,1.296,1.884C85.904,17.285,86.06,18.089,86.06,18.969z M83.708,18.98c0-0.542-0.084-1.061-0.252-1.556
        c-0.169-0.494-0.414-0.929-0.734-1.304s-0.718-0.674-1.192-0.897s-1.015-0.335-1.625-0.335c-0.61,0-1.152,0.111-1.625,0.335
        c-0.474,0.224-0.871,0.522-1.191,0.897c-0.321,0.375-0.566,0.81-0.734,1.304C76.184,17.92,76.1,18.438,76.1,18.98
        c0,0.543,0.084,1.062,0.253,1.556c0.168,0.495,0.413,0.934,0.734,1.316c0.321,0.383,0.718,0.686,1.191,0.909
        c0.473,0.224,1.015,0.335,1.625,0.335c0.61,0,1.151-0.111,1.625-0.335s0.871-0.526,1.192-0.909s0.565-0.821,0.734-1.316
        C83.624,20.042,83.708,19.523,83.708,18.98z"/>
    <path fill="#666666" d="M96.428,16.184c-0.24-0.368-0.6-0.676-1.08-0.924s-0.992-0.372-1.536-0.372
        c-0.592,0-1.116,0.112-1.572,0.336c-0.456,0.225-0.844,0.524-1.164,0.9c-0.32,0.376-0.564,0.812-0.732,1.308
        s-0.252,1.017-0.252,1.56c0,0.545,0.084,1.064,0.252,1.561s0.412,0.933,0.732,1.308c0.32,0.376,0.712,0.677,1.176,0.9
        c0.464,0.225,0.992,0.336,1.584,0.336c0.576,0,1.1-0.111,1.572-0.336c0.472-0.224,0.86-0.528,1.164-0.912l1.512,1.368
        c-0.48,0.561-1.08,0.996-1.8,1.308c-0.72,0.312-1.536,0.468-2.448,0.468c-0.88,0-1.692-0.144-2.436-0.432
        c-0.744-0.288-1.388-0.691-1.932-1.212c-0.544-0.52-0.972-1.147-1.284-1.884s-0.468-1.561-0.468-2.473
        c0-0.896,0.152-1.711,0.456-2.447c0.304-0.736,0.728-1.368,1.272-1.896c0.543-0.527,1.188-0.936,1.932-1.224
        c0.744-0.288,1.548-0.433,2.412-0.433c0.8,0,1.596,0.16,2.388,0.48s1.419,0.784,1.884,1.392L96.428,16.184z"/>
    <path fill="#666666" d="M103.1,23.24c0,0.417-0.152,0.784-0.456,1.104c-0.304,0.32-0.688,0.479-1.152,0.479
        c-0.448,0-0.828-0.155-1.14-0.468c-0.312-0.312-0.468-0.676-0.468-1.092c0-0.432,0.152-0.804,0.456-1.116
        c0.304-0.312,0.688-0.468,1.152-0.468c0.464,0,0.848,0.152,1.152,0.456C102.947,22.44,103.1,22.808,103.1,23.24z"/>
    <path fill="#666666" d="M116.635,18.969c0,0.88-0.156,1.688-0.468,2.424c-0.312,0.736-0.744,1.372-1.296,1.908
        c-0.552,0.536-1.204,0.952-1.956,1.248c-0.752,0.296-1.56,0.443-2.424,0.443c-0.864,0-1.672-0.147-2.424-0.443
        c-0.752-0.296-1.4-0.712-1.944-1.248c-0.544-0.536-0.972-1.172-1.284-1.908c-0.312-0.735-0.468-1.544-0.468-2.424
        s0.156-1.684,0.468-2.412c0.312-0.728,0.74-1.356,1.284-1.884c0.543-0.528,1.191-0.939,1.944-1.236
        c0.752-0.296,1.56-0.444,2.424-0.444c0.864,0,1.672,0.148,2.424,0.444c0.752,0.297,1.404,0.708,1.956,1.236
        c0.552,0.527,0.984,1.156,1.296,1.884C116.479,17.285,116.635,18.089,116.635,18.969z M114.283,18.98
        c0-0.542-0.084-1.061-0.252-1.556c-0.169-0.494-0.414-0.929-0.734-1.304s-0.718-0.674-1.192-0.897s-1.015-0.335-1.625-0.335
        c-0.61,0-1.152,0.111-1.625,0.335c-0.474,0.224-0.871,0.522-1.191,0.897c-0.321,0.375-0.566,0.81-0.734,1.304
        c-0.169,0.495-0.253,1.014-0.253,1.556c0,0.543,0.084,1.062,0.253,1.556c0.168,0.495,0.413,0.934,0.734,1.316
        c0.321,0.383,0.718,0.686,1.191,0.909c0.473,0.224,1.015,0.335,1.625,0.335c0.61,0,1.151-0.111,1.625-0.335
        s0.871-0.526,1.192-0.909s0.565-0.821,0.734-1.316C114.199,20.042,114.283,19.523,114.283,18.98z"/>
    <path fill="#666666" d="M119.251,14.577c-0.016-0.48-0.04-0.904-0.072-1.272h2.136c0.032,0.288,0.056,0.62,0.072,0.996
        c0.016,0.376,0.024,0.684,0.024,0.924h0.072c0.32-0.672,0.788-1.212,1.404-1.62c0.616-0.408,1.308-0.612,2.076-0.612
        c0.352,0,0.648,0.033,0.888,0.097l-0.096,2.088c-0.32-0.08-0.664-0.12-1.032-0.12c-0.544,0-1.016,0.101-1.416,0.3
        c-0.4,0.2-0.732,0.468-0.996,0.805c-0.264,0.336-0.46,0.724-0.588,1.163c-0.128,0.44-0.192,0.9-0.192,1.381v5.976h-2.256v-8.928
        C119.275,15.449,119.267,15.056,119.251,14.577z"/>
    <path fill="#666666" d="M128.419,26.625c0.496,0.56,1.116,1.008,1.86,1.344c0.744,0.336,1.508,0.504,2.292,0.504
        c0.752,0,1.384-0.108,1.896-0.324s0.924-0.512,1.236-0.888s0.536-0.82,0.672-1.332c0.136-0.513,0.204-1.064,0.204-1.656v-1.464
        h-0.048c-0.416,0.641-0.984,1.128-1.704,1.464c-0.72,0.336-1.488,0.504-2.304,0.504c-0.864,0-1.652-0.151-2.364-0.456
        c-0.712-0.304-1.316-0.72-1.812-1.248c-0.496-0.527-0.88-1.147-1.152-1.859s-0.408-1.477-0.408-2.292
        c0-0.816,0.136-1.584,0.408-2.305c0.272-0.72,0.656-1.348,1.152-1.884c0.496-0.535,1.096-0.96,1.8-1.271
        c0.704-0.312,1.488-0.469,2.352-0.469c0.816,0,1.596,0.177,2.34,0.528c0.744,0.353,1.332,0.888,1.764,1.608h0.048v-1.824h2.184
        v10.8c0,0.832-0.104,1.628-0.312,2.388c-0.208,0.76-0.56,1.433-1.056,2.017s-1.144,1.052-1.944,1.404
        c-0.8,0.352-1.792,0.527-2.976,0.527c-0.992,0-1.988-0.18-2.988-0.54c-1-0.359-1.86-0.868-2.58-1.523L128.419,26.625z
         M129.091,18.873c0,0.527,0.084,1.031,0.253,1.512c0.168,0.479,0.417,0.904,0.746,1.271c0.329,0.369,0.726,0.664,1.192,0.889
        c0.465,0.224,0.995,0.336,1.589,0.336c0.577,0,1.107-0.104,1.589-0.312c0.481-0.207,0.891-0.491,1.228-0.852
        s0.598-0.784,0.782-1.272c0.185-0.487,0.277-1.012,0.277-1.571c0-0.544-0.093-1.057-0.277-1.536
        c-0.185-0.48-0.449-0.904-0.794-1.272c-0.345-0.367-0.755-0.66-1.228-0.876c-0.474-0.216-1-0.324-1.577-0.324
        c-0.594,0-1.124,0.108-1.589,0.324c-0.466,0.216-0.863,0.504-1.192,0.864s-0.578,0.784-0.746,1.271
        C129.175,17.812,129.091,18.329,129.091,18.873z"/>
</g>
<g><a xlink:href="/" pointer-events="all" target="_top"><polygon fill="none" points="0,0 145,0 145,35 0,35 0,0"/></a></g>

</g>


<!-- BidirectionalIndexType -->
<g id="node1" class="node">
<g id="a_node1"><a xlink:href="/v2.1/protocol/BidirectionalIndexType/" target="_top">
<path fill="#999999" stroke="#999999" d="M882.725,-254C882.725,-254 767.275,-254 767.275,-254 763.608,-254 759.941,-250.333 759.941,-246.667 759.941,-246.667 759.941,-239.333 759.941,-239.333 759.941,-235.667 763.608,-232 767.275,-232 767.275,-232 882.725,-232 882.725,-232 886.392,-232 890.059,-235.667 890.059,-239.333 890.059,-239.333 890.059,-246.667 890.059,-246.667 890.059,-250.333 886.392,-254 882.725,-254"/>
<text text-anchor="middle" x="825" y="-239.4" font-family="Helvetica,sans-Serif" font-size="12.00" fill="white">BidirectionalIndexType</text>
</a>
</g>
</g>
<!-- RandomAccessIndexType -->
<g id="node13" class="node">
<g id="a_node13"><a xlink:href="/v2.1/protocol/RandomAccessIndexType/" target="_top">
<path fill="#999999" stroke="#999999" d="M892.225,-196C892.225,-196 757.775,-196 757.775,-196 754.108,-196 750.441,-192.333 750.441,-188.667 750.441,-188.667 750.441,-181.333 750.441,-181.333 750.441,-177.667 754.108,-174 757.775,-174 757.775,-174 892.225,-174 892.225,-174 895.892,-174 899.559,-177.667 899.559,-181.333 899.559,-181.333 899.559,-188.667 899.559,-188.667 899.559,-192.333 895.892,-196 892.225,-196"/>
<text text-anchor="middle" x="825" y="-181.4" font-family="Helvetica,sans-Serif" font-size="12.00" fill="white">RandomAccessIndexType</text>
</a>
</g>
</g>
<!-- BidirectionalIndexType&#45;&gt;RandomAccessIndexType -->
<g id="edge30" class="edge">
<path fill="none" stroke="#cccccc" d="M825,-231.988C825,-224.91 825,-215.171 825,-206.478"/>
<polygon fill="#cccccc" stroke="#cccccc" points="828.5,-206.304 825,-196.304 821.5,-206.304 828.5,-206.304"/>
</g>
<!-- BitwiseOperationsType -->
<g id="node2" class="node">
<g id="a_node2"><a xlink:href="/v2.1/protocol/BitwiseOperationsType/" target="_top">
<path fill="#999999" stroke="#999999" d="M152.715,-254C152.715,-254 35.2848,-254 35.2848,-254 31.6182,-254 27.9515,-250.333 27.9515,-246.667 27.9515,-246.667 27.9515,-239.333 27.9515,-239.333 27.9515,-235.667 31.6182,-232 35.2848,-232 35.2848,-232 152.715,-232 152.715,-232 156.382,-232 160.048,-235.667 160.048,-239.333 160.048,-239.333 160.048,-246.667 160.048,-246.667 160.048,-250.333 156.382,-254 152.715,-254"/>
<text text-anchor="middle" x="94" y="-239.4" font-family="Helvetica,sans-Serif" font-size="12.00" fill="white">BitwiseOperationsType</text>
</a>
</g>
</g>
<!-- Int32 -->
<g id="node9" class="node">
<g id="a_node9"><a xlink:href="/v2.1/type/Int32/" target="_top">
<polygon fill="#ee543d" stroke="#ee543d" points="449,-22 395,-22 395,-0 449,-0 449,-22"/>
<text text-anchor="middle" x="422" y="-7.4" font-family="Helvetica,sans-Serif" font-size="12.00" fill="white">Int32</text>
</a>
</g>
</g>
<!-- BitwiseOperationsType&#45;&gt;Int32 -->
<g id="edge8" class="edge">
<path fill="none" stroke="#cccccc" d="M108.517,-231.82C160.275,-195.527 336.041,-72.2762 399.18,-28.0016"/>
<polygon fill="#cccccc" stroke="#cccccc" points="401.473,-30.6691 407.651,-22.062 397.454,-24.9377 401.473,-30.6691"/>
</g>
<!-- _IntegerType -->
<g id="node19" class="node">
<g id="a_node19"><a xlink:href="/v2.1/protocol/_IntegerType/" target="_top">
<path fill="#999999" stroke="#999999" d="M488.708,-196C488.708,-196 423.292,-196 423.292,-196 419.626,-196 415.959,-192.333 415.959,-188.667 415.959,-188.667 415.959,-181.333 415.959,-181.333 415.959,-177.667 419.626,-174 423.292,-174 423.292,-174 488.708,-174 488.708,-174 492.374,-174 496.041,-177.667 496.041,-181.333 496.041,-181.333 496.041,-188.667 496.041,-188.667 496.041,-192.333 492.374,-196 488.708,-196"/>
<text text-anchor="middle" x="456" y="-181.4" font-family="Helvetica,sans-Serif" font-size="12.00" fill="white">_IntegerType</text>
</a>
</g>
</g>
<!-- BitwiseOperationsType&#45;&gt;_IntegerType -->
<g id="edge19" class="edge">
<path fill="none" stroke="#cccccc" d="M158.718,-231.988C229.564,-221.029 341.627,-203.693 406.022,-193.731"/>
<polygon fill="#cccccc" stroke="#cccccc" points="406.586,-197.186 415.934,-192.198 405.516,-190.268 406.586,-197.186"/>
</g>
<!-- CVarArgType -->
<g id="node3" class="node">
<g id="a_node3"><a xlink:href="/v2.1/protocol/CVarArgType/" target="_top">
<path fill="#999999" stroke="#999999" d="M267.029,-80C267.029,-80 200.971,-80 200.971,-80 197.304,-80 193.638,-76.3333 193.638,-72.6667 193.638,-72.6667 193.638,-65.3333 193.638,-65.3333 193.638,-61.6667 197.304,-58 200.971,-58 200.971,-58 267.029,-58 267.029,-58 270.696,-58 274.362,-61.6667 274.362,-65.3333 274.362,-65.3333 274.362,-72.6667 274.362,-72.6667 274.362,-76.3333 270.696,-80 267.029,-80"/>
<text text-anchor="middle" x="234" y="-65.4" font-family="Helvetica,sans-Serif" font-size="12.00" fill="white">CVarArgType</text>
</a>
</g>
</g>
<!-- CVarArgType&#45;&gt;Int32 -->
<g id="edge10" class="edge">
<path fill="none" stroke="#cccccc" d="M267.611,-57.9883C300.678,-48.1384 351.037,-33.138 385.173,-22.9696"/>
<polygon fill="#cccccc" stroke="#cccccc" points="386.192,-26.3184 394.776,-20.1092 384.193,-19.6097 386.192,-26.3184"/>
</g>
<!-- Comparable -->
<g id="node4" class="node">
<g id="a_node4"><a xlink:href="/v2.1/protocol/Comparable/" target="_top">
<path fill="#999999" stroke="#999999" d="M948.191,-312C948.191,-312 887.809,-312 887.809,-312 884.142,-312 880.475,-308.333 880.475,-304.667 880.475,-304.667 880.475,-297.333 880.475,-297.333 880.475,-293.667 884.142,-290 887.809,-290 887.809,-290 948.191,-290 948.191,-290 951.858,-290 955.525,-293.667 955.525,-297.333 955.525,-297.333 955.525,-304.667 955.525,-304.667 955.525,-308.333 951.858,-312 948.191,-312"/>
<text text-anchor="middle" x="918" y="-297.4" font-family="Helvetica,sans-Serif" font-size="12.00" fill="white">Comparable</text>
</a>
</g>
</g>
<!-- Comparable&#45;&gt;Int32 -->
<g id="edge2" class="edge">
<path fill="none" stroke="#cccccc" d="M955.732,-295.366C1004.68,-288.617 1086.38,-274.6 1108,-254 1130.81,-232.271 1128,-217.502 1128,-186 1128,-186 1128,-186 1128,-126 1128,-57.6396 605.47,-22.5265 459.482,-14.0503"/>
<polygon fill="#cccccc" stroke="#cccccc" points="459.427,-10.5416 449.243,-13.4639 459.027,-17.5301 459.427,-10.5416"/>
</g>
<!-- IntegerArithmeticType -->
<g id="node10" class="node">
<g id="a_node10"><a xlink:href="/v2.1/protocol/IntegerArithmeticType/" target="_top">
<path fill="#999999" stroke="#999999" d="M574.711,-254C574.711,-254 463.289,-254 463.289,-254 459.623,-254 455.956,-250.333 455.956,-246.667 455.956,-246.667 455.956,-239.333 455.956,-239.333 455.956,-235.667 459.623,-232 463.289,-232 463.289,-232 574.711,-232 574.711,-232 578.377,-232 582.044,-235.667 582.044,-239.333 582.044,-239.333 582.044,-246.667 582.044,-246.667 582.044,-250.333 578.377,-254 574.711,-254"/>
<text text-anchor="middle" x="519" y="-239.4" font-family="Helvetica,sans-Serif" font-size="12.00" fill="white">IntegerArithmeticType</text>
</a>
</g>
</g>
<!-- Comparable&#45;&gt;IntegerArithmeticType -->
<g id="edge23" class="edge">
<path fill="none" stroke="#cccccc" d="M880.463,-294.732C814.658,-285.496 677.389,-266.23 592.233,-254.278"/>
<polygon fill="#cccccc" stroke="#cccccc" points="592.504,-250.782 582.114,-252.858 591.531,-257.714 592.504,-250.782"/>
</g>
<!-- SignedNumberType -->
<g id="node15" class="node">
<g id="a_node15"><a xlink:href="/v2.1/protocol/SignedNumberType/" target="_top">
<path fill="#999999" stroke="#999999" d="M703.716,-196C703.716,-196 602.284,-196 602.284,-196 598.617,-196 594.95,-192.333 594.95,-188.667 594.95,-188.667 594.95,-181.333 594.95,-181.333 594.95,-177.667 598.617,-174 602.284,-174 602.284,-174 703.716,-174 703.716,-174 707.383,-174 711.05,-177.667 711.05,-181.333 711.05,-181.333 711.05,-188.667 711.05,-188.667 711.05,-192.333 707.383,-196 703.716,-196"/>
<text text-anchor="middle" x="653" y="-181.4" font-family="Helvetica,sans-Serif" font-size="12.00" fill="white">SignedNumberType</text>
</a>
</g>
</g>
<!-- Comparable&#45;&gt;SignedNumberType -->
<g id="edge26" class="edge">
<path fill="none" stroke="#cccccc" d="M918.272,-289.519C918.053,-274.467 915.27,-246.903 899,-232 885.934,-220.031 789.634,-204.638 721.481,-195.044"/>
<polygon fill="#cccccc" stroke="#cccccc" points="721.61,-191.529 711.223,-193.614 720.644,-198.462 721.61,-191.529"/>
</g>
<!-- Strideable -->
<g id="node16" class="node">
<g id="a_node16"><a xlink:href="/v2.1/protocol/Strideable/" target="_top">
<path fill="#999999" stroke="#999999" d="M1212.69,-254C1212.69,-254 1163.31,-254 1163.31,-254 1159.64,-254 1155.97,-250.333 1155.97,-246.667 1155.97,-246.667 1155.97,-239.333 1155.97,-239.333 1155.97,-235.667 1159.64,-232 1163.31,-232 1163.31,-232 1212.69,-232 1212.69,-232 1216.36,-232 1220.03,-235.667 1220.03,-239.333 1220.03,-239.333 1220.03,-246.667 1220.03,-246.667 1220.03,-250.333 1216.36,-254 1212.69,-254"/>
<text text-anchor="middle" x="1188" y="-239.4" font-family="Helvetica,sans-Serif" font-size="12.00" fill="white">Strideable</text>
</a>
</g>
</g>
<!-- Comparable&#45;&gt;Strideable -->
<g id="edge35" class="edge">
<path fill="none" stroke="#cccccc" d="M955.679,-292.4C1000.22,-283.385 1076.55,-267.834 1142,-254 1143.26,-253.734 1144.54,-253.463 1145.83,-253.188"/>
<polygon fill="#cccccc" stroke="#cccccc" points="1146.8,-256.56 1155.84,-251.041 1145.33,-249.716 1146.8,-256.56"/>
</g>
<!-- CustomStringConvertible -->
<g id="node5" class="node">
<g id="a_node5"><a xlink:href="/v2.1/protocol/CustomStringConvertible/" target="_top">
<path fill="#999999" stroke="#999999" d="M314.208,-254C314.208,-254 185.792,-254 185.792,-254 182.126,-254 178.459,-250.333 178.459,-246.667 178.459,-246.667 178.459,-239.333 178.459,-239.333 178.459,-235.667 182.126,-232 185.792,-232 185.792,-232 314.208,-232 314.208,-232 317.874,-232 321.541,-235.667 321.541,-239.333 321.541,-239.333 321.541,-246.667 321.541,-246.667 321.541,-250.333 317.874,-254 314.208,-254"/>
<text text-anchor="middle" x="250" y="-239.4" font-family="Helvetica,sans-Serif" font-size="12.00" fill="white">CustomStringConvertible</text>
</a>
</g>
</g>
<!-- CustomStringConvertible&#45;&gt;Int32 -->
<g id="edge5" class="edge">
<path fill="none" stroke="#cccccc" d="M269.417,-231.935C283.862,-223.728 303.356,-211.055 317,-196 364.02,-144.117 357.425,-118.309 393,-58 398.367,-48.9018 404.582,-38.9692 409.879,-30.6697"/>
<polygon fill="#cccccc" stroke="#cccccc" points="412.909,-32.4286 415.375,-22.1247 407.022,-28.642 412.909,-32.4286"/>
</g>
<!-- CustomStringConvertible&#45;&gt;_IntegerType -->
<g id="edge16" class="edge">
<path fill="none" stroke="#cccccc" d="M286.829,-231.988C320.997,-222.7 372.012,-208.832 409.083,-198.754"/>
<polygon fill="#cccccc" stroke="#cccccc" points="410.412,-202.02 419.143,-196.019 408.576,-195.265 410.412,-202.02"/>
</g>
<!-- Equatable -->
<g id="node6" class="node">
<g id="a_node6"><a xlink:href="/v2.1/protocol/Equatable/" target="_top">
<path fill="#999999" stroke="#999999" d="M431.702,-428C431.702,-428 382.298,-428 382.298,-428 378.632,-428 374.965,-424.333 374.965,-420.667 374.965,-420.667 374.965,-413.333 374.965,-413.333 374.965,-409.667 378.632,-406 382.298,-406 382.298,-406 431.702,-406 431.702,-406 435.368,-406 439.035,-409.667 439.035,-413.333 439.035,-413.333 439.035,-420.667 439.035,-420.667 439.035,-424.333 435.368,-428 431.702,-428"/>
<text text-anchor="middle" x="407" y="-413.4" font-family="Helvetica,sans-Serif" font-size="12.00" fill="white">Equatable</text>
</a>
</g>
</g>
<!-- Equatable&#45;&gt;Comparable -->
<g id="edge24" class="edge">
<path fill="none" stroke="#cccccc" d="M439.353,-408.782C526.723,-389.291 767.754,-335.519 870.551,-312.586"/>
<polygon fill="#cccccc" stroke="#cccccc" points="871.351,-315.993 880.349,-310.4 869.827,-309.161 871.351,-315.993"/>
</g>
<!-- Hashable -->
<g id="node8" class="node">
<g id="a_node8"><a xlink:href="/v2.1/protocol/Hashable/" target="_top">
<path fill="#999999" stroke="#999999" d="M392.694,-254C392.694,-254 347.306,-254 347.306,-254 343.639,-254 339.973,-250.333 339.973,-246.667 339.973,-246.667 339.973,-239.333 339.973,-239.333 339.973,-235.667 343.639,-232 347.306,-232 347.306,-232 392.694,-232 392.694,-232 396.361,-232 400.027,-235.667 400.027,-239.333 400.027,-239.333 400.027,-246.667 400.027,-246.667 400.027,-250.333 396.361,-254 392.694,-254"/>
<text text-anchor="middle" x="370" y="-239.4" font-family="Helvetica,sans-Serif" font-size="12.00" fill="white">Hashable</text>
</a>
</g>
</g>
<!-- Equatable&#45;&gt;Hashable -->
<g id="edge21" class="edge">
<path fill="none" stroke="#cccccc" d="M402.33,-405.988C398.233,-396.813 392.412,-382.758 389,-370 379.236,-333.49 374.042,-289.597 371.667,-264.434"/>
<polygon fill="#cccccc" stroke="#cccccc" points="375.137,-263.936 370.768,-254.284 368.164,-264.554 375.137,-263.936"/>
</g>
<!-- Equatable&#45;&gt;Int32 -->
<g id="edge3" class="edge">
<path fill="none" stroke="#cccccc" d="M374.723,-413.923C278.459,-406.854 0,-379.69 0,-302 0,-302 0,-302 0,-126 0,-46.6569 281.541,-20.8723 384.699,-14.0876"/>
<polygon fill="#cccccc" stroke="#cccccc" points="385.202,-17.5629 394.96,-13.4372 384.759,-10.5769 385.202,-17.5629"/>
</g>
<!-- _Incrementable -->
<g id="node17" class="node">
<g id="a_node17"><a xlink:href="/v2.1/protocol/_Incrementable/" target="_top">
<path fill="#999999" stroke="#999999" d="M482.705,-370C482.705,-370 405.295,-370 405.295,-370 401.628,-370 397.961,-366.333 397.961,-362.667 397.961,-362.667 397.961,-355.333 397.961,-355.333 397.961,-351.667 401.628,-348 405.295,-348 405.295,-348 482.705,-348 482.705,-348 486.372,-348 490.039,-351.667 490.039,-355.333 490.039,-355.333 490.039,-362.667 490.039,-362.667 490.039,-366.333 486.372,-370 482.705,-370"/>
<text text-anchor="middle" x="444" y="-355.4" font-family="Helvetica,sans-Serif" font-size="12.00" fill="white">_Incrementable</text>
</a>
</g>
</g>
<!-- Equatable&#45;&gt;_Incrementable -->
<g id="edge25" class="edge">
<path fill="none" stroke="#cccccc" d="M413.615,-405.988C418.604,-398.438 425.592,-387.861 431.609,-378.754"/>
<polygon fill="#cccccc" stroke="#cccccc" points="434.6,-380.577 437.192,-370.304 428.759,-376.718 434.6,-380.577"/>
</g>
<!-- ForwardIndexType -->
<g id="node7" class="node">
<g id="a_node7"><a xlink:href="/v2.1/protocol/ForwardIndexType/" target="_top">
<path fill="#999999" stroke="#999999" d="M782.206,-312C782.206,-312 687.794,-312 687.794,-312 684.127,-312 680.461,-308.333 680.461,-304.667 680.461,-304.667 680.461,-297.333 680.461,-297.333 680.461,-293.667 684.127,-290 687.794,-290 687.794,-290 782.206,-290 782.206,-290 785.873,-290 789.539,-293.667 789.539,-297.333 789.539,-297.333 789.539,-304.667 789.539,-304.667 789.539,-308.333 785.873,-312 782.206,-312"/>
<text text-anchor="middle" x="735" y="-297.4" font-family="Helvetica,sans-Serif" font-size="12.00" fill="white">ForwardIndexType</text>
</a>
</g>
</g>
<!-- ForwardIndexType&#45;&gt;BidirectionalIndexType -->
<g id="edge33" class="edge">
<path fill="none" stroke="#cccccc" d="M751.09,-289.988C764.7,-281.52 784.427,-269.245 800.079,-259.507"/>
<polygon fill="#cccccc" stroke="#cccccc" points="802.104,-262.369 808.746,-254.114 798.406,-256.425 802.104,-262.369"/>
</g>
<!-- Hashable&#45;&gt;Int32 -->
<g id="edge4" class="edge">
<path fill="none" stroke="#cccccc" d="M370.911,-231.833C373.615,-203.695 382.64,-122.603 402,-58 404.672,-49.0847 408.598,-39.596 412.267,-31.5665"/>
<polygon fill="#cccccc" stroke="#cccccc" points="415.526,-32.8631 416.661,-22.3292 409.204,-29.856 415.526,-32.8631"/>
</g>
<!-- Hashable&#45;&gt;_IntegerType -->
<g id="edge17" class="edge">
<path fill="none" stroke="#cccccc" d="M385.375,-231.988C398.258,-223.599 416.879,-211.474 431.766,-201.78"/>
<polygon fill="#cccccc" stroke="#cccccc" points="433.998,-204.504 440.468,-196.114 430.178,-198.638 433.998,-204.504"/>
</g>
<!-- IntegerArithmeticType&#45;&gt;_IntegerType -->
<g id="edge18" class="edge">
<path fill="none" stroke="#cccccc" d="M507.737,-231.988C498.712,-223.966 485.843,-212.527 475.198,-203.065"/>
<polygon fill="#cccccc" stroke="#cccccc" points="477.391,-200.332 467.592,-196.304 472.741,-205.563 477.391,-200.332"/>
</g>
<!-- IntegerLiteralConvertible -->
<g id="node11" class="node">
<g id="a_node11"><a xlink:href="/v2.1/protocol/IntegerLiteralConvertible/" target="_top">
<path fill="#999999" stroke="#999999" d="M733.722,-254C733.722,-254 608.278,-254 608.278,-254 604.611,-254 600.944,-250.333 600.944,-246.667 600.944,-246.667 600.944,-239.333 600.944,-239.333 600.944,-235.667 604.611,-232 608.278,-232 608.278,-232 733.722,-232 733.722,-232 737.389,-232 741.056,-235.667 741.056,-239.333 741.056,-239.333 741.056,-246.667 741.056,-246.667 741.056,-250.333 737.389,-254 733.722,-254"/>
<text text-anchor="middle" x="671" y="-239.4" font-family="Helvetica,sans-Serif" font-size="12.00" fill="white">IntegerLiteralConvertible</text>
</a>
</g>
</g>
<!-- IntegerLiteralConvertible&#45;&gt;SignedNumberType -->
<g id="edge27" class="edge">
<path fill="none" stroke="#cccccc" d="M667.782,-231.988C665.456,-224.752 662.237,-214.737 659.396,-205.9"/>
<polygon fill="#cccccc" stroke="#cccccc" points="662.704,-204.753 656.312,-196.304 656.04,-206.895 662.704,-204.753"/>
</g>
<!-- IntegerLiteralConvertible&#45;&gt;_IntegerType -->
<g id="edge15" class="edge">
<path fill="none" stroke="#cccccc" d="M632.562,-231.988C596.749,-222.66 543.202,-208.713 504.472,-198.625"/>
<polygon fill="#cccccc" stroke="#cccccc" points="505.026,-195.153 494.467,-196.019 503.262,-201.927 505.026,-195.153"/>
</g>
<!-- IntegerType -->
<g id="node12" class="node">
<g id="a_node12"><a xlink:href="/v2.1/protocol/IntegerType/" target="_top">
<path fill="#999999" stroke="#999999" d="M608.202,-138C608.202,-138 549.798,-138 549.798,-138 546.132,-138 542.465,-134.333 542.465,-130.667 542.465,-130.667 542.465,-123.333 542.465,-123.333 542.465,-119.667 546.132,-116 549.798,-116 549.798,-116 608.202,-116 608.202,-116 611.868,-116 615.535,-119.667 615.535,-123.333 615.535,-123.333 615.535,-130.667 615.535,-130.667 615.535,-134.333 611.868,-138 608.202,-138"/>
<text text-anchor="middle" x="579" y="-123.4" font-family="Helvetica,sans-Serif" font-size="12.00" fill="white">IntegerType</text>
</a>
</g>
</g>
<!-- SignedIntegerType -->
<g id="node14" class="node">
<g id="a_node14"><a xlink:href="/v2.1/protocol/SignedIntegerType/" target="_top">
<path fill="#999999" stroke="#999999" d="M513.727,-80C513.727,-80 418.273,-80 418.273,-80 414.606,-80 410.94,-76.3333 410.94,-72.6667 410.94,-72.6667 410.94,-65.3333 410.94,-65.3333 410.94,-61.6667 414.606,-58 418.273,-58 418.273,-58 513.727,-58 513.727,-58 517.394,-58 521.06,-61.6667 521.06,-65.3333 521.06,-65.3333 521.06,-72.6667 521.06,-72.6667 521.06,-76.3333 517.394,-80 513.727,-80"/>
<text text-anchor="middle" x="466" y="-65.4" font-family="Helvetica,sans-Serif" font-size="12.00" fill="white">SignedIntegerType</text>
</a>
</g>
</g>
<!-- IntegerType&#45;&gt;SignedIntegerType -->
<g id="edge12" class="edge">
<path fill="none" stroke="#cccccc" d="M558.798,-115.988C541.151,-107.243 515.313,-94.4381 495.379,-84.5594"/>
<polygon fill="#cccccc" stroke="#cccccc" points="496.922,-81.4182 486.408,-80.1138 493.814,-87.6903 496.922,-81.4182"/>
</g>
<!-- RandomAccessIndexType&#45;&gt;Int32 -->
<g id="edge6" class="edge">
<path fill="none" stroke="#cccccc" d="M808.379,-173.963C769.671,-150.916 670.023,-93.4688 581,-58 540.411,-41.8284 491.949,-28.6398 459.283,-20.5954"/>
<polygon fill="#cccccc" stroke="#cccccc" points="459.806,-17.1208 449.263,-18.1671 458.157,-23.9239 459.806,-17.1208"/>
</g>
<!-- RandomAccessIndexType&#45;&gt;IntegerType -->
<g id="edge29" class="edge">
<path fill="none" stroke="#cccccc" d="M781.02,-173.988C737.171,-164.006 670.088,-148.735 625.405,-138.564"/>
<polygon fill="#cccccc" stroke="#cccccc" points="625.921,-135.092 615.393,-136.285 624.367,-141.917 625.921,-135.092"/>
</g>
<!-- SignedIntegerType&#45;&gt;Int32 -->
<g id="edge1" class="edge">
<path fill="none" stroke="#cccccc" d="M458.134,-57.9883C452.078,-50.2806 443.544,-39.4191 436.29,-30.187"/>
<polygon fill="#cccccc" stroke="#cccccc" points="439.026,-28.0047 430.096,-22.3039 433.522,-32.3295 439.026,-28.0047"/>
</g>
<!-- SignedNumberType&#45;&gt;Int32 -->
<g id="edge7" class="edge">
<path fill="none" stroke="#cccccc" d="M650.714,-173.731C647.1,-159.428 638.9,-133.317 624,-116 579.751,-64.5753 503.781,-35.3064 458.686,-21.6346"/>
<polygon fill="#cccccc" stroke="#cccccc" points="459.592,-18.253 449.012,-18.7974 457.623,-24.9701 459.592,-18.253"/>
</g>
<!-- _SignedIntegerType -->
<g id="node22" class="node">
<g id="a_node22"><a xlink:href="/v2.1/protocol/_SignedIntegerType/" target="_top">
<path fill="#999999" stroke="#999999" d="M517.231,-138C517.231,-138 414.769,-138 414.769,-138 411.102,-138 407.436,-134.333 407.436,-130.667 407.436,-130.667 407.436,-123.333 407.436,-123.333 407.436,-119.667 411.102,-116 414.769,-116 414.769,-116 517.231,-116 517.231,-116 520.898,-116 524.564,-119.667 524.564,-123.333 524.564,-123.333 524.564,-130.667 524.564,-130.667 524.564,-134.333 520.898,-138 517.231,-138"/>
<text text-anchor="middle" x="466" y="-123.4" font-family="Helvetica,sans-Serif" font-size="12.00" fill="white">_SignedIntegerType</text>
</a>
</g>
</g>
<!-- SignedNumberType&#45;&gt;_SignedIntegerType -->
<g id="edge14" class="edge">
<path fill="none" stroke="#cccccc" d="M619.568,-173.988C588.817,-164.779 543.032,-151.068 509.455,-141.013"/>
<polygon fill="#cccccc" stroke="#cccccc" points="510.041,-137.535 499.457,-138.019 508.033,-144.241 510.041,-137.535"/>
</g>
<!-- Strideable&#45;&gt;RandomAccessIndexType -->
<g id="edge31" class="edge">
<path fill="none" stroke="#cccccc" d="M1155.79,-237.03C1098.83,-228.243 978.934,-209.747 900.218,-197.604"/>
<polygon fill="#cccccc" stroke="#cccccc" points="900.291,-194.074 889.874,-196.008 899.224,-200.992 900.291,-194.074"/>
</g>
<!-- _Incrementable&#45;&gt;ForwardIndexType -->
<g id="edge34" class="edge">
<path fill="none" stroke="#cccccc" d="M490.11,-349.127C539.52,-339.618 618.223,-324.473 673.023,-313.927"/>
<polygon fill="#cccccc" stroke="#cccccc" points="673.807,-317.34 682.965,-312.014 672.484,-310.466 673.807,-317.34"/>
</g>
<!-- _Incrementable&#45;&gt;_IntegerType -->
<g id="edge20" class="edge">
<path fill="none" stroke="#cccccc" d="M443.661,-347.836C443.072,-326.367 442.332,-274.852 447,-232 447.933,-223.435 449.634,-214.087 451.307,-206.068"/>
<polygon fill="#cccccc" stroke="#cccccc" points="454.758,-206.675 453.499,-196.155 447.923,-205.164 454.758,-206.675"/>
</g>
<!-- _IntegerArithmeticType -->
<g id="node18" class="node">
<g id="a_node18"><a xlink:href="/v2.1/protocol/_IntegerArithmeticType/" target="_top">
<path fill="#999999" stroke="#999999" d="M582.215,-312C582.215,-312 463.785,-312 463.785,-312 460.118,-312 456.452,-308.333 456.452,-304.667 456.452,-304.667 456.452,-297.333 456.452,-297.333 456.452,-293.667 460.118,-290 463.785,-290 463.785,-290 582.215,-290 582.215,-290 585.882,-290 589.548,-293.667 589.548,-297.333 589.548,-297.333 589.548,-304.667 589.548,-304.667 589.548,-308.333 585.882,-312 582.215,-312"/>
<text text-anchor="middle" x="523" y="-297.4" font-family="Helvetica,sans-Serif" font-size="12.00" fill="white">_IntegerArithmeticType</text>
</a>
</g>
</g>
<!-- _IntegerArithmeticType&#45;&gt;IntegerArithmeticType -->
<g id="edge22" class="edge">
<path fill="none" stroke="#cccccc" d="M522.285,-289.988C521.779,-282.91 521.084,-273.171 520.463,-264.478"/>
<polygon fill="#cccccc" stroke="#cccccc" points="523.94,-264.029 519.736,-254.304 516.957,-264.528 523.94,-264.029"/>
</g>
<!-- _IntegerType&#45;&gt;IntegerType -->
<g id="edge28" class="edge">
<path fill="none" stroke="#cccccc" d="M477.99,-173.988C497.372,-165.164 525.833,-152.206 547.609,-142.292"/>
<polygon fill="#cccccc" stroke="#cccccc" points="549.135,-145.443 556.786,-138.114 546.234,-139.072 549.135,-145.443"/>
</g>
<!-- _IntegerType&#45;&gt;_SignedIntegerType -->
<g id="edge13" class="edge">
<path fill="none" stroke="#cccccc" d="M457.788,-173.988C459.066,-166.831 460.83,-156.955 462.395,-148.189"/>
<polygon fill="#cccccc" stroke="#cccccc" points="465.848,-148.763 464.16,-138.304 458.957,-147.533 465.848,-148.763"/>
</g>
<!-- _RandomAccessAmbiguity -->
<g id="node20" class="node">
<g id="a_node20"><a xlink:href="/v2.1/protocol/_RandomAccessAmbiguity/" target="_top">
<path fill="#999999" stroke="#999999" d="M1092.21,-254C1092.21,-254 953.786,-254 953.786,-254 950.12,-254 946.453,-250.333 946.453,-246.667 946.453,-246.667 946.453,-239.333 946.453,-239.333 946.453,-235.667 950.12,-232 953.786,-232 953.786,-232 1092.21,-232 1092.21,-232 1095.88,-232 1099.55,-235.667 1099.55,-239.333 1099.55,-239.333 1099.55,-246.667 1099.55,-246.667 1099.55,-250.333 1095.88,-254 1092.21,-254"/>
<text text-anchor="middle" x="1023" y="-239.4" font-family="Helvetica,sans-Serif" font-size="12.00" fill="white">_RandomAccessAmbiguity</text>
</a>
</g>
</g>
<!-- _RandomAccessAmbiguity&#45;&gt;RandomAccessIndexType -->
<g id="edge32" class="edge">
<path fill="none" stroke="#cccccc" d="M987.602,-231.988C954.761,-222.7 905.727,-208.832 870.095,-198.754"/>
<polygon fill="#cccccc" stroke="#cccccc" points="871,-195.373 860.425,-196.019 869.095,-202.109 871,-195.373"/>
</g>
<!-- _Reflectable -->
<g id="node21" class="node">
<g id="a_node21"><a xlink:href="/v2.1/protocol/_Reflectable/" target="_top">
<path fill="#999999" stroke="#999999" d="M1224.7,-80C1224.7,-80 1163.3,-80 1163.3,-80 1159.63,-80 1155.97,-76.3333 1155.97,-72.6667 1155.97,-72.6667 1155.97,-65.3333 1155.97,-65.3333 1155.97,-61.6667 1159.63,-58 1163.3,-58 1163.3,-58 1224.7,-58 1224.7,-58 1228.37,-58 1232.03,-61.6667 1232.03,-65.3333 1232.03,-65.3333 1232.03,-72.6667 1232.03,-72.6667 1232.03,-76.3333 1228.37,-80 1224.7,-80"/>
<text text-anchor="middle" x="1194" y="-65.4" font-family="Helvetica,sans-Serif" font-size="12.00" fill="white">_Reflectable</text>
</a>
</g>
</g>
<!-- _Reflectable&#45;&gt;Int32 -->
<g id="edge9" class="edge">
<path fill="none" stroke="#cccccc" d="M1155.75,-60.0771C1151.13,-59.2883 1146.47,-58.5701 1142,-58 882.235,-24.859 566.545,-15.1688 459.529,-12.7297"/>
<polygon fill="#cccccc" stroke="#cccccc" points="459.327,-9.22445 449.253,-12.5034 459.173,-16.2228 459.327,-9.22445"/>
</g>
<!-- _SignedIntegerType&#45;&gt;SignedIntegerType -->
<g id="edge11" class="edge">
<path fill="none" stroke="#cccccc" d="M466,-115.988C466,-108.91 466,-99.1714 466,-90.4779"/>
<polygon fill="#cccccc" stroke="#cccccc" points="469.5,-90.3038 466,-80.3039 462.5,-90.3039 469.5,-90.3038"/>
</g>
<!-- _Strideable -->
<g id="node23" class="node">
<g id="a_node23"><a xlink:href="/v2.1/protocol/_Strideable/" target="_top">
<path fill="#999999" stroke="#999999" d="M1215.7,-312C1215.7,-312 1160.3,-312 1160.3,-312 1156.63,-312 1152.97,-308.333 1152.97,-304.667 1152.97,-304.667 1152.97,-297.333 1152.97,-297.333 1152.97,-293.667 1156.63,-290 1160.3,-290 1160.3,-290 1215.7,-290 1215.7,-290 1219.37,-290 1223.03,-293.667 1223.03,-297.333 1223.03,-297.333 1223.03,-304.667 1223.03,-304.667 1223.03,-308.333 1219.37,-312 1215.7,-312"/>
<text text-anchor="middle" x="1188" y="-297.4" font-family="Helvetica,sans-Serif" font-size="12.00" fill="white">_Strideable</text>
</a>
</g>
</g>
<!-- _Strideable&#45;&gt;Strideable -->
<g id="edge36" class="edge">
<path fill="none" stroke="#cccccc" d="M1188,-289.988C1188,-282.91 1188,-273.171 1188,-264.478"/>
<polygon fill="#cccccc" stroke="#cccccc" points="1191.5,-264.304 1188,-254.304 1184.5,-264.304 1191.5,-264.304"/>
</g>
</g>
</svg>
