<?xml version="1.0" encoding="UTF-8" standalone="no"?>
<!DOCTYPE svg PUBLIC "-//W3C//DTD SVG 1.1//EN"
 "http://www.w3.org/Graphics/SVG/1.1/DTD/svg11.dtd">
<!-- Generated by graphviz version 2.36.0 (20140111.2315)
 -->
<!-- Title: Double &#45; Type Hierarchy &#45; SwiftDoc.org Pages: 1 -->
<svg width="1433pt" height="369pt"
 viewBox="0.00 0.00 1433.29 369.20" xmlns="http://www.w3.org/2000/svg" xmlns:xlink="http://www.w3.org/1999/xlink">
<g id="graph0" class="graph" transform="scale(1 1) rotate(0) translate(7.2 311.6)">
<g transform="translate(0 -311.6)">
<g>
    <path fill="#666666" d="M13.846,10.832c-0.336-0.464-0.792-0.844-1.368-1.14s-1.224-0.444-1.944-0.444
        c-0.384,0-0.772,0.052-1.164,0.156C8.977,9.509,8.622,9.677,8.301,9.908c-0.32,0.232-0.58,0.52-0.78,0.864
        c-0.2,0.344-0.3,0.756-0.3,1.236c0,0.464,0.092,0.852,0.276,1.164c0.184,0.312,0.432,0.576,0.744,0.792s0.68,0.4,1.104,0.552
        c0.423,0.152,0.876,0.309,1.356,0.468c0.576,0.177,1.16,0.376,1.752,0.601c0.592,0.224,1.128,0.52,1.608,0.888
        s0.872,0.828,1.176,1.38s0.456,1.252,0.456,2.101c0,0.88-0.164,1.644-0.492,2.292c-0.328,0.647-0.765,1.184-1.308,1.607
        c-0.544,0.424-1.172,0.74-1.884,0.948s-1.444,0.312-2.196,0.312c-1.072,0-2.108-0.208-3.108-0.624
        c-1-0.415-1.828-1.031-2.484-1.848l1.848-1.56c0.4,0.592,0.936,1.071,1.608,1.439c0.672,0.368,1.399,0.552,2.184,0.552
        c0.4,0,0.8-0.056,1.2-0.168c0.4-0.111,0.764-0.288,1.092-0.527c0.328-0.24,0.596-0.54,0.804-0.9
        c0.208-0.36,0.312-0.796,0.312-1.308s-0.108-0.94-0.324-1.284c-0.216-0.344-0.508-0.636-0.876-0.876s-0.796-0.444-1.284-0.612
        c-0.488-0.168-1.004-0.34-1.548-0.516c-0.544-0.16-1.08-0.356-1.608-0.588c-0.528-0.232-1-0.528-1.416-0.889
        c-0.416-0.359-0.752-0.804-1.008-1.332c-0.256-0.527-0.384-1.184-0.384-1.968c0-0.848,0.172-1.576,0.516-2.184
        c0.344-0.608,0.792-1.112,1.344-1.512c0.552-0.4,1.176-0.692,1.872-0.876c0.696-0.184,1.396-0.276,2.1-0.276
        c0.992,0,1.92,0.176,2.784,0.528c0.864,0.352,1.56,0.824,2.088,1.416L13.846,10.832z"/>
    <path fill="#666666" d="M18.813,13.304l2.568,8.688h0.048l2.712-8.688h2.376l2.76,8.688h0.048l2.568-8.688h2.376L30.501,24.68
        h-2.352l-2.808-8.544h-0.048l-2.784,8.544h-2.352l-3.792-11.376H18.813z"/>
    <path fill="#666666" d="M38.685,9.2c0,0.416-0.147,0.76-0.44,1.032c-0.294,0.272-0.647,0.408-1.06,0.408s-0.762-0.14-1.047-0.42
        c-0.286-0.28-0.429-0.62-0.429-1.02c0-0.416,0.143-0.764,0.429-1.044c0.286-0.28,0.635-0.42,1.047-0.42s0.766,0.14,1.06,0.42
        C38.538,8.437,38.685,8.784,38.685,9.2z M38.325,24.68h-2.256V13.304h2.256V24.68z"/>
    <path fill="#666666" d="M47.613,15.152h-2.64v9.528h-2.256v-9.528h-2.256v-1.848h2.256v-2.376c0-0.672,0.076-1.292,0.228-1.86
        c0.152-0.568,0.4-1.06,0.744-1.476c0.344-0.416,0.784-0.744,1.32-0.984c0.536-0.24,1.188-0.36,1.956-0.36
        c0.544,0,1.016,0.056,1.416,0.168l-0.264,1.944c-0.176-0.048-0.352-0.088-0.528-0.12c-0.176-0.032-0.376-0.048-0.6-0.048
        c-0.432,0-0.78,0.076-1.044,0.228c-0.264,0.152-0.468,0.356-0.612,0.612s-0.24,0.548-0.288,0.876
        c-0.048,0.328-0.072,0.668-0.072,1.02v2.376h2.64V15.152z"/>
    <path fill="#666666" d="M54.909,15.152h-3.024v5.91c0,0.687,0.128,1.177,0.384,1.472c0.256,0.295,0.664,0.442,1.224,0.442
        c0.208,0,0.432-0.021,0.672-0.065c0.24-0.044,0.456-0.11,0.648-0.198l0.072,1.848c-0.272,0.096-0.572,0.172-0.9,0.229
        c-0.328,0.056-0.668,0.084-1.02,0.084c-1.072,0-1.892-0.296-2.46-0.889c-0.568-0.592-0.852-1.479-0.852-2.664v-6.168h-2.184
        v-1.848h2.184V10.04h2.232v3.264h3.024V15.152z"/>
    <path fill="#666666" d="M57.356,7.688h5.832c1.088,0,2.176,0.16,3.264,0.48c1.088,0.32,2.072,0.824,2.952,1.512
        s1.592,1.568,2.136,2.64c0.544,1.072,0.816,2.36,0.816,3.864c0,1.456-0.272,2.716-0.816,3.78s-1.256,1.943-2.136,2.64
        s-1.864,1.216-2.952,1.561c-1.088,0.344-2.176,0.516-3.264,0.516h-5.832V7.688z M59.732,22.593h2.976
        c1.024,0,1.972-0.145,2.844-0.432c0.872-0.288,1.624-0.704,2.256-1.248c0.632-0.544,1.124-1.216,1.476-2.017
        c0.352-0.8,0.528-1.704,0.528-2.712c0-1.056-0.176-1.983-0.528-2.784c-0.353-0.8-0.844-1.468-1.476-2.004
        c-0.632-0.536-1.384-0.944-2.256-1.224s-1.82-0.42-2.844-0.42h-2.976V22.593z"/>
    <path fill="#666666" d="M86.06,18.969c0,0.88-0.156,1.688-0.468,2.424c-0.312,0.736-0.744,1.372-1.296,1.908
        c-0.552,0.536-1.204,0.952-1.956,1.248c-0.752,0.296-1.56,0.443-2.424,0.443c-0.864,0-1.672-0.147-2.424-0.443
        c-0.752-0.296-1.4-0.712-1.944-1.248c-0.544-0.536-0.972-1.172-1.284-1.908c-0.312-0.735-0.468-1.544-0.468-2.424
        s0.156-1.684,0.468-2.412c0.312-0.728,0.74-1.356,1.284-1.884c0.543-0.528,1.191-0.939,1.944-1.236
        c0.752-0.296,1.56-0.444,2.424-0.444c0.864,0,1.672,0.148,2.424,0.444c0.752,0.297,1.404,0.708,1.956,1.236
        c0.552,0.527,0.984,1.156,1.296,1.884C85.904,17.285,86.06,18.089,86.06,18.969z M83.708,18.98c0-0.542-0.084-1.061-0.252-1.556
        c-0.169-0.494-0.414-0.929-0.734-1.304s-0.718-0.674-1.192-0.897s-1.015-0.335-1.625-0.335c-0.61,0-1.152,0.111-1.625,0.335
        c-0.474,0.224-0.871,0.522-1.191,0.897c-0.321,0.375-0.566,0.81-0.734,1.304C76.184,17.92,76.1,18.438,76.1,18.98
        c0,0.543,0.084,1.062,0.253,1.556c0.168,0.495,0.413,0.934,0.734,1.316c0.321,0.383,0.718,0.686,1.191,0.909
        c0.473,0.224,1.015,0.335,1.625,0.335c0.61,0,1.151-0.111,1.625-0.335s0.871-0.526,1.192-0.909s0.565-0.821,0.734-1.316
        C83.624,20.042,83.708,19.523,83.708,18.98z"/>
    <path fill="#666666" d="M96.428,16.184c-0.24-0.368-0.6-0.676-1.08-0.924s-0.992-0.372-1.536-0.372
        c-0.592,0-1.116,0.112-1.572,0.336c-0.456,0.225-0.844,0.524-1.164,0.9c-0.32,0.376-0.564,0.812-0.732,1.308
        s-0.252,1.017-0.252,1.56c0,0.545,0.084,1.064,0.252,1.561s0.412,0.933,0.732,1.308c0.32,0.376,0.712,0.677,1.176,0.9
        c0.464,0.225,0.992,0.336,1.584,0.336c0.576,0,1.1-0.111,1.572-0.336c0.472-0.224,0.86-0.528,1.164-0.912l1.512,1.368
        c-0.48,0.561-1.08,0.996-1.8,1.308c-0.72,0.312-1.536,0.468-2.448,0.468c-0.88,0-1.692-0.144-2.436-0.432
        c-0.744-0.288-1.388-0.691-1.932-1.212c-0.544-0.52-0.972-1.147-1.284-1.884s-0.468-1.561-0.468-2.473
        c0-0.896,0.152-1.711,0.456-2.447c0.304-0.736,0.728-1.368,1.272-1.896c0.543-0.527,1.188-0.936,1.932-1.224
        c0.744-0.288,1.548-0.433,2.412-0.433c0.8,0,1.596,0.16,2.388,0.48s1.419,0.784,1.884,1.392L96.428,16.184z"/>
    <path fill="#666666" d="M103.1,23.24c0,0.417-0.152,0.784-0.456,1.104c-0.304,0.32-0.688,0.479-1.152,0.479
        c-0.448,0-0.828-0.155-1.14-0.468c-0.312-0.312-0.468-0.676-0.468-1.092c0-0.432,0.152-0.804,0.456-1.116
        c0.304-0.312,0.688-0.468,1.152-0.468c0.464,0,0.848,0.152,1.152,0.456C102.947,22.44,103.1,22.808,103.1,23.24z"/>
    <path fill="#666666" d="M116.635,18.969c0,0.88-0.156,1.688-0.468,2.424c-0.312,0.736-0.744,1.372-1.296,1.908
        c-0.552,0.536-1.204,0.952-1.956,1.248c-0.752,0.296-1.56,0.443-2.424,0.443c-0.864,0-1.672-0.147-2.424-0.443
        c-0.752-0.296-1.4-0.712-1.944-1.248c-0.544-0.536-0.972-1.172-1.284-1.908c-0.312-0.735-0.468-1.544-0.468-2.424
        s0.156-1.684,0.468-2.412c0.312-0.728,0.74-1.356,1.284-1.884c0.543-0.528,1.191-0.939,1.944-1.236
        c0.752-0.296,1.56-0.444,2.424-0.444c0.864,0,1.672,0.148,2.424,0.444c0.752,0.297,1.404,0.708,1.956,1.236
        c0.552,0.527,0.984,1.156,1.296,1.884C116.479,17.285,116.635,18.089,116.635,18.969z M114.283,18.98
        c0-0.542-0.084-1.061-0.252-1.556c-0.169-0.494-0.414-0.929-0.734-1.304s-0.718-0.674-1.192-0.897s-1.015-0.335-1.625-0.335
        c-0.61,0-1.152,0.111-1.625,0.335c-0.474,0.224-0.871,0.522-1.191,0.897c-0.321,0.375-0.566,0.81-0.734,1.304
        c-0.169,0.495-0.253,1.014-0.253,1.556c0,0.543,0.084,1.062,0.253,1.556c0.168,0.495,0.413,0.934,0.734,1.316
        c0.321,0.383,0.718,0.686,1.191,0.909c0.473,0.224,1.015,0.335,1.625,0.335c0.61,0,1.151-0.111,1.625-0.335
        s0.871-0.526,1.192-0.909s0.565-0.821,0.734-1.316C114.199,20.042,114.283,19.523,114.283,18.98z"/>
    <path fill="#666666" d="M119.251,14.577c-0.016-0.48-0.04-0.904-0.072-1.272h2.136c0.032,0.288,0.056,0.62,0.072,0.996
        c0.016,0.376,0.024,0.684,0.024,0.924h0.072c0.32-0.672,0.788-1.212,1.404-1.62c0.616-0.408,1.308-0.612,2.076-0.612
        c0.352,0,0.648,0.033,0.888,0.097l-0.096,2.088c-0.32-0.08-0.664-0.12-1.032-0.12c-0.544,0-1.016,0.101-1.416,0.3
        c-0.4,0.2-0.732,0.468-0.996,0.805c-0.264,0.336-0.46,0.724-0.588,1.163c-0.128,0.44-0.192,0.9-0.192,1.381v5.976h-2.256v-8.928
        C119.275,15.449,119.267,15.056,119.251,14.577z"/>
    <path fill="#666666" d="M128.419,26.625c0.496,0.56,1.116,1.008,1.86,1.344c0.744,0.336,1.508,0.504,2.292,0.504
        c0.752,0,1.384-0.108,1.896-0.324s0.924-0.512,1.236-0.888s0.536-0.82,0.672-1.332c0.136-0.513,0.204-1.064,0.204-1.656v-1.464
        h-0.048c-0.416,0.641-0.984,1.128-1.704,1.464c-0.72,0.336-1.488,0.504-2.304,0.504c-0.864,0-1.652-0.151-2.364-0.456
        c-0.712-0.304-1.316-0.72-1.812-1.248c-0.496-0.527-0.88-1.147-1.152-1.859s-0.408-1.477-0.408-2.292
        c0-0.816,0.136-1.584,0.408-2.305c0.272-0.72,0.656-1.348,1.152-1.884c0.496-0.535,1.096-0.96,1.8-1.271
        c0.704-0.312,1.488-0.469,2.352-0.469c0.816,0,1.596,0.177,2.34,0.528c0.744,0.353,1.332,0.888,1.764,1.608h0.048v-1.824h2.184
        v10.8c0,0.832-0.104,1.628-0.312,2.388c-0.208,0.76-0.56,1.433-1.056,2.017s-1.144,1.052-1.944,1.404
        c-0.8,0.352-1.792,0.527-2.976,0.527c-0.992,0-1.988-0.18-2.988-0.54c-1-0.359-1.86-0.868-2.58-1.523L128.419,26.625z
         M129.091,18.873c0,0.527,0.084,1.031,0.253,1.512c0.168,0.479,0.417,0.904,0.746,1.271c0.329,0.369,0.726,0.664,1.192,0.889
        c0.465,0.224,0.995,0.336,1.589,0.336c0.577,0,1.107-0.104,1.589-0.312c0.481-0.207,0.891-0.491,1.228-0.852
        s0.598-0.784,0.782-1.272c0.185-0.487,0.277-1.012,0.277-1.571c0-0.544-0.093-1.057-0.277-1.536
        c-0.185-0.48-0.449-0.904-0.794-1.272c-0.345-0.367-0.755-0.66-1.228-0.876c-0.474-0.216-1-0.324-1.577-0.324
        c-0.594,0-1.124,0.108-1.589,0.324c-0.466,0.216-0.863,0.504-1.192,0.864s-0.578,0.784-0.746,1.271
        C129.175,17.812,129.091,18.329,129.091,18.873z"/>
</g>
<g><a xlink:href="/" pointer-events="all" target="_top"><polygon fill="none" points="0,0 145,0 145,35 0,35 0,0"/></a></g>

</g>


<!-- AbsoluteValuable -->
<g id="node1" class="node">
<g id="a_node1"><a xlink:href="/v2.0/protocol/AbsoluteValuable/" target="_top">
<path fill="#999999" stroke="#999999" d="M410.558,-80C410.558,-80 323.442,-80 323.442,-80 319.775,-80 316.109,-76.3333 316.109,-72.6667 316.109,-72.6667 316.109,-65.3333 316.109,-65.3333 316.109,-61.6667 319.775,-58 323.442,-58 323.442,-58 410.558,-58 410.558,-58 414.225,-58 417.891,-61.6667 417.891,-65.3333 417.891,-65.3333 417.891,-72.6667 417.891,-72.6667 417.891,-76.3333 414.225,-80 410.558,-80"/>
<text text-anchor="middle" x="367" y="-65.4" font-family="Helvetica,sans-Serif" font-size="12.00" fill="white">AbsoluteValuable</text>
</a>
</g>
</g>
<!-- Double -->
<g id="node5" class="node">
<g id="a_node5"><a xlink:href="/v2.0/type/Double/" target="_top">
<polygon fill="#ee543d" stroke="#ee543d" points="742,-22 688,-22 688,-0 742,-0 742,-22"/>
<text text-anchor="middle" x="715" y="-7.4" font-family="Helvetica,sans-Serif" font-size="12.00" fill="white">Double</text>
</a>
</g>
</g>
<!-- AbsoluteValuable&#45;&gt;Double -->
<g id="edge9" class="edge">
<path fill="none" stroke="#cccccc" d="M418.059,-59.466C421.084,-58.9679 424.082,-58.4762 427,-58 517.138,-43.2901 623.232,-26.4725 678.049,-17.8201"/>
<polygon fill="#cccccc" stroke="#cccccc" points="678.658,-21.2673 687.99,-16.2516 677.567,-14.3529 678.658,-21.2673"/>
</g>
<!-- CVarArgType -->
<g id="node2" class="node">
<g id="a_node2"><a xlink:href="/v2.0/protocol/CVarArgType/" target="_top">
<path fill="#999999" stroke="#999999" d="M957.029,-138C957.029,-138 890.971,-138 890.971,-138 887.304,-138 883.638,-134.333 883.638,-130.667 883.638,-130.667 883.638,-123.333 883.638,-123.333 883.638,-119.667 887.304,-116 890.971,-116 890.971,-116 957.029,-116 957.029,-116 960.696,-116 964.362,-119.667 964.362,-123.333 964.362,-123.333 964.362,-130.667 964.362,-130.667 964.362,-134.333 960.696,-138 957.029,-138"/>
<text text-anchor="middle" x="924" y="-123.4" font-family="Helvetica,sans-Serif" font-size="12.00" fill="white">CVarArgType</text>
</a>
</g>
</g>
<!-- CVarArgType&#45;&gt;Double -->
<g id="edge14" class="edge">
<path fill="none" stroke="#cccccc" d="M907.689,-115.944C885.427,-102.334 844.158,-77.5089 808,-58 787.481,-46.929 763.936,-35.2936 745.671,-26.4948"/>
<polygon fill="#cccccc" stroke="#cccccc" points="747.175,-23.3346 736.645,-22.1701 744.151,-29.6475 747.175,-23.3346"/>
</g>
<!-- _CVarArgAlignedType -->
<g id="node13" class="node">
<g id="a_node13"><a xlink:href="/v2.0/protocol/_CVarArgAlignedType/" target="_top">
<path fill="#999999" stroke="#999999" d="M980.059,-80C980.059,-80 867.941,-80 867.941,-80 864.274,-80 860.608,-76.3333 860.608,-72.6667 860.608,-72.6667 860.608,-65.3333 860.608,-65.3333 860.608,-61.6667 864.274,-58 867.941,-58 867.941,-58 980.059,-58 980.059,-58 983.726,-58 987.392,-61.6667 987.392,-65.3333 987.392,-65.3333 987.392,-72.6667 987.392,-72.6667 987.392,-76.3333 983.726,-80 980.059,-80"/>
<text text-anchor="middle" x="924" y="-65.4" font-family="Helvetica,sans-Serif" font-size="12.00" fill="white">_CVarArgAlignedType</text>
</a>
</g>
</g>
<!-- CVarArgType&#45;&gt;_CVarArgAlignedType -->
<g id="edge26" class="edge">
<path fill="none" stroke="#cccccc" d="M924,-115.988C924,-108.91 924,-99.1714 924,-90.4779"/>
<polygon fill="#cccccc" stroke="#cccccc" points="927.5,-90.3038 924,-80.3039 920.5,-90.3039 927.5,-90.3038"/>
</g>
<!-- _CVarArgPassedAsDouble -->
<g id="node14" class="node">
<g id="a_node14"><a xlink:href="/v2.0/protocol/_CVarArgPassedAsDouble/" target="_top">
<path fill="#999999" stroke="#999999" d="M1152.06,-80C1152.06,-80 1013.94,-80 1013.94,-80 1010.27,-80 1006.6,-76.3333 1006.6,-72.6667 1006.6,-72.6667 1006.6,-65.3333 1006.6,-65.3333 1006.6,-61.6667 1010.27,-58 1013.94,-58 1013.94,-58 1152.06,-58 1152.06,-58 1155.73,-58 1159.4,-61.6667 1159.4,-65.3333 1159.4,-65.3333 1159.4,-72.6667 1159.4,-72.6667 1159.4,-76.3333 1155.73,-80 1152.06,-80"/>
<text text-anchor="middle" x="1083" y="-65.4" font-family="Helvetica,sans-Serif" font-size="12.00" fill="white">_CVarArgPassedAsDouble</text>
</a>
</g>
</g>
<!-- CVarArgType&#45;&gt;_CVarArgPassedAsDouble -->
<g id="edge25" class="edge">
<path fill="none" stroke="#cccccc" d="M952.426,-115.988C978.235,-106.898 1016.5,-93.4223 1044.94,-83.4053"/>
<polygon fill="#cccccc" stroke="#cccccc" points="1046.28,-86.6425 1054.55,-80.0192 1043.96,-80.0401 1046.28,-86.6425"/>
</g>
<!-- Comparable -->
<g id="node3" class="node">
<g id="a_node3"><a xlink:href="/v2.0/protocol/Comparable/" target="_top">
<path fill="#999999" stroke="#999999" d="M624.191,-196C624.191,-196 563.809,-196 563.809,-196 560.142,-196 556.475,-192.333 556.475,-188.667 556.475,-188.667 556.475,-181.333 556.475,-181.333 556.475,-177.667 560.142,-174 563.809,-174 563.809,-174 624.191,-174 624.191,-174 627.858,-174 631.525,-177.667 631.525,-181.333 631.525,-181.333 631.525,-188.667 631.525,-188.667 631.525,-192.333 627.858,-196 624.191,-196"/>
<text text-anchor="middle" x="594" y="-181.4" font-family="Helvetica,sans-Serif" font-size="12.00" fill="white">Comparable</text>
</a>
</g>
</g>
<!-- Comparable&#45;&gt;Double -->
<g id="edge5" class="edge">
<path fill="none" stroke="#cccccc" d="M592.536,-173.959C589.749,-150.904 586.147,-93.4416 613,-58 628.667,-37.3224 655.746,-25.7001 678.067,-19.3126"/>
<polygon fill="#cccccc" stroke="#cccccc" points="679.141,-22.6495 687.93,-16.7325 677.369,-15.8774 679.141,-22.6495"/>
</g>
<!-- SignedNumberType -->
<g id="node11" class="node">
<g id="a_node11"><a xlink:href="/v2.0/protocol/SignedNumberType/" target="_top">
<path fill="#999999" stroke="#999999" d="M321.716,-138C321.716,-138 220.284,-138 220.284,-138 216.617,-138 212.95,-134.333 212.95,-130.667 212.95,-130.667 212.95,-123.333 212.95,-123.333 212.95,-119.667 216.617,-116 220.284,-116 220.284,-116 321.716,-116 321.716,-116 325.383,-116 329.05,-119.667 329.05,-123.333 329.05,-123.333 329.05,-130.667 329.05,-130.667 329.05,-134.333 325.383,-138 321.716,-138"/>
<text text-anchor="middle" x="271" y="-123.4" font-family="Helvetica,sans-Serif" font-size="12.00" fill="white">SignedNumberType</text>
</a>
</g>
</g>
<!-- Comparable&#45;&gt;SignedNumberType -->
<g id="edge22" class="edge">
<path fill="none" stroke="#cccccc" d="M556.632,-177.521C503.402,-168.293 404.867,-151.209 338.619,-139.723"/>
<polygon fill="#cccccc" stroke="#cccccc" points="339.134,-136.26 328.683,-138.001 337.938,-143.158 339.134,-136.26"/>
</g>
<!-- Strideable -->
<g id="node12" class="node">
<g id="a_node12"><a xlink:href="/v2.0/protocol/Strideable/" target="_top">
<path fill="#999999" stroke="#999999" d="M729.693,-138C729.693,-138 680.307,-138 680.307,-138 676.64,-138 672.974,-134.333 672.974,-130.667 672.974,-130.667 672.974,-123.333 672.974,-123.333 672.974,-119.667 676.64,-116 680.307,-116 680.307,-116 729.693,-116 729.693,-116 733.36,-116 737.026,-119.667 737.026,-123.333 737.026,-123.333 737.026,-130.667 737.026,-130.667 737.026,-134.333 733.36,-138 729.693,-138"/>
<text text-anchor="middle" x="705" y="-123.4" font-family="Helvetica,sans-Serif" font-size="12.00" fill="white">Strideable</text>
</a>
</g>
</g>
<!-- Comparable&#45;&gt;Strideable -->
<g id="edge18" class="edge">
<path fill="none" stroke="#cccccc" d="M613.845,-173.988C631.1,-165.283 656.331,-152.554 675.875,-142.694"/>
<polygon fill="#cccccc" stroke="#cccccc" points="677.601,-145.743 684.953,-138.114 674.448,-139.493 677.601,-145.743"/>
</g>
<!-- CustomStringConvertible -->
<g id="node4" class="node">
<g id="a_node4"><a xlink:href="/v2.0/protocol/CustomStringConvertible/" target="_top">
<path fill="#999999" stroke="#999999" d="M290.208,-80C290.208,-80 161.792,-80 161.792,-80 158.126,-80 154.459,-76.3333 154.459,-72.6667 154.459,-72.6667 154.459,-65.3333 154.459,-65.3333 154.459,-61.6667 158.126,-58 161.792,-58 161.792,-58 290.208,-58 290.208,-58 293.874,-58 297.541,-61.6667 297.541,-65.3333 297.541,-65.3333 297.541,-72.6667 297.541,-72.6667 297.541,-76.3333 293.874,-80 290.208,-80"/>
<text text-anchor="middle" x="226" y="-65.4" font-family="Helvetica,sans-Serif" font-size="12.00" fill="white">CustomStringConvertible</text>
</a>
</g>
</g>
<!-- CustomStringConvertible&#45;&gt;Double -->
<g id="edge1" class="edge">
<path fill="none" stroke="#cccccc" d="M297.549,-59.1252C300.742,-58.7422 303.904,-58.3656 307,-58 443.351,-41.8973 605.489,-23.9854 677.423,-16.1024"/>
<polygon fill="#cccccc" stroke="#cccccc" points="678.213,-19.5369 687.773,-14.9692 677.451,-12.5785 678.213,-19.5369"/>
</g>
<!-- Equatable -->
<g id="node6" class="node">
<g id="a_node6"><a xlink:href="/v2.0/protocol/Equatable/" target="_top">
<path fill="#999999" stroke="#999999" d="M618.702,-254C618.702,-254 569.298,-254 569.298,-254 565.632,-254 561.965,-250.333 561.965,-246.667 561.965,-246.667 561.965,-239.333 561.965,-239.333 561.965,-235.667 565.632,-232 569.298,-232 569.298,-232 618.702,-232 618.702,-232 622.368,-232 626.035,-235.667 626.035,-239.333 626.035,-239.333 626.035,-246.667 626.035,-246.667 626.035,-250.333 622.368,-254 618.702,-254"/>
<text text-anchor="middle" x="594" y="-239.4" font-family="Helvetica,sans-Serif" font-size="12.00" fill="white">Equatable</text>
</a>
</g>
</g>
<!-- Equatable&#45;&gt;Comparable -->
<g id="edge20" class="edge">
<path fill="none" stroke="#cccccc" d="M594,-231.988C594,-224.91 594,-215.171 594,-206.478"/>
<polygon fill="#cccccc" stroke="#cccccc" points="597.5,-206.304 594,-196.304 590.5,-206.304 597.5,-206.304"/>
</g>
<!-- Equatable&#45;&gt;Double -->
<g id="edge6" class="edge">
<path fill="none" stroke="#cccccc" d="M626.244,-240.85C765.296,-235.155 1311.27,-205.007 1414,-80 1420.21,-72.4457 1420.68,-65.1373 1414,-58 1368.53,-9.44034 890.173,-10.2848 752.11,-11.5556"/>
<polygon fill="#cccccc" stroke="#cccccc" points="751.991,-8.05646 742.026,-11.6549 752.06,-15.0561 751.991,-8.05646"/>
</g>
<!-- Hashable -->
<g id="node9" class="node">
<g id="a_node9"><a xlink:href="/v2.0/protocol/Hashable/" target="_top">
<path fill="#999999" stroke="#999999" d="M52.6941,-138C52.6941,-138 7.30586,-138 7.30586,-138 3.6392,-138 -0.0274696,-134.333 -0.0274696,-130.667 -0.0274696,-130.667 -0.0274696,-123.333 -0.0274696,-123.333 -0.0274696,-119.667 3.6392,-116 7.30586,-116 7.30586,-116 52.6941,-116 52.6941,-116 56.3608,-116 60.0275,-119.667 60.0275,-123.333 60.0275,-123.333 60.0275,-130.667 60.0275,-130.667 60.0275,-134.333 56.3608,-138 52.6941,-138"/>
<text text-anchor="middle" x="30" y="-123.4" font-family="Helvetica,sans-Serif" font-size="12.00" fill="white">Hashable</text>
</a>
</g>
</g>
<!-- Equatable&#45;&gt;Hashable -->
<g id="edge21" class="edge">
<path fill="none" stroke="#cccccc" d="M561.83,-241.118C468.956,-238.219 201.885,-227.311 121,-196 91.9172,-184.742 64.0433,-161.448 46.9806,-145.282"/>
<polygon fill="#cccccc" stroke="#cccccc" points="49.1181,-142.478 39.5149,-138.002 44.2313,-147.489 49.1181,-142.478"/>
</g>
<!-- FloatLiteralConvertible -->
<g id="node7" class="node">
<g id="a_node7"><a xlink:href="/v2.0/protocol/FloatLiteralConvertible/" target="_top">
<path fill="#999999" stroke="#999999" d="M558.711,-80C558.711,-80 443.289,-80 443.289,-80 439.623,-80 435.956,-76.3333 435.956,-72.6667 435.956,-72.6667 435.956,-65.3333 435.956,-65.3333 435.956,-61.6667 439.623,-58 443.289,-58 443.289,-58 558.711,-58 558.711,-58 562.377,-58 566.044,-61.6667 566.044,-65.3333 566.044,-65.3333 566.044,-72.6667 566.044,-72.6667 566.044,-76.3333 562.377,-80 558.711,-80"/>
<text text-anchor="middle" x="501" y="-65.4" font-family="Helvetica,sans-Serif" font-size="12.00" fill="white">FloatLiteralConvertible</text>
</a>
</g>
</g>
<!-- FloatLiteralConvertible&#45;&gt;Double -->
<g id="edge4" class="edge">
<path fill="none" stroke="#cccccc" d="M539.259,-57.9883C578.547,-47.7073 639.278,-31.8151 678.073,-21.6631"/>
<polygon fill="#cccccc" stroke="#cccccc" points="679.129,-25.0048 687.917,-19.0871 677.357,-18.2328 679.129,-25.0048"/>
</g>
<!-- FloatingPointType -->
<g id="node8" class="node">
<g id="a_node8"><a xlink:href="/v2.0/protocol/FloatingPointType/" target="_top">
<path fill="#999999" stroke="#999999" d="M720.715,-80C720.715,-80 629.285,-80 629.285,-80 625.618,-80 621.952,-76.3333 621.952,-72.6667 621.952,-72.6667 621.952,-65.3333 621.952,-65.3333 621.952,-61.6667 625.618,-58 629.285,-58 629.285,-58 720.715,-58 720.715,-58 724.382,-58 728.048,-61.6667 728.048,-65.3333 728.048,-65.3333 728.048,-72.6667 728.048,-72.6667 728.048,-76.3333 724.382,-80 720.715,-80"/>
<text text-anchor="middle" x="675" y="-65.4" font-family="Helvetica,sans-Serif" font-size="12.00" fill="white">FloatingPointType</text>
</a>
</g>
</g>
<!-- FloatingPointType&#45;&gt;Double -->
<g id="edge2" class="edge">
<path fill="none" stroke="#cccccc" d="M682.151,-57.9883C687.601,-50.3592 695.257,-39.6405 701.807,-30.4702"/>
<polygon fill="#cccccc" stroke="#cccccc" points="704.676,-32.4756 707.64,-22.3039 698.98,-28.4069 704.676,-32.4756"/>
</g>
<!-- Hashable&#45;&gt;Double -->
<g id="edge7" class="edge">
<path fill="none" stroke="#cccccc" d="M33.2899,-115.761C38.8841,-100.218 51.851,-71.0988 74,-58 125.958,-27.2723 548.165,-15.6232 677.489,-12.7553"/>
<polygon fill="#cccccc" stroke="#cccccc" points="677.766,-16.2502 687.687,-12.534 677.614,-9.25189 677.766,-16.2502"/>
</g>
<!-- IntegerLiteralConvertible -->
<g id="node10" class="node">
<g id="a_node10"><a xlink:href="/v2.0/protocol/IntegerLiteralConvertible/" target="_top">
<path fill="#999999" stroke="#999999" d="M262.722,-196C262.722,-196 137.278,-196 137.278,-196 133.611,-196 129.944,-192.333 129.944,-188.667 129.944,-188.667 129.944,-181.333 129.944,-181.333 129.944,-177.667 133.611,-174 137.278,-174 137.278,-174 262.722,-174 262.722,-174 266.389,-174 270.056,-177.667 270.056,-181.333 270.056,-181.333 270.056,-188.667 270.056,-188.667 270.056,-192.333 266.389,-196 262.722,-196"/>
<text text-anchor="middle" x="200" y="-181.4" font-family="Helvetica,sans-Serif" font-size="12.00" fill="white">IntegerLiteralConvertible</text>
</a>
</g>
</g>
<!-- IntegerLiteralConvertible&#45;&gt;Double -->
<g id="edge3" class="edge">
<path fill="none" stroke="#cccccc" d="M187.096,-173.757C159.62,-150.775 100.483,-94.275 134,-58 170.905,-18.0572 555.566,-12.7601 677.879,-12.0881"/>
<polygon fill="#cccccc" stroke="#cccccc" points="677.906,-15.5881 687.889,-12.0404 677.873,-8.58818 677.906,-15.5881"/>
</g>
<!-- IntegerLiteralConvertible&#45;&gt;SignedNumberType -->
<g id="edge23" class="edge">
<path fill="none" stroke="#cccccc" d="M212.693,-173.988C223.064,-165.809 237.938,-154.077 250.067,-144.511"/>
<polygon fill="#cccccc" stroke="#cccccc" points="252.252,-147.245 257.936,-138.304 247.917,-141.749 252.252,-147.245"/>
</g>
<!-- SignedNumberType&#45;&gt;AbsoluteValuable -->
<g id="edge24" class="edge">
<path fill="none" stroke="#cccccc" d="M288.163,-115.988C302.815,-107.441 324.116,-95.0155 340.884,-85.2343"/>
<polygon fill="#cccccc" stroke="#cccccc" points="342.788,-88.1758 349.662,-80.1138 339.261,-82.1293 342.788,-88.1758"/>
</g>
<!-- SignedNumberType&#45;&gt;Double -->
<g id="edge8" class="edge">
<path fill="none" stroke="#cccccc" d="M215.872,-115.924C170.911,-105.396 118.79,-86.4099 145,-58 181.063,-18.9092 556.118,-13.0303 677.397,-12.1523"/>
<polygon fill="#cccccc" stroke="#cccccc" points="677.691,-15.6506 687.668,-12.0857 677.645,-8.65072 677.691,-15.6506"/>
</g>
<!-- Strideable&#45;&gt;Double -->
<g id="edge10" class="edge">
<path fill="none" stroke="#cccccc" d="M714.98,-115.682C722.669,-106.966 732.691,-93.7383 737,-80 742.199,-63.4229 735.13,-44.6376 727.657,-31.0184"/>
<polygon fill="#cccccc" stroke="#cccccc" points="730.463,-28.8916 722.314,-22.12 724.461,-32.495 730.463,-28.8916"/>
</g>
<!-- Strideable&#45;&gt;FloatingPointType -->
<g id="edge17" class="edge">
<path fill="none" stroke="#cccccc" d="M699.637,-115.988C695.676,-108.595 690.161,-98.3005 685.353,-89.3253"/>
<polygon fill="#cccccc" stroke="#cccccc" points="688.327,-87.4659 680.52,-80.3039 682.157,-90.7715 688.327,-87.4659"/>
</g>
<!-- _CVarArgAlignedType&#45;&gt;Double -->
<g id="edge15" class="edge">
<path fill="none" stroke="#cccccc" d="M886.635,-57.9883C848.642,-47.8085 790.119,-32.1276 752.19,-21.9647"/>
<polygon fill="#cccccc" stroke="#cccccc" points="752.637,-18.4612 742.072,-19.2538 750.825,-25.2227 752.637,-18.4612"/>
</g>
<!-- _CVarArgPassedAsDouble&#45;&gt;Double -->
<g id="edge13" class="edge">
<path fill="none" stroke="#cccccc" d="M1017.21,-57.9883C940.013,-46.2412 814.679,-27.1685 752.478,-17.7031"/>
<polygon fill="#cccccc" stroke="#cccccc" points="752.751,-14.2045 742.338,-16.1601 751.698,-21.1248 752.751,-14.2045"/>
</g>
<!-- _ObjectiveCBridgeable -->
<g id="node15" class="node">
<g id="a_node15"><a xlink:href="/v2.0/protocol/_ObjectiveCBridgeable/" target="_top">
<path fill="#999999" stroke="#999999" d="M1302.72,-80C1302.72,-80 1185.28,-80 1185.28,-80 1181.61,-80 1177.95,-76.3333 1177.95,-72.6667 1177.95,-72.6667 1177.95,-65.3333 1177.95,-65.3333 1177.95,-61.6667 1181.61,-58 1185.28,-58 1185.28,-58 1302.72,-58 1302.72,-58 1306.39,-58 1310.05,-61.6667 1310.05,-65.3333 1310.05,-65.3333 1310.05,-72.6667 1310.05,-72.6667 1310.05,-76.3333 1306.39,-80 1302.72,-80"/>
<text text-anchor="middle" x="1244" y="-65.4" font-family="Helvetica,sans-Serif" font-size="12.00" fill="white">_ObjectiveCBridgeable</text>
</a>
</g>
</g>
<!-- _ObjectiveCBridgeable&#45;&gt;Double -->
<g id="edge16" class="edge">
<path fill="none" stroke="#cccccc" d="M1177.7,-59.1581C1174.42,-58.758 1171.17,-58.3697 1168,-58 1013.89,-40.0409 829.817,-22.581 752.307,-15.4111"/>
<polygon fill="#cccccc" stroke="#cccccc" points="752.371,-11.9022 742.092,-14.4687 751.728,-18.8726 752.371,-11.9022"/>
</g>
<!-- _Reflectable -->
<g id="node16" class="node">
<g id="a_node16"><a xlink:href="/v2.0/protocol/_Reflectable/" target="_top">
<path fill="#999999" stroke="#999999" d="M1397.7,-80C1397.7,-80 1336.3,-80 1336.3,-80 1332.63,-80 1328.97,-76.3333 1328.97,-72.6667 1328.97,-72.6667 1328.97,-65.3333 1328.97,-65.3333 1328.97,-61.6667 1332.63,-58 1336.3,-58 1336.3,-58 1397.7,-58 1397.7,-58 1401.37,-58 1405.03,-61.6667 1405.03,-65.3333 1405.03,-65.3333 1405.03,-72.6667 1405.03,-72.6667 1405.03,-76.3333 1401.37,-80 1397.7,-80"/>
<text text-anchor="middle" x="1367" y="-65.4" font-family="Helvetica,sans-Serif" font-size="12.00" fill="white">_Reflectable</text>
</a>
</g>
</g>
<!-- _Reflectable&#45;&gt;Double -->
<g id="edge12" class="edge">
<path fill="none" stroke="#cccccc" d="M1328.83,-59.5825C1325.51,-58.9929 1322.2,-58.4536 1319,-58 1105.94,-27.8229 847.609,-16.4987 752.485,-13.1685"/>
<polygon fill="#cccccc" stroke="#cccccc" points="752.339,-9.6616 742.226,-12.8185 752.101,-16.6575 752.339,-9.6616"/>
</g>
<!-- _Strideable -->
<g id="node17" class="node">
<g id="a_node17"><a xlink:href="/v2.0/protocol/_Strideable/" target="_top">
<path fill="#999999" stroke="#999999" d="M791.7,-196C791.7,-196 736.3,-196 736.3,-196 732.634,-196 728.967,-192.333 728.967,-188.667 728.967,-188.667 728.967,-181.333 728.967,-181.333 728.967,-177.667 732.634,-174 736.3,-174 736.3,-174 791.7,-174 791.7,-174 795.366,-174 799.033,-177.667 799.033,-181.333 799.033,-181.333 799.033,-188.667 799.033,-188.667 799.033,-192.333 795.366,-196 791.7,-196"/>
<text text-anchor="middle" x="764" y="-181.4" font-family="Helvetica,sans-Serif" font-size="12.00" fill="white">_Strideable</text>
</a>
</g>
</g>
<!-- _Strideable&#45;&gt;Double -->
<g id="edge11" class="edge">
<path fill="none" stroke="#cccccc" d="M764.955,-173.734C766.604,-151.637 768.387,-98.3045 752,-58 747.715,-47.4614 740.19,-37.4136 733.04,-29.4123"/>
<polygon fill="#cccccc" stroke="#cccccc" points="735.571,-26.9952 726.149,-22.1507 730.494,-31.8137 735.571,-26.9952"/>
</g>
<!-- _Strideable&#45;&gt;Strideable -->
<g id="edge19" class="edge">
<path fill="none" stroke="#cccccc" d="M753.452,-173.988C745.083,-166.045 733.184,-154.751 723.273,-145.344"/>
<polygon fill="#cccccc" stroke="#cccccc" points="725.518,-142.65 715.856,-138.304 720.699,-147.727 725.518,-142.65"/>
</g>
</g>
</svg>
